<?xml version="1.0" encoding="UTF-8" standalone="no"?>
<!-- Created with Inkscape (http://www.inkscape.org/) -->

<svg
   version="1.1"
   id="svg1"
   width="430.66666"
   height="153.33333"
   viewBox="0 0 430.66666 153.33333"
   xmlns="http://www.w3.org/2000/svg"
   xmlns:svg="http://www.w3.org/2000/svg">
  <defs
     id="defs1" />
  <g
     id="g1">
    <path
       id="path1"
       d="M 10,380 H 1060"
       style="fill:none;stroke:#000000;stroke-width:10;stroke-linecap:butt;stroke-linejoin:miter;stroke-miterlimit:10;stroke-dasharray:none;stroke-opacity:1"
       transform="matrix(0.13333333,0,0,-0.13333333,0,153.33333)" />
    <path
       id="path2"
       d="m 1110,380 -50,20 v -40"
       style="fill:#000000;fill-opacity:1;fill-rule:nonzero;stroke:none"
       transform="matrix(0.13333333,0,0,-0.13333333,0,153.33333)" />
    <path
       id="path3"
       d="M 360,30 V 1080"
       style="fill:none;stroke:#000000;stroke-width:10;stroke-linecap:butt;stroke-linejoin:miter;stroke-miterlimit:10;stroke-dasharray:none;stroke-opacity:1"
       transform="matrix(0.13333333,0,0,-0.13333333,0,153.33333)" />
    <path
       id="path4"
       d="m 360,1130 -20,-50 h 40"
       style="fill:#000000;fill-opacity:1;fill-rule:nonzero;stroke:none"
       transform="matrix(0.13333333,0,0,-0.13333333,0,153.33333)" />
    <path
       id="path5"
       d="m 710,350 v 60"
       style="fill:none;stroke:#000000;stroke-width:10;stroke-linecap:butt;stroke-linejoin:miter;stroke-miterlimit:10;stroke-dasharray:none;stroke-opacity:1"
       transform="matrix(0.13333333,0,0,-0.13333333,0,153.33333)" />
    <path
       id="path6"
       d="m 330,730 h 60"
       style="fill:none;stroke:#000000;stroke-width:10;stroke-linecap:butt;stroke-linejoin:miter;stroke-miterlimit:10;stroke-dasharray:none;stroke-opacity:1"
       transform="matrix(0.13333333,0,0,-0.13333333,0,153.33333)" />
    <path
       id="path7"
       d="M 360,380 H 710 L 360,730 Z"
       style="fill:none;stroke:#000000;stroke-width:10;stroke-linecap:butt;stroke-linejoin:miter;stroke-miterlimit:10;stroke-dasharray:none;stroke-opacity:1"
       transform="matrix(0.13333333,0,0,-0.13333333,0,153.33333)" />
    <path
       id="path8"
       d="m 380,380 c 0,11.043 -8.957,20 -20,20 -11.043,0 -20,-8.957 -20,-20 0,-11.043 8.957,-20 20,-20 11.043,0 20,8.957 20,20"
       style="fill:#000000;fill-opacity:1;fill-rule:nonzero;stroke:none"
       transform="matrix(0.13333333,0,0,-0.13333333,0,153.33333)" />
    <path
       id="path9"
       d="m 730,380 c 0,11.043 -8.957,20 -20,20 -11.043,0 -20,-8.957 -20,-20 0,-11.043 8.957,-20 20,-20 11.043,0 20,8.957 20,20"
       style="fill:#000000;fill-opacity:1;fill-rule:nonzero;stroke:none"
       transform="matrix(0.13333333,0,0,-0.13333333,0,153.33333)" />
    <path
       id="path10"
       d="m 380,730 c 0,11.043 -8.957,20 -20,20 -11.043,0 -20,-8.957 -20,-20 0,-11.043 8.957,-20 20,-20 11.043,0 20,8.957 20,20"
       style="fill:#000000;fill-opacity:1;fill-rule:nonzero;stroke:none"
       transform="matrix(0.13333333,0,0,-0.13333333,0,153.33333)" />
    <g
       id="g10"
       aria-label="x&#10;y&#10;D’"
       transform="matrix(1.3333333,0,0,1.3333333,138.66667,118.66667)">
      <path
         id="path11"
         d="m 2.4267578,-6.1865234 c 0.225586,0.234375 0.3925781,0.4746093 0.5039063,0.7148437 0.084961,0.1640625 0.2226562,0.5947266 0.4101562,1.2890625 L 3.9384766,-5.0849609 C 4.1025391,-5.3017578 4.2958984,-5.5097656 4.5244141,-5.7060547 4.75,-5.9082031 4.9492187,-6.0458984 5.1220703,-6.1162109 c 0.1083984,-0.046875 0.2285156,-0.070312 0.3632813,-0.070312 0.1933593,0 0.3515625,0.055664 0.46875,0.1640625 0.1171875,0.102539 0.1757812,0.2285156 0.1757812,0.375 0,0.1728515 -0.035156,0.290039 -0.1054687,0.3515625 -0.1259766,0.1171875 -0.2695313,0.1757812 -0.4335938,0.1757812 -0.1025391,0 -0.2080078,-0.017578 -0.3164062,-0.058594 -0.2109375,-0.076172 -0.3515625,-0.1171875 -0.421875,-0.1171875 -0.1113282,0 -0.2431641,0.067383 -0.3984375,0.1992187 -0.28125,0.234375 -0.6181641,0.6914063 -1.0078125,1.3710938 l 0.5625,2.3554687 c 0.084961,0.3603516 0.1552734,0.57421876 0.2109375,0.64453126 0.061523,0.0703125 0.1230468,0.10546875 0.1875,0.10546875 0.09375,0 0.2021484,-0.0527344 0.328125,-0.1640625 C 4.984375,-0.98632813 5.1982422,-1.2587891 5.3798828,-1.6044922 l 0.2460938,0.1289063 C 5.3359375,-0.93652344 4.9697266,-0.49121094 4.5244141,-0.13964844 4.2724609,0.0625 4.0615234,0.16503906 3.8916016,0.16503906 c -0.2578125,0 -0.4628907,-0.14648437 -0.609375,-0.43359375 -0.09375,-0.17871094 -0.2929688,-0.94335941 -0.5976563,-2.29687501 -0.7119141,1.2363281 -1.2832031,2.03320314 -1.71093749,2.39062501 -0.27539062,0.22558594 -0.5390625,0.33984375 -0.796875,0.33984375 -0.1875,0 -0.35449218,-0.06738281 -0.50390625,-0.19921875 -0.10839844,-0.09960937 -0.1640625,-0.234375 -0.1640625,-0.3984375 0,-0.15527343 0.0527344,-0.28125 0.15234375,-0.375 0.10253906,-0.0996094 0.22265625,-0.15234375 0.36328125,-0.15234375 0.14648438,0 0.3046875,0.0703125 0.46875,0.2109375 0.1171875,0.11132813 0.20507813,0.1640625 0.26953125,0.1640625 0.0527344,0 0.12304688,-0.0380859 0.2109375,-0.1171875 C 1.1904297,-0.87207031 1.4833984,-1.2441406 1.8525391,-1.8154297 2.21875,-2.3925781 2.4619141,-2.8056641 2.5791016,-3.0576172 2.2978516,-4.1650391 2.1455078,-4.7509766 2.1220703,-4.8154297 2.0107422,-5.1113281 1.8701172,-5.3222656 1.7001953,-5.4482422 c -0.1640625,-0.1230469 -0.4101562,-0.1875 -0.73828124,-0.1875 -0.10253906,0 -0.22265625,0.00586 -0.36328125,0.011719 v -0.246094 z M -75.760742,-86.1875 c 0.155273,0.266602 0.260742,0.515625 0.316406,0.75 0.06152,0.228516 0.123047,0.676758 0.1875,1.347656 l 0.292969,3.363282 c 0.272461,-0.328125 0.670898,-0.84668 1.195312,-1.558594 0.249024,-0.342774 0.556641,-0.814453 0.925782,-1.417969 0.225586,-0.357422 0.363281,-0.612305 0.410156,-0.761719 0.0293,-0.07031 0.04687,-0.143554 0.04687,-0.222656 0,-0.05273 -0.01758,-0.09668 -0.04687,-0.128906 -0.03223,-0.0293 -0.117188,-0.06445 -0.257813,-0.105469 -0.134765,-0.04687 -0.246093,-0.128906 -0.339843,-0.246094 -0.08789,-0.117187 -0.128907,-0.249023 -0.128907,-0.398437 0,-0.1875 0.05274,-0.333985 0.164063,-0.445313 0.108398,-0.117187 0.246094,-0.175781 0.410156,-0.175781 0.202149,0 0.375,0.08789 0.515625,0.257813 0.140625,0.164062 0.210938,0.392578 0.210938,0.679687 0,0.360352 -0.125977,0.770508 -0.375,1.230469 -0.243164,0.46289 -0.714844,1.171875 -1.417969,2.132812 -0.697266,0.955078 -1.543945,1.995117 -2.542969,3.128907 -0.688476,0.779296 -1.201172,1.271484 -1.535156,1.476562 -0.333985,0.202148 -0.621094,0.304688 -0.855469,0.304688 -0.140625,0 -0.260742,-0.05567 -0.363281,-0.164063 -0.108399,-0.111328 -0.164063,-0.234375 -0.164063,-0.375 0,-0.172852 0.07617,-0.333984 0.222657,-0.480469 0.149414,-0.149414 0.310546,-0.222656 0.480468,-0.222656 0.08789,0 0.161133,0.02344 0.222657,0.07031 0.04101,0.01465 0.08203,0.07617 0.128906,0.1875 0.04101,0.108398 0.07324,0.18164 0.105469,0.222656 0.02344,0.01465 0.0498,0.02344 0.08203,0.02344 0.0293,0 0.08203,-0.02051 0.152344,-0.05859 0.249023,-0.158204 0.539062,-0.404297 0.867187,-0.738282 0.436524,-0.454101 0.761719,-0.820312 0.972656,-1.101562 l -0.375,-4.335938 c -0.07031,-0.708984 -0.169922,-1.142578 -0.292968,-1.300781 -0.125977,-0.155273 -0.339844,-0.234375 -0.644532,-0.234375 -0.09375,0 -0.266601,0.01758 -0.515625,0.04687 l -0.05859,-0.257812 z m 27.310547,42.665039 0.08203,-0.246094 h 2.964844 c 1.248047,0 2.173828,0.146485 2.777343,0.433594 0.609375,0.28125 1.092774,0.732422 1.453125,1.347656 0.357422,0.618164 0.539063,1.283203 0.539063,1.992188 0,0.603515 -0.105469,1.192383 -0.316406,1.769531 -0.205078,0.571289 -0.439453,1.02832 -0.703125,1.371094 -0.257813,0.345703 -0.66211,0.723633 -1.207032,1.136719 -0.539062,0.416015 -1.125,0.723632 -1.757812,0.925781 -0.632813,0.196289 -1.426758,0.292969 -2.378906,0.292969 h -3.925782 l 0.09375,-0.257813 c 0.357422,-0.0059 0.600586,-0.03809 0.726563,-0.09375 0.178711,-0.07617 0.310547,-0.181641 0.398437,-0.316406 0.131836,-0.1875 0.28125,-0.56836 0.445313,-1.148438 l 1.640625,-5.613281 c 0.131836,-0.436523 0.199219,-0.779297 0.199219,-1.03125 0,-0.178711 -0.06445,-0.316406 -0.1875,-0.410156 -0.117188,-0.09961 -0.348633,-0.152344 -0.691407,-0.152344 z m 2.425781,0.269531 -2.003906,6.9375 c -0.158203,0.515625 -0.234375,0.837891 -0.234375,0.960938 0,0.07031 0.02344,0.140625 0.07031,0.210937 0.05273,0.07031 0.120117,0.117188 0.199219,0.140625 0.117187,0.04102 0.307617,0.05859 0.574219,0.05859 0.717773,0 1.382812,-0.07324 1.992187,-0.222656 0.615235,-0.146485 1.119141,-0.366211 1.511719,-0.65625 0.553711,-0.421875 0.996094,-1.001953 1.324219,-1.746094 0.333984,-0.75 0.503906,-1.59668 0.503906,-2.542969 0,-1.069336 -0.254883,-1.866211 -0.761719,-2.390625 -0.509765,-0.521484 -1.253906,-0.785156 -2.238281,-0.785156 -0.243164,0 -0.556641,0.01172 -0.9375,0.03516 z m 0,0"
         style="fill:#000000;fill-opacity:1;fill-rule:nonzero;stroke:none" />
      <path
         id="path12"
         d="m -37.499023,-42.959961 -0.972657,3.503906 c -0.01172,0.05859 -0.03516,0.09375 -0.03516,0.152344 0,0.222656 0.1875,0.410156 0.410156,0.410156 0.1875,0 0.292969,-0.08203 0.433594,-0.351562 l 2.027344,-3.714844 z m 0,0"
         style="fill:#000000;fill-opacity:1;fill-rule:nonzero;stroke:none" />
    </g>
    <path
       id="path13"
       d="M 2110,380 H 3160"
       style="fill:none;stroke:#000000;stroke-width:10;stroke-linecap:butt;stroke-linejoin:miter;stroke-miterlimit:10;stroke-dasharray:none;stroke-opacity:1"
       transform="matrix(0.13333333,0,0,-0.13333333,0,153.33333)" />
    <path
       id="path14"
       d="m 3210,380 -50,20 v -40"
       style="fill:#000000;fill-opacity:1;fill-rule:nonzero;stroke:none"
       transform="matrix(0.13333333,0,0,-0.13333333,0,153.33333)" />
    <path
       id="path15"
       d="M 2460,30 V 1080"
       style="fill:none;stroke:#000000;stroke-width:10;stroke-linecap:butt;stroke-linejoin:miter;stroke-miterlimit:10;stroke-dasharray:none;stroke-opacity:1"
       transform="matrix(0.13333333,0,0,-0.13333333,0,153.33333)" />
    <path
       id="path16"
       d="m 2460,1130 -20,-50 h 40"
       style="fill:#000000;fill-opacity:1;fill-rule:nonzero;stroke:none"
       transform="matrix(0.13333333,0,0,-0.13333333,0,153.33333)" />
    <path
       id="path17"
       d="m 2810,350 v 60"
       style="fill:none;stroke:#000000;stroke-width:10;stroke-linecap:butt;stroke-linejoin:miter;stroke-miterlimit:10;stroke-dasharray:none;stroke-opacity:1"
       transform="matrix(0.13333333,0,0,-0.13333333,0,153.33333)" />
    <path
       id="path18"
       d="m 2430,730 h 60"
       style="fill:none;stroke:#000000;stroke-width:10;stroke-linecap:butt;stroke-linejoin:miter;stroke-miterlimit:10;stroke-dasharray:none;stroke-opacity:1"
       transform="matrix(0.13333333,0,0,-0.13333333,0,153.33333)" />
    <path
       id="path19"
       d="M 2460,380 2810,30 v 700 z"
       style="fill:none;stroke:#000000;stroke-width:10;stroke-linecap:butt;stroke-linejoin:miter;stroke-miterlimit:10;stroke-dasharray:none;stroke-opacity:1"
       transform="matrix(0.13333333,0,0,-0.13333333,0,153.33333)" />
    <path
       id="path20"
       d="m 2480,380 c 0,11.043 -8.96,20 -20,20 -11.04,0 -20,-8.957 -20,-20 0,-11.043 8.96,-20 20,-20 11.04,0 20,8.957 20,20"
       style="fill:#000000;fill-opacity:1;fill-rule:nonzero;stroke:none"
       transform="matrix(0.13333333,0,0,-0.13333333,0,153.33333)" />
    <path
       id="path21"
       d="m 2830,30 c 0,11.043 -8.96,20 -20,20 -11.04,0 -20,-8.957 -20,-20 0,-11.043 8.96,-20 20,-20 11.04,0 20,8.957 20,20"
       style="fill:#000000;fill-opacity:1;fill-rule:nonzero;stroke:none"
       transform="matrix(0.13333333,0,0,-0.13333333,0,153.33333)" />
    <path
       id="path22"
       d="m 2830,730 c 0,11.043 -8.96,20 -20,20 -11.04,0 -20,-8.957 -20,-20 0,-11.043 8.96,-20 20,-20 11.04,0 20,8.957 20,20"
       style="fill:#000000;fill-opacity:1;fill-rule:nonzero;stroke:none"
       transform="matrix(0.13333333,0,0,-0.13333333,0,153.33333)" />
    <path
       id="path23"
       d="m 5.0869141,-6.1865234 -0.421875,2.0976562 H 4.4072266 c -0.023437,-0.609375 -0.1523438,-1.0488281 -0.3867188,-1.3242187 -0.234375,-0.28125 -0.5273437,-0.421875 -0.8789062,-0.421875 -0.28125,0 -0.5097657,0.079101 -0.6796875,0.234375 -0.1640625,0.149414 -0.2460938,0.3339843 -0.2460938,0.5507812 0,0.1582031 0.029297,0.3046875 0.09375,0.4453125 0.070312,0.1347656 0.2167969,0.3222656 0.4453125,0.5625 0.5859375,0.6503906 0.9638672,1.1367188 1.1367188,1.4648438 0.1787109,0.328125 0.2695312,0.6386718 0.2695312,0.9257812 0,0.4775391 -0.1992187,0.89941408 -0.5976562,1.26562501 -0.3925782,0.36914063 -0.8876953,0.55078125 -1.4882813,0.55078125 -0.328125,0 -0.7089844,-0.07910156 -1.13671874,-0.234375 C 0.7890625,-0.12207031 0.671875,-0.15136719 0.58691406,-0.15136719 c -0.20507812,0 -0.35742187,0.10546875 -0.45703125,0.31640625 h -0.2578125 l 0.421875,-2.21484376 h 0.24609375 c 0.0292969,0.6972656 0.17578125,1.18945314 0.43359375,1.47656251 0.25781249,0.28125 0.61230469,0.421875 1.06640629,0.421875 0.3427734,0 0.6152343,-0.09375 0.8203125,-0.28125 0.2021484,-0.19335937 0.3046875,-0.43652344 0.3046875,-0.72656251 0,-0.1787109 -0.035156,-0.3457031 -0.1054688,-0.5039062 C 2.9248047,-1.9355469 2.6552734,-2.3134766 2.2509766,-2.7998047 1.84375,-3.2832031 1.5830078,-3.6435547 1.4658203,-3.8779297 1.3486328,-4.1181641 1.2900391,-4.3613281 1.2900391,-4.6044922 c 0,-0.4453125 0.1582031,-0.8203125 0.4804687,-1.125 0.328125,-0.3046875 0.741211,-0.4570312 1.2421875,-0.4570312 0.1464844,0 0.28125,0.011719 0.3984375,0.035156 0.061524,0.017578 0.2109375,0.067383 0.4453125,0.1523438 0.234375,0.087891 0.3896484,0.1289062 0.46875,0.1289062 0.1933594,0 0.3574219,-0.1054687 0.4921875,-0.3164062 z m -79.4531251,-81.7001956 -0.527344,1.863282 h 1.078125 l -0.117187,0.433593 h -1.066406 l -1.183594,4.03125 c -0.125977,0.430664 -0.1875,0.711914 -0.1875,0.84375 0,0.0791 0.01465,0.137696 0.04687,0.175782 0.03809,0.04102 0.08496,0.05859 0.140625,0.05859 0.108398,0 0.257812,-0.07617 0.445312,-0.234375 0.108399,-0.09375 0.354493,-0.375 0.738282,-0.84375 l 0.222656,0.175782 c -0.421875,0.609375 -0.820313,1.040039 -1.195313,1.289062 -0.251953,0.169922 -0.509765,0.257813 -0.773437,0.257813 -0.196289,0 -0.360352,-0.06445 -0.492188,-0.1875 -0.125976,-0.123047 -0.1875,-0.28418 -0.1875,-0.480469 0,-0.249024 0.07324,-0.624024 0.222657,-1.125 l 1.136718,-3.960938 h -1.03125 l 0.07031,-0.269531 c 0.498047,-0.140625 0.914062,-0.342773 1.242187,-0.609375 0.333985,-0.272461 0.708985,-0.744141 1.125,-1.417969 z m 15.916992,49.362305 0.08203,-0.246094 h 2.964843 c 1.248047,0 2.173828,0.146485 2.777344,0.433594 0.609375,0.28125 1.092773,0.732422 1.453125,1.347656 0.357422,0.618164 0.539063,1.283203 0.539063,1.992188 0,0.603515 -0.105469,1.192383 -0.316407,1.769531 -0.205078,0.571289 -0.439453,1.02832 -0.703125,1.371094 -0.257812,0.345703 -0.662109,0.723633 -1.207031,1.136718 -0.539062,0.416016 -1.125,0.723633 -1.757812,0.925782 -0.632813,0.196289 -1.426758,0.292968 -2.378907,0.292968 h -3.925781 l 0.09375,-0.257812 c 0.357422,-0.0059 0.600586,-0.03809 0.726563,-0.09375 0.17871,-0.07617 0.310546,-0.181641 0.398437,-0.316406 0.131836,-0.1875 0.28125,-0.56836 0.445313,-1.148438 l 1.640625,-5.613281 c 0.131835,-0.436523 0.199218,-0.779297 0.199218,-1.03125 0,-0.178711 -0.06445,-0.316406 -0.1875,-0.410156 -0.117187,-0.09961 -0.348633,-0.152344 -0.691406,-0.152344 z m 2.425782,0.269531 -2.003907,6.9375 c -0.158203,0.515625 -0.234375,0.837891 -0.234375,0.960938 0,0.07031 0.02344,0.140625 0.07031,0.210937 0.05273,0.07031 0.120117,0.117188 0.199219,0.140625 0.117187,0.04102 0.307617,0.05859 0.574218,0.05859 0.717774,0 1.382813,-0.07324 1.992188,-0.222656 0.615234,-0.146485 1.11914,-0.366211 1.511719,-0.65625 0.55371,-0.421875 0.996093,-1.001953 1.324218,-1.746094 0.333985,-0.75 0.503907,-1.59668 0.503907,-2.542969 0,-1.069336 -0.254883,-1.866211 -0.761719,-2.390625 -0.509766,-0.521484 -1.253906,-0.785156 -2.238281,-0.785156 -0.243165,0 -0.556641,0.01172 -0.9375,0.03516 z m 0,0"
       style="fill:#000000;fill-opacity:1;fill-rule:nonzero;stroke:none"
       aria-label="s&#10;t&#10;D"
       transform="matrix(1.3333333,0,0,1.3333333,418.66667,118.66667)" />
  </g>
</svg>
