<?xml version="1.0" encoding="UTF-8" standalone="no"?>
<!-- Created with Inkscape (http://www.inkscape.org/) -->

<svg
   version="1.1"
   id="svg1"
   width="650.66669"
   height="197.33333"
   viewBox="0 0 650.66669 197.33333"
   xmlns="http://www.w3.org/2000/svg"
   xmlns:svg="http://www.w3.org/2000/svg">
  <defs
     id="defs1" />
  <g
     id="g1">
    <path
       id="path1"
       d="M 10,210 H 2210"
       style="fill:none;stroke:#000000;stroke-width:10;stroke-linecap:butt;stroke-linejoin:miter;stroke-miterlimit:10;stroke-dasharray:none;stroke-opacity:1"
       transform="matrix(0.13333333,0,0,-0.13333333,0,197.33333)" />
    <path
       id="path2"
       d="m 2260,210 -50,20 v -40"
       style="fill:#000000;fill-opacity:1;fill-rule:nonzero;stroke:none"
       transform="matrix(0.13333333,0,0,-0.13333333,0,197.33333)" />
    <path
       id="path3"
       d="M 210,10 V 1410"
       style="fill:none;stroke:#000000;stroke-width:10;stroke-linecap:butt;stroke-linejoin:miter;stroke-miterlimit:10;stroke-dasharray:none;stroke-opacity:1"
       transform="matrix(0.13333333,0,0,-0.13333333,0,197.33333)" />
    <path
       id="path4"
       d="m 210,1460 -20,-50 h 40"
       style="fill:#000000;fill-opacity:1;fill-rule:nonzero;stroke:none"
       transform="matrix(0.13333333,0,0,-0.13333333,0,197.33333)" />
    <path
       id="path5"
       d="m 410,180 v 60"
       style="fill:none;stroke:#000000;stroke-width:10;stroke-linecap:butt;stroke-linejoin:miter;stroke-miterlimit:10;stroke-dasharray:none;stroke-opacity:1"
       transform="matrix(0.13333333,0,0,-0.13333333,0,197.33333)" />
    <path
       id="path6"
       d="m 180,410 h 60"
       style="fill:none;stroke:#000000;stroke-width:10;stroke-linecap:butt;stroke-linejoin:miter;stroke-miterlimit:10;stroke-dasharray:none;stroke-opacity:1"
       transform="matrix(0.13333333,0,0,-0.13333333,0,197.33333)" />
    <path
       id="path7"
       d="m 180,610 h 60"
       style="fill:none;stroke:#000000;stroke-width:10;stroke-linecap:butt;stroke-linejoin:miter;stroke-miterlimit:10;stroke-dasharray:none;stroke-opacity:1"
       transform="matrix(0.13333333,0,0,-0.13333333,0,197.33333)" />
    <path
       id="path8"
       d="m 180,810 h 60"
       style="fill:none;stroke:#000000;stroke-width:10;stroke-linecap:butt;stroke-linejoin:miter;stroke-miterlimit:10;stroke-dasharray:none;stroke-opacity:1"
       transform="matrix(0.13333333,0,0,-0.13333333,0,197.33333)" />
    <path
       id="path9"
       d="m 180,1010 h 60"
       style="fill:none;stroke:#000000;stroke-width:10;stroke-linecap:butt;stroke-linejoin:miter;stroke-miterlimit:10;stroke-dasharray:none;stroke-opacity:1"
       transform="matrix(0.13333333,0,0,-0.13333333,0,197.33333)" />
    <path
       id="path10"
       d="m 210,410 h 200 v 600 H 210 Z"
       style="fill:none;stroke:#000000;stroke-width:10;stroke-linecap:butt;stroke-linejoin:miter;stroke-miterlimit:10;stroke-dasharray:none;stroke-opacity:1"
       transform="matrix(0.13333333,0,0,-0.13333333,0,197.33333)" />
    <path
       id="path11"
       d="m 230,410 c 0,11.043 -8.957,20 -20,20 -11.043,0 -20,-8.957 -20,-20 0,-11.043 8.957,-20 20,-20 11.043,0 20,8.957 20,20"
       style="fill:#000000;fill-opacity:1;fill-rule:nonzero;stroke:none"
       transform="matrix(0.13333333,0,0,-0.13333333,0,197.33333)" />
    <path
       id="path12"
       d="m 430,410 c 0,11.043 -8.957,20 -20,20 -11.043,0 -20,-8.957 -20,-20 0,-11.043 8.957,-20 20,-20 11.043,0 20,8.957 20,20"
       style="fill:#000000;fill-opacity:1;fill-rule:nonzero;stroke:none"
       transform="matrix(0.13333333,0,0,-0.13333333,0,197.33333)" />
    <path
       id="path13"
       d="m 430,1010 c 0,11.04 -8.957,20 -20,20 -11.043,0 -20,-8.96 -20,-20 0,-11.043 8.957,-20 20,-20 11.043,0 20,8.957 20,20"
       style="fill:#000000;fill-opacity:1;fill-rule:nonzero;stroke:none"
       transform="matrix(0.13333333,0,0,-0.13333333,0,197.33333)" />
    <path
       id="path14"
       d="m 230,1010 c 0,11.04 -8.957,20 -20,20 -11.043,0 -20,-8.96 -20,-20 0,-11.043 8.957,-20 20,-20 11.043,0 20,8.957 20,20"
       style="fill:#000000;fill-opacity:1;fill-rule:nonzero;stroke:none"
       transform="matrix(0.13333333,0,0,-0.13333333,0,197.33333)" />
    <path
       id="path15"
       d="M 2.0507813,-9.2695312 H 9.09375 L 8.3320313,-6.8085937 H 8.0742188 C 8.1591797,-7.1660156 8.203125,-7.4882812 8.203125,-7.7695312 8.203125,-8.1035156 8.1005859,-8.3583984 7.8984375,-8.53125 7.7402344,-8.6542969 7.3417969,-8.71875 6.703125,-8.71875 H 5.9648437 l -1.828125,6.3867188 C 3.9023438,-1.5263672 3.7851563,-1.03125 3.7851563,-0.84375 c 0,0.17285156 0.073242,0.31347656 0.2226562,0.421875 0.1464844,0.11132813 0.4042969,0.1640625 0.7734375,0.1640625 H 5.0976562 L 5.015625,0 H 0.97265625 l 0.0820313,-0.2578125 h 0.1757812 c 0.3574219,0 0.6328125,-0.0527344 0.8203126,-0.1640625 C 2.1826172,-0.4980469 2.2998047,-0.63867187 2.4023438,-0.84375 2.5107422,-1.0458984 2.6630859,-1.4765625 2.859375,-2.1328125 L 4.78125,-8.71875 H 4.2304687 c -0.5390624,0 -0.9726562,0.070312 -1.3007812,0.2109375 -0.3222656,0.1347656 -0.5830078,0.3339844 -0.7851562,0.5976563 -0.1962891,0.2578125 -0.3603516,0.6269531 -0.4921876,1.1015625 H 1.40625 Z m 0,0"
       style="fill:#000000;fill-opacity:1;fill-rule:nonzero;stroke:none"
       aria-label="T"
       transform="matrix(1.3333333,0,0,1.3333333,60,108)" />
    <path
       id="path16"
       d="M 2610,210 H 4810"
       style="fill:none;stroke:#000000;stroke-width:10;stroke-linecap:butt;stroke-linejoin:miter;stroke-miterlimit:10;stroke-dasharray:none;stroke-opacity:1"
       transform="matrix(0.13333333,0,0,-0.13333333,0,197.33333)" />
    <path
       id="path17"
       d="m 4860,210 -50,20 v -40"
       style="fill:#000000;fill-opacity:1;fill-rule:nonzero;stroke:none"
       transform="matrix(0.13333333,0,0,-0.13333333,0,197.33333)" />
    <path
       id="path18"
       d="M 2810,10 V 1410"
       style="fill:none;stroke:#000000;stroke-width:10;stroke-linecap:butt;stroke-linejoin:miter;stroke-miterlimit:10;stroke-dasharray:none;stroke-opacity:1"
       transform="matrix(0.13333333,0,0,-0.13333333,0,197.33333)" />
    <path
       id="path19"
       d="m 2810,1460 -20,-50 h 40"
       style="fill:#000000;fill-opacity:1;fill-rule:nonzero;stroke:none"
       transform="matrix(0.13333333,0,0,-0.13333333,0,197.33333)" />
    <path
       id="path20"
       d="m 3010,180 v 60"
       style="fill:none;stroke:#000000;stroke-width:10;stroke-linecap:butt;stroke-linejoin:miter;stroke-miterlimit:10;stroke-dasharray:none;stroke-opacity:1"
       transform="matrix(0.13333333,0,0,-0.13333333,0,197.33333)" />
    <path
       id="path21"
       d="m 3210,180 v 60"
       style="fill:none;stroke:#000000;stroke-width:10;stroke-linecap:butt;stroke-linejoin:miter;stroke-miterlimit:10;stroke-dasharray:none;stroke-opacity:1"
       transform="matrix(0.13333333,0,0,-0.13333333,0,197.33333)" />
    <path
       id="path22"
       d="m 3410,180 v 60"
       style="fill:none;stroke:#000000;stroke-width:10;stroke-linecap:butt;stroke-linejoin:miter;stroke-miterlimit:10;stroke-dasharray:none;stroke-opacity:1"
       transform="matrix(0.13333333,0,0,-0.13333333,0,197.33333)" />
    <path
       id="path23"
       d="m 3610,180 v 60"
       style="fill:none;stroke:#000000;stroke-width:10;stroke-linecap:butt;stroke-linejoin:miter;stroke-miterlimit:10;stroke-dasharray:none;stroke-opacity:1"
       transform="matrix(0.13333333,0,0,-0.13333333,0,197.33333)" />
    <path
       id="path24"
       d="m 3810,180 v 60"
       style="fill:none;stroke:#000000;stroke-width:10;stroke-linecap:butt;stroke-linejoin:miter;stroke-miterlimit:10;stroke-dasharray:none;stroke-opacity:1"
       transform="matrix(0.13333333,0,0,-0.13333333,0,197.33333)" />
    <path
       id="path25"
       d="m 4010,180 v 60"
       style="fill:none;stroke:#000000;stroke-width:10;stroke-linecap:butt;stroke-linejoin:miter;stroke-miterlimit:10;stroke-dasharray:none;stroke-opacity:1"
       transform="matrix(0.13333333,0,0,-0.13333333,0,197.33333)" />
    <path
       id="path26"
       d="m 4210,180 v 60"
       style="fill:none;stroke:#000000;stroke-width:10;stroke-linecap:butt;stroke-linejoin:miter;stroke-miterlimit:10;stroke-dasharray:none;stroke-opacity:1"
       transform="matrix(0.13333333,0,0,-0.13333333,0,197.33333)" />
    <path
       id="path27"
       d="m 4410,180 v 60"
       style="fill:none;stroke:#000000;stroke-width:10;stroke-linecap:butt;stroke-linejoin:miter;stroke-miterlimit:10;stroke-dasharray:none;stroke-opacity:1"
       transform="matrix(0.13333333,0,0,-0.13333333,0,197.33333)" />
    <path
       id="path28"
       d="m 4610,180 v 60"
       style="fill:none;stroke:#000000;stroke-width:10;stroke-linecap:butt;stroke-linejoin:miter;stroke-miterlimit:10;stroke-dasharray:none;stroke-opacity:1"
       transform="matrix(0.13333333,0,0,-0.13333333,0,197.33333)" />
    <path
       id="path29"
       d="m 2780,410 h 60"
       style="fill:none;stroke:#000000;stroke-width:10;stroke-linecap:butt;stroke-linejoin:miter;stroke-miterlimit:10;stroke-dasharray:none;stroke-opacity:1"
       transform="matrix(0.13333333,0,0,-0.13333333,0,197.33333)" />
    <path
       id="path30"
       d="m 2780,610 h 60"
       style="fill:none;stroke:#000000;stroke-width:10;stroke-linecap:butt;stroke-linejoin:miter;stroke-miterlimit:10;stroke-dasharray:none;stroke-opacity:1"
       transform="matrix(0.13333333,0,0,-0.13333333,0,197.33333)" />
    <path
       id="path31"
       d="m 2780,810 h 60"
       style="fill:none;stroke:#000000;stroke-width:10;stroke-linecap:butt;stroke-linejoin:miter;stroke-miterlimit:10;stroke-dasharray:none;stroke-opacity:1"
       transform="matrix(0.13333333,0,0,-0.13333333,0,197.33333)" />
    <path
       id="path32"
       d="m 2780,1010 h 60"
       style="fill:none;stroke:#000000;stroke-width:10;stroke-linecap:butt;stroke-linejoin:miter;stroke-miterlimit:10;stroke-dasharray:none;stroke-opacity:1"
       transform="matrix(0.13333333,0,0,-0.13333333,0,197.33333)" />
    <path
       id="path33"
       d="m 3210,410 200,400 1200,200 -200,-400 z"
       style="fill:none;stroke:#000000;stroke-width:10;stroke-linecap:butt;stroke-linejoin:miter;stroke-miterlimit:10;stroke-dasharray:none;stroke-opacity:1"
       transform="matrix(0.13333333,0,0,-0.13333333,0,197.33333)" />
    <path
       id="path34"
       d="m 3230,410 c 0,11.043 -8.96,20 -20,20 -11.04,0 -20,-8.957 -20,-20 0,-11.043 8.96,-20 20,-20 11.04,0 20,8.957 20,20"
       style="fill:#000000;fill-opacity:1;fill-rule:nonzero;stroke:none"
       transform="matrix(0.13333333,0,0,-0.13333333,0,197.33333)" />
    <path
       id="path35"
       d="m 3430,810 c 0,11.043 -8.96,20 -20,20 -11.04,0 -20,-8.957 -20,-20 0,-11.043 8.96,-20 20,-20 11.04,0 20,8.957 20,20"
       style="fill:#000000;fill-opacity:1;fill-rule:nonzero;stroke:none"
       transform="matrix(0.13333333,0,0,-0.13333333,0,197.33333)" />
    <path
       id="path36"
       d="m 4630,1010 c 0,11.04 -8.96,20 -20,20 -11.04,0 -20,-8.96 -20,-20 0,-11.043 8.96,-20 20,-20 11.04,0 20,8.957 20,20"
       style="fill:#000000;fill-opacity:1;fill-rule:nonzero;stroke:none"
       transform="matrix(0.13333333,0,0,-0.13333333,0,197.33333)" />
    <path
       id="path37"
       d="m 4430,610 c 0,11.043 -8.96,20 -20,20 -11.04,0 -20,-8.957 -20,-20 0,-11.043 8.96,-20 20,-20 11.04,0 20,8.957 20,20"
       style="fill:#000000;fill-opacity:1;fill-rule:nonzero;stroke:none"
       transform="matrix(0.13333333,0,0,-0.13333333,0,197.33333)" />
    <g
       id="g37"
       aria-label="T&#10;’"
       transform="matrix(1.3333333,0,0,1.3333333,521.33333,69.333333)">
      <path
         id="path38"
         d="M 2.0498047,-9.2705078 H 9.0927734 L 8.3310547,-6.8095703 H 8.0732422 c 0.084961,-0.3574219 0.1289062,-0.6796875 0.1289062,-0.9609375 0,-0.3339844 -0.102539,-0.5888672 -0.3046875,-0.7617188 -0.1582031,-0.1230468 -0.5566406,-0.1875 -1.1953125,-0.1875 H 5.9638672 l -1.828125,6.3867188 c -0.234375,0.8056641 -0.3515625,1.3007812 -0.3515625,1.48828124 0,0.17285156 0.073242,0.31347656 0.2226562,0.421875 0.1464844,0.11132812 0.4042969,0.1640625 0.7734375,0.1640625 H 5.0966797 L 5.0146484,-9.765625e-4 H 0.97167969 L 1.0537109,-0.25878906 h 0.1757813 c 0.3574219,0 0.6328125,-0.0527344 0.8203125,-0.1640625 0.1318359,-0.0761719 0.2490234,-0.21679688 0.3515625,-0.421875 C 2.5097656,-1.046875 2.6621094,-1.4775391 2.8583984,-2.1337891 l 1.921875,-6.5859375 H 4.2294922 c -0.5390625,0 -0.9726563,0.070312 -1.3007813,0.2109375 -0.3222656,0.1347657 -0.5830078,0.3339844 -0.7851562,0.5976563 -0.1962891,0.2578125 -0.3603516,0.6269531 -0.4921875,1.1015625 H 1.4052734 Z m 0,0"
         style="fill:#000000;fill-opacity:1;fill-rule:nonzero;stroke:none" />
      <path
         id="path39"
         d="m 10.853516,-10.729492 h 1.910156 l -2.074219,3.8437498 c -0.125976,0.2285156 -0.27539,0.3398438 -0.445312,0.3398438 -0.117188,0 -0.219727,-0.038086 -0.3046879,-0.1171875 -0.079102,-0.084961 -0.1171875,-0.1816407 -0.1171875,-0.2929688 0,-0.046875 0.00586,-0.09668 0.023437,-0.1523437 z m 0,0"
         style="fill:#000000;fill-opacity:1;fill-rule:nonzero;stroke:none" />
    </g>
  </g>
</svg>
