<?xml version="1.0" encoding="UTF-8" standalone="no"?>
<!-- Created with Inkscape (http://www.inkscape.org/) -->

<svg
   version="1.1"
   id="svg1"
   width="740"
   height="740"
   viewBox="0 0 740 740"
   xmlns="http://www.w3.org/2000/svg"
   xmlns:svg="http://www.w3.org/2000/svg">
  <defs
     id="defs1" />
  <g
     id="g1">
    <path
       id="path1"
       d="M 0,0 H 5550 V 5550 H 0 Z"
       style="fill:#ffffff;fill-opacity:1;fill-rule:nonzero;stroke:none"
       transform="matrix(0.13333333,0,0,-0.13333333,0,740)" />
    <path
       id="path2"
       d="m 69.375,138.75 h 5411.25 V 5550 H 69.375 Z"
       style="fill:#ffffff;fill-opacity:1;fill-rule:nonzero;stroke:none"
       transform="matrix(0.13333333,0,0,-0.13333333,0,740)" />
    <g
       id="g2"
       aria-label="−1−1"
       transform="matrix(1.3333333,0,0,1.3333333,591.94267,584.412)">
      <path
         id="path3"
         d="m 10.92093,-3.8099766 c 0.292968,0 0.585937,0 0.585937,-0.3398437 0,-0.328125 -0.292969,-0.328125 -0.585937,-0.328125 H 1.9560859 c -0.28125,0 -0.5859375,0 -0.5859375,0.328125 0,0.3398437 0.3046875,0.3398437 0.5859375,0.3398437 z m 0,0"
         style="fill:#000000;fill-opacity:1;fill-rule:nonzero;stroke:none" />
      <path
         id="path4"
         d="m 21.456086,-10.61857 c 0,-0.398438 0,-0.421875 -0.386719,-0.421875 -1.019531,1.0546872 -2.484375,1.0546872 -3.011719,1.0546872 v 0.515625 c 0.328125,0 1.3125,0 2.167969,-0.4335938 v 8.5898438 c 0,0.59765624 -0.04687,0.79687499 -1.535156,0.79687499 h -0.539063 v 0.515625 c 0.585938,-0.046875 2.027344,-0.046875 2.695313,-0.046875 0.65625,0 2.097656,0 2.683594,0.046875 v -0.515625 h -0.527344 c -1.5,0 -1.546875,-0.17578125 -1.546875,-0.79687499 z m 0,0"
         style="fill:#000000;fill-opacity:1;fill-rule:nonzero;stroke:none" />
      <path
         id="path5"
         d="m 10.92093,-3.8099766 c 0.292968,0 0.585937,0 0.585937,-0.3398437 0,-0.328125 -0.292969,-0.328125 -0.585937,-0.328125 H 1.9560859 c -0.28125,0 -0.5859375,0 -0.5859375,0.328125 0,0.3398437 0.3046875,0.3398437 0.5859375,0.3398437 z m 0,0"
         style="fill:#000000;fill-opacity:1;fill-rule:nonzero;stroke:none" />
      <path
         id="path6"
         d="m 21.456086,-10.61857 c 0,-0.398438 0,-0.421875 -0.386719,-0.421875 -1.019531,1.0546872 -2.484375,1.0546872 -3.011719,1.0546872 v 0.515625 c 0.328125,0 1.3125,0 2.167969,-0.4335938 v 8.5898438 c 0,0.59765624 -0.04687,0.79687499 -1.535156,0.79687499 h -0.539063 v 0.515625 c 0.585938,-0.046875 2.027344,-0.046875 2.695313,-0.046875 0.65625,0 2.097656,0 2.683594,0.046875 v -0.515625 h -0.527344 c -1.5,0 -1.546875,-0.17578125 -1.546875,-0.79687499 z m 0,0"
         style="fill:#000000;fill-opacity:1;fill-rule:nonzero;stroke:none" />
    </g>
    <path
       id="path7"
       d="m 4545.8,1421.7 -0.11,-120.27"
       style="fill:none;stroke:#ffffff;stroke-width:13.875;stroke-linecap:butt;stroke-linejoin:miter;stroke-miterlimit:10;stroke-dasharray:none;stroke-opacity:1"
       transform="matrix(0.13333333,0,0,-0.13333333,0,740)" />
    <path
       id="path8"
       d="m 4545.8,1421.7 -0.11,-120.27"
       style="fill:none;stroke:#ffffff;stroke-width:13.875;stroke-linecap:butt;stroke-linejoin:miter;stroke-miterlimit:10;stroke-dasharray:none;stroke-opacity:1"
       transform="matrix(0.13333333,0,0,-0.13333333,0,740)" />
    <path
       id="path9"
       d="m 4581.36,4060 189.42,217.79 -171.16,-300.76"
       style="fill:#800080;fill-opacity:1;fill-rule:nonzero;stroke:none"
       transform="matrix(0.13333333,0,0,-0.13333333,0,740)" />
    <path
       id="path10"
       d="m 4623.57,3940.93 -42.21,119.07 18.26,-82.97"
       style="fill:#d704d7;fill-opacity:1;fill-rule:nonzero;stroke:none"
       transform="matrix(0.13333333,0,0,-0.13333333,0,740)" />
    <path
       id="path11"
       d="m 4623.57,3940.93 -47.86,217.28 5.65,-98.21"
       style="fill:#d704d7;fill-opacity:1;fill-rule:nonzero;stroke:none"
       transform="matrix(0.13333333,0,0,-0.13333333,0,740)" />
    <path
       id="path12"
       d="m 4644.06,3965.49 126.72,312.3 -117.51,-236.38"
       style="fill:#800080;fill-opacity:1;fill-rule:nonzero;stroke:none"
       transform="matrix(0.13333333,0,0,-0.13333333,0,740)" />
    <path
       id="path13"
       d="m 4623.57,3940.93 -38.7,293.16 -9.16,-75.88"
       style="fill:#d704d7;fill-opacity:1;fill-rule:nonzero;stroke:none"
       transform="matrix(0.13333333,0,0,-0.13333333,0,740)" />
    <path
       id="path14"
       d="m 4623.57,3940.93 20.49,24.56 9.21,75.92"
       style="fill:#d704d7;fill-opacity:1;fill-rule:nonzero;stroke:none"
       transform="matrix(0.13333333,0,0,-0.13333333,0,740)" />
    <path
       id="path15"
       d="m 4653.27,4041.41 117.51,236.38 -123.14,-138.16"
       style="fill:#800080;fill-opacity:1;fill-rule:nonzero;stroke:none"
       transform="matrix(0.13333333,0,0,-0.13333333,0,740)" />
    <path
       id="path16"
       d="m 4623.57,3940.93 -18.21,317.78 -20.49,-24.62"
       style="fill:#d704d7;fill-opacity:1;fill-rule:nonzero;stroke:none"
       transform="matrix(0.13333333,0,0,-0.13333333,0,740)" />
    <path
       id="path17"
       d="m 4623.57,3940.93 29.7,100.48 -5.63,98.22"
       style="fill:#d704d7;fill-opacity:1;fill-rule:nonzero;stroke:none"
       transform="matrix(0.13333333,0,0,-0.13333333,0,740)" />
    <path
       id="path18"
       d="m 4629.32,4222.61 141.46,55.18 -165.42,-19.08"
       style="fill:#940194;fill-opacity:1;fill-rule:nonzero;stroke:none"
       transform="matrix(0.13333333,0,0,-0.13333333,0,740)" />
    <path
       id="path19"
       d="m 4647.64,4139.63 123.14,138.16 -141.46,-55.18"
       style="fill:#800080;fill-opacity:1;fill-rule:nonzero;stroke:none"
       transform="matrix(0.13333333,0,0,-0.13333333,0,740)" />
    <path
       id="path20"
       d="m 4623.57,3940.93 5.75,281.68 -23.96,36.1"
       style="fill:#d704d7;fill-opacity:1;fill-rule:nonzero;stroke:none"
       transform="matrix(0.13333333,0,0,-0.13333333,0,740)" />
    <path
       id="path21"
       d="m 4623.57,3940.93 24.07,198.7 -18.32,82.98"
       style="fill:#d704d7;fill-opacity:1;fill-rule:nonzero;stroke:none"
       transform="matrix(0.13333333,0,0,-0.13333333,0,740)" />
    <path
       id="path22"
       d="m 2886.28,2063.85 -512.46,-678.9 4.12,-5.8"
       style="fill:#800000;fill-opacity:1;fill-rule:nonzero;stroke:none"
       transform="matrix(0.13333333,0,0,-0.13333333,0,740)" />
    <path
       id="path23"
       d="m 2373.82,1384.95 507.89,697.12 -512.44,-678.91"
       style="fill:#800000;fill-opacity:1;fill-rule:nonzero;stroke:none"
       transform="matrix(0.13333333,0,0,-0.13333333,0,740)" />
    <path
       id="path24"
       d="m 2369.27,1403.16 509.25,702.59 -512.46,-678.96"
       style="fill:#a80505;fill-opacity:1;fill-rule:nonzero;stroke:none"
       transform="matrix(0.13333333,0,0,-0.13333333,0,740)" />
    <path
       id="path25"
       d="m 2367.64,1455.68 -2.23,-8.83 512.52,678.95"
       style="fill:#ff2525;fill-opacity:1;fill-rule:nonzero;stroke:none"
       transform="matrix(0.13333333,0,0,-0.13333333,0,740)" />
    <path
       id="path26"
       d="m 2366.06,1426.79 511.87,699.01 -512.52,-678.95"
       style="fill:#ff1818;fill-opacity:1;fill-rule:nonzero;stroke:none"
       transform="matrix(0.13333333,0,0,-0.13333333,0,740)" />
    <path
       id="path27"
       d="m 3072.94,2302.17 1543.8,1757.89 5.15,6.19"
       style="fill:#800080;fill-opacity:1;fill-rule:nonzero;stroke:none"
       transform="matrix(0.13333333,0,0,-0.13333333,0,740)" />
    <path
       id="path28"
       d="m 3078.09,2308.29 1543.8,1757.96 2.27,18.96"
       style="fill:#800080;fill-opacity:1;fill-rule:nonzero;stroke:none"
       transform="matrix(0.13333333,0,0,-0.13333333,0,740)" />
    <path
       id="path29"
       d="m 3080.36,2327.25 1543.8,1757.96 -1.4,24.55"
       style="fill:#800080;fill-opacity:1;fill-rule:nonzero;stroke:none"
       transform="matrix(0.13333333,0,0,-0.13333333,0,740)" />
    <path
       id="path30"
       d="m 3080.36,2327.25 1543.8,1757.96 -1.4,24.55"
       style="fill:#800080;fill-opacity:1;fill-rule:nonzero;stroke:none"
       transform="matrix(0.13333333,0,0,-0.13333333,0,740)" />
    <path
       id="path31"
       d="m 3078.89,2351.81 1543.87,1757.95 -4.55,20.76"
       style="fill:#800080;fill-opacity:1;fill-rule:nonzero;stroke:none"
       transform="matrix(0.13333333,0,0,-0.13333333,0,740)" />
    <path
       id="path32"
       d="M 4612.19,4139.52 3074.34,2372.57 4618.21,4130.52"
       style="fill:#cf14cf;fill-opacity:1;fill-rule:nonzero;stroke:none"
       transform="matrix(0.13333333,0,0,-0.13333333,0,740)" />
    <path
       id="path33"
       d="m 2379.56,1408.04 512.46,678.9 0.6,-20.05"
       style="fill:#ff1818;fill-opacity:1;fill-rule:nonzero;stroke:none"
       transform="matrix(0.13333333,0,0,-0.13333333,0,740)" />
    <path
       id="path34"
       d="m 2380.16,1387.99 512.46,678.9 -2.18,-8.84"
       style="fill:#ff2525;fill-opacity:1;fill-rule:nonzero;stroke:none"
       transform="matrix(0.13333333,0,0,-0.13333333,0,740)" />
    <path
       id="path35"
       d="m 2376.37,1431.67 512.45,678.9 3.2,-23.63"
       style="fill:#a80505;fill-opacity:1;fill-rule:nonzero;stroke:none"
       transform="matrix(0.13333333,0,0,-0.13333333,0,740)" />
    <path
       id="path36"
       d="m 2886.28,2063.85 -508.34,-684.7 512.5,678.9"
       style="fill:#800000;fill-opacity:1;fill-rule:nonzero;stroke:none"
       transform="matrix(0.13333333,0,0,-0.13333333,0,740)" />
    <path
       id="path37"
       d="m 2371.8,1449.88 512.47,678.91 4.55,-18.22"
       style="fill:#800000;fill-opacity:1;fill-rule:nonzero;stroke:none"
       transform="matrix(0.13333333,0,0,-0.13333333,0,740)" />
    <path
       id="path38"
       d="m 2373.82,1384.95 512.46,678.9 -4.57,18.22"
       style="fill:#800000;fill-opacity:1;fill-rule:nonzero;stroke:none"
       transform="matrix(0.13333333,0,0,-0.13333333,0,740)" />
    <path
       id="path39"
       d="m 2367.64,1455.68 512.45,678.91 4.18,-5.8"
       style="fill:#800000;fill-opacity:1;fill-rule:nonzero;stroke:none"
       transform="matrix(0.13333333,0,0,-0.13333333,0,740)" />
    <path
       id="path40"
       d="m 2369.27,1403.16 512.44,678.91 -3.19,23.68"
       style="fill:#a80505;fill-opacity:1;fill-rule:nonzero;stroke:none"
       transform="matrix(0.13333333,0,0,-0.13333333,0,740)" />
    <path
       id="path41"
       d="m 2367.64,1455.68 510.29,670.12 2.16,8.79"
       style="fill:#ff2525;fill-opacity:1;fill-rule:nonzero;stroke:none"
       transform="matrix(0.13333333,0,0,-0.13333333,0,740)" />
    <path
       id="path42"
       d="m 2366.06,1426.79 512.46,678.96 -0.59,20.05"
       style="fill:#ff1818;fill-opacity:1;fill-rule:nonzero;stroke:none"
       transform="matrix(0.13333333,0,0,-0.13333333,0,740)" />
    <path
       id="path43"
       d="M 3062.36,2331.97 4610.79,4069.12 3066.97,2311.21"
       style="fill:#800080;fill-opacity:1;fill-rule:nonzero;stroke:none"
       transform="matrix(0.13333333,0,0,-0.13333333,0,740)" />
    <path
       id="path44"
       d="M 3066.97,2311.21 4616.74,4060.06 3072.94,2302.17"
       style="fill:#cf14cf;fill-opacity:1;fill-rule:nonzero;stroke:none"
       transform="matrix(0.13333333,0,0,-0.13333333,0,740)" />
    <path
       id="path45"
       d="M 3060.95,2356.53 4606.18,4089.88 3062.36,2331.97"
       style="fill:#800080;fill-opacity:1;fill-rule:nonzero;stroke:none"
       transform="matrix(0.13333333,0,0,-0.13333333,0,740)" />
    <path
       id="path46"
       d="M 3072.94,2302.17 4621.89,4066.25 3078.09,2308.29"
       style="fill:#800080;fill-opacity:1;fill-rule:nonzero;stroke:none"
       transform="matrix(0.13333333,0,0,-0.13333333,0,740)" />
    <path
       id="path47"
       d="M 3063.23,2375.5 4604.77,4114.42 3060.95,2356.53"
       style="fill:#800080;fill-opacity:1;fill-rule:nonzero;stroke:none"
       transform="matrix(0.13333333,0,0,-0.13333333,0,740)" />
    <path
       id="path48"
       d="M 3078.09,2308.29 4624.16,4085.21 3080.36,2327.25"
       style="fill:#800080;fill-opacity:1;fill-rule:nonzero;stroke:none"
       transform="matrix(0.13333333,0,0,-0.13333333,0,740)" />
    <path
       id="path49"
       d="M 4607.1,4133.39 3063.23,2375.5 l 5.1,6.12"
       style="fill:#800080;fill-opacity:1;fill-rule:nonzero;stroke:none"
       transform="matrix(0.13333333,0,0,-0.13333333,0,740)" />
    <path
       id="path50"
       d="M 3080.36,2327.25 4622.76,4109.76 3078.89,2351.81"
       style="fill:#800080;fill-opacity:1;fill-rule:nonzero;stroke:none"
       transform="matrix(0.13333333,0,0,-0.13333333,0,740)" />
    <path
       id="path51"
       d="M 3080.36,2327.25 4622.76,4109.76 3078.89,2351.81"
       style="fill:#800080;fill-opacity:1;fill-rule:nonzero;stroke:none"
       transform="matrix(0.13333333,0,0,-0.13333333,0,740)" />
    <path
       id="path52"
       d="m 4612.19,4139.52 -1543.86,-1757.9 6.01,-9.05"
       style="fill:#cf14cf;fill-opacity:1;fill-rule:nonzero;stroke:none"
       transform="matrix(0.13333333,0,0,-0.13333333,0,740)" />
    <path
       id="path53"
       d="M 3078.89,2351.81 4618.21,4130.52 3074.34,2372.57"
       style="fill:#800080;fill-opacity:1;fill-rule:nonzero;stroke:none"
       transform="matrix(0.13333333,0,0,-0.13333333,0,740)" />
    <path
       id="path54"
       d="m 2905.95,1943.21 164.71,398.68 -181.41,-375.43"
       style="fill:#800000;fill-opacity:1;fill-rule:nonzero;stroke:none"
       transform="matrix(0.13333333,0,0,-0.13333333,0,740)" />
    <path
       id="path55"
       d="M 2889.25,1966.46 3070.66,2341.89 2871.1,2039.3"
       style="fill:#800000;fill-opacity:1;fill-rule:nonzero;stroke:none"
       transform="matrix(0.13333333,0,0,-0.13333333,0,740)" />
    <path
       id="path56"
       d="m 2871.1,2039.3 199.56,302.59 -212.36,-207.96"
       style="fill:#8b0303;fill-opacity:1;fill-rule:nonzero;stroke:none"
       transform="matrix(0.13333333,0,0,-0.13333333,0,740)" />
    <path
       id="path57"
       d="m 2855.86,2214.2 214.8,127.69 -206.07,-92.46"
       style="fill:#ff7575;fill-opacity:1;fill-rule:nonzero;stroke:none"
       transform="matrix(0.13333333,0,0,-0.13333333,0,740)" />
    <path
       id="path58"
       d="m 2858.3,2133.93 212.36,207.96 -214.8,-127.69"
       style="fill:#e01616;fill-opacity:1;fill-rule:nonzero;stroke:none"
       transform="matrix(0.13333333,0,0,-0.13333333,0,740)" />
    <path
       id="path59"
       d="m 3502.19,3037.54 27.37,83.14"
       style="fill:none;stroke:#0000ff;stroke-width:13.875;stroke-linecap:butt;stroke-linejoin:miter;stroke-miterlimit:10;stroke-dasharray:none;stroke-opacity:1"
       transform="matrix(0.13333333,0,0,-0.13333333,0,740)" />
    <path
       id="path60"
       d="m 3502.19,3037.54 27.37,83.14"
       style="fill:none;stroke:#0000ff;stroke-width:13.875;stroke-linecap:butt;stroke-linejoin:miter;stroke-miterlimit:10;stroke-dasharray:none;stroke-opacity:1"
       transform="matrix(0.13333333,0,0,-0.13333333,0,740)" />
    <path
       id="path61"
       d="m 3469.57,2954.46 32.62,83.08"
       style="fill:none;stroke:#0000ff;stroke-width:13.875;stroke-linecap:butt;stroke-linejoin:miter;stroke-miterlimit:10;stroke-dasharray:none;stroke-opacity:1"
       transform="matrix(0.13333333,0,0,-0.13333333,0,740)" />
    <path
       id="path62"
       d="m 3469.57,2954.46 32.62,83.08"
       style="fill:none;stroke:#0000ff;stroke-width:13.875;stroke-linecap:butt;stroke-linejoin:miter;stroke-miterlimit:10;stroke-dasharray:none;stroke-opacity:1"
       transform="matrix(0.13333333,0,0,-0.13333333,0,740)" />
    <path
       id="path63"
       d="m 3529.56,3120.68 22.01,83.09"
       style="fill:none;stroke:#0000ff;stroke-width:13.875;stroke-linecap:butt;stroke-linejoin:miter;stroke-miterlimit:10;stroke-dasharray:none;stroke-opacity:1"
       transform="matrix(0.13333333,0,0,-0.13333333,0,740)" />
    <path
       id="path64"
       d="m 3529.56,3120.68 22.01,83.09"
       style="fill:none;stroke:#0000ff;stroke-width:13.875;stroke-linecap:butt;stroke-linejoin:miter;stroke-miterlimit:10;stroke-dasharray:none;stroke-opacity:1"
       transform="matrix(0.13333333,0,0,-0.13333333,0,740)" />
    <path
       id="path65"
       d="m 3431.79,2871.42 37.78,83.04"
       style="fill:none;stroke:#0000ff;stroke-width:13.875;stroke-linecap:butt;stroke-linejoin:miter;stroke-miterlimit:10;stroke-dasharray:none;stroke-opacity:1"
       transform="matrix(0.13333333,0,0,-0.13333333,0,740)" />
    <path
       id="path66"
       d="m 3431.79,2871.42 37.78,83.04"
       style="fill:none;stroke:#0000ff;stroke-width:13.875;stroke-linecap:butt;stroke-linejoin:miter;stroke-miterlimit:10;stroke-dasharray:none;stroke-opacity:1"
       transform="matrix(0.13333333,0,0,-0.13333333,0,740)" />
    <path
       id="path67"
       d="m 3551.57,3203.77 16.52,82.93"
       style="fill:none;stroke:#0000ff;stroke-width:13.875;stroke-linecap:butt;stroke-linejoin:miter;stroke-miterlimit:10;stroke-dasharray:none;stroke-opacity:1"
       transform="matrix(0.13333333,0,0,-0.13333333,0,740)" />
    <path
       id="path68"
       d="m 3551.57,3203.77 16.52,82.93"
       style="fill:none;stroke:#0000ff;stroke-width:13.875;stroke-linecap:butt;stroke-linejoin:miter;stroke-miterlimit:10;stroke-dasharray:none;stroke-opacity:1"
       transform="matrix(0.13333333,0,0,-0.13333333,0,740)" />
    <path
       id="path69"
       d="m 3388.91,2788.6 42.88,82.82"
       style="fill:none;stroke:#0000ff;stroke-width:13.875;stroke-linecap:butt;stroke-linejoin:miter;stroke-miterlimit:10;stroke-dasharray:none;stroke-opacity:1"
       transform="matrix(0.13333333,0,0,-0.13333333,0,740)" />
    <path
       id="path70"
       d="m 3388.91,2788.6 42.88,82.82"
       style="fill:none;stroke:#0000ff;stroke-width:13.875;stroke-linecap:butt;stroke-linejoin:miter;stroke-miterlimit:10;stroke-dasharray:none;stroke-opacity:1"
       transform="matrix(0.13333333,0,0,-0.13333333,0,740)" />
    <path
       id="path71"
       d="m 3568.09,3286.7 11.06,82.76"
       style="fill:none;stroke:#0000ff;stroke-width:13.875;stroke-linecap:butt;stroke-linejoin:miter;stroke-miterlimit:10;stroke-dasharray:none;stroke-opacity:1"
       transform="matrix(0.13333333,0,0,-0.13333333,0,740)" />
    <path
       id="path72"
       d="m 3568.09,3286.7 11.06,82.76"
       style="fill:none;stroke:#0000ff;stroke-width:13.875;stroke-linecap:butt;stroke-linejoin:miter;stroke-miterlimit:10;stroke-dasharray:none;stroke-opacity:1"
       transform="matrix(0.13333333,0,0,-0.13333333,0,740)" />
    <path
       id="path73"
       d="m 3341.23,2706.11 47.68,82.49"
       style="fill:none;stroke:#0000ff;stroke-width:13.875;stroke-linecap:butt;stroke-linejoin:miter;stroke-miterlimit:10;stroke-dasharray:none;stroke-opacity:1"
       transform="matrix(0.13333333,0,0,-0.13333333,0,740)" />
    <path
       id="path74"
       d="m 3341.23,2706.11 47.68,82.49"
       style="fill:none;stroke:#0000ff;stroke-width:13.875;stroke-linecap:butt;stroke-linejoin:miter;stroke-miterlimit:10;stroke-dasharray:none;stroke-opacity:1"
       transform="matrix(0.13333333,0,0,-0.13333333,0,740)" />
    <path
       id="path75"
       d="m 3579.15,3369.46 5.53,82.54"
       style="fill:none;stroke:#0000ff;stroke-width:13.875;stroke-linecap:butt;stroke-linejoin:miter;stroke-miterlimit:10;stroke-dasharray:none;stroke-opacity:1"
       transform="matrix(0.13333333,0,0,-0.13333333,0,740)" />
    <path
       id="path76"
       d="m 3579.15,3369.46 5.53,82.54"
       style="fill:none;stroke:#0000ff;stroke-width:13.875;stroke-linecap:butt;stroke-linejoin:miter;stroke-miterlimit:10;stroke-dasharray:none;stroke-opacity:1"
       transform="matrix(0.13333333,0,0,-0.13333333,0,740)" />
    <path
       id="path77"
       d="m 3288.75,2624.05 52.48,82.06"
       style="fill:none;stroke:#0000ff;stroke-width:13.875;stroke-linecap:butt;stroke-linejoin:miter;stroke-miterlimit:10;stroke-dasharray:none;stroke-opacity:1"
       transform="matrix(0.13333333,0,0,-0.13333333,0,740)" />
    <path
       id="path78"
       d="m 3288.75,2624.05 52.48,82.06"
       style="fill:none;stroke:#0000ff;stroke-width:13.875;stroke-linecap:butt;stroke-linejoin:miter;stroke-miterlimit:10;stroke-dasharray:none;stroke-opacity:1"
       transform="matrix(0.13333333,0,0,-0.13333333,0,740)" />
    <path
       id="path79"
       d="m 3584.68,3452 -0.1,82.28"
       style="fill:none;stroke:#0000ff;stroke-width:13.875;stroke-linecap:butt;stroke-linejoin:miter;stroke-miterlimit:10;stroke-dasharray:none;stroke-opacity:1"
       transform="matrix(0.13333333,0,0,-0.13333333,0,740)" />
    <path
       id="path80"
       d="m 3584.68,3452 -0.1,82.28"
       style="fill:none;stroke:#0000ff;stroke-width:13.875;stroke-linecap:butt;stroke-linejoin:miter;stroke-miterlimit:10;stroke-dasharray:none;stroke-opacity:1"
       transform="matrix(0.13333333,0,0,-0.13333333,0,740)" />
    <path
       id="path81"
       d="m 3072.94,2302.17 -10.58,29.8 4.61,-20.76"
       style="fill:#d704d7;fill-opacity:1;fill-rule:nonzero;stroke:none"
       transform="matrix(0.13333333,0,0,-0.13333333,0,740)" />
    <path
       id="path82"
       d="m 3231.79,2542.48 56.96,81.57"
       style="fill:none;stroke:#0000ff;stroke-width:13.875;stroke-linecap:butt;stroke-linejoin:miter;stroke-miterlimit:10;stroke-dasharray:none;stroke-opacity:1"
       transform="matrix(0.13333333,0,0,-0.13333333,0,740)" />
    <path
       id="path83"
       d="m 3231.79,2542.48 56.96,81.57"
       style="fill:none;stroke:#0000ff;stroke-width:13.875;stroke-linecap:butt;stroke-linejoin:miter;stroke-miterlimit:10;stroke-dasharray:none;stroke-opacity:1"
       transform="matrix(0.13333333,0,0,-0.13333333,0,740)" />
    <path
       id="path84"
       d="m 3072.94,2302.17 -11.99,54.36 1.41,-24.56"
       style="fill:#d704d7;fill-opacity:1;fill-rule:nonzero;stroke:none"
       transform="matrix(0.13333333,0,0,-0.13333333,0,740)" />
    <path
       id="path85"
       d="m 3072.94,2302.17 -9.71,73.33 -2.28,-18.97"
       style="fill:#d704d7;fill-opacity:1;fill-rule:nonzero;stroke:none"
       transform="matrix(0.13333333,0,0,-0.13333333,0,740)" />
    <path
       id="path86"
       d="m 3072.94,2302.17 5.15,6.12 2.27,18.96"
       style="fill:#d704d7;fill-opacity:1;fill-rule:nonzero;stroke:none"
       transform="matrix(0.13333333,0,0,-0.13333333,0,740)" />
    <path
       id="path87"
       d="m 3072.94,2302.17 -4.61,79.45 -5.1,-6.12"
       style="fill:#d704d7;fill-opacity:1;fill-rule:nonzero;stroke:none"
       transform="matrix(0.13333333,0,0,-0.13333333,0,740)" />
    <path
       id="path88"
       d="m 3072.94,2302.17 7.42,25.08 -1.47,24.56"
       style="fill:#d704d7;fill-opacity:1;fill-rule:nonzero;stroke:none"
       transform="matrix(0.13333333,0,0,-0.13333333,0,740)" />
    <path
       id="path89"
       d="m 3072.94,2302.17 1.4,70.4 -6.01,9.05"
       style="fill:#d704d7;fill-opacity:1;fill-rule:nonzero;stroke:none"
       transform="matrix(0.13333333,0,0,-0.13333333,0,740)" />
    <path
       id="path90"
       d="m 3072.94,2302.17 5.95,49.64 -4.55,20.76"
       style="fill:#d704d7;fill-opacity:1;fill-rule:nonzero;stroke:none"
       transform="matrix(0.13333333,0,0,-0.13333333,0,740)" />
    <path
       id="path91"
       d="m 3584.58,3534.28 -5.59,82"
       style="fill:none;stroke:#0000ff;stroke-width:13.875;stroke-linecap:butt;stroke-linejoin:miter;stroke-miterlimit:10;stroke-dasharray:none;stroke-opacity:1"
       transform="matrix(0.13333333,0,0,-0.13333333,0,740)" />
    <path
       id="path92"
       d="m 3584.58,3534.28 -5.59,82"
       style="fill:none;stroke:#0000ff;stroke-width:13.875;stroke-linecap:butt;stroke-linejoin:miter;stroke-miterlimit:10;stroke-dasharray:none;stroke-opacity:1"
       transform="matrix(0.13333333,0,0,-0.13333333,0,740)" />
    <path
       id="path93"
       d="m 3170.38,2461.62 61.41,80.86"
       style="fill:none;stroke:#0000ff;stroke-width:13.875;stroke-linecap:butt;stroke-linejoin:miter;stroke-miterlimit:10;stroke-dasharray:none;stroke-opacity:1"
       transform="matrix(0.13333333,0,0,-0.13333333,0,740)" />
    <path
       id="path94"
       d="m 3170.38,2461.62 61.41,80.86"
       style="fill:none;stroke:#0000ff;stroke-width:13.875;stroke-linecap:butt;stroke-linejoin:miter;stroke-miterlimit:10;stroke-dasharray:none;stroke-opacity:1"
       transform="matrix(0.13333333,0,0,-0.13333333,0,740)" />
    <path
       id="path95"
       d="m 7.6294844,-5.3086281 c 0,-1.3242188 -0.082031,-2.6484375 -0.6679688,-3.8789063 -0.7617187,-1.5937496 -2.1210937,-1.8515626 -2.8125,-1.8515626 -0.9960937,0 -2.203125,0.421875 -2.8828125,1.9687501 -0.53906247,1.1484375 -0.62109372,2.4375 -0.62109372,3.7617188 0,1.2421875 0.0703125,2.7421875 0.75000002,3.9960937 0.7148437,1.34765628 1.921875,1.67578128 2.7304687,1.67578128 0.9023438,0 2.15625,-0.3515625 2.8945313,-1.92187498 0.5273437,-1.1484375 0.609375,-2.4375 0.609375,-3.75 z M 4.1255781,-3.4375e-5 c -0.6445312,0 -1.6171875,-0.410156245 -1.921875,-2.003906225 -0.1757812,-0.9960938 -0.1757812,-2.5195313 -0.1757812,-3.5039063 0,-1.0546875 0,-2.15625 0.1289062,-3.046875 0.3164063,-1.9804691 1.5585938,-2.1210941 1.96875,-2.1210941 0.5507813,0 1.640625,0.292969 1.9570313,1.9335941 0.1640625,0.9375 0.1640625,2.1914063 0.1640625,3.234375 0,1.2421875 0,2.3789063 -0.1757813,3.4335938 C 5.8247969,-0.49222187 4.8755781,-3.4375e-5 4.1255781,-3.4375e-5 Z M 7.6294844,-5.3086281 c 0,-1.3242188 -0.082031,-2.6484375 -0.6679688,-3.8789063 -0.7617187,-1.5937496 -2.1210937,-1.8515626 -2.8125,-1.8515626 -0.9960937,0 -2.203125,0.421875 -2.8828125,1.9687501 -0.53906247,1.1484375 -0.62109372,2.4375 -0.62109372,3.7617188 0,1.2421875 0.0703125,2.7421875 0.75000002,3.9960937 0.7148437,1.34765628 1.921875,1.67578128 2.7304687,1.67578128 0.9023438,0 2.15625,-0.3515625 2.8945313,-1.92187498 0.5273437,-1.1484375 0.609375,-2.4375 0.609375,-3.75 z M 4.1255781,-3.4375e-5 c -0.6445312,0 -1.6171875,-0.410156245 -1.921875,-2.003906225 -0.1757812,-0.9960938 -0.1757812,-2.5195313 -0.1757812,-3.5039063 0,-1.0546875 0,-2.15625 0.1289062,-3.046875 0.3164063,-1.9804691 1.5585938,-2.1210941 1.96875,-2.1210941 0.5507813,0 1.640625,0.292969 1.9570313,1.9335941 0.1640625,0.9375 0.1640625,2.1914063 0.1640625,3.234375 0,1.2421875 0,2.3789063 -0.1757813,3.4335938 C 5.8247969,-0.49222187 4.8755781,-3.4375e-5 4.1255781,-3.4375e-5 Z m 0,0"
       style="fill:#000000;fill-opacity:1;fill-rule:nonzero;stroke:none"
       aria-label="00"
       transform="matrix(1.3333333,0,0,1.3333333,560.02267,613.67973)" />
    <path
       id="path96"
       d="m 3104.91,2381.57 65.47,80.05"
       style="fill:none;stroke:#0000ff;stroke-width:13.875;stroke-linecap:butt;stroke-linejoin:miter;stroke-miterlimit:10;stroke-dasharray:none;stroke-opacity:1"
       transform="matrix(0.13333333,0,0,-0.13333333,0,740)" />
    <path
       id="path97"
       d="m 3104.91,2381.57 65.47,80.05"
       style="fill:none;stroke:#0000ff;stroke-width:13.875;stroke-linecap:butt;stroke-linejoin:miter;stroke-miterlimit:10;stroke-dasharray:none;stroke-opacity:1"
       transform="matrix(0.13333333,0,0,-0.13333333,0,740)" />
    <path
       id="path98"
       d="m 3578.99,3616.28 -11.16,81.68"
       style="fill:none;stroke:#0000ff;stroke-width:13.875;stroke-linecap:butt;stroke-linejoin:miter;stroke-miterlimit:10;stroke-dasharray:none;stroke-opacity:1"
       transform="matrix(0.13333333,0,0,-0.13333333,0,740)" />
    <path
       id="path99"
       d="m 3578.99,3616.28 -11.16,81.68"
       style="fill:none;stroke:#0000ff;stroke-width:13.875;stroke-linecap:butt;stroke-linejoin:miter;stroke-miterlimit:10;stroke-dasharray:none;stroke-opacity:1"
       transform="matrix(0.13333333,0,0,-0.13333333,0,740)" />
    <path
       id="path100"
       d="m 3035.43,2302.49 69.48,79.08"
       style="fill:none;stroke:#0000ff;stroke-width:13.875;stroke-linecap:butt;stroke-linejoin:miter;stroke-miterlimit:10;stroke-dasharray:none;stroke-opacity:1"
       transform="matrix(0.13333333,0,0,-0.13333333,0,740)" />
    <path
       id="path101"
       d="m 3035.43,2302.49 69.48,79.08"
       style="fill:none;stroke:#0000ff;stroke-width:13.875;stroke-linecap:butt;stroke-linejoin:miter;stroke-miterlimit:10;stroke-dasharray:none;stroke-opacity:1"
       transform="matrix(0.13333333,0,0,-0.13333333,0,740)" />
    <path
       id="path102"
       d="m 3567.83,3697.96 -16.69,81.35"
       style="fill:none;stroke:#0000ff;stroke-width:13.875;stroke-linecap:butt;stroke-linejoin:miter;stroke-miterlimit:10;stroke-dasharray:none;stroke-opacity:1"
       transform="matrix(0.13333333,0,0,-0.13333333,0,740)" />
    <path
       id="path103"
       d="m 3567.83,3697.96 -16.69,81.35"
       style="fill:none;stroke:#0000ff;stroke-width:13.875;stroke-linecap:butt;stroke-linejoin:miter;stroke-miterlimit:10;stroke-dasharray:none;stroke-opacity:1"
       transform="matrix(0.13333333,0,0,-0.13333333,0,740)" />
    <path
       id="path104"
       d="m 2962.31,2224.55 73.12,77.94"
       style="fill:none;stroke:#0000ff;stroke-width:13.875;stroke-linecap:butt;stroke-linejoin:miter;stroke-miterlimit:10;stroke-dasharray:none;stroke-opacity:1"
       transform="matrix(0.13333333,0,0,-0.13333333,0,740)" />
    <path
       id="path105"
       d="m 2962.31,2224.55 73.12,77.94"
       style="fill:none;stroke:#0000ff;stroke-width:13.875;stroke-linecap:butt;stroke-linejoin:miter;stroke-miterlimit:10;stroke-dasharray:none;stroke-opacity:1"
       transform="matrix(0.13333333,0,0,-0.13333333,0,740)" />
    <path
       id="path106"
       d="m 4241.8,1202.3 -0.06,-120.37"
       style="fill:none;stroke:#000000;stroke-width:13.875;stroke-linecap:butt;stroke-linejoin:miter;stroke-miterlimit:10;stroke-dasharray:none;stroke-opacity:1"
       transform="matrix(0.13333333,0,0,-0.13333333,0,740)" />
    <path
       id="path107"
       d="m 4241.8,1202.3 -0.06,-120.37"
       style="fill:none;stroke:#000000;stroke-width:13.875;stroke-linecap:butt;stroke-linejoin:miter;stroke-miterlimit:10;stroke-dasharray:none;stroke-opacity:1"
       transform="matrix(0.13333333,0,0,-0.13333333,0,740)" />
    <path
       id="path108"
       d="m 3551.14,3779.31 -22.12,81.09"
       style="fill:none;stroke:#0000ff;stroke-width:13.875;stroke-linecap:butt;stroke-linejoin:miter;stroke-miterlimit:10;stroke-dasharray:none;stroke-opacity:1"
       transform="matrix(0.13333333,0,0,-0.13333333,0,740)" />
    <path
       id="path109"
       d="m 3551.14,3779.31 -22.12,81.09"
       style="fill:none;stroke:#0000ff;stroke-width:13.875;stroke-linecap:butt;stroke-linejoin:miter;stroke-miterlimit:10;stroke-dasharray:none;stroke-opacity:1"
       transform="matrix(0.13333333,0,0,-0.13333333,0,740)" />
    <path
       id="path110"
       d="m 2885.68,2147.86 76.63,76.69"
       style="fill:none;stroke:#0000ff;stroke-width:13.875;stroke-linecap:butt;stroke-linejoin:miter;stroke-miterlimit:10;stroke-dasharray:none;stroke-opacity:1"
       transform="matrix(0.13333333,0,0,-0.13333333,0,740)" />
    <path
       id="path111"
       d="m 2885.68,2147.86 76.63,76.69"
       style="fill:none;stroke:#0000ff;stroke-width:13.875;stroke-linecap:butt;stroke-linejoin:miter;stroke-miterlimit:10;stroke-dasharray:none;stroke-opacity:1"
       transform="matrix(0.13333333,0,0,-0.13333333,0,740)" />
    <path
       id="path112"
       d="M 4768.67,1582.51 3708.58,817.434"
       style="fill:none;stroke:#000000;stroke-width:13.875;stroke-linecap:butt;stroke-linejoin:miter;stroke-miterlimit:10;stroke-dasharray:none;stroke-opacity:1"
       transform="matrix(0.13333333,0,0,-0.13333333,0,740)" />
    <path
       id="path113"
       d="M 4768.67,1582.51 3708.58,817.434"
       style="fill:none;stroke:#000000;stroke-width:13.875;stroke-linecap:butt;stroke-linejoin:miter;stroke-miterlimit:10;stroke-dasharray:none;stroke-opacity:1"
       transform="matrix(0.13333333,0,0,-0.13333333,0,740)" />
    <path
       id="path114"
       d="m 2805.79,2072.63 79.89,75.23"
       style="fill:none;stroke:#0000ff;stroke-width:13.875;stroke-linecap:butt;stroke-linejoin:miter;stroke-miterlimit:10;stroke-dasharray:none;stroke-opacity:1"
       transform="matrix(0.13333333,0,0,-0.13333333,0,740)" />
    <path
       id="path115"
       d="m 2805.79,2072.63 79.89,75.23"
       style="fill:none;stroke:#0000ff;stroke-width:13.875;stroke-linecap:butt;stroke-linejoin:miter;stroke-miterlimit:10;stroke-dasharray:none;stroke-opacity:1"
       transform="matrix(0.13333333,0,0,-0.13333333,0,740)" />
    <path
       id="path116"
       d="m 3529.02,3860.4 -27.48,80.81"
       style="fill:none;stroke:#0000ff;stroke-width:13.875;stroke-linecap:butt;stroke-linejoin:miter;stroke-miterlimit:10;stroke-dasharray:none;stroke-opacity:1"
       transform="matrix(0.13333333,0,0,-0.13333333,0,740)" />
    <path
       id="path117"
       d="m 3529.02,3860.4 -27.48,80.81"
       style="fill:none;stroke:#0000ff;stroke-width:13.875;stroke-linecap:butt;stroke-linejoin:miter;stroke-miterlimit:10;stroke-dasharray:none;stroke-opacity:1"
       transform="matrix(0.13333333,0,0,-0.13333333,0,740)" />
    <path
       id="path118"
       d="m 2722.97,1999.03 82.82,73.6"
       style="fill:none;stroke:#0000ff;stroke-width:13.875;stroke-linecap:butt;stroke-linejoin:miter;stroke-miterlimit:10;stroke-dasharray:none;stroke-opacity:1"
       transform="matrix(0.13333333,0,0,-0.13333333,0,740)" />
    <path
       id="path119"
       d="m 2722.97,1999.03 82.82,73.6"
       style="fill:none;stroke:#0000ff;stroke-width:13.875;stroke-linecap:butt;stroke-linejoin:miter;stroke-miterlimit:10;stroke-dasharray:none;stroke-opacity:1"
       transform="matrix(0.13333333,0,0,-0.13333333,0,740)" />
    <path
       id="path120"
       d="m 3501.54,3941.21 -32.79,80.49"
       style="fill:none;stroke:#0000ff;stroke-width:13.875;stroke-linecap:butt;stroke-linejoin:miter;stroke-miterlimit:10;stroke-dasharray:none;stroke-opacity:1"
       transform="matrix(0.13333333,0,0,-0.13333333,0,740)" />
    <path
       id="path121"
       d="m 3501.54,3941.21 -32.79,80.49"
       style="fill:none;stroke:#0000ff;stroke-width:13.875;stroke-linecap:butt;stroke-linejoin:miter;stroke-miterlimit:10;stroke-dasharray:none;stroke-opacity:1"
       transform="matrix(0.13333333,0,0,-0.13333333,0,740)" />
    <path
       id="path122"
       d="m 2637.44,1927.27 85.53,71.76"
       style="fill:none;stroke:#0000ff;stroke-width:13.875;stroke-linecap:butt;stroke-linejoin:miter;stroke-miterlimit:10;stroke-dasharray:none;stroke-opacity:1"
       transform="matrix(0.13333333,0,0,-0.13333333,0,740)" />
    <path
       id="path123"
       d="m 2637.44,1927.27 85.53,71.76"
       style="fill:none;stroke:#0000ff;stroke-width:13.875;stroke-linecap:butt;stroke-linejoin:miter;stroke-miterlimit:10;stroke-dasharray:none;stroke-opacity:1"
       transform="matrix(0.13333333,0,0,-0.13333333,0,740)" />
    <path
       id="path124"
       d="m 2549.48,1857.52 87.96,69.75"
       style="fill:none;stroke:#0000ff;stroke-width:13.875;stroke-linecap:butt;stroke-linejoin:miter;stroke-miterlimit:10;stroke-dasharray:none;stroke-opacity:1"
       transform="matrix(0.13333333,0,0,-0.13333333,0,740)" />
    <path
       id="path125"
       d="m 2549.48,1857.52 87.96,69.75"
       style="fill:none;stroke:#0000ff;stroke-width:13.875;stroke-linecap:butt;stroke-linejoin:miter;stroke-miterlimit:10;stroke-dasharray:none;stroke-opacity:1"
       transform="matrix(0.13333333,0,0,-0.13333333,0,740)" />
    <path
       id="path126"
       d="m 3468.75,4021.7 -37.88,80.32"
       style="fill:none;stroke:#0000ff;stroke-width:13.875;stroke-linecap:butt;stroke-linejoin:miter;stroke-miterlimit:10;stroke-dasharray:none;stroke-opacity:1"
       transform="matrix(0.13333333,0,0,-0.13333333,0,740)" />
    <path
       id="path127"
       d="m 3468.75,4021.7 -37.88,80.32"
       style="fill:none;stroke:#0000ff;stroke-width:13.875;stroke-linecap:butt;stroke-linejoin:miter;stroke-miterlimit:10;stroke-dasharray:none;stroke-opacity:1"
       transform="matrix(0.13333333,0,0,-0.13333333,0,740)" />
    <path
       id="path128"
       d="m 2459.34,1789.93 90.14,67.59"
       style="fill:none;stroke:#0000ff;stroke-width:13.875;stroke-linecap:butt;stroke-linejoin:miter;stroke-miterlimit:10;stroke-dasharray:none;stroke-opacity:1"
       transform="matrix(0.13333333,0,0,-0.13333333,0,740)" />
    <path
       id="path129"
       d="m 2459.34,1789.93 90.14,67.59"
       style="fill:none;stroke:#0000ff;stroke-width:13.875;stroke-linecap:butt;stroke-linejoin:miter;stroke-miterlimit:10;stroke-dasharray:none;stroke-opacity:1"
       transform="matrix(0.13333333,0,0,-0.13333333,0,740)" />
    <path
       id="path130"
       d="m 3073.48,2307 -2107,571.24 2102.88,-577.43"
       style="fill:#661919;fill-opacity:1;fill-rule:nonzero;stroke:none"
       transform="matrix(0.13333333,0,0,-0.13333333,0,740)" />
    <path
       id="path131"
       d="m 2367.31,1724.73 92.03,65.2"
       style="fill:none;stroke:#0000ff;stroke-width:13.875;stroke-linecap:butt;stroke-linejoin:miter;stroke-miterlimit:10;stroke-dasharray:none;stroke-opacity:1"
       transform="matrix(0.13333333,0,0,-0.13333333,0,740)" />
    <path
       id="path132"
       d="m 2367.31,1724.73 92.03,65.2"
       style="fill:none;stroke:#0000ff;stroke-width:13.875;stroke-linecap:butt;stroke-linejoin:miter;stroke-miterlimit:10;stroke-dasharray:none;stroke-opacity:1"
       transform="matrix(0.13333333,0,0,-0.13333333,0,740)" />
    <path
       id="path133"
       d="M 3076.5,2326.5 970.598,2884.43 3073.48,2307"
       style="fill:#661919;fill-opacity:1;fill-rule:nonzero;stroke:none"
       transform="matrix(0.13333333,0,0,-0.13333333,0,740)" />
    <path
       id="path134"
       d="m 3430.87,4102.02 -42.98,80.1"
       style="fill:none;stroke:#0000ff;stroke-width:13.875;stroke-linecap:butt;stroke-linejoin:miter;stroke-miterlimit:10;stroke-dasharray:none;stroke-opacity:1"
       transform="matrix(0.13333333,0,0,-0.13333333,0,740)" />
    <path
       id="path135"
       d="m 3430.87,4102.02 -42.98,80.1"
       style="fill:none;stroke:#0000ff;stroke-width:13.875;stroke-linecap:butt;stroke-linejoin:miter;stroke-miterlimit:10;stroke-dasharray:none;stroke-opacity:1"
       transform="matrix(0.13333333,0,0,-0.13333333,0,740)" />
    <path
       id="path136"
       d="M 3077.32,2351.92 973.582,2904 3076.5,2326.5"
       style="fill:#661919;fill-opacity:1;fill-rule:nonzero;stroke:none"
       transform="matrix(0.13333333,0,0,-0.13333333,0,740)" />
    <path
       id="path137"
       d="m 3075.59,2373.5 -3.69,9.53 -2102.927,577.55"
       style="fill:#6e1b1b;fill-opacity:1;fill-rule:nonzero;stroke:none"
       transform="matrix(0.13333333,0,0,-0.13333333,0,740)" />
    <path
       id="path138"
       d="M 3075.59,2373.5 974.34,2929.47 3077.32,2351.92"
       style="fill:#661919;fill-opacity:1;fill-rule:nonzero;stroke:none"
       transform="matrix(0.13333333,0,0,-0.13333333,0,740)" />
    <path
       id="path139"
       d="m 2273.66,1662.13 93.65,62.6"
       style="fill:none;stroke:#0000ff;stroke-width:13.875;stroke-linecap:butt;stroke-linejoin:miter;stroke-miterlimit:10;stroke-dasharray:none;stroke-opacity:1"
       transform="matrix(0.13333333,0,0,-0.13333333,0,740)" />
    <path
       id="path140"
       d="m 2273.66,1662.13 93.65,62.6"
       style="fill:none;stroke:#0000ff;stroke-width:13.875;stroke-linecap:butt;stroke-linejoin:miter;stroke-miterlimit:10;stroke-dasharray:none;stroke-opacity:1"
       transform="matrix(0.13333333,0,0,-0.13333333,0,740)" />
    <path
       id="path141"
       d="m 852.66,1188.91 87.481,-4.82"
       style="fill:none;stroke:#0000ff;stroke-width:13.875;stroke-linecap:butt;stroke-linejoin:miter;stroke-miterlimit:10;stroke-dasharray:none;stroke-opacity:1"
       transform="matrix(0.13333333,0,0,-0.13333333,0,740)" />
    <path
       id="path142"
       d="m 852.66,1188.91 87.481,-4.82"
       style="fill:none;stroke:#0000ff;stroke-width:13.875;stroke-linecap:butt;stroke-linejoin:miter;stroke-miterlimit:10;stroke-dasharray:none;stroke-opacity:1"
       transform="matrix(0.13333333,0,0,-0.13333333,0,740)" />
    <path
       id="path143"
       d="m 2178.7,1602.34 94.96,59.79"
       style="fill:none;stroke:#0000ff;stroke-width:13.875;stroke-linecap:butt;stroke-linejoin:miter;stroke-miterlimit:10;stroke-dasharray:none;stroke-opacity:1"
       transform="matrix(0.13333333,0,0,-0.13333333,0,740)" />
    <path
       id="path144"
       d="m 2178.7,1602.34 94.96,59.79"
       style="fill:none;stroke:#0000ff;stroke-width:13.875;stroke-linecap:butt;stroke-linejoin:miter;stroke-miterlimit:10;stroke-dasharray:none;stroke-opacity:1"
       transform="matrix(0.13333333,0,0,-0.13333333,0,740)" />
    <path
       id="path145"
       d="m 940.141,1184.09 89.379,1.73"
       style="fill:none;stroke:#0000ff;stroke-width:13.875;stroke-linecap:butt;stroke-linejoin:miter;stroke-miterlimit:10;stroke-dasharray:none;stroke-opacity:1"
       transform="matrix(0.13333333,0,0,-0.13333333,0,740)" />
    <path
       id="path146"
       d="m 940.141,1184.09 89.379,1.73"
       style="fill:none;stroke:#0000ff;stroke-width:13.875;stroke-linecap:butt;stroke-linejoin:miter;stroke-miterlimit:10;stroke-dasharray:none;stroke-opacity:1"
       transform="matrix(0.13333333,0,0,-0.13333333,0,740)" />
    <path
       id="path147"
       d="m 3387.89,4182.12 -47.86,80"
       style="fill:none;stroke:#0000ff;stroke-width:13.875;stroke-linecap:butt;stroke-linejoin:miter;stroke-miterlimit:10;stroke-dasharray:none;stroke-opacity:1"
       transform="matrix(0.13333333,0,0,-0.13333333,0,740)" />
    <path
       id="path148"
       d="m 3387.89,4182.12 -47.86,80"
       style="fill:none;stroke:#0000ff;stroke-width:13.875;stroke-linecap:butt;stroke-linejoin:miter;stroke-miterlimit:10;stroke-dasharray:none;stroke-opacity:1"
       transform="matrix(0.13333333,0,0,-0.13333333,0,740)" />
    <path
       id="path149"
       d="m 2082.66,1545.55 96.04,56.79"
       style="fill:none;stroke:#0000ff;stroke-width:13.875;stroke-linecap:butt;stroke-linejoin:miter;stroke-miterlimit:10;stroke-dasharray:none;stroke-opacity:1"
       transform="matrix(0.13333333,0,0,-0.13333333,0,740)" />
    <path
       id="path150"
       d="m 2082.66,1545.55 96.04,56.79"
       style="fill:none;stroke:#0000ff;stroke-width:13.875;stroke-linecap:butt;stroke-linejoin:miter;stroke-miterlimit:10;stroke-dasharray:none;stroke-opacity:1"
       transform="matrix(0.13333333,0,0,-0.13333333,0,740)" />
    <path
       id="path151"
       d="m 1985.75,1492 96.91,53.55"
       style="fill:none;stroke:#0000ff;stroke-width:13.875;stroke-linecap:butt;stroke-linejoin:miter;stroke-miterlimit:10;stroke-dasharray:none;stroke-opacity:1"
       transform="matrix(0.13333333,0,0,-0.13333333,0,740)" />
    <path
       id="path152"
       d="m 1985.75,1492 96.91,53.55"
       style="fill:none;stroke:#0000ff;stroke-width:13.875;stroke-linecap:butt;stroke-linejoin:miter;stroke-miterlimit:10;stroke-dasharray:none;stroke-opacity:1"
       transform="matrix(0.13333333,0,0,-0.13333333,0,740)" />
    <path
       id="path153"
       d="m 1029.52,1185.82 91.16,7.92"
       style="fill:none;stroke:#0000ff;stroke-width:13.875;stroke-linecap:butt;stroke-linejoin:miter;stroke-miterlimit:10;stroke-dasharray:none;stroke-opacity:1"
       transform="matrix(0.13333333,0,0,-0.13333333,0,740)" />
    <path
       id="path154"
       d="m 1029.52,1185.82 91.16,7.92"
       style="fill:none;stroke:#0000ff;stroke-width:13.875;stroke-linecap:butt;stroke-linejoin:miter;stroke-miterlimit:10;stroke-dasharray:none;stroke-opacity:1"
       transform="matrix(0.13333333,0,0,-0.13333333,0,740)" />
    <path
       id="path155"
       d="m 1888.41,1441.86 97.34,50.14"
       style="fill:none;stroke:#0000ff;stroke-width:13.875;stroke-linecap:butt;stroke-linejoin:miter;stroke-miterlimit:10;stroke-dasharray:none;stroke-opacity:1"
       transform="matrix(0.13333333,0,0,-0.13333333,0,740)" />
    <path
       id="path156"
       d="m 1888.41,1441.86 97.34,50.14"
       style="fill:none;stroke:#0000ff;stroke-width:13.875;stroke-linecap:butt;stroke-linejoin:miter;stroke-miterlimit:10;stroke-dasharray:none;stroke-opacity:1"
       transform="matrix(0.13333333,0,0,-0.13333333,0,740)" />
    <path
       id="path157"
       d="m 1120.68,1193.74 92.68,13.71"
       style="fill:none;stroke:#0000ff;stroke-width:13.875;stroke-linecap:butt;stroke-linejoin:miter;stroke-miterlimit:10;stroke-dasharray:none;stroke-opacity:1"
       transform="matrix(0.13333333,0,0,-0.13333333,0,740)" />
    <path
       id="path158"
       d="m 1120.68,1193.74 92.68,13.71"
       style="fill:none;stroke:#0000ff;stroke-width:13.875;stroke-linecap:butt;stroke-linejoin:miter;stroke-miterlimit:10;stroke-dasharray:none;stroke-opacity:1"
       transform="matrix(0.13333333,0,0,-0.13333333,0,740)" />
    <path
       id="path159"
       d="m 1790.75,1395.41 97.66,46.45"
       style="fill:none;stroke:#0000ff;stroke-width:13.875;stroke-linecap:butt;stroke-linejoin:miter;stroke-miterlimit:10;stroke-dasharray:none;stroke-opacity:1"
       transform="matrix(0.13333333,0,0,-0.13333333,0,740)" />
    <path
       id="path160"
       d="m 1790.75,1395.41 97.66,46.45"
       style="fill:none;stroke:#0000ff;stroke-width:13.875;stroke-linecap:butt;stroke-linejoin:miter;stroke-miterlimit:10;stroke-dasharray:none;stroke-opacity:1"
       transform="matrix(0.13333333,0,0,-0.13333333,0,740)" />
    <path
       id="path161"
       d="m 1213.36,1207.45 94.03,19.24"
       style="fill:none;stroke:#0000ff;stroke-width:13.875;stroke-linecap:butt;stroke-linejoin:miter;stroke-miterlimit:10;stroke-dasharray:none;stroke-opacity:1"
       transform="matrix(0.13333333,0,0,-0.13333333,0,740)" />
    <path
       id="path162"
       d="m 1213.36,1207.45 94.03,19.24"
       style="fill:none;stroke:#0000ff;stroke-width:13.875;stroke-linecap:butt;stroke-linejoin:miter;stroke-miterlimit:10;stroke-dasharray:none;stroke-opacity:1"
       transform="matrix(0.13333333,0,0,-0.13333333,0,740)" />
    <path
       id="path163"
       d="m 3340.03,4262.12 -52.63,79.9"
       style="fill:none;stroke:#0000ff;stroke-width:13.875;stroke-linecap:butt;stroke-linejoin:miter;stroke-miterlimit:10;stroke-dasharray:none;stroke-opacity:1"
       transform="matrix(0.13333333,0,0,-0.13333333,0,740)" />
    <path
       id="path164"
       d="m 3340.03,4262.12 -52.63,79.9"
       style="fill:none;stroke:#0000ff;stroke-width:13.875;stroke-linecap:butt;stroke-linejoin:miter;stroke-miterlimit:10;stroke-dasharray:none;stroke-opacity:1"
       transform="matrix(0.13333333,0,0,-0.13333333,0,740)" />
    <path
       id="path165"
       d="m 1693.13,1352.87 97.62,42.54"
       style="fill:none;stroke:#0000ff;stroke-width:13.875;stroke-linecap:butt;stroke-linejoin:miter;stroke-miterlimit:10;stroke-dasharray:none;stroke-opacity:1"
       transform="matrix(0.13333333,0,0,-0.13333333,0,740)" />
    <path
       id="path166"
       d="m 1693.13,1352.87 97.62,42.54"
       style="fill:none;stroke:#0000ff;stroke-width:13.875;stroke-linecap:butt;stroke-linejoin:miter;stroke-miterlimit:10;stroke-dasharray:none;stroke-opacity:1"
       transform="matrix(0.13333333,0,0,-0.13333333,0,740)" />
    <path
       id="path167"
       d="m 1307.39,1226.69 95.23,24.45"
       style="fill:none;stroke:#0000ff;stroke-width:13.875;stroke-linecap:butt;stroke-linejoin:miter;stroke-miterlimit:10;stroke-dasharray:none;stroke-opacity:1"
       transform="matrix(0.13333333,0,0,-0.13333333,0,740)" />
    <path
       id="path168"
       d="m 1307.39,1226.69 95.23,24.45"
       style="fill:none;stroke:#0000ff;stroke-width:13.875;stroke-linecap:butt;stroke-linejoin:miter;stroke-miterlimit:10;stroke-dasharray:none;stroke-opacity:1"
       transform="matrix(0.13333333,0,0,-0.13333333,0,740)" />
    <path
       id="path169"
       d="m 1595.73,1314.49 97.4,38.38"
       style="fill:none;stroke:#0000ff;stroke-width:13.875;stroke-linecap:butt;stroke-linejoin:miter;stroke-miterlimit:10;stroke-dasharray:none;stroke-opacity:1"
       transform="matrix(0.13333333,0,0,-0.13333333,0,740)" />
    <path
       id="path170"
       d="m 1595.73,1314.49 97.4,38.38"
       style="fill:none;stroke:#0000ff;stroke-width:13.875;stroke-linecap:butt;stroke-linejoin:miter;stroke-miterlimit:10;stroke-dasharray:none;stroke-opacity:1"
       transform="matrix(0.13333333,0,0,-0.13333333,0,740)" />
    <path
       id="path171"
       d="m 1402.62,1251.14 96.2,29.32"
       style="fill:none;stroke:#0000ff;stroke-width:13.875;stroke-linecap:butt;stroke-linejoin:miter;stroke-miterlimit:10;stroke-dasharray:none;stroke-opacity:1"
       transform="matrix(0.13333333,0,0,-0.13333333,0,740)" />
    <path
       id="path172"
       d="m 1402.62,1251.14 96.2,29.32 96.91,34.03"
       style="fill:none;stroke:#0000ff;stroke-width:13.875;stroke-linecap:butt;stroke-linejoin:miter;stroke-miterlimit:10;stroke-dasharray:none;stroke-opacity:1"
       transform="matrix(0.13333333,0,0,-0.13333333,0,740)" />
    <path
       id="path173"
       d="m 1498.82,1280.46 96.91,34.03"
       style="fill:none;stroke:#0000ff;stroke-width:13.875;stroke-linecap:butt;stroke-linejoin:miter;stroke-miterlimit:10;stroke-dasharray:none;stroke-opacity:1"
       transform="matrix(0.13333333,0,0,-0.13333333,0,740)" />
    <g
       id="g173"
       aria-label="−1−1&#10;00"
       transform="matrix(1.3333333,0,0,1.3333333,77.4688,625.95733)">
      <path
         id="path174"
         d="m 10.921838,-3.8088203 c 0.292968,0 0.585937,0 0.585937,-0.3398438 0,-0.328125 -0.292969,-0.328125 -0.585937,-0.328125 H 1.9569938 c -0.28125,0 -0.5859375,0 -0.5859375,0.328125 0,0.3398438 0.3046875,0.3398438 0.5859375,0.3398438 z m 0,0"
         style="fill:#000000;fill-opacity:1;fill-rule:nonzero;stroke:none" />
      <path
         id="path175"
         d="m 21.454064,-10.617414 c 0,-0.398438 0,-0.421875 -0.386719,-0.421875 -1.019531,1.0546874 -2.484375,1.0546874 -3.011718,1.0546874 v 0.515625 c 0.328125,0 1.3125,0 2.167968,-0.4335937 v 8.5898437 c 0,0.59765629 -0.04687,0.79687504 -1.535156,0.79687504 H 18.149377 V -2.265625e-4 C 18.735314,-0.04710156 20.17672,-0.04710156 20.844689,-0.04710156 c 0.65625,0 2.097656,0 2.683594,0.0468749975 V -0.51585156 h -0.527344 c -1.5,0 -1.546875,-0.17578125 -1.546875,-0.79687504 z m 0,0"
         style="fill:#000000;fill-opacity:1;fill-rule:nonzero;stroke:none" />
      <path
         id="path176"
         d="m 10.921838,-3.8088203 c 0.292968,0 0.585937,0 0.585937,-0.3398438 0,-0.328125 -0.292969,-0.328125 -0.585937,-0.328125 H 1.9569938 c -0.28125,0 -0.5859375,0 -0.5859375,0.328125 0,0.3398438 0.3046875,0.3398438 0.5859375,0.3398438 z m 0,0"
         style="fill:#000000;fill-opacity:1;fill-rule:nonzero;stroke:none" />
      <path
         id="path177"
         d="m 21.454064,-10.617414 c 0,-0.398438 0,-0.421875 -0.386719,-0.421875 -1.019531,1.0546874 -2.484375,1.0546874 -3.011718,1.0546874 v 0.515625 c 0.328125,0 1.3125,0 2.167968,-0.4335937 v 8.5898437 c 0,0.59765629 -0.04687,0.79687504 -1.535156,0.79687504 H 18.149377 V -2.265625e-4 C 18.735314,-0.04710156 20.17672,-0.04710156 20.844689,-0.04710156 c 0.65625,0 2.097656,0 2.683594,0.0468749975 V -0.51585156 h -0.527344 c -1.5,0 -1.546875,-0.17578125 -1.546875,-0.79687504 z M 4.7284781,-25.47093 c 0,-1.324218 -0.082031,-2.648437 -0.6679687,-3.878906 -0.7617188,-1.59375 -2.1210938,-1.851562 -2.8125,-1.851562 -0.99609377,0 -2.20312502,0.421875 -2.8828125,1.96875 -0.5390625,1.148437 -0.6210938,2.4375 -0.6210938,3.761718 0,1.242188 0.070312,2.742188 0.75,3.996094 0.71484378,1.347656 1.92187503,1.675781 2.7304688,1.675781 0.9023437,0 2.15625,-0.351562 2.8945312,-1.921875 0.5273438,-1.148437 0.609375,-2.4375 0.609375,-3.75 z m -3.5039062,5.308594 c -0.64453127,0 -1.61718752,-0.410156 -1.92187502,-2.003906 -0.17578125,-0.996094 -0.17578125,-2.519531 -0.17578125,-3.503906 0,-1.054688 0,-2.15625 0.12890625,-3.046875 0.31640625,-1.980469 1.55859375,-2.121094 1.96875002,-2.121094 0.5507812,0 1.640625,0.292969 1.9570312,1.933594 0.1640625,0.9375 0.1640625,2.191406 0.1640625,3.234375 0,1.242187 0,2.378906 -0.1757812,3.433593 -0.2460938,1.582032 -1.1953125,2.074219 -1.9453125,2.074219 z m 3.5039062,-5.308594 c 0,-1.324218 -0.082031,-2.648437 -0.6679687,-3.878906 -0.7617188,-1.59375 -2.1210938,-1.851562 -2.8125,-1.851562 -0.99609377,0 -2.20312502,0.421875 -2.8828125,1.96875 -0.5390625,1.148437 -0.6210938,2.4375 -0.6210938,3.761718 0,1.242188 0.070312,2.742188 0.75,3.996094 0.71484378,1.347656 1.92187503,1.675781 2.7304688,1.675781 0.9023437,0 2.15625,-0.351562 2.8945312,-1.921875 0.5273438,-1.148437 0.609375,-2.4375 0.609375,-3.75 z m -3.5039062,5.308594 c -0.64453127,0 -1.61718752,-0.410156 -1.92187502,-2.003906 -0.17578125,-0.996094 -0.17578125,-2.519531 -0.17578125,-3.503906 0,-1.054688 0,-2.15625 0.12890625,-3.046875 0.31640625,-1.980469 1.55859375,-2.121094 1.96875002,-2.121094 0.5507812,0 1.640625,0.292969 1.9570312,1.933594 0.1640625,0.9375 0.1640625,2.191406 0.1640625,3.234375 0,1.242187 0,2.378906 -0.1757812,3.433593 -0.2460938,1.582032 -1.1953125,2.074219 -1.9453125,2.074219 z m 0,0"
         style="fill:#000000;fill-opacity:1;fill-rule:nonzero;stroke:none" />
    </g>
    <path
       id="path178"
       d="M 776.023,1096.67 745.672,989.84"
       style="fill:none;stroke:#0000ff;stroke-width:13.875;stroke-linecap:butt;stroke-linejoin:miter;stroke-miterlimit:10;stroke-dasharray:none;stroke-opacity:1"
       transform="matrix(0.13333333,0,0,-0.13333333,0,740)" />
    <path
       id="path179"
       d="M 776.023,1096.67 745.672,989.84"
       style="fill:none;stroke:#0000ff;stroke-width:13.875;stroke-linecap:butt;stroke-linejoin:miter;stroke-miterlimit:10;stroke-dasharray:none;stroke-opacity:1"
       transform="matrix(0.13333333,0,0,-0.13333333,0,740)" />
    <path
       id="path180"
       d="M 776.023,1134.34 662.746,1120.52"
       style="fill:none;stroke:#0000ff;stroke-width:13.875;stroke-linecap:butt;stroke-linejoin:miter;stroke-miterlimit:10;stroke-dasharray:none;stroke-opacity:1"
       transform="matrix(0.13333333,0,0,-0.13333333,0,740)" />
    <path
       id="path181"
       d="M 776.023,1134.34 662.746,1120.52"
       style="fill:none;stroke:#0000ff;stroke-width:13.875;stroke-linecap:butt;stroke-linejoin:miter;stroke-miterlimit:10;stroke-dasharray:none;stroke-opacity:1"
       transform="matrix(0.13333333,0,0,-0.13333333,0,740)" />
    <path
       id="path182"
       d="m 3065.72,2310.3 -2102.872,577.43 -1.789,21.64"
       style="fill:#661919;fill-opacity:1;fill-rule:nonzero;stroke:none"
       transform="matrix(0.13333333,0,0,-0.13333333,0,740)" />
    <path
       id="path183"
       d="M 962.848,2887.73 3069.36,2300.81 966.48,2878.24"
       style="fill:#6e1b1b;fill-opacity:1;fill-rule:nonzero;stroke:none"
       transform="matrix(0.13333333,0,0,-0.13333333,0,740)" />
    <path
       id="path184"
       d="m 3063.99,2331.88 -2102.931,577.49 0.816,25.47"
       style="fill:#661919;fill-opacity:1;fill-rule:nonzero;stroke:none"
       transform="matrix(0.13333333,0,0,-0.13333333,0,740)" />
    <path
       id="path185"
       d="m 3073.48,2307 -2102.882,577.43 -4.118,-6.19"
       style="fill:#661919;fill-opacity:1;fill-rule:nonzero;stroke:none"
       transform="matrix(0.13333333,0,0,-0.13333333,0,740)" />
    <path
       id="path186"
       d="m 3064.75,2357.29 -2102.875,577.55 2.98,19.51"
       style="fill:#661919;fill-opacity:1;fill-rule:nonzero;stroke:none"
       transform="matrix(0.13333333,0,0,-0.13333333,0,740)" />
    <path
       id="path187"
       d="M 3076.5,2326.5 973.582,2904 l -2.984,-19.57"
       style="fill:#661919;fill-opacity:1;fill-rule:nonzero;stroke:none"
       transform="matrix(0.13333333,0,0,-0.13333333,0,740)" />
    <path
       id="path188"
       d="m 3067.79,2376.8 -2102.935,577.55 4.118,6.23"
       style="fill:#661919;fill-opacity:1;fill-rule:nonzero;stroke:none"
       transform="matrix(0.13333333,0,0,-0.13333333,0,740)" />
    <path
       id="path189"
       d="M 3077.32,2351.92 974.34,2929.47 973.582,2904"
       style="fill:#661919;fill-opacity:1;fill-rule:nonzero;stroke:none"
       transform="matrix(0.13333333,0,0,-0.13333333,0,740)" />
    <path
       id="path190"
       d="m 3075.59,2373.5 -2106.617,587.08 3.632,-9.53"
       style="fill:#6e1b1b;fill-opacity:1;fill-rule:nonzero;stroke:none"
       transform="matrix(0.13333333,0,0,-0.13333333,0,740)" />
    <path
       id="path191"
       d="m 3075.59,2373.5 -2102.985,577.55 1.735,-21.58"
       style="fill:#661919;fill-opacity:1;fill-rule:nonzero;stroke:none"
       transform="matrix(0.13333333,0,0,-0.13333333,0,740)" />
    <path
       id="path192"
       d="m 4.8748984,-10.617039 c 0,-0.398438 0,-0.421875 -0.3867187,-0.421875 -1.0195313,1.0546874 -2.484375,1.0546874 -3.0117188,1.0546874 v 0.515625 c 0.328125,0 1.3125,0 2.1679688,-0.4335937 v 8.5898437 c 0,0.59765629 -0.046875,0.79687504 -1.5351563,0.79687504 H 1.5702109 V 1.484375e-4 C 2.1561484,-0.04672656 3.5975547,-0.04672656 4.2655234,-0.04672656 c 0.65625,0 2.0976563,0 2.6835938,0.0468749975 V -0.51547656 H 6.4217734 c -1.5,0 -1.546875,-0.17578125 -1.546875,-0.79687504 z m 0,0 c 0,-0.398438 0,-0.421875 -0.3867187,-0.421875 -1.0195313,1.0546874 -2.484375,1.0546874 -3.0117188,1.0546874 v 0.515625 c 0.328125,0 1.3125,0 2.1679688,-0.4335937 v 8.5898437 c 0,0.59765629 -0.046875,0.79687504 -1.5351563,0.79687504 H 1.5702109 V 1.484375e-4 C 2.1561484,-0.04672656 3.5975547,-0.04672656 4.2655234,-0.04672656 c 0.65625,0 2.0976563,0 2.6835938,0.0468749975 V -0.51547656 H 6.4217734 c -1.5,0 -1.546875,-0.17578125 -1.546875,-0.79687504 z M -207.87608,-8.0008281 c 0,-1.3242188 -0.082,-2.6484379 -0.66797,-3.8789059 -0.76172,-1.59375 -2.12109,-1.851563 -2.8125,-1.851563 -0.99609,0 -2.20312,0.421875 -2.88281,1.96875 -0.53906,1.148438 -0.62109,2.4375001 -0.62109,3.7617189 0,1.2421875 0.0703,2.7421875 0.75,3.9960937 0.71484,1.3476563 1.92187,1.6757813 2.73047,1.6757813 0.90234,0 2.15625,-0.3515625 2.89453,-1.921875 0.52734,-1.1484375 0.60937,-2.4375 0.60937,-3.75 z m -3.5039,5.3085937 c -0.64454,0 -1.61719,-0.4101562 -1.92188,-2.0039062 -0.17578,-0.9960938 -0.17578,-2.5195313 -0.17578,-3.5039063 0,-1.0546875 0,-2.1562501 0.12891,-3.0468751 0.3164,-1.980469 1.55859,-2.121094 1.96875,-2.121094 0.55078,0 1.64062,0.292969 1.95703,1.933594 0.16406,0.9375 0.16406,2.1914064 0.16406,3.2343751 0,1.2421875 0,2.3789063 -0.17578,3.4335938 -0.2461,1.5820312 -1.19531,2.0742187 -1.94531,2.0742187 z m 3.5039,-5.3085937 c 0,-1.3242188 -0.082,-2.6484379 -0.66797,-3.8789059 -0.76172,-1.59375 -2.12109,-1.851563 -2.8125,-1.851563 -0.99609,0 -2.20312,0.421875 -2.88281,1.96875 -0.53906,1.148438 -0.62109,2.4375001 -0.62109,3.7617189 0,1.2421875 0.0703,2.7421875 0.75,3.9960937 0.71484,1.3476563 1.92187,1.6757813 2.73047,1.6757813 0.90234,0 2.15625,-0.3515625 2.89453,-1.921875 0.52734,-1.1484375 0.60937,-2.4375 0.60937,-3.75 z m -3.5039,5.3085937 c -0.64454,0 -1.61719,-0.4101562 -1.92188,-2.0039062 -0.17578,-0.9960938 -0.17578,-2.5195313 -0.17578,-3.5039063 0,-1.0546875 0,-2.1562501 0.12891,-3.0468751 0.3164,-1.980469 1.55859,-2.121094 1.96875,-2.121094 0.55078,0 1.64062,0.292969 1.95703,1.933594 0.16406,0.9375 0.16406,2.1914064 0.16406,3.2343751 0,1.2421875 0,2.3789063 -0.17578,3.4335938 -0.2461,1.5820312 -1.19531,2.0742187 -1.94531,2.0742187 z m 0,0"
       style="fill:#000000;fill-opacity:1;fill-rule:nonzero;stroke:none"
       aria-label="11&#10;00"
       transform="matrix(1.3333333,0,0,1.3333333,519.39467,643.01933)" />
    <path
       id="path193"
       d="M 979.164,2779.55 774.563,2972.44 962.742,2754.79"
       style="fill:#661919;fill-opacity:1;fill-rule:nonzero;stroke:none"
       transform="matrix(0.13333333,0,0,-0.13333333,0,740)" />
    <path
       id="path194"
       d="m 962.742,2754.79 31.543,204.82 -3.09,-101.79"
       style="fill:#d93939;fill-opacity:1;fill-rule:nonzero;stroke:none"
       transform="matrix(0.13333333,0,0,-0.13333333,0,740)" />
    <path
       id="path195"
       d="m 962.742,2754.79 9.973,329.3 14.523,-38.1"
       style="fill:#d93939;fill-opacity:1;fill-rule:nonzero;stroke:none"
       transform="matrix(0.13333333,0,0,-0.13333333,0,740)" />
    <path
       id="path196"
       d="m 962.742,2754.79 24.496,291.2 7.047,-86.38"
       style="fill:#d93939;fill-opacity:1;fill-rule:nonzero;stroke:none"
       transform="matrix(0.13333333,0,0,-0.13333333,0,740)" />
    <path
       id="path197"
       d="M 991.195,2857.82 774.563,2972.44 979.164,2779.55"
       style="fill:#661919;fill-opacity:1;fill-rule:nonzero;stroke:none"
       transform="matrix(0.13333333,0,0,-0.13333333,0,740)" />
    <path
       id="path198"
       d="m 1836.16,995.746 -30.3,-106.933"
       style="fill:none;stroke:#000000;stroke-width:13.875;stroke-linecap:butt;stroke-linejoin:miter;stroke-miterlimit:10;stroke-dasharray:none;stroke-opacity:1"
       transform="matrix(0.13333333,0,0,-0.13333333,0,740)" />
    <path
       id="path199"
       d="m 1836.16,995.746 -30.3,-106.933"
       style="fill:none;stroke:#000000;stroke-width:13.875;stroke-linecap:butt;stroke-linejoin:miter;stroke-miterlimit:10;stroke-dasharray:none;stroke-opacity:1"
       transform="matrix(0.13333333,0,0,-0.13333333,0,740)" />
    <path
       id="path200"
       d="m 776.023,1096.67 -2.382,3014.45"
       style="fill:none;stroke:#000000;stroke-width:13.875;stroke-linecap:butt;stroke-linejoin:miter;stroke-miterlimit:10;stroke-dasharray:none;stroke-opacity:1"
       transform="matrix(0.13333333,0,0,-0.13333333,0,740)" />
    <path
       id="path201"
       d="m 776.023,1096.67 -2.382,3014.45"
       style="fill:none;stroke:#000000;stroke-width:13.875;stroke-linecap:butt;stroke-linejoin:miter;stroke-miterlimit:10;stroke-dasharray:none;stroke-opacity:1"
       transform="matrix(0.13333333,0,0,-0.13333333,0,740)" />
    <path
       id="path202"
       d="m 3937.09,982.359 -0.06,-120.484"
       style="fill:none;stroke:#000000;stroke-width:13.875;stroke-linecap:butt;stroke-linejoin:miter;stroke-miterlimit:10;stroke-dasharray:none;stroke-opacity:1"
       transform="matrix(0.13333333,0,0,-0.13333333,0,740)" />
    <path
       id="path203"
       d="m 3937.09,982.359 -0.06,-120.484"
       style="fill:none;stroke:#000000;stroke-width:13.875;stroke-linecap:butt;stroke-linejoin:miter;stroke-miterlimit:10;stroke-dasharray:none;stroke-opacity:1"
       transform="matrix(0.13333333,0,0,-0.13333333,0,740)" />
    <path
       id="path204"
       d="m 994.285,2959.61 -219.722,12.83 216.632,-114.62"
       style="fill:#661919;fill-opacity:1;fill-rule:nonzero;stroke:none"
       transform="matrix(0.13333333,0,0,-0.13333333,0,740)" />
    <path
       id="path205"
       d="m 972.715,3084.09 -198.152,-111.65 212.675,73.55"
       style="fill:#c34747;fill-opacity:1;fill-rule:nonzero;stroke:none"
       transform="matrix(0.13333333,0,0,-0.13333333,0,740)" />
    <path
       id="path206"
       d="m 987.238,3045.99 -212.675,-73.55 219.722,-12.83"
       style="fill:#661919;fill-opacity:1;fill-rule:nonzero;stroke:none"
       transform="matrix(0.13333333,0,0,-0.13333333,0,740)" />
    <g
       id="g206"
       aria-label="0.50.5"
       transform="matrix(1.3333333,0,0,1.3333333,56.229733,379.004)">
      <path
         id="path207"
         d="m 7.6294578,-5.3086641 c 0,-1.3242187 -0.082031,-2.6484375 -0.6679687,-3.8789062 -0.7617188,-1.5937497 -2.1210938,-1.8515627 -2.8125,-1.8515627 -0.9960938,0 -2.203125,0.421875 -2.8828125,1.9687502 -0.53906254,1.1484375 -0.62109379,2.4375 -0.62109379,3.7617187 0,1.2421875 0.0703125,2.7421875 0.74999999,3.9960938 0.7148438,1.34765624 1.921875,1.67578124 2.7304688,1.67578124 0.9023437,0 2.15625,-0.3515625 2.8945312,-1.92187504 0.5273438,-1.1484375 0.609375,-2.4375 0.609375,-3.75 z M 4.1255516,-7.03125e-5 c -0.6445313,0 -1.6171875,-0.4101562475 -1.921875,-2.0039062875 -0.1757813,-0.9960937 -0.1757813,-2.5195312 -0.1757813,-3.5039062 0,-1.0546875 0,-2.15625 0.1289063,-3.046875 0.3164062,-1.9804692 1.5585937,-2.1210942 1.96875,-2.1210942 0.5507812,0 1.640625,0.292969 1.9570312,1.9335942 0.1640625,0.9375 0.1640625,2.1914062 0.1640625,3.234375 0,1.2421875 0,2.3789062 -0.1757812,3.4335937 C 5.8247703,-0.49225781 4.8755516,-7.03125e-5 4.1255516,-7.03125e-5 Z m 0,0"
         style="fill:#000000;fill-opacity:1;fill-rule:nonzero;stroke:none" />
      <path
         id="path208"
         d="m 11.481997,-0.87897656 c 0,-0.48046874 -0.398438,-0.87890624 -0.878906,-0.87890624 -0.480469,0 -0.8789066,0.3984375 -0.8789066,0.87890624 0,0.48046875 0.3984376,0.8789062475 0.8789066,0.8789062475 0.480468,0 0.878906,-0.3984374975 0.878906,-0.8789062475 z m 0,0"
         style="fill:#000000;fill-opacity:1;fill-rule:nonzero;stroke:none" />
      <path
         id="path209"
         d="m 20.335512,-3.3281953 c 0,-1.9804688 -1.359375,-3.6328125 -3.152343,-3.6328125 -0.785157,0 -1.5,0.2578125 -2.097657,0.84375 v -3.234375 c 0.328125,0.09375 0.878907,0.2109375 1.40625,0.2109375 2.039063,0 3.199219,-1.4999997 3.199219,-1.7226567 0,-0.09375 -0.04687,-0.175781 -0.164062,-0.175781 -0.01172,0 -0.04687,0 -0.128907,0.04687 -0.339843,0.152344 -1.148437,0.480469 -2.261718,0.480469 -0.65625,0 -1.417969,-0.117188 -2.203125,-0.46875 -0.128907,-0.04687 -0.164063,-0.04687 -0.199219,-0.04687 -0.164063,0 -0.164063,0.128906 -0.164063,0.398437 v 4.9101567 c 0,0.2929687 0,0.4335937 0.234375,0.4335937 0.117188,0 0.140625,-0.058594 0.210938,-0.1523437 0.1875,-0.2695313 0.796875,-1.1601563 2.144531,-1.1601563 0.855469,0 1.277344,0.7617188 1.40625,1.0546875 0.269531,0.6210938 0.292969,1.265625 0.292969,2.0976563 0,0.5742187 0,1.5703125 -0.398438,2.2734375 -0.398437,0.64453124 -1.007812,1.07812499 -1.769531,1.07812499 -1.207031,0 -2.15625,-0.87890625 -2.4375,-1.86328129 0.04687,0.011719 0.105469,0.035156 0.28125,0.035156 0.550781,0 0.832031,-0.421875 0.832031,-0.8085938 0,-0.3984375 -0.28125,-0.8203125 -0.832031,-0.8203125 -0.234375,0 -0.808594,0.1171875 -0.808594,0.8789063 0,1.4296875 1.136719,3.03515624 3,3.03515624 1.921875,0 3.609375,-1.59375004 3.609375,-3.69140594 z M 7.6294578,-5.3086641 c 0,-1.3242187 -0.082031,-2.6484375 -0.6679687,-3.8789062 -0.7617188,-1.5937497 -2.1210938,-1.8515627 -2.8125,-1.8515627 -0.9960938,0 -2.203125,0.421875 -2.8828125,1.9687502 -0.53906254,1.1484375 -0.62109379,2.4375 -0.62109379,3.7617187 0,1.2421875 0.0703125,2.7421875 0.74999999,3.9960938 0.7148438,1.34765624 1.921875,1.67578124 2.7304688,1.67578124 0.9023437,0 2.15625,-0.3515625 2.8945312,-1.92187504 0.5273438,-1.1484375 0.609375,-2.4375 0.609375,-3.75 z M 4.1255516,-7.03125e-5 c -0.6445313,0 -1.6171875,-0.4101562475 -1.921875,-2.0039062875 -0.1757813,-0.9960937 -0.1757813,-2.5195312 -0.1757813,-3.5039062 0,-1.0546875 0,-2.15625 0.1289063,-3.046875 0.3164062,-1.9804692 1.5585937,-2.1210942 1.96875,-2.1210942 0.5507812,0 1.640625,0.292969 1.9570312,1.9335942 0.1640625,0.9375 0.1640625,2.1914062 0.1640625,3.234375 0,1.2421875 0,2.3789062 -0.1757812,3.4335937 C 5.8247703,-0.49225781 4.8755516,-7.03125e-5 4.1255516,-7.03125e-5 Z m 0,0"
         style="fill:#000000;fill-opacity:1;fill-rule:nonzero;stroke:none" />
      <path
         id="path210"
         d="m 11.481997,-0.87897656 c 0,-0.48046874 -0.398438,-0.87890624 -0.878906,-0.87890624 -0.480469,0 -0.8789066,0.3984375 -0.8789066,0.87890624 0,0.48046875 0.3984376,0.8789062475 0.8789066,0.8789062475 0.480468,0 0.878906,-0.3984374975 0.878906,-0.8789062475 z m 0,0"
         style="fill:#000000;fill-opacity:1;fill-rule:nonzero;stroke:none" />
      <path
         id="path211"
         d="m 20.335512,-3.3281953 c 0,-1.9804688 -1.359375,-3.6328125 -3.152343,-3.6328125 -0.785157,0 -1.5,0.2578125 -2.097657,0.84375 v -3.234375 c 0.328125,0.09375 0.878907,0.2109375 1.40625,0.2109375 2.039063,0 3.199219,-1.4999997 3.199219,-1.7226567 0,-0.09375 -0.04687,-0.175781 -0.164062,-0.175781 -0.01172,0 -0.04687,0 -0.128907,0.04687 -0.339843,0.152344 -1.148437,0.480469 -2.261718,0.480469 -0.65625,0 -1.417969,-0.117188 -2.203125,-0.46875 -0.128907,-0.04687 -0.164063,-0.04687 -0.199219,-0.04687 -0.164063,0 -0.164063,0.128906 -0.164063,0.398437 v 4.9101567 c 0,0.2929687 0,0.4335937 0.234375,0.4335937 0.117188,0 0.140625,-0.058594 0.210938,-0.1523437 0.1875,-0.2695313 0.796875,-1.1601563 2.144531,-1.1601563 0.855469,0 1.277344,0.7617188 1.40625,1.0546875 0.269531,0.6210938 0.292969,1.265625 0.292969,2.0976563 0,0.5742187 0,1.5703125 -0.398438,2.2734375 -0.398437,0.64453124 -1.007812,1.07812499 -1.769531,1.07812499 -1.207031,0 -2.15625,-0.87890625 -2.4375,-1.86328129 0.04687,0.011719 0.105469,0.035156 0.28125,0.035156 0.550781,0 0.832031,-0.421875 0.832031,-0.8085938 0,-0.3984375 -0.28125,-0.8203125 -0.832031,-0.8203125 -0.234375,0 -0.808594,0.1171875 -0.808594,0.8789063 0,1.4296875 1.136719,3.03515624 3,3.03515624 1.921875,0 3.609375,-1.59375004 3.609375,-3.69140594 z m 0,0"
         style="fill:#000000;fill-opacity:1;fill-rule:nonzero;stroke:none" />
    </g>
    <path
       id="path212"
       d="M 774.723,2784.64 661.395,2770.99"
       style="fill:none;stroke:#661919;stroke-width:13.875;stroke-linecap:butt;stroke-linejoin:miter;stroke-miterlimit:10;stroke-dasharray:none;stroke-opacity:1"
       transform="matrix(0.13333333,0,0,-0.13333333,0,740)" />
    <path
       id="path213"
       d="M 774.723,2784.64 661.395,2770.99"
       style="fill:none;stroke:#661919;stroke-width:13.875;stroke-linecap:butt;stroke-linejoin:miter;stroke-miterlimit:10;stroke-dasharray:none;stroke-opacity:1"
       transform="matrix(0.13333333,0,0,-0.13333333,0,740)" />
    <path
       id="path214"
       d="M 776.023,1096.67 3708.58,817.434"
       style="fill:none;stroke:#661919;stroke-width:13.875;stroke-linecap:butt;stroke-linejoin:miter;stroke-miterlimit:10;stroke-dasharray:none;stroke-opacity:1"
       transform="matrix(0.13333333,0,0,-0.13333333,0,740)" />
    <path
       id="path215"
       d="M 776.023,1096.67 3708.58,817.434"
       style="fill:none;stroke:#661919;stroke-width:13.875;stroke-linecap:butt;stroke-linejoin:miter;stroke-miterlimit:10;stroke-dasharray:none;stroke-opacity:1"
       transform="matrix(0.13333333,0,0,-0.13333333,0,740)" />
    <path
       id="path216"
       d="m 4.8745938,-10.6168 c 0,-0.398438 0,-0.421875 -0.3867188,-0.421875 -1.0195312,1.0546875 -2.484375,1.0546875 -3.0117187,1.0546875 v 0.515625 c 0.328125,0 1.3125,0 2.1679687,-0.4335938 v 8.5898438 c 0,0.59765625 -0.046875,0.796875 -1.5351562,0.796875 H 1.5699063 v 0.515625 c 0.5859375,-0.046875 2.0273437,-0.046875 2.6953125,-0.046875 0.65625,0 2.0976562,0 2.6835937,0.046875 v -0.515625 H 6.4214688 c -1.5,0 -1.546875,-0.17578125 -1.546875,-0.796875 z m 0,0 c 0,-0.398438 0,-0.421875 -0.3867188,-0.421875 -1.0195312,1.0546875 -2.484375,1.0546875 -3.0117187,1.0546875 v 0.515625 c 0.328125,0 1.3125,0 2.1679687,-0.4335938 v 8.5898438 c 0,0.59765625 -0.046875,0.796875 -1.5351562,0.796875 H 1.5699063 v 0.515625 c 0.5859375,-0.046875 2.0273437,-0.046875 2.6953125,-0.046875 0.65625,0 2.0976562,0 2.6835937,0.046875 v -0.515625 H 6.4214688 c -1.5,0 -1.546875,-0.17578125 -1.546875,-0.796875 z m 0,0"
       style="fill:#000000;fill-opacity:1;fill-rule:nonzero;stroke:none"
       aria-label="11"
       transform="matrix(1.3333333,0,0,1.3333333,373.57867,652.90573)" />
    <path
       id="path217"
       d="M 2897.43,894.668 2867.24,787.73"
       style="fill:none;stroke:#661919;stroke-width:13.875;stroke-linecap:butt;stroke-linejoin:miter;stroke-miterlimit:10;stroke-dasharray:none;stroke-opacity:1"
       transform="matrix(0.13333333,0,0,-0.13333333,0,740)" />
    <path
       id="path218"
       d="M 2897.43,894.668 2867.24,787.73"
       style="fill:none;stroke:#661919;stroke-width:13.875;stroke-linecap:butt;stroke-linejoin:miter;stroke-miterlimit:10;stroke-dasharray:none;stroke-opacity:1"
       transform="matrix(0.13333333,0,0,-0.13333333,0,740)" />
  </g>
</svg>
