<?xml version="1.0" encoding="UTF-8" standalone="no"?>
<!-- Created with Inkscape (http://www.inkscape.org/) -->

<svg
   version="1.1"
   id="svg1"
   width="740"
   height="740"
   viewBox="0 0 740 740"
   xmlns="http://www.w3.org/2000/svg"
   xmlns:svg="http://www.w3.org/2000/svg">
  <defs
     id="defs1" />
  <g
     id="g1">
    <path
       id="path1"
       d="M 0,0 H 5550 V 5550 H 0 Z"
       style="fill:#ffffff;fill-opacity:1;fill-rule:nonzero;stroke:none"
       transform="matrix(0.13333333,0,0,-0.13333333,0,740)" />
    <path
       id="path2"
       d="m 69.375,138.75 h 5411.25 V 5550 H 69.375 Z"
       style="fill:#ffffff;fill-opacity:1;fill-rule:nonzero;stroke:none"
       transform="matrix(0.13333333,0,0,-0.13333333,0,740)" />
    <path
       id="path3"
       d="m 1798.23,2917.22 59.51,24.11"
       style="fill:none;stroke:#ff00ff;stroke-width:13.875;stroke-linecap:butt;stroke-linejoin:miter;stroke-miterlimit:10;stroke-dasharray:none;stroke-opacity:1"
       transform="matrix(0.13333333,0,0,-0.13333333,0,740)" />
    <path
       id="path4"
       d="m 1798.23,2917.22 59.51,24.11 59.56,24.13"
       style="fill:none;stroke:#ff00ff;stroke-width:13.875;stroke-linecap:butt;stroke-linejoin:miter;stroke-miterlimit:10;stroke-dasharray:none;stroke-opacity:1"
       transform="matrix(0.13333333,0,0,-0.13333333,0,740)" />
    <path
       id="path5"
       d="m 1857.74,2941.33 59.56,24.13"
       style="fill:none;stroke:#ff00ff;stroke-width:13.875;stroke-linecap:butt;stroke-linejoin:miter;stroke-miterlimit:10;stroke-dasharray:none;stroke-opacity:1"
       transform="matrix(0.13333333,0,0,-0.13333333,0,740)" />
    <path
       id="path6"
       d="M 1847,2494.74 4767.8,1962.49"
       style="fill:none;stroke:#000000;stroke-width:13.875;stroke-linecap:butt;stroke-linejoin:miter;stroke-miterlimit:10;stroke-dasharray:none;stroke-opacity:1"
       transform="matrix(0.13333333,0,0,-0.13333333,0,740)" />
    <path
       id="path7"
       d="M 1847,2494.74 4767.8,1962.49"
       style="fill:none;stroke:#000000;stroke-width:13.875;stroke-linecap:butt;stroke-linejoin:miter;stroke-miterlimit:10;stroke-dasharray:none;stroke-opacity:1"
       transform="matrix(0.13333333,0,0,-0.13333333,0,740)" />
    <path
       id="path8"
       d="M 1847,2494.74 4767.8,1962.49"
       style="fill:none;stroke:#000000;stroke-width:13.875;stroke-linecap:butt;stroke-linejoin:miter;stroke-miterlimit:10;stroke-dasharray:none;stroke-opacity:1"
       transform="matrix(0.13333333,0,0,-0.13333333,0,740)" />
    <path
       id="path9"
       d="m 1917.3,2965.46 59.57,24.12"
       style="fill:none;stroke:#ff00ff;stroke-width:13.875;stroke-linecap:butt;stroke-linejoin:miter;stroke-miterlimit:10;stroke-dasharray:none;stroke-opacity:1"
       transform="matrix(0.13333333,0,0,-0.13333333,0,740)" />
    <path
       id="path10"
       d="m 1917.3,2965.46 59.57,24.12 59.51,24.11"
       style="fill:none;stroke:#ff00ff;stroke-width:13.875;stroke-linecap:butt;stroke-linejoin:miter;stroke-miterlimit:10;stroke-dasharray:none;stroke-opacity:1"
       transform="matrix(0.13333333,0,0,-0.13333333,0,740)" />
    <path
       id="path11"
       d="m 1976.87,2989.58 59.51,24.11 59.57,24.11"
       style="fill:none;stroke:#ff00ff;stroke-width:13.875;stroke-linecap:butt;stroke-linejoin:miter;stroke-miterlimit:10;stroke-dasharray:none;stroke-opacity:1"
       transform="matrix(0.13333333,0,0,-0.13333333,0,740)" />
    <path
       id="path12"
       d="m 2036.38,3013.69 59.57,24.11 59.56,24.19"
       style="fill:none;stroke:#ff00ff;stroke-width:13.875;stroke-linecap:butt;stroke-linejoin:miter;stroke-miterlimit:10;stroke-dasharray:none;stroke-opacity:1"
       transform="matrix(0.13333333,0,0,-0.13333333,0,740)" />
    <path
       id="path13"
       d="m 2095.95,3037.8 59.56,24.19 59.61,24.12"
       style="fill:none;stroke:#ff00ff;stroke-width:13.875;stroke-linecap:butt;stroke-linejoin:miter;stroke-miterlimit:10;stroke-dasharray:none;stroke-opacity:1"
       transform="matrix(0.13333333,0,0,-0.13333333,0,740)" />
    <path
       id="path14"
       d="m 2155.51,3061.99 59.61,24.12 59.56,24.17"
       style="fill:none;stroke:#ff00ff;stroke-width:13.875;stroke-linecap:butt;stroke-linejoin:miter;stroke-miterlimit:10;stroke-dasharray:none;stroke-opacity:1"
       transform="matrix(0.13333333,0,0,-0.13333333,0,740)" />
    <path
       id="path15"
       d="m 2215.12,3086.11 59.56,24.17 59.57,24.11"
       style="fill:none;stroke:#ff00ff;stroke-width:13.875;stroke-linecap:butt;stroke-linejoin:miter;stroke-miterlimit:10;stroke-dasharray:none;stroke-opacity:1"
       transform="matrix(0.13333333,0,0,-0.13333333,0,740)" />
    <path
       id="path16"
       d="m 2274.68,3110.28 59.57,24.11 59.62,24.18"
       style="fill:none;stroke:#ff00ff;stroke-width:13.875;stroke-linecap:butt;stroke-linejoin:miter;stroke-miterlimit:10;stroke-dasharray:none;stroke-opacity:1"
       transform="matrix(0.13333333,0,0,-0.13333333,0,740)" />
    <path
       id="path17"
       d="m 2334.25,3134.39 59.62,24.18"
       style="fill:none;stroke:#ff00ff;stroke-width:13.875;stroke-linecap:butt;stroke-linejoin:miter;stroke-miterlimit:10;stroke-dasharray:none;stroke-opacity:1"
       transform="matrix(0.13333333,0,0,-0.13333333,0,740)" />
    <path
       id="path18"
       d="m 1847,2494.74 -2.11,2694.73"
       style="fill:none;stroke:#000000;stroke-width:13.875;stroke-linecap:butt;stroke-linejoin:miter;stroke-miterlimit:10;stroke-dasharray:none;stroke-opacity:1"
       transform="matrix(0.13333333,0,0,-0.13333333,0,740)" />
    <path
       id="path19"
       d="m 1847,2494.74 -2.11,2694.73"
       style="fill:none;stroke:#000000;stroke-width:13.875;stroke-linecap:butt;stroke-linejoin:miter;stroke-miterlimit:10;stroke-dasharray:none;stroke-opacity:1"
       transform="matrix(0.13333333,0,0,-0.13333333,0,740)" />
    <path
       id="path20"
       d="m 1847,2494.74 -2.11,2694.73"
       style="fill:none;stroke:#000000;stroke-width:13.875;stroke-linecap:butt;stroke-linejoin:miter;stroke-miterlimit:10;stroke-dasharray:none;stroke-opacity:1"
       transform="matrix(0.13333333,0,0,-0.13333333,0,740)" />
    <path
       id="path21"
       d="m 2393.87,3158.57 59.62,24.12"
       style="fill:none;stroke:#ff00ff;stroke-width:13.875;stroke-linecap:butt;stroke-linejoin:miter;stroke-miterlimit:10;stroke-dasharray:none;stroke-opacity:1"
       transform="matrix(0.13333333,0,0,-0.13333333,0,740)" />
    <path
       id="path22"
       d="m 2393.87,3158.57 59.62,24.12 59.62,24.17"
       style="fill:none;stroke:#ff00ff;stroke-width:13.875;stroke-linecap:butt;stroke-linejoin:miter;stroke-miterlimit:10;stroke-dasharray:none;stroke-opacity:1"
       transform="matrix(0.13333333,0,0,-0.13333333,0,740)" />
    <path
       id="path23"
       d="m 2453.49,3182.69 59.62,24.17 59.62,24.11"
       style="fill:none;stroke:#ff00ff;stroke-width:13.875;stroke-linecap:butt;stroke-linejoin:miter;stroke-miterlimit:10;stroke-dasharray:none;stroke-opacity:1"
       transform="matrix(0.13333333,0,0,-0.13333333,0,740)" />
    <path
       id="path24"
       d="m 2513.11,3206.86 59.62,24.11 59.62,24.17"
       style="fill:none;stroke:#ff00ff;stroke-width:13.875;stroke-linecap:butt;stroke-linejoin:miter;stroke-miterlimit:10;stroke-dasharray:none;stroke-opacity:1"
       transform="matrix(0.13333333,0,0,-0.13333333,0,740)" />
    <path
       id="path25"
       d="m 2572.73,3230.97 59.62,24.17 59.62,24.19"
       style="fill:none;stroke:#ff00ff;stroke-width:13.875;stroke-linecap:butt;stroke-linejoin:miter;stroke-miterlimit:10;stroke-dasharray:none;stroke-opacity:1"
       transform="matrix(0.13333333,0,0,-0.13333333,0,740)" />
    <path
       id="path26"
       d="m 2632.35,3255.14 59.62,24.19"
       style="fill:none;stroke:#ff00ff;stroke-width:13.875;stroke-linecap:butt;stroke-linejoin:miter;stroke-miterlimit:10;stroke-dasharray:none;stroke-opacity:1"
       transform="matrix(0.13333333,0,0,-0.13333333,0,740)" />
    <g
       id="g26"
       aria-label="−1−1"
       transform="matrix(1.3333333,0,0,1.3333333,649.83333,498.84267)">
      <path
         id="path27"
         d="m 10.920898,-3.8077813 c 0.292969,0 0.585938,0 0.585938,-0.3398437 0,-0.328125 -0.292969,-0.328125 -0.585938,-0.328125 H 1.9560547 c -0.28125,0 -0.5859375,0 -0.5859375,0.328125 0,0.3398437 0.3046875,0.3398437 0.5859375,0.3398437 z m 0,0"
         style="fill:#000000;fill-opacity:1;fill-rule:nonzero;stroke:none" />
      <path
         id="path28"
         d="m 21.456055,-10.616375 c 0,-0.398438 0,-0.421875 -0.386719,-0.421875 -1.019531,1.0546875 -2.484375,1.0546875 -3.011719,1.0546875 v 0.515625 c 0.328125,0 1.3125,0 2.167969,-0.4335938 v 8.5898438 c 0,0.59765625 -0.04687,0.796875 -1.535156,0.796875 h -0.539063 v 0.515625 c 0.585938,-0.046875 2.027344,-0.046875 2.695313,-0.046875 0.65625,0 2.097656,0 2.683593,0.046875 v -0.515625 H 23.00293 c -1.5,0 -1.546875,-0.17578125 -1.546875,-0.796875 z m 0,0"
         style="fill:#000000;fill-opacity:1;fill-rule:nonzero;stroke:none" />
      <path
         id="path29"
         d="m 10.920898,-3.8077813 c 0.292969,0 0.585938,0 0.585938,-0.3398437 0,-0.328125 -0.292969,-0.328125 -0.585938,-0.328125 H 1.9560547 c -0.28125,0 -0.5859375,0 -0.5859375,0.328125 0,0.3398437 0.3046875,0.3398437 0.5859375,0.3398437 z m 0,0"
         style="fill:#000000;fill-opacity:1;fill-rule:nonzero;stroke:none" />
      <path
         id="path30"
         d="m 21.456055,-10.616375 c 0,-0.398438 0,-0.421875 -0.386719,-0.421875 -1.019531,1.0546875 -2.484375,1.0546875 -3.011719,1.0546875 v 0.515625 c 0.328125,0 1.3125,0 2.167969,-0.4335938 v 8.5898438 c 0,0.59765625 -0.04687,0.796875 -1.535156,0.796875 h -0.539063 v 0.515625 c 0.585938,-0.046875 2.027344,-0.046875 2.695313,-0.046875 0.65625,0 2.097656,0 2.683593,0.046875 v -0.515625 H 23.00293 c -1.5,0 -1.546875,-0.17578125 -1.546875,-0.796875 z m 0,0"
         style="fill:#000000;fill-opacity:1;fill-rule:nonzero;stroke:none" />
    </g>
    <path
       id="path31"
       d="m 2691.97,3279.33 59.62,24.17"
       style="fill:none;stroke:#ff00ff;stroke-width:13.875;stroke-linecap:butt;stroke-linejoin:miter;stroke-miterlimit:10;stroke-dasharray:none;stroke-opacity:1"
       transform="matrix(0.13333333,0,0,-0.13333333,0,740)" />
    <path
       id="path32"
       d="m 2691.97,3279.33 59.62,24.17 59.66,24.17"
       style="fill:none;stroke:#ff00ff;stroke-width:13.875;stroke-linecap:butt;stroke-linejoin:miter;stroke-miterlimit:10;stroke-dasharray:none;stroke-opacity:1"
       transform="matrix(0.13333333,0,0,-0.13333333,0,740)" />
    <path
       id="path33"
       d="m 2751.59,3303.5 59.66,24.17"
       style="fill:none;stroke:#ff00ff;stroke-width:13.875;stroke-linecap:butt;stroke-linejoin:miter;stroke-miterlimit:10;stroke-dasharray:none;stroke-opacity:1"
       transform="matrix(0.13333333,0,0,-0.13333333,0,740)" />
    <path
       id="path34"
       d="m 4719.89,1895.99 117,-21.3"
       style="fill:none;stroke:#000000;stroke-width:13.875;stroke-linecap:butt;stroke-linejoin:miter;stroke-miterlimit:10;stroke-dasharray:none;stroke-opacity:1"
       transform="matrix(0.13333333,0,0,-0.13333333,0,740)" />
    <path
       id="path35"
       d="m 4719.89,1895.99 117,-21.3"
       style="fill:none;stroke:#000000;stroke-width:13.875;stroke-linecap:butt;stroke-linejoin:miter;stroke-miterlimit:10;stroke-dasharray:none;stroke-opacity:1"
       transform="matrix(0.13333333,0,0,-0.13333333,0,740)" />
    <path
       id="path36"
       d="m 2811.25,3327.67 59.63,24.17"
       style="fill:none;stroke:#ff00ff;stroke-width:13.875;stroke-linecap:butt;stroke-linejoin:miter;stroke-miterlimit:10;stroke-dasharray:none;stroke-opacity:1"
       transform="matrix(0.13333333,0,0,-0.13333333,0,740)" />
    <path
       id="path37"
       d="m 2811.25,3327.67 59.63,24.17 59.67,24.17"
       style="fill:none;stroke:#ff00ff;stroke-width:13.875;stroke-linecap:butt;stroke-linejoin:miter;stroke-miterlimit:10;stroke-dasharray:none;stroke-opacity:1"
       transform="matrix(0.13333333,0,0,-0.13333333,0,740)" />
    <path
       id="path38"
       d="m 2870.88,3351.84 59.67,24.17 59.68,24.19"
       style="fill:none;stroke:#ff00ff;stroke-width:13.875;stroke-linecap:butt;stroke-linejoin:miter;stroke-miterlimit:10;stroke-dasharray:none;stroke-opacity:1"
       transform="matrix(0.13333333,0,0,-0.13333333,0,740)" />
    <path
       id="path39"
       d="m 2930.55,3376.01 59.68,24.19 59.68,24.16"
       style="fill:none;stroke:#ff00ff;stroke-width:13.875;stroke-linecap:butt;stroke-linejoin:miter;stroke-miterlimit:10;stroke-dasharray:none;stroke-opacity:1"
       transform="matrix(0.13333333,0,0,-0.13333333,0,740)" />
    <path
       id="path40"
       d="m 2990.23,3400.2 59.68,24.16 59.66,24.18"
       style="fill:none;stroke:#ff00ff;stroke-width:13.875;stroke-linecap:butt;stroke-linejoin:miter;stroke-miterlimit:10;stroke-dasharray:none;stroke-opacity:1"
       transform="matrix(0.13333333,0,0,-0.13333333,0,740)" />
    <path
       id="path41"
       d="m 3049.91,3424.36 59.66,24.18"
       style="fill:none;stroke:#ff00ff;stroke-width:13.875;stroke-linecap:butt;stroke-linejoin:miter;stroke-miterlimit:10;stroke-dasharray:none;stroke-opacity:1"
       transform="matrix(0.13333333,0,0,-0.13333333,0,740)" />
    <path
       id="path42"
       d="m 2891.31,3305.07 111.27,72.73"
       style="fill:none;stroke:#0000ff;stroke-width:13.875;stroke-linecap:butt;stroke-linejoin:miter;stroke-miterlimit:10;stroke-dasharray:none;stroke-opacity:1"
       transform="matrix(0.13333333,0,0,-0.13333333,0,740)" />
    <path
       id="path43"
       d="m 2891.31,3305.07 111.27,72.73"
       style="fill:none;stroke:#0000ff;stroke-width:13.875;stroke-linecap:butt;stroke-linejoin:miter;stroke-miterlimit:10;stroke-dasharray:none;stroke-opacity:1"
       transform="matrix(0.13333333,0,0,-0.13333333,0,740)" />
    <path
       id="path44"
       d="M 1847,2494.74 777.434,1028.92"
       style="fill:none;stroke:#000000;stroke-width:13.875;stroke-linecap:butt;stroke-linejoin:miter;stroke-miterlimit:10;stroke-dasharray:none;stroke-opacity:1"
       transform="matrix(0.13333333,0,0,-0.13333333,0,740)" />
    <path
       id="path45"
       d="M 1847,2494.74 777.434,1028.92"
       style="fill:none;stroke:#000000;stroke-width:13.875;stroke-linecap:butt;stroke-linejoin:miter;stroke-miterlimit:10;stroke-dasharray:none;stroke-opacity:1"
       transform="matrix(0.13333333,0,0,-0.13333333,0,740)" />
    <path
       id="path46"
       d="M 1847,2494.74 777.434,1028.92"
       style="fill:none;stroke:#000000;stroke-width:13.875;stroke-linecap:butt;stroke-linejoin:miter;stroke-miterlimit:10;stroke-dasharray:none;stroke-opacity:1"
       transform="matrix(0.13333333,0,0,-0.13333333,0,740)" />
    <path
       id="path47"
       d="m 2777.76,3221.05 113.55,84.02"
       style="fill:none;stroke:#0000ff;stroke-width:13.875;stroke-linecap:butt;stroke-linejoin:miter;stroke-miterlimit:10;stroke-dasharray:none;stroke-opacity:1"
       transform="matrix(0.13333333,0,0,-0.13333333,0,740)" />
    <path
       id="path48"
       d="m 2777.76,3221.05 113.55,84.02"
       style="fill:none;stroke:#0000ff;stroke-width:13.875;stroke-linecap:butt;stroke-linejoin:miter;stroke-miterlimit:10;stroke-dasharray:none;stroke-opacity:1"
       transform="matrix(0.13333333,0,0,-0.13333333,0,740)" />
    <path
       id="path49"
       d="m 3002.58,3377.8 107.1,61.19"
       style="fill:none;stroke:#0000ff;stroke-width:13.875;stroke-linecap:butt;stroke-linejoin:miter;stroke-miterlimit:10;stroke-dasharray:none;stroke-opacity:1"
       transform="matrix(0.13333333,0,0,-0.13333333,0,740)" />
    <path
       id="path50"
       d="m 3002.58,3377.8 107.1,61.19"
       style="fill:none;stroke:#0000ff;stroke-width:13.875;stroke-linecap:butt;stroke-linejoin:miter;stroke-miterlimit:10;stroke-dasharray:none;stroke-opacity:1"
       transform="matrix(0.13333333,0,0,-0.13333333,0,740)" />
    <path
       id="path51"
       d="m 3109.57,3448.54 59.68,24.16"
       style="fill:none;stroke:#ff00ff;stroke-width:13.875;stroke-linecap:butt;stroke-linejoin:miter;stroke-miterlimit:10;stroke-dasharray:none;stroke-opacity:1"
       transform="matrix(0.13333333,0,0,-0.13333333,0,740)" />
    <path
       id="path52"
       d="m 3109.57,3448.54 59.68,24.16"
       style="fill:none;stroke:#ff00ff;stroke-width:13.875;stroke-linecap:butt;stroke-linejoin:miter;stroke-miterlimit:10;stroke-dasharray:none;stroke-opacity:1"
       transform="matrix(0.13333333,0,0,-0.13333333,0,740)" />
    <path
       id="path53"
       d="m 2663.78,3126.26 113.98,94.79"
       style="fill:none;stroke:#0000ff;stroke-width:13.875;stroke-linecap:butt;stroke-linejoin:miter;stroke-miterlimit:10;stroke-dasharray:none;stroke-opacity:1"
       transform="matrix(0.13333333,0,0,-0.13333333,0,740)" />
    <path
       id="path54"
       d="m 2663.78,3126.26 113.98,94.79"
       style="fill:none;stroke:#0000ff;stroke-width:13.875;stroke-linecap:butt;stroke-linejoin:miter;stroke-miterlimit:10;stroke-dasharray:none;stroke-opacity:1"
       transform="matrix(0.13333333,0,0,-0.13333333,0,740)" />
    <path
       id="path55"
       d="m 3109.68,3438.99 101.25,49.6"
       style="fill:none;stroke:#0000ff;stroke-width:13.875;stroke-linecap:butt;stroke-linejoin:miter;stroke-miterlimit:10;stroke-dasharray:none;stroke-opacity:1"
       transform="matrix(0.13333333,0,0,-0.13333333,0,740)" />
    <path
       id="path56"
       d="m 3109.68,3438.99 101.25,49.6"
       style="fill:none;stroke:#0000ff;stroke-width:13.875;stroke-linecap:butt;stroke-linejoin:miter;stroke-miterlimit:10;stroke-dasharray:none;stroke-opacity:1"
       transform="matrix(0.13333333,0,0,-0.13333333,0,740)" />
    <path
       id="path57"
       d="m 3169.25,3472.7 59.73,24.18"
       style="fill:none;stroke:#ff00ff;stroke-width:13.875;stroke-linecap:butt;stroke-linejoin:miter;stroke-miterlimit:10;stroke-dasharray:none;stroke-opacity:1"
       transform="matrix(0.13333333,0,0,-0.13333333,0,740)" />
    <path
       id="path58"
       d="m 3169.25,3472.7 59.73,24.18"
       style="fill:none;stroke:#ff00ff;stroke-width:13.875;stroke-linecap:butt;stroke-linejoin:miter;stroke-miterlimit:10;stroke-dasharray:none;stroke-opacity:1"
       transform="matrix(0.13333333,0,0,-0.13333333,0,740)" />
    <path
       id="path59"
       d="m 2551.21,3021.34 112.57,104.92"
       style="fill:none;stroke:#0000ff;stroke-width:13.875;stroke-linecap:butt;stroke-linejoin:miter;stroke-miterlimit:10;stroke-dasharray:none;stroke-opacity:1"
       transform="matrix(0.13333333,0,0,-0.13333333,0,740)" />
    <path
       id="path60"
       d="m 2551.21,3021.34 112.57,104.92"
       style="fill:none;stroke:#0000ff;stroke-width:13.875;stroke-linecap:butt;stroke-linejoin:miter;stroke-miterlimit:10;stroke-dasharray:none;stroke-opacity:1"
       transform="matrix(0.13333333,0,0,-0.13333333,0,740)" />
    <path
       id="path61"
       d="m 3228.98,3496.88 59.67,24.22"
       style="fill:none;stroke:#ff00ff;stroke-width:13.875;stroke-linecap:butt;stroke-linejoin:miter;stroke-miterlimit:10;stroke-dasharray:none;stroke-opacity:1"
       transform="matrix(0.13333333,0,0,-0.13333333,0,740)" />
    <path
       id="path62"
       d="m 3228.98,3496.88 59.67,24.22"
       style="fill:none;stroke:#ff00ff;stroke-width:13.875;stroke-linecap:butt;stroke-linejoin:miter;stroke-miterlimit:10;stroke-dasharray:none;stroke-opacity:1"
       transform="matrix(0.13333333,0,0,-0.13333333,0,740)" />
    <path
       id="path63"
       d="m 3780.56,3739.91 -524.76,-212.62 -9.91,-8.35"
       style="fill:#ff0a0a;fill-opacity:1;fill-rule:nonzero;stroke:none"
       transform="matrix(0.13333333,0,0,-0.13333333,0,740)" />
    <path
       id="path64"
       d="m 3210.93,3488.59 93.71,37.99"
       style="fill:none;stroke:#0000ff;stroke-width:13.875;stroke-linecap:butt;stroke-linejoin:miter;stroke-miterlimit:10;stroke-dasharray:none;stroke-opacity:1"
       transform="matrix(0.13333333,0,0,-0.13333333,0,740)" />
    <path
       id="path65"
       d="m 3210.93,3488.59 93.71,37.99"
       style="fill:none;stroke:#0000ff;stroke-width:13.875;stroke-linecap:butt;stroke-linejoin:miter;stroke-miterlimit:10;stroke-dasharray:none;stroke-opacity:1"
       transform="matrix(0.13333333,0,0,-0.13333333,0,740)" />
    <path
       id="path66"
       d="m 3240.89,3506.8 529.75,224.75 -524.75,-212.61"
       style="fill:#ff3131;fill-opacity:1;fill-rule:nonzero;stroke:none"
       transform="matrix(0.13333333,0,0,-0.13333333,0,740)" />
    <path
       id="path67"
       d="m 3242.74,3495.53 522.91,223.88 -524.76,-212.61"
       style="fill:#ff7373;fill-opacity:1;fill-rule:nonzero;stroke:none"
       transform="matrix(0.13333333,0,0,-0.13333333,0,740)" />
    <path
       id="path68"
       d="m 3261.82,3490.7 513.69,211.28 -524.75,-212.64"
       style="fill:#800000;fill-opacity:1;fill-rule:nonzero;stroke:none"
       transform="matrix(0.13333333,0,0,-0.13333333,0,740)" />
    <path
       id="path69"
       d="m 3288.65,3521.1 59.72,24.19"
       style="fill:none;stroke:#ff00ff;stroke-width:13.875;stroke-linecap:butt;stroke-linejoin:miter;stroke-miterlimit:10;stroke-dasharray:none;stroke-opacity:1"
       transform="matrix(0.13333333,0,0,-0.13333333,0,740)" />
    <path
       id="path70"
       d="m 3288.65,3521.1 59.72,24.19"
       style="fill:none;stroke:#ff00ff;stroke-width:13.875;stroke-linecap:butt;stroke-linejoin:miter;stroke-miterlimit:10;stroke-dasharray:none;stroke-opacity:1"
       transform="matrix(0.13333333,0,0,-0.13333333,0,740)" />
    <path
       id="path71"
       d="m 3767.49,3708.15 -524.75,-212.62 8.02,-6.19"
       style="fill:#800000;fill-opacity:1;fill-rule:nonzero;stroke:none"
       transform="matrix(0.13333333,0,0,-0.13333333,0,740)" />
    <path
       id="path72"
       d="m 2441.89,2907.09 109.32,114.25"
       style="fill:none;stroke:#0000ff;stroke-width:13.875;stroke-linecap:butt;stroke-linejoin:miter;stroke-miterlimit:10;stroke-dasharray:none;stroke-opacity:1"
       transform="matrix(0.13333333,0,0,-0.13333333,0,740)" />
    <path
       id="path73"
       d="m 2441.89,2907.09 109.32,114.25"
       style="fill:none;stroke:#0000ff;stroke-width:13.875;stroke-linecap:butt;stroke-linejoin:miter;stroke-miterlimit:10;stroke-dasharray:none;stroke-opacity:1"
       transform="matrix(0.13333333,0,0,-0.13333333,0,740)" />
    <path
       id="path74"
       d="m 3304.64,3526.58 84.65,26.72"
       style="fill:none;stroke:#0000ff;stroke-width:13.875;stroke-linecap:butt;stroke-linejoin:miter;stroke-miterlimit:10;stroke-dasharray:none;stroke-opacity:1"
       transform="matrix(0.13333333,0,0,-0.13333333,0,740)" />
    <path
       id="path75"
       d="m 3304.64,3526.58 84.65,26.72"
       style="fill:none;stroke:#0000ff;stroke-width:13.875;stroke-linecap:butt;stroke-linejoin:miter;stroke-miterlimit:10;stroke-dasharray:none;stroke-opacity:1"
       transform="matrix(0.13333333,0,0,-0.13333333,0,740)" />
    <path
       id="path76"
       d="m 3348.37,3545.29 59.73,24.22"
       style="fill:none;stroke:#ff00ff;stroke-width:13.875;stroke-linecap:butt;stroke-linejoin:miter;stroke-miterlimit:10;stroke-dasharray:none;stroke-opacity:1"
       transform="matrix(0.13333333,0,0,-0.13333333,0,740)" />
    <path
       id="path77"
       d="m 3348.37,3545.29 59.73,24.22"
       style="fill:none;stroke:#ff00ff;stroke-width:13.875;stroke-linecap:butt;stroke-linejoin:miter;stroke-miterlimit:10;stroke-dasharray:none;stroke-opacity:1"
       transform="matrix(0.13333333,0,0,-0.13333333,0,740)" />
    <path
       id="path78"
       d="m 3274.88,3522.52 516.74,218.75 7.97,-6.19"
       style="fill:#800000;fill-opacity:1;fill-rule:nonzero;stroke:none"
       transform="matrix(0.13333333,0,0,-0.13333333,0,740)" />
    <path
       id="path79"
       d="m 3274.88,3522.52 524.71,212.56 1.84,-11.27"
       style="fill:#ff7373;fill-opacity:1;fill-rule:nonzero;stroke:none"
       transform="matrix(0.13333333,0,0,-0.13333333,0,740)" />
    <path
       id="path80"
       d="m 3255.8,3527.29 524.76,212.62 11.06,1.36"
       style="fill:#800000;fill-opacity:1;fill-rule:nonzero;stroke:none"
       transform="matrix(0.13333333,0,0,-0.13333333,0,740)" />
    <path
       id="path81"
       d="m 3276.72,3511.2 524.71,212.61 -4.94,-12.14"
       style="fill:#ff3131;fill-opacity:1;fill-rule:nonzero;stroke:none"
       transform="matrix(0.13333333,0,0,-0.13333333,0,740)" />
    <path
       id="path82"
       d="m 3408.1,3569.51 59.68,24.17"
       style="fill:none;stroke:#ff00ff;stroke-width:13.875;stroke-linecap:butt;stroke-linejoin:miter;stroke-miterlimit:10;stroke-dasharray:none;stroke-opacity:1"
       transform="matrix(0.13333333,0,0,-0.13333333,0,740)" />
    <path
       id="path83"
       d="m 3408.1,3569.51 59.68,24.17"
       style="fill:none;stroke:#ff00ff;stroke-width:13.875;stroke-linecap:butt;stroke-linejoin:miter;stroke-miterlimit:10;stroke-dasharray:none;stroke-opacity:1"
       transform="matrix(0.13333333,0,0,-0.13333333,0,740)" />
    <path
       id="path84"
       d="m 3780.56,3739.91 -534.67,-220.97 524.75,212.61"
       style="fill:#ff0a0a;fill-opacity:1;fill-rule:nonzero;stroke:none"
       transform="matrix(0.13333333,0,0,-0.13333333,0,740)" />
    <path
       id="path85"
       d="m 2337.62,2784.43 104.27,122.66"
       style="fill:none;stroke:#0000ff;stroke-width:13.875;stroke-linecap:butt;stroke-linejoin:miter;stroke-miterlimit:10;stroke-dasharray:none;stroke-opacity:1"
       transform="matrix(0.13333333,0,0,-0.13333333,0,740)" />
    <path
       id="path86"
       d="m 2337.62,2784.43 104.27,122.66"
       style="fill:none;stroke:#0000ff;stroke-width:13.875;stroke-linecap:butt;stroke-linejoin:miter;stroke-miterlimit:10;stroke-dasharray:none;stroke-opacity:1"
       transform="matrix(0.13333333,0,0,-0.13333333,0,740)" />
    <path
       id="path87"
       d="m 3271.74,3499.05 524.75,212.62 -9.92,-8.35"
       style="fill:#ff0a0a;fill-opacity:1;fill-rule:nonzero;stroke:none"
       transform="matrix(0.13333333,0,0,-0.13333333,0,740)" />
    <path
       id="path88"
       d="m 3240.89,3506.8 524.76,212.61 4.99,12.14"
       style="fill:#ff3131;fill-opacity:1;fill-rule:nonzero;stroke:none"
       transform="matrix(0.13333333,0,0,-0.13333333,0,740)" />
    <path
       id="path89"
       d="m 3261.82,3490.7 524.75,212.62 -11.06,-1.34"
       style="fill:#800000;fill-opacity:1;fill-rule:nonzero;stroke:none"
       transform="matrix(0.13333333,0,0,-0.13333333,0,740)" />
    <path
       id="path90"
       d="m 3242.74,3495.53 524.75,212.62 -1.84,11.26"
       style="fill:#ff7373;fill-opacity:1;fill-rule:nonzero;stroke:none"
       transform="matrix(0.13333333,0,0,-0.13333333,0,740)" />
    <path
       id="path91"
       d="m 3467.78,3593.68 59.72,24.17"
       style="fill:none;stroke:#ff00ff;stroke-width:13.875;stroke-linecap:butt;stroke-linejoin:miter;stroke-miterlimit:10;stroke-dasharray:none;stroke-opacity:1"
       transform="matrix(0.13333333,0,0,-0.13333333,0,740)" />
    <path
       id="path92"
       d="m 3467.78,3593.68 59.72,24.17"
       style="fill:none;stroke:#ff00ff;stroke-width:13.875;stroke-linecap:butt;stroke-linejoin:miter;stroke-miterlimit:10;stroke-dasharray:none;stroke-opacity:1"
       transform="matrix(0.13333333,0,0,-0.13333333,0,740)" />
    <path
       id="path93"
       d="m 3767.49,3708.15 -516.73,-218.81 524.75,212.64"
       style="fill:#800000;fill-opacity:1;fill-rule:nonzero;stroke:none"
       transform="matrix(0.13333333,0,0,-0.13333333,0,740)" />
    <path
       id="path94"
       d="m 3389.29,3553.3 74.2,15.93"
       style="fill:none;stroke:#0000ff;stroke-width:13.875;stroke-linecap:butt;stroke-linejoin:miter;stroke-miterlimit:10;stroke-dasharray:none;stroke-opacity:1"
       transform="matrix(0.13333333,0,0,-0.13333333,0,740)" />
    <path
       id="path95"
       d="m 3389.29,3553.3 74.2,15.93"
       style="fill:none;stroke:#0000ff;stroke-width:13.875;stroke-linecap:butt;stroke-linejoin:miter;stroke-miterlimit:10;stroke-dasharray:none;stroke-opacity:1"
       transform="matrix(0.13333333,0,0,-0.13333333,0,740)" />
    <path
       id="path96"
       d="m 3527.5,3617.85 59.79,24.23"
       style="fill:none;stroke:#ff00ff;stroke-width:13.875;stroke-linecap:butt;stroke-linejoin:miter;stroke-miterlimit:10;stroke-dasharray:none;stroke-opacity:1"
       transform="matrix(0.13333333,0,0,-0.13333333,0,740)" />
    <path
       id="path97"
       d="m 3527.5,3617.85 59.79,24.23"
       style="fill:none;stroke:#ff00ff;stroke-width:13.875;stroke-linecap:butt;stroke-linejoin:miter;stroke-miterlimit:10;stroke-dasharray:none;stroke-opacity:1"
       transform="matrix(0.13333333,0,0,-0.13333333,0,740)" />
    <path
       id="path98"
       d="m 2240.05,2654.51 97.57,129.92"
       style="fill:none;stroke:#0000ff;stroke-width:13.875;stroke-linecap:butt;stroke-linejoin:miter;stroke-miterlimit:10;stroke-dasharray:none;stroke-opacity:1"
       transform="matrix(0.13333333,0,0,-0.13333333,0,740)" />
    <path
       id="path99"
       d="m 2240.05,2654.51 97.57,129.92"
       style="fill:none;stroke:#0000ff;stroke-width:13.875;stroke-linecap:butt;stroke-linejoin:miter;stroke-miterlimit:10;stroke-dasharray:none;stroke-opacity:1"
       transform="matrix(0.13333333,0,0,-0.13333333,0,740)" />
    <path
       id="path100"
       d="m 3771.5,3794.7 219.13,10.84 -174.9,-5.41"
       style="fill:#ff0000;fill-opacity:1;fill-rule:nonzero;stroke:none"
       transform="matrix(0.13333333,0,0,-0.13333333,0,740)" />
    <path
       id="path101"
       d="m 3587.29,3642.08 59.73,24.22"
       style="fill:none;stroke:#ff00ff;stroke-width:13.875;stroke-linecap:butt;stroke-linejoin:miter;stroke-miterlimit:10;stroke-dasharray:none;stroke-opacity:1"
       transform="matrix(0.13333333,0,0,-0.13333333,0,740)" />
    <path
       id="path102"
       d="m 3587.29,3642.08 59.73,24.22"
       style="fill:none;stroke:#ff00ff;stroke-width:13.875;stroke-linecap:butt;stroke-linejoin:miter;stroke-miterlimit:10;stroke-dasharray:none;stroke-opacity:1"
       transform="matrix(0.13333333,0,0,-0.13333333,0,740)" />
    <path
       id="path103"
       d="m 3731.83,3761.38 258.8,44.16 -219.13,-10.84"
       style="fill:#ff0d0d;fill-opacity:1;fill-rule:nonzero;stroke:none"
       transform="matrix(0.13333333,0,0,-0.13333333,0,740)" />
    <path
       id="path104"
       d="m 3463.49,3569.23 62.55,5.8"
       style="fill:none;stroke:#0000ff;stroke-width:13.875;stroke-linecap:butt;stroke-linejoin:miter;stroke-miterlimit:10;stroke-dasharray:none;stroke-opacity:1"
       transform="matrix(0.13333333,0,0,-0.13333333,0,740)" />
    <path
       id="path105"
       d="m 3463.49,3569.23 62.55,5.8"
       style="fill:none;stroke:#0000ff;stroke-width:13.875;stroke-linecap:butt;stroke-linejoin:miter;stroke-miterlimit:10;stroke-dasharray:none;stroke-opacity:1"
       transform="matrix(0.13333333,0,0,-0.13333333,0,740)" />
    <path
       id="path106"
       d="m 3647.02,3666.3 59.71,24.17"
       style="fill:none;stroke:#ff00ff;stroke-width:13.875;stroke-linecap:butt;stroke-linejoin:miter;stroke-miterlimit:10;stroke-dasharray:none;stroke-opacity:1"
       transform="matrix(0.13333333,0,0,-0.13333333,0,740)" />
    <path
       id="path107"
       d="m 3647.02,3666.3 59.71,24.17"
       style="fill:none;stroke:#ff00ff;stroke-width:13.875;stroke-linecap:butt;stroke-linejoin:miter;stroke-miterlimit:10;stroke-dasharray:none;stroke-opacity:1"
       transform="matrix(0.13333333,0,0,-0.13333333,0,740)" />
    <path
       id="path108"
       d="m 3711.94,3712.81 278.69,92.73 -258.8,-44.16"
       style="fill:#ff3232;fill-opacity:1;fill-rule:nonzero;stroke:none"
       transform="matrix(0.13333333,0,0,-0.13333333,0,740)" />
    <path
       id="path109"
       d="m 3706.73,3690.47 59.79,24.24"
       style="fill:none;stroke:#ff00ff;stroke-width:13.875;stroke-linecap:butt;stroke-linejoin:miter;stroke-miterlimit:10;stroke-dasharray:none;stroke-opacity:1"
       transform="matrix(0.13333333,0,0,-0.13333333,0,740)" />
    <path
       id="path110"
       d="m 3706.73,3690.47 59.79,24.24"
       style="fill:none;stroke:#ff00ff;stroke-width:13.875;stroke-linecap:butt;stroke-linejoin:miter;stroke-miterlimit:10;stroke-dasharray:none;stroke-opacity:1"
       transform="matrix(0.13333333,0,0,-0.13333333,0,740)" />
    <path
       id="path111"
       d="m 2150.85,2518.54 89.2,135.97"
       style="fill:none;stroke:#0000ff;stroke-width:13.875;stroke-linecap:butt;stroke-linejoin:miter;stroke-miterlimit:10;stroke-dasharray:none;stroke-opacity:1"
       transform="matrix(0.13333333,0,0,-0.13333333,0,740)" />
    <path
       id="path112"
       d="m 2150.85,2518.54 89.2,135.97"
       style="fill:none;stroke:#0000ff;stroke-width:13.875;stroke-linecap:butt;stroke-linejoin:miter;stroke-miterlimit:10;stroke-dasharray:none;stroke-opacity:1"
       transform="matrix(0.13333333,0,0,-0.13333333,0,740)" />
    <path
       id="path113"
       d="m 4767.8,1962.49 4.6,2697.18"
       style="fill:none;stroke:#000000;stroke-width:13.875;stroke-linecap:butt;stroke-linejoin:miter;stroke-miterlimit:10;stroke-dasharray:none;stroke-opacity:1"
       transform="matrix(0.13333333,0,0,-0.13333333,0,740)" />
    <path
       id="path114"
       d="m 4767.8,1962.49 4.6,2697.18"
       style="fill:none;stroke:#000000;stroke-width:13.875;stroke-linecap:butt;stroke-linejoin:miter;stroke-miterlimit:10;stroke-dasharray:none;stroke-opacity:1"
       transform="matrix(0.13333333,0,0,-0.13333333,0,740)" />
    <path
       id="path115"
       d="m 3795.63,3648.47 195,157.07 -239.29,-162.48"
       style="fill:#800000;fill-opacity:1;fill-rule:nonzero;stroke:none"
       transform="matrix(0.13333333,0,0,-0.13333333,0,740)" />
    <path
       id="path116"
       d="m 3719.41,3667.66 271.22,137.88 -278.69,-92.73"
       style="fill:#ff6c6c;fill-opacity:1;fill-rule:nonzero;stroke:none"
       transform="matrix(0.13333333,0,0,-0.13333333,0,740)" />
    <path
       id="path117"
       d="m 3766.52,3714.71 59.73,24.23"
       style="fill:none;stroke:#ff00ff;stroke-width:13.875;stroke-linecap:butt;stroke-linejoin:miter;stroke-miterlimit:10;stroke-dasharray:none;stroke-opacity:1"
       transform="matrix(0.13333333,0,0,-0.13333333,0,740)" />
    <path
       id="path118"
       d="m 3766.52,3714.71 59.73,24.23"
       style="fill:none;stroke:#ff00ff;stroke-width:13.875;stroke-linecap:butt;stroke-linejoin:miter;stroke-miterlimit:10;stroke-dasharray:none;stroke-opacity:1"
       transform="matrix(0.13333333,0,0,-0.13333333,0,740)" />
    <path
       id="path119"
       d="m 3751.34,3643.06 239.29,162.48 -271.22,-137.88"
       style="fill:#800000;fill-opacity:1;fill-rule:nonzero;stroke:none"
       transform="matrix(0.13333333,0,0,-0.13333333,0,740)" />
    <path
       id="path120"
       d="m 3826.25,3738.94 59.78,24.22"
       style="fill:none;stroke:#ff00ff;stroke-width:13.875;stroke-linecap:butt;stroke-linejoin:miter;stroke-miterlimit:10;stroke-dasharray:none;stroke-opacity:1"
       transform="matrix(0.13333333,0,0,-0.13333333,0,740)" />
    <path
       id="path121"
       d="m 3826.25,3738.94 59.78,24.22"
       style="fill:none;stroke:#ff00ff;stroke-width:13.875;stroke-linecap:butt;stroke-linejoin:miter;stroke-miterlimit:10;stroke-dasharray:none;stroke-opacity:1"
       transform="matrix(0.13333333,0,0,-0.13333333,0,740)" />
    <path
       id="path122"
       d="m 3526.04,3575.03 49.87,-3.63"
       style="fill:none;stroke:#0000ff;stroke-width:13.875;stroke-linecap:butt;stroke-linejoin:miter;stroke-miterlimit:10;stroke-dasharray:none;stroke-opacity:1"
       transform="matrix(0.13333333,0,0,-0.13333333,0,740)" />
    <path
       id="path123"
       d="m 3526.04,3575.03 49.87,-3.63"
       style="fill:none;stroke:#0000ff;stroke-width:13.875;stroke-linecap:butt;stroke-linejoin:miter;stroke-miterlimit:10;stroke-dasharray:none;stroke-opacity:1"
       transform="matrix(0.13333333,0,0,-0.13333333,0,740)" />
    <path
       id="path124"
       d="m 3886.03,3763.16 59.78,24.23"
       style="fill:none;stroke:#ff00ff;stroke-width:13.875;stroke-linecap:butt;stroke-linejoin:miter;stroke-miterlimit:10;stroke-dasharray:none;stroke-opacity:1"
       transform="matrix(0.13333333,0,0,-0.13333333,0,740)" />
    <path
       id="path125"
       d="m 3886.03,3763.16 59.78,24.23"
       style="fill:none;stroke:#ff00ff;stroke-width:13.875;stroke-linecap:butt;stroke-linejoin:miter;stroke-miterlimit:10;stroke-dasharray:none;stroke-opacity:1"
       transform="matrix(0.13333333,0,0,-0.13333333,0,740)" />
    <path
       id="path126"
       d="m 2071.5,2377.83 79.35,140.71"
       style="fill:none;stroke:#0000ff;stroke-width:13.875;stroke-linecap:butt;stroke-linejoin:miter;stroke-miterlimit:10;stroke-dasharray:none;stroke-opacity:1"
       transform="matrix(0.13333333,0,0,-0.13333333,0,740)" />
    <path
       id="path127"
       d="m 2071.5,2377.83 79.35,140.71"
       style="fill:none;stroke:#0000ff;stroke-width:13.875;stroke-linecap:butt;stroke-linejoin:miter;stroke-miterlimit:10;stroke-dasharray:none;stroke-opacity:1"
       transform="matrix(0.13333333,0,0,-0.13333333,0,740)" />
    <path
       id="path128"
       d="m 3945.81,3787.39 59.78,24.17"
       style="fill:none;stroke:#ff00ff;stroke-width:13.875;stroke-linecap:butt;stroke-linejoin:miter;stroke-miterlimit:10;stroke-dasharray:none;stroke-opacity:1"
       transform="matrix(0.13333333,0,0,-0.13333333,0,740)" />
    <path
       id="path129"
       d="m 3945.81,3787.39 59.78,24.17 59.79,24.23"
       style="fill:none;stroke:#ff00ff;stroke-width:13.875;stroke-linecap:butt;stroke-linejoin:miter;stroke-miterlimit:10;stroke-dasharray:none;stroke-opacity:1"
       transform="matrix(0.13333333,0,0,-0.13333333,0,740)" />
    <path
       id="path130"
       d="m 4005.59,3811.56 59.79,24.23"
       style="fill:none;stroke:#ff00ff;stroke-width:13.875;stroke-linecap:butt;stroke-linejoin:miter;stroke-miterlimit:10;stroke-dasharray:none;stroke-opacity:1"
       transform="matrix(0.13333333,0,0,-0.13333333,0,740)" />
    <path
       id="path131"
       d="m 3575.91,3571.4 36.31,-11.98"
       style="fill:none;stroke:#0000ff;stroke-width:13.875;stroke-linecap:butt;stroke-linejoin:miter;stroke-miterlimit:10;stroke-dasharray:none;stroke-opacity:1"
       transform="matrix(0.13333333,0,0,-0.13333333,0,740)" />
    <path
       id="path132"
       d="m 3575.91,3571.4 36.31,-11.98"
       style="fill:none;stroke:#0000ff;stroke-width:13.875;stroke-linecap:butt;stroke-linejoin:miter;stroke-miterlimit:10;stroke-dasharray:none;stroke-opacity:1"
       transform="matrix(0.13333333,0,0,-0.13333333,0,740)" />
    <path
       id="path133"
       d="m 4065.38,3835.79 59.84,24.22"
       style="fill:none;stroke:#ff00ff;stroke-width:13.875;stroke-linecap:butt;stroke-linejoin:miter;stroke-miterlimit:10;stroke-dasharray:none;stroke-opacity:1"
       transform="matrix(0.13333333,0,0,-0.13333333,0,740)" />
    <path
       id="path134"
       d="m 4065.38,3835.79 59.84,24.22"
       style="fill:none;stroke:#ff00ff;stroke-width:13.875;stroke-linecap:butt;stroke-linejoin:miter;stroke-miterlimit:10;stroke-dasharray:none;stroke-opacity:1"
       transform="matrix(0.13333333,0,0,-0.13333333,0,740)" />
    <path
       id="path135"
       d="m 2003.26,2233.82 68.24,144.01"
       style="fill:none;stroke:#0000ff;stroke-width:13.875;stroke-linecap:butt;stroke-linejoin:miter;stroke-miterlimit:10;stroke-dasharray:none;stroke-opacity:1"
       transform="matrix(0.13333333,0,0,-0.13333333,0,740)" />
    <path
       id="path136"
       d="m 2003.26,2233.82 68.24,144.01"
       style="fill:none;stroke:#0000ff;stroke-width:13.875;stroke-linecap:butt;stroke-linejoin:miter;stroke-miterlimit:10;stroke-dasharray:none;stroke-opacity:1"
       transform="matrix(0.13333333,0,0,-0.13333333,0,740)" />
    <path
       id="path137"
       d="m 4125.22,3860.01 59.77,24.28"
       style="fill:none;stroke:#ff00ff;stroke-width:13.875;stroke-linecap:butt;stroke-linejoin:miter;stroke-miterlimit:10;stroke-dasharray:none;stroke-opacity:1"
       transform="matrix(0.13333333,0,0,-0.13333333,0,740)" />
    <path
       id="path138"
       d="m 4125.22,3860.01 59.77,24.28 59.85,24.23"
       style="fill:none;stroke:#ff00ff;stroke-width:13.875;stroke-linecap:butt;stroke-linejoin:miter;stroke-miterlimit:10;stroke-dasharray:none;stroke-opacity:1"
       transform="matrix(0.13333333,0,0,-0.13333333,0,740)" />
    <path
       id="path139"
       d="m 4184.99,3884.29 59.85,24.23"
       style="fill:none;stroke:#ff00ff;stroke-width:13.875;stroke-linecap:butt;stroke-linejoin:miter;stroke-miterlimit:10;stroke-dasharray:none;stroke-opacity:1"
       transform="matrix(0.13333333,0,0,-0.13333333,0,740)" />
    <path
       id="path140"
       d="M 1844.89,5189.47 4772.4,4659.67"
       style="fill:none;stroke:#000000;stroke-width:13.875;stroke-linecap:butt;stroke-linejoin:miter;stroke-miterlimit:10;stroke-dasharray:none;stroke-opacity:1"
       transform="matrix(0.13333333,0,0,-0.13333333,0,740)" />
    <path
       id="path141"
       d="M 1844.89,5189.47 4772.4,4659.67"
       style="fill:none;stroke:#000000;stroke-width:13.875;stroke-linecap:butt;stroke-linejoin:miter;stroke-miterlimit:10;stroke-dasharray:none;stroke-opacity:1"
       transform="matrix(0.13333333,0,0,-0.13333333,0,740)" />
    <path
       id="path142"
       d="m 4244.84,3908.52 59.77,24.22"
       style="fill:none;stroke:#ff00ff;stroke-width:13.875;stroke-linecap:butt;stroke-linejoin:miter;stroke-miterlimit:10;stroke-dasharray:none;stroke-opacity:1"
       transform="matrix(0.13333333,0,0,-0.13333333,0,740)" />
    <path
       id="path143"
       d="m 4244.84,3908.52 59.77,24.22"
       style="fill:none;stroke:#ff00ff;stroke-width:13.875;stroke-linecap:butt;stroke-linejoin:miter;stroke-miterlimit:10;stroke-dasharray:none;stroke-opacity:1"
       transform="matrix(0.13333333,0,0,-0.13333333,0,740)" />
    <path
       id="path144"
       d="m 1947.27,2087.87 55.99,145.95"
       style="fill:none;stroke:#0000ff;stroke-width:13.875;stroke-linecap:butt;stroke-linejoin:miter;stroke-miterlimit:10;stroke-dasharray:none;stroke-opacity:1"
       transform="matrix(0.13333333,0,0,-0.13333333,0,740)" />
    <path
       id="path145"
       d="m 1947.27,2087.87 55.99,145.95"
       style="fill:none;stroke:#0000ff;stroke-width:13.875;stroke-linecap:butt;stroke-linejoin:miter;stroke-miterlimit:10;stroke-dasharray:none;stroke-opacity:1"
       transform="matrix(0.13333333,0,0,-0.13333333,0,740)" />
    <path
       id="path146"
       d="m 3612.22,3559.42 22.27,-19.28"
       style="fill:none;stroke:#0000ff;stroke-width:13.875;stroke-linecap:butt;stroke-linejoin:miter;stroke-miterlimit:10;stroke-dasharray:none;stroke-opacity:1"
       transform="matrix(0.13333333,0,0,-0.13333333,0,740)" />
    <path
       id="path147"
       d="m 3612.22,3559.42 22.27,-19.28"
       style="fill:none;stroke:#0000ff;stroke-width:13.875;stroke-linecap:butt;stroke-linejoin:miter;stroke-miterlimit:10;stroke-dasharray:none;stroke-opacity:1"
       transform="matrix(0.13333333,0,0,-0.13333333,0,740)" />
    <path
       id="path148"
       d="m 4304.61,3932.74 59.84,24.24"
       style="fill:none;stroke:#ff00ff;stroke-width:13.875;stroke-linecap:butt;stroke-linejoin:miter;stroke-miterlimit:10;stroke-dasharray:none;stroke-opacity:1"
       transform="matrix(0.13333333,0,0,-0.13333333,0,740)" />
    <path
       id="path149"
       d="m 4304.61,3932.74 59.84,24.24 59.83,24.23"
       style="fill:none;stroke:#ff00ff;stroke-width:13.875;stroke-linecap:butt;stroke-linejoin:miter;stroke-miterlimit:10;stroke-dasharray:none;stroke-opacity:1"
       transform="matrix(0.13333333,0,0,-0.13333333,0,740)" />
    <path
       id="path150"
       d="m 4364.45,3956.98 59.83,24.23 59.84,24.28"
       style="fill:none;stroke:#ff00ff;stroke-width:13.875;stroke-linecap:butt;stroke-linejoin:miter;stroke-miterlimit:10;stroke-dasharray:none;stroke-opacity:1"
       transform="matrix(0.13333333,0,0,-0.13333333,0,740)" />
    <path
       id="path151"
       d="m 4424.28,3981.21 59.84,24.28"
       style="fill:none;stroke:#ff00ff;stroke-width:13.875;stroke-linecap:butt;stroke-linejoin:miter;stroke-miterlimit:10;stroke-dasharray:none;stroke-opacity:1"
       transform="matrix(0.13333333,0,0,-0.13333333,0,740)" />
    <path
       id="path152"
       d="m 1904.4,1941.59 42.87,146.28"
       style="fill:none;stroke:#0000ff;stroke-width:13.875;stroke-linecap:butt;stroke-linejoin:miter;stroke-miterlimit:10;stroke-dasharray:none;stroke-opacity:1"
       transform="matrix(0.13333333,0,0,-0.13333333,0,740)" />
    <path
       id="path153"
       d="m 1904.4,1941.59 42.87,146.28"
       style="fill:none;stroke:#0000ff;stroke-width:13.875;stroke-linecap:butt;stroke-linejoin:miter;stroke-miterlimit:10;stroke-dasharray:none;stroke-opacity:1"
       transform="matrix(0.13333333,0,0,-0.13333333,0,740)" />
    <path
       id="path154"
       d="m 4484.12,4005.49 59.83,24.22"
       style="fill:none;stroke:#ff00ff;stroke-width:13.875;stroke-linecap:butt;stroke-linejoin:miter;stroke-miterlimit:10;stroke-dasharray:none;stroke-opacity:1"
       transform="matrix(0.13333333,0,0,-0.13333333,0,740)" />
    <path
       id="path155"
       d="m 4484.12,4005.49 59.83,24.22"
       style="fill:none;stroke:#ff00ff;stroke-width:13.875;stroke-linecap:butt;stroke-linejoin:miter;stroke-miterlimit:10;stroke-dasharray:none;stroke-opacity:1"
       transform="matrix(0.13333333,0,0,-0.13333333,0,740)" />
    <path
       id="path156"
       d="m 7.6282891,-5.30875 c 0,-1.3242188 -0.082031,-2.6484375 -0.6679688,-3.8789063 -0.7617187,-1.5937497 -2.1210937,-1.8515627 -2.8125,-1.8515627 -0.9960937,0 -2.203125,0.421875 -2.8828125,1.9687502 -0.53906249,1.1484375 -0.62109374,2.4375 -0.62109374,3.7617188 0,1.2421875 0.0703125,2.7421875 0.75000004,3.9960937 C 2.1087578,0.035 3.3157891,0.363125 4.1243828,0.363125 c 0.9023438,0 2.15625,-0.3515625 2.8945313,-1.921875 0.5273437,-1.1484375 0.609375,-2.4375 0.609375,-3.75 z M 4.1243828,-1.5625e-4 c -0.6445312,0 -1.6171875,-0.41015625 -1.921875,-2.00390625 -0.1757812,-0.9960938 -0.1757812,-2.5195313 -0.1757812,-3.5039063 0,-1.0546875 0,-2.15625 0.1289062,-3.046875 0.3164063,-1.9804692 1.5585938,-2.1210942 1.96875,-2.1210942 0.5507813,0 1.640625,0.292969 1.9570313,1.9335942 0.1640625,0.9375 0.1640625,2.1914063 0.1640625,3.234375 0,1.2421875 0,2.3789063 -0.1757813,3.4335938 C 5.8236016,-0.49234375 4.8743828,-1.5625e-4 4.1243828,-1.5625e-4 Z M 7.6282891,-5.30875 c 0,-1.3242188 -0.082031,-2.6484375 -0.6679688,-3.8789063 -0.7617187,-1.5937497 -2.1210937,-1.8515627 -2.8125,-1.8515627 -0.9960937,0 -2.203125,0.421875 -2.8828125,1.9687502 -0.53906249,1.1484375 -0.62109374,2.4375 -0.62109374,3.7617188 0,1.2421875 0.0703125,2.7421875 0.75000004,3.9960937 C 2.1087578,0.035 3.3157891,0.363125 4.1243828,0.363125 c 0.9023438,0 2.15625,-0.3515625 2.8945313,-1.921875 0.5273437,-1.1484375 0.609375,-2.4375 0.609375,-3.75 z M 4.1243828,-1.5625e-4 c -0.6445312,0 -1.6171875,-0.41015625 -1.921875,-2.00390625 -0.1757812,-0.9960938 -0.1757812,-2.5195313 -0.1757812,-3.5039063 0,-1.0546875 0,-2.15625 0.1289062,-3.046875 0.3164063,-1.9804692 1.5585938,-2.1210942 1.96875,-2.1210942 0.5507813,0 1.640625,0.292969 1.9570313,1.9335942 0.1640625,0.9375 0.1640625,2.1914063 0.1640625,3.234375 0,1.2421875 0,2.3789063 -0.1757813,3.4335938 -0.2460937,1.58203125 -1.1953125,2.07421875 -1.9453125,2.07421875 z m 0,0"
       style="fill:#000000;fill-opacity:1;fill-rule:nonzero;stroke:none"
       aria-label="00"
       transform="matrix(1.3333333,0,0,1.3333333,577.59067,592.95333)" />
    <path
       id="path157"
       d="M 4767.8,1962.49 3707.77,492.672"
       style="fill:none;stroke:#ff00ff;stroke-width:13.875;stroke-linecap:butt;stroke-linejoin:miter;stroke-miterlimit:10;stroke-dasharray:none;stroke-opacity:1"
       transform="matrix(0.13333333,0,0,-0.13333333,0,740)" />
    <path
       id="path158"
       d="M 4767.8,1962.49 3707.77,492.672"
       style="fill:none;stroke:#ff00ff;stroke-width:13.875;stroke-linecap:butt;stroke-linejoin:miter;stroke-miterlimit:10;stroke-dasharray:none;stroke-opacity:1"
       transform="matrix(0.13333333,0,0,-0.13333333,0,740)" />
    <path
       id="path159"
       d="m 4543.95,4029.71 59.84,24.29"
       style="fill:none;stroke:#ff00ff;stroke-width:13.875;stroke-linecap:butt;stroke-linejoin:miter;stroke-miterlimit:10;stroke-dasharray:none;stroke-opacity:1"
       transform="matrix(0.13333333,0,0,-0.13333333,0,740)" />
    <path
       id="path160"
       d="m 4543.95,4029.71 59.84,24.29"
       style="fill:none;stroke:#ff00ff;stroke-width:13.875;stroke-linecap:butt;stroke-linejoin:miter;stroke-miterlimit:10;stroke-dasharray:none;stroke-opacity:1"
       transform="matrix(0.13333333,0,0,-0.13333333,0,740)" />
    <path
       id="path161"
       d="m 3634.49,3540.14 7.7,-25.42"
       style="fill:none;stroke:#0000ff;stroke-width:13.875;stroke-linecap:butt;stroke-linejoin:miter;stroke-miterlimit:10;stroke-dasharray:none;stroke-opacity:1"
       transform="matrix(0.13333333,0,0,-0.13333333,0,740)" />
    <path
       id="path162"
       d="m 3634.49,3540.14 7.7,-25.42"
       style="fill:none;stroke:#0000ff;stroke-width:13.875;stroke-linecap:butt;stroke-linejoin:miter;stroke-miterlimit:10;stroke-dasharray:none;stroke-opacity:1"
       transform="matrix(0.13333333,0,0,-0.13333333,0,740)" />
    <path
       id="path163"
       d="m 4603.79,4054 59.89,24.22"
       style="fill:none;stroke:#ff00ff;stroke-width:13.875;stroke-linecap:butt;stroke-linejoin:miter;stroke-miterlimit:10;stroke-dasharray:none;stroke-opacity:1"
       transform="matrix(0.13333333,0,0,-0.13333333,0,740)" />
    <path
       id="path164"
       d="m 4603.79,4054 59.89,24.22"
       style="fill:none;stroke:#ff00ff;stroke-width:13.875;stroke-linecap:butt;stroke-linejoin:miter;stroke-miterlimit:10;stroke-dasharray:none;stroke-opacity:1"
       transform="matrix(0.13333333,0,0,-0.13333333,0,740)" />
    <path
       id="path165"
       d="m 4214.7,1195.58 117.23,-21.41"
       style="fill:none;stroke:#000000;stroke-width:13.875;stroke-linecap:butt;stroke-linejoin:miter;stroke-miterlimit:10;stroke-dasharray:none;stroke-opacity:1"
       transform="matrix(0.13333333,0,0,-0.13333333,0,740)" />
    <path
       id="path166"
       d="m 4214.7,1195.58 117.23,-21.41"
       style="fill:none;stroke:#000000;stroke-width:13.875;stroke-linecap:butt;stroke-linejoin:miter;stroke-miterlimit:10;stroke-dasharray:none;stroke-opacity:1"
       transform="matrix(0.13333333,0,0,-0.13333333,0,740)" />
    <path
       id="path167"
       d="m 1875.46,1796.44 28.94,145.15"
       style="fill:none;stroke:#0000ff;stroke-width:13.875;stroke-linecap:butt;stroke-linejoin:miter;stroke-miterlimit:10;stroke-dasharray:none;stroke-opacity:1"
       transform="matrix(0.13333333,0,0,-0.13333333,0,740)" />
    <path
       id="path168"
       d="m 1875.46,1796.44 28.94,145.15"
       style="fill:none;stroke:#0000ff;stroke-width:13.875;stroke-linecap:butt;stroke-linejoin:miter;stroke-miterlimit:10;stroke-dasharray:none;stroke-opacity:1"
       transform="matrix(0.13333333,0,0,-0.13333333,0,740)" />
    <path
       id="path169"
       d="m 4663.68,4078.22 59.84,24.28"
       style="fill:none;stroke:#ff00ff;stroke-width:13.875;stroke-linecap:butt;stroke-linejoin:miter;stroke-miterlimit:10;stroke-dasharray:none;stroke-opacity:1"
       transform="matrix(0.13333333,0,0,-0.13333333,0,740)" />
    <path
       id="path170"
       d="m 4663.68,4078.22 59.84,24.28"
       style="fill:none;stroke:#ff00ff;stroke-width:13.875;stroke-linecap:butt;stroke-linejoin:miter;stroke-miterlimit:10;stroke-dasharray:none;stroke-opacity:1"
       transform="matrix(0.13333333,0,0,-0.13333333,0,740)" />
    <g
       id="g170"
       aria-label="−2−2"
       transform="matrix(1.3333333,0,0,1.3333333,90.2016,635.1208)">
      <path
         id="path171"
         d="m 10.923019,-3.8083734 c 0.292968,0 0.585937,0 0.585937,-0.3398438 0,-0.328125 -0.292969,-0.328125 -0.585937,-0.328125 H 1.958175 c -0.28125,0 -0.5859375,0 -0.5859375,0.328125 0,0.3398438 0.3046875,0.3398438 0.5859375,0.3398438 z m 0,0"
         style="fill:#000000;fill-opacity:1;fill-rule:nonzero;stroke:none" />
      <path
         id="path172"
         d="m 18.68962,-1.2771234 1.757813,-1.7109375 c 2.578125,-2.2851563 3.574219,-3.1757813 3.574219,-4.8398438 0,-1.8867187 -1.488282,-3.2109373 -3.515625,-3.2109373 -1.875,0 -3.09375,1.5234373 -3.09375,2.9999998 0,0.9257813 0.820312,0.9257813 0.878906,0.9257813 0.28125,0 0.855469,-0.1992188 0.855469,-0.8789063 0,-0.4335937 -0.292969,-0.8671875 -0.878907,-0.8671875 -0.128906,0 -0.164062,0 -0.210937,0.023437 0.375,-1.078125 1.277344,-1.6992193 2.238281,-1.6992193 1.511719,0 2.226563,1.3476568 2.226563,2.7070318 0,1.3242188 -0.832032,2.6367188 -1.746094,3.6679688 l -3.1875,3.55078121 c -0.175781,0.17578125 -0.175781,0.2109375 -0.175781,0.6093750025 H 23.56462 L 24.021652,-2.8825922 h -0.410157 c -0.08203,0.4921875 -0.199218,1.2304688 -0.363281,1.4765625 -0.117187,0.1289063 -1.207031,0.1289063 -1.582031,0.1289063 z m 0,0"
         style="fill:#000000;fill-opacity:1;fill-rule:nonzero;stroke:none" />
      <path
         id="path173"
         d="m 10.923019,-3.8083734 c 0.292968,0 0.585937,0 0.585937,-0.3398438 0,-0.328125 -0.292969,-0.328125 -0.585937,-0.328125 H 1.958175 c -0.28125,0 -0.5859375,0 -0.5859375,0.328125 0,0.3398438 0.3046875,0.3398438 0.5859375,0.3398438 z m 0,0"
         style="fill:#000000;fill-opacity:1;fill-rule:nonzero;stroke:none" />
      <path
         id="path174"
         d="m 18.68962,-1.2771234 1.757813,-1.7109375 c 2.578125,-2.2851563 3.574219,-3.1757813 3.574219,-4.8398438 0,-1.8867187 -1.488282,-3.2109373 -3.515625,-3.2109373 -1.875,0 -3.09375,1.5234373 -3.09375,2.9999998 0,0.9257813 0.820312,0.9257813 0.878906,0.9257813 0.28125,0 0.855469,-0.1992188 0.855469,-0.8789063 0,-0.4335937 -0.292969,-0.8671875 -0.878907,-0.8671875 -0.128906,0 -0.164062,0 -0.210937,0.023437 0.375,-1.078125 1.277344,-1.6992193 2.238281,-1.6992193 1.511719,0 2.226563,1.3476568 2.226563,2.7070318 0,1.3242188 -0.832032,2.6367188 -1.746094,3.6679688 l -3.1875,3.55078121 c -0.175781,0.17578125 -0.175781,0.2109375 -0.175781,0.6093750025 H 23.56462 L 24.021652,-2.8825922 h -0.410157 c -0.08203,0.4921875 -0.199218,1.2304688 -0.363281,1.4765625 -0.117187,0.1289063 -1.207031,0.1289063 -1.582031,0.1289063 z m 0,0"
         style="fill:#000000;fill-opacity:1;fill-rule:nonzero;stroke:none" />
    </g>
    <path
       id="path175"
       d="m 3642.19,3514.72 -6.89,-30.19"
       style="fill:none;stroke:#0000ff;stroke-width:13.875;stroke-linecap:butt;stroke-linejoin:miter;stroke-miterlimit:10;stroke-dasharray:none;stroke-opacity:1"
       transform="matrix(0.13333333,0,0,-0.13333333,0,740)" />
    <path
       id="path176"
       d="m 3642.19,3514.72 -6.89,-30.19"
       style="fill:none;stroke:#0000ff;stroke-width:13.875;stroke-linecap:butt;stroke-linejoin:miter;stroke-miterlimit:10;stroke-dasharray:none;stroke-opacity:1"
       transform="matrix(0.13333333,0,0,-0.13333333,0,740)" />
    <path
       id="path177"
       d="m 1860.93,1653.83 14.53,142.61"
       style="fill:none;stroke:#0000ff;stroke-width:13.875;stroke-linecap:butt;stroke-linejoin:miter;stroke-miterlimit:10;stroke-dasharray:none;stroke-opacity:1"
       transform="matrix(0.13333333,0,0,-0.13333333,0,740)" />
    <path
       id="path178"
       d="m 1860.93,1653.83 14.53,142.61"
       style="fill:none;stroke:#0000ff;stroke-width:13.875;stroke-linecap:butt;stroke-linejoin:miter;stroke-miterlimit:10;stroke-dasharray:none;stroke-opacity:1"
       transform="matrix(0.13333333,0,0,-0.13333333,0,740)" />
    <path
       id="path179"
       d="m 7.6289219,-5.3083703 c 0,-1.3242188 -0.082031,-2.6484375 -0.6679688,-3.8789063 -0.7617187,-1.5937504 -2.1210937,-1.8515624 -2.8125,-1.8515624 -0.9960937,0 -2.203125,0.421875 -2.8828125,1.9687499 -0.53906247,1.1484375 -0.62109372,2.4375 -0.62109372,3.7617188 0,1.2421875 0.0703125,2.7421875 0.75000002,3.9960937 0.7148437,1.34765629 1.921875,1.67578129 2.7304687,1.67578129 0.9023438,0 2.15625,-0.3515625 2.8945313,-1.92187499 0.5273437,-1.1484375 0.609375,-2.4375 0.609375,-3.75 z M 4.1250156,2.234375e-4 c -0.6445312,0 -1.6171875,-0.4101562475 -1.921875,-2.0039062375 -0.1757812,-0.9960938 -0.1757812,-2.5195313 -0.1757812,-3.5039063 0,-1.0546875 0,-2.15625 0.1289062,-3.046875 0.3164063,-1.9804689 1.5585938,-2.1210939 1.96875,-2.1210939 0.5507813,0 1.640625,0.292969 1.9570313,1.9335939 0.1640625,0.9375 0.1640625,2.1914063 0.1640625,3.234375 0,1.2421875 0,2.3789063 -0.1757813,3.4335938 C 5.8242344,-0.49196406 4.8750156,2.234375e-4 4.1250156,2.234375e-4 Z M 7.6289219,-5.3083703 c 0,-1.3242188 -0.082031,-2.6484375 -0.6679688,-3.8789063 -0.7617187,-1.5937504 -2.1210937,-1.8515624 -2.8125,-1.8515624 -0.9960937,0 -2.203125,0.421875 -2.8828125,1.9687499 -0.53906247,1.1484375 -0.62109372,2.4375 -0.62109372,3.7617188 0,1.2421875 0.0703125,2.7421875 0.75000002,3.9960937 0.7148437,1.34765629 1.921875,1.67578129 2.7304687,1.67578129 0.9023438,0 2.15625,-0.3515625 2.8945313,-1.92187499 0.5273437,-1.1484375 0.609375,-2.4375 0.609375,-3.75 z M 4.1250156,2.234375e-4 c -0.6445312,0 -1.6171875,-0.4101562475 -1.921875,-2.0039062375 -0.1757812,-0.9960938 -0.1757812,-2.5195313 -0.1757812,-3.5039063 0,-1.0546875 0,-2.15625 0.1289062,-3.046875 0.3164063,-1.9804689 1.5585938,-2.1210939 1.96875,-2.1210939 0.5507813,0 1.640625,0.292969 1.9570313,1.9335939 0.1640625,0.9375 0.1640625,2.1914063 0.1640625,3.234375 0,1.2421875 0,2.3789063 -0.1757813,3.4335938 C 5.8242344,-0.49196406 4.8750156,2.234375e-4 4.1250156,2.234375e-4 Z m 0,0"
       style="fill:#000000;fill-opacity:1;fill-rule:nonzero;stroke:none"
       aria-label="00"
       transform="matrix(1.3333333,0,0,1.3333333,73.804667,616.33173)" />
    <path
       id="path180"
       d="m 777.434,1028.92 0.164,-107.803"
       style="fill:none;stroke:#0000ff;stroke-width:13.875;stroke-linecap:butt;stroke-linejoin:miter;stroke-miterlimit:10;stroke-dasharray:none;stroke-opacity:1"
       transform="matrix(0.13333333,0,0,-0.13333333,0,740)" />
    <path
       id="path181"
       d="m 777.434,1028.92 0.164,-107.803"
       style="fill:none;stroke:#0000ff;stroke-width:13.875;stroke-linecap:butt;stroke-linejoin:miter;stroke-miterlimit:10;stroke-dasharray:none;stroke-opacity:1"
       transform="matrix(0.13333333,0,0,-0.13333333,0,740)" />
    <path
       id="path182"
       d="m 1860.98,1515.3 -0.05,138.53"
       style="fill:none;stroke:#0000ff;stroke-width:13.875;stroke-linecap:butt;stroke-linejoin:miter;stroke-miterlimit:10;stroke-dasharray:none;stroke-opacity:1"
       transform="matrix(0.13333333,0,0,-0.13333333,0,740)" />
    <path
       id="path183"
       d="m 1860.98,1515.3 -0.05,138.53"
       style="fill:none;stroke:#0000ff;stroke-width:13.875;stroke-linecap:butt;stroke-linejoin:miter;stroke-miterlimit:10;stroke-dasharray:none;stroke-opacity:1"
       transform="matrix(0.13333333,0,0,-0.13333333,0,740)" />
    <path
       id="path184"
       d="M 777.434,1028.92 664.266,1002.47"
       style="fill:none;stroke:#000000;stroke-width:13.875;stroke-linecap:butt;stroke-linejoin:miter;stroke-miterlimit:10;stroke-dasharray:none;stroke-opacity:1"
       transform="matrix(0.13333333,0,0,-0.13333333,0,740)" />
    <path
       id="path185"
       d="M 777.434,1028.92 664.266,1002.47"
       style="fill:none;stroke:#000000;stroke-width:13.875;stroke-linecap:butt;stroke-linejoin:miter;stroke-miterlimit:10;stroke-dasharray:none;stroke-opacity:1"
       transform="matrix(0.13333333,0,0,-0.13333333,0,740)" />
    <path
       id="path186"
       d="m 3635.3,3484.53 -21.41,-33.55"
       style="fill:none;stroke:#0000ff;stroke-width:13.875;stroke-linecap:butt;stroke-linejoin:miter;stroke-miterlimit:10;stroke-dasharray:none;stroke-opacity:1"
       transform="matrix(0.13333333,0,0,-0.13333333,0,740)" />
    <path
       id="path187"
       d="m 3635.3,3484.53 -21.41,-33.55"
       style="fill:none;stroke:#0000ff;stroke-width:13.875;stroke-linecap:butt;stroke-linejoin:miter;stroke-miterlimit:10;stroke-dasharray:none;stroke-opacity:1"
       transform="matrix(0.13333333,0,0,-0.13333333,0,740)" />
    <path
       id="path188"
       d="m 1875.68,1382.19 -14.7,133.11"
       style="fill:none;stroke:#0000ff;stroke-width:13.875;stroke-linecap:butt;stroke-linejoin:miter;stroke-miterlimit:10;stroke-dasharray:none;stroke-opacity:1"
       transform="matrix(0.13333333,0,0,-0.13333333,0,740)" />
    <path
       id="path189"
       d="m 1875.68,1382.19 -14.7,133.11"
       style="fill:none;stroke:#0000ff;stroke-width:13.875;stroke-linecap:butt;stroke-linejoin:miter;stroke-miterlimit:10;stroke-dasharray:none;stroke-opacity:1"
       transform="matrix(0.13333333,0,0,-0.13333333,0,740)" />
    <path
       id="path190"
       d="m 4.8746438,-10.618297 c 0,-0.398437 0,-0.421875 -0.3867188,-0.421875 -1.0195312,1.0546876 -2.484375,1.0546876 -3.0117187,1.0546876 v 0.515625 c 0.328125,0 1.3125,0 2.1679687,-0.4335937 v 8.5898437 c 0,0.59765627 -0.046875,0.79687502 -1.5351562,0.79687502 H 1.5699563 v 0.515625 c 0.5859375,-0.046875 2.0273437,-0.046875 2.6953125,-0.046875 0.65625,0 2.0976562,0 2.6835937,0.046875 v -0.515625 H 6.4215188 c -1.5,0 -1.546875,-0.17578125 -1.546875,-0.79687502 z m 0,0 c 0,-0.398437 0,-0.421875 -0.3867188,-0.421875 -1.0195312,1.0546876 -2.484375,1.0546876 -3.0117187,1.0546876 v 0.515625 c 0.328125,0 1.3125,0 2.1679687,-0.4335937 v 8.5898437 c 0,0.59765627 -0.046875,0.79687502 -1.5351562,0.79687502 H 1.5699563 v 0.515625 c 0.5859375,-0.046875 2.0273437,-0.046875 2.6953125,-0.046875 0.65625,0 2.0976562,0 2.6835937,0.046875 v -0.515625 H 6.4215188 c -1.5,0 -1.546875,-0.17578125 -1.546875,-0.79687502 z m 0,0"
       style="fill:#000000;fill-opacity:1;fill-rule:nonzero;stroke:none"
       aria-label="11"
       transform="matrix(1.3333333,0,0,1.3333333,73.7036,559.11867)" />
    <path
       id="path191"
       d="m 1904.72,1255.8 -29.04,126.39"
       style="fill:none;stroke:#0000ff;stroke-width:13.875;stroke-linecap:butt;stroke-linejoin:miter;stroke-miterlimit:10;stroke-dasharray:none;stroke-opacity:1"
       transform="matrix(0.13333333,0,0,-0.13333333,0,740)" />
    <path
       id="path192"
       d="m 1904.72,1255.8 -29.04,126.39"
       style="fill:none;stroke:#0000ff;stroke-width:13.875;stroke-linecap:butt;stroke-linejoin:miter;stroke-miterlimit:10;stroke-dasharray:none;stroke-opacity:1"
       transform="matrix(0.13333333,0,0,-0.13333333,0,740)" />
    <path
       id="path193"
       d="m 3613.89,3450.98 -35.55,-35.51"
       style="fill:none;stroke:#0000ff;stroke-width:13.875;stroke-linecap:butt;stroke-linejoin:miter;stroke-miterlimit:10;stroke-dasharray:none;stroke-opacity:1"
       transform="matrix(0.13333333,0,0,-0.13333333,0,740)" />
    <path
       id="path194"
       d="m 3613.89,3450.98 -35.55,-35.51"
       style="fill:none;stroke:#0000ff;stroke-width:13.875;stroke-linecap:butt;stroke-linejoin:miter;stroke-miterlimit:10;stroke-dasharray:none;stroke-opacity:1"
       transform="matrix(0.13333333,0,0,-0.13333333,0,740)" />
    <path
       id="path195"
       d="M 776.676,1458.01 663.508,1431.56"
       style="fill:none;stroke:#000000;stroke-width:13.875;stroke-linecap:butt;stroke-linejoin:miter;stroke-miterlimit:10;stroke-dasharray:none;stroke-opacity:1"
       transform="matrix(0.13333333,0,0,-0.13333333,0,740)" />
    <path
       id="path196"
       d="M 776.676,1458.01 663.508,1431.56"
       style="fill:none;stroke:#000000;stroke-width:13.875;stroke-linecap:butt;stroke-linejoin:miter;stroke-miterlimit:10;stroke-dasharray:none;stroke-opacity:1"
       transform="matrix(0.13333333,0,0,-0.13333333,0,740)" />
    <path
       id="path197"
       d="m 1947.7,1137.32 -42.98,118.48"
       style="fill:none;stroke:#0000ff;stroke-width:13.875;stroke-linecap:butt;stroke-linejoin:miter;stroke-miterlimit:10;stroke-dasharray:none;stroke-opacity:1"
       transform="matrix(0.13333333,0,0,-0.13333333,0,740)" />
    <path
       id="path198"
       d="m 1947.7,1137.32 -42.98,118.48"
       style="fill:none;stroke:#0000ff;stroke-width:13.875;stroke-linecap:butt;stroke-linejoin:miter;stroke-miterlimit:10;stroke-dasharray:none;stroke-opacity:1"
       transform="matrix(0.13333333,0,0,-0.13333333,0,740)" />
    <path
       id="path199"
       d="M 1844.89,5189.47 772.828,3730.36"
       style="fill:none;stroke:#000000;stroke-width:13.875;stroke-linecap:butt;stroke-linejoin:miter;stroke-miterlimit:10;stroke-dasharray:none;stroke-opacity:1"
       transform="matrix(0.13333333,0,0,-0.13333333,0,740)" />
    <path
       id="path200"
       d="M 1844.89,5189.47 772.828,3730.36"
       style="fill:none;stroke:#000000;stroke-width:13.875;stroke-linecap:butt;stroke-linejoin:miter;stroke-miterlimit:10;stroke-dasharray:none;stroke-opacity:1"
       transform="matrix(0.13333333,0,0,-0.13333333,0,740)" />
    <path
       id="path201"
       d="m 7.6303203,-5.3091922 c 0,-1.3242187 -0.082031,-2.6484375 -0.6679687,-3.8789062 -0.7617188,-1.5937496 -2.1210938,-1.8515626 -2.8125,-1.8515626 -0.9960938,0 -2.203125,0.421875 -2.8828125,1.9687501 -0.53906254,1.1484375 -0.62109379,2.4375 -0.62109379,3.7617187 0,1.2421875 0.0703125,2.7421875 0.74999999,3.9960938 0.7148438,1.34765621 1.921875,1.67578121 2.7304688,1.67578121 0.9023437,0 2.15625,-0.3515625 2.8945312,-1.92187501 0.5273438,-1.1484375 0.609375,-2.4375 0.609375,-3.75 z M 4.1264141,-5.984375e-4 c -0.6445313,0 -1.6171875,-0.4101562525 -1.921875,-2.0039062625 -0.1757813,-0.9960937 -0.1757813,-2.5195312 -0.1757813,-3.5039062 0,-1.0546875 0,-2.15625 0.1289063,-3.046875 0.3164062,-1.9804691 1.5585937,-2.1210941 1.96875,-2.1210941 0.5507812,0 1.640625,0.292969 1.9570312,1.9335941 0.1640625,0.9375 0.1640625,2.1914062 0.1640625,3.234375 0,1.2421875 0,2.3789062 -0.1757812,3.4335937 C 5.8256328,-0.49278594 4.8764141,-5.984375e-4 4.1264141,-5.984375e-4 Z M 7.6303203,-5.3091922 c 0,-1.3242187 -0.082031,-2.6484375 -0.6679687,-3.8789062 -0.7617188,-1.5937496 -2.1210938,-1.8515626 -2.8125,-1.8515626 -0.9960938,0 -2.203125,0.421875 -2.8828125,1.9687501 -0.53906254,1.1484375 -0.62109379,2.4375 -0.62109379,3.7617187 0,1.2421875 0.0703125,2.7421875 0.74999999,3.9960938 0.7148438,1.34765621 1.921875,1.67578121 2.7304688,1.67578121 0.9023437,0 2.15625,-0.3515625 2.8945312,-1.92187501 0.5273438,-1.1484375 0.609375,-2.4375 0.609375,-3.75 z M 4.1264141,-5.984375e-4 c -0.6445313,0 -1.6171875,-0.4101562525 -1.921875,-2.0039062625 -0.1757813,-0.9960937 -0.1757813,-2.5195312 -0.1757813,-3.5039062 0,-1.0546875 0,-2.15625 0.1289063,-3.046875 0.3164062,-1.9804691 1.5585937,-2.1210941 1.96875,-2.1210941 0.5507812,0 1.640625,0.292969 1.9570312,1.9335941 0.1640625,0.9375 0.1640625,2.1914062 0.1640625,3.234375 0,1.2421875 0,2.3789062 -0.1757812,3.4335937 -0.2460938,1.58203126 -1.1953125,2.0742187625 -1.9453125,2.0742187625 z m 0,0"
       style="fill:#000000;fill-opacity:1;fill-rule:nonzero;stroke:none"
       aria-label="00"
       transform="matrix(1.3333333,0,0,1.3333333,295.19733,670.85627)" />
    <path
       id="path202"
       d="m 2003.91,1027.73 -56.21,109.59"
       style="fill:none;stroke:#0000ff;stroke-width:13.875;stroke-linecap:butt;stroke-linejoin:miter;stroke-miterlimit:10;stroke-dasharray:none;stroke-opacity:1"
       transform="matrix(0.13333333,0,0,-0.13333333,0,740)" />
    <path
       id="path203"
       d="m 2003.91,1027.73 -56.21,109.59"
       style="fill:none;stroke:#0000ff;stroke-width:13.875;stroke-linecap:butt;stroke-linejoin:miter;stroke-miterlimit:10;stroke-dasharray:none;stroke-opacity:1"
       transform="matrix(0.13333333,0,0,-0.13333333,0,740)" />
    <path
       id="path204"
       d="m 2072.41,928 -68.5,99.73"
       style="fill:none;stroke:#0000ff;stroke-width:13.875;stroke-linecap:butt;stroke-linejoin:miter;stroke-miterlimit:10;stroke-dasharray:none;stroke-opacity:1"
       transform="matrix(0.13333333,0,0,-0.13333333,0,740)" />
    <path
       id="path205"
       d="m 2072.41,928 -68.5,99.73"
       style="fill:none;stroke:#0000ff;stroke-width:13.875;stroke-linecap:butt;stroke-linejoin:miter;stroke-miterlimit:10;stroke-dasharray:none;stroke-opacity:1"
       transform="matrix(0.13333333,0,0,-0.13333333,0,740)" />
    <path
       id="path206"
       d="m 3578.34,3415.47 -49.21,-35.93"
       style="fill:none;stroke:#0000ff;stroke-width:13.875;stroke-linecap:butt;stroke-linejoin:miter;stroke-miterlimit:10;stroke-dasharray:none;stroke-opacity:1"
       transform="matrix(0.13333333,0,0,-0.13333333,0,740)" />
    <path
       id="path207"
       d="m 3578.34,3415.47 -49.21,-35.93"
       style="fill:none;stroke:#0000ff;stroke-width:13.875;stroke-linecap:butt;stroke-linejoin:miter;stroke-miterlimit:10;stroke-dasharray:none;stroke-opacity:1"
       transform="matrix(0.13333333,0,0,-0.13333333,0,740)" />
    <path
       id="path208"
       d="m 2241.57,760.957 0.06,-107.855"
       style="fill:none;stroke:#000000;stroke-width:13.875;stroke-linecap:butt;stroke-linejoin:miter;stroke-miterlimit:10;stroke-dasharray:none;stroke-opacity:1"
       transform="matrix(0.13333333,0,0,-0.13333333,0,740)" />
    <path
       id="path209"
       d="m 2241.57,760.957 0.06,-107.855"
       style="fill:none;stroke:#000000;stroke-width:13.875;stroke-linecap:butt;stroke-linejoin:miter;stroke-miterlimit:10;stroke-dasharray:none;stroke-opacity:1"
       transform="matrix(0.13333333,0,0,-0.13333333,0,740)" />
    <path
       id="path210"
       d="M 2152.08,838.895 2072.41,928"
       style="fill:none;stroke:#0000ff;stroke-width:13.875;stroke-linecap:butt;stroke-linejoin:miter;stroke-miterlimit:10;stroke-dasharray:none;stroke-opacity:1"
       transform="matrix(0.13333333,0,0,-0.13333333,0,740)" />
    <path
       id="path211"
       d="M 2152.08,838.895 2072.41,928"
       style="fill:none;stroke:#0000ff;stroke-width:13.875;stroke-linecap:butt;stroke-linejoin:miter;stroke-miterlimit:10;stroke-dasharray:none;stroke-opacity:1"
       transform="matrix(0.13333333,0,0,-0.13333333,0,740)" />
    <path
       id="path212"
       d="m 2.1085469,-1.2786016 1.7578125,-1.7109375 c 2.578125,-2.2851562 3.5742187,-3.1757812 3.5742187,-4.8398437 0,-1.8867188 -1.4882812,-3.2109372 -3.515625,-3.2109372 -1.875,0 -3.09374997,1.5234372 -3.09374997,2.9999997 0,0.9257812 0.82031247,0.9257812 0.87890627,0.9257812 0.28125,0 0.8554687,-0.1992187 0.8554687,-0.8789062 0,-0.4335938 -0.2929687,-0.8671875 -0.8789062,-0.8671875 -0.1289063,0 -0.1640625,0 -0.2109375,0.023437 0.375,-1.078125 1.2773437,-1.6992192 2.2382812,-1.6992192 1.5117188,0 2.2265625,1.3476567 2.2265625,2.7070317 0,1.3242187 -0.8320312,2.6367187 -1.7460937,3.6679687 l -3.1875,3.55078129 c -0.17578127,0.17578125 -0.17578127,0.2109375 -0.17578127,0.609375 H 6.9835469 L 7.4405781,-2.8840703 H 7.0304219 c -0.082031,0.4921875 -0.1992188,1.2304687 -0.3632813,1.4765625 -0.1171875,0.1289062 -1.2070312,0.1289062 -1.5820312,0.1289062 z m 0,0 1.7578125,-1.7109375 c 2.578125,-2.2851562 3.5742187,-3.1757812 3.5742187,-4.8398437 0,-1.8867188 -1.4882812,-3.2109372 -3.515625,-3.2109372 -1.875,0 -3.09374997,1.5234372 -3.09374997,2.9999997 0,0.9257812 0.82031247,0.9257812 0.87890627,0.9257812 0.28125,0 0.8554687,-0.1992187 0.8554687,-0.8789062 0,-0.4335938 -0.2929687,-0.8671875 -0.8789062,-0.8671875 -0.1289063,0 -0.1640625,0 -0.2109375,0.023437 0.375,-1.078125 1.2773437,-1.6992192 2.2382812,-1.6992192 1.5117188,0 2.2265625,1.3476567 2.2265625,2.7070317 0,1.3242187 -0.8320312,2.6367187 -1.7460937,3.6679687 l -3.1875,3.55078129 c -0.17578127,0.17578125 -0.17578127,0.2109375 -0.17578127,0.609375 H 6.9835469 L 7.4405781,-2.8840703 H 7.0304219 c -0.082031,0.4921875 -0.1992188,1.2304687 -0.3632813,1.4765625 -0.1171875,0.1289062 -1.2070312,0.1289062 -1.5820312,0.1289062 z m 0,0"
       style="fill:#000000;fill-opacity:1;fill-rule:nonzero;stroke:none"
       aria-label="22"
       transform="matrix(1.3333333,0,0,1.3333333,73.602667,501.84933)" />
    <path
       id="path213"
       d="m 2241.57,760.957 -89.49,77.938"
       style="fill:none;stroke:#0000ff;stroke-width:13.875;stroke-linecap:butt;stroke-linejoin:miter;stroke-miterlimit:10;stroke-dasharray:none;stroke-opacity:1"
       transform="matrix(0.13333333,0,0,-0.13333333,0,740)" />
    <path
       id="path214"
       d="m 2241.57,760.957 -89.49,77.938"
       style="fill:none;stroke:#0000ff;stroke-width:13.875;stroke-linecap:butt;stroke-linejoin:miter;stroke-miterlimit:10;stroke-dasharray:none;stroke-opacity:1"
       transform="matrix(0.13333333,0,0,-0.13333333,0,740)" />
    <path
       id="path215"
       d="M 777.434,1028.92 3707.77,492.672"
       style="fill:none;stroke:#000000;stroke-width:13.875;stroke-linecap:butt;stroke-linejoin:miter;stroke-miterlimit:10;stroke-dasharray:none;stroke-opacity:1"
       transform="matrix(0.13333333,0,0,-0.13333333,0,740)" />
    <path
       id="path216"
       d="M 777.434,1028.92 3707.77,492.672"
       style="fill:none;stroke:#000000;stroke-width:13.875;stroke-linecap:butt;stroke-linejoin:miter;stroke-miterlimit:10;stroke-dasharray:none;stroke-opacity:1"
       transform="matrix(0.13333333,0,0,-0.13333333,0,740)" />
    <path
       id="path217"
       d="M 775.969,1887.48 662.746,1861.04"
       style="fill:none;stroke:#000000;stroke-width:13.875;stroke-linecap:butt;stroke-linejoin:miter;stroke-miterlimit:10;stroke-dasharray:none;stroke-opacity:1"
       transform="matrix(0.13333333,0,0,-0.13333333,0,740)" />
    <path
       id="path218"
       d="M 775.969,1887.48 662.746,1861.04"
       style="fill:none;stroke:#000000;stroke-width:13.875;stroke-linecap:butt;stroke-linejoin:miter;stroke-miterlimit:10;stroke-dasharray:none;stroke-opacity:1"
       transform="matrix(0.13333333,0,0,-0.13333333,0,740)" />
    <path
       id="path219"
       d="m 3529.13,3379.54 -62.06,-34.84"
       style="fill:none;stroke:#0000ff;stroke-width:13.875;stroke-linecap:butt;stroke-linejoin:miter;stroke-miterlimit:10;stroke-dasharray:none;stroke-opacity:1"
       transform="matrix(0.13333333,0,0,-0.13333333,0,740)" />
    <path
       id="path220"
       d="m 3529.13,3379.54 -62.06,-34.84"
       style="fill:none;stroke:#0000ff;stroke-width:13.875;stroke-linecap:butt;stroke-linejoin:miter;stroke-miterlimit:10;stroke-dasharray:none;stroke-opacity:1"
       transform="matrix(0.13333333,0,0,-0.13333333,0,740)" />
    <path
       id="path221"
       d="m 4.8060578,-5.8349922 c 1.359375,-0.4453125 2.3203125,-1.6054687 2.3203125,-2.9179687 0,-1.3593751 -1.453125,-2.2851561 -3.046875,-2.2851561 -1.6757812,0 -2.9296875,0.996094 -2.9296875,2.2499998 0,0.5507813 0.3632813,0.8671875 0.84375,0.8671875 0.515625,0 0.84375,-0.3632812 0.84375,-0.8554687 0,-0.8203125 -0.7851562,-0.8203125 -1.03125,-0.8203125 0.515625,-0.8203121 1.6054688,-1.0312501 2.203125,-1.0312501 0.6796875,0 1.59375,0.363281 1.59375,1.8515626 0,0.1992187 -0.035156,1.171875 -0.4570312,1.8984375 -0.5039063,0.796875 -1.0664063,0.84375 -1.4765625,0.8554687 -0.140625,0.023437 -0.5390625,0.058594 -0.6445313,0.058594 -0.140625,0.011719 -0.2578125,0.023437 -0.2578125,0.1992187 0,0.1757813 0.1171875,0.1757813 0.3984375,0.1757813 h 0.7382813 c 1.359375,0 1.96875,1.125 1.96875,2.7539062 0,2.25000001 -1.1484375,2.74218751 -1.875,2.74218751 -0.7148438,0 -1.9570313,-0.29296875 -2.53125,-1.26562501 0.5742187,0.082031 1.0898437,-0.28125 1.0898437,-0.9140625 0,-0.5976562 -0.4453125,-0.9257812 -0.9257812,-0.9257812 -0.3984375,0 -0.93750004,0.234375 -0.93750004,0.9609375 0,1.51171871 1.54687504,2.60156246 3.35156254,2.60156246 2.0273437,0 3.5390625,-1.51171876 3.5390625,-3.19921876 0,-1.359375 -1.0429688,-2.6484375 -2.7773438,-3.0000002 z m 0,0 c 1.359375,-0.4453125 2.3203125,-1.6054687 2.3203125,-2.9179687 0,-1.3593751 -1.453125,-2.2851561 -3.046875,-2.2851561 -1.6757812,0 -2.9296875,0.996094 -2.9296875,2.2499998 0,0.5507813 0.3632813,0.8671875 0.84375,0.8671875 0.515625,0 0.84375,-0.3632812 0.84375,-0.8554687 0,-0.8203125 -0.7851562,-0.8203125 -1.03125,-0.8203125 0.515625,-0.8203121 1.6054688,-1.0312501 2.203125,-1.0312501 0.6796875,0 1.59375,0.363281 1.59375,1.8515626 0,0.1992187 -0.035156,1.171875 -0.4570312,1.8984375 -0.5039063,0.796875 -1.0664063,0.84375 -1.4765625,0.8554687 -0.140625,0.023437 -0.5390625,0.058594 -0.6445313,0.058594 -0.140625,0.011719 -0.2578125,0.023437 -0.2578125,0.1992187 0,0.1757813 0.1171875,0.1757813 0.3984375,0.1757813 h 0.7382813 c 1.359375,0 1.96875,1.125 1.96875,2.7539062 0,2.25000001 -1.1484375,2.74218751 -1.875,2.74218751 -0.7148438,0 -1.9570313,-0.29296875 -2.53125,-1.26562501 0.5742187,0.082031 1.0898437,-0.28125 1.0898437,-0.9140625 0,-0.5976562 -0.4453125,-0.9257812 -0.9257812,-0.9257812 -0.3984375,0 -0.93750004,0.234375 -0.93750004,0.9609375 0,1.51171871 1.54687504,2.60156246 3.35156254,2.60156246 2.0273437,0 3.5390625,-1.51171876 3.5390625,-3.19921876 0,-1.359375 -1.0429688,-2.6484375 -2.7773438,-3.0000002 z M 313.59805,195.2822 l 1.75781,-1.71094 c 2.57813,-2.28516 3.57422,-3.17578 3.57422,-4.83985 0,-1.88671 -1.48828,-3.21093 -3.51562,-3.21093 -1.875,0 -3.09375,1.52343 -3.09375,3 0,0.92578 0.82031,0.92578 0.8789,0.92578 0.28125,0 0.85547,-0.19922 0.85547,-0.87891 0,-0.43359 -0.29297,-0.86719 -0.87891,-0.86719 -0.1289,0 -0.16406,0 -0.21093,0.0234 0.375,-1.07812 1.27734,-1.69922 2.23828,-1.69922 1.51172,0 2.22656,1.34766 2.22656,2.70703 0,1.32422 -0.83203,2.63672 -1.74609,3.66797 l -3.1875,3.55078 c -0.17578,0.17579 -0.17578,0.21094 -0.17578,0.60938 h 6.15234 l 0.45703,-2.88281 h -0.41016 c -0.082,0.49218 -0.19921,1.23047 -0.36328,1.47656 -0.11718,0.12891 -1.20703,0.12891 -1.58203,0.12891 z m 0,0 1.75781,-1.71094 c 2.57813,-2.28516 3.57422,-3.17578 3.57422,-4.83985 0,-1.88671 -1.48828,-3.21093 -3.51562,-3.21093 -1.875,0 -3.09375,1.52343 -3.09375,3 0,0.92578 0.82031,0.92578 0.8789,0.92578 0.28125,0 0.85547,-0.19922 0.85547,-0.87891 0,-0.43359 -0.29297,-0.86719 -0.87891,-0.86719 -0.1289,0 -0.16406,0 -0.21093,0.0234 0.375,-1.07812 1.27734,-1.69922 2.23828,-1.69922 1.51172,0 2.22656,1.34766 2.22656,2.70703 0,1.32422 -0.83203,2.63672 -1.74609,3.66797 l -3.1875,3.55078 c -0.17578,0.17579 -0.17578,0.21094 -0.17578,0.60938 h 6.15234 l 0.45703,-2.88281 h -0.41016 c -0.082,0.49218 -0.19921,1.23047 -0.36328,1.47656 -0.11718,0.12891 -1.20703,0.12891 -1.58203,0.12891 z m 0,0"
       style="fill:#000000;fill-opacity:1;fill-rule:nonzero;stroke:none"
       aria-label="33&#10;22"
       transform="matrix(1.3333333,0,0,1.3333333,73.494267,444.55733)" />
    <path
       id="path222"
       d="M 775.211,2317.23 661.934,2290.79"
       style="fill:none;stroke:#0000ff;stroke-width:13.875;stroke-linecap:butt;stroke-linejoin:miter;stroke-miterlimit:10;stroke-dasharray:none;stroke-opacity:1"
       transform="matrix(0.13333333,0,0,-0.13333333,0,740)" />
    <path
       id="path223"
       d="M 775.211,2317.23 661.934,2290.79"
       style="fill:none;stroke:#0000ff;stroke-width:13.875;stroke-linecap:butt;stroke-linejoin:miter;stroke-miterlimit:10;stroke-dasharray:none;stroke-opacity:1"
       transform="matrix(0.13333333,0,0,-0.13333333,0,740)" />
    <path
       id="path224"
       d="m 777.434,1028.92 -4.606,2701.44"
       style="fill:none;stroke:#0000ff;stroke-width:13.875;stroke-linecap:butt;stroke-linejoin:miter;stroke-miterlimit:10;stroke-dasharray:none;stroke-opacity:1"
       transform="matrix(0.13333333,0,0,-0.13333333,0,740)" />
    <path
       id="path225"
       d="m 777.434,1028.92 -4.606,2701.44"
       style="fill:none;stroke:#0000ff;stroke-width:13.875;stroke-linecap:butt;stroke-linejoin:miter;stroke-miterlimit:10;stroke-dasharray:none;stroke-opacity:1"
       transform="matrix(0.13333333,0,0,-0.13333333,0,740)" />
    <path
       id="path226"
       d="m 3467.07,3344.7 -73.81,-32.36"
       style="fill:none;stroke:#0000ff;stroke-width:13.875;stroke-linecap:butt;stroke-linejoin:miter;stroke-miterlimit:10;stroke-dasharray:none;stroke-opacity:1"
       transform="matrix(0.13333333,0,0,-0.13333333,0,740)" />
    <path
       id="path227"
       d="m 3467.07,3344.7 -73.81,-32.36"
       style="fill:none;stroke:#0000ff;stroke-width:13.875;stroke-linecap:butt;stroke-linejoin:miter;stroke-miterlimit:10;stroke-dasharray:none;stroke-opacity:1"
       transform="matrix(0.13333333,0,0,-0.13333333,0,740)" />
    <path
       id="path228"
       d="m 4.8755781,-10.618403 c 0,-0.398438 0,-0.421875 -0.3867187,-0.421875 -1.0195313,1.0546874 -2.484375,1.0546874 -3.0117188,1.0546874 v 0.515625 c 0.328125,0 1.3125,0 2.1679688,-0.4335938 v 8.5898438 c 0,0.59765623 -0.046875,0.79687498 -1.5351563,0.79687498 H 1.5708906 v 0.515625 c 0.5859375,-0.046875 2.0273438,-0.046875 2.6953125,-0.046875 0.65625,0 2.0976563,0 2.6835938,0.046875 v -0.515625 H 6.4224531 c -1.5,0 -1.546875,-0.17578125 -1.546875,-0.79687498 z m 0,0 c 0,-0.398438 0,-0.421875 -0.3867187,-0.421875 -1.0195313,1.0546874 -2.484375,1.0546874 -3.0117188,1.0546874 v 0.515625 c 0.328125,0 1.3125,0 2.1679688,-0.4335938 v 8.5898438 c 0,0.59765623 -0.046875,0.79687498 -1.5351563,0.79687498 H 1.5708906 v 0.515625 c 0.5859375,-0.046875 2.0273438,-0.046875 2.6953125,-0.046875 0.65625,0 2.0976563,0 2.6835938,0.046875 v -0.515625 H 6.4224531 c -1.5,0 -1.546875,-0.17578125 -1.546875,-0.79687498 z m 0,0"
       style="fill:#000000;fill-opacity:1;fill-rule:nonzero;stroke:none"
       aria-label="11"
       transform="matrix(1.3333333,0,0,1.3333333,510.02267,686.69693)" />
    <path
       id="path229"
       d="m 3707.77,492.672 -0.11,-107.91"
       style="fill:none;stroke:#0000ff;stroke-width:13.875;stroke-linecap:butt;stroke-linejoin:miter;stroke-miterlimit:10;stroke-dasharray:none;stroke-opacity:1"
       transform="matrix(0.13333333,0,0,-0.13333333,0,740)" />
    <path
       id="path230"
       d="m 3707.77,492.672 -0.11,-107.91"
       style="fill:none;stroke:#0000ff;stroke-width:13.875;stroke-linecap:butt;stroke-linejoin:miter;stroke-miterlimit:10;stroke-dasharray:none;stroke-opacity:1"
       transform="matrix(0.13333333,0,0,-0.13333333,0,740)" />
    <path
       id="path231"
       d="m 4.8759984,-2.7310547 v 1.4414063 c 0,0.59765621 -0.035156,0.77343746 -1.265625,0.77343746 H 3.2705297 V -5.859375e-4 C 3.9502172,-0.04746094 4.8056859,-0.04746094 5.5088109,-0.04746094 c 0.6914063,0 1.5703125,0 2.25,0.0468750025 V -0.51621094 H 7.4189672 c -1.2304688,0 -1.265625,-0.17578125 -1.265625,-0.77343746 v -1.4414063 h 1.6523437 v -0.515625 H 6.1533422 v -7.5468753 c 0,-0.328125 0,-0.433593 -0.2695313,-0.433593 -0.140625,0 -0.1992187,0 -0.328125,0.199218 l -5.08593746,7.7812503 v 0.515625 z m 0.09375,-0.515625 H 0.92677969 l 4.04296871,-6.1875 z m -0.09375,0.515625 v 1.4414063 c 0,0.59765621 -0.035156,0.77343746 -1.265625,0.77343746 H 3.2705297 V -5.859375e-4 C 3.9502172,-0.04746094 4.8056859,-0.04746094 5.5088109,-0.04746094 c 0.6914063,0 1.5703125,0 2.25,0.0468750025 V -0.51621094 H 7.4189672 c -1.2304688,0 -1.265625,-0.17578125 -1.265625,-0.77343746 v -1.4414063 h 1.6523437 v -0.515625 H 6.1533422 v -7.5468753 c 0,-0.328125 0,-0.433593 -0.2695313,-0.433593 -0.140625,0 -0.1992187,0 -0.328125,0.199218 l -5.08593746,7.7812503 v 0.515625 z m 0.09375,-0.515625 H 0.92677969 l 4.04296871,-6.1875 z m 0,0"
       style="fill:#000000;fill-opacity:1;fill-rule:nonzero;stroke:none"
       aria-label="44"
       transform="matrix(1.3333333,0,0,1.3333333,73.3932,387.2)" />
    <path
       id="path232"
       d="m 3707.77,492.672 117.4,-21.52"
       style="fill:none;stroke:#0000ff;stroke-width:13.875;stroke-linecap:butt;stroke-linejoin:miter;stroke-miterlimit:10;stroke-dasharray:none;stroke-opacity:1"
       transform="matrix(0.13333333,0,0,-0.13333333,0,740)" />
    <path
       id="path233"
       d="m 3707.77,492.672 117.4,-21.52"
       style="fill:none;stroke:#0000ff;stroke-width:13.875;stroke-linecap:butt;stroke-linejoin:miter;stroke-miterlimit:10;stroke-dasharray:none;stroke-opacity:1"
       transform="matrix(0.13333333,0,0,-0.13333333,0,740)" />
    <path
       id="path234"
       d="m 3393.26,3312.34 -84.39,-28.35"
       style="fill:none;stroke:#0000ff;stroke-width:13.875;stroke-linecap:butt;stroke-linejoin:miter;stroke-miterlimit:10;stroke-dasharray:none;stroke-opacity:1"
       transform="matrix(0.13333333,0,0,-0.13333333,0,740)" />
    <path
       id="path235"
       d="m 3393.26,3312.34 -84.39,-28.35"
       style="fill:none;stroke:#0000ff;stroke-width:13.875;stroke-linecap:butt;stroke-linejoin:miter;stroke-miterlimit:10;stroke-dasharray:none;stroke-opacity:1"
       transform="matrix(0.13333333,0,0,-0.13333333,0,740)" />
    <path
       id="path236"
       d="M 774.508,2747.3 661.176,2720.91"
       style="fill:none;stroke:#000000;stroke-width:13.875;stroke-linecap:butt;stroke-linejoin:miter;stroke-miterlimit:10;stroke-dasharray:none;stroke-opacity:1"
       transform="matrix(0.13333333,0,0,-0.13333333,0,740)" />
    <path
       id="path237"
       d="M 774.508,2747.3 661.176,2720.91"
       style="fill:none;stroke:#000000;stroke-width:13.875;stroke-linecap:butt;stroke-linejoin:miter;stroke-miterlimit:10;stroke-dasharray:none;stroke-opacity:1"
       transform="matrix(0.13333333,0,0,-0.13333333,0,740)" />
    <path
       id="path238"
       d="M 3308.87,3283.99 3215.21,3261"
       style="fill:none;stroke:#0000ff;stroke-width:13.875;stroke-linecap:butt;stroke-linejoin:miter;stroke-miterlimit:10;stroke-dasharray:none;stroke-opacity:1"
       transform="matrix(0.13333333,0,0,-0.13333333,0,740)" />
    <path
       id="path239"
       d="M 3308.87,3283.99 3215.21,3261"
       style="fill:none;stroke:#0000ff;stroke-width:13.875;stroke-linecap:butt;stroke-linejoin:miter;stroke-miterlimit:10;stroke-dasharray:none;stroke-opacity:1"
       transform="matrix(0.13333333,0,0,-0.13333333,0,740)" />
    <path
       id="path240"
       d="m 7.4423328,-3.3286094 c 0,-1.9804687 -1.359375,-3.6328125 -3.1523437,-3.6328125 -0.7851563,0 -1.5,0.2578125 -2.0976563,0.84375 v -3.234375 c 0.328125,0.09375 0.8789063,0.2109375 1.40625,0.2109375 2.0390625,0 3.1992188,-1.4999996 3.1992188,-1.7226566 0,-0.09375 -0.046875,-0.175781 -0.1640625,-0.175781 -0.011719,0 -0.046875,0 -0.1289063,0.04687 -0.3398437,0.152344 -1.1484375,0.480469 -2.2617187,0.480469 -0.65625,0 -1.4179688,-0.117188 -2.203125,-0.46875 -0.1289063,-0.04687 -0.1640625,-0.04687 -0.1992188,-0.04687 -0.1640625,0 -0.1640625,0.128906 -0.1640625,0.398437 v 4.9101566 c 0,0.2929688 0,0.4335938 0.234375,0.4335938 0.1171875,0 0.140625,-0.058594 0.2109375,-0.1523438 0.1875,-0.2695312 0.796875,-1.1601562 2.1445313,-1.1601562 0.8554687,0 1.2773437,0.7617187 1.40625,1.0546875 0.2695312,0.6210937 0.2929687,1.265625 0.2929687,2.0976562 0,0.5742188 0,1.5703125 -0.3984375,2.2734375 -0.3984375,0.64453127 -1.0078125,1.07812502 -1.7695312,1.07812502 -1.2070313,0 -2.15625,-0.87890625 -2.4375,-1.86328122 0.046875,0.011719 0.1054687,0.035156 0.28125,0.035156 0.5507812,0 0.8320312,-0.421875 0.8320312,-0.8085937 0,-0.3984375 -0.28125,-0.8203125 -0.8320312,-0.8203125 -0.234375,0 -0.80859379,0.1171875 -0.80859379,0.8789062 0,1.4296875 1.13671879,3.03515627 2.99999999,3.03515627 1.921875,0 3.609375,-1.59374997 3.609375,-3.69140607 z m 0,0 c 0,-1.9804687 -1.359375,-3.6328125 -3.1523437,-3.6328125 -0.7851563,0 -1.5,0.2578125 -2.0976563,0.84375 v -3.234375 c 0.328125,0.09375 0.8789063,0.2109375 1.40625,0.2109375 2.0390625,0 3.1992188,-1.4999996 3.1992188,-1.7226566 0,-0.09375 -0.046875,-0.175781 -0.1640625,-0.175781 -0.011719,0 -0.046875,0 -0.1289063,0.04687 -0.3398437,0.152344 -1.1484375,0.480469 -2.2617187,0.480469 -0.65625,0 -1.4179688,-0.117188 -2.203125,-0.46875 -0.1289063,-0.04687 -0.1640625,-0.04687 -0.1992188,-0.04687 -0.1640625,0 -0.1640625,0.128906 -0.1640625,0.398437 v 4.9101566 c 0,0.2929688 0,0.4335938 0.234375,0.4335938 0.1171875,0 0.140625,-0.058594 0.2109375,-0.1523438 0.1875,-0.2695312 0.796875,-1.1601562 2.1445313,-1.1601562 0.8554687,0 1.2773437,0.7617187 1.40625,1.0546875 0.2695312,0.6210937 0.2929687,1.265625 0.2929687,2.0976562 0,0.5742188 0,1.5703125 -0.3984375,2.2734375 -0.3984375,0.64453127 -1.0078125,1.07812502 -1.7695312,1.07812502 -1.2070313,0 -2.15625,-0.87890625 -2.4375,-1.86328122 0.046875,0.011719 0.1054687,0.035156 0.28125,0.035156 0.5507812,0 0.8320312,-0.421875 0.8320312,-0.8085937 0,-0.3984375 -0.28125,-0.8203125 -0.8320312,-0.8203125 -0.234375,0 -0.80859379,0.1171875 -0.80859379,0.8789062 0,1.4296875 1.13671879,3.03515627 2.99999999,3.03515627 1.921875,0 3.609375,-1.59374997 3.609375,-3.69140607 z m 0,0"
       style="fill:#000000;fill-opacity:1;fill-rule:nonzero;stroke:none"
       aria-label="55"
       transform="matrix(1.3333333,0,0,1.3333333,73.291733,329.80533)" />
    <path
       id="path241"
       d="M 4772.4,4659.67 3709.94,3196.62"
       style="fill:none;stroke:#0000ff;stroke-width:13.875;stroke-linecap:butt;stroke-linejoin:miter;stroke-miterlimit:10;stroke-dasharray:none;stroke-opacity:1"
       transform="matrix(0.13333333,0,0,-0.13333333,0,740)" />
    <path
       id="path242"
       d="M 4772.4,4659.67 3709.94,3196.62"
       style="fill:none;stroke:#0000ff;stroke-width:13.875;stroke-linecap:butt;stroke-linejoin:miter;stroke-miterlimit:10;stroke-dasharray:none;stroke-opacity:1"
       transform="matrix(0.13333333,0,0,-0.13333333,0,740)" />
    <path
       id="path243"
       d="M 773.746,3177.65 660.418,3151.3"
       style="fill:none;stroke:#0000ff;stroke-width:13.875;stroke-linecap:butt;stroke-linejoin:miter;stroke-miterlimit:10;stroke-dasharray:none;stroke-opacity:1"
       transform="matrix(0.13333333,0,0,-0.13333333,0,740)" />
    <path
       id="path244"
       d="M 773.746,3177.65 660.418,3151.3"
       style="fill:none;stroke:#0000ff;stroke-width:13.875;stroke-linecap:butt;stroke-linejoin:miter;stroke-miterlimit:10;stroke-dasharray:none;stroke-opacity:1"
       transform="matrix(0.13333333,0,0,-0.13333333,0,740)" />
    <path
       id="path245"
       d="m 3215.21,3261 -101.3,-16.36"
       style="fill:none;stroke:#0000ff;stroke-width:13.875;stroke-linecap:butt;stroke-linejoin:miter;stroke-miterlimit:10;stroke-dasharray:none;stroke-opacity:1"
       transform="matrix(0.13333333,0,0,-0.13333333,0,740)" />
    <path
       id="path246"
       d="m 3215.21,3261 -101.3,-16.36"
       style="fill:none;stroke:#0000ff;stroke-width:13.875;stroke-linecap:butt;stroke-linejoin:miter;stroke-miterlimit:10;stroke-dasharray:none;stroke-opacity:1"
       transform="matrix(0.13333333,0,0,-0.13333333,0,740)" />
    <path
       id="path247"
       d="m 2.1916016,-5.4373906 v -0.3984375 c 0,-4.1953129 2.0507812,-4.7929689 2.8945312,-4.7929689 0.3984375,0 1.1015625,0.09375 1.4648438,0.6679689 -0.2460938,0 -0.9140625,0 -0.9140625,0.7382812 0,0.515625 0.3984375,0.7617188 0.7617187,0.7617188 0.2695313,0 0.7617188,-0.140625 0.7617188,-0.796875 0,-0.9843749 -0.7265625,-1.7812499 -2.0976563,-1.7812499 -2.1328125,0 -4.37109374,2.1328124 -4.37109374,5.8007811 0,4.42968752 1.93359374,5.60156252 3.46875004,5.60156252 1.8398437,0 3.421875,-1.55859372 3.421875,-3.75000002 0,-2.0976562 -1.4765625,-3.6914062 -3.3164063,-3.6914062 -1.1367187,0 -1.7460937,0.84375 -2.0742187,1.640625 z m 1.96875,5.34374997 c -1.0429688,0 -1.5351563,-0.99609377 -1.640625,-1.25390627 -0.2929688,-0.7734375 -0.2929688,-2.0976562 -0.2929688,-2.4023437 0,-1.2890625 0.5273438,-2.953125 2.015625,-2.953125 0.2695313,0 1.03125,0 1.546875,1.03125 0.2929688,0.609375 0.2929688,1.4648437 0.2929688,2.2734375 0,0.796875 0,1.6289062 -0.28125,2.2265625 -0.4921875,0.98437497 -1.2539063,1.07812497 -1.640625,1.07812497 z m -1.96875,-5.34374997 v -0.3984375 c 0,-4.1953129 2.0507812,-4.7929689 2.8945312,-4.7929689 0.3984375,0 1.1015625,0.09375 1.4648438,0.6679689 -0.2460938,0 -0.9140625,0 -0.9140625,0.7382812 0,0.515625 0.3984375,0.7617188 0.7617187,0.7617188 0.2695313,0 0.7617188,-0.140625 0.7617188,-0.796875 0,-0.9843749 -0.7265625,-1.7812499 -2.0976563,-1.7812499 -2.1328125,0 -4.37109374,2.1328124 -4.37109374,5.8007811 0,4.42968752 1.93359374,5.60156252 3.46875004,5.60156252 1.8398437,0 3.421875,-1.55859372 3.421875,-3.75000002 0,-2.0976562 -1.4765625,-3.6914062 -3.3164063,-3.6914062 -1.1367187,0 -1.7460937,0.84375 -2.0742187,1.640625 z m 1.96875,5.34374997 c -1.0429688,0 -1.5351563,-0.99609377 -1.640625,-1.25390627 -0.2929688,-0.7734375 -0.2929688,-2.0976562 -0.2929688,-2.4023437 0,-1.2890625 0.5273438,-2.953125 2.015625,-2.953125 0.2695313,0 1.03125,0 1.546875,1.03125 0.2929688,0.609375 0.2929688,1.4648437 0.2929688,2.2734375 0,0.796875 0,1.6289062 -0.28125,2.2265625 -0.4921875,0.98437497 -1.2539063,1.07812497 -1.640625,1.07812497 z m 0,0"
       style="fill:#000000;fill-opacity:1;fill-rule:nonzero;stroke:none"
       aria-label="66"
       transform="matrix(1.3333333,0,0,1.3333333,73.183333,272.38267)" />
    <path
       id="path248"
       d="m 3113.91,3244.64 -107.32,-8.57"
       style="fill:none;stroke:#0000ff;stroke-width:13.875;stroke-linecap:butt;stroke-linejoin:miter;stroke-miterlimit:10;stroke-dasharray:none;stroke-opacity:1"
       transform="matrix(0.13333333,0,0,-0.13333333,0,740)" />
    <path
       id="path249"
       d="m 3113.91,3244.64 -107.32,-8.57"
       style="fill:none;stroke:#0000ff;stroke-width:13.875;stroke-linecap:butt;stroke-linejoin:miter;stroke-miterlimit:10;stroke-dasharray:none;stroke-opacity:1"
       transform="matrix(0.13333333,0,0,-0.13333333,0,740)" />
    <path
       id="path250"
       d="M 772.988,3608.38 659.605,3582.03"
       style="fill:none;stroke:#000000;stroke-width:13.875;stroke-linecap:butt;stroke-linejoin:miter;stroke-miterlimit:10;stroke-dasharray:none;stroke-opacity:1"
       transform="matrix(0.13333333,0,0,-0.13333333,0,740)" />
    <path
       id="path251"
       d="M 772.988,3608.38 659.605,3582.03"
       style="fill:none;stroke:#000000;stroke-width:13.875;stroke-linecap:butt;stroke-linejoin:miter;stroke-miterlimit:10;stroke-dasharray:none;stroke-opacity:1"
       transform="matrix(0.13333333,0,0,-0.13333333,0,740)" />
    <path
       id="path252"
       d="m 3006.59,3236.07 -111.6,0.33"
       style="fill:none;stroke:#0000ff;stroke-width:13.875;stroke-linecap:butt;stroke-linejoin:miter;stroke-miterlimit:10;stroke-dasharray:none;stroke-opacity:1"
       transform="matrix(0.13333333,0,0,-0.13333333,0,740)" />
    <path
       id="path253"
       d="m 3006.59,3236.07 -111.6,0.33"
       style="fill:none;stroke:#0000ff;stroke-width:13.875;stroke-linecap:butt;stroke-linejoin:miter;stroke-miterlimit:10;stroke-dasharray:none;stroke-opacity:1"
       transform="matrix(0.13333333,0,0,-0.13333333,0,740)" />
    <path
       id="path254"
       d="m 3707.77,492.672 2.17,2703.948"
       style="fill:none;stroke:#000000;stroke-width:13.875;stroke-linecap:butt;stroke-linejoin:miter;stroke-miterlimit:10;stroke-dasharray:none;stroke-opacity:1"
       transform="matrix(0.13333333,0,0,-0.13333333,0,740)" />
    <path
       id="path255"
       d="m 3707.77,492.672 2.17,2703.948"
       style="fill:none;stroke:#000000;stroke-width:13.875;stroke-linecap:butt;stroke-linejoin:miter;stroke-miterlimit:10;stroke-dasharray:none;stroke-opacity:1"
       transform="matrix(0.13333333,0,0,-0.13333333,0,740)" />
    <path
       id="path256"
       d="m 2894.99,3236.4 -113.97,10.13"
       style="fill:none;stroke:#0000ff;stroke-width:13.875;stroke-linecap:butt;stroke-linejoin:miter;stroke-miterlimit:10;stroke-dasharray:none;stroke-opacity:1"
       transform="matrix(0.13333333,0,0,-0.13333333,0,740)" />
    <path
       id="path257"
       d="m 2894.99,3236.4 -113.97,10.13 -114.52,20.66"
       style="fill:none;stroke:#0000ff;stroke-width:13.875;stroke-linecap:butt;stroke-linejoin:miter;stroke-miterlimit:10;stroke-dasharray:none;stroke-opacity:1"
       transform="matrix(0.13333333,0,0,-0.13333333,0,740)" />
    <path
       id="path258"
       d="m 2781.02,3246.53 -114.52,20.66 -113.18,31.76"
       style="fill:none;stroke:#0000ff;stroke-width:13.875;stroke-linecap:butt;stroke-linejoin:miter;stroke-miterlimit:10;stroke-dasharray:none;stroke-opacity:1"
       transform="matrix(0.13333333,0,0,-0.13333333,0,740)" />
    <path
       id="path259"
       d="m 2666.5,3267.19 -113.18,31.76 -109.96,43.19"
       style="fill:none;stroke:#0000ff;stroke-width:13.875;stroke-linecap:butt;stroke-linejoin:miter;stroke-miterlimit:10;stroke-dasharray:none;stroke-opacity:1"
       transform="matrix(0.13333333,0,0,-0.13333333,0,740)" />
    <path
       id="path260"
       d="m 2553.32,3298.95 -109.96,43.19 -104.88,54.96"
       style="fill:none;stroke:#0000ff;stroke-width:13.875;stroke-linecap:butt;stroke-linejoin:miter;stroke-miterlimit:10;stroke-dasharray:none;stroke-opacity:1"
       transform="matrix(0.13333333,0,0,-0.13333333,0,740)" />
    <path
       id="path261"
       d="m 2443.36,3342.14 -104.88,54.96 -98.1,66.56"
       style="fill:none;stroke:#0000ff;stroke-width:13.875;stroke-linecap:butt;stroke-linejoin:miter;stroke-miterlimit:10;stroke-dasharray:none;stroke-opacity:1"
       transform="matrix(0.13333333,0,0,-0.13333333,0,740)" />
    <path
       id="path262"
       d="m 2338.48,3397.1 -98.1,66.56"
       style="fill:none;stroke:#0000ff;stroke-width:13.875;stroke-linecap:butt;stroke-linejoin:miter;stroke-miterlimit:10;stroke-dasharray:none;stroke-opacity:1"
       transform="matrix(0.13333333,0,0,-0.13333333,0,740)" />
    <path
       id="path263"
       d="M 772.828,3730.36 3709.94,3196.62"
       style="fill:none;stroke:#000000;stroke-width:13.875;stroke-linecap:butt;stroke-linejoin:miter;stroke-miterlimit:10;stroke-dasharray:none;stroke-opacity:1"
       transform="matrix(0.13333333,0,0,-0.13333333,0,740)" />
    <path
       id="path264"
       d="M 772.828,3730.36 3709.94,3196.62"
       style="fill:none;stroke:#000000;stroke-width:13.875;stroke-linecap:butt;stroke-linejoin:miter;stroke-miterlimit:10;stroke-dasharray:none;stroke-opacity:1"
       transform="matrix(0.13333333,0,0,-0.13333333,0,740)" />
  </g>
</svg>
