<?xml version="1.0" encoding="UTF-8" standalone="no"?>
<!-- Created with Inkscape (http://www.inkscape.org/) -->

<svg
   version="1.1"
   id="svg1"
   width="200"
   height="200"
   viewBox="0 0 200 200"
   xmlns="http://www.w3.org/2000/svg"
   xmlns:svg="http://www.w3.org/2000/svg">
  <defs
     id="defs1" />
  <g
     id="g1">
    <path
       id="path1"
       d="m 225,925 2.801,4.199 2.742,4.18 2.691,4.156 2.633,4.133 2.578,4.113 2.528,4.09 2.472,4.074 2.422,4.051 2.367,4.035 2.321,4.012 2.265,3.996 2.219,3.981 2.168,3.957 2.117,3.941 2.071,3.926 2.023,3.91 1.973,3.894 1.929,3.875 1.879,3.867 1.836,3.84 1.789,3.83 1.746,3.82 1.7,3.8 1.656,3.79 1.613,3.78 1.57,3.77 1.528,3.75 1.484,3.73 1.442,3.73 1.402,3.72 1.359,3.7 1.321,3.69 1.281,3.69 1.242,3.67 1.199,3.66 1.164,3.66 1.121,3.64 1.086,3.63 1.047,3.63 1.012,3.62 0.973,3.61 0.937,3.6 0.902,3.59 0.864,3.59 0.828,3.58 0.793,3.58 0.758,3.56 0.726,3.56 0.688,3.56 0.656,3.55 0.621,3.54 0.59,3.54 0.555,3.54 0.523,3.53 0.492,3.52 0.457,3.53 0.426,3.52 0.394,3.51 0.368,3.51 0.332,3.51 0.3,3.51 0.274,3.5 0.238,3.51 0.211,3.5 0.184,3.49 0.152,3.5 0.121,3.49 0.098,3.5 0.062,3.49 0.039,3.5 0.008,3.49 -0.019,3.49 -0.047,3.5 -0.074,3.49 -0.102,3.49 -0.129,3.5 -0.156,3.5 -0.184,3.49 -0.211,3.5 -0.234,3.5 -0.262,3.51 -0.289,3.5 -0.312,3.51 -0.34,3.51 -0.363,3.51 -0.391,3.51 -0.414,3.52 -0.438,3.52 -0.464,3.53 -0.489,3.53 -0.515,3.53 -0.536,3.53 -0.562,3.55 -0.582,3.54 -0.609,3.55 -0.633,3.55 -0.657,3.56 -0.675,3.57 -0.703,3.57 -0.727,3.58 -0.746,3.58 -0.77,3.59 -0.793,3.59 -0.816,3.6 -0.836,3.61 -0.859,3.61 -0.883,3.62 -0.902,3.63 -0.926,3.63 -0.946,3.65 -0.968,3.65 -0.992,3.66 -1.012,3.66 -1.031,3.67 -1.055,3.69 -1.074,3.69 -1.094,3.7 -1.117,3.7 -1.137,3.72 -1.16,3.72 -1.176,3.74 -1.199,3.74 -1.219,3.76 -1.242,3.76 -1.258,3.77 -1.281,3.79 -1.301,3.79 -1.316,3.81 -1.34,3.81 -1.36,3.83 -1.382,3.83 -1.399,3.85 -1.418,3.86 -1.437,3.87 -1.457,3.88 -1.477,3.89 -1.496,3.91 -1.516,3.92 -1.535,3.92 -1.554,3.95 -1.571,3.95 -1.594,3.97 -1.609,3.98 -1.629,3.99 -1.648,4 -1.668,4.02 -1.688,4.04 -1.707,4.04 -1.722,4.06 -1.743,4.07 -1.761,4.09 -1.782,4.1 -1.796,4.11 -1.817,4.13 -1.836,4.15 -1.851,4.15 -1.875,4.18 -1.891,4.18 -1.91,4.21 -1.926,4.22 -1.945,4.23 -1.965,4.25 -1.981,4.27 -2.003,4.28 -2.016,4.29 -2.039,4.32 -2.055,4.33 -2.074,4.34 -2.09,4.37 -2.109,4.38 -2.129,4.39 -2.149,4.41 -2.164,4.43 -2.179,4.45 -2.203,4.47 -2.219,4.48 -2.235,4.5 -2.257,4.52 -2.274,4.54 -2.289,4.55 -2.308,4.58 -2.329,4.59 -2.343,4.6 -2.364,4.63 -2.382,4.65 -2.403,4.67 -2.418,4.68 -2.433,4.71 -2.453,4.72 -2.473,4.75 -2.492,4.77 -2.508,4.78 -2.527,4.8 -2.547,4.83 -2.563,4.84 -2.582,4.87 -2.598,4.88 -2.621,4.91 -2.636,4.93 -2.653,4.95 -2.675,4.97 -2.692,4.99 -2.707,5.01 -2.73,5.04 -2.746,5.05 -2.766,5.08 -2.785,5.1 -2.801,5.13 -2.82,5.14 -2.84,5.17 -2.8596,5.19 -2.875,5.21 -2.8984,5.24 -2.9141,5.26 -2.9336,5.28 -2.9492,5.31 -2.9727,5.33 -2.9882,5.35 -3.0079,5.38 -3.0273,5.4 -3.0469,5.43 -3.0664,5.45 -3.0859,5.47 -3.1016,5.5 -3.1211,5.53 -3.1445,5.55 -3.1602,5.57 -3.1796,5.6 -3.2032,5.62 -3.2187,5.66 -3.2383,5.67 -3.2578,5.7 -3.2774,5.74 -3.2968,5.75 -3.3164,5.78 -3.3399,5.81 -3.3555,5.83 -3.375,5.86 -3.3984,5.89 -3.41406,5.92 -3.4375,5.94 -3.457027,5.97 -3.476563,6 -3.49609,6.02 -3.51566,6.06 -3.539,6.08 -3.5547,6.11 -3.5781,6.14 -3.5977,6.16 -3.6211,6.2 -3.6406,6.23 -3.6602,6.25 -3.6797,6.28 -3.7031,6.32 -3.7226,6.34 -3.7422,6.37 -3.7657,6.4 -3.7851,6.44 -3.8047,6.46 -3.8281,6.49 -3.8516,6.52 -3.8711,6.56 -3.8906,6.58 -3.9141,6.62 -3.9375,6.65 -3.957,6.68 -3.9766,6.71 -4.0039,6.74 -4.0235,6.78 -4.043,6.81 -4.066,6.84 -4.09,6.87 -4.11,6.9 -4.136,6.94 -4.156,6.97 -4.176,7 -4.203,7.04 -4.223,7.07 -4.246,7.1 -4.27,7.14 -4.293,7.18 -4.316,7.2 -4.34,7.25 -4.359,7.27 -4.387,7.32 -4.41,7.34 -4.43,7.38 -4.457,7.42 -4.48,7.45 -4.5,7.49 -4.528,7.52 -4.55,7.56 -4.579,7.6 -4.597,7.63 -4.625,7.68 -4.649,7.7 -4.672,7.75 -4.695,7.78 -4.723,7.82 -4.746,7.86"
       style="fill:none;stroke:#ff00ff;stroke-width:10;stroke-linecap:butt;stroke-linejoin:miter;stroke-miterlimit:10;stroke-dasharray:none;stroke-opacity:1"
       transform="matrix(0.13333333,0,0,-0.13333333,0,200)" />
    <path
       id="path2"
       d="m 225,925 -2.801,-4.199 -2.855,-4.223 -2.914,-4.246 -2.969,-4.269 -3.027,-4.29 -3.086,-4.32 -3.145,-4.34 -3.207,-4.367 -3.266,-4.391 -3.328,-4.417 -3.39,-4.446 -3.449,-4.472 -3.516,-4.5 -3.578,-4.528 -3.645,-4.554 -3.711,-4.586 -3.777,-4.614 -3.844,-4.648 -3.91,-4.676 -3.98,-4.707 -4.051,-4.738 -4.117,-4.774 -4.192,-4.8 -4.265,-4.84 -4.332,-4.871 -4.411,-4.907 -4.484,-4.945 -4.559,-4.977 -4.636,-5.015 -4.715,-5.051 -4.789,-5.09 -4.871,-5.125 -4.9495,-5.168 -5.0313,-5.207 -5.1133,-5.246 -5.1953,-5.285 -5.2773,-5.332 -5.3672,-5.371 -5.4492,-5.414 -5.5391,-5.457 -5.625,-5.5 -5.7109,-5.547 -5.8047,-5.594 -5.8984,-5.64 -5.9844,-5.684 -6.0821,-5.734 -6.1757,-5.786 -6.2735,-5.832 -6.36716,-5.882 -6.46485,-5.934 -6.5664,-5.984 -6.66409,-6.036 -6.7695,-6.093 -6.8711,-6.145 -6.9727,-6.199 -7.0781,-6.254 -7.1875,-6.312 -7.293,-6.372 -7.4062,-6.429 -7.5156,-6.485 -7.625,-6.55 -7.7383,-6.606 -7.8555,-6.672 -7.9726,-6.734 -8.0855,-6.797 -8.208,-6.863 -8.328,-6.926 -8.453,-6.996 -8.57,-7.059 -8.699,-7.133 -8.828,-7.199 -8.954,-7.269 -9.082,-7.344 -9.214,-7.414 -9.348,-7.488 -9.484,-7.563 -9.618,-7.641 -9.757,-7.714 -9.895,-7.793 -10.039,-7.875 -10.184,-7.953 -10.324,-8.036 -10.473,-8.117 -10.625,-8.203 -10.773,-8.285 -10.922,-8.375 -11.082,-8.457 -11.234,-8.551 -11.395,-8.637 -11.554,-8.73 -11.719,-8.824 -11.879,-8.914 -12.047,-9.012 -12.219,-9.106 -12.386,-9.207 -12.559,-9.304 -12.734,-9.403 -12.911,-9.507 -13.089,-9.61 -13.274,-9.715 -13.457,-9.82 -13.641,-9.93 -13.832,-10.035 -14.023,-10.148 -14.215,-10.262 -14.41,-10.375 -14.609,-10.488 -14.809,-10.606 -15.016,-10.726 -15.218,-10.844 -15.426,-10.965 -15.641,-11.094 -15.851,-11.214 -16.071,-11.34 -16.289,-11.473 -16.511,-11.598 -16.735,-11.734 -16.965,-11.867 -17.191,-12.0002 -17.43,-12.1406 -17.664,-12.2813 -17.902,-12.4219 -18.149,-12.5625 -18.39,-12.707 -18.641,-12.8594 -18.894,-13.00388 -19.145,-13.15622 -19.41,-13.3086 -19.668,-13.4649 -19.93,-13.625 -20.203,-13.7812 -20.474,-13.9414 -20.75,-14.1094 -21.03,-14.2735 -21.3,-14.441 -21.6,-14.61 -21.89,-14.785 -22.18,-14.961 -22.47,-15.137 -22.78,-15.316 -23.08,-15.5 -23.39,-15.684 -23.7,-15.871 -24.03,-16.062 -24.34,-16.25 -24.66,-16.449 -24.99,-16.645 -25.33,-16.844 -25.67,-17.047 -26,-17.253 -26.36,-17.461 -26.7,-17.672 -27.06,-17.887 -27.41,-18.102 -27.79,-18.32 -28.14,-18.543 -28.53,-18.769 -28.9,-18.996 -29.29,-19.227 -29.67,-19.461 -30.07,-19.699 -30.46,-19.942 -30.87,-20.183 -31.28,-20.43 -31.68,-20.683 -32.11,-20.934 -32.54,-21.191 -32.96,-21.45 -33.4,-21.718 -33.84,-21.981 -34.28,-22.254 -34.74,-22.527 -35.2,-22.805 -35.66,-23.086 -36.13,-23.375 -36.61,-23.66 -37.09,-23.953 -37.57,-24.25 -38.07,-24.555 -38.57,-24.855 -39.09,-25.16 -39.59,-25.48 -40.11,-25.79 -40.64,-26.12 -41.18,-26.44 -41.72,-26.77 -42.26,-27.1 -42.82,-27.44 -43.38,-27.79 -43.95,-28.13 -44.53,-28.48 -45.11,-28.84 -45.71,-29.2 -46.3,-29.56 -46.91,-29.94 -47.52,-30.31 -48.15,-30.69 -48.78,-31.08 -49.41,-31.47 -50.07,-31.86 -50.72,-32.26 -51.38,-32.67 -52.05,-33.08 -52.74,-33.49 -53.43,-33.92 -54.12,-34.34 -54.83,-34.78 -55.55,-35.22 -56.28,-35.66 -57.01,-36.11 -57.75,-36.57 -58.52,-37.03 -59.27,-37.5 -60.05,-37.97 -60.83,-38.45 -61.63,-38.94 -62.43,-39.43 -63.25,-39.93 -64.07,-40.44 -64.91,-40.95 -65.76,-41.47 -66.61,-41.99 -67.48,-42.53 -68.36,-43.07 -69.26,-43.61 -70.15,-44.17 -71.07,-44.73 -72,-45.3 -72.94,-45.87 -73.88,-46.46 -74.85,-47.05 -75.83,-47.65 -76.81,-48.25 -77.81,-48.87 -78.83,-49.49 -79.85,-50.12 -80.89,-50.77 -81.95,-51.41 -83.01,-52.06 -84.09,-52.72 -85.19,-53.41 -86.3,-54.08 -87.42,-54.77 -88.55,-55.47 -89.71,-56.18 -90.88,-56.9 -92.06,-57.62 -93.25,-58.37 -94.47,-59.1 -95.7,-59.87 -96.94,-60.63 -98.2,-61.4 -99.48,-62.19 -100.78,-62.98 -102.08,-63.8 -103.41,-64.61 -104.75,-65.43 -106.12,-66.27 -107.49,-67.13 -108.89,-67.98 -110.31,-68.85 -111.74,-69.74 -113.19,-70.63 -114.66,-71.54 -116.15,-72.45 -117.66,-73.38 -119.2,-74.32 -120.73,-75.28 -122.3,-76.25 -123.9,-77.21 -125.5,-78.22 -127.13,-79.21 -128.79,-80.24 -130.45,-81.26 -132.15,-82.31 -133.87,-83.36 -135.6,-84.44 -137.35,-85.52 -139.2,-86.62 -140.9,-87.73 -142.8,-88.86 -144.6,-90 -146.5,-91.16 -148.4,-92.33 -150.4,-93.52 -152.3,-94.72 -154.2,-95.95 -156.3,-97.17 -158.3,-98.42 -160.3,-99.69 -162.5,-100.97 -164.5,-102.28 -166.7,-103.59 -168.8,-104.92 -171,-106.27 -173.3,-107.64 -175.5,-109.03 -177.7,-110.43 -180.1,-111.86 -182.4,-113.29"
       style="fill:none;stroke:#ff00ff;stroke-width:10;stroke-linecap:butt;stroke-linejoin:miter;stroke-miterlimit:10;stroke-dasharray:none;stroke-opacity:1"
       transform="matrix(0.13333333,0,0,-0.13333333,0,200)" />
    <path
       id="path3"
       d="M 46.8711,56.2617 -64.7969,0.425781 -68.8516,14.0547 l -6.3672,-26.6641 25.1524,-10.9023 -8.4688,11.4179 111.6641,55.8321 -6.2578,12.5234"
       style="fill:#000000;fill-opacity:1;fill-rule:nonzero;stroke:none"
       transform="matrix(0.13333333,0,0,-0.13333333,0,200)" />
    <path
       id="path4"
       d="m 46.5273,231.078 -108.3984,-61.941 -4.8008,13.379 -4.8828,-26.977 25.7188,-9.488 -9.0899,10.929 108.3985,61.942 -6.9454,12.156"
       style="fill:#000000;fill-opacity:1;fill-rule:nonzero;stroke:none"
       transform="matrix(0.13333333,0,0,-0.13333333,0,200)" />
    <path
       id="path5"
       d="m 46.1172,405.824 -103.8789,-69.254 -5.711,13.02 -3.0156,-27.246 26.3125,-7.699 -9.8203,10.277 103.8789,69.254 -7.7656,11.648"
       style="fill:#000000;fill-opacity:1;fill-rule:nonzero;stroke:none"
       transform="matrix(0.13333333,0,0,-0.13333333,0,200)" />
    <path
       id="path6"
       d="m 45.6289,580.465 -97.4922,-77.992 -6.8164,12.476 -0.6406,-27.406 26.8789,-5.391 -10.6758,9.391 97.4883,77.992 -8.7422,10.93"
       style="fill:#000000;fill-opacity:1;fill-rule:nonzero;stroke:none"
       transform="matrix(0.13333333,0,0,-0.13333333,0,200)" />
    <path
       id="path7"
       d="m 45.0508,754.949 -88.2813,-88.281 -8.1523,11.645 2.3867,-27.309 27.3086,-2.387 -11.6445,8.153 88.2812,88.281 -9.8984,9.898"
       style="fill:#000000;fill-opacity:1;fill-rule:nonzero;stroke:none"
       transform="matrix(0.13333333,0,0,-0.13333333,0,200)" />
    <path
       id="path8"
       d="M 44.3984,929.199 -30.5078,829.32 -40.2266,839.695 -34,813 l 27.37109,1.496 -12.67969,6.426 74.9102,99.879 -11.2032,8.398"
       style="fill:#000000;fill-opacity:1;fill-rule:nonzero;stroke:none"
       transform="matrix(0.13333333,0,0,-0.13333333,0,200)" />
    <path
       id="path9"
       d="m 43.7383,1103.13 -55.8321,-111.665 -11.4179,8.469 10.9023,-25.153 26.6641,6.367 -13.628919,4.055 55.835919,111.667 -12.5234,6.26"
       style="fill:#000000;fill-opacity:1;fill-rule:nonzero;stroke:none"
       transform="matrix(0.13333333,0,0,-0.13333333,0,200)" />
    <path
       id="path10"
       d="m 43.2109,1276.7 -30.2812,-121.12 -12.9843875,5.79 16.1015875,-22.19 24.6445,12 -14.1797,1 30.2774,121.12 -13.5782,3.4"
       style="fill:#000000;fill-opacity:1;fill-rule:nonzero;stroke:none"
       transform="matrix(0.13333333,0,0,-0.13333333,0,200)" />
    <path
       id="path11"
       d="m 43,1450 v -124.85 l -14,2.47 21,-17.62 21,17.62 -14,-2.47 V 1450 H 43"
       style="fill:#000000;fill-opacity:1;fill-rule:nonzero;stroke:none"
       transform="matrix(0.13333333,0,0,-0.13333333,0,200)" />
    <path
       id="path12"
       d="M 222.242,56.4336 107.488,7.25391 104.242,21.0938 96.3203,-5.14844 120.789,-17.5078 113.004,-5.61328 227.758,43.5664 222.242,56.4336"
       style="fill:#000000;fill-opacity:1;fill-rule:nonzero;stroke:none"
       transform="matrix(0.13333333,0,0,-0.13333333,0,200)" />
    <path
       id="path13"
       d="m 221.871,231.262 -111.668,-55.836 -4.055,13.629 -6.3667,-26.664 25.1527,-10.903 -8.469,11.418 111.664,55.832 -6.258,12.524"
       style="fill:#000000;fill-opacity:1;fill-rule:nonzero;stroke:none"
       transform="matrix(0.13333333,0,0,-0.13333333,0,200)" />
    <path
       id="path14"
       d="m 221.398,406.004 -107.054,-64.234 -5.086,13.273 -4.309,-27.074 25.918,-8.942 -9.32,10.739 107.055,64.23 -7.204,12.008"
       style="fill:#000000;fill-opacity:1;fill-rule:nonzero;stroke:none"
       transform="matrix(0.13333333,0,0,-0.13333333,0,200)" />
    <path
       id="path15"
       d="m 220.801,580.602 -99.879,-74.911 -6.426,12.68 L 113,491 l 26.695,-6.227 -10.375,9.719 99.879,74.906 -8.398,11.204"
       style="fill:#000000;fill-opacity:1;fill-rule:nonzero;stroke:none"
       transform="matrix(0.13333333,0,0,-0.13333333,0,200)" />
    <path
       id="path16"
       d="m 220.051,754.949 -88.281,-88.281 -8.153,11.645 2.387,-27.309 27.309,-2.387 -11.645,8.153 88.281,88.281 -9.898,9.898"
       style="fill:#000000;fill-opacity:1;fill-rule:nonzero;stroke:none"
       transform="matrix(0.13333333,0,0,-0.13333333,0,200)" />
    <path
       id="path17"
       d="M 219.176,928.883 157.582,836.492 147.301,846.309 155,820 l 27.246,3.012 -13.016,5.715 61.594,92.39 -11.648,7.766"
       style="fill:#000000;fill-opacity:1;fill-rule:nonzero;stroke:none"
       transform="matrix(0.13333333,0,0,-0.13333333,0,200)" />
    <path
       id="path18"
       d="m 218.359,1102.21 -30.207,-90.62 -12.504,6.77 L 190,995 l 25.496,10.07 -14.062,2.09 30.207,90.63 -13.282,4.42"
       style="fill:#000000;fill-opacity:1;fill-rule:nonzero;stroke:none"
       transform="matrix(0.13333333,0,0,-0.13333333,0,200)" />
    <path
       id="path19"
       d="m 218,1275 v -89.85 l -14,2.47 21,-17.62 21,17.62 -14,-2.47 V 1275 h -14"
       style="fill:#000000;fill-opacity:1;fill-rule:nonzero;stroke:none"
       transform="matrix(0.13333333,0,0,-0.13333333,0,200)" />
    <path
       id="path20"
       d="m 218.359,1447.79 30.207,-90.63 -14.062,-2.09 L 260,1345 l 14.352,23.36 -12.504,-6.77 -30.207,90.62 -13.282,-4.42"
       style="fill:#000000;fill-opacity:1;fill-rule:nonzero;stroke:none"
       transform="matrix(0.13333333,0,0,-0.13333333,0,200)" />
    <path
       id="path21"
       d="M 397.785,56.6406 279.348,17.1602 277.262,31.2227 267.184,5.72656 l 23.359,-14.34765 -6.77,12.5 118.442,39.48049 -4.43,13.2812"
       style="fill:#000000;fill-opacity:1;fill-rule:nonzero;stroke:none"
       transform="matrix(0.13333333,0,0,-0.13333333,0,200)" />
    <path
       id="path22"
       d="m 397.398,231.5 -115.918,-46.367 -2.906,13.914 -8.562,-26.043 24.16,-12.953 -7.488,12.082 115.918,46.367 -5.204,13"
       style="fill:#000000;fill-opacity:1;fill-rule:nonzero;stroke:none"
       transform="matrix(0.13333333,0,0,-0.13333333,0,200)" />
    <path
       id="path23"
       d="m 396.871,406.262 -111.668,-55.836 -4.055,13.629 -6.367,-26.664 25.153,-10.903 -8.469,11.418 111.664,55.832 -6.258,12.524"
       style="fill:#000000;fill-opacity:1;fill-rule:nonzero;stroke:none"
       transform="matrix(0.13333333,0,0,-0.13333333,0,200)" />
    <path
       id="path24"
       d="M 396.117,580.824 303.727,519.23 298.012,532.246 295,505 l 26.309,-7.699 -9.817,10.281 92.391,61.594 -7.766,11.648"
       style="fill:#000000;fill-opacity:1;fill-rule:nonzero;stroke:none"
       transform="matrix(0.13333333,0,0,-0.13333333,0,200)" />
    <path
       id="path25"
       d="M 395.051,754.949 335.766,695.664 327.609,707.309 330,680 l 27.309,-2.391 -11.645,8.157 59.285,59.285 -9.898,9.898"
       style="fill:#000000;fill-opacity:1;fill-rule:nonzero;stroke:none"
       transform="matrix(0.13333333,0,0,-0.13333333,0,200)" />
    <path
       id="path26"
       d="M 393.738,928.129 365.516,871.684 354.098,880.152 365,855 l 26.664,6.371 -13.625,4.051 28.223,56.449 -12.524,6.258"
       style="fill:#000000;fill-opacity:1;fill-rule:nonzero;stroke:none"
       transform="matrix(0.13333333,0,0,-0.13333333,0,200)" />
    <path
       id="path27"
       d="m 393,1100 v -54.85 l -14,2.47 21,-17.62 21,17.62 -14,-2.47 V 1100 h -14"
       style="fill:#000000;fill-opacity:1;fill-rule:nonzero;stroke:none"
       transform="matrix(0.13333333,0,0,-0.13333333,0,200)" />
    <path
       id="path28"
       d="m 393.738,1271.87 28.223,-56.45 -13.625,-4.05 26.664,-6.37 10.902,25.15 -11.418,-8.47 -28.222,56.45 -12.524,-6.26"
       style="fill:#000000;fill-opacity:1;fill-rule:nonzero;stroke:none"
       transform="matrix(0.13333333,0,0,-0.13333333,0,200)" />
    <path
       id="path29"
       d="m 395.051,1445.05 59.285,-59.28 -11.645,-8.16 27.309,2.39 2.391,27.31 -8.157,-11.65 -59.285,59.29 -9.898,-9.9"
       style="fill:#000000;fill-opacity:1;fill-rule:nonzero;stroke:none"
       transform="matrix(0.13333333,0,0,-0.13333333,0,200)" />
    <path
       id="path30"
       d="M 573.629,56.8633 451.203,32.3789 450.879,46.5898 437.719,22.543 459.117,5.40625 453.949,18.6523 576.371,43.1367 573.629,56.8633"
       style="fill:#000000;fill-opacity:1;fill-rule:nonzero;stroke:none"
       transform="matrix(0.13333333,0,0,-0.13333333,0,200)" />
    <path
       id="path31"
       d="m 573.301,231.789 -121.117,-30.277 -1,14.179 -12.004,-24.644 22.187,-16.102 -5.789,12.985 121.121,30.281 -3.398,13.578"
       style="fill:#000000;fill-opacity:1;fill-rule:nonzero;stroke:none"
       transform="matrix(0.13333333,0,0,-0.13333333,0,200)" />
    <path
       id="path32"
       d="M 572.785,406.641 482.16,376.434 480.074,390.496 470,365 l 23.359,-14.352 -6.769,12.504 90.625,30.207 -4.43,13.282"
       style="fill:#000000;fill-opacity:1;fill-rule:nonzero;stroke:none"
       transform="matrix(0.13333333,0,0,-0.13333333,0,200)" />
    <path
       id="path33"
       d="M 571.871,581.262 515.422,553.039 511.371,566.664 505,540 l 25.152,-10.902 -8.468,11.418 56.445,28.222 -6.258,12.524"
       style="fill:#000000;fill-opacity:1;fill-rule:nonzero;stroke:none"
       transform="matrix(0.13333333,0,0,-0.13333333,0,200)" />
    <path
       id="path34"
       d="M 570.051,754.949 545.766,730.664 537.609,742.309 540,715 l 27.309,-2.391 -11.645,8.157 24.285,24.285 -9.898,9.898"
       style="fill:#000000;fill-opacity:1;fill-rule:nonzero;stroke:none"
       transform="matrix(0.13333333,0,0,-0.13333333,0,200)" />
    <path
       id="path35"
       d="m 568,925 v -19.848 l -14,2.469 21,-17.621 21,17.621 -14,-2.469 V 925 h -14"
       style="fill:#000000;fill-opacity:1;fill-rule:nonzero;stroke:none"
       transform="matrix(0.13333333,0,0,-0.13333333,0,200)" />
    <path
       id="path36"
       d="m 570.051,1095.05 24.285,-24.28 -11.645,-8.16 27.309,2.39 2.391,27.31 -8.157,-11.65 -24.285,24.29 -9.898,-9.9"
       style="fill:#000000;fill-opacity:1;fill-rule:nonzero;stroke:none"
       transform="matrix(0.13333333,0,0,-0.13333333,0,200)" />
    <path
       id="path37"
       d="m 571.871,1268.74 56.445,-28.22 -8.468,-11.42 25.152,10.9 -6.371,26.66 -4.051,-13.62 -56.449,28.22 -6.258,-12.52"
       style="fill:#000000;fill-opacity:1;fill-rule:nonzero;stroke:none"
       transform="matrix(0.13333333,0,0,-0.13333333,0,200)" />
    <path
       id="path38"
       d="m 572.785,1443.36 90.625,-30.21 -6.769,-12.5 23.359,14.35 -10.074,25.5 -2.086,-14.07 -90.625,30.21 -4.43,-13.28"
       style="fill:#000000;fill-opacity:1;fill-rule:nonzero;stroke:none"
       transform="matrix(0.13333333,0,0,-0.13333333,0,200)" />
    <path
       id="path39"
       d="M 750,57 H 625.152 L 627.621,71 610,50 627.621,29 625.152,43 H 750 v 14"
       style="fill:#000000;fill-opacity:1;fill-rule:nonzero;stroke:none"
       transform="matrix(0.13333333,0,0,-0.13333333,0,200)" />
    <path
       id="path40"
       d="m 750,232 h -89.848 l 2.469,14 -17.621,-21 17.621,-21 -2.469,14 H 750 v 14"
       style="fill:#000000;fill-opacity:1;fill-rule:nonzero;stroke:none"
       transform="matrix(0.13333333,0,0,-0.13333333,0,200)" />
    <path
       id="path41"
       d="m 750,407 h -54.848 l 2.469,14 -17.621,-21 17.621,-21 -2.469,14 H 750 v 14"
       style="fill:#000000;fill-opacity:1;fill-rule:nonzero;stroke:none"
       transform="matrix(0.13333333,0,0,-0.13333333,0,200)" />
    <path
       id="path42"
       d="m 750,582 h -19.848 l 2.469,14 -17.621,-21 17.621,-21 -2.469,14 H 750 v 14"
       style="fill:#000000;fill-opacity:1;fill-rule:nonzero;stroke:none"
       transform="matrix(0.13333333,0,0,-0.13333333,0,200)" />
    <path
       id="path43"
       d="m 750,918 h 19.848 l -2.469,-14 17.621,21 -17.621,21 2.469,-14 H 750 v -14"
       style="fill:#000000;fill-opacity:1;fill-rule:nonzero;stroke:none"
       transform="matrix(0.13333333,0,0,-0.13333333,0,200)" />
    <path
       id="path44"
       d="m 750,1093 h 54.848 l -2.469,-14 17.621,21 -17.621,21 2.469,-14 H 750 v -14"
       style="fill:#000000;fill-opacity:1;fill-rule:nonzero;stroke:none"
       transform="matrix(0.13333333,0,0,-0.13333333,0,200)" />
    <path
       id="path45"
       d="m 750,1268 h 89.848 l -2.469,-14 17.621,21 -17.621,21 2.469,-14 H 750 v -14"
       style="fill:#000000;fill-opacity:1;fill-rule:nonzero;stroke:none"
       transform="matrix(0.13333333,0,0,-0.13333333,0,200)" />
    <path
       id="path46"
       d="m 750,1443 h 124.848 l -2.469,-14 17.621,21 -17.621,21 2.469,-14 H 750 v -14"
       style="fill:#000000;fill-opacity:1;fill-rule:nonzero;stroke:none"
       transform="matrix(0.13333333,0,0,-0.13333333,0,200)" />
    <path
       id="path47"
       d="M 927.215,56.6406 836.59,86.8477 843.359,99.3516 820,85 l 10.074,-25.4961 2.086,14.0625 90.625,-30.207 4.43,13.2812"
       style="fill:#000000;fill-opacity:1;fill-rule:nonzero;stroke:none"
       transform="matrix(0.13333333,0,0,-0.13333333,0,200)" />
    <path
       id="path48"
       d="m 928.129,231.262 -56.445,28.222 8.468,11.418 L 855,260 l 6.371,-26.664 4.051,13.625 56.449,-28.223 6.258,12.524"
       style="fill:#000000;fill-opacity:1;fill-rule:nonzero;stroke:none"
       transform="matrix(0.13333333,0,0,-0.13333333,0,200)" />
    <path
       id="path49"
       d="m 929.949,404.949 -24.285,24.285 11.645,8.157 L 890,435 l -2.391,-27.309 8.157,11.645 24.285,-24.285 9.898,9.898"
       style="fill:#000000;fill-opacity:1;fill-rule:nonzero;stroke:none"
       transform="matrix(0.13333333,0,0,-0.13333333,0,200)" />
    <path
       id="path50"
       d="m 932,575 v 19.848 l 14,-2.469 -21,17.621 -21,-17.621 14,2.469 V 575 h 14"
       style="fill:#000000;fill-opacity:1;fill-rule:nonzero;stroke:none"
       transform="matrix(0.13333333,0,0,-0.13333333,0,200)" />
    <path
       id="path51"
       d="m 929.949,745.051 24.285,24.285 8.157,-11.645 L 960,785 l -27.309,2.391 11.645,-8.157 -24.285,-24.285 9.898,-9.898"
       style="fill:#000000;fill-opacity:1;fill-rule:nonzero;stroke:none"
       transform="matrix(0.13333333,0,0,-0.13333333,0,200)" />
    <path
       id="path52"
       d="m 928.129,918.738 56.449,28.223 4.051,-13.625 L 995,960 l -25.152,10.902 8.468,-11.418 -56.445,-28.222 6.258,-12.524"
       style="fill:#000000;fill-opacity:1;fill-rule:nonzero;stroke:none"
       transform="matrix(0.13333333,0,0,-0.13333333,0,200)" />
    <path
       id="path53"
       d="m 927.215,1093.36 90.625,30.21 2.09,-14.07 10.07,25.5 -23.36,14.35 6.77,-12.5 -90.625,-30.21 4.43,-13.28"
       style="fill:#000000;fill-opacity:1;fill-rule:nonzero;stroke:none"
       transform="matrix(0.13333333,0,0,-0.13333333,0,200)" />
    <path
       id="path54"
       d="m 926.699,1268.21 121.121,30.28 1,-14.18 12,24.64 -22.19,16.1 5.79,-12.98 -121.119,-30.28 3.398,-13.58"
       style="fill:#000000;fill-opacity:1;fill-rule:nonzero;stroke:none"
       transform="matrix(0.13333333,0,0,-0.13333333,0,200)" />
    <path
       id="path55"
       d="m 926.371,1443.14 122.429,24.48 0.32,-14.21 13.16,24.05 -21.4,17.13 5.17,-13.24 -122.421,-24.49 2.742,-13.72"
       style="fill:#000000;fill-opacity:1;fill-rule:nonzero;stroke:none"
       transform="matrix(0.13333333,0,0,-0.13333333,0,200)" />
    <path
       id="path56"
       d="m 1104.95,54.9492 -59.29,59.2848 11.65,8.157 L 1030,120 l -2.39,-27.3086 8.16,11.6446 59.28,-59.2852 9.9,9.8984"
       style="fill:#000000;fill-opacity:1;fill-rule:nonzero;stroke:none"
       transform="matrix(0.13333333,0,0,-0.13333333,0,200)" />
    <path
       id="path57"
       d="m 1106.26,228.129 -28.22,56.449 13.62,4.051 -26.66,6.371 -10.9,-25.152 11.42,8.468 28.22,-56.445 12.52,6.258"
       style="fill:#000000;fill-opacity:1;fill-rule:nonzero;stroke:none"
       transform="matrix(0.13333333,0,0,-0.13333333,0,200)" />
    <path
       id="path58"
       d="m 1107,400 v 54.848 l 14,-2.469 -21,17.621 -21,-17.621 14,2.469 V 400 h 14"
       style="fill:#000000;fill-opacity:1;fill-rule:nonzero;stroke:none"
       transform="matrix(0.13333333,0,0,-0.13333333,0,200)" />
    <path
       id="path59"
       d="m 1106.26,571.871 28.22,56.445 11.42,-8.468 -10.9,25.152 -26.66,-6.371 13.62,-4.051 -28.22,-56.449 12.52,-6.258"
       style="fill:#000000;fill-opacity:1;fill-rule:nonzero;stroke:none"
       transform="matrix(0.13333333,0,0,-0.13333333,0,200)" />
    <path
       id="path60"
       d="m 1104.95,745.051 59.28,59.285 8.16,-11.645 -2.39,27.309 -27.31,2.391 11.65,-8.157 -59.29,-59.285 9.9,-9.898"
       style="fill:#000000;fill-opacity:1;fill-rule:nonzero;stroke:none"
       transform="matrix(0.13333333,0,0,-0.13333333,0,200)" />
    <path
       id="path61"
       d="m 1103.88,919.176 92.39,61.594 5.72,-13.016 3.01,27.246 -26.31,7.7 9.82,-10.282 -92.39,-61.594 7.76,-11.648"
       style="fill:#000000;fill-opacity:1;fill-rule:nonzero;stroke:none"
       transform="matrix(0.13333333,0,0,-0.13333333,0,200)" />
    <path
       id="path62"
       d="m 1103.13,1093.74 111.67,55.83 4.05,-13.62 6.37,26.66 -25.15,10.9 8.47,-11.42 -111.67,-55.83 6.26,-12.52"
       style="fill:#000000;fill-opacity:1;fill-rule:nonzero;stroke:none"
       transform="matrix(0.13333333,0,0,-0.13333333,0,200)" />
    <path
       id="path63"
       d="m 1102.6,1268.5 115.92,46.37 2.91,-13.92 8.56,26.05 -24.16,12.95 7.49,-12.08 -115.92,-46.37 5.2,-13"
       style="fill:#000000;fill-opacity:1;fill-rule:nonzero;stroke:none"
       transform="matrix(0.13333333,0,0,-0.13333333,0,200)" />
    <path
       id="path64"
       d="m 1102.21,1443.36 118.44,39.48 2.09,-14.06 10.08,25.49 -23.36,14.35 6.77,-12.5 -118.44,-39.48 4.42,-13.28"
       style="fill:#000000;fill-opacity:1;fill-rule:nonzero;stroke:none"
       transform="matrix(0.13333333,0,0,-0.13333333,0,200)" />
    <path
       id="path65"
       d="m 1281.64,52.2148 -30.21,90.6252 14.07,2.086 -25.5,10.074 -14.35,-23.359 12.5,6.769 30.21,-90.6248 13.28,4.4296"
       style="fill:#000000;fill-opacity:1;fill-rule:nonzero;stroke:none"
       transform="matrix(0.13333333,0,0,-0.13333333,0,200)" />
    <path
       id="path66"
       d="m 1282,225 v 89.848 l 14,-2.469 -21,17.621 -21,-17.621 14,2.469 V 225 h 14"
       style="fill:#000000;fill-opacity:1;fill-rule:nonzero;stroke:none"
       transform="matrix(0.13333333,0,0,-0.13333333,0,200)" />
    <path
       id="path67"
       d="m 1281.64,397.785 30.21,90.625 12.5,-6.769 L 1310,505 l -25.5,-10.074 14.07,-2.086 -30.21,-90.625 13.28,-4.43"
       style="fill:#000000;fill-opacity:1;fill-rule:nonzero;stroke:none"
       transform="matrix(0.13333333,0,0,-0.13333333,0,200)" />
    <path
       id="path68"
       d="m 1280.82,571.117 61.6,92.391 10.28,-9.817 -7.7,26.309 -27.25,-3.012 13.02,-5.715 -61.59,-92.39 11.64,-7.766"
       style="fill:#000000;fill-opacity:1;fill-rule:nonzero;stroke:none"
       transform="matrix(0.13333333,0,0,-0.13333333,0,200)" />
    <path
       id="path69"
       d="m 1279.95,745.051 88.28,88.281 8.15,-11.644 -2.38,27.308 -27.31,2.387 11.64,-8.153 -88.28,-88.281 9.9,-9.898"
       style="fill:#000000;fill-opacity:1;fill-rule:nonzero;stroke:none"
       transform="matrix(0.13333333,0,0,-0.13333333,0,200)" />
    <path
       id="path70"
       d="m 1279.2,919.398 99.88,74.911 6.42,-12.68 1.5,27.371 -26.7,6.23 10.38,-9.72 -99.88,-74.908 8.4,-11.204"
       style="fill:#000000;fill-opacity:1;fill-rule:nonzero;stroke:none"
       transform="matrix(0.13333333,0,0,-0.13333333,0,200)" />
    <path
       id="path71"
       d="m 1278.6,1094 107.06,64.23 5.08,-13.27 4.31,27.07 -25.91,8.94 9.31,-10.74 -107.05,-64.23 7.2,-12"
       style="fill:#000000;fill-opacity:1;fill-rule:nonzero;stroke:none"
       transform="matrix(0.13333333,0,0,-0.13333333,0,200)" />
    <path
       id="path72"
       d="m 1278.13,1268.74 111.67,55.83 4.05,-13.62 6.37,26.66 -25.15,10.9 8.47,-11.42 -111.67,-55.83 6.26,-12.52"
       style="fill:#000000;fill-opacity:1;fill-rule:nonzero;stroke:none"
       transform="matrix(0.13333333,0,0,-0.13333333,0,200)" />
    <path
       id="path73"
       d="m 1277.76,1443.57 114.75,49.18 3.25,-13.84 7.92,26.24 -24.47,12.36 7.79,-11.9 -114.76,-49.18 5.52,-12.86"
       style="fill:#000000;fill-opacity:1;fill-rule:nonzero;stroke:none"
       transform="matrix(0.13333333,0,0,-0.13333333,0,200)" />
    <path
       id="path74"
       d="m 1457,50 v 124.848 l 14,-2.469 -21,17.621 -21,-17.621 14,2.469 V 50 h 14"
       style="fill:#000000;fill-opacity:1;fill-rule:nonzero;stroke:none"
       transform="matrix(0.13333333,0,0,-0.13333333,0,200)" />
    <path
       id="path75"
       d="m 1456.79,223.301 30.28,121.121 12.98,-5.789 -16.1,22.187 -24.64,-12.004 14.18,-1 -30.28,-121.117 13.58,-3.398"
       style="fill:#000000;fill-opacity:1;fill-rule:nonzero;stroke:none"
       transform="matrix(0.13333333,0,0,-0.13333333,0,200)" />
    <path
       id="path76"
       d="m 1456.26,396.871 55.83,111.664 11.42,-8.469 -10.9,25.153 -26.66,-6.367 13.62,-4.055 -55.83,-111.668 12.52,-6.258"
       style="fill:#000000;fill-opacity:1;fill-rule:nonzero;stroke:none"
       transform="matrix(0.13333333,0,0,-0.13333333,0,200)" />
    <path
       id="path77"
       d="m 1455.6,570.801 74.91,99.879 9.72,-10.375 -6.23,26.695 -27.37,-1.496 12.68,-6.426 -74.91,-99.879 11.2,-8.398"
       style="fill:#000000;fill-opacity:1;fill-rule:nonzero;stroke:none"
       transform="matrix(0.13333333,0,0,-0.13333333,0,200)" />
    <path
       id="path78"
       d="m 1454.95,745.051 88.28,88.281 8.15,-11.644 -2.38,27.308 -27.31,2.387 11.64,-8.153 -88.28,-88.281 9.9,-9.898"
       style="fill:#000000;fill-opacity:1;fill-rule:nonzero;stroke:none"
       transform="matrix(0.13333333,0,0,-0.13333333,0,200)" />
    <path
       id="path79"
       d="m 1454.38,919.535 97.48,77.992 6.82,-12.476 0.64,27.409 -26.88,5.39 10.68,-9.39 -97.49,-77.995 8.75,-10.93"
       style="fill:#000000;fill-opacity:1;fill-rule:nonzero;stroke:none"
       transform="matrix(0.13333333,0,0,-0.13333333,0,200)" />
    <path
       id="path80"
       d="m 1453.88,1094.18 103.88,69.25 5.71,-13.02 3.02,27.25 -26.31,7.7 9.82,-10.28 -103.88,-69.26 7.76,-11.64"
       style="fill:#000000;fill-opacity:1;fill-rule:nonzero;stroke:none"
       transform="matrix(0.13333333,0,0,-0.13333333,0,200)" />
    <path
       id="path81"
       d="m 1453.47,1268.92 108.4,61.94 4.81,-13.38 4.87,26.98 -25.71,9.49 9.09,-10.93 -108.4,-61.94 6.94,-12.16"
       style="fill:#000000;fill-opacity:1;fill-rule:nonzero;stroke:none"
       transform="matrix(0.13333333,0,0,-0.13333333,0,200)" />
    <path
       id="path82"
       d="m 1453.13,1443.74 111.67,55.83 4.05,-13.62 6.37,26.66 -25.15,10.9 8.47,-11.42 -111.67,-55.83 6.26,-12.52"
       style="fill:#000000;fill-opacity:1;fill-rule:nonzero;stroke:none"
       transform="matrix(0.13333333,0,0,-0.13333333,0,200)" />
    <path
       id="path83"
       d="m 250,925 c 0,13.809 -11.191,25 -25,25 v 0 c -13.809,0 -25,-11.191 -25,-25 v 0 c 0,-13.809 11.191,-25 25,-25 v 0 c 13.809,0 25,11.191 25,25"
       style="fill:#ff0000;fill-opacity:1;fill-rule:nonzero;stroke:none"
       transform="matrix(0.13333333,0,0,-0.13333333,0,200)" />
    <path
       id="path84"
       d="m 250,925 c 0,13.809 -11.191,25 -25,25 v 0 c -13.809,0 -25,-11.191 -25,-25 v 0 c 0,-13.809 11.191,-25 25,-25 v 0 c 13.809,0 25,11.191 25,25 z"
       style="fill:none;stroke:#000000;stroke-width:10;stroke-linecap:butt;stroke-linejoin:miter;stroke-miterlimit:10;stroke-dasharray:none;stroke-opacity:1"
       transform="matrix(0.13333333,0,0,-0.13333333,0,200)" />
    <path
       id="path85"
       d="m 775,225 c 0,13.809 -11.191,25 -25,25 v 0 c -13.809,0 -25,-11.191 -25,-25 v 0 c 0,-13.809 11.191,-25 25,-25 v 0 c 13.809,0 25,11.191 25,25"
       style="fill:#ff0000;fill-opacity:1;fill-rule:nonzero;stroke:none"
       transform="matrix(0.13333333,0,0,-0.13333333,0,200)" />
    <path
       id="path86"
       d="m 775,225 c 0,13.809 -11.191,25 -25,25 v 0 c -13.809,0 -25,-11.191 -25,-25 v 0 c 0,-13.809 11.191,-25 25,-25 v 0 c 13.809,0 25,11.191 25,25 z"
       style="fill:none;stroke:#000000;stroke-width:10;stroke-linecap:butt;stroke-linejoin:miter;stroke-miterlimit:10;stroke-dasharray:none;stroke-opacity:1"
       transform="matrix(0.13333333,0,0,-0.13333333,0,200)" />
    <path
       id="path87"
       d="m 1300,750 c 0,13.809 -11.19,25 -25,25 v 0 c -13.81,0 -25,-11.191 -25,-25 v 0 c 0,-13.809 11.19,-25 25,-25 v 0 c 13.81,0 25,11.191 25,25"
       style="fill:#ff0000;fill-opacity:1;fill-rule:nonzero;stroke:none"
       transform="matrix(0.13333333,0,0,-0.13333333,0,200)" />
    <path
       id="path88"
       d="m 1300,750 c 0,13.809 -11.19,25 -25,25 v 0 c -13.81,0 -25,-11.191 -25,-25 v 0 c 0,-13.809 11.19,-25 25,-25 v 0 c 13.81,0 25,11.191 25,25 z"
       style="fill:none;stroke:#000000;stroke-width:10;stroke-linecap:butt;stroke-linejoin:miter;stroke-miterlimit:10;stroke-dasharray:none;stroke-opacity:1"
       transform="matrix(0.13333333,0,0,-0.13333333,0,200)" />
    <path
       id="path89"
       d="M 0,0 H 1500 V 1500 H 0 Z"
       style="fill:none;stroke:#000000;stroke-width:10;stroke-linecap:butt;stroke-linejoin:miter;stroke-miterlimit:10;stroke-dasharray:none;stroke-opacity:1"
       transform="matrix(0.13333333,0,0,-0.13333333,0,200)" />
  </g>
</svg>
