<?xml version="1.0" encoding="UTF-8" standalone="no"?>
<!-- Created with Inkscape (http://www.inkscape.org/) -->

<svg
   version="1.1"
   id="svg1"
   width="200"
   height="200"
   viewBox="0 0 200 200"
   xmlns="http://www.w3.org/2000/svg"
   xmlns:svg="http://www.w3.org/2000/svg">
  <defs
     id="defs1">
    <clipPath
       clipPathUnits="userSpaceOnUse"
       id="clipPath3">
      <path
         d="M 50,50 H 750 V 1450 H 50 Z"
         id="path3" />
    </clipPath>
  </defs>
  <g
     id="g1">
    <path
       id="path1"
       d="M 0,0 H 1500 V 1500 H 0 Z"
       style="fill:none;stroke:#000000;stroke-width:10;stroke-linecap:butt;stroke-linejoin:miter;stroke-miterlimit:10;stroke-dasharray:none;stroke-opacity:1"
       transform="matrix(0.13333333,0,0,-0.13333333,0,200)" />
    <path
       id="path2"
       d="m 687.191,50 -0.453,5.4688 m 0,0 -0.457,5.4687 m 0,0 -0.468,5.4688 m 0,0 -0.473,5.4687 m -0.965,10.9375 v 0 m 0,0 v 0 m 0,0 -0.492,5.4688 m 0,0 -0.5,5.4687 m 1.957,-21.875 -0.477,5.4688 m -0.488,5.4687 0.488,-5.4687 m 0,0 -0.488,5.4687 m 0,0 v 0 m -0.992,10.9375 -0.508,5.4688 m 0,0 -0.516,5.4692 m 0,0 -0.523,5.468 m 0,0 -0.531,5.469 m 0,0 -0.539,5.469 m 0,0 -0.543,5.469 m 0,0 -0.555,5.468 m 0,0 -0.566,5.469 m -0.196,1.895 -0.375,3.574 m 0.375,-3.574 0.196,-1.895 m -0.571,5.469 -0.582,5.469 m 0,0 -0.586,5.468 m 0,0 -0.601,5.469 m 0,0 -0.606,5.469 m 0,0 -0.617,5.469 m 0,0 -0.629,5.468 m 0,0 -0.637,5.469 m -0.835,7.031 -0.473,3.907 m 1.308,-10.938 -0.648,5.469 m -0.187,1.562 0.187,-1.562 m -0.66,5.469 -0.668,5.468 m 0,0 -0.68,5.469 m 0,0 -0.691,5.469 m 0,0 -0.703,5.469 m 0,0 -0.715,5.468 m 0,0 -0.727,5.469 m -6.281,43.75 v 0 m 0,0 v 0 m 0,0 -0.848,5.469 m 0,0 -0.867,5.469 m 0,0 -0.879,5.468 m 0,0 -0.894,5.469 m 0,0 -0.914,5.469 m 0,0 -0.93,5.469 m -0.137,0.804 -0.808,4.664 m 0.808,-4.664 0.137,-0.804 m -0.945,5.468 -0.965,5.469 m 13.523,-87.5 -0.738,5.469 m -0.074,0.547 -0.676,4.922 m 0.676,-4.922 0.074,-0.547 m -0.75,5.469 -0.766,5.468 m 0,0 -0.777,5.469 m 0,0 -0.793,5.469 m 0,0 -0.805,5.469 m 0,0 -0.82,5.468 m -0.832,5.469 0.832,-5.469 m 0,0 -0.832,5.469 m 0,0 v 0 m -7.242,43.75 -0.981,5.469 m 0,0 -1.004,5.469 m -1.71,9.113 -0.348,1.824 m 2.058,-10.937 -1.019,5.468 m -0.691,3.645 0.691,-3.645 m -1.039,5.469 -1.063,5.469 m 0,0 -1.082,5.469 m 0,0 -1.101,5.468 m 0,0 -1.125,5.469 m -0.75,3.598 -0.395,1.871 m 0.395,-1.871 0.75,-3.598 m -1.145,5.469 -1.168,5.469 m 0,0 -1.195,5.468 m 0,0 -1.219,5.469 m -1.492,6.563 -1.016,4.375 m 0,0 -1.293,5.468 m 0,0 -1.324,5.469 m 5.125,-21.875 -1.242,5.469 m -0.25,1.094 0.25,-1.094 M 575,575 v 0 m 61.992,-175 -1.347,5.469 m -0.489,1.953 -0.886,3.516 m 0.886,-3.516 0.489,-1.953 m -1.375,5.469 -1.411,5.468 m 0,0 -1.433,5.469 m -1.738,6.465 -1.231,4.473 m 2.969,-10.938 -1.469,5.469 m -0.269,0.996 0.269,-0.996 m -1.5,5.469 -1.531,5.468 m 0,0 -1.563,5.469 m -6.613,21.875 v 0 m 0,0 v 0 m 0,0 -1.746,5.469 m 0,0 -1.785,5.469 m 0,0 -1.828,5.468 m -0.11,0.328 -1.758,5.141 m 1.758,-5.141 0.11,-0.328 m 10.828,-34.359 -0.457,1.547 m 0.457,-1.547 1.144,-3.922 m -1.601,5.469 -1.633,5.469 m 0,0 -1.672,5.468 m -1.707,5.469 1.707,-5.469 m 0,0 -1.707,5.469 m 0,0 v 0 m -10.937,32.391 -0.153,0.422 m 3.863,-10.938 -1.91,5.469 m -1.8,5.047 1.8,-5.047 m -1.953,5.469 -2,5.468 m 0,0 -2.043,5.469 m -6.742,17.188 -1.926,4.687 m 7.395,-18.531 -0.821,2.125 m 0.821,-2.125 1.273,-3.344 m -2.094,5.469 -2.14,5.469 m 0,0 -2.192,5.468 m -0.316,0.782 0.316,-0.782 m -2.242,5.469 -2.293,5.469 m -1.25,2.922 -1.101,2.547 m 1.101,-2.547 1.25,-2.922 m -6.718,15.312 -0.497,1.094 m 4.864,-10.937 -2.403,5.468 m -1.964,4.375 1.964,-4.375 m -2.461,5.469 -2.519,5.469 m -2.453,5.203 -0.125,0.266 m 0.125,-0.266 2.453,-5.203 m -2.578,5.469 -2.641,5.468 M 575,575 l 2.703,-5.469 m 0,0 L 575,575 m 0,0 v 0 m 0,0 -2.766,5.469 m -2.703,5.219 -0.129,0.25 m 0.129,-0.25 2.703,-5.219 m -8.171,15.441 -0.528,0.965 m 5.867,-10.937 -2.902,5.468 m -2.437,4.504 2.437,-4.504 m -13.375,23.699 -2.18,3.645 m 12.59,-21.875 -3.039,5.469 m -1.902,3.359 -1.207,2.11 m 1.207,-2.11 1.902,-3.359 m -3.109,5.469 -3.184,5.468 m -1.078,1.824 1.078,-1.824 m -22.953,36.094 -1.504,2.188 m 0,0 -3.824,5.468 m -0.141,0.199 -3.765,5.27 m 3.765,-5.27 0.141,-0.199 m 21.734,-32.886 -0.047,0.074 m 0.047,-0.074 3.289,-5.395 m -3.336,5.469 -3.41,5.469 m -2.011,3.167 -1.481,2.301 m 0,0 -3.57,5.469 m 5.051,-7.77 2.011,-3.167 m -7.48,11.57 -3.239,4.836 m 3.239,-4.836 0.418,-0.633 m -5.887,8.75 2.23,-3.281 M 487.5,706.25 v 0 m 0,0 v 0 m 0,0 -4.734,5.469 m -0.735,0.836 -4.097,4.633 m 4.097,-4.633 0.735,-0.836 m -6.203,7 -3.559,3.937 m -1.91,2.09 -3.117,3.379 m 3.117,-3.379 1.91,-2.09 m 3.559,-3.937 1.371,-1.531 m -12.309,13.46 -2.77,2.946 m -2.699,2.836 -2.523,2.633 m 2.523,-2.633 2.699,-2.836 m -8.167,8.508 -2.379,2.429 m -3.09,3.133 -2.328,2.336 m 2.328,-2.336 3.09,-3.133 m 2.379,-2.429 2.945,-3.039 m 7.992,-8.415 2.352,-2.523 m 41.398,-48.723 -3.883,4.973 m 14.821,-19.531 -2.293,3.125 m -3.176,4.261 -0.91,1.208 m 0.91,-1.208 3.176,-4.261 m 2.293,-3.125 1.703,-2.344 m -8.082,10.938 -4.176,5.468 m -0.383,0.496 0.383,-0.496 m -11.32,14.266 -1.754,2.141 m 7.222,-8.934 -2.769,3.465 m 2.769,-3.465 1.586,-2.004 m -7.054,8.797 2.699,-3.328 m -8.168,9.949 -0.828,0.988 m 0.828,-0.988 3.715,-4.48 m -9.184,10.937 4.641,-5.469 m 0,0 -4.641,5.469 m 0,0 v 0 M 575,575 v 0 m 525,131.25 v 0 m -43.75,40.625 -3.14,3.125 m 25.02,-24.062 -2.36,2.187 m 13.29,-12.172 -1.37,1.235 m 6.84,-6.122 -0.73,0.653 m 0.73,-0.653 5.47,-4.816 m 0,0 v 0 m -10.94,9.703 4.74,-4.234 m -10.21,9.187 -1.91,1.75 m 1.91,-1.75 4.1,-3.718 m -9.56,8.75 3.55,-3.282 m -14.49,13.578 -2.95,2.829 m 8.42,-8.02 -2.7,2.551 m 2.7,-2.551 3.11,-2.918 m -8.58,8.109 2.77,-2.64 m -8.24,7.914 -3.09,3.023 m 3.09,-3.023 2.52,-2.445 m -7.99,7.812 2.38,-2.344 M 1275,575 v 0 m 175,-109.375 v 0 m -32.81,19.633 -3.71,2.242 m 9.18,-5.535 -0.11,0.066 m 0.11,-0.066 5.47,-3.285 m -10.94,6.578 5.36,-3.227 m 11.04,-6.629 -1.93,1.161 m 1.93,-1.161 5.47,-3.265 m 5.47,-3.262 -3.72,2.219 m 3.72,-2.219 5.47,-3.25 m 0,0 v 0 m -10.94,6.512 1.75,-1.043 m -12.68,7.586 3.53,-2.117 m -69.16,42.187 -2.51,1.563 m -8.43,5.269 -0.31,0.199 m -5.16,3.235 -3.54,2.234 m 3.54,-2.234 5.16,-3.235 m 0.31,-0.199 5.47,-3.422 m 0,0 2.96,-1.847 m -41.24,26.082 -1.96,1.261 m -3.51,2.258 -4.97,3.211 m 4.97,-3.211 3.51,-2.258 m -19.91,12.907 -5.35,3.5 m -5.59,3.683 -2.71,1.785 M 1275,575 l 5.47,-3.637 m 0,0 L 1275,575 m 5.47,-3.637 2.76,-1.832 m 2.71,-1.785 5.47,-3.601 m 0,0 0.12,-0.082 m 10.81,-7.067 -2.45,1.598 m 2.45,-1.598 5.47,-3.551 m -10.93,7.118 3.01,-1.969 m 7.92,-5.149 0.5,-0.32 m 21.38,-13.723 -4.37,2.786 m 9.84,-6.262 -1.25,0.793 m 1.25,-0.793 5.47,-3.461 m -10.94,6.937 4.22,-2.683 m -15.16,9.676 5.47,-3.504 m 0,0 1.1,-0.703 m 15.31,-9.723 1.92,-1.215 m 36.36,-22.66 -1.28,0.785 m 1.28,-0.785 5.47,-3.363 m 21.87,-13.352 -1.8,1.094 m -3.67,2.23 -5.32,3.239 m 5.32,-3.239 3.67,-2.23 m -14.61,8.902 -3.31,2.035 m 3.31,-2.035 5.47,-3.34 m -10.93,6.696 2.15,-1.321 m 8.78,-5.375 0.15,-0.093 m -22.02,13.527 -4.65,2.879 m -6.29,3.906 5.47,-3.398 m 0,0 0.82,-0.508 m 4.65,-2.879 4.19,-2.59 m 28.62,-17.5 5.47,-3.312 m 0,0 1.76,-1.063 m -231.45,152.813 -0.42,0.312 m 0.42,-0.312 5.47,-4.063 m -32.81,24.918 -1.71,1.332 m 7.18,-5.578 -0.14,0.109 m 0.14,-0.109 5.47,-4.207 m -10.94,8.453 5.33,-4.137 m 16.54,-12.621 -2.23,1.684 m -3.24,2.449 -3.96,3.02 m 3.96,-3.02 3.24,-2.449 m 2.23,-1.684 5.05,-3.785 m -15.98,12.09 1.5,-1.152 m 64.12,-46.735 -4.26,2.985 m -6.68,4.707 -1.08,0.761 m -4.39,3.121 -3.29,2.348 m 3.29,-2.348 4.39,-3.121 m 1.08,-0.761 5.47,-3.86 m 0,0 1.21,-0.847 m 26.14,-18.071 -2.44,1.664 m -3.03,2.074 -4.95,3.395 m 4.95,-3.395 3.03,-2.074 m 13.37,-9.074 -5.34,3.606 m 10.81,-7.282 -2.7,1.813 m 2.7,-1.813 L 1275,575 m 0,0 v 0 m -10.94,7.332 2.77,-1.863 m -13.7,9.273 5.46,-3.715 m 0,0 0.13,-0.089 m -22,15.085 -1.9,1.321 m 1.9,-1.321 5.47,-3.785 m -10.94,7.59 3.57,-2.484 m 7.37,-5.106 0.52,-0.363 m -44.27,31.344 -2.01,1.469 m 12.95,-9.375 -5.43,3.906 m -5.51,4 5.47,-3.969 m 0,0 0.04,-0.031 m -10.98,8 -3.99,2.937 m 3.99,-2.937 3.46,-2.531 m -8.93,6.562 1.48,-1.094 m 20.4,-14.843 2.17,-1.563 m -67.8,51.043 -4.56,3.645 m -6.38,5.156 -0.38,0.312 m -5.09,4.16 -1.58,1.309 m 1.58,-1.309 5.09,-4.16 m 0.38,-0.312 5.47,-4.426 m 0,0 0.91,-0.73 m -17.31,14.156 -2.7,2.25 m -2.77,2.328 -3.72,3.141 m 3.72,-3.141 2.77,-2.328 m -8.24,6.961 -4.64,3.976 m -6.3,5.469 5.47,-4.754 m 0,0 -5.47,4.754 m 5.47,-4.754 0.83,-0.715 m 4.64,-3.976 1.75,-1.492 m 9.19,-7.719 3.88,-3.219 m 23.46,-18.914 -3.18,2.508 m 3.18,-2.508 3.76,-2.961 m -9.23,7.293 2.29,-1.824 M 1100,706.25 v 0 M 1275,575 v 0 M 225,925 v 0 M 400,793.75 v 0 m -43.75,36.457 -2.293,1.824 m -3.176,2.508 -3.765,2.961 m 3.765,-2.961 3.176,-2.508 m 24.168,-19.625 -3.883,3.219 m 14.821,-12.43 -1.754,1.493 m 7.222,-6.184 -0.828,0.715 m 0.828,-0.715 5.469,-4.754 m 0,0 v 0 m -10.937,9.445 4.64,-3.976 m -10.109,8.609 -2.77,2.328 m 2.77,-2.328 3.715,-3.14 m -9.184,7.718 2.699,-2.25 m -19.105,15.676 -0.91,0.731 m 0.91,-0.731 5.469,-4.426 m 5.468,-4.472 -5.086,4.16 m 5.086,-4.16 1.586,-1.309 m -7.054,5.781 0.382,-0.312 m -11.32,9.113 4.559,-3.644 m -70.184,53.125 -2.18,1.562 m 24.055,-17.5 -1.48,1.094 m -3.989,2.937 -3.457,2.532 m 3.457,-2.532 3.989,-2.937 m -14.926,10.906 -0.047,0.031 m 0.047,-0.031 5.469,-3.969 m -10.938,7.907 5.422,-3.907 m 5.516,-4 2.011,-1.468 m -45.761,32.449 -0.528,0.363 m 11.465,-7.953 -3.566,2.484 m -7.371,5.106 5.468,-3.785 m 0,0 1.903,-1.321 m -23.778,16.317 -0.129,0.09 m 0.129,-0.09 5.469,-3.715 m -10.937,7.41 -2.766,1.863 M 225,925 l 5.469,-3.656 m 0,0 L 225,925 m 5.469,-3.656 2.703,-1.813 m 2.766,-1.863 5.339,-3.605 m 11.067,-7.543 -3.031,2.074 m 3.031,-2.074 4.941,-3.395 m -10.41,7.133 2.438,-1.664 m 24.906,-17.254 -1.207,0.848 m 1.207,-0.848 5.469,-3.86 m 5.468,-3.882 -4.39,3.121 m 4.39,-3.121 3.289,-2.348 m -8.757,6.23 1.078,-0.761 m -12.016,8.453 4.262,-2.984 m 61.363,-44.903 -1.504,1.153 m -9.433,7.152 -5.051,3.785 m 10.519,-7.918 -3.238,2.449 m 3.238,-2.449 3.965,-3.019 m -9.433,7.152 2.23,-1.684 m 19.645,-15.074 -5.329,4.137 m -5.609,4.316 5.469,-4.207 m 0,0 0.14,-0.109 m 5.329,-4.137 1.703,-1.332 m -34.516,26.25 5.469,-4.062 m 0,0 0.418,-0.313 m -230.1057,152.065 -1.7579,1.06 m 1.7579,-1.06 5.4687,-3.31 m 32.813,-20.095 -4.196,2.59 m 9.664,-5.977 -0.82,0.508 m 0.82,-0.508 5.469,-3.398 m -10.937,6.785 4.648,-2.879 m -26.523,16.314 -0.153,0.09 m 11.09,-6.787 -2.152,1.321 m -8.785,5.376 5.468,-3.341 m 0,0 3.317,-2.035 m -14.2542,8.706 -3.668,2.23 m 3.668,-2.23 5.3162,-3.24 m -10.785,6.57 1.8008,-1.1 m 20.0742,-12.257 5.469,-3.363 m 0,0 1.273,-0.785 m 37.008,-23.09 -1.926,1.215 m 18.332,-11.641 -1.101,0.704 m 1.101,-0.704 5.469,-3.504 m -10.937,6.993 -4.219,2.683 m -6.719,4.254 5.469,-3.461 m 0,0 1.25,-0.793 m 4.219,-2.683 4.367,-2.785 m 17.508,-11.258 -0.497,0.32 m 11.434,-7.437 -3.016,1.968 m -7.921,5.149 5.468,-3.551 m 0,0 2.453,-1.598 m 8.485,-5.551 -0.125,0.083 m 0.125,-0.083 5.469,-3.601 m 5.468,-3.617 -2.765,1.832 m 2.765,-1.832 L 225,925 m 0,0 v 0 m -10.937,7.254 2.703,-1.785 m -13.641,8.969 5.344,-3.5 m -21.75,14.148 -3.504,2.258 m 3.504,-2.258 4.972,-3.211 m -10.441,6.73 1.965,-1.261 m -40.246,25.496 -2.961,1.848 m 2.961,-1.848 5.469,-3.422 m 5.468,-3.434 -5.152,3.235 m 5.152,-3.235 3.543,-2.234 m -9.011,5.668 0.316,-0.199 m -11.254,7.031 2.508,-1.562 m -68.133,41.632 -3.5312,2.12 m -7.4063,4.42 -1.7461,1.05 m -9.1914,5.47 5.4688,-3.25 m 0,0 -5.4688,3.25 m 5.4688,-3.25 3.7226,-2.22 m 1.7461,-1.05 5.4688,-3.26 m 0,0 1.9375,-1.16 m 14.4687,-8.7 -5.3594,3.23 m -5.5781,3.35 5.4688,-3.28 m 0,0 0.1093,-0.07 m 5.3594,-3.23 3.7109,-2.24 M 50,1034.38 v 0 M 225,925 v 0 m 218.75,-171.875 -2.379,2.344 m -3.09,3.023 -2.523,2.446 m 2.523,-2.446 3.09,-3.023 m -8.558,8.297 -2.77,2.64 m -2.699,2.551 -3.117,2.918 m 3.117,-2.918 2.699,-2.551 m 2.77,-2.64 2.945,-2.828 m -13.883,13.125 -3.559,3.281 m -1.91,1.75 -4.097,3.719 m 4.097,-3.719 1.91,-1.75 m -7.378,6.703 -4.735,4.234 m -6.203,5.469 5.469,-4.816 m 0,0 -5.469,4.816 m 5.469,-4.816 0.734,-0.653 m 4.735,-4.234 1.371,-1.234 m 9.566,-8.75 2.352,-2.188 M 443.75,753.125 446.891,750 M 400,793.75 v 0 M 925,925 v 0 m 87.5,-131.25 v 0 m 0,0 v 0 m 0,0 -4.64,5.469 m -0.83,0.988 -3.71,4.481 m 3.71,-4.481 0.83,-0.988 m -6.3,7.609 -2.697,3.328 m -2.769,3.465 -1.586,2.004 m 1.586,-2.004 2.769,-3.465 m 2.697,-3.328 1.76,-2.14 m -12.695,15.91 -0.383,0.496 m 0,0 -4.176,5.469 m -6.378,8.593 -1.704,2.344 m 7.172,-9.73 -3.176,4.261 m 3.176,-4.261 0.91,-1.207 m -6.378,8.593 2.292,-3.125 m 8.645,-11.433 3.883,-4.973 m 39.872,-46.273 -2.36,2.523 m 13.29,-13.977 -2.94,3.04 m 8.41,-8.602 -3.09,3.133 m 3.09,-3.133 2.33,-2.336 m -7.8,7.898 2.38,-2.429 m -7.85,8.101 -2.7,2.836 m 2.7,-2.836 2.53,-2.632 m -7.99,8.414 2.76,-2.946 m -13.7,14.875 -1.37,1.532 m 6.84,-7.559 -1.91,2.09 m 1.91,-2.09 3.11,-3.379 m -8.58,9.406 3.56,-3.937 m -9.03,10.101 -0.74,0.836 m 0.74,-0.836 4.1,-4.632 m -9.57,10.937 4.73,-5.469 m 0,0 -4.73,5.469 m 0,0 v 0 m -43.75,56.875 -2.23,3.281 m -3.239,4.836 -0.418,0.633 m 0.418,-0.633 3.239,-4.836 m -8.707,13.239 -2.012,3.168 m 7.062,-10.938 -3.57,5.469 m -1.48,2.301 1.48,-2.301 m -3.492,5.469 -3.41,5.468 m -0.047,0.074 -3.289,5.395 m 3.289,-5.395 0.047,-0.074 m 21.828,-33.011 -0.141,0.199 m 0.141,-0.199 3.765,-5.27 m -3.906,5.469 -3.824,5.469 m -1.504,2.187 1.504,-2.187 m -23.379,36.457 -1.078,1.824 m 0,0 -3.184,5.469 m -1.207,2.109 -1.902,3.359 m 1.902,-3.359 1.207,-2.109 m -3.109,5.468 -3.039,5.469 m 10.41,-18.23 2.18,-3.645 m -13.117,22.84 -2.438,4.504 m 0,0 -2.902,5.469 m 5.34,-9.973 0.527,-0.965 m -5.996,11.188 -2.703,5.218 m 2.703,-5.218 0.129,-0.25 M 925,925 l 2.766,-5.469 m 0,0 L 925,925 m 0,0 v 0 m 0,0 -2.703,5.469 m 0,0 -2.641,5.469 m -0.125,0.265 -2.453,5.203 m 2.453,-5.203 0.125,-0.265 m -2.578,5.468 -2.519,5.469 m -0.496,1.094 -1.965,4.375 m 0,0 -2.403,5.469 m 4.368,-9.844 0.496,-1.094 m -5.965,13.484 -1.25,2.922 m 1.25,-2.922 1.101,-2.546 m -2.351,5.468 -2.293,5.469 m -1.926,4.688 -0.316,0.781 m 0,0 -2.192,5.469 m 0,0 -2.14,5.468 m -0.821,2.125 -1.273,3.344 m 1.273,-3.344 0.821,-2.125 m 4.648,-11.718 1.926,-4.688 m -8.668,21.875 -2.043,5.469 m 0,0 -2,5.466 m -0.152,0.42 -1.801,5.05 m 0,0 -1.91,5.47 m 3.711,-10.52 0.152,-0.42 m -11.09,32.82 v 0 m 0,0 v 0 m 0,0 -1.707,5.46 m 0,0 -1.672,5.47 m 0,0 -1.633,5.47 m -0.457,1.55 -1.144,3.92 m 1.144,-3.92 0.457,-1.55 m 10.481,-33.14 -0.11,0.33 m 0.11,-0.33 1.758,-5.14 m -1.868,5.47 -1.828,5.47 m 0,0 -1.785,5.47 m -1.746,5.47 1.746,-5.47 m 0,0 -1.746,5.47 m 0,0 v 0 m -6.613,21.87 -1.563,5.47 m 0,0 -1.531,5.47 m -1.23,4.47 -0.27,1 m 0,0 -1.469,5.47 m 1.739,-6.47 1.23,-4.47 m -2.969,10.94 -1.433,5.46 m 0,0 -1.407,5.47 m -0.89,3.52 -0.489,1.95 m 0.489,-1.95 0.89,-3.52 m -1.379,5.47 -1.347,5.47 M 925,925 v 0 m -65.625,190.31 -0.25,1.1 m 0,0 -1.242,5.47 m 5.125,-21.88 -1.324,5.47 m 0,0 -1.293,5.47 m -1.016,4.37 1.016,-4.37 m -2.508,10.94 -1.219,5.46 m 0,0 -1.195,5.47 m 0,0 -1.168,5.47 m -0.395,1.87 -0.75,3.6 m 0.75,-3.6 0.395,-1.87 m -1.145,5.47 -1.125,5.47 m 0,0 -1.101,5.47 m 0,0 -1.082,5.47 m 0,0 -1.063,5.47 m -0.347,1.82 -0.692,3.64 m 0,0 -1.019,5.47 m 1.711,-9.11 0.347,-1.82 m -2.058,10.93 -1.004,5.47 m 0,0 -0.981,5.47 m -7.242,43.75 v 0 m 0,0 v 0 m 0,0 -0.832,5.47 m 0,0 -0.82,5.47 m 0,0 -0.805,5.47 m 0,0 -0.793,5.47 m 0,0 -0.777,5.46 m 0,0 -0.766,5.47 m -0.676,4.92 -0.074,0.55 m 0.074,-0.55 0.676,-4.92 m -0.75,5.47 -0.738,5.47 m 13.523,-87.5 -0.965,5.47 m -0.808,4.66 -0.137,0.81 m 0.137,-0.81 0.808,-4.66 m -0.945,5.47 -0.93,5.47 m 0,0 -0.914,5.47 m 0,0 -0.894,5.46 m 0,0 -0.879,5.47 m 0,0 -0.867,5.47 m -0.848,5.47 0.848,-5.47 m 0,0 -0.848,5.47 m 0,0 v 0 m -6.281,43.75 -0.727,5.47 m 0,0 -0.715,5.47 m 0,0 -0.703,5.47 m 0,0 -0.691,5.47 m 0,0 -0.68,5.46 m 0,0 -0.668,5.47 m -0.472,3.91 -0.188,1.56 m 0,0 -0.648,5.47 m 0.836,-7.03 0.472,-3.91 m -1.308,10.94 -0.637,5.47 m 0,0 -0.629,5.47 m 0,0 -0.617,5.47 m 0,0 -0.606,5.47 m 0,0 -0.601,5.46 m 0,0 -0.586,5.47 m 0,0 -0.582,5.47 m -0.375,3.58 -0.196,1.89 m 0.196,-1.89 0.375,-3.58 m -0.571,5.47 -0.566,5.47 m 0,0 -0.555,5.47 m 0,0 -0.543,5.47 m 0,0 -0.539,5.47 m 0,0 -0.531,5.46 m 0,0 -0.523,5.47 m 0,0 -0.516,5.47 m 0,0 -0.508,5.47 m -0.992,10.94 v 0 m 0,0 v 0 m 0,0 -0.484,5.47 m 0,0 -0.481,5.47 m 1.957,-21.88 -0.5,5.47 m -0.492,5.47 0.492,-5.47 m 0,0 -0.492,5.47 m 0,0 v 0 m -0.965,10.94 -0.472,5.46 m 0,0 -0.469,5.47 m 0,0 -0.457,5.47 m 0,0 -0.453,5.47"
       style="fill:none;stroke:#0000ff;stroke-width:10;stroke-linecap:butt;stroke-linejoin:miter;stroke-miterlimit:10;stroke-dasharray:none;stroke-opacity:1"
       transform="matrix(0.13333333,0,0,-0.13333333,0,200)"
       clip-path="url(#clipPath3)" />
    <path
       id="path4"
       d="M 46.8711,56.2617 -64.7969,0.425781 -68.8516,14.0547 l -6.3672,-26.6641 25.1524,-10.9023 -8.4688,11.4179 111.6641,55.8321 -6.2578,12.5234"
       style="fill:#000000;fill-opacity:1;fill-rule:nonzero;stroke:none"
       transform="matrix(0.13333333,0,0,-0.13333333,0,200)" />
    <path
       id="path5"
       d="m 46.5273,231.078 -108.3984,-61.941 -4.8008,13.379 -4.8828,-26.977 25.7188,-9.488 -9.0899,10.929 108.3985,61.942 -6.9454,12.156"
       style="fill:#000000;fill-opacity:1;fill-rule:nonzero;stroke:none"
       transform="matrix(0.13333333,0,0,-0.13333333,0,200)" />
    <path
       id="path6"
       d="m 46.1172,405.824 -103.8789,-69.254 -5.711,13.02 -3.0156,-27.246 26.3125,-7.699 -9.8203,10.277 103.8789,69.254 -7.7656,11.648"
       style="fill:#000000;fill-opacity:1;fill-rule:nonzero;stroke:none"
       transform="matrix(0.13333333,0,0,-0.13333333,0,200)" />
    <path
       id="path7"
       d="m 45.6289,580.465 -97.4922,-77.992 -6.8164,12.476 -0.6406,-27.406 26.8789,-5.391 -10.6758,9.391 97.4883,77.992 -8.7422,10.93"
       style="fill:#000000;fill-opacity:1;fill-rule:nonzero;stroke:none"
       transform="matrix(0.13333333,0,0,-0.13333333,0,200)" />
    <path
       id="path8"
       d="m 45.0508,754.949 -88.2813,-88.281 -8.1523,11.645 2.3867,-27.309 27.3086,-2.387 -11.6445,8.153 88.2812,88.281 -9.8984,9.898"
       style="fill:#000000;fill-opacity:1;fill-rule:nonzero;stroke:none"
       transform="matrix(0.13333333,0,0,-0.13333333,0,200)" />
    <path
       id="path9"
       d="M 44.3984,929.199 -30.5078,829.32 -40.2266,839.695 -34,813 l 27.37109,1.496 -12.67969,6.426 74.9102,99.879 -11.2032,8.398"
       style="fill:#000000;fill-opacity:1;fill-rule:nonzero;stroke:none"
       transform="matrix(0.13333333,0,0,-0.13333333,0,200)" />
    <path
       id="path10"
       d="m 43.7383,1103.13 -55.8321,-111.665 -11.4179,8.469 10.9023,-25.153 26.6641,6.367 -13.628919,4.055 55.835919,111.667 -12.5234,6.26"
       style="fill:#000000;fill-opacity:1;fill-rule:nonzero;stroke:none"
       transform="matrix(0.13333333,0,0,-0.13333333,0,200)" />
    <path
       id="path11"
       d="m 43.2109,1276.7 -30.2812,-121.12 -12.9843875,5.79 16.1015875,-22.19 24.6445,12 -14.1797,1 30.2774,121.12 -13.5782,3.4"
       style="fill:#000000;fill-opacity:1;fill-rule:nonzero;stroke:none"
       transform="matrix(0.13333333,0,0,-0.13333333,0,200)" />
    <path
       id="path12"
       d="m 43,1450 v -124.85 l -14,2.47 21,-17.62 21,17.62 -14,-2.47 V 1450 H 43"
       style="fill:#000000;fill-opacity:1;fill-rule:nonzero;stroke:none"
       transform="matrix(0.13333333,0,0,-0.13333333,0,200)" />
    <path
       id="path13"
       d="M 222.242,56.4336 107.488,7.25391 104.242,21.0938 96.3203,-5.14844 120.789,-17.5078 113.004,-5.61328 227.758,43.5664 222.242,56.4336"
       style="fill:#000000;fill-opacity:1;fill-rule:nonzero;stroke:none"
       transform="matrix(0.13333333,0,0,-0.13333333,0,200)" />
    <path
       id="path14"
       d="m 221.871,231.262 -111.668,-55.836 -4.055,13.629 -6.3667,-26.664 25.1527,-10.903 -8.469,11.418 111.664,55.832 -6.258,12.524"
       style="fill:#000000;fill-opacity:1;fill-rule:nonzero;stroke:none"
       transform="matrix(0.13333333,0,0,-0.13333333,0,200)" />
    <path
       id="path15"
       d="m 221.398,406.004 -107.054,-64.234 -5.086,13.273 -4.309,-27.074 25.918,-8.942 -9.32,10.739 107.055,64.23 -7.204,12.008"
       style="fill:#000000;fill-opacity:1;fill-rule:nonzero;stroke:none"
       transform="matrix(0.13333333,0,0,-0.13333333,0,200)" />
    <path
       id="path16"
       d="m 220.801,580.602 -99.879,-74.911 -6.426,12.68 L 113,491 l 26.695,-6.227 -10.375,9.719 99.879,74.906 -8.398,11.204"
       style="fill:#000000;fill-opacity:1;fill-rule:nonzero;stroke:none"
       transform="matrix(0.13333333,0,0,-0.13333333,0,200)" />
    <path
       id="path17"
       d="m 220.051,754.949 -88.281,-88.281 -8.153,11.645 2.387,-27.309 27.309,-2.387 -11.645,8.153 88.281,88.281 -9.898,9.898"
       style="fill:#000000;fill-opacity:1;fill-rule:nonzero;stroke:none"
       transform="matrix(0.13333333,0,0,-0.13333333,0,200)" />
    <path
       id="path18"
       d="M 219.176,928.883 157.582,836.492 147.301,846.309 155,820 l 27.246,3.012 -13.016,5.715 61.594,92.39 -11.648,7.766"
       style="fill:#000000;fill-opacity:1;fill-rule:nonzero;stroke:none"
       transform="matrix(0.13333333,0,0,-0.13333333,0,200)" />
    <path
       id="path19"
       d="m 218.359,1102.21 -30.207,-90.62 -12.504,6.77 L 190,995 l 25.496,10.07 -14.062,2.09 30.207,90.63 -13.282,4.42"
       style="fill:#000000;fill-opacity:1;fill-rule:nonzero;stroke:none"
       transform="matrix(0.13333333,0,0,-0.13333333,0,200)" />
    <path
       id="path20"
       d="m 218,1275 v -89.85 l -14,2.47 21,-17.62 21,17.62 -14,-2.47 V 1275 h -14"
       style="fill:#000000;fill-opacity:1;fill-rule:nonzero;stroke:none"
       transform="matrix(0.13333333,0,0,-0.13333333,0,200)" />
    <path
       id="path21"
       d="m 218.359,1447.79 30.207,-90.63 -14.062,-2.09 L 260,1345 l 14.352,23.36 -12.504,-6.77 -30.207,90.62 -13.282,-4.42"
       style="fill:#000000;fill-opacity:1;fill-rule:nonzero;stroke:none"
       transform="matrix(0.13333333,0,0,-0.13333333,0,200)" />
    <path
       id="path22"
       d="M 397.785,56.6406 279.348,17.1602 277.262,31.2227 267.184,5.72656 l 23.359,-14.34765 -6.77,12.5 118.442,39.48049 -4.43,13.2812"
       style="fill:#000000;fill-opacity:1;fill-rule:nonzero;stroke:none"
       transform="matrix(0.13333333,0,0,-0.13333333,0,200)" />
    <path
       id="path23"
       d="m 397.398,231.5 -115.918,-46.367 -2.906,13.914 -8.562,-26.043 24.16,-12.953 -7.488,12.082 115.918,46.367 -5.204,13"
       style="fill:#000000;fill-opacity:1;fill-rule:nonzero;stroke:none"
       transform="matrix(0.13333333,0,0,-0.13333333,0,200)" />
    <path
       id="path24"
       d="m 396.871,406.262 -111.668,-55.836 -4.055,13.629 -6.367,-26.664 25.153,-10.903 -8.469,11.418 111.664,55.832 -6.258,12.524"
       style="fill:#000000;fill-opacity:1;fill-rule:nonzero;stroke:none"
       transform="matrix(0.13333333,0,0,-0.13333333,0,200)" />
    <path
       id="path25"
       d="M 396.117,580.824 303.727,519.23 298.012,532.246 295,505 l 26.309,-7.699 -9.817,10.281 92.391,61.594 -7.766,11.648"
       style="fill:#000000;fill-opacity:1;fill-rule:nonzero;stroke:none"
       transform="matrix(0.13333333,0,0,-0.13333333,0,200)" />
    <path
       id="path26"
       d="M 395.051,754.949 335.766,695.664 327.609,707.309 330,680 l 27.309,-2.391 -11.645,8.157 59.285,59.285 -9.898,9.898"
       style="fill:#000000;fill-opacity:1;fill-rule:nonzero;stroke:none"
       transform="matrix(0.13333333,0,0,-0.13333333,0,200)" />
    <path
       id="path27"
       d="M 393.738,928.129 365.516,871.684 354.098,880.152 365,855 l 26.664,6.371 -13.625,4.051 28.223,56.449 -12.524,6.258"
       style="fill:#000000;fill-opacity:1;fill-rule:nonzero;stroke:none"
       transform="matrix(0.13333333,0,0,-0.13333333,0,200)" />
    <path
       id="path28"
       d="m 393,1100 v -54.85 l -14,2.47 21,-17.62 21,17.62 -14,-2.47 V 1100 h -14"
       style="fill:#000000;fill-opacity:1;fill-rule:nonzero;stroke:none"
       transform="matrix(0.13333333,0,0,-0.13333333,0,200)" />
    <path
       id="path29"
       d="m 393.738,1271.87 28.223,-56.45 -13.625,-4.05 26.664,-6.37 10.902,25.15 -11.418,-8.47 -28.222,56.45 -12.524,-6.26"
       style="fill:#000000;fill-opacity:1;fill-rule:nonzero;stroke:none"
       transform="matrix(0.13333333,0,0,-0.13333333,0,200)" />
    <path
       id="path30"
       d="m 395.051,1445.05 59.285,-59.28 -11.645,-8.16 27.309,2.39 2.391,27.31 -8.157,-11.65 -59.285,59.29 -9.898,-9.9"
       style="fill:#000000;fill-opacity:1;fill-rule:nonzero;stroke:none"
       transform="matrix(0.13333333,0,0,-0.13333333,0,200)" />
    <path
       id="path31"
       d="M 573.629,56.8633 451.203,32.3789 450.879,46.5898 437.719,22.543 459.117,5.40625 453.949,18.6523 576.371,43.1367 573.629,56.8633"
       style="fill:#000000;fill-opacity:1;fill-rule:nonzero;stroke:none"
       transform="matrix(0.13333333,0,0,-0.13333333,0,200)" />
    <path
       id="path32"
       d="m 573.301,231.789 -121.117,-30.277 -1,14.179 -12.004,-24.644 22.187,-16.102 -5.789,12.985 121.121,30.281 -3.398,13.578"
       style="fill:#000000;fill-opacity:1;fill-rule:nonzero;stroke:none"
       transform="matrix(0.13333333,0,0,-0.13333333,0,200)" />
    <path
       id="path33"
       d="M 572.785,406.641 482.16,376.434 480.074,390.496 470,365 l 23.359,-14.352 -6.769,12.504 90.625,30.207 -4.43,13.282"
       style="fill:#000000;fill-opacity:1;fill-rule:nonzero;stroke:none"
       transform="matrix(0.13333333,0,0,-0.13333333,0,200)" />
    <path
       id="path34"
       d="M 571.871,581.262 515.422,553.039 511.371,566.664 505,540 l 25.152,-10.902 -8.468,11.418 56.445,28.222 -6.258,12.524"
       style="fill:#000000;fill-opacity:1;fill-rule:nonzero;stroke:none"
       transform="matrix(0.13333333,0,0,-0.13333333,0,200)" />
    <path
       id="path35"
       d="M 570.051,754.949 545.766,730.664 537.609,742.309 540,715 l 27.309,-2.391 -11.645,8.157 24.285,24.285 -9.898,9.898"
       style="fill:#000000;fill-opacity:1;fill-rule:nonzero;stroke:none"
       transform="matrix(0.13333333,0,0,-0.13333333,0,200)" />
    <path
       id="path36"
       d="m 568,925 v -19.848 l -14,2.469 21,-17.621 21,17.621 -14,-2.469 V 925 h -14"
       style="fill:#000000;fill-opacity:1;fill-rule:nonzero;stroke:none"
       transform="matrix(0.13333333,0,0,-0.13333333,0,200)" />
    <path
       id="path37"
       d="m 570.051,1095.05 24.285,-24.28 -11.645,-8.16 27.309,2.39 2.391,27.31 -8.157,-11.65 -24.285,24.29 -9.898,-9.9"
       style="fill:#000000;fill-opacity:1;fill-rule:nonzero;stroke:none"
       transform="matrix(0.13333333,0,0,-0.13333333,0,200)" />
    <path
       id="path38"
       d="m 571.871,1268.74 56.445,-28.22 -8.468,-11.42 25.152,10.9 -6.371,26.66 -4.051,-13.62 -56.449,28.22 -6.258,-12.52"
       style="fill:#000000;fill-opacity:1;fill-rule:nonzero;stroke:none"
       transform="matrix(0.13333333,0,0,-0.13333333,0,200)" />
    <path
       id="path39"
       d="m 572.785,1443.36 90.625,-30.21 -6.769,-12.5 23.359,14.35 -10.074,25.5 -2.086,-14.07 -90.625,30.21 -4.43,-13.28"
       style="fill:#000000;fill-opacity:1;fill-rule:nonzero;stroke:none"
       transform="matrix(0.13333333,0,0,-0.13333333,0,200)" />
    <path
       id="path40"
       d="M 750,57 H 625.152 L 627.621,71 610,50 627.621,29 625.152,43 H 750 v 14"
       style="fill:#000000;fill-opacity:1;fill-rule:nonzero;stroke:none"
       transform="matrix(0.13333333,0,0,-0.13333333,0,200)" />
    <path
       id="path41"
       d="m 750,232 h -89.848 l 2.469,14 -17.621,-21 17.621,-21 -2.469,14 H 750 v 14"
       style="fill:#000000;fill-opacity:1;fill-rule:nonzero;stroke:none"
       transform="matrix(0.13333333,0,0,-0.13333333,0,200)" />
    <path
       id="path42"
       d="m 750,407 h -54.848 l 2.469,14 -17.621,-21 17.621,-21 -2.469,14 H 750 v 14"
       style="fill:#000000;fill-opacity:1;fill-rule:nonzero;stroke:none"
       transform="matrix(0.13333333,0,0,-0.13333333,0,200)" />
    <path
       id="path43"
       d="m 750,582 h -19.848 l 2.469,14 -17.621,-21 17.621,-21 -2.469,14 H 750 v 14"
       style="fill:#000000;fill-opacity:1;fill-rule:nonzero;stroke:none"
       transform="matrix(0.13333333,0,0,-0.13333333,0,200)" />
    <path
       id="path44"
       d="m 750,918 h 19.848 l -2.469,-14 17.621,21 -17.621,21 2.469,-14 H 750 v -14"
       style="fill:#000000;fill-opacity:1;fill-rule:nonzero;stroke:none"
       transform="matrix(0.13333333,0,0,-0.13333333,0,200)" />
    <path
       id="path45"
       d="m 750,1093 h 54.848 l -2.469,-14 17.621,21 -17.621,21 2.469,-14 H 750 v -14"
       style="fill:#000000;fill-opacity:1;fill-rule:nonzero;stroke:none"
       transform="matrix(0.13333333,0,0,-0.13333333,0,200)" />
    <path
       id="path46"
       d="m 750,1268 h 89.848 l -2.469,-14 17.621,21 -17.621,21 2.469,-14 H 750 v -14"
       style="fill:#000000;fill-opacity:1;fill-rule:nonzero;stroke:none"
       transform="matrix(0.13333333,0,0,-0.13333333,0,200)" />
    <path
       id="path47"
       d="m 750,1443 h 124.848 l -2.469,-14 17.621,21 -17.621,21 2.469,-14 H 750 v -14"
       style="fill:#000000;fill-opacity:1;fill-rule:nonzero;stroke:none"
       transform="matrix(0.13333333,0,0,-0.13333333,0,200)" />
    <path
       id="path48"
       d="M 927.215,56.6406 836.59,86.8477 843.359,99.3516 820,85 l 10.074,-25.4961 2.086,14.0625 90.625,-30.207 4.43,13.2812"
       style="fill:#000000;fill-opacity:1;fill-rule:nonzero;stroke:none"
       transform="matrix(0.13333333,0,0,-0.13333333,0,200)" />
    <path
       id="path49"
       d="m 928.129,231.262 -56.445,28.222 8.468,11.418 L 855,260 l 6.371,-26.664 4.051,13.625 56.449,-28.223 6.258,12.524"
       style="fill:#000000;fill-opacity:1;fill-rule:nonzero;stroke:none"
       transform="matrix(0.13333333,0,0,-0.13333333,0,200)" />
    <path
       id="path50"
       d="m 929.949,404.949 -24.285,24.285 11.645,8.157 L 890,435 l -2.391,-27.309 8.157,11.645 24.285,-24.285 9.898,9.898"
       style="fill:#000000;fill-opacity:1;fill-rule:nonzero;stroke:none"
       transform="matrix(0.13333333,0,0,-0.13333333,0,200)" />
    <path
       id="path51"
       d="m 932,575 v 19.848 l 14,-2.469 -21,17.621 -21,-17.621 14,2.469 V 575 h 14"
       style="fill:#000000;fill-opacity:1;fill-rule:nonzero;stroke:none"
       transform="matrix(0.13333333,0,0,-0.13333333,0,200)" />
    <path
       id="path52"
       d="m 929.949,745.051 24.285,24.285 8.157,-11.645 L 960,785 l -27.309,2.391 11.645,-8.157 -24.285,-24.285 9.898,-9.898"
       style="fill:#000000;fill-opacity:1;fill-rule:nonzero;stroke:none"
       transform="matrix(0.13333333,0,0,-0.13333333,0,200)" />
    <path
       id="path53"
       d="m 928.129,918.738 56.449,28.223 4.051,-13.625 L 995,960 l -25.152,10.902 8.468,-11.418 -56.445,-28.222 6.258,-12.524"
       style="fill:#000000;fill-opacity:1;fill-rule:nonzero;stroke:none"
       transform="matrix(0.13333333,0,0,-0.13333333,0,200)" />
    <path
       id="path54"
       d="m 927.215,1093.36 90.625,30.21 2.09,-14.07 10.07,25.5 -23.36,14.35 6.77,-12.5 -90.625,-30.21 4.43,-13.28"
       style="fill:#000000;fill-opacity:1;fill-rule:nonzero;stroke:none"
       transform="matrix(0.13333333,0,0,-0.13333333,0,200)" />
    <path
       id="path55"
       d="m 926.699,1268.21 121.121,30.28 1,-14.18 12,24.64 -22.19,16.1 5.79,-12.98 -121.119,-30.28 3.398,-13.58"
       style="fill:#000000;fill-opacity:1;fill-rule:nonzero;stroke:none"
       transform="matrix(0.13333333,0,0,-0.13333333,0,200)" />
    <path
       id="path56"
       d="m 926.371,1443.14 122.429,24.48 0.32,-14.21 13.16,24.05 -21.4,17.13 5.17,-13.24 -122.421,-24.49 2.742,-13.72"
       style="fill:#000000;fill-opacity:1;fill-rule:nonzero;stroke:none"
       transform="matrix(0.13333333,0,0,-0.13333333,0,200)" />
    <path
       id="path57"
       d="m 1104.95,54.9492 -59.29,59.2848 11.65,8.157 L 1030,120 l -2.39,-27.3086 8.16,11.6446 59.28,-59.2852 9.9,9.8984"
       style="fill:#000000;fill-opacity:1;fill-rule:nonzero;stroke:none"
       transform="matrix(0.13333333,0,0,-0.13333333,0,200)" />
    <path
       id="path58"
       d="m 1106.26,228.129 -28.22,56.449 13.62,4.051 -26.66,6.371 -10.9,-25.152 11.42,8.468 28.22,-56.445 12.52,6.258"
       style="fill:#000000;fill-opacity:1;fill-rule:nonzero;stroke:none"
       transform="matrix(0.13333333,0,0,-0.13333333,0,200)" />
    <path
       id="path59"
       d="m 1107,400 v 54.848 l 14,-2.469 -21,17.621 -21,-17.621 14,2.469 V 400 h 14"
       style="fill:#000000;fill-opacity:1;fill-rule:nonzero;stroke:none"
       transform="matrix(0.13333333,0,0,-0.13333333,0,200)" />
    <path
       id="path60"
       d="m 1106.26,571.871 28.22,56.445 11.42,-8.468 -10.9,25.152 -26.66,-6.371 13.62,-4.051 -28.22,-56.449 12.52,-6.258"
       style="fill:#000000;fill-opacity:1;fill-rule:nonzero;stroke:none"
       transform="matrix(0.13333333,0,0,-0.13333333,0,200)" />
    <path
       id="path61"
       d="m 1104.95,745.051 59.28,59.285 8.16,-11.645 -2.39,27.309 -27.31,2.391 11.65,-8.157 -59.29,-59.285 9.9,-9.898"
       style="fill:#000000;fill-opacity:1;fill-rule:nonzero;stroke:none"
       transform="matrix(0.13333333,0,0,-0.13333333,0,200)" />
    <path
       id="path62"
       d="m 1103.88,919.176 92.39,61.594 5.72,-13.016 3.01,27.246 -26.31,7.7 9.82,-10.282 -92.39,-61.594 7.76,-11.648"
       style="fill:#000000;fill-opacity:1;fill-rule:nonzero;stroke:none"
       transform="matrix(0.13333333,0,0,-0.13333333,0,200)" />
    <path
       id="path63"
       d="m 1103.13,1093.74 111.67,55.83 4.05,-13.62 6.37,26.66 -25.15,10.9 8.47,-11.42 -111.67,-55.83 6.26,-12.52"
       style="fill:#000000;fill-opacity:1;fill-rule:nonzero;stroke:none"
       transform="matrix(0.13333333,0,0,-0.13333333,0,200)" />
    <path
       id="path64"
       d="m 1102.6,1268.5 115.92,46.37 2.91,-13.92 8.56,26.05 -24.16,12.95 7.49,-12.08 -115.92,-46.37 5.2,-13"
       style="fill:#000000;fill-opacity:1;fill-rule:nonzero;stroke:none"
       transform="matrix(0.13333333,0,0,-0.13333333,0,200)" />
    <path
       id="path65"
       d="m 1102.21,1443.36 118.44,39.48 2.09,-14.06 10.08,25.49 -23.36,14.35 6.77,-12.5 -118.44,-39.48 4.42,-13.28"
       style="fill:#000000;fill-opacity:1;fill-rule:nonzero;stroke:none"
       transform="matrix(0.13333333,0,0,-0.13333333,0,200)" />
    <path
       id="path66"
       d="m 1281.64,52.2148 -30.21,90.6252 14.07,2.086 -25.5,10.074 -14.35,-23.359 12.5,6.769 30.21,-90.6248 13.28,4.4296"
       style="fill:#000000;fill-opacity:1;fill-rule:nonzero;stroke:none"
       transform="matrix(0.13333333,0,0,-0.13333333,0,200)" />
    <path
       id="path67"
       d="m 1282,225 v 89.848 l 14,-2.469 -21,17.621 -21,-17.621 14,2.469 V 225 h 14"
       style="fill:#000000;fill-opacity:1;fill-rule:nonzero;stroke:none"
       transform="matrix(0.13333333,0,0,-0.13333333,0,200)" />
    <path
       id="path68"
       d="m 1281.64,397.785 30.21,90.625 12.5,-6.769 L 1310,505 l -25.5,-10.074 14.07,-2.086 -30.21,-90.625 13.28,-4.43"
       style="fill:#000000;fill-opacity:1;fill-rule:nonzero;stroke:none"
       transform="matrix(0.13333333,0,0,-0.13333333,0,200)" />
    <path
       id="path69"
       d="m 1280.82,571.117 61.6,92.391 10.28,-9.817 -7.7,26.309 -27.25,-3.012 13.02,-5.715 -61.59,-92.39 11.64,-7.766"
       style="fill:#000000;fill-opacity:1;fill-rule:nonzero;stroke:none"
       transform="matrix(0.13333333,0,0,-0.13333333,0,200)" />
    <path
       id="path70"
       d="m 1279.95,745.051 88.28,88.281 8.15,-11.644 -2.38,27.308 -27.31,2.387 11.64,-8.153 -88.28,-88.281 9.9,-9.898"
       style="fill:#000000;fill-opacity:1;fill-rule:nonzero;stroke:none"
       transform="matrix(0.13333333,0,0,-0.13333333,0,200)" />
    <path
       id="path71"
       d="m 1279.2,919.398 99.88,74.911 6.42,-12.68 1.5,27.371 -26.7,6.23 10.38,-9.72 -99.88,-74.908 8.4,-11.204"
       style="fill:#000000;fill-opacity:1;fill-rule:nonzero;stroke:none"
       transform="matrix(0.13333333,0,0,-0.13333333,0,200)" />
    <path
       id="path72"
       d="m 1278.6,1094 107.06,64.23 5.08,-13.27 4.31,27.07 -25.91,8.94 9.31,-10.74 -107.05,-64.23 7.2,-12"
       style="fill:#000000;fill-opacity:1;fill-rule:nonzero;stroke:none"
       transform="matrix(0.13333333,0,0,-0.13333333,0,200)" />
    <path
       id="path73"
       d="m 1278.13,1268.74 111.67,55.83 4.05,-13.62 6.37,26.66 -25.15,10.9 8.47,-11.42 -111.67,-55.83 6.26,-12.52"
       style="fill:#000000;fill-opacity:1;fill-rule:nonzero;stroke:none"
       transform="matrix(0.13333333,0,0,-0.13333333,0,200)" />
    <path
       id="path74"
       d="m 1277.76,1443.57 114.75,49.18 3.25,-13.84 7.92,26.24 -24.47,12.36 7.79,-11.9 -114.76,-49.18 5.52,-12.86"
       style="fill:#000000;fill-opacity:1;fill-rule:nonzero;stroke:none"
       transform="matrix(0.13333333,0,0,-0.13333333,0,200)" />
    <path
       id="path75"
       d="m 1457,50 v 124.848 l 14,-2.469 -21,17.621 -21,-17.621 14,2.469 V 50 h 14"
       style="fill:#000000;fill-opacity:1;fill-rule:nonzero;stroke:none"
       transform="matrix(0.13333333,0,0,-0.13333333,0,200)" />
    <path
       id="path76"
       d="m 1456.79,223.301 30.28,121.121 12.98,-5.789 -16.1,22.187 -24.64,-12.004 14.18,-1 -30.28,-121.117 13.58,-3.398"
       style="fill:#000000;fill-opacity:1;fill-rule:nonzero;stroke:none"
       transform="matrix(0.13333333,0,0,-0.13333333,0,200)" />
    <path
       id="path77"
       d="m 1456.26,396.871 55.83,111.664 11.42,-8.469 -10.9,25.153 -26.66,-6.367 13.62,-4.055 -55.83,-111.668 12.52,-6.258"
       style="fill:#000000;fill-opacity:1;fill-rule:nonzero;stroke:none"
       transform="matrix(0.13333333,0,0,-0.13333333,0,200)" />
    <path
       id="path78"
       d="m 1455.6,570.801 74.91,99.879 9.72,-10.375 -6.23,26.695 -27.37,-1.496 12.68,-6.426 -74.91,-99.879 11.2,-8.398"
       style="fill:#000000;fill-opacity:1;fill-rule:nonzero;stroke:none"
       transform="matrix(0.13333333,0,0,-0.13333333,0,200)" />
    <path
       id="path79"
       d="m 1454.95,745.051 88.28,88.281 8.15,-11.644 -2.38,27.308 -27.31,2.387 11.64,-8.153 -88.28,-88.281 9.9,-9.898"
       style="fill:#000000;fill-opacity:1;fill-rule:nonzero;stroke:none"
       transform="matrix(0.13333333,0,0,-0.13333333,0,200)" />
    <path
       id="path80"
       d="m 1454.38,919.535 97.48,77.992 6.82,-12.476 0.64,27.409 -26.88,5.39 10.68,-9.39 -97.49,-77.995 8.75,-10.93"
       style="fill:#000000;fill-opacity:1;fill-rule:nonzero;stroke:none"
       transform="matrix(0.13333333,0,0,-0.13333333,0,200)" />
    <path
       id="path81"
       d="m 1453.88,1094.18 103.88,69.25 5.71,-13.02 3.02,27.25 -26.31,7.7 9.82,-10.28 -103.88,-69.26 7.76,-11.64"
       style="fill:#000000;fill-opacity:1;fill-rule:nonzero;stroke:none"
       transform="matrix(0.13333333,0,0,-0.13333333,0,200)" />
    <path
       id="path82"
       d="m 1453.47,1268.92 108.4,61.94 4.81,-13.38 4.87,26.98 -25.71,9.49 9.09,-10.93 -108.4,-61.94 6.94,-12.16"
       style="fill:#000000;fill-opacity:1;fill-rule:nonzero;stroke:none"
       transform="matrix(0.13333333,0,0,-0.13333333,0,200)" />
    <path
       id="path83"
       d="m 1453.13,1443.74 111.67,55.83 4.05,-13.62 6.37,26.66 -25.15,10.9 8.47,-11.42 -111.67,-55.83 6.26,-12.52"
       style="fill:#000000;fill-opacity:1;fill-rule:nonzero;stroke:none"
       transform="matrix(0.13333333,0,0,-0.13333333,0,200)" />
    <path
       id="path84"
       d="m 250,925 c 0,13.809 -11.191,25 -25,25 v 0 c -13.809,0 -25,-11.191 -25,-25 v 0 c 0,-13.809 11.191,-25 25,-25 v 0 c 13.809,0 25,11.191 25,25"
       style="fill:#ff0000;fill-opacity:1;fill-rule:nonzero;stroke:none"
       transform="matrix(0.13333333,0,0,-0.13333333,0,200)" />
    <path
       id="path85"
       d="m 250,925 c 0,13.809 -11.191,25 -25,25 v 0 c -13.809,0 -25,-11.191 -25,-25 v 0 c 0,-13.809 11.191,-25 25,-25 v 0 c 13.809,0 25,11.191 25,25 z"
       style="fill:none;stroke:#000000;stroke-width:10;stroke-linecap:butt;stroke-linejoin:miter;stroke-miterlimit:10;stroke-dasharray:none;stroke-opacity:1"
       transform="matrix(0.13333333,0,0,-0.13333333,0,200)" />
    <path
       id="path86"
       d="m 775,225 c 0,13.809 -11.191,25 -25,25 v 0 c -13.809,0 -25,-11.191 -25,-25 v 0 c 0,-13.809 11.191,-25 25,-25 v 0 c 13.809,0 25,11.191 25,25"
       style="fill:#ff0000;fill-opacity:1;fill-rule:nonzero;stroke:none"
       transform="matrix(0.13333333,0,0,-0.13333333,0,200)" />
    <path
       id="path87"
       d="m 775,225 c 0,13.809 -11.191,25 -25,25 v 0 c -13.809,0 -25,-11.191 -25,-25 v 0 c 0,-13.809 11.191,-25 25,-25 v 0 c 13.809,0 25,11.191 25,25 z"
       style="fill:none;stroke:#000000;stroke-width:10;stroke-linecap:butt;stroke-linejoin:miter;stroke-miterlimit:10;stroke-dasharray:none;stroke-opacity:1"
       transform="matrix(0.13333333,0,0,-0.13333333,0,200)" />
    <path
       id="path88"
       d="m 1300,750 c 0,13.809 -11.19,25 -25,25 v 0 c -13.81,0 -25,-11.191 -25,-25 v 0 c 0,-13.809 11.19,-25 25,-25 v 0 c 13.81,0 25,11.191 25,25"
       style="fill:#ff0000;fill-opacity:1;fill-rule:nonzero;stroke:none"
       transform="matrix(0.13333333,0,0,-0.13333333,0,200)" />
    <path
       id="path89"
       d="m 1300,750 c 0,13.809 -11.19,25 -25,25 v 0 c -13.81,0 -25,-11.191 -25,-25 v 0 c 0,-13.809 11.19,-25 25,-25 v 0 c 13.81,0 25,11.191 25,25 z"
       style="fill:none;stroke:#000000;stroke-width:10;stroke-linecap:butt;stroke-linejoin:miter;stroke-miterlimit:10;stroke-dasharray:none;stroke-opacity:1"
       transform="matrix(0.13333333,0,0,-0.13333333,0,200)" />
  </g>
</svg>
