<?xml version="1.0" encoding="UTF-8" standalone="no"?>
<!-- Created with Inkscape (http://www.inkscape.org/) -->

<svg
   version="1.1"
   id="svg1"
   width="200"
   height="200"
   viewBox="0 0 200 200"
   xmlns="http://www.w3.org/2000/svg"
   xmlns:svg="http://www.w3.org/2000/svg">
  <defs
     id="defs1" />
  <g
     id="g1">
    <path
       id="path1"
       d="M 0,0 H 1500 V 1500 H 0 Z"
       style="fill:none;stroke:#000000;stroke-width:10;stroke-linecap:butt;stroke-linejoin:miter;stroke-miterlimit:10;stroke-dasharray:none;stroke-opacity:1"
       transform="matrix(0.13333333,0,0,-0.13333333,0,200)" />
    <path
       id="path2"
       d="M 750,50 V 1450"
       style="fill:none;stroke:#0000ff;stroke-width:10;stroke-linecap:butt;stroke-linejoin:miter;stroke-miterlimit:10;stroke-dasharray:none;stroke-opacity:1"
       transform="matrix(0.13333333,0,0,-0.13333333,0,200)" />
    <path
       id="path3"
       d="M 46.8711,56.2617 -64.7969,0.425781 -68.8516,14.0547 l -6.3672,-26.6641 25.1524,-10.9023 -8.4688,11.4179 111.6641,55.8321 -6.2578,12.5234"
       style="fill:#000000;fill-opacity:1;fill-rule:nonzero;stroke:none"
       transform="matrix(0.13333333,0,0,-0.13333333,0,200)" />
    <path
       id="path4"
       d="m 46.5273,231.078 -108.3984,-61.941 -4.8008,13.379 -4.8828,-26.977 25.7188,-9.488 -9.0899,10.929 108.3985,61.942 -6.9454,12.156"
       style="fill:#000000;fill-opacity:1;fill-rule:nonzero;stroke:none"
       transform="matrix(0.13333333,0,0,-0.13333333,0,200)" />
    <path
       id="path5"
       d="m 46.1172,405.824 -103.8789,-69.254 -5.711,13.02 -3.0156,-27.246 26.3125,-7.699 -9.8203,10.277 103.8789,69.254 -7.7656,11.648"
       style="fill:#000000;fill-opacity:1;fill-rule:nonzero;stroke:none"
       transform="matrix(0.13333333,0,0,-0.13333333,0,200)" />
    <path
       id="path6"
       d="m 45.6289,580.465 -97.4922,-77.992 -6.8164,12.476 -0.6406,-27.406 26.8789,-5.391 -10.6758,9.391 97.4883,77.992 -8.7422,10.93"
       style="fill:#000000;fill-opacity:1;fill-rule:nonzero;stroke:none"
       transform="matrix(0.13333333,0,0,-0.13333333,0,200)" />
    <path
       id="path7"
       d="m 45.0508,754.949 -88.2813,-88.281 -8.1523,11.645 2.3867,-27.309 27.3086,-2.387 -11.6445,8.153 88.2812,88.281 -9.8984,9.898"
       style="fill:#000000;fill-opacity:1;fill-rule:nonzero;stroke:none"
       transform="matrix(0.13333333,0,0,-0.13333333,0,200)" />
    <path
       id="path8"
       d="M 44.3984,929.199 -30.5078,829.32 -40.2266,839.695 -34,813 l 27.37109,1.496 -12.67969,6.426 74.9102,99.879 -11.2032,8.398"
       style="fill:#000000;fill-opacity:1;fill-rule:nonzero;stroke:none"
       transform="matrix(0.13333333,0,0,-0.13333333,0,200)" />
    <path
       id="path9"
       d="m 43.7383,1103.13 -55.8321,-111.665 -11.4179,8.469 10.9023,-25.153 26.6641,6.367 -13.628919,4.055 55.835919,111.667 -12.5234,6.26"
       style="fill:#000000;fill-opacity:1;fill-rule:nonzero;stroke:none"
       transform="matrix(0.13333333,0,0,-0.13333333,0,200)" />
    <path
       id="path10"
       d="m 43.2109,1276.7 -30.2812,-121.12 -12.9843875,5.79 16.1015875,-22.19 24.6445,12 -14.1797,1 30.2774,121.12 -13.5782,3.4"
       style="fill:#000000;fill-opacity:1;fill-rule:nonzero;stroke:none"
       transform="matrix(0.13333333,0,0,-0.13333333,0,200)" />
    <path
       id="path11"
       d="m 43,1450 v -124.85 l -14,2.47 21,-17.62 21,17.62 -14,-2.47 V 1450 H 43"
       style="fill:#000000;fill-opacity:1;fill-rule:nonzero;stroke:none"
       transform="matrix(0.13333333,0,0,-0.13333333,0,200)" />
    <path
       id="path12"
       d="M 222.242,56.4336 107.488,7.25391 104.242,21.0938 96.3203,-5.14844 120.789,-17.5078 113.004,-5.61328 227.758,43.5664 222.242,56.4336"
       style="fill:#000000;fill-opacity:1;fill-rule:nonzero;stroke:none"
       transform="matrix(0.13333333,0,0,-0.13333333,0,200)" />
    <path
       id="path13"
       d="m 221.871,231.262 -111.668,-55.836 -4.055,13.629 -6.3667,-26.664 25.1527,-10.903 -8.469,11.418 111.664,55.832 -6.258,12.524"
       style="fill:#000000;fill-opacity:1;fill-rule:nonzero;stroke:none"
       transform="matrix(0.13333333,0,0,-0.13333333,0,200)" />
    <path
       id="path14"
       d="m 221.398,406.004 -107.054,-64.234 -5.086,13.273 -4.309,-27.074 25.918,-8.942 -9.32,10.739 107.055,64.23 -7.204,12.008"
       style="fill:#000000;fill-opacity:1;fill-rule:nonzero;stroke:none"
       transform="matrix(0.13333333,0,0,-0.13333333,0,200)" />
    <path
       id="path15"
       d="m 220.801,580.602 -99.879,-74.911 -6.426,12.68 L 113,491 l 26.695,-6.227 -10.375,9.719 99.879,74.906 -8.398,11.204"
       style="fill:#000000;fill-opacity:1;fill-rule:nonzero;stroke:none"
       transform="matrix(0.13333333,0,0,-0.13333333,0,200)" />
    <path
       id="path16"
       d="m 220.051,754.949 -88.281,-88.281 -8.153,11.645 2.387,-27.309 27.309,-2.387 -11.645,8.153 88.281,88.281 -9.898,9.898"
       style="fill:#000000;fill-opacity:1;fill-rule:nonzero;stroke:none"
       transform="matrix(0.13333333,0,0,-0.13333333,0,200)" />
    <path
       id="path17"
       d="M 219.176,928.883 157.582,836.492 147.301,846.309 155,820 l 27.246,3.012 -13.016,5.715 61.594,92.39 -11.648,7.766"
       style="fill:#000000;fill-opacity:1;fill-rule:nonzero;stroke:none"
       transform="matrix(0.13333333,0,0,-0.13333333,0,200)" />
    <path
       id="path18"
       d="m 218.359,1102.21 -30.207,-90.62 -12.504,6.77 L 190,995 l 25.496,10.07 -14.062,2.09 30.207,90.63 -13.282,4.42"
       style="fill:#000000;fill-opacity:1;fill-rule:nonzero;stroke:none"
       transform="matrix(0.13333333,0,0,-0.13333333,0,200)" />
    <path
       id="path19"
       d="m 218,1275 v -89.85 l -14,2.47 21,-17.62 21,17.62 -14,-2.47 V 1275 h -14"
       style="fill:#000000;fill-opacity:1;fill-rule:nonzero;stroke:none"
       transform="matrix(0.13333333,0,0,-0.13333333,0,200)" />
    <path
       id="path20"
       d="m 218.359,1447.79 30.207,-90.63 -14.062,-2.09 L 260,1345 l 14.352,23.36 -12.504,-6.77 -30.207,90.62 -13.282,-4.42"
       style="fill:#000000;fill-opacity:1;fill-rule:nonzero;stroke:none"
       transform="matrix(0.13333333,0,0,-0.13333333,0,200)" />
    <path
       id="path21"
       d="M 397.785,56.6406 279.348,17.1602 277.262,31.2227 267.184,5.72656 l 23.359,-14.34765 -6.77,12.5 118.442,39.48049 -4.43,13.2812"
       style="fill:#000000;fill-opacity:1;fill-rule:nonzero;stroke:none"
       transform="matrix(0.13333333,0,0,-0.13333333,0,200)" />
    <path
       id="path22"
       d="m 397.398,231.5 -115.918,-46.367 -2.906,13.914 -8.562,-26.043 24.16,-12.953 -7.488,12.082 115.918,46.367 -5.204,13"
       style="fill:#000000;fill-opacity:1;fill-rule:nonzero;stroke:none"
       transform="matrix(0.13333333,0,0,-0.13333333,0,200)" />
    <path
       id="path23"
       d="m 396.871,406.262 -111.668,-55.836 -4.055,13.629 -6.367,-26.664 25.153,-10.903 -8.469,11.418 111.664,55.832 -6.258,12.524"
       style="fill:#000000;fill-opacity:1;fill-rule:nonzero;stroke:none"
       transform="matrix(0.13333333,0,0,-0.13333333,0,200)" />
    <path
       id="path24"
       d="M 396.117,580.824 303.727,519.23 298.012,532.246 295,505 l 26.309,-7.699 -9.817,10.281 92.391,61.594 -7.766,11.648"
       style="fill:#000000;fill-opacity:1;fill-rule:nonzero;stroke:none"
       transform="matrix(0.13333333,0,0,-0.13333333,0,200)" />
    <path
       id="path25"
       d="M 395.051,754.949 335.766,695.664 327.609,707.309 330,680 l 27.309,-2.391 -11.645,8.157 59.285,59.285 -9.898,9.898"
       style="fill:#000000;fill-opacity:1;fill-rule:nonzero;stroke:none"
       transform="matrix(0.13333333,0,0,-0.13333333,0,200)" />
    <path
       id="path26"
       d="M 393.738,928.129 365.516,871.684 354.098,880.152 365,855 l 26.664,6.371 -13.625,4.051 28.223,56.449 -12.524,6.258"
       style="fill:#000000;fill-opacity:1;fill-rule:nonzero;stroke:none"
       transform="matrix(0.13333333,0,0,-0.13333333,0,200)" />
    <path
       id="path27"
       d="m 393,1100 v -54.85 l -14,2.47 21,-17.62 21,17.62 -14,-2.47 V 1100 h -14"
       style="fill:#000000;fill-opacity:1;fill-rule:nonzero;stroke:none"
       transform="matrix(0.13333333,0,0,-0.13333333,0,200)" />
    <path
       id="path28"
       d="m 393.738,1271.87 28.223,-56.45 -13.625,-4.05 26.664,-6.37 10.902,25.15 -11.418,-8.47 -28.222,56.45 -12.524,-6.26"
       style="fill:#000000;fill-opacity:1;fill-rule:nonzero;stroke:none"
       transform="matrix(0.13333333,0,0,-0.13333333,0,200)" />
    <path
       id="path29"
       d="m 395.051,1445.05 59.285,-59.28 -11.645,-8.16 27.309,2.39 2.391,27.31 -8.157,-11.65 -59.285,59.29 -9.898,-9.9"
       style="fill:#000000;fill-opacity:1;fill-rule:nonzero;stroke:none"
       transform="matrix(0.13333333,0,0,-0.13333333,0,200)" />
    <path
       id="path30"
       d="M 573.629,56.8633 451.203,32.3789 450.879,46.5898 437.719,22.543 459.117,5.40625 453.949,18.6523 576.371,43.1367 573.629,56.8633"
       style="fill:#000000;fill-opacity:1;fill-rule:nonzero;stroke:none"
       transform="matrix(0.13333333,0,0,-0.13333333,0,200)" />
    <path
       id="path31"
       d="m 573.301,231.789 -121.117,-30.277 -1,14.179 -12.004,-24.644 22.187,-16.102 -5.789,12.985 121.121,30.281 -3.398,13.578"
       style="fill:#000000;fill-opacity:1;fill-rule:nonzero;stroke:none"
       transform="matrix(0.13333333,0,0,-0.13333333,0,200)" />
    <path
       id="path32"
       d="M 572.785,406.641 482.16,376.434 480.074,390.496 470,365 l 23.359,-14.352 -6.769,12.504 90.625,30.207 -4.43,13.282"
       style="fill:#000000;fill-opacity:1;fill-rule:nonzero;stroke:none"
       transform="matrix(0.13333333,0,0,-0.13333333,0,200)" />
    <path
       id="path33"
       d="M 571.871,581.262 515.422,553.039 511.371,566.664 505,540 l 25.152,-10.902 -8.468,11.418 56.445,28.222 -6.258,12.524"
       style="fill:#000000;fill-opacity:1;fill-rule:nonzero;stroke:none"
       transform="matrix(0.13333333,0,0,-0.13333333,0,200)" />
    <path
       id="path34"
       d="M 570.051,754.949 545.766,730.664 537.609,742.309 540,715 l 27.309,-2.391 -11.645,8.157 24.285,24.285 -9.898,9.898"
       style="fill:#000000;fill-opacity:1;fill-rule:nonzero;stroke:none"
       transform="matrix(0.13333333,0,0,-0.13333333,0,200)" />
    <path
       id="path35"
       d="m 568,925 v -19.848 l -14,2.469 21,-17.621 21,17.621 -14,-2.469 V 925 h -14"
       style="fill:#000000;fill-opacity:1;fill-rule:nonzero;stroke:none"
       transform="matrix(0.13333333,0,0,-0.13333333,0,200)" />
    <path
       id="path36"
       d="m 570.051,1095.05 24.285,-24.28 -11.645,-8.16 27.309,2.39 2.391,27.31 -8.157,-11.65 -24.285,24.29 -9.898,-9.9"
       style="fill:#000000;fill-opacity:1;fill-rule:nonzero;stroke:none"
       transform="matrix(0.13333333,0,0,-0.13333333,0,200)" />
    <path
       id="path37"
       d="m 571.871,1268.74 56.445,-28.22 -8.468,-11.42 25.152,10.9 -6.371,26.66 -4.051,-13.62 -56.449,28.22 -6.258,-12.52"
       style="fill:#000000;fill-opacity:1;fill-rule:nonzero;stroke:none"
       transform="matrix(0.13333333,0,0,-0.13333333,0,200)" />
    <path
       id="path38"
       d="m 572.785,1443.36 90.625,-30.21 -6.769,-12.5 23.359,14.35 -10.074,25.5 -2.086,-14.07 -90.625,30.21 -4.43,-13.28"
       style="fill:#000000;fill-opacity:1;fill-rule:nonzero;stroke:none"
       transform="matrix(0.13333333,0,0,-0.13333333,0,200)" />
    <path
       id="path39"
       d="M 750,57 H 625.152 L 627.621,71 610,50 627.621,29 625.152,43 H 750 v 14"
       style="fill:#000000;fill-opacity:1;fill-rule:nonzero;stroke:none"
       transform="matrix(0.13333333,0,0,-0.13333333,0,200)" />
    <path
       id="path40"
       d="m 750,232 h -89.848 l 2.469,14 -17.621,-21 17.621,-21 -2.469,14 H 750 v 14"
       style="fill:#000000;fill-opacity:1;fill-rule:nonzero;stroke:none"
       transform="matrix(0.13333333,0,0,-0.13333333,0,200)" />
    <path
       id="path41"
       d="m 750,407 h -54.848 l 2.469,14 -17.621,-21 17.621,-21 -2.469,14 H 750 v 14"
       style="fill:#000000;fill-opacity:1;fill-rule:nonzero;stroke:none"
       transform="matrix(0.13333333,0,0,-0.13333333,0,200)" />
    <path
       id="path42"
       d="m 750,582 h -19.848 l 2.469,14 -17.621,-21 17.621,-21 -2.469,14 H 750 v 14"
       style="fill:#000000;fill-opacity:1;fill-rule:nonzero;stroke:none"
       transform="matrix(0.13333333,0,0,-0.13333333,0,200)" />
    <path
       id="path43"
       d="m 750,918 h 19.848 l -2.469,-14 17.621,21 -17.621,21 2.469,-14 H 750 v -14"
       style="fill:#000000;fill-opacity:1;fill-rule:nonzero;stroke:none"
       transform="matrix(0.13333333,0,0,-0.13333333,0,200)" />
    <path
       id="path44"
       d="m 750,1093 h 54.848 l -2.469,-14 17.621,21 -17.621,21 2.469,-14 H 750 v -14"
       style="fill:#000000;fill-opacity:1;fill-rule:nonzero;stroke:none"
       transform="matrix(0.13333333,0,0,-0.13333333,0,200)" />
    <path
       id="path45"
       d="m 750,1268 h 89.848 l -2.469,-14 17.621,21 -17.621,21 2.469,-14 H 750 v -14"
       style="fill:#000000;fill-opacity:1;fill-rule:nonzero;stroke:none"
       transform="matrix(0.13333333,0,0,-0.13333333,0,200)" />
    <path
       id="path46"
       d="m 750,1443 h 124.848 l -2.469,-14 17.621,21 -17.621,21 2.469,-14 H 750 v -14"
       style="fill:#000000;fill-opacity:1;fill-rule:nonzero;stroke:none"
       transform="matrix(0.13333333,0,0,-0.13333333,0,200)" />
    <path
       id="path47"
       d="M 927.215,56.6406 836.59,86.8477 843.359,99.3516 820,85 l 10.074,-25.4961 2.086,14.0625 90.625,-30.207 4.43,13.2812"
       style="fill:#000000;fill-opacity:1;fill-rule:nonzero;stroke:none"
       transform="matrix(0.13333333,0,0,-0.13333333,0,200)" />
    <path
       id="path48"
       d="m 928.129,231.262 -56.445,28.222 8.468,11.418 L 855,260 l 6.371,-26.664 4.051,13.625 56.449,-28.223 6.258,12.524"
       style="fill:#000000;fill-opacity:1;fill-rule:nonzero;stroke:none"
       transform="matrix(0.13333333,0,0,-0.13333333,0,200)" />
    <path
       id="path49"
       d="m 929.949,404.949 -24.285,24.285 11.645,8.157 L 890,435 l -2.391,-27.309 8.157,11.645 24.285,-24.285 9.898,9.898"
       style="fill:#000000;fill-opacity:1;fill-rule:nonzero;stroke:none"
       transform="matrix(0.13333333,0,0,-0.13333333,0,200)" />
    <path
       id="path50"
       d="m 932,575 v 19.848 l 14,-2.469 -21,17.621 -21,-17.621 14,2.469 V 575 h 14"
       style="fill:#000000;fill-opacity:1;fill-rule:nonzero;stroke:none"
       transform="matrix(0.13333333,0,0,-0.13333333,0,200)" />
    <path
       id="path51"
       d="m 929.949,745.051 24.285,24.285 8.157,-11.645 L 960,785 l -27.309,2.391 11.645,-8.157 -24.285,-24.285 9.898,-9.898"
       style="fill:#000000;fill-opacity:1;fill-rule:nonzero;stroke:none"
       transform="matrix(0.13333333,0,0,-0.13333333,0,200)" />
    <path
       id="path52"
       d="m 928.129,918.738 56.449,28.223 4.051,-13.625 L 995,960 l -25.152,10.902 8.468,-11.418 -56.445,-28.222 6.258,-12.524"
       style="fill:#000000;fill-opacity:1;fill-rule:nonzero;stroke:none"
       transform="matrix(0.13333333,0,0,-0.13333333,0,200)" />
    <path
       id="path53"
       d="m 927.215,1093.36 90.625,30.21 2.09,-14.07 10.07,25.5 -23.36,14.35 6.77,-12.5 -90.625,-30.21 4.43,-13.28"
       style="fill:#000000;fill-opacity:1;fill-rule:nonzero;stroke:none"
       transform="matrix(0.13333333,0,0,-0.13333333,0,200)" />
    <path
       id="path54"
       d="m 926.699,1268.21 121.121,30.28 1,-14.18 12,24.64 -22.19,16.1 5.79,-12.98 -121.119,-30.28 3.398,-13.58"
       style="fill:#000000;fill-opacity:1;fill-rule:nonzero;stroke:none"
       transform="matrix(0.13333333,0,0,-0.13333333,0,200)" />
    <path
       id="path55"
       d="m 926.371,1443.14 122.429,24.48 0.32,-14.21 13.16,24.05 -21.4,17.13 5.17,-13.24 -122.421,-24.49 2.742,-13.72"
       style="fill:#000000;fill-opacity:1;fill-rule:nonzero;stroke:none"
       transform="matrix(0.13333333,0,0,-0.13333333,0,200)" />
    <path
       id="path56"
       d="m 1104.95,54.9492 -59.29,59.2848 11.65,8.157 L 1030,120 l -2.39,-27.3086 8.16,11.6446 59.28,-59.2852 9.9,9.8984"
       style="fill:#000000;fill-opacity:1;fill-rule:nonzero;stroke:none"
       transform="matrix(0.13333333,0,0,-0.13333333,0,200)" />
    <path
       id="path57"
       d="m 1106.26,228.129 -28.22,56.449 13.62,4.051 -26.66,6.371 -10.9,-25.152 11.42,8.468 28.22,-56.445 12.52,6.258"
       style="fill:#000000;fill-opacity:1;fill-rule:nonzero;stroke:none"
       transform="matrix(0.13333333,0,0,-0.13333333,0,200)" />
    <path
       id="path58"
       d="m 1107,400 v 54.848 l 14,-2.469 -21,17.621 -21,-17.621 14,2.469 V 400 h 14"
       style="fill:#000000;fill-opacity:1;fill-rule:nonzero;stroke:none"
       transform="matrix(0.13333333,0,0,-0.13333333,0,200)" />
    <path
       id="path59"
       d="m 1106.26,571.871 28.22,56.445 11.42,-8.468 -10.9,25.152 -26.66,-6.371 13.62,-4.051 -28.22,-56.449 12.52,-6.258"
       style="fill:#000000;fill-opacity:1;fill-rule:nonzero;stroke:none"
       transform="matrix(0.13333333,0,0,-0.13333333,0,200)" />
    <path
       id="path60"
       d="m 1104.95,745.051 59.28,59.285 8.16,-11.645 -2.39,27.309 -27.31,2.391 11.65,-8.157 -59.29,-59.285 9.9,-9.898"
       style="fill:#000000;fill-opacity:1;fill-rule:nonzero;stroke:none"
       transform="matrix(0.13333333,0,0,-0.13333333,0,200)" />
    <path
       id="path61"
       d="m 1103.88,919.176 92.39,61.594 5.72,-13.016 3.01,27.246 -26.31,7.7 9.82,-10.282 -92.39,-61.594 7.76,-11.648"
       style="fill:#000000;fill-opacity:1;fill-rule:nonzero;stroke:none"
       transform="matrix(0.13333333,0,0,-0.13333333,0,200)" />
    <path
       id="path62"
       d="m 1103.13,1093.74 111.67,55.83 4.05,-13.62 6.37,26.66 -25.15,10.9 8.47,-11.42 -111.67,-55.83 6.26,-12.52"
       style="fill:#000000;fill-opacity:1;fill-rule:nonzero;stroke:none"
       transform="matrix(0.13333333,0,0,-0.13333333,0,200)" />
    <path
       id="path63"
       d="m 1102.6,1268.5 115.92,46.37 2.91,-13.92 8.56,26.05 -24.16,12.95 7.49,-12.08 -115.92,-46.37 5.2,-13"
       style="fill:#000000;fill-opacity:1;fill-rule:nonzero;stroke:none"
       transform="matrix(0.13333333,0,0,-0.13333333,0,200)" />
    <path
       id="path64"
       d="m 1102.21,1443.36 118.44,39.48 2.09,-14.06 10.08,25.49 -23.36,14.35 6.77,-12.5 -118.44,-39.48 4.42,-13.28"
       style="fill:#000000;fill-opacity:1;fill-rule:nonzero;stroke:none"
       transform="matrix(0.13333333,0,0,-0.13333333,0,200)" />
    <path
       id="path65"
       d="m 1281.64,52.2148 -30.21,90.6252 14.07,2.086 -25.5,10.074 -14.35,-23.359 12.5,6.769 30.21,-90.6248 13.28,4.4296"
       style="fill:#000000;fill-opacity:1;fill-rule:nonzero;stroke:none"
       transform="matrix(0.13333333,0,0,-0.13333333,0,200)" />
    <path
       id="path66"
       d="m 1282,225 v 89.848 l 14,-2.469 -21,17.621 -21,-17.621 14,2.469 V 225 h 14"
       style="fill:#000000;fill-opacity:1;fill-rule:nonzero;stroke:none"
       transform="matrix(0.13333333,0,0,-0.13333333,0,200)" />
    <path
       id="path67"
       d="m 1281.64,397.785 30.21,90.625 12.5,-6.769 L 1310,505 l -25.5,-10.074 14.07,-2.086 -30.21,-90.625 13.28,-4.43"
       style="fill:#000000;fill-opacity:1;fill-rule:nonzero;stroke:none"
       transform="matrix(0.13333333,0,0,-0.13333333,0,200)" />
    <path
       id="path68"
       d="m 1280.82,571.117 61.6,92.391 10.28,-9.817 -7.7,26.309 -27.25,-3.012 13.02,-5.715 -61.59,-92.39 11.64,-7.766"
       style="fill:#000000;fill-opacity:1;fill-rule:nonzero;stroke:none"
       transform="matrix(0.13333333,0,0,-0.13333333,0,200)" />
    <path
       id="path69"
       d="m 1279.95,745.051 88.28,88.281 8.15,-11.644 -2.38,27.308 -27.31,2.387 11.64,-8.153 -88.28,-88.281 9.9,-9.898"
       style="fill:#000000;fill-opacity:1;fill-rule:nonzero;stroke:none"
       transform="matrix(0.13333333,0,0,-0.13333333,0,200)" />
    <path
       id="path70"
       d="m 1279.2,919.398 99.88,74.911 6.42,-12.68 1.5,27.371 -26.7,6.23 10.38,-9.72 -99.88,-74.908 8.4,-11.204"
       style="fill:#000000;fill-opacity:1;fill-rule:nonzero;stroke:none"
       transform="matrix(0.13333333,0,0,-0.13333333,0,200)" />
    <path
       id="path71"
       d="m 1278.6,1094 107.06,64.23 5.08,-13.27 4.31,27.07 -25.91,8.94 9.31,-10.74 -107.05,-64.23 7.2,-12"
       style="fill:#000000;fill-opacity:1;fill-rule:nonzero;stroke:none"
       transform="matrix(0.13333333,0,0,-0.13333333,0,200)" />
    <path
       id="path72"
       d="m 1278.13,1268.74 111.67,55.83 4.05,-13.62 6.37,26.66 -25.15,10.9 8.47,-11.42 -111.67,-55.83 6.26,-12.52"
       style="fill:#000000;fill-opacity:1;fill-rule:nonzero;stroke:none"
       transform="matrix(0.13333333,0,0,-0.13333333,0,200)" />
    <path
       id="path73"
       d="m 1277.76,1443.57 114.75,49.18 3.25,-13.84 7.92,26.24 -24.47,12.36 7.79,-11.9 -114.76,-49.18 5.52,-12.86"
       style="fill:#000000;fill-opacity:1;fill-rule:nonzero;stroke:none"
       transform="matrix(0.13333333,0,0,-0.13333333,0,200)" />
    <path
       id="path74"
       d="m 1457,50 v 124.848 l 14,-2.469 -21,17.621 -21,-17.621 14,2.469 V 50 h 14"
       style="fill:#000000;fill-opacity:1;fill-rule:nonzero;stroke:none"
       transform="matrix(0.13333333,0,0,-0.13333333,0,200)" />
    <path
       id="path75"
       d="m 1456.79,223.301 30.28,121.121 12.98,-5.789 -16.1,22.187 -24.64,-12.004 14.18,-1 -30.28,-121.117 13.58,-3.398"
       style="fill:#000000;fill-opacity:1;fill-rule:nonzero;stroke:none"
       transform="matrix(0.13333333,0,0,-0.13333333,0,200)" />
    <path
       id="path76"
       d="m 1456.26,396.871 55.83,111.664 11.42,-8.469 -10.9,25.153 -26.66,-6.367 13.62,-4.055 -55.83,-111.668 12.52,-6.258"
       style="fill:#000000;fill-opacity:1;fill-rule:nonzero;stroke:none"
       transform="matrix(0.13333333,0,0,-0.13333333,0,200)" />
    <path
       id="path77"
       d="m 1455.6,570.801 74.91,99.879 9.72,-10.375 -6.23,26.695 -27.37,-1.496 12.68,-6.426 -74.91,-99.879 11.2,-8.398"
       style="fill:#000000;fill-opacity:1;fill-rule:nonzero;stroke:none"
       transform="matrix(0.13333333,0,0,-0.13333333,0,200)" />
    <path
       id="path78"
       d="m 1454.95,745.051 88.28,88.281 8.15,-11.644 -2.38,27.308 -27.31,2.387 11.64,-8.153 -88.28,-88.281 9.9,-9.898"
       style="fill:#000000;fill-opacity:1;fill-rule:nonzero;stroke:none"
       transform="matrix(0.13333333,0,0,-0.13333333,0,200)" />
    <path
       id="path79"
       d="m 1454.38,919.535 97.48,77.992 6.82,-12.476 0.64,27.409 -26.88,5.39 10.68,-9.39 -97.49,-77.995 8.75,-10.93"
       style="fill:#000000;fill-opacity:1;fill-rule:nonzero;stroke:none"
       transform="matrix(0.13333333,0,0,-0.13333333,0,200)" />
    <path
       id="path80"
       d="m 1453.88,1094.18 103.88,69.25 5.71,-13.02 3.02,27.25 -26.31,7.7 9.82,-10.28 -103.88,-69.26 7.76,-11.64"
       style="fill:#000000;fill-opacity:1;fill-rule:nonzero;stroke:none"
       transform="matrix(0.13333333,0,0,-0.13333333,0,200)" />
    <path
       id="path81"
       d="m 1453.47,1268.92 108.4,61.94 4.81,-13.38 4.87,26.98 -25.71,9.49 9.09,-10.93 -108.4,-61.94 6.94,-12.16"
       style="fill:#000000;fill-opacity:1;fill-rule:nonzero;stroke:none"
       transform="matrix(0.13333333,0,0,-0.13333333,0,200)" />
    <path
       id="path82"
       d="m 1453.13,1443.74 111.67,55.83 4.05,-13.62 6.37,26.66 -25.15,10.9 8.47,-11.42 -111.67,-55.83 6.26,-12.52"
       style="fill:#000000;fill-opacity:1;fill-rule:nonzero;stroke:none"
       transform="matrix(0.13333333,0,0,-0.13333333,0,200)" />
    <path
       id="path83"
       d="m 250,925 c 0,13.809 -11.191,25 -25,25 v 0 c -13.809,0 -25,-11.191 -25,-25 v 0 c 0,-13.809 11.191,-25 25,-25 v 0 c 13.809,0 25,11.191 25,25"
       style="fill:#ff0000;fill-opacity:1;fill-rule:nonzero;stroke:none"
       transform="matrix(0.13333333,0,0,-0.13333333,0,200)" />
    <path
       id="path84"
       d="m 250,925 c 0,13.809 -11.191,25 -25,25 v 0 c -13.809,0 -25,-11.191 -25,-25 v 0 c 0,-13.809 11.191,-25 25,-25 v 0 c 13.809,0 25,11.191 25,25 z"
       style="fill:none;stroke:#000000;stroke-width:10;stroke-linecap:butt;stroke-linejoin:miter;stroke-miterlimit:10;stroke-dasharray:none;stroke-opacity:1"
       transform="matrix(0.13333333,0,0,-0.13333333,0,200)" />
    <path
       id="path85"
       d="m 775,225 c 0,13.809 -11.191,25 -25,25 v 0 c -13.809,0 -25,-11.191 -25,-25 v 0 c 0,-13.809 11.191,-25 25,-25 v 0 c 13.809,0 25,11.191 25,25"
       style="fill:#ff0000;fill-opacity:1;fill-rule:nonzero;stroke:none"
       transform="matrix(0.13333333,0,0,-0.13333333,0,200)" />
    <path
       id="path86"
       d="m 775,225 c 0,13.809 -11.191,25 -25,25 v 0 c -13.809,0 -25,-11.191 -25,-25 v 0 c 0,-13.809 11.191,-25 25,-25 v 0 c 13.809,0 25,11.191 25,25 z"
       style="fill:none;stroke:#000000;stroke-width:10;stroke-linecap:butt;stroke-linejoin:miter;stroke-miterlimit:10;stroke-dasharray:none;stroke-opacity:1"
       transform="matrix(0.13333333,0,0,-0.13333333,0,200)" />
    <path
       id="path87"
       d="m 1300,750 c 0,13.809 -11.19,25 -25,25 v 0 c -13.81,0 -25,-11.191 -25,-25 v 0 c 0,-13.809 11.19,-25 25,-25 v 0 c 13.81,0 25,11.191 25,25"
       style="fill:#ff0000;fill-opacity:1;fill-rule:nonzero;stroke:none"
       transform="matrix(0.13333333,0,0,-0.13333333,0,200)" />
    <path
       id="path88"
       d="m 1300,750 c 0,13.809 -11.19,25 -25,25 v 0 c -13.81,0 -25,-11.191 -25,-25 v 0 c 0,-13.809 11.19,-25 25,-25 v 0 c 13.81,0 25,11.191 25,25 z"
       style="fill:none;stroke:#000000;stroke-width:10;stroke-linecap:butt;stroke-linejoin:miter;stroke-miterlimit:10;stroke-dasharray:none;stroke-opacity:1"
       transform="matrix(0.13333333,0,0,-0.13333333,0,200)" />
  </g>
</svg>
