<?xml version="1.0" encoding="UTF-8" standalone="no"?>
<!-- Created with Inkscape (http://www.inkscape.org/) -->

<svg
   version="1.1"
   id="svg1"
   width="200"
   height="200"
   viewBox="0 0 200 200"
   xmlns="http://www.w3.org/2000/svg"
   xmlns:svg="http://www.w3.org/2000/svg">
  <defs
     id="defs1">
    <clipPath
       clipPathUnits="userSpaceOnUse"
       id="clipPath3">
      <path
         d="M 1450,50 V 1450 H 750 V 50 Z"
         id="path3" />
    </clipPath>
  </defs>
  <g
     id="g1">
    <path
       id="path1"
       d="M 0,0 H 1500 V 1500 H 0 Z"
       style="fill:none;stroke:#000000;stroke-width:10;stroke-linecap:butt;stroke-linejoin:miter;stroke-miterlimit:10;stroke-dasharray:none;stroke-opacity:1"
       transform="matrix(0.13333333,0,0,-0.13333333,0,200)" />
    <path
       id="path2"
       d="m 575,50 v 0 m 0,0 -1.102,5.4688 m 0,0 -1.109,5.4687 m 0,0 -1.125,5.4688 m 0,0 -1.141,5.4687 m -0.992,4.7227 -0.156,0.7461 m 0.156,-0.7461 0.992,-4.7227 m -1.148,5.4688 -1.164,5.4687 m 0,0 -1.18,5.4688 m 0,0 -1.191,5.4687 m -1.777,8.043 -0.649,2.895 m 2.426,-10.938 -1.207,5.4688 m -0.57,2.5742 0.57,-2.5742 m -1.219,5.4692 -1.234,5.468 m 0,0 -1.246,5.469 m 0,0 -1.262,5.469 m -1.078,4.609 -0.203,0.86 m 0.203,-0.86 1.078,-4.609 m -1.281,5.469 -1.293,5.468 m 0,0 -1.309,5.469 m -2.664,10.938 v 0 m 0,0 v 0 m 0,0 -1.355,5.468 m 0,0 -1.375,5.469 m 5.394,-21.875 -1.324,5.469 m -1.34,5.469 1.34,-5.469 m 0,0 -1.34,5.469 m 0,0 v 0 m -2.73,10.937 -1.391,5.469 m -1.348,5.246 -0.058,0.223 m 0.058,-0.223 1.348,-5.246 m -1.406,5.469 -1.422,5.468 m 0,0 -1.442,5.469 m -2.546,9.5 -0.391,1.438 m 2.937,-10.938 -1.461,5.469 m -1.085,4.031 1.085,-4.031 m -1.476,5.469 -1.496,5.468 m 0,0 -1.512,5.469 m 0,0 -1.535,5.469 m -0.535,1.894 -1.016,3.575 m 1.016,-3.575 0.535,-1.894 m -1.551,5.469 -1.574,5.468 m 0,0 -1.59,5.469 M 575,50 v 0 m -43.75,179.375 -0.324,1.094 m 0,0 -1.633,5.469 m 0,0 -1.652,5.468 m 0,0 -1.676,5.469 m -0.184,0.602 -1.511,4.867 m 1.511,-4.867 0.184,-0.602 m -1.695,5.469 -1.715,5.469 m -2.242,7.031 -1.262,3.906 m 3.504,-10.937 -1.742,5.468 m -0.5,1.563 0.5,-1.563 M 531.25,229.375 532.539,225 m -13.488,43.75 -1.785,5.469 m 0,0 -1.809,5.469 m -0.613,1.843 -1.215,3.625 m 1.215,-3.625 0.613,-1.843 m -1.828,5.468 -1.856,5.469 m -2.398,6.961 -1.387,3.977 m 0,0 -1.929,5.468 m 0,0 -1.957,5.469 m 7.671,-21.875 -1.882,5.469 m -0.516,1.492 0.516,-1.492 M 487.5,356.25 v 0 m 0,0 v 0 m 0,0 -2.203,5.469 m 0,0 -2.231,5.469 m -1.035,2.511 -1.226,2.957 m 1.226,-2.957 1.035,-2.511 m -2.261,5.468 -2.293,5.469 m -1.949,4.594 -0.375,0.875 m 0,0 -2.352,5.469 m 2.727,-6.344 1.949,-4.594 m -4.676,10.938 -2.387,5.468 m -0.355,0.805 -2.067,4.664 m 2.067,-4.664 0.355,-0.805 m 32.457,-81.484 -1.785,4.922 m 1.785,-4.922 0.196,-0.547 m -1.981,5.469 -2.004,5.469 m -1.679,4.519 -0.356,0.949 m 0,0 -2.062,5.469 m 2.418,-6.418 1.679,-4.519 m -4.097,10.937 -2.086,5.469 m -0.965,2.5 -1.153,2.969 m 1.153,-2.969 0.965,-2.5 m -2.118,5.469 -2.144,5.468 m -2.172,5.469 2.172,-5.469 m 0,0 -2.172,5.469 m 0,0 v 0 m -87.5,175 v 0 m 0,0 v 0 m 0,0 -3.387,5.469 m -2.082,3.324 -1.351,2.145 m 1.351,-2.145 2.082,-3.324 m -7.55,11.933 -2.887,4.473 m 7.004,-10.937 -3.481,5.468 m -0.636,0.996 0.636,-0.996 m -11.574,17.692 -2.809,4.183 m -2.66,3.922 -1.054,1.547 m 1.054,-1.547 2.66,-3.922 m 8.278,-12.449 -0.992,1.512 m 0.992,-1.512 2.582,-3.957 m -3.574,5.469 -3.618,5.469 m -0.859,1.285 0.859,-1.285 M 225,750 v 0 m 87.5,-96.25 -2.699,3.281 m -2.77,3.344 -1.773,2.125 m 1.773,-2.125 2.77,-3.344 m 46.449,-60.156 v 0 m 0,0 v 0 m 0,0 -3.961,5.469 m -1.508,2.058 -2.508,3.411 m 2.508,-3.411 1.508,-2.058 m -6.976,9.461 -1.106,1.476 m 0,0 -4.113,5.469 m 5.219,-6.945 2.96,-3.992 m 18.915,-26.407 -3.165,4.532 m 7.579,-10.938 -3.766,5.469 m -0.648,0.937 0.648,-0.937 m -6.117,8.742 -1.555,2.195 m 1.555,-2.195 2.304,-3.273 m -7.773,10.937 3.914,-5.469 m 0,0 -3.914,5.469 m 0,0 v 0 m -21.875,29.359 -2.672,3.454 m -8.265,10.515 -0.336,0.422 m 5.804,-7.352 -1.476,1.883 m 1.476,-1.883 2.797,-3.585 m -8.265,10.515 3.992,-5.047 m 12.414,-16.078 -3.918,5.141 m 3.918,-5.141 0.25,-0.328 m -5.719,7.484 1.551,-2.015 m -12.824,16.406 -4.379,5.469 m -0.754,0.933 -3.68,4.536 m 3.68,-4.536 0.754,-0.933 m -6.223,7.656 1.789,-2.187 m -45.539,52.699 -1.82,1.988 m 23.695,-26.562 -4.086,4.687 m 15.024,-17.473 -0.903,1.067 m -4.566,5.371 -0.086,0.098 m 0.086,-0.098 4.566,-5.371 m 0.903,-1.067 3.695,-4.402 m -9.25,10.938 -4.707,5.468 m -0.676,0.782 0.676,-0.782 m -11.613,13.227 -2.84,3.18 m 8.308,-9.36 -3.433,3.891 m 3.433,-3.891 1.383,-1.578 m -6.851,7.758 2.035,-2.289 m -7.504,8.39 -2.301,2.547 m 2.301,-2.547 2.629,-2.921 m -8.098,8.949 3.168,-3.481 m -25.043,26.867 -0.457,0.477 m 11.395,-12.031 -1.024,1.094 m 6.492,-6.973 -1.394,1.504 m 1.394,-1.504 3.649,-3.965 m -9.117,9.844 4.074,-4.375 m -9.543,10.187 -0.711,0.75 m 0.711,-0.75 4.445,-4.718 m -9.914,10.46 4.758,-4.992 m -15.695,16.289 -0.114,0.118 m 5.582,-5.735 -0.258,0.266 m 0.258,-0.266 5.012,-5.203 m -10.48,10.82 5.21,-5.351 m -10.679,10.91 -0.028,0.027 m 0.028,-0.027 5.355,-5.441 M 225,750 l 5.441,-5.469 m 0,0 L 225,750 m 240.625,-342.43 -1.531,3.368 m 0,0 -2.52,5.468 m -1.418,3.043 -1.136,2.426 m 1.136,-2.426 1.418,-3.043 m 7.453,-16.406 -2.449,5.469 m -0.953,2.101 0.953,-2.101 m -11.89,25.519 -0.879,1.825 m 5.211,-10.938 -2.586,5.469 m -1.746,3.644 1.746,-3.644 m -2.625,5.469 -2.657,5.468 m -1.933,3.926 -0.762,1.543 m 0.762,-1.543 1.933,-3.926 m -7.402,14.844 -0.793,1.563 m 0,0 -2.809,5.468 m -1.867,3.598 -0.976,1.871 m 0.976,-1.871 1.867,-3.598 m -7.335,13.953 -1.317,2.454 m 5.809,-10.938 -2.883,5.469 m -1.609,3.015 1.609,-3.015 m -2.926,5.469 -2.961,5.468 m -1.191,2.18 -1.813,3.289 m 1.813,-3.289 1.191,-2.18 m 19.922,-38.281 -2.734,5.469 m -1.973,3.906 1.973,-3.906 m -23.848,44.844 -2.473,4.375 m -2.996,5.246 -0.129,0.222 m 0.129,-0.222 2.996,-5.246 m -3.125,5.468 -3.168,5.469 m 12.422,-21.875 -3.043,5.469 m -0.613,1.094 0.613,-1.094 m -11.55,20.109 -1.04,1.766 m 0,0 -3.257,5.469 m 4.297,-7.235 2.171,-3.703 m -7.64,12.891 -2.125,3.515 m 2.125,-3.515 1.172,-1.953 M 400,531.25 l 3.344,-5.469 m 0,0 -3.344,5.469 m 0,0 v 0 M 1275,750 v 0 m 175,-153.125 v 0 m -27.34,21.676 -0.25,0.199 m 0.25,-0.199 5.47,-4.387 m 10.93,-8.695 -2.96,2.344 m 8.43,-6.653 -1.51,1.184 m 1.51,-1.184 5.47,-4.285 m 0,0 v 0 m -10.94,8.594 3.96,-3.125 m -9.43,7.461 -4.36,3.476 m 4.36,-3.476 2.51,-1.992 m -7.97,6.351 1.1,-0.883 m -22.98,18.594 -3.99,3.281 m -1.48,1.219 -5.13,4.25 m 5.13,-4.25 1.48,-1.219 m -17.88,14.899 -1.79,1.508 m -9.15,7.769 -3.7,3.168 m 9.17,-7.824 -2.77,2.355 m 2.77,-2.355 3.68,-3.113 m -9.15,7.769 2.7,-2.301 m 13.7,-11.57 -0.75,0.633 m 0.75,-0.633 5.47,-4.559 m -10.93,9.153 4.71,-3.961 m 6.22,-5.192 0.34,-0.277 m 21.54,-17.66 -1.55,1.254 m -3.92,3.187 -2.8,2.282 m 2.8,-2.282 3.92,-3.187 m 1.55,-1.254 5.22,-4.215 m -16.16,13.125 2.67,-2.187 m -46.42,39.062 -5.38,4.688 m -5.56,4.871 -0.67,0.597 m -4.8,4.239 -1.38,1.23 m 1.38,-1.23 4.8,-4.239 m 0.67,-0.597 5.47,-4.797 m 0,0 0.09,-0.074 m -16.49,14.582 -2.04,1.824 m -3.43,3.094 -2.63,2.375 m 2.63,-2.375 3.43,-3.094 m -8.9,8.047 -3.17,2.89 m -2.3,2.11 -3.65,3.359 m 3.65,-3.359 2.3,-2.11 m 3.17,-2.89 2.84,-2.578 m 8.1,-7.293 4.08,-3.645 m -25.96,23.559 -4.07,3.785 m -1.4,1.301 -4.44,4.168 m 4.44,-4.168 1.4,-1.301 m -6.87,6.433 -4.76,4.504 m -0.71,0.676 -5.01,4.793 m 5.01,-4.793 0.71,-0.676 m 4.76,-4.504 1.03,-0.964 m -11.96,11.375 -5.22,5.031 m -0.25,0.25 -5.36,5.219 m 5.36,-5.219 0.25,-0.25 m -5.72,5.582 -5.44,5.355 m -5.5,5.469 5.47,-5.441 m 0,0 L 1275,750 m 5.47,-5.441 0.03,-0.028 m 5.44,-5.355 0.11,-0.113 m 10.83,-10.5 0.45,-0.438 m 21.42,-20.191 1.82,-1.684 m 47.4,-42.227 -4.57,3.946 m 4.57,-3.946 1.77,-1.523 m -7.24,6.25 0.9,-0.781 M 137.5,831.25 l -0.902,0.781 m -4.567,3.946 -1.773,1.523 m 1.773,-1.523 4.567,-3.946 m 44.652,-39.965 -1.82,1.684 m 23.695,-22.312 -0.457,0.437 m 11.395,-11.051 -0.114,0.114 m 5.582,-5.497 -0.027,0.028 m 0.027,-0.028 L 225,750 m 0,0 v 0 m -10.937,10.824 5.441,-5.355 m -10.91,10.687 -0.258,0.25 m 0.258,-0.25 5.355,-5.218 m -10.824,10.5 5.211,-5.032 m -16.148,15.442 -1.024,0.965 m 6.492,-6.145 -0.711,0.676 m 0.711,-0.676 5.012,-4.793 m -10.48,9.973 4.757,-4.504 m -10.226,9.636 -1.395,1.301 m 1.395,-1.301 4.445,-4.167 m -9.914,9.253 4.074,-3.785 m -25.949,23.699 -4.086,3.645 m 15.024,-13.516 -2.84,2.579 m 8.308,-7.579 -2.301,2.11 m 2.301,-2.11 3.649,-3.359 m -9.117,8.359 3.167,-2.89 m -8.636,7.844 -3.434,3.093 m 3.434,-3.093 2.629,-2.375 m -8.098,7.292 2.035,-1.824 m -18.441,16.332 -0.086,0.075 m 0.086,-0.075 5.469,-4.797 m 5.468,-4.836 -4.793,4.239 m 4.793,-4.239 1.383,-1.23 m -6.851,6.066 0.675,-0.597 m -11.613,10.156 5.383,-4.687 m -49.133,41.562 -2.6719,2.188 m -8.2656,6.722 -5.2187,4.215 m 10.6875,-8.656 -3.918,3.187 m 3.918,-3.187 2.7968,-2.281 m -8.2656,6.722 1.5508,-1.254 m 20.3247,-16.683 -0.336,0.277 m 11.273,-9.43 -4.715,3.961 m -6.222,5.192 5.468,-4.559 m 0,0 0.754,-0.633 m 15.653,-13.238 -2.7,2.301 m -2.769,2.355 -3.68,3.114 m 3.68,-3.114 2.769,-2.355 m 2.7,-2.301 3.695,-3.168 m -14.633,12.445 1.789,-1.507 m -18.1952,15.187 -1.4766,1.219 m 1.4766,-1.219 5.1332,-4.25 m -10.602,8.75 3.9922,-3.281 m -25.8672,20.992 -1.1055,0.883 m -4.3632,3.476 -2.5079,1.993 m 2.5079,-1.993 4.3632,-3.476 m -9.832,7.812 -3.9609,3.125 M 50,903.125 55.4688,898.84 m 0,0 L 50,903.125 m 5.4688,-4.285 1.5078,-1.184 m 3.9609,-3.125 2.9609,-2.343 m 7.9766,-6.352 5.4688,-4.387 m 0,0 0.25,-0.199 M 50,903.125 v 0 M 225,750 v 0 m 875,218.75 v 0 m 0,0 v 0 m 0,0 -3.34,5.469 m -2.13,3.515 -1.17,1.954 m 1.17,-1.954 2.13,-3.515 m -7.6,12.703 -2.17,3.703 m 6.47,-10.937 -3.26,5.468 m -1.04,1.766 1.04,-1.766 m -11.97,20.784 -0.62,1.09 m 0,0 -3.04,5.47 m 12.42,-21.875 -3.17,5.469 m -0.13,0.222 -2.99,5.244 m 2.99,-5.244 0.13,-0.222 m -5.59,9.846 2.47,-4.38 m -24.35,45.32 -1.97,3.9 m 0,0 -2.74,5.47 m 21.12,-40.46 -1.2,2.18 m 1.2,-2.18 1.81,-3.29 m -3.01,5.47 -2.96,5.47 m -1.31,2.45 -1.61,3.02 m 0,0 -2.88,5.47 m 4.49,-8.49 1.31,-2.45 m -6.78,12.81 -1.87,3.59 m 1.87,-3.59 0.98,-1.87 m -2.85,5.46 -2.8,5.47 m -0.8,1.57 0.8,-1.57 m -6.27,12.48 -1.93,3.93 m 1.93,-3.93 0.76,-1.54 m -2.69,5.47 -2.66,5.47 m -0.88,1.82 -1.74,3.65 m 0,0 -2.59,5.47 m 4.33,-9.12 0.88,-1.82 m -11.81,25.24 -0.96,2.1 m 0,0 -2.45,5.47 m 8.87,-19.45 -1.41,3.04 m 1.41,-3.04 1.14,-2.42 m -2.55,5.46 -2.52,5.47 m -1.53,3.37 1.53,-3.37 M 1275,750 v 0 m 0,0 -5.44,5.469 m -0.03,0.027 -5.35,5.442 m 5.35,-5.442 0.03,-0.027 m -5.5,5.586 -5.21,5.351 m -0.26,0.266 -5.01,5.203 m 5.01,-5.203 0.26,-0.266 m 5.21,-5.351 0.12,-0.117 m -11.05,11.414 -4.76,4.992 m -0.71,0.75 -4.45,4.719 m 4.45,-4.719 0.71,-0.75 m -6.18,6.562 -4.08,4.375 m -1.39,1.504 -3.65,3.965 m 3.65,-3.965 1.39,-1.504 m 4.08,-4.375 1.02,-1.093 m 9.92,-10.461 0.45,-0.477 m -22.33,23.863 -3.17,3.481 m -2.3,2.547 -2.63,2.922 m 2.63,-2.922 2.3,-2.547 m -7.77,8.648 -2.03,2.289 m -3.44,3.891 -1.38,1.578 m 1.38,-1.578 3.44,-3.891 m 2.03,-2.289 2.84,-3.179 m -13.77,15.625 -0.68,0.781 m 0,0 -4.71,5.469 m -5.55,6.535 -3.7,4.402 m 9.17,-10.84 -4.57,5.371 m 4.57,-5.371 0.08,-0.097 m -5.55,6.535 0.9,-1.067 m 10.04,-11.718 4.08,-4.688 m 17.79,-19.887 1.82,-1.988 m -45.57,52.5 -1.79,2.188 m -3.68,4.535 -0.75,0.933 m 0.75,-0.933 3.68,-4.535 m -4.43,5.468 -4.38,5.469 m -11.27,14.391 -1.56,2.015 m -3.91,5.141 -0.25,0.328 m 0.25,-0.328 3.91,-5.141 m 12.49,-15.984 -3.99,5.047 m -1.48,1.883 -2.79,3.586 m 2.79,-3.586 1.48,-1.883 m 3.99,-5.047 0.34,-0.422 m -11.27,14.391 2.67,-3.453 m -24.55,32.812 v 0 m 0,0 v 0 m 0,0 -3.91,5.469 m -1.56,2.195 -2.3,3.274 m 2.3,-3.274 1.56,-2.195 m -7.03,10 -0.65,0.937 m 0,0 -3.76,5.469 m 4.41,-6.406 3.17,-4.531 m 18.71,-25.868 -2.96,3.993 m 8.18,-10.938 -4.12,5.469 m -1.1,1.476 1.1,-1.476 m -6.57,8.879 -1.51,2.058 m 1.51,-2.058 2.51,-3.41 m -7.98,10.937 3.96,-5.469 m 0,0 -3.96,5.469 m 0,0 v 0 m 49.22,-63.5 -2.77,3.344 m 2.77,-3.344 1.77,-2.125 m -7.24,8.75 2.7,-3.281 M 1275,750 v 0 m -153.12,184.652 -0.86,1.286 m 0,0 -3.62,5.468 m -0.99,1.512 -2.59,3.957 m 2.59,-3.957 0.99,-1.512 m 9.94,-14.859 -2.66,3.922 m 2.66,-3.922 1.06,-1.547 m -6.52,9.652 2.8,-4.183 m -13.74,20.879 -0.64,0.996 m 0,0 -3.48,5.469 m 4.12,-6.465 2.88,-4.473 m -8.35,13.082 -2.08,3.324 m 2.08,-3.324 1.35,-2.144 m -6.82,10.937 3.39,-5.469 m 0,0 -3.39,5.469 m 0,0 v 0 m -87.5,175 v 0 m 0,0 v 0 m 0,0 -2.17,5.47 m 0,0 -2.15,5.47 m -1.15,2.97 -0.96,2.5 m 0.96,-2.5 1.15,-2.97 m -2.11,5.47 -2.09,5.47 m -2.42,6.42 -1.677,4.51 m 4.097,-10.93 -2.06,5.46 m -0.36,0.96 0.36,-0.96 m -2.037,5.47 -2.004,5.47 m -1.785,4.92 -0.196,0.55 m 0.196,-0.55 1.785,-4.92 m 31.031,-77.37 -0.36,0.81 m 0.36,-0.81 2.06,-4.66 m -2.42,5.47 -2.38,5.47 m -2.73,6.34 -1.95,4.6 m 4.68,-10.94 -2.36,5.47 m -0.37,0.87 0.37,-0.87 m -2.32,5.47 -2.29,5.46 m -1.23,2.96 -1.04,2.51 m 1.04,-2.51 1.23,-2.96 m -2.27,5.47 -2.23,5.47 m -2.2,5.47 2.2,-5.47 m 0,0 -2.2,5.47 m 0,0 v 0 m -21.875,58.66 -0.516,1.5 m 0,0 -1.882,5.47 m 7.671,-21.88 -1.957,5.47 m 0,0 -1.929,5.47 m -1.387,3.97 1.387,-3.97 m -3.785,10.94 -1.856,5.46 m -1.215,3.63 -0.613,1.84 m 0.613,-1.84 1.215,-3.63 m -1.828,5.47 -1.809,5.47 m 0,0 -1.785,5.47 m -12.199,39.38 -1.289,4.37 m 12.227,-39.84 -0.5,1.56 m 0,0 -1.743,5.47 m 2.243,-7.03 1.261,-3.91 m -3.504,10.94 -1.715,5.47 m -1.511,4.86 -0.184,0.61 m 0.184,-0.61 1.511,-4.86 m -1.695,5.47 -1.676,5.46 m 0,0 -1.652,5.47 m 0,0 -1.633,5.47 m -0.324,1.1 0.324,-1.1 M 925,1450 v 0 m 42.461,-175 -1.59,5.47 m 0,0 -1.574,5.47 m -1.016,3.57 -0.535,1.9 m 0.535,-1.9 1.016,-3.57 m -1.551,5.47 -1.531,5.47 m 0,0 -1.516,5.46 m 0,0 -1.496,5.47 m -0.39,1.44 -1.086,4.03 m 0,0 -1.461,5.47 m 2.547,-9.5 0.39,-1.44 m -2.937,10.94 -1.442,5.47 m 0,0 -1.422,5.47 m -0.058,0.22 -1.348,5.25 m 1.348,-5.25 0.058,-0.22 m -1.406,5.47 -1.391,5.47 m -2.73,10.93 v 0 m 0,0 v 0 m 0,0 -1.34,5.47 m 0,0 -1.324,5.47 m 5.394,-21.87 -1.375,5.46 m -1.355,5.47 1.355,-5.47 m 0,0 -1.355,5.47 m 0,0 v 0 m -2.664,10.94 -1.309,5.47 m 0,0 -1.293,5.47 m -0.203,0.86 -1.078,4.61 m 1.078,-4.61 0.203,-0.86 m -1.281,5.47 -1.262,5.47 m 0,0 -1.246,5.46 m 0,0 -1.234,5.47 m -0.648,2.9 -0.571,2.57 m 0,0 -1.207,5.47 m 1.778,-8.04 0.648,-2.9 m -2.426,10.94 -1.191,5.47 m 0,0 -1.18,5.47 m 0,0 -1.164,5.47 m -0.156,0.74 -0.992,4.73 m 0.992,-4.73 0.156,-0.74 m -1.148,5.47 -1.141,5.46 m 0,0 -1.125,5.47 m 0,0 -1.109,5.47 M 925,1450 l 1.102,-5.47 m 0,0 L 925,1450"
       style="fill:none;stroke:#0000ff;stroke-width:10;stroke-linecap:butt;stroke-linejoin:miter;stroke-miterlimit:10;stroke-dasharray:none;stroke-opacity:1"
       transform="matrix(0.13333333,0,0,-0.13333333,0,200)"
       clip-path="url(#clipPath3)" />
    <path
       id="path4"
       d="M 46.8711,56.2617 -64.7969,0.425781 -68.8516,14.0547 l -6.3672,-26.6641 25.1524,-10.9023 -8.4688,11.4179 111.6641,55.8321 -6.2578,12.5234"
       style="fill:#000000;fill-opacity:1;fill-rule:nonzero;stroke:none"
       transform="matrix(0.13333333,0,0,-0.13333333,0,200)" />
    <path
       id="path5"
       d="m 46.5273,231.078 -108.3984,-61.941 -4.8008,13.379 -4.8828,-26.977 25.7188,-9.488 -9.0899,10.929 108.3985,61.942 -6.9454,12.156"
       style="fill:#000000;fill-opacity:1;fill-rule:nonzero;stroke:none"
       transform="matrix(0.13333333,0,0,-0.13333333,0,200)" />
    <path
       id="path6"
       d="m 46.1172,405.824 -103.8789,-69.254 -5.711,13.02 -3.0156,-27.246 26.3125,-7.699 -9.8203,10.277 103.8789,69.254 -7.7656,11.648"
       style="fill:#000000;fill-opacity:1;fill-rule:nonzero;stroke:none"
       transform="matrix(0.13333333,0,0,-0.13333333,0,200)" />
    <path
       id="path7"
       d="m 45.6289,580.465 -97.4922,-77.992 -6.8164,12.476 -0.6406,-27.406 26.8789,-5.391 -10.6758,9.391 97.4883,77.992 -8.7422,10.93"
       style="fill:#000000;fill-opacity:1;fill-rule:nonzero;stroke:none"
       transform="matrix(0.13333333,0,0,-0.13333333,0,200)" />
    <path
       id="path8"
       d="m 45.0508,754.949 -88.2813,-88.281 -8.1523,11.645 2.3867,-27.309 27.3086,-2.387 -11.6445,8.153 88.2812,88.281 -9.8984,9.898"
       style="fill:#000000;fill-opacity:1;fill-rule:nonzero;stroke:none"
       transform="matrix(0.13333333,0,0,-0.13333333,0,200)" />
    <path
       id="path9"
       d="M 44.3984,929.199 -30.5078,829.32 -40.2266,839.695 -34,813 l 27.37109,1.496 -12.67969,6.426 74.9102,99.879 -11.2032,8.398"
       style="fill:#000000;fill-opacity:1;fill-rule:nonzero;stroke:none"
       transform="matrix(0.13333333,0,0,-0.13333333,0,200)" />
    <path
       id="path10"
       d="m 43.7383,1103.13 -55.8321,-111.665 -11.4179,8.469 10.9023,-25.153 26.6641,6.367 -13.628919,4.055 55.835919,111.667 -12.5234,6.26"
       style="fill:#000000;fill-opacity:1;fill-rule:nonzero;stroke:none"
       transform="matrix(0.13333333,0,0,-0.13333333,0,200)" />
    <path
       id="path11"
       d="m 43.2109,1276.7 -30.2812,-121.12 -12.9843875,5.79 16.1015875,-22.19 24.6445,12 -14.1797,1 30.2774,121.12 -13.5782,3.4"
       style="fill:#000000;fill-opacity:1;fill-rule:nonzero;stroke:none"
       transform="matrix(0.13333333,0,0,-0.13333333,0,200)" />
    <path
       id="path12"
       d="m 43,1450 v -124.85 l -14,2.47 21,-17.62 21,17.62 -14,-2.47 V 1450 H 43"
       style="fill:#000000;fill-opacity:1;fill-rule:nonzero;stroke:none"
       transform="matrix(0.13333333,0,0,-0.13333333,0,200)" />
    <path
       id="path13"
       d="M 222.242,56.4336 107.488,7.25391 104.242,21.0938 96.3203,-5.14844 120.789,-17.5078 113.004,-5.61328 227.758,43.5664 222.242,56.4336"
       style="fill:#000000;fill-opacity:1;fill-rule:nonzero;stroke:none"
       transform="matrix(0.13333333,0,0,-0.13333333,0,200)" />
    <path
       id="path14"
       d="m 221.871,231.262 -111.668,-55.836 -4.055,13.629 -6.3667,-26.664 25.1527,-10.903 -8.469,11.418 111.664,55.832 -6.258,12.524"
       style="fill:#000000;fill-opacity:1;fill-rule:nonzero;stroke:none"
       transform="matrix(0.13333333,0,0,-0.13333333,0,200)" />
    <path
       id="path15"
       d="m 221.398,406.004 -107.054,-64.234 -5.086,13.273 -4.309,-27.074 25.918,-8.942 -9.32,10.739 107.055,64.23 -7.204,12.008"
       style="fill:#000000;fill-opacity:1;fill-rule:nonzero;stroke:none"
       transform="matrix(0.13333333,0,0,-0.13333333,0,200)" />
    <path
       id="path16"
       d="m 220.801,580.602 -99.879,-74.911 -6.426,12.68 L 113,491 l 26.695,-6.227 -10.375,9.719 99.879,74.906 -8.398,11.204"
       style="fill:#000000;fill-opacity:1;fill-rule:nonzero;stroke:none"
       transform="matrix(0.13333333,0,0,-0.13333333,0,200)" />
    <path
       id="path17"
       d="m 220.051,754.949 -88.281,-88.281 -8.153,11.645 2.387,-27.309 27.309,-2.387 -11.645,8.153 88.281,88.281 -9.898,9.898"
       style="fill:#000000;fill-opacity:1;fill-rule:nonzero;stroke:none"
       transform="matrix(0.13333333,0,0,-0.13333333,0,200)" />
    <path
       id="path18"
       d="M 219.176,928.883 157.582,836.492 147.301,846.309 155,820 l 27.246,3.012 -13.016,5.715 61.594,92.39 -11.648,7.766"
       style="fill:#000000;fill-opacity:1;fill-rule:nonzero;stroke:none"
       transform="matrix(0.13333333,0,0,-0.13333333,0,200)" />
    <path
       id="path19"
       d="m 218.359,1102.21 -30.207,-90.62 -12.504,6.77 L 190,995 l 25.496,10.07 -14.062,2.09 30.207,90.63 -13.282,4.42"
       style="fill:#000000;fill-opacity:1;fill-rule:nonzero;stroke:none"
       transform="matrix(0.13333333,0,0,-0.13333333,0,200)" />
    <path
       id="path20"
       d="m 218,1275 v -89.85 l -14,2.47 21,-17.62 21,17.62 -14,-2.47 V 1275 h -14"
       style="fill:#000000;fill-opacity:1;fill-rule:nonzero;stroke:none"
       transform="matrix(0.13333333,0,0,-0.13333333,0,200)" />
    <path
       id="path21"
       d="m 218.359,1447.79 30.207,-90.63 -14.062,-2.09 L 260,1345 l 14.352,23.36 -12.504,-6.77 -30.207,90.62 -13.282,-4.42"
       style="fill:#000000;fill-opacity:1;fill-rule:nonzero;stroke:none"
       transform="matrix(0.13333333,0,0,-0.13333333,0,200)" />
    <path
       id="path22"
       d="M 397.785,56.6406 279.348,17.1602 277.262,31.2227 267.184,5.72656 l 23.359,-14.34765 -6.77,12.5 118.442,39.48049 -4.43,13.2812"
       style="fill:#000000;fill-opacity:1;fill-rule:nonzero;stroke:none"
       transform="matrix(0.13333333,0,0,-0.13333333,0,200)" />
    <path
       id="path23"
       d="m 397.398,231.5 -115.918,-46.367 -2.906,13.914 -8.562,-26.043 24.16,-12.953 -7.488,12.082 115.918,46.367 -5.204,13"
       style="fill:#000000;fill-opacity:1;fill-rule:nonzero;stroke:none"
       transform="matrix(0.13333333,0,0,-0.13333333,0,200)" />
    <path
       id="path24"
       d="m 396.871,406.262 -111.668,-55.836 -4.055,13.629 -6.367,-26.664 25.153,-10.903 -8.469,11.418 111.664,55.832 -6.258,12.524"
       style="fill:#000000;fill-opacity:1;fill-rule:nonzero;stroke:none"
       transform="matrix(0.13333333,0,0,-0.13333333,0,200)" />
    <path
       id="path25"
       d="M 396.117,580.824 303.727,519.23 298.012,532.246 295,505 l 26.309,-7.699 -9.817,10.281 92.391,61.594 -7.766,11.648"
       style="fill:#000000;fill-opacity:1;fill-rule:nonzero;stroke:none"
       transform="matrix(0.13333333,0,0,-0.13333333,0,200)" />
    <path
       id="path26"
       d="M 395.051,754.949 335.766,695.664 327.609,707.309 330,680 l 27.309,-2.391 -11.645,8.157 59.285,59.285 -9.898,9.898"
       style="fill:#000000;fill-opacity:1;fill-rule:nonzero;stroke:none"
       transform="matrix(0.13333333,0,0,-0.13333333,0,200)" />
    <path
       id="path27"
       d="M 393.738,928.129 365.516,871.684 354.098,880.152 365,855 l 26.664,6.371 -13.625,4.051 28.223,56.449 -12.524,6.258"
       style="fill:#000000;fill-opacity:1;fill-rule:nonzero;stroke:none"
       transform="matrix(0.13333333,0,0,-0.13333333,0,200)" />
    <path
       id="path28"
       d="m 393,1100 v -54.85 l -14,2.47 21,-17.62 21,17.62 -14,-2.47 V 1100 h -14"
       style="fill:#000000;fill-opacity:1;fill-rule:nonzero;stroke:none"
       transform="matrix(0.13333333,0,0,-0.13333333,0,200)" />
    <path
       id="path29"
       d="m 393.738,1271.87 28.223,-56.45 -13.625,-4.05 26.664,-6.37 10.902,25.15 -11.418,-8.47 -28.222,56.45 -12.524,-6.26"
       style="fill:#000000;fill-opacity:1;fill-rule:nonzero;stroke:none"
       transform="matrix(0.13333333,0,0,-0.13333333,0,200)" />
    <path
       id="path30"
       d="m 395.051,1445.05 59.285,-59.28 -11.645,-8.16 27.309,2.39 2.391,27.31 -8.157,-11.65 -59.285,59.29 -9.898,-9.9"
       style="fill:#000000;fill-opacity:1;fill-rule:nonzero;stroke:none"
       transform="matrix(0.13333333,0,0,-0.13333333,0,200)" />
    <path
       id="path31"
       d="M 573.629,56.8633 451.203,32.3789 450.879,46.5898 437.719,22.543 459.117,5.40625 453.949,18.6523 576.371,43.1367 573.629,56.8633"
       style="fill:#000000;fill-opacity:1;fill-rule:nonzero;stroke:none"
       transform="matrix(0.13333333,0,0,-0.13333333,0,200)" />
    <path
       id="path32"
       d="m 573.301,231.789 -121.117,-30.277 -1,14.179 -12.004,-24.644 22.187,-16.102 -5.789,12.985 121.121,30.281 -3.398,13.578"
       style="fill:#000000;fill-opacity:1;fill-rule:nonzero;stroke:none"
       transform="matrix(0.13333333,0,0,-0.13333333,0,200)" />
    <path
       id="path33"
       d="M 572.785,406.641 482.16,376.434 480.074,390.496 470,365 l 23.359,-14.352 -6.769,12.504 90.625,30.207 -4.43,13.282"
       style="fill:#000000;fill-opacity:1;fill-rule:nonzero;stroke:none"
       transform="matrix(0.13333333,0,0,-0.13333333,0,200)" />
    <path
       id="path34"
       d="M 571.871,581.262 515.422,553.039 511.371,566.664 505,540 l 25.152,-10.902 -8.468,11.418 56.445,28.222 -6.258,12.524"
       style="fill:#000000;fill-opacity:1;fill-rule:nonzero;stroke:none"
       transform="matrix(0.13333333,0,0,-0.13333333,0,200)" />
    <path
       id="path35"
       d="M 570.051,754.949 545.766,730.664 537.609,742.309 540,715 l 27.309,-2.391 -11.645,8.157 24.285,24.285 -9.898,9.898"
       style="fill:#000000;fill-opacity:1;fill-rule:nonzero;stroke:none"
       transform="matrix(0.13333333,0,0,-0.13333333,0,200)" />
    <path
       id="path36"
       d="m 568,925 v -19.848 l -14,2.469 21,-17.621 21,17.621 -14,-2.469 V 925 h -14"
       style="fill:#000000;fill-opacity:1;fill-rule:nonzero;stroke:none"
       transform="matrix(0.13333333,0,0,-0.13333333,0,200)" />
    <path
       id="path37"
       d="m 570.051,1095.05 24.285,-24.28 -11.645,-8.16 27.309,2.39 2.391,27.31 -8.157,-11.65 -24.285,24.29 -9.898,-9.9"
       style="fill:#000000;fill-opacity:1;fill-rule:nonzero;stroke:none"
       transform="matrix(0.13333333,0,0,-0.13333333,0,200)" />
    <path
       id="path38"
       d="m 571.871,1268.74 56.445,-28.22 -8.468,-11.42 25.152,10.9 -6.371,26.66 -4.051,-13.62 -56.449,28.22 -6.258,-12.52"
       style="fill:#000000;fill-opacity:1;fill-rule:nonzero;stroke:none"
       transform="matrix(0.13333333,0,0,-0.13333333,0,200)" />
    <path
       id="path39"
       d="m 572.785,1443.36 90.625,-30.21 -6.769,-12.5 23.359,14.35 -10.074,25.5 -2.086,-14.07 -90.625,30.21 -4.43,-13.28"
       style="fill:#000000;fill-opacity:1;fill-rule:nonzero;stroke:none"
       transform="matrix(0.13333333,0,0,-0.13333333,0,200)" />
    <path
       id="path40"
       d="M 750,57 H 625.152 L 627.621,71 610,50 627.621,29 625.152,43 H 750 v 14"
       style="fill:#000000;fill-opacity:1;fill-rule:nonzero;stroke:none"
       transform="matrix(0.13333333,0,0,-0.13333333,0,200)" />
    <path
       id="path41"
       d="m 750,232 h -89.848 l 2.469,14 -17.621,-21 17.621,-21 -2.469,14 H 750 v 14"
       style="fill:#000000;fill-opacity:1;fill-rule:nonzero;stroke:none"
       transform="matrix(0.13333333,0,0,-0.13333333,0,200)" />
    <path
       id="path42"
       d="m 750,407 h -54.848 l 2.469,14 -17.621,-21 17.621,-21 -2.469,14 H 750 v 14"
       style="fill:#000000;fill-opacity:1;fill-rule:nonzero;stroke:none"
       transform="matrix(0.13333333,0,0,-0.13333333,0,200)" />
    <path
       id="path43"
       d="m 750,582 h -19.848 l 2.469,14 -17.621,-21 17.621,-21 -2.469,14 H 750 v 14"
       style="fill:#000000;fill-opacity:1;fill-rule:nonzero;stroke:none"
       transform="matrix(0.13333333,0,0,-0.13333333,0,200)" />
    <path
       id="path44"
       d="m 750,918 h 19.848 l -2.469,-14 17.621,21 -17.621,21 2.469,-14 H 750 v -14"
       style="fill:#000000;fill-opacity:1;fill-rule:nonzero;stroke:none"
       transform="matrix(0.13333333,0,0,-0.13333333,0,200)" />
    <path
       id="path45"
       d="m 750,1093 h 54.848 l -2.469,-14 17.621,21 -17.621,21 2.469,-14 H 750 v -14"
       style="fill:#000000;fill-opacity:1;fill-rule:nonzero;stroke:none"
       transform="matrix(0.13333333,0,0,-0.13333333,0,200)" />
    <path
       id="path46"
       d="m 750,1268 h 89.848 l -2.469,-14 17.621,21 -17.621,21 2.469,-14 H 750 v -14"
       style="fill:#000000;fill-opacity:1;fill-rule:nonzero;stroke:none"
       transform="matrix(0.13333333,0,0,-0.13333333,0,200)" />
    <path
       id="path47"
       d="m 750,1443 h 124.848 l -2.469,-14 17.621,21 -17.621,21 2.469,-14 H 750 v -14"
       style="fill:#000000;fill-opacity:1;fill-rule:nonzero;stroke:none"
       transform="matrix(0.13333333,0,0,-0.13333333,0,200)" />
    <path
       id="path48"
       d="M 927.215,56.6406 836.59,86.8477 843.359,99.3516 820,85 l 10.074,-25.4961 2.086,14.0625 90.625,-30.207 4.43,13.2812"
       style="fill:#000000;fill-opacity:1;fill-rule:nonzero;stroke:none"
       transform="matrix(0.13333333,0,0,-0.13333333,0,200)" />
    <path
       id="path49"
       d="m 928.129,231.262 -56.445,28.222 8.468,11.418 L 855,260 l 6.371,-26.664 4.051,13.625 56.449,-28.223 6.258,12.524"
       style="fill:#000000;fill-opacity:1;fill-rule:nonzero;stroke:none"
       transform="matrix(0.13333333,0,0,-0.13333333,0,200)" />
    <path
       id="path50"
       d="m 929.949,404.949 -24.285,24.285 11.645,8.157 L 890,435 l -2.391,-27.309 8.157,11.645 24.285,-24.285 9.898,9.898"
       style="fill:#000000;fill-opacity:1;fill-rule:nonzero;stroke:none"
       transform="matrix(0.13333333,0,0,-0.13333333,0,200)" />
    <path
       id="path51"
       d="m 932,575 v 19.848 l 14,-2.469 -21,17.621 -21,-17.621 14,2.469 V 575 h 14"
       style="fill:#000000;fill-opacity:1;fill-rule:nonzero;stroke:none"
       transform="matrix(0.13333333,0,0,-0.13333333,0,200)" />
    <path
       id="path52"
       d="m 929.949,745.051 24.285,24.285 8.157,-11.645 L 960,785 l -27.309,2.391 11.645,-8.157 -24.285,-24.285 9.898,-9.898"
       style="fill:#000000;fill-opacity:1;fill-rule:nonzero;stroke:none"
       transform="matrix(0.13333333,0,0,-0.13333333,0,200)" />
    <path
       id="path53"
       d="m 928.129,918.738 56.449,28.223 4.051,-13.625 L 995,960 l -25.152,10.902 8.468,-11.418 -56.445,-28.222 6.258,-12.524"
       style="fill:#000000;fill-opacity:1;fill-rule:nonzero;stroke:none"
       transform="matrix(0.13333333,0,0,-0.13333333,0,200)" />
    <path
       id="path54"
       d="m 927.215,1093.36 90.625,30.21 2.09,-14.07 10.07,25.5 -23.36,14.35 6.77,-12.5 -90.625,-30.21 4.43,-13.28"
       style="fill:#000000;fill-opacity:1;fill-rule:nonzero;stroke:none"
       transform="matrix(0.13333333,0,0,-0.13333333,0,200)" />
    <path
       id="path55"
       d="m 926.699,1268.21 121.121,30.28 1,-14.18 12,24.64 -22.19,16.1 5.79,-12.98 -121.119,-30.28 3.398,-13.58"
       style="fill:#000000;fill-opacity:1;fill-rule:nonzero;stroke:none"
       transform="matrix(0.13333333,0,0,-0.13333333,0,200)" />
    <path
       id="path56"
       d="m 926.371,1443.14 122.429,24.48 0.32,-14.21 13.16,24.05 -21.4,17.13 5.17,-13.24 -122.421,-24.49 2.742,-13.72"
       style="fill:#000000;fill-opacity:1;fill-rule:nonzero;stroke:none"
       transform="matrix(0.13333333,0,0,-0.13333333,0,200)" />
    <path
       id="path57"
       d="m 1104.95,54.9492 -59.29,59.2848 11.65,8.157 L 1030,120 l -2.39,-27.3086 8.16,11.6446 59.28,-59.2852 9.9,9.8984"
       style="fill:#000000;fill-opacity:1;fill-rule:nonzero;stroke:none"
       transform="matrix(0.13333333,0,0,-0.13333333,0,200)" />
    <path
       id="path58"
       d="m 1106.26,228.129 -28.22,56.449 13.62,4.051 -26.66,6.371 -10.9,-25.152 11.42,8.468 28.22,-56.445 12.52,6.258"
       style="fill:#000000;fill-opacity:1;fill-rule:nonzero;stroke:none"
       transform="matrix(0.13333333,0,0,-0.13333333,0,200)" />
    <path
       id="path59"
       d="m 1107,400 v 54.848 l 14,-2.469 -21,17.621 -21,-17.621 14,2.469 V 400 h 14"
       style="fill:#000000;fill-opacity:1;fill-rule:nonzero;stroke:none"
       transform="matrix(0.13333333,0,0,-0.13333333,0,200)" />
    <path
       id="path60"
       d="m 1106.26,571.871 28.22,56.445 11.42,-8.468 -10.9,25.152 -26.66,-6.371 13.62,-4.051 -28.22,-56.449 12.52,-6.258"
       style="fill:#000000;fill-opacity:1;fill-rule:nonzero;stroke:none"
       transform="matrix(0.13333333,0,0,-0.13333333,0,200)" />
    <path
       id="path61"
       d="m 1104.95,745.051 59.28,59.285 8.16,-11.645 -2.39,27.309 -27.31,2.391 11.65,-8.157 -59.29,-59.285 9.9,-9.898"
       style="fill:#000000;fill-opacity:1;fill-rule:nonzero;stroke:none"
       transform="matrix(0.13333333,0,0,-0.13333333,0,200)" />
    <path
       id="path62"
       d="m 1103.88,919.176 92.39,61.594 5.72,-13.016 3.01,27.246 -26.31,7.7 9.82,-10.282 -92.39,-61.594 7.76,-11.648"
       style="fill:#000000;fill-opacity:1;fill-rule:nonzero;stroke:none"
       transform="matrix(0.13333333,0,0,-0.13333333,0,200)" />
    <path
       id="path63"
       d="m 1103.13,1093.74 111.67,55.83 4.05,-13.62 6.37,26.66 -25.15,10.9 8.47,-11.42 -111.67,-55.83 6.26,-12.52"
       style="fill:#000000;fill-opacity:1;fill-rule:nonzero;stroke:none"
       transform="matrix(0.13333333,0,0,-0.13333333,0,200)" />
    <path
       id="path64"
       d="m 1102.6,1268.5 115.92,46.37 2.91,-13.92 8.56,26.05 -24.16,12.95 7.49,-12.08 -115.92,-46.37 5.2,-13"
       style="fill:#000000;fill-opacity:1;fill-rule:nonzero;stroke:none"
       transform="matrix(0.13333333,0,0,-0.13333333,0,200)" />
    <path
       id="path65"
       d="m 1102.21,1443.36 118.44,39.48 2.09,-14.06 10.08,25.49 -23.36,14.35 6.77,-12.5 -118.44,-39.48 4.42,-13.28"
       style="fill:#000000;fill-opacity:1;fill-rule:nonzero;stroke:none"
       transform="matrix(0.13333333,0,0,-0.13333333,0,200)" />
    <path
       id="path66"
       d="m 1281.64,52.2148 -30.21,90.6252 14.07,2.086 -25.5,10.074 -14.35,-23.359 12.5,6.769 30.21,-90.6248 13.28,4.4296"
       style="fill:#000000;fill-opacity:1;fill-rule:nonzero;stroke:none"
       transform="matrix(0.13333333,0,0,-0.13333333,0,200)" />
    <path
       id="path67"
       d="m 1282,225 v 89.848 l 14,-2.469 -21,17.621 -21,-17.621 14,2.469 V 225 h 14"
       style="fill:#000000;fill-opacity:1;fill-rule:nonzero;stroke:none"
       transform="matrix(0.13333333,0,0,-0.13333333,0,200)" />
    <path
       id="path68"
       d="m 1281.64,397.785 30.21,90.625 12.5,-6.769 L 1310,505 l -25.5,-10.074 14.07,-2.086 -30.21,-90.625 13.28,-4.43"
       style="fill:#000000;fill-opacity:1;fill-rule:nonzero;stroke:none"
       transform="matrix(0.13333333,0,0,-0.13333333,0,200)" />
    <path
       id="path69"
       d="m 1280.82,571.117 61.6,92.391 10.28,-9.817 -7.7,26.309 -27.25,-3.012 13.02,-5.715 -61.59,-92.39 11.64,-7.766"
       style="fill:#000000;fill-opacity:1;fill-rule:nonzero;stroke:none"
       transform="matrix(0.13333333,0,0,-0.13333333,0,200)" />
    <path
       id="path70"
       d="m 1279.95,745.051 88.28,88.281 8.15,-11.644 -2.38,27.308 -27.31,2.387 11.64,-8.153 -88.28,-88.281 9.9,-9.898"
       style="fill:#000000;fill-opacity:1;fill-rule:nonzero;stroke:none"
       transform="matrix(0.13333333,0,0,-0.13333333,0,200)" />
    <path
       id="path71"
       d="m 1279.2,919.398 99.88,74.911 6.42,-12.68 1.5,27.371 -26.7,6.23 10.38,-9.72 -99.88,-74.908 8.4,-11.204"
       style="fill:#000000;fill-opacity:1;fill-rule:nonzero;stroke:none"
       transform="matrix(0.13333333,0,0,-0.13333333,0,200)" />
    <path
       id="path72"
       d="m 1278.6,1094 107.06,64.23 5.08,-13.27 4.31,27.07 -25.91,8.94 9.31,-10.74 -107.05,-64.23 7.2,-12"
       style="fill:#000000;fill-opacity:1;fill-rule:nonzero;stroke:none"
       transform="matrix(0.13333333,0,0,-0.13333333,0,200)" />
    <path
       id="path73"
       d="m 1278.13,1268.74 111.67,55.83 4.05,-13.62 6.37,26.66 -25.15,10.9 8.47,-11.42 -111.67,-55.83 6.26,-12.52"
       style="fill:#000000;fill-opacity:1;fill-rule:nonzero;stroke:none"
       transform="matrix(0.13333333,0,0,-0.13333333,0,200)" />
    <path
       id="path74"
       d="m 1277.76,1443.57 114.75,49.18 3.25,-13.84 7.92,26.24 -24.47,12.36 7.79,-11.9 -114.76,-49.18 5.52,-12.86"
       style="fill:#000000;fill-opacity:1;fill-rule:nonzero;stroke:none"
       transform="matrix(0.13333333,0,0,-0.13333333,0,200)" />
    <path
       id="path75"
       d="m 1457,50 v 124.848 l 14,-2.469 -21,17.621 -21,-17.621 14,2.469 V 50 h 14"
       style="fill:#000000;fill-opacity:1;fill-rule:nonzero;stroke:none"
       transform="matrix(0.13333333,0,0,-0.13333333,0,200)" />
    <path
       id="path76"
       d="m 1456.79,223.301 30.28,121.121 12.98,-5.789 -16.1,22.187 -24.64,-12.004 14.18,-1 -30.28,-121.117 13.58,-3.398"
       style="fill:#000000;fill-opacity:1;fill-rule:nonzero;stroke:none"
       transform="matrix(0.13333333,0,0,-0.13333333,0,200)" />
    <path
       id="path77"
       d="m 1456.26,396.871 55.83,111.664 11.42,-8.469 -10.9,25.153 -26.66,-6.367 13.62,-4.055 -55.83,-111.668 12.52,-6.258"
       style="fill:#000000;fill-opacity:1;fill-rule:nonzero;stroke:none"
       transform="matrix(0.13333333,0,0,-0.13333333,0,200)" />
    <path
       id="path78"
       d="m 1455.6,570.801 74.91,99.879 9.72,-10.375 -6.23,26.695 -27.37,-1.496 12.68,-6.426 -74.91,-99.879 11.2,-8.398"
       style="fill:#000000;fill-opacity:1;fill-rule:nonzero;stroke:none"
       transform="matrix(0.13333333,0,0,-0.13333333,0,200)" />
    <path
       id="path79"
       d="m 1454.95,745.051 88.28,88.281 8.15,-11.644 -2.38,27.308 -27.31,2.387 11.64,-8.153 -88.28,-88.281 9.9,-9.898"
       style="fill:#000000;fill-opacity:1;fill-rule:nonzero;stroke:none"
       transform="matrix(0.13333333,0,0,-0.13333333,0,200)" />
    <path
       id="path80"
       d="m 1454.38,919.535 97.48,77.992 6.82,-12.476 0.64,27.409 -26.88,5.39 10.68,-9.39 -97.49,-77.995 8.75,-10.93"
       style="fill:#000000;fill-opacity:1;fill-rule:nonzero;stroke:none"
       transform="matrix(0.13333333,0,0,-0.13333333,0,200)" />
    <path
       id="path81"
       d="m 1453.88,1094.18 103.88,69.25 5.71,-13.02 3.02,27.25 -26.31,7.7 9.82,-10.28 -103.88,-69.26 7.76,-11.64"
       style="fill:#000000;fill-opacity:1;fill-rule:nonzero;stroke:none"
       transform="matrix(0.13333333,0,0,-0.13333333,0,200)" />
    <path
       id="path82"
       d="m 1453.47,1268.92 108.4,61.94 4.81,-13.38 4.87,26.98 -25.71,9.49 9.09,-10.93 -108.4,-61.94 6.94,-12.16"
       style="fill:#000000;fill-opacity:1;fill-rule:nonzero;stroke:none"
       transform="matrix(0.13333333,0,0,-0.13333333,0,200)" />
    <path
       id="path83"
       d="m 1453.13,1443.74 111.67,55.83 4.05,-13.62 6.37,26.66 -25.15,10.9 8.47,-11.42 -111.67,-55.83 6.26,-12.52"
       style="fill:#000000;fill-opacity:1;fill-rule:nonzero;stroke:none"
       transform="matrix(0.13333333,0,0,-0.13333333,0,200)" />
    <path
       id="path84"
       d="m 250,925 c 0,13.809 -11.191,25 -25,25 v 0 c -13.809,0 -25,-11.191 -25,-25 v 0 c 0,-13.809 11.191,-25 25,-25 v 0 c 13.809,0 25,11.191 25,25"
       style="fill:#ff0000;fill-opacity:1;fill-rule:nonzero;stroke:none"
       transform="matrix(0.13333333,0,0,-0.13333333,0,200)" />
    <path
       id="path85"
       d="m 250,925 c 0,13.809 -11.191,25 -25,25 v 0 c -13.809,0 -25,-11.191 -25,-25 v 0 c 0,-13.809 11.191,-25 25,-25 v 0 c 13.809,0 25,11.191 25,25 z"
       style="fill:none;stroke:#000000;stroke-width:10;stroke-linecap:butt;stroke-linejoin:miter;stroke-miterlimit:10;stroke-dasharray:none;stroke-opacity:1"
       transform="matrix(0.13333333,0,0,-0.13333333,0,200)" />
    <path
       id="path86"
       d="m 775,225 c 0,13.809 -11.191,25 -25,25 v 0 c -13.809,0 -25,-11.191 -25,-25 v 0 c 0,-13.809 11.191,-25 25,-25 v 0 c 13.809,0 25,11.191 25,25"
       style="fill:#ff0000;fill-opacity:1;fill-rule:nonzero;stroke:none"
       transform="matrix(0.13333333,0,0,-0.13333333,0,200)" />
    <path
       id="path87"
       d="m 775,225 c 0,13.809 -11.191,25 -25,25 v 0 c -13.809,0 -25,-11.191 -25,-25 v 0 c 0,-13.809 11.191,-25 25,-25 v 0 c 13.809,0 25,11.191 25,25 z"
       style="fill:none;stroke:#000000;stroke-width:10;stroke-linecap:butt;stroke-linejoin:miter;stroke-miterlimit:10;stroke-dasharray:none;stroke-opacity:1"
       transform="matrix(0.13333333,0,0,-0.13333333,0,200)" />
    <path
       id="path88"
       d="m 1300,750 c 0,13.809 -11.19,25 -25,25 v 0 c -13.81,0 -25,-11.191 -25,-25 v 0 c 0,-13.809 11.19,-25 25,-25 v 0 c 13.81,0 25,11.191 25,25"
       style="fill:#ff0000;fill-opacity:1;fill-rule:nonzero;stroke:none"
       transform="matrix(0.13333333,0,0,-0.13333333,0,200)" />
    <path
       id="path89"
       d="m 1300,750 c 0,13.809 -11.19,25 -25,25 v 0 c -13.81,0 -25,-11.191 -25,-25 v 0 c 0,-13.809 11.19,-25 25,-25 v 0 c 13.81,0 25,11.191 25,25 z"
       style="fill:none;stroke:#000000;stroke-width:10;stroke-linecap:butt;stroke-linejoin:miter;stroke-miterlimit:10;stroke-dasharray:none;stroke-opacity:1"
       transform="matrix(0.13333333,0,0,-0.13333333,0,200)" />
  </g>
</svg>
