<?xml version="1.0" encoding="utf-8" standalone="no"?>
<!DOCTYPE svg PUBLIC "-//W3C//DTD SVG 1.1//EN"
  "http://www.w3.org/Graphics/SVG/1.1/DTD/svg11.dtd">
<svg xmlns:xlink="http://www.w3.org/1999/xlink" width="750.70912pt" height="364.818146pt" viewBox="0 0 750.70912 364.818146" xmlns="http://www.w3.org/2000/svg" version="1.1">
 <metadata>
  <rdf:RDF xmlns:dc="http://purl.org/dc/elements/1.1/" xmlns:cc="http://creativecommons.org/ns#" xmlns:rdf="http://www.w3.org/1999/02/22-rdf-syntax-ns#">
   <cc:Work>
    <dc:type rdf:resource="http://purl.org/dc/dcmitype/StillImage"/>
    <dc:date>2022-12-15T21:30:37.771632</dc:date>
    <dc:format>image/svg+xml</dc:format>
    <dc:creator>
     <cc:Agent>
      <dc:title>Matplotlib v3.5.2, https://matplotlib.org/</dc:title>
     </cc:Agent>
    </dc:creator>
   </cc:Work>
  </rdf:RDF>
 </metadata>
 <defs>
  <style type="text/css">*{stroke-linejoin: round; stroke-linecap: butt}</style>
 </defs>
 <g id="figure_1">
  <g id="patch_1">
   <path d="M 0 364.818146 
L 750.70912 364.818146 
L 750.70912 0 
L 0 0 
z
" style="fill: #ffffff"/>
  </g>
  <g id="axes_1">
   <g id="patch_2">
    <path d="M 8.591371 350.490194 
L 514.740093 350.490194 
L 514.740093 92.065579 
L 8.591371 92.065579 
z
" style="fill: #ffffff"/>
   </g>
   <g id="PathCollection_1">
    <path d="M 102.671283 328.809172 
C 103.608918 328.809172 104.508276 328.436646 105.171283 327.773638 
C 105.834291 327.11063 106.206817 326.211272 106.206817 325.273638 
C 106.206817 324.336003 105.834291 323.436646 105.171283 322.773638 
C 104.508276 322.11063 103.608918 321.738104 102.671283 321.738104 
C 101.733649 321.738104 100.834291 322.11063 100.171283 322.773638 
C 99.508276 323.436646 99.13575 324.336003 99.13575 325.273638 
C 99.13575 326.211272 99.508276 327.11063 100.171283 327.773638 
C 100.834291 328.436646 101.733649 328.809172 102.671283 328.809172 
z
" clip-path="url(#pa970d36c4c)"/>
   </g>
   <g id="PathCollection_2">
    <path d="M 38.571852 282.335238 
C 39.509487 282.335238 40.408844 281.962712 41.071852 281.299704 
C 41.73486 280.636696 42.107386 279.737339 42.107386 278.799704 
C 42.107386 277.86207 41.73486 276.962712 41.071852 276.299704 
C 40.408844 275.636696 39.509487 275.26417 38.571852 275.26417 
C 37.634218 275.26417 36.73486 275.636696 36.071852 276.299704 
C 35.408844 276.962712 35.036318 277.86207 35.036318 278.799704 
C 35.036318 279.737339 35.408844 280.636696 36.071852 281.299704 
C 36.73486 281.962712 37.634218 282.335238 38.571852 282.335238 
z
" clip-path="url(#pa970d36c4c)"/>
   </g>
   <g id="PathCollection_3">
    <path d="M 45.021066 221.568049 
C 45.958701 221.568049 46.858058 221.195523 47.521066 220.532516 
C 48.184074 219.869508 48.5566 218.97015 48.5566 218.032516 
C 48.5566 217.094881 48.184074 216.195523 47.521066 215.532516 
C 46.858058 214.869508 45.958701 214.496982 45.021066 214.496982 
C 44.083432 214.496982 43.184074 214.869508 42.521066 215.532516 
C 41.858058 216.195523 41.485532 217.094881 41.485532 218.032516 
C 41.485532 218.97015 41.858058 219.869508 42.521066 220.532516 
C 43.184074 221.195523 44.083432 221.568049 45.021066 221.568049 
z
" clip-path="url(#pa970d36c4c)"/>
   </g>
   <g id="PathCollection_4">
    <path d="M 109.596723 161.169006 
C 110.534357 161.169006 111.433715 160.79648 112.096723 160.133472 
C 112.75973 159.470464 113.132256 158.571107 113.132256 157.633472 
C 113.132256 156.695837 112.75973 155.79648 112.096723 155.133472 
C 111.433715 154.470464 110.534357 154.097938 109.596723 154.097938 
C 108.659088 154.097938 107.75973 154.470464 107.096723 155.133472 
C 106.433715 155.79648 106.061189 156.695837 106.061189 157.633472 
C 106.061189 158.571107 106.433715 159.470464 107.096723 160.133472 
C 107.75973 160.79648 108.659088 161.169006 109.596723 161.169006 
z
" clip-path="url(#pa970d36c4c)"/>
   </g>
   <g id="PathCollection_5">
    <path d="M 320.992289 100.577356 
C 321.929923 100.577356 322.829281 100.20483 323.492289 99.541822 
C 324.155297 98.878815 324.527823 97.979457 324.527823 97.041822 
C 324.527823 96.104188 324.155297 95.20483 323.492289 94.541822 
C 322.829281 93.878815 321.929923 93.506289 320.992289 93.506289 
C 320.054654 93.506289 319.155297 93.878815 318.492289 94.541822 
C 317.829281 95.20483 317.456755 96.104188 317.456755 97.041822 
C 317.456755 97.979457 317.829281 98.878815 318.492289 99.541822 
C 319.155297 100.20483 320.054654 100.577356 320.992289 100.577356 
z
" clip-path="url(#pa970d36c4c)"/>
   </g>
   <g id="PathCollection_6">
    <path d="M 418.63676 118.746042 
C 419.574395 118.746042 420.473753 118.373516 421.13676 117.710508 
C 421.799768 117.047501 422.172294 116.148143 422.172294 115.210508 
C 422.172294 114.272874 421.799768 113.373516 421.13676 112.710508 
C 420.473753 112.047501 419.574395 111.674975 418.63676 111.674975 
C 417.699126 111.674975 416.799768 112.047501 416.13676 112.710508 
C 415.473753 113.373516 415.101226 114.272874 415.101226 115.210508 
C 415.101226 116.148143 415.473753 117.047501 416.13676 117.710508 
C 416.799768 118.373516 417.699126 118.746042 418.63676 118.746042 
z
" clip-path="url(#pa970d36c4c)"/>
   </g>
   <g id="PathCollection_7">
    <path d="M 484.759612 168.646601 
C 485.697246 168.646601 486.596604 168.274075 487.259612 167.611067 
C 487.922619 166.94806 488.295146 166.048702 488.295146 165.111067 
C 488.295146 164.173433 487.922619 163.274075 487.259612 162.611067 
C 486.596604 161.94806 485.697246 161.575533 484.759612 161.575533 
C 483.821977 161.575533 482.922619 161.94806 482.259612 162.611067 
C 481.596604 163.274075 481.224078 164.173433 481.224078 165.111067 
C 481.224078 166.048702 481.596604 166.94806 482.259612 167.611067 
C 482.922619 168.274075 483.821977 168.646601 484.759612 168.646601 
z
" clip-path="url(#pa970d36c4c)"/>
   </g>
   <g id="matplotlib.axis_1"/>
   <g id="matplotlib.axis_2"/>
   <g id="line2d_1">
    <path d="M 484.759612 165.111067 
L 481.716193 161.12363 
L 477.201707 155.746095 
L 473.634434 151.87577 
L 468.778733 147.055284 
L 464.073274 142.80316 
L 459.769388 139.224487 
L 455.280802 135.769572 
L 450.444034 132.328192 
L 443.991101 128.138995 
L 440.344799 125.954579 
L 432.856244 121.838055 
L 427.088242 118.974757 
L 421.560237 116.457772 
L 415.327019 113.864776 
L 408.849582 111.424088 
L 405.037835 110.100823 
L 399.113711 108.200441 
L 393.109362 106.457764 
L 386.410575 104.718433 
L 377.480949 102.714452 
L 368.870997 101.100341 
L 359.919698 99.731811 
L 352.393342 98.811625 
L 346.897697 98.266676 
L 339.304023 97.683103 
L 330.494808 97.243004 
L 324.65743 97.086523 
L 318.062143 97.035283 
L 307.9406 97.207979 
L 301.733723 97.460274 
L 290.135072 98.221262 
L 283.303946 98.841988 
L 271.686742 100.1846 
L 261.981201 101.578712 
L 255.653086 102.619556 
L 243.530078 104.901846 
L 236.244722 106.45497 
L 223.248034 109.564492 
L 214.164826 111.997183 
L 204.625385 114.78495 
L 196.868566 117.23056 
L 190.047373 119.516305 
L 177.953061 123.888582 
L 169.244509 127.298911 
L 160.4628 130.97036 
L 153.179365 134.200726 
L 144.080466 138.485437 
L 137.135105 141.953334 
L 132.338516 144.453998 
L 125.451908 148.204353 
L 119.161682 151.80558 
L 110.404036 157.124069 
L 103.701213 161.458879 
L 95.655365 167.003925 
L 89.234029 171.73307 
L 81.908418 177.511283 
L 76.427277 182.146673 
L 71.735406 186.364384 
L 66.425296 191.467093 
L 62.019319 196.019548 
L 58.463297 199.949674 
L 54.179806 205.059259 
L 51.575764 208.413324 
L 48.063248 213.319111 
L 44.644252 218.654224 
L 42.636504 222.142361 
L 40.643424 225.968648 
L 38.811197 229.935936 
L 37.010857 234.48021 
L 35.772198 238.22365 
L 34.42703 243.428523 
L 33.702571 247.414324 
L 33.271679 251.160778 
L 33.097404 254.55763 
L 33.13072 257.828831 
L 33.474829 262.034894 
L 34.068631 265.728394 
L 34.660054 268.338968 
L 35.495557 271.254237 
L 36.85519 275.00701 
L 38.593672 278.843307 
L 40.197787 281.816633 
L 41.989349 284.714399 
L 44.056122 287.662339 
L 46.749657 291.044241 
L 49.457027 294.054562 
L 52.654473 297.231389 
L 55.256636 299.577793 
L 59.947281 303.382331 
L 63.441646 305.929583 
L 67.610059 308.709236 
L 72.124828 311.454603 
L 75.839789 313.538085 
L 81.093953 316.253813 
L 86.859831 318.966896 
L 93.493787 321.795057 
L 99.182017 324.00506 
L 102.671283 325.273638 
L 102.671283 325.273638 
" clip-path="url(#pa970d36c4c)" style="fill: none; stroke: #000000; stroke-width: 2; stroke-linecap: square"/>
   </g>
   <g id="patch_3">
    <path d="M 102.671283 325.273638 
Q 70.621568 302.036671 40.382171 280.112238 
" clip-path="url(#pa970d36c4c)" style="fill: none; stroke: #0000ff; stroke-width: 2; stroke-linecap: round"/>
    <path d="M 45.543251 290.030063 
L 40.382171 280.112238 
L 51.413079 281.93407 
L 45.543251 290.030063 
z
" clip-path="url(#pa970d36c4c)" style="fill: #0000ff; stroke: #0000ff; stroke-width: 2; stroke-linecap: round"/>
   </g>
   <g id="patch_4">
    <path d="M 38.571852 278.799704 
Q 41.796459 248.41611 44.785078 220.256096 
" clip-path="url(#pa970d36c4c)" style="fill: none; stroke: #0000ff; stroke-width: 2; stroke-linecap: round"/>
    <path d="M 38.757629 229.672564 
L 44.785078 220.256096 
L 48.701783 230.727935 
L 38.757629 229.672564 
z
" clip-path="url(#pa970d36c4c)" style="fill: #0000ff; stroke: #0000ff; stroke-width: 2; stroke-linecap: round"/>
   </g>
   <g id="patch_5">
    <path d="M 45.021066 218.032516 
Q 77.308894 187.832994 107.963654 159.160917 
" clip-path="url(#pa970d36c4c)" style="fill: none; stroke: #0000ff; stroke-width: 2; stroke-linecap: round"/>
    <path d="M 97.24488 162.340207 
L 107.963654 159.160917 
L 104.075822 169.64351 
L 97.24488 162.340207 
z
" clip-path="url(#pa970d36c4c)" style="fill: #0000ff; stroke: #0000ff; stroke-width: 2; stroke-linecap: round"/>
   </g>
   <g id="patch_6">
    <path d="M 109.596723 157.633472 
Q 215.294506 127.337647 318.842775 97.657931 
" clip-path="url(#pa970d36c4c)" style="fill: none; stroke: #ff0000; stroke-width: 2; stroke-linecap: round"/>
    <path d="M 307.852196 95.606792 
L 318.842775 97.657931 
L 310.607516 105.219711 
L 307.852196 95.606792 
z
" clip-path="url(#pa970d36c4c)" style="fill: #ff0000; stroke: #ff0000; stroke-width: 2; stroke-linecap: round"/>
   </g>
   <g id="patch_7">
    <path d="M 320.992289 97.041822 
Q 369.814525 106.126165 416.438424 114.801464 
" clip-path="url(#pa970d36c4c)" style="fill: none; stroke: #0000ff; stroke-width: 2; stroke-linecap: round"/>
    <path d="M 407.521815 108.056534 
L 416.438424 114.801464 
L 405.692514 117.887794 
L 407.521815 108.056534 
z
" clip-path="url(#pa970d36c4c)" style="fill: #0000ff; stroke: #0000ff; stroke-width: 2; stroke-linecap: round"/>
   </g>
   <g id="patch_8">
    <path d="M 418.63676 115.210508 
Q 451.698186 140.160788 482.974761 163.764104 
" clip-path="url(#pa970d36c4c)" style="fill: none; stroke: #0000ff; stroke-width: 2; stroke-linecap: round"/>
    <path d="M 478.004569 153.749256 
L 482.974761 163.764104 
L 471.980767 161.73135 
L 478.004569 153.749256 
z
" clip-path="url(#pa970d36c4c)" style="fill: #0000ff; stroke: #0000ff; stroke-width: 2; stroke-linecap: round"/>
   </g>
   <g id="text_1">
    <!-- $P=\mathbf{r}_0$ -->
    <g transform="translate(79.54471 352.418928)scale(0.25 -0.25)">
     <defs>
      <path id="Cmmi10-50" d="M 313 0 
Q 250 0 250 84 
Q 253 100 262 139 
Q 272 178 289 201 
Q 306 225 331 225 
Q 722 225 878 269 
Q 959 297 997 441 
L 1875 3956 
Q 1888 4019 1888 4044 
Q 1888 4113 1813 4122 
Q 1691 4147 1350 4147 
Q 1288 4147 1288 4231 
Q 1291 4247 1300 4286 
Q 1309 4325 1326 4348 
Q 1344 4372 1369 4372 
L 3578 4372 
Q 3881 4372 4165 4264 
Q 4450 4156 4631 3934 
Q 4813 3713 4813 3397 
Q 4813 2991 4527 2672 
Q 4241 2353 3814 2175 
Q 3388 1997 2988 1997 
L 1947 1997 
L 1556 416 
Q 1544 353 1544 325 
Q 1544 300 1551 283 
Q 1559 266 1573 261 
Q 1588 256 1619 250 
Q 1741 225 2081 225 
Q 2144 225 2144 141 
Q 2122 50 2109 25 
Q 2097 0 2034 0 
L 313 0 
z
M 1978 2188 
L 2875 2188 
Q 3497 2188 3822 2522 
Q 3988 2688 4092 3000 
Q 4197 3313 4197 3566 
Q 4197 3881 3956 4014 
Q 3716 4147 3359 4147 
L 2747 4147 
Q 2572 4147 2515 4117 
Q 2459 4088 2413 3928 
L 1978 2188 
z
" transform="scale(0.015625)"/>
      <path id="Cmr10-3d" d="M 481 850 
Q 428 850 393 890 
Q 359 931 359 978 
Q 359 1031 393 1068 
Q 428 1106 481 1106 
L 4500 1106 
Q 4547 1106 4581 1068 
Q 4616 1031 4616 978 
Q 4616 931 4581 890 
Q 4547 850 4500 850 
L 481 850 
z
M 481 2094 
Q 428 2094 393 2131 
Q 359 2169 359 2222 
Q 359 2269 393 2309 
Q 428 2350 481 2350 
L 4500 2350 
Q 4547 2350 4581 2309 
Q 4616 2269 4616 2222 
Q 4616 2169 4581 2131 
Q 4547 2094 4500 2094 
L 481 2094 
z
" transform="scale(0.015625)"/>
      <path id="Cmb10-72" d="M 91 0 
L 91 325 
L 531 325 
L 531 2322 
Q 531 2503 91 2503 
L 91 2828 
L 1178 2881 
L 1178 2356 
Q 1269 2594 1436 2737 
Q 1603 2881 1838 2881 
Q 2006 2881 2173 2822 
Q 2341 2763 2450 2641 
Q 2559 2519 2559 2344 
Q 2559 2178 2443 2059 
Q 2328 1941 2156 1941 
Q 1984 1941 1868 2059 
Q 1753 2178 1753 2344 
Q 1753 2513 1856 2625 
L 1838 2625 
Q 1488 2625 1367 2248 
Q 1247 1872 1247 1416 
L 1247 325 
L 1806 325 
L 1806 0 
L 91 0 
z
" transform="scale(0.015625)"/>
      <path id="Cmr10-30" d="M 1600 -141 
Q 816 -141 533 504 
Q 250 1150 250 2041 
Q 250 2597 351 3087 
Q 453 3578 754 3920 
Q 1056 4263 1600 4263 
Q 2022 4263 2290 4056 
Q 2559 3850 2700 3523 
Q 2841 3197 2892 2823 
Q 2944 2450 2944 2041 
Q 2944 1491 2842 1011 
Q 2741 531 2444 195 
Q 2147 -141 1600 -141 
z
M 1600 25 
Q 1956 25 2131 390 
Q 2306 756 2347 1200 
Q 2388 1644 2388 2144 
Q 2388 2625 2347 3031 
Q 2306 3438 2132 3767 
Q 1959 4097 1600 4097 
Q 1238 4097 1063 3765 
Q 888 3434 847 3029 
Q 806 2625 806 2144 
Q 806 1788 823 1472 
Q 841 1156 916 820 
Q 991 484 1158 254 
Q 1325 25 1600 25 
z
" transform="scale(0.015625)"/>
     </defs>
     <use xlink:href="#Cmmi10-50" transform="translate(0 0.6875)"/>
     <use xlink:href="#Cmr10-3d" transform="translate(81.767578 0.6875)"/>
     <use xlink:href="#Cmb10-72" transform="translate(177.011719 0.6875)"/>
     <use xlink:href="#Cmr10-30" transform="translate(224.151641 -16.31875)scale(0.7)"/>
    </g>
   </g>
   <g id="text_2">
    <!-- $\mathbf{r}_1$ -->
    <g transform="translate(7.2 295.821568)scale(0.25 -0.25)">
     <defs>
      <path id="Cmr10-31" d="M 594 0 
L 594 225 
Q 1394 225 1394 428 
L 1394 3788 
Q 1063 3628 556 3628 
L 556 3853 
Q 1341 3853 1741 4263 
L 1831 4263 
Q 1853 4263 1873 4245 
Q 1894 4228 1894 4206 
L 1894 428 
Q 1894 225 2694 225 
L 2694 0 
L 594 0 
z
" transform="scale(0.015625)"/>
     </defs>
     <use xlink:href="#Cmb10-72" transform="translate(0 0.984375)"/>
     <use xlink:href="#Cmr10-31" transform="translate(47.139922 -16.021875)scale(0.7)"/>
    </g>
   </g>
   <g id="text_3">
    <!-- $\mathbf{r}_2$ -->
    <g transform="translate(54.142918 224.930953)scale(0.25 -0.25)">
     <defs>
      <path id="Cmr10-32" d="M 319 0 
L 319 172 
Q 319 188 331 206 
L 1325 1306 
Q 1550 1550 1690 1715 
Q 1831 1881 1968 2097 
Q 2106 2313 2186 2536 
Q 2266 2759 2266 3009 
Q 2266 3272 2169 3511 
Q 2072 3750 1880 3894 
Q 1688 4038 1416 4038 
Q 1138 4038 916 3870 
Q 694 3703 603 3438 
Q 628 3444 672 3444 
Q 816 3444 917 3347 
Q 1019 3250 1019 3097 
Q 1019 2950 917 2848 
Q 816 2747 672 2747 
Q 522 2747 420 2851 
Q 319 2956 319 3097 
Q 319 3338 409 3548 
Q 500 3759 670 3923 
Q 841 4088 1055 4175 
Q 1269 4263 1509 4263 
Q 1875 4263 2190 4108 
Q 2506 3953 2690 3670 
Q 2875 3388 2875 3009 
Q 2875 2731 2753 2481 
Q 2631 2231 2440 2026 
Q 2250 1822 1953 1562 
Q 1656 1303 1563 1216 
L 838 519 
L 1453 519 
Q 1906 519 2211 526 
Q 2516 534 2534 550 
Q 2609 631 2688 1141 
L 2875 1141 
L 2694 0 
L 319 0 
z
" transform="scale(0.015625)"/>
     </defs>
     <use xlink:href="#Cmb10-72" transform="translate(0 0.984375)"/>
     <use xlink:href="#Cmr10-32" transform="translate(47.139922 -16.021875)scale(0.7)"/>
    </g>
   </g>
   <g id="text_4">
    <!-- $\mathbf{r}_{n-2}$ -->
    <g transform="translate(294.742289 124.187112)scale(0.25 -0.25)">
     <defs>
      <path id="Cmmi10-6e" d="M 494 109 
Q 494 147 500 166 
L 978 2075 
Q 1025 2253 1025 2388 
Q 1025 2663 838 2663 
Q 638 2663 541 2423 
Q 444 2184 353 1819 
Q 353 1800 334 1789 
Q 316 1778 300 1778 
L 225 1778 
Q 203 1778 187 1801 
Q 172 1825 172 1844 
Q 241 2122 305 2315 
Q 369 2509 505 2668 
Q 641 2828 844 2828 
Q 1084 2828 1268 2676 
Q 1453 2525 1453 2291 
Q 1644 2541 1900 2684 
Q 2156 2828 2444 2828 
Q 2672 2828 2837 2750 
Q 3003 2672 3095 2514 
Q 3188 2356 3188 2138 
Q 3188 1875 3070 1503 
Q 2953 1131 2778 672 
Q 2688 463 2688 288 
Q 2688 97 2834 97 
Q 3084 97 3251 365 
Q 3419 634 3488 941 
Q 3500 978 3541 978 
L 3616 978 
Q 3641 978 3658 962 
Q 3675 947 3675 922 
Q 3675 916 3669 903 
Q 3581 541 3364 234 
Q 3147 -72 2822 -72 
Q 2597 -72 2437 83 
Q 2278 238 2278 459 
Q 2278 578 2328 709 
Q 2409 919 2514 1209 
Q 2619 1500 2686 1765 
Q 2753 2031 2753 2234 
Q 2753 2413 2679 2538 
Q 2606 2663 2431 2663 
Q 2197 2663 2000 2559 
Q 1803 2456 1656 2286 
Q 1509 2116 1388 1881 
L 953 141 
Q 931 53 854 -9 
Q 778 -72 684 -72 
Q 606 -72 550 -22 
Q 494 28 494 109 
z
" transform="scale(0.015625)"/>
      <path id="Cmsy10-a1" d="M 653 1472 
Q 600 1472 565 1512 
Q 531 1553 531 1600 
Q 531 1647 565 1687 
Q 600 1728 653 1728 
L 4325 1728 
Q 4375 1728 4408 1687 
Q 4441 1647 4441 1600 
Q 4441 1553 4408 1512 
Q 4375 1472 4325 1472 
L 653 1472 
z
" transform="scale(0.015625)"/>
     </defs>
     <use xlink:href="#Cmb10-72" transform="translate(0 0.984375)"/>
     <use xlink:href="#Cmmi10-6e" transform="translate(47.139922 -16.021875)scale(0.7)"/>
     <use xlink:href="#Cmsy10-a1" transform="translate(101.437773 -16.021875)scale(0.7)"/>
     <use xlink:href="#Cmr10-32" transform="translate(168.108672 -16.021875)scale(0.7)"/>
    </g>
   </g>
   <g id="text_5">
    <!-- $\mathbf{r}_{n-1}$ -->
    <g transform="translate(392.38676 142.355798)scale(0.25 -0.25)">
     <use xlink:href="#Cmb10-72" transform="translate(0 0.984375)"/>
     <use xlink:href="#Cmmi10-6e" transform="translate(47.139922 -16.021875)scale(0.7)"/>
     <use xlink:href="#Cmsy10-a1" transform="translate(101.437773 -16.021875)scale(0.7)"/>
     <use xlink:href="#Cmr10-31" transform="translate(168.108672 -16.021875)scale(0.7)"/>
    </g>
   </g>
   <g id="text_6">
    <!-- $Q=\mathbf{r}_{n}$ -->
    <g transform="translate(469.006464 192.256357)scale(0.25 -0.25)">
     <defs>
      <path id="Cmmi10-51" d="M 1947 -141 
Q 1466 -141 1094 79 
Q 722 300 520 692 
Q 319 1084 319 1563 
Q 319 2259 714 2950 
Q 1109 3641 1756 4077 
Q 2403 4513 3109 4513 
Q 3475 4513 3778 4381 
Q 4081 4250 4290 4017 
Q 4500 3784 4614 3471 
Q 4728 3159 4728 2791 
Q 4728 2366 4581 1936 
Q 4434 1506 4171 1136 
Q 3909 766 3559 484 
Q 3209 203 2809 38 
Q 2850 -256 2934 -425 
Q 3019 -594 3256 -594 
Q 3506 -594 3726 -412 
Q 3947 -231 4006 13 
Q 4019 72 4078 72 
Q 4147 72 4147 -13 
Q 4100 -219 4008 -430 
Q 3916 -641 3786 -823 
Q 3656 -1006 3478 -1123 
Q 3300 -1241 3084 -1241 
Q 2547 -1241 2547 -550 
Q 2547 -509 2562 -332 
Q 2578 -156 2578 -44 
Q 2269 -141 1947 -141 
z
M 1709 300 
Q 1709 44 1991 44 
Q 2275 44 2591 184 
L 2591 244 
Q 2591 503 2509 648 
Q 2428 794 2194 794 
Q 2078 794 1964 723 
Q 1850 653 1779 539 
Q 1709 425 1709 300 
z
M 1544 288 
Q 1544 456 1637 612 
Q 1731 769 1881 864 
Q 2031 959 2203 959 
Q 2481 959 2607 771 
Q 2734 584 2778 281 
Q 3188 525 3500 978 
Q 3813 1431 3977 1973 
Q 4141 2516 4141 3003 
Q 4141 3356 4023 3656 
Q 3906 3956 3664 4140 
Q 3422 4325 3066 4325 
Q 2722 4325 2403 4156 
Q 2084 3988 1813 3706 
Q 1550 3434 1342 3032 
Q 1134 2631 1021 2193 
Q 909 1756 909 1356 
Q 909 947 1068 612 
Q 1228 278 1569 128 
Q 1544 194 1544 288 
z
" transform="scale(0.015625)"/>
     </defs>
     <use xlink:href="#Cmmi10-51" transform="translate(0 0.484375)"/>
     <use xlink:href="#Cmr10-3d" transform="translate(96.5625 0.484375)"/>
     <use xlink:href="#Cmb10-72" transform="translate(191.806641 0.484375)"/>
     <use xlink:href="#Cmmi10-6e" transform="translate(238.946562 -16.521875)scale(0.7)"/>
    </g>
   </g>
   <g id="text_7">
    <!-- $\Delta \mathbf{r}_i=\mathbf{r}_{i+1}-\mathbf{r}_i$ -->
    <g style="fill: #ff0000" transform="translate(122.361817 171.373914)scale(0.25 -0.25)">
     <defs>
      <path id="Cmr10-a2" d="M 347 0 
Q 294 0 294 50 
Q 297 56 298 59 
Q 300 63 300 72 
L 2503 4513 
Q 2531 4581 2619 4581 
L 2706 4581 
Q 2794 4581 2822 4513 
L 5025 72 
Q 5028 66 5029 61 
Q 5031 56 5031 50 
Q 5031 0 4978 0 
L 347 0 
z
M 769 513 
L 4141 513 
L 2456 3909 
L 769 513 
z
" transform="scale(0.015625)"/>
      <path id="Cmmi10-69" d="M 500 459 
Q 500 578 550 709 
L 1069 2088 
Q 1153 2322 1153 2472 
Q 1153 2663 1013 2663 
Q 759 2663 595 2402 
Q 431 2141 353 1819 
Q 341 1778 300 1778 
L 225 1778 
Q 172 1778 172 1838 
L 172 1856 
Q 275 2238 487 2533 
Q 700 2828 1025 2828 
Q 1253 2828 1411 2678 
Q 1569 2528 1569 2297 
Q 1569 2178 1516 2047 
L 997 672 
Q 909 459 909 288 
Q 909 97 1056 97 
Q 1306 97 1473 364 
Q 1641 631 1709 941 
Q 1722 978 1759 978 
L 1838 978 
Q 1863 978 1878 961 
Q 1894 944 1894 922 
Q 1894 916 1888 903 
Q 1800 541 1583 234 
Q 1366 -72 1044 -72 
Q 819 -72 659 83 
Q 500 238 500 459 
z
M 1222 3878 
Q 1222 4013 1334 4122 
Q 1447 4231 1581 4231 
Q 1691 4231 1761 4164 
Q 1831 4097 1831 3994 
Q 1831 3850 1717 3742 
Q 1603 3634 1466 3634 
Q 1363 3634 1292 3704 
Q 1222 3775 1222 3878 
z
" transform="scale(0.015625)"/>
      <path id="Cmr10-2b" d="M 481 1472 
Q 428 1472 393 1512 
Q 359 1553 359 1600 
Q 359 1647 393 1687 
Q 428 1728 481 1728 
L 2363 1728 
L 2363 3616 
Q 2363 3666 2400 3698 
Q 2438 3731 2491 3731 
Q 2538 3731 2578 3698 
Q 2619 3666 2619 3616 
L 2619 1728 
L 4500 1728 
Q 4547 1728 4581 1687 
Q 4616 1647 4616 1600 
Q 4616 1553 4581 1512 
Q 4547 1472 4500 1472 
L 2619 1472 
L 2619 -416 
Q 2619 -466 2578 -498 
Q 2538 -531 2491 -531 
Q 2438 -531 2400 -498 
Q 2363 -466 2363 -416 
L 2363 1472 
L 481 1472 
z
" transform="scale(0.015625)"/>
     </defs>
     <use xlink:href="#Cmr10-a2" transform="translate(0 0.421875)"/>
     <use xlink:href="#Cmb10-72" transform="translate(83.300781 0.421875)"/>
     <use xlink:href="#Cmmi10-69" transform="translate(130.440703 -16.584375)scale(0.7)"/>
     <use xlink:href="#Cmr10-3d" transform="translate(178.47332 0.421875)"/>
     <use xlink:href="#Cmb10-72" transform="translate(273.717461 0.421875)"/>
     <use xlink:href="#Cmmi10-69" transform="translate(320.857383 -16.584375)scale(0.7)"/>
     <use xlink:href="#Cmr10-2b" transform="translate(357.245078 -16.584375)scale(0.7)"/>
     <use xlink:href="#Cmr10-31" transform="translate(423.915977 -16.584375)scale(0.7)"/>
     <use xlink:href="#Cmsy10-a1" transform="translate(482.851914 0.421875)"/>
     <use xlink:href="#Cmb10-72" transform="translate(578.096055 0.421875)"/>
     <use xlink:href="#Cmmi10-69" transform="translate(625.235977 -16.584375)scale(0.7)"/>
    </g>
   </g>
  </g>
 </g>
 <defs>
  <clipPath id="pa970d36c4c">
   <rect x="8.591371" y="92.065579" width="506.148722" height="258.424615"/>
  </clipPath>
 </defs>
</svg>
