<?xml version="1.0" encoding="utf-8" standalone="no"?>
<!DOCTYPE svg PUBLIC "-//W3C//DTD SVG 1.1//EN"
  "http://www.w3.org/Graphics/SVG/1.1/DTD/svg11.dtd">
<!-- Created with matplotlib (http://matplotlib.org/) -->
<svg height="280.705pt" version="1.1" viewBox="0 0 274.5 280.705" width="274.5pt" xmlns="http://www.w3.org/2000/svg" xmlns:xlink="http://www.w3.org/1999/xlink">
 <defs>
  <style type="text/css">
*{stroke-linecap:butt;stroke-linejoin:round;}
  </style>
 </defs>
 <g id="figure_1">
  <g id="patch_1">
   <path d="M 0 280.705 
L 274.5 280.705 
L 274.5 0 
L 0 0 
z
" style="fill:#ffffff;"/>
  </g>
  <g id="axes_1">
   <g id="patch_2">
    <path d="M 10.7 270.005 
L 250.02 270.005 
L 250.02 30.685 
L 10.7 30.685 
z
" style="fill:#ffffff;"/>
   </g>
   <g id="matplotlib.axis_1">
    <g id="xtick_1">
     <g id="line2d_1">
      <defs>
       <path d="M 0 0 
L 0 3.5 
" id="md2308c5f36" style="stroke:#000000;stroke-width:0.8;"/>
      </defs>
      <g>
       <use style="stroke:#000000;stroke-width:0.8;" x="15.302308" xlink:href="#md2308c5f36" y="150.345"/>
      </g>
     </g>
     <g id="text_1">
      <!-- -3 -->
      <defs>
       <path d="M 4.890625 31.390625 
L 31.203125 31.390625 
L 31.203125 23.390625 
L 4.890625 23.390625 
z
" id="DejaVuSans-2d"/>
       <path d="M 40.578125 39.3125 
Q 47.65625 37.796875 51.625 33 
Q 55.609375 28.21875 55.609375 21.1875 
Q 55.609375 10.40625 48.1875 4.484375 
Q 40.765625 -1.421875 27.09375 -1.421875 
Q 22.515625 -1.421875 17.65625 -0.515625 
Q 12.796875 0.390625 7.625 2.203125 
L 7.625 11.71875 
Q 11.71875 9.328125 16.59375 8.109375 
Q 21.484375 6.890625 26.8125 6.890625 
Q 36.078125 6.890625 40.9375 10.546875 
Q 45.796875 14.203125 45.796875 21.1875 
Q 45.796875 27.640625 41.28125 31.265625 
Q 36.765625 34.90625 28.71875 34.90625 
L 20.21875 34.90625 
L 20.21875 43.015625 
L 29.109375 43.015625 
Q 36.375 43.015625 40.234375 45.921875 
Q 44.09375 48.828125 44.09375 54.296875 
Q 44.09375 59.90625 40.109375 62.90625 
Q 36.140625 65.921875 28.71875 65.921875 
Q 24.65625 65.921875 20.015625 65.03125 
Q 15.375 64.15625 9.8125 62.3125 
L 9.8125 71.09375 
Q 15.4375 72.65625 20.34375 73.4375 
Q 25.25 74.21875 29.59375 74.21875 
Q 40.828125 74.21875 47.359375 69.109375 
Q 53.90625 64.015625 53.90625 55.328125 
Q 53.90625 49.265625 50.4375 45.09375 
Q 46.96875 40.921875 40.578125 39.3125 
z
" id="DejaVuSans-33"/>
      </defs>
      <g transform="translate(10.317151 164.943437)scale(0.1 -0.1)">
       <use xlink:href="#DejaVuSans-2d"/>
       <use x="36.083984" xlink:href="#DejaVuSans-33"/>
      </g>
     </g>
    </g>
    <g id="xtick_2">
     <g id="line2d_2">
      <g>
       <use style="stroke:#000000;stroke-width:0.8;" x="53.654872" xlink:href="#md2308c5f36" y="150.345"/>
      </g>
     </g>
     <g id="text_2">
      <!-- -2 -->
      <defs>
       <path d="M 19.1875 8.296875 
L 53.609375 8.296875 
L 53.609375 0 
L 7.328125 0 
L 7.328125 8.296875 
Q 12.9375 14.109375 22.625 23.890625 
Q 32.328125 33.6875 34.8125 36.53125 
Q 39.546875 41.84375 41.421875 45.53125 
Q 43.3125 49.21875 43.3125 52.78125 
Q 43.3125 58.59375 39.234375 62.25 
Q 35.15625 65.921875 28.609375 65.921875 
Q 23.96875 65.921875 18.8125 64.3125 
Q 13.671875 62.703125 7.8125 59.421875 
L 7.8125 69.390625 
Q 13.765625 71.78125 18.9375 73 
Q 24.125 74.21875 28.421875 74.21875 
Q 39.75 74.21875 46.484375 68.546875 
Q 53.21875 62.890625 53.21875 53.421875 
Q 53.21875 48.921875 51.53125 44.890625 
Q 49.859375 40.875 45.40625 35.40625 
Q 44.1875 33.984375 37.640625 27.21875 
Q 31.109375 20.453125 19.1875 8.296875 
z
" id="DejaVuSans-32"/>
      </defs>
      <g transform="translate(48.669716 164.943437)scale(0.1 -0.1)">
       <use xlink:href="#DejaVuSans-2d"/>
       <use x="36.083984" xlink:href="#DejaVuSans-32"/>
      </g>
     </g>
    </g>
    <g id="xtick_3">
     <g id="line2d_3">
      <g>
       <use style="stroke:#000000;stroke-width:0.8;" x="92.007436" xlink:href="#md2308c5f36" y="150.345"/>
      </g>
     </g>
     <g id="text_3">
      <!-- -1 -->
      <defs>
       <path d="M 12.40625 8.296875 
L 28.515625 8.296875 
L 28.515625 63.921875 
L 10.984375 60.40625 
L 10.984375 69.390625 
L 28.421875 72.90625 
L 38.28125 72.90625 
L 38.28125 8.296875 
L 54.390625 8.296875 
L 54.390625 0 
L 12.40625 0 
z
" id="DejaVuSans-31"/>
      </defs>
      <g transform="translate(87.02228 164.943437)scale(0.1 -0.1)">
       <use xlink:href="#DejaVuSans-2d"/>
       <use x="36.083984" xlink:href="#DejaVuSans-31"/>
      </g>
     </g>
    </g>
    <g id="xtick_4">
     <g id="line2d_4">
      <g>
       <use style="stroke:#000000;stroke-width:0.8;" x="130.36" xlink:href="#md2308c5f36" y="150.345"/>
      </g>
     </g>
    </g>
    <g id="xtick_5">
     <g id="line2d_5">
      <g>
       <use style="stroke:#000000;stroke-width:0.8;" x="168.712564" xlink:href="#md2308c5f36" y="150.345"/>
      </g>
     </g>
     <g id="text_4">
      <!-- 1 -->
      <g transform="translate(165.531314 164.943437)scale(0.1 -0.1)">
       <use xlink:href="#DejaVuSans-31"/>
      </g>
     </g>
    </g>
    <g id="xtick_6">
     <g id="line2d_6">
      <g>
       <use style="stroke:#000000;stroke-width:0.8;" x="207.065128" xlink:href="#md2308c5f36" y="150.345"/>
      </g>
     </g>
     <g id="text_5">
      <!-- 2 -->
      <g transform="translate(203.883878 164.943437)scale(0.1 -0.1)">
       <use xlink:href="#DejaVuSans-32"/>
      </g>
     </g>
    </g>
    <g id="xtick_7">
     <g id="line2d_7">
      <g>
       <use style="stroke:#000000;stroke-width:0.8;" x="245.417692" xlink:href="#md2308c5f36" y="150.345"/>
      </g>
     </g>
     <g id="text_6">
      <!-- 3 -->
      <g transform="translate(242.236442 164.943437)scale(0.1 -0.1)">
       <use xlink:href="#DejaVuSans-33"/>
      </g>
     </g>
    </g>
    <g id="xtick_8">
     <g id="line2d_8">
      <defs>
       <path d="M 0 0 
L 0 2 
" id="mb10de3aa10" style="stroke:#000000;stroke-width:0.6;"/>
      </defs>
      <g>
       <use style="stroke:#000000;stroke-width:0.6;" x="22.972821" xlink:href="#mb10de3aa10" y="150.345"/>
      </g>
     </g>
    </g>
    <g id="xtick_9">
     <g id="line2d_9">
      <g>
       <use style="stroke:#000000;stroke-width:0.6;" x="30.643333" xlink:href="#mb10de3aa10" y="150.345"/>
      </g>
     </g>
    </g>
    <g id="xtick_10">
     <g id="line2d_10">
      <g>
       <use style="stroke:#000000;stroke-width:0.6;" x="38.313846" xlink:href="#mb10de3aa10" y="150.345"/>
      </g>
     </g>
    </g>
    <g id="xtick_11">
     <g id="line2d_11">
      <g>
       <use style="stroke:#000000;stroke-width:0.6;" x="45.984359" xlink:href="#mb10de3aa10" y="150.345"/>
      </g>
     </g>
    </g>
    <g id="xtick_12">
     <g id="line2d_12">
      <g>
       <use style="stroke:#000000;stroke-width:0.6;" x="61.325385" xlink:href="#mb10de3aa10" y="150.345"/>
      </g>
     </g>
    </g>
    <g id="xtick_13">
     <g id="line2d_13">
      <g>
       <use style="stroke:#000000;stroke-width:0.6;" x="68.995897" xlink:href="#mb10de3aa10" y="150.345"/>
      </g>
     </g>
    </g>
    <g id="xtick_14">
     <g id="line2d_14">
      <g>
       <use style="stroke:#000000;stroke-width:0.6;" x="76.66641" xlink:href="#mb10de3aa10" y="150.345"/>
      </g>
     </g>
    </g>
    <g id="xtick_15">
     <g id="line2d_15">
      <g>
       <use style="stroke:#000000;stroke-width:0.6;" x="84.336923" xlink:href="#mb10de3aa10" y="150.345"/>
      </g>
     </g>
    </g>
    <g id="xtick_16">
     <g id="line2d_16">
      <g>
       <use style="stroke:#000000;stroke-width:0.6;" x="92.007436" xlink:href="#mb10de3aa10" y="150.345"/>
      </g>
     </g>
    </g>
    <g id="xtick_17">
     <g id="line2d_17">
      <g>
       <use style="stroke:#000000;stroke-width:0.6;" x="99.677949" xlink:href="#mb10de3aa10" y="150.345"/>
      </g>
     </g>
    </g>
    <g id="xtick_18">
     <g id="line2d_18">
      <g>
       <use style="stroke:#000000;stroke-width:0.6;" x="107.348462" xlink:href="#mb10de3aa10" y="150.345"/>
      </g>
     </g>
    </g>
    <g id="xtick_19">
     <g id="line2d_19">
      <g>
       <use style="stroke:#000000;stroke-width:0.6;" x="115.018974" xlink:href="#mb10de3aa10" y="150.345"/>
      </g>
     </g>
    </g>
    <g id="xtick_20">
     <g id="line2d_20">
      <g>
       <use style="stroke:#000000;stroke-width:0.6;" x="122.689487" xlink:href="#mb10de3aa10" y="150.345"/>
      </g>
     </g>
    </g>
    <g id="xtick_21">
     <g id="line2d_21">
      <g>
       <use style="stroke:#000000;stroke-width:0.6;" x="130.36" xlink:href="#mb10de3aa10" y="150.345"/>
      </g>
     </g>
    </g>
    <g id="xtick_22">
     <g id="line2d_22">
      <g>
       <use style="stroke:#000000;stroke-width:0.6;" x="138.030513" xlink:href="#mb10de3aa10" y="150.345"/>
      </g>
     </g>
    </g>
    <g id="xtick_23">
     <g id="line2d_23">
      <g>
       <use style="stroke:#000000;stroke-width:0.6;" x="145.701026" xlink:href="#mb10de3aa10" y="150.345"/>
      </g>
     </g>
    </g>
    <g id="xtick_24">
     <g id="line2d_24">
      <g>
       <use style="stroke:#000000;stroke-width:0.6;" x="153.371538" xlink:href="#mb10de3aa10" y="150.345"/>
      </g>
     </g>
    </g>
    <g id="xtick_25">
     <g id="line2d_25">
      <g>
       <use style="stroke:#000000;stroke-width:0.6;" x="161.042051" xlink:href="#mb10de3aa10" y="150.345"/>
      </g>
     </g>
    </g>
    <g id="xtick_26">
     <g id="line2d_26">
      <g>
       <use style="stroke:#000000;stroke-width:0.6;" x="168.712564" xlink:href="#mb10de3aa10" y="150.345"/>
      </g>
     </g>
    </g>
    <g id="xtick_27">
     <g id="line2d_27">
      <g>
       <use style="stroke:#000000;stroke-width:0.6;" x="176.383077" xlink:href="#mb10de3aa10" y="150.345"/>
      </g>
     </g>
    </g>
    <g id="xtick_28">
     <g id="line2d_28">
      <g>
       <use style="stroke:#000000;stroke-width:0.6;" x="184.05359" xlink:href="#mb10de3aa10" y="150.345"/>
      </g>
     </g>
    </g>
    <g id="xtick_29">
     <g id="line2d_29">
      <g>
       <use style="stroke:#000000;stroke-width:0.6;" x="191.724103" xlink:href="#mb10de3aa10" y="150.345"/>
      </g>
     </g>
    </g>
    <g id="xtick_30">
     <g id="line2d_30">
      <g>
       <use style="stroke:#000000;stroke-width:0.6;" x="199.394615" xlink:href="#mb10de3aa10" y="150.345"/>
      </g>
     </g>
    </g>
    <g id="xtick_31">
     <g id="line2d_31">
      <g>
       <use style="stroke:#000000;stroke-width:0.6;" x="207.065128" xlink:href="#mb10de3aa10" y="150.345"/>
      </g>
     </g>
    </g>
    <g id="xtick_32">
     <g id="line2d_32">
      <g>
       <use style="stroke:#000000;stroke-width:0.6;" x="214.735641" xlink:href="#mb10de3aa10" y="150.345"/>
      </g>
     </g>
    </g>
    <g id="xtick_33">
     <g id="line2d_33">
      <g>
       <use style="stroke:#000000;stroke-width:0.6;" x="222.406154" xlink:href="#mb10de3aa10" y="150.345"/>
      </g>
     </g>
    </g>
    <g id="xtick_34">
     <g id="line2d_34">
      <g>
       <use style="stroke:#000000;stroke-width:0.6;" x="230.076667" xlink:href="#mb10de3aa10" y="150.345"/>
      </g>
     </g>
    </g>
    <g id="xtick_35">
     <g id="line2d_35">
      <g>
       <use style="stroke:#000000;stroke-width:0.6;" x="237.747179" xlink:href="#mb10de3aa10" y="150.345"/>
      </g>
     </g>
    </g>
    <g id="xtick_36">
     <g id="line2d_36">
      <g>
       <use style="stroke:#000000;stroke-width:0.6;" x="245.417692" xlink:href="#mb10de3aa10" y="150.345"/>
      </g>
     </g>
    </g>
    <g id="text_7">
     <!-- $x$ -->
     <defs>
      <path d="M 7.8125 2.875 
Q 9.578125 1.515625 12.796875 1.515625 
Q 15.921875 1.515625 18.3125 4.515625 
Q 20.703125 7.515625 21.578125 11.078125 
L 26.125 28.8125 
Q 27.203125 33.640625 27.203125 35.40625 
Q 27.203125 37.890625 25.8125 39.75 
Q 24.421875 41.609375 21.921875 41.609375 
Q 18.75 41.609375 15.96875 39.625 
Q 13.1875 37.640625 11.28125 34.59375 
Q 9.375 31.546875 8.59375 28.421875 
Q 8.40625 27.78125 7.8125 27.78125 
L 6.59375 27.78125 
Q 5.8125 27.78125 5.8125 28.71875 
L 5.8125 29 
Q 6.78125 32.71875 9.125 36.25 
Q 11.46875 39.796875 14.859375 41.984375 
Q 18.265625 44.1875 22.125 44.1875 
Q 25.78125 44.1875 28.734375 42.234375 
Q 31.6875 40.28125 32.90625 36.921875 
Q 34.625 39.984375 37.28125 42.078125 
Q 39.9375 44.1875 43.109375 44.1875 
Q 45.265625 44.1875 47.5 43.421875 
Q 49.75 42.671875 51.171875 41.109375 
Q 52.59375 39.546875 52.59375 37.203125 
Q 52.59375 34.671875 50.953125 32.828125 
Q 49.3125 31 46.78125 31 
Q 45.171875 31 44.09375 32.03125 
Q 43.015625 33.0625 43.015625 34.625 
Q 43.015625 36.71875 44.453125 38.296875 
Q 45.90625 39.890625 47.90625 40.1875 
Q 46.09375 41.609375 42.921875 41.609375 
Q 39.703125 41.609375 37.328125 38.625 
Q 34.96875 35.640625 33.984375 31.984375 
L 29.59375 14.3125 
Q 28.515625 10.296875 28.515625 7.71875 
Q 28.515625 5.171875 29.953125 3.34375 
Q 31.390625 1.515625 33.796875 1.515625 
Q 38.484375 1.515625 42.15625 5.640625 
Q 45.84375 9.765625 47.015625 14.703125 
Q 47.21875 15.28125 47.796875 15.28125 
L 49.03125 15.28125 
Q 49.421875 15.28125 49.65625 15.015625 
Q 49.90625 14.75 49.90625 14.40625 
Q 49.90625 14.3125 49.8125 14.109375 
Q 48.390625 8.15625 43.84375 3.515625 
Q 39.3125 -1.125 33.59375 -1.125 
Q 29.9375 -1.125 26.984375 0.84375 
Q 24.03125 2.828125 22.796875 6.203125 
Q 21.234375 3.265625 18.46875 1.0625 
Q 15.71875 -1.125 12.59375 -1.125 
Q 10.453125 -1.125 8.171875 -0.359375 
Q 5.90625 0.390625 4.484375 1.953125 
Q 3.078125 3.515625 3.078125 5.90625 
Q 3.078125 8.25 4.703125 10.171875 
Q 6.34375 12.109375 8.796875 12.109375 
Q 10.453125 12.109375 11.578125 11.109375 
Q 12.703125 10.109375 12.703125 8.5 
Q 12.703125 6.390625 11.296875 4.828125 
Q 9.90625 3.265625 7.8125 2.875 
z
" id="Cmmi10-78"/>
     </defs>
     <g transform="translate(258.02 150.345)scale(0.16 -0.16)">
      <use transform="translate(0 0.8125)" xlink:href="#Cmmi10-78"/>
     </g>
    </g>
   </g>
   <g id="matplotlib.axis_2">
    <g id="ytick_1">
     <g id="line2d_37">
      <defs>
       <path d="M 0 0 
L -3.5 0 
" id="m38d561c305" style="stroke:#000000;stroke-width:0.8;"/>
      </defs>
      <g>
       <use style="stroke:#000000;stroke-width:0.8;" x="130.36" xlink:href="#m38d561c305" y="265.402692"/>
      </g>
     </g>
     <g id="text_8">
      <!-- -3 -->
      <g transform="translate(113.389688 269.201911)scale(0.1 -0.1)">
       <use xlink:href="#DejaVuSans-2d"/>
       <use x="36.083984" xlink:href="#DejaVuSans-33"/>
      </g>
     </g>
    </g>
    <g id="ytick_2">
     <g id="line2d_38">
      <g>
       <use style="stroke:#000000;stroke-width:0.8;" x="130.36" xlink:href="#m38d561c305" y="227.050128"/>
      </g>
     </g>
     <g id="text_9">
      <!-- -2 -->
      <g transform="translate(113.389688 230.849347)scale(0.1 -0.1)">
       <use xlink:href="#DejaVuSans-2d"/>
       <use x="36.083984" xlink:href="#DejaVuSans-32"/>
      </g>
     </g>
    </g>
    <g id="ytick_3">
     <g id="line2d_39">
      <g>
       <use style="stroke:#000000;stroke-width:0.8;" x="130.36" xlink:href="#m38d561c305" y="188.697564"/>
      </g>
     </g>
     <g id="text_10">
      <!-- -1 -->
      <g transform="translate(113.389688 192.496783)scale(0.1 -0.1)">
       <use xlink:href="#DejaVuSans-2d"/>
       <use x="36.083984" xlink:href="#DejaVuSans-31"/>
      </g>
     </g>
    </g>
    <g id="ytick_4">
     <g id="line2d_40">
      <g>
       <use style="stroke:#000000;stroke-width:0.8;" x="130.36" xlink:href="#m38d561c305" y="150.345"/>
      </g>
     </g>
    </g>
    <g id="ytick_5">
     <g id="line2d_41">
      <g>
       <use style="stroke:#000000;stroke-width:0.8;" x="130.36" xlink:href="#m38d561c305" y="111.992436"/>
      </g>
     </g>
     <g id="text_11">
      <!-- 1 -->
      <g transform="translate(116.9975 115.791655)scale(0.1 -0.1)">
       <use xlink:href="#DejaVuSans-31"/>
      </g>
     </g>
    </g>
    <g id="ytick_6">
     <g id="line2d_42">
      <g>
       <use style="stroke:#000000;stroke-width:0.8;" x="130.36" xlink:href="#m38d561c305" y="73.639872"/>
      </g>
     </g>
     <g id="text_12">
      <!-- 2 -->
      <g transform="translate(116.9975 77.439091)scale(0.1 -0.1)">
       <use xlink:href="#DejaVuSans-32"/>
      </g>
     </g>
    </g>
    <g id="ytick_7">
     <g id="line2d_43">
      <g>
       <use style="stroke:#000000;stroke-width:0.8;" x="130.36" xlink:href="#m38d561c305" y="35.287308"/>
      </g>
     </g>
     <g id="text_13">
      <!-- 3 -->
      <g transform="translate(116.9975 39.086526)scale(0.1 -0.1)">
       <use xlink:href="#DejaVuSans-33"/>
      </g>
     </g>
    </g>
    <g id="ytick_8">
     <g id="line2d_44">
      <defs>
       <path d="M 0 0 
L -2 0 
" id="m1c8aa802a8" style="stroke:#000000;stroke-width:0.6;"/>
      </defs>
      <g>
       <use style="stroke:#000000;stroke-width:0.6;" x="130.36" xlink:href="#m1c8aa802a8" y="257.732179"/>
      </g>
     </g>
    </g>
    <g id="ytick_9">
     <g id="line2d_45">
      <g>
       <use style="stroke:#000000;stroke-width:0.6;" x="130.36" xlink:href="#m1c8aa802a8" y="250.061667"/>
      </g>
     </g>
    </g>
    <g id="ytick_10">
     <g id="line2d_46">
      <g>
       <use style="stroke:#000000;stroke-width:0.6;" x="130.36" xlink:href="#m1c8aa802a8" y="242.391154"/>
      </g>
     </g>
    </g>
    <g id="ytick_11">
     <g id="line2d_47">
      <g>
       <use style="stroke:#000000;stroke-width:0.6;" x="130.36" xlink:href="#m1c8aa802a8" y="234.720641"/>
      </g>
     </g>
    </g>
    <g id="ytick_12">
     <g id="line2d_48">
      <g>
       <use style="stroke:#000000;stroke-width:0.6;" x="130.36" xlink:href="#m1c8aa802a8" y="219.379615"/>
      </g>
     </g>
    </g>
    <g id="ytick_13">
     <g id="line2d_49">
      <g>
       <use style="stroke:#000000;stroke-width:0.6;" x="130.36" xlink:href="#m1c8aa802a8" y="211.709103"/>
      </g>
     </g>
    </g>
    <g id="ytick_14">
     <g id="line2d_50">
      <g>
       <use style="stroke:#000000;stroke-width:0.6;" x="130.36" xlink:href="#m1c8aa802a8" y="204.03859"/>
      </g>
     </g>
    </g>
    <g id="ytick_15">
     <g id="line2d_51">
      <g>
       <use style="stroke:#000000;stroke-width:0.6;" x="130.36" xlink:href="#m1c8aa802a8" y="196.368077"/>
      </g>
     </g>
    </g>
    <g id="ytick_16">
     <g id="line2d_52">
      <g>
       <use style="stroke:#000000;stroke-width:0.6;" x="130.36" xlink:href="#m1c8aa802a8" y="188.697564"/>
      </g>
     </g>
    </g>
    <g id="ytick_17">
     <g id="line2d_53">
      <g>
       <use style="stroke:#000000;stroke-width:0.6;" x="130.36" xlink:href="#m1c8aa802a8" y="181.027051"/>
      </g>
     </g>
    </g>
    <g id="ytick_18">
     <g id="line2d_54">
      <g>
       <use style="stroke:#000000;stroke-width:0.6;" x="130.36" xlink:href="#m1c8aa802a8" y="173.356538"/>
      </g>
     </g>
    </g>
    <g id="ytick_19">
     <g id="line2d_55">
      <g>
       <use style="stroke:#000000;stroke-width:0.6;" x="130.36" xlink:href="#m1c8aa802a8" y="165.686026"/>
      </g>
     </g>
    </g>
    <g id="ytick_20">
     <g id="line2d_56">
      <g>
       <use style="stroke:#000000;stroke-width:0.6;" x="130.36" xlink:href="#m1c8aa802a8" y="158.015513"/>
      </g>
     </g>
    </g>
    <g id="ytick_21">
     <g id="line2d_57">
      <g>
       <use style="stroke:#000000;stroke-width:0.6;" x="130.36" xlink:href="#m1c8aa802a8" y="150.345"/>
      </g>
     </g>
    </g>
    <g id="ytick_22">
     <g id="line2d_58">
      <g>
       <use style="stroke:#000000;stroke-width:0.6;" x="130.36" xlink:href="#m1c8aa802a8" y="142.674487"/>
      </g>
     </g>
    </g>
    <g id="ytick_23">
     <g id="line2d_59">
      <g>
       <use style="stroke:#000000;stroke-width:0.6;" x="130.36" xlink:href="#m1c8aa802a8" y="135.003974"/>
      </g>
     </g>
    </g>
    <g id="ytick_24">
     <g id="line2d_60">
      <g>
       <use style="stroke:#000000;stroke-width:0.6;" x="130.36" xlink:href="#m1c8aa802a8" y="127.333462"/>
      </g>
     </g>
    </g>
    <g id="ytick_25">
     <g id="line2d_61">
      <g>
       <use style="stroke:#000000;stroke-width:0.6;" x="130.36" xlink:href="#m1c8aa802a8" y="119.662949"/>
      </g>
     </g>
    </g>
    <g id="ytick_26">
     <g id="line2d_62">
      <g>
       <use style="stroke:#000000;stroke-width:0.6;" x="130.36" xlink:href="#m1c8aa802a8" y="111.992436"/>
      </g>
     </g>
    </g>
    <g id="ytick_27">
     <g id="line2d_63">
      <g>
       <use style="stroke:#000000;stroke-width:0.6;" x="130.36" xlink:href="#m1c8aa802a8" y="104.321923"/>
      </g>
     </g>
    </g>
    <g id="ytick_28">
     <g id="line2d_64">
      <g>
       <use style="stroke:#000000;stroke-width:0.6;" x="130.36" xlink:href="#m1c8aa802a8" y="96.65141"/>
      </g>
     </g>
    </g>
    <g id="ytick_29">
     <g id="line2d_65">
      <g>
       <use style="stroke:#000000;stroke-width:0.6;" x="130.36" xlink:href="#m1c8aa802a8" y="88.980897"/>
      </g>
     </g>
    </g>
    <g id="ytick_30">
     <g id="line2d_66">
      <g>
       <use style="stroke:#000000;stroke-width:0.6;" x="130.36" xlink:href="#m1c8aa802a8" y="81.310385"/>
      </g>
     </g>
    </g>
    <g id="ytick_31">
     <g id="line2d_67">
      <g>
       <use style="stroke:#000000;stroke-width:0.6;" x="130.36" xlink:href="#m1c8aa802a8" y="73.639872"/>
      </g>
     </g>
    </g>
    <g id="ytick_32">
     <g id="line2d_68">
      <g>
       <use style="stroke:#000000;stroke-width:0.6;" x="130.36" xlink:href="#m1c8aa802a8" y="65.969359"/>
      </g>
     </g>
    </g>
    <g id="ytick_33">
     <g id="line2d_69">
      <g>
       <use style="stroke:#000000;stroke-width:0.6;" x="130.36" xlink:href="#m1c8aa802a8" y="58.298846"/>
      </g>
     </g>
    </g>
    <g id="ytick_34">
     <g id="line2d_70">
      <g>
       <use style="stroke:#000000;stroke-width:0.6;" x="130.36" xlink:href="#m1c8aa802a8" y="50.628333"/>
      </g>
     </g>
    </g>
    <g id="ytick_35">
     <g id="line2d_71">
      <g>
       <use style="stroke:#000000;stroke-width:0.6;" x="130.36" xlink:href="#m1c8aa802a8" y="42.957821"/>
      </g>
     </g>
    </g>
    <g id="ytick_36">
     <g id="line2d_72">
      <g>
       <use style="stroke:#000000;stroke-width:0.6;" x="130.36" xlink:href="#m1c8aa802a8" y="35.287308"/>
      </g>
     </g>
    </g>
    <g id="text_14">
     <!-- $y$ -->
     <defs>
      <path d="M 8.40625 -14.3125 
Q 10.5 -17.921875 15.71875 -17.921875 
Q 20.453125 -17.921875 23.921875 -14.59375 
Q 27.390625 -11.28125 29.515625 -6.5625 
Q 31.640625 -1.859375 32.8125 3.078125 
Q 28.375 -1.125 23.1875 -1.125 
Q 19.234375 -1.125 16.453125 0.234375 
Q 13.671875 1.609375 12.125 4.3125 
Q 10.59375 7.03125 10.59375 10.890625 
Q 10.59375 14.15625 11.46875 17.59375 
Q 12.359375 21.046875 13.9375 25.265625 
Q 15.53125 29.5 16.703125 32.625 
Q 18.015625 36.28125 18.015625 38.625 
Q 18.015625 41.609375 15.828125 41.609375 
Q 11.859375 41.609375 9.296875 37.53125 
Q 6.734375 33.453125 5.515625 28.421875 
Q 5.328125 27.78125 4.6875 27.78125 
L 3.515625 27.78125 
Q 2.6875 27.78125 2.6875 28.71875 
L 2.6875 29 
Q 4.296875 34.96875 7.609375 39.578125 
Q 10.9375 44.1875 16.015625 44.1875 
Q 19.578125 44.1875 22.046875 41.84375 
Q 24.515625 39.5 24.515625 35.890625 
Q 24.515625 34.03125 23.6875 31.984375 
Q 23.25 30.765625 21.6875 26.65625 
Q 20.125 22.5625 19.28125 19.875 
Q 18.453125 17.1875 17.921875 14.59375 
Q 17.390625 12.015625 17.390625 9.421875 
Q 17.390625 6.109375 18.796875 3.8125 
Q 20.21875 1.515625 23.296875 1.515625 
Q 29.5 1.515625 34.421875 9.078125 
L 42 39.890625 
Q 42.328125 41.21875 43.546875 42.15625 
Q 44.78125 43.109375 46.1875 43.109375 
Q 47.40625 43.109375 48.3125 42.328125 
Q 49.21875 41.546875 49.21875 40.28125 
Q 49.21875 39.703125 49.125 39.5 
L 39.203125 -0.296875 
Q 37.890625 -5.421875 34.375 -10.109375 
Q 30.859375 -14.796875 25.90625 -17.65625 
Q 20.953125 -20.515625 15.578125 -20.515625 
Q 12.984375 -20.515625 10.4375 -19.5 
Q 7.90625 -18.5 6.34375 -16.5 
Q 4.78125 -14.5 4.78125 -11.8125 
Q 4.78125 -9.078125 6.390625 -7.078125 
Q 8.015625 -5.078125 10.6875 -5.078125 
Q 12.3125 -5.078125 13.40625 -6.078125 
Q 14.5 -7.078125 14.5 -8.6875 
Q 14.5 -10.984375 12.78125 -12.6875 
Q 11.078125 -14.40625 8.796875 -14.40625 
Q 8.6875 -14.359375 8.59375 -14.328125 
Q 8.5 -14.3125 8.40625 -14.3125 
z
" id="Cmmi10-79"/>
     </defs>
     <g transform="translate(126.36 19.325)scale(0.16 -0.16)">
      <use transform="translate(0 0.8125)" xlink:href="#Cmmi10-79"/>
     </g>
    </g>
   </g>
   <g id="LineCollection_1">
    <path clip-path="url(#pf06c570eda)" d="M 184.983349 237.823761 
L 183.438328 237.509918 
L 182.658951 237.337977 
L 180.334553 236.639662 
L 178.010155 235.738356 
L 176.852514 235.185521 
L 175.685758 234.567281 
L 173.36136 233.082843 
L 173.064565 232.861123 
L 171.036962 231.146424 
L 170.413721 230.536725 
L 168.712564 228.617965 
L 168.395762 228.212327 
L 166.842595 225.887929 
L 166.388166 225.073654 
L 165.630442 223.563531 
L 164.682393 221.239134 
L 164.063768 219.300249 
L 163.951184 218.914736 
L 163.443556 216.590338 
L 163.10608 214.26594 
L 162.932405 211.941542 
L 162.919311 209.617145 
L 163.066555 207.292747 
L 163.376864 204.968349 
L 163.856061 202.643951 
L 164.063768 201.902012 
L 164.547466 200.319553 
L 165.460211 197.995155 
L 166.388166 196.090376 
L 166.615379 195.670758 
L 168.121223 193.34636 
L 168.712564 192.571051 
L 170.052796 191.021962 
L 171.036962 190.037796 
L 172.586051 188.697564 
L 173.36136 188.106223 
L 175.685758 186.600379 
L 176.105376 186.373166 
L 178.010155 185.445211 
L 180.334553 184.532466 
L 181.917012 184.048768 
L 182.658951 183.841061 
L 184.983349 183.361864 
L 187.307747 183.051555 
L 189.632145 182.904311 
L 191.956542 182.917405 
L 194.28094 183.09108 
L 196.605338 183.428556 
L 198.929736 183.936184 
L 199.315249 184.048768 
L 201.254134 184.667393 
L 203.578531 185.615442 
L 205.088654 186.373166 
L 205.902929 186.827595 
L 208.227327 188.380762 
L 208.632965 188.697564 
L 210.551725 190.398721 
L 211.161424 191.021962 
L 212.876123 193.049565 
L 213.097843 193.34636 
L 214.582281 195.670758 
L 215.200521 196.837514 
L 215.753356 197.995155 
L 216.654662 200.319553 
L 217.352977 202.643951 
L 217.524918 203.423328 
L 217.838761 204.968349 
L 218.14563 207.292747 
L 218.291242 209.617145 
L 218.278292 211.941542 
L 218.106543 214.26594 
L 217.772809 216.590338 
L 217.524918 217.744797 
L 217.251914 218.914736 
L 216.521426 221.239134 
L 215.585257 223.563531 
L 215.200521 224.345746 
L 214.358295 225.887929 
L 212.876123 228.140034 
L 212.822468 228.212327 
L 210.806352 230.536725 
L 210.551725 230.791352 
L 208.227327 232.807468 
L 208.155034 232.861123 
L 205.902929 234.343295 
L 204.360746 235.185521 
L 203.578531 235.570257 
L 201.254134 236.506426 
L 198.929736 237.236914 
L 197.759797 237.509918 
L 196.605338 237.757809 
L 194.28094 238.091543 
L 191.956542 238.263292 
L 189.632145 238.276242 
L 187.307747 238.13063 
L 184.983349 237.823761 
" style="fill:none;stroke:#0000ff;stroke-width:1.5;"/>
    <path clip-path="url(#pf06c570eda)" d="M 61.790264 116.753816 
L 61.404751 116.641232 
L 59.465866 116.022607 
L 57.141469 115.074558 
L 55.631346 114.316834 
L 54.817071 113.862405 
L 52.492673 112.309238 
L 52.087035 111.992436 
L 50.168275 110.291279 
L 49.558576 109.668038 
L 47.843877 107.640435 
L 47.622157 107.34364 
L 46.137719 105.019242 
L 45.519479 103.852486 
L 44.966644 102.694845 
L 44.065338 100.370447 
L 43.367023 98.046049 
L 43.195082 97.266672 
L 42.881239 95.721651 
L 42.57437 93.397253 
L 42.428758 91.072855 
L 42.441708 88.748458 
L 42.613457 86.42406 
L 42.947191 84.099662 
L 43.195082 82.945203 
L 43.468086 81.775264 
L 44.198574 79.450866 
L 45.134743 77.126469 
L 45.519479 76.344254 
L 46.361705 74.802071 
L 47.843877 72.549966 
L 47.897532 72.477673 
L 49.913648 70.153275 
L 50.168275 69.898648 
L 52.492673 67.882532 
L 52.564966 67.828877 
L 54.817071 66.346705 
L 56.359254 65.504479 
L 57.141469 65.119743 
L 59.465866 64.183574 
L 61.790264 63.453086 
L 62.960203 63.180082 
L 64.114662 62.932191 
L 66.43906 62.598457 
L 68.763458 62.426708 
L 71.087855 62.413758 
L 73.412253 62.55937 
L 75.736651 62.866239 
L 77.281672 63.180082 
L 78.061049 63.352023 
L 80.385447 64.050338 
L 82.709845 64.951644 
L 83.867486 65.504479 
L 85.034242 66.122719 
L 87.35864 67.607157 
L 87.655435 67.828877 
L 89.683038 69.543576 
L 90.306279 70.153275 
L 92.007436 72.072035 
L 92.324238 72.477673 
L 93.877405 74.802071 
L 94.331834 75.616346 
L 95.089558 77.126469 
L 96.037607 79.450866 
L 96.656232 81.389751 
L 96.768816 81.775264 
L 97.276444 84.099662 
L 97.61392 86.42406 
L 97.787595 88.748458 
L 97.800689 91.072855 
L 97.653445 93.397253 
L 97.343136 95.721651 
L 96.863939 98.046049 
L 96.656232 98.787988 
L 96.172534 100.370447 
L 95.259789 102.694845 
L 94.331834 104.599624 
L 94.104621 105.019242 
L 92.598777 107.34364 
L 92.007436 108.118949 
L 90.667204 109.668038 
L 89.683038 110.652204 
L 88.133949 111.992436 
L 87.35864 112.583777 
L 85.034242 114.089621 
L 84.614624 114.316834 
L 82.709845 115.244789 
L 80.385447 116.157534 
L 78.802988 116.641232 
L 78.061049 116.848939 
L 75.736651 117.328136 
L 73.412253 117.638445 
L 71.087855 117.785689 
L 68.763458 117.772595 
L 66.43906 117.59892 
L 64.114662 117.261444 
L 61.790264 116.753816 
" style="fill:none;stroke:#0000ff;stroke-width:1.5;"/>
   </g>
   <g id="LineCollection_2">
    <path clip-path="url(#pf06c570eda)" d="M 178.010155 249.484146 
L 175.685758 248.935085 
L 173.36136 248.248987 
L 169.561281 246.80751 
L 168.712564 246.423328 
L 165.209776 244.483112 
L 164.063768 243.713335 
L 161.739371 241.884005 
L 159.414973 239.573577 
L 157.090575 236.564039 
L 156.216209 235.185521 
L 154.766177 232.47294 
L 153.922342 230.536725 
L 153.066994 228.212327 
L 152.357872 225.887929 
L 151.340092 221.239134 
L 150.723907 216.590338 
L 150.460378 211.941542 
L 150.52954 207.292747 
L 150.936577 202.643951 
L 151.712802 197.995155 
L 152.441779 195.013697 
L 152.941054 193.34636 
L 153.771701 191.021962 
L 154.766177 188.690147 
L 155.993725 186.373166 
L 157.474795 184.048768 
L 159.414973 181.600705 
L 161.739371 179.290038 
L 164.624049 177.075575 
L 166.388166 175.978725 
L 168.712564 174.747573 
L 171.036962 173.756701 
L 175.028697 172.426779 
L 178.010155 171.697802 
L 182.658951 170.921577 
L 187.307747 170.51454 
L 191.956542 170.445378 
L 196.605338 170.708907 
L 201.254134 171.325092 
L 205.902929 172.342872 
L 208.227327 173.051994 
L 210.551725 173.907342 
L 212.876123 174.934813 
L 216.579039 177.075575 
L 217.524918 177.737936 
L 219.849316 179.634825 
L 222.173714 182.042126 
L 224.498112 185.194776 
L 225.216489 186.373166 
L 226.82251 189.546281 
L 227.438974 191.021962 
L 228.263987 193.34636 
L 229.146908 196.471545 
L 229.933913 200.319553 
L 230.51635 204.968349 
L 230.750845 209.617145 
L 230.655126 214.26594 
L 230.222012 218.914736 
L 229.41806 223.563531 
L 228.84656 225.887929 
L 228.138901 228.212327 
L 226.82251 231.629967 
L 226.252365 232.861123 
L 224.498112 235.985652 
L 223.452616 237.509918 
L 221.55118 239.834316 
L 219.143867 242.158714 
L 217.524918 243.437616 
L 215.200521 244.980718 
L 211.644967 246.80751 
L 210.551725 247.274354 
L 208.227327 248.123901 
L 204.717296 249.131908 
L 201.254134 249.854644 
L 196.605338 250.46717 
L 191.956542 250.729134 
L 187.307747 250.660383 
L 182.658951 250.255762 
L 178.010155 249.484146 
L 178.010155 249.484146 
" style="fill:none;stroke:#0000ff;stroke-width:1.5;"/>
    <path clip-path="url(#pf06c570eda)" d="M 54.817071 128.347128 
L 52.492673 127.638006 
L 50.168275 126.782658 
L 47.843877 125.755187 
L 44.140961 123.614425 
L 43.195082 122.952064 
L 40.870684 121.055175 
L 38.546286 118.647874 
L 36.221888 115.495224 
L 35.503511 114.316834 
L 33.89749 111.143719 
L 33.281026 109.668038 
L 32.456013 107.34364 
L 31.573092 104.218455 
L 30.786087 100.370447 
L 30.20365 95.721651 
L 29.969155 91.072855 
L 30.064874 86.42406 
L 30.497988 81.775264 
L 31.30194 77.126469 
L 31.87344 74.802071 
L 32.581099 72.477673 
L 33.89749 69.060033 
L 34.467635 67.828877 
L 36.221888 64.704348 
L 37.267384 63.180082 
L 39.16882 60.855684 
L 41.576133 58.531286 
L 43.195082 57.252384 
L 45.519479 55.709282 
L 49.075033 53.88249 
L 50.168275 53.415646 
L 52.492673 52.566099 
L 56.002704 51.558092 
L 59.465866 50.835356 
L 64.114662 50.22283 
L 68.763458 49.960866 
L 73.412253 50.029617 
L 78.061049 50.434238 
L 82.709845 51.205854 
L 85.034242 51.754915 
L 87.35864 52.441013 
L 91.158719 53.88249 
L 92.007436 54.266672 
L 95.510224 56.206888 
L 96.656232 56.976665 
L 98.980629 58.805995 
L 101.305027 61.116423 
L 103.629425 64.125961 
L 104.503791 65.504479 
L 105.953823 68.21706 
L 106.797658 70.153275 
L 107.653006 72.477673 
L 108.362128 74.802071 
L 109.379908 79.450866 
L 109.996093 84.099662 
L 110.259622 88.748458 
L 110.19046 93.397253 
L 109.783423 98.046049 
L 109.007198 102.694845 
L 108.278221 105.676303 
L 107.778946 107.34364 
L 106.948299 109.668038 
L 105.953823 111.999853 
L 104.726275 114.316834 
L 103.245205 116.641232 
L 101.305027 119.089295 
L 98.980629 121.399962 
L 96.095951 123.614425 
L 94.331834 124.711275 
L 92.007436 125.942427 
L 89.683038 126.933299 
L 85.691303 128.263221 
L 82.709845 128.992198 
L 78.061049 129.768423 
L 73.412253 130.17546 
L 68.763458 130.244622 
L 64.114662 129.981093 
L 59.465866 129.364908 
L 54.817071 128.347128 
L 54.817071 128.347128 
" style="fill:none;stroke:#0000ff;stroke-width:1.5;"/>
   </g>
   <g id="LineCollection_3">
    <path clip-path="url(#pf06c570eda)" d="M 180.334553 260.775653 
L 175.685758 260.337459 
L 171.036962 259.684376 
L 166.388166 258.753644 
L 164.063768 258.147881 
L 161.739371 257.419182 
L 158.394693 256.105101 
L 157.090575 255.48397 
L 154.157673 253.780703 
L 152.441779 252.527966 
L 150.117382 250.411053 
L 148.974795 249.131908 
L 147.261563 246.80751 
L 145.468586 243.613954 
L 144.806222 242.158714 
L 143.905344 239.834316 
L 143.144188 237.480684 
L 142.0118 232.861123 
L 141.204584 228.212327 
L 140.648377 223.563531 
L 140.292265 218.914736 
L 140.100417 214.26594 
L 140.091444 207.292747 
L 140.270671 202.643951 
L 140.612459 197.995155 
L 141.150358 193.34636 
L 141.934645 188.697564 
L 143.043512 184.048768 
L 143.77279 181.724371 
L 144.64717 179.399973 
L 145.706036 177.075575 
L 147.792984 173.590542 
L 148.664765 172.426779 
L 150.78036 170.102382 
L 153.605542 167.777984 
L 154.766177 167.004664 
L 157.575049 165.453586 
L 159.414973 164.63217 
L 163.721742 163.129188 
L 166.388166 162.426581 
L 171.036962 161.493008 
L 175.995285 160.80479 
L 180.334553 160.404879 
L 184.983349 160.146888 
L 191.956542 160.04599 
L 196.605338 160.162028 
L 201.254134 160.433347 
L 205.902929 160.882809 
L 210.551725 161.557869 
L 215.200521 162.518178 
L 217.524918 163.137528 
L 219.849316 163.890344 
L 223.628954 165.453586 
L 224.498112 165.888494 
L 227.604006 167.777984 
L 229.146908 168.959795 
L 231.471305 171.172688 
L 232.542966 172.426779 
L 234.191138 174.751177 
L 236.120101 178.379693 
L 236.563049 179.399973 
L 237.434182 181.724371 
L 238.444499 185.090426 
L 239.274037 188.697564 
L 240.055936 193.34636 
L 240.595733 197.995155 
L 240.939503 202.643951 
L 241.1183 207.292747 
L 241.109349 214.26594 
L 240.917961 218.914736 
L 240.559313 223.563531 
L 240.001876 228.212327 
L 239.197117 232.861123 
L 238.052141 237.509918 
L 237.30212 239.834316 
L 236.120101 242.801446 
L 235.302383 244.483112 
L 233.795703 247.040619 
L 231.471305 250.006143 
L 229.146908 252.219533 
L 226.82251 253.935307 
L 224.498112 255.287383 
L 222.173714 256.389587 
L 219.849316 257.28712 
L 216.103694 258.429499 
L 212.876123 259.182117 
L 208.227327 259.986876 
L 203.578531 260.544313 
L 198.929736 260.902961 
L 194.28094 261.094349 
L 187.307747 261.1033 
L 182.658951 260.924503 
L 180.334553 260.775653 
L 180.334553 260.775653 
" style="fill:none;stroke:#0000ff;stroke-width:1.5;"/>
    <path clip-path="url(#pf06c570eda)" d="M 57.141469 140.056623 
L 52.492673 139.500416 
L 47.843877 138.6932 
L 43.195082 137.552472 
L 40.870684 136.799656 
L 37.091046 135.236414 
L 36.221888 134.801506 
L 33.115994 132.912016 
L 31.573092 131.730205 
L 29.248695 129.517312 
L 28.177034 128.263221 
L 26.528862 125.938823 
L 24.599899 122.310307 
L 24.156951 121.290027 
L 23.285818 118.965629 
L 22.275501 115.599574 
L 21.445963 111.992436 
L 20.664064 107.34364 
L 20.124267 102.694845 
L 19.780497 98.046049 
L 19.6017 93.397253 
L 19.610651 86.42406 
L 19.802039 81.775264 
L 20.160687 77.126469 
L 20.718124 72.477673 
L 21.522883 67.828877 
L 22.667859 63.180082 
L 23.41788 60.855684 
L 24.599899 57.888554 
L 25.417617 56.206888 
L 26.924297 53.649381 
L 29.248695 50.683857 
L 31.573092 48.470467 
L 33.89749 46.754693 
L 36.221888 45.402617 
L 38.546286 44.300413 
L 40.870684 43.40288 
L 44.616306 42.260501 
L 47.843877 41.507883 
L 52.492673 40.703124 
L 57.141469 40.145687 
L 61.790264 39.787039 
L 66.43906 39.595651 
L 73.412253 39.5867 
L 78.061049 39.765497 
L 82.709845 40.109267 
L 87.35864 40.649064 
L 92.007436 41.430963 
L 96.656232 42.542119 
L 98.980629 43.270818 
L 102.325307 44.584899 
L 103.629425 45.20603 
L 106.562327 46.909297 
L 108.278221 48.162034 
L 110.602618 50.278947 
L 111.745205 51.558092 
L 113.458437 53.88249 
L 115.251414 57.076046 
L 115.913778 58.531286 
L 116.814656 60.855684 
L 117.575812 63.209316 
L 118.7082 67.828877 
L 119.515416 72.477673 
L 120.071623 77.126469 
L 120.427735 81.775264 
L 120.619583 86.42406 
L 120.628556 93.397253 
L 120.449329 98.046049 
L 120.107541 102.694845 
L 119.569642 107.34364 
L 118.785355 111.992436 
L 117.676488 116.641232 
L 116.94721 118.965629 
L 116.07283 121.290027 
L 115.013964 123.614425 
L 112.927016 127.099458 
L 112.055235 128.263221 
L 109.93964 130.587618 
L 107.114458 132.912016 
L 105.953823 133.685336 
L 103.144951 135.236414 
L 101.305027 136.05783 
L 96.998258 137.560812 
L 94.331834 138.263419 
L 89.683038 139.196992 
L 84.724715 139.88521 
L 80.385447 140.285121 
L 75.736651 140.543112 
L 68.763458 140.64401 
L 64.114662 140.527972 
L 59.465866 140.256653 
L 57.141469 140.056623 
L 57.141469 140.056623 
" style="fill:none;stroke:#0000ff;stroke-width:1.5;"/>
   </g>
   <g id="LineCollection_4">
    <path clip-path="url(#pf06c570eda)" d="M 130.36 265.402692 
L 130.36 263.078294 
L 130.36 260.753897 
L 130.36 258.429499 
L 130.36 256.105101 
L 130.36 253.780703 
L 130.36 251.456305 
L 130.36 249.131908 
L 130.36 246.80751 
L 130.36 244.483112 
L 130.36 242.158714 
L 130.36 239.834316 
L 130.36 237.509918 
L 130.36 235.185521 
L 130.36 232.861123 
L 130.36 230.536725 
L 130.36 228.212327 
L 130.36 225.887929 
L 130.36 223.563531 
L 130.36 221.239134 
L 130.36 218.914736 
L 130.36 216.590338 
L 130.36 214.26594 
L 130.36 211.941542 
L 130.36 209.617145 
L 130.36 207.292747 
L 130.36 204.968349 
L 130.36 202.643951 
L 130.36 200.319553 
L 130.36 197.995155 
L 130.36 195.670758 
L 130.36 193.34636 
L 130.36 191.021962 
L 130.36 188.697564 
L 130.36 186.373166 
L 130.36 184.048768 
L 130.36 181.724371 
L 130.36 179.399973 
L 130.36 177.075575 
L 130.36 174.751177 
L 130.36 172.426779 
L 130.36 170.102382 
L 130.36 167.777984 
L 130.36 165.453586 
L 130.36 163.129188 
L 130.36 160.80479 
L 130.36 158.480392 
L 130.36 156.155995 
L 130.36 153.831597 
L 130.36 151.507199 
L 131.522199 150.345 
L 133.846597 150.345 
L 136.170995 150.345 
L 138.495392 150.345 
L 140.81979 150.345 
L 143.144188 150.345 
L 145.468586 150.345 
L 147.792984 150.345 
L 150.117382 150.345 
L 152.441779 150.345 
L 154.766177 150.345 
L 157.090575 150.345 
L 159.414973 150.345 
L 161.739371 150.345 
L 164.063768 150.345 
L 166.388166 150.345 
L 168.712564 150.345 
L 171.036962 150.345 
L 173.36136 150.345 
L 175.685758 150.345 
L 178.010155 150.345 
L 180.334553 150.345 
L 182.658951 150.345 
L 184.983349 150.345 
L 187.307747 150.345 
L 189.632145 150.345 
L 191.956542 150.345 
L 194.28094 150.345 
L 196.605338 150.345 
L 198.929736 150.345 
L 201.254134 150.345 
L 203.578531 150.345 
L 205.902929 150.345 
L 208.227327 150.345 
L 210.551725 150.345 
L 212.876123 150.345 
L 215.200521 150.345 
L 217.524918 150.345 
L 219.849316 150.345 
L 222.173714 150.345 
L 224.498112 150.345 
L 226.82251 150.345 
L 229.146908 150.345 
L 231.471305 150.345 
L 233.795703 150.345 
L 236.120101 150.345 
L 238.444499 150.345 
L 240.768897 150.345 
L 243.093294 150.345 
L 245.417692 150.345 
" style="fill:none;stroke:#0000ff;stroke-width:1.5;"/>
    <path clip-path="url(#pf06c570eda)" d="M 130.36 35.287308 
L 130.36 37.611706 
L 130.36 39.936103 
L 130.36 42.260501 
L 130.36 44.584899 
L 130.36 46.909297 
L 130.36 49.233695 
L 130.36 51.558092 
L 130.36 53.88249 
L 130.36 56.206888 
L 130.36 58.531286 
L 130.36 60.855684 
L 130.36 63.180082 
L 130.36 65.504479 
L 130.36 67.828877 
L 130.36 70.153275 
L 130.36 72.477673 
L 130.36 74.802071 
L 130.36 77.126469 
L 130.36 79.450866 
L 130.36 81.775264 
L 130.36 84.099662 
L 130.36 86.42406 
L 130.36 88.748458 
L 130.36 91.072855 
L 130.36 93.397253 
L 130.36 95.721651 
L 130.36 98.046049 
L 130.36 100.370447 
L 130.36 102.694845 
L 130.36 105.019242 
L 130.36 107.34364 
L 130.36 109.668038 
L 130.36 111.992436 
L 130.36 114.316834 
L 130.36 116.641232 
L 130.36 118.965629 
L 130.36 121.290027 
L 130.36 123.614425 
L 130.36 125.938823 
L 130.36 128.263221 
L 130.36 130.587618 
L 130.36 132.912016 
L 130.36 135.236414 
L 130.36 137.560812 
L 130.36 139.88521 
L 130.36 142.209608 
L 130.36 144.534005 
L 130.36 146.858403 
L 130.36 149.182801 
L 129.197801 150.345 
L 126.873403 150.345 
L 124.549005 150.345 
L 122.224608 150.345 
L 119.90021 150.345 
L 117.575812 150.345 
L 115.251414 150.345 
L 112.927016 150.345 
L 110.602618 150.345 
L 108.278221 150.345 
L 105.953823 150.345 
L 103.629425 150.345 
L 101.305027 150.345 
L 98.980629 150.345 
L 96.656232 150.345 
L 94.331834 150.345 
L 92.007436 150.345 
L 89.683038 150.345 
L 87.35864 150.345 
L 85.034242 150.345 
L 82.709845 150.345 
L 80.385447 150.345 
L 78.061049 150.345 
L 75.736651 150.345 
L 73.412253 150.345 
L 71.087855 150.345 
L 68.763458 150.345 
L 66.43906 150.345 
L 64.114662 150.345 
L 61.790264 150.345 
L 59.465866 150.345 
L 57.141469 150.345 
L 54.817071 150.345 
L 52.492673 150.345 
L 50.168275 150.345 
L 47.843877 150.345 
L 45.519479 150.345 
L 43.195082 150.345 
L 40.870684 150.345 
L 38.546286 150.345 
L 36.221888 150.345 
L 33.89749 150.345 
L 31.573092 150.345 
L 29.248695 150.345 
L 26.924297 150.345 
L 24.599899 150.345 
L 22.275501 150.345 
L 19.951103 150.345 
L 17.626706 150.345 
L 15.302308 150.345 
" style="fill:none;stroke:#0000ff;stroke-width:1.5;"/>
   </g>
   <g id="LineCollection_5">
    <path clip-path="url(#pf06c570eda)" d="M 61.790264 260.902961 
L 66.43906 261.094349 
L 73.412253 261.1033 
L 78.061049 260.924503 
L 82.709845 260.580733 
L 87.35864 260.040936 
L 92.007436 259.259037 
L 96.656232 258.147881 
L 98.980629 257.419182 
L 102.325307 256.105101 
L 103.629425 255.48397 
L 106.562327 253.780703 
L 108.278221 252.527966 
L 110.602618 250.411053 
L 111.745205 249.131908 
L 113.458437 246.80751 
L 115.251414 243.613954 
L 115.913778 242.158714 
L 116.814656 239.834316 
L 117.575812 237.480684 
L 118.7082 232.861123 
L 119.515416 228.212327 
L 120.071623 223.563531 
L 120.427735 218.914736 
L 120.619583 214.26594 
L 120.628556 207.292747 
L 120.449329 202.643951 
L 120.107541 197.995155 
L 119.569642 193.34636 
L 118.785355 188.697564 
L 117.676488 184.048768 
L 116.94721 181.724371 
L 116.07283 179.399973 
L 115.013964 177.075575 
L 112.927016 173.590542 
L 112.055235 172.426779 
L 109.93964 170.102382 
L 107.114458 167.777984 
L 105.953823 167.004664 
L 103.144951 165.453586 
L 101.305027 164.63217 
L 96.998258 163.129188 
L 94.331834 162.426581 
L 89.683038 161.493008 
L 84.724715 160.80479 
L 80.385447 160.404879 
L 75.736651 160.146888 
L 68.763458 160.04599 
L 64.114662 160.162028 
L 59.465866 160.433347 
L 54.817071 160.882809 
L 50.168275 161.557869 
L 45.519479 162.518178 
L 43.195082 163.137528 
L 40.870684 163.890344 
L 37.091046 165.453586 
L 36.221888 165.888494 
L 33.115994 167.777984 
L 31.573092 168.959795 
L 29.248695 171.172688 
L 28.177034 172.426779 
L 26.528862 174.751177 
L 24.599899 178.379693 
L 24.156951 179.399973 
L 23.285818 181.724371 
L 22.275501 185.090426 
L 21.445963 188.697564 
L 20.664064 193.34636 
L 20.124267 197.995155 
L 19.780497 202.643951 
L 19.6017 207.292747 
L 19.610651 214.26594 
L 19.802039 218.914736 
L 20.160687 223.563531 
L 20.718124 228.212327 
L 21.522883 232.861123 
L 22.667859 237.509918 
L 23.41788 239.834316 
L 24.599899 242.801446 
L 25.417617 244.483112 
L 26.924297 247.040619 
L 29.248695 250.006143 
L 31.573092 252.219533 
L 33.89749 253.935307 
L 36.221888 255.287383 
L 38.546286 256.389587 
L 40.870684 257.28712 
L 44.616306 258.429499 
L 47.843877 259.182117 
L 52.492673 259.986876 
L 57.141469 260.544313 
L 61.790264 260.902961 
L 61.790264 260.902961 
" style="fill:none;stroke:#0000ff;stroke-width:1.5;"/>
    <path clip-path="url(#pf06c570eda)" d="M 178.010155 140.092541 
L 182.658951 140.434329 
L 187.307747 140.613556 
L 194.28094 140.604583 
L 198.929736 140.412735 
L 205.195911 139.88521 
L 208.227327 139.500416 
L 212.876123 138.6932 
L 217.524918 137.552472 
L 219.849316 136.799656 
L 223.628954 135.236414 
L 224.498112 134.801506 
L 227.604006 132.912016 
L 229.146908 131.730205 
L 231.471305 129.517312 
L 232.542966 128.263221 
L 234.191138 125.938823 
L 236.120101 122.310307 
L 236.563049 121.290027 
L 237.434182 118.965629 
L 238.444499 115.599574 
L 239.274037 111.992436 
L 240.055936 107.34364 
L 240.595733 102.694845 
L 240.939503 98.046049 
L 241.1183 93.397253 
L 241.109349 86.42406 
L 240.917961 81.775264 
L 240.559313 77.126469 
L 240.001876 72.477673 
L 239.197117 67.828877 
L 238.052141 63.180082 
L 237.30212 60.855684 
L 236.120101 57.888554 
L 235.302383 56.206888 
L 233.795703 53.649381 
L 231.471305 50.683857 
L 229.146908 48.470467 
L 226.82251 46.754693 
L 224.498112 45.402617 
L 222.173714 44.300413 
L 219.849316 43.40288 
L 216.103694 42.260501 
L 212.876123 41.507883 
L 208.227327 40.703124 
L 203.578531 40.145687 
L 198.929736 39.787039 
L 194.28094 39.595651 
L 187.307747 39.5867 
L 182.658951 39.765497 
L 178.010155 40.109267 
L 173.36136 40.649064 
L 168.712564 41.430963 
L 164.063768 42.542119 
L 161.739371 43.270818 
L 158.394693 44.584899 
L 157.090575 45.20603 
L 154.157673 46.909297 
L 152.441779 48.162034 
L 150.117382 50.278947 
L 148.974795 51.558092 
L 147.261563 53.88249 
L 145.468586 57.076046 
L 144.806222 58.531286 
L 143.905344 60.855684 
L 143.144188 63.209316 
L 142.0118 67.828877 
L 141.204584 72.477673 
L 140.648377 77.126469 
L 140.292265 81.775264 
L 140.100417 86.42406 
L 140.091444 93.397253 
L 140.270671 98.046049 
L 140.612459 102.694845 
L 141.150358 107.34364 
L 141.934645 111.992436 
L 143.043512 116.641232 
L 143.77279 118.965629 
L 144.64717 121.290027 
L 145.706036 123.614425 
L 147.792984 127.099458 
L 148.664765 128.263221 
L 150.78036 130.587618 
L 153.605542 132.912016 
L 154.766177 133.685336 
L 157.575049 135.236414 
L 159.414973 136.05783 
L 163.721742 137.560812 
L 166.388166 138.263419 
L 171.036962 139.196992 
L 175.995285 139.88521 
L 178.010155 140.092541 
L 178.010155 140.092541 
" style="fill:none;stroke:#0000ff;stroke-width:1.5;"/>
   </g>
   <g id="LineCollection_6">
    <path clip-path="url(#pf06c570eda)" d="M 57.141469 249.40306 
L 61.790264 250.207012 
L 66.43906 250.640126 
L 71.087855 250.735845 
L 75.736651 250.50135 
L 80.385447 249.918913 
L 84.233455 249.131908 
L 85.034242 248.935085 
L 87.35864 248.248987 
L 91.158719 246.80751 
L 92.007436 246.423328 
L 95.510224 244.483112 
L 96.656232 243.713335 
L 98.980629 241.884005 
L 101.305027 239.573577 
L 103.629425 236.564039 
L 104.503791 235.185521 
L 105.953823 232.47294 
L 106.797658 230.536725 
L 107.653006 228.212327 
L 108.362128 225.887929 
L 109.379908 221.239134 
L 109.996093 216.590338 
L 110.259622 211.941542 
L 110.19046 207.292747 
L 109.783423 202.643951 
L 109.007198 197.995155 
L 108.278221 195.013697 
L 107.778946 193.34636 
L 106.948299 191.021962 
L 105.953823 188.690147 
L 104.726275 186.373166 
L 103.245205 184.048768 
L 101.305027 181.600705 
L 98.980629 179.290038 
L 96.095951 177.075575 
L 94.331834 175.978725 
L 92.007436 174.747573 
L 89.683038 173.756701 
L 85.691303 172.426779 
L 82.709845 171.697802 
L 78.061049 170.921577 
L 73.412253 170.51454 
L 68.763458 170.445378 
L 64.114662 170.708907 
L 59.465866 171.325092 
L 54.817071 172.342872 
L 52.492673 173.051994 
L 50.168275 173.907342 
L 47.843877 174.934813 
L 44.140961 177.075575 
L 43.195082 177.737936 
L 40.870684 179.634825 
L 38.546286 182.042126 
L 36.221888 185.194776 
L 35.503511 186.373166 
L 33.89749 189.546281 
L 33.281026 191.021962 
L 32.456013 193.34636 
L 31.573092 196.471545 
L 30.786087 200.319553 
L 30.20365 204.968349 
L 29.969155 209.617145 
L 30.064874 214.26594 
L 30.497988 218.914736 
L 31.30194 223.563531 
L 31.87344 225.887929 
L 32.581099 228.212327 
L 33.89749 231.629967 
L 34.467635 232.861123 
L 36.221888 235.985652 
L 37.267384 237.509918 
L 39.16882 239.834316 
L 41.576133 242.158714 
L 43.195082 243.437616 
L 45.519479 244.980718 
L 49.075033 246.80751 
L 50.168275 247.274354 
L 52.492673 248.123901 
L 56.002704 249.131908 
L 57.141469 249.40306 
L 57.141469 249.40306 
" style="fill:none;stroke:#0000ff;stroke-width:1.5;"/>
    <path clip-path="url(#pf06c570eda)" d="M 175.685758 128.447337 
L 180.334553 129.429562 
L 184.983349 130.015477 
L 189.632145 130.251373 
L 194.28094 130.155082 
L 198.929736 129.719381 
L 203.578531 128.910627 
L 206.19466 128.263221 
L 208.227327 127.638006 
L 210.551725 126.782658 
L 212.876123 125.755187 
L 216.579039 123.614425 
L 217.524918 122.952064 
L 219.849316 121.055175 
L 222.173714 118.647874 
L 224.498112 115.495224 
L 225.216489 114.316834 
L 226.82251 111.143719 
L 227.438974 109.668038 
L 228.263987 107.34364 
L 229.146908 104.218455 
L 229.933913 100.370447 
L 230.51635 95.721651 
L 230.750845 91.072855 
L 230.655126 86.42406 
L 230.222012 81.775264 
L 229.41806 77.126469 
L 228.84656 74.802071 
L 228.138901 72.477673 
L 226.82251 69.060033 
L 226.252365 67.828877 
L 224.498112 64.704348 
L 223.452616 63.180082 
L 221.55118 60.855684 
L 219.143867 58.531286 
L 217.524918 57.252384 
L 215.200521 55.709282 
L 211.644967 53.88249 
L 210.551725 53.415646 
L 208.227327 52.566099 
L 204.717296 51.558092 
L 201.254134 50.835356 
L 196.605338 50.22283 
L 191.956542 49.960866 
L 187.307747 50.029617 
L 182.658951 50.434238 
L 178.010155 51.205854 
L 175.685758 51.754915 
L 173.36136 52.441013 
L 169.561281 53.88249 
L 168.712564 54.266672 
L 165.209776 56.206888 
L 164.063768 56.976665 
L 161.739371 58.805995 
L 159.414973 61.116423 
L 157.090575 64.125961 
L 156.216209 65.504479 
L 154.766177 68.21706 
L 153.922342 70.153275 
L 153.066994 72.477673 
L 152.357872 74.802071 
L 151.340092 79.450866 
L 150.723907 84.099662 
L 150.460378 88.748458 
L 150.52954 93.397253 
L 150.936577 98.046049 
L 151.712802 102.694845 
L 152.441779 105.676303 
L 152.941054 107.34364 
L 153.771701 109.668038 
L 154.766177 111.999853 
L 155.993725 114.316834 
L 157.474795 116.641232 
L 159.414973 119.089295 
L 161.739371 121.399962 
L 164.624049 123.614425 
L 166.388166 124.711275 
L 168.712564 125.942427 
L 171.036962 126.933299 
L 175.028697 128.263221 
L 175.685758 128.447337 
L 175.685758 128.447337 
" style="fill:none;stroke:#0000ff;stroke-width:1.5;"/>
   </g>
   <g id="LineCollection_7">
    <path clip-path="url(#pf06c570eda)" d="M 64.114662 237.757809 
L 66.43906 238.091543 
L 68.763458 238.263292 
L 71.087855 238.276242 
L 73.412253 238.13063 
L 75.736651 237.823761 
L 77.281672 237.509918 
L 78.061049 237.337977 
L 80.385447 236.639662 
L 82.709845 235.738356 
L 83.867486 235.185521 
L 85.034242 234.567281 
L 87.35864 233.082843 
L 87.655435 232.861123 
L 89.683038 231.146424 
L 90.306279 230.536725 
L 92.007436 228.617965 
L 92.324238 228.212327 
L 93.877405 225.887929 
L 94.331834 225.073654 
L 95.089558 223.563531 
L 96.037607 221.239134 
L 96.656232 219.300249 
L 96.768816 218.914736 
L 97.276444 216.590338 
L 97.61392 214.26594 
L 97.787595 211.941542 
L 97.800689 209.617145 
L 97.653445 207.292747 
L 97.343136 204.968349 
L 96.863939 202.643951 
L 96.656232 201.902012 
L 96.172534 200.319553 
L 95.259789 197.995155 
L 94.331834 196.090376 
L 94.104621 195.670758 
L 92.598777 193.34636 
L 92.007436 192.571051 
L 90.667204 191.021962 
L 89.683038 190.037796 
L 88.133949 188.697564 
L 87.35864 188.106223 
L 85.034242 186.600379 
L 84.614624 186.373166 
L 82.709845 185.445211 
L 80.385447 184.532466 
L 78.802988 184.048768 
L 78.061049 183.841061 
L 75.736651 183.361864 
L 73.412253 183.051555 
L 71.087855 182.904311 
L 68.763458 182.917405 
L 66.43906 183.09108 
L 64.114662 183.428556 
L 61.790264 183.936184 
L 61.404751 184.048768 
L 59.465866 184.667393 
L 57.141469 185.615442 
L 55.631346 186.373166 
L 54.817071 186.827595 
L 52.492673 188.380762 
L 52.087035 188.697564 
L 50.168275 190.398721 
L 49.558576 191.021962 
L 47.843877 193.049565 
L 47.622157 193.34636 
L 46.137719 195.670758 
L 45.519479 196.837514 
L 44.966644 197.995155 
L 44.065338 200.319553 
L 43.367023 202.643951 
L 43.195082 203.423328 
L 42.881239 204.968349 
L 42.57437 207.292747 
L 42.428758 209.617145 
L 42.441708 211.941542 
L 42.613457 214.26594 
L 42.947191 216.590338 
L 43.195082 217.744797 
L 43.468086 218.914736 
L 44.198574 221.239134 
L 45.134743 223.563531 
L 45.519479 224.345746 
L 46.361705 225.887929 
L 47.843877 228.140034 
L 47.897532 228.212327 
L 49.913648 230.536725 
L 50.168275 230.791352 
L 52.492673 232.807468 
L 52.564966 232.861123 
L 54.817071 234.343295 
L 56.359254 235.185521 
L 57.141469 235.570257 
L 59.465866 236.506426 
L 61.790264 237.236914 
L 62.960203 237.509918 
L 64.114662 237.757809 
" style="fill:none;stroke:#0000ff;stroke-width:1.5;"/>
    <path clip-path="url(#pf06c570eda)" d="M 182.658951 116.848939 
L 184.983349 117.328136 
L 187.307747 117.638445 
L 189.632145 117.785689 
L 191.956542 117.772595 
L 194.28094 117.59892 
L 196.605338 117.261444 
L 198.929736 116.753816 
L 199.315249 116.641232 
L 201.254134 116.022607 
L 203.578531 115.074558 
L 205.088654 114.316834 
L 205.902929 113.862405 
L 208.227327 112.309238 
L 208.632965 111.992436 
L 210.551725 110.291279 
L 211.161424 109.668038 
L 212.876123 107.640435 
L 213.097843 107.34364 
L 214.582281 105.019242 
L 215.200521 103.852486 
L 215.753356 102.694845 
L 216.654662 100.370447 
L 217.352977 98.046049 
L 217.524918 97.266672 
L 217.838761 95.721651 
L 218.14563 93.397253 
L 218.291242 91.072855 
L 218.278292 88.748458 
L 218.106543 86.42406 
L 217.772809 84.099662 
L 217.524918 82.945203 
L 217.251914 81.775264 
L 216.521426 79.450866 
L 215.585257 77.126469 
L 215.200521 76.344254 
L 214.358295 74.802071 
L 212.876123 72.549966 
L 212.822468 72.477673 
L 210.806352 70.153275 
L 210.551725 69.898648 
L 208.227327 67.882532 
L 208.155034 67.828877 
L 205.902929 66.346705 
L 204.360746 65.504479 
L 203.578531 65.119743 
L 201.254134 64.183574 
L 198.929736 63.453086 
L 197.759797 63.180082 
L 196.605338 62.932191 
L 194.28094 62.598457 
L 191.956542 62.426708 
L 189.632145 62.413758 
L 187.307747 62.55937 
L 184.983349 62.866239 
L 183.438328 63.180082 
L 182.658951 63.352023 
L 180.334553 64.050338 
L 178.010155 64.951644 
L 176.852514 65.504479 
L 175.685758 66.122719 
L 173.36136 67.607157 
L 173.064565 67.828877 
L 171.036962 69.543576 
L 170.413721 70.153275 
L 168.712564 72.072035 
L 168.395762 72.477673 
L 166.842595 74.802071 
L 166.388166 75.616346 
L 165.630442 77.126469 
L 164.682393 79.450866 
L 164.063768 81.389751 
L 163.951184 81.775264 
L 163.443556 84.099662 
L 163.10608 86.42406 
L 162.932405 88.748458 
L 162.919311 91.072855 
L 163.066555 93.397253 
L 163.376864 95.721651 
L 163.856061 98.046049 
L 164.063768 98.787988 
L 164.547466 100.370447 
L 165.460211 102.694845 
L 166.388166 104.599624 
L 166.615379 105.019242 
L 168.121223 107.34364 
L 168.712564 108.118949 
L 170.052796 109.668038 
L 171.036962 110.652204 
L 172.586051 111.992436 
L 173.36136 112.583777 
L 175.685758 114.089621 
L 176.105376 114.316834 
L 178.010155 115.244789 
L 180.334553 116.157534 
L 181.917012 116.641232 
L 182.658951 116.848939 
" style="fill:none;stroke:#0000ff;stroke-width:1.5;"/>
   </g>
   <g id="patch_3">
    <path d="M 130.36 270.005 
L 130.36 30.685 
" style="fill:none;stroke:#000000;stroke-linecap:square;stroke-linejoin:miter;stroke-width:0.8;"/>
   </g>
   <g id="patch_4">
    <path d="M 10.7 150.345 
L 250.02 150.345 
" style="fill:none;stroke:#000000;stroke-linecap:square;stroke-linejoin:miter;stroke-width:0.8;"/>
   </g>
   <g id="text_15">
    <g clip-path="url(#pf06c570eda)">
     <!-- -1 -->
     <g transform="translate(192.365082 240.64184)rotate(-5.256441)scale(0.09 -0.09)">
      <use xlink:href="#DejaVuSans-2d"/>
      <use x="36.083984" xlink:href="#DejaVuSans-31"/>
     </g>
    </g>
   </g>
   <g id="text_16">
    <g clip-path="url(#pf06c570eda)">
     <!-- -1 -->
     <g transform="translate(69.05249 120.33842)rotate(-2.804352)scale(0.09 -0.09)">
      <use xlink:href="#DejaVuSans-2d"/>
      <use x="36.083984" xlink:href="#DejaVuSans-31"/>
     </g>
    </g>
   </g>
   <g id="text_17">
    <g clip-path="url(#pf06c570eda)">
     <!-- -0 -->
     <defs>
      <path d="M 31.78125 66.40625 
Q 24.171875 66.40625 20.328125 58.90625 
Q 16.5 51.421875 16.5 36.375 
Q 16.5 21.390625 20.328125 13.890625 
Q 24.171875 6.390625 31.78125 6.390625 
Q 39.453125 6.390625 43.28125 13.890625 
Q 47.125 21.390625 47.125 36.375 
Q 47.125 51.421875 43.28125 58.90625 
Q 39.453125 66.40625 31.78125 66.40625 
z
M 31.78125 74.21875 
Q 44.046875 74.21875 50.515625 64.515625 
Q 56.984375 54.828125 56.984375 36.375 
Q 56.984375 17.96875 50.515625 8.265625 
Q 44.046875 -1.421875 31.78125 -1.421875 
Q 19.53125 -1.421875 13.0625 8.265625 
Q 6.59375 17.96875 6.59375 36.375 
Q 6.59375 54.828125 13.0625 64.515625 
Q 19.53125 74.21875 31.78125 74.21875 
z
" id="DejaVuSans-30"/>
     </defs>
     <g transform="translate(180.393344 252.788107)rotate(-357.517323)scale(0.09 -0.09)">
      <use xlink:href="#DejaVuSans-2d"/>
      <use x="36.083984" xlink:href="#DejaVuSans-30"/>
     </g>
    </g>
   </g>
   <g id="text_18">
    <g clip-path="url(#pf06c570eda)">
     <!-- -0 -->
     <g transform="translate(57.149746 131.901811)rotate(-356.22221)scale(0.09 -0.09)">
      <use xlink:href="#DejaVuSans-2d"/>
      <use x="36.083984" xlink:href="#DejaVuSans-30"/>
     </g>
    </g>
   </g>
   <g id="text_19">
    <g clip-path="url(#pf06c570eda)">
     <!-- -0 -->
     <g transform="translate(201.276398 163.094734)rotate(-356.586943)scale(0.09 -0.09)">
      <use xlink:href="#DejaVuSans-2d"/>
      <use x="36.083984" xlink:href="#DejaVuSans-30"/>
     </g>
    </g>
   </g>
   <g id="text_20">
    <g clip-path="url(#pf06c570eda)">
     <!-- -0 -->
     <g transform="translate(55.077984 42.59689)rotate(-2.202544)scale(0.09 -0.09)">
      <use xlink:href="#DejaVuSans-2d"/>
      <use x="36.083984" xlink:href="#DejaVuSans-30"/>
     </g>
    </g>
   </g>
   <g id="text_21">
    <g clip-path="url(#pf06c570eda)">
     <!-- 0 -->
     <g transform="translate(127.876563 255.566374)rotate(-270)scale(0.09 -0.09)">
      <use xlink:href="#DejaVuSans-30"/>
     </g>
    </g>
   </g>
   <g id="text_22">
    <g clip-path="url(#pf06c570eda)">
     <!-- 0 -->
     <g transform="translate(127.876563 39.397376)rotate(-270)scale(0.09 -0.09)">
      <use xlink:href="#DejaVuSans-30"/>
     </g>
    </g>
   </g>
   <g id="text_23">
    <g clip-path="url(#pf06c570eda)">
     <!-- 0 -->
     <g transform="translate(77.433587 162.782161)rotate(-357.908316)scale(0.09 -0.09)">
      <use xlink:href="#DejaVuSans-30"/>
     </g>
    </g>
   </g>
   <g id="text_24">
    <g clip-path="url(#pf06c570eda)">
     <!-- 0 -->
     <g transform="translate(198.487515 142.847168)rotate(-2.179256)scale(0.09 -0.09)">
      <use xlink:href="#DejaVuSans-30"/>
     </g>
    </g>
   </g>
   <g id="text_25">
    <g clip-path="url(#pf06c570eda)">
     <!-- 0 -->
     <g transform="translate(77.736062 252.62921)rotate(-4.713183)scale(0.09 -0.09)">
      <use xlink:href="#DejaVuSans-30"/>
     </g>
    </g>
   </g>
   <g id="text_26">
    <g clip-path="url(#pf06c570eda)">
     <!-- 0 -->
     <g transform="translate(161.11531 125.047498)rotate(-341.278617)scale(0.09 -0.09)">
      <use xlink:href="#DejaVuSans-30"/>
     </g>
    </g>
   </g>
   <g id="text_27">
    <g clip-path="url(#pf06c570eda)">
     <!-- 1 -->
     <g transform="translate(77.140159 186.490284)rotate(-350.163811)scale(0.09 -0.09)">
      <use xlink:href="#DejaVuSans-31"/>
     </g>
    </g>
   </g>
   <g id="text_28">
    <g clip-path="url(#pf06c570eda)">
     <!-- 1 -->
     <g transform="translate(177.089265 118.115353)rotate(-350.163811)scale(0.09 -0.09)">
      <use xlink:href="#DejaVuSans-31"/>
     </g>
    </g>
   </g>
  </g>
 </g>
 <defs>
  <clipPath id="pf06c570eda">
   <rect height="239.32" width="239.32" x="10.7" y="30.685"/>
  </clipPath>
 </defs>
</svg>
