<?xml version="1.0" encoding="utf-8" standalone="no"?>
<!DOCTYPE svg PUBLIC "-//W3C//DTD SVG 1.1//EN"
  "http://www.w3.org/Graphics/SVG/1.1/DTD/svg11.dtd">
<svg xmlns:xlink="http://www.w3.org/1999/xlink" width="277.3pt" height="280.4025pt" viewBox="0 0 277.3 280.4025" xmlns="http://www.w3.org/2000/svg" version="1.1">
 <metadata>
  <rdf:RDF xmlns:dc="http://purl.org/dc/elements/1.1/" xmlns:cc="http://creativecommons.org/ns#" xmlns:rdf="http://www.w3.org/1999/02/22-rdf-syntax-ns#">
   <cc:Work>
    <dc:type rdf:resource="http://purl.org/dc/dcmitype/StillImage"/>
    <dc:date>2023-05-23T18:58:54.960757</dc:date>
    <dc:format>image/svg+xml</dc:format>
    <dc:creator>
     <cc:Agent>
      <dc:title>Matplotlib v3.6.2, https://matplotlib.org/</dc:title>
     </cc:Agent>
    </dc:creator>
   </cc:Work>
  </rdf:RDF>
 </metadata>
 <defs>
  <style type="text/css">*{stroke-linejoin: round; stroke-linecap: butt}</style>
 </defs>
 <g id="figure_1">
  <g id="patch_1">
   <path d="M 0 280.4025 
L 277.3 280.4025 
L 277.3 0 
L 0 0 
z
" style="fill: #ffffff"/>
  </g>
  <g id="axes_1">
   <g id="patch_2">
    <path d="M 7.2 273.2025 
L 256.96 273.2025 
L 256.96 23.4425 
L 7.2 23.4425 
z
" style="fill: #ffffff"/>
   </g>
   <g id="Quiver_1">
    <path d="M 21.592977 259.515951 
L 13.467635 267.641293 
L 14.527277 267.994507 
L 9.935495 270.467005 
L 12.407993 265.875223 
L 12.761207 266.934865 
L 20.886549 258.809523 
L 21.592977 259.515951 
" clip-path="url(#p79686ef317)" style="fill: #0000ff"/>
    <path d="M 21.564847 243.707681 
L 13.673953 250.471304 
L 14.703384 250.904748 
L 9.935495 253.01779 
L 12.752884 248.629165 
L 13.023787 249.712776 
L 20.91468 242.949153 
L 21.564847 243.707681 
" clip-path="url(#p79686ef317)" style="fill: #0000ff"/>
    <path d="M 21.530103 227.900574 
L 13.884121 233.36199 
L 14.871277 233.884602 
L 9.935495 235.568575 
L 13.129236 231.445745 
L 13.30344 232.549038 
L 20.949423 227.087621 
L 21.530103 227.900574 
" clip-path="url(#p79686ef317)" style="fill: #0000ff"/>
    <path d="M 21.487595 212.093483 
L 14.08667 216.322583 
L 15.016037 216.942161 
L 9.935495 218.11936 
L 13.529049 214.339932 
L 13.591007 215.455173 
L 20.991932 211.226073 
L 21.487595 212.093483 
" clip-path="url(#p79686ef317)" style="fill: #0000ff"/>
    <path d="M 21.436534 196.28459 
L 14.264448 199.358341 
L 15.11712 200.079833 
L 9.935495 200.670145 
L 13.936497 197.325045 
L 13.870907 198.440078 
L 21.042993 195.366327 
L 21.436534 196.28459 
" clip-path="url(#p79686ef317)" style="fill: #0000ff"/>
    <path d="M 21.376992 180.471439 
L 14.395428 182.466172 
L 15.150186 183.289544 
L 9.935495 183.22093 
L 14.326814 180.407742 
L 14.12097 181.505571 
L 21.102535 179.510839 
L 21.376992 180.471439 
" clip-path="url(#p79686ef317)" style="fill: #0000ff"/>
    <path d="M 21.310406 164.651319 
L 14.456634 165.630429 
L 15.092419 166.548786 
L 9.935495 165.771715 
L 14.668563 163.581788 
L 14.315349 164.64143 
L 21.169121 163.66232 
L 21.310406 164.651319 
" clip-path="url(#p79686ef317)" style="fill: #0000ff"/>
    <path d="M 21.239763 148.82202 
L 14.431175 148.82202 
L 14.930695 149.82106 
L 9.935495 148.3225 
L 14.930695 146.82394 
L 14.431175 147.82298 
L 21.239763 147.82298 
L 21.239763 148.82202 
" clip-path="url(#p79686ef317)" style="fill: #0000ff"/>
    <path d="M 21.169121 132.98268 
L 14.315349 132.00357 
L 14.668563 133.063212 
L 9.935495 130.873285 
L 15.092419 130.096214 
L 14.456634 131.014571 
L 21.310406 131.993681 
L 21.169121 132.98268 
" clip-path="url(#p79686ef317)" style="fill: #0000ff"/>
    <path d="M 21.102535 117.134161 
L 14.12097 115.139429 
L 14.326814 116.237258 
L 9.935495 113.42407 
L 15.150186 113.355456 
L 14.395428 114.178828 
L 21.376992 116.173561 
L 21.102535 117.134161 
" clip-path="url(#p79686ef317)" style="fill: #0000ff"/>
    <path d="M 21.042993 101.278673 
L 13.870907 98.204922 
L 13.936497 99.319955 
L 9.935495 95.974855 
L 15.11712 96.565167 
L 14.264448 97.286659 
L 21.436534 100.36041 
L 21.042993 101.278673 
" clip-path="url(#p79686ef317)" style="fill: #0000ff"/>
    <path d="M 20.991932 85.418927 
L 13.591007 81.189827 
L 13.529049 82.305068 
L 9.935495 78.52564 
L 15.016037 79.702839 
L 14.08667 80.322417 
L 21.487595 84.551517 
L 20.991932 85.418927 
" clip-path="url(#p79686ef317)" style="fill: #0000ff"/>
    <path d="M 20.949423 69.557379 
L 13.30344 64.095962 
L 13.129236 65.199255 
L 9.935495 61.076425 
L 14.871277 62.760398 
L 13.884121 63.28301 
L 21.530103 68.744426 
L 20.949423 69.557379 
" clip-path="url(#p79686ef317)" style="fill: #0000ff"/>
    <path d="M 20.91468 53.695847 
L 13.023787 46.932224 
L 12.752884 48.015835 
L 9.935495 43.62721 
L 14.703384 45.740252 
L 13.673953 46.173696 
L 21.564847 52.937319 
L 20.91468 53.695847 
" clip-path="url(#p79686ef317)" style="fill: #0000ff"/>
    <path d="M 20.886549 37.835477 
L 12.761207 29.710135 
L 12.407993 30.769777 
L 9.935495 26.177995 
L 14.527277 28.650493 
L 13.467635 29.003707 
L 21.592977 37.129049 
L 20.886549 37.835477 
" clip-path="url(#p79686ef317)" style="fill: #0000ff"/>
    <path d="M 37.453347 259.48782 
L 30.689724 267.378713 
L 31.773335 267.649616 
L 27.38471 270.467005 
L 29.497752 265.699116 
L 29.931196 266.728547 
L 36.694819 258.837653 
L 37.453347 259.48782 
" clip-path="url(#p79686ef317)" style="fill: #0000ff"/>
    <path d="M 37.427297 243.681631 
L 30.91685 250.192078 
L 31.976492 250.545292 
L 27.38471 253.01779 
L 29.857208 248.426008 
L 30.210422 249.48565 
L 36.720869 242.975203 
L 37.427297 243.681631 
" clip-path="url(#p79686ef317)" style="fill: #0000ff"/>
    <path d="M 37.393868 227.87784 
L 31.158172 233.074253 
L 32.181484 233.521951 
L 27.38471 235.568575 
L 30.262774 231.2195 
L 30.518602 232.306769 
L 36.754298 227.110356 
L 37.393868 227.87784 
" clip-path="url(#p79686ef317)" style="fill: #0000ff"/>
    <path d="M 37.351167 212.075404 
L 31.402426 216.041231 
L 32.372219 216.595399 
L 27.38471 218.11936 
L 30.709716 214.101644 
L 30.848258 215.20998 
L 36.796999 211.244152 
L 37.351167 212.075404 
" clip-path="url(#p79686ef317)" style="fill: #0000ff"/>
    <path d="M 37.297475 196.272243 
L 31.629161 199.1064 
L 32.522729 199.776576 
L 27.38471 200.670145 
L 31.182376 197.095871 
L 31.182376 198.212831 
L 36.850691 195.378674 
L 37.297475 196.272243 
" clip-path="url(#p79686ef317)" style="fill: #0000ff"/>
    <path d="M 37.232045 180.465025 
L 31.807649 182.273157 
L 32.597459 183.062968 
L 27.38471 183.22093 
L 31.649687 180.21965 
L 31.491725 181.325385 
L 36.916121 179.517253 
L 37.232045 180.465025 
" clip-path="url(#p79686ef317)" style="fill: #0000ff"/>
    <path d="M 37.156203 164.649543 
L 31.901342 165.525353 
L 32.558307 166.42868 
L 27.38471 165.771715 
L 32.065583 163.472339 
L 31.737101 164.539906 
L 36.991962 163.664096 
L 37.156203 164.649543 
" clip-path="url(#p79686ef317)" style="fill: #0000ff"/>
    <path d="M 37.074083 148.82202 
L 31.88039 148.82202 
L 32.37991 149.82106 
L 27.38471 148.3225 
L 32.37991 146.82394 
L 31.88039 147.82298 
L 37.074083 147.82298 
L 37.074083 148.82202 
" clip-path="url(#p79686ef317)" style="fill: #0000ff"/>
    <path d="M 36.991962 132.980904 
L 31.737101 132.105094 
L 32.065583 133.172661 
L 27.38471 130.873285 
L 32.558307 130.21632 
L 31.901342 131.119647 
L 37.156203 131.995457 
L 36.991962 132.980904 
" clip-path="url(#p79686ef317)" style="fill: #0000ff"/>
    <path d="M 36.916121 117.127747 
L 31.491725 115.319615 
L 31.649687 116.42535 
L 27.38471 113.42407 
L 32.597459 113.582032 
L 31.807649 114.371843 
L 37.232045 116.179975 
L 36.916121 117.127747 
" clip-path="url(#p79686ef317)" style="fill: #0000ff"/>
    <path d="M 36.850691 101.266326 
L 31.182376 98.432169 
L 31.182376 99.549129 
L 27.38471 95.974855 
L 32.522729 96.868424 
L 31.629161 97.5386 
L 37.297475 100.372757 
L 36.850691 101.266326 
" clip-path="url(#p79686ef317)" style="fill: #0000ff"/>
    <path d="M 36.796999 85.400848 
L 30.848258 81.43502 
L 30.709716 82.543356 
L 27.38471 78.52564 
L 32.372219 80.049601 
L 31.402426 80.603769 
L 37.351167 84.569596 
L 36.796999 85.400848 
" clip-path="url(#p79686ef317)" style="fill: #0000ff"/>
    <path d="M 36.754298 69.534644 
L 30.518602 64.338231 
L 30.262774 65.4255 
L 27.38471 61.076425 
L 32.181484 63.123049 
L 31.158172 63.570747 
L 37.393868 68.76716 
L 36.754298 69.534644 
" clip-path="url(#p79686ef317)" style="fill: #0000ff"/>
    <path d="M 36.720869 53.669797 
L 30.210422 47.15935 
L 29.857208 48.218992 
L 27.38471 43.62721 
L 31.976492 46.099708 
L 30.91685 46.452922 
L 37.427297 52.963369 
L 36.720869 53.669797 
" clip-path="url(#p79686ef317)" style="fill: #0000ff"/>
    <path d="M 36.694819 37.807347 
L 29.931196 29.916453 
L 29.497752 30.945884 
L 27.38471 26.177995 
L 31.773335 28.995384 
L 30.689724 29.266287 
L 37.453347 37.15718 
L 36.694819 37.807347 
" clip-path="url(#p79686ef317)" style="fill: #0000ff"/>
    <path d="M 53.314879 259.453077 
L 47.853462 267.09906 
L 48.956755 267.273264 
L 44.833925 270.467005 
L 46.517898 265.531223 
L 47.04051 266.518379 
L 52.501926 258.872397 
L 53.314879 259.453077 
" clip-path="url(#p79686ef317)" style="fill: #0000ff"/>
    <path d="M 53.292144 243.648202 
L 48.095731 249.883898 
L 49.183 250.139726 
L 44.833925 253.01779 
L 46.880549 248.221016 
L 47.328247 249.244328 
L 52.52466 243.008632 
L 53.292144 243.648202 
" clip-path="url(#p79686ef317)" style="fill: #0000ff"/>
    <path d="M 53.261616 227.847312 
L 48.366065 232.742863 
L 49.425707 233.096077 
L 44.833925 235.568575 
L 47.306423 230.976793 
L 47.659637 232.036435 
L 52.555188 227.140884 
L 53.261616 227.847312 
" clip-path="url(#p79686ef317)" style="fill: #0000ff"/>
    <path d="M 53.22045 212.049838 
L 48.656509 215.70099 
L 49.670664 216.169062 
L 44.833925 218.11936 
L 47.798378 213.828704 
L 48.032414 214.920871 
L 52.596355 211.269719 
L 53.22045 212.049838 
" clip-path="url(#p79686ef317)" style="fill: #0000ff"/>
    <path d="M 53.165403 196.253793 
L 48.94594 198.785472 
L 49.888277 199.38514 
L 44.833925 200.670145 
L 48.346271 196.815131 
L 48.431938 197.928802 
L 52.651401 195.397124 
L 53.165403 196.253793 
" clip-path="url(#p79686ef317)" style="fill: #0000ff"/>
    <path d="M 53.093919 180.454932 
L 49.193576 182.015069 
L 50.028403 182.757137 
L 44.833925 183.22093 
L 48.915301 179.974381 
L 48.822542 181.087484 
L 52.722885 179.527346 
L 53.093919 180.454932 
" clip-path="url(#p79686ef317)" style="fill: #0000ff"/>
    <path d="M 53.006366 164.646639 
L 49.340266 165.379859 
L 50.026014 166.261535 
L 44.833925 165.771715 
L 49.43823 163.322617 
L 49.144338 164.40022 
L 52.810438 163.667 
L 53.006366 164.646639 
" clip-path="url(#p79686ef317)" style="fill: #0000ff"/>
    <path d="M 52.908402 148.82202 
L 49.329605 148.82202 
L 49.829125 149.82106 
L 44.833925 148.3225 
L 49.829125 146.82394 
L 49.329605 147.82298 
L 52.908402 147.82298 
L 52.908402 148.82202 
" clip-path="url(#p79686ef317)" style="fill: #0000ff"/>
    <path d="M 52.810438 132.978 
L 49.144338 132.24478 
L 49.43823 133.322383 
L 44.833925 130.873285 
L 50.026014 130.383465 
L 49.340266 131.265141 
L 53.006366 131.998361 
L 52.810438 132.978 
" clip-path="url(#p79686ef317)" style="fill: #0000ff"/>
    <path d="M 52.722885 117.117654 
L 48.822542 115.557516 
L 48.915301 116.670619 
L 44.833925 113.42407 
L 50.028403 113.887863 
L 49.193576 114.629931 
L 53.093919 116.190068 
L 52.722885 117.117654 
" clip-path="url(#p79686ef317)" style="fill: #0000ff"/>
    <path d="M 52.651401 101.247876 
L 48.431938 98.716198 
L 48.346271 99.829869 
L 44.833925 95.974855 
L 49.888277 97.25986 
L 48.94594 97.859528 
L 53.165403 100.391207 
L 52.651401 101.247876 
" clip-path="url(#p79686ef317)" style="fill: #0000ff"/>
    <path d="M 52.596355 85.375281 
L 48.032414 81.724129 
L 47.798378 82.816296 
L 44.833925 78.52564 
L 49.670664 80.475938 
L 48.656509 80.94401 
L 53.22045 84.595162 
L 52.596355 85.375281 
" clip-path="url(#p79686ef317)" style="fill: #0000ff"/>
    <path d="M 52.555188 69.504116 
L 47.659637 64.608565 
L 47.306423 65.668207 
L 44.833925 61.076425 
L 49.425707 63.548923 
L 48.366065 63.902137 
L 53.261616 68.797688 
L 52.555188 69.504116 
" clip-path="url(#p79686ef317)" style="fill: #0000ff"/>
    <path d="M 52.52466 53.636368 
L 47.328247 47.400672 
L 46.880549 48.423984 
L 44.833925 43.62721 
L 49.183 46.505274 
L 48.095731 46.761102 
L 53.292144 52.996798 
L 52.52466 53.636368 
" clip-path="url(#p79686ef317)" style="fill: #0000ff"/>
    <path d="M 52.501926 37.772603 
L 47.04051 30.126621 
L 46.517898 31.113777 
L 44.833925 26.177995 
L 48.956755 29.371736 
L 47.853462 29.54594 
L 53.314879 37.191923 
L 52.501926 37.772603 
" clip-path="url(#p79686ef317)" style="fill: #0000ff"/>
    <path d="M 69.176427 259.410568 
L 64.947327 266.811493 
L 66.062568 266.873451 
L 62.28314 270.467005 
L 63.460339 265.386463 
L 64.079917 266.31583 
L 68.309017 258.914905 
L 69.176427 259.410568 
" clip-path="url(#p79686ef317)" style="fill: #0000ff"/>
    <path d="M 69.158348 243.605501 
L 65.19252 249.554242 
L 66.300856 249.692784 
L 62.28314 253.01779 
L 63.807101 248.030281 
L 64.361269 249.000074 
L 68.327096 243.051333 
L 69.158348 243.605501 
" clip-path="url(#p79686ef317)" style="fill: #0000ff"/>
    <path d="M 69.132781 227.806145 
L 65.481629 232.370086 
L 66.573796 232.604122 
L 62.28314 235.568575 
L 64.233438 230.731836 
L 64.70151 231.745991 
L 68.352662 227.18205 
L 69.132781 227.806145 
" clip-path="url(#p79686ef317)" style="fill: #0000ff"/>
    <path d="M 69.095936 212.012992 
L 65.81528 215.293648 
L 66.874922 215.646862 
L 62.28314 218.11936 
L 64.755638 213.527578 
L 65.108852 214.58722 
L 68.389508 211.306564 
L 69.095936 212.012992 
" clip-path="url(#p79686ef317)" style="fill: #0000ff"/>
    <path d="M 69.042434 196.225075 
L 66.179396 198.372353 
L 67.178436 198.871873 
L 62.28314 200.670145 
L 65.380164 196.474177 
L 65.579972 197.573121 
L 68.44301 195.425843 
L 69.042434 196.225075 
" clip-path="url(#p79686ef317)" style="fill: #0000ff"/>
    <path d="M 68.966114 180.437923 
L 66.527591 181.657185 
L 67.421159 182.327361 
L 62.28314 183.22093 
L 66.080806 179.646656 
L 66.080806 180.763616 
L 68.51933 179.544355 
L 68.966114 180.437923 
" clip-path="url(#p79686ef317)" style="fill: #0000ff"/>
    <path d="M 68.863873 164.641425 
L 66.765742 165.165958 
L 67.49265 166.014018 
L 62.28314 165.771715 
L 66.765742 163.106384 
L 66.523439 164.196747 
L 68.62157 163.672214 
L 68.863873 164.641425 
" clip-path="url(#p79686ef317)" style="fill: #0000ff"/>
    <path d="M 68.742722 148.82202 
L 66.77882 148.82202 
L 67.27834 149.82106 
L 62.28314 148.3225 
L 67.27834 146.82394 
L 66.77882 147.82298 
L 68.742722 147.82298 
L 68.742722 148.82202 
" clip-path="url(#p79686ef317)" style="fill: #0000ff"/>
    <path d="M 68.62157 132.972786 
L 66.523439 132.448253 
L 66.765742 133.538616 
L 62.28314 130.873285 
L 67.49265 130.630982 
L 66.765742 131.479042 
L 68.863873 132.003575 
L 68.62157 132.972786 
" clip-path="url(#p79686ef317)" style="fill: #0000ff"/>
    <path d="M 68.51933 117.100645 
L 66.080806 115.881384 
L 66.080806 116.998344 
L 62.28314 113.42407 
L 67.421159 114.317639 
L 66.527591 114.987815 
L 68.966114 116.207077 
L 68.51933 117.100645 
" clip-path="url(#p79686ef317)" style="fill: #0000ff"/>
    <path d="M 68.44301 101.219157 
L 65.579972 99.071879 
L 65.380164 100.170823 
L 62.28314 95.974855 
L 67.178436 97.773127 
L 66.179396 98.272647 
L 69.042434 100.419925 
L 68.44301 101.219157 
" clip-path="url(#p79686ef317)" style="fill: #0000ff"/>
    <path d="M 68.389508 85.338436 
L 65.108852 82.05778 
L 64.755638 83.117422 
L 62.28314 78.52564 
L 66.874922 80.998138 
L 65.81528 81.351352 
L 69.095936 84.632008 
L 68.389508 85.338436 
" clip-path="url(#p79686ef317)" style="fill: #0000ff"/>
    <path d="M 68.352662 69.46295 
L 64.70151 64.899009 
L 64.233438 65.913164 
L 62.28314 61.076425 
L 66.573796 64.040878 
L 65.481629 64.274914 
L 69.132781 68.838855 
L 68.352662 69.46295 
" clip-path="url(#p79686ef317)" style="fill: #0000ff"/>
    <path d="M 68.327096 53.593667 
L 64.361269 47.644926 
L 63.807101 48.614719 
L 62.28314 43.62721 
L 66.300856 46.952216 
L 65.19252 47.090758 
L 69.158348 53.039499 
L 68.327096 53.593667 
" clip-path="url(#p79686ef317)" style="fill: #0000ff"/>
    <path d="M 68.309017 37.730095 
L 64.079917 30.32917 
L 63.460339 31.258537 
L 62.28314 26.177995 
L 66.062568 29.771549 
L 64.947327 29.833507 
L 69.176427 37.234432 
L 68.309017 37.730095 
" clip-path="url(#p79686ef317)" style="fill: #0000ff"/>
    <path d="M 85.036173 259.359507 
L 81.962422 266.531593 
L 83.077455 266.466003 
L 79.732355 270.467005 
L 80.322667 265.28538 
L 81.044159 266.138052 
L 84.11791 258.965966 
L 85.036173 259.359507 
" clip-path="url(#p79686ef317)" style="fill: #0000ff"/>
    <path d="M 85.023826 243.551809 
L 82.189669 249.220124 
L 83.306629 249.220124 
L 79.732355 253.01779 
L 80.625924 247.879771 
L 81.2961 248.773339 
L 84.130257 243.105025 
L 85.023826 243.551809 
" clip-path="url(#p79686ef317)" style="fill: #0000ff"/>
    <path d="M 85.005376 227.751099 
L 82.473698 231.970562 
L 83.587369 232.056229 
L 79.732355 235.568575 
L 81.01736 230.514223 
L 81.617028 231.45656 
L 84.148707 227.237097 
L 85.005376 227.751099 
" clip-path="url(#p79686ef317)" style="fill: #0000ff"/>
    <path d="M 84.976657 211.95949 
L 82.829379 214.822528 
L 83.928323 215.022336 
L 79.732355 218.11936 
L 81.530627 213.224064 
L 82.030147 214.223104 
L 84.177425 211.360066 
L 84.976657 211.95949 
" clip-path="url(#p79686ef317)" style="fill: #0000ff"/>
    <path d="M 84.930255 196.178673 
L 83.264495 197.844433 
L 84.324137 198.197647 
L 79.732355 200.670145 
L 82.204853 196.078363 
L 82.558067 197.138005 
L 84.223827 195.472245 
L 84.930255 196.178673 
" clip-path="url(#p79686ef317)" style="fill: #0000ff"/>
    <path d="M 84.854125 180.406765 
L 83.750071 181.142801 
L 84.719864 181.696969 
L 79.732355 183.22093 
L 83.057361 179.203214 
L 83.195903 180.31155 
L 84.299958 179.575513 
L 84.854125 180.406765 
" clip-path="url(#p79686ef317)" style="fill: #0000ff"/>
    <path d="M 84.735004 164.630706 
L 84.155294 164.823942 
L 84.945104 165.613753 
L 79.732355 165.771715 
L 83.997332 162.770435 
L 83.83937 163.87617 
L 84.419079 163.682933 
L 84.735004 164.630706 
" clip-path="url(#p79686ef317)" style="fill: #0000ff"/>
    <path d="M 84.577041 148.806969 
L 84.092573 148.806969 
L 84.577041 149.775906 
L 79.732355 148.3225 
L 84.577041 146.869094 
L 84.092573 147.838031 
L 84.577041 147.838031 
L 84.577041 148.806969 
" clip-path="url(#p79686ef317)" style="fill: #0000ff"/>
    <path d="M 84.419079 132.962067 
L 83.83937 132.76883 
L 83.997332 133.874565 
L 79.732355 130.873285 
L 84.945104 131.031247 
L 84.155294 131.821058 
L 84.735004 132.014294 
L 84.419079 132.962067 
" clip-path="url(#p79686ef317)" style="fill: #0000ff"/>
    <path d="M 84.299958 117.069487 
L 83.195903 116.33345 
L 83.057361 117.441786 
L 79.732355 113.42407 
L 84.719864 114.948031 
L 83.750071 115.502199 
L 84.854125 116.238235 
L 84.299958 117.069487 
" clip-path="url(#p79686ef317)" style="fill: #0000ff"/>
    <path d="M 84.223827 101.172755 
L 82.558067 99.506995 
L 82.204853 100.566637 
L 79.732355 95.974855 
L 84.324137 98.447353 
L 83.264495 98.800567 
L 84.930255 100.466327 
L 84.223827 101.172755 
" clip-path="url(#p79686ef317)" style="fill: #0000ff"/>
    <path d="M 84.177425 85.284934 
L 82.030147 82.421896 
L 81.530627 83.420936 
L 79.732355 78.52564 
L 83.928323 81.622664 
L 82.829379 81.822472 
L 84.976657 84.68551 
L 84.177425 85.284934 
" clip-path="url(#p79686ef317)" style="fill: #0000ff"/>
    <path d="M 84.148707 69.407903 
L 81.617028 65.18844 
L 81.01736 66.130777 
L 79.732355 61.076425 
L 83.587369 64.588771 
L 82.473698 64.674438 
L 85.005376 68.893901 
L 84.148707 69.407903 
" clip-path="url(#p79686ef317)" style="fill: #0000ff"/>
    <path d="M 84.130257 53.539975 
L 81.2961 47.871661 
L 80.625924 48.765229 
L 79.732355 43.62721 
L 83.306629 47.424876 
L 82.189669 47.424876 
L 85.023826 53.093191 
L 84.130257 53.539975 
" clip-path="url(#p79686ef317)" style="fill: #0000ff"/>
    <path d="M 84.11791 37.679034 
L 81.044159 30.506948 
L 80.322667 31.35962 
L 79.732355 26.177995 
L 83.077455 30.178997 
L 81.962422 30.113407 
L 85.036173 37.285493 
L 84.11791 37.679034 
" clip-path="url(#p79686ef317)" style="fill: #0000ff"/>
    <path d="M 100.891661 259.299965 
L 98.896929 266.28153 
L 99.994758 266.075686 
L 97.18157 270.467005 
L 97.112956 265.252314 
L 97.936328 266.007072 
L 99.931061 259.025508 
L 100.891661 259.299965 
" clip-path="url(#p79686ef317)" style="fill: #0000ff"/>
    <path d="M 100.885247 243.486379 
L 99.077115 248.910775 
L 100.18285 248.752813 
L 97.18157 253.01779 
L 97.339532 247.805041 
L 98.129343 248.594851 
L 99.937475 243.170455 
L 100.885247 243.486379 
" clip-path="url(#p79686ef317)" style="fill: #0000ff"/>
    <path d="M 100.875154 227.679615 
L 99.315016 231.579958 
L 100.428119 231.487199 
L 97.18157 235.568575 
L 97.645363 230.374097 
L 98.387431 231.208924 
L 99.947568 227.308581 
L 100.875154 227.679615 
" clip-path="url(#p79686ef317)" style="fill: #0000ff"/>
    <path d="M 100.858145 211.88317 
L 99.638884 214.321694 
L 100.755844 214.321694 
L 97.18157 218.11936 
L 98.075139 212.981341 
L 98.745315 213.874909 
L 99.964577 211.436386 
L 100.858145 211.88317 
" clip-path="url(#p79686ef317)" style="fill: #0000ff"/>
    <path d="M 100.826987 196.102542 
L 100.09095 197.206597 
L 101.199286 197.345139 
L 97.18157 200.670145 
L 98.705531 195.682636 
L 99.259699 196.652429 
L 99.995735 195.548375 
L 100.826987 196.102542 
" clip-path="url(#p79686ef317)" style="fill: #0000ff"/>
    <path d="M 100.73434 180.314118 
L 100.411361 180.637097 
L 101.380298 180.960076 
L 97.18157 183.22093 
L 99.442424 179.022202 
L 99.765403 179.991139 
L 100.088382 179.66816 
L 100.73434 180.314118 
" clip-path="url(#p79686ef317)" style="fill: #0000ff"/>
    <path d="M 100.57285 164.479799 
L 100.249871 164.641288 
L 100.89583 165.125757 
L 97.18157 165.771715 
L 99.926892 163.187882 
L 99.926892 163.99533 
L 100.249871 163.83384 
L 100.57285 164.479799 
" clip-path="url(#p79686ef317)" style="fill: #0000ff"/>
    <path d="M 100.411361 148.645479 
L 100.088382 148.645479 
L 100.411361 149.291437 
L 97.18157 148.3225 
L 100.411361 147.353563 
L 100.088382 147.999521 
L 100.411361 147.999521 
L 100.411361 148.645479 
" clip-path="url(#p79686ef317)" style="fill: #0000ff"/>
    <path d="M 100.249871 132.81116 
L 99.926892 132.64967 
L 99.926892 133.457118 
L 97.18157 130.873285 
L 100.89583 131.519243 
L 100.249871 132.003712 
L 100.57285 132.165201 
L 100.249871 132.81116 
" clip-path="url(#p79686ef317)" style="fill: #0000ff"/>
    <path d="M 100.088382 116.97684 
L 99.765403 116.653861 
L 99.442424 117.622798 
L 97.18157 113.42407 
L 101.380298 115.684924 
L 100.411361 116.007903 
L 100.73434 116.330882 
L 100.088382 116.97684 
" clip-path="url(#p79686ef317)" style="fill: #0000ff"/>
    <path d="M 99.995735 101.096625 
L 99.259699 99.992571 
L 98.705531 100.962364 
L 97.18157 95.974855 
L 101.199286 99.299861 
L 100.09095 99.438403 
L 100.826987 100.542458 
L 99.995735 101.096625 
" clip-path="url(#p79686ef317)" style="fill: #0000ff"/>
    <path d="M 99.964577 85.208614 
L 98.745315 82.770091 
L 98.075139 83.663659 
L 97.18157 78.52564 
L 100.755844 82.323306 
L 99.638884 82.323306 
L 100.858145 84.76183 
L 99.964577 85.208614 
" clip-path="url(#p79686ef317)" style="fill: #0000ff"/>
    <path d="M 99.947568 69.336419 
L 98.387431 65.436076 
L 97.645363 66.270903 
L 97.18157 61.076425 
L 100.428119 65.157801 
L 99.315016 65.065042 
L 100.875154 68.965385 
L 99.947568 69.336419 
" clip-path="url(#p79686ef317)" style="fill: #0000ff"/>
    <path d="M 99.937475 53.474545 
L 98.129343 48.050149 
L 97.339532 48.839959 
L 97.18157 43.62721 
L 100.18285 47.892187 
L 99.077115 47.734225 
L 100.885247 53.158621 
L 99.937475 53.474545 
" clip-path="url(#p79686ef317)" style="fill: #0000ff"/>
    <path d="M 99.931061 37.619492 
L 97.936328 30.637928 
L 97.112956 31.392686 
L 97.18157 26.177995 
L 99.994758 30.569314 
L 98.896929 30.36347 
L 100.891661 37.345035 
L 99.931061 37.619492 
" clip-path="url(#p79686ef317)" style="fill: #0000ff"/>
    <path d="M 116.74018 259.233379 
L 115.76107 266.087151 
L 116.820712 265.733937 
L 114.630785 270.467005 
L 113.853714 265.310081 
L 114.772071 265.945866 
L 115.751181 259.092094 
L 116.74018 259.233379 
" clip-path="url(#p79686ef317)" style="fill: #0000ff"/>
    <path d="M 116.738404 243.410538 
L 115.862594 248.665399 
L 116.930161 248.336917 
L 114.630785 253.01779 
L 113.97382 247.844193 
L 114.877147 248.501158 
L 115.752957 243.246297 
L 116.738404 243.410538 
" clip-path="url(#p79686ef317)" style="fill: #0000ff"/>
    <path d="M 116.7355 227.592062 
L 116.00228 231.258162 
L 117.079883 230.96427 
L 114.630785 235.568575 
L 114.140965 230.376486 
L 115.022641 231.062234 
L 115.755861 227.396134 
L 116.7355 227.592062 
" clip-path="url(#p79686ef317)" style="fill: #0000ff"/>
    <path d="M 116.730286 211.78093 
L 116.205753 213.879061 
L 117.296116 213.636758 
L 114.630785 218.11936 
L 114.388482 212.90985 
L 115.236542 213.636758 
L 115.761075 211.538627 
L 116.730286 211.78093 
" clip-path="url(#p79686ef317)" style="fill: #0000ff"/>
    <path d="M 116.719567 195.983421 
L 116.52633 196.56313 
L 117.632065 196.405168 
L 114.630785 200.670145 
L 114.788747 195.457396 
L 115.578558 196.247206 
L 115.771794 195.667496 
L 116.719567 195.983421 
" clip-path="url(#p79686ef317)" style="fill: #0000ff"/>
    <path d="M 116.56866 180.152629 
L 116.40717 180.475608 
L 117.214618 180.475608 
L 114.630785 183.22093 
L 115.276743 179.50667 
L 115.761212 180.152629 
L 115.922701 179.82965 
L 116.56866 180.152629 
" clip-path="url(#p79686ef317)" style="fill: #0000ff"/>
    <path d="M 116.40717 164.318309 
L 116.24568 164.479799 
L 116.730149 164.641288 
L 114.630785 165.771715 
L 115.761212 163.672351 
L 115.922701 164.15682 
L 116.084191 163.99533 
L 116.40717 164.318309 
" clip-path="url(#p79686ef317)" style="fill: #0000ff"/>
    <path d="M 116.24568 148.48399 
L 116.084191 148.48399 
L 116.24568 148.806969 
L 114.630785 148.3225 
L 116.24568 147.838031 
L 116.084191 148.16101 
L 116.24568 148.16101 
L 116.24568 148.48399 
" clip-path="url(#p79686ef317)" style="fill: #0000ff"/>
    <path d="M 116.084191 132.64967 
L 115.922701 132.48818 
L 115.761212 132.972649 
L 114.630785 130.873285 
L 116.730149 132.003712 
L 116.24568 132.165201 
L 116.40717 132.326691 
L 116.084191 132.64967 
" clip-path="url(#p79686ef317)" style="fill: #0000ff"/>
    <path d="M 115.922701 116.81535 
L 115.761212 116.492371 
L 115.276743 117.13833 
L 114.630785 113.42407 
L 117.214618 116.169392 
L 116.40717 116.169392 
L 116.56866 116.492371 
L 115.922701 116.81535 
" clip-path="url(#p79686ef317)" style="fill: #0000ff"/>
    <path d="M 115.771794 100.977504 
L 115.578558 100.397794 
L 114.788747 101.187604 
L 114.630785 95.974855 
L 117.632065 100.239832 
L 116.52633 100.08187 
L 116.719567 100.661579 
L 115.771794 100.977504 
" clip-path="url(#p79686ef317)" style="fill: #0000ff"/>
    <path d="M 115.761075 85.106373 
L 115.236542 83.008242 
L 114.388482 83.73515 
L 114.630785 78.52564 
L 117.296116 83.008242 
L 116.205753 82.765939 
L 116.730286 84.86407 
L 115.761075 85.106373 
" clip-path="url(#p79686ef317)" style="fill: #0000ff"/>
    <path d="M 115.755861 69.248866 
L 115.022641 65.582766 
L 114.140965 66.268514 
L 114.630785 61.076425 
L 117.079883 65.68073 
L 116.00228 65.386838 
L 116.7355 69.052938 
L 115.755861 69.248866 
" clip-path="url(#p79686ef317)" style="fill: #0000ff"/>
    <path d="M 115.752957 53.398703 
L 114.877147 48.143842 
L 113.97382 48.800807 
L 114.630785 43.62721 
L 116.930161 48.308083 
L 115.862594 47.979601 
L 116.738404 53.234462 
L 115.752957 53.398703 
" clip-path="url(#p79686ef317)" style="fill: #0000ff"/>
    <path d="M 115.751181 37.552906 
L 114.772071 30.699134 
L 113.853714 31.334919 
L 114.630785 26.177995 
L 116.820712 30.911063 
L 115.76107 30.557849 
L 116.74018 37.411621 
L 115.751181 37.552906 
" clip-path="url(#p79686ef317)" style="fill: #0000ff"/>
    <path d="M 132.57952 259.162737 
L 132.57952 265.971325 
L 133.57856 265.471805 
L 132.08 270.467005 
L 130.58144 265.471805 
L 131.58048 265.971325 
L 131.58048 259.162737 
L 132.57952 259.162737 
" clip-path="url(#p79686ef317)" style="fill: #0000ff"/>
    <path d="M 132.57952 243.328417 
L 132.57952 248.52211 
L 133.57856 248.02259 
L 132.08 253.01779 
L 130.58144 248.02259 
L 131.58048 248.52211 
L 131.58048 243.328417 
L 132.57952 243.328417 
" clip-path="url(#p79686ef317)" style="fill: #0000ff"/>
    <path d="M 132.57952 227.494098 
L 132.57952 231.072895 
L 133.57856 230.573375 
L 132.08 235.568575 
L 130.58144 230.573375 
L 131.58048 231.072895 
L 131.58048 227.494098 
L 132.57952 227.494098 
" clip-path="url(#p79686ef317)" style="fill: #0000ff"/>
    <path d="M 132.57952 211.659778 
L 132.57952 213.62368 
L 133.57856 213.12416 
L 132.08 218.11936 
L 130.58144 213.12416 
L 131.58048 213.62368 
L 131.58048 211.659778 
L 132.57952 211.659778 
" clip-path="url(#p79686ef317)" style="fill: #0000ff"/>
    <path d="M 132.564469 195.825459 
L 132.564469 196.309927 
L 133.533406 195.825459 
L 132.08 200.670145 
L 130.626594 195.825459 
L 131.595531 196.309927 
L 131.595531 195.825459 
L 132.564469 195.825459 
" clip-path="url(#p79686ef317)" style="fill: #0000ff"/>
    <path d="M 132.402979 179.991139 
L 132.402979 180.314118 
L 133.048937 179.991139 
L 132.08 183.22093 
L 131.111063 179.991139 
L 131.757021 180.314118 
L 131.757021 179.991139 
L 132.402979 179.991139 
" clip-path="url(#p79686ef317)" style="fill: #0000ff"/>
    <path d="M 132.24149 164.15682 
L 132.24149 164.318309 
L 132.564469 164.15682 
L 132.08 165.771715 
L 131.595531 164.15682 
L 131.91851 164.318309 
L 131.91851 164.15682 
L 132.24149 164.15682 
" clip-path="url(#p79686ef317)" style="fill: #0000ff"/>
    <path d="M 132.57952 148.3225 
L 132.32976 147.889903 
L 131.83024 147.889903 
L 131.58048 148.3225 
L 131.83024 148.755097 
L 132.32976 148.755097 
L 132.57952 148.3225 
L 132.32976 147.889903 
" clip-path="url(#p79686ef317)" style="fill: #0000ff"/>
    <path d="M 131.91851 132.48818 
L 131.91851 132.326691 
L 131.595531 132.48818 
L 132.08 130.873285 
L 132.564469 132.48818 
L 132.24149 132.326691 
L 132.24149 132.48818 
L 131.91851 132.48818 
" clip-path="url(#p79686ef317)" style="fill: #0000ff"/>
    <path d="M 131.757021 116.653861 
L 131.757021 116.330882 
L 131.111063 116.653861 
L 132.08 113.42407 
L 133.048937 116.653861 
L 132.402979 116.330882 
L 132.402979 116.653861 
L 131.757021 116.653861 
" clip-path="url(#p79686ef317)" style="fill: #0000ff"/>
    <path d="M 131.595531 100.819541 
L 131.595531 100.335073 
L 130.626594 100.819541 
L 132.08 95.974855 
L 133.533406 100.819541 
L 132.564469 100.335073 
L 132.564469 100.819541 
L 131.595531 100.819541 
" clip-path="url(#p79686ef317)" style="fill: #0000ff"/>
    <path d="M 131.58048 84.985222 
L 131.58048 83.02132 
L 130.58144 83.52084 
L 132.08 78.52564 
L 133.57856 83.52084 
L 132.57952 83.02132 
L 132.57952 84.985222 
L 131.58048 84.985222 
" clip-path="url(#p79686ef317)" style="fill: #0000ff"/>
    <path d="M 131.58048 69.150902 
L 131.58048 65.572105 
L 130.58144 66.071625 
L 132.08 61.076425 
L 133.57856 66.071625 
L 132.57952 65.572105 
L 132.57952 69.150902 
L 131.58048 69.150902 
" clip-path="url(#p79686ef317)" style="fill: #0000ff"/>
    <path d="M 131.58048 53.316583 
L 131.58048 48.12289 
L 130.58144 48.62241 
L 132.08 43.62721 
L 133.57856 48.62241 
L 132.57952 48.12289 
L 132.57952 53.316583 
L 131.58048 53.316583 
" clip-path="url(#p79686ef317)" style="fill: #0000ff"/>
    <path d="M 131.58048 37.482263 
L 131.58048 30.673675 
L 130.58144 31.173195 
L 132.08 26.177995 
L 133.57856 31.173195 
L 132.57952 30.673675 
L 132.57952 37.482263 
L 131.58048 37.482263 
" clip-path="url(#p79686ef317)" style="fill: #0000ff"/>
    <path d="M 148.408819 259.092094 
L 149.387929 265.945866 
L 150.306286 265.310081 
L 149.529215 270.467005 
L 147.339288 265.733937 
L 148.39893 266.087151 
L 147.41982 259.233379 
L 148.408819 259.092094 
" clip-path="url(#p79686ef317)" style="fill: #0000ff"/>
    <path d="M 148.407043 243.246297 
L 149.282853 248.501158 
L 150.18618 247.844193 
L 149.529215 253.01779 
L 147.229839 248.336917 
L 148.297406 248.665399 
L 147.421596 243.410538 
L 148.407043 243.246297 
" clip-path="url(#p79686ef317)" style="fill: #0000ff"/>
    <path d="M 148.404139 227.396134 
L 149.137359 231.062234 
L 150.019035 230.376486 
L 149.529215 235.568575 
L 147.080117 230.96427 
L 148.15772 231.258162 
L 147.4245 227.592062 
L 148.404139 227.396134 
" clip-path="url(#p79686ef317)" style="fill: #0000ff"/>
    <path d="M 148.398925 211.538627 
L 148.923458 213.636758 
L 149.771518 212.90985 
L 149.529215 218.11936 
L 146.863884 213.636758 
L 147.954247 213.879061 
L 147.429714 211.78093 
L 148.398925 211.538627 
" clip-path="url(#p79686ef317)" style="fill: #0000ff"/>
    <path d="M 148.388206 195.667496 
L 148.581442 196.247206 
L 149.371253 195.457396 
L 149.529215 200.670145 
L 146.527935 196.405168 
L 147.63367 196.56313 
L 147.440433 195.983421 
L 148.388206 195.667496 
" clip-path="url(#p79686ef317)" style="fill: #0000ff"/>
    <path d="M 148.237299 179.82965 
L 148.398788 180.152629 
L 148.883257 179.50667 
L 149.529215 183.22093 
L 146.945382 180.475608 
L 147.75283 180.475608 
L 147.59134 180.152629 
L 148.237299 179.82965 
" clip-path="url(#p79686ef317)" style="fill: #0000ff"/>
    <path d="M 148.075809 163.99533 
L 148.237299 164.15682 
L 148.398788 163.672351 
L 149.529215 165.771715 
L 147.429851 164.641288 
L 147.91432 164.479799 
L 147.75283 164.318309 
L 148.075809 163.99533 
" clip-path="url(#p79686ef317)" style="fill: #0000ff"/>
    <path d="M 147.91432 148.16101 
L 148.075809 148.16101 
L 147.91432 147.838031 
L 149.529215 148.3225 
L 147.91432 148.806969 
L 148.075809 148.48399 
L 147.91432 148.48399 
L 147.91432 148.16101 
" clip-path="url(#p79686ef317)" style="fill: #0000ff"/>
    <path d="M 147.75283 132.326691 
L 147.91432 132.165201 
L 147.429851 132.003712 
L 149.529215 130.873285 
L 148.398788 132.972649 
L 148.237299 132.48818 
L 148.075809 132.64967 
L 147.75283 132.326691 
" clip-path="url(#p79686ef317)" style="fill: #0000ff"/>
    <path d="M 147.59134 116.492371 
L 147.75283 116.169392 
L 146.945382 116.169392 
L 149.529215 113.42407 
L 148.883257 117.13833 
L 148.398788 116.492371 
L 148.237299 116.81535 
L 147.59134 116.492371 
" clip-path="url(#p79686ef317)" style="fill: #0000ff"/>
    <path d="M 147.440433 100.661579 
L 147.63367 100.08187 
L 146.527935 100.239832 
L 149.529215 95.974855 
L 149.371253 101.187604 
L 148.581442 100.397794 
L 148.388206 100.977504 
L 147.440433 100.661579 
" clip-path="url(#p79686ef317)" style="fill: #0000ff"/>
    <path d="M 147.429714 84.86407 
L 147.954247 82.765939 
L 146.863884 83.008242 
L 149.529215 78.52564 
L 149.771518 83.73515 
L 148.923458 83.008242 
L 148.398925 85.106373 
L 147.429714 84.86407 
" clip-path="url(#p79686ef317)" style="fill: #0000ff"/>
    <path d="M 147.4245 69.052938 
L 148.15772 65.386838 
L 147.080117 65.68073 
L 149.529215 61.076425 
L 150.019035 66.268514 
L 149.137359 65.582766 
L 148.404139 69.248866 
L 147.4245 69.052938 
" clip-path="url(#p79686ef317)" style="fill: #0000ff"/>
    <path d="M 147.421596 53.234462 
L 148.297406 47.979601 
L 147.229839 48.308083 
L 149.529215 43.62721 
L 150.18618 48.800807 
L 149.282853 48.143842 
L 148.407043 53.398703 
L 147.421596 53.234462 
" clip-path="url(#p79686ef317)" style="fill: #0000ff"/>
    <path d="M 147.41982 37.411621 
L 148.39893 30.557849 
L 147.339288 30.911063 
L 149.529215 26.177995 
L 150.306286 31.334919 
L 149.387929 30.699134 
L 148.408819 37.552906 
L 147.41982 37.411621 
" clip-path="url(#p79686ef317)" style="fill: #0000ff"/>
    <path d="M 164.228939 259.025508 
L 166.223672 266.007072 
L 167.047044 265.252314 
L 166.97843 270.467005 
L 164.165242 266.075686 
L 165.263071 266.28153 
L 163.268339 259.299965 
L 164.228939 259.025508 
" clip-path="url(#p79686ef317)" style="fill: #0000ff"/>
    <path d="M 164.222525 243.170455 
L 166.030657 248.594851 
L 166.820468 247.805041 
L 166.97843 253.01779 
L 163.97715 248.752813 
L 165.082885 248.910775 
L 163.274753 243.486379 
L 164.222525 243.170455 
" clip-path="url(#p79686ef317)" style="fill: #0000ff"/>
    <path d="M 164.212432 227.308581 
L 165.772569 231.208924 
L 166.514637 230.374097 
L 166.97843 235.568575 
L 163.731881 231.487199 
L 164.844984 231.579958 
L 163.284846 227.679615 
L 164.212432 227.308581 
" clip-path="url(#p79686ef317)" style="fill: #0000ff"/>
    <path d="M 164.195423 211.436386 
L 165.414685 213.874909 
L 166.084861 212.981341 
L 166.97843 218.11936 
L 163.404156 214.321694 
L 164.521116 214.321694 
L 163.301855 211.88317 
L 164.195423 211.436386 
" clip-path="url(#p79686ef317)" style="fill: #0000ff"/>
    <path d="M 164.164265 195.548375 
L 164.900301 196.652429 
L 165.454469 195.682636 
L 166.97843 200.670145 
L 162.960714 197.345139 
L 164.06905 197.206597 
L 163.333013 196.102542 
L 164.164265 195.548375 
" clip-path="url(#p79686ef317)" style="fill: #0000ff"/>
    <path d="M 164.071618 179.66816 
L 164.394597 179.991139 
L 164.717576 179.022202 
L 166.97843 183.22093 
L 162.779702 180.960076 
L 163.748639 180.637097 
L 163.42566 180.314118 
L 164.071618 179.66816 
" clip-path="url(#p79686ef317)" style="fill: #0000ff"/>
    <path d="M 163.910129 163.83384 
L 164.233108 163.99533 
L 164.233108 163.187882 
L 166.97843 165.771715 
L 163.26417 165.125757 
L 163.910129 164.641288 
L 163.58715 164.479799 
L 163.910129 163.83384 
" clip-path="url(#p79686ef317)" style="fill: #0000ff"/>
    <path d="M 163.748639 147.999521 
L 164.071618 147.999521 
L 163.748639 147.353563 
L 166.97843 148.3225 
L 163.748639 149.291437 
L 164.071618 148.645479 
L 163.748639 148.645479 
L 163.748639 147.999521 
" clip-path="url(#p79686ef317)" style="fill: #0000ff"/>
    <path d="M 163.58715 132.165201 
L 163.910129 132.003712 
L 163.26417 131.519243 
L 166.97843 130.873285 
L 164.233108 133.457118 
L 164.233108 132.64967 
L 163.910129 132.81116 
L 163.58715 132.165201 
" clip-path="url(#p79686ef317)" style="fill: #0000ff"/>
    <path d="M 163.42566 116.330882 
L 163.748639 116.007903 
L 162.779702 115.684924 
L 166.97843 113.42407 
L 164.717576 117.622798 
L 164.394597 116.653861 
L 164.071618 116.97684 
L 163.42566 116.330882 
" clip-path="url(#p79686ef317)" style="fill: #0000ff"/>
    <path d="M 163.333013 100.542458 
L 164.06905 99.438403 
L 162.960714 99.299861 
L 166.97843 95.974855 
L 165.454469 100.962364 
L 164.900301 99.992571 
L 164.164265 101.096625 
L 163.333013 100.542458 
" clip-path="url(#p79686ef317)" style="fill: #0000ff"/>
    <path d="M 163.301855 84.76183 
L 164.521116 82.323306 
L 163.404156 82.323306 
L 166.97843 78.52564 
L 166.084861 83.663659 
L 165.414685 82.770091 
L 164.195423 85.208614 
L 163.301855 84.76183 
" clip-path="url(#p79686ef317)" style="fill: #0000ff"/>
    <path d="M 163.284846 68.965385 
L 164.844984 65.065042 
L 163.731881 65.157801 
L 166.97843 61.076425 
L 166.514637 66.270903 
L 165.772569 65.436076 
L 164.212432 69.336419 
L 163.284846 68.965385 
" clip-path="url(#p79686ef317)" style="fill: #0000ff"/>
    <path d="M 163.274753 53.158621 
L 165.082885 47.734225 
L 163.97715 47.892187 
L 166.97843 43.62721 
L 166.820468 48.839959 
L 166.030657 48.050149 
L 164.222525 53.474545 
L 163.274753 53.158621 
" clip-path="url(#p79686ef317)" style="fill: #0000ff"/>
    <path d="M 163.268339 37.345035 
L 165.263071 30.36347 
L 164.165242 30.569314 
L 166.97843 26.177995 
L 167.047044 31.392686 
L 166.223672 30.637928 
L 164.228939 37.619492 
L 163.268339 37.345035 
" clip-path="url(#p79686ef317)" style="fill: #0000ff"/>
    <path d="M 180.04209 258.965966 
L 183.115841 266.138052 
L 183.837333 265.28538 
L 184.427645 270.467005 
L 181.082545 266.466003 
L 182.197578 266.531593 
L 179.123827 259.359507 
L 180.04209 258.965966 
" clip-path="url(#p79686ef317)" style="fill: #0000ff"/>
    <path d="M 180.029743 243.105025 
L 182.8639 248.773339 
L 183.534076 247.879771 
L 184.427645 253.01779 
L 180.853371 249.220124 
L 181.970331 249.220124 
L 179.136174 243.551809 
L 180.029743 243.105025 
" clip-path="url(#p79686ef317)" style="fill: #0000ff"/>
    <path d="M 180.011293 227.237097 
L 182.542972 231.45656 
L 183.14264 230.514223 
L 184.427645 235.568575 
L 180.572631 232.056229 
L 181.686302 231.970562 
L 179.154624 227.751099 
L 180.011293 227.237097 
" clip-path="url(#p79686ef317)" style="fill: #0000ff"/>
    <path d="M 179.982575 211.360066 
L 182.129853 214.223104 
L 182.629373 213.224064 
L 184.427645 218.11936 
L 180.231677 215.022336 
L 181.330621 214.822528 
L 179.183343 211.95949 
L 179.982575 211.360066 
" clip-path="url(#p79686ef317)" style="fill: #0000ff"/>
    <path d="M 179.936173 195.472245 
L 181.601933 197.138005 
L 181.955147 196.078363 
L 184.427645 200.670145 
L 179.835863 198.197647 
L 180.895505 197.844433 
L 179.229745 196.178673 
L 179.936173 195.472245 
" clip-path="url(#p79686ef317)" style="fill: #0000ff"/>
    <path d="M 179.860042 179.575513 
L 180.964097 180.31155 
L 181.102639 179.203214 
L 184.427645 183.22093 
L 179.440136 181.696969 
L 180.409929 181.142801 
L 179.305875 180.406765 
L 179.860042 179.575513 
" clip-path="url(#p79686ef317)" style="fill: #0000ff"/>
    <path d="M 179.740921 163.682933 
L 180.32063 163.87617 
L 180.162668 162.770435 
L 184.427645 165.771715 
L 179.214896 165.613753 
L 180.004706 164.823942 
L 179.424996 164.630706 
L 179.740921 163.682933 
" clip-path="url(#p79686ef317)" style="fill: #0000ff"/>
    <path d="M 179.582959 147.838031 
L 180.067427 147.838031 
L 179.582959 146.869094 
L 184.427645 148.3225 
L 179.582959 149.775906 
L 180.067427 148.806969 
L 179.582959 148.806969 
L 179.582959 147.838031 
" clip-path="url(#p79686ef317)" style="fill: #0000ff"/>
    <path d="M 179.424996 132.014294 
L 180.004706 131.821058 
L 179.214896 131.031247 
L 184.427645 130.873285 
L 180.162668 133.874565 
L 180.32063 132.76883 
L 179.740921 132.962067 
L 179.424996 132.014294 
" clip-path="url(#p79686ef317)" style="fill: #0000ff"/>
    <path d="M 179.305875 116.238235 
L 180.409929 115.502199 
L 179.440136 114.948031 
L 184.427645 113.42407 
L 181.102639 117.441786 
L 180.964097 116.33345 
L 179.860042 117.069487 
L 179.305875 116.238235 
" clip-path="url(#p79686ef317)" style="fill: #0000ff"/>
    <path d="M 179.229745 100.466327 
L 180.895505 98.800567 
L 179.835863 98.447353 
L 184.427645 95.974855 
L 181.955147 100.566637 
L 181.601933 99.506995 
L 179.936173 101.172755 
L 179.229745 100.466327 
" clip-path="url(#p79686ef317)" style="fill: #0000ff"/>
    <path d="M 179.183343 84.68551 
L 181.330621 81.822472 
L 180.231677 81.622664 
L 184.427645 78.52564 
L 182.629373 83.420936 
L 182.129853 82.421896 
L 179.982575 85.284934 
L 179.183343 84.68551 
" clip-path="url(#p79686ef317)" style="fill: #0000ff"/>
    <path d="M 179.154624 68.893901 
L 181.686302 64.674438 
L 180.572631 64.588771 
L 184.427645 61.076425 
L 183.14264 66.130777 
L 182.542972 65.18844 
L 180.011293 69.407903 
L 179.154624 68.893901 
" clip-path="url(#p79686ef317)" style="fill: #0000ff"/>
    <path d="M 179.136174 53.093191 
L 181.970331 47.424876 
L 180.853371 47.424876 
L 184.427645 43.62721 
L 183.534076 48.765229 
L 182.8639 47.871661 
L 180.029743 53.539975 
L 179.136174 53.093191 
" clip-path="url(#p79686ef317)" style="fill: #0000ff"/>
    <path d="M 179.123827 37.285493 
L 182.197578 30.113407 
L 181.082545 30.178997 
L 184.427645 26.177995 
L 183.837333 31.35962 
L 183.115841 30.506948 
L 180.04209 37.679034 
L 179.123827 37.285493 
" clip-path="url(#p79686ef317)" style="fill: #0000ff"/>
    <path d="M 195.850983 258.914905 
L 200.080083 266.31583 
L 200.699661 265.386463 
L 201.87686 270.467005 
L 198.097432 266.873451 
L 199.212673 266.811493 
L 194.983573 259.410568 
L 195.850983 258.914905 
" clip-path="url(#p79686ef317)" style="fill: #0000ff"/>
    <path d="M 195.832904 243.051333 
L 199.798731 249.000074 
L 200.352899 248.030281 
L 201.87686 253.01779 
L 197.859144 249.692784 
L 198.96748 249.554242 
L 195.001652 243.605501 
L 195.832904 243.051333 
" clip-path="url(#p79686ef317)" style="fill: #0000ff"/>
    <path d="M 195.807338 227.18205 
L 199.45849 231.745991 
L 199.926562 230.731836 
L 201.87686 235.568575 
L 197.586204 232.604122 
L 198.678371 232.370086 
L 195.027219 227.806145 
L 195.807338 227.18205 
" clip-path="url(#p79686ef317)" style="fill: #0000ff"/>
    <path d="M 195.770492 211.306564 
L 199.051148 214.58722 
L 199.404362 213.527578 
L 201.87686 218.11936 
L 197.285078 215.646862 
L 198.34472 215.293648 
L 195.064064 212.012992 
L 195.770492 211.306564 
" clip-path="url(#p79686ef317)" style="fill: #0000ff"/>
    <path d="M 195.71699 195.425843 
L 198.580028 197.573121 
L 198.779836 196.474177 
L 201.87686 200.670145 
L 196.981564 198.871873 
L 197.980604 198.372353 
L 195.117566 196.225075 
L 195.71699 195.425843 
" clip-path="url(#p79686ef317)" style="fill: #0000ff"/>
    <path d="M 195.64067 179.544355 
L 198.079194 180.763616 
L 198.079194 179.646656 
L 201.87686 183.22093 
L 196.738841 182.327361 
L 197.632409 181.657185 
L 195.193886 180.437923 
L 195.64067 179.544355 
" clip-path="url(#p79686ef317)" style="fill: #0000ff"/>
    <path d="M 195.53843 163.672214 
L 197.636561 164.196747 
L 197.394258 163.106384 
L 201.87686 165.771715 
L 196.66735 166.014018 
L 197.394258 165.165958 
L 195.296127 164.641425 
L 195.53843 163.672214 
" clip-path="url(#p79686ef317)" style="fill: #0000ff"/>
    <path d="M 195.417278 147.82298 
L 197.38118 147.82298 
L 196.88166 146.82394 
L 201.87686 148.3225 
L 196.88166 149.82106 
L 197.38118 148.82202 
L 195.417278 148.82202 
L 195.417278 147.82298 
" clip-path="url(#p79686ef317)" style="fill: #0000ff"/>
    <path d="M 195.296127 132.003575 
L 197.394258 131.479042 
L 196.66735 130.630982 
L 201.87686 130.873285 
L 197.394258 133.538616 
L 197.636561 132.448253 
L 195.53843 132.972786 
L 195.296127 132.003575 
" clip-path="url(#p79686ef317)" style="fill: #0000ff"/>
    <path d="M 195.193886 116.207077 
L 197.632409 114.987815 
L 196.738841 114.317639 
L 201.87686 113.42407 
L 198.079194 116.998344 
L 198.079194 115.881384 
L 195.64067 117.100645 
L 195.193886 116.207077 
" clip-path="url(#p79686ef317)" style="fill: #0000ff"/>
    <path d="M 195.117566 100.419925 
L 197.980604 98.272647 
L 196.981564 97.773127 
L 201.87686 95.974855 
L 198.779836 100.170823 
L 198.580028 99.071879 
L 195.71699 101.219157 
L 195.117566 100.419925 
" clip-path="url(#p79686ef317)" style="fill: #0000ff"/>
    <path d="M 195.064064 84.632008 
L 198.34472 81.351352 
L 197.285078 80.998138 
L 201.87686 78.52564 
L 199.404362 83.117422 
L 199.051148 82.05778 
L 195.770492 85.338436 
L 195.064064 84.632008 
" clip-path="url(#p79686ef317)" style="fill: #0000ff"/>
    <path d="M 195.027219 68.838855 
L 198.678371 64.274914 
L 197.586204 64.040878 
L 201.87686 61.076425 
L 199.926562 65.913164 
L 199.45849 64.899009 
L 195.807338 69.46295 
L 195.027219 68.838855 
" clip-path="url(#p79686ef317)" style="fill: #0000ff"/>
    <path d="M 195.001652 53.039499 
L 198.96748 47.090758 
L 197.859144 46.952216 
L 201.87686 43.62721 
L 200.352899 48.614719 
L 199.798731 47.644926 
L 195.832904 53.593667 
L 195.001652 53.039499 
" clip-path="url(#p79686ef317)" style="fill: #0000ff"/>
    <path d="M 194.983573 37.234432 
L 199.212673 29.833507 
L 198.097432 29.771549 
L 201.87686 26.177995 
L 200.699661 31.258537 
L 200.080083 30.32917 
L 195.850983 37.730095 
L 194.983573 37.234432 
" clip-path="url(#p79686ef317)" style="fill: #0000ff"/>
    <path d="M 211.658074 258.872397 
L 217.11949 266.518379 
L 217.642102 265.531223 
L 219.326075 270.467005 
L 215.203245 267.273264 
L 216.306538 267.09906 
L 210.845121 259.453077 
L 211.658074 258.872397 
" clip-path="url(#p79686ef317)" style="fill: #0000ff"/>
    <path d="M 211.63534 243.008632 
L 216.831753 249.244328 
L 217.279451 248.221016 
L 219.326075 253.01779 
L 214.977 250.139726 
L 216.064269 249.883898 
L 210.867856 243.648202 
L 211.63534 243.008632 
" clip-path="url(#p79686ef317)" style="fill: #0000ff"/>
    <path d="M 211.604812 227.140884 
L 216.500363 232.036435 
L 216.853577 230.976793 
L 219.326075 235.568575 
L 214.734293 233.096077 
L 215.793935 232.742863 
L 210.898384 227.847312 
L 211.604812 227.140884 
" clip-path="url(#p79686ef317)" style="fill: #0000ff"/>
    <path d="M 211.563645 211.269719 
L 216.127586 214.920871 
L 216.361622 213.828704 
L 219.326075 218.11936 
L 214.489336 216.169062 
L 215.503491 215.70099 
L 210.93955 212.049838 
L 211.563645 211.269719 
" clip-path="url(#p79686ef317)" style="fill: #0000ff"/>
    <path d="M 211.508599 195.397124 
L 215.728062 197.928802 
L 215.813729 196.815131 
L 219.326075 200.670145 
L 214.271723 199.38514 
L 215.21406 198.785472 
L 210.994597 196.253793 
L 211.508599 195.397124 
" clip-path="url(#p79686ef317)" style="fill: #0000ff"/>
    <path d="M 211.437115 179.527346 
L 215.337458 181.087484 
L 215.244699 179.974381 
L 219.326075 183.22093 
L 214.131597 182.757137 
L 214.966424 182.015069 
L 211.066081 180.454932 
L 211.437115 179.527346 
" clip-path="url(#p79686ef317)" style="fill: #0000ff"/>
    <path d="M 211.349562 163.667 
L 215.015662 164.40022 
L 214.72177 163.322617 
L 219.326075 165.771715 
L 214.133986 166.261535 
L 214.819734 165.379859 
L 211.153634 164.646639 
L 211.349562 163.667 
" clip-path="url(#p79686ef317)" style="fill: #0000ff"/>
    <path d="M 211.251598 147.82298 
L 214.830395 147.82298 
L 214.330875 146.82394 
L 219.326075 148.3225 
L 214.330875 149.82106 
L 214.830395 148.82202 
L 211.251598 148.82202 
L 211.251598 147.82298 
" clip-path="url(#p79686ef317)" style="fill: #0000ff"/>
    <path d="M 211.153634 131.998361 
L 214.819734 131.265141 
L 214.133986 130.383465 
L 219.326075 130.873285 
L 214.72177 133.322383 
L 215.015662 132.24478 
L 211.349562 132.978 
L 211.153634 131.998361 
" clip-path="url(#p79686ef317)" style="fill: #0000ff"/>
    <path d="M 211.066081 116.190068 
L 214.966424 114.629931 
L 214.131597 113.887863 
L 219.326075 113.42407 
L 215.244699 116.670619 
L 215.337458 115.557516 
L 211.437115 117.117654 
L 211.066081 116.190068 
" clip-path="url(#p79686ef317)" style="fill: #0000ff"/>
    <path d="M 210.994597 100.391207 
L 215.21406 97.859528 
L 214.271723 97.25986 
L 219.326075 95.974855 
L 215.813729 99.829869 
L 215.728062 98.716198 
L 211.508599 101.247876 
L 210.994597 100.391207 
" clip-path="url(#p79686ef317)" style="fill: #0000ff"/>
    <path d="M 210.93955 84.595162 
L 215.503491 80.94401 
L 214.489336 80.475938 
L 219.326075 78.52564 
L 216.361622 82.816296 
L 216.127586 81.724129 
L 211.563645 85.375281 
L 210.93955 84.595162 
" clip-path="url(#p79686ef317)" style="fill: #0000ff"/>
    <path d="M 210.898384 68.797688 
L 215.793935 63.902137 
L 214.734293 63.548923 
L 219.326075 61.076425 
L 216.853577 65.668207 
L 216.500363 64.608565 
L 211.604812 69.504116 
L 210.898384 68.797688 
" clip-path="url(#p79686ef317)" style="fill: #0000ff"/>
    <path d="M 210.867856 52.996798 
L 216.064269 46.761102 
L 214.977 46.505274 
L 219.326075 43.62721 
L 217.279451 48.423984 
L 216.831753 47.400672 
L 211.63534 53.636368 
L 210.867856 52.996798 
" clip-path="url(#p79686ef317)" style="fill: #0000ff"/>
    <path d="M 210.845121 37.191923 
L 216.306538 29.54594 
L 215.203245 29.371736 
L 219.326075 26.177995 
L 217.642102 31.113777 
L 217.11949 30.126621 
L 211.658074 37.772603 
L 210.845121 37.191923 
" clip-path="url(#p79686ef317)" style="fill: #0000ff"/>
    <path d="M 227.465181 258.837653 
L 234.228804 266.728547 
L 234.662248 265.699116 
L 236.77529 270.467005 
L 232.386665 267.649616 
L 233.470276 267.378713 
L 226.706653 259.48782 
L 227.465181 258.837653 
" clip-path="url(#p79686ef317)" style="fill: #0000ff"/>
    <path d="M 227.439131 242.975203 
L 233.949578 249.48565 
L 234.302792 248.426008 
L 236.77529 253.01779 
L 232.183508 250.545292 
L 233.24315 250.192078 
L 226.732703 243.681631 
L 227.439131 242.975203 
" clip-path="url(#p79686ef317)" style="fill: #0000ff"/>
    <path d="M 227.405702 227.110356 
L 233.641398 232.306769 
L 233.897226 231.2195 
L 236.77529 235.568575 
L 231.978516 233.521951 
L 233.001828 233.074253 
L 226.766132 227.87784 
L 227.405702 227.110356 
" clip-path="url(#p79686ef317)" style="fill: #0000ff"/>
    <path d="M 227.363001 211.244152 
L 233.311742 215.20998 
L 233.450284 214.101644 
L 236.77529 218.11936 
L 231.787781 216.595399 
L 232.757574 216.041231 
L 226.808833 212.075404 
L 227.363001 211.244152 
" clip-path="url(#p79686ef317)" style="fill: #0000ff"/>
    <path d="M 227.309309 195.378674 
L 232.977624 198.212831 
L 232.977624 197.095871 
L 236.77529 200.670145 
L 231.637271 199.776576 
L 232.530839 199.1064 
L 226.862525 196.272243 
L 227.309309 195.378674 
" clip-path="url(#p79686ef317)" style="fill: #0000ff"/>
    <path d="M 227.243879 179.517253 
L 232.668275 181.325385 
L 232.510313 180.21965 
L 236.77529 183.22093 
L 231.562541 183.062968 
L 232.352351 182.273157 
L 226.927955 180.465025 
L 227.243879 179.517253 
" clip-path="url(#p79686ef317)" style="fill: #0000ff"/>
    <path d="M 227.168038 163.664096 
L 232.422899 164.539906 
L 232.094417 163.472339 
L 236.77529 165.771715 
L 231.601693 166.42868 
L 232.258658 165.525353 
L 227.003797 164.649543 
L 227.168038 163.664096 
" clip-path="url(#p79686ef317)" style="fill: #0000ff"/>
    <path d="M 227.085917 147.82298 
L 232.27961 147.82298 
L 231.78009 146.82394 
L 236.77529 148.3225 
L 231.78009 149.82106 
L 232.27961 148.82202 
L 227.085917 148.82202 
L 227.085917 147.82298 
" clip-path="url(#p79686ef317)" style="fill: #0000ff"/>
    <path d="M 227.003797 131.995457 
L 232.258658 131.119647 
L 231.601693 130.21632 
L 236.77529 130.873285 
L 232.094417 133.172661 
L 232.422899 132.105094 
L 227.168038 132.980904 
L 227.003797 131.995457 
" clip-path="url(#p79686ef317)" style="fill: #0000ff"/>
    <path d="M 226.927955 116.179975 
L 232.352351 114.371843 
L 231.562541 113.582032 
L 236.77529 113.42407 
L 232.510313 116.42535 
L 232.668275 115.319615 
L 227.243879 117.127747 
L 226.927955 116.179975 
" clip-path="url(#p79686ef317)" style="fill: #0000ff"/>
    <path d="M 226.862525 100.372757 
L 232.530839 97.5386 
L 231.637271 96.868424 
L 236.77529 95.974855 
L 232.977624 99.549129 
L 232.977624 98.432169 
L 227.309309 101.266326 
L 226.862525 100.372757 
" clip-path="url(#p79686ef317)" style="fill: #0000ff"/>
    <path d="M 226.808833 84.569596 
L 232.757574 80.603769 
L 231.787781 80.049601 
L 236.77529 78.52564 
L 233.450284 82.543356 
L 233.311742 81.43502 
L 227.363001 85.400848 
L 226.808833 84.569596 
" clip-path="url(#p79686ef317)" style="fill: #0000ff"/>
    <path d="M 226.766132 68.76716 
L 233.001828 63.570747 
L 231.978516 63.123049 
L 236.77529 61.076425 
L 233.897226 65.4255 
L 233.641398 64.338231 
L 227.405702 69.534644 
L 226.766132 68.76716 
" clip-path="url(#p79686ef317)" style="fill: #0000ff"/>
    <path d="M 226.732703 52.963369 
L 233.24315 46.452922 
L 232.183508 46.099708 
L 236.77529 43.62721 
L 234.302792 48.218992 
L 233.949578 47.15935 
L 227.439131 53.669797 
L 226.732703 52.963369 
" clip-path="url(#p79686ef317)" style="fill: #0000ff"/>
    <path d="M 226.706653 37.15718 
L 233.470276 29.266287 
L 232.386665 28.995384 
L 236.77529 26.177995 
L 234.662248 30.945884 
L 234.228804 29.916453 
L 227.465181 37.807347 
L 226.706653 37.15718 
" clip-path="url(#p79686ef317)" style="fill: #0000ff"/>
    <path d="M 243.273451 258.809523 
L 251.398793 266.934865 
L 251.752007 265.875223 
L 254.224505 270.467005 
L 249.632723 267.994507 
L 250.692365 267.641293 
L 242.567023 259.515951 
L 243.273451 258.809523 
" clip-path="url(#p79686ef317)" style="fill: #0000ff"/>
    <path d="M 243.24532 242.949153 
L 251.136213 249.712776 
L 251.407116 248.629165 
L 254.224505 253.01779 
L 249.456616 250.904748 
L 250.486047 250.471304 
L 242.595153 243.707681 
L 243.24532 242.949153 
" clip-path="url(#p79686ef317)" style="fill: #0000ff"/>
    <path d="M 243.210577 227.087621 
L 250.85656 232.549038 
L 251.030764 231.445745 
L 254.224505 235.568575 
L 249.288723 233.884602 
L 250.275879 233.36199 
L 242.629897 227.900574 
L 243.210577 227.087621 
" clip-path="url(#p79686ef317)" style="fill: #0000ff"/>
    <path d="M 243.168068 211.226073 
L 250.568993 215.455173 
L 250.630951 214.339932 
L 254.224505 218.11936 
L 249.143963 216.942161 
L 250.07333 216.322583 
L 242.672405 212.093483 
L 243.168068 211.226073 
" clip-path="url(#p79686ef317)" style="fill: #0000ff"/>
    <path d="M 243.117007 195.366327 
L 250.289093 198.440078 
L 250.223503 197.325045 
L 254.224505 200.670145 
L 249.04288 200.079833 
L 249.895552 199.358341 
L 242.723466 196.28459 
L 243.117007 195.366327 
" clip-path="url(#p79686ef317)" style="fill: #0000ff"/>
    <path d="M 243.057465 179.510839 
L 250.03903 181.505571 
L 249.833186 180.407742 
L 254.224505 183.22093 
L 249.009814 183.289544 
L 249.764572 182.466172 
L 242.783008 180.471439 
L 243.057465 179.510839 
" clip-path="url(#p79686ef317)" style="fill: #0000ff"/>
    <path d="M 242.990879 163.66232 
L 249.844651 164.64143 
L 249.491437 163.581788 
L 254.224505 165.771715 
L 249.067581 166.548786 
L 249.703366 165.630429 
L 242.849594 164.651319 
L 242.990879 163.66232 
" clip-path="url(#p79686ef317)" style="fill: #0000ff"/>
    <path d="M 242.920237 147.82298 
L 249.728825 147.82298 
L 249.229305 146.82394 
L 254.224505 148.3225 
L 249.229305 149.82106 
L 249.728825 148.82202 
L 242.920237 148.82202 
L 242.920237 147.82298 
" clip-path="url(#p79686ef317)" style="fill: #0000ff"/>
    <path d="M 242.849594 131.993681 
L 249.703366 131.014571 
L 249.067581 130.096214 
L 254.224505 130.873285 
L 249.491437 133.063212 
L 249.844651 132.00357 
L 242.990879 132.98268 
L 242.849594 131.993681 
" clip-path="url(#p79686ef317)" style="fill: #0000ff"/>
    <path d="M 242.783008 116.173561 
L 249.764572 114.178828 
L 249.009814 113.355456 
L 254.224505 113.42407 
L 249.833186 116.237258 
L 250.03903 115.139429 
L 243.057465 117.134161 
L 242.783008 116.173561 
" clip-path="url(#p79686ef317)" style="fill: #0000ff"/>
    <path d="M 242.723466 100.36041 
L 249.895552 97.286659 
L 249.04288 96.565167 
L 254.224505 95.974855 
L 250.223503 99.319955 
L 250.289093 98.204922 
L 243.117007 101.278673 
L 242.723466 100.36041 
" clip-path="url(#p79686ef317)" style="fill: #0000ff"/>
    <path d="M 242.672405 84.551517 
L 250.07333 80.322417 
L 249.143963 79.702839 
L 254.224505 78.52564 
L 250.630951 82.305068 
L 250.568993 81.189827 
L 243.168068 85.418927 
L 242.672405 84.551517 
" clip-path="url(#p79686ef317)" style="fill: #0000ff"/>
    <path d="M 242.629897 68.744426 
L 250.275879 63.28301 
L 249.288723 62.760398 
L 254.224505 61.076425 
L 251.030764 65.199255 
L 250.85656 64.095962 
L 243.210577 69.557379 
L 242.629897 68.744426 
" clip-path="url(#p79686ef317)" style="fill: #0000ff"/>
    <path d="M 242.595153 52.937319 
L 250.486047 46.173696 
L 249.456616 45.740252 
L 254.224505 43.62721 
L 251.407116 48.015835 
L 251.136213 46.932224 
L 243.24532 53.695847 
L 242.595153 52.937319 
" clip-path="url(#p79686ef317)" style="fill: #0000ff"/>
    <path d="M 242.567023 37.129049 
L 250.692365 29.003707 
L 249.632723 28.650493 
L 254.224505 26.177995 
L 251.752007 30.769777 
L 251.398793 29.710135 
L 243.273451 37.835477 
L 242.567023 37.129049 
" clip-path="url(#p79686ef317)" style="fill: #0000ff"/>
   </g>
   <g id="matplotlib.axis_1">
    <g id="xtick_1">
     <g id="line2d_1">
      <defs>
       <path id="mf338daaab8" d="M 0 0 
L 0 3.5 
" style="stroke: #000000; stroke-width: 0.8"/>
      </defs>
      <g>
       <use xlink:href="#mf338daaab8" x="21.239763" y="148.3225" style="stroke: #000000; stroke-width: 0.8"/>
      </g>
     </g>
     <g id="text_1">
      <!-- 3 -->
      <g transform="translate(13.86867 162.920938) scale(0.1 -0.1)">
       <defs>
        <path id="DejaVuSans-2212" d="M 678 2272 
L 4684 2272 
L 4684 1741 
L 678 1741 
L 678 2272 
z
" transform="scale(0.015625)"/>
        <path id="DejaVuSans-33" d="M 2597 2516 
Q 3050 2419 3304 2112 
Q 3559 1806 3559 1356 
Q 3559 666 3084 287 
Q 2609 -91 1734 -91 
Q 1441 -91 1130 -33 
Q 819 25 488 141 
L 488 750 
Q 750 597 1062 519 
Q 1375 441 1716 441 
Q 2309 441 2620 675 
Q 2931 909 2931 1356 
Q 2931 1769 2642 2001 
Q 2353 2234 1838 2234 
L 1294 2234 
L 1294 2753 
L 1863 2753 
Q 2328 2753 2575 2939 
Q 2822 3125 2822 3475 
Q 2822 3834 2567 4026 
Q 2313 4219 1838 4219 
Q 1578 4219 1281 4162 
Q 984 4106 628 3988 
L 628 4550 
Q 988 4650 1302 4700 
Q 1616 4750 1894 4750 
Q 2613 4750 3031 4423 
Q 3450 4097 3450 3541 
Q 3450 3153 3228 2886 
Q 3006 2619 2597 2516 
z
" transform="scale(0.015625)"/>
       </defs>
       <use xlink:href="#DejaVuSans-2212"/>
       <use xlink:href="#DejaVuSans-33" x="83.789062"/>
      </g>
     </g>
    </g>
    <g id="xtick_2">
     <g id="line2d_2">
      <g>
       <use xlink:href="#mf338daaab8" x="58.186509" y="148.3225" style="stroke: #000000; stroke-width: 0.8"/>
      </g>
     </g>
     <g id="text_2">
      <!-- 2 -->
      <g transform="translate(50.815415 162.920938) scale(0.1 -0.1)">
       <defs>
        <path id="DejaVuSans-32" d="M 1228 531 
L 3431 531 
L 3431 0 
L 469 0 
L 469 531 
Q 828 903 1448 1529 
Q 2069 2156 2228 2338 
Q 2531 2678 2651 2914 
Q 2772 3150 2772 3378 
Q 2772 3750 2511 3984 
Q 2250 4219 1831 4219 
Q 1534 4219 1204 4116 
Q 875 4013 500 3803 
L 500 4441 
Q 881 4594 1212 4672 
Q 1544 4750 1819 4750 
Q 2544 4750 2975 4387 
Q 3406 4025 3406 3419 
Q 3406 3131 3298 2873 
Q 3191 2616 2906 2266 
Q 2828 2175 2409 1742 
Q 1991 1309 1228 531 
z
" transform="scale(0.015625)"/>
       </defs>
       <use xlink:href="#DejaVuSans-2212"/>
       <use xlink:href="#DejaVuSans-32" x="83.789062"/>
      </g>
     </g>
    </g>
    <g id="xtick_3">
     <g id="line2d_3">
      <g>
       <use xlink:href="#mf338daaab8" x="95.133254" y="148.3225" style="stroke: #000000; stroke-width: 0.8"/>
      </g>
     </g>
     <g id="text_3">
      <!-- 1 -->
      <g transform="translate(87.762161 162.920938) scale(0.1 -0.1)">
       <defs>
        <path id="DejaVuSans-31" d="M 794 531 
L 1825 531 
L 1825 4091 
L 703 3866 
L 703 4441 
L 1819 4666 
L 2450 4666 
L 2450 531 
L 3481 531 
L 3481 0 
L 794 0 
L 794 531 
z
" transform="scale(0.015625)"/>
       </defs>
       <use xlink:href="#DejaVuSans-2212"/>
       <use xlink:href="#DejaVuSans-31" x="83.789062"/>
      </g>
     </g>
    </g>
    <g id="xtick_4">
     <g id="line2d_4">
      <g>
       <use xlink:href="#mf338daaab8" x="132.08" y="148.3225" style="stroke: #000000; stroke-width: 0.8"/>
      </g>
     </g>
    </g>
    <g id="xtick_5">
     <g id="line2d_5">
      <g>
       <use xlink:href="#mf338daaab8" x="169.026746" y="148.3225" style="stroke: #000000; stroke-width: 0.8"/>
      </g>
     </g>
     <g id="text_4">
      <!-- 1 -->
      <g transform="translate(165.845496 162.920938) scale(0.1 -0.1)">
       <use xlink:href="#DejaVuSans-31"/>
      </g>
     </g>
    </g>
    <g id="xtick_6">
     <g id="line2d_6">
      <g>
       <use xlink:href="#mf338daaab8" x="205.973491" y="148.3225" style="stroke: #000000; stroke-width: 0.8"/>
      </g>
     </g>
     <g id="text_5">
      <!-- 2 -->
      <g transform="translate(202.792241 162.920938) scale(0.1 -0.1)">
       <use xlink:href="#DejaVuSans-32"/>
      </g>
     </g>
    </g>
    <g id="xtick_7">
     <g id="line2d_7">
      <g>
       <use xlink:href="#mf338daaab8" x="242.920237" y="148.3225" style="stroke: #000000; stroke-width: 0.8"/>
      </g>
     </g>
     <g id="text_6">
      <!-- 3 -->
      <g transform="translate(239.738987 162.920938) scale(0.1 -0.1)">
       <use xlink:href="#DejaVuSans-33"/>
      </g>
     </g>
    </g>
    <g id="xtick_8">
     <g id="line2d_8">
      <defs>
       <path id="m17644cd210" d="M 0 0 
L 0 2 
" style="stroke: #000000; stroke-width: 0.6"/>
      </defs>
      <g>
       <use xlink:href="#m17644cd210" x="13.850414" y="148.3225" style="stroke: #000000; stroke-width: 0.6"/>
      </g>
     </g>
    </g>
    <g id="xtick_9">
     <g id="line2d_9">
      <g>
       <use xlink:href="#m17644cd210" x="28.629112" y="148.3225" style="stroke: #000000; stroke-width: 0.6"/>
      </g>
     </g>
    </g>
    <g id="xtick_10">
     <g id="line2d_10">
      <g>
       <use xlink:href="#m17644cd210" x="36.018462" y="148.3225" style="stroke: #000000; stroke-width: 0.6"/>
      </g>
     </g>
    </g>
    <g id="xtick_11">
     <g id="line2d_11">
      <g>
       <use xlink:href="#m17644cd210" x="43.407811" y="148.3225" style="stroke: #000000; stroke-width: 0.6"/>
      </g>
     </g>
    </g>
    <g id="xtick_12">
     <g id="line2d_12">
      <g>
       <use xlink:href="#m17644cd210" x="50.79716" y="148.3225" style="stroke: #000000; stroke-width: 0.6"/>
      </g>
     </g>
    </g>
    <g id="xtick_13">
     <g id="line2d_13">
      <g>
       <use xlink:href="#m17644cd210" x="65.575858" y="148.3225" style="stroke: #000000; stroke-width: 0.6"/>
      </g>
     </g>
    </g>
    <g id="xtick_14">
     <g id="line2d_14">
      <g>
       <use xlink:href="#m17644cd210" x="72.965207" y="148.3225" style="stroke: #000000; stroke-width: 0.6"/>
      </g>
     </g>
    </g>
    <g id="xtick_15">
     <g id="line2d_15">
      <g>
       <use xlink:href="#m17644cd210" x="80.354556" y="148.3225" style="stroke: #000000; stroke-width: 0.6"/>
      </g>
     </g>
    </g>
    <g id="xtick_16">
     <g id="line2d_16">
      <g>
       <use xlink:href="#m17644cd210" x="87.743905" y="148.3225" style="stroke: #000000; stroke-width: 0.6"/>
      </g>
     </g>
    </g>
    <g id="xtick_17">
     <g id="line2d_17">
      <g>
       <use xlink:href="#m17644cd210" x="102.522604" y="148.3225" style="stroke: #000000; stroke-width: 0.6"/>
      </g>
     </g>
    </g>
    <g id="xtick_18">
     <g id="line2d_18">
      <g>
       <use xlink:href="#m17644cd210" x="109.911953" y="148.3225" style="stroke: #000000; stroke-width: 0.6"/>
      </g>
     </g>
    </g>
    <g id="xtick_19">
     <g id="line2d_19">
      <g>
       <use xlink:href="#m17644cd210" x="117.301302" y="148.3225" style="stroke: #000000; stroke-width: 0.6"/>
      </g>
     </g>
    </g>
    <g id="xtick_20">
     <g id="line2d_20">
      <g>
       <use xlink:href="#m17644cd210" x="124.690651" y="148.3225" style="stroke: #000000; stroke-width: 0.6"/>
      </g>
     </g>
    </g>
    <g id="xtick_21">
     <g id="line2d_21">
      <g>
       <use xlink:href="#m17644cd210" x="139.469349" y="148.3225" style="stroke: #000000; stroke-width: 0.6"/>
      </g>
     </g>
    </g>
    <g id="xtick_22">
     <g id="line2d_22">
      <g>
       <use xlink:href="#m17644cd210" x="146.858698" y="148.3225" style="stroke: #000000; stroke-width: 0.6"/>
      </g>
     </g>
    </g>
    <g id="xtick_23">
     <g id="line2d_23">
      <g>
       <use xlink:href="#m17644cd210" x="154.248047" y="148.3225" style="stroke: #000000; stroke-width: 0.6"/>
      </g>
     </g>
    </g>
    <g id="xtick_24">
     <g id="line2d_24">
      <g>
       <use xlink:href="#m17644cd210" x="161.637396" y="148.3225" style="stroke: #000000; stroke-width: 0.6"/>
      </g>
     </g>
    </g>
    <g id="xtick_25">
     <g id="line2d_25">
      <g>
       <use xlink:href="#m17644cd210" x="176.416095" y="148.3225" style="stroke: #000000; stroke-width: 0.6"/>
      </g>
     </g>
    </g>
    <g id="xtick_26">
     <g id="line2d_26">
      <g>
       <use xlink:href="#m17644cd210" x="183.805444" y="148.3225" style="stroke: #000000; stroke-width: 0.6"/>
      </g>
     </g>
    </g>
    <g id="xtick_27">
     <g id="line2d_27">
      <g>
       <use xlink:href="#m17644cd210" x="191.194793" y="148.3225" style="stroke: #000000; stroke-width: 0.6"/>
      </g>
     </g>
    </g>
    <g id="xtick_28">
     <g id="line2d_28">
      <g>
       <use xlink:href="#m17644cd210" x="198.584142" y="148.3225" style="stroke: #000000; stroke-width: 0.6"/>
      </g>
     </g>
    </g>
    <g id="xtick_29">
     <g id="line2d_29">
      <g>
       <use xlink:href="#m17644cd210" x="213.36284" y="148.3225" style="stroke: #000000; stroke-width: 0.6"/>
      </g>
     </g>
    </g>
    <g id="xtick_30">
     <g id="line2d_30">
      <g>
       <use xlink:href="#m17644cd210" x="220.752189" y="148.3225" style="stroke: #000000; stroke-width: 0.6"/>
      </g>
     </g>
    </g>
    <g id="xtick_31">
     <g id="line2d_31">
      <g>
       <use xlink:href="#m17644cd210" x="228.141538" y="148.3225" style="stroke: #000000; stroke-width: 0.6"/>
      </g>
     </g>
    </g>
    <g id="xtick_32">
     <g id="line2d_32">
      <g>
       <use xlink:href="#m17644cd210" x="235.530888" y="148.3225" style="stroke: #000000; stroke-width: 0.6"/>
      </g>
     </g>
    </g>
    <g id="xtick_33">
     <g id="line2d_33">
      <g>
       <use xlink:href="#m17644cd210" x="250.309586" y="148.3225" style="stroke: #000000; stroke-width: 0.6"/>
      </g>
     </g>
    </g>
    <g id="text_7">
     <!-- $x$ -->
     <g transform="translate(264.96 148.3225) scale(0.16 -0.16)">
      <defs>
       <path id="Cmmi10-78" d="M 500 184 
Q 613 97 819 97 
Q 1019 97 1172 289 
Q 1325 481 1381 709 
L 1672 1844 
Q 1741 2153 1741 2266 
Q 1741 2425 1652 2544 
Q 1563 2663 1403 2663 
Q 1200 2663 1022 2536 
Q 844 2409 722 2214 
Q 600 2019 550 1819 
Q 538 1778 500 1778 
L 422 1778 
Q 372 1778 372 1838 
L 372 1856 
Q 434 2094 584 2320 
Q 734 2547 951 2687 
Q 1169 2828 1416 2828 
Q 1650 2828 1839 2703 
Q 2028 2578 2106 2363 
Q 2216 2559 2386 2693 
Q 2556 2828 2759 2828 
Q 2897 2828 3040 2779 
Q 3184 2731 3275 2631 
Q 3366 2531 3366 2381 
Q 3366 2219 3261 2101 
Q 3156 1984 2994 1984 
Q 2891 1984 2822 2050 
Q 2753 2116 2753 2216 
Q 2753 2350 2845 2451 
Q 2938 2553 3066 2572 
Q 2950 2663 2747 2663 
Q 2541 2663 2389 2472 
Q 2238 2281 2175 2047 
L 1894 916 
Q 1825 659 1825 494 
Q 1825 331 1917 214 
Q 2009 97 2163 97 
Q 2463 97 2698 361 
Q 2934 625 3009 941 
Q 3022 978 3059 978 
L 3138 978 
Q 3163 978 3178 961 
Q 3194 944 3194 922 
Q 3194 916 3188 903 
Q 3097 522 2806 225 
Q 2516 -72 2150 -72 
Q 1916 -72 1727 54 
Q 1538 181 1459 397 
Q 1359 209 1182 68 
Q 1006 -72 806 -72 
Q 669 -72 523 -23 
Q 378 25 287 125 
Q 197 225 197 378 
Q 197 528 301 651 
Q 406 775 563 775 
Q 669 775 741 711 
Q 813 647 813 544 
Q 813 409 723 309 
Q 634 209 500 184 
z
" transform="scale(0.015625)"/>
      </defs>
      <use xlink:href="#Cmmi10-78" transform="translate(0 0.8125)"/>
     </g>
    </g>
   </g>
   <g id="matplotlib.axis_2">
    <g id="ytick_1">
     <g id="line2d_34">
      <defs>
       <path id="m71b40a0985" d="M 0 0 
L -3.5 0 
" style="stroke: #000000; stroke-width: 0.8"/>
      </defs>
      <g>
       <use xlink:href="#m71b40a0985" x="132.08" y="259.162737" style="stroke: #000000; stroke-width: 0.8"/>
      </g>
     </g>
     <g id="text_8">
      <!-- 3 -->
      <g transform="translate(110.337812 262.961955) scale(0.1 -0.1)">
       <use xlink:href="#DejaVuSans-2212"/>
       <use xlink:href="#DejaVuSans-33" x="83.789062"/>
      </g>
     </g>
    </g>
    <g id="ytick_2">
     <g id="line2d_35">
      <g>
       <use xlink:href="#m71b40a0985" x="132.08" y="222.215991" style="stroke: #000000; stroke-width: 0.8"/>
      </g>
     </g>
     <g id="text_9">
      <!-- 2 -->
      <g transform="translate(110.337812 226.01521) scale(0.1 -0.1)">
       <use xlink:href="#DejaVuSans-2212"/>
       <use xlink:href="#DejaVuSans-32" x="83.789062"/>
      </g>
     </g>
    </g>
    <g id="ytick_3">
     <g id="line2d_36">
      <g>
       <use xlink:href="#m71b40a0985" x="132.08" y="185.269246" style="stroke: #000000; stroke-width: 0.8"/>
      </g>
     </g>
     <g id="text_10">
      <!-- 1 -->
      <g transform="translate(110.337812 189.068464) scale(0.1 -0.1)">
       <use xlink:href="#DejaVuSans-2212"/>
       <use xlink:href="#DejaVuSans-31" x="83.789062"/>
      </g>
     </g>
    </g>
    <g id="ytick_4">
     <g id="line2d_37">
      <g>
       <use xlink:href="#m71b40a0985" x="132.08" y="148.3225" style="stroke: #000000; stroke-width: 0.8"/>
      </g>
     </g>
    </g>
    <g id="ytick_5">
     <g id="line2d_38">
      <g>
       <use xlink:href="#m71b40a0985" x="132.08" y="111.375754" style="stroke: #000000; stroke-width: 0.8"/>
      </g>
     </g>
     <g id="text_11">
      <!-- 1 -->
      <g transform="translate(118.7175 115.174973) scale(0.1 -0.1)">
       <use xlink:href="#DejaVuSans-31"/>
      </g>
     </g>
    </g>
    <g id="ytick_6">
     <g id="line2d_39">
      <g>
       <use xlink:href="#m71b40a0985" x="132.08" y="74.429009" style="stroke: #000000; stroke-width: 0.8"/>
      </g>
     </g>
     <g id="text_12">
      <!-- 2 -->
      <g transform="translate(118.7175 78.228228) scale(0.1 -0.1)">
       <use xlink:href="#DejaVuSans-32"/>
      </g>
     </g>
    </g>
    <g id="ytick_7">
     <g id="line2d_40">
      <g>
       <use xlink:href="#m71b40a0985" x="132.08" y="37.482263" style="stroke: #000000; stroke-width: 0.8"/>
      </g>
     </g>
     <g id="text_13">
      <!-- 3 -->
      <g transform="translate(118.7175 41.281482) scale(0.1 -0.1)">
       <use xlink:href="#DejaVuSans-33"/>
      </g>
     </g>
    </g>
    <g id="ytick_8">
     <g id="line2d_41">
      <defs>
       <path id="me5e8c1e72c" d="M 0 0 
L -2 0 
" style="stroke: #000000; stroke-width: 0.6"/>
      </defs>
      <g>
       <use xlink:href="#me5e8c1e72c" x="132.08" y="266.552086" style="stroke: #000000; stroke-width: 0.6"/>
      </g>
     </g>
    </g>
    <g id="ytick_9">
     <g id="line2d_42">
      <g>
       <use xlink:href="#me5e8c1e72c" x="132.08" y="251.773388" style="stroke: #000000; stroke-width: 0.6"/>
      </g>
     </g>
    </g>
    <g id="ytick_10">
     <g id="line2d_43">
      <g>
       <use xlink:href="#me5e8c1e72c" x="132.08" y="244.384038" style="stroke: #000000; stroke-width: 0.6"/>
      </g>
     </g>
    </g>
    <g id="ytick_11">
     <g id="line2d_44">
      <g>
       <use xlink:href="#me5e8c1e72c" x="132.08" y="236.994689" style="stroke: #000000; stroke-width: 0.6"/>
      </g>
     </g>
    </g>
    <g id="ytick_12">
     <g id="line2d_45">
      <g>
       <use xlink:href="#me5e8c1e72c" x="132.08" y="229.60534" style="stroke: #000000; stroke-width: 0.6"/>
      </g>
     </g>
    </g>
    <g id="ytick_13">
     <g id="line2d_46">
      <g>
       <use xlink:href="#me5e8c1e72c" x="132.08" y="214.826642" style="stroke: #000000; stroke-width: 0.6"/>
      </g>
     </g>
    </g>
    <g id="ytick_14">
     <g id="line2d_47">
      <g>
       <use xlink:href="#me5e8c1e72c" x="132.08" y="207.437293" style="stroke: #000000; stroke-width: 0.6"/>
      </g>
     </g>
    </g>
    <g id="ytick_15">
     <g id="line2d_48">
      <g>
       <use xlink:href="#me5e8c1e72c" x="132.08" y="200.047944" style="stroke: #000000; stroke-width: 0.6"/>
      </g>
     </g>
    </g>
    <g id="ytick_16">
     <g id="line2d_49">
      <g>
       <use xlink:href="#me5e8c1e72c" x="132.08" y="192.658595" style="stroke: #000000; stroke-width: 0.6"/>
      </g>
     </g>
    </g>
    <g id="ytick_17">
     <g id="line2d_50">
      <g>
       <use xlink:href="#me5e8c1e72c" x="132.08" y="177.879896" style="stroke: #000000; stroke-width: 0.6"/>
      </g>
     </g>
    </g>
    <g id="ytick_18">
     <g id="line2d_51">
      <g>
       <use xlink:href="#me5e8c1e72c" x="132.08" y="170.490547" style="stroke: #000000; stroke-width: 0.6"/>
      </g>
     </g>
    </g>
    <g id="ytick_19">
     <g id="line2d_52">
      <g>
       <use xlink:href="#me5e8c1e72c" x="132.08" y="163.101198" style="stroke: #000000; stroke-width: 0.6"/>
      </g>
     </g>
    </g>
    <g id="ytick_20">
     <g id="line2d_53">
      <g>
       <use xlink:href="#me5e8c1e72c" x="132.08" y="155.711849" style="stroke: #000000; stroke-width: 0.6"/>
      </g>
     </g>
    </g>
    <g id="ytick_21">
     <g id="line2d_54">
      <g>
       <use xlink:href="#me5e8c1e72c" x="132.08" y="140.933151" style="stroke: #000000; stroke-width: 0.6"/>
      </g>
     </g>
    </g>
    <g id="ytick_22">
     <g id="line2d_55">
      <g>
       <use xlink:href="#me5e8c1e72c" x="132.08" y="133.543802" style="stroke: #000000; stroke-width: 0.6"/>
      </g>
     </g>
    </g>
    <g id="ytick_23">
     <g id="line2d_56">
      <g>
       <use xlink:href="#me5e8c1e72c" x="132.08" y="126.154453" style="stroke: #000000; stroke-width: 0.6"/>
      </g>
     </g>
    </g>
    <g id="ytick_24">
     <g id="line2d_57">
      <g>
       <use xlink:href="#me5e8c1e72c" x="132.08" y="118.765104" style="stroke: #000000; stroke-width: 0.6"/>
      </g>
     </g>
    </g>
    <g id="ytick_25">
     <g id="line2d_58">
      <g>
       <use xlink:href="#me5e8c1e72c" x="132.08" y="103.986405" style="stroke: #000000; stroke-width: 0.6"/>
      </g>
     </g>
    </g>
    <g id="ytick_26">
     <g id="line2d_59">
      <g>
       <use xlink:href="#me5e8c1e72c" x="132.08" y="96.597056" style="stroke: #000000; stroke-width: 0.6"/>
      </g>
     </g>
    </g>
    <g id="ytick_27">
     <g id="line2d_60">
      <g>
       <use xlink:href="#me5e8c1e72c" x="132.08" y="89.207707" style="stroke: #000000; stroke-width: 0.6"/>
      </g>
     </g>
    </g>
    <g id="ytick_28">
     <g id="line2d_61">
      <g>
       <use xlink:href="#me5e8c1e72c" x="132.08" y="81.818358" style="stroke: #000000; stroke-width: 0.6"/>
      </g>
     </g>
    </g>
    <g id="ytick_29">
     <g id="line2d_62">
      <g>
       <use xlink:href="#me5e8c1e72c" x="132.08" y="67.03966" style="stroke: #000000; stroke-width: 0.6"/>
      </g>
     </g>
    </g>
    <g id="ytick_30">
     <g id="line2d_63">
      <g>
       <use xlink:href="#me5e8c1e72c" x="132.08" y="59.650311" style="stroke: #000000; stroke-width: 0.6"/>
      </g>
     </g>
    </g>
    <g id="ytick_31">
     <g id="line2d_64">
      <g>
       <use xlink:href="#me5e8c1e72c" x="132.08" y="52.260962" style="stroke: #000000; stroke-width: 0.6"/>
      </g>
     </g>
    </g>
    <g id="ytick_32">
     <g id="line2d_65">
      <g>
       <use xlink:href="#me5e8c1e72c" x="132.08" y="44.871612" style="stroke: #000000; stroke-width: 0.6"/>
      </g>
     </g>
    </g>
    <g id="ytick_33">
     <g id="line2d_66">
      <g>
       <use xlink:href="#me5e8c1e72c" x="132.08" y="30.092914" style="stroke: #000000; stroke-width: 0.6"/>
      </g>
     </g>
    </g>
    <g id="text_14">
     <!-- $y$ -->
     <g transform="translate(128.08 12.0825) scale(0.16 -0.16)">
      <defs>
       <path id="Cmmi10-79" d="M 538 -916 
Q 672 -1147 1006 -1147 
Q 1309 -1147 1531 -934 
Q 1753 -722 1889 -420 
Q 2025 -119 2100 197 
Q 1816 -72 1484 -72 
Q 1231 -72 1053 15 
Q 875 103 776 276 
Q 678 450 678 697 
Q 678 906 734 1126 
Q 791 1347 892 1617 
Q 994 1888 1069 2088 
Q 1153 2322 1153 2472 
Q 1153 2663 1013 2663 
Q 759 2663 595 2402 
Q 431 2141 353 1819 
Q 341 1778 300 1778 
L 225 1778 
Q 172 1778 172 1838 
L 172 1856 
Q 275 2238 487 2533 
Q 700 2828 1025 2828 
Q 1253 2828 1411 2678 
Q 1569 2528 1569 2297 
Q 1569 2178 1516 2047 
Q 1488 1969 1388 1706 
Q 1288 1444 1234 1272 
Q 1181 1100 1147 934 
Q 1113 769 1113 603 
Q 1113 391 1203 244 
Q 1294 97 1491 97 
Q 1888 97 2203 581 
L 2688 2553 
Q 2709 2638 2787 2698 
Q 2866 2759 2956 2759 
Q 3034 2759 3092 2709 
Q 3150 2659 3150 2578 
Q 3150 2541 3144 2528 
L 2509 -19 
Q 2425 -347 2200 -647 
Q 1975 -947 1658 -1130 
Q 1341 -1313 997 -1313 
Q 831 -1313 668 -1248 
Q 506 -1184 406 -1056 
Q 306 -928 306 -756 
Q 306 -581 409 -453 
Q 513 -325 684 -325 
Q 788 -325 858 -389 
Q 928 -453 928 -556 
Q 928 -703 818 -812 
Q 709 -922 563 -922 
Q 556 -919 550 -917 
Q 544 -916 538 -916 
z
" transform="scale(0.015625)"/>
      </defs>
      <use xlink:href="#Cmmi10-79" transform="translate(0 0.8125)"/>
     </g>
    </g>
   </g>
   <g id="line2d_67">
    <path d="M 58.186509 222.215991 
L 205.973491 74.429009 
L 205.973491 74.429009 
" clip-path="url(#p79686ef317)" style="fill: none; stroke: #ff0000; stroke-width: 2; stroke-linecap: square"/>
   </g>
   <g id="patch_3">
    <path d="M 200.431479 79.971021 
Q 203.202485 77.200015 204.392352 76.010148 
" clip-path="url(#p79686ef317)" style="fill: none; stroke: #ff0000; stroke-width: 2; stroke-linecap: round"/>
    <path d="M 193.785751 79.545682 
L 204.392352 76.010148 
L 200.856818 86.616749 
L 193.785751 79.545682 
z
" clip-path="url(#p79686ef317)" style="fill: #ff0000; stroke: #ff0000; stroke-width: 2; stroke-linecap: round"/>
   </g>
   <g id="line2d_68">
    <path d="M 132.08 222.215991 
L 205.973491 222.215991 
L 205.973491 222.215991 
" clip-path="url(#p79686ef317)" style="fill: none; stroke: #800080; stroke-width: 2; stroke-linecap: square"/>
   </g>
   <g id="patch_4">
    <path d="M 137.622012 222.215991 
Q 134.851006 222.215991 134.316068 222.215991 
" clip-path="url(#p79686ef317)" style="fill: none; stroke: #800080; stroke-width: 2; stroke-linecap: round"/>
    <path d="M 144.316068 227.215991 
L 134.316068 222.215991 
L 144.316068 217.215991 
L 144.316068 227.215991 
z
" clip-path="url(#p79686ef317)" style="fill: #800080; stroke: #800080; stroke-width: 2; stroke-linecap: round"/>
   </g>
   <g id="patch_5">
    <path d="M 132.08 273.2025 
L 132.08 23.4425 
" style="fill: none; stroke: #000000; stroke-width: 0.8; stroke-linejoin: miter; stroke-linecap: square"/>
   </g>
   <g id="patch_6">
    <path d="M 7.2 148.3225 
L 256.96 148.3225 
" style="fill: none; stroke: #000000; stroke-width: 0.8; stroke-linejoin: miter; stroke-linecap: square"/>
   </g>
   <g id="text_15">
    <g id="patch_7">
     <path d="M 131.115361 120.40933 
L 158.907361 120.40933 
L 158.907361 94.95283 
L 131.115361 94.95283 
z
" clip-path="url(#p79686ef317)" style="fill: #ffffff; stroke: #ffffff; stroke-linejoin: miter"/>
    </g>
    <g clip-path="url(#p79686ef317)">
     <!-- $C_1$ -->
     <g style="fill: #ff0000" transform="translate(136.875361 111.65458) scale(0.144 -0.144)">
      <defs>
       <path id="Cmmi10-43" d="M 934 1381 
Q 934 997 1082 705 
Q 1231 413 1514 248 
Q 1797 84 2181 84 
Q 2584 84 2957 290 
Q 3331 497 3595 842 
Q 3859 1188 3956 1575 
Q 3969 1613 4006 1613 
L 4084 1613 
Q 4109 1613 4125 1595 
Q 4141 1578 4141 1556 
Q 4141 1550 4134 1538 
Q 4025 1094 3711 705 
Q 3397 316 2959 87 
Q 2522 -141 2059 -141 
Q 1559 -141 1162 84 
Q 766 309 545 709 
Q 325 1109 325 1613 
Q 325 2150 565 2676 
Q 806 3203 1212 3614 
Q 1619 4025 2139 4269 
Q 2659 4513 3194 4513 
Q 3406 4513 3600 4448 
Q 3794 4384 3959 4253 
Q 4125 4122 4231 3950 
L 4738 4500 
Q 4738 4513 4769 4513 
L 4806 4513 
Q 4831 4513 4847 4491 
Q 4863 4469 4863 4447 
L 4428 2719 
Q 4428 2675 4378 2675 
L 4263 2675 
Q 4213 2675 4213 2747 
Q 4238 2888 4238 3084 
Q 4238 3397 4131 3673 
Q 4025 3950 3801 4119 
Q 3578 4288 3256 4288 
Q 2734 4288 2300 4025 
Q 1866 3763 1564 3336 
Q 1263 2909 1098 2389 
Q 934 1869 934 1381 
z
" transform="scale(0.015625)"/>
       <path id="Cmr10-31" d="M 594 0 
L 594 225 
Q 1394 225 1394 428 
L 1394 3788 
Q 1063 3628 556 3628 
L 556 3853 
Q 1341 3853 1741 4263 
L 1831 4263 
Q 1853 4263 1873 4245 
Q 1894 4228 1894 4206 
L 1894 428 
Q 1894 225 2694 225 
L 2694 0 
L 594 0 
z
" transform="scale(0.015625)"/>
      </defs>
      <use xlink:href="#Cmmi10-43" transform="translate(0 0.484375)"/>
      <use xlink:href="#Cmr10-31" transform="translate(71.386719 -16.521875) scale(0.7)"/>
     </g>
    </g>
   </g>
   <g id="text_16">
    <g id="patch_8">
     <path d="M 158.82542 205.386845 
L 186.61742 205.386845 
L 186.61742 179.930345 
L 158.82542 179.930345 
z
" clip-path="url(#p79686ef317)" style="fill: #ffffff; stroke: #ffffff; stroke-linejoin: miter"/>
    </g>
    <g clip-path="url(#p79686ef317)">
     <!-- $C_2$ -->
     <g style="fill: #800080" transform="translate(164.58542 196.632095) scale(0.144 -0.144)">
      <defs>
       <path id="Cmr10-32" d="M 319 0 
L 319 172 
Q 319 188 331 206 
L 1325 1306 
Q 1550 1550 1690 1715 
Q 1831 1881 1968 2097 
Q 2106 2313 2186 2536 
Q 2266 2759 2266 3009 
Q 2266 3272 2169 3511 
Q 2072 3750 1880 3894 
Q 1688 4038 1416 4038 
Q 1138 4038 916 3870 
Q 694 3703 603 3438 
Q 628 3444 672 3444 
Q 816 3444 917 3347 
Q 1019 3250 1019 3097 
Q 1019 2950 917 2848 
Q 816 2747 672 2747 
Q 522 2747 420 2851 
Q 319 2956 319 3097 
Q 319 3338 409 3548 
Q 500 3759 670 3923 
Q 841 4088 1055 4175 
Q 1269 4263 1509 4263 
Q 1875 4263 2190 4108 
Q 2506 3953 2690 3670 
Q 2875 3388 2875 3009 
Q 2875 2731 2753 2481 
Q 2631 2231 2440 2026 
Q 2250 1822 1953 1562 
Q 1656 1303 1563 1216 
L 838 519 
L 1453 519 
Q 1906 519 2211 526 
Q 2516 534 2534 550 
Q 2609 631 2688 1141 
L 2875 1141 
L 2694 0 
L 319 0 
z
" transform="scale(0.015625)"/>
      </defs>
      <use xlink:href="#Cmmi10-43" transform="translate(0 0.484375)"/>
      <use xlink:href="#Cmr10-32" transform="translate(71.386719 -16.521875) scale(0.7)"/>
     </g>
    </g>
   </g>
  </g>
 </g>
 <defs>
  <clipPath id="p79686ef317">
   <rect x="7.2" y="23.4425" width="249.76" height="249.76"/>
  </clipPath>
 </defs>
</svg>
