<?xml version="1.0" encoding="utf-8" standalone="no"?>
<!DOCTYPE svg PUBLIC "-//W3C//DTD SVG 1.1//EN"
  "http://www.w3.org/Graphics/SVG/1.1/DTD/svg11.dtd">
<svg xmlns:xlink="http://www.w3.org/1999/xlink" width="274.176923pt" height="278.434945pt" viewBox="0 0 274.176923 278.434945" xmlns="http://www.w3.org/2000/svg" version="1.1">
 <metadata>
  <rdf:RDF xmlns:dc="http://purl.org/dc/elements/1.1/" xmlns:cc="http://creativecommons.org/ns#" xmlns:rdf="http://www.w3.org/1999/02/22-rdf-syntax-ns#">
   <cc:Work>
    <dc:type rdf:resource="http://purl.org/dc/dcmitype/StillImage"/>
    <dc:date>2023-05-16T16:10:18.595738</dc:date>
    <dc:format>image/svg+xml</dc:format>
    <dc:creator>
     <cc:Agent>
      <dc:title>Matplotlib v3.6.2, https://matplotlib.org/</dc:title>
     </cc:Agent>
    </dc:creator>
   </cc:Work>
  </rdf:RDF>
 </metadata>
 <defs>
  <style type="text/css">*{stroke-linejoin: round; stroke-linecap: butt}</style>
 </defs>
 <g id="figure_1">
  <g id="patch_1">
   <path d="M 0 278.434945 
L 274.176923 278.434945 
L 274.176923 0 
L 0 0 
z
" style="fill: #ffffff"/>
  </g>
  <g id="axes_1">
   <g id="patch_2">
    <path d="M 7.2 270.079423 
L 253.836923 270.079423 
L 253.836923 23.4425 
L 7.2 23.4425 
z
" style="fill: #ffffff"/>
   </g>
   <g id="Quiver_1">
    <path d="M 23.462514 254.55682 
L 23.092559 253.916038 
L 22.352648 253.916038 
L 21.982693 254.55682 
L 22.352648 255.197601 
L 23.092559 255.197601 
L 23.462514 254.55682 
L 23.092559 253.916038 
" clip-path="url(#p0bcd401fe8)" style="fill: #0000ff"/>
    <path d="M 23.462514 230.602184 
L 23.092559 229.961403 
L 22.352648 229.961403 
L 21.982693 230.602184 
L 22.352648 231.242966 
L 23.092559 231.242966 
L 23.462514 230.602184 
L 23.092559 229.961403 
" clip-path="url(#p0bcd401fe8)" style="fill: #0000ff"/>
    <path d="M 23.462514 206.647549 
L 23.092559 206.006768 
L 22.352648 206.006768 
L 21.982693 206.647549 
L 22.352648 207.288331 
L 23.092559 207.288331 
L 23.462514 206.647549 
L 23.092559 206.006768 
" clip-path="url(#p0bcd401fe8)" style="fill: #0000ff"/>
    <path d="M 23.462514 182.692914 
L 23.092559 182.052133 
L 22.352648 182.052133 
L 21.982693 182.692914 
L 22.352648 183.333696 
L 23.092559 183.333696 
L 23.462514 182.692914 
L 23.092559 182.052133 
" clip-path="url(#p0bcd401fe8)" style="fill: #0000ff"/>
    <path d="M 23.462514 158.738279 
L 23.092559 158.097498 
L 22.352648 158.097498 
L 21.982693 158.738279 
L 22.352648 159.379061 
L 23.092559 159.379061 
L 23.462514 158.738279 
L 23.092559 158.097498 
" clip-path="url(#p0bcd401fe8)" style="fill: #0000ff"/>
    <path d="M 23.462514 134.783644 
L 23.092559 134.142862 
L 22.352648 134.142862 
L 21.982693 134.783644 
L 22.352648 135.424426 
L 23.092559 135.424426 
L 23.462514 134.783644 
L 23.092559 134.142862 
" clip-path="url(#p0bcd401fe8)" style="fill: #0000ff"/>
    <path d="M 23.462514 110.829009 
L 23.092559 110.188227 
L 22.352648 110.188227 
L 21.982693 110.829009 
L 22.352648 111.46979 
L 23.092559 111.46979 
L 23.462514 110.829009 
L 23.092559 110.188227 
" clip-path="url(#p0bcd401fe8)" style="fill: #0000ff"/>
    <path d="M 23.462514 86.874374 
L 23.092559 86.233592 
L 22.352648 86.233592 
L 21.982693 86.874374 
L 22.352648 87.515155 
L 23.092559 87.515155 
L 23.462514 86.874374 
L 23.092559 86.233592 
" clip-path="url(#p0bcd401fe8)" style="fill: #0000ff"/>
    <path d="M 23.462514 62.919739 
L 23.092559 62.278957 
L 22.352648 62.278957 
L 21.982693 62.919739 
L 22.352648 63.56052 
L 23.092559 63.56052 
L 23.462514 62.919739 
L 23.092559 62.278957 
" clip-path="url(#p0bcd401fe8)" style="fill: #0000ff"/>
    <path d="M 23.462514 38.965104 
L 23.092559 38.324322 
L 22.352648 38.324322 
L 21.982693 38.965104 
L 22.352648 39.605885 
L 23.092559 39.605885 
L 23.462514 38.965104 
L 23.092559 38.324322 
" clip-path="url(#p0bcd401fe8)" style="fill: #0000ff"/>
    <path d="M 46.981729 254.55682 
L 46.981729 254.86131 
L 47.590709 254.55682 
L 46.677239 257.60172 
L 45.763769 254.55682 
L 46.372749 254.86131 
L 46.372749 254.55682 
L 46.981729 254.55682 
" clip-path="url(#p0bcd401fe8)" style="fill: #0000ff"/>
    <path d="M 46.981729 230.602184 
L 46.981729 230.906674 
L 47.590709 230.602184 
L 46.677239 233.647085 
L 45.763769 230.602184 
L 46.372749 230.906674 
L 46.372749 230.602184 
L 46.981729 230.602184 
" clip-path="url(#p0bcd401fe8)" style="fill: #0000ff"/>
    <path d="M 46.981729 206.647549 
L 46.981729 206.952039 
L 47.590709 206.647549 
L 46.677239 209.69245 
L 45.763769 206.647549 
L 46.372749 206.952039 
L 46.372749 206.647549 
L 46.981729 206.647549 
" clip-path="url(#p0bcd401fe8)" style="fill: #0000ff"/>
    <path d="M 46.981729 182.692914 
L 46.981729 182.997404 
L 47.590709 182.692914 
L 46.677239 185.737814 
L 45.763769 182.692914 
L 46.372749 182.997404 
L 46.372749 182.692914 
L 46.981729 182.692914 
" clip-path="url(#p0bcd401fe8)" style="fill: #0000ff"/>
    <path d="M 46.981729 158.738279 
L 46.981729 159.042769 
L 47.590709 158.738279 
L 46.677239 161.783179 
L 45.763769 158.738279 
L 46.372749 159.042769 
L 46.372749 158.738279 
L 46.981729 158.738279 
" clip-path="url(#p0bcd401fe8)" style="fill: #0000ff"/>
    <path d="M 46.981729 134.783644 
L 46.981729 135.088134 
L 47.590709 134.783644 
L 46.677239 137.828544 
L 45.763769 134.783644 
L 46.372749 135.088134 
L 46.372749 134.783644 
L 46.981729 134.783644 
" clip-path="url(#p0bcd401fe8)" style="fill: #0000ff"/>
    <path d="M 46.981729 110.829009 
L 46.981729 111.133499 
L 47.590709 110.829009 
L 46.677239 113.873909 
L 45.763769 110.829009 
L 46.372749 111.133499 
L 46.372749 110.829009 
L 46.981729 110.829009 
" clip-path="url(#p0bcd401fe8)" style="fill: #0000ff"/>
    <path d="M 46.981729 86.874374 
L 46.981729 87.178864 
L 47.590709 86.874374 
L 46.677239 89.919274 
L 45.763769 86.874374 
L 46.372749 87.178864 
L 46.372749 86.874374 
L 46.981729 86.874374 
" clip-path="url(#p0bcd401fe8)" style="fill: #0000ff"/>
    <path d="M 46.981729 62.919739 
L 46.981729 63.224229 
L 47.590709 62.919739 
L 46.677239 65.964639 
L 45.763769 62.919739 
L 46.372749 63.224229 
L 46.372749 62.919739 
L 46.981729 62.919739 
" clip-path="url(#p0bcd401fe8)" style="fill: #0000ff"/>
    <path d="M 46.981729 38.965104 
L 46.981729 39.269594 
L 47.590709 38.965104 
L 46.677239 42.010004 
L 45.763769 38.965104 
L 46.372749 39.269594 
L 46.372749 38.965104 
L 46.981729 38.965104 
" clip-path="url(#p0bcd401fe8)" style="fill: #0000ff"/>
    <path d="M 71.240854 254.55682 
L 71.240854 255.1658 
L 72.458814 254.55682 
L 70.631874 260.64662 
L 68.804934 254.55682 
L 70.022894 255.1658 
L 70.022894 254.55682 
L 71.240854 254.55682 
" clip-path="url(#p0bcd401fe8)" style="fill: #0000ff"/>
    <path d="M 71.240854 230.602184 
L 71.240854 231.211164 
L 72.458814 230.602184 
L 70.631874 236.691985 
L 68.804934 230.602184 
L 70.022894 231.211164 
L 70.022894 230.602184 
L 71.240854 230.602184 
" clip-path="url(#p0bcd401fe8)" style="fill: #0000ff"/>
    <path d="M 71.240854 206.647549 
L 71.240854 207.256529 
L 72.458814 206.647549 
L 70.631874 212.73735 
L 68.804934 206.647549 
L 70.022894 207.256529 
L 70.022894 206.647549 
L 71.240854 206.647549 
" clip-path="url(#p0bcd401fe8)" style="fill: #0000ff"/>
    <path d="M 71.240854 182.692914 
L 71.240854 183.301894 
L 72.458814 182.692914 
L 70.631874 188.782715 
L 68.804934 182.692914 
L 70.022894 183.301894 
L 70.022894 182.692914 
L 71.240854 182.692914 
" clip-path="url(#p0bcd401fe8)" style="fill: #0000ff"/>
    <path d="M 71.240854 158.738279 
L 71.240854 159.347259 
L 72.458814 158.738279 
L 70.631874 164.82808 
L 68.804934 158.738279 
L 70.022894 159.347259 
L 70.022894 158.738279 
L 71.240854 158.738279 
" clip-path="url(#p0bcd401fe8)" style="fill: #0000ff"/>
    <path d="M 71.240854 134.783644 
L 71.240854 135.392624 
L 72.458814 134.783644 
L 70.631874 140.873445 
L 68.804934 134.783644 
L 70.022894 135.392624 
L 70.022894 134.783644 
L 71.240854 134.783644 
" clip-path="url(#p0bcd401fe8)" style="fill: #0000ff"/>
    <path d="M 71.240854 110.829009 
L 71.240854 111.437989 
L 72.458814 110.829009 
L 70.631874 116.918809 
L 68.804934 110.829009 
L 70.022894 111.437989 
L 70.022894 110.829009 
L 71.240854 110.829009 
" clip-path="url(#p0bcd401fe8)" style="fill: #0000ff"/>
    <path d="M 71.240854 86.874374 
L 71.240854 87.483354 
L 72.458814 86.874374 
L 70.631874 92.964174 
L 68.804934 86.874374 
L 70.022894 87.483354 
L 70.022894 86.874374 
L 71.240854 86.874374 
" clip-path="url(#p0bcd401fe8)" style="fill: #0000ff"/>
    <path d="M 71.240854 62.919739 
L 71.240854 63.528719 
L 72.458814 62.919739 
L 70.631874 69.009539 
L 68.804934 62.919739 
L 70.022894 63.528719 
L 70.022894 62.919739 
L 71.240854 62.919739 
" clip-path="url(#p0bcd401fe8)" style="fill: #0000ff"/>
    <path d="M 71.240854 38.965104 
L 71.240854 39.574084 
L 72.458814 38.965104 
L 70.631874 45.054904 
L 68.804934 38.965104 
L 70.022894 39.574084 
L 70.022894 38.965104 
L 71.240854 38.965104 
" clip-path="url(#p0bcd401fe8)" style="fill: #0000ff"/>
    <path d="M 95.32642 254.55682 
L 95.32642 257.032323 
L 96.806241 256.292413 
L 94.586509 263.69152 
L 92.366777 256.292413 
L 93.846598 257.032323 
L 93.846598 254.55682 
L 95.32642 254.55682 
" clip-path="url(#p0bcd401fe8)" style="fill: #0000ff"/>
    <path d="M 95.32642 230.602184 
L 95.32642 233.077688 
L 96.806241 232.337778 
L 94.586509 239.736885 
L 92.366777 232.337778 
L 93.846598 233.077688 
L 93.846598 230.602184 
L 95.32642 230.602184 
" clip-path="url(#p0bcd401fe8)" style="fill: #0000ff"/>
    <path d="M 95.32642 206.647549 
L 95.32642 209.123053 
L 96.806241 208.383142 
L 94.586509 215.78225 
L 92.366777 208.383142 
L 93.846598 209.123053 
L 93.846598 206.647549 
L 95.32642 206.647549 
" clip-path="url(#p0bcd401fe8)" style="fill: #0000ff"/>
    <path d="M 95.32642 182.692914 
L 95.32642 185.168418 
L 96.806241 184.428507 
L 94.586509 191.827615 
L 92.366777 184.428507 
L 93.846598 185.168418 
L 93.846598 182.692914 
L 95.32642 182.692914 
" clip-path="url(#p0bcd401fe8)" style="fill: #0000ff"/>
    <path d="M 95.32642 158.738279 
L 95.32642 161.213783 
L 96.806241 160.473872 
L 94.586509 167.87298 
L 92.366777 160.473872 
L 93.846598 161.213783 
L 93.846598 158.738279 
L 95.32642 158.738279 
" clip-path="url(#p0bcd401fe8)" style="fill: #0000ff"/>
    <path d="M 95.32642 134.783644 
L 95.32642 137.259148 
L 96.806241 136.519237 
L 94.586509 143.918345 
L 92.366777 136.519237 
L 93.846598 137.259148 
L 93.846598 134.783644 
L 95.32642 134.783644 
" clip-path="url(#p0bcd401fe8)" style="fill: #0000ff"/>
    <path d="M 95.32642 110.829009 
L 95.32642 113.304513 
L 96.806241 112.564602 
L 94.586509 119.96371 
L 92.366777 112.564602 
L 93.846598 113.304513 
L 93.846598 110.829009 
L 95.32642 110.829009 
" clip-path="url(#p0bcd401fe8)" style="fill: #0000ff"/>
    <path d="M 95.32642 86.874374 
L 95.32642 89.349878 
L 96.806241 88.609967 
L 94.586509 96.009075 
L 92.366777 88.609967 
L 93.846598 89.349878 
L 93.846598 86.874374 
L 95.32642 86.874374 
" clip-path="url(#p0bcd401fe8)" style="fill: #0000ff"/>
    <path d="M 95.32642 62.919739 
L 95.32642 65.395243 
L 96.806241 64.655332 
L 94.586509 72.05444 
L 92.366777 64.655332 
L 93.846598 65.395243 
L 93.846598 62.919739 
L 95.32642 62.919739 
" clip-path="url(#p0bcd401fe8)" style="fill: #0000ff"/>
    <path d="M 95.32642 38.965104 
L 95.32642 41.440607 
L 96.806241 40.700697 
L 94.586509 48.099804 
L 92.366777 40.700697 
L 93.846598 41.440607 
L 93.846598 38.965104 
L 95.32642 38.965104 
" clip-path="url(#p0bcd401fe8)" style="fill: #0000ff"/>
    <path d="M 119.281055 254.55682 
L 119.281055 260.077224 
L 120.760876 259.337313 
L 118.541144 266.736421 
L 116.321412 259.337313 
L 117.801233 260.077224 
L 117.801233 254.55682 
L 119.281055 254.55682 
" clip-path="url(#p0bcd401fe8)" style="fill: #0000ff"/>
    <path d="M 119.281055 230.602184 
L 119.281055 236.122589 
L 120.760876 235.382678 
L 118.541144 242.781786 
L 116.321412 235.382678 
L 117.801233 236.122589 
L 117.801233 230.602184 
L 119.281055 230.602184 
" clip-path="url(#p0bcd401fe8)" style="fill: #0000ff"/>
    <path d="M 119.281055 206.647549 
L 119.281055 212.167954 
L 120.760876 211.428043 
L 118.541144 218.82715 
L 116.321412 211.428043 
L 117.801233 212.167954 
L 117.801233 206.647549 
L 119.281055 206.647549 
" clip-path="url(#p0bcd401fe8)" style="fill: #0000ff"/>
    <path d="M 119.281055 182.692914 
L 119.281055 188.213318 
L 120.760876 187.473408 
L 118.541144 194.872515 
L 116.321412 187.473408 
L 117.801233 188.213318 
L 117.801233 182.692914 
L 119.281055 182.692914 
" clip-path="url(#p0bcd401fe8)" style="fill: #0000ff"/>
    <path d="M 119.281055 158.738279 
L 119.281055 164.258683 
L 120.760876 163.518773 
L 118.541144 170.91788 
L 116.321412 163.518773 
L 117.801233 164.258683 
L 117.801233 158.738279 
L 119.281055 158.738279 
" clip-path="url(#p0bcd401fe8)" style="fill: #0000ff"/>
    <path d="M 119.281055 134.783644 
L 119.281055 140.304048 
L 120.760876 139.564137 
L 118.541144 146.963245 
L 116.321412 139.564137 
L 117.801233 140.304048 
L 117.801233 134.783644 
L 119.281055 134.783644 
" clip-path="url(#p0bcd401fe8)" style="fill: #0000ff"/>
    <path d="M 119.281055 110.829009 
L 119.281055 116.349413 
L 120.760876 115.609502 
L 118.541144 123.00861 
L 116.321412 115.609502 
L 117.801233 116.349413 
L 117.801233 110.829009 
L 119.281055 110.829009 
" clip-path="url(#p0bcd401fe8)" style="fill: #0000ff"/>
    <path d="M 119.281055 86.874374 
L 119.281055 92.394778 
L 120.760876 91.654867 
L 118.541144 99.053975 
L 116.321412 91.654867 
L 117.801233 92.394778 
L 117.801233 86.874374 
L 119.281055 86.874374 
" clip-path="url(#p0bcd401fe8)" style="fill: #0000ff"/>
    <path d="M 119.281055 62.919739 
L 119.281055 68.440143 
L 120.760876 67.700232 
L 118.541144 75.09934 
L 116.321412 67.700232 
L 117.801233 68.440143 
L 117.801233 62.919739 
L 119.281055 62.919739 
" clip-path="url(#p0bcd401fe8)" style="fill: #0000ff"/>
    <path d="M 119.281055 38.965104 
L 119.281055 44.485508 
L 120.760876 43.745597 
L 118.541144 51.144705 
L 116.321412 43.745597 
L 117.801233 44.485508 
L 117.801233 38.965104 
L 119.281055 38.965104 
" clip-path="url(#p0bcd401fe8)" style="fill: #0000ff"/>
    <path d="M 143.23569 254.55682 
L 143.23569 263.122124 
L 144.715511 262.382213 
L 142.495779 269.781321 
L 140.276047 262.382213 
L 141.755868 263.122124 
L 141.755868 254.55682 
L 143.23569 254.55682 
" clip-path="url(#p0bcd401fe8)" style="fill: #0000ff"/>
    <path d="M 143.23569 230.602184 
L 143.23569 239.167489 
L 144.715511 238.427578 
L 142.495779 245.826686 
L 140.276047 238.427578 
L 141.755868 239.167489 
L 141.755868 230.602184 
L 143.23569 230.602184 
" clip-path="url(#p0bcd401fe8)" style="fill: #0000ff"/>
    <path d="M 143.23569 206.647549 
L 143.23569 215.212854 
L 144.715511 214.472943 
L 142.495779 221.872051 
L 140.276047 214.472943 
L 141.755868 215.212854 
L 141.755868 206.647549 
L 143.23569 206.647549 
" clip-path="url(#p0bcd401fe8)" style="fill: #0000ff"/>
    <path d="M 143.23569 182.692914 
L 143.23569 191.258219 
L 144.715511 190.518308 
L 142.495779 197.917416 
L 140.276047 190.518308 
L 141.755868 191.258219 
L 141.755868 182.692914 
L 143.23569 182.692914 
" clip-path="url(#p0bcd401fe8)" style="fill: #0000ff"/>
    <path d="M 143.23569 158.738279 
L 143.23569 167.303584 
L 144.715511 166.563673 
L 142.495779 173.962781 
L 140.276047 166.563673 
L 141.755868 167.303584 
L 141.755868 158.738279 
L 143.23569 158.738279 
" clip-path="url(#p0bcd401fe8)" style="fill: #0000ff"/>
    <path d="M 143.23569 134.783644 
L 143.23569 143.348948 
L 144.715511 142.609038 
L 142.495779 150.008145 
L 140.276047 142.609038 
L 141.755868 143.348948 
L 141.755868 134.783644 
L 143.23569 134.783644 
" clip-path="url(#p0bcd401fe8)" style="fill: #0000ff"/>
    <path d="M 143.23569 110.829009 
L 143.23569 119.394313 
L 144.715511 118.654403 
L 142.495779 126.05351 
L 140.276047 118.654403 
L 141.755868 119.394313 
L 141.755868 110.829009 
L 143.23569 110.829009 
" clip-path="url(#p0bcd401fe8)" style="fill: #0000ff"/>
    <path d="M 143.23569 86.874374 
L 143.23569 95.439678 
L 144.715511 94.699767 
L 142.495779 102.098875 
L 140.276047 94.699767 
L 141.755868 95.439678 
L 141.755868 86.874374 
L 143.23569 86.874374 
" clip-path="url(#p0bcd401fe8)" style="fill: #0000ff"/>
    <path d="M 143.23569 62.919739 
L 143.23569 71.485043 
L 144.715511 70.745132 
L 142.495779 78.14424 
L 140.276047 70.745132 
L 141.755868 71.485043 
L 141.755868 62.919739 
L 143.23569 62.919739 
" clip-path="url(#p0bcd401fe8)" style="fill: #0000ff"/>
    <path d="M 143.23569 38.965104 
L 143.23569 47.530408 
L 144.715511 46.790497 
L 142.495779 54.189605 
L 140.276047 46.790497 
L 141.755868 47.530408 
L 141.755868 38.965104 
L 143.23569 38.965104 
" clip-path="url(#p0bcd401fe8)" style="fill: #0000ff"/>
    <path d="M 167.190325 254.55682 
L 167.190325 266.167024 
L 168.670147 265.427114 
L 166.450414 272.826221 
L 164.230682 265.427114 
L 165.710503 266.167024 
L 165.710503 254.55682 
L 167.190325 254.55682 
" clip-path="url(#p0bcd401fe8)" style="fill: #0000ff"/>
    <path d="M 167.190325 230.602184 
L 167.190325 242.212389 
L 168.670147 241.472478 
L 166.450414 248.871586 
L 164.230682 241.472478 
L 165.710503 242.212389 
L 165.710503 230.602184 
L 167.190325 230.602184 
" clip-path="url(#p0bcd401fe8)" style="fill: #0000ff"/>
    <path d="M 167.190325 206.647549 
L 167.190325 218.257754 
L 168.670147 217.517843 
L 166.450414 224.916951 
L 164.230682 217.517843 
L 165.710503 218.257754 
L 165.710503 206.647549 
L 167.190325 206.647549 
" clip-path="url(#p0bcd401fe8)" style="fill: #0000ff"/>
    <path d="M 167.190325 182.692914 
L 167.190325 194.303119 
L 168.670147 193.563208 
L 166.450414 200.962316 
L 164.230682 193.563208 
L 165.710503 194.303119 
L 165.710503 182.692914 
L 167.190325 182.692914 
" clip-path="url(#p0bcd401fe8)" style="fill: #0000ff"/>
    <path d="M 167.190325 158.738279 
L 167.190325 170.348484 
L 168.670147 169.608573 
L 166.450414 177.007681 
L 164.230682 169.608573 
L 165.710503 170.348484 
L 165.710503 158.738279 
L 167.190325 158.738279 
" clip-path="url(#p0bcd401fe8)" style="fill: #0000ff"/>
    <path d="M 167.190325 134.783644 
L 167.190325 146.393849 
L 168.670147 145.653938 
L 166.450414 153.053046 
L 164.230682 145.653938 
L 165.710503 146.393849 
L 165.710503 134.783644 
L 167.190325 134.783644 
" clip-path="url(#p0bcd401fe8)" style="fill: #0000ff"/>
    <path d="M 167.190325 110.829009 
L 167.190325 122.439214 
L 168.670147 121.699303 
L 166.450414 129.098411 
L 164.230682 121.699303 
L 165.710503 122.439214 
L 165.710503 110.829009 
L 167.190325 110.829009 
" clip-path="url(#p0bcd401fe8)" style="fill: #0000ff"/>
    <path d="M 167.190325 86.874374 
L 167.190325 98.484579 
L 168.670147 97.744668 
L 166.450414 105.143775 
L 164.230682 97.744668 
L 165.710503 98.484579 
L 165.710503 86.874374 
L 167.190325 86.874374 
" clip-path="url(#p0bcd401fe8)" style="fill: #0000ff"/>
    <path d="M 167.190325 62.919739 
L 167.190325 74.529943 
L 168.670147 73.790033 
L 166.450414 81.18914 
L 164.230682 73.790033 
L 165.710503 74.529943 
L 165.710503 62.919739 
L 167.190325 62.919739 
" clip-path="url(#p0bcd401fe8)" style="fill: #0000ff"/>
    <path d="M 167.190325 38.965104 
L 167.190325 50.575308 
L 168.670147 49.835398 
L 166.450414 57.234505 
L 164.230682 49.835398 
L 165.710503 50.575308 
L 165.710503 38.965104 
L 167.190325 38.965104 
" clip-path="url(#p0bcd401fe8)" style="fill: #0000ff"/>
    <path d="M 191.14496 254.55682 
L 191.14496 269.211925 
L 192.624782 268.472014 
L 190.405049 275.871122 
L 188.185317 268.472014 
L 189.665139 269.211925 
L 189.665139 254.55682 
L 191.14496 254.55682 
" clip-path="url(#p0bcd401fe8)" style="fill: #0000ff"/>
    <path d="M 191.14496 230.602184 
L 191.14496 245.257289 
L 192.624782 244.517379 
L 190.405049 251.916486 
L 188.185317 244.517379 
L 189.665139 245.257289 
L 189.665139 230.602184 
L 191.14496 230.602184 
" clip-path="url(#p0bcd401fe8)" style="fill: #0000ff"/>
    <path d="M 191.14496 206.647549 
L 191.14496 221.302654 
L 192.624782 220.562744 
L 190.405049 227.961851 
L 188.185317 220.562744 
L 189.665139 221.302654 
L 189.665139 206.647549 
L 191.14496 206.647549 
" clip-path="url(#p0bcd401fe8)" style="fill: #0000ff"/>
    <path d="M 191.14496 182.692914 
L 191.14496 197.348019 
L 192.624782 196.608109 
L 190.405049 204.007216 
L 188.185317 196.608109 
L 189.665139 197.348019 
L 189.665139 182.692914 
L 191.14496 182.692914 
" clip-path="url(#p0bcd401fe8)" style="fill: #0000ff"/>
    <path d="M 191.14496 158.738279 
L 191.14496 173.393384 
L 192.624782 172.653473 
L 190.405049 180.052581 
L 188.185317 172.653473 
L 189.665139 173.393384 
L 189.665139 158.738279 
L 191.14496 158.738279 
" clip-path="url(#p0bcd401fe8)" style="fill: #0000ff"/>
    <path d="M 191.14496 134.783644 
L 191.14496 149.438749 
L 192.624782 148.698838 
L 190.405049 156.097946 
L 188.185317 148.698838 
L 189.665139 149.438749 
L 189.665139 134.783644 
L 191.14496 134.783644 
" clip-path="url(#p0bcd401fe8)" style="fill: #0000ff"/>
    <path d="M 191.14496 110.829009 
L 191.14496 125.484114 
L 192.624782 124.744203 
L 190.405049 132.143311 
L 188.185317 124.744203 
L 189.665139 125.484114 
L 189.665139 110.829009 
L 191.14496 110.829009 
" clip-path="url(#p0bcd401fe8)" style="fill: #0000ff"/>
    <path d="M 191.14496 86.874374 
L 191.14496 101.529479 
L 192.624782 100.789568 
L 190.405049 108.188676 
L 188.185317 100.789568 
L 189.665139 101.529479 
L 189.665139 86.874374 
L 191.14496 86.874374 
" clip-path="url(#p0bcd401fe8)" style="fill: #0000ff"/>
    <path d="M 191.14496 62.919739 
L 191.14496 77.574844 
L 192.624782 76.834933 
L 190.405049 84.234041 
L 188.185317 76.834933 
L 189.665139 77.574844 
L 189.665139 62.919739 
L 191.14496 62.919739 
" clip-path="url(#p0bcd401fe8)" style="fill: #0000ff"/>
    <path d="M 191.14496 38.965104 
L 191.14496 53.620209 
L 192.624782 52.880298 
L 190.405049 60.279406 
L 188.185317 52.880298 
L 189.665139 53.620209 
L 189.665139 38.965104 
L 191.14496 38.965104 
" clip-path="url(#p0bcd401fe8)" style="fill: #0000ff"/>
    <path d="M 215.099595 254.55682 
L 215.099595 272.256825 
L 216.579417 271.516914 
L 214.359684 278.916022 
L 212.139952 271.516914 
L 213.619774 272.256825 
L 213.619774 254.55682 
L 215.099595 254.55682 
" clip-path="url(#p0bcd401fe8)" style="fill: #0000ff"/>
    <path d="M 215.099595 230.602184 
L 215.099595 248.30219 
L 216.579417 247.562279 
L 214.359684 254.961387 
L 212.139952 247.562279 
L 213.619774 248.30219 
L 213.619774 230.602184 
L 215.099595 230.602184 
" clip-path="url(#p0bcd401fe8)" style="fill: #0000ff"/>
    <path d="M 215.099595 206.647549 
L 215.099595 224.347555 
L 216.579417 223.607644 
L 214.359684 231.006752 
L 212.139952 223.607644 
L 213.619774 224.347555 
L 213.619774 206.647549 
L 215.099595 206.647549 
" clip-path="url(#p0bcd401fe8)" style="fill: #0000ff"/>
    <path d="M 215.099595 182.692914 
L 215.099595 200.39292 
L 216.579417 199.653009 
L 214.359684 207.052116 
L 212.139952 199.653009 
L 213.619774 200.39292 
L 213.619774 182.692914 
L 215.099595 182.692914 
" clip-path="url(#p0bcd401fe8)" style="fill: #0000ff"/>
    <path d="M 215.099595 158.738279 
L 215.099595 176.438284 
L 216.579417 175.698374 
L 214.359684 183.097481 
L 212.139952 175.698374 
L 213.619774 176.438284 
L 213.619774 158.738279 
L 215.099595 158.738279 
" clip-path="url(#p0bcd401fe8)" style="fill: #0000ff"/>
    <path d="M 215.099595 134.783644 
L 215.099595 152.483649 
L 216.579417 151.743739 
L 214.359684 159.142846 
L 212.139952 151.743739 
L 213.619774 152.483649 
L 213.619774 134.783644 
L 215.099595 134.783644 
" clip-path="url(#p0bcd401fe8)" style="fill: #0000ff"/>
    <path d="M 215.099595 110.829009 
L 215.099595 128.529014 
L 216.579417 127.789103 
L 214.359684 135.188211 
L 212.139952 127.789103 
L 213.619774 128.529014 
L 213.619774 110.829009 
L 215.099595 110.829009 
" clip-path="url(#p0bcd401fe8)" style="fill: #0000ff"/>
    <path d="M 215.099595 86.874374 
L 215.099595 104.574379 
L 216.579417 103.834468 
L 214.359684 111.233576 
L 212.139952 103.834468 
L 213.619774 104.574379 
L 213.619774 86.874374 
L 215.099595 86.874374 
" clip-path="url(#p0bcd401fe8)" style="fill: #0000ff"/>
    <path d="M 215.099595 62.919739 
L 215.099595 80.619744 
L 216.579417 79.879833 
L 214.359684 87.278941 
L 212.139952 79.879833 
L 213.619774 80.619744 
L 213.619774 62.919739 
L 215.099595 62.919739 
" clip-path="url(#p0bcd401fe8)" style="fill: #0000ff"/>
    <path d="M 215.099595 38.965104 
L 215.099595 56.665109 
L 216.579417 55.925198 
L 214.359684 63.324306 
L 212.139952 55.925198 
L 213.619774 56.665109 
L 213.619774 38.965104 
L 215.099595 38.965104 
" clip-path="url(#p0bcd401fe8)" style="fill: #0000ff"/>
    <path d="M 239.05423 254.55682 
L 239.05423 275.301725 
L 240.534052 274.561814 
L 238.31432 281.960922 
L 236.094587 274.561814 
L 237.574409 275.301725 
L 237.574409 254.55682 
L 239.05423 254.55682 
" clip-path="url(#p0bcd401fe8)" style="fill: #0000ff"/>
    <path d="M 239.05423 230.602184 
L 239.05423 251.34709 
L 240.534052 250.607179 
L 238.31432 258.006287 
L 236.094587 250.607179 
L 237.574409 251.34709 
L 237.574409 230.602184 
L 239.05423 230.602184 
" clip-path="url(#p0bcd401fe8)" style="fill: #0000ff"/>
    <path d="M 239.05423 206.647549 
L 239.05423 227.392455 
L 240.534052 226.652544 
L 238.31432 234.051652 
L 236.094587 226.652544 
L 237.574409 227.392455 
L 237.574409 206.647549 
L 239.05423 206.647549 
" clip-path="url(#p0bcd401fe8)" style="fill: #0000ff"/>
    <path d="M 239.05423 182.692914 
L 239.05423 203.43782 
L 240.534052 202.697909 
L 238.31432 210.097017 
L 236.094587 202.697909 
L 237.574409 203.43782 
L 237.574409 182.692914 
L 239.05423 182.692914 
" clip-path="url(#p0bcd401fe8)" style="fill: #0000ff"/>
    <path d="M 239.05423 158.738279 
L 239.05423 179.483185 
L 240.534052 178.743274 
L 238.31432 186.142382 
L 236.094587 178.743274 
L 237.574409 179.483185 
L 237.574409 158.738279 
L 239.05423 158.738279 
" clip-path="url(#p0bcd401fe8)" style="fill: #0000ff"/>
    <path d="M 239.05423 134.783644 
L 239.05423 155.52855 
L 240.534052 154.788639 
L 238.31432 162.187747 
L 236.094587 154.788639 
L 237.574409 155.52855 
L 237.574409 134.783644 
L 239.05423 134.783644 
" clip-path="url(#p0bcd401fe8)" style="fill: #0000ff"/>
    <path d="M 239.05423 110.829009 
L 239.05423 131.573915 
L 240.534052 130.834004 
L 238.31432 138.233111 
L 236.094587 130.834004 
L 237.574409 131.573915 
L 237.574409 110.829009 
L 239.05423 110.829009 
" clip-path="url(#p0bcd401fe8)" style="fill: #0000ff"/>
    <path d="M 239.05423 86.874374 
L 239.05423 107.619279 
L 240.534052 106.879369 
L 238.31432 114.278476 
L 236.094587 106.879369 
L 237.574409 107.619279 
L 237.574409 86.874374 
L 239.05423 86.874374 
" clip-path="url(#p0bcd401fe8)" style="fill: #0000ff"/>
    <path d="M 239.05423 62.919739 
L 239.05423 83.664644 
L 240.534052 82.924734 
L 238.31432 90.323841 
L 236.094587 82.924734 
L 237.574409 83.664644 
L 237.574409 62.919739 
L 239.05423 62.919739 
" clip-path="url(#p0bcd401fe8)" style="fill: #0000ff"/>
    <path d="M 239.05423 38.965104 
L 239.05423 59.710009 
L 240.534052 58.970098 
L 238.31432 66.369206 
L 236.094587 58.970098 
L 237.574409 59.710009 
L 237.574409 38.965104 
L 239.05423 38.965104 
" clip-path="url(#p0bcd401fe8)" style="fill: #0000ff"/>
   </g>
   <g id="matplotlib.axis_1">
    <g id="xtick_1">
     <g id="line2d_1">
      <defs>
       <path id="m59c6a285aa" d="M 0 0 
L 0 3.5 
" style="stroke: #000000; stroke-width: 0.8"/>
      </defs>
      <g>
       <use xlink:href="#m59c6a285aa" x="22.722604" y="254.55682" style="stroke: #000000; stroke-width: 0.8"/>
      </g>
     </g>
    </g>
    <g id="xtick_2">
     <g id="line2d_2">
      <g>
       <use xlink:href="#m59c6a285aa" x="65.840947" y="254.55682" style="stroke: #000000; stroke-width: 0.8"/>
      </g>
     </g>
     <g id="text_1">
      <!-- 1 -->
      <g transform="translate(62.659697 269.155257) scale(0.1 -0.1)">
       <defs>
        <path id="DejaVuSans-31" d="M 794 531 
L 1825 531 
L 1825 4091 
L 703 3866 
L 703 4441 
L 1819 4666 
L 2450 4666 
L 2450 531 
L 3481 531 
L 3481 0 
L 794 0 
L 794 531 
z
" transform="scale(0.015625)"/>
       </defs>
       <use xlink:href="#DejaVuSans-31"/>
      </g>
     </g>
    </g>
    <g id="xtick_3">
     <g id="line2d_3">
      <g>
       <use xlink:href="#m59c6a285aa" x="108.95929" y="254.55682" style="stroke: #000000; stroke-width: 0.8"/>
      </g>
     </g>
     <g id="text_2">
      <!-- 2 -->
      <g transform="translate(105.77804 269.155257) scale(0.1 -0.1)">
       <defs>
        <path id="DejaVuSans-32" d="M 1228 531 
L 3431 531 
L 3431 0 
L 469 0 
L 469 531 
Q 828 903 1448 1529 
Q 2069 2156 2228 2338 
Q 2531 2678 2651 2914 
Q 2772 3150 2772 3378 
Q 2772 3750 2511 3984 
Q 2250 4219 1831 4219 
Q 1534 4219 1204 4116 
Q 875 4013 500 3803 
L 500 4441 
Q 881 4594 1212 4672 
Q 1544 4750 1819 4750 
Q 2544 4750 2975 4387 
Q 3406 4025 3406 3419 
Q 3406 3131 3298 2873 
Q 3191 2616 2906 2266 
Q 2828 2175 2409 1742 
Q 1991 1309 1228 531 
z
" transform="scale(0.015625)"/>
       </defs>
       <use xlink:href="#DejaVuSans-32"/>
      </g>
     </g>
    </g>
    <g id="xtick_4">
     <g id="line2d_4">
      <g>
       <use xlink:href="#m59c6a285aa" x="152.077633" y="254.55682" style="stroke: #000000; stroke-width: 0.8"/>
      </g>
     </g>
     <g id="text_3">
      <!-- 3 -->
      <g transform="translate(148.896383 269.155257) scale(0.1 -0.1)">
       <defs>
        <path id="DejaVuSans-33" d="M 2597 2516 
Q 3050 2419 3304 2112 
Q 3559 1806 3559 1356 
Q 3559 666 3084 287 
Q 2609 -91 1734 -91 
Q 1441 -91 1130 -33 
Q 819 25 488 141 
L 488 750 
Q 750 597 1062 519 
Q 1375 441 1716 441 
Q 2309 441 2620 675 
Q 2931 909 2931 1356 
Q 2931 1769 2642 2001 
Q 2353 2234 1838 2234 
L 1294 2234 
L 1294 2753 
L 1863 2753 
Q 2328 2753 2575 2939 
Q 2822 3125 2822 3475 
Q 2822 3834 2567 4026 
Q 2313 4219 1838 4219 
Q 1578 4219 1281 4162 
Q 984 4106 628 3988 
L 628 4550 
Q 988 4650 1302 4700 
Q 1616 4750 1894 4750 
Q 2613 4750 3031 4423 
Q 3450 4097 3450 3541 
Q 3450 3153 3228 2886 
Q 3006 2619 2597 2516 
z
" transform="scale(0.015625)"/>
       </defs>
       <use xlink:href="#DejaVuSans-33"/>
      </g>
     </g>
    </g>
    <g id="xtick_5">
     <g id="line2d_5">
      <g>
       <use xlink:href="#m59c6a285aa" x="195.195976" y="254.55682" style="stroke: #000000; stroke-width: 0.8"/>
      </g>
     </g>
     <g id="text_4">
      <!-- 4 -->
      <g transform="translate(192.014726 269.155257) scale(0.1 -0.1)">
       <defs>
        <path id="DejaVuSans-34" d="M 2419 4116 
L 825 1625 
L 2419 1625 
L 2419 4116 
z
M 2253 4666 
L 3047 4666 
L 3047 1625 
L 3713 1625 
L 3713 1100 
L 3047 1100 
L 3047 0 
L 2419 0 
L 2419 1100 
L 313 1100 
L 313 1709 
L 2253 4666 
z
" transform="scale(0.015625)"/>
       </defs>
       <use xlink:href="#DejaVuSans-34"/>
      </g>
     </g>
    </g>
    <g id="xtick_6">
     <g id="line2d_6">
      <g>
       <use xlink:href="#m59c6a285aa" x="238.31432" y="254.55682" style="stroke: #000000; stroke-width: 0.8"/>
      </g>
     </g>
     <g id="text_5">
      <!-- 5 -->
      <g transform="translate(235.13307 269.155257) scale(0.1 -0.1)">
       <defs>
        <path id="DejaVuSans-35" d="M 691 4666 
L 3169 4666 
L 3169 4134 
L 1269 4134 
L 1269 2991 
Q 1406 3038 1543 3061 
Q 1681 3084 1819 3084 
Q 2600 3084 3056 2656 
Q 3513 2228 3513 1497 
Q 3513 744 3044 326 
Q 2575 -91 1722 -91 
Q 1428 -91 1123 -41 
Q 819 9 494 109 
L 494 744 
Q 775 591 1075 516 
Q 1375 441 1709 441 
Q 2250 441 2565 725 
Q 2881 1009 2881 1497 
Q 2881 1984 2565 2268 
Q 2250 2553 1709 2553 
Q 1456 2553 1204 2497 
Q 953 2441 691 2322 
L 691 4666 
z
" transform="scale(0.015625)"/>
       </defs>
       <use xlink:href="#DejaVuSans-35"/>
      </g>
     </g>
    </g>
    <g id="xtick_7">
     <g id="line2d_7">
      <defs>
       <path id="m8b1a9b5d28" d="M 0 0 
L 0 2 
" style="stroke: #000000; stroke-width: 0.6"/>
      </defs>
      <g>
       <use xlink:href="#m8b1a9b5d28" x="14.098935" y="254.55682" style="stroke: #000000; stroke-width: 0.6"/>
      </g>
     </g>
    </g>
    <g id="xtick_8">
     <g id="line2d_8">
      <g>
       <use xlink:href="#m8b1a9b5d28" x="31.346272" y="254.55682" style="stroke: #000000; stroke-width: 0.6"/>
      </g>
     </g>
    </g>
    <g id="xtick_9">
     <g id="line2d_9">
      <g>
       <use xlink:href="#m8b1a9b5d28" x="39.969941" y="254.55682" style="stroke: #000000; stroke-width: 0.6"/>
      </g>
     </g>
    </g>
    <g id="xtick_10">
     <g id="line2d_10">
      <g>
       <use xlink:href="#m8b1a9b5d28" x="48.593609" y="254.55682" style="stroke: #000000; stroke-width: 0.6"/>
      </g>
     </g>
    </g>
    <g id="xtick_11">
     <g id="line2d_11">
      <g>
       <use xlink:href="#m8b1a9b5d28" x="57.217278" y="254.55682" style="stroke: #000000; stroke-width: 0.6"/>
      </g>
     </g>
    </g>
    <g id="xtick_12">
     <g id="line2d_12">
      <g>
       <use xlink:href="#m8b1a9b5d28" x="74.464615" y="254.55682" style="stroke: #000000; stroke-width: 0.6"/>
      </g>
     </g>
    </g>
    <g id="xtick_13">
     <g id="line2d_13">
      <g>
       <use xlink:href="#m8b1a9b5d28" x="83.088284" y="254.55682" style="stroke: #000000; stroke-width: 0.6"/>
      </g>
     </g>
    </g>
    <g id="xtick_14">
     <g id="line2d_14">
      <g>
       <use xlink:href="#m8b1a9b5d28" x="91.711953" y="254.55682" style="stroke: #000000; stroke-width: 0.6"/>
      </g>
     </g>
    </g>
    <g id="xtick_15">
     <g id="line2d_15">
      <g>
       <use xlink:href="#m8b1a9b5d28" x="100.335621" y="254.55682" style="stroke: #000000; stroke-width: 0.6"/>
      </g>
     </g>
    </g>
    <g id="xtick_16">
     <g id="line2d_16">
      <g>
       <use xlink:href="#m8b1a9b5d28" x="117.582959" y="254.55682" style="stroke: #000000; stroke-width: 0.6"/>
      </g>
     </g>
    </g>
    <g id="xtick_17">
     <g id="line2d_17">
      <g>
       <use xlink:href="#m8b1a9b5d28" x="126.206627" y="254.55682" style="stroke: #000000; stroke-width: 0.6"/>
      </g>
     </g>
    </g>
    <g id="xtick_18">
     <g id="line2d_18">
      <g>
       <use xlink:href="#m8b1a9b5d28" x="134.830296" y="254.55682" style="stroke: #000000; stroke-width: 0.6"/>
      </g>
     </g>
    </g>
    <g id="xtick_19">
     <g id="line2d_19">
      <g>
       <use xlink:href="#m8b1a9b5d28" x="143.453964" y="254.55682" style="stroke: #000000; stroke-width: 0.6"/>
      </g>
     </g>
    </g>
    <g id="xtick_20">
     <g id="line2d_20">
      <g>
       <use xlink:href="#m8b1a9b5d28" x="160.701302" y="254.55682" style="stroke: #000000; stroke-width: 0.6"/>
      </g>
     </g>
    </g>
    <g id="xtick_21">
     <g id="line2d_21">
      <g>
       <use xlink:href="#m8b1a9b5d28" x="169.32497" y="254.55682" style="stroke: #000000; stroke-width: 0.6"/>
      </g>
     </g>
    </g>
    <g id="xtick_22">
     <g id="line2d_22">
      <g>
       <use xlink:href="#m8b1a9b5d28" x="177.948639" y="254.55682" style="stroke: #000000; stroke-width: 0.6"/>
      </g>
     </g>
    </g>
    <g id="xtick_23">
     <g id="line2d_23">
      <g>
       <use xlink:href="#m8b1a9b5d28" x="186.572308" y="254.55682" style="stroke: #000000; stroke-width: 0.6"/>
      </g>
     </g>
    </g>
    <g id="xtick_24">
     <g id="line2d_24">
      <g>
       <use xlink:href="#m8b1a9b5d28" x="203.819645" y="254.55682" style="stroke: #000000; stroke-width: 0.6"/>
      </g>
     </g>
    </g>
    <g id="xtick_25">
     <g id="line2d_25">
      <g>
       <use xlink:href="#m8b1a9b5d28" x="212.443314" y="254.55682" style="stroke: #000000; stroke-width: 0.6"/>
      </g>
     </g>
    </g>
    <g id="xtick_26">
     <g id="line2d_26">
      <g>
       <use xlink:href="#m8b1a9b5d28" x="221.066982" y="254.55682" style="stroke: #000000; stroke-width: 0.6"/>
      </g>
     </g>
    </g>
    <g id="xtick_27">
     <g id="line2d_27">
      <g>
       <use xlink:href="#m8b1a9b5d28" x="229.690651" y="254.55682" style="stroke: #000000; stroke-width: 0.6"/>
      </g>
     </g>
    </g>
    <g id="xtick_28">
     <g id="line2d_28">
      <g>
       <use xlink:href="#m8b1a9b5d28" x="246.937988" y="254.55682" style="stroke: #000000; stroke-width: 0.6"/>
      </g>
     </g>
    </g>
    <g id="text_6">
     <!-- $x$ -->
     <g transform="translate(261.836923 254.55682) scale(0.16 -0.16)">
      <defs>
       <path id="Cmmi10-78" d="M 500 184 
Q 613 97 819 97 
Q 1019 97 1172 289 
Q 1325 481 1381 709 
L 1672 1844 
Q 1741 2153 1741 2266 
Q 1741 2425 1652 2544 
Q 1563 2663 1403 2663 
Q 1200 2663 1022 2536 
Q 844 2409 722 2214 
Q 600 2019 550 1819 
Q 538 1778 500 1778 
L 422 1778 
Q 372 1778 372 1838 
L 372 1856 
Q 434 2094 584 2320 
Q 734 2547 951 2687 
Q 1169 2828 1416 2828 
Q 1650 2828 1839 2703 
Q 2028 2578 2106 2363 
Q 2216 2559 2386 2693 
Q 2556 2828 2759 2828 
Q 2897 2828 3040 2779 
Q 3184 2731 3275 2631 
Q 3366 2531 3366 2381 
Q 3366 2219 3261 2101 
Q 3156 1984 2994 1984 
Q 2891 1984 2822 2050 
Q 2753 2116 2753 2216 
Q 2753 2350 2845 2451 
Q 2938 2553 3066 2572 
Q 2950 2663 2747 2663 
Q 2541 2663 2389 2472 
Q 2238 2281 2175 2047 
L 1894 916 
Q 1825 659 1825 494 
Q 1825 331 1917 214 
Q 2009 97 2163 97 
Q 2463 97 2698 361 
Q 2934 625 3009 941 
Q 3022 978 3059 978 
L 3138 978 
Q 3163 978 3178 961 
Q 3194 944 3194 922 
Q 3194 916 3188 903 
Q 3097 522 2806 225 
Q 2516 -72 2150 -72 
Q 1916 -72 1727 54 
Q 1538 181 1459 397 
Q 1359 209 1182 68 
Q 1006 -72 806 -72 
Q 669 -72 523 -23 
Q 378 25 287 125 
Q 197 225 197 378 
Q 197 528 301 651 
Q 406 775 563 775 
Q 669 775 741 711 
Q 813 647 813 544 
Q 813 409 723 309 
Q 634 209 500 184 
z
" transform="scale(0.015625)"/>
      </defs>
      <use xlink:href="#Cmmi10-78" transform="translate(0 0.8125)"/>
     </g>
    </g>
   </g>
   <g id="matplotlib.axis_2">
    <g id="ytick_1">
     <g id="line2d_29">
      <defs>
       <path id="m0e85d1ed90" d="M 0 0 
L -3.5 0 
" style="stroke: #000000; stroke-width: 0.8"/>
      </defs>
      <g>
       <use xlink:href="#m0e85d1ed90" x="22.722604" y="254.55682" style="stroke: #000000; stroke-width: 0.8"/>
      </g>
     </g>
    </g>
    <g id="ytick_2">
     <g id="line2d_30">
      <g>
       <use xlink:href="#m0e85d1ed90" x="22.722604" y="211.438476" style="stroke: #000000; stroke-width: 0.8"/>
      </g>
     </g>
     <g id="text_7">
      <!-- 1 -->
      <g transform="translate(9.360104 215.237695) scale(0.1 -0.1)">
       <use xlink:href="#DejaVuSans-31"/>
      </g>
     </g>
    </g>
    <g id="ytick_3">
     <g id="line2d_31">
      <g>
       <use xlink:href="#m0e85d1ed90" x="22.722604" y="168.320133" style="stroke: #000000; stroke-width: 0.8"/>
      </g>
     </g>
     <g id="text_8">
      <!-- 2 -->
      <g transform="translate(9.360104 172.119352) scale(0.1 -0.1)">
       <use xlink:href="#DejaVuSans-32"/>
      </g>
     </g>
    </g>
    <g id="ytick_4">
     <g id="line2d_32">
      <g>
       <use xlink:href="#m0e85d1ed90" x="22.722604" y="125.20179" style="stroke: #000000; stroke-width: 0.8"/>
      </g>
     </g>
     <g id="text_9">
      <!-- 3 -->
      <g transform="translate(9.360104 129.001009) scale(0.1 -0.1)">
       <use xlink:href="#DejaVuSans-33"/>
      </g>
     </g>
    </g>
    <g id="ytick_5">
     <g id="line2d_33">
      <g>
       <use xlink:href="#m0e85d1ed90" x="22.722604" y="82.083447" style="stroke: #000000; stroke-width: 0.8"/>
      </g>
     </g>
     <g id="text_10">
      <!-- 4 -->
      <g transform="translate(9.360104 85.882665) scale(0.1 -0.1)">
       <use xlink:href="#DejaVuSans-34"/>
      </g>
     </g>
    </g>
    <g id="ytick_6">
     <g id="line2d_34">
      <g>
       <use xlink:href="#m0e85d1ed90" x="22.722604" y="38.965104" style="stroke: #000000; stroke-width: 0.8"/>
      </g>
     </g>
     <g id="text_11">
      <!-- 5 -->
      <g transform="translate(9.360104 42.764322) scale(0.1 -0.1)">
       <use xlink:href="#DejaVuSans-35"/>
      </g>
     </g>
    </g>
    <g id="ytick_7">
     <g id="line2d_35">
      <defs>
       <path id="m5e69817435" d="M 0 0 
L -2 0 
" style="stroke: #000000; stroke-width: 0.6"/>
      </defs>
      <g>
       <use xlink:href="#m5e69817435" x="22.722604" y="263.180488" style="stroke: #000000; stroke-width: 0.6"/>
      </g>
     </g>
    </g>
    <g id="ytick_8">
     <g id="line2d_36">
      <g>
       <use xlink:href="#m5e69817435" x="22.722604" y="245.933151" style="stroke: #000000; stroke-width: 0.6"/>
      </g>
     </g>
    </g>
    <g id="ytick_9">
     <g id="line2d_37">
      <g>
       <use xlink:href="#m5e69817435" x="22.722604" y="237.309482" style="stroke: #000000; stroke-width: 0.6"/>
      </g>
     </g>
    </g>
    <g id="ytick_10">
     <g id="line2d_38">
      <g>
       <use xlink:href="#m5e69817435" x="22.722604" y="228.685814" style="stroke: #000000; stroke-width: 0.6"/>
      </g>
     </g>
    </g>
    <g id="ytick_11">
     <g id="line2d_39">
      <g>
       <use xlink:href="#m5e69817435" x="22.722604" y="220.062145" style="stroke: #000000; stroke-width: 0.6"/>
      </g>
     </g>
    </g>
    <g id="ytick_12">
     <g id="line2d_40">
      <g>
       <use xlink:href="#m5e69817435" x="22.722604" y="202.814808" style="stroke: #000000; stroke-width: 0.6"/>
      </g>
     </g>
    </g>
    <g id="ytick_13">
     <g id="line2d_41">
      <g>
       <use xlink:href="#m5e69817435" x="22.722604" y="194.191139" style="stroke: #000000; stroke-width: 0.6"/>
      </g>
     </g>
    </g>
    <g id="ytick_14">
     <g id="line2d_42">
      <g>
       <use xlink:href="#m5e69817435" x="22.722604" y="185.56747" style="stroke: #000000; stroke-width: 0.6"/>
      </g>
     </g>
    </g>
    <g id="ytick_15">
     <g id="line2d_43">
      <g>
       <use xlink:href="#m5e69817435" x="22.722604" y="176.943802" style="stroke: #000000; stroke-width: 0.6"/>
      </g>
     </g>
    </g>
    <g id="ytick_16">
     <g id="line2d_44">
      <g>
       <use xlink:href="#m5e69817435" x="22.722604" y="159.696464" style="stroke: #000000; stroke-width: 0.6"/>
      </g>
     </g>
    </g>
    <g id="ytick_17">
     <g id="line2d_45">
      <g>
       <use xlink:href="#m5e69817435" x="22.722604" y="151.072796" style="stroke: #000000; stroke-width: 0.6"/>
      </g>
     </g>
    </g>
    <g id="ytick_18">
     <g id="line2d_46">
      <g>
       <use xlink:href="#m5e69817435" x="22.722604" y="142.449127" style="stroke: #000000; stroke-width: 0.6"/>
      </g>
     </g>
    </g>
    <g id="ytick_19">
     <g id="line2d_47">
      <g>
       <use xlink:href="#m5e69817435" x="22.722604" y="133.825459" style="stroke: #000000; stroke-width: 0.6"/>
      </g>
     </g>
    </g>
    <g id="ytick_20">
     <g id="line2d_48">
      <g>
       <use xlink:href="#m5e69817435" x="22.722604" y="116.578121" style="stroke: #000000; stroke-width: 0.6"/>
      </g>
     </g>
    </g>
    <g id="ytick_21">
     <g id="line2d_49">
      <g>
       <use xlink:href="#m5e69817435" x="22.722604" y="107.954453" style="stroke: #000000; stroke-width: 0.6"/>
      </g>
     </g>
    </g>
    <g id="ytick_22">
     <g id="line2d_50">
      <g>
       <use xlink:href="#m5e69817435" x="22.722604" y="99.330784" style="stroke: #000000; stroke-width: 0.6"/>
      </g>
     </g>
    </g>
    <g id="ytick_23">
     <g id="line2d_51">
      <g>
       <use xlink:href="#m5e69817435" x="22.722604" y="90.707115" style="stroke: #000000; stroke-width: 0.6"/>
      </g>
     </g>
    </g>
    <g id="ytick_24">
     <g id="line2d_52">
      <g>
       <use xlink:href="#m5e69817435" x="22.722604" y="73.459778" style="stroke: #000000; stroke-width: 0.6"/>
      </g>
     </g>
    </g>
    <g id="ytick_25">
     <g id="line2d_53">
      <g>
       <use xlink:href="#m5e69817435" x="22.722604" y="64.836109" style="stroke: #000000; stroke-width: 0.6"/>
      </g>
     </g>
    </g>
    <g id="ytick_26">
     <g id="line2d_54">
      <g>
       <use xlink:href="#m5e69817435" x="22.722604" y="56.212441" style="stroke: #000000; stroke-width: 0.6"/>
      </g>
     </g>
    </g>
    <g id="ytick_27">
     <g id="line2d_55">
      <g>
       <use xlink:href="#m5e69817435" x="22.722604" y="47.588772" style="stroke: #000000; stroke-width: 0.6"/>
      </g>
     </g>
    </g>
    <g id="ytick_28">
     <g id="line2d_56">
      <g>
       <use xlink:href="#m5e69817435" x="22.722604" y="30.341435" style="stroke: #000000; stroke-width: 0.6"/>
      </g>
     </g>
    </g>
    <g id="text_12">
     <!-- $y$ -->
     <g transform="translate(18.722604 12.0825) scale(0.16 -0.16)">
      <defs>
       <path id="Cmmi10-79" d="M 538 -916 
Q 672 -1147 1006 -1147 
Q 1309 -1147 1531 -934 
Q 1753 -722 1889 -420 
Q 2025 -119 2100 197 
Q 1816 -72 1484 -72 
Q 1231 -72 1053 15 
Q 875 103 776 276 
Q 678 450 678 697 
Q 678 906 734 1126 
Q 791 1347 892 1617 
Q 994 1888 1069 2088 
Q 1153 2322 1153 2472 
Q 1153 2663 1013 2663 
Q 759 2663 595 2402 
Q 431 2141 353 1819 
Q 341 1778 300 1778 
L 225 1778 
Q 172 1778 172 1838 
L 172 1856 
Q 275 2238 487 2533 
Q 700 2828 1025 2828 
Q 1253 2828 1411 2678 
Q 1569 2528 1569 2297 
Q 1569 2178 1516 2047 
Q 1488 1969 1388 1706 
Q 1288 1444 1234 1272 
Q 1181 1100 1147 934 
Q 1113 769 1113 603 
Q 1113 391 1203 244 
Q 1294 97 1491 97 
Q 1888 97 2203 581 
L 2688 2553 
Q 2709 2638 2787 2698 
Q 2866 2759 2956 2759 
Q 3034 2759 3092 2709 
Q 3150 2659 3150 2578 
Q 3150 2541 3144 2528 
L 2509 -19 
Q 2425 -347 2200 -647 
Q 1975 -947 1658 -1130 
Q 1341 -1313 997 -1313 
Q 831 -1313 668 -1248 
Q 506 -1184 406 -1056 
Q 306 -928 306 -756 
Q 306 -581 409 -453 
Q 513 -325 684 -325 
Q 788 -325 858 -389 
Q 928 -453 928 -556 
Q 928 -703 818 -812 
Q 709 -922 563 -922 
Q 556 -919 550 -917 
Q 544 -916 538 -916 
z
" transform="scale(0.015625)"/>
      </defs>
      <use xlink:href="#Cmmi10-79" transform="translate(0 0.8125)"/>
     </g>
    </g>
   </g>
   <g id="line2d_57">
    <path d="M 108.95929 168.320133 
L 109.10132 171.81699 
L 109.480856 175.006394 
L 110.126815 178.286093 
L 111.009551 181.458024 
L 112.197759 184.714863 
L 113.372779 187.323443 
L 114.743339 189.891921 
L 116.301986 192.388673 
L 118.488587 195.356544 
L 120.474287 197.65305 
L 122.4171 199.616207 
L 124.719475 201.64764 
L 127.25887 203.579465 
L 129.604847 205.119119 
L 132.446873 206.710559 
L 135.508135 208.127711 
L 138.231746 209.154958 
L 141.534343 210.129589 
L 144.900365 210.836934 
L 148.153602 211.25955 
L 151.188269 211.429303 
L 153.923238 211.398959 
L 157.437618 211.104033 
L 159.853162 210.731602 
L 162.921236 210.052708 
L 165.732872 209.219106 
L 168.788444 208.068596 
L 171.739434 206.69467 
L 174.256496 205.297012 
L 176.914338 203.566829 
L 178.693698 202.243232 
L 180.885393 200.402909 
L 183.337768 198.018542 
L 185.322577 195.77856 
L 187.439492 192.992597 
L 189.135582 190.363271 
L 190.712383 187.465566 
L 192.090228 184.38823 
L 193.208243 181.260939 
L 194.051094 178.190296 
L 194.69862 174.850294 
L 195.041849 171.962612 
L 195.187593 169.170351 
L 195.195976 168.320133 
L 195.195976 168.320133 
" clip-path="url(#p0bcd401fe8)" style="fill: none; stroke: #008000; stroke-width: 2; stroke-linecap: square"/>
   </g>
   <g id="patch_3">
    <path d="M 193.902426 174.787885 
Q 194.549201 171.554009 194.757447 170.512778 
" clip-path="url(#p0bcd401fe8)" style="fill: none; stroke: #008000; stroke-width: 2; stroke-linecap: round"/>
    <path d="M 187.893383 179.338004 
L 194.757447 170.512778 
L 197.699189 181.299166 
L 187.893383 179.338004 
z
" clip-path="url(#p0bcd401fe8)" style="fill: #008000; stroke: #008000; stroke-width: 2; stroke-linecap: round"/>
   </g>
   <g id="line2d_58">
    <path d="M 65.840947 211.438476 
L 65.840947 38.965104 
L 65.840947 38.965104 
" clip-path="url(#p0bcd401fe8)" style="fill: none; stroke: #ff0000; stroke-width: 2; stroke-linecap: square"/>
   </g>
   <g id="patch_4">
    <path d="M 65.840947 45.432855 
Q 65.840947 42.198979 65.840947 41.201172 
" clip-path="url(#p0bcd401fe8)" style="fill: none; stroke: #ff0000; stroke-width: 2; stroke-linecap: round"/>
    <path d="M 60.840947 51.201172 
L 65.840947 41.201172 
L 70.840947 51.201172 
L 60.840947 51.201172 
z
" clip-path="url(#p0bcd401fe8)" style="fill: #ff0000; stroke: #ff0000; stroke-width: 2; stroke-linecap: round"/>
   </g>
   <g id="line2d_59">
    <path d="M 152.077633 125.20179 
L 199.507811 125.20179 
L 199.507811 125.20179 
" clip-path="url(#p0bcd401fe8)" style="fill: none; stroke: #800080; stroke-width: 2; stroke-linecap: square"/>
   </g>
   <g id="patch_5">
    <path d="M 185.278757 125.20179 
Q 188.512633 125.20179 189.510441 125.20179 
" clip-path="url(#p0bcd401fe8)" style="fill: none; stroke: #800080; stroke-width: 2; stroke-linecap: round"/>
    <path d="M 179.510441 120.20179 
L 189.510441 125.20179 
L 179.510441 130.20179 
L 179.510441 120.20179 
z
" clip-path="url(#p0bcd401fe8)" style="fill: #800080; stroke: #800080; stroke-width: 2; stroke-linecap: round"/>
   </g>
   <g id="line2d_60">
    <path d="M 152.077633 38.965104 
L 199.507811 38.965104 
L 199.507811 38.965104 
" clip-path="url(#p0bcd401fe8)" style="fill: none; stroke: #800080; stroke-width: 2; stroke-linecap: square"/>
   </g>
   <g id="patch_6">
    <path d="M 183.12284 38.965104 
Q 179.888964 38.965104 178.891157 38.965104 
" clip-path="url(#p0bcd401fe8)" style="fill: none; stroke: #800080; stroke-width: 2; stroke-linecap: round"/>
    <path d="M 188.891157 43.965104 
L 178.891157 38.965104 
L 188.891157 33.965104 
L 188.891157 43.965104 
z
" clip-path="url(#p0bcd401fe8)" style="fill: #800080; stroke: #800080; stroke-width: 2; stroke-linecap: round"/>
   </g>
   <g id="line2d_61">
    <path d="M 152.077633 125.20179 
L 152.077633 38.965104 
L 152.077633 38.965104 
" clip-path="url(#p0bcd401fe8)" style="fill: none; stroke: #800080; stroke-width: 2; stroke-linecap: square"/>
   </g>
   <g id="patch_7">
    <path d="M 152.077633 75.615695 
Q 152.077633 78.849571 152.077633 79.847379 
" clip-path="url(#p0bcd401fe8)" style="fill: none; stroke: #800080; stroke-width: 2; stroke-linecap: round"/>
    <path d="M 157.077633 69.847379 
L 152.077633 79.847379 
L 147.077633 69.847379 
L 157.077633 69.847379 
z
" clip-path="url(#p0bcd401fe8)" style="fill: #800080; stroke: #800080; stroke-width: 2; stroke-linecap: round"/>
   </g>
   <g id="line2d_62">
    <path d="M 199.507811 125.20179 
L 199.507811 38.965104 
L 199.507811 38.965104 
" clip-path="url(#p0bcd401fe8)" style="fill: none; stroke: #800080; stroke-width: 2; stroke-linecap: square"/>
   </g>
   <g id="patch_8">
    <path d="M 199.507811 82.083447 
Q 199.507811 78.849571 199.507811 77.851763 
" clip-path="url(#p0bcd401fe8)" style="fill: none; stroke: #800080; stroke-width: 2; stroke-linecap: round"/>
    <path d="M 194.507811 87.851763 
L 199.507811 77.851763 
L 204.507811 87.851763 
L 194.507811 87.851763 
z
" clip-path="url(#p0bcd401fe8)" style="fill: #800080; stroke: #800080; stroke-width: 2; stroke-linecap: round"/>
   </g>
   <g id="patch_9">
    <path d="M 22.722604 270.079423 
L 22.722604 23.4425 
" style="fill: none; stroke: #000000; stroke-width: 0.8; stroke-linejoin: miter; stroke-linecap: square"/>
   </g>
   <g id="patch_10">
    <path d="M 7.2 254.55682 
L 253.836923 254.55682 
" style="fill: none; stroke: #000000; stroke-width: 0.8; stroke-linejoin: miter; stroke-linecap: square"/>
   </g>
   <g id="text_13">
    <g clip-path="url(#p0bcd401fe8)">
     <!-- $C_1$ -->
     <g style="fill: #800080" transform="translate(169.812639 129.17529) scale(0.144 -0.144)">
      <defs>
       <path id="Cmmi10-43" d="M 934 1381 
Q 934 997 1082 705 
Q 1231 413 1514 248 
Q 1797 84 2181 84 
Q 2584 84 2957 290 
Q 3331 497 3595 842 
Q 3859 1188 3956 1575 
Q 3969 1613 4006 1613 
L 4084 1613 
Q 4109 1613 4125 1595 
Q 4141 1578 4141 1556 
Q 4141 1550 4134 1538 
Q 4025 1094 3711 705 
Q 3397 316 2959 87 
Q 2522 -141 2059 -141 
Q 1559 -141 1162 84 
Q 766 309 545 709 
Q 325 1109 325 1613 
Q 325 2150 565 2676 
Q 806 3203 1212 3614 
Q 1619 4025 2139 4269 
Q 2659 4513 3194 4513 
Q 3406 4513 3600 4448 
Q 3794 4384 3959 4253 
Q 4125 4122 4231 3950 
L 4738 4500 
Q 4738 4513 4769 4513 
L 4806 4513 
Q 4831 4513 4847 4491 
Q 4863 4469 4863 4447 
L 4428 2719 
Q 4428 2675 4378 2675 
L 4263 2675 
Q 4213 2675 4213 2747 
Q 4238 2888 4238 3084 
Q 4238 3397 4131 3673 
Q 4025 3950 3801 4119 
Q 3578 4288 3256 4288 
Q 2734 4288 2300 4025 
Q 1866 3763 1564 3336 
Q 1263 2909 1098 2389 
Q 934 1869 934 1381 
z
" transform="scale(0.015625)"/>
       <path id="Cmr10-31" d="M 594 0 
L 594 225 
Q 1394 225 1394 428 
L 1394 3788 
Q 1063 3628 556 3628 
L 556 3853 
Q 1341 3853 1741 4263 
L 1831 4263 
Q 1853 4263 1873 4245 
Q 1894 4228 1894 4206 
L 1894 428 
Q 1894 225 2694 225 
L 2694 0 
L 594 0 
z
" transform="scale(0.015625)"/>
      </defs>
      <use xlink:href="#Cmmi10-43" transform="translate(0 0.484375)"/>
      <use xlink:href="#Cmr10-31" transform="translate(71.386719 -16.521875) scale(0.7)"/>
     </g>
    </g>
   </g>
   <g id="text_14">
    <g clip-path="url(#p0bcd401fe8)">
     <!-- $C_2$ -->
     <g style="fill: #800080" transform="translate(219.398734 105.460201) scale(0.144 -0.144)">
      <defs>
       <path id="Cmr10-32" d="M 319 0 
L 319 172 
Q 319 188 331 206 
L 1325 1306 
Q 1550 1550 1690 1715 
Q 1831 1881 1968 2097 
Q 2106 2313 2186 2536 
Q 2266 2759 2266 3009 
Q 2266 3272 2169 3511 
Q 2072 3750 1880 3894 
Q 1688 4038 1416 4038 
Q 1138 4038 916 3870 
Q 694 3703 603 3438 
Q 628 3444 672 3444 
Q 816 3444 917 3347 
Q 1019 3250 1019 3097 
Q 1019 2950 917 2848 
Q 816 2747 672 2747 
Q 522 2747 420 2851 
Q 319 2956 319 3097 
Q 319 3338 409 3548 
Q 500 3759 670 3923 
Q 841 4088 1055 4175 
Q 1269 4263 1509 4263 
Q 1875 4263 2190 4108 
Q 2506 3953 2690 3670 
Q 2875 3388 2875 3009 
Q 2875 2731 2753 2481 
Q 2631 2231 2440 2026 
Q 2250 1822 1953 1562 
Q 1656 1303 1563 1216 
L 838 519 
L 1453 519 
Q 1906 519 2211 526 
Q 2516 534 2534 550 
Q 2609 631 2688 1141 
L 2875 1141 
L 2694 0 
L 319 0 
z
" transform="scale(0.015625)"/>
      </defs>
      <use xlink:href="#Cmmi10-43" transform="translate(0 0.484375)"/>
      <use xlink:href="#Cmr10-32" transform="translate(71.386719 -16.521875) scale(0.7)"/>
     </g>
    </g>
   </g>
   <g id="text_15">
    <g clip-path="url(#p0bcd401fe8)">
     <!-- $C_3$ -->
     <g style="fill: #800080" transform="translate(161.18897 34.746118) scale(0.144 -0.144)">
      <defs>
       <path id="Cmr10-33" d="M 609 494 
Q 759 275 1012 169 
Q 1266 63 1556 63 
Q 1928 63 2084 380 
Q 2241 697 2241 1100 
Q 2241 1281 2208 1462 
Q 2175 1644 2097 1800 
Q 2019 1956 1883 2050 
Q 1747 2144 1550 2144 
L 1125 2144 
Q 1069 2144 1069 2203 
L 1069 2259 
Q 1069 2309 1125 2309 
L 1478 2338 
Q 1703 2338 1851 2506 
Q 2000 2675 2069 2917 
Q 2138 3159 2138 3378 
Q 2138 3684 1994 3881 
Q 1850 4078 1556 4078 
Q 1313 4078 1091 3986 
Q 869 3894 738 3706 
Q 750 3709 759 3711 
Q 769 3713 781 3713 
Q 925 3713 1022 3613 
Q 1119 3513 1119 3372 
Q 1119 3234 1022 3134 
Q 925 3034 781 3034 
Q 641 3034 541 3134 
Q 441 3234 441 3372 
Q 441 3647 606 3850 
Q 772 4053 1033 4158 
Q 1294 4263 1556 4263 
Q 1750 4263 1965 4205 
Q 2181 4147 2356 4039 
Q 2531 3931 2642 3762 
Q 2753 3594 2753 3378 
Q 2753 3109 2633 2881 
Q 2513 2653 2303 2487 
Q 2094 2322 1844 2241 
Q 2122 2188 2372 2031 
Q 2622 1875 2773 1631 
Q 2925 1388 2925 1106 
Q 2925 753 2731 467 
Q 2538 181 2222 20 
Q 1906 -141 1556 -141 
Q 1256 -141 954 -26 
Q 653 88 461 316 
Q 269 544 269 863 
Q 269 1022 375 1128 
Q 481 1234 641 1234 
Q 744 1234 830 1186 
Q 916 1138 964 1050 
Q 1013 963 1013 863 
Q 1013 706 903 600 
Q 794 494 641 494 
L 609 494 
z
" transform="scale(0.015625)"/>
      </defs>
      <use xlink:href="#Cmmi10-43" transform="translate(0 0.484375)"/>
      <use xlink:href="#Cmr10-33" transform="translate(71.386719 -16.521875) scale(0.7)"/>
     </g>
    </g>
   </g>
   <g id="text_16">
    <g clip-path="url(#p0bcd401fe8)">
     <!-- $C_4$ -->
     <g style="fill: #800080" transform="translate(126.694296 105.460201) scale(0.144 -0.144)">
      <defs>
       <path id="Cmr10-34" d="M 178 1056 
L 178 1281 
L 2156 4231 
Q 2178 4263 2222 4263 
L 2316 4263 
Q 2388 4263 2388 4191 
L 2388 1281 
L 3016 1281 
L 3016 1056 
L 2388 1056 
L 2388 428 
Q 2388 297 2575 261 
Q 2763 225 3009 225 
L 3009 0 
L 1247 0 
L 1247 225 
Q 1494 225 1681 261 
Q 1869 297 1869 428 
L 1869 1056 
L 178 1056 
z
M 391 1281 
L 1906 1281 
L 1906 3547 
L 391 1281 
z
" transform="scale(0.015625)"/>
      </defs>
      <use xlink:href="#Cmmi10-43" transform="translate(0 0.484375)"/>
      <use xlink:href="#Cmr10-34" transform="translate(71.386719 -16.521875) scale(0.7)"/>
     </g>
    </g>
   </g>
   <g id="text_17">
    <g clip-path="url(#p0bcd401fe8)">
     <!-- $C_5$ -->
     <g style="fill: #008000" transform="translate(146.09755 226.191562) scale(0.144 -0.144)">
      <defs>
       <path id="Cmr10-35" d="M 556 728 
Q 622 541 758 387 
Q 894 234 1080 148 
Q 1266 63 1466 63 
Q 1928 63 2103 422 
Q 2278 781 2278 1294 
Q 2278 1516 2270 1667 
Q 2263 1819 2228 1959 
Q 2169 2184 2020 2353 
Q 1872 2522 1656 2522 
Q 1441 2522 1286 2456 
Q 1131 2391 1034 2303 
Q 938 2216 863 2119 
Q 788 2022 769 2016 
L 697 2016 
Q 681 2016 657 2036 
Q 634 2056 634 2075 
L 634 4213 
Q 634 4228 654 4245 
Q 675 4263 697 4263 
L 716 4263 
Q 1147 4056 1631 4056 
Q 2106 4056 2547 4263 
L 2566 4263 
Q 2588 4263 2606 4247 
Q 2625 4231 2625 4213 
L 2625 4153 
Q 2625 4122 2613 4122 
Q 2394 3831 2064 3668 
Q 1734 3506 1381 3506 
Q 1125 3506 856 3578 
L 856 2369 
Q 1069 2541 1236 2614 
Q 1403 2688 1663 2688 
Q 2016 2688 2295 2484 
Q 2575 2281 2725 1954 
Q 2875 1628 2875 1288 
Q 2875 903 2686 575 
Q 2497 247 2172 53 
Q 1847 -141 1466 -141 
Q 1150 -141 886 21 
Q 622 184 470 459 
Q 319 734 319 1044 
Q 319 1188 412 1278 
Q 506 1369 647 1369 
Q 788 1369 883 1276 
Q 978 1184 978 1044 
Q 978 906 883 811 
Q 788 716 647 716 
Q 625 716 597 720 
Q 569 725 556 728 
z
" transform="scale(0.015625)"/>
      </defs>
      <use xlink:href="#Cmmi10-43" transform="translate(0 0.484375)"/>
      <use xlink:href="#Cmr10-35" transform="translate(71.386719 -16.521875) scale(0.7)"/>
     </g>
    </g>
   </g>
   <g id="text_18">
    <g clip-path="url(#p0bcd401fe8)">
     <!-- $C_6$ -->
     <g style="fill: #ff0000" transform="translate(46.925361 129.17529) scale(0.144 -0.144)">
      <defs>
       <path id="Cmr10-36" d="M 1600 -141 
Q 1203 -141 937 70 
Q 672 281 526 617 
Q 381 953 325 1322 
Q 269 1691 269 2069 
Q 269 2575 466 3084 
Q 663 3594 1045 3928 
Q 1428 4263 1953 4263 
Q 2172 4263 2361 4180 
Q 2550 4097 2658 3936 
Q 2766 3775 2766 3547 
Q 2766 3416 2677 3327 
Q 2588 3238 2456 3238 
Q 2331 3238 2240 3328 
Q 2150 3419 2150 3547 
Q 2150 3672 2240 3762 
Q 2331 3853 2456 3853 
L 2491 3853 
Q 2409 3969 2261 4023 
Q 2113 4078 1953 4078 
Q 1759 4078 1595 3993 
Q 1431 3909 1300 3765 
Q 1169 3622 1081 3448 
Q 994 3275 945 3053 
Q 897 2831 884 2637 
Q 872 2444 872 2150 
Q 984 2413 1190 2580 
Q 1397 2747 1656 2747 
Q 1941 2747 2175 2631 
Q 2409 2516 2578 2311 
Q 2747 2106 2836 1843 
Q 2925 1581 2925 1313 
Q 2925 938 2758 598 
Q 2591 259 2287 59 
Q 1984 -141 1600 -141 
z
M 1600 63 
Q 1847 63 1997 175 
Q 2147 288 2217 473 
Q 2288 659 2305 848 
Q 2322 1038 2322 1313 
Q 2322 1675 2287 1931 
Q 2253 2188 2100 2383 
Q 1947 2578 1631 2578 
Q 1372 2578 1205 2403 
Q 1038 2228 961 1961 
Q 884 1694 884 1447 
Q 884 1363 891 1319 
Q 891 1309 889 1303 
Q 888 1297 884 1288 
Q 884 1013 940 731 
Q 997 450 1156 256 
Q 1316 63 1600 63 
z
" transform="scale(0.015625)"/>
      </defs>
      <use xlink:href="#Cmmi10-43" transform="translate(0 0.484375)"/>
      <use xlink:href="#Cmr10-36" transform="translate(71.386719 -16.521875) scale(0.7)"/>
     </g>
    </g>
   </g>
  </g>
 </g>
 <defs>
  <clipPath id="p0bcd401fe8">
   <rect x="7.2" y="23.4425" width="246.636923" height="246.636923"/>
  </clipPath>
 </defs>
</svg>
