<?xml version="1.0" encoding="utf-8" standalone="no"?>
<!DOCTYPE svg PUBLIC "-//W3C//DTD SVG 1.1//EN"
  "http://www.w3.org/Graphics/SVG/1.1/DTD/svg11.dtd">
<!-- Created with matplotlib (http://matplotlib.org/) -->
<svg height="280.705pt" version="1.1" viewBox="0 0 274.5 280.705" width="274.5pt" xmlns="http://www.w3.org/2000/svg" xmlns:xlink="http://www.w3.org/1999/xlink">
 <defs>
  <style type="text/css">
*{stroke-linecap:butt;stroke-linejoin:round;}
  </style>
 </defs>
 <g id="figure_1">
  <g id="patch_1">
   <path d="M 0 280.705 
L 274.5 280.705 
L 274.5 0 
L 0 0 
z
" style="fill:#ffffff;"/>
  </g>
  <g id="axes_1">
   <g id="patch_2">
    <path d="M 10.7 270.005 
L 250.02 270.005 
L 250.02 30.685 
L 10.7 30.685 
z
" style="fill:#ffffff;"/>
   </g>
   <g id="Quiver_1">
    <path clip-path="url(#pa3d0d33056)" d="M 15.780948 265.402692 
L 15.541628 264.988178 
L 15.062988 264.988178 
L 14.823668 265.402692 
L 15.062988 265.817207 
L 15.541628 265.817207 
L 15.780948 265.402692 
L 15.541628 264.988178 
" style="fill:#0000ff;"/>
    <path clip-path="url(#pa3d0d33056)" d="M 15.46668 248.779512 
L 15.653047 248.943885 
L 15.959798 248.220412 
L 17.165977 250.609605 
L 14.644817 249.711347 
L 15.324302 249.316619 
L 15.137935 249.152246 
L 15.46668 248.779512 
" style="fill:#0000ff;"/>
    <path clip-path="url(#pa3d0d33056)" d="M 15.631053 232.223129 
L 15.93699 232.551874 
L 16.617289 231.305319 
L 18.361675 235.816518 
L 13.987327 233.752813 
L 15.279499 233.163748 
L 14.973562 232.835003 
L 15.631053 232.223129 
" style="fill:#0000ff;"/>
    <path clip-path="url(#pa3d0d33056)" d="M 15.686472 215.806746 
L 16.78171 217.280446 
L 17.648696 216.039761 
L 18.967106 221.023431 
L 14.575382 218.323815 
L 16.013381 217.851459 
L 14.918143 216.377759 
L 15.686472 215.806746 
" style="fill:#0000ff;"/>
    <path clip-path="url(#pa3d0d33056)" d="M 15.723125 199.427385 
L 17.233785 202.214931 
L 18.268183 201.10995 
L 18.865457 206.230344 
L 14.901643 202.934386 
L 16.39215 202.67104 
L 14.88149 199.883494 
L 15.723125 199.427385 
" style="fill:#0000ff;"/>
    <path clip-path="url(#pa3d0d33056)" d="M 15.755811 183.065555 
L 17.152206 187.202653 
L 18.359646 186.289936 
L 18.076342 191.437257 
L 14.731617 187.514505 
L 16.245199 187.508795 
L 14.848804 183.371697 
L 15.755811 183.065555 
" style="fill:#0000ff;"/>
    <path clip-path="url(#pa3d0d33056)" d="M 15.775859 166.712204 
L 16.599081 172.312599 
L 17.950125 171.63022 
L 16.75201 176.644169 
L 14.161715 172.187092 
L 15.651978 172.451817 
L 14.828756 166.851422 
L 15.775859 166.712204 
" style="fill:#0000ff;"/>
    <path clip-path="url(#pa3d0d33056)" d="M 15.780905 150.351419 
L 15.684348 157.550129 
L 17.126558 157.090791 
L 15.147975 161.851082 
L 13.297782 157.039435 
L 14.727154 157.53729 
L 14.823711 150.338581 
L 15.780905 150.351419 
" style="fill:#0000ff;"/>
    <path clip-path="url(#pa3d0d33056)" d="M 15.776865 133.970569 
L 14.609715 142.849361 
L 16.09577 142.561951 
L 13.573717 147.057995 
L 12.299311 142.062892 
L 13.660601 142.724596 
L 14.82775 133.845805 
L 15.776865 133.970569 
" style="fill:#0000ff;"/>
    <path clip-path="url(#pa3d0d33056)" d="M 15.771588 117.565567 
L 13.64999 128.13558 
L 15.152023 127.948879 
L 12.33297 132.264908 
L 11.397782 127.195333 
L 12.711429 127.947193 
L 14.833028 117.37718 
L 15.771588 117.565567 
" style="fill:#0000ff;"/>
    <path clip-path="url(#pa3d0d33056)" d="M 15.769643 101.137971 
L 13.063152 113.369211 
L 14.568569 113.212108 
L 11.665121 117.471821 
L 10.829885 112.384823 
L 12.128481 113.16239 
L 14.834972 100.93115 
L 15.769643 101.137971 
" style="fill:#0000ff;"/>
    <path clip-path="url(#pa3d0d33056)" d="M 15.771717 84.691294 
L 13.010353 98.547595 
L 14.512128 98.358825 
L 11.699023 102.678734 
L 10.756852 97.610452 
L 12.071534 98.360501 
L 14.832898 84.504201 
L 15.771717 84.691294 
" style="fill:#0000ff;"/>
    <path clip-path="url(#pa3d0d33056)" d="M 15.775946 68.22995 
L 13.522917 83.691919 
L 15.012847 83.425329 
L 12.428136 87.885646 
L 11.223742 82.873202 
L 12.57564 83.553888 
L 14.82867 68.091918 
L 15.775946 68.22995 
" style="fill:#0000ff;"/>
    <path clip-path="url(#pa3d0d33056)" d="M 15.779627 51.759649 
L 14.508861 68.832211 
L 15.976349 68.461477 
L 13.711786 73.092559 
L 12.157792 68.17725 
L 13.554222 68.761155 
L 14.824988 51.688592 
L 15.779627 51.759649 
" style="fill:#0000ff;"/>
    <path clip-path="url(#pa3d0d33056)" d="M 15.780948 35.287308 
L 15.780948 53.991712 
L 17.216868 53.513072 
L 15.302308 58.299472 
L 13.387748 53.513072 
L 14.823668 53.991712 
L 14.823668 35.287308 
L 15.780948 35.287308 
" style="fill:#0000ff;"/>
    <path clip-path="url(#pa3d0d33056)" d="M 31.574748 265.216325 
L 31.761115 265.051953 
L 31.08163 264.657225 
L 33.60279 263.758966 
L 32.396611 266.14816 
L 32.08986 265.424687 
L 31.903493 265.589059 
L 31.574748 265.216325 
" style="fill:#0000ff;"/>
    <path clip-path="url(#pa3d0d33056)" d="M 31.739121 248.659942 
L 32.045058 248.659942 
L 31.739121 247.742132 
L 34.798488 248.965879 
L 31.739121 250.189626 
L 32.045058 249.271816 
L 31.739121 249.271816 
L 31.739121 248.659942 
" style="fill:#0000ff;"/>
    <path clip-path="url(#pa3d0d33056)" d="M 31.903493 232.162586 
L 32.269973 232.326959 
L 32.396611 231.063147 
L 35.403919 234.172792 
L 31.08163 233.994985 
L 31.941228 233.059918 
L 31.574748 232.895546 
L 31.903493 232.162586 
" style="fill:#0000ff;"/>
    <path clip-path="url(#pa3d0d33056)" d="M 32.063687 215.740467 
L 32.460767 216.106823 
L 33.08268 214.726901 
L 35.30227 219.379705 
L 30.486151 217.541185 
L 31.811635 216.810394 
L 31.414555 216.444038 
L 32.063687 215.740467 
" style="fill:#0000ff;"/>
    <path clip-path="url(#pa3d0d33056)" d="M 32.156283 199.420765 
L 32.818247 200.597485 
L 33.835058 199.4763 
L 34.513155 204.586618 
L 30.497762 201.353695 
L 31.983923 201.066834 
L 31.321959 199.890114 
L 32.156283 199.420765 
" style="fill:#0000ff;"/>
    <path clip-path="url(#pa3d0d33056)" d="M 32.206534 183.115566 
L 32.728696 185.483754 
L 34.027875 184.707161 
L 33.188823 189.79353 
L 30.288571 185.531641 
L 31.79387 185.689874 
L 31.271708 183.321686 
L 32.206534 183.115566 
" style="fill:#0000ff;"/>
    <path clip-path="url(#pa3d0d33056)" d="M 32.217677 166.7908 
L 32.144223 170.702429 
L 33.588876 170.250833 
L 31.584788 175.000443 
L 29.760431 170.178941 
L 31.187111 170.684456 
L 31.260565 166.772827 
L 32.217677 166.7908 
" style="fill:#0000ff;"/>
    <path clip-path="url(#pa3d0d33056)" d="M 32.210574 150.427632 
L 31.225675 156.046909 
L 32.722667 155.823353 
L 30.01053 160.207356 
L 28.951041 155.162295 
L 30.282768 155.881645 
L 31.267668 150.262368 
L 32.210574 150.427632 
" style="fill:#0000ff;"/>
    <path clip-path="url(#pa3d0d33056)" d="M 32.202577 134.027789 
L 30.309663 141.362768 
L 31.819633 141.258119 
L 28.769783 145.414269 
L 28.111985 140.301299 
L 29.382751 141.123562 
L 31.275665 133.788584 
L 32.202577 134.027789 
" style="fill:#0000ff;"/>
    <path clip-path="url(#pa3d0d33056)" d="M 32.200439 117.598973 
L 29.711643 126.596914 
L 31.223197 126.518393 
L 28.101934 130.621182 
L 27.532649 125.497601 
L 28.789006 126.341716 
L 31.277802 117.343775 
L 32.200439 117.598973 
" style="fill:#0000ff;"/>
    <path clip-path="url(#pa3d0d33056)" d="M 32.204165 101.147832 
L 29.620324 111.755971 
L 31.128727 111.630742 
L 28.135836 115.828095 
L 27.408376 110.72457 
L 28.690236 111.529428 
L 31.274077 100.921289 
L 32.204165 101.147832 
" style="fill:#0000ff;"/>
    <path clip-path="url(#pa3d0d33056)" d="M 32.210607 84.68019 
L 30.07842 96.874073 
L 31.575322 96.649914 
L 28.864949 101.035008 
L 27.803431 95.990372 
L 29.135448 96.709187 
L 31.267634 84.515305 
L 32.210607 84.68019 
" style="fill:#0000ff;"/>
    <path clip-path="url(#pa3d0d33056)" d="M 32.21592 68.202876 
L 31.002879 81.992674 
L 32.475218 81.641702 
L 30.148599 86.24192 
L 28.660827 81.306163 
L 30.049281 81.908789 
L 31.262322 68.118992 
L 32.21592 68.202876 
" style="fill:#0000ff;"/>
    <path clip-path="url(#pa3d0d33056)" d="M 32.217761 51.724121 
L 32.217761 67.141073 
L 33.653681 66.662433 
L 31.739121 71.448833 
L 29.824561 66.662433 
L 31.260481 67.141073 
L 31.260481 51.724121 
L 32.217761 51.724121 
" style="fill:#0000ff;"/>
    <path clip-path="url(#pa3d0d33056)" d="M 32.21644 35.251779 
L 33.487206 52.324341 
L 34.883637 51.740437 
L 33.329643 56.655746 
L 31.06508 52.024664 
L 32.532567 52.395398 
L 31.261801 35.322836 
L 32.21644 35.251779 
" style="fill:#0000ff;"/>
    <path clip-path="url(#pa3d0d33056)" d="M 47.847189 265.096756 
L 48.153126 264.76801 
L 46.860953 264.178945 
L 51.235302 262.11524 
L 49.490915 266.626439 
L 48.810616 265.379884 
L 48.504679 265.708629 
L 47.847189 265.096756 
" style="fill:#0000ff;"/>
    <path clip-path="url(#pa3d0d33056)" d="M 48.011561 248.599399 
L 48.378041 248.435027 
L 47.518444 247.49996 
L 51.840732 247.322153 
L 48.833424 250.431798 
L 48.706786 249.167986 
L 48.340307 249.332359 
L 48.011561 248.599399 
" style="fill:#0000ff;"/>
    <path clip-path="url(#pa3d0d33056)" d="M 48.175934 232.172751 
L 48.532249 232.172751 
L 48.175934 231.103806 
L 51.739084 232.529066 
L 48.175934 233.954326 
L 48.532249 232.885381 
L 48.175934 232.885381 
L 48.175934 232.172751 
" style="fill:#0000ff;"/>
    <path clip-path="url(#pa3d0d33056)" d="M 48.340307 215.814849 
L 48.61771 215.979222 
L 48.833424 214.982639 
L 50.949968 217.735979 
L 47.518444 217.201866 
L 48.288965 216.534029 
L 48.011561 216.369656 
L 48.340307 215.814849 
" style="fill:#0000ff;"/>
    <path clip-path="url(#pa3d0d33056)" d="M 48.504679 199.510469 
L 48.649649 199.839215 
L 49.490915 199.075559 
L 49.625636 202.942892 
L 46.860953 200.23532 
L 47.992159 200.129155 
L 47.847189 199.80041 
L 48.504679 199.510469 
" style="fill:#0000ff;"/>
    <path clip-path="url(#pa3d0d33056)" d="M 48.65434 183.233599 
L 48.634763 183.859125 
L 50.084953 183.425638 
L 48.021602 188.149804 
L 46.257707 183.305856 
L 47.677951 183.82918 
L 47.697528 183.203654 
L 48.65434 183.233599 
" style="fill:#0000ff;"/>
    <path clip-path="url(#pa3d0d33056)" d="M 48.638843 166.903515 
L 48.005572 169.312238 
L 49.516002 169.214435 
L 46.447344 173.356717 
L 45.812729 168.240818 
L 47.079754 169.068833 
L 47.713025 166.660111 
L 48.638843 166.903515 
" style="fill:#0000ff;"/>
    <path clip-path="url(#pa3d0d33056)" d="M 48.626095 150.50764 
L 47.120517 154.674826 
L 48.633639 154.712586 
L 45.206596 158.56363 
L 45.032355 153.411465 
L 46.220196 154.349546 
L 47.725774 150.18236 
L 48.626095 150.50764 
" style="fill:#0000ff;"/>
    <path clip-path="url(#pa3d0d33056)" d="M 48.625008 134.073803 
L 46.478367 139.894493 
L 47.991206 139.942267 
L 44.538747 143.770543 
L 44.398613 138.617337 
L 45.580219 139.56326 
L 47.72686 133.742571 
L 48.625008 134.073803 
" style="fill:#0000ff;"/>
    <path clip-path="url(#pa3d0d33056)" d="M 48.6327 117.614416 
L 46.316797 125.009605 
L 47.830137 124.981966 
L 44.57265 128.977456 
L 44.17601 123.837627 
L 45.403265 124.72352 
L 47.719168 117.328331 
L 48.6327 117.614416 
" style="fill:#0000ff;"/>
    <path clip-path="url(#pa3d0d33056)" d="M 48.643535 101.136765 
L 46.689201 110.078165 
L 48.194207 109.917177 
L 45.301762 114.184369 
L 44.453401 109.099543 
L 45.753999 109.873757 
L 47.708333 100.932356 
L 48.643535 101.136765 
" style="fill:#0000ff;"/>
    <path clip-path="url(#pa3d0d33056)" d="M 48.651831 84.648913 
L 47.521803 95.159371 
L 49.000661 94.836972 
L 46.585412 99.391282 
L 45.193482 94.427644 
L 46.570008 95.057039 
L 47.700037 84.546581 
L 48.651831 84.648913 
" style="fill:#0000ff;"/>
    <path clip-path="url(#pa3d0d33056)" d="M 48.654574 68.160934 
L 48.654574 80.290434 
L 50.090494 79.811794 
L 48.175934 84.598194 
L 46.261374 79.811794 
L 47.697294 80.290434 
L 47.697294 68.160934 
L 48.654574 68.160934 
" style="fill:#0000ff;"/>
    <path clip-path="url(#pa3d0d33056)" d="M 48.652733 51.682179 
L 49.865774 65.471976 
L 51.254228 64.86935 
L 49.766456 69.805107 
L 47.439837 65.204889 
L 48.912176 65.55586 
L 47.699135 51.766063 
L 48.652733 51.682179 
" style="fill:#0000ff;"/>
    <path clip-path="url(#pa3d0d33056)" d="M 48.649572 35.218292 
L 50.902601 50.680261 
L 52.2545 49.999576 
L 51.050106 55.01202 
L 48.465395 50.551702 
L 49.955325 50.818293 
L 47.702296 35.356324 
L 48.649572 35.218292 
" style="fill:#0000ff;"/>
    <path clip-path="url(#pa3d0d33056)" d="M 64.228583 265.117186 
L 65.323821 263.643486 
L 63.885821 263.17113 
L 68.277545 260.471514 
L 66.959135 265.455184 
L 66.092149 264.214499 
L 64.996912 265.688199 
L 64.228583 265.117186 
" style="fill:#0000ff;"/>
    <path clip-path="url(#pa3d0d33056)" d="M 64.288181 248.614094 
L 64.685261 248.247737 
L 63.359777 247.516947 
L 68.175897 245.678427 
L 65.956307 250.331231 
L 65.334394 248.951308 
L 64.937313 249.317665 
L 64.288181 248.614094 
" style="fill:#0000ff;"/>
    <path clip-path="url(#pa3d0d33056)" d="M 64.448375 232.251663 
L 64.725778 232.08729 
L 63.955257 231.419452 
L 67.386781 230.88534 
L 65.270238 233.63868 
L 65.054523 232.642097 
L 64.77712 232.806469 
L 64.448375 232.251663 
" style="fill:#0000ff;"/>
    <path clip-path="url(#pa3d0d33056)" d="M 64.612747 215.947283 
L 64.757717 215.947283 
L 64.612747 215.512372 
L 66.062449 216.092253 
L 64.612747 216.672134 
L 64.757717 216.237223 
L 64.612747 216.237223 
L 64.612747 215.947283 
" style="fill:#0000ff;"/>
    <path clip-path="url(#pa3d0d33056)" d="M 64.77712 199.670873 
L 64.761687 199.835245 
L 65.270238 199.717173 
L 64.458415 201.299166 
L 63.955257 199.593707 
L 64.432941 199.804379 
L 64.448375 199.640006 
L 64.77712 199.670873 
" style="fill:#0000ff;"/>
    <path clip-path="url(#pa3d0d33056)" d="M 64.941492 183.391485 
L 64.768633 183.720231 
L 65.927728 183.910063 
L 62.884157 186.506078 
L 63.297766 182.52719 
L 64.111143 183.374513 
L 64.284002 183.045767 
L 64.941492 183.391485 
" style="fill:#0000ff;"/>
    <path clip-path="url(#pa3d0d33056)" d="M 65.022787 167.028721 
L 64.275621 168.26954 
L 65.752648 168.600224 
L 61.64341 171.712991 
L 62.472329 166.62496 
L 63.455541 167.775724 
L 64.202707 166.534905 
L 65.022787 167.028721 
" style="fill:#0000ff;"/>
    <path clip-path="url(#pa3d0d33056)" d="M 65.031573 150.576691 
L 63.479609 153.38216 
L 64.967779 153.658408 
L 60.97556 156.919904 
L 61.61717 151.804877 
L 62.641957 152.918777 
L 64.193921 150.113309 
L 65.031573 150.576691 
" style="fill:#0000ff;"/>
    <path clip-path="url(#pa3d0d33056)" d="M 65.051107 134.100376 
L 63.177529 138.373767 
L 64.684799 138.511976 
L 61.009463 142.126817 
L 61.177919 136.97446 
L 62.300809 137.989388 
L 64.174387 133.715997 
L 65.051107 134.100376 
" style="fill:#0000ff;"/>
    <path clip-path="url(#pa3d0d33056)" d="M 65.072271 117.605292 
L 63.403364 123.331934 
L 64.915854 123.274165 
L 61.738576 127.33373 
L 61.239664 122.202818 
L 62.484317 123.064097 
L 64.153223 117.337455 
L 65.072271 117.605292 
" style="fill:#0000ff;"/>
    <path clip-path="url(#pa3d0d33056)" d="M 65.086879 101.100101 
L 64.086223 108.339 
L 65.574158 108.06149 
L 63.022225 112.540643 
L 61.781106 107.537165 
L 63.13796 108.207919 
L 64.138616 100.96902 
L 65.086879 101.100101 
" style="fill:#0000ff;"/>
    <path clip-path="url(#pa3d0d33056)" d="M 65.091387 84.597747 
L 65.091387 93.439795 
L 66.527307 92.961155 
L 64.612747 97.747555 
L 62.698187 92.961155 
L 64.134107 93.439795 
L 64.134107 84.597747 
L 65.091387 84.597747 
" style="fill:#0000ff;"/>
    <path clip-path="url(#pa3d0d33056)" d="M 65.088645 68.109768 
L 66.218673 78.620226 
L 67.595199 77.990831 
L 66.203269 82.954468 
L 63.78802 78.400159 
L 65.266878 78.722558 
L 64.13685 68.2121 
L 65.088645 68.109768 
" style="fill:#0000ff;"/>
    <path clip-path="url(#pa3d0d33056)" d="M 65.084234 51.641678 
L 67.216421 63.835561 
L 68.548437 63.116746 
L 67.486919 68.161381 
L 64.776546 63.776288 
L 66.273448 64.000446 
L 64.141261 51.806564 
L 65.084234 51.641678 
" style="fill:#0000ff;"/>
    <path clip-path="url(#pa3d0d33056)" d="M 65.082157 35.193761 
L 67.843521 49.050062 
L 69.158203 48.300012 
L 68.216032 53.368294 
L 65.402927 49.048386 
L 66.904702 49.237155 
L 64.143338 35.380854 
L 65.082157 35.193761 
" style="fill:#0000ff;"/>
    <path clip-path="url(#pa3d0d33056)" d="M 80.628743 265.174638 
L 82.139403 262.387092 
L 80.648895 262.123746 
L 84.61271 258.827788 
L 84.015436 263.948182 
L 82.981038 262.843201 
L 81.470378 265.630747 
L 80.628743 265.174638 
" style="fill:#0000ff;"/>
    <path clip-path="url(#pa3d0d33056)" d="M 80.632398 248.731205 
L 81.294362 247.554485 
L 79.808202 247.267623 
L 83.823595 244.034701 
L 83.145498 249.145019 
L 82.128686 248.023834 
L 81.466722 249.200554 
L 80.632398 248.731205 
" style="fill:#0000ff;"/>
    <path clip-path="url(#pa3d0d33056)" d="M 80.720815 232.384096 
L 80.865785 232.055351 
L 79.73458 231.949185 
L 82.499263 229.241614 
L 82.364541 233.108947 
L 81.523276 232.345291 
L 81.378306 232.674036 
L 80.720815 232.384096 
" style="fill:#0000ff;"/>
    <path clip-path="url(#pa3d0d33056)" d="M 80.885188 216.107686 
L 80.869755 215.943313 
L 80.39207 216.153986 
L 80.895228 214.448527 
L 81.707051 216.03052 
L 81.1985 215.912447 
L 81.213933 216.07682 
L 80.885188 216.107686 
" style="fill:#0000ff;"/>
    <path clip-path="url(#pa3d0d33056)" d="M 81.04956 199.828299 
L 80.876701 199.828299 
L 81.04956 200.346876 
L 79.32097 199.65544 
L 81.04956 198.964003 
L 80.876701 199.482581 
L 81.04956 199.482581 
L 81.04956 199.828299 
" style="fill:#0000ff;"/>
    <path clip-path="url(#pa3d0d33056)" d="M 81.213933 183.51556 
L 80.916999 183.679933 
L 81.707051 184.406361 
L 78.080223 184.862352 
L 80.39207 182.030891 
L 80.588254 183.086065 
L 80.885188 182.921693 
L 81.213933 183.51556 
" style="fill:#0000ff;"/>
    <path clip-path="url(#pa3d0d33056)" d="M 81.370507 167.136904 
L 80.929137 167.535834 
L 82.247068 168.28016 
L 77.412374 170.069265 
L 79.679493 165.439434 
L 80.287243 166.825653 
L 80.728614 166.426723 
L 81.370507 167.136904 
" style="fill:#0000ff;"/>
    <path clip-path="url(#pa3d0d33056)" d="M 81.43602 150.627392 
L 80.374262 152.080432 
L 81.816033 152.541148 
L 77.446276 155.276178 
L 78.724355 150.282014 
L 79.601343 151.515649 
L 80.663101 150.062608 
L 81.43602 150.627392 
" style="fill:#0000ff;"/>
    <path clip-path="url(#pa3d0d33056)" d="M 81.488128 134.099903 
L 80.339404 136.727704 
L 81.846821 136.864286 
L 78.175389 140.483091 
L 78.338285 135.330555 
L 79.462269 136.344271 
L 80.610993 133.71647 
L 81.488128 134.099903 
" style="fill:#0000ff;"/>
    <path clip-path="url(#pa3d0d33056)" d="M 81.519481 117.562316 
L 80.747439 121.551657 
L 82.248144 121.354562 
L 79.459039 125.690004 
L 78.488776 120.627025 
L 79.807597 121.369772 
L 80.579639 117.380432 
L 81.519481 117.562316 
" style="fill:#0000ff;"/>
    <path clip-path="url(#pa3d0d33056)" d="M 81.5282 101.03456 
L 81.5282 106.589157 
L 82.96412 106.110517 
L 81.04956 110.896917 
L 79.135 106.110517 
L 80.57092 106.589157 
L 80.57092 101.03456 
L 81.5282 101.03456 
" style="fill:#0000ff;"/>
    <path clip-path="url(#pa3d0d33056)" d="M 81.523692 84.532207 
L 82.524348 91.771105 
L 83.881201 91.100352 
L 82.640082 96.103829 
L 80.088149 91.624677 
L 81.576085 91.902187 
L 80.575429 84.663288 
L 81.523692 84.532207 
" style="fill:#0000ff;"/>
    <path clip-path="url(#pa3d0d33056)" d="M 81.517161 68.05873 
L 83.471495 77.00013 
L 84.772094 76.225917 
L 83.923732 81.310742 
L 81.031287 77.04355 
L 82.536294 77.204539 
L 80.58196 68.263138 
L 81.517161 68.05873 
" style="fill:#0000ff;"/>
    <path clip-path="url(#pa3d0d33056)" d="M 81.514604 51.610849 
L 84.098446 62.218989 
L 85.380306 61.41413 
L 84.652845 66.517655 
L 81.659955 62.320302 
L 83.168358 62.445532 
L 80.584517 51.837392 
L 81.514604 51.610849 
" style="fill:#0000ff;"/>
    <path clip-path="url(#pa3d0d33056)" d="M 81.516896 35.183897 
L 84.223388 47.415138 
L 85.521984 46.63757 
L 84.686747 51.724568 
L 81.783299 47.464855 
L 83.288716 47.621959 
L 80.582225 35.390718 
L 81.516896 35.183897 
" style="fill:#0000ff;"/>
    <path clip-path="url(#pa3d0d33056)" d="M 97.03287 265.249621 
L 98.429265 261.112523 
L 96.915683 261.106814 
L 100.260408 257.184062 
L 100.543711 262.331382 
L 99.336272 261.418665 
L 97.939877 265.555763 
L 97.03287 265.249621 
" style="fill:#0000ff;"/>
    <path clip-path="url(#pa3d0d33056)" d="M 97.018961 248.862819 
L 97.541123 246.494632 
L 96.035824 246.652865 
L 98.936076 242.390975 
L 99.775128 247.477345 
L 98.475949 246.700752 
L 97.953787 249.068939 
L 97.018961 248.862819 
" style="fill:#0000ff;"/>
    <path clip-path="url(#pa3d0d33056)" d="M 97.007968 232.544039 
L 96.988391 231.918512 
L 95.568146 232.441837 
L 97.332041 227.597888 
L 99.395392 232.322054 
L 97.945202 231.888567 
L 97.964779 232.514093 
L 97.007968 232.544039 
" style="fill:#0000ff;"/>
    <path clip-path="url(#pa3d0d33056)" d="M 97.157628 216.265112 
L 96.984769 215.936367 
L 96.171393 216.783689 
L 95.757783 212.804801 
L 98.801354 215.400817 
L 97.64226 215.590648 
L 97.815119 215.919394 
L 97.157628 216.265112 
" style="fill:#0000ff;"/>
    <path clip-path="url(#pa3d0d33056)" d="M 97.322001 199.952373 
L 97.025067 199.788001 
L 96.828883 200.843175 
L 94.517036 198.011714 
L 98.143864 198.467705 
L 97.353812 199.194133 
L 97.650746 199.358506 
L 97.322001 199.952373 
" style="fill:#0000ff;"/>
    <path clip-path="url(#pa3d0d33056)" d="M 97.486374 183.582345 
L 97.122655 183.582345 
L 97.486374 184.673501 
L 93.849187 183.218626 
L 97.486374 181.763752 
L 97.122655 182.854908 
L 97.486374 182.854908 
L 97.486374 183.582345 
" style="fill:#0000ff;"/>
    <path clip-path="url(#pa3d0d33056)" d="M 97.650746 167.142142 
L 97.290418 167.306514 
L 98.143864 168.223127 
L 93.883089 168.425539 
L 96.828883 165.340499 
L 96.961673 166.585857 
L 97.322001 166.421485 
L 97.650746 167.142142 
" style="fill:#0000ff;"/>
    <path clip-path="url(#pa3d0d33056)" d="M 97.815119 150.632417 
L 97.527702 150.961162 
L 98.801354 151.494669 
L 94.612202 153.632452 
L 96.171393 149.195331 
L 96.870211 150.386328 
L 97.157628 150.057583 
L 97.815119 150.632417 
" style="fill:#0000ff;"/>
    <path clip-path="url(#pa3d0d33056)" d="M 97.941904 134.055115 
L 97.673741 134.886517 
L 99.187261 134.871773 
L 95.895852 138.839365 
L 95.543016 133.696343 
L 96.762679 134.59266 
L 97.030843 133.761258 
L 97.941904 134.055115 
" style="fill:#0000ff;"/>
    <path clip-path="url(#pa3d0d33056)" d="M 97.965014 117.471374 
L 97.965014 119.738518 
L 99.400934 119.259878 
L 97.486374 124.046278 
L 95.571814 119.259878 
L 97.007734 119.738518 
L 97.007734 117.471374 
L 97.965014 117.471374 
" style="fill:#0000ff;"/>
    <path clip-path="url(#pa3d0d33056)" d="M 97.956295 100.943618 
L 98.728337 104.932959 
L 100.047158 104.190212 
L 99.076895 109.253191 
L 96.28779 104.917749 
L 97.788495 105.114843 
L 97.016453 101.125503 
L 97.956295 100.943618 
" style="fill:#0000ff;"/>
    <path clip-path="url(#pa3d0d33056)" d="M 97.945897 84.463829 
L 99.614804 90.190471 
L 100.859457 89.329192 
L 100.360545 94.460103 
L 97.183267 90.400539 
L 98.695756 90.458307 
L 97.02685 84.731666 
L 97.945897 84.463829 
" style="fill:#0000ff;"/>
    <path clip-path="url(#pa3d0d33056)" d="M 97.94314 68.017892 
L 100.259042 75.41308 
L 101.486298 74.527187 
L 101.089658 79.667016 
L 97.83217 75.671526 
L 99.345511 75.699165 
L 97.029608 68.303976 
L 97.94314 68.017892 
" style="fill:#0000ff;"/>
    <path clip-path="url(#pa3d0d33056)" d="M 97.947692 51.596522 
L 100.436488 60.594464 
L 101.692845 59.750348 
L 101.12356 64.873929 
L 98.002297 60.77114 
L 99.513851 60.849662 
L 97.025055 51.85172 
L 97.947692 51.596522 
" style="fill:#0000ff;"/>
    <path clip-path="url(#pa3d0d33056)" d="M 97.955654 35.193114 
L 100.077252 45.763127 
L 101.390899 45.011267 
L 100.455711 50.080842 
L 97.636658 45.764813 
L 99.138692 45.951514 
L 97.017093 35.381501 
L 97.955654 35.193114 
" style="fill:#0000ff;"/>
    <path clip-path="url(#pa3d0d33056)" d="M 113.449636 265.333083 
L 114.272857 259.732689 
L 112.782594 259.997413 
L 115.372889 255.540336 
L 116.571005 260.554285 
L 115.21996 259.871907 
L 114.396738 265.472301 
L 113.449636 265.333083 
" style="fill:#0000ff;"/>
    <path clip-path="url(#pa3d0d33056)" d="M 113.444631 248.974866 
L 113.371177 245.063236 
L 111.944497 245.568751 
L 113.768854 240.747249 
L 115.772942 245.496859 
L 114.328288 245.045263 
L 114.401742 248.956893 
L 113.444631 248.974866 
" style="fill:#0000ff;"/>
    <path clip-path="url(#pa3d0d33056)" d="M 113.460278 232.650768 
L 112.827007 230.242046 
L 111.559982 231.070061 
L 112.194596 225.954162 
L 115.263255 230.096444 
L 113.752825 229.998641 
L 114.386096 232.407364 
L 113.460278 232.650768 
" style="fill:#0000ff;"/>
    <path clip-path="url(#pa3d0d33056)" d="M 113.513147 216.339161 
L 112.765981 215.098342 
L 111.782769 216.249105 
L 110.953849 211.161075 
L 115.063088 214.273842 
L 113.58606 214.604526 
L 114.333227 215.845345 
L 113.513147 216.339161 
" style="fill:#0000ff;"/>
    <path clip-path="url(#pa3d0d33056)" d="M 113.60224 200.01053 
L 113.160869 199.6116 
L 112.553119 200.997818 
L 110.286 196.367988 
L 115.120694 198.157093 
L 113.802763 198.901418 
L 114.244134 199.300349 
L 113.60224 200.01053 
" style="fill:#0000ff;"/>
    <path clip-path="url(#pa3d0d33056)" d="M 113.758814 183.578955 
L 113.398486 183.414582 
L 113.265696 184.65994 
L 110.319902 181.5749 
L 114.580677 181.777313 
L 113.727231 182.693925 
L 114.087559 182.858298 
L 113.758814 183.578955 
" style="fill:#0000ff;"/>
    <path clip-path="url(#pa3d0d33056)" d="M 113.923187 167.06923 
L 113.63577 167.06923 
L 113.923187 167.931482 
L 111.049015 166.781813 
L 113.923187 165.632145 
L 113.63577 166.494396 
L 113.923187 166.494396 
L 113.923187 167.06923 
" style="fill:#0000ff;"/>
    <path clip-path="url(#pa3d0d33056)" d="M 114.087559 150.504052 
L 113.928507 150.668425 
L 114.580677 150.981209 
L 112.332665 151.988726 
L 113.265696 149.708791 
L 113.599762 150.35032 
L 113.758814 150.185948 
L 114.087559 150.504052 
" style="fill:#0000ff;"/>
    <path clip-path="url(#pa3d0d33056)" d="M 114.251932 133.908187 
L 114.251932 134.236932 
L 115.238168 133.908187 
L 113.923187 137.195639 
L 112.608206 133.908187 
L 113.594442 134.236932 
L 113.594442 133.908187 
L 114.251932 133.908187 
" style="fill:#0000ff;"/>
    <path clip-path="url(#pa3d0d33056)" d="M 114.378718 117.324445 
L 114.646881 118.155847 
L 115.866545 117.25953 
L 115.513709 122.402552 
L 112.222299 118.43496 
L 113.73582 118.449704 
L 113.467656 117.618302 
L 114.378718 117.324445 
" style="fill:#0000ff;"/>
    <path clip-path="url(#pa3d0d33056)" d="M 114.361754 100.842844 
L 115.510478 103.470645 
L 116.634463 102.456928 
L 116.797358 107.609465 
L 113.125926 103.99066 
L 114.633344 103.854077 
L 113.48462 101.226277 
L 114.361754 100.842844 
" style="fill:#0000ff;"/>
    <path clip-path="url(#pa3d0d33056)" d="M 114.361547 84.405558 
L 116.235125 88.678949 
L 117.358015 87.66402 
L 117.526471 92.816377 
L 113.851135 89.201537 
L 115.358405 89.063328 
L 113.484827 84.789937 
L 114.361547 84.405558 
" style="fill:#0000ff;"/>
    <path clip-path="url(#pa3d0d33056)" d="M 114.372261 67.995318 
L 116.518902 73.816007 
L 117.700508 72.870085 
L 117.560374 78.02329 
L 114.107915 74.195015 
L 115.620753 74.14724 
L 113.474113 68.32655 
L 114.372261 67.995318 
" style="fill:#0000ff;"/>
    <path clip-path="url(#pa3d0d33056)" d="M 114.386643 51.604518 
L 116.279557 58.939496 
L 117.550322 58.117233 
L 116.892524 63.230203 
L 113.842674 59.074053 
L 115.352645 59.178702 
L 113.459731 51.843723 
L 114.386643 51.604518 
" style="fill:#0000ff;"/>
    <path clip-path="url(#pa3d0d33056)" d="M 114.397744 35.224925 
L 115.564894 44.103717 
L 116.926184 43.442013 
L 115.651777 48.437116 
L 113.129725 43.941071 
L 114.615779 44.228482 
L 113.448629 35.34969 
L 114.397744 35.224925 
" style="fill:#0000ff;"/>
    <path clip-path="url(#pa3d0d33056)" d="M 129.881403 265.409112 
L 129.784846 258.210402 
L 128.355475 258.708258 
L 130.205668 253.89661 
L 132.18425 258.656902 
L 130.74204 258.197563 
L 130.838597 265.396273 
L 129.881403 265.409112 
" style="fill:#0000ff;"/>
    <path clip-path="url(#pa3d0d33056)" d="M 129.888547 249.048511 
L 128.903647 243.429234 
L 127.57192 244.148585 
L 128.63141 239.103523 
L 131.343546 243.487526 
L 129.846554 243.26397 
L 130.831453 248.883247 
L 129.888547 249.048511 
" style="fill:#0000ff;"/>
    <path clip-path="url(#pa3d0d33056)" d="M 129.90984 232.691706 
L 128.404262 228.52452 
L 127.216421 229.462601 
L 127.390662 224.310436 
L 130.817705 228.16148 
L 129.304583 228.19924 
L 130.81016 232.366426 
L 129.90984 232.691706 
" style="fill:#0000ff;"/>
    <path clip-path="url(#pa3d0d33056)" d="M 129.941174 216.323944 
L 128.38921 213.518475 
L 127.364423 214.632376 
L 126.722813 209.517349 
L 130.715032 212.778844 
L 129.226862 213.055092 
L 130.778826 215.860561 
L 129.941174 216.323944 
" style="fill:#0000ff;"/>
    <path clip-path="url(#pa3d0d33056)" d="M 129.97354 199.937831 
L 128.911782 198.484791 
L 128.034795 199.718426 
L 126.756716 194.724261 
L 131.126473 197.459291 
L 129.684702 197.920007 
L 130.74646 199.373048 
L 129.97354 199.937831 
" style="fill:#0000ff;"/>
    <path clip-path="url(#pa3d0d33056)" d="M 130.031255 183.506044 
L 129.743838 183.177298 
L 129.045019 184.368295 
L 127.485828 179.931174 
L 131.674981 182.068958 
L 130.401328 182.602464 
L 130.688745 182.931209 
L 130.031255 183.506044 
" style="fill:#0000ff;"/>
    <path clip-path="url(#pa3d0d33056)" d="M 130.195627 166.940865 
L 130.036575 166.776493 
L 129.70251 167.418022 
L 128.769478 165.138087 
L 131.01749 166.145604 
L 130.36532 166.458388 
L 130.524373 166.622761 
L 130.195627 166.940865 
" style="fill:#0000ff;"/>
    <path clip-path="url(#pa3d0d33056)" d="M 130.83864 150.345 
L 130.59932 149.930486 
L 130.12068 149.930486 
L 129.88136 150.345 
L 130.12068 150.759514 
L 130.59932 150.759514 
L 130.83864 150.345 
L 130.59932 149.930486 
" style="fill:#0000ff;"/>
    <path clip-path="url(#pa3d0d33056)" d="M 130.524373 133.749135 
L 130.683425 133.913507 
L 131.01749 133.271978 
L 131.950522 135.551913 
L 129.70251 134.544396 
L 130.35468 134.231612 
L 130.195627 134.067239 
L 130.524373 133.749135 
" style="fill:#0000ff;"/>
    <path clip-path="url(#pa3d0d33056)" d="M 130.688745 117.183956 
L 130.976162 117.512702 
L 131.674981 116.321705 
L 133.234172 120.758826 
L 129.045019 118.621042 
L 130.318672 118.087536 
L 130.031255 117.758791 
L 130.688745 117.183956 
" style="fill:#0000ff;"/>
    <path clip-path="url(#pa3d0d33056)" d="M 130.74646 100.752169 
L 131.808218 102.205209 
L 132.685205 100.971574 
L 133.963284 105.965739 
L 129.593527 103.230709 
L 131.035298 102.769993 
L 129.97354 101.316952 
L 130.74646 100.752169 
" style="fill:#0000ff;"/>
    <path clip-path="url(#pa3d0d33056)" d="M 130.778826 84.366056 
L 132.33079 87.171525 
L 133.355577 86.057624 
L 133.997187 91.172651 
L 130.004968 87.911156 
L 131.493138 87.634908 
L 129.941174 84.829439 
L 130.778826 84.366056 
" style="fill:#0000ff;"/>
    <path clip-path="url(#pa3d0d33056)" d="M 130.81016 67.998294 
L 132.315738 72.16548 
L 133.503579 71.227399 
L 133.329338 76.379564 
L 129.902295 72.52852 
L 131.415417 72.49076 
L 129.90984 68.323574 
L 130.81016 67.998294 
" style="fill:#0000ff;"/>
    <path clip-path="url(#pa3d0d33056)" d="M 130.831453 51.641489 
L 131.816353 57.260766 
L 133.14808 56.541415 
L 132.08859 61.586477 
L 129.376454 57.202474 
L 130.873446 57.42603 
L 129.888547 51.806753 
L 130.831453 51.641489 
" style="fill:#0000ff;"/>
    <path clip-path="url(#pa3d0d33056)" d="M 130.838597 35.280888 
L 130.935154 42.479598 
L 132.364525 41.981742 
L 130.514332 46.79339 
L 128.53575 42.033098 
L 129.97796 42.492437 
L 129.881403 35.293727 
L 130.838597 35.280888 
" style="fill:#0000ff;"/>
    <path clip-path="url(#pa3d0d33056)" d="M 146.322256 265.465075 
L 145.155106 256.586283 
L 143.793816 257.247987 
L 145.068223 252.252884 
L 147.590275 256.748929 
L 146.104221 256.461518 
L 147.271371 265.34031 
L 146.322256 265.465075 
" style="fill:#0000ff;"/>
    <path clip-path="url(#pa3d0d33056)" d="M 146.333357 249.085482 
L 144.440443 241.750504 
L 143.169678 242.572767 
L 143.827476 237.459797 
L 146.877326 241.615947 
L 145.367355 241.511298 
L 147.260269 248.846277 
L 146.333357 249.085482 
" style="fill:#0000ff;"/>
    <path clip-path="url(#pa3d0d33056)" d="M 146.347739 232.694682 
L 144.201098 226.873993 
L 143.019492 227.819915 
L 143.159626 222.66671 
L 146.612085 226.494985 
L 145.099247 226.54276 
L 147.245887 232.36345 
L 146.347739 232.694682 
" style="fill:#0000ff;"/>
    <path clip-path="url(#pa3d0d33056)" d="M 146.358453 216.284442 
L 144.484875 212.011051 
L 143.361985 213.02598 
L 143.193529 207.873623 
L 146.868865 211.488463 
L 145.361595 211.626672 
L 147.235173 215.900063 
L 146.358453 216.284442 
" style="fill:#0000ff;"/>
    <path clip-path="url(#pa3d0d33056)" d="M 146.358246 199.847156 
L 145.209522 197.219355 
L 144.085537 198.233072 
L 143.922642 193.080535 
L 147.594074 196.69934 
L 146.086656 196.835923 
L 147.23538 199.463723 
L 146.358246 199.847156 
" style="fill:#0000ff;"/>
    <path clip-path="url(#pa3d0d33056)" d="M 146.341282 183.365555 
L 146.073119 182.534153 
L 144.853455 183.43047 
L 145.206291 178.287448 
L 148.497701 182.25504 
L 146.98418 182.240296 
L 147.252344 183.071698 
L 146.341282 183.365555 
" style="fill:#0000ff;"/>
    <path clip-path="url(#pa3d0d33056)" d="M 146.468068 166.781813 
L 146.468068 166.453068 
L 145.481832 166.781813 
L 146.796813 163.494361 
L 148.111794 166.781813 
L 147.125558 166.453068 
L 147.125558 166.781813 
L 146.468068 166.781813 
" style="fill:#0000ff;"/>
    <path clip-path="url(#pa3d0d33056)" d="M 146.632441 150.185948 
L 146.791493 150.021575 
L 146.139323 149.708791 
L 148.387335 148.701274 
L 147.454304 150.981209 
L 147.120238 150.33968 
L 146.961186 150.504052 
L 146.632441 150.185948 
" style="fill:#0000ff;"/>
    <path clip-path="url(#pa3d0d33056)" d="M 146.796813 133.62077 
L 147.08423 133.62077 
L 146.796813 132.758518 
L 149.670985 133.908187 
L 146.796813 135.057855 
L 147.08423 134.195604 
L 146.796813 134.195604 
L 146.796813 133.62077 
" style="fill:#0000ff;"/>
    <path clip-path="url(#pa3d0d33056)" d="M 146.961186 117.111045 
L 147.321514 117.275418 
L 147.454304 116.03006 
L 150.400098 119.1151 
L 146.139323 118.912687 
L 146.992769 117.996075 
L 146.632441 117.831702 
L 146.961186 117.111045 
" style="fill:#0000ff;"/>
    <path clip-path="url(#pa3d0d33056)" d="M 147.11776 100.67947 
L 147.559131 101.0784 
L 148.166881 99.692182 
L 150.434 104.322012 
L 145.599306 102.532907 
L 146.917237 101.788582 
L 146.475866 101.389651 
L 147.11776 100.67947 
" style="fill:#0000ff;"/>
    <path clip-path="url(#pa3d0d33056)" d="M 147.206853 84.350839 
L 147.954019 85.591658 
L 148.937231 84.440895 
L 149.766151 89.528925 
L 145.656912 86.416158 
L 147.13394 86.085474 
L 146.386773 84.844655 
L 147.206853 84.350839 
" style="fill:#0000ff;"/>
    <path clip-path="url(#pa3d0d33056)" d="M 147.259722 68.039232 
L 147.892993 70.447954 
L 149.160018 69.619939 
L 148.525404 74.735838 
L 145.456745 70.593556 
L 146.967175 70.691359 
L 146.333904 68.282636 
L 147.259722 68.039232 
" style="fill:#0000ff;"/>
    <path clip-path="url(#pa3d0d33056)" d="M 147.275369 51.715134 
L 147.348823 55.626764 
L 148.775503 55.121249 
L 146.951146 59.942751 
L 144.947058 55.193141 
L 146.391712 55.644737 
L 146.318258 51.733107 
L 147.275369 51.715134 
" style="fill:#0000ff;"/>
    <path clip-path="url(#pa3d0d33056)" d="M 147.270364 35.356917 
L 146.447143 40.957311 
L 147.937406 40.692587 
L 145.347111 45.149664 
L 144.148995 40.135715 
L 145.50004 40.818093 
L 146.323262 35.217699 
L 147.270364 35.356917 
" style="fill:#0000ff;"/>
    <path clip-path="url(#pa3d0d33056)" d="M 162.764346 265.496886 
L 160.642748 254.926873 
L 159.329101 255.678733 
L 160.264289 250.609158 
L 163.083342 254.925187 
L 161.581308 254.738486 
L 163.702907 265.308499 
L 162.764346 265.496886 
" style="fill:#0000ff;"/>
    <path clip-path="url(#pa3d0d33056)" d="M 162.772308 249.093478 
L 160.283512 240.095536 
L 159.027155 240.939652 
L 159.59644 235.816071 
L 162.717703 239.91886 
L 161.206149 239.840338 
L 163.694945 248.83828 
L 162.772308 249.093478 
" style="fill:#0000ff;"/>
    <path clip-path="url(#pa3d0d33056)" d="M 162.77686 232.672108 
L 160.460958 225.27692 
L 159.233702 226.162813 
L 159.630342 221.022984 
L 162.88783 225.018474 
L 161.374489 224.990835 
L 163.690392 232.386024 
L 162.77686 232.672108 
" style="fill:#0000ff;"/>
    <path clip-path="url(#pa3d0d33056)" d="M 162.774103 216.226171 
L 161.105196 210.499529 
L 159.860543 211.360808 
L 160.359455 206.229897 
L 163.536733 210.289461 
L 162.024244 210.231693 
L 163.69315 215.958334 
L 162.774103 216.226171 
" style="fill:#0000ff;"/>
    <path clip-path="url(#pa3d0d33056)" d="M 162.763705 199.746382 
L 161.991663 195.757041 
L 160.672842 196.499788 
L 161.643105 191.436809 
L 164.43221 195.772251 
L 162.931505 195.575157 
L 163.703547 199.564497 
L 162.763705 199.746382 
" style="fill:#0000ff;"/>
    <path clip-path="url(#pa3d0d33056)" d="M 162.754986 183.218626 
L 162.754986 180.951482 
L 161.319066 181.430122 
L 163.233626 176.643722 
L 165.148186 181.430122 
L 163.712266 180.951482 
L 163.712266 183.218626 
L 162.754986 183.218626 
" style="fill:#0000ff;"/>
    <path clip-path="url(#pa3d0d33056)" d="M 162.778096 166.634885 
L 163.046259 165.803483 
L 161.532739 165.818227 
L 164.824148 161.850635 
L 165.176984 166.993657 
L 163.957321 166.09734 
L 163.689157 166.928742 
L 162.778096 166.634885 
" style="fill:#0000ff;"/>
    <path clip-path="url(#pa3d0d33056)" d="M 162.904881 150.057583 
L 163.192298 149.728838 
L 161.918646 149.195331 
L 166.107798 147.057548 
L 164.548607 151.494669 
L 163.849789 150.303672 
L 163.562372 150.632417 
L 162.904881 150.057583 
" style="fill:#0000ff;"/>
    <path clip-path="url(#pa3d0d33056)" d="M 163.069254 133.547858 
L 163.429582 133.383486 
L 162.576136 132.466873 
L 166.836911 132.264461 
L 163.891117 135.349501 
L 163.758327 134.104143 
L 163.397999 134.268515 
L 163.069254 133.547858 
" style="fill:#0000ff;"/>
    <path clip-path="url(#pa3d0d33056)" d="M 163.233626 117.107655 
L 163.597345 117.107655 
L 163.233626 116.016499 
L 166.870813 117.471374 
L 163.233626 118.926248 
L 163.597345 117.835092 
L 163.233626 117.835092 
L 163.233626 117.107655 
" style="fill:#0000ff;"/>
    <path clip-path="url(#pa3d0d33056)" d="M 163.397999 100.737627 
L 163.694933 100.901999 
L 163.891117 99.846825 
L 166.202964 102.678286 
L 162.576136 102.222295 
L 163.366188 101.495867 
L 163.069254 101.331494 
L 163.397999 100.737627 
" style="fill:#0000ff;"/>
    <path clip-path="url(#pa3d0d33056)" d="M 163.562372 84.424888 
L 163.735231 84.753633 
L 164.548607 83.906311 
L 164.962217 87.885199 
L 161.918646 85.289183 
L 163.07774 85.099352 
L 162.904881 84.770606 
L 163.562372 84.424888 
" style="fill:#0000ff;"/>
    <path clip-path="url(#pa3d0d33056)" d="M 163.712032 68.145961 
L 163.731609 68.771488 
L 165.151854 68.248163 
L 163.387959 73.092112 
L 161.324608 68.367946 
L 162.774798 68.801433 
L 162.755221 68.175907 
L 163.712032 68.145961 
" style="fill:#0000ff;"/>
    <path clip-path="url(#pa3d0d33056)" d="M 163.701039 51.827181 
L 163.178877 54.195368 
L 164.684176 54.037135 
L 161.783924 58.299025 
L 160.944872 53.212655 
L 162.244051 53.989248 
L 162.766213 51.621061 
L 163.701039 51.827181 
" style="fill:#0000ff;"/>
    <path clip-path="url(#pa3d0d33056)" d="M 163.68713 35.440379 
L 162.290735 39.577477 
L 163.804317 39.583186 
L 160.459592 43.505938 
L 160.176289 38.358618 
L 161.383728 39.271335 
L 162.780123 35.134237 
L 163.68713 35.440379 
" style="fill:#0000ff;"/>
    <path clip-path="url(#pa3d0d33056)" d="M 179.203104 265.506103 
L 176.496612 253.274862 
L 175.198016 254.05243 
L 176.033253 248.965432 
L 178.936701 253.225145 
L 177.431284 253.068041 
L 180.137775 265.299282 
L 179.203104 265.506103 
" style="fill:#0000ff;"/>
    <path clip-path="url(#pa3d0d33056)" d="M 179.205396 249.079151 
L 176.621554 238.471011 
L 175.339694 239.27587 
L 176.067155 234.172345 
L 179.060045 238.369698 
L 177.551642 238.244468 
L 180.135483 248.852608 
L 179.205396 249.079151 
" style="fill:#0000ff;"/>
    <path clip-path="url(#pa3d0d33056)" d="M 179.202839 232.63127 
L 177.248505 223.68987 
L 175.947906 224.464083 
L 176.796268 219.379258 
L 179.688713 223.64645 
L 178.183706 223.485461 
L 180.13804 232.426862 
L 179.202839 232.63127 
" style="fill:#0000ff;"/>
    <path clip-path="url(#pa3d0d33056)" d="M 179.196308 216.157793 
L 178.195652 208.918895 
L 176.838799 209.589648 
L 178.079918 204.586171 
L 180.631851 209.065323 
L 179.143915 208.787813 
L 180.144571 216.026712 
L 179.196308 216.157793 
" style="fill:#0000ff;"/>
    <path clip-path="url(#pa3d0d33056)" d="M 179.1918 199.65544 
L 179.1918 194.100843 
L 177.75588 194.579483 
L 179.67044 189.793083 
L 181.585 194.579483 
L 180.14908 194.100843 
L 180.14908 199.65544 
L 179.1918 199.65544 
" style="fill:#0000ff;"/>
    <path clip-path="url(#pa3d0d33056)" d="M 179.200519 183.127684 
L 179.972561 179.138343 
L 178.471856 179.335438 
L 181.260961 174.999996 
L 182.231224 180.062975 
L 180.912403 179.320228 
L 180.140361 183.309568 
L 179.200519 183.127684 
" style="fill:#0000ff;"/>
    <path clip-path="url(#pa3d0d33056)" d="M 179.231872 166.590097 
L 180.380596 163.962296 
L 178.873179 163.825714 
L 182.544611 160.206909 
L 182.381715 165.359445 
L 181.257731 164.345729 
L 180.109007 166.97353 
L 179.231872 166.590097 
" style="fill:#0000ff;"/>
    <path clip-path="url(#pa3d0d33056)" d="M 179.28398 150.062608 
L 180.345738 148.609568 
L 178.903967 148.148852 
L 183.273724 145.413822 
L 181.995645 150.407986 
L 181.118657 149.174351 
L 180.056899 150.627392 
L 179.28398 150.062608 
" style="fill:#0000ff;"/>
    <path clip-path="url(#pa3d0d33056)" d="M 179.349493 133.553096 
L 179.790863 133.154166 
L 178.472932 132.40984 
L 183.307626 130.620735 
L 181.040507 135.250566 
L 180.432757 133.864347 
L 179.991386 134.263277 
L 179.349493 133.553096 
" style="fill:#0000ff;"/>
    <path clip-path="url(#pa3d0d33056)" d="M 179.506067 117.17444 
L 179.803001 117.010067 
L 179.012949 116.283639 
L 182.639777 115.827648 
L 180.32793 118.659109 
L 180.131746 117.603935 
L 179.834812 117.768307 
L 179.506067 117.17444 
" style="fill:#0000ff;"/>
    <path clip-path="url(#pa3d0d33056)" d="M 179.67044 100.861701 
L 179.843299 100.861701 
L 179.67044 100.343124 
L 181.39903 101.03456 
L 179.67044 101.725997 
L 179.843299 101.207419 
L 179.67044 101.207419 
L 179.67044 100.861701 
" style="fill:#0000ff;"/>
    <path clip-path="url(#pa3d0d33056)" d="M 179.834812 84.582314 
L 179.850245 84.746687 
L 180.32793 84.536014 
L 179.824772 86.241473 
L 179.012949 84.65948 
L 179.5215 84.777553 
L 179.506067 84.61318 
L 179.834812 84.582314 
" style="fill:#0000ff;"/>
    <path clip-path="url(#pa3d0d33056)" d="M 179.999185 68.305904 
L 179.854215 68.634649 
L 180.98542 68.740815 
L 178.220737 71.448386 
L 178.355459 67.581053 
L 179.196724 68.344709 
L 179.341694 68.015964 
L 179.999185 68.305904 
" style="fill:#0000ff;"/>
    <path clip-path="url(#pa3d0d33056)" d="M 180.087602 51.958795 
L 179.425638 53.135515 
L 180.911798 53.422377 
L 176.896405 56.655299 
L 177.574502 51.544981 
L 178.591314 52.666166 
L 179.253278 51.489446 
L 180.087602 51.958795 
" style="fill:#0000ff;"/>
    <path clip-path="url(#pa3d0d33056)" d="M 180.091257 35.515362 
L 178.580597 38.302908 
L 180.071105 38.566254 
L 176.10729 41.862212 
L 176.704564 36.741818 
L 177.738962 37.846799 
L 179.249622 35.059253 
L 180.091257 35.515362 
" style="fill:#0000ff;"/>
    <path clip-path="url(#pa3d0d33056)" d="M 195.637843 265.496239 
L 192.876479 251.639938 
L 191.561797 252.389988 
L 192.503968 247.321706 
L 195.317073 251.641614 
L 193.815298 251.452845 
L 196.576662 265.309146 
L 195.637843 265.496239 
" style="fill:#0000ff;"/>
    <path clip-path="url(#pa3d0d33056)" d="M 195.635766 249.048322 
L 193.503579 236.854439 
L 192.171563 237.573254 
L 193.233081 232.528619 
L 195.943454 236.913712 
L 194.446552 236.689554 
L 196.578739 248.883436 
L 195.635766 249.048322 
" style="fill:#0000ff;"/>
    <path clip-path="url(#pa3d0d33056)" d="M 195.631355 232.580232 
L 194.501327 222.069774 
L 193.124801 222.699169 
L 194.516731 217.735532 
L 196.93198 222.289841 
L 195.453122 221.967442 
L 196.58315 232.4779 
L 195.631355 232.580232 
" style="fill:#0000ff;"/>
    <path clip-path="url(#pa3d0d33056)" d="M 195.628613 216.092253 
L 195.628613 207.250205 
L 194.192693 207.728845 
L 196.107253 202.942445 
L 198.021813 207.728845 
L 196.585893 207.250205 
L 196.585893 216.092253 
L 195.628613 216.092253 
" style="fill:#0000ff;"/>
    <path clip-path="url(#pa3d0d33056)" d="M 195.633121 199.589899 
L 196.633777 192.351 
L 195.145842 192.62851 
L 197.697775 188.149357 
L 198.938894 193.152835 
L 197.58204 192.482081 
L 196.581384 199.72098 
L 195.633121 199.589899 
" style="fill:#0000ff;"/>
    <path clip-path="url(#pa3d0d33056)" d="M 195.647729 183.084708 
L 197.316636 177.358066 
L 195.804146 177.415835 
L 198.981424 173.35627 
L 199.480336 178.487182 
L 198.235683 177.625903 
L 196.566777 183.352545 
L 195.647729 183.084708 
" style="fill:#0000ff;"/>
    <path clip-path="url(#pa3d0d33056)" d="M 195.668893 166.589624 
L 197.542471 162.316233 
L 196.035201 162.178024 
L 199.710537 158.563183 
L 199.542081 163.71554 
L 198.419191 162.700612 
L 196.545613 166.974003 
L 195.668893 166.589624 
" style="fill:#0000ff;"/>
    <path clip-path="url(#pa3d0d33056)" d="M 195.688427 150.113309 
L 197.240391 147.30784 
L 195.752221 147.031592 
L 199.74444 143.770096 
L 199.10283 148.885123 
L 198.078043 147.771223 
L 196.526079 150.576691 
L 195.688427 150.113309 
" style="fill:#0000ff;"/>
    <path clip-path="url(#pa3d0d33056)" d="M 195.697213 133.661279 
L 196.444379 132.42046 
L 194.967352 132.089776 
L 199.07659 128.977009 
L 198.247671 134.06504 
L 197.264459 132.914276 
L 196.517293 134.155095 
L 195.697213 133.661279 
" style="fill:#0000ff;"/>
    <path clip-path="url(#pa3d0d33056)" d="M 195.778508 117.298515 
L 195.951367 116.969769 
L 194.792272 116.779937 
L 197.835843 114.183922 
L 197.422234 118.16281 
L 196.608857 117.315487 
L 196.435998 117.644233 
L 195.778508 117.298515 
" style="fill:#0000ff;"/>
    <path clip-path="url(#pa3d0d33056)" d="M 195.94288 101.019127 
L 195.958313 100.854755 
L 195.449762 100.972827 
L 196.261585 99.390834 
L 196.764743 101.096293 
L 196.287059 100.885621 
L 196.271625 101.049994 
L 195.94288 101.019127 
" style="fill:#0000ff;"/>
    <path clip-path="url(#pa3d0d33056)" d="M 196.107253 84.742717 
L 195.962283 84.742717 
L 196.107253 85.177628 
L 194.657551 84.597747 
L 196.107253 84.017866 
L 195.962283 84.452777 
L 196.107253 84.452777 
L 196.107253 84.742717 
" style="fill:#0000ff;"/>
    <path clip-path="url(#pa3d0d33056)" d="M 196.271625 68.438337 
L 195.994222 68.60271 
L 196.764743 69.270548 
L 193.333219 69.80466 
L 195.449762 67.05132 
L 195.665477 68.047903 
L 195.94288 67.883531 
L 196.271625 68.438337 
" style="fill:#0000ff;"/>
    <path clip-path="url(#pa3d0d33056)" d="M 196.431819 52.075906 
L 196.034739 52.442263 
L 197.360223 53.173053 
L 192.544103 55.011573 
L 194.763693 50.358769 
L 195.385606 51.738692 
L 195.782687 51.372335 
L 196.431819 52.075906 
" style="fill:#0000ff;"/>
    <path clip-path="url(#pa3d0d33056)" d="M 196.491417 35.572814 
L 195.396179 37.046514 
L 196.834179 37.51887 
L 192.442455 40.218486 
L 193.760865 35.234816 
L 194.627851 36.475501 
L 195.723088 35.001801 
L 196.491417 35.572814 
" style="fill:#0000ff;"/>
    <path clip-path="url(#pa3d0d33056)" d="M 212.070428 265.471708 
L 209.817399 250.009739 
L 208.4655 250.690424 
L 209.669894 245.67798 
L 212.254605 250.138298 
L 210.764675 249.871707 
L 213.017704 265.333676 
L 212.070428 265.471708 
" style="fill:#0000ff;"/>
    <path clip-path="url(#pa3d0d33056)" d="M 212.067267 249.007821 
L 210.854226 235.218024 
L 209.465772 235.82065 
L 210.953544 230.884893 
L 213.280163 235.485111 
L 211.807824 235.13414 
L 213.020865 248.923937 
L 212.067267 249.007821 
" style="fill:#0000ff;"/>
    <path clip-path="url(#pa3d0d33056)" d="M 212.065426 232.529066 
L 212.065426 220.399566 
L 210.629506 220.878206 
L 212.544066 216.091806 
L 214.458626 220.878206 
L 213.022706 220.399566 
L 213.022706 232.529066 
L 212.065426 232.529066 
" style="fill:#0000ff;"/>
    <path clip-path="url(#pa3d0d33056)" d="M 212.068169 216.041087 
L 213.198197 205.530629 
L 211.719339 205.853028 
L 214.134588 201.298718 
L 215.526518 206.262356 
L 214.149992 205.632961 
L 213.019963 216.143419 
L 212.068169 216.041087 
" style="fill:#0000ff;"/>
    <path clip-path="url(#pa3d0d33056)" d="M 212.076465 199.553235 
L 214.030799 190.611835 
L 212.525793 190.772823 
L 215.418238 186.505631 
L 216.266599 191.590457 
L 214.966001 190.816243 
L 213.011667 199.757644 
L 212.076465 199.553235 
" style="fill:#0000ff;"/>
    <path clip-path="url(#pa3d0d33056)" d="M 212.0873 183.075584 
L 214.403203 175.680395 
L 212.889863 175.708034 
L 216.14735 171.712544 
L 216.54399 176.852373 
L 215.316735 175.96648 
L 213.000832 183.361669 
L 212.0873 183.075584 
" style="fill:#0000ff;"/>
    <path clip-path="url(#pa3d0d33056)" d="M 212.094992 166.616197 
L 214.241633 160.795507 
L 212.728794 160.747733 
L 216.181253 156.919457 
L 216.321387 162.072663 
L 215.139781 161.12674 
L 212.99314 166.947429 
L 212.094992 166.616197 
" style="fill:#0000ff;"/>
    <path clip-path="url(#pa3d0d33056)" d="M 212.093905 150.18236 
L 213.599483 146.015174 
L 212.086361 145.977414 
L 215.513404 142.12637 
L 215.687645 147.278535 
L 214.499804 146.340454 
L 212.994226 150.50764 
L 212.093905 150.18236 
" style="fill:#0000ff;"/>
    <path clip-path="url(#pa3d0d33056)" d="M 212.081157 133.786485 
L 212.714428 131.377762 
L 211.203998 131.475565 
L 214.272656 127.333283 
L 214.907271 132.449182 
L 213.640246 131.621167 
L 213.006975 134.029889 
L 212.081157 133.786485 
" style="fill:#0000ff;"/>
    <path clip-path="url(#pa3d0d33056)" d="M 212.06566 117.456401 
L 212.085237 116.830875 
L 210.635047 117.264362 
L 212.698398 112.540196 
L 214.462293 117.384144 
L 213.042049 116.86082 
L 213.022472 117.486346 
L 212.06566 117.456401 
" style="fill:#0000ff;"/>
    <path clip-path="url(#pa3d0d33056)" d="M 212.215321 101.179531 
L 212.070351 100.850785 
L 211.229085 101.614441 
L 211.094364 97.747108 
L 213.859047 100.45468 
L 212.727841 100.560845 
L 212.872811 100.88959 
L 212.215321 101.179531 
" style="fill:#0000ff;"/>
    <path clip-path="url(#pa3d0d33056)" d="M 212.379693 84.875151 
L 212.10229 84.710778 
L 211.886576 85.707361 
L 209.770032 82.954021 
L 213.201556 83.488134 
L 212.431035 84.155971 
L 212.708439 84.320344 
L 212.379693 84.875151 
" style="fill:#0000ff;"/>
    <path clip-path="url(#pa3d0d33056)" d="M 212.544066 68.517249 
L 212.187751 68.517249 
L 212.544066 69.586194 
L 208.980916 68.160934 
L 212.544066 66.735674 
L 212.187751 67.804619 
L 212.544066 67.804619 
L 212.544066 68.517249 
" style="fill:#0000ff;"/>
    <path clip-path="url(#pa3d0d33056)" d="M 212.708439 52.090601 
L 212.341959 52.254973 
L 213.201556 53.19004 
L 208.879268 53.367847 
L 211.886576 50.258202 
L 212.013214 51.522014 
L 212.379693 51.357641 
L 212.708439 52.090601 
" style="fill:#0000ff;"/>
    <path clip-path="url(#pa3d0d33056)" d="M 212.872811 35.593244 
L 212.566874 35.92199 
L 213.859047 36.511055 
L 209.484698 38.57476 
L 211.229085 34.063561 
L 211.909384 35.310116 
L 212.215321 34.981371 
L 212.872811 35.593244 
" style="fill:#0000ff;"/>
    <path clip-path="url(#pa3d0d33056)" d="M 228.50356 265.438221 
L 227.232794 248.365659 
L 225.836363 248.949563 
L 227.390357 244.034254 
L 229.65492 248.665336 
L 228.187433 248.294602 
L 229.458199 265.367164 
L 228.50356 265.438221 
" style="fill:#0000ff;"/>
    <path clip-path="url(#pa3d0d33056)" d="M 228.502239 248.965879 
L 228.502239 233.548927 
L 227.066319 234.027567 
L 228.980879 229.241167 
L 230.895439 234.027567 
L 229.459519 233.548927 
L 229.459519 248.965879 
L 228.502239 248.965879 
" style="fill:#0000ff;"/>
    <path clip-path="url(#pa3d0d33056)" d="M 228.50408 232.487124 
L 229.717121 218.697326 
L 228.244782 219.048298 
L 230.571401 214.44808 
L 232.059173 219.383837 
L 230.670719 218.781211 
L 229.457678 232.571008 
L 228.50408 232.487124 
" style="fill:#0000ff;"/>
    <path clip-path="url(#pa3d0d33056)" d="M 228.509393 216.00981 
L 230.64158 203.815927 
L 229.144678 204.040086 
L 231.855051 199.654992 
L 232.916569 204.699628 
L 231.584552 203.980813 
L 229.452366 216.174695 
L 228.509393 216.00981 
" style="fill:#0000ff;"/>
    <path clip-path="url(#pa3d0d33056)" d="M 228.515835 199.542168 
L 231.099676 188.934029 
L 229.591273 189.059258 
L 232.584164 184.861905 
L 233.311624 189.96543 
L 232.029764 189.160572 
L 229.445923 199.768711 
L 228.515835 199.542168 
" style="fill:#0000ff;"/>
    <path clip-path="url(#pa3d0d33056)" d="M 228.519561 183.091027 
L 231.008357 174.093086 
L 229.496803 174.171607 
L 232.618066 170.068818 
L 233.187351 175.192399 
L 231.930994 174.348284 
L 229.442198 183.346225 
L 228.519561 183.091027 
" style="fill:#0000ff;"/>
    <path clip-path="url(#pa3d0d33056)" d="M 228.517423 166.662211 
L 230.410337 159.327232 
L 228.900367 159.431881 
L 231.950217 155.275731 
L 232.608015 160.388701 
L 231.337249 159.566438 
L 229.444335 166.901416 
L 228.517423 166.662211 
" style="fill:#0000ff;"/>
    <path clip-path="url(#pa3d0d33056)" d="M 228.509426 150.262368 
L 229.494325 144.643091 
L 227.997333 144.866647 
L 230.70947 140.482644 
L 231.768959 145.527705 
L 230.437232 144.808355 
L 229.452332 150.427632 
L 228.509426 150.262368 
" style="fill:#0000ff;"/>
    <path clip-path="url(#pa3d0d33056)" d="M 228.502323 133.8992 
L 228.575777 129.987571 
L 227.131124 130.439167 
L 229.135212 125.689557 
L 230.959569 130.511059 
L 229.532889 130.005544 
L 229.459435 133.917173 
L 228.502323 133.8992 
" style="fill:#0000ff;"/>
    <path clip-path="url(#pa3d0d33056)" d="M 228.513466 117.574434 
L 227.991304 115.206246 
L 226.692125 115.982839 
L 227.531177 110.89647 
L 230.431429 115.158359 
L 228.92613 115.000126 
L 229.448292 117.368314 
L 228.513466 117.574434 
" style="fill:#0000ff;"/>
    <path clip-path="url(#pa3d0d33056)" d="M 228.563717 101.269235 
L 227.901753 100.092515 
L 226.884942 101.2137 
L 226.206845 96.103382 
L 230.222238 99.336305 
L 228.736077 99.623166 
L 229.398041 100.799886 
L 228.563717 101.269235 
" style="fill:#0000ff;"/>
    <path clip-path="url(#pa3d0d33056)" d="M 228.656313 84.949533 
L 228.259233 84.583177 
L 227.63732 85.963099 
L 225.41773 81.310295 
L 230.233849 83.148815 
L 228.908365 83.879606 
L 229.305445 84.245962 
L 228.656313 84.949533 
" style="fill:#0000ff;"/>
    <path clip-path="url(#pa3d0d33056)" d="M 228.816507 68.527414 
L 228.450027 68.363041 
L 228.323389 69.626853 
L 225.316081 66.517208 
L 229.63837 66.695015 
L 228.778772 67.630082 
L 229.145252 67.794454 
L 228.816507 68.527414 
" style="fill:#0000ff;"/>
    <path clip-path="url(#pa3d0d33056)" d="M 228.980879 52.030058 
L 228.674942 52.030058 
L 228.980879 52.947868 
L 225.921512 51.724121 
L 228.980879 50.500374 
L 228.674942 51.418184 
L 228.980879 51.418184 
L 228.980879 52.030058 
" style="fill:#0000ff;"/>
    <path clip-path="url(#pa3d0d33056)" d="M 229.145252 35.473675 
L 228.958885 35.638047 
L 229.63837 36.032775 
L 227.11721 36.931034 
L 228.323389 34.54184 
L 228.63014 35.265313 
L 228.816507 35.100941 
L 229.145252 35.473675 
" style="fill:#0000ff;"/>
    <path clip-path="url(#pa3d0d33056)" d="M 244.939052 265.402692 
L 244.939052 246.698288 
L 243.503132 247.176928 
L 245.417692 242.390528 
L 247.332252 247.176928 
L 245.896332 246.698288 
L 245.896332 265.402692 
L 244.939052 265.402692 
" style="fill:#0000ff;"/>
    <path clip-path="url(#pa3d0d33056)" d="M 244.940373 248.930351 
L 246.211139 231.857789 
L 244.743651 232.228523 
L 247.008214 227.597441 
L 248.562208 232.51275 
L 247.165778 231.928845 
L 245.895012 249.001408 
L 244.940373 248.930351 
" style="fill:#0000ff;"/>
    <path clip-path="url(#pa3d0d33056)" d="M 244.944054 232.46005 
L 247.197083 216.998081 
L 245.707153 217.264671 
L 248.291864 212.804354 
L 249.496258 217.816798 
L 248.14436 217.136112 
L 245.89133 232.598082 
L 244.944054 232.46005 
" style="fill:#0000ff;"/>
    <path clip-path="url(#pa3d0d33056)" d="M 244.948283 215.998706 
L 247.709647 202.142405 
L 246.207872 202.331175 
L 249.020977 198.011266 
L 249.963148 203.079548 
L 248.648466 202.329499 
L 245.887102 216.185799 
L 244.948283 215.998706 
" style="fill:#0000ff;"/>
    <path clip-path="url(#pa3d0d33056)" d="M 244.950357 199.552029 
L 247.656848 187.320789 
L 246.151431 187.477892 
L 249.054879 183.218179 
L 249.890115 188.305177 
L 248.591519 187.52761 
L 245.885028 199.75885 
L 244.950357 199.552029 
" style="fill:#0000ff;"/>
    <path clip-path="url(#pa3d0d33056)" d="M 244.948412 183.124433 
L 247.07001 172.55442 
L 245.567977 172.741121 
L 248.38703 168.425092 
L 249.322218 173.494667 
L 248.008571 172.742807 
L 245.886972 183.31282 
L 244.948412 183.124433 
" style="fill:#0000ff;"/>
    <path clip-path="url(#pa3d0d33056)" d="M 244.943135 166.719431 
L 246.110285 157.840639 
L 244.62423 158.128049 
L 247.146283 153.632005 
L 248.420689 158.627108 
L 247.059399 157.965404 
L 245.89225 166.844195 
L 244.943135 166.719431 
" style="fill:#0000ff;"/>
    <path clip-path="url(#pa3d0d33056)" d="M 244.939095 150.338581 
L 245.035652 143.139871 
L 243.593442 143.599209 
L 245.572025 138.838918 
L 247.422218 143.650565 
L 245.992846 143.15271 
L 245.896289 150.351419 
L 244.939095 150.338581 
" style="fill:#0000ff;"/>
    <path clip-path="url(#pa3d0d33056)" d="M 244.944141 133.977796 
L 244.120919 128.377401 
L 242.769875 129.05978 
L 243.96799 124.045831 
L 246.558285 128.502908 
L 245.068022 128.238183 
L 245.891244 133.838578 
L 244.944141 133.977796 
" style="fill:#0000ff;"/>
    <path clip-path="url(#pa3d0d33056)" d="M 244.964189 117.624445 
L 243.567794 113.487347 
L 242.360354 114.400064 
L 242.643658 109.252743 
L 245.988383 113.175495 
L 244.474801 113.181205 
L 245.871196 117.318303 
L 244.964189 117.624445 
" style="fill:#0000ff;"/>
    <path clip-path="url(#pa3d0d33056)" d="M 244.996875 101.262615 
L 243.486215 98.475069 
L 242.451817 99.58005 
L 241.854543 94.459656 
L 245.818357 97.755614 
L 244.32785 98.01896 
L 245.83851 100.806506 
L 244.996875 101.262615 
" style="fill:#0000ff;"/>
    <path clip-path="url(#pa3d0d33056)" d="M 245.033528 84.883254 
L 243.93829 83.409554 
L 243.071304 84.650239 
L 241.752894 79.666569 
L 246.144618 82.366185 
L 244.706619 82.838541 
L 245.801857 84.312241 
L 245.033528 84.883254 
" style="fill:#0000ff;"/>
    <path clip-path="url(#pa3d0d33056)" d="M 245.088947 68.466871 
L 244.78301 68.138126 
L 244.102711 69.384681 
L 242.358325 64.873482 
L 246.732673 66.937187 
L 245.440501 67.526252 
L 245.746438 67.854997 
L 245.088947 68.466871 
" style="fill:#0000ff;"/>
    <path clip-path="url(#pa3d0d33056)" d="M 245.25332 51.910488 
L 245.066953 51.746115 
L 244.760202 52.469588 
L 243.554023 50.080395 
L 246.075183 50.978653 
L 245.395698 51.373381 
L 245.582065 51.537754 
L 245.25332 51.910488 
" style="fill:#0000ff;"/>
    <path clip-path="url(#pa3d0d33056)" d="M 244.939052 35.287308 
L 245.178372 35.701822 
L 245.657012 35.701822 
L 245.896332 35.287308 
L 245.657012 34.872793 
L 245.178372 34.872793 
L 244.939052 35.287308 
L 245.178372 35.701822 
" style="fill:#0000ff;"/>
   </g>
   <g id="matplotlib.axis_1">
    <g id="text_1">
     <!-- $x$ -->
     <defs>
      <path d="M 7.8125 2.875 
Q 9.578125 1.515625 12.796875 1.515625 
Q 15.921875 1.515625 18.3125 4.515625 
Q 20.703125 7.515625 21.578125 11.078125 
L 26.125 28.8125 
Q 27.203125 33.640625 27.203125 35.40625 
Q 27.203125 37.890625 25.8125 39.75 
Q 24.421875 41.609375 21.921875 41.609375 
Q 18.75 41.609375 15.96875 39.625 
Q 13.1875 37.640625 11.28125 34.59375 
Q 9.375 31.546875 8.59375 28.421875 
Q 8.40625 27.78125 7.8125 27.78125 
L 6.59375 27.78125 
Q 5.8125 27.78125 5.8125 28.71875 
L 5.8125 29 
Q 6.78125 32.71875 9.125 36.25 
Q 11.46875 39.796875 14.859375 41.984375 
Q 18.265625 44.1875 22.125 44.1875 
Q 25.78125 44.1875 28.734375 42.234375 
Q 31.6875 40.28125 32.90625 36.921875 
Q 34.625 39.984375 37.28125 42.078125 
Q 39.9375 44.1875 43.109375 44.1875 
Q 45.265625 44.1875 47.5 43.421875 
Q 49.75 42.671875 51.171875 41.109375 
Q 52.59375 39.546875 52.59375 37.203125 
Q 52.59375 34.671875 50.953125 32.828125 
Q 49.3125 31 46.78125 31 
Q 45.171875 31 44.09375 32.03125 
Q 43.015625 33.0625 43.015625 34.625 
Q 43.015625 36.71875 44.453125 38.296875 
Q 45.90625 39.890625 47.90625 40.1875 
Q 46.09375 41.609375 42.921875 41.609375 
Q 39.703125 41.609375 37.328125 38.625 
Q 34.96875 35.640625 33.984375 31.984375 
L 29.59375 14.3125 
Q 28.515625 10.296875 28.515625 7.71875 
Q 28.515625 5.171875 29.953125 3.34375 
Q 31.390625 1.515625 33.796875 1.515625 
Q 38.484375 1.515625 42.15625 5.640625 
Q 45.84375 9.765625 47.015625 14.703125 
Q 47.21875 15.28125 47.796875 15.28125 
L 49.03125 15.28125 
Q 49.421875 15.28125 49.65625 15.015625 
Q 49.90625 14.75 49.90625 14.40625 
Q 49.90625 14.3125 49.8125 14.109375 
Q 48.390625 8.15625 43.84375 3.515625 
Q 39.3125 -1.125 33.59375 -1.125 
Q 29.9375 -1.125 26.984375 0.84375 
Q 24.03125 2.828125 22.796875 6.203125 
Q 21.234375 3.265625 18.46875 1.0625 
Q 15.71875 -1.125 12.59375 -1.125 
Q 10.453125 -1.125 8.171875 -0.359375 
Q 5.90625 0.390625 4.484375 1.953125 
Q 3.078125 3.515625 3.078125 5.90625 
Q 3.078125 8.25 4.703125 10.171875 
Q 6.34375 12.109375 8.796875 12.109375 
Q 10.453125 12.109375 11.578125 11.109375 
Q 12.703125 10.109375 12.703125 8.5 
Q 12.703125 6.390625 11.296875 4.828125 
Q 9.90625 3.265625 7.8125 2.875 
z
" id="Cmmi10-78"/>
     </defs>
     <g transform="translate(258.02 150.345)scale(0.16 -0.16)">
      <use transform="translate(0 0.8125)" xlink:href="#Cmmi10-78"/>
     </g>
    </g>
   </g>
   <g id="matplotlib.axis_2">
    <g id="text_2">
     <!-- $y$ -->
     <defs>
      <path d="M 8.40625 -14.3125 
Q 10.5 -17.921875 15.71875 -17.921875 
Q 20.453125 -17.921875 23.921875 -14.59375 
Q 27.390625 -11.28125 29.515625 -6.5625 
Q 31.640625 -1.859375 32.8125 3.078125 
Q 28.375 -1.125 23.1875 -1.125 
Q 19.234375 -1.125 16.453125 0.234375 
Q 13.671875 1.609375 12.125 4.3125 
Q 10.59375 7.03125 10.59375 10.890625 
Q 10.59375 14.15625 11.46875 17.59375 
Q 12.359375 21.046875 13.9375 25.265625 
Q 15.53125 29.5 16.703125 32.625 
Q 18.015625 36.28125 18.015625 38.625 
Q 18.015625 41.609375 15.828125 41.609375 
Q 11.859375 41.609375 9.296875 37.53125 
Q 6.734375 33.453125 5.515625 28.421875 
Q 5.328125 27.78125 4.6875 27.78125 
L 3.515625 27.78125 
Q 2.6875 27.78125 2.6875 28.71875 
L 2.6875 29 
Q 4.296875 34.96875 7.609375 39.578125 
Q 10.9375 44.1875 16.015625 44.1875 
Q 19.578125 44.1875 22.046875 41.84375 
Q 24.515625 39.5 24.515625 35.890625 
Q 24.515625 34.03125 23.6875 31.984375 
Q 23.25 30.765625 21.6875 26.65625 
Q 20.125 22.5625 19.28125 19.875 
Q 18.453125 17.1875 17.921875 14.59375 
Q 17.390625 12.015625 17.390625 9.421875 
Q 17.390625 6.109375 18.796875 3.8125 
Q 20.21875 1.515625 23.296875 1.515625 
Q 29.5 1.515625 34.421875 9.078125 
L 42 39.890625 
Q 42.328125 41.21875 43.546875 42.15625 
Q 44.78125 43.109375 46.1875 43.109375 
Q 47.40625 43.109375 48.3125 42.328125 
Q 49.21875 41.546875 49.21875 40.28125 
Q 49.21875 39.703125 49.125 39.5 
L 39.203125 -0.296875 
Q 37.890625 -5.421875 34.375 -10.109375 
Q 30.859375 -14.796875 25.90625 -17.65625 
Q 20.953125 -20.515625 15.578125 -20.515625 
Q 12.984375 -20.515625 10.4375 -19.5 
Q 7.90625 -18.5 6.34375 -16.5 
Q 4.78125 -14.5 4.78125 -11.8125 
Q 4.78125 -9.078125 6.390625 -7.078125 
Q 8.015625 -5.078125 10.6875 -5.078125 
Q 12.3125 -5.078125 13.40625 -6.078125 
Q 14.5 -7.078125 14.5 -8.6875 
Q 14.5 -10.984375 12.78125 -12.6875 
Q 11.078125 -14.40625 8.796875 -14.40625 
Q 8.6875 -14.359375 8.59375 -14.328125 
Q 8.5 -14.3125 8.40625 -14.3125 
z
" id="Cmmi10-79"/>
     </defs>
     <g transform="translate(126.36 19.325)scale(0.16 -0.16)">
      <use transform="translate(0 0.8125)" xlink:href="#Cmmi10-79"/>
     </g>
    </g>
   </g>
   <g id="patch_3">
    <path d="M 130.36 270.005 
L 130.36 30.685 
" style="fill:none;stroke:#000000;stroke-linecap:square;stroke-linejoin:miter;stroke-width:0.8;"/>
   </g>
   <g id="patch_4">
    <path d="M 10.7 150.345 
L 250.02 150.345 
" style="fill:none;stroke:#000000;stroke-linecap:square;stroke-linejoin:miter;stroke-width:0.8;"/>
   </g>
  </g>
 </g>
 <defs>
  <clipPath id="pa3d0d33056">
   <rect height="239.32" width="239.32" x="10.7" y="30.685"/>
  </clipPath>
 </defs>
</svg>
