<?xml version="1.0" encoding="utf-8" standalone="no"?>
<!DOCTYPE svg PUBLIC "-//W3C//DTD SVG 1.1//EN"
  "http://www.w3.org/Graphics/SVG/1.1/DTD/svg11.dtd">
<!-- Created with matplotlib (http://matplotlib.org/) -->
<svg height="280.705pt" version="1.1" viewBox="0 0 274.5 280.705" width="274.5pt" xmlns="http://www.w3.org/2000/svg" xmlns:xlink="http://www.w3.org/1999/xlink">
 <defs>
  <style type="text/css">
*{stroke-linecap:butt;stroke-linejoin:round;}
  </style>
 </defs>
 <g id="figure_1">
  <g id="patch_1">
   <path d="M 0 280.705 
L 274.5 280.705 
L 274.5 0 
L 0 0 
z
" style="fill:#ffffff;"/>
  </g>
  <g id="axes_1">
   <g id="patch_2">
    <path d="M 10.7 270.005 
L 250.02 270.005 
L 250.02 30.685 
L 10.7 30.685 
z
" style="fill:#ffffff;"/>
   </g>
   <g id="Quiver_1">
    <path clip-path="url(#pea2ef73ff9)" d="M 25.423648 255.281352 
L 17.637946 247.49565 
L 17.299497 248.510999 
L 14.93035 244.111154 
L 19.330194 246.480301 
L 18.314846 246.818751 
L 26.100547 254.604453 
L 25.423648 255.281352 
" style="fill:#0000ff;"/>
    <path clip-path="url(#pea2ef73ff9)" d="M 25.398687 240.311839 
L 18.917785 232.750786 
L 18.502458 233.737187 
L 16.477742 229.168596 
L 20.682922 231.868218 
L 19.644606 232.127797 
L 26.125508 239.68885 
L 25.398687 240.311839 
" style="fill:#0000ff;"/>
    <path clip-path="url(#pea2ef73ff9)" d="M 25.372613 225.335991 
L 20.139484 218.009611 
L 19.638717 218.955504 
L 18.025135 214.226039 
L 21.97563 217.286281 
L 20.918455 217.453204 
L 26.151583 224.779583 
L 25.372613 225.335991 
" style="fill:#0000ff;"/>
    <path clip-path="url(#pea2ef73ff9)" d="M 25.346522 210.352702 
L 21.294199 203.261137 
L 20.700519 204.151656 
L 19.572527 199.283482 
L 23.193975 202.726825 
L 22.125351 202.786193 
L 26.177674 209.877758 
L 25.346522 210.352702 
" style="fill:#0000ff;"/>
    <path clip-path="url(#pea2ef73ff9)" d="M 25.322158 195.361218 
L 22.37689 188.488926 
L 21.685557 189.305956 
L 21.11992 184.340924 
L 24.325194 188.174683 
L 23.256769 188.111835 
L 26.202037 194.984127 
L 25.322158 195.361218 
" style="fill:#0000ff;"/>
    <path clip-path="url(#pea2ef73ff9)" d="M 25.301874 180.361607 
L 23.390522 173.671874 
L 22.601566 174.395082 
L 22.667313 169.398367 
L 25.362909 173.606127 
L 24.310969 173.408889 
L 26.222322 180.098622 
L 25.301874 180.361607 
" style="fill:#0000ff;"/>
    <path clip-path="url(#pea2ef73ff9)" d="M 25.288268 165.355247 
L 24.350085 158.787964 
L 23.470116 159.397173 
L 24.214705 154.455809 
L 26.313093 158.991034 
L 25.297744 158.652584 
L 26.235927 165.219868 
L 25.288268 165.355247 
" style="fill:#0000ff;"/>
    <path clip-path="url(#pea2ef73ff9)" d="M 25.283458 150.345 
L 25.283458 143.821012 
L 24.326178 144.299652 
L 25.762098 139.513252 
L 27.198018 144.299652 
L 26.240738 143.821012 
L 26.240738 150.345 
L 25.283458 150.345 
" style="fill:#0000ff;"/>
    <path clip-path="url(#pea2ef73ff9)" d="M 25.288268 135.334753 
L 26.226452 128.767469 
L 25.211103 129.105919 
L 27.309491 124.570694 
L 28.05408 129.512058 
L 27.174111 128.902849 
L 26.235927 135.470132 
L 25.288268 135.334753 
" style="fill:#0000ff;"/>
    <path clip-path="url(#pea2ef73ff9)" d="M 25.301874 120.328393 
L 27.213227 113.638659 
L 26.161286 113.835898 
L 28.856883 109.628137 
L 28.922629 114.624853 
L 28.133674 113.901644 
L 26.222322 120.591378 
L 25.301874 120.328393 
" style="fill:#0000ff;"/>
    <path clip-path="url(#pea2ef73ff9)" d="M 25.322158 105.328782 
L 28.267426 98.45649 
L 27.199002 98.519339 
L 30.404276 94.685579 
L 29.838639 99.650612 
L 29.147306 98.833581 
L 26.202037 105.705873 
L 25.322158 105.328782 
" style="fill:#0000ff;"/>
    <path clip-path="url(#pea2ef73ff9)" d="M 25.346522 90.337298 
L 29.398845 83.245733 
L 28.330221 83.186365 
L 31.951668 79.743022 
L 30.823677 84.611197 
L 30.229997 83.720677 
L 26.177674 90.812242 
L 25.346522 90.337298 
" style="fill:#0000ff;"/>
    <path clip-path="url(#pea2ef73ff9)" d="M 25.372613 75.354009 
L 30.605741 68.027629 
L 29.548566 67.860707 
L 33.499061 64.800465 
L 31.885479 69.52993 
L 31.384712 68.584037 
L 26.151583 75.910417 
L 25.372613 75.354009 
" style="fill:#0000ff;"/>
    <path clip-path="url(#pea2ef73ff9)" d="M 25.398687 60.378161 
L 31.87959 52.817108 
L 30.841274 52.557529 
L 35.046454 49.857907 
L 33.021737 54.426497 
L 32.606411 53.440097 
L 26.125508 61.00115 
L 25.398687 60.378161 
" style="fill:#0000ff;"/>
    <path clip-path="url(#pea2ef73ff9)" d="M 25.423648 45.408648 
L 33.20935 37.622946 
L 32.194001 37.284497 
L 36.593846 34.91535 
L 34.224699 39.315194 
L 33.886249 38.299846 
L 26.100547 46.085547 
L 25.423648 45.408648 
" style="fill:#0000ff;"/>
    <path clip-path="url(#pea2ef73ff9)" d="M 40.393161 255.306313 
L 32.832108 248.82541 
L 32.572529 249.863726 
L 29.872907 245.658546 
L 34.441497 247.683263 
L 33.455097 248.098589 
L 41.01615 254.579492 
L 40.393161 255.306313 
" style="fill:#0000ff;"/>
    <path clip-path="url(#pea2ef73ff9)" d="M 40.366206 240.338794 
L 34.127896 234.100485 
L 33.789447 235.115834 
L 31.4203 230.715989 
L 35.820144 233.085136 
L 34.804796 233.423586 
L 41.043105 239.661895 
L 40.366206 240.338794 
" style="fill:#0000ff;"/>
    <path clip-path="url(#pea2ef73ff9)" d="M 40.336954 225.364205 
L 35.357752 219.389162 
L 34.928767 220.369699 
L 32.967692 215.773432 
L 37.134975 218.531192 
L 36.093154 218.776327 
L 41.072357 224.751369 
L 40.336954 225.364205 
" style="fill:#0000ff;"/>
    <path clip-path="url(#pea2ef73ff9)" d="M 40.306403 210.380731 
L 36.506348 204.680649 
L 35.975344 205.609905 
L 34.515085 200.830874 
L 38.36486 204.016895 
L 37.302853 204.149645 
L 41.102908 209.849728 
L 40.306403 210.380731 
" style="fill:#0000ff;"/>
    <path clip-path="url(#pea2ef73ff9)" d="M 40.276547 195.386727 
L 37.560858 189.955349 
L 36.918695 190.811566 
L 36.062478 185.888317 
L 39.487347 189.52724 
L 38.417075 189.52724 
L 41.132764 194.958618 
L 40.276547 195.386727 
" style="fill:#0000ff;"/>
    <path clip-path="url(#pea2ef73ff9)" d="M 40.250578 180.381474 
L 38.518026 175.183818 
L 37.761229 175.940615 
L 37.60987 170.945759 
L 40.485696 175.032459 
L 39.426181 174.8811 
L 41.158733 180.078756 
L 40.250578 180.381474 
" style="fill:#0000ff;"/>
    <path clip-path="url(#pea2ef73ff9)" d="M 40.232528 165.366245 
L 39.393327 160.331038 
L 38.527759 160.960541 
L 39.157263 156.003202 
L 41.360525 160.488414 
L 40.337582 160.173662 
L 41.176783 165.20887 
L 40.232528 165.366245 
" style="fill:#0000ff;"/>
    <path clip-path="url(#pea2ef73ff9)" d="M 40.226015 150.345 
L 40.226015 145.368404 
L 39.268735 145.847044 
L 40.704655 141.060644 
L 42.140575 145.847044 
L 41.183295 145.368404 
L 41.183295 150.345 
L 40.226015 150.345 
" style="fill:#0000ff;"/>
    <path clip-path="url(#pea2ef73ff9)" d="M 40.232528 135.323755 
L 41.071729 130.288547 
L 40.048786 130.603299 
L 42.252048 126.118087 
L 42.881551 131.075427 
L 42.015984 130.445923 
L 41.176783 135.48113 
L 40.232528 135.323755 
" style="fill:#0000ff;"/>
    <path clip-path="url(#pea2ef73ff9)" d="M 40.250578 120.308526 
L 41.983129 115.11087 
L 40.923615 115.262229 
L 43.799441 111.175529 
L 43.648081 116.170385 
L 42.891285 115.413589 
L 41.158733 120.611244 
L 40.250578 120.308526 
" style="fill:#0000ff;"/>
    <path clip-path="url(#pea2ef73ff9)" d="M 40.276547 105.303273 
L 42.992236 99.871895 
L 41.921964 99.871895 
L 45.346833 96.232972 
L 44.490616 101.156221 
L 43.848453 100.300004 
L 41.132764 105.731382 
L 40.276547 105.303273 
" style="fill:#0000ff;"/>
    <path clip-path="url(#pea2ef73ff9)" d="M 40.306403 90.309269 
L 44.106458 84.609186 
L 43.044451 84.476435 
L 46.894226 81.290415 
L 45.433966 86.069445 
L 44.902963 85.140189 
L 41.102908 90.840272 
L 40.306403 90.309269 
" style="fill:#0000ff;"/>
    <path clip-path="url(#pea2ef73ff9)" d="M 40.336954 75.325795 
L 45.316156 69.350752 
L 44.274335 69.105618 
L 48.441618 66.347857 
L 46.480544 70.944125 
L 46.051559 69.963588 
L 41.072357 75.938631 
L 40.336954 75.325795 
" style="fill:#0000ff;"/>
    <path clip-path="url(#pea2ef73ff9)" d="M 40.366206 60.351206 
L 46.604515 54.112896 
L 45.589166 53.774447 
L 49.989011 51.4053 
L 47.619864 55.805144 
L 47.281414 54.789796 
L 41.043105 61.028105 
L 40.366206 60.351206 
" style="fill:#0000ff;"/>
    <path clip-path="url(#pea2ef73ff9)" d="M 40.393161 45.383687 
L 47.954214 38.902785 
L 46.967813 38.487458 
L 51.536404 36.462742 
L 48.836782 40.667922 
L 48.577203 39.629606 
L 41.01615 46.110508 
L 40.393161 45.383687 
" style="fill:#0000ff;"/>
    <path clip-path="url(#pea2ef73ff9)" d="M 55.369009 255.332387 
L 48.042629 250.099259 
L 47.875707 251.156434 
L 44.815465 247.205939 
L 49.54493 248.819521 
L 48.599037 249.320288 
L 55.925417 254.553417 
L 55.369009 255.332387 
" style="fill:#0000ff;"/>
    <path clip-path="url(#pea2ef73ff9)" d="M 55.340795 240.368046 
L 49.365752 235.388844 
L 49.120618 236.430665 
L 46.362857 232.263382 
L 50.959125 234.224456 
L 49.978588 234.653441 
L 55.953631 239.632643 
L 55.340795 240.368046 
" style="fill:#0000ff;"/>
    <path clip-path="url(#pea2ef73ff9)" d="M 55.308763 225.396237 
L 50.617846 220.70532 
L 50.279397 221.720669 
L 47.91025 217.320824 
L 52.310094 219.689971 
L 51.294746 220.028421 
L 55.985662 224.719338 
L 55.308763 225.396237 
" style="fill:#0000ff;"/>
    <path clip-path="url(#pea2ef73ff9)" d="M 55.273458 210.414234 
L 51.774924 206.041066 
L 51.326418 207.012829 
L 49.457642 202.378267 
L 53.568948 205.218805 
L 52.522434 205.443058 
L 56.020968 209.816226 
L 55.273458 210.414234 
" style="fill:#0000ff;"/>
    <path clip-path="url(#pea2ef73ff9)" d="M 55.236782 195.418931 
L 52.810929 191.375841 
L 52.236326 192.278788 
L 51.005035 187.435709 
L 54.698909 190.801239 
L 53.63179 190.883325 
L 56.057643 194.926414 
L 55.236782 195.418931 
" style="fill:#0000ff;"/>
    <path clip-path="url(#pea2ef73ff9)" d="M 55.202807 180.407877 
L 53.707883 176.670569 
L 52.996834 177.4705 
L 52.552428 172.493152 
L 55.66327 176.403925 
L 54.596696 176.315044 
L 56.091619 180.052352 
L 55.202807 180.407877 
" style="fill:#0000ff;"/>
    <path clip-path="url(#pea2ef73ff9)" d="M 55.177868 165.381426 
L 54.475296 161.86857 
L 53.630475 162.525653 
L 54.09982 157.550594 
L 56.446546 161.962439 
L 55.413987 161.680832 
L 56.116558 165.193688 
L 55.177868 165.381426 
" style="fill:#0000ff;"/>
    <path clip-path="url(#pea2ef73ff9)" d="M 55.168573 150.345 
L 55.168573 146.915797 
L 54.211293 147.394437 
L 55.647213 142.608037 
L 57.083133 147.394437 
L 56.125853 146.915797 
L 56.125853 150.345 
L 55.168573 150.345 
" style="fill:#0000ff;"/>
    <path clip-path="url(#pea2ef73ff9)" d="M 55.177868 135.308574 
L 55.880439 131.795717 
L 54.84788 132.077324 
L 57.194605 127.66548 
L 57.663951 132.640538 
L 56.819129 131.983455 
L 56.116558 135.496312 
L 55.177868 135.308574 
" style="fill:#0000ff;"/>
    <path clip-path="url(#pea2ef73ff9)" d="M 55.202807 120.282123 
L 56.69773 116.544814 
L 55.631155 116.633696 
L 58.741998 112.722922 
L 58.297592 117.70027 
L 57.586542 116.900339 
L 56.091619 120.637648 
L 55.202807 120.282123 
" style="fill:#0000ff;"/>
    <path clip-path="url(#pea2ef73ff9)" d="M 55.236782 105.271069 
L 57.662636 101.22798 
L 56.595517 101.145894 
L 60.289391 97.780365 
L 59.058099 102.623444 
L 58.483497 101.720497 
L 56.057643 105.763586 
L 55.236782 105.271069 
" style="fill:#0000ff;"/>
    <path clip-path="url(#pea2ef73ff9)" d="M 55.273458 90.275766 
L 58.771992 85.902599 
L 57.725478 85.678346 
L 61.836783 82.837807 
L 59.968008 87.47237 
L 59.519502 86.500607 
L 56.020968 90.873774 
L 55.273458 90.275766 
" style="fill:#0000ff;"/>
    <path clip-path="url(#pea2ef73ff9)" d="M 55.308763 75.293763 
L 59.99968 70.602846 
L 58.984331 70.264397 
L 63.384176 67.89525 
L 61.015029 72.295094 
L 60.676579 71.279746 
L 55.985662 75.970662 
L 55.308763 75.293763 
" style="fill:#0000ff;"/>
    <path clip-path="url(#pea2ef73ff9)" d="M 55.340795 60.321954 
L 61.315838 55.342752 
L 60.335301 54.913767 
L 64.931568 52.952692 
L 62.173808 57.119975 
L 61.928673 56.078154 
L 55.953631 61.057357 
L 55.340795 60.321954 
" style="fill:#0000ff;"/>
    <path clip-path="url(#pea2ef73ff9)" d="M 55.369009 45.357613 
L 62.695389 40.124484 
L 61.749496 39.623717 
L 66.478961 38.010135 
L 63.418719 41.96063 
L 63.251796 40.903455 
L 55.925417 46.136583 
L 55.369009 45.357613 
" style="fill:#0000ff;"/>
    <path clip-path="url(#pea2ef73ff9)" d="M 70.352298 255.358478 
L 63.260733 251.306155 
L 63.201365 252.374779 
L 59.758022 248.753332 
L 64.626197 249.881323 
L 63.735677 250.475003 
L 70.827242 254.527326 
L 70.352298 255.358478 
" style="fill:#0000ff;"/>
    <path clip-path="url(#pea2ef73ff9)" d="M 70.324269 240.398597 
L 64.624186 236.598542 
L 64.491435 237.660549 
L 61.305415 233.810774 
L 66.084445 235.271034 
L 65.155189 235.802037 
L 70.855272 239.602092 
L 70.324269 240.398597 
" style="fill:#0000ff;"/>
    <path clip-path="url(#pea2ef73ff9)" d="M 70.290766 225.431542 
L 65.917599 221.933008 
L 65.693346 222.979522 
L 62.852807 218.868217 
L 67.48737 220.736992 
L 66.515607 221.185498 
L 70.888774 224.684032 
L 70.290766 225.431542 
" style="fill:#0000ff;"/>
    <path clip-path="url(#pea2ef73ff9)" d="M 70.251321 210.453679 
L 67.107797 207.310155 
L 66.769347 208.325504 
L 64.4002 203.925659 
L 68.800044 206.294806 
L 67.784696 206.633256 
L 70.92822 209.77678 
L 70.251321 210.453679 
" style="fill:#0000ff;"/>
    <path clip-path="url(#pea2ef73ff9)" d="M 70.206858 195.459856 
L 68.149336 192.716494 
L 67.670696 193.673774 
L 65.947592 188.983102 
L 69.968168 191.95067 
L 68.91516 192.142126 
L 70.972682 194.885488 
L 70.206858 195.459856 
" style="fill:#0000ff;"/>
    <path clip-path="url(#pea2ef73ff9)" d="M 70.161662 180.444169 
L 68.993365 178.107576 
L 68.351202 178.963794 
L 67.494985 174.040544 
L 70.919854 177.679468 
L 69.849582 177.679468 
L 71.017879 180.016061 
L 70.161662 180.444169 
" style="fill:#0000ff;"/>
    <path clip-path="url(#pea2ef73ff9)" d="M 70.125421 165.403645 
L 69.622814 163.393215 
L 68.810203 164.089739 
L 69.042378 159.097987 
L 71.596297 163.393215 
L 70.551512 163.161041 
L 71.054119 165.17147 
L 70.125421 165.403645 
" style="fill:#0000ff;"/>
    <path clip-path="url(#pea2ef73ff9)" d="M 70.11113 150.345 
L 70.11113 148.46319 
L 69.15385 148.94183 
L 70.58977 144.15543 
L 72.02569 148.94183 
L 71.06841 148.46319 
L 71.06841 150.345 
L 70.11113 150.345 
" style="fill:#0000ff;"/>
    <path clip-path="url(#pea2ef73ff9)" d="M 70.125421 135.286355 
L 70.628029 133.275926 
L 69.583243 133.5081 
L 72.137163 129.212872 
L 72.369337 134.204624 
L 71.556727 133.5081 
L 71.054119 135.51853 
L 70.125421 135.286355 
" style="fill:#0000ff;"/>
    <path clip-path="url(#pea2ef73ff9)" d="M 70.161662 120.245831 
L 71.329958 117.909238 
L 70.259686 117.909238 
L 73.684555 114.270315 
L 72.828338 119.193564 
L 72.186175 118.337347 
L 71.017879 120.673939 
L 70.161662 120.245831 
" style="fill:#0000ff;"/>
    <path clip-path="url(#pea2ef73ff9)" d="M 70.206858 105.230144 
L 72.26438 102.486781 
L 71.211372 102.295325 
L 75.231948 99.327757 
L 73.508844 104.018429 
L 73.030204 103.061149 
L 70.972682 105.804512 
L 70.206858 105.230144 
" style="fill:#0000ff;"/>
    <path clip-path="url(#pea2ef73ff9)" d="M 70.251321 90.236321 
L 73.394845 87.092797 
L 72.379496 86.754347 
L 76.779341 84.3852 
L 74.410194 88.785044 
L 74.071744 87.769696 
L 70.92822 90.91322 
L 70.251321 90.236321 
" style="fill:#0000ff;"/>
    <path clip-path="url(#pea2ef73ff9)" d="M 70.290766 75.258458 
L 74.663934 71.759924 
L 73.692171 71.311418 
L 78.326733 69.442642 
L 75.486195 73.553948 
L 75.261942 72.507434 
L 70.888774 76.005968 
L 70.290766 75.258458 
" style="fill:#0000ff;"/>
    <path clip-path="url(#pea2ef73ff9)" d="M 70.324269 60.291403 
L 76.024351 56.491348 
L 75.095095 55.960344 
L 79.874126 54.500085 
L 76.688105 58.34986 
L 76.555355 57.287853 
L 70.855272 61.087908 
L 70.324269 60.291403 
" style="fill:#0000ff;"/>
    <path clip-path="url(#pea2ef73ff9)" d="M 70.352298 45.331522 
L 77.443863 41.279199 
L 76.553344 40.685519 
L 81.421518 39.557527 
L 77.978175 43.178975 
L 77.918807 42.110351 
L 70.827242 46.162674 
L 70.352298 45.331522 
" style="fill:#0000ff;"/>
    <path clip-path="url(#pea2ef73ff9)" d="M 85.343782 255.382842 
L 78.47149 252.437574 
L 78.534339 253.505998 
L 74.700579 250.300724 
L 79.665612 250.866361 
L 78.848581 251.557694 
L 85.720873 254.502963 
L 85.343782 255.382842 
" style="fill:#0000ff;"/>
    <path clip-path="url(#pea2ef73ff9)" d="M 85.318273 240.428453 
L 79.886895 237.712764 
L 79.886895 238.783036 
L 76.247972 235.358167 
L 81.171221 236.214384 
L 80.315004 236.856547 
L 85.746382 239.572236 
L 85.318273 240.428453 
" style="fill:#0000ff;"/>
    <path clip-path="url(#pea2ef73ff9)" d="M 85.286069 225.468218 
L 81.24298 223.042364 
L 81.160894 224.109483 
L 77.795365 220.415609 
L 82.638444 221.646901 
L 81.735497 222.221503 
L 85.778586 224.647357 
L 85.286069 225.468218 
" style="fill:#0000ff;"/>
    <path clip-path="url(#pea2ef73ff9)" d="M 85.245144 210.498142 
L 82.501781 208.44062 
L 82.310325 209.493628 
L 79.342757 205.473052 
L 84.033429 207.196156 
L 83.076149 207.674796 
L 85.819512 209.732318 
L 85.245144 210.498142 
" style="fill:#0000ff;"/>
    <path clip-path="url(#pea2ef73ff9)" d="M 85.193878 195.511122 
L 83.597747 193.91499 
L 83.259297 194.930339 
L 80.89015 190.530495 
L 85.289995 192.899642 
L 84.274646 193.238091 
L 85.870777 194.834223 
L 85.193878 195.511122 
" style="fill:#0000ff;"/>
    <path clip-path="url(#pea2ef73ff9)" d="M 85.134075 180.495617 
L 84.428805 179.437712 
L 83.897802 180.366968 
L 82.437542 175.587937 
L 86.287317 178.773957 
L 85.22531 178.906708 
L 85.93058 179.964613 
L 85.134075 180.495617 
" style="fill:#0000ff;"/>
    <path clip-path="url(#pea2ef73ff9)" d="M 85.07825 165.438917 
L 84.893091 164.883439 
L 84.136294 165.640235 
L 83.984935 160.64538 
L 86.860761 164.73208 
L 85.801246 164.58072 
L 85.986405 165.136198 
L 85.07825 165.438917 
" style="fill:#0000ff;"/>
    <path clip-path="url(#pea2ef73ff9)" d="M 85.06811 150.345 
L 85.06811 149.880782 
L 84.139674 150.345 
L 85.532328 145.702822 
L 86.924981 150.345 
L 85.996545 149.880782 
L 85.996545 150.345 
L 85.06811 150.345 
" style="fill:#0000ff;"/>
    <path clip-path="url(#pea2ef73ff9)" d="M 85.07825 135.251083 
L 85.263409 134.695605 
L 84.203894 134.846965 
L 87.07972 130.760265 
L 86.928361 135.75512 
L 86.171565 134.998324 
L 85.986405 135.553802 
L 85.07825 135.251083 
" style="fill:#0000ff;"/>
    <path clip-path="url(#pea2ef73ff9)" d="M 85.134075 120.194383 
L 85.839345 119.136479 
L 84.777338 119.003728 
L 88.627113 115.817707 
L 87.166854 120.596738 
L 86.63585 119.667482 
L 85.93058 120.725387 
L 85.134075 120.194383 
" style="fill:#0000ff;"/>
    <path clip-path="url(#pea2ef73ff9)" d="M 85.193878 105.178878 
L 86.79001 103.582747 
L 85.774661 103.244297 
L 90.174505 100.87515 
L 87.805358 105.274995 
L 87.466909 104.259646 
L 85.870777 105.855777 
L 85.193878 105.178878 
" style="fill:#0000ff;"/>
    <path clip-path="url(#pea2ef73ff9)" d="M 85.245144 90.191858 
L 87.988506 88.134336 
L 87.031226 87.655696 
L 91.721898 85.932592 
L 88.75433 89.953168 
L 88.562874 88.90016 
L 85.819512 90.957682 
L 85.245144 90.191858 
" style="fill:#0000ff;"/>
    <path clip-path="url(#pea2ef73ff9)" d="M 85.286069 75.221782 
L 89.329159 72.795929 
L 88.426212 72.221326 
L 93.269291 70.990035 
L 89.903761 74.683909 
L 89.821675 73.61679 
L 85.778586 76.042643 
L 85.286069 75.221782 
" style="fill:#0000ff;"/>
    <path clip-path="url(#pea2ef73ff9)" d="M 85.318273 60.261547 
L 90.749651 57.545858 
L 89.893434 56.903695 
L 94.816683 56.047478 
L 91.17776 59.472347 
L 91.17776 58.402075 
L 85.746382 61.117764 
L 85.318273 60.261547 
" style="fill:#0000ff;"/>
    <path clip-path="url(#pea2ef73ff9)" d="M 85.343782 45.307158 
L 92.216074 42.36189 
L 91.399044 41.670557 
L 96.364076 41.10492 
L 92.530317 44.310194 
L 92.593165 43.241769 
L 85.720873 46.187037 
L 85.343782 45.307158 
" style="fill:#0000ff;"/>
    <path clip-path="url(#pea2ef73ff9)" d="M 100.343393 255.403126 
L 93.653659 253.491773 
L 93.850898 254.543714 
L 89.643137 251.848117 
L 94.639853 251.782371 
L 93.916644 252.571326 
L 100.606378 254.482678 
L 100.343393 255.403126 
" style="fill:#0000ff;"/>
    <path clip-path="url(#pea2ef73ff9)" d="M 100.323526 240.454422 
L 95.12587 238.721871 
L 95.277229 239.781385 
L 91.190529 236.905559 
L 96.185385 237.056919 
L 95.428589 237.813715 
L 100.626244 239.546267 
L 100.323526 240.454422 
" style="fill:#0000ff;"/>
    <path clip-path="url(#pea2ef73ff9)" d="M 100.297123 225.502193 
L 96.559814 224.00727 
L 96.648696 225.073845 
L 92.737922 221.963002 
L 97.71527 222.407408 
L 96.915339 223.118458 
L 100.652648 224.613381 
L 100.297123 225.502193 
" style="fill:#0000ff;"/>
    <path clip-path="url(#pea2ef73ff9)" d="M 100.260831 210.543338 
L 97.924238 209.375042 
L 97.924238 210.445314 
L 94.285315 207.020445 
L 99.208564 207.876662 
L 98.352347 208.518825 
L 100.688939 209.687121 
L 100.260831 210.543338 
" style="fill:#0000ff;"/>
    <path clip-path="url(#pea2ef73ff9)" d="M 100.209383 195.570925 
L 99.151479 194.865655 
L 99.018728 195.927662 
L 95.832707 192.077887 
L 100.611738 193.538146 
L 99.682482 194.06915 
L 100.740387 194.77442 
L 100.209383 195.570925 
" style="fill:#0000ff;"/>
    <path clip-path="url(#pea2ef73ff9)" d="M 100.165407 180.539593 
L 99.855928 180.230115 
L 99.54645 181.15855 
L 97.3801 177.13533 
L 101.403321 179.301679 
L 100.474885 179.611158 
L 100.784364 179.920636 
L 100.165407 180.539593 
" style="fill:#0000ff;"/>
    <path clip-path="url(#pea2ef73ff9)" d="M 100.165407 165.442297 
L 100.010667 165.132818 
L 99.54645 165.751775 
L 98.927493 162.192772 
L 101.403321 164.82334 
L 100.629624 164.82334 
L 100.784364 165.132818 
L 100.165407 165.442297 
" style="fill:#0000ff;"/>
    <path clip-path="url(#pea2ef73ff9)" d="M 100.165407 150.345 
L 100.165407 150.035521 
L 99.54645 150.345 
L 100.474885 147.250215 
L 101.403321 150.345 
L 100.784364 150.035521 
L 100.784364 150.345 
L 100.165407 150.345 
" style="fill:#0000ff;"/>
    <path clip-path="url(#pea2ef73ff9)" d="M 100.165407 135.247703 
L 100.320146 134.938225 
L 99.54645 134.938225 
L 102.022278 132.307657 
L 101.403321 135.86666 
L 100.939103 135.247703 
L 100.784364 135.557182 
L 100.165407 135.247703 
" style="fill:#0000ff;"/>
    <path clip-path="url(#pea2ef73ff9)" d="M 100.165407 120.150407 
L 100.474885 119.840928 
L 99.54645 119.53145 
L 103.56967 117.3651 
L 101.403321 121.388321 
L 101.093842 120.459885 
L 100.784364 120.769364 
L 100.165407 120.150407 
" style="fill:#0000ff;"/>
    <path clip-path="url(#pea2ef73ff9)" d="M 100.209383 105.119075 
L 101.267288 104.413805 
L 100.338032 103.882802 
L 105.117063 102.422542 
L 101.931043 106.272317 
L 101.798292 105.21031 
L 100.740387 105.91558 
L 100.209383 105.119075 
" style="fill:#0000ff;"/>
    <path clip-path="url(#pea2ef73ff9)" d="M 100.260831 90.146662 
L 102.597424 88.978365 
L 101.741206 88.336202 
L 106.664456 87.479985 
L 103.025532 90.904854 
L 103.025532 89.834582 
L 100.688939 91.002879 
L 100.260831 90.146662 
" style="fill:#0000ff;"/>
    <path clip-path="url(#pea2ef73ff9)" d="M 100.297123 75.187807 
L 104.034431 73.692883 
L 103.2345 72.981834 
L 108.211848 72.537428 
L 104.301075 75.64827 
L 104.389956 74.581696 
L 100.652648 76.076619 
L 100.297123 75.187807 
" style="fill:#0000ff;"/>
    <path clip-path="url(#pea2ef73ff9)" d="M 100.323526 60.235578 
L 105.521182 58.503026 
L 104.764385 57.746229 
L 109.759241 57.59487 
L 105.672541 60.470696 
L 105.8239 59.411181 
L 100.626244 61.143733 
L 100.323526 60.235578 
" style="fill:#0000ff;"/>
    <path clip-path="url(#pea2ef73ff9)" d="M 100.343393 45.286874 
L 107.033126 43.375522 
L 106.309918 42.586566 
L 111.306633 42.652313 
L 107.098873 45.347909 
L 107.296111 44.295969 
L 100.606378 46.207322 
L 100.343393 45.286874 
" style="fill:#0000ff;"/>
    <path clip-path="url(#pea2ef73ff9)" d="M 115.349753 255.416732 
L 108.782469 254.478548 
L 109.120919 255.493897 
L 104.585694 253.395509 
L 109.527058 252.65092 
L 108.917849 253.530889 
L 115.485132 254.469073 
L 115.349753 255.416732 
" style="fill:#0000ff;"/>
    <path clip-path="url(#pea2ef73ff9)" d="M 115.338755 240.472472 
L 110.303547 239.633271 
L 110.618299 240.656214 
L 106.133087 238.452952 
L 111.090427 237.823449 
L 110.460923 238.689016 
L 115.49613 239.528217 
L 115.338755 240.472472 
" style="fill:#0000ff;"/>
    <path clip-path="url(#pea2ef73ff9)" d="M 115.323574 225.527132 
L 111.810717 224.824561 
L 112.092324 225.85712 
L 107.68048 223.510395 
L 112.655538 223.041049 
L 111.998455 223.885871 
L 115.511312 224.588442 
L 115.323574 225.527132 
" style="fill:#0000ff;"/>
    <path clip-path="url(#pea2ef73ff9)" d="M 115.301355 210.579579 
L 113.290926 210.076971 
L 113.5231 211.121757 
L 109.227872 208.567837 
L 114.219624 208.335663 
L 113.5231 209.148273 
L 115.53353 209.650881 
L 115.301355 210.579579 
" style="fill:#0000ff;"/>
    <path clip-path="url(#pea2ef73ff9)" d="M 115.266083 195.62675 
L 114.710605 195.441591 
L 114.861965 196.501106 
L 110.775265 193.62528 
L 115.77012 193.776639 
L 115.013324 194.533435 
L 115.568802 194.718595 
L 115.266083 195.62675 
" style="fill:#0000ff;"/>
    <path clip-path="url(#pea2ef73ff9)" d="M 115.262703 180.539593 
L 114.953225 180.384854 
L 114.953225 181.15855 
L 112.322657 178.682722 
L 115.88166 179.301679 
L 115.262703 179.765897 
L 115.572182 179.920636 
L 115.262703 180.539593 
" style="fill:#0000ff;"/>
    <path clip-path="url(#pea2ef73ff9)" d="M 115.262703 165.442297 
L 115.107964 165.287557 
L 114.953225 165.751775 
L 113.87005 163.740165 
L 115.88166 164.82334 
L 115.417443 164.978079 
L 115.572182 165.132818 
L 115.262703 165.442297 
" style="fill:#0000ff;"/>
    <path clip-path="url(#pea2ef73ff9)" d="M 115.262703 150.345 
L 115.262703 150.190261 
L 114.953225 150.345 
L 115.417443 148.797607 
L 115.88166 150.345 
L 115.572182 150.190261 
L 115.572182 150.345 
L 115.262703 150.345 
" style="fill:#0000ff;"/>
    <path clip-path="url(#pea2ef73ff9)" d="M 115.262703 135.247703 
L 115.417443 135.092964 
L 114.953225 134.938225 
L 116.964835 133.85505 
L 115.88166 135.86666 
L 115.726921 135.402443 
L 115.572182 135.557182 
L 115.262703 135.247703 
" style="fill:#0000ff;"/>
    <path clip-path="url(#pea2ef73ff9)" d="M 115.262703 120.150407 
L 115.572182 119.995667 
L 114.953225 119.53145 
L 118.512228 118.912493 
L 115.88166 121.388321 
L 115.88166 120.614624 
L 115.572182 120.769364 
L 115.262703 120.150407 
" style="fill:#0000ff;"/>
    <path clip-path="url(#pea2ef73ff9)" d="M 115.266083 105.06325 
L 115.821561 104.878091 
L 115.064765 104.121294 
L 120.05962 103.969935 
L 115.97292 106.845761 
L 116.12428 105.786246 
L 115.568802 105.971405 
L 115.266083 105.06325 
" style="fill:#0000ff;"/>
    <path clip-path="url(#pea2ef73ff9)" d="M 115.301355 90.110421 
L 117.311785 89.607814 
L 116.615261 88.795203 
L 121.607013 89.027378 
L 117.311785 91.581297 
L 117.543959 90.536512 
L 115.53353 91.039119 
L 115.301355 90.110421 
" style="fill:#0000ff;"/>
    <path clip-path="url(#pea2ef73ff9)" d="M 115.323574 75.162868 
L 118.83643 74.460296 
L 118.179347 73.615475 
L 123.154406 74.08482 
L 118.742561 76.431546 
L 119.024168 75.398987 
L 115.511312 76.101558 
L 115.323574 75.162868 
" style="fill:#0000ff;"/>
    <path clip-path="url(#pea2ef73ff9)" d="M 115.338755 60.217528 
L 120.373962 59.378327 
L 119.744459 58.512759 
L 124.701798 59.142263 
L 120.216586 61.345525 
L 120.531338 60.322582 
L 115.49613 61.161783 
L 115.338755 60.217528 
" style="fill:#0000ff;"/>
    <path clip-path="url(#pea2ef73ff9)" d="M 115.349753 45.273268 
L 121.917036 44.335085 
L 121.307827 43.455116 
L 126.249191 44.199705 
L 121.713966 46.298093 
L 122.052416 45.282744 
L 115.485132 46.220927 
L 115.349753 45.273268 
" style="fill:#0000ff;"/>
    <path clip-path="url(#pea2ef73ff9)" d="M 130.36 255.421542 
L 123.836012 255.421542 
L 124.314652 256.378822 
L 119.528252 254.942902 
L 124.314652 253.506982 
L 123.836012 254.464262 
L 130.36 254.464262 
L 130.36 255.421542 
" style="fill:#0000ff;"/>
    <path clip-path="url(#pea2ef73ff9)" d="M 130.36 240.478985 
L 125.383404 240.478985 
L 125.862044 241.436265 
L 121.075644 240.000345 
L 125.862044 238.564425 
L 125.383404 239.521705 
L 130.36 239.521705 
L 130.36 240.478985 
" style="fill:#0000ff;"/>
    <path clip-path="url(#pea2ef73ff9)" d="M 130.36 225.536427 
L 126.930797 225.536427 
L 127.409437 226.493707 
L 122.623037 225.057787 
L 127.409437 223.621867 
L 126.930797 224.579147 
L 130.36 224.579147 
L 130.36 225.536427 
" style="fill:#0000ff;"/>
    <path clip-path="url(#pea2ef73ff9)" d="M 130.36 210.59387 
L 128.47819 210.59387 
L 128.95683 211.55115 
L 124.17043 210.11523 
L 128.95683 208.67931 
L 128.47819 209.63659 
L 130.36 209.63659 
L 130.36 210.59387 
" style="fill:#0000ff;"/>
    <path clip-path="url(#pea2ef73ff9)" d="M 130.36 195.63689 
L 129.895782 195.63689 
L 130.36 196.565326 
L 125.717822 195.172672 
L 130.36 193.780019 
L 129.895782 194.708455 
L 130.36 194.708455 
L 130.36 195.63689 
" style="fill:#0000ff;"/>
    <path clip-path="url(#pea2ef73ff9)" d="M 130.36 180.539593 
L 130.050521 180.539593 
L 130.36 181.15855 
L 127.265215 180.230115 
L 130.36 179.301679 
L 130.050521 179.920636 
L 130.36 179.920636 
L 130.36 180.539593 
" style="fill:#0000ff;"/>
    <path clip-path="url(#pea2ef73ff9)" d="M 130.36 165.442297 
L 130.205261 165.442297 
L 130.36 165.751775 
L 128.812607 165.287557 
L 130.36 164.82334 
L 130.205261 165.132818 
L 130.36 165.132818 
L 130.36 165.442297 
" style="fill:#0000ff;"/>
    <path clip-path="url(#pea2ef73ff9)" d="M 130.83864 150.345 
L 130.59932 149.930486 
L 130.12068 149.930486 
L 129.88136 150.345 
L 130.12068 150.759514 
L 130.59932 150.759514 
L 130.83864 150.345 
L 130.59932 149.930486 
" style="fill:#0000ff;"/>
    <path clip-path="url(#pea2ef73ff9)" d="M 130.36 135.247703 
L 130.514739 135.247703 
L 130.36 134.938225 
L 131.907393 135.402443 
L 130.36 135.86666 
L 130.514739 135.557182 
L 130.36 135.557182 
L 130.36 135.247703 
" style="fill:#0000ff;"/>
    <path clip-path="url(#pea2ef73ff9)" d="M 130.36 120.150407 
L 130.669479 120.150407 
L 130.36 119.53145 
L 133.454785 120.459885 
L 130.36 121.388321 
L 130.669479 120.769364 
L 130.36 120.769364 
L 130.36 120.150407 
" style="fill:#0000ff;"/>
    <path clip-path="url(#pea2ef73ff9)" d="M 130.36 105.05311 
L 130.824218 105.05311 
L 130.36 104.124674 
L 135.002178 105.517328 
L 130.36 106.909981 
L 130.824218 105.981545 
L 130.36 105.981545 
L 130.36 105.05311 
" style="fill:#0000ff;"/>
    <path clip-path="url(#pea2ef73ff9)" d="M 130.36 90.09613 
L 132.24181 90.09613 
L 131.76317 89.13885 
L 136.54957 90.57477 
L 131.76317 92.01069 
L 132.24181 91.05341 
L 130.36 91.05341 
L 130.36 90.09613 
" style="fill:#0000ff;"/>
    <path clip-path="url(#pea2ef73ff9)" d="M 130.36 75.153573 
L 133.789203 75.153573 
L 133.310563 74.196293 
L 138.096963 75.632213 
L 133.310563 77.068133 
L 133.789203 76.110853 
L 130.36 76.110853 
L 130.36 75.153573 
" style="fill:#0000ff;"/>
    <path clip-path="url(#pea2ef73ff9)" d="M 130.36 60.211015 
L 135.336596 60.211015 
L 134.857956 59.253735 
L 139.644356 60.689655 
L 134.857956 62.125575 
L 135.336596 61.168295 
L 130.36 61.168295 
L 130.36 60.211015 
" style="fill:#0000ff;"/>
    <path clip-path="url(#pea2ef73ff9)" d="M 130.36 45.268458 
L 136.883988 45.268458 
L 136.405348 44.311178 
L 141.191748 45.747098 
L 136.405348 47.183018 
L 136.883988 46.225738 
L 130.36 46.225738 
L 130.36 45.268458 
" style="fill:#0000ff;"/>
    <path clip-path="url(#pea2ef73ff9)" d="M 145.370247 255.416732 
L 138.802964 256.354915 
L 139.412173 257.234884 
L 134.470809 256.490295 
L 139.006034 254.391907 
L 138.667584 255.407256 
L 145.234868 254.469073 
L 145.370247 255.416732 
" style="fill:#0000ff;"/>
    <path clip-path="url(#pea2ef73ff9)" d="M 145.381245 240.472472 
L 140.346038 241.311673 
L 140.975541 242.177241 
L 136.018202 241.547737 
L 140.503414 239.344475 
L 140.188662 240.367418 
L 145.22387 239.528217 
L 145.381245 240.472472 
" style="fill:#0000ff;"/>
    <path clip-path="url(#pea2ef73ff9)" d="M 145.396426 225.527132 
L 141.88357 226.229704 
L 142.540653 227.074525 
L 137.565594 226.60518 
L 141.977439 224.258454 
L 141.695832 225.291013 
L 145.208688 224.588442 
L 145.396426 225.527132 
" style="fill:#0000ff;"/>
    <path clip-path="url(#pea2ef73ff9)" d="M 145.418645 210.579579 
L 143.408215 211.082186 
L 144.104739 211.894797 
L 139.112987 211.662622 
L 143.408215 209.108703 
L 143.176041 210.153488 
L 145.18647 209.650881 
L 145.418645 210.579579 
" style="fill:#0000ff;"/>
    <path clip-path="url(#pea2ef73ff9)" d="M 145.453917 195.62675 
L 144.898439 195.811909 
L 145.655235 196.568706 
L 140.66038 196.720065 
L 144.74708 193.844239 
L 144.59572 194.903754 
L 145.151198 194.718595 
L 145.453917 195.62675 
" style="fill:#0000ff;"/>
    <path clip-path="url(#pea2ef73ff9)" d="M 145.457297 180.539593 
L 145.147818 180.694333 
L 145.766775 181.15855 
L 142.207772 181.777507 
L 144.83834 179.301679 
L 144.83834 180.075376 
L 145.147818 179.920636 
L 145.457297 180.539593 
" style="fill:#0000ff;"/>
    <path clip-path="url(#pea2ef73ff9)" d="M 145.457297 165.442297 
L 145.302557 165.597036 
L 145.766775 165.751775 
L 143.755165 166.83495 
L 144.83834 164.82334 
L 144.993079 165.287557 
L 145.147818 165.132818 
L 145.457297 165.442297 
" style="fill:#0000ff;"/>
    <path clip-path="url(#pea2ef73ff9)" d="M 145.457297 150.345 
L 145.457297 150.499739 
L 145.766775 150.345 
L 145.302557 151.892393 
L 144.83834 150.345 
L 145.147818 150.499739 
L 145.147818 150.345 
L 145.457297 150.345 
" style="fill:#0000ff;"/>
    <path clip-path="url(#pea2ef73ff9)" d="M 145.457297 135.247703 
L 145.612036 135.402443 
L 145.766775 134.938225 
L 146.84995 136.949835 
L 144.83834 135.86666 
L 145.302557 135.711921 
L 145.147818 135.557182 
L 145.457297 135.247703 
" style="fill:#0000ff;"/>
    <path clip-path="url(#pea2ef73ff9)" d="M 145.457297 120.150407 
L 145.766775 120.305146 
L 145.766775 119.53145 
L 148.397343 122.007278 
L 144.83834 121.388321 
L 145.457297 120.924103 
L 145.147818 120.769364 
L 145.457297 120.150407 
" style="fill:#0000ff;"/>
    <path clip-path="url(#pea2ef73ff9)" d="M 145.453917 105.06325 
L 146.009395 105.248409 
L 145.858035 104.188894 
L 149.944735 107.06472 
L 144.94988 106.913361 
L 145.706676 106.156565 
L 145.151198 105.971405 
L 145.453917 105.06325 
" style="fill:#0000ff;"/>
    <path clip-path="url(#pea2ef73ff9)" d="M 145.418645 90.110421 
L 147.429074 90.613029 
L 147.1969 89.568243 
L 151.492128 92.122163 
L 146.500376 92.354337 
L 147.1969 91.541727 
L 145.18647 91.039119 
L 145.418645 90.110421 
" style="fill:#0000ff;"/>
    <path clip-path="url(#pea2ef73ff9)" d="M 145.396426 75.162868 
L 148.909283 75.865439 
L 148.627676 74.83288 
L 153.03952 77.179605 
L 148.064462 77.648951 
L 148.721545 76.804129 
L 145.208688 76.101558 
L 145.396426 75.162868 
" style="fill:#0000ff;"/>
    <path clip-path="url(#pea2ef73ff9)" d="M 145.381245 60.217528 
L 150.416453 61.056729 
L 150.101701 60.033786 
L 154.586913 62.237048 
L 149.629573 62.866551 
L 150.259077 62.000984 
L 145.22387 61.161783 
L 145.381245 60.217528 
" style="fill:#0000ff;"/>
    <path clip-path="url(#pea2ef73ff9)" d="M 145.370247 45.273268 
L 151.937531 46.211452 
L 151.599081 45.196103 
L 156.134306 47.294491 
L 151.192942 48.03908 
L 151.802151 47.159111 
L 145.234868 46.220927 
L 145.370247 45.273268 
" style="fill:#0000ff;"/>
    <path clip-path="url(#pea2ef73ff9)" d="M 160.376607 255.403126 
L 153.686874 257.314478 
L 154.410082 258.103434 
L 149.413367 258.037687 
L 153.621127 255.342091 
L 153.423889 256.394031 
L 160.113622 254.482678 
L 160.376607 255.403126 
" style="fill:#0000ff;"/>
    <path clip-path="url(#pea2ef73ff9)" d="M 160.396474 240.454422 
L 155.198818 242.186974 
L 155.955615 242.943771 
L 150.960759 243.09513 
L 155.047459 240.219304 
L 154.8961 241.278819 
L 160.093756 239.546267 
L 160.396474 240.454422 
" style="fill:#0000ff;"/>
    <path clip-path="url(#pea2ef73ff9)" d="M 160.422877 225.502193 
L 156.685569 226.997117 
L 157.4855 227.708166 
L 152.508152 228.152572 
L 156.418925 225.04173 
L 156.330044 226.108304 
L 160.067352 224.613381 
L 160.422877 225.502193 
" style="fill:#0000ff;"/>
    <path clip-path="url(#pea2ef73ff9)" d="M 160.459169 210.543338 
L 158.122576 211.711635 
L 158.978794 212.353798 
L 154.055544 213.210015 
L 157.694468 209.785146 
L 157.694468 210.855418 
L 160.031061 209.687121 
L 160.459169 210.543338 
" style="fill:#0000ff;"/>
    <path clip-path="url(#pea2ef73ff9)" d="M 160.510617 195.570925 
L 159.452712 196.276195 
L 160.381968 196.807198 
L 155.602937 198.267458 
L 158.788957 194.417683 
L 158.921708 195.47969 
L 159.979613 194.77442 
L 160.510617 195.570925 
" style="fill:#0000ff;"/>
    <path clip-path="url(#pea2ef73ff9)" d="M 160.554593 180.539593 
L 160.245115 180.849072 
L 161.17355 181.15855 
L 157.15033 183.3249 
L 159.316679 179.301679 
L 159.626158 180.230115 
L 159.935636 179.920636 
L 160.554593 180.539593 
" style="fill:#0000ff;"/>
    <path clip-path="url(#pea2ef73ff9)" d="M 160.554593 165.442297 
L 160.399854 165.751775 
L 161.17355 165.751775 
L 158.697722 168.382343 
L 159.316679 164.82334 
L 159.780897 165.442297 
L 159.935636 165.132818 
L 160.554593 165.442297 
" style="fill:#0000ff;"/>
    <path clip-path="url(#pea2ef73ff9)" d="M 160.554593 150.345 
L 160.554593 150.654479 
L 161.17355 150.345 
L 160.245115 153.439785 
L 159.316679 150.345 
L 159.935636 150.654479 
L 159.935636 150.345 
L 160.554593 150.345 
" style="fill:#0000ff;"/>
    <path clip-path="url(#pea2ef73ff9)" d="M 160.554593 135.247703 
L 160.709333 135.557182 
L 161.17355 134.938225 
L 161.792507 138.497228 
L 159.316679 135.86666 
L 160.090376 135.86666 
L 159.935636 135.557182 
L 160.554593 135.247703 
" style="fill:#0000ff;"/>
    <path clip-path="url(#pea2ef73ff9)" d="M 160.554593 120.150407 
L 160.864072 120.459885 
L 161.17355 119.53145 
L 163.3399 123.55467 
L 159.316679 121.388321 
L 160.245115 121.078842 
L 159.935636 120.769364 
L 160.554593 120.150407 
" style="fill:#0000ff;"/>
    <path clip-path="url(#pea2ef73ff9)" d="M 160.510617 105.119075 
L 161.568521 105.824345 
L 161.701272 104.762338 
L 164.887293 108.612113 
L 160.108262 107.151854 
L 161.037518 106.62085 
L 159.979613 105.91558 
L 160.510617 105.119075 
" style="fill:#0000ff;"/>
    <path clip-path="url(#pea2ef73ff9)" d="M 160.459169 90.146662 
L 162.795762 91.314958 
L 162.795762 90.244686 
L 166.434685 93.669555 
L 161.511436 92.813338 
L 162.367653 92.171175 
L 160.031061 91.002879 
L 160.459169 90.146662 
" style="fill:#0000ff;"/>
    <path clip-path="url(#pea2ef73ff9)" d="M 160.422877 75.187807 
L 164.160186 76.68273 
L 164.071304 75.616155 
L 167.982078 78.726998 
L 163.00473 78.282592 
L 163.804661 77.571542 
L 160.067352 76.076619 
L 160.422877 75.187807 
" style="fill:#0000ff;"/>
    <path clip-path="url(#pea2ef73ff9)" d="M 160.396474 60.235578 
L 165.59413 61.968129 
L 165.442771 60.908615 
L 169.529471 63.784441 
L 164.534615 63.633081 
L 165.291411 62.876285 
L 160.093756 61.143733 
L 160.396474 60.235578 
" style="fill:#0000ff;"/>
    <path clip-path="url(#pea2ef73ff9)" d="M 160.376607 45.286874 
L 167.066341 47.198227 
L 166.869102 46.146286 
L 171.076863 48.841883 
L 166.080147 48.907629 
L 166.803356 48.118674 
L 160.113622 46.207322 
L 160.376607 45.286874 
" style="fill:#0000ff;"/>
    <path clip-path="url(#pea2ef73ff9)" d="M 175.376218 255.382842 
L 168.503926 258.32811 
L 169.320956 259.019443 
L 164.355924 259.58508 
L 168.189683 256.379806 
L 168.126835 257.448231 
L 174.999127 254.502963 
L 175.376218 255.382842 
" style="fill:#0000ff;"/>
    <path clip-path="url(#pea2ef73ff9)" d="M 175.401727 240.428453 
L 169.970349 243.144142 
L 170.826566 243.786305 
L 165.903317 244.642522 
L 169.54224 241.217653 
L 169.54224 242.287925 
L 174.973618 239.572236 
L 175.401727 240.428453 
" style="fill:#0000ff;"/>
    <path clip-path="url(#pea2ef73ff9)" d="M 175.433931 225.468218 
L 171.390841 227.894071 
L 172.293788 228.468674 
L 167.450709 229.699965 
L 170.816239 226.006091 
L 170.898325 227.07321 
L 174.941414 224.647357 
L 175.433931 225.468218 
" style="fill:#0000ff;"/>
    <path clip-path="url(#pea2ef73ff9)" d="M 175.474856 210.498142 
L 172.731494 212.555664 
L 173.688774 213.034304 
L 168.998102 214.757408 
L 171.96567 210.736832 
L 172.157126 211.78984 
L 174.900488 209.732318 
L 175.474856 210.498142 
" style="fill:#0000ff;"/>
    <path clip-path="url(#pea2ef73ff9)" d="M 175.526122 195.511122 
L 173.92999 197.107253 
L 174.945339 197.445703 
L 170.545495 199.81485 
L 172.914642 195.415005 
L 173.253091 196.430354 
L 174.849223 194.834223 
L 175.526122 195.511122 
" style="fill:#0000ff;"/>
    <path clip-path="url(#pea2ef73ff9)" d="M 175.585925 180.495617 
L 174.880655 181.553521 
L 175.942662 181.686272 
L 172.092887 184.872293 
L 173.553146 180.093262 
L 174.08415 181.022518 
L 174.78942 179.964613 
L 175.585925 180.495617 
" style="fill:#0000ff;"/>
    <path clip-path="url(#pea2ef73ff9)" d="M 175.64175 165.438917 
L 175.456591 165.994395 
L 176.516106 165.843035 
L 173.64028 169.929735 
L 173.791639 164.93488 
L 174.548435 165.691676 
L 174.733595 165.136198 
L 175.64175 165.438917 
" style="fill:#0000ff;"/>
    <path clip-path="url(#pea2ef73ff9)" d="M 175.65189 150.345 
L 175.65189 150.809218 
L 176.580326 150.345 
L 175.187672 154.987178 
L 173.795019 150.345 
L 174.723455 150.809218 
L 174.723455 150.345 
L 175.65189 150.345 
" style="fill:#0000ff;"/>
    <path clip-path="url(#pea2ef73ff9)" d="M 175.64175 135.251083 
L 175.826909 135.806561 
L 176.583706 135.049765 
L 176.735065 140.04462 
L 173.859239 135.95792 
L 174.918754 136.10928 
L 174.733595 135.553802 
L 175.64175 135.251083 
" style="fill:#0000ff;"/>
    <path clip-path="url(#pea2ef73ff9)" d="M 175.585925 120.194383 
L 176.291195 121.252288 
L 176.822198 120.323032 
L 178.282458 125.102063 
L 174.432683 121.916043 
L 175.49469 121.783292 
L 174.78942 120.725387 
L 175.585925 120.194383 
" style="fill:#0000ff;"/>
    <path clip-path="url(#pea2ef73ff9)" d="M 175.526122 105.178878 
L 177.122253 106.77501 
L 177.460703 105.759661 
L 179.82985 110.159505 
L 175.430005 107.790358 
L 176.445354 107.451909 
L 174.849223 105.855777 
L 175.526122 105.178878 
" style="fill:#0000ff;"/>
    <path clip-path="url(#pea2ef73ff9)" d="M 175.474856 90.191858 
L 178.218219 92.24938 
L 178.409675 91.196372 
L 181.377243 95.216948 
L 176.686571 93.493844 
L 177.643851 93.015204 
L 174.900488 90.957682 
L 175.474856 90.191858 
" style="fill:#0000ff;"/>
    <path clip-path="url(#pea2ef73ff9)" d="M 175.433931 75.221782 
L 179.47702 77.647636 
L 179.559106 76.580517 
L 182.924635 80.274391 
L 178.081556 79.043099 
L 178.984503 78.468497 
L 174.941414 76.042643 
L 175.433931 75.221782 
" style="fill:#0000ff;"/>
    <path clip-path="url(#pea2ef73ff9)" d="M 175.401727 60.261547 
L 180.833105 62.977236 
L 180.833105 61.906964 
L 184.472028 65.331833 
L 179.548779 64.475616 
L 180.404996 63.833453 
L 174.973618 61.117764 
L 175.401727 60.261547 
" style="fill:#0000ff;"/>
    <path clip-path="url(#pea2ef73ff9)" d="M 175.376218 45.307158 
L 182.24851 48.252426 
L 182.185661 47.184002 
L 186.019421 50.389276 
L 181.054388 49.823639 
L 181.871419 49.132306 
L 174.999127 46.187037 
L 175.376218 45.307158 
" style="fill:#0000ff;"/>
    <path clip-path="url(#pea2ef73ff9)" d="M 190.367702 255.358478 
L 183.276137 259.410801 
L 184.166656 260.004481 
L 179.298482 261.132473 
L 182.741825 257.511025 
L 182.801193 258.579649 
L 189.892758 254.527326 
L 190.367702 255.358478 
" style="fill:#0000ff;"/>
    <path clip-path="url(#pea2ef73ff9)" d="M 190.395731 240.398597 
L 184.695649 244.198652 
L 185.624905 244.729656 
L 180.845874 246.189915 
L 184.031895 242.34014 
L 184.164645 243.402147 
L 189.864728 239.602092 
L 190.395731 240.398597 
" style="fill:#0000ff;"/>
    <path clip-path="url(#pea2ef73ff9)" d="M 190.429234 225.431542 
L 186.056066 228.930076 
L 187.027829 229.378582 
L 182.393267 231.247358 
L 185.233805 227.136052 
L 185.458058 228.182566 
L 189.831226 224.684032 
L 190.429234 225.431542 
" style="fill:#0000ff;"/>
    <path clip-path="url(#pea2ef73ff9)" d="M 190.468679 210.453679 
L 187.325155 213.597203 
L 188.340504 213.935653 
L 183.940659 216.3048 
L 186.309806 211.904956 
L 186.648256 212.920304 
L 189.79178 209.77678 
L 190.468679 210.453679 
" style="fill:#0000ff;"/>
    <path clip-path="url(#pea2ef73ff9)" d="M 190.513142 195.459856 
L 188.45562 198.203219 
L 189.508628 198.394675 
L 185.488052 201.362243 
L 187.211156 196.671571 
L 187.689796 197.628851 
L 189.747318 194.885488 
L 190.513142 195.459856 
" style="fill:#0000ff;"/>
    <path clip-path="url(#pea2ef73ff9)" d="M 190.558338 180.444169 
L 189.390042 182.780762 
L 190.460314 182.780762 
L 187.035445 186.419685 
L 187.891662 181.496436 
L 188.533825 182.352653 
L 189.702121 180.016061 
L 190.558338 180.444169 
" style="fill:#0000ff;"/>
    <path clip-path="url(#pea2ef73ff9)" d="M 190.594579 165.403645 
L 190.091971 167.414074 
L 191.136757 167.1819 
L 188.582837 171.477128 
L 188.350663 166.485376 
L 189.163273 167.1819 
L 189.665881 165.17147 
L 190.594579 165.403645 
" style="fill:#0000ff;"/>
    <path clip-path="url(#pea2ef73ff9)" d="M 190.60887 150.345 
L 190.60887 152.22681 
L 191.56615 151.74817 
L 190.13023 156.53457 
L 188.69431 151.74817 
L 189.65159 152.22681 
L 189.65159 150.345 
L 190.60887 150.345 
" style="fill:#0000ff;"/>
    <path clip-path="url(#pea2ef73ff9)" d="M 190.594579 135.286355 
L 191.097186 137.296785 
L 191.909797 136.600261 
L 191.677622 141.592013 
L 189.123703 137.296785 
L 190.168488 137.528959 
L 189.665881 135.51853 
L 190.594579 135.286355 
" style="fill:#0000ff;"/>
    <path clip-path="url(#pea2ef73ff9)" d="M 190.558338 120.245831 
L 191.726635 122.582424 
L 192.368798 121.726206 
L 193.225015 126.649456 
L 189.800146 123.010532 
L 190.870418 123.010532 
L 189.702121 120.673939 
L 190.558338 120.245831 
" style="fill:#0000ff;"/>
    <path clip-path="url(#pea2ef73ff9)" d="M 190.513142 105.230144 
L 192.570664 107.973506 
L 193.049304 107.016226 
L 194.772408 111.706898 
L 190.751832 108.73933 
L 191.80484 108.547874 
L 189.747318 105.804512 
L 190.513142 105.230144 
" style="fill:#0000ff;"/>
    <path clip-path="url(#pea2ef73ff9)" d="M 190.468679 90.236321 
L 193.612203 93.379845 
L 193.950653 92.364496 
L 196.3198 96.764341 
L 191.919956 94.395194 
L 192.935304 94.056744 
L 189.79178 90.91322 
L 190.468679 90.236321 
" style="fill:#0000ff;"/>
    <path clip-path="url(#pea2ef73ff9)" d="M 190.429234 75.258458 
L 194.802401 78.756992 
L 195.026654 77.710478 
L 197.867193 81.821783 
L 193.23263 79.953008 
L 194.204393 79.504502 
L 189.831226 76.005968 
L 190.429234 75.258458 
" style="fill:#0000ff;"/>
    <path clip-path="url(#pea2ef73ff9)" d="M 190.395731 60.291403 
L 196.095814 64.091458 
L 196.228565 63.029451 
L 199.414585 66.879226 
L 194.635555 65.418966 
L 195.564811 64.887963 
L 189.864728 61.087908 
L 190.395731 60.291403 
" style="fill:#0000ff;"/>
    <path clip-path="url(#pea2ef73ff9)" d="M 190.367702 45.331522 
L 197.459267 49.383845 
L 197.518635 48.315221 
L 200.961978 51.936668 
L 196.093803 50.808677 
L 196.984323 50.214997 
L 189.892758 46.162674 
L 190.367702 45.331522 
" style="fill:#0000ff;"/>
    <path clip-path="url(#pea2ef73ff9)" d="M 205.350991 255.332387 
L 198.024611 260.565516 
L 198.970504 261.066283 
L 194.241039 262.679865 
L 197.301281 258.72937 
L 197.468204 259.786545 
L 204.794583 254.553417 
L 205.350991 255.332387 
" style="fill:#0000ff;"/>
    <path clip-path="url(#pea2ef73ff9)" d="M 205.379205 240.368046 
L 199.404162 245.347248 
L 200.384699 245.776233 
L 195.788432 247.737308 
L 198.546192 243.570025 
L 198.791327 244.611846 
L 204.766369 239.632643 
L 205.379205 240.368046 
" style="fill:#0000ff;"/>
    <path clip-path="url(#pea2ef73ff9)" d="M 205.411237 225.396237 
L 200.72032 230.087154 
L 201.735669 230.425603 
L 197.335824 232.79475 
L 199.704971 228.394906 
L 200.043421 229.410254 
L 204.734338 224.719338 
L 205.411237 225.396237 
" style="fill:#0000ff;"/>
    <path clip-path="url(#pea2ef73ff9)" d="M 205.446542 210.414234 
L 201.948008 214.787401 
L 202.994522 215.011654 
L 198.883217 217.852193 
L 200.751992 213.21763 
L 201.200498 214.189393 
L 204.699032 209.816226 
L 205.446542 210.414234 
" style="fill:#0000ff;"/>
    <path clip-path="url(#pea2ef73ff9)" d="M 205.483218 195.418931 
L 203.057364 199.46202 
L 204.124483 199.544106 
L 200.430609 202.909635 
L 201.661901 198.066556 
L 202.236503 198.969503 
L 204.662357 194.926414 
L 205.483218 195.418931 
" style="fill:#0000ff;"/>
    <path clip-path="url(#pea2ef73ff9)" d="M 205.517193 180.407877 
L 204.02227 184.145186 
L 205.088845 184.056304 
L 201.978002 187.967078 
L 202.422408 182.98973 
L 203.133458 183.789661 
L 204.628381 180.052352 
L 205.517193 180.407877 
" style="fill:#0000ff;"/>
    <path clip-path="url(#pea2ef73ff9)" d="M 205.542132 165.381426 
L 204.839561 168.894283 
L 205.87212 168.612676 
L 203.525395 173.02452 
L 203.056049 168.049462 
L 203.900871 168.706545 
L 204.603442 165.193688 
L 205.542132 165.381426 
" style="fill:#0000ff;"/>
    <path clip-path="url(#pea2ef73ff9)" d="M 205.551427 150.345 
L 205.551427 153.774203 
L 206.508707 153.295563 
L 205.072787 158.081963 
L 203.636867 153.295563 
L 204.594147 153.774203 
L 204.594147 150.345 
L 205.551427 150.345 
" style="fill:#0000ff;"/>
    <path clip-path="url(#pea2ef73ff9)" d="M 205.542132 135.308574 
L 206.244704 138.82143 
L 207.089525 138.164347 
L 206.62018 143.139406 
L 204.273454 138.727561 
L 205.306013 139.009168 
L 204.603442 135.496312 
L 205.542132 135.308574 
" style="fill:#0000ff;"/>
    <path clip-path="url(#pea2ef73ff9)" d="M 205.517193 120.282123 
L 207.012117 124.019431 
L 207.723166 123.2195 
L 208.167572 128.196848 
L 205.05673 124.286075 
L 206.123304 124.374956 
L 204.628381 120.637648 
L 205.517193 120.282123 
" style="fill:#0000ff;"/>
    <path clip-path="url(#pea2ef73ff9)" d="M 205.483218 105.271069 
L 207.909071 109.314159 
L 208.483674 108.411212 
L 209.714965 113.254291 
L 206.021091 109.888761 
L 207.08821 109.806675 
L 204.662357 105.763586 
L 205.483218 105.271069 
" style="fill:#0000ff;"/>
    <path clip-path="url(#pea2ef73ff9)" d="M 205.446542 90.275766 
L 208.945076 94.648934 
L 209.393582 93.677171 
L 211.262358 98.311733 
L 207.151052 95.471195 
L 208.197566 95.246942 
L 204.699032 90.873774 
L 205.446542 90.275766 
" style="fill:#0000ff;"/>
    <path clip-path="url(#pea2ef73ff9)" d="M 205.411237 75.293763 
L 210.102154 79.98468 
L 210.440603 78.969331 
L 212.80975 83.369176 
L 208.409906 81.000029 
L 209.425254 80.661579 
L 204.734338 75.970662 
L 205.411237 75.293763 
" style="fill:#0000ff;"/>
    <path clip-path="url(#pea2ef73ff9)" d="M 205.379205 60.321954 
L 211.354248 65.301156 
L 211.599382 64.259335 
L 214.357143 68.426618 
L 209.760875 66.465544 
L 210.741412 66.036559 
L 204.766369 61.057357 
L 205.379205 60.321954 
" style="fill:#0000ff;"/>
    <path clip-path="url(#pea2ef73ff9)" d="M 205.350991 45.357613 
L 212.677371 50.590741 
L 212.844293 49.533566 
L 215.904535 53.484061 
L 211.17507 51.870479 
L 212.120963 51.369712 
L 204.794583 46.136583 
L 205.350991 45.357613 
" style="fill:#0000ff;"/>
    <path clip-path="url(#pea2ef73ff9)" d="M 220.326839 255.306313 
L 212.765786 261.787215 
L 213.752187 262.202542 
L 209.183596 264.227258 
L 211.883218 260.022078 
L 212.142797 261.060394 
L 219.70385 254.579492 
L 220.326839 255.306313 
" style="fill:#0000ff;"/>
    <path clip-path="url(#pea2ef73ff9)" d="M 220.353794 240.338794 
L 214.115485 246.577104 
L 215.130834 246.915553 
L 210.730989 249.2847 
L 213.100136 244.884856 
L 213.438586 245.900204 
L 219.676895 239.661895 
L 220.353794 240.338794 
" style="fill:#0000ff;"/>
    <path clip-path="url(#pea2ef73ff9)" d="M 220.383046 225.364205 
L 215.403844 231.339248 
L 216.445665 231.584382 
L 212.278382 234.342143 
L 214.239456 229.745875 
L 214.668441 230.726412 
L 219.647643 224.751369 
L 220.383046 225.364205 
" style="fill:#0000ff;"/>
    <path clip-path="url(#pea2ef73ff9)" d="M 220.413597 210.380731 
L 216.613542 216.080814 
L 217.675549 216.213565 
L 213.825774 219.399585 
L 215.286034 214.620555 
L 215.817037 215.549811 
L 219.617092 209.849728 
L 220.413597 210.380731 
" style="fill:#0000ff;"/>
    <path clip-path="url(#pea2ef73ff9)" d="M 220.443453 195.386727 
L 217.727764 200.818105 
L 218.798036 200.818105 
L 215.373167 204.457028 
L 216.229384 199.533779 
L 216.871547 200.389996 
L 219.587236 194.958618 
L 220.443453 195.386727 
" style="fill:#0000ff;"/>
    <path clip-path="url(#pea2ef73ff9)" d="M 220.469422 180.381474 
L 218.736871 185.57913 
L 219.796385 185.427771 
L 216.920559 189.514471 
L 217.071919 184.519615 
L 217.828715 185.276411 
L 219.561267 180.078756 
L 220.469422 180.381474 
" style="fill:#0000ff;"/>
    <path clip-path="url(#pea2ef73ff9)" d="M 220.487472 165.366245 
L 219.648271 170.401453 
L 220.671214 170.086701 
L 218.467952 174.571913 
L 217.838449 169.614573 
L 218.704016 170.244077 
L 219.543217 165.20887 
L 220.487472 165.366245 
" style="fill:#0000ff;"/>
    <path clip-path="url(#pea2ef73ff9)" d="M 220.493985 150.345 
L 220.493985 155.321596 
L 221.451265 154.842956 
L 220.015345 159.629356 
L 218.579425 154.842956 
L 219.536705 155.321596 
L 219.536705 150.345 
L 220.493985 150.345 
" style="fill:#0000ff;"/>
    <path clip-path="url(#pea2ef73ff9)" d="M 220.487472 135.323755 
L 221.326673 140.358962 
L 222.192241 139.729459 
L 221.562737 144.686798 
L 219.359475 140.201586 
L 220.382418 140.516338 
L 219.543217 135.48113 
L 220.487472 135.323755 
" style="fill:#0000ff;"/>
    <path clip-path="url(#pea2ef73ff9)" d="M 220.469422 120.308526 
L 222.201974 125.506182 
L 222.958771 124.749385 
L 223.11013 129.744241 
L 220.234304 125.657541 
L 221.293819 125.8089 
L 219.561267 120.611244 
L 220.469422 120.308526 
" style="fill:#0000ff;"/>
    <path clip-path="url(#pea2ef73ff9)" d="M 220.443453 105.303273 
L 223.159142 110.734651 
L 223.801305 109.878434 
L 224.657522 114.801683 
L 221.232653 111.16276 
L 222.302925 111.16276 
L 219.587236 105.731382 
L 220.443453 105.303273 
" style="fill:#0000ff;"/>
    <path clip-path="url(#pea2ef73ff9)" d="M 220.413597 90.309269 
L 224.213652 96.009351 
L 224.744656 95.080095 
L 226.204915 99.859126 
L 222.35514 96.673105 
L 223.417147 96.540355 
L 219.617092 90.840272 
L 220.413597 90.309269 
" style="fill:#0000ff;"/>
    <path clip-path="url(#pea2ef73ff9)" d="M 220.383046 75.325795 
L 225.362248 81.300838 
L 225.791233 80.320301 
L 227.752308 84.916568 
L 223.585025 82.158808 
L 224.626846 81.913673 
L 219.647643 75.938631 
L 220.383046 75.325795 
" style="fill:#0000ff;"/>
    <path clip-path="url(#pea2ef73ff9)" d="M 220.353794 60.351206 
L 226.592104 66.589515 
L 226.930553 65.574166 
L 229.2997 69.974011 
L 224.899856 67.604864 
L 225.915204 67.266414 
L 219.676895 61.028105 
L 220.353794 60.351206 
" style="fill:#0000ff;"/>
    <path clip-path="url(#pea2ef73ff9)" d="M 220.326839 45.383687 
L 227.887892 51.86459 
L 228.147471 50.826274 
L 230.847093 55.031454 
L 226.278503 53.006737 
L 227.264903 52.591411 
L 219.70385 46.110508 
L 220.326839 45.383687 
" style="fill:#0000ff;"/>
    <path clip-path="url(#pea2ef73ff9)" d="M 235.296352 255.281352 
L 227.51065 263.067054 
L 228.525999 263.405503 
L 224.126154 265.77465 
L 226.495301 261.374806 
L 226.833751 262.390154 
L 234.619453 254.604453 
L 235.296352 255.281352 
" style="fill:#0000ff;"/>
    <path clip-path="url(#pea2ef73ff9)" d="M 235.321313 240.311839 
L 228.84041 247.872892 
L 229.878726 248.132471 
L 225.673546 250.832093 
L 227.698263 246.263503 
L 228.113589 247.249903 
L 234.594492 239.68885 
L 235.321313 240.311839 
" style="fill:#0000ff;"/>
    <path clip-path="url(#pea2ef73ff9)" d="M 235.347387 225.335991 
L 230.114259 232.662371 
L 231.171434 232.829293 
L 227.220939 235.889535 
L 228.834521 231.16007 
L 229.335288 232.105963 
L 234.568417 224.779583 
L 235.347387 225.335991 
" style="fill:#0000ff;"/>
    <path clip-path="url(#pea2ef73ff9)" d="M 235.373478 210.352702 
L 231.321155 217.444267 
L 232.389779 217.503635 
L 228.768332 220.946978 
L 229.896323 216.078803 
L 230.490003 216.969323 
L 234.542326 209.877758 
L 235.373478 210.352702 
" style="fill:#0000ff;"/>
    <path clip-path="url(#pea2ef73ff9)" d="M 235.397842 195.361218 
L 232.452574 202.23351 
L 233.520998 202.170661 
L 230.315724 206.004421 
L 230.881361 201.039388 
L 231.572694 201.856419 
L 234.517963 194.984127 
L 235.397842 195.361218 
" style="fill:#0000ff;"/>
    <path clip-path="url(#pea2ef73ff9)" d="M 235.418126 180.361607 
L 233.506773 187.051341 
L 234.558714 186.854102 
L 231.863117 191.061863 
L 231.797371 186.065147 
L 232.586326 186.788356 
L 234.497678 180.098622 
L 235.418126 180.361607 
" style="fill:#0000ff;"/>
    <path clip-path="url(#pea2ef73ff9)" d="M 235.431732 165.355247 
L 234.493548 171.922531 
L 235.508897 171.584081 
L 233.410509 176.119306 
L 232.66592 171.177942 
L 233.545889 171.787151 
L 234.484073 165.219868 
L 235.431732 165.355247 
" style="fill:#0000ff;"/>
    <path clip-path="url(#pea2ef73ff9)" d="M 235.436542 150.345 
L 235.436542 156.868988 
L 236.393822 156.390348 
L 234.957902 161.176748 
L 233.521982 156.390348 
L 234.479262 156.868988 
L 234.479262 150.345 
L 235.436542 150.345 
" style="fill:#0000ff;"/>
    <path clip-path="url(#pea2ef73ff9)" d="M 235.431732 135.334753 
L 236.369915 141.902036 
L 237.249884 141.292827 
L 236.505295 146.234191 
L 234.406907 141.698966 
L 235.422256 142.037416 
L 234.484073 135.470132 
L 235.431732 135.334753 
" style="fill:#0000ff;"/>
    <path clip-path="url(#pea2ef73ff9)" d="M 235.418126 120.328393 
L 237.329478 127.018126 
L 238.118434 126.294918 
L 238.052687 131.291633 
L 235.357091 127.083873 
L 236.409031 127.281111 
L 234.497678 120.591378 
L 235.418126 120.328393 
" style="fill:#0000ff;"/>
    <path clip-path="url(#pea2ef73ff9)" d="M 235.397842 105.328782 
L 238.34311 112.201074 
L 239.034443 111.384044 
L 239.60008 116.349076 
L 236.394806 112.515317 
L 237.463231 112.578165 
L 234.517963 105.705873 
L 235.397842 105.328782 
" style="fill:#0000ff;"/>
    <path clip-path="url(#pea2ef73ff9)" d="M 235.373478 90.337298 
L 239.425801 97.428863 
L 240.019481 96.538344 
L 241.147473 101.406518 
L 237.526025 97.963175 
L 238.594649 97.903807 
L 234.542326 90.812242 
L 235.373478 90.337298 
" style="fill:#0000ff;"/>
    <path clip-path="url(#pea2ef73ff9)" d="M 235.347387 75.354009 
L 240.580516 82.680389 
L 241.081283 81.734496 
L 242.694865 86.463961 
L 238.74437 83.403719 
L 239.801545 83.236796 
L 234.568417 75.910417 
L 235.347387 75.354009 
" style="fill:#0000ff;"/>
    <path clip-path="url(#pea2ef73ff9)" d="M 235.321313 60.378161 
L 241.802215 67.939214 
L 242.217542 66.952813 
L 244.242258 71.521404 
L 240.037078 68.821782 
L 241.075394 68.562203 
L 234.594492 61.00115 
L 235.321313 60.378161 
" style="fill:#0000ff;"/>
    <path clip-path="url(#pea2ef73ff9)" d="M 235.296352 45.408648 
L 243.082054 53.19435 
L 243.420503 52.179001 
L 245.78965 56.578846 
L 241.389806 54.209699 
L 242.405154 53.871249 
L 234.619453 46.085547 
L 235.296352 45.408648 
" style="fill:#0000ff;"/>
   </g>
   <g id="matplotlib.axis_1">
    <g id="xtick_1">
     <g id="line2d_1">
      <defs>
       <path d="M 0 0 
L 0 3.5 
" id="m5d6bd8948b" style="stroke:#000000;stroke-width:0.8;"/>
      </defs>
      <g>
       <use style="stroke:#000000;stroke-width:0.8;" x="46.681678" xlink:href="#m5d6bd8948b" y="150.345"/>
      </g>
     </g>
     <g id="text_1">
      <!-- -4 -->
      <defs>
       <path d="M 4.890625 31.390625 
L 31.203125 31.390625 
L 31.203125 23.390625 
L 4.890625 23.390625 
z
" id="DejaVuSans-2d"/>
       <path d="M 37.796875 64.3125 
L 12.890625 25.390625 
L 37.796875 25.390625 
z
M 35.203125 72.90625 
L 47.609375 72.90625 
L 47.609375 25.390625 
L 58.015625 25.390625 
L 58.015625 17.1875 
L 47.609375 17.1875 
L 47.609375 0 
L 37.796875 0 
L 37.796875 17.1875 
L 4.890625 17.1875 
L 4.890625 26.703125 
z
" id="DejaVuSans-34"/>
      </defs>
      <g transform="translate(41.696522 164.943438)scale(0.1 -0.1)">
       <use xlink:href="#DejaVuSans-2d"/>
       <use x="36.083984" xlink:href="#DejaVuSans-34"/>
      </g>
     </g>
    </g>
    <g id="xtick_2">
     <g id="line2d_2">
      <g>
       <use style="stroke:#000000;stroke-width:0.8;" x="88.520839" xlink:href="#m5d6bd8948b" y="150.345"/>
      </g>
     </g>
     <g id="text_2">
      <!-- -2 -->
      <defs>
       <path d="M 19.1875 8.296875 
L 53.609375 8.296875 
L 53.609375 0 
L 7.328125 0 
L 7.328125 8.296875 
Q 12.9375 14.109375 22.625 23.890625 
Q 32.328125 33.6875 34.8125 36.53125 
Q 39.546875 41.84375 41.421875 45.53125 
Q 43.3125 49.21875 43.3125 52.78125 
Q 43.3125 58.59375 39.234375 62.25 
Q 35.15625 65.921875 28.609375 65.921875 
Q 23.96875 65.921875 18.8125 64.3125 
Q 13.671875 62.703125 7.8125 59.421875 
L 7.8125 69.390625 
Q 13.765625 71.78125 18.9375 73 
Q 24.125 74.21875 28.421875 74.21875 
Q 39.75 74.21875 46.484375 68.546875 
Q 53.21875 62.890625 53.21875 53.421875 
Q 53.21875 48.921875 51.53125 44.890625 
Q 49.859375 40.875 45.40625 35.40625 
Q 44.1875 33.984375 37.640625 27.21875 
Q 31.109375 20.453125 19.1875 8.296875 
z
" id="DejaVuSans-32"/>
      </defs>
      <g transform="translate(83.535683 164.943438)scale(0.1 -0.1)">
       <use xlink:href="#DejaVuSans-2d"/>
       <use x="36.083984" xlink:href="#DejaVuSans-32"/>
      </g>
     </g>
    </g>
    <g id="xtick_3">
     <g id="line2d_3">
      <g>
       <use style="stroke:#000000;stroke-width:0.8;" x="130.36" xlink:href="#m5d6bd8948b" y="150.345"/>
      </g>
     </g>
    </g>
    <g id="xtick_4">
     <g id="line2d_4">
      <g>
       <use style="stroke:#000000;stroke-width:0.8;" x="172.199161" xlink:href="#m5d6bd8948b" y="150.345"/>
      </g>
     </g>
     <g id="text_3">
      <!-- 2 -->
      <g transform="translate(169.017911 164.943438)scale(0.1 -0.1)">
       <use xlink:href="#DejaVuSans-32"/>
      </g>
     </g>
    </g>
    <g id="xtick_5">
     <g id="line2d_5">
      <g>
       <use style="stroke:#000000;stroke-width:0.8;" x="214.038322" xlink:href="#m5d6bd8948b" y="150.345"/>
      </g>
     </g>
     <g id="text_4">
      <!-- 4 -->
      <g transform="translate(210.857072 164.943438)scale(0.1 -0.1)">
       <use xlink:href="#DejaVuSans-34"/>
      </g>
     </g>
    </g>
    <g id="xtick_6">
     <g id="line2d_6">
      <defs>
       <path d="M 0 0 
L 0 2 
" id="mf5c06d3275" style="stroke:#000000;stroke-width:0.6;"/>
      </defs>
      <g>
       <use style="stroke:#000000;stroke-width:0.6;" x="15.302308" xlink:href="#mf5c06d3275" y="150.345"/>
      </g>
     </g>
    </g>
    <g id="xtick_7">
     <g id="line2d_7">
      <g>
       <use style="stroke:#000000;stroke-width:0.6;" x="25.762098" xlink:href="#mf5c06d3275" y="150.345"/>
      </g>
     </g>
    </g>
    <g id="xtick_8">
     <g id="line2d_8">
      <g>
       <use style="stroke:#000000;stroke-width:0.6;" x="36.221888" xlink:href="#mf5c06d3275" y="150.345"/>
      </g>
     </g>
    </g>
    <g id="xtick_9">
     <g id="line2d_9">
      <g>
       <use style="stroke:#000000;stroke-width:0.6;" x="57.141469" xlink:href="#mf5c06d3275" y="150.345"/>
      </g>
     </g>
    </g>
    <g id="xtick_10">
     <g id="line2d_10">
      <g>
       <use style="stroke:#000000;stroke-width:0.6;" x="67.601259" xlink:href="#mf5c06d3275" y="150.345"/>
      </g>
     </g>
    </g>
    <g id="xtick_11">
     <g id="line2d_11">
      <g>
       <use style="stroke:#000000;stroke-width:0.6;" x="78.061049" xlink:href="#mf5c06d3275" y="150.345"/>
      </g>
     </g>
    </g>
    <g id="xtick_12">
     <g id="line2d_12">
      <g>
       <use style="stroke:#000000;stroke-width:0.6;" x="98.980629" xlink:href="#mf5c06d3275" y="150.345"/>
      </g>
     </g>
    </g>
    <g id="xtick_13">
     <g id="line2d_13">
      <g>
       <use style="stroke:#000000;stroke-width:0.6;" x="109.44042" xlink:href="#mf5c06d3275" y="150.345"/>
      </g>
     </g>
    </g>
    <g id="xtick_14">
     <g id="line2d_14">
      <g>
       <use style="stroke:#000000;stroke-width:0.6;" x="119.90021" xlink:href="#mf5c06d3275" y="150.345"/>
      </g>
     </g>
    </g>
    <g id="xtick_15">
     <g id="line2d_15">
      <g>
       <use style="stroke:#000000;stroke-width:0.6;" x="140.81979" xlink:href="#mf5c06d3275" y="150.345"/>
      </g>
     </g>
    </g>
    <g id="xtick_16">
     <g id="line2d_16">
      <g>
       <use style="stroke:#000000;stroke-width:0.6;" x="151.27958" xlink:href="#mf5c06d3275" y="150.345"/>
      </g>
     </g>
    </g>
    <g id="xtick_17">
     <g id="line2d_17">
      <g>
       <use style="stroke:#000000;stroke-width:0.6;" x="161.739371" xlink:href="#mf5c06d3275" y="150.345"/>
      </g>
     </g>
    </g>
    <g id="xtick_18">
     <g id="line2d_18">
      <g>
       <use style="stroke:#000000;stroke-width:0.6;" x="182.658951" xlink:href="#mf5c06d3275" y="150.345"/>
      </g>
     </g>
    </g>
    <g id="xtick_19">
     <g id="line2d_19">
      <g>
       <use style="stroke:#000000;stroke-width:0.6;" x="193.118741" xlink:href="#mf5c06d3275" y="150.345"/>
      </g>
     </g>
    </g>
    <g id="xtick_20">
     <g id="line2d_20">
      <g>
       <use style="stroke:#000000;stroke-width:0.6;" x="203.578531" xlink:href="#mf5c06d3275" y="150.345"/>
      </g>
     </g>
    </g>
    <g id="xtick_21">
     <g id="line2d_21">
      <g>
       <use style="stroke:#000000;stroke-width:0.6;" x="224.498112" xlink:href="#mf5c06d3275" y="150.345"/>
      </g>
     </g>
    </g>
    <g id="xtick_22">
     <g id="line2d_22">
      <g>
       <use style="stroke:#000000;stroke-width:0.6;" x="234.957902" xlink:href="#mf5c06d3275" y="150.345"/>
      </g>
     </g>
    </g>
    <g id="xtick_23">
     <g id="line2d_23">
      <g>
       <use style="stroke:#000000;stroke-width:0.6;" x="245.417692" xlink:href="#mf5c06d3275" y="150.345"/>
      </g>
     </g>
    </g>
    <g id="text_5">
     <!-- $x$ -->
     <defs>
      <path d="M 7.8125 2.875 
Q 9.578125 1.515625 12.796875 1.515625 
Q 15.921875 1.515625 18.3125 4.515625 
Q 20.703125 7.515625 21.578125 11.078125 
L 26.125 28.8125 
Q 27.203125 33.640625 27.203125 35.40625 
Q 27.203125 37.890625 25.8125 39.75 
Q 24.421875 41.609375 21.921875 41.609375 
Q 18.75 41.609375 15.96875 39.625 
Q 13.1875 37.640625 11.28125 34.59375 
Q 9.375 31.546875 8.59375 28.421875 
Q 8.40625 27.78125 7.8125 27.78125 
L 6.59375 27.78125 
Q 5.8125 27.78125 5.8125 28.71875 
L 5.8125 29 
Q 6.78125 32.71875 9.125 36.25 
Q 11.46875 39.796875 14.859375 41.984375 
Q 18.265625 44.1875 22.125 44.1875 
Q 25.78125 44.1875 28.734375 42.234375 
Q 31.6875 40.28125 32.90625 36.921875 
Q 34.625 39.984375 37.28125 42.078125 
Q 39.9375 44.1875 43.109375 44.1875 
Q 45.265625 44.1875 47.5 43.421875 
Q 49.75 42.671875 51.171875 41.109375 
Q 52.59375 39.546875 52.59375 37.203125 
Q 52.59375 34.671875 50.953125 32.828125 
Q 49.3125 31 46.78125 31 
Q 45.171875 31 44.09375 32.03125 
Q 43.015625 33.0625 43.015625 34.625 
Q 43.015625 36.71875 44.453125 38.296875 
Q 45.90625 39.890625 47.90625 40.1875 
Q 46.09375 41.609375 42.921875 41.609375 
Q 39.703125 41.609375 37.328125 38.625 
Q 34.96875 35.640625 33.984375 31.984375 
L 29.59375 14.3125 
Q 28.515625 10.296875 28.515625 7.71875 
Q 28.515625 5.171875 29.953125 3.34375 
Q 31.390625 1.515625 33.796875 1.515625 
Q 38.484375 1.515625 42.15625 5.640625 
Q 45.84375 9.765625 47.015625 14.703125 
Q 47.21875 15.28125 47.796875 15.28125 
L 49.03125 15.28125 
Q 49.421875 15.28125 49.65625 15.015625 
Q 49.90625 14.75 49.90625 14.40625 
Q 49.90625 14.3125 49.8125 14.109375 
Q 48.390625 8.15625 43.84375 3.515625 
Q 39.3125 -1.125 33.59375 -1.125 
Q 29.9375 -1.125 26.984375 0.84375 
Q 24.03125 2.828125 22.796875 6.203125 
Q 21.234375 3.265625 18.46875 1.0625 
Q 15.71875 -1.125 12.59375 -1.125 
Q 10.453125 -1.125 8.171875 -0.359375 
Q 5.90625 0.390625 4.484375 1.953125 
Q 3.078125 3.515625 3.078125 5.90625 
Q 3.078125 8.25 4.703125 10.171875 
Q 6.34375 12.109375 8.796875 12.109375 
Q 10.453125 12.109375 11.578125 11.109375 
Q 12.703125 10.109375 12.703125 8.5 
Q 12.703125 6.390625 11.296875 4.828125 
Q 9.90625 3.265625 7.8125 2.875 
z
" id="Cmmi10-78"/>
     </defs>
     <g transform="translate(258.02 150.345)scale(0.16 -0.16)">
      <use transform="translate(0 0.8125)" xlink:href="#Cmmi10-78"/>
     </g>
    </g>
   </g>
   <g id="matplotlib.axis_2">
    <g id="ytick_1">
     <g id="line2d_24">
      <defs>
       <path d="M 0 0 
L -3.5 0 
" id="ma4a85ea380" style="stroke:#000000;stroke-width:0.8;"/>
      </defs>
      <g>
       <use style="stroke:#000000;stroke-width:0.8;" x="130.36" xlink:href="#ma4a85ea380" y="234.023322"/>
      </g>
     </g>
     <g id="text_6">
      <!-- -4 -->
      <g transform="translate(113.389688 237.82254)scale(0.1 -0.1)">
       <use xlink:href="#DejaVuSans-2d"/>
       <use x="36.083984" xlink:href="#DejaVuSans-34"/>
      </g>
     </g>
    </g>
    <g id="ytick_2">
     <g id="line2d_25">
      <g>
       <use style="stroke:#000000;stroke-width:0.8;" x="130.36" xlink:href="#ma4a85ea380" y="192.184161"/>
      </g>
     </g>
     <g id="text_7">
      <!-- -2 -->
      <g transform="translate(113.389688 195.98338)scale(0.1 -0.1)">
       <use xlink:href="#DejaVuSans-2d"/>
       <use x="36.083984" xlink:href="#DejaVuSans-32"/>
      </g>
     </g>
    </g>
    <g id="ytick_3">
     <g id="line2d_26">
      <g>
       <use style="stroke:#000000;stroke-width:0.8;" x="130.36" xlink:href="#ma4a85ea380" y="150.345"/>
      </g>
     </g>
    </g>
    <g id="ytick_4">
     <g id="line2d_27">
      <g>
       <use style="stroke:#000000;stroke-width:0.8;" x="130.36" xlink:href="#ma4a85ea380" y="108.505839"/>
      </g>
     </g>
     <g id="text_8">
      <!-- 2 -->
      <g transform="translate(116.9975 112.305058)scale(0.1 -0.1)">
       <use xlink:href="#DejaVuSans-32"/>
      </g>
     </g>
    </g>
    <g id="ytick_5">
     <g id="line2d_28">
      <g>
       <use style="stroke:#000000;stroke-width:0.8;" x="130.36" xlink:href="#ma4a85ea380" y="66.666678"/>
      </g>
     </g>
     <g id="text_9">
      <!-- 4 -->
      <g transform="translate(116.9975 70.465897)scale(0.1 -0.1)">
       <use xlink:href="#DejaVuSans-34"/>
      </g>
     </g>
    </g>
    <g id="ytick_6">
     <g id="line2d_29">
      <defs>
       <path d="M 0 0 
L -2 0 
" id="m736518cfce" style="stroke:#000000;stroke-width:0.6;"/>
      </defs>
      <g>
       <use style="stroke:#000000;stroke-width:0.6;" x="130.36" xlink:href="#m736518cfce" y="265.402692"/>
      </g>
     </g>
    </g>
    <g id="ytick_7">
     <g id="line2d_30">
      <g>
       <use style="stroke:#000000;stroke-width:0.6;" x="130.36" xlink:href="#m736518cfce" y="254.942902"/>
      </g>
     </g>
    </g>
    <g id="ytick_8">
     <g id="line2d_31">
      <g>
       <use style="stroke:#000000;stroke-width:0.6;" x="130.36" xlink:href="#m736518cfce" y="244.483112"/>
      </g>
     </g>
    </g>
    <g id="ytick_9">
     <g id="line2d_32">
      <g>
       <use style="stroke:#000000;stroke-width:0.6;" x="130.36" xlink:href="#m736518cfce" y="223.563531"/>
      </g>
     </g>
    </g>
    <g id="ytick_10">
     <g id="line2d_33">
      <g>
       <use style="stroke:#000000;stroke-width:0.6;" x="130.36" xlink:href="#m736518cfce" y="213.103741"/>
      </g>
     </g>
    </g>
    <g id="ytick_11">
     <g id="line2d_34">
      <g>
       <use style="stroke:#000000;stroke-width:0.6;" x="130.36" xlink:href="#m736518cfce" y="202.643951"/>
      </g>
     </g>
    </g>
    <g id="ytick_12">
     <g id="line2d_35">
      <g>
       <use style="stroke:#000000;stroke-width:0.6;" x="130.36" xlink:href="#m736518cfce" y="181.724371"/>
      </g>
     </g>
    </g>
    <g id="ytick_13">
     <g id="line2d_36">
      <g>
       <use style="stroke:#000000;stroke-width:0.6;" x="130.36" xlink:href="#m736518cfce" y="171.26458"/>
      </g>
     </g>
    </g>
    <g id="ytick_14">
     <g id="line2d_37">
      <g>
       <use style="stroke:#000000;stroke-width:0.6;" x="130.36" xlink:href="#m736518cfce" y="160.80479"/>
      </g>
     </g>
    </g>
    <g id="ytick_15">
     <g id="line2d_38">
      <g>
       <use style="stroke:#000000;stroke-width:0.6;" x="130.36" xlink:href="#m736518cfce" y="139.88521"/>
      </g>
     </g>
    </g>
    <g id="ytick_16">
     <g id="line2d_39">
      <g>
       <use style="stroke:#000000;stroke-width:0.6;" x="130.36" xlink:href="#m736518cfce" y="129.42542"/>
      </g>
     </g>
    </g>
    <g id="ytick_17">
     <g id="line2d_40">
      <g>
       <use style="stroke:#000000;stroke-width:0.6;" x="130.36" xlink:href="#m736518cfce" y="118.965629"/>
      </g>
     </g>
    </g>
    <g id="ytick_18">
     <g id="line2d_41">
      <g>
       <use style="stroke:#000000;stroke-width:0.6;" x="130.36" xlink:href="#m736518cfce" y="98.046049"/>
      </g>
     </g>
    </g>
    <g id="ytick_19">
     <g id="line2d_42">
      <g>
       <use style="stroke:#000000;stroke-width:0.6;" x="130.36" xlink:href="#m736518cfce" y="87.586259"/>
      </g>
     </g>
    </g>
    <g id="ytick_20">
     <g id="line2d_43">
      <g>
       <use style="stroke:#000000;stroke-width:0.6;" x="130.36" xlink:href="#m736518cfce" y="77.126469"/>
      </g>
     </g>
    </g>
    <g id="ytick_21">
     <g id="line2d_44">
      <g>
       <use style="stroke:#000000;stroke-width:0.6;" x="130.36" xlink:href="#m736518cfce" y="56.206888"/>
      </g>
     </g>
    </g>
    <g id="ytick_22">
     <g id="line2d_45">
      <g>
       <use style="stroke:#000000;stroke-width:0.6;" x="130.36" xlink:href="#m736518cfce" y="45.747098"/>
      </g>
     </g>
    </g>
    <g id="ytick_23">
     <g id="line2d_46">
      <g>
       <use style="stroke:#000000;stroke-width:0.6;" x="130.36" xlink:href="#m736518cfce" y="35.287308"/>
      </g>
     </g>
    </g>
    <g id="text_10">
     <!-- $y$ -->
     <defs>
      <path d="M 8.40625 -14.3125 
Q 10.5 -17.921875 15.71875 -17.921875 
Q 20.453125 -17.921875 23.921875 -14.59375 
Q 27.390625 -11.28125 29.515625 -6.5625 
Q 31.640625 -1.859375 32.8125 3.078125 
Q 28.375 -1.125 23.1875 -1.125 
Q 19.234375 -1.125 16.453125 0.234375 
Q 13.671875 1.609375 12.125 4.3125 
Q 10.59375 7.03125 10.59375 10.890625 
Q 10.59375 14.15625 11.46875 17.59375 
Q 12.359375 21.046875 13.9375 25.265625 
Q 15.53125 29.5 16.703125 32.625 
Q 18.015625 36.28125 18.015625 38.625 
Q 18.015625 41.609375 15.828125 41.609375 
Q 11.859375 41.609375 9.296875 37.53125 
Q 6.734375 33.453125 5.515625 28.421875 
Q 5.328125 27.78125 4.6875 27.78125 
L 3.515625 27.78125 
Q 2.6875 27.78125 2.6875 28.71875 
L 2.6875 29 
Q 4.296875 34.96875 7.609375 39.578125 
Q 10.9375 44.1875 16.015625 44.1875 
Q 19.578125 44.1875 22.046875 41.84375 
Q 24.515625 39.5 24.515625 35.890625 
Q 24.515625 34.03125 23.6875 31.984375 
Q 23.25 30.765625 21.6875 26.65625 
Q 20.125 22.5625 19.28125 19.875 
Q 18.453125 17.1875 17.921875 14.59375 
Q 17.390625 12.015625 17.390625 9.421875 
Q 17.390625 6.109375 18.796875 3.8125 
Q 20.21875 1.515625 23.296875 1.515625 
Q 29.5 1.515625 34.421875 9.078125 
L 42 39.890625 
Q 42.328125 41.21875 43.546875 42.15625 
Q 44.78125 43.109375 46.1875 43.109375 
Q 47.40625 43.109375 48.3125 42.328125 
Q 49.21875 41.546875 49.21875 40.28125 
Q 49.21875 39.703125 49.125 39.5 
L 39.203125 -0.296875 
Q 37.890625 -5.421875 34.375 -10.109375 
Q 30.859375 -14.796875 25.90625 -17.65625 
Q 20.953125 -20.515625 15.578125 -20.515625 
Q 12.984375 -20.515625 10.4375 -19.5 
Q 7.90625 -18.5 6.34375 -16.5 
Q 4.78125 -14.5 4.78125 -11.8125 
Q 4.78125 -9.078125 6.390625 -7.078125 
Q 8.015625 -5.078125 10.6875 -5.078125 
Q 12.3125 -5.078125 13.40625 -6.078125 
Q 14.5 -7.078125 14.5 -8.6875 
Q 14.5 -10.984375 12.78125 -12.6875 
Q 11.078125 -14.40625 8.796875 -14.40625 
Q 8.6875 -14.359375 8.59375 -14.328125 
Q 8.5 -14.3125 8.40625 -14.3125 
z
" id="Cmmi10-79"/>
     </defs>
     <g transform="translate(126.36 19.325)scale(0.16 -0.16)">
      <use transform="translate(0 0.8125)" xlink:href="#Cmmi10-79"/>
     </g>
    </g>
   </g>
   <g id="patch_3">
    <path d="M 130.36 270.005 
L 130.36 30.685 
" style="fill:none;stroke:#000000;stroke-linecap:square;stroke-linejoin:miter;stroke-width:0.8;"/>
   </g>
   <g id="patch_4">
    <path d="M 10.7 150.345 
L 250.02 150.345 
" style="fill:none;stroke:#000000;stroke-linecap:square;stroke-linejoin:miter;stroke-width:0.8;"/>
   </g>
  </g>
 </g>
 <defs>
  <clipPath id="pea2ef73ff9">
   <rect height="239.32" width="239.32" x="10.7" y="30.685"/>
  </clipPath>
 </defs>
</svg>
