<?xml version="1.0" encoding="utf-8" standalone="no"?>
<!DOCTYPE svg PUBLIC "-//W3C//DTD SVG 1.1//EN"
  "http://www.w3.org/Graphics/SVG/1.1/DTD/svg11.dtd">
<!-- Created with matplotlib (http://matplotlib.org/) -->
<svg height="280.705pt" version="1.1" viewBox="0 0 274.5 280.705" width="274.5pt" xmlns="http://www.w3.org/2000/svg" xmlns:xlink="http://www.w3.org/1999/xlink">
 <defs>
  <style type="text/css">
*{stroke-linecap:butt;stroke-linejoin:round;}
  </style>
 </defs>
 <g id="figure_1">
  <g id="patch_1">
   <path d="M 0 280.705 
L 274.5 280.705 
L 274.5 0 
L 0 0 
z
" style="fill:#ffffff;"/>
  </g>
  <g id="axes_1">
   <g id="patch_2">
    <path d="M 10.7 270.005 
L 250.02 270.005 
L 250.02 30.685 
L 10.7 30.685 
z
" style="fill:#ffffff;"/>
   </g>
   <g id="Quiver_1">
    <path clip-path="url(#p9ed2adca8d)" d="M 23.81445 256.89055 
L 16.028748 249.104848 
L 15.690298 250.120197 
L 13.321151 245.720352 
L 17.720996 248.089499 
L 16.705647 248.427949 
L 24.491349 256.213651 
L 23.81445 256.89055 
" style="fill:#0000ff;"/>
    <path clip-path="url(#p9ed2adca8d)" d="M 23.789489 241.691152 
L 17.308586 234.130099 
L 16.89326 235.1165 
L 14.868544 230.547909 
L 19.073723 233.247531 
L 18.035407 233.50711 
L 24.51631 241.068163 
L 23.789489 241.691152 
" style="fill:#0000ff;"/>
    <path clip-path="url(#p9ed2adca8d)" d="M 23.763414 226.485419 
L 18.530286 219.159039 
L 18.029519 220.104932 
L 16.415936 215.375466 
L 20.366431 218.435709 
L 19.309256 218.602631 
L 24.542385 225.929011 
L 23.763414 226.485419 
" style="fill:#0000ff;"/>
    <path clip-path="url(#p9ed2adca8d)" d="M 23.737324 211.272244 
L 19.685001 204.180679 
L 19.091321 205.071198 
L 17.963329 200.203024 
L 21.584776 203.646367 
L 20.516152 203.705735 
L 24.568475 210.7973 
L 23.737324 211.272244 
" style="fill:#0000ff;"/>
    <path clip-path="url(#p9ed2adca8d)" d="M 23.71296 196.050874 
L 20.767692 189.178582 
L 20.076358 189.995613 
L 19.510722 185.030581 
L 22.715996 188.86434 
L 21.647571 188.801491 
L 24.592839 195.673783 
L 23.71296 196.050874 
" style="fill:#0000ff;"/>
    <path clip-path="url(#p9ed2adca8d)" d="M 23.692676 180.821378 
L 21.781323 174.131645 
L 20.992368 174.854853 
L 21.058114 169.858138 
L 23.753711 174.065898 
L 22.701771 173.86866 
L 24.613123 180.558393 
L 23.692676 180.821378 
" style="fill:#0000ff;"/>
    <path clip-path="url(#p9ed2adca8d)" d="M 23.67907 165.585133 
L 22.740887 159.017849 
L 21.860918 159.627059 
L 22.605507 154.685695 
L 24.703894 159.220919 
L 23.688545 158.88247 
L 24.626729 165.449753 
L 23.67907 165.585133 
" style="fill:#0000ff;"/>
    <path clip-path="url(#p9ed2adca8d)" d="M 23.674259 150.345 
L 23.674259 143.821012 
L 22.716979 144.299652 
L 24.152899 139.513252 
L 25.588819 144.299652 
L 24.631539 143.821012 
L 24.631539 150.345 
L 23.674259 150.345 
" style="fill:#0000ff;"/>
    <path clip-path="url(#p9ed2adca8d)" d="M 23.67907 135.104867 
L 24.617253 128.537584 
L 23.601905 128.876033 
L 25.700292 124.340809 
L 26.444881 129.282173 
L 25.564912 128.672964 
L 24.626729 135.240247 
L 23.67907 135.104867 
" style="fill:#0000ff;"/>
    <path clip-path="url(#p9ed2adca8d)" d="M 23.692676 119.868622 
L 25.604028 113.178888 
L 24.552088 113.376127 
L 27.247685 109.168366 
L 27.313431 114.165082 
L 26.524476 113.441873 
L 24.613123 120.131607 
L 23.692676 119.868622 
" style="fill:#0000ff;"/>
    <path clip-path="url(#p9ed2adca8d)" d="M 23.71296 104.639126 
L 26.658228 97.766834 
L 25.589803 97.829682 
L 28.795077 93.995923 
L 28.229441 98.960955 
L 27.538107 98.143925 
L 24.592839 105.016217 
L 23.71296 104.639126 
" style="fill:#0000ff;"/>
    <path clip-path="url(#p9ed2adca8d)" d="M 23.737324 89.417756 
L 27.789646 82.326191 
L 26.721023 82.266823 
L 30.34247 78.82348 
L 29.214478 83.691655 
L 28.620798 82.801135 
L 24.568475 89.8927 
L 23.737324 89.417756 
" style="fill:#0000ff;"/>
    <path clip-path="url(#p9ed2adca8d)" d="M 23.763414 74.204581 
L 28.996542 66.878202 
L 27.939368 66.711279 
L 31.889862 63.651037 
L 30.27628 68.380502 
L 29.775513 67.434609 
L 24.542385 74.760989 
L 23.763414 74.204581 
" style="fill:#0000ff;"/>
    <path clip-path="url(#p9ed2adca8d)" d="M 23.789489 58.998848 
L 30.270391 51.437795 
L 29.232075 51.178216 
L 33.437255 48.478594 
L 31.412539 53.047184 
L 30.997213 52.060784 
L 24.51631 59.621837 
L 23.789489 58.998848 
" style="fill:#0000ff;"/>
    <path clip-path="url(#p9ed2adca8d)" d="M 23.81445 43.79945 
L 31.600152 36.013748 
L 30.584803 35.675298 
L 34.984648 33.306151 
L 32.615501 37.705996 
L 32.277051 36.690647 
L 24.491349 44.476349 
L 23.81445 43.79945 
" style="fill:#0000ff;"/>
    <path clip-path="url(#p9ed2adca8d)" d="M 39.013848 256.915511 
L 31.452795 250.434609 
L 31.193216 251.472925 
L 28.493594 247.267745 
L 33.062184 249.292461 
L 32.075784 249.707787 
L 39.636837 256.18869 
L 39.013848 256.915511 
" style="fill:#0000ff;"/>
    <path clip-path="url(#p9ed2adca8d)" d="M 38.986893 241.718107 
L 32.748583 235.479798 
L 32.410134 236.495147 
L 30.040987 232.095302 
L 34.440831 234.464449 
L 33.425483 234.802899 
L 39.663792 241.041208 
L 38.986893 241.718107 
" style="fill:#0000ff;"/>
    <path clip-path="url(#p9ed2adca8d)" d="M 38.957641 226.513633 
L 33.978439 220.53859 
L 33.549454 221.519127 
L 31.588379 216.922859 
L 35.755662 219.68062 
L 34.713841 219.925754 
L 39.693044 225.900797 
L 38.957641 226.513633 
" style="fill:#0000ff;"/>
    <path clip-path="url(#p9ed2adca8d)" d="M 38.92709 211.300273 
L 35.127035 205.600191 
L 34.596031 206.529447 
L 33.135772 201.750416 
L 36.985547 204.936437 
L 35.92354 205.069187 
L 39.723595 210.76927 
L 38.92709 211.300273 
" style="fill:#0000ff;"/>
    <path clip-path="url(#p9ed2adca8d)" d="M 38.897234 196.076383 
L 36.181545 190.645005 
L 35.539382 191.501222 
L 34.683165 186.577973 
L 38.108034 190.216897 
L 37.037762 190.216897 
L 39.753451 195.648275 
L 38.897234 196.076383 
" style="fill:#0000ff;"/>
    <path clip-path="url(#p9ed2adca8d)" d="M 38.871265 180.841245 
L 37.138713 175.643589 
L 36.381916 176.400386 
L 36.230557 171.40553 
L 39.106383 175.49223 
L 38.046868 175.340871 
L 39.77942 180.538527 
L 38.871265 180.841245 
" style="fill:#0000ff;"/>
    <path clip-path="url(#p9ed2adca8d)" d="M 38.853215 165.596131 
L 38.014014 160.560924 
L 37.148446 161.190427 
L 37.77795 156.233087 
L 39.981212 160.718299 
L 38.958269 160.403548 
L 39.79747 165.438755 
L 38.853215 165.596131 
" style="fill:#0000ff;"/>
    <path clip-path="url(#p9ed2adca8d)" d="M 38.846702 150.345 
L 38.846702 145.368404 
L 37.889422 145.847044 
L 39.325342 141.060644 
L 40.761262 145.847044 
L 39.803982 145.368404 
L 39.803982 150.345 
L 38.846702 150.345 
" style="fill:#0000ff;"/>
    <path clip-path="url(#p9ed2adca8d)" d="M 38.853215 135.093869 
L 39.692416 130.058662 
L 38.669473 130.373413 
L 40.872735 125.888201 
L 41.502238 130.845541 
L 40.636671 130.216038 
L 39.79747 135.251245 
L 38.853215 135.093869 
" style="fill:#0000ff;"/>
    <path clip-path="url(#p9ed2adca8d)" d="M 38.871265 119.848755 
L 40.603816 114.651099 
L 39.544302 114.802458 
L 42.420128 110.715758 
L 42.268768 115.710614 
L 41.511972 114.953818 
L 39.77942 120.151473 
L 38.871265 119.848755 
" style="fill:#0000ff;"/>
    <path clip-path="url(#p9ed2adca8d)" d="M 38.897234 104.613617 
L 41.612923 99.182239 
L 40.542651 99.182239 
L 43.96752 95.543316 
L 43.111303 100.466565 
L 42.46914 99.610348 
L 39.753451 105.041725 
L 38.897234 104.613617 
" style="fill:#0000ff;"/>
    <path clip-path="url(#p9ed2adca8d)" d="M 38.92709 89.389727 
L 42.727145 83.689644 
L 41.665138 83.556893 
L 45.514913 80.370873 
L 44.054653 85.149903 
L 43.52365 84.220647 
L 39.723595 89.92073 
L 38.92709 89.389727 
" style="fill:#0000ff;"/>
    <path clip-path="url(#p9ed2adca8d)" d="M 38.957641 74.176367 
L 43.936843 68.201325 
L 42.895022 67.95619 
L 47.062305 65.19843 
L 45.101231 69.794698 
L 44.672246 68.81416 
L 39.693044 74.789203 
L 38.957641 74.176367 
" style="fill:#0000ff;"/>
    <path clip-path="url(#p9ed2adca8d)" d="M 38.986893 58.971893 
L 45.225202 52.733583 
L 44.209853 52.395134 
L 48.609698 50.025987 
L 46.240551 54.425831 
L 45.902101 53.410483 
L 39.663792 59.648792 
L 38.986893 58.971893 
" style="fill:#0000ff;"/>
    <path clip-path="url(#p9ed2adca8d)" d="M 39.013848 43.774489 
L 46.574901 37.293586 
L 45.5885 36.87826 
L 50.157091 34.853544 
L 47.457469 39.058723 
L 47.19789 38.020407 
L 39.636837 44.50131 
L 39.013848 43.774489 
" style="fill:#0000ff;"/>
    <path clip-path="url(#p9ed2adca8d)" d="M 54.219581 256.941586 
L 46.893202 251.708458 
L 46.726279 252.765632 
L 43.666037 248.815138 
L 48.395502 250.42872 
L 47.449609 250.929487 
L 54.775989 256.162615 
L 54.219581 256.941586 
" style="fill:#0000ff;"/>
    <path clip-path="url(#p9ed2adca8d)" d="M 54.191367 241.747359 
L 48.216325 236.768157 
L 47.97119 237.809978 
L 45.21343 233.642695 
L 49.809698 235.603769 
L 48.82916 236.032754 
L 54.804203 241.011956 
L 54.191367 241.747359 
" style="fill:#0000ff;"/>
    <path clip-path="url(#p9ed2adca8d)" d="M 54.159336 226.545664 
L 49.468419 221.854748 
L 49.129969 222.870096 
L 46.760822 218.470252 
L 51.160667 220.839399 
L 50.145318 221.177848 
L 54.836235 225.868765 
L 54.159336 226.545664 
" style="fill:#0000ff;"/>
    <path clip-path="url(#p9ed2adca8d)" d="M 54.12403 211.333776 
L 50.625496 206.960608 
L 50.17699 207.932371 
L 48.308215 203.297809 
L 52.41952 206.138347 
L 51.373006 206.3626 
L 54.87154 210.735768 
L 54.12403 211.333776 
" style="fill:#0000ff;"/>
    <path clip-path="url(#p9ed2adca8d)" d="M 54.087355 196.108587 
L 51.661501 192.065498 
L 51.086899 192.968445 
L 49.855607 188.125366 
L 53.549481 191.490895 
L 52.482362 191.572981 
L 54.908216 195.616071 
L 54.087355 196.108587 
" style="fill:#0000ff;"/>
    <path clip-path="url(#p9ed2adca8d)" d="M 54.053379 180.867648 
L 52.558456 177.13034 
L 51.847406 177.930271 
L 51.403 172.952923 
L 54.513843 176.863696 
L 53.447268 176.774815 
L 54.942191 180.512123 
L 54.053379 180.867648 
" style="fill:#0000ff;"/>
    <path clip-path="url(#p9ed2adca8d)" d="M 54.02844 165.611312 
L 53.325869 162.098455 
L 52.481048 162.755538 
L 52.950393 157.78048 
L 55.297118 162.192324 
L 54.264559 161.910717 
L 54.96713 165.423574 
L 54.02844 165.611312 
" style="fill:#0000ff;"/>
    <path clip-path="url(#p9ed2adca8d)" d="M 54.019145 150.345 
L 54.019145 146.915797 
L 53.061865 147.394437 
L 54.497785 142.608037 
L 55.933705 147.394437 
L 54.976425 146.915797 
L 54.976425 150.345 
L 54.019145 150.345 
" style="fill:#0000ff;"/>
    <path clip-path="url(#p9ed2adca8d)" d="M 54.02844 135.078688 
L 54.731012 131.565831 
L 53.698452 131.847438 
L 56.045178 127.435594 
L 56.514523 132.410652 
L 55.669702 131.753569 
L 54.96713 135.266426 
L 54.02844 135.078688 
" style="fill:#0000ff;"/>
    <path clip-path="url(#p9ed2adca8d)" d="M 54.053379 119.822352 
L 55.548303 116.085043 
L 54.481728 116.173925 
L 57.592571 112.263151 
L 57.148164 117.240499 
L 56.437115 116.440568 
L 54.942191 120.177877 
L 54.053379 119.822352 
" style="fill:#0000ff;"/>
    <path clip-path="url(#p9ed2adca8d)" d="M 54.087355 104.581413 
L 56.513208 100.538324 
L 55.446089 100.456238 
L 59.139963 97.090708 
L 57.908672 101.933787 
L 57.334069 101.03084 
L 54.908216 105.073929 
L 54.087355 104.581413 
" style="fill:#0000ff;"/>
    <path clip-path="url(#p9ed2adca8d)" d="M 54.12403 89.356224 
L 57.622564 84.983057 
L 56.57605 84.758804 
L 60.687356 81.918265 
L 58.81858 86.552828 
L 58.370074 85.581065 
L 54.87154 89.954232 
L 54.12403 89.356224 
" style="fill:#0000ff;"/>
    <path clip-path="url(#p9ed2adca8d)" d="M 54.159336 74.144336 
L 58.850252 69.453419 
L 57.834904 69.114969 
L 62.234748 66.745822 
L 59.865601 71.145667 
L 59.527152 70.130318 
L 54.836235 74.821235 
L 54.159336 74.144336 
" style="fill:#0000ff;"/>
    <path clip-path="url(#p9ed2adca8d)" d="M 54.191367 58.942641 
L 60.16641 53.963439 
L 59.185873 53.534454 
L 63.782141 51.573379 
L 61.02438 55.740662 
L 60.779246 54.698841 
L 54.804203 59.678044 
L 54.191367 58.942641 
" style="fill:#0000ff;"/>
    <path clip-path="url(#p9ed2adca8d)" d="M 54.219581 43.748414 
L 61.545961 38.515286 
L 60.600068 38.014519 
L 65.329534 36.400936 
L 62.269291 40.351431 
L 62.102369 39.294256 
L 54.775989 44.527385 
L 54.219581 43.748414 
" style="fill:#0000ff;"/>
    <path clip-path="url(#p9ed2adca8d)" d="M 69.432756 256.967676 
L 62.341191 252.915354 
L 62.281823 253.983977 
L 58.83848 250.36253 
L 63.706655 251.490522 
L 62.816135 252.084202 
L 69.9077 256.136525 
L 69.432756 256.967676 
" style="fill:#0000ff;"/>
    <path clip-path="url(#p9ed2adca8d)" d="M 69.404727 241.77791 
L 63.704644 237.977855 
L 63.571893 239.039862 
L 60.385873 235.190087 
L 65.164903 236.650347 
L 64.235647 237.18135 
L 69.93573 240.981405 
L 69.404727 241.77791 
" style="fill:#0000ff;"/>
    <path clip-path="url(#p9ed2adca8d)" d="M 69.371224 226.58097 
L 64.998057 223.082436 
L 64.773804 224.12895 
L 61.933265 220.017644 
L 66.567828 221.88642 
L 65.596065 222.334926 
L 69.969232 225.83346 
L 69.371224 226.58097 
" style="fill:#0000ff;"/>
    <path clip-path="url(#p9ed2adca8d)" d="M 69.331779 211.373221 
L 66.188255 208.229697 
L 65.849805 209.245046 
L 63.480658 204.845201 
L 67.880502 207.214348 
L 66.865154 207.552798 
L 70.008678 210.696322 
L 69.331779 211.373221 
" style="fill:#0000ff;"/>
    <path clip-path="url(#p9ed2adca8d)" d="M 69.287316 196.149513 
L 67.229794 193.40615 
L 66.751154 194.36343 
L 65.02805 189.672758 
L 69.048626 192.640326 
L 67.995618 192.831782 
L 70.05314 195.575145 
L 69.287316 196.149513 
" style="fill:#0000ff;"/>
    <path clip-path="url(#p9ed2adca8d)" d="M 69.24212 180.90394 
L 68.073823 178.567347 
L 67.43166 179.423565 
L 66.575443 174.500315 
L 70.000312 178.139239 
L 68.93004 178.139239 
L 70.098337 180.475832 
L 69.24212 180.90394 
" style="fill:#0000ff;"/>
    <path clip-path="url(#p9ed2adca8d)" d="M 69.205879 165.63353 
L 68.703272 163.623101 
L 67.890661 164.319624 
L 68.122836 159.327873 
L 70.676755 163.623101 
L 69.63197 163.390926 
L 70.134577 165.401356 
L 69.205879 165.63353 
" style="fill:#0000ff;"/>
    <path clip-path="url(#p9ed2adca8d)" d="M 69.191588 150.345 
L 69.191588 148.46319 
L 68.234308 148.94183 
L 69.670228 144.15543 
L 71.106148 148.94183 
L 70.148868 148.46319 
L 70.148868 150.345 
L 69.191588 150.345 
" style="fill:#0000ff;"/>
    <path clip-path="url(#p9ed2adca8d)" d="M 69.205879 135.05647 
L 69.708487 133.04604 
L 68.663701 133.278215 
L 71.217621 128.982987 
L 71.449795 133.974738 
L 70.637185 133.278215 
L 70.134577 135.288644 
L 69.205879 135.05647 
" style="fill:#0000ff;"/>
    <path clip-path="url(#p9ed2adca8d)" d="M 69.24212 119.78606 
L 70.410416 117.449467 
L 69.340144 117.449467 
L 72.765013 113.810544 
L 71.908796 118.733793 
L 71.266633 117.877576 
L 70.098337 120.214168 
L 69.24212 119.78606 
" style="fill:#0000ff;"/>
    <path clip-path="url(#p9ed2adca8d)" d="M 69.287316 104.540487 
L 71.344838 101.797125 
L 70.29183 101.605669 
L 74.312406 98.638101 
L 72.589302 103.328773 
L 72.110662 102.371493 
L 70.05314 105.114855 
L 69.287316 104.540487 
" style="fill:#0000ff;"/>
    <path clip-path="url(#p9ed2adca8d)" d="M 69.331779 89.316779 
L 72.475303 86.173255 
L 71.459954 85.834805 
L 75.859799 83.465658 
L 73.490652 87.865502 
L 73.152202 86.850154 
L 70.008678 89.993678 
L 69.331779 89.316779 
" style="fill:#0000ff;"/>
    <path clip-path="url(#p9ed2adca8d)" d="M 69.371224 74.10903 
L 73.744392 70.610496 
L 72.772629 70.16199 
L 77.407191 68.293215 
L 74.566653 72.40452 
L 74.3424 71.358006 
L 69.969232 74.85654 
L 69.371224 74.10903 
" style="fill:#0000ff;"/>
    <path clip-path="url(#p9ed2adca8d)" d="M 69.404727 58.91209 
L 75.104809 55.112035 
L 74.175553 54.581031 
L 78.954584 53.120772 
L 75.768563 56.970547 
L 75.635813 55.90854 
L 69.93573 59.708595 
L 69.404727 58.91209 
" style="fill:#0000ff;"/>
    <path clip-path="url(#p9ed2adca8d)" d="M 69.432756 43.722324 
L 76.524321 39.670001 
L 75.633802 39.076321 
L 80.501976 37.948329 
L 77.058633 41.569776 
L 76.999265 40.501152 
L 69.9077 44.553475 
L 69.432756 43.722324 
" style="fill:#0000ff;"/>
    <path clip-path="url(#p9ed2adca8d)" d="M 84.654126 256.99204 
L 77.781834 254.046772 
L 77.844682 255.115197 
L 74.010923 251.909923 
L 78.975955 252.475559 
L 78.158925 253.166893 
L 85.031217 256.112161 
L 84.654126 256.99204 
" style="fill:#0000ff;"/>
    <path clip-path="url(#p9ed2adca8d)" d="M 84.628617 241.807766 
L 79.197239 239.092077 
L 79.197239 240.162349 
L 75.558316 236.73748 
L 80.481565 237.593697 
L 79.625348 238.23586 
L 85.056725 240.951549 
L 84.628617 241.807766 
" style="fill:#0000ff;"/>
    <path clip-path="url(#p9ed2adca8d)" d="M 84.596413 226.617645 
L 80.553324 224.191792 
L 80.471238 225.258911 
L 77.105708 221.565037 
L 81.948787 222.796328 
L 81.04584 223.370931 
L 85.088929 225.796784 
L 84.596413 226.617645 
" style="fill:#0000ff;"/>
    <path clip-path="url(#p9ed2adca8d)" d="M 84.555487 211.417684 
L 81.812125 209.360162 
L 81.620669 210.41317 
L 78.653101 206.392594 
L 83.343773 208.115698 
L 82.386493 208.594338 
L 85.129855 210.65186 
L 84.555487 211.417684 
" style="fill:#0000ff;"/>
    <path clip-path="url(#p9ed2adca8d)" d="M 84.504222 196.200778 
L 82.90809 194.604647 
L 82.56964 195.619996 
L 80.200493 191.220151 
L 84.600338 193.589298 
L 83.584989 193.927748 
L 85.181121 195.523879 
L 84.504222 196.200778 
" style="fill:#0000ff;"/>
    <path clip-path="url(#p9ed2adca8d)" d="M 84.444419 180.955388 
L 83.739149 179.897483 
L 83.208145 180.826739 
L 81.747886 176.047708 
L 85.597661 179.233728 
L 84.535654 179.366479 
L 85.240924 180.424384 
L 84.444419 180.955388 
" style="fill:#0000ff;"/>
    <path clip-path="url(#p9ed2adca8d)" d="M 84.388593 165.668802 
L 84.203434 165.113324 
L 83.446638 165.870121 
L 83.295279 160.875265 
L 86.171104 164.961965 
L 85.11159 164.810606 
L 85.296749 165.366084 
L 84.388593 165.668802 
" style="fill:#0000ff;"/>
    <path clip-path="url(#p9ed2adca8d)" d="M 84.378453 150.345 
L 84.378453 149.880782 
L 83.450018 150.345 
L 84.842671 145.702822 
L 86.235325 150.345 
L 85.306889 149.880782 
L 85.306889 150.345 
L 84.378453 150.345 
" style="fill:#0000ff;"/>
    <path clip-path="url(#p9ed2adca8d)" d="M 84.388593 135.021198 
L 84.573753 134.46572 
L 83.514238 134.617079 
L 86.390064 130.530379 
L 86.238705 135.525235 
L 85.481908 134.768438 
L 85.296749 135.323916 
L 84.388593 135.021198 
" style="fill:#0000ff;"/>
    <path clip-path="url(#p9ed2adca8d)" d="M 84.444419 119.734612 
L 85.149689 118.676708 
L 84.087682 118.543957 
L 87.937456 115.357936 
L 86.477197 120.136967 
L 85.946194 119.207711 
L 85.240924 120.265616 
L 84.444419 119.734612 
" style="fill:#0000ff;"/>
    <path clip-path="url(#p9ed2adca8d)" d="M 84.504222 104.489222 
L 86.100353 102.89309 
L 85.085004 102.55464 
L 89.484849 100.185493 
L 87.115702 104.585338 
L 86.777252 103.569989 
L 85.181121 105.166121 
L 84.504222 104.489222 
" style="fill:#0000ff;"/>
    <path clip-path="url(#p9ed2adca8d)" d="M 84.555487 89.272316 
L 87.29885 87.214794 
L 86.34157 86.736154 
L 91.032242 85.01305 
L 88.064674 89.033626 
L 87.873218 87.980618 
L 85.129855 90.03814 
L 84.555487 89.272316 
" style="fill:#0000ff;"/>
    <path clip-path="url(#p9ed2adca8d)" d="M 84.596413 74.072355 
L 88.639502 71.646501 
L 87.736555 71.071899 
L 92.579634 69.840607 
L 89.214105 73.534481 
L 89.132019 72.467362 
L 85.088929 74.893216 
L 84.596413 74.072355 
" style="fill:#0000ff;"/>
    <path clip-path="url(#p9ed2adca8d)" d="M 84.628617 58.882234 
L 90.059995 56.166545 
L 89.203778 55.524382 
L 94.127027 54.668165 
L 90.488103 58.093034 
L 90.488103 57.022762 
L 85.056725 59.738451 
L 84.628617 58.882234 
" style="fill:#0000ff;"/>
    <path clip-path="url(#p9ed2adca8d)" d="M 84.654126 43.69796 
L 91.526418 40.752692 
L 90.709387 40.061358 
L 95.674419 39.495722 
L 91.84066 42.700996 
L 91.903509 41.632571 
L 85.031217 44.577839 
L 84.654126 43.69796 
" style="fill:#0000ff;"/>
    <path clip-path="url(#p9ed2adca8d)" d="M 99.883622 257.012324 
L 93.193888 255.100972 
L 93.391127 256.152912 
L 89.183366 253.457315 
L 94.180082 253.391569 
L 93.456873 254.180524 
L 100.146607 256.091877 
L 99.883622 257.012324 
" style="fill:#0000ff;"/>
    <path clip-path="url(#p9ed2adca8d)" d="M 99.863755 241.833735 
L 94.666099 240.101184 
L 94.817458 241.160698 
L 90.730758 238.284872 
L 95.725614 238.436232 
L 94.968818 239.193028 
L 100.166473 240.92558 
L 99.863755 241.833735 
" style="fill:#0000ff;"/>
    <path clip-path="url(#p9ed2adca8d)" d="M 99.837352 226.651621 
L 96.100043 225.156697 
L 96.188925 226.223272 
L 92.278151 223.112429 
L 97.255499 223.556836 
L 96.455568 224.267885 
L 100.192877 225.762809 
L 99.837352 226.651621 
" style="fill:#0000ff;"/>
    <path clip-path="url(#p9ed2adca8d)" d="M 99.80106 211.46288 
L 97.464467 210.294584 
L 97.464467 211.364856 
L 93.825544 207.939987 
L 98.748793 208.796204 
L 97.892576 209.438367 
L 100.229168 210.606663 
L 99.80106 211.46288 
" style="fill:#0000ff;"/>
    <path clip-path="url(#p9ed2adca8d)" d="M 99.749612 196.260581 
L 98.691708 195.555311 
L 98.558957 196.617318 
L 95.372936 192.767544 
L 100.151967 194.227803 
L 99.222711 194.758806 
L 100.280616 195.464076 
L 99.749612 196.260581 
" style="fill:#0000ff;"/>
    <path clip-path="url(#p9ed2adca8d)" d="M 99.705636 180.999364 
L 99.396157 180.689886 
L 99.086679 181.618321 
L 96.920329 177.595101 
L 100.94355 179.76145 
L 100.015114 180.070929 
L 100.324593 180.380407 
L 99.705636 180.999364 
" style="fill:#0000ff;"/>
    <path clip-path="url(#p9ed2adca8d)" d="M 99.705636 165.672182 
L 99.550896 165.362704 
L 99.086679 165.981661 
L 98.467722 162.422658 
L 100.94355 165.053225 
L 100.169853 165.053225 
L 100.324593 165.362704 
L 99.705636 165.672182 
" style="fill:#0000ff;"/>
    <path clip-path="url(#p9ed2adca8d)" d="M 99.705636 150.345 
L 99.705636 150.035521 
L 99.086679 150.345 
L 100.015114 147.250215 
L 100.94355 150.345 
L 100.324593 150.035521 
L 100.324593 150.345 
L 99.705636 150.345 
" style="fill:#0000ff;"/>
    <path clip-path="url(#p9ed2adca8d)" d="M 99.705636 135.017818 
L 99.860375 134.708339 
L 99.086679 134.708339 
L 101.562507 132.077772 
L 100.94355 135.636775 
L 100.479332 135.017818 
L 100.324593 135.327296 
L 99.705636 135.017818 
" style="fill:#0000ff;"/>
    <path clip-path="url(#p9ed2adca8d)" d="M 99.705636 119.690636 
L 100.015114 119.381157 
L 99.086679 119.071679 
L 103.109899 116.905329 
L 100.94355 120.92855 
L 100.634071 120.000114 
L 100.324593 120.309593 
L 99.705636 119.690636 
" style="fill:#0000ff;"/>
    <path clip-path="url(#p9ed2adca8d)" d="M 99.749612 104.429419 
L 100.807517 103.724149 
L 99.878261 103.193145 
L 104.657292 101.732886 
L 101.471272 105.582661 
L 101.338521 104.520654 
L 100.280616 105.225924 
L 99.749612 104.429419 
" style="fill:#0000ff;"/>
    <path clip-path="url(#p9ed2adca8d)" d="M 99.80106 89.22712 
L 102.137653 88.058823 
L 101.281435 87.41666 
L 106.204685 86.560443 
L 102.565761 89.985312 
L 102.565761 88.91504 
L 100.229168 90.083337 
L 99.80106 89.22712 
" style="fill:#0000ff;"/>
    <path clip-path="url(#p9ed2adca8d)" d="M 99.837352 74.038379 
L 103.57466 72.543456 
L 102.774729 71.832406 
L 107.752077 71.388 
L 103.841304 74.498843 
L 103.930185 73.432268 
L 100.192877 74.927191 
L 99.837352 74.038379 
" style="fill:#0000ff;"/>
    <path clip-path="url(#p9ed2adca8d)" d="M 99.863755 58.856265 
L 105.061411 57.123713 
L 104.304614 56.366916 
L 109.29947 56.215557 
L 105.21277 59.091383 
L 105.364129 58.031868 
L 100.166473 59.76442 
L 99.863755 58.856265 
" style="fill:#0000ff;"/>
    <path clip-path="url(#p9ed2adca8d)" d="M 99.883622 43.677676 
L 106.573355 41.766323 
L 105.850147 40.977368 
L 110.846862 41.043114 
L 106.639102 43.738711 
L 106.83634 42.686771 
L 100.146607 44.598123 
L 99.883622 43.677676 
" style="fill:#0000ff;"/>
    <path clip-path="url(#p9ed2adca8d)" d="M 115.119867 257.02593 
L 108.552584 256.087747 
L 108.891033 257.103095 
L 104.355809 255.004708 
L 109.297173 254.260119 
L 108.687964 255.140088 
L 115.255247 256.078271 
L 115.119867 257.02593 
" style="fill:#0000ff;"/>
    <path clip-path="url(#p9ed2adca8d)" d="M 115.108869 241.851785 
L 110.073662 241.012584 
L 110.388413 242.035527 
L 105.903201 239.832265 
L 110.860541 239.202762 
L 110.231038 240.068329 
L 115.266245 240.90753 
L 115.108869 241.851785 
" style="fill:#0000ff;"/>
    <path clip-path="url(#p9ed2adca8d)" d="M 115.093688 226.67656 
L 111.580831 225.973988 
L 111.862438 227.006548 
L 107.450594 224.659822 
L 112.425652 224.190477 
L 111.768569 225.035298 
L 115.281426 225.73787 
L 115.093688 226.67656 
" style="fill:#0000ff;"/>
    <path clip-path="url(#p9ed2adca8d)" d="M 115.07147 211.499121 
L 113.06104 210.996513 
L 113.293215 212.041299 
L 108.997987 209.487379 
L 113.989738 209.255205 
L 113.293215 210.067815 
L 115.303644 210.570423 
L 115.07147 211.499121 
" style="fill:#0000ff;"/>
    <path clip-path="url(#p9ed2adca8d)" d="M 115.036198 196.316407 
L 114.48072 196.131247 
L 114.632079 197.190762 
L 110.545379 194.314936 
L 115.540235 194.466295 
L 114.783438 195.223092 
L 115.338916 195.408251 
L 115.036198 196.316407 
" style="fill:#0000ff;"/>
    <path clip-path="url(#p9ed2adca8d)" d="M 115.032818 180.999364 
L 114.723339 180.844625 
L 114.723339 181.618321 
L 112.092772 179.142493 
L 115.651775 179.76145 
L 115.032818 180.225668 
L 115.342296 180.380407 
L 115.032818 180.999364 
" style="fill:#0000ff;"/>
    <path clip-path="url(#p9ed2adca8d)" d="M 115.032818 165.672182 
L 114.878079 165.517443 
L 114.723339 165.981661 
L 113.640164 163.97005 
L 115.651775 165.053225 
L 115.187557 165.207964 
L 115.342296 165.362704 
L 115.032818 165.672182 
" style="fill:#0000ff;"/>
    <path clip-path="url(#p9ed2adca8d)" d="M 115.032818 150.345 
L 115.032818 150.190261 
L 114.723339 150.345 
L 115.187557 148.797607 
L 115.651775 150.345 
L 115.342296 150.190261 
L 115.342296 150.345 
L 115.032818 150.345 
" style="fill:#0000ff;"/>
    <path clip-path="url(#p9ed2adca8d)" d="M 115.032818 135.017818 
L 115.187557 134.863079 
L 114.723339 134.708339 
L 116.73495 133.625164 
L 115.651775 135.636775 
L 115.497036 135.172557 
L 115.342296 135.327296 
L 115.032818 135.017818 
" style="fill:#0000ff;"/>
    <path clip-path="url(#p9ed2adca8d)" d="M 115.032818 119.690636 
L 115.342296 119.535896 
L 114.723339 119.071679 
L 118.282342 118.452722 
L 115.651775 120.92855 
L 115.651775 120.154853 
L 115.342296 120.309593 
L 115.032818 119.690636 
" style="fill:#0000ff;"/>
    <path clip-path="url(#p9ed2adca8d)" d="M 115.036198 104.373593 
L 115.591676 104.188434 
L 114.834879 103.431638 
L 119.829735 103.280279 
L 115.743035 106.156104 
L 115.894394 105.09659 
L 115.338916 105.281749 
L 115.036198 104.373593 
" style="fill:#0000ff;"/>
    <path clip-path="url(#p9ed2adca8d)" d="M 115.07147 89.190879 
L 117.081899 88.688272 
L 116.385376 87.875661 
L 121.377127 88.107836 
L 117.081899 90.661755 
L 117.314074 89.61697 
L 115.303644 90.119577 
L 115.07147 89.190879 
" style="fill:#0000ff;"/>
    <path clip-path="url(#p9ed2adca8d)" d="M 115.093688 74.01344 
L 118.606545 73.310869 
L 117.949462 72.466048 
L 122.92452 72.935393 
L 118.512676 75.282118 
L 118.794283 74.249559 
L 115.281426 74.95213 
L 115.093688 74.01344 
" style="fill:#0000ff;"/>
    <path clip-path="url(#p9ed2adca8d)" d="M 115.108869 58.838215 
L 120.144076 57.999014 
L 119.514573 57.133446 
L 124.471913 57.76295 
L 119.986701 59.966212 
L 120.301452 58.943269 
L 115.266245 59.78247 
L 115.108869 58.838215 
" style="fill:#0000ff;"/>
    <path clip-path="url(#p9ed2adca8d)" d="M 115.119867 43.66407 
L 121.687151 42.725887 
L 121.077941 41.845918 
L 126.019305 42.590507 
L 121.484081 44.688894 
L 121.82253 43.673545 
L 115.255247 44.611729 
L 115.119867 43.66407 
" style="fill:#0000ff;"/>
    <path clip-path="url(#p9ed2adca8d)" d="M 130.36 257.030741 
L 123.836012 257.030741 
L 124.314652 257.988021 
L 119.528252 256.552101 
L 124.314652 255.116181 
L 123.836012 256.073461 
L 130.36 256.073461 
L 130.36 257.030741 
" style="fill:#0000ff;"/>
    <path clip-path="url(#p9ed2adca8d)" d="M 130.36 241.858298 
L 125.383404 241.858298 
L 125.862044 242.815578 
L 121.075644 241.379658 
L 125.862044 239.943738 
L 125.383404 240.901018 
L 130.36 240.901018 
L 130.36 241.858298 
" style="fill:#0000ff;"/>
    <path clip-path="url(#p9ed2adca8d)" d="M 130.36 226.685855 
L 126.930797 226.685855 
L 127.409437 227.643135 
L 122.623037 226.207215 
L 127.409437 224.771295 
L 126.930797 225.728575 
L 130.36 225.728575 
L 130.36 226.685855 
" style="fill:#0000ff;"/>
    <path clip-path="url(#p9ed2adca8d)" d="M 130.36 211.513412 
L 128.47819 211.513412 
L 128.95683 212.470692 
L 124.17043 211.034772 
L 128.95683 209.598852 
L 128.47819 210.556132 
L 130.36 210.556132 
L 130.36 211.513412 
" style="fill:#0000ff;"/>
    <path clip-path="url(#p9ed2adca8d)" d="M 130.36 196.326547 
L 129.895782 196.326547 
L 130.36 197.254982 
L 125.717822 195.862329 
L 130.36 194.469675 
L 129.895782 195.398111 
L 130.36 195.398111 
L 130.36 196.326547 
" style="fill:#0000ff;"/>
    <path clip-path="url(#p9ed2adca8d)" d="M 130.36 180.999364 
L 130.050521 180.999364 
L 130.36 181.618321 
L 127.265215 180.689886 
L 130.36 179.76145 
L 130.050521 180.380407 
L 130.36 180.380407 
L 130.36 180.999364 
" style="fill:#0000ff;"/>
    <path clip-path="url(#p9ed2adca8d)" d="M 130.36 165.672182 
L 130.205261 165.672182 
L 130.36 165.981661 
L 128.812607 165.517443 
L 130.36 165.053225 
L 130.205261 165.362704 
L 130.36 165.362704 
L 130.36 165.672182 
" style="fill:#0000ff;"/>
    <path clip-path="url(#p9ed2adca8d)" d="M 130.83864 150.345 
L 130.59932 149.930486 
L 130.12068 149.930486 
L 129.88136 150.345 
L 130.12068 150.759514 
L 130.59932 150.759514 
L 130.83864 150.345 
L 130.59932 149.930486 
" style="fill:#0000ff;"/>
    <path clip-path="url(#p9ed2adca8d)" d="M 130.36 135.017818 
L 130.514739 135.017818 
L 130.36 134.708339 
L 131.907393 135.172557 
L 130.36 135.636775 
L 130.514739 135.327296 
L 130.36 135.327296 
L 130.36 135.017818 
" style="fill:#0000ff;"/>
    <path clip-path="url(#p9ed2adca8d)" d="M 130.36 119.690636 
L 130.669479 119.690636 
L 130.36 119.071679 
L 133.454785 120.000114 
L 130.36 120.92855 
L 130.669479 120.309593 
L 130.36 120.309593 
L 130.36 119.690636 
" style="fill:#0000ff;"/>
    <path clip-path="url(#p9ed2adca8d)" d="M 130.36 104.363453 
L 130.824218 104.363453 
L 130.36 103.435018 
L 135.002178 104.827671 
L 130.36 106.220325 
L 130.824218 105.291889 
L 130.36 105.291889 
L 130.36 104.363453 
" style="fill:#0000ff;"/>
    <path clip-path="url(#p9ed2adca8d)" d="M 130.36 89.176588 
L 132.24181 89.176588 
L 131.76317 88.219308 
L 136.54957 89.655228 
L 131.76317 91.091148 
L 132.24181 90.133868 
L 130.36 90.133868 
L 130.36 89.176588 
" style="fill:#0000ff;"/>
    <path clip-path="url(#p9ed2adca8d)" d="M 130.36 74.004145 
L 133.789203 74.004145 
L 133.310563 73.046865 
L 138.096963 74.482785 
L 133.310563 75.918705 
L 133.789203 74.961425 
L 130.36 74.961425 
L 130.36 74.004145 
" style="fill:#0000ff;"/>
    <path clip-path="url(#p9ed2adca8d)" d="M 130.36 58.831702 
L 135.336596 58.831702 
L 134.857956 57.874422 
L 139.644356 59.310342 
L 134.857956 60.746262 
L 135.336596 59.788982 
L 130.36 59.788982 
L 130.36 58.831702 
" style="fill:#0000ff;"/>
    <path clip-path="url(#p9ed2adca8d)" d="M 130.36 43.659259 
L 136.883988 43.659259 
L 136.405348 42.701979 
L 141.191748 44.137899 
L 136.405348 45.573819 
L 136.883988 44.616539 
L 130.36 44.616539 
L 130.36 43.659259 
" style="fill:#0000ff;"/>
    <path clip-path="url(#p9ed2adca8d)" d="M 145.600133 257.02593 
L 139.032849 257.964113 
L 139.642059 258.844082 
L 134.700695 258.099493 
L 139.235919 256.001106 
L 138.89747 257.016455 
L 145.464753 256.078271 
L 145.600133 257.02593 
" style="fill:#0000ff;"/>
    <path clip-path="url(#p9ed2adca8d)" d="M 145.611131 241.851785 
L 140.575924 242.690986 
L 141.205427 243.556554 
L 136.248087 242.92705 
L 140.733299 240.723788 
L 140.418548 241.746731 
L 145.453755 240.90753 
L 145.611131 241.851785 
" style="fill:#0000ff;"/>
    <path clip-path="url(#p9ed2adca8d)" d="M 145.626312 226.67656 
L 142.113455 227.379131 
L 142.770538 228.223952 
L 137.79548 227.754607 
L 142.207324 225.407882 
L 141.925717 226.440441 
L 145.438574 225.73787 
L 145.626312 226.67656 
" style="fill:#0000ff;"/>
    <path clip-path="url(#p9ed2adca8d)" d="M 145.64853 211.499121 
L 143.638101 212.001728 
L 144.334624 212.814339 
L 139.342873 212.582164 
L 143.638101 210.028245 
L 143.405926 211.07303 
L 145.416356 210.570423 
L 145.64853 211.499121 
" style="fill:#0000ff;"/>
    <path clip-path="url(#p9ed2adca8d)" d="M 145.683802 196.316407 
L 145.128324 196.501566 
L 145.885121 197.258362 
L 140.890265 197.409721 
L 144.976965 194.533896 
L 144.825606 195.59341 
L 145.381084 195.408251 
L 145.683802 196.316407 
" style="fill:#0000ff;"/>
    <path clip-path="url(#p9ed2adca8d)" d="M 145.687182 180.999364 
L 145.377704 181.154104 
L 145.996661 181.618321 
L 142.437658 182.237278 
L 145.068225 179.76145 
L 145.068225 180.535147 
L 145.377704 180.380407 
L 145.687182 180.999364 
" style="fill:#0000ff;"/>
    <path clip-path="url(#p9ed2adca8d)" d="M 145.687182 165.672182 
L 145.532443 165.826921 
L 145.996661 165.981661 
L 143.98505 167.064836 
L 145.068225 165.053225 
L 145.222964 165.517443 
L 145.377704 165.362704 
L 145.687182 165.672182 
" style="fill:#0000ff;"/>
    <path clip-path="url(#p9ed2adca8d)" d="M 145.687182 150.345 
L 145.687182 150.499739 
L 145.996661 150.345 
L 145.532443 151.892393 
L 145.068225 150.345 
L 145.377704 150.499739 
L 145.377704 150.345 
L 145.687182 150.345 
" style="fill:#0000ff;"/>
    <path clip-path="url(#p9ed2adca8d)" d="M 145.687182 135.017818 
L 145.841921 135.172557 
L 145.996661 134.708339 
L 147.079836 136.71995 
L 145.068225 135.636775 
L 145.532443 135.482036 
L 145.377704 135.327296 
L 145.687182 135.017818 
" style="fill:#0000ff;"/>
    <path clip-path="url(#p9ed2adca8d)" d="M 145.687182 119.690636 
L 145.996661 119.845375 
L 145.996661 119.071679 
L 148.627228 121.547507 
L 145.068225 120.92855 
L 145.687182 120.464332 
L 145.377704 120.309593 
L 145.687182 119.690636 
" style="fill:#0000ff;"/>
    <path clip-path="url(#p9ed2adca8d)" d="M 145.683802 104.373593 
L 146.23928 104.558753 
L 146.087921 103.499238 
L 150.174621 106.375064 
L 145.179765 106.223705 
L 145.936562 105.466908 
L 145.381084 105.281749 
L 145.683802 104.373593 
" style="fill:#0000ff;"/>
    <path clip-path="url(#p9ed2adca8d)" d="M 145.64853 89.190879 
L 147.65896 89.693487 
L 147.426785 88.648701 
L 151.722013 91.202621 
L 146.730262 91.434795 
L 147.426785 90.622185 
L 145.416356 90.119577 
L 145.64853 89.190879 
" style="fill:#0000ff;"/>
    <path clip-path="url(#p9ed2adca8d)" d="M 145.626312 74.01344 
L 149.139169 74.716012 
L 148.857562 73.683452 
L 153.269406 76.030178 
L 148.294348 76.499523 
L 148.951431 75.654702 
L 145.438574 74.95213 
L 145.626312 74.01344 
" style="fill:#0000ff;"/>
    <path clip-path="url(#p9ed2adca8d)" d="M 145.611131 58.838215 
L 150.646338 59.677416 
L 150.331587 58.654473 
L 154.816799 60.857735 
L 149.859459 61.487238 
L 150.488962 60.621671 
L 145.453755 59.78247 
L 145.611131 58.838215 
" style="fill:#0000ff;"/>
    <path clip-path="url(#p9ed2adca8d)" d="M 145.600133 43.66407 
L 152.167416 44.602253 
L 151.828967 43.586905 
L 156.364191 45.685292 
L 151.422827 46.429881 
L 152.032036 45.549912 
L 145.464753 44.611729 
L 145.600133 43.66407 
" style="fill:#0000ff;"/>
    <path clip-path="url(#p9ed2adca8d)" d="M 160.836378 257.012324 
L 154.146645 258.923677 
L 154.869853 259.712632 
L 149.873138 259.646886 
L 154.080898 256.951289 
L 153.88366 258.003229 
L 160.573393 256.091877 
L 160.836378 257.012324 
" style="fill:#0000ff;"/>
    <path clip-path="url(#p9ed2adca8d)" d="M 160.856245 241.833735 
L 155.658589 243.566287 
L 156.415386 244.323084 
L 151.42053 244.474443 
L 155.50723 241.598617 
L 155.355871 242.658132 
L 160.553527 240.92558 
L 160.856245 241.833735 
" style="fill:#0000ff;"/>
    <path clip-path="url(#p9ed2adca8d)" d="M 160.882648 226.651621 
L 157.14534 228.146544 
L 157.945271 228.857594 
L 152.967923 229.302 
L 156.878696 226.191157 
L 156.789815 227.257732 
L 160.527123 225.762809 
L 160.882648 226.651621 
" style="fill:#0000ff;"/>
    <path clip-path="url(#p9ed2adca8d)" d="M 160.91894 211.46288 
L 158.582347 212.631177 
L 159.438565 213.27334 
L 154.515315 214.129557 
L 158.154239 210.704688 
L 158.154239 211.77496 
L 160.490832 210.606663 
L 160.91894 211.46288 
" style="fill:#0000ff;"/>
    <path clip-path="url(#p9ed2adca8d)" d="M 160.970388 196.260581 
L 159.912483 196.965851 
L 160.841739 197.496855 
L 156.062708 198.957114 
L 159.248728 195.107339 
L 159.381479 196.169346 
L 160.439384 195.464076 
L 160.970388 196.260581 
" style="fill:#0000ff;"/>
    <path clip-path="url(#p9ed2adca8d)" d="M 161.014364 180.999364 
L 160.704886 181.308843 
L 161.633321 181.618321 
L 157.610101 183.784671 
L 159.77645 179.76145 
L 160.085929 180.689886 
L 160.395407 180.380407 
L 161.014364 180.999364 
" style="fill:#0000ff;"/>
    <path clip-path="url(#p9ed2adca8d)" d="M 161.014364 165.672182 
L 160.859625 165.981661 
L 161.633321 165.981661 
L 159.157493 168.612228 
L 159.77645 165.053225 
L 160.240668 165.672182 
L 160.395407 165.362704 
L 161.014364 165.672182 
" style="fill:#0000ff;"/>
    <path clip-path="url(#p9ed2adca8d)" d="M 161.014364 150.345 
L 161.014364 150.654479 
L 161.633321 150.345 
L 160.704886 153.439785 
L 159.77645 150.345 
L 160.395407 150.654479 
L 160.395407 150.345 
L 161.014364 150.345 
" style="fill:#0000ff;"/>
    <path clip-path="url(#p9ed2adca8d)" d="M 161.014364 135.017818 
L 161.169104 135.327296 
L 161.633321 134.708339 
L 162.252278 138.267342 
L 159.77645 135.636775 
L 160.550147 135.636775 
L 160.395407 135.327296 
L 161.014364 135.017818 
" style="fill:#0000ff;"/>
    <path clip-path="url(#p9ed2adca8d)" d="M 161.014364 119.690636 
L 161.323843 120.000114 
L 161.633321 119.071679 
L 163.799671 123.094899 
L 159.77645 120.92855 
L 160.704886 120.619071 
L 160.395407 120.309593 
L 161.014364 119.690636 
" style="fill:#0000ff;"/>
    <path clip-path="url(#p9ed2adca8d)" d="M 160.970388 104.429419 
L 162.028292 105.134689 
L 162.161043 104.072682 
L 165.347064 107.922456 
L 160.568033 106.462197 
L 161.497289 105.931194 
L 160.439384 105.225924 
L 160.970388 104.429419 
" style="fill:#0000ff;"/>
    <path clip-path="url(#p9ed2adca8d)" d="M 160.91894 89.22712 
L 163.255533 90.395416 
L 163.255533 89.325144 
L 166.894456 92.750013 
L 161.971207 91.893796 
L 162.827424 91.251633 
L 160.490832 90.083337 
L 160.91894 89.22712 
" style="fill:#0000ff;"/>
    <path clip-path="url(#p9ed2adca8d)" d="M 160.882648 74.038379 
L 164.619957 75.533303 
L 164.531075 74.466728 
L 168.441849 77.577571 
L 163.464501 77.133164 
L 164.264432 76.422115 
L 160.527123 74.927191 
L 160.882648 74.038379 
" style="fill:#0000ff;"/>
    <path clip-path="url(#p9ed2adca8d)" d="M 160.856245 58.856265 
L 166.053901 60.588816 
L 165.902542 59.529302 
L 169.989242 62.405128 
L 164.994386 62.253768 
L 165.751182 61.496972 
L 160.553527 59.76442 
L 160.856245 58.856265 
" style="fill:#0000ff;"/>
    <path clip-path="url(#p9ed2adca8d)" d="M 160.836378 43.677676 
L 167.526112 45.589028 
L 167.328873 44.537088 
L 171.536634 47.232685 
L 166.539918 47.298431 
L 167.263127 46.509476 
L 160.573393 44.598123 
L 160.836378 43.677676 
" style="fill:#0000ff;"/>
    <path clip-path="url(#p9ed2adca8d)" d="M 176.065874 256.99204 
L 169.193582 259.937308 
L 170.010613 260.628642 
L 165.045581 261.194278 
L 168.87934 257.989004 
L 168.816491 259.057429 
L 175.688783 256.112161 
L 176.065874 256.99204 
" style="fill:#0000ff;"/>
    <path clip-path="url(#p9ed2adca8d)" d="M 176.091383 241.807766 
L 170.660005 244.523455 
L 171.516222 245.165618 
L 166.592973 246.021835 
L 170.231897 242.596966 
L 170.231897 243.667238 
L 175.663275 240.951549 
L 176.091383 241.807766 
" style="fill:#0000ff;"/>
    <path clip-path="url(#p9ed2adca8d)" d="M 176.123587 226.617645 
L 172.080498 229.043499 
L 172.983445 229.618101 
L 168.140366 230.849393 
L 171.505895 227.155519 
L 171.587981 228.222638 
L 175.631071 225.796784 
L 176.123587 226.617645 
" style="fill:#0000ff;"/>
    <path clip-path="url(#p9ed2adca8d)" d="M 176.164513 211.417684 
L 173.42115 213.475206 
L 174.37843 213.953846 
L 169.687758 215.67695 
L 172.655326 211.656374 
L 172.846782 212.709382 
L 175.590145 210.65186 
L 176.164513 211.417684 
" style="fill:#0000ff;"/>
    <path clip-path="url(#p9ed2adca8d)" d="M 176.215778 196.200778 
L 174.619647 197.79691 
L 175.634996 198.13536 
L 171.235151 200.504507 
L 173.604298 196.104662 
L 173.942748 197.120011 
L 175.538879 195.523879 
L 176.215778 196.200778 
" style="fill:#0000ff;"/>
    <path clip-path="url(#p9ed2adca8d)" d="M 176.275581 180.955388 
L 175.570311 182.013292 
L 176.632318 182.146043 
L 172.782544 185.332064 
L 174.242803 180.553033 
L 174.773806 181.482289 
L 175.479076 180.424384 
L 176.275581 180.955388 
" style="fill:#0000ff;"/>
    <path clip-path="url(#p9ed2adca8d)" d="M 176.331407 165.668802 
L 176.146247 166.22428 
L 177.205762 166.072921 
L 174.329936 170.159621 
L 174.481295 165.164765 
L 175.238092 165.921562 
L 175.423251 165.366084 
L 176.331407 165.668802 
" style="fill:#0000ff;"/>
    <path clip-path="url(#p9ed2adca8d)" d="M 176.341547 150.345 
L 176.341547 150.809218 
L 177.269982 150.345 
L 175.877329 154.987178 
L 174.484675 150.345 
L 175.413111 150.809218 
L 175.413111 150.345 
L 176.341547 150.345 
" style="fill:#0000ff;"/>
    <path clip-path="url(#p9ed2adca8d)" d="M 176.331407 135.021198 
L 176.516566 135.576676 
L 177.273362 134.819879 
L 177.424721 139.814735 
L 174.548896 135.728035 
L 175.60841 135.879394 
L 175.423251 135.323916 
L 176.331407 135.021198 
" style="fill:#0000ff;"/>
    <path clip-path="url(#p9ed2adca8d)" d="M 176.275581 119.734612 
L 176.980851 120.792517 
L 177.511855 119.863261 
L 178.972114 124.642292 
L 175.122339 121.456272 
L 176.184346 121.323521 
L 175.479076 120.265616 
L 176.275581 119.734612 
" style="fill:#0000ff;"/>
    <path clip-path="url(#p9ed2adca8d)" d="M 176.215778 104.489222 
L 177.81191 106.085353 
L 178.15036 105.070004 
L 180.519507 109.469849 
L 176.119662 107.100702 
L 177.135011 106.762252 
L 175.538879 105.166121 
L 176.215778 104.489222 
" style="fill:#0000ff;"/>
    <path clip-path="url(#p9ed2adca8d)" d="M 176.164513 89.272316 
L 178.907875 91.329838 
L 179.099331 90.27683 
L 182.066899 94.297406 
L 177.376227 92.574302 
L 178.333507 92.095662 
L 175.590145 90.03814 
L 176.164513 89.272316 
" style="fill:#0000ff;"/>
    <path clip-path="url(#p9ed2adca8d)" d="M 176.123587 74.072355 
L 180.166676 76.498208 
L 180.248762 75.431089 
L 183.614292 79.124963 
L 178.771213 77.893672 
L 179.67416 77.319069 
L 175.631071 74.893216 
L 176.123587 74.072355 
" style="fill:#0000ff;"/>
    <path clip-path="url(#p9ed2adca8d)" d="M 176.091383 58.882234 
L 181.522761 61.597923 
L 181.522761 60.527651 
L 185.161684 63.95252 
L 180.238435 63.096303 
L 181.094652 62.45414 
L 175.663275 59.738451 
L 176.091383 58.882234 
" style="fill:#0000ff;"/>
    <path clip-path="url(#p9ed2adca8d)" d="M 176.065874 43.69796 
L 182.938166 46.643228 
L 182.875318 45.574803 
L 186.709077 48.780077 
L 181.744045 48.214441 
L 182.561075 47.523107 
L 175.688783 44.577839 
L 176.065874 43.69796 
" style="fill:#0000ff;"/>
    <path clip-path="url(#p9ed2adca8d)" d="M 191.287244 256.967676 
L 184.195679 261.019999 
L 185.086198 261.613679 
L 180.218024 262.741671 
L 183.661367 259.120224 
L 183.720735 260.188848 
L 190.8123 256.136525 
L 191.287244 256.967676 
" style="fill:#0000ff;"/>
    <path clip-path="url(#p9ed2adca8d)" d="M 191.315273 241.77791 
L 185.615191 245.577965 
L 186.544447 246.108969 
L 181.765416 247.569228 
L 184.951437 243.719453 
L 185.084187 244.78146 
L 190.78427 240.981405 
L 191.315273 241.77791 
" style="fill:#0000ff;"/>
    <path clip-path="url(#p9ed2adca8d)" d="M 191.348776 226.58097 
L 186.975608 230.079504 
L 187.947371 230.52801 
L 183.312809 232.396785 
L 186.153347 228.28548 
L 186.3776 229.331994 
L 190.750768 225.83346 
L 191.348776 226.58097 
" style="fill:#0000ff;"/>
    <path clip-path="url(#p9ed2adca8d)" d="M 191.388221 211.373221 
L 188.244697 214.516745 
L 189.260046 214.855195 
L 184.860201 217.224342 
L 187.229348 212.824498 
L 187.567798 213.839846 
L 190.711322 210.696322 
L 191.388221 211.373221 
" style="fill:#0000ff;"/>
    <path clip-path="url(#p9ed2adca8d)" d="M 191.432684 196.149513 
L 189.375162 198.892875 
L 190.42817 199.084331 
L 186.407594 202.051899 
L 188.130698 197.361227 
L 188.609338 198.318507 
L 190.66686 195.575145 
L 191.432684 196.149513 
" style="fill:#0000ff;"/>
    <path clip-path="url(#p9ed2adca8d)" d="M 191.47788 180.90394 
L 190.309584 183.240533 
L 191.379856 183.240533 
L 187.954987 186.879456 
L 188.811204 181.956207 
L 189.453367 182.812424 
L 190.621663 180.475832 
L 191.47788 180.90394 
" style="fill:#0000ff;"/>
    <path clip-path="url(#p9ed2adca8d)" d="M 191.514121 165.63353 
L 191.011513 167.64396 
L 192.056299 167.411785 
L 189.502379 171.707013 
L 189.270205 166.715262 
L 190.082815 167.411785 
L 190.585423 165.401356 
L 191.514121 165.63353 
" style="fill:#0000ff;"/>
    <path clip-path="url(#p9ed2adca8d)" d="M 191.528412 150.345 
L 191.528412 152.22681 
L 192.485692 151.74817 
L 191.049772 156.53457 
L 189.613852 151.74817 
L 190.571132 152.22681 
L 190.571132 150.345 
L 191.528412 150.345 
" style="fill:#0000ff;"/>
    <path clip-path="url(#p9ed2adca8d)" d="M 191.514121 135.05647 
L 192.016728 137.066899 
L 192.829339 136.370376 
L 192.597164 141.362127 
L 190.043245 137.066899 
L 191.08803 137.299074 
L 190.585423 135.288644 
L 191.514121 135.05647 
" style="fill:#0000ff;"/>
    <path clip-path="url(#p9ed2adca8d)" d="M 191.47788 119.78606 
L 192.646177 122.122653 
L 193.28834 121.266435 
L 194.144557 126.189685 
L 190.719688 122.550761 
L 191.78996 122.550761 
L 190.621663 120.214168 
L 191.47788 119.78606 
" style="fill:#0000ff;"/>
    <path clip-path="url(#p9ed2adca8d)" d="M 191.432684 104.540487 
L 193.490206 107.28385 
L 193.968846 106.32657 
L 195.69195 111.017242 
L 191.671374 108.049674 
L 192.724382 107.858218 
L 190.66686 105.114855 
L 191.432684 104.540487 
" style="fill:#0000ff;"/>
    <path clip-path="url(#p9ed2adca8d)" d="M 191.388221 89.316779 
L 194.531745 92.460303 
L 194.870195 91.444954 
L 197.239342 95.844799 
L 192.839498 93.475652 
L 193.854846 93.137202 
L 190.711322 89.993678 
L 191.388221 89.316779 
" style="fill:#0000ff;"/>
    <path clip-path="url(#p9ed2adca8d)" d="M 191.348776 74.10903 
L 195.721943 77.607564 
L 195.946196 76.56105 
L 198.786735 80.672356 
L 194.152172 78.80358 
L 195.123935 78.355074 
L 190.750768 74.85654 
L 191.348776 74.10903 
" style="fill:#0000ff;"/>
    <path clip-path="url(#p9ed2adca8d)" d="M 191.315273 58.91209 
L 197.015356 62.712145 
L 197.148107 61.650138 
L 200.334127 65.499913 
L 195.555097 64.039653 
L 196.484353 63.50865 
L 190.78427 59.708595 
L 191.315273 58.91209 
" style="fill:#0000ff;"/>
    <path clip-path="url(#p9ed2adca8d)" d="M 191.287244 43.722324 
L 198.378809 47.774646 
L 198.438177 46.706023 
L 201.88152 50.32747 
L 197.013345 49.199478 
L 197.903865 48.605798 
L 190.8123 44.553475 
L 191.287244 43.722324 
" style="fill:#0000ff;"/>
    <path clip-path="url(#p9ed2adca8d)" d="M 206.500419 256.941586 
L 199.174039 262.174714 
L 200.119932 262.675481 
L 195.390466 264.289064 
L 198.450709 260.338569 
L 198.617631 261.395744 
L 205.944011 256.162615 
L 206.500419 256.941586 
" style="fill:#0000ff;"/>
    <path clip-path="url(#p9ed2adca8d)" d="M 206.528633 241.747359 
L 200.55359 246.726561 
L 201.534127 247.155546 
L 196.937859 249.116621 
L 199.69562 244.949338 
L 199.940754 245.991159 
L 205.915797 241.011956 
L 206.528633 241.747359 
" style="fill:#0000ff;"/>
    <path clip-path="url(#p9ed2adca8d)" d="M 206.560664 226.545664 
L 201.869748 231.236581 
L 202.885096 231.575031 
L 198.485252 233.944178 
L 200.854399 229.544333 
L 201.192848 230.559682 
L 205.883765 225.868765 
L 206.560664 226.545664 
" style="fill:#0000ff;"/>
    <path clip-path="url(#p9ed2adca8d)" d="M 206.59597 211.333776 
L 203.097436 215.706943 
L 204.14395 215.931196 
L 200.032644 218.771735 
L 201.90142 214.137172 
L 202.349926 215.108935 
L 205.84846 210.735768 
L 206.59597 211.333776 
" style="fill:#0000ff;"/>
    <path clip-path="url(#p9ed2adca8d)" d="M 206.632645 196.108587 
L 204.206792 200.151676 
L 205.273911 200.233762 
L 201.580037 203.599292 
L 202.811328 198.756213 
L 203.385931 199.65916 
L 205.811784 195.616071 
L 206.632645 196.108587 
" style="fill:#0000ff;"/>
    <path clip-path="url(#p9ed2adca8d)" d="M 206.666621 180.867648 
L 205.171697 184.604957 
L 206.238272 184.516075 
L 203.127429 188.426849 
L 203.571836 183.449501 
L 204.282885 184.249432 
L 205.777809 180.512123 
L 206.666621 180.867648 
" style="fill:#0000ff;"/>
    <path clip-path="url(#p9ed2adca8d)" d="M 206.69156 165.611312 
L 205.988988 169.124169 
L 207.021548 168.842562 
L 204.674822 173.254406 
L 204.205477 168.279348 
L 205.050298 168.936431 
L 205.75287 165.423574 
L 206.69156 165.611312 
" style="fill:#0000ff;"/>
    <path clip-path="url(#p9ed2adca8d)" d="M 206.700855 150.345 
L 206.700855 153.774203 
L 207.658135 153.295563 
L 206.222215 158.081963 
L 204.786295 153.295563 
L 205.743575 153.774203 
L 205.743575 150.345 
L 206.700855 150.345 
" style="fill:#0000ff;"/>
    <path clip-path="url(#p9ed2adca8d)" d="M 206.69156 135.078688 
L 207.394131 138.591545 
L 208.238952 137.934462 
L 207.769607 142.90952 
L 205.422882 138.497676 
L 206.455441 138.779283 
L 205.75287 135.266426 
L 206.69156 135.078688 
" style="fill:#0000ff;"/>
    <path clip-path="url(#p9ed2adca8d)" d="M 206.666621 119.822352 
L 208.161544 123.55966 
L 208.872594 122.759729 
L 209.317 127.737077 
L 206.206157 123.826304 
L 207.272732 123.915185 
L 205.777809 120.177877 
L 206.666621 119.822352 
" style="fill:#0000ff;"/>
    <path clip-path="url(#p9ed2adca8d)" d="M 206.632645 104.581413 
L 209.058499 108.624502 
L 209.633101 107.721555 
L 210.864393 112.564634 
L 207.170519 109.199105 
L 208.237638 109.117019 
L 205.811784 105.073929 
L 206.632645 104.581413 
" style="fill:#0000ff;"/>
    <path clip-path="url(#p9ed2adca8d)" d="M 206.59597 89.356224 
L 210.094504 93.729392 
L 210.54301 92.757629 
L 212.411785 97.392191 
L 208.30048 94.551653 
L 209.346994 94.3274 
L 205.84846 89.954232 
L 206.59597 89.356224 
" style="fill:#0000ff;"/>
    <path clip-path="url(#p9ed2adca8d)" d="M 206.560664 74.144336 
L 211.251581 78.835252 
L 211.590031 77.819904 
L 213.959178 82.219748 
L 209.559333 79.850601 
L 210.574682 79.512152 
L 205.883765 74.821235 
L 206.560664 74.144336 
" style="fill:#0000ff;"/>
    <path clip-path="url(#p9ed2adca8d)" d="M 206.528633 58.942641 
L 212.503675 63.921843 
L 212.74881 62.880022 
L 215.50657 67.047305 
L 210.910302 65.086231 
L 211.89084 64.657246 
L 205.915797 59.678044 
L 206.528633 58.942641 
" style="fill:#0000ff;"/>
    <path clip-path="url(#p9ed2adca8d)" d="M 206.500419 43.748414 
L 213.826798 48.981542 
L 213.993721 47.924368 
L 217.053963 51.874862 
L 212.324498 50.26128 
L 213.270391 49.760513 
L 205.944011 44.527385 
L 206.500419 43.748414 
" style="fill:#0000ff;"/>
    <path clip-path="url(#p9ed2adca8d)" d="M 221.706152 256.915511 
L 214.145099 263.396414 
L 215.1315 263.81174 
L 210.562909 265.836456 
L 213.262531 261.631277 
L 213.52211 262.669593 
L 221.083163 256.18869 
L 221.706152 256.915511 
" style="fill:#0000ff;"/>
    <path clip-path="url(#p9ed2adca8d)" d="M 221.733107 241.718107 
L 215.494798 247.956417 
L 216.510147 248.294866 
L 212.110302 250.664013 
L 214.479449 246.264169 
L 214.817899 247.279517 
L 221.056208 241.041208 
L 221.733107 241.718107 
" style="fill:#0000ff;"/>
    <path clip-path="url(#p9ed2adca8d)" d="M 221.762359 226.513633 
L 216.783157 232.488675 
L 217.824978 232.73381 
L 213.657695 235.49157 
L 215.618769 230.895302 
L 216.047754 231.87584 
L 221.026956 225.900797 
L 221.762359 226.513633 
" style="fill:#0000ff;"/>
    <path clip-path="url(#p9ed2adca8d)" d="M 221.79291 211.300273 
L 217.992855 217.000356 
L 219.054862 217.133107 
L 215.205087 220.319127 
L 216.665347 215.540097 
L 217.19635 216.469353 
L 220.996405 210.76927 
L 221.79291 211.300273 
" style="fill:#0000ff;"/>
    <path clip-path="url(#p9ed2adca8d)" d="M 221.822766 196.076383 
L 219.107077 201.507761 
L 220.177349 201.507761 
L 216.75248 205.146684 
L 217.608697 200.223435 
L 218.25086 201.079652 
L 220.966549 195.648275 
L 221.822766 196.076383 
" style="fill:#0000ff;"/>
    <path clip-path="url(#p9ed2adca8d)" d="M 221.848735 180.841245 
L 220.116184 186.038901 
L 221.175698 185.887542 
L 218.299872 189.974242 
L 218.451232 184.979386 
L 219.208028 185.736182 
L 220.94058 180.538527 
L 221.848735 180.841245 
" style="fill:#0000ff;"/>
    <path clip-path="url(#p9ed2adca8d)" d="M 221.866785 165.596131 
L 221.027584 170.631338 
L 222.050527 170.316587 
L 219.847265 174.801799 
L 219.217762 169.844459 
L 220.083329 170.473962 
L 220.92253 165.438755 
L 221.866785 165.596131 
" style="fill:#0000ff;"/>
    <path clip-path="url(#p9ed2adca8d)" d="M 221.873298 150.345 
L 221.873298 155.321596 
L 222.830578 154.842956 
L 221.394658 159.629356 
L 219.958738 154.842956 
L 220.916018 155.321596 
L 220.916018 150.345 
L 221.873298 150.345 
" style="fill:#0000ff;"/>
    <path clip-path="url(#p9ed2adca8d)" d="M 221.866785 135.093869 
L 222.705986 140.129076 
L 223.571554 139.499573 
L 222.94205 144.456913 
L 220.738788 139.971701 
L 221.761731 140.286452 
L 220.92253 135.251245 
L 221.866785 135.093869 
" style="fill:#0000ff;"/>
    <path clip-path="url(#p9ed2adca8d)" d="M 221.848735 119.848755 
L 223.581287 125.046411 
L 224.338084 124.289614 
L 224.489443 129.28447 
L 221.613617 125.19777 
L 222.673132 125.349129 
L 220.94058 120.151473 
L 221.848735 119.848755 
" style="fill:#0000ff;"/>
    <path clip-path="url(#p9ed2adca8d)" d="M 221.822766 104.613617 
L 224.538455 110.044995 
L 225.180618 109.188778 
L 226.036835 114.112027 
L 222.611966 110.473103 
L 223.682238 110.473103 
L 220.966549 105.041725 
L 221.822766 104.613617 
" style="fill:#0000ff;"/>
    <path clip-path="url(#p9ed2adca8d)" d="M 221.79291 89.389727 
L 225.592965 95.089809 
L 226.123969 94.160553 
L 227.584228 98.939584 
L 223.734453 95.753563 
L 224.79646 95.620813 
L 220.996405 89.92073 
L 221.79291 89.389727 
" style="fill:#0000ff;"/>
    <path clip-path="url(#p9ed2adca8d)" d="M 221.762359 74.176367 
L 226.741561 80.15141 
L 227.170546 79.170873 
L 229.131621 83.767141 
L 224.964338 81.00938 
L 226.006159 80.764246 
L 221.026956 74.789203 
L 221.762359 74.176367 
" style="fill:#0000ff;"/>
    <path clip-path="url(#p9ed2adca8d)" d="M 221.733107 58.971893 
L 227.971417 65.210202 
L 228.309866 64.194853 
L 230.679013 68.594698 
L 226.279169 66.225551 
L 227.294517 65.887101 
L 221.056208 59.648792 
L 221.733107 58.971893 
" style="fill:#0000ff;"/>
    <path clip-path="url(#p9ed2adca8d)" d="M 221.706152 43.774489 
L 229.267205 50.255391 
L 229.526784 49.217075 
L 232.226406 53.422255 
L 227.657816 51.397539 
L 228.644216 50.982213 
L 221.083163 44.50131 
L 221.706152 43.774489 
" style="fill:#0000ff;"/>
    <path clip-path="url(#p9ed2adca8d)" d="M 236.90555 256.89055 
L 229.119848 264.676252 
L 230.135197 265.014702 
L 225.735352 267.383849 
L 228.104499 262.984004 
L 228.442949 263.999353 
L 236.228651 256.213651 
L 236.90555 256.89055 
" style="fill:#0000ff;"/>
    <path clip-path="url(#p9ed2adca8d)" d="M 236.930511 241.691152 
L 230.449609 249.252205 
L 231.487925 249.511784 
L 227.282745 252.211406 
L 229.307461 247.642816 
L 229.722787 248.629216 
L 236.20369 241.068163 
L 236.930511 241.691152 
" style="fill:#0000ff;"/>
    <path clip-path="url(#p9ed2adca8d)" d="M 236.956586 226.485419 
L 231.723458 233.811798 
L 232.780632 233.978721 
L 228.830138 237.038963 
L 230.44372 232.309498 
L 230.944487 233.255391 
L 236.177615 225.929011 
L 236.956586 226.485419 
" style="fill:#0000ff;"/>
    <path clip-path="url(#p9ed2adca8d)" d="M 236.982676 211.272244 
L 232.930354 218.363809 
L 233.998977 218.423177 
L 230.37753 221.86652 
L 231.505522 216.998345 
L 232.099202 217.888865 
L 236.151525 210.7973 
L 236.982676 211.272244 
" style="fill:#0000ff;"/>
    <path clip-path="url(#p9ed2adca8d)" d="M 237.00704 196.050874 
L 234.061772 202.923166 
L 235.130197 202.860318 
L 231.924923 206.694077 
L 232.490559 201.729045 
L 233.181893 202.546075 
L 236.127161 195.673783 
L 237.00704 196.050874 
" style="fill:#0000ff;"/>
    <path clip-path="url(#p9ed2adca8d)" d="M 237.027324 180.821378 
L 235.115972 187.511112 
L 236.167912 187.313873 
L 233.472315 191.521634 
L 233.406569 186.524918 
L 234.195524 187.248127 
L 236.106877 180.558393 
L 237.027324 180.821378 
" style="fill:#0000ff;"/>
    <path clip-path="url(#p9ed2adca8d)" d="M 237.04093 165.585133 
L 236.102747 172.152416 
L 237.118095 171.813967 
L 235.019708 176.349191 
L 234.275119 171.407827 
L 235.155088 172.017036 
L 236.093271 165.449753 
L 237.04093 165.585133 
" style="fill:#0000ff;"/>
    <path clip-path="url(#p9ed2adca8d)" d="M 237.045741 150.345 
L 237.045741 156.868988 
L 238.003021 156.390348 
L 236.567101 161.176748 
L 235.131181 156.390348 
L 236.088461 156.868988 
L 236.088461 150.345 
L 237.045741 150.345 
" style="fill:#0000ff;"/>
    <path clip-path="url(#p9ed2adca8d)" d="M 237.04093 135.104867 
L 237.979113 141.672151 
L 238.859082 141.062941 
L 238.114493 146.004305 
L 236.016106 141.469081 
L 237.031455 141.80753 
L 236.093271 135.240247 
L 237.04093 135.104867 
" style="fill:#0000ff;"/>
    <path clip-path="url(#p9ed2adca8d)" d="M 237.027324 119.868622 
L 238.938677 126.558355 
L 239.727632 125.835147 
L 239.661886 130.831862 
L 236.966289 126.624102 
L 238.018229 126.82134 
L 236.106877 120.131607 
L 237.027324 119.868622 
" style="fill:#0000ff;"/>
    <path clip-path="url(#p9ed2adca8d)" d="M 237.00704 104.639126 
L 239.952308 111.511418 
L 240.643642 110.694387 
L 241.209278 115.659419 
L 238.004004 111.82566 
L 239.072429 111.888509 
L 236.127161 105.016217 
L 237.00704 104.639126 
" style="fill:#0000ff;"/>
    <path clip-path="url(#p9ed2adca8d)" d="M 236.982676 89.417756 
L 241.034999 96.509321 
L 241.628679 95.618802 
L 242.756671 100.486976 
L 239.135224 97.043633 
L 240.203848 96.984265 
L 236.151525 89.8927 
L 236.982676 89.417756 
" style="fill:#0000ff;"/>
    <path clip-path="url(#p9ed2adca8d)" d="M 236.956586 74.204581 
L 242.189714 81.530961 
L 242.690481 80.585068 
L 244.304064 85.314534 
L 240.353569 82.254291 
L 241.410744 82.087369 
L 236.177615 74.760989 
L 236.956586 74.204581 
" style="fill:#0000ff;"/>
    <path clip-path="url(#p9ed2adca8d)" d="M 236.930511 58.998848 
L 243.411414 66.559901 
L 243.82674 65.5735 
L 245.851456 70.142091 
L 241.646277 67.442469 
L 242.684593 67.18289 
L 236.20369 59.621837 
L 236.930511 58.998848 
" style="fill:#0000ff;"/>
    <path clip-path="url(#p9ed2adca8d)" d="M 236.90555 43.79945 
L 244.691252 51.585152 
L 245.029702 50.569803 
L 247.398849 54.969648 
L 242.999004 52.600501 
L 244.014353 52.262051 
L 236.228651 44.476349 
L 236.90555 43.79945 
" style="fill:#0000ff;"/>
   </g>
   <g id="matplotlib.axis_1">
    <g id="xtick_1">
     <g id="line2d_1">
      <defs>
       <path d="M 0 0 
L 0 3.5 
" id="mc72f0f4cf6" style="stroke:#000000;stroke-width:0.8;"/>
      </defs>
      <g>
       <use style="stroke:#000000;stroke-width:0.8;" x="24.152899" xlink:href="#mc72f0f4cf6" y="150.345"/>
      </g>
     </g>
     <g id="text_1">
      <!-- -3 -->
      <defs>
       <path d="M 4.890625 31.390625 
L 31.203125 31.390625 
L 31.203125 23.390625 
L 4.890625 23.390625 
z
" id="DejaVuSans-2d"/>
       <path d="M 40.578125 39.3125 
Q 47.65625 37.796875 51.625 33 
Q 55.609375 28.21875 55.609375 21.1875 
Q 55.609375 10.40625 48.1875 4.484375 
Q 40.765625 -1.421875 27.09375 -1.421875 
Q 22.515625 -1.421875 17.65625 -0.515625 
Q 12.796875 0.390625 7.625 2.203125 
L 7.625 11.71875 
Q 11.71875 9.328125 16.59375 8.109375 
Q 21.484375 6.890625 26.8125 6.890625 
Q 36.078125 6.890625 40.9375 10.546875 
Q 45.796875 14.203125 45.796875 21.1875 
Q 45.796875 27.640625 41.28125 31.265625 
Q 36.765625 34.90625 28.71875 34.90625 
L 20.21875 34.90625 
L 20.21875 43.015625 
L 29.109375 43.015625 
Q 36.375 43.015625 40.234375 45.921875 
Q 44.09375 48.828125 44.09375 54.296875 
Q 44.09375 59.90625 40.109375 62.90625 
Q 36.140625 65.921875 28.71875 65.921875 
Q 24.65625 65.921875 20.015625 65.03125 
Q 15.375 64.15625 9.8125 62.3125 
L 9.8125 71.09375 
Q 15.4375 72.65625 20.34375 73.4375 
Q 25.25 74.21875 29.59375 74.21875 
Q 40.828125 74.21875 47.359375 69.109375 
Q 53.90625 64.015625 53.90625 55.328125 
Q 53.90625 49.265625 50.4375 45.09375 
Q 46.96875 40.921875 40.578125 39.3125 
z
" id="DejaVuSans-33"/>
      </defs>
      <g transform="translate(19.167743 164.943438)scale(0.1 -0.1)">
       <use xlink:href="#DejaVuSans-2d"/>
       <use x="36.083984" xlink:href="#DejaVuSans-33"/>
      </g>
     </g>
    </g>
    <g id="xtick_2">
     <g id="line2d_2">
      <g>
       <use style="stroke:#000000;stroke-width:0.8;" x="59.555266" xlink:href="#mc72f0f4cf6" y="150.345"/>
      </g>
     </g>
     <g id="text_2">
      <!-- -2 -->
      <defs>
       <path d="M 19.1875 8.296875 
L 53.609375 8.296875 
L 53.609375 0 
L 7.328125 0 
L 7.328125 8.296875 
Q 12.9375 14.109375 22.625 23.890625 
Q 32.328125 33.6875 34.8125 36.53125 
Q 39.546875 41.84375 41.421875 45.53125 
Q 43.3125 49.21875 43.3125 52.78125 
Q 43.3125 58.59375 39.234375 62.25 
Q 35.15625 65.921875 28.609375 65.921875 
Q 23.96875 65.921875 18.8125 64.3125 
Q 13.671875 62.703125 7.8125 59.421875 
L 7.8125 69.390625 
Q 13.765625 71.78125 18.9375 73 
Q 24.125 74.21875 28.421875 74.21875 
Q 39.75 74.21875 46.484375 68.546875 
Q 53.21875 62.890625 53.21875 53.421875 
Q 53.21875 48.921875 51.53125 44.890625 
Q 49.859375 40.875 45.40625 35.40625 
Q 44.1875 33.984375 37.640625 27.21875 
Q 31.109375 20.453125 19.1875 8.296875 
z
" id="DejaVuSans-32"/>
      </defs>
      <g transform="translate(54.57011 164.943438)scale(0.1 -0.1)">
       <use xlink:href="#DejaVuSans-2d"/>
       <use x="36.083984" xlink:href="#DejaVuSans-32"/>
      </g>
     </g>
    </g>
    <g id="xtick_3">
     <g id="line2d_3">
      <g>
       <use style="stroke:#000000;stroke-width:0.8;" x="94.957633" xlink:href="#mc72f0f4cf6" y="150.345"/>
      </g>
     </g>
     <g id="text_3">
      <!-- -1 -->
      <defs>
       <path d="M 12.40625 8.296875 
L 28.515625 8.296875 
L 28.515625 63.921875 
L 10.984375 60.40625 
L 10.984375 69.390625 
L 28.421875 72.90625 
L 38.28125 72.90625 
L 38.28125 8.296875 
L 54.390625 8.296875 
L 54.390625 0 
L 12.40625 0 
z
" id="DejaVuSans-31"/>
      </defs>
      <g transform="translate(89.972477 164.943438)scale(0.1 -0.1)">
       <use xlink:href="#DejaVuSans-2d"/>
       <use x="36.083984" xlink:href="#DejaVuSans-31"/>
      </g>
     </g>
    </g>
    <g id="xtick_4">
     <g id="line2d_4">
      <g>
       <use style="stroke:#000000;stroke-width:0.8;" x="130.36" xlink:href="#mc72f0f4cf6" y="150.345"/>
      </g>
     </g>
    </g>
    <g id="xtick_5">
     <g id="line2d_5">
      <g>
       <use style="stroke:#000000;stroke-width:0.8;" x="165.762367" xlink:href="#mc72f0f4cf6" y="150.345"/>
      </g>
     </g>
     <g id="text_4">
      <!-- 1 -->
      <g transform="translate(162.581117 164.943438)scale(0.1 -0.1)">
       <use xlink:href="#DejaVuSans-31"/>
      </g>
     </g>
    </g>
    <g id="xtick_6">
     <g id="line2d_6">
      <g>
       <use style="stroke:#000000;stroke-width:0.8;" x="201.164734" xlink:href="#mc72f0f4cf6" y="150.345"/>
      </g>
     </g>
     <g id="text_5">
      <!-- 2 -->
      <g transform="translate(197.983484 164.943438)scale(0.1 -0.1)">
       <use xlink:href="#DejaVuSans-32"/>
      </g>
     </g>
    </g>
    <g id="xtick_7">
     <g id="line2d_7">
      <g>
       <use style="stroke:#000000;stroke-width:0.8;" x="236.567101" xlink:href="#mc72f0f4cf6" y="150.345"/>
      </g>
     </g>
     <g id="text_6">
      <!-- 3 -->
      <g transform="translate(233.385851 164.943438)scale(0.1 -0.1)">
       <use xlink:href="#DejaVuSans-33"/>
      </g>
     </g>
    </g>
    <g id="xtick_8">
     <g id="line2d_8">
      <defs>
       <path d="M 0 0 
L 0 2 
" id="m62526785ef" style="stroke:#000000;stroke-width:0.6;"/>
      </defs>
      <g>
       <use style="stroke:#000000;stroke-width:0.6;" x="17.072426" xlink:href="#m62526785ef" y="150.345"/>
      </g>
     </g>
    </g>
    <g id="xtick_9">
     <g id="line2d_9">
      <g>
       <use style="stroke:#000000;stroke-width:0.6;" x="31.233373" xlink:href="#m62526785ef" y="150.345"/>
      </g>
     </g>
    </g>
    <g id="xtick_10">
     <g id="line2d_10">
      <g>
       <use style="stroke:#000000;stroke-width:0.6;" x="38.313846" xlink:href="#m62526785ef" y="150.345"/>
      </g>
     </g>
    </g>
    <g id="xtick_11">
     <g id="line2d_11">
      <g>
       <use style="stroke:#000000;stroke-width:0.6;" x="45.39432" xlink:href="#m62526785ef" y="150.345"/>
      </g>
     </g>
    </g>
    <g id="xtick_12">
     <g id="line2d_12">
      <g>
       <use style="stroke:#000000;stroke-width:0.6;" x="52.474793" xlink:href="#m62526785ef" y="150.345"/>
      </g>
     </g>
    </g>
    <g id="xtick_13">
     <g id="line2d_13">
      <g>
       <use style="stroke:#000000;stroke-width:0.6;" x="66.63574" xlink:href="#m62526785ef" y="150.345"/>
      </g>
     </g>
    </g>
    <g id="xtick_14">
     <g id="line2d_14">
      <g>
       <use style="stroke:#000000;stroke-width:0.6;" x="73.716213" xlink:href="#m62526785ef" y="150.345"/>
      </g>
     </g>
    </g>
    <g id="xtick_15">
     <g id="line2d_15">
      <g>
       <use style="stroke:#000000;stroke-width:0.6;" x="80.796686" xlink:href="#m62526785ef" y="150.345"/>
      </g>
     </g>
    </g>
    <g id="xtick_16">
     <g id="line2d_16">
      <g>
       <use style="stroke:#000000;stroke-width:0.6;" x="87.87716" xlink:href="#m62526785ef" y="150.345"/>
      </g>
     </g>
    </g>
    <g id="xtick_17">
     <g id="line2d_17">
      <g>
       <use style="stroke:#000000;stroke-width:0.6;" x="94.957633" xlink:href="#m62526785ef" y="150.345"/>
      </g>
     </g>
    </g>
    <g id="xtick_18">
     <g id="line2d_18">
      <g>
       <use style="stroke:#000000;stroke-width:0.6;" x="102.038107" xlink:href="#m62526785ef" y="150.345"/>
      </g>
     </g>
    </g>
    <g id="xtick_19">
     <g id="line2d_19">
      <g>
       <use style="stroke:#000000;stroke-width:0.6;" x="109.11858" xlink:href="#m62526785ef" y="150.345"/>
      </g>
     </g>
    </g>
    <g id="xtick_20">
     <g id="line2d_20">
      <g>
       <use style="stroke:#000000;stroke-width:0.6;" x="116.199053" xlink:href="#m62526785ef" y="150.345"/>
      </g>
     </g>
    </g>
    <g id="xtick_21">
     <g id="line2d_21">
      <g>
       <use style="stroke:#000000;stroke-width:0.6;" x="123.279527" xlink:href="#m62526785ef" y="150.345"/>
      </g>
     </g>
    </g>
    <g id="xtick_22">
     <g id="line2d_22">
      <g>
       <use style="stroke:#000000;stroke-width:0.6;" x="130.36" xlink:href="#m62526785ef" y="150.345"/>
      </g>
     </g>
    </g>
    <g id="xtick_23">
     <g id="line2d_23">
      <g>
       <use style="stroke:#000000;stroke-width:0.6;" x="137.440473" xlink:href="#m62526785ef" y="150.345"/>
      </g>
     </g>
    </g>
    <g id="xtick_24">
     <g id="line2d_24">
      <g>
       <use style="stroke:#000000;stroke-width:0.6;" x="144.520947" xlink:href="#m62526785ef" y="150.345"/>
      </g>
     </g>
    </g>
    <g id="xtick_25">
     <g id="line2d_25">
      <g>
       <use style="stroke:#000000;stroke-width:0.6;" x="151.60142" xlink:href="#m62526785ef" y="150.345"/>
      </g>
     </g>
    </g>
    <g id="xtick_26">
     <g id="line2d_26">
      <g>
       <use style="stroke:#000000;stroke-width:0.6;" x="158.681893" xlink:href="#m62526785ef" y="150.345"/>
      </g>
     </g>
    </g>
    <g id="xtick_27">
     <g id="line2d_27">
      <g>
       <use style="stroke:#000000;stroke-width:0.6;" x="165.762367" xlink:href="#m62526785ef" y="150.345"/>
      </g>
     </g>
    </g>
    <g id="xtick_28">
     <g id="line2d_28">
      <g>
       <use style="stroke:#000000;stroke-width:0.6;" x="172.84284" xlink:href="#m62526785ef" y="150.345"/>
      </g>
     </g>
    </g>
    <g id="xtick_29">
     <g id="line2d_29">
      <g>
       <use style="stroke:#000000;stroke-width:0.6;" x="179.923314" xlink:href="#m62526785ef" y="150.345"/>
      </g>
     </g>
    </g>
    <g id="xtick_30">
     <g id="line2d_30">
      <g>
       <use style="stroke:#000000;stroke-width:0.6;" x="187.003787" xlink:href="#m62526785ef" y="150.345"/>
      </g>
     </g>
    </g>
    <g id="xtick_31">
     <g id="line2d_31">
      <g>
       <use style="stroke:#000000;stroke-width:0.6;" x="194.08426" xlink:href="#m62526785ef" y="150.345"/>
      </g>
     </g>
    </g>
    <g id="xtick_32">
     <g id="line2d_32">
      <g>
       <use style="stroke:#000000;stroke-width:0.6;" x="201.164734" xlink:href="#m62526785ef" y="150.345"/>
      </g>
     </g>
    </g>
    <g id="xtick_33">
     <g id="line2d_33">
      <g>
       <use style="stroke:#000000;stroke-width:0.6;" x="208.245207" xlink:href="#m62526785ef" y="150.345"/>
      </g>
     </g>
    </g>
    <g id="xtick_34">
     <g id="line2d_34">
      <g>
       <use style="stroke:#000000;stroke-width:0.6;" x="215.32568" xlink:href="#m62526785ef" y="150.345"/>
      </g>
     </g>
    </g>
    <g id="xtick_35">
     <g id="line2d_35">
      <g>
       <use style="stroke:#000000;stroke-width:0.6;" x="222.406154" xlink:href="#m62526785ef" y="150.345"/>
      </g>
     </g>
    </g>
    <g id="xtick_36">
     <g id="line2d_36">
      <g>
       <use style="stroke:#000000;stroke-width:0.6;" x="229.486627" xlink:href="#m62526785ef" y="150.345"/>
      </g>
     </g>
    </g>
    <g id="xtick_37">
     <g id="line2d_37">
      <g>
       <use style="stroke:#000000;stroke-width:0.6;" x="236.567101" xlink:href="#m62526785ef" y="150.345"/>
      </g>
     </g>
    </g>
    <g id="xtick_38">
     <g id="line2d_38">
      <g>
       <use style="stroke:#000000;stroke-width:0.6;" x="243.647574" xlink:href="#m62526785ef" y="150.345"/>
      </g>
     </g>
    </g>
    <g id="text_7">
     <!-- $x$ -->
     <defs>
      <path d="M 7.8125 2.875 
Q 9.578125 1.515625 12.796875 1.515625 
Q 15.921875 1.515625 18.3125 4.515625 
Q 20.703125 7.515625 21.578125 11.078125 
L 26.125 28.8125 
Q 27.203125 33.640625 27.203125 35.40625 
Q 27.203125 37.890625 25.8125 39.75 
Q 24.421875 41.609375 21.921875 41.609375 
Q 18.75 41.609375 15.96875 39.625 
Q 13.1875 37.640625 11.28125 34.59375 
Q 9.375 31.546875 8.59375 28.421875 
Q 8.40625 27.78125 7.8125 27.78125 
L 6.59375 27.78125 
Q 5.8125 27.78125 5.8125 28.71875 
L 5.8125 29 
Q 6.78125 32.71875 9.125 36.25 
Q 11.46875 39.796875 14.859375 41.984375 
Q 18.265625 44.1875 22.125 44.1875 
Q 25.78125 44.1875 28.734375 42.234375 
Q 31.6875 40.28125 32.90625 36.921875 
Q 34.625 39.984375 37.28125 42.078125 
Q 39.9375 44.1875 43.109375 44.1875 
Q 45.265625 44.1875 47.5 43.421875 
Q 49.75 42.671875 51.171875 41.109375 
Q 52.59375 39.546875 52.59375 37.203125 
Q 52.59375 34.671875 50.953125 32.828125 
Q 49.3125 31 46.78125 31 
Q 45.171875 31 44.09375 32.03125 
Q 43.015625 33.0625 43.015625 34.625 
Q 43.015625 36.71875 44.453125 38.296875 
Q 45.90625 39.890625 47.90625 40.1875 
Q 46.09375 41.609375 42.921875 41.609375 
Q 39.703125 41.609375 37.328125 38.625 
Q 34.96875 35.640625 33.984375 31.984375 
L 29.59375 14.3125 
Q 28.515625 10.296875 28.515625 7.71875 
Q 28.515625 5.171875 29.953125 3.34375 
Q 31.390625 1.515625 33.796875 1.515625 
Q 38.484375 1.515625 42.15625 5.640625 
Q 45.84375 9.765625 47.015625 14.703125 
Q 47.21875 15.28125 47.796875 15.28125 
L 49.03125 15.28125 
Q 49.421875 15.28125 49.65625 15.015625 
Q 49.90625 14.75 49.90625 14.40625 
Q 49.90625 14.3125 49.8125 14.109375 
Q 48.390625 8.15625 43.84375 3.515625 
Q 39.3125 -1.125 33.59375 -1.125 
Q 29.9375 -1.125 26.984375 0.84375 
Q 24.03125 2.828125 22.796875 6.203125 
Q 21.234375 3.265625 18.46875 1.0625 
Q 15.71875 -1.125 12.59375 -1.125 
Q 10.453125 -1.125 8.171875 -0.359375 
Q 5.90625 0.390625 4.484375 1.953125 
Q 3.078125 3.515625 3.078125 5.90625 
Q 3.078125 8.25 4.703125 10.171875 
Q 6.34375 12.109375 8.796875 12.109375 
Q 10.453125 12.109375 11.578125 11.109375 
Q 12.703125 10.109375 12.703125 8.5 
Q 12.703125 6.390625 11.296875 4.828125 
Q 9.90625 3.265625 7.8125 2.875 
z
" id="Cmmi10-78"/>
     </defs>
     <g transform="translate(258.02 150.345)scale(0.16 -0.16)">
      <use transform="translate(0 0.8125)" xlink:href="#Cmmi10-78"/>
     </g>
    </g>
   </g>
   <g id="matplotlib.axis_2">
    <g id="ytick_1">
     <g id="line2d_39">
      <defs>
       <path d="M 0 0 
L -3.5 0 
" id="mbbd602c35c" style="stroke:#000000;stroke-width:0.8;"/>
      </defs>
      <g>
       <use style="stroke:#000000;stroke-width:0.8;" x="130.36" xlink:href="#mbbd602c35c" y="256.552101"/>
      </g>
     </g>
     <g id="text_8">
      <!-- -3 -->
      <g transform="translate(113.389688 260.351319)scale(0.1 -0.1)">
       <use xlink:href="#DejaVuSans-2d"/>
       <use x="36.083984" xlink:href="#DejaVuSans-33"/>
      </g>
     </g>
    </g>
    <g id="ytick_2">
     <g id="line2d_40">
      <g>
       <use style="stroke:#000000;stroke-width:0.8;" x="130.36" xlink:href="#mbbd602c35c" y="221.149734"/>
      </g>
     </g>
     <g id="text_9">
      <!-- -2 -->
      <g transform="translate(113.389688 224.948952)scale(0.1 -0.1)">
       <use xlink:href="#DejaVuSans-2d"/>
       <use x="36.083984" xlink:href="#DejaVuSans-32"/>
      </g>
     </g>
    </g>
    <g id="ytick_3">
     <g id="line2d_41">
      <g>
       <use style="stroke:#000000;stroke-width:0.8;" x="130.36" xlink:href="#mbbd602c35c" y="185.747367"/>
      </g>
     </g>
     <g id="text_10">
      <!-- -1 -->
      <g transform="translate(113.389688 189.546586)scale(0.1 -0.1)">
       <use xlink:href="#DejaVuSans-2d"/>
       <use x="36.083984" xlink:href="#DejaVuSans-31"/>
      </g>
     </g>
    </g>
    <g id="ytick_4">
     <g id="line2d_42">
      <g>
       <use style="stroke:#000000;stroke-width:0.8;" x="130.36" xlink:href="#mbbd602c35c" y="150.345"/>
      </g>
     </g>
    </g>
    <g id="ytick_5">
     <g id="line2d_43">
      <g>
       <use style="stroke:#000000;stroke-width:0.8;" x="130.36" xlink:href="#mbbd602c35c" y="114.942633"/>
      </g>
     </g>
     <g id="text_11">
      <!-- 1 -->
      <g transform="translate(116.9975 118.741852)scale(0.1 -0.1)">
       <use xlink:href="#DejaVuSans-31"/>
      </g>
     </g>
    </g>
    <g id="ytick_6">
     <g id="line2d_44">
      <g>
       <use style="stroke:#000000;stroke-width:0.8;" x="130.36" xlink:href="#mbbd602c35c" y="79.540266"/>
      </g>
     </g>
     <g id="text_12">
      <!-- 2 -->
      <g transform="translate(116.9975 83.339485)scale(0.1 -0.1)">
       <use xlink:href="#DejaVuSans-32"/>
      </g>
     </g>
    </g>
    <g id="ytick_7">
     <g id="line2d_45">
      <g>
       <use style="stroke:#000000;stroke-width:0.8;" x="130.36" xlink:href="#mbbd602c35c" y="44.137899"/>
      </g>
     </g>
     <g id="text_13">
      <!-- 3 -->
      <g transform="translate(116.9975 47.937118)scale(0.1 -0.1)">
       <use xlink:href="#DejaVuSans-33"/>
      </g>
     </g>
    </g>
    <g id="ytick_8">
     <g id="line2d_46">
      <defs>
       <path d="M 0 0 
L -2 0 
" id="me3ff94e792" style="stroke:#000000;stroke-width:0.6;"/>
      </defs>
      <g>
       <use style="stroke:#000000;stroke-width:0.6;" x="130.36" xlink:href="#me3ff94e792" y="263.632574"/>
      </g>
     </g>
    </g>
    <g id="ytick_9">
     <g id="line2d_47">
      <g>
       <use style="stroke:#000000;stroke-width:0.6;" x="130.36" xlink:href="#me3ff94e792" y="249.471627"/>
      </g>
     </g>
    </g>
    <g id="ytick_10">
     <g id="line2d_48">
      <g>
       <use style="stroke:#000000;stroke-width:0.6;" x="130.36" xlink:href="#me3ff94e792" y="242.391154"/>
      </g>
     </g>
    </g>
    <g id="ytick_11">
     <g id="line2d_49">
      <g>
       <use style="stroke:#000000;stroke-width:0.6;" x="130.36" xlink:href="#me3ff94e792" y="235.31068"/>
      </g>
     </g>
    </g>
    <g id="ytick_12">
     <g id="line2d_50">
      <g>
       <use style="stroke:#000000;stroke-width:0.6;" x="130.36" xlink:href="#me3ff94e792" y="228.230207"/>
      </g>
     </g>
    </g>
    <g id="ytick_13">
     <g id="line2d_51">
      <g>
       <use style="stroke:#000000;stroke-width:0.6;" x="130.36" xlink:href="#me3ff94e792" y="214.06926"/>
      </g>
     </g>
    </g>
    <g id="ytick_14">
     <g id="line2d_52">
      <g>
       <use style="stroke:#000000;stroke-width:0.6;" x="130.36" xlink:href="#me3ff94e792" y="206.988787"/>
      </g>
     </g>
    </g>
    <g id="ytick_15">
     <g id="line2d_53">
      <g>
       <use style="stroke:#000000;stroke-width:0.6;" x="130.36" xlink:href="#me3ff94e792" y="199.908314"/>
      </g>
     </g>
    </g>
    <g id="ytick_16">
     <g id="line2d_54">
      <g>
       <use style="stroke:#000000;stroke-width:0.6;" x="130.36" xlink:href="#me3ff94e792" y="192.82784"/>
      </g>
     </g>
    </g>
    <g id="ytick_17">
     <g id="line2d_55">
      <g>
       <use style="stroke:#000000;stroke-width:0.6;" x="130.36" xlink:href="#me3ff94e792" y="185.747367"/>
      </g>
     </g>
    </g>
    <g id="ytick_18">
     <g id="line2d_56">
      <g>
       <use style="stroke:#000000;stroke-width:0.6;" x="130.36" xlink:href="#me3ff94e792" y="178.666893"/>
      </g>
     </g>
    </g>
    <g id="ytick_19">
     <g id="line2d_57">
      <g>
       <use style="stroke:#000000;stroke-width:0.6;" x="130.36" xlink:href="#me3ff94e792" y="171.58642"/>
      </g>
     </g>
    </g>
    <g id="ytick_20">
     <g id="line2d_58">
      <g>
       <use style="stroke:#000000;stroke-width:0.6;" x="130.36" xlink:href="#me3ff94e792" y="164.505947"/>
      </g>
     </g>
    </g>
    <g id="ytick_21">
     <g id="line2d_59">
      <g>
       <use style="stroke:#000000;stroke-width:0.6;" x="130.36" xlink:href="#me3ff94e792" y="157.425473"/>
      </g>
     </g>
    </g>
    <g id="ytick_22">
     <g id="line2d_60">
      <g>
       <use style="stroke:#000000;stroke-width:0.6;" x="130.36" xlink:href="#me3ff94e792" y="150.345"/>
      </g>
     </g>
    </g>
    <g id="ytick_23">
     <g id="line2d_61">
      <g>
       <use style="stroke:#000000;stroke-width:0.6;" x="130.36" xlink:href="#me3ff94e792" y="143.264527"/>
      </g>
     </g>
    </g>
    <g id="ytick_24">
     <g id="line2d_62">
      <g>
       <use style="stroke:#000000;stroke-width:0.6;" x="130.36" xlink:href="#me3ff94e792" y="136.184053"/>
      </g>
     </g>
    </g>
    <g id="ytick_25">
     <g id="line2d_63">
      <g>
       <use style="stroke:#000000;stroke-width:0.6;" x="130.36" xlink:href="#me3ff94e792" y="129.10358"/>
      </g>
     </g>
    </g>
    <g id="ytick_26">
     <g id="line2d_64">
      <g>
       <use style="stroke:#000000;stroke-width:0.6;" x="130.36" xlink:href="#me3ff94e792" y="122.023107"/>
      </g>
     </g>
    </g>
    <g id="ytick_27">
     <g id="line2d_65">
      <g>
       <use style="stroke:#000000;stroke-width:0.6;" x="130.36" xlink:href="#me3ff94e792" y="114.942633"/>
      </g>
     </g>
    </g>
    <g id="ytick_28">
     <g id="line2d_66">
      <g>
       <use style="stroke:#000000;stroke-width:0.6;" x="130.36" xlink:href="#me3ff94e792" y="107.86216"/>
      </g>
     </g>
    </g>
    <g id="ytick_29">
     <g id="line2d_67">
      <g>
       <use style="stroke:#000000;stroke-width:0.6;" x="130.36" xlink:href="#me3ff94e792" y="100.781686"/>
      </g>
     </g>
    </g>
    <g id="ytick_30">
     <g id="line2d_68">
      <g>
       <use style="stroke:#000000;stroke-width:0.6;" x="130.36" xlink:href="#me3ff94e792" y="93.701213"/>
      </g>
     </g>
    </g>
    <g id="ytick_31">
     <g id="line2d_69">
      <g>
       <use style="stroke:#000000;stroke-width:0.6;" x="130.36" xlink:href="#me3ff94e792" y="86.62074"/>
      </g>
     </g>
    </g>
    <g id="ytick_32">
     <g id="line2d_70">
      <g>
       <use style="stroke:#000000;stroke-width:0.6;" x="130.36" xlink:href="#me3ff94e792" y="79.540266"/>
      </g>
     </g>
    </g>
    <g id="ytick_33">
     <g id="line2d_71">
      <g>
       <use style="stroke:#000000;stroke-width:0.6;" x="130.36" xlink:href="#me3ff94e792" y="72.459793"/>
      </g>
     </g>
    </g>
    <g id="ytick_34">
     <g id="line2d_72">
      <g>
       <use style="stroke:#000000;stroke-width:0.6;" x="130.36" xlink:href="#me3ff94e792" y="65.37932"/>
      </g>
     </g>
    </g>
    <g id="ytick_35">
     <g id="line2d_73">
      <g>
       <use style="stroke:#000000;stroke-width:0.6;" x="130.36" xlink:href="#me3ff94e792" y="58.298846"/>
      </g>
     </g>
    </g>
    <g id="ytick_36">
     <g id="line2d_74">
      <g>
       <use style="stroke:#000000;stroke-width:0.6;" x="130.36" xlink:href="#me3ff94e792" y="51.218373"/>
      </g>
     </g>
    </g>
    <g id="ytick_37">
     <g id="line2d_75">
      <g>
       <use style="stroke:#000000;stroke-width:0.6;" x="130.36" xlink:href="#me3ff94e792" y="44.137899"/>
      </g>
     </g>
    </g>
    <g id="ytick_38">
     <g id="line2d_76">
      <g>
       <use style="stroke:#000000;stroke-width:0.6;" x="130.36" xlink:href="#me3ff94e792" y="37.057426"/>
      </g>
     </g>
    </g>
    <g id="text_14">
     <!-- $y$ -->
     <defs>
      <path d="M 8.40625 -14.3125 
Q 10.5 -17.921875 15.71875 -17.921875 
Q 20.453125 -17.921875 23.921875 -14.59375 
Q 27.390625 -11.28125 29.515625 -6.5625 
Q 31.640625 -1.859375 32.8125 3.078125 
Q 28.375 -1.125 23.1875 -1.125 
Q 19.234375 -1.125 16.453125 0.234375 
Q 13.671875 1.609375 12.125 4.3125 
Q 10.59375 7.03125 10.59375 10.890625 
Q 10.59375 14.15625 11.46875 17.59375 
Q 12.359375 21.046875 13.9375 25.265625 
Q 15.53125 29.5 16.703125 32.625 
Q 18.015625 36.28125 18.015625 38.625 
Q 18.015625 41.609375 15.828125 41.609375 
Q 11.859375 41.609375 9.296875 37.53125 
Q 6.734375 33.453125 5.515625 28.421875 
Q 5.328125 27.78125 4.6875 27.78125 
L 3.515625 27.78125 
Q 2.6875 27.78125 2.6875 28.71875 
L 2.6875 29 
Q 4.296875 34.96875 7.609375 39.578125 
Q 10.9375 44.1875 16.015625 44.1875 
Q 19.578125 44.1875 22.046875 41.84375 
Q 24.515625 39.5 24.515625 35.890625 
Q 24.515625 34.03125 23.6875 31.984375 
Q 23.25 30.765625 21.6875 26.65625 
Q 20.125 22.5625 19.28125 19.875 
Q 18.453125 17.1875 17.921875 14.59375 
Q 17.390625 12.015625 17.390625 9.421875 
Q 17.390625 6.109375 18.796875 3.8125 
Q 20.21875 1.515625 23.296875 1.515625 
Q 29.5 1.515625 34.421875 9.078125 
L 42 39.890625 
Q 42.328125 41.21875 43.546875 42.15625 
Q 44.78125 43.109375 46.1875 43.109375 
Q 47.40625 43.109375 48.3125 42.328125 
Q 49.21875 41.546875 49.21875 40.28125 
Q 49.21875 39.703125 49.125 39.5 
L 39.203125 -0.296875 
Q 37.890625 -5.421875 34.375 -10.109375 
Q 30.859375 -14.796875 25.90625 -17.65625 
Q 20.953125 -20.515625 15.578125 -20.515625 
Q 12.984375 -20.515625 10.4375 -19.5 
Q 7.90625 -18.5 6.34375 -16.5 
Q 4.78125 -14.5 4.78125 -11.8125 
Q 4.78125 -9.078125 6.390625 -7.078125 
Q 8.015625 -5.078125 10.6875 -5.078125 
Q 12.3125 -5.078125 13.40625 -6.078125 
Q 14.5 -7.078125 14.5 -8.6875 
Q 14.5 -10.984375 12.78125 -12.6875 
Q 11.078125 -14.40625 8.796875 -14.40625 
Q 8.6875 -14.359375 8.59375 -14.328125 
Q 8.5 -14.3125 8.40625 -14.3125 
z
" id="Cmmi10-79"/>
     </defs>
     <g transform="translate(126.36 19.325)scale(0.16 -0.16)">
      <use transform="translate(0 0.8125)" xlink:href="#Cmmi10-79"/>
     </g>
    </g>
   </g>
   <g id="patch_3">
    <path clip-path="url(#p9ed2adca8d)" d="M 182.755503 145.034645 
Q 183.109527 147.689822 183.168023 148.128547 
" style="fill:none;stroke:#ff0000;stroke-linecap:round;stroke-width:2;"/>
    <path clip-path="url(#p9ed2adca8d)" d="M 186.802526 137.555449 
L 183.168023 148.128547 
L 176.890247 138.877087 
L 186.802526 137.555449 
z
" style="fill:#ff0000;stroke:#ff0000;stroke-linecap:round;stroke-width:2;"/>
   </g>
   <g id="line2d_77">
    <path clip-path="url(#p9ed2adca8d)" d="M 183.46355 150.345 
L 183.347567 146.837183 
L 182.992134 143.284861 
L 182.301719 139.297608 
L 181.498997 136.034512 
L 180.45598 132.727401 
L 178.937847 128.893198 
L 177.588163 126.065633 
L 175.736635 122.759714 
L 174.191326 120.364974 
L 172.395235 117.894637 
L 169.714116 114.690539 
L 167.745966 112.631917 
L 165.258838 110.319281 
L 162.235912 107.872499 
L 159.900089 106.215982 
L 156.420315 104.075712 
L 153.339831 102.471057 
L 149.65193 100.869668 
L 145.709488 99.5082 
L 142.881901 98.738905 
L 140.145291 98.150794 
L 136.795801 97.632881 
L 133.274782 97.321504 
L 129.685019 97.24574 
L 126.80251 97.360745 
L 123.682179 97.662994 
L 119.946346 98.272523 
L 116.369848 99.117442 
L 112.767888 100.240064 
L 110.865183 100.94926 
L 107.904133 102.22306 
L 103.456164 104.561044 
L 99.152385 107.379062 
L 95.610534 110.189532 
L 92.451784 113.156907 
L 90.64473 115.093271 
L 88.376693 117.827482 
L 86.094952 121.009141 
L 84.626507 123.355472 
L 82.937368 126.447698 
L 81.286986 130.051496 
L 80.007942 133.473211 
L 79.051547 136.654502 
L 78.229948 140.223501 
L 77.802283 142.7507 
L 77.443521 145.891543 
L 77.303523 148.109532 
L 77.281249 151.967713 
L 77.543353 155.857606 
L 78.109931 159.827476 
L 78.804147 163.072179 
L 79.862324 166.775817 
L 80.648071 169.018809 
L 82.36587 173.072749 
L 83.974278 176.197501 
L 85.614704 178.942999 
L 87.716736 181.992102 
L 90.416371 185.337764 
L 92.571619 187.654856 
L 95.445716 190.357246 
L 97.840675 192.326907 
L 101.057038 194.631832 
L 104.906014 196.950597 
L 106.582773 197.82795 
L 110.352675 199.535385 
L 113.601886 200.735006 
L 117.903625 201.966951 
L 122.556218 202.872022 
L 127.403957 203.366211 
L 129.883395 203.446411 
L 133.633828 203.347539 
L 136.987224 203.033395 
L 140.346075 202.501163 
L 142.629553 202.011673 
L 145.889651 201.127054 
L 150.388239 199.526874 
L 152.990435 198.385092 
L 156.82216 196.385646 
L 160.558622 194.026006 
L 163.13807 192.1252 
L 166.06776 189.650762 
L 168.379463 187.419351 
L 171.004772 184.520862 
L 173.458536 181.369237 
L 175.323722 178.598332 
L 177.355596 175.071524 
L 178.784845 172.139987 
L 180.048187 169.081892 
L 181.110349 165.97795 
L 182.026382 162.61578 
L 182.735135 159.110405 
L 183.209416 155.534052 
L 183.450628 151.516436 
L 183.46355 150.345 
L 183.46355 150.345 
" style="fill:none;stroke:#ff0000;stroke-linecap:square;stroke-width:2;"/>
   </g>
   <g id="patch_4">
    <path d="M 130.36 270.005 
L 130.36 30.685 
" style="fill:none;stroke:#000000;stroke-linecap:square;stroke-linejoin:miter;stroke-width:0.8;"/>
   </g>
   <g id="patch_5">
    <path d="M 10.7 150.345 
L 250.02 150.345 
" style="fill:none;stroke:#000000;stroke-linecap:square;stroke-linejoin:miter;stroke-width:0.8;"/>
   </g>
  </g>
 </g>
 <defs>
  <clipPath id="p9ed2adca8d">
   <rect height="239.32" width="239.32" x="10.7" y="30.685"/>
  </clipPath>
 </defs>
</svg>
