<?xml version="1.0" encoding="utf-8" standalone="no"?>
<!DOCTYPE svg PUBLIC "-//W3C//DTD SVG 1.1//EN"
  "http://www.w3.org/Graphics/SVG/1.1/DTD/svg11.dtd">
<svg xmlns:xlink="http://www.w3.org/1999/xlink" width="277.3pt" height="280.4025pt" viewBox="0 0 277.3 280.4025" xmlns="http://www.w3.org/2000/svg" version="1.1">
 <metadata>
  <rdf:RDF xmlns:dc="http://purl.org/dc/elements/1.1/" xmlns:cc="http://creativecommons.org/ns#" xmlns:rdf="http://www.w3.org/1999/02/22-rdf-syntax-ns#">
   <cc:Work>
    <dc:type rdf:resource="http://purl.org/dc/dcmitype/StillImage"/>
    <dc:date>2023-06-05T20:12:32.322722</dc:date>
    <dc:format>image/svg+xml</dc:format>
    <dc:creator>
     <cc:Agent>
      <dc:title>Matplotlib v3.6.2, https://matplotlib.org/</dc:title>
     </cc:Agent>
    </dc:creator>
   </cc:Work>
  </rdf:RDF>
 </metadata>
 <defs>
  <style type="text/css">*{stroke-linejoin: round; stroke-linecap: butt}</style>
 </defs>
 <g id="figure_1">
  <g id="patch_1">
   <path d="M 0 280.4025 
L 277.3 280.4025 
L 277.3 0 
L 0 0 
z
" style="fill: #ffffff"/>
  </g>
  <g id="axes_1">
   <g id="patch_2">
    <path d="M 7.2 273.2025 
L 256.96 273.2025 
L 256.96 23.4425 
L 7.2 23.4425 
z
" style="fill: #ffffff"/>
   </g>
   <g id="Quiver_1">
    <path d="M 12.502597 268.399423 
L 12.252837 267.966826 
L 11.753317 267.966826 
L 11.503557 268.399423 
L 11.753317 268.83202 
L 12.252837 268.83202 
L 12.502597 268.399423 
L 12.252837 267.966826 
" clip-path="url(#p68fcd1a609)" style="fill: #0000ff"/>
    <path d="M 12.17462 251.05108 
L 12.369117 251.222623 
L 12.689249 250.467589 
L 13.948046 252.961008 
L 11.316904 252.023565 
L 12.026031 251.611617 
L 11.831534 251.440074 
L 12.17462 251.05108 
" clip-path="url(#p68fcd1a609)" style="fill: #0000ff"/>
    <path d="M 12.346163 233.772448 
L 12.665446 234.115534 
L 13.375422 232.814599 
L 15.195905 237.522593 
L 10.630732 235.368862 
L 11.979273 234.7541 
L 11.659991 234.411014 
L 12.346163 233.772448 
" clip-path="url(#p68fcd1a609)" style="fill: #0000ff"/>
    <path d="M 12.404 216.639923 
L 13.547016 218.177911 
L 14.451823 216.883103 
L 15.827747 222.084178 
L 11.24444 219.266796 
L 12.74517 218.773834 
L 11.602154 217.235846 
L 12.404 216.639923 
" clip-path="url(#p68fcd1a609)" style="fill: #0000ff"/>
    <path d="M 12.442252 199.546035 
L 14.018812 202.455184 
L 15.098335 201.302 
L 15.721664 206.645764 
L 11.584933 203.206024 
L 13.140462 202.93119 
L 11.563902 200.022041 
L 12.442252 199.546035 
" clip-path="url(#p68fcd1a609)" style="fill: #0000ff"/>
    <path d="M 12.476364 182.470444 
L 13.933674 186.788017 
L 15.193787 185.835484 
L 14.898124 191.207349 
L 11.407491 187.113473 
L 12.9871 187.107514 
L 11.52979 182.789941 
L 12.476364 182.470444 
" clip-path="url(#p68fcd1a609)" style="fill: #0000ff"/>
    <path d="M 12.497286 165.403701 
L 13.35642 171.248404 
L 14.766402 170.536258 
L 13.51602 175.768934 
L 10.812727 171.117423 
L 12.368001 171.393695 
L 11.508868 165.548992 
L 12.497286 165.403701 
" clip-path="url(#p68fcd1a609)" style="fill: #0000ff"/>
    <path d="M 12.502552 148.3292 
L 12.401783 155.841943 
L 13.906907 155.362566 
L 11.842012 160.330519 
L 9.911107 155.30897 
L 11.402833 155.828544 
L 11.503602 148.3158 
L 12.502552 148.3292 
" clip-path="url(#p68fcd1a609)" style="fill: #0000ff"/>
    <path d="M 12.498336 131.233757 
L 11.280271 140.499874 
L 12.831153 140.199926 
L 10.199079 144.892104 
L 8.869079 139.679097 
L 10.289753 140.369667 
L 11.507818 131.10355 
L 12.498336 131.233757 
" clip-path="url(#p68fcd1a609)" style="fill: #0000ff"/>
    <path d="M 12.492829 114.11311 
L 10.278679 125.144225 
L 11.846237 124.94938 
L 8.904206 129.453689 
L 7.928222 124.162961 
L 9.299175 124.94762 
L 11.513325 113.916505 
L 12.492829 114.11311 
" clip-path="url(#p68fcd1a609)" style="fill: #0000ff"/>
    <path d="M 12.490799 96.968883 
L 9.666241 109.733694 
L 11.23733 109.569737 
L 8.207223 114.015274 
L 7.335551 108.706363 
L 8.690796 109.517851 
L 11.515355 96.75304 
L 12.490799 96.968883 
" clip-path="url(#p68fcd1a609)" style="fill: #0000ff"/>
    <path d="M 12.492964 79.804743 
L 9.611139 94.265506 
L 11.178427 94.068501 
L 8.242604 98.576859 
L 7.259332 93.287481 
L 8.631365 94.07025 
L 11.51319 79.609488 
L 12.492964 79.804743 
" clip-path="url(#p68fcd1a609)" style="fill: #0000ff"/>
    <path d="M 12.497377 62.625296 
L 10.146062 78.761772 
L 11.700989 78.483552 
L 9.003524 83.138445 
L 7.746589 77.907339 
L 9.157463 78.617719 
L 11.508777 62.481243 
L 12.497377 62.625296 
" clip-path="url(#p68fcd1a609)" style="fill: #0000ff"/>
    <path d="M 12.501219 45.436501 
L 11.175018 63.25383 
L 12.706522 62.866923 
L 10.343171 67.70003 
L 8.721386 62.570297 
L 10.178734 63.179674 
L 11.504935 45.362345 
L 12.501219 45.436501 
" clip-path="url(#p68fcd1a609)" style="fill: #0000ff"/>
    <path d="M 12.502597 28.245577 
L 12.502597 47.765935 
L 14.001157 47.266415 
L 12.003077 52.261615 
L 10.004997 47.266415 
L 11.503557 47.765935 
L 11.503557 28.245577 
L 12.502597 28.245577 
" clip-path="url(#p68fcd1a609)" style="fill: #0000ff"/>
    <path d="M 28.98538 268.204926 
L 29.179877 268.033383 
L 28.470751 267.621435 
L 31.101892 266.683992 
L 29.843096 269.177411 
L 29.522963 268.422377 
L 29.328466 268.59392 
L 28.98538 268.204926 
" clip-path="url(#p68fcd1a609)" style="fill: #0000ff"/>
    <path d="M 29.156923 250.926294 
L 29.476206 250.926294 
L 29.156923 249.968446 
L 32.349751 251.245577 
L 29.156923 252.522708 
L 29.476206 251.56486 
L 29.156923 251.56486 
L 29.156923 250.926294 
" clip-path="url(#p68fcd1a609)" style="fill: #0000ff"/>
    <path d="M 29.328466 233.709264 
L 29.710933 233.880807 
L 29.843096 232.561863 
L 32.981593 235.807162 
L 28.470751 235.621599 
L 29.367847 234.645741 
L 28.98538 234.474198 
L 29.328466 233.709264 
" clip-path="url(#p68fcd1a609)" style="fill: #0000ff"/>
    <path d="M 29.495648 216.570753 
L 29.91005 216.953091 
L 30.559093 215.512971 
L 32.87551 220.368747 
L 27.849294 218.450024 
L 29.2326 217.687354 
L 28.818198 217.305016 
L 29.495648 216.570753 
" clip-path="url(#p68fcd1a609)" style="fill: #0000ff"/>
    <path d="M 29.592283 199.539127 
L 30.283124 200.767179 
L 31.344293 199.597084 
L 32.051971 204.930332 
L 27.861412 201.556378 
L 29.412404 201.257003 
L 28.721563 200.02895 
L 29.592283 199.539127 
" clip-path="url(#p68fcd1a609)" style="fill: #0000ff"/>
    <path d="M 29.644726 182.522636 
L 30.189667 184.994133 
L 31.545521 184.183662 
L 30.669866 189.491917 
L 27.643095 185.044109 
L 29.214061 185.209244 
L 28.66912 182.737748 
L 29.644726 182.522636 
" clip-path="url(#p68fcd1a609)" style="fill: #0000ff"/>
    <path d="M 29.656355 165.485725 
L 29.579697 169.567993 
L 31.087371 169.096697 
L 28.995858 174.053503 
L 27.091915 169.021669 
L 28.580833 169.549236 
L 28.657491 165.466968 
L 29.656355 165.485725 
" clip-path="url(#p68fcd1a609)" style="fill: #0000ff"/>
    <path d="M 29.648943 148.408737 
L 28.621079 154.273147 
L 30.183375 154.039839 
L 27.352925 158.615088 
L 26.247217 153.349942 
L 27.637039 154.100673 
L 28.664903 148.236263 
L 29.648943 148.408737 
" clip-path="url(#p68fcd1a609)" style="fill: #0000ff"/>
    <path d="M 29.640597 131.293474 
L 27.665107 138.94843 
L 29.240948 138.839217 
L 26.058052 143.176673 
L 25.371559 137.840656 
L 26.697759 138.69879 
L 28.673249 131.043834 
L 29.640597 131.293474 
" clip-path="url(#p68fcd1a609)" style="fill: #0000ff"/>
    <path d="M 29.638366 114.147973 
L 27.040999 123.538437 
L 28.618493 123.45649 
L 25.361069 127.738258 
L 24.76695 122.391168 
L 26.078114 123.272107 
L 28.67548 113.881642 
L 29.638366 114.147973 
" clip-path="url(#p68fcd1a609)" style="fill: #0000ff"/>
    <path d="M 29.642254 96.979174 
L 26.945696 108.050079 
L 28.519901 107.919386 
L 25.39645 112.299843 
L 24.637255 106.973684 
L 25.975035 107.813653 
L 28.671592 96.742749 
L 29.642254 96.979174 
" clip-path="url(#p68fcd1a609)" style="fill: #0000ff"/>
    <path d="M 29.648977 79.793155 
L 27.423777 92.518978 
L 28.985979 92.285041 
L 26.15737 96.861428 
L 25.049544 91.596728 
L 26.439668 92.3469 
L 28.664869 79.621076 
L 29.648977 79.793155 
" clip-path="url(#p68fcd1a609)" style="fill: #0000ff"/>
    <path d="M 29.654522 62.597041 
L 28.388564 76.988399 
L 29.925131 76.622117 
L 27.497017 81.423013 
L 25.944343 76.27194 
L 27.393367 76.900855 
L 28.659325 62.509497 
L 29.654522 62.597041 
" clip-path="url(#p68fcd1a609)" style="fill: #0000ff"/>
    <path d="M 29.656443 45.399423 
L 29.656443 61.488918 
L 31.155003 60.989398 
L 29.156923 65.984598 
L 27.158843 60.989398 
L 28.657403 61.488918 
L 28.657403 45.399423 
L 29.656443 45.399423 
" clip-path="url(#p68fcd1a609)" style="fill: #0000ff"/>
    <path d="M 29.655065 28.208499 
L 30.981266 46.025827 
L 32.438614 45.41645 
L 30.816829 50.546184 
L 28.453478 45.713077 
L 29.984982 46.099984 
L 28.658781 28.282655 
L 29.655065 28.208499 
" clip-path="url(#p68fcd1a609)" style="fill: #0000ff"/>
    <path d="M 45.967683 268.08014 
L 46.286966 267.737054 
L 44.938424 267.122292 
L 49.503597 264.968561 
L 47.683114 269.676554 
L 46.973138 268.37562 
L 46.653855 268.718706 
L 45.967683 268.08014 
" clip-path="url(#p68fcd1a609)" style="fill: #0000ff"/>
    <path d="M 46.139226 250.86311 
L 46.521693 250.691567 
L 45.624597 249.715709 
L 50.135439 249.530146 
L 46.996942 252.775445 
L 46.864779 251.456501 
L 46.482312 251.628044 
L 46.139226 250.86311 
" clip-path="url(#p68fcd1a609)" style="fill: #0000ff"/>
    <path d="M 46.310769 233.719872 
L 46.682628 233.719872 
L 46.310769 232.604296 
L 50.029356 234.091731 
L 46.310769 235.579166 
L 46.682628 234.463589 
L 46.310769 234.463589 
L 46.310769 233.719872 
" clip-path="url(#p68fcd1a609)" style="fill: #0000ff"/>
    <path d="M 46.482312 216.64838 
L 46.771817 216.819923 
L 46.996942 215.779866 
L 49.205817 218.653316 
L 45.624597 218.095904 
L 46.428731 217.398932 
L 46.139226 217.227389 
L 46.482312 216.64838 
" clip-path="url(#p68fcd1a609)" style="fill: #0000ff"/>
    <path d="M 46.653855 199.632744 
L 46.80515 199.97583 
L 47.683114 199.178861 
L 47.823713 203.214901 
L 44.938424 200.389216 
L 46.118977 200.278419 
L 45.967683 199.935333 
L 46.653855 199.632744 
" clip-path="url(#p68fcd1a609)" style="fill: #0000ff"/>
    <path d="M 46.810045 182.645818 
L 46.789613 183.298632 
L 48.303066 182.846235 
L 46.149704 187.776486 
L 44.308862 182.721227 
L 45.791062 183.26738 
L 45.811494 182.614566 
L 46.810045 182.645818 
" clip-path="url(#p68fcd1a609)" style="fill: #0000ff"/>
    <path d="M 46.793872 165.603357 
L 46.132976 168.117157 
L 47.709296 168.015088 
L 44.506771 172.338071 
L 43.844473 166.998998 
L 45.16677 167.863134 
L 45.827666 165.349335 
L 46.793872 165.603357 
" clip-path="url(#p68fcd1a609)" style="fill: #0000ff"/>
    <path d="M 46.780567 148.492235 
L 45.209312 152.841208 
L 46.788441 152.880615 
L 43.211898 156.899656 
L 43.030056 151.522735 
L 44.269715 152.501738 
L 45.840971 148.152765 
L 46.780567 148.492235 
" clip-path="url(#p68fcd1a609)" style="fill: #0000ff"/>
    <path d="M 46.779434 131.341495 
L 44.539149 137.416104 
L 46.117982 137.465963 
L 42.514915 141.461241 
L 42.368668 136.083235 
L 43.60182 137.070422 
L 45.842105 130.995813 
L 46.779434 131.341495 
" clip-path="url(#p68fcd1a609)" style="fill: #0000ff"/>
    <path d="M 46.787461 114.16409 
L 44.37053 121.881884 
L 45.949888 121.853039 
L 42.550297 126.022827 
L 42.136354 120.65878 
L 43.417147 121.583319 
L 45.834078 113.865525 
L 46.787461 114.16409 
" clip-path="url(#p68fcd1a609)" style="fill: #0000ff"/>
    <path d="M 46.798769 96.967624 
L 44.759179 106.299081 
L 46.32984 106.13107 
L 43.311216 110.584412 
L 42.425845 105.277768 
L 43.783181 106.085755 
L 45.82277 96.754299 
L 46.798769 96.967624 
" clip-path="url(#p68fcd1a609)" style="fill: #0000ff"/>
    <path d="M 46.807427 79.760513 
L 45.628103 90.729475 
L 47.171474 90.393012 
L 44.650863 95.145997 
L 43.198212 89.965828 
L 44.634787 90.622679 
L 45.814112 79.653717 
L 46.807427 79.760513 
" clip-path="url(#p68fcd1a609)" style="fill: #0000ff"/>
    <path d="M 46.810289 62.553269 
L 46.810289 75.211902 
L 48.308849 74.712382 
L 46.310769 79.707582 
L 44.312689 74.712382 
L 45.811249 75.211902 
L 45.811249 62.553269 
L 46.810289 62.553269 
" clip-path="url(#p68fcd1a609)" style="fill: #0000ff"/>
    <path d="M 46.808368 45.355651 
L 48.074326 59.747009 
L 49.523349 59.118094 
L 47.970675 64.269167 
L 45.542561 59.46827 
L 47.079129 59.834553 
L 45.813171 45.443195 
L 46.808368 45.355651 
" clip-path="url(#p68fcd1a609)" style="fill: #0000ff"/>
    <path d="M 46.805069 28.17355 
L 49.156384 44.310026 
L 50.567257 43.599647 
L 49.310323 48.830752 
L 46.612857 44.175859 
L 48.167784 44.45408 
L 45.816469 28.317603 
L 46.805069 28.17355 
" clip-path="url(#p68fcd1a609)" style="fill: #0000ff"/>
    <path d="M 63.063693 268.101462 
L 64.206708 266.563474 
L 62.705978 266.070512 
L 67.289285 263.253129 
L 65.913361 268.454204 
L 65.008554 267.159397 
L 63.865538 268.697385 
L 63.063693 268.101462 
" clip-path="url(#p68fcd1a609)" style="fill: #0000ff"/>
    <path d="M 63.12589 250.878445 
L 63.540293 250.496107 
L 62.156986 249.733437 
L 67.183202 247.814714 
L 64.866786 252.67049 
L 64.217743 251.230371 
L 63.80334 251.612709 
L 63.12589 250.878445 
" clip-path="url(#p68fcd1a609)" style="fill: #0000ff"/>
    <path d="M 63.293072 233.802226 
L 63.582577 233.630683 
L 62.778443 232.933712 
L 66.359663 232.376299 
L 64.150788 235.24975 
L 63.925663 234.209692 
L 63.636159 234.381236 
L 63.293072 233.802226 
" clip-path="url(#p68fcd1a609)" style="fill: #0000ff"/>
    <path d="M 63.464615 216.78659 
L 63.61591 216.78659 
L 63.464615 216.332707 
L 64.977559 216.937885 
L 63.464615 217.543062 
L 63.61591 217.089179 
L 63.464615 217.089179 
L 63.464615 216.78659 
" clip-path="url(#p68fcd1a609)" style="fill: #0000ff"/>
    <path d="M 63.636159 199.800145 
L 63.620052 199.971688 
L 64.150788 199.848464 
L 63.30355 201.49947 
L 62.778443 199.719612 
L 63.276966 199.939475 
L 63.293072 199.767932 
L 63.636159 199.800145 
" clip-path="url(#p68fcd1a609)" style="fill: #0000ff"/>
    <path d="M 63.807702 182.810592 
L 63.627302 183.153678 
L 64.83696 183.351791 
L 61.660618 186.061055 
L 62.09227 181.908593 
L 62.941129 182.792879 
L 63.121529 182.449793 
L 63.807702 182.810592 
" clip-path="url(#p68fcd1a609)" style="fill: #0000ff"/>
    <path d="M 63.892543 165.734025 
L 63.112782 167.028973 
L 64.654243 167.374082 
L 60.365745 170.62264 
L 61.230825 165.312651 
L 62.256928 166.513615 
L 63.036688 165.218667 
L 63.892543 165.734025 
" clip-path="url(#p68fcd1a609)" style="fill: #0000ff"/>
    <path d="M 63.901712 148.564299 
L 62.282046 151.492152 
L 63.835135 151.780451 
L 59.668761 155.184225 
L 60.33836 149.846062 
L 61.407852 151.008555 
L 63.027519 148.080701 
L 63.901712 148.564299 
" clip-path="url(#p68fcd1a609)" style="fill: #0000ff"/>
    <path d="M 63.922098 131.369227 
L 61.966788 135.829039 
L 63.53981 135.973277 
L 59.704143 139.74581 
L 59.879948 134.368688 
L 61.051823 135.427892 
L 63.007133 130.96808 
L 63.922098 131.369227 
" clip-path="url(#p68fcd1a609)" style="fill: #0000ff"/>
    <path d="M 63.944185 114.154568 
L 62.202475 120.131027 
L 63.780945 120.070738 
L 60.465062 124.307395 
L 59.944386 118.952655 
L 61.243335 119.851506 
L 62.985045 113.875047 
L 63.944185 114.154568 
" clip-path="url(#p68fcd1a609)" style="fill: #0000ff"/>
    <path d="M 63.95943 96.929361 
L 62.915122 104.484047 
L 64.467967 104.194432 
L 61.804709 108.86898 
L 60.509448 103.647233 
L 61.925493 104.347247 
L 62.969801 96.792562 
L 63.95943 96.929361 
" clip-path="url(#p68fcd1a609)" style="fill: #0000ff"/>
    <path d="M 63.964135 79.707115 
L 63.964135 88.934886 
L 65.462695 88.435366 
L 63.464615 93.430566 
L 61.466535 88.435366 
L 62.965095 88.934886 
L 62.965095 79.707115 
L 63.964135 79.707115 
" clip-path="url(#p68fcd1a609)" style="fill: #0000ff"/>
    <path d="M 63.961273 62.499871 
L 65.140597 73.468833 
L 66.577173 72.811982 
L 65.124522 77.992151 
L 62.603911 73.239166 
L 64.147282 73.575629 
L 62.967958 62.606667 
L 63.961273 62.499871 
" clip-path="url(#p68fcd1a609)" style="fill: #0000ff"/>
    <path d="M 63.95667 45.313384 
L 66.18187 58.039207 
L 67.571994 57.289036 
L 66.464169 62.553736 
L 63.635559 57.977349 
L 65.197762 58.211286 
L 62.972561 45.485462 
L 63.95667 45.313384 
" clip-path="url(#p68fcd1a609)" style="fill: #0000ff"/>
    <path d="M 63.954502 28.147949 
L 66.836327 42.608712 
L 68.20836 41.825943 
L 67.225088 47.115321 
L 64.289266 42.606963 
L 65.856554 42.803967 
L 62.974729 28.343204 
L 63.954502 28.147949 
" clip-path="url(#p68fcd1a609)" style="fill: #0000ff"/>
    <path d="M 80.179286 268.16142 
L 81.755847 265.252271 
L 80.200318 264.977438 
L 84.337048 261.537698 
L 83.713719 266.881461 
L 82.634197 265.728277 
L 81.057637 268.637426 
L 80.179286 268.16142 
" clip-path="url(#p68fcd1a609)" style="fill: #0000ff"/>
    <path d="M 80.183101 251.000665 
L 80.873942 249.772612 
L 79.32295 249.473237 
L 83.513509 246.099283 
L 82.805831 251.432532 
L 81.744663 250.262436 
L 81.053822 251.490489 
L 80.183101 251.000665 
" clip-path="url(#p68fcd1a609)" style="fill: #0000ff"/>
    <path d="M 80.275375 233.940436 
L 80.42667 233.59735 
L 79.246117 233.486553 
L 82.131405 230.660868 
L 81.990807 234.696908 
L 81.112842 233.899939 
L 80.961548 234.243025 
L 80.275375 233.940436 
" clip-path="url(#p68fcd1a609)" style="fill: #0000ff"/>
    <path d="M 80.446918 216.953991 
L 80.430812 216.782448 
L 79.932289 217.002311 
L 80.457397 215.222453 
L 81.304634 216.873459 
L 80.773898 216.750235 
L 80.790005 216.921778 
L 80.446918 216.953991 
" clip-path="url(#p68fcd1a609)" style="fill: #0000ff"/>
    <path d="M 80.618462 199.964438 
L 80.438062 199.964438 
L 80.618462 200.505638 
L 78.814464 199.784038 
L 80.618462 199.062439 
L 80.438062 199.603639 
L 80.618462 199.603639 
L 80.618462 199.964438 
" clip-path="url(#p68fcd1a609)" style="fill: #0000ff"/>
    <path d="M 80.790005 182.940079 
L 80.480118 183.111623 
L 81.304634 183.869741 
L 77.519591 184.345624 
L 79.932289 181.390644 
L 80.137031 182.491848 
L 80.446918 182.320305 
L 80.790005 182.940079 
" clip-path="url(#p68fcd1a609)" style="fill: #0000ff"/>
    <path d="M 80.953409 165.846927 
L 80.492784 166.263261 
L 81.868208 167.040056 
L 76.822608 168.907209 
L 79.188627 164.075408 
L 79.822889 165.522099 
L 80.283514 165.105765 
L 80.953409 165.846927 
" clip-path="url(#p68fcd1a609)" style="fill: #0000ff"/>
    <path d="M 81.02178 148.617211 
L 79.913704 150.133638 
L 81.41837 150.614452 
L 76.857989 153.468794 
L 78.191822 148.256766 
L 79.107067 149.544217 
L 80.215143 148.027789 
L 81.02178 148.617211 
" clip-path="url(#p68fcd1a609)" style="fill: #0000ff"/>
    <path d="M 81.07616 131.368734 
L 79.877325 134.111168 
L 81.450502 134.253709 
L 77.618908 138.030379 
L 77.78891 132.653071 
L 78.961927 133.711009 
L 80.160763 130.968574 
L 81.07616 131.368734 
" clip-path="url(#p68fcd1a609)" style="fill: #0000ff"/>
    <path d="M 81.108882 114.109717 
L 80.30316 118.273087 
L 81.869332 118.067395 
L 78.958555 122.591964 
L 77.945966 117.30812 
L 79.322319 118.083269 
L 80.128041 113.919898 
L 81.108882 114.109717 
" clip-path="url(#p68fcd1a609)" style="fill: #0000ff"/>
    <path d="M 81.117982 96.860962 
L 81.117982 102.657869 
L 82.616542 102.158349 
L 80.618462 107.153549 
L 78.620382 102.158349 
L 80.118942 102.657869 
L 80.118942 96.860962 
L 81.117982 96.860962 
" clip-path="url(#p68fcd1a609)" style="fill: #0000ff"/>
    <path d="M 81.113276 79.638716 
L 82.157584 87.193401 
L 83.573629 86.493387 
L 82.278368 91.715134 
L 79.61511 87.040585 
L 81.167955 87.330201 
L 80.123647 79.775515 
L 81.113276 79.638716 
" clip-path="url(#p68fcd1a609)" style="fill: #0000ff"/>
    <path d="M 81.106461 62.446607 
L 83.14605 71.778063 
L 84.503385 70.970076 
L 83.618015 76.276719 
L 80.599391 71.823377 
L 82.170052 71.991389 
L 80.130462 62.659932 
L 81.106461 62.446607 
" clip-path="url(#p68fcd1a609)" style="fill: #0000ff"/>
    <path d="M 81.103792 45.28121 
L 83.80035 56.352115 
L 85.13813 55.512146 
L 84.378934 60.838305 
L 81.255483 56.457848 
L 82.829688 56.58854 
L 80.133131 45.517636 
L 81.103792 45.28121 
" clip-path="url(#p68fcd1a609)" style="fill: #0000ff"/>
    <path d="M 81.106184 28.137655 
L 83.930742 40.902466 
L 85.285988 40.090979 
L 84.414316 45.39989 
L 81.384209 40.954353 
L 82.955298 41.11831 
L 80.130739 28.353499 
L 81.106184 28.137655 
" clip-path="url(#p68fcd1a609)" style="fill: #0000ff"/>
    <path d="M 97.299021 268.239675 
L 98.756331 263.922102 
L 97.176721 263.916143 
L 100.667355 259.822267 
L 100.963018 265.194131 
L 99.702905 264.241599 
L 98.245595 268.559172 
L 97.299021 268.239675 
" clip-path="url(#p68fcd1a609)" style="fill: #0000ff"/>
    <path d="M 97.284504 251.138021 
L 97.829445 248.666525 
L 96.25848 248.831661 
L 99.285251 244.383852 
L 100.160905 249.692107 
L 98.805052 248.881637 
L 98.260111 251.353133 
L 97.284504 251.138021 
" clip-path="url(#p68fcd1a609)" style="fill: #0000ff"/>
    <path d="M 97.273032 234.107357 
L 97.252601 233.454543 
L 95.7704 234.000696 
L 97.611243 228.945437 
L 99.764604 233.875688 
L 98.251152 233.423291 
L 98.271583 234.076105 
L 97.273032 234.107357 
" clip-path="url(#p68fcd1a609)" style="fill: #0000ff"/>
    <path d="M 97.429221 217.118284 
L 97.248822 216.775198 
L 96.399963 217.659484 
L 95.96831 213.507022 
L 99.144653 216.216286 
L 97.934994 216.414399 
L 98.115394 216.757485 
L 97.429221 217.118284 
" clip-path="url(#p68fcd1a609)" style="fill: #0000ff"/>
    <path d="M 97.600765 200.093926 
L 97.290877 199.922382 
L 97.086135 201.023587 
L 94.673437 198.068607 
L 98.45848 198.54449 
L 97.633964 199.302608 
L 97.943851 199.474151 
L 97.600765 200.093926 
" clip-path="url(#p68fcd1a609)" style="fill: #0000ff"/>
    <path d="M 97.772308 183.009778 
L 97.392722 183.009778 
L 97.772308 184.148534 
L 93.976454 182.630192 
L 97.772308 181.111851 
L 97.392722 182.250607 
L 97.772308 182.250607 
L 97.772308 183.009778 
" clip-path="url(#p68fcd1a609)" style="fill: #0000ff"/>
    <path d="M 97.943851 165.852393 
L 97.567804 166.023937 
L 98.45848 166.980535 
L 94.011835 167.191777 
L 97.086135 163.972157 
L 97.224717 165.271842 
L 97.600765 165.100299 
L 97.943851 165.852393 
" clip-path="url(#p68fcd1a609)" style="fill: #0000ff"/>
    <path d="M 98.115394 148.622455 
L 97.815439 148.965542 
L 99.144653 149.522321 
L 94.772754 151.753363 
L 96.399963 147.122679 
L 97.129266 148.365631 
L 97.429221 148.022545 
L 98.115394 148.622455 
" clip-path="url(#p68fcd1a609)" style="fill: #0000ff"/>
    <path d="M 98.24771 131.321992 
L 97.967848 132.189663 
L 99.547394 132.174275 
L 96.112402 136.314948 
L 95.744174 130.947569 
L 97.017043 131.882986 
L 97.296905 131.015316 
L 98.24771 131.321992 
" clip-path="url(#p68fcd1a609)" style="fill: #0000ff"/>
    <path d="M 98.271828 114.014808 
L 98.271828 116.380853 
L 99.770388 115.881333 
L 97.772308 120.876533 
L 95.774228 115.881333 
L 97.272788 116.380853 
L 97.272788 114.014808 
L 98.271828 114.014808 
" clip-path="url(#p68fcd1a609)" style="fill: #0000ff"/>
    <path d="M 98.262728 96.766052 
L 99.06845 100.929422 
L 100.444803 100.154274 
L 99.432214 105.438118 
L 96.521438 100.913548 
L 98.087609 101.119241 
L 97.281887 96.955871 
L 98.262728 96.766052 
" clip-path="url(#p68fcd1a609)" style="fill: #0000ff"/>
    <path d="M 98.251878 79.567355 
L 99.993588 85.543814 
L 101.292537 84.644963 
L 100.771861 89.999703 
L 97.455978 85.763045 
L 99.034448 85.823334 
L 97.292738 79.846876 
L 98.251878 79.567355 
" clip-path="url(#p68fcd1a609)" style="fill: #0000ff"/>
    <path d="M 98.248999 62.403987 
L 100.66593 70.12178 
L 101.946723 69.197241 
L 101.53278 74.561288 
L 98.133189 70.391501 
L 99.712547 70.420345 
L 97.295616 62.702552 
L 98.248999 62.403987 
" clip-path="url(#p68fcd1a609)" style="fill: #0000ff"/>
    <path d="M 98.253751 45.266258 
L 100.851117 54.656722 
L 102.162281 53.775783 
L 101.568162 59.122873 
L 98.310738 54.841106 
L 99.888231 54.923053 
L 97.290865 45.532588 
L 98.253751 45.266258 
" clip-path="url(#p68fcd1a609)" style="fill: #0000ff"/>
    <path d="M 98.26206 28.147275 
L 100.47621 39.178389 
L 101.847163 38.393731 
L 100.871179 43.684458 
L 97.929148 39.180149 
L 99.496706 39.374994 
L 97.282556 28.343879 
L 98.26206 28.147275 
" clip-path="url(#p68fcd1a609)" style="fill: #0000ff"/>
    <path d="M 114.431945 268.326778 
L 115.291078 262.482074 
L 113.735804 262.758346 
L 116.439097 258.106835 
L 117.689479 263.339511 
L 116.279497 262.627365 
L 115.420363 268.472069 
L 114.431945 268.326778 
" clip-path="url(#p68fcd1a609)" style="fill: #0000ff"/>
    <path d="M 114.426722 251.254955 
L 114.350064 247.172687 
L 112.861146 247.700254 
L 114.765089 242.668421 
L 116.856602 247.625226 
L 115.348927 247.15393 
L 115.425586 251.236198 
L 114.426722 251.254955 
" clip-path="url(#p68fcd1a609)" style="fill: #0000ff"/>
    <path d="M 114.443051 234.218742 
L 113.782155 231.704943 
L 112.459857 232.569079 
L 113.122156 227.230006 
L 116.32468 231.552989 
L 114.74836 231.45092 
L 115.409257 233.964719 
L 114.443051 234.218742 
" clip-path="url(#p68fcd1a609)" style="fill: #0000ff"/>
    <path d="M 114.498227 217.195564 
L 113.718466 215.900616 
L 112.692363 217.10158 
L 111.827283 211.791591 
L 116.115782 215.040148 
L 114.574321 215.385258 
L 115.354081 216.680206 
L 114.498227 217.195564 
" clip-path="url(#p68fcd1a609)" style="fill: #0000ff"/>
    <path d="M 114.591206 200.154619 
L 114.130581 199.738286 
L 113.496319 201.184977 
L 111.1303 196.353176 
L 116.175901 198.220329 
L 114.800477 198.997124 
L 115.261102 199.413457 
L 114.591206 200.154619 
" clip-path="url(#p68fcd1a609)" style="fill: #0000ff"/>
    <path d="M 114.754611 183.00624 
L 114.378563 182.834696 
L 114.239981 184.134381 
L 111.165681 180.914761 
L 115.612326 181.126003 
L 114.72165 182.082602 
L 115.097697 182.254145 
L 114.754611 183.00624 
" clip-path="url(#p68fcd1a609)" style="fill: #0000ff"/>
    <path d="M 114.926154 165.776301 
L 114.626199 165.776301 
L 114.926154 166.676167 
L 111.926601 165.476346 
L 114.926154 164.276525 
L 114.626199 165.176391 
L 114.926154 165.176391 
L 114.926154 165.776301 
" clip-path="url(#p68fcd1a609)" style="fill: #0000ff"/>
    <path d="M 115.097697 148.488491 
L 114.931706 148.660034 
L 115.612326 148.986462 
L 113.266248 150.037931 
L 114.239981 147.658538 
L 114.58862 148.328053 
L 114.754611 148.156509 
L 115.097697 148.488491 
" clip-path="url(#p68fcd1a609)" style="fill: #0000ff"/>
    <path d="M 115.26924 131.168654 
L 115.26924 131.51174 
L 116.298499 131.168654 
L 114.926154 134.599516 
L 113.553809 131.168654 
L 114.583068 131.51174 
L 114.583068 131.168654 
L 115.26924 131.168654 
" clip-path="url(#p68fcd1a609)" style="fill: #0000ff"/>
    <path d="M 115.401556 113.861469 
L 115.681418 114.72914 
L 116.954288 113.793723 
L 116.58606 119.161102 
L 113.151067 115.020429 
L 114.730613 115.035817 
L 114.450751 114.168146 
L 115.401556 113.861469 
" clip-path="url(#p68fcd1a609)" style="fill: #0000ff"/>
    <path d="M 115.383853 96.660882 
L 116.582688 99.403316 
L 117.755705 98.345378 
L 117.925707 103.722687 
L 114.094114 99.946016 
L 115.66729 99.803476 
L 114.468455 97.061041 
L 115.383853 96.660882 
" clip-path="url(#p68fcd1a609)" style="fill: #0000ff"/>
    <path d="M 115.383637 79.506542 
L 117.338947 83.966354 
L 118.510821 82.90715 
L 118.686627 88.284272 
L 114.850959 84.511739 
L 116.423981 84.367501 
L 114.468671 79.907689 
L 115.383637 79.506542 
" clip-path="url(#p68fcd1a609)" style="fill: #0000ff"/>
    <path d="M 115.394818 62.380428 
L 117.635103 68.455037 
L 118.868255 67.46785 
L 118.722008 72.845857 
L 115.118941 68.850578 
L 116.697774 68.800719 
L 114.45749 62.72611 
L 115.394818 62.380428 
" clip-path="url(#p68fcd1a609)" style="fill: #0000ff"/>
    <path d="M 115.409827 45.274603 
L 117.385317 52.929559 
L 118.711518 52.071425 
L 118.025025 57.407442 
L 114.842129 53.069986 
L 116.41797 53.179199 
L 114.44248 45.524243 
L 115.409827 45.274603 
" clip-path="url(#p68fcd1a609)" style="fill: #0000ff"/>
    <path d="M 115.421413 28.180473 
L 116.639478 37.44659 
L 118.060152 36.75602 
L 116.730152 41.969027 
L 114.098078 37.276849 
L 115.64896 37.576797 
L 114.430895 28.310681 
L 115.421413 28.180473 
" clip-path="url(#p68fcd1a609)" style="fill: #0000ff"/>
    <path d="M 131.580525 268.406123 
L 131.479756 260.893379 
L 129.98803 261.412953 
L 131.918935 256.391404 
L 133.98383 261.359357 
L 132.478706 260.87998 
L 132.579475 268.392724 
L 131.580525 268.406123 
" clip-path="url(#p68fcd1a609)" style="fill: #0000ff"/>
    <path d="M 131.58798 251.331814 
L 130.560116 245.467404 
L 129.170294 246.218135 
L 130.276002 240.952989 
L 133.106452 245.528238 
L 131.544155 245.29493 
L 132.57202 251.15934 
L 131.58798 251.331814 
" clip-path="url(#p68fcd1a609)" style="fill: #0000ff"/>
    <path d="M 131.610202 234.261466 
L 130.038946 229.912492 
L 128.799287 230.891495 
L 128.981129 225.514574 
L 132.557672 229.533615 
L 130.978542 229.573022 
L 132.549798 233.921996 
L 131.610202 234.261466 
" clip-path="url(#p68fcd1a609)" style="fill: #0000ff"/>
    <path d="M 131.642903 217.179683 
L 130.023237 214.25183 
L 128.953745 215.414322 
L 128.284146 210.07616 
L 132.45052 213.479933 
L 130.897431 213.768232 
L 132.517097 216.696086 
L 131.642903 217.179683 
" clip-path="url(#p68fcd1a609)" style="fill: #0000ff"/>
    <path d="M 131.676682 200.078749 
L 130.568606 198.562322 
L 129.653361 199.849773 
L 128.319527 194.637745 
L 132.879909 197.492086 
L 131.375243 197.9729 
L 132.483318 199.489328 
L 131.676682 200.078749 
" clip-path="url(#p68fcd1a609)" style="fill: #0000ff"/>
    <path d="M 131.736914 182.930148 
L 131.436958 182.587061 
L 130.707655 183.830014 
L 129.080447 179.19933 
L 133.452345 181.430371 
L 132.123131 181.987151 
L 132.423086 182.330237 
L 131.736914 182.930148 
" clip-path="url(#p68fcd1a609)" style="fill: #0000ff"/>
    <path d="M 131.908457 165.642337 
L 131.742466 165.470794 
L 131.393827 166.140309 
L 130.420094 163.760915 
L 132.766173 164.812384 
L 132.085553 165.138812 
L 132.251543 165.310356 
L 131.908457 165.642337 
" clip-path="url(#p68fcd1a609)" style="fill: #0000ff"/>
    <path d="M 132.57952 148.3225 
L 132.32976 147.889903 
L 131.83024 147.889903 
L 131.58048 148.3225 
L 131.83024 148.755097 
L 132.32976 148.755097 
L 132.57952 148.3225 
L 132.32976 147.889903 
" clip-path="url(#p68fcd1a609)" style="fill: #0000ff"/>
    <path d="M 132.251543 131.002663 
L 132.417534 131.174206 
L 132.766173 130.504691 
L 133.739906 132.884085 
L 131.393827 131.832616 
L 132.074447 131.506188 
L 131.908457 131.334644 
L 132.251543 131.002663 
" clip-path="url(#p68fcd1a609)" style="fill: #0000ff"/>
    <path d="M 132.423086 113.714852 
L 132.723042 114.057939 
L 133.452345 112.814986 
L 135.079553 117.44567 
L 130.707655 115.214629 
L 132.036869 114.657849 
L 131.736914 114.314763 
L 132.423086 113.714852 
" clip-path="url(#p68fcd1a609)" style="fill: #0000ff"/>
    <path d="M 132.483318 96.566251 
L 133.591394 98.082678 
L 134.506639 96.795227 
L 135.840473 102.007255 
L 131.280091 99.152914 
L 132.784757 98.6721 
L 131.676682 97.155672 
L 132.483318 96.566251 
" clip-path="url(#p68fcd1a609)" style="fill: #0000ff"/>
    <path d="M 132.517097 79.465317 
L 134.136763 82.39317 
L 135.206255 81.230678 
L 135.875854 86.56884 
L 131.70948 83.165067 
L 133.262569 82.876768 
L 131.642903 79.948914 
L 132.517097 79.465317 
" clip-path="url(#p68fcd1a609)" style="fill: #0000ff"/>
    <path d="M 132.549798 62.383534 
L 134.121054 66.732508 
L 135.360713 65.753505 
L 135.178871 71.130426 
L 131.602328 67.111385 
L 133.181458 67.071978 
L 131.610202 62.723004 
L 132.549798 62.383534 
" clip-path="url(#p68fcd1a609)" style="fill: #0000ff"/>
    <path d="M 132.57202 45.313186 
L 133.599884 51.177596 
L 134.989706 50.426865 
L 133.883998 55.692011 
L 131.053548 51.116762 
L 132.615845 51.35007 
L 131.58798 45.48566 
L 132.57202 45.313186 
" clip-path="url(#p68fcd1a609)" style="fill: #0000ff"/>
    <path d="M 132.579475 28.238877 
L 132.680244 35.751621 
L 134.17197 35.232047 
L 132.241065 40.253596 
L 130.17617 35.285643 
L 131.681294 35.76502 
L 131.580525 28.252276 
L 132.579475 28.238877 
" clip-path="url(#p68fcd1a609)" style="fill: #0000ff"/>
    <path d="M 148.738587 268.464527 
L 147.520522 259.19841 
L 146.099848 259.88898 
L 147.429848 254.675973 
L 150.061922 259.368151 
L 148.51104 259.068203 
L 149.729105 268.334319 
L 148.738587 268.464527 
" clip-path="url(#p68fcd1a609)" style="fill: #0000ff"/>
    <path d="M 148.750173 251.370397 
L 146.774683 243.715441 
L 145.448482 244.573575 
L 146.134975 239.237558 
L 149.317871 243.575014 
L 147.74203 243.465801 
L 149.71752 251.120757 
L 148.750173 251.370397 
" clip-path="url(#p68fcd1a609)" style="fill: #0000ff"/>
    <path d="M 148.765182 234.264572 
L 146.524897 228.189963 
L 145.291745 229.17715 
L 145.437992 223.799143 
L 149.041059 227.794422 
L 147.462226 227.844281 
L 149.70251 233.91889 
L 148.765182 234.264572 
" clip-path="url(#p68fcd1a609)" style="fill: #0000ff"/>
    <path d="M 148.776363 217.138458 
L 146.821053 212.678646 
L 145.649179 213.73785 
L 145.473373 208.360728 
L 149.309041 212.133261 
L 147.736019 212.277499 
L 149.691329 216.737311 
L 148.776363 217.138458 
" clip-path="url(#p68fcd1a609)" style="fill: #0000ff"/>
    <path d="M 148.776147 199.984118 
L 147.577312 197.241684 
L 146.404295 198.299622 
L 146.234293 192.922313 
L 150.065886 196.698984 
L 148.49271 196.841524 
L 149.691545 199.583959 
L 148.776147 199.984118 
" clip-path="url(#p68fcd1a609)" style="fill: #0000ff"/>
    <path d="M 148.758444 182.783531 
L 148.478582 181.91586 
L 147.205712 182.851277 
L 147.57394 177.483898 
L 151.008933 181.624571 
L 149.429387 181.609183 
L 149.709249 182.476854 
L 148.758444 182.783531 
" clip-path="url(#p68fcd1a609)" style="fill: #0000ff"/>
    <path d="M 148.89076 165.476346 
L 148.89076 165.13326 
L 147.861501 165.476346 
L 149.233846 162.045484 
L 150.606191 165.476346 
L 149.576932 165.13326 
L 149.576932 165.476346 
L 148.89076 165.476346 
" clip-path="url(#p68fcd1a609)" style="fill: #0000ff"/>
    <path d="M 149.062303 148.156509 
L 149.228294 147.984966 
L 148.547674 147.658538 
L 150.893752 146.607069 
L 149.920019 148.986462 
L 149.57138 148.316947 
L 149.405389 148.488491 
L 149.062303 148.156509 
" clip-path="url(#p68fcd1a609)" style="fill: #0000ff"/>
    <path d="M 149.233846 130.868699 
L 149.533801 130.868699 
L 149.233846 129.968833 
L 152.233399 131.168654 
L 149.233846 132.368475 
L 149.533801 131.468609 
L 149.233846 131.468609 
L 149.233846 130.868699 
" clip-path="url(#p68fcd1a609)" style="fill: #0000ff"/>
    <path d="M 149.405389 113.63876 
L 149.781437 113.810304 
L 149.920019 112.510619 
L 152.994319 115.730239 
L 148.547674 115.518997 
L 149.43835 114.562398 
L 149.062303 114.390855 
L 149.405389 113.63876 
" clip-path="url(#p68fcd1a609)" style="fill: #0000ff"/>
    <path d="M 149.568794 96.490381 
L 150.029419 96.906714 
L 150.663681 95.460023 
L 153.0297 100.291824 
L 147.984099 98.424671 
L 149.359523 97.647876 
L 148.898898 97.231543 
L 149.568794 96.490381 
" clip-path="url(#p68fcd1a609)" style="fill: #0000ff"/>
    <path d="M 149.661773 79.449436 
L 150.441534 80.744384 
L 151.467637 79.54342 
L 152.332717 84.853409 
L 148.044218 81.604852 
L 149.585679 81.259742 
L 148.805919 79.964794 
L 149.661773 79.449436 
" clip-path="url(#p68fcd1a609)" style="fill: #0000ff"/>
    <path d="M 149.716949 62.426258 
L 150.377845 64.940057 
L 151.700143 64.075921 
L 151.037844 69.414994 
L 147.83532 65.092011 
L 149.41164 65.19408 
L 148.750743 62.680281 
L 149.716949 62.426258 
" clip-path="url(#p68fcd1a609)" style="fill: #0000ff"/>
    <path d="M 149.733278 45.390045 
L 149.809936 49.472313 
L 151.298854 48.944746 
L 149.394911 53.976579 
L 147.303398 49.019774 
L 148.811073 49.49107 
L 148.734414 45.408802 
L 149.733278 45.390045 
" clip-path="url(#p68fcd1a609)" style="fill: #0000ff"/>
    <path d="M 149.728055 28.318222 
L 148.868922 34.162926 
L 150.424196 33.886654 
L 147.720903 38.538165 
L 146.470521 33.305489 
L 147.880503 34.017635 
L 148.739637 28.172931 
L 149.728055 28.318222 
" clip-path="url(#p68fcd1a609)" style="fill: #0000ff"/>
    <path d="M 165.89794 268.497725 
L 163.68379 257.466611 
L 162.312837 258.251269 
L 163.288821 252.960542 
L 166.230852 257.464851 
L 164.663294 257.270006 
L 166.877444 268.301121 
L 165.89794 268.497725 
" clip-path="url(#p68fcd1a609)" style="fill: #0000ff"/>
    <path d="M 165.906249 251.378742 
L 163.308883 241.988278 
L 161.997719 242.869217 
L 162.591838 237.522127 
L 165.849262 241.803894 
L 164.271769 241.721947 
L 166.869135 251.112412 
L 165.906249 251.378742 
" clip-path="url(#p68fcd1a609)" style="fill: #0000ff"/>
    <path d="M 165.911001 234.241013 
L 163.49407 226.52322 
L 162.213277 227.447759 
L 162.62722 222.083712 
L 166.026811 226.253499 
L 164.447453 226.224655 
L 166.864384 233.942448 
L 165.911001 234.241013 
" clip-path="url(#p68fcd1a609)" style="fill: #0000ff"/>
    <path d="M 165.908122 217.077645 
L 164.166412 211.101186 
L 162.867463 212.000037 
L 163.388139 206.645297 
L 166.704022 210.881955 
L 165.125552 210.821666 
L 166.867262 216.798124 
L 165.908122 217.077645 
" clip-path="url(#p68fcd1a609)" style="fill: #0000ff"/>
    <path d="M 165.897272 199.878948 
L 165.09155 195.715578 
L 163.715197 196.490726 
L 164.727786 191.206882 
L 167.638562 195.731452 
L 166.072391 195.525759 
L 166.878113 199.689129 
L 165.897272 199.878948 
" clip-path="url(#p68fcd1a609)" style="fill: #0000ff"/>
    <path d="M 165.888172 182.630192 
L 165.888172 180.264147 
L 164.389612 180.763667 
L 166.387692 175.768467 
L 168.385772 180.763667 
L 166.887212 180.264147 
L 166.887212 182.630192 
L 165.888172 182.630192 
" clip-path="url(#p68fcd1a609)" style="fill: #0000ff"/>
    <path d="M 165.91229 165.323008 
L 166.192152 164.455337 
L 164.612606 164.470725 
L 168.047598 160.330052 
L 168.415826 165.697431 
L 167.142957 164.762014 
L 166.863095 165.629684 
L 165.91229 165.323008 
" clip-path="url(#p68fcd1a609)" style="fill: #0000ff"/>
    <path d="M 166.044606 148.022545 
L 166.344561 147.679458 
L 165.015347 147.122679 
L 169.387246 144.891637 
L 167.760037 149.522321 
L 167.030734 148.279369 
L 166.730779 148.622455 
L 166.044606 148.022545 
" clip-path="url(#p68fcd1a609)" style="fill: #0000ff"/>
    <path d="M 166.216149 130.792607 
L 166.592196 130.621063 
L 165.70152 129.664465 
L 170.148165 129.453223 
L 167.073865 132.672843 
L 166.935283 131.373158 
L 166.559235 131.544701 
L 166.216149 130.792607 
" clip-path="url(#p68fcd1a609)" style="fill: #0000ff"/>
    <path d="M 166.387692 113.635222 
L 166.767278 113.635222 
L 166.387692 112.496466 
L 170.183546 114.014808 
L 166.387692 115.533149 
L 166.767278 114.394393 
L 166.387692 114.394393 
L 166.387692 113.635222 
" clip-path="url(#p68fcd1a609)" style="fill: #0000ff"/>
    <path d="M 166.559235 96.551074 
L 166.869123 96.722618 
L 167.073865 95.621413 
L 169.486563 98.576393 
L 165.70152 98.10051 
L 166.526036 97.342392 
L 166.216149 97.170849 
L 166.559235 96.551074 
" clip-path="url(#p68fcd1a609)" style="fill: #0000ff"/>
    <path d="M 166.730779 79.526716 
L 166.911178 79.869802 
L 167.760037 78.985516 
L 168.19169 83.137978 
L 165.015347 80.428714 
L 166.225006 80.230601 
L 166.044606 79.887515 
L 166.730779 79.526716 
" clip-path="url(#p68fcd1a609)" style="fill: #0000ff"/>
    <path d="M 166.886968 62.537643 
L 166.907399 63.190457 
L 168.3896 62.644304 
L 166.548757 67.699563 
L 164.395396 62.769312 
L 165.908848 63.221709 
L 165.888417 62.568895 
L 166.886968 62.537643 
" clip-path="url(#p68fcd1a609)" style="fill: #0000ff"/>
    <path d="M 166.875496 45.506979 
L 166.330555 47.978475 
L 167.90152 47.813339 
L 164.874749 52.261148 
L 163.999095 46.952893 
L 165.354948 47.763363 
L 165.899889 45.291867 
L 166.875496 45.506979 
" clip-path="url(#p68fcd1a609)" style="fill: #0000ff"/>
    <path d="M 166.860979 28.405325 
L 165.403669 32.722898 
L 166.983279 32.728857 
L 163.492645 36.822733 
L 163.196982 31.450869 
L 164.457095 32.403401 
L 165.914405 28.085828 
L 166.860979 28.405325 
" clip-path="url(#p68fcd1a609)" style="fill: #0000ff"/>
    <path d="M 183.053816 268.507345 
L 180.229258 255.742534 
L 178.874012 256.554021 
L 179.745684 251.24511 
L 182.775791 255.690647 
L 181.204702 255.52669 
L 184.029261 268.291501 
L 183.053816 268.507345 
" clip-path="url(#p68fcd1a609)" style="fill: #0000ff"/>
    <path d="M 183.056208 251.36379 
L 180.35965 240.292885 
L 179.02187 241.132854 
L 179.781066 235.806695 
L 182.904517 240.187152 
L 181.330312 240.05646 
L 184.026869 251.127364 
L 183.056208 251.36379 
" clip-path="url(#p68fcd1a609)" style="fill: #0000ff"/>
    <path d="M 183.053539 234.198393 
L 181.01395 224.866937 
L 179.656615 225.674924 
L 180.541985 220.368281 
L 183.560609 224.821623 
L 181.989948 224.653611 
L 184.029538 233.985068 
L 183.053539 234.198393 
" clip-path="url(#p68fcd1a609)" style="fill: #0000ff"/>
    <path d="M 183.046724 217.006284 
L 182.002416 209.451599 
L 180.586371 210.151613 
L 181.881632 204.929866 
L 184.54489 209.604415 
L 182.992045 209.314799 
L 184.036353 216.869485 
L 183.046724 217.006284 
" clip-path="url(#p68fcd1a609)" style="fill: #0000ff"/>
    <path d="M 183.042018 199.784038 
L 183.042018 193.987131 
L 181.543458 194.486651 
L 183.541538 189.491451 
L 185.539618 194.486651 
L 184.041058 193.987131 
L 184.041058 199.784038 
L 183.042018 199.784038 
" clip-path="url(#p68fcd1a609)" style="fill: #0000ff"/>
    <path d="M 183.051118 182.535283 
L 183.85684 178.371913 
L 182.290668 178.577605 
L 185.201445 174.053036 
L 186.214034 179.33688 
L 184.837681 178.561731 
L 184.031959 182.725102 
L 183.051118 182.535283 
" clip-path="url(#p68fcd1a609)" style="fill: #0000ff"/>
    <path d="M 183.08384 165.276266 
L 184.282675 162.533832 
L 182.709498 162.391291 
L 186.541092 158.614621 
L 186.37109 163.991929 
L 185.198073 162.933991 
L 183.999237 165.676426 
L 183.08384 165.276266 
" clip-path="url(#p68fcd1a609)" style="fill: #0000ff"/>
    <path d="M 183.13822 148.027789 
L 184.246296 146.511362 
L 182.74163 146.030548 
L 187.302011 143.176206 
L 185.968178 148.388234 
L 185.052933 147.100783 
L 183.944857 148.617211 
L 183.13822 148.027789 
" clip-path="url(#p68fcd1a609)" style="fill: #0000ff"/>
    <path d="M 183.206591 130.798073 
L 183.667216 130.381739 
L 182.291792 129.604944 
L 187.337392 127.737791 
L 184.971373 132.569592 
L 184.337111 131.122901 
L 183.876486 131.539235 
L 183.206591 130.798073 
" clip-path="url(#p68fcd1a609)" style="fill: #0000ff"/>
    <path d="M 183.369995 113.704921 
L 183.679882 113.533377 
L 182.855366 112.775259 
L 186.640409 112.299376 
L 184.227711 115.254356 
L 184.022969 114.153152 
L 183.713082 114.324695 
L 183.369995 113.704921 
" clip-path="url(#p68fcd1a609)" style="fill: #0000ff"/>
    <path d="M 183.541538 96.680562 
L 183.721938 96.680562 
L 183.541538 96.139362 
L 185.345536 96.860962 
L 183.541538 97.582561 
L 183.721938 97.041361 
L 183.541538 97.041361 
L 183.541538 96.680562 
" clip-path="url(#p68fcd1a609)" style="fill: #0000ff"/>
    <path d="M 183.713082 79.691009 
L 183.729188 79.862552 
L 184.227711 79.642689 
L 183.702603 81.422547 
L 182.855366 79.771541 
L 183.386102 79.894765 
L 183.369995 79.723222 
L 183.713082 79.691009 
" clip-path="url(#p68fcd1a609)" style="fill: #0000ff"/>
    <path d="M 183.884625 62.704564 
L 183.73333 63.04765 
L 184.913883 63.158447 
L 182.028595 65.984132 
L 182.169193 61.948092 
L 183.047158 62.745061 
L 183.198452 62.401975 
L 183.884625 62.704564 
" clip-path="url(#p68fcd1a609)" style="fill: #0000ff"/>
    <path d="M 183.976899 45.644335 
L 183.286058 46.872388 
L 184.83705 47.171763 
L 180.646491 50.545717 
L 181.354169 45.212468 
L 182.415337 46.382564 
L 183.106178 45.154511 
L 183.976899 45.644335 
" clip-path="url(#p68fcd1a609)" style="fill: #0000ff"/>
    <path d="M 183.980714 28.48358 
L 182.404153 31.392729 
L 183.959682 31.667562 
L 179.822952 35.107302 
L 180.446281 29.763539 
L 181.525803 30.916723 
L 183.102363 28.007574 
L 183.980714 28.48358 
" clip-path="url(#p68fcd1a609)" style="fill: #0000ff"/>
    <path d="M 200.205498 268.497051 
L 197.323673 254.036288 
L 195.95164 254.819057 
L 196.934912 249.529679 
L 199.870734 254.038037 
L 198.303446 253.841033 
L 201.185271 268.301796 
L 200.205498 268.497051 
" clip-path="url(#p68fcd1a609)" style="fill: #0000ff"/>
    <path d="M 200.20333 251.331616 
L 197.97813 238.605793 
L 196.588006 239.355964 
L 197.695831 234.091264 
L 200.524441 238.667651 
L 198.962238 238.433714 
L 201.187439 251.159538 
L 200.20333 251.331616 
" clip-path="url(#p68fcd1a609)" style="fill: #0000ff"/>
    <path d="M 200.198727 234.145129 
L 199.019403 223.176167 
L 197.582827 223.833018 
L 199.035478 218.652849 
L 201.556089 223.405834 
L 200.012718 223.069371 
L 201.192042 234.038333 
L 200.198727 234.145129 
" clip-path="url(#p68fcd1a609)" style="fill: #0000ff"/>
    <path d="M 200.195865 216.937885 
L 200.195865 207.710114 
L 198.697305 208.209634 
L 200.695385 203.214434 
L 202.693465 208.209634 
L 201.194905 207.710114 
L 201.194905 216.937885 
L 200.195865 216.937885 
" clip-path="url(#p68fcd1a609)" style="fill: #0000ff"/>
    <path d="M 200.20057 199.715639 
L 201.244878 192.160953 
L 199.692033 192.450568 
L 202.355291 187.77602 
L 203.650552 192.997767 
L 202.234507 192.297753 
L 201.190199 199.852438 
L 200.20057 199.715639 
" clip-path="url(#p68fcd1a609)" style="fill: #0000ff"/>
    <path d="M 200.215815 182.490432 
L 201.957525 176.513973 
L 200.379055 176.574262 
L 203.694938 172.337605 
L 204.215614 177.692345 
L 202.916665 176.793494 
L 201.174955 182.769953 
L 200.215815 182.490432 
" clip-path="url(#p68fcd1a609)" style="fill: #0000ff"/>
    <path d="M 200.237902 165.275773 
L 202.193212 160.815961 
L 200.62019 160.671723 
L 204.455857 156.89919 
L 204.280052 162.276312 
L 203.108177 161.217108 
L 201.152867 165.67692 
L 200.237902 165.275773 
" clip-path="url(#p68fcd1a609)" style="fill: #0000ff"/>
    <path d="M 200.258288 148.080701 
L 201.877954 145.152848 
L 200.324865 144.864549 
L 204.491239 141.460775 
L 203.82164 146.798938 
L 202.752148 145.636445 
L 201.132481 148.564299 
L 200.258288 148.080701 
" clip-path="url(#p68fcd1a609)" style="fill: #0000ff"/>
    <path d="M 200.267457 130.910975 
L 201.047218 129.616027 
L 199.505757 129.270918 
L 203.794255 126.02236 
L 202.929175 131.332349 
L 201.903072 130.131385 
L 201.123312 131.426333 
L 200.267457 130.910975 
" clip-path="url(#p68fcd1a609)" style="fill: #0000ff"/>
    <path d="M 200.352298 113.834408 
L 200.532698 113.491322 
L 199.32304 113.293209 
L 202.499382 110.583945 
L 202.06773 114.736407 
L 201.218871 113.852121 
L 201.038471 114.195207 
L 200.352298 113.834408 
" clip-path="url(#p68fcd1a609)" style="fill: #0000ff"/>
    <path d="M 200.523841 96.844855 
L 200.539948 96.673312 
L 200.009212 96.796536 
L 200.85645 95.14553 
L 201.381557 96.925388 
L 200.883034 96.705525 
L 200.866928 96.877068 
L 200.523841 96.844855 
" clip-path="url(#p68fcd1a609)" style="fill: #0000ff"/>
    <path d="M 200.695385 79.85841 
L 200.54409 79.85841 
L 200.695385 80.312293 
L 199.182441 79.707115 
L 200.695385 79.101938 
L 200.54409 79.555821 
L 200.695385 79.555821 
L 200.695385 79.85841 
" clip-path="url(#p68fcd1a609)" style="fill: #0000ff"/>
    <path d="M 200.866928 62.842774 
L 200.577423 63.014317 
L 201.381557 63.711288 
L 197.800337 64.268701 
L 200.009212 61.39525 
L 200.234337 62.435308 
L 200.523841 62.263764 
L 200.866928 62.842774 
" clip-path="url(#p68fcd1a609)" style="fill: #0000ff"/>
    <path d="M 201.03411 45.766555 
L 200.619707 46.148893 
L 202.003014 46.911563 
L 196.976798 48.830286 
L 199.293214 43.97451 
L 199.942257 45.414629 
L 200.35666 45.032291 
L 201.03411 45.766555 
" clip-path="url(#p68fcd1a609)" style="fill: #0000ff"/>
    <path d="M 201.096307 28.543538 
L 199.953292 30.081526 
L 201.454022 30.574488 
L 196.870715 33.391871 
L 198.246639 28.190796 
L 199.151446 29.485603 
L 200.294462 27.947615 
L 201.096307 28.543538 
" clip-path="url(#p68fcd1a609)" style="fill: #0000ff"/>
    <path d="M 217.354931 268.47145 
L 215.003616 252.334974 
L 213.592743 253.045353 
L 214.849677 247.814248 
L 217.547143 252.469141 
L 215.992216 252.19092 
L 218.343531 268.327397 
L 217.354931 268.47145 
" clip-path="url(#p68fcd1a609)" style="fill: #0000ff"/>
    <path d="M 217.351632 251.289349 
L 216.085674 236.897991 
L 214.636651 237.526906 
L 216.189325 232.375833 
L 218.617439 237.17673 
L 217.080871 236.810447 
L 218.346829 251.201805 
L 217.351632 251.289349 
" clip-path="url(#p68fcd1a609)" style="fill: #0000ff"/>
    <path d="M 217.349711 234.091731 
L 217.349711 221.433098 
L 215.851151 221.932618 
L 217.849231 216.937418 
L 219.847311 221.932618 
L 218.348751 221.433098 
L 218.348751 234.091731 
L 217.349711 234.091731 
" clip-path="url(#p68fcd1a609)" style="fill: #0000ff"/>
    <path d="M 217.352573 216.884487 
L 218.531897 205.915525 
L 216.988526 206.251988 
L 219.509137 201.499003 
L 220.961788 206.679172 
L 219.525213 206.022321 
L 218.345888 216.991283 
L 217.352573 216.884487 
" clip-path="url(#p68fcd1a609)" style="fill: #0000ff"/>
    <path d="M 217.361231 199.677376 
L 219.400821 190.345919 
L 217.83016 190.51393 
L 220.848784 186.060588 
L 221.734155 191.367232 
L 220.376819 190.559245 
L 218.33723 199.890701 
L 217.361231 199.677376 
" clip-path="url(#p68fcd1a609)" style="fill: #0000ff"/>
    <path d="M 217.372539 182.48091 
L 219.78947 174.763116 
L 218.210112 174.791961 
L 221.609703 170.622173 
L 222.023646 175.98622 
L 220.742853 175.061681 
L 218.325922 182.779475 
L 217.372539 182.48091 
" clip-path="url(#p68fcd1a609)" style="fill: #0000ff"/>
    <path d="M 217.380566 165.303505 
L 219.620851 159.228896 
L 218.042018 159.179037 
L 221.645085 155.183759 
L 221.791332 160.561765 
L 220.55818 159.574578 
L 218.317895 165.649187 
L 217.380566 165.303505 
" clip-path="url(#p68fcd1a609)" style="fill: #0000ff"/>
    <path d="M 217.379433 148.152765 
L 218.950688 143.803792 
L 217.371559 143.764385 
L 220.948102 139.745344 
L 221.129944 145.122265 
L 219.890285 144.143262 
L 218.319029 148.492235 
L 217.379433 148.152765 
" clip-path="url(#p68fcd1a609)" style="fill: #0000ff"/>
    <path d="M 217.366128 131.041643 
L 218.027024 128.527843 
L 216.450704 128.629912 
L 219.653229 124.306929 
L 220.315527 129.646002 
L 218.99323 128.781866 
L 218.332334 131.295665 
L 217.366128 131.041643 
" clip-path="url(#p68fcd1a609)" style="fill: #0000ff"/>
    <path d="M 217.349955 113.999182 
L 217.370387 113.346368 
L 215.856934 113.798765 
L 218.010296 108.868514 
L 219.851138 113.923773 
L 218.368938 113.37762 
L 218.348506 114.030434 
L 217.349955 113.999182 
" clip-path="url(#p68fcd1a609)" style="fill: #0000ff"/>
    <path d="M 217.506145 97.012256 
L 217.35485 96.66917 
L 216.476886 97.466139 
L 216.336287 93.430099 
L 219.221576 96.255784 
L 218.041023 96.366581 
L 218.192317 96.709667 
L 217.506145 97.012256 
" clip-path="url(#p68fcd1a609)" style="fill: #0000ff"/>
    <path d="M 217.677688 79.99662 
L 217.388183 79.825077 
L 217.163058 80.865134 
L 214.954183 77.991684 
L 218.535403 78.549096 
L 217.731269 79.246068 
L 218.020774 79.417611 
L 217.677688 79.99662 
" clip-path="url(#p68fcd1a609)" style="fill: #0000ff"/>
    <path d="M 217.849231 62.925128 
L 217.477372 62.925128 
L 217.849231 64.040704 
L 214.130644 62.553269 
L 217.849231 61.065834 
L 217.477372 62.181411 
L 217.849231 62.181411 
L 217.849231 62.925128 
" clip-path="url(#p68fcd1a609)" style="fill: #0000ff"/>
    <path d="M 218.020774 45.78189 
L 217.638307 45.953433 
L 218.535403 46.929291 
L 214.024561 47.114854 
L 217.163058 43.869555 
L 217.295221 45.188499 
L 217.677688 45.016956 
L 218.020774 45.78189 
" clip-path="url(#p68fcd1a609)" style="fill: #0000ff"/>
    <path d="M 218.192317 28.56486 
L 217.873034 28.907946 
L 219.221576 29.522708 
L 214.656403 31.676439 
L 216.476886 26.968446 
L 217.186862 28.26938 
L 217.506145 27.926294 
L 218.192317 28.56486 
" clip-path="url(#p68fcd1a609)" style="fill: #0000ff"/>
    <path d="M 234.504935 268.436501 
L 233.178734 250.619173 
L 231.721386 251.22855 
L 233.343171 246.098816 
L 235.706522 250.931923 
L 234.175018 250.545016 
L 235.501219 268.362345 
L 234.504935 268.436501 
" clip-path="url(#p68fcd1a609)" style="fill: #0000ff"/>
    <path d="M 234.503557 251.245577 
L 234.503557 235.156082 
L 233.004997 235.655602 
L 235.003077 230.660402 
L 237.001157 235.655602 
L 235.502597 235.156082 
L 235.502597 251.245577 
L 234.503557 251.245577 
" clip-path="url(#p68fcd1a609)" style="fill: #0000ff"/>
    <path d="M 234.505478 234.047959 
L 235.771436 219.656601 
L 234.234869 220.022883 
L 236.662983 215.221987 
L 238.215657 220.37306 
L 236.766633 219.744145 
L 235.500675 234.135503 
L 234.505478 234.047959 
" clip-path="url(#p68fcd1a609)" style="fill: #0000ff"/>
    <path d="M 234.511023 216.851845 
L 236.736223 204.126022 
L 235.174021 204.359959 
L 238.00263 199.783572 
L 239.110456 205.048272 
L 237.720332 204.2981 
L 235.495131 217.023924 
L 234.511023 216.851845 
" clip-path="url(#p68fcd1a609)" style="fill: #0000ff"/>
    <path d="M 234.517746 199.665826 
L 237.214304 188.594921 
L 235.640099 188.725614 
L 238.76355 184.345157 
L 239.522745 189.671316 
L 238.184965 188.831347 
L 235.488408 199.902251 
L 234.517746 199.665826 
" clip-path="url(#p68fcd1a609)" style="fill: #0000ff"/>
    <path d="M 234.521634 182.497027 
L 237.119001 173.106563 
L 235.541507 173.18851 
L 238.798931 168.906742 
L 239.39305 174.253832 
L 238.081886 173.372893 
L 235.48452 182.763358 
L 234.521634 182.497027 
" clip-path="url(#p68fcd1a609)" style="fill: #0000ff"/>
    <path d="M 234.519403 165.351526 
L 236.494893 157.69657 
L 234.919052 157.805783 
L 238.101948 153.468327 
L 238.788441 158.804344 
L 237.462241 157.94621 
L 235.486751 165.601166 
L 234.519403 165.351526 
" clip-path="url(#p68fcd1a609)" style="fill: #0000ff"/>
    <path d="M 234.511057 148.236263 
L 235.538921 142.371853 
L 233.976625 142.605161 
L 236.807075 138.029912 
L 237.912783 143.295058 
L 236.522961 142.544327 
L 235.495097 148.408737 
L 234.511057 148.236263 
" clip-path="url(#p68fcd1a609)" style="fill: #0000ff"/>
    <path d="M 234.503645 131.159275 
L 234.580303 127.077007 
L 233.072629 127.548303 
L 235.164142 122.591497 
L 237.068085 127.623331 
L 235.579167 127.095764 
L 235.502509 131.178032 
L 234.503645 131.159275 
" clip-path="url(#p68fcd1a609)" style="fill: #0000ff"/>
    <path d="M 234.515274 114.122364 
L 233.970333 111.650867 
L 232.614479 112.461338 
L 233.490134 107.153083 
L 236.516905 111.600891 
L 234.945939 111.435756 
L 235.49088 113.907252 
L 234.515274 114.122364 
" clip-path="url(#p68fcd1a609)" style="fill: #0000ff"/>
    <path d="M 234.567717 97.105873 
L 233.876876 95.877821 
L 232.815707 97.047916 
L 232.108029 91.714668 
L 236.298588 95.088622 
L 234.747596 95.387997 
L 235.438437 96.61605 
L 234.567717 97.105873 
" clip-path="url(#p68fcd1a609)" style="fill: #0000ff"/>
    <path d="M 234.664352 80.074247 
L 234.24995 79.691909 
L 233.600907 81.132029 
L 231.28449 76.276253 
L 236.310706 78.194976 
L 234.9274 78.957646 
L 235.341802 79.339984 
L 234.664352 80.074247 
" clip-path="url(#p68fcd1a609)" style="fill: #0000ff"/>
    <path d="M 234.831534 62.935736 
L 234.449067 62.764193 
L 234.316904 64.083137 
L 231.178407 60.837838 
L 235.689249 61.023401 
L 234.792153 61.999259 
L 235.17462 62.170802 
L 234.831534 62.935736 
" clip-path="url(#p68fcd1a609)" style="fill: #0000ff"/>
    <path d="M 235.003077 45.718706 
L 234.683794 45.718706 
L 235.003077 46.676554 
L 231.810249 45.399423 
L 235.003077 44.122292 
L 234.683794 45.08014 
L 235.003077 45.08014 
L 235.003077 45.718706 
" clip-path="url(#p68fcd1a609)" style="fill: #0000ff"/>
    <path d="M 235.17462 28.440074 
L 234.980123 28.611617 
L 235.689249 29.023565 
L 233.058108 29.961008 
L 234.316904 27.467589 
L 234.637037 28.222623 
L 234.831534 28.05108 
L 235.17462 28.440074 
" clip-path="url(#p68fcd1a609)" style="fill: #0000ff"/>
    <path d="M 251.657403 268.399423 
L 251.657403 248.879065 
L 250.158843 249.378585 
L 252.156923 244.383385 
L 254.155003 249.378585 
L 252.656443 248.879065 
L 252.656443 268.399423 
L 251.657403 268.399423 
" clip-path="url(#p68fcd1a609)" style="fill: #0000ff"/>
    <path d="M 251.658781 251.208499 
L 252.984982 233.39117 
L 251.453478 233.778077 
L 253.816829 228.94497 
L 255.438614 234.074703 
L 253.981266 233.465326 
L 252.655065 251.282655 
L 251.658781 251.208499 
" clip-path="url(#p68fcd1a609)" style="fill: #0000ff"/>
    <path d="M 251.662623 234.019704 
L 254.013938 217.883228 
L 252.459011 218.161448 
L 255.156476 213.506555 
L 256.413411 218.737661 
L 255.002537 218.027281 
L 252.651223 234.163757 
L 251.662623 234.019704 
" clip-path="url(#p68fcd1a609)" style="fill: #0000ff"/>
    <path d="M 251.667036 216.840257 
L 254.548861 202.379494 
L 252.981573 202.576499 
L 255.917396 198.068141 
L 256.900668 203.357519 
L 255.528635 202.57475 
L 252.64681 217.035512 
L 251.667036 216.840257 
" clip-path="url(#p68fcd1a609)" style="fill: #0000ff"/>
    <path d="M 251.669201 199.676117 
L 254.493759 186.911306 
L 252.92267 187.075263 
L 255.952777 182.629726 
L 256.824449 187.938637 
L 255.469204 187.127149 
L 252.644645 199.89196 
L 251.669201 199.676117 
" clip-path="url(#p68fcd1a609)" style="fill: #0000ff"/>
    <path d="M 251.667171 182.53189 
L 253.881321 171.500775 
L 252.313763 171.69562 
L 255.255794 167.191311 
L 256.231778 172.482039 
L 254.860825 171.69738 
L 252.646675 182.728495 
L 251.667171 182.53189 
" clip-path="url(#p68fcd1a609)" style="fill: #0000ff"/>
    <path d="M 251.661664 165.411243 
L 252.879729 156.145126 
L 251.328847 156.445074 
L 253.960921 151.752896 
L 255.290921 156.965903 
L 253.870247 156.275333 
L 252.652182 165.54145 
L 251.661664 165.411243 
" clip-path="url(#p68fcd1a609)" style="fill: #0000ff"/>
    <path d="M 251.657448 148.3158 
L 251.758217 140.803057 
L 250.253093 141.282434 
L 252.317988 136.314481 
L 254.248893 141.33603 
L 252.757167 140.816456 
L 252.656398 148.3292 
L 251.657448 148.3158 
" clip-path="url(#p68fcd1a609)" style="fill: #0000ff"/>
    <path d="M 251.662714 131.241299 
L 250.80358 125.396596 
L 249.393598 126.108742 
L 250.64398 120.876066 
L 253.347273 125.527577 
L 251.791999 125.251305 
L 252.651132 131.096008 
L 251.662714 131.241299 
" clip-path="url(#p68fcd1a609)" style="fill: #0000ff"/>
    <path d="M 251.683636 114.174556 
L 250.226326 109.856983 
L 248.966213 110.809516 
L 249.261876 105.437651 
L 252.752509 109.531527 
L 251.1729 109.537486 
L 252.63021 113.855059 
L 251.683636 114.174556 
" clip-path="url(#p68fcd1a609)" style="fill: #0000ff"/>
    <path d="M 251.717748 97.098965 
L 250.141188 94.189816 
L 249.061665 95.343 
L 248.438336 89.999236 
L 252.575067 93.438976 
L 251.019538 93.71381 
L 252.596098 96.622959 
L 251.717748 97.098965 
" clip-path="url(#p68fcd1a609)" style="fill: #0000ff"/>
    <path d="M 251.756 80.005077 
L 250.612984 78.467089 
L 249.708177 79.761897 
L 248.332253 74.560822 
L 252.91556 77.378204 
L 251.41483 77.871166 
L 252.557846 79.409154 
L 251.756 80.005077 
" clip-path="url(#p68fcd1a609)" style="fill: #0000ff"/>
    <path d="M 251.813837 62.872552 
L 251.494554 62.529466 
L 250.784578 63.830401 
L 248.964095 59.122407 
L 253.529268 61.276138 
L 252.180727 61.8909 
L 252.500009 62.233986 
L 251.813837 62.872552 
" clip-path="url(#p68fcd1a609)" style="fill: #0000ff"/>
    <path d="M 251.98538 45.59392 
L 251.790883 45.422377 
L 251.470751 46.177411 
L 250.211954 43.683992 
L 252.843096 44.621435 
L 252.133969 45.033383 
L 252.328466 45.204926 
L 251.98538 45.59392 
" clip-path="url(#p68fcd1a609)" style="fill: #0000ff"/>
    <path d="M 251.657403 28.245577 
L 251.907163 28.678174 
L 252.406683 28.678174 
L 252.656443 28.245577 
L 252.406683 27.81298 
L 251.907163 27.81298 
L 251.657403 28.245577 
L 251.907163 28.678174 
" clip-path="url(#p68fcd1a609)" style="fill: #0000ff"/>
   </g>
   <g id="matplotlib.axis_1">
    <g id="text_1">
     <!-- $x$ -->
     <g transform="translate(264.96 148.3225) scale(0.16 -0.16)">
      <defs>
       <path id="Cmmi10-78" d="M 500 184 
Q 613 97 819 97 
Q 1019 97 1172 289 
Q 1325 481 1381 709 
L 1672 1844 
Q 1741 2153 1741 2266 
Q 1741 2425 1652 2544 
Q 1563 2663 1403 2663 
Q 1200 2663 1022 2536 
Q 844 2409 722 2214 
Q 600 2019 550 1819 
Q 538 1778 500 1778 
L 422 1778 
Q 372 1778 372 1838 
L 372 1856 
Q 434 2094 584 2320 
Q 734 2547 951 2687 
Q 1169 2828 1416 2828 
Q 1650 2828 1839 2703 
Q 2028 2578 2106 2363 
Q 2216 2559 2386 2693 
Q 2556 2828 2759 2828 
Q 2897 2828 3040 2779 
Q 3184 2731 3275 2631 
Q 3366 2531 3366 2381 
Q 3366 2219 3261 2101 
Q 3156 1984 2994 1984 
Q 2891 1984 2822 2050 
Q 2753 2116 2753 2216 
Q 2753 2350 2845 2451 
Q 2938 2553 3066 2572 
Q 2950 2663 2747 2663 
Q 2541 2663 2389 2472 
Q 2238 2281 2175 2047 
L 1894 916 
Q 1825 659 1825 494 
Q 1825 331 1917 214 
Q 2009 97 2163 97 
Q 2463 97 2698 361 
Q 2934 625 3009 941 
Q 3022 978 3059 978 
L 3138 978 
Q 3163 978 3178 961 
Q 3194 944 3194 922 
Q 3194 916 3188 903 
Q 3097 522 2806 225 
Q 2516 -72 2150 -72 
Q 1916 -72 1727 54 
Q 1538 181 1459 397 
Q 1359 209 1182 68 
Q 1006 -72 806 -72 
Q 669 -72 523 -23 
Q 378 25 287 125 
Q 197 225 197 378 
Q 197 528 301 651 
Q 406 775 563 775 
Q 669 775 741 711 
Q 813 647 813 544 
Q 813 409 723 309 
Q 634 209 500 184 
z
" transform="scale(0.015625)"/>
      </defs>
      <use xlink:href="#Cmmi10-78" transform="translate(0 0.8125)"/>
     </g>
    </g>
   </g>
   <g id="matplotlib.axis_2">
    <g id="text_2">
     <!-- $y$ -->
     <g transform="translate(128.08 12.0825) scale(0.16 -0.16)">
      <defs>
       <path id="Cmmi10-79" d="M 538 -916 
Q 672 -1147 1006 -1147 
Q 1309 -1147 1531 -934 
Q 1753 -722 1889 -420 
Q 2025 -119 2100 197 
Q 1816 -72 1484 -72 
Q 1231 -72 1053 15 
Q 875 103 776 276 
Q 678 450 678 697 
Q 678 906 734 1126 
Q 791 1347 892 1617 
Q 994 1888 1069 2088 
Q 1153 2322 1153 2472 
Q 1153 2663 1013 2663 
Q 759 2663 595 2402 
Q 431 2141 353 1819 
Q 341 1778 300 1778 
L 225 1778 
Q 172 1778 172 1838 
L 172 1856 
Q 275 2238 487 2533 
Q 700 2828 1025 2828 
Q 1253 2828 1411 2678 
Q 1569 2528 1569 2297 
Q 1569 2178 1516 2047 
Q 1488 1969 1388 1706 
Q 1288 1444 1234 1272 
Q 1181 1100 1147 934 
Q 1113 769 1113 603 
Q 1113 391 1203 244 
Q 1294 97 1491 97 
Q 1888 97 2203 581 
L 2688 2553 
Q 2709 2638 2787 2698 
Q 2866 2759 2956 2759 
Q 3034 2759 3092 2709 
Q 3150 2659 3150 2578 
Q 3150 2541 3144 2528 
L 2509 -19 
Q 2425 -347 2200 -647 
Q 1975 -947 1658 -1130 
Q 1341 -1313 997 -1313 
Q 831 -1313 668 -1248 
Q 506 -1184 406 -1056 
Q 306 -928 306 -756 
Q 306 -581 409 -453 
Q 513 -325 684 -325 
Q 788 -325 858 -389 
Q 928 -453 928 -556 
Q 928 -703 818 -812 
Q 709 -922 563 -922 
Q 556 -919 550 -917 
Q 544 -916 538 -916 
z
" transform="scale(0.015625)"/>
      </defs>
      <use xlink:href="#Cmmi10-79" transform="translate(0 0.8125)"/>
     </g>
    </g>
   </g>
   <g id="patch_3">
    <path d="M 132.08 273.2025 
L 132.08 23.4425 
" style="fill: none; stroke: #000000; stroke-width: 0.8; stroke-linejoin: miter; stroke-linecap: square"/>
   </g>
   <g id="patch_4">
    <path d="M 7.2 148.3225 
L 256.96 148.3225 
" style="fill: none; stroke: #000000; stroke-width: 0.8; stroke-linejoin: miter; stroke-linecap: square"/>
   </g>
  </g>
 </g>
 <defs>
  <clipPath id="p68fcd1a609">
   <rect x="7.2" y="23.4425" width="249.76" height="249.76"/>
  </clipPath>
 </defs>
</svg>
