<?xml version="1.0" encoding="utf-8" standalone="no"?>
<!DOCTYPE svg PUBLIC "-//W3C//DTD SVG 1.1//EN"
  "http://www.w3.org/Graphics/SVG/1.1/DTD/svg11.dtd">
<svg xmlns:xlink="http://www.w3.org/1999/xlink" width="760.66582pt" height="335.339567pt" viewBox="0 0 760.66582 335.339567" xmlns="http://www.w3.org/2000/svg" version="1.1">
 <metadata>
  <rdf:RDF xmlns:dc="http://purl.org/dc/elements/1.1/" xmlns:cc="http://creativecommons.org/ns#" xmlns:rdf="http://www.w3.org/1999/02/22-rdf-syntax-ns#">
   <cc:Work>
    <dc:type rdf:resource="http://purl.org/dc/dcmitype/StillImage"/>
    <dc:date>2023-05-16T15:50:20.765128</dc:date>
    <dc:format>image/svg+xml</dc:format>
    <dc:creator>
     <cc:Agent>
      <dc:title>Matplotlib v3.6.2, https://matplotlib.org/</dc:title>
     </cc:Agent>
    </dc:creator>
   </cc:Work>
  </rdf:RDF>
 </metadata>
 <defs>
  <style type="text/css">*{stroke-linejoin: round; stroke-linecap: butt}</style>
 </defs>
 <g id="figure_1">
  <g id="patch_1">
   <path d="M 0 335.339567 
L 760.66582 335.339567 
L 760.66582 0 
L 0 0 
z
" style="fill: #ffffff"/>
  </g>
  <g id="axes_1">
   <g id="patch_2">
    <path d="M 7.2 320.495031 
L 561.6 320.495031 
L 561.6 88.932768 
L 7.2 88.932768 
z
" style="fill: #ffffff"/>
   </g>
   <g id="PathCollection_1">
    <path d="M 155.053914 301.435201 
C 155.991549 301.435201 156.890907 301.062675 157.553914 300.399667 
C 158.216922 299.736659 158.589448 298.837302 158.589448 297.899667 
C 158.589448 296.962032 158.216922 296.062675 157.553914 295.399667 
C 156.890907 294.736659 155.991549 294.364133 155.053914 294.364133 
C 154.11628 294.364133 153.216922 294.736659 152.553914 295.399667 
C 151.890907 296.062675 151.518381 296.962032 151.518381 297.899667 
C 151.518381 298.837302 151.890907 299.736659 152.553914 300.399667 
C 153.216922 301.062675 154.11628 301.435201 155.053914 301.435201 
z
" clip-path="url(#p4ea8113434)"/>
   </g>
   <g id="PathCollection_2">
    <path d="M 97.617454 259.792113 
C 98.555088 259.792113 99.454446 259.419587 100.117454 258.756579 
C 100.780462 258.093571 101.152988 257.194213 101.152988 256.256579 
C 101.152988 255.318944 100.780462 254.419587 100.117454 253.756579 
C 99.454446 253.093571 98.555088 252.721045 97.617454 252.721045 
C 96.679819 252.721045 95.780462 253.093571 95.117454 253.756579 
C 94.454446 254.419587 94.08192 255.318944 94.08192 256.256579 
C 94.08192 257.194213 94.454446 258.093571 95.117454 258.756579 
C 95.780462 259.419587 96.679819 259.792113 97.617454 259.792113 
z
" clip-path="url(#p4ea8113434)"/>
   </g>
   <g id="PathCollection_3">
    <path d="M 103.396289 205.341517 
C 104.333923 205.341517 105.233281 204.968991 105.896289 204.305983 
C 106.559296 203.642975 106.931823 202.743617 106.931823 201.805983 
C 106.931823 200.868348 106.559296 199.968991 105.896289 199.305983 
C 105.233281 198.642975 104.333923 198.270449 103.396289 198.270449 
C 102.458654 198.270449 101.559296 198.642975 100.896289 199.305983 
C 100.233281 199.968991 99.860755 200.868348 99.860755 201.805983 
C 99.860755 202.743617 100.233281 203.642975 100.896289 204.305983 
C 101.559296 204.968991 102.458654 205.341517 103.396289 205.341517 
z
" clip-path="url(#p4ea8113434)"/>
   </g>
   <g id="PathCollection_4">
    <path d="M 161.259472 151.220798 
C 162.197107 151.220798 163.096464 150.848272 163.759472 150.185264 
C 164.42248 149.522256 164.795006 148.622899 164.795006 147.685264 
C 164.795006 146.74763 164.42248 145.848272 163.759472 145.185264 
C 163.096464 144.522256 162.197107 144.14973 161.259472 144.14973 
C 160.321837 144.14973 159.42248 144.522256 158.759472 145.185264 
C 158.096464 145.848272 157.723938 146.74763 157.723938 147.685264 
C 157.723938 148.622899 158.096464 149.522256 158.759472 150.185264 
C 159.42248 150.848272 160.321837 151.220798 161.259472 151.220798 
z
" clip-path="url(#p4ea8113434)"/>
   </g>
   <g id="PathCollection_5">
    <path d="M 350.681014 96.927494 
C 351.618649 96.927494 352.518006 96.554968 353.181014 95.89196 
C 353.844022 95.228953 354.216548 94.329595 354.216548 93.39196 
C 354.216548 92.454326 353.844022 91.554968 353.181014 90.89196 
C 352.518006 90.228953 351.618649 89.856426 350.681014 89.856426 
C 349.74338 89.856426 348.844022 90.228953 348.181014 90.89196 
C 347.518006 91.554968 347.14548 92.454326 347.14548 93.39196 
C 347.14548 94.329595 347.518006 95.228953 348.181014 95.89196 
C 348.844022 96.554968 349.74338 96.927494 350.681014 96.927494 
z
" clip-path="url(#p4ea8113434)"/>
   </g>
   <g id="PathCollection_6">
    <path d="M 438.175595 113.207592 
C 439.113229 113.207592 440.012587 112.835066 440.675595 112.172058 
C 441.338602 111.509051 441.711129 110.609693 441.711129 109.672058 
C 441.711129 108.734424 441.338602 107.835066 440.675595 107.172058 
C 440.012587 106.509051 439.113229 106.136524 438.175595 106.136524 
C 437.23796 106.136524 436.338602 106.509051 435.675595 107.172058 
C 435.012587 107.835066 434.640061 108.734424 434.640061 109.672058 
C 434.640061 110.609693 435.012587 111.509051 435.675595 112.172058 
C 436.338602 112.835066 437.23796 113.207592 438.175595 113.207592 
z
" clip-path="url(#p4ea8113434)"/>
   </g>
   <g id="PathCollection_7">
    <path d="M 497.425146 157.921117 
C 498.362781 157.921117 499.262138 157.54859 499.925146 156.885583 
C 500.588154 156.222575 500.96068 155.323217 500.96068 154.385583 
C 500.96068 153.447948 500.588154 152.54859 499.925146 151.885583 
C 499.262138 151.222575 498.362781 150.850049 497.425146 150.850049 
C 496.487512 150.850049 495.588154 151.222575 494.925146 151.885583 
C 494.262138 152.54859 493.889612 153.447948 493.889612 154.385583 
C 493.889612 155.323217 494.262138 156.222575 494.925146 156.885583 
C 495.588154 157.54859 496.487512 157.921117 497.425146 157.921117 
z
" clip-path="url(#p4ea8113434)"/>
   </g>
   <g id="matplotlib.axis_1"/>
   <g id="matplotlib.axis_2"/>
   <g id="line2d_1">
    <path d="M 497.425146 154.385583 
L 494.350955 150.377931 
L 491.259851 146.684506 
L 488.532821 143.663763 
L 483.821825 138.889026 
L 480.449801 135.76748 
L 477.074551 132.856819 
L 472.570317 129.266365 
L 467.404892 125.511536 
L 463.699452 123.029261 
L 459.15566 120.201106 
L 454.46659 117.508796 
L 450.583521 115.438224 
L 443.277618 111.896104 
L 437.745162 109.493189 
L 430.968239 106.846184 
L 426.101215 105.130903 
L 419.431721 103.013428 
L 414.739084 101.675005 
L 408.537532 100.0861 
L 399.840535 98.180896 
L 393.711841 97.050589 
L 391.221147 96.638948 
L 380.64928 95.183607 
L 370.420467 94.200953 
L 361.359048 93.658153 
L 351.088161 93.394942 
L 344.528613 93.414305 
L 337.722434 93.583567 
L 326.456211 94.187257 
L 319.189566 94.784673 
L 309.69987 95.804182 
L 298.89442 97.288555 
L 288.670213 99.00515 
L 281.355838 100.417631 
L 271.080743 102.660781 
L 262.167729 104.852098 
L 253.201099 107.288617 
L 243.474367 110.198648 
L 233.783914 113.380227 
L 225.477033 116.338494 
L 215.350218 120.244369 
L 205.041946 124.575029 
L 198.308108 127.608352 
L 190.63031 131.27618 
L 181.236552 136.08879 
L 172.343197 141.005142 
L 163.410734 146.336623 
L 157.22847 150.285414 
L 150.743496 154.684039 
L 143.850384 159.686447 
L 137.074077 164.986602 
L 133.108787 168.293198 
L 129.055962 171.854351 
L 124.094951 176.504411 
L 119.529729 181.123374 
L 115.871732 185.113516 
L 111.506861 190.30145 
L 108.051495 194.83636 
L 105.394352 198.666993 
L 102.396722 203.480704 
L 99.91628 208.031156 
L 97.994142 212.098854 
L 96.397327 216.054558 
L 95.535866 218.534624 
L 94.357954 222.615927 
L 93.56663 226.249586 
L 93.160528 228.797396 
L 92.789962 232.594188 
L 92.703713 235.914025 
L 92.836947 239.090968 
L 93.299266 242.977452 
L 93.832339 245.719387 
L 94.96551 249.819034 
L 96.32182 253.443831 
L 97.799514 256.617088 
L 99.69365 260.001759 
L 101.010475 262.052792 
L 103.075166 264.916357 
L 105.857538 268.278487 
L 108.792195 271.377945 
L 112.454087 274.776085 
L 117.011753 278.466524 
L 120.841956 281.215194 
L 124.539955 283.625935 
L 128.32215 285.886035 
L 133.523418 288.710406 
L 138.706529 291.250999 
L 143.941012 293.583284 
L 149.647877 295.897681 
L 155.053914 297.899667 
L 155.053914 297.899667 
" clip-path="url(#p4ea8113434)" style="fill: none; stroke: #000000; stroke-width: 2; stroke-linecap: square"/>
   </g>
   <g id="patch_3">
    <path d="M 155.053914 297.899667 
Q 124.7487 284.550963 96.489834 272.103625 
" clip-path="url(#p4ea8113434)" style="fill: none; stroke: #0000ff; stroke-width: 2; stroke-linecap: round"/>
    <path d="M 103.625864 280.710429 
L 96.489834 272.103625 
L 107.656895 271.558884 
L 103.625864 280.710429 
z
" clip-path="url(#p4ea8113434)" style="fill: #0000ff; stroke: #0000ff; stroke-width: 2; stroke-linecap: round"/>
   </g>
   <g id="patch_4">
    <path d="M 155.053914 297.899667 
Q 126.335684 277.078123 99.427773 257.569112 
" clip-path="url(#p4ea8113434)" style="fill: none; stroke: #ff0000; stroke-width: 2; stroke-linecap: round"/>
    <path d="M 104.588852 267.486938 
L 99.427773 257.569112 
L 110.458681 259.390944 
L 104.588852 267.486938 
z
" clip-path="url(#p4ea8113434)" style="fill: #ff0000; stroke: #ff0000; stroke-width: 2; stroke-linecap: round"/>
   </g>
   <g id="patch_5">
    <path d="M 97.617454 256.256579 
Q 57.739496 249.84839 20.069283 243.794974 
" clip-path="url(#p4ea8113434)" style="fill: none; stroke: #0000ff; stroke-width: 2; stroke-linecap: round"/>
    <path d="M 29.149319 250.318236 
L 20.069283 243.794974 
L 30.735914 240.444903 
L 29.149319 250.318236 
z
" clip-path="url(#p4ea8113434)" style="fill: #0000ff; stroke: #0000ff; stroke-width: 2; stroke-linecap: round"/>
   </g>
   <g id="patch_6">
    <path d="M 97.617454 256.256579 
Q 100.506871 229.031281 103.1603 204.029563 
" clip-path="url(#p4ea8113434)" style="fill: none; stroke: #ff0000; stroke-width: 2; stroke-linecap: round"/>
    <path d="M 97.132852 213.446031 
L 103.1603 204.029563 
L 107.077005 214.501403 
L 97.132852 213.446031 
z
" clip-path="url(#p4ea8113434)" style="fill: #ff0000; stroke: #ff0000; stroke-width: 2; stroke-linecap: round"/>
   </g>
   <g id="patch_7">
    <path d="M 103.396289 201.805983 
Q 64.48147 204.472893 27.797487 206.986919 
" clip-path="url(#p4ea8113434)" style="fill: none; stroke: #0000ff; stroke-width: 2; stroke-linecap: round"/>
    <path d="M 38.115944 211.291503 
L 27.797487 206.986919 
L 37.432228 201.314903 
L 38.115944 211.291503 
z
" clip-path="url(#p4ea8113434)" style="fill: #0000ff; stroke: #0000ff; stroke-width: 2; stroke-linecap: round"/>
   </g>
   <g id="patch_8">
    <path d="M 103.396289 201.805983 
Q 132.32788 174.745623 159.626404 149.212709 
" clip-path="url(#p4ea8113434)" style="fill: none; stroke: #ff0000; stroke-width: 2; stroke-linecap: round"/>
    <path d="M 148.90763 152.391999 
L 159.626404 149.212709 
L 155.738571 159.695302 
L 148.90763 152.391999 
z
" clip-path="url(#p4ea8113434)" style="fill: #ff0000; stroke: #ff0000; stroke-width: 2; stroke-linecap: round"/>
   </g>
   <g id="patch_9">
    <path d="M 161.259472 147.685264 
Q 131.988517 159.372294 104.794222 170.230175 
" clip-path="url(#p4ea8113434)" style="fill: none; stroke: #0000ff; stroke-width: 2; stroke-linecap: round"/>
    <path d="M 115.935356 171.16566 
L 104.794222 170.230175 
L 112.22729 161.878559 
L 115.935356 171.16566 
z
" clip-path="url(#p4ea8113434)" style="fill: #0000ff; stroke: #0000ff; stroke-width: 2; stroke-linecap: round"/>
   </g>
   <g id="patch_10">
    <path d="M 161.259472 147.685264 
Q 255.970243 120.538612 348.5315 94.008069 
" clip-path="url(#p4ea8113434)" style="fill: none; stroke: #ff0000; stroke-width: 2; stroke-linecap: round"/>
    <path d="M 337.540921 91.95693 
L 348.5315 94.008069 
L 340.296242 101.569849 
L 337.540921 91.95693 
z
" clip-path="url(#p4ea8113434)" style="fill: #ff0000; stroke: #ff0000; stroke-width: 2; stroke-linecap: round"/>
   </g>
   <g id="patch_11">
    <path d="M 350.681014 93.39196 
Q 352.980317 114.127874 355.033183 132.641341 
" clip-path="url(#p4ea8113434)" style="fill: none; stroke: #0000ff; stroke-width: 2; stroke-linecap: round"/>
    <path d="M 358.900629 122.15121 
L 355.033183 132.641341 
L 348.961545 123.253305 
L 358.900629 122.15121 
z
" clip-path="url(#p4ea8113434)" style="fill: #0000ff; stroke: #0000ff; stroke-width: 2; stroke-linecap: round"/>
   </g>
   <g id="patch_12">
    <path d="M 350.681014 93.39196 
Q 394.428304 101.532009 435.977258 109.263014 
" clip-path="url(#p4ea8113434)" style="fill: none; stroke: #ff0000; stroke-width: 2; stroke-linecap: round"/>
    <path d="M 427.060649 102.518084 
L 435.977258 109.263014 
L 425.231349 112.349344 
L 427.060649 102.518084 
z
" clip-path="url(#p4ea8113434)" style="fill: #ff0000; stroke: #ff0000; stroke-width: 2; stroke-linecap: round"/>
   </g>
   <g id="patch_13">
    <path d="M 438.175595 109.672058 
Q 455.057327 127.694622 470.410416 144.08524 
" clip-path="url(#p4ea8113434)" style="fill: none; stroke: #0000ff; stroke-width: 2; stroke-linecap: round"/>
    <path d="M 467.223256 133.368804 
L 470.410416 144.08524 
L 459.924971 140.205106 
L 467.223256 133.368804 
z
" clip-path="url(#p4ea8113434)" style="fill: #0000ff; stroke: #0000ff; stroke-width: 2; stroke-linecap: round"/>
   </g>
   <g id="patch_14">
    <path d="M 438.175595 109.672058 
Q 467.80037 132.02882 495.640296 153.03862 
" clip-path="url(#p4ea8113434)" style="fill: none; stroke: #ff0000; stroke-width: 2; stroke-linecap: round"/>
    <path d="M 490.670103 143.023772 
L 495.640296 153.03862 
L 484.646302 151.005865 
L 490.670103 143.023772 
z
" clip-path="url(#p4ea8113434)" style="fill: #ff0000; stroke: #ff0000; stroke-width: 2; stroke-linecap: round"/>
   </g>
   <g id="patch_15">
    <path d="M 497.425146 154.385583 
Q 524.181804 164.955893 548.858796 174.704624 
" clip-path="url(#p4ea8113434)" style="fill: none; stroke: #0000ff; stroke-width: 2; stroke-linecap: round"/>
    <path d="M 541.395356 166.380138 
L 548.858796 174.704624 
L 537.721144 175.680684 
L 541.395356 166.380138 
z
" clip-path="url(#p4ea8113434)" style="fill: #0000ff; stroke: #0000ff; stroke-width: 2; stroke-linecap: round"/>
   </g>
   <g id="text_1">
    <!-- $P=\mathbf{r}_0$ -->
    <g transform="translate(130.875036 322.940349) scale(0.25 -0.25)">
     <defs>
      <path id="Cmmi10-50" d="M 313 0 
Q 250 0 250 84 
Q 253 100 262 139 
Q 272 178 289 201 
Q 306 225 331 225 
Q 722 225 878 269 
Q 959 297 997 441 
L 1875 3956 
Q 1888 4019 1888 4044 
Q 1888 4113 1813 4122 
Q 1691 4147 1350 4147 
Q 1288 4147 1288 4231 
Q 1291 4247 1300 4286 
Q 1309 4325 1326 4348 
Q 1344 4372 1369 4372 
L 3578 4372 
Q 3881 4372 4165 4264 
Q 4450 4156 4631 3934 
Q 4813 3713 4813 3397 
Q 4813 2991 4527 2672 
Q 4241 2353 3814 2175 
Q 3388 1997 2988 1997 
L 1947 1997 
L 1556 416 
Q 1544 353 1544 325 
Q 1544 300 1551 283 
Q 1559 266 1573 261 
Q 1588 256 1619 250 
Q 1741 225 2081 225 
Q 2144 225 2144 141 
Q 2122 50 2109 25 
Q 2097 0 2034 0 
L 313 0 
z
M 1978 2188 
L 2875 2188 
Q 3497 2188 3822 2522 
Q 3988 2688 4092 3000 
Q 4197 3313 4197 3566 
Q 4197 3881 3956 4014 
Q 3716 4147 3359 4147 
L 2747 4147 
Q 2572 4147 2515 4117 
Q 2459 4088 2413 3928 
L 1978 2188 
z
" transform="scale(0.015625)"/>
      <path id="Cmr10-3d" d="M 481 850 
Q 428 850 393 890 
Q 359 931 359 978 
Q 359 1031 393 1068 
Q 428 1106 481 1106 
L 4500 1106 
Q 4547 1106 4581 1068 
Q 4616 1031 4616 978 
Q 4616 931 4581 890 
Q 4547 850 4500 850 
L 481 850 
z
M 481 2094 
Q 428 2094 393 2131 
Q 359 2169 359 2222 
Q 359 2269 393 2309 
Q 428 2350 481 2350 
L 4500 2350 
Q 4547 2350 4581 2309 
Q 4616 2269 4616 2222 
Q 4616 2169 4581 2131 
Q 4547 2094 4500 2094 
L 481 2094 
z
" transform="scale(0.015625)"/>
      <path id="Cmb10-72" d="M 91 0 
L 91 325 
L 531 325 
L 531 2322 
Q 531 2503 91 2503 
L 91 2828 
L 1178 2881 
L 1178 2356 
Q 1269 2594 1436 2737 
Q 1603 2881 1838 2881 
Q 2006 2881 2173 2822 
Q 2341 2763 2450 2641 
Q 2559 2519 2559 2344 
Q 2559 2178 2443 2059 
Q 2328 1941 2156 1941 
Q 1984 1941 1868 2059 
Q 1753 2178 1753 2344 
Q 1753 2513 1856 2625 
L 1838 2625 
Q 1488 2625 1367 2248 
Q 1247 1872 1247 1416 
L 1247 325 
L 1806 325 
L 1806 0 
L 91 0 
z
" transform="scale(0.015625)"/>
      <path id="Cmr10-30" d="M 1600 -141 
Q 816 -141 533 504 
Q 250 1150 250 2041 
Q 250 2597 351 3087 
Q 453 3578 754 3920 
Q 1056 4263 1600 4263 
Q 2022 4263 2290 4056 
Q 2559 3850 2700 3523 
Q 2841 3197 2892 2823 
Q 2944 2450 2944 2041 
Q 2944 1491 2842 1011 
Q 2741 531 2444 195 
Q 2147 -141 1600 -141 
z
M 1600 25 
Q 1956 25 2131 390 
Q 2306 756 2347 1200 
Q 2388 1644 2388 2144 
Q 2388 2625 2347 3031 
Q 2306 3438 2132 3767 
Q 1959 4097 1600 4097 
Q 1238 4097 1063 3765 
Q 888 3434 847 3029 
Q 806 2625 806 2144 
Q 806 1788 823 1472 
Q 841 1156 916 820 
Q 991 484 1158 254 
Q 1325 25 1600 25 
z
" transform="scale(0.015625)"/>
     </defs>
     <use xlink:href="#Cmmi10-50" transform="translate(0 0.6875)"/>
     <use xlink:href="#Cmr10-3d" transform="translate(81.767578 0.6875)"/>
     <use xlink:href="#Cmb10-72" transform="translate(177.011719 0.6875)"/>
     <use xlink:href="#Cmr10-30" transform="translate(224.151641 -16.31875) scale(0.7)"/>
    </g>
   </g>
   <g id="text_2">
    <!-- $\mathbf{r}_1$ -->
    <g transform="translate(68.35021 272.226138) scale(0.25 -0.25)">
     <defs>
      <path id="Cmr10-31" d="M 594 0 
L 594 225 
Q 1394 225 1394 428 
L 1394 3788 
Q 1063 3628 556 3628 
L 556 3853 
Q 1341 3853 1741 4263 
L 1831 4263 
Q 1853 4263 1873 4245 
Q 1894 4228 1894 4206 
L 1894 428 
Q 1894 225 2694 225 
L 2694 0 
L 594 0 
z
" transform="scale(0.015625)"/>
     </defs>
     <use xlink:href="#Cmb10-72" transform="translate(0 0.984375)"/>
     <use xlink:href="#Cmr10-31" transform="translate(47.139922 -16.021875) scale(0.7)"/>
    </g>
   </g>
   <g id="text_3">
    <!-- $\mathbf{r}_2$ -->
    <g transform="translate(110.413533 208.70442) scale(0.25 -0.25)">
     <defs>
      <path id="Cmr10-32" d="M 319 0 
L 319 172 
Q 319 188 331 206 
L 1325 1306 
Q 1550 1550 1690 1715 
Q 1831 1881 1968 2097 
Q 2106 2313 2186 2536 
Q 2266 2759 2266 3009 
Q 2266 3272 2169 3511 
Q 2072 3750 1880 3894 
Q 1688 4038 1416 4038 
Q 1138 4038 916 3870 
Q 694 3703 603 3438 
Q 628 3444 672 3444 
Q 816 3444 917 3347 
Q 1019 3250 1019 3097 
Q 1019 2950 917 2848 
Q 816 2747 672 2747 
Q 522 2747 420 2851 
Q 319 2956 319 3097 
Q 319 3338 409 3548 
Q 500 3759 670 3923 
Q 841 4088 1055 4175 
Q 1269 4263 1509 4263 
Q 1875 4263 2190 4108 
Q 2506 3953 2690 3670 
Q 2875 3388 2875 3009 
Q 2875 2731 2753 2481 
Q 2631 2231 2440 2026 
Q 2250 1822 1953 1562 
Q 1656 1303 1563 1216 
L 838 519 
L 1453 519 
Q 1906 519 2211 526 
Q 2516 534 2534 550 
Q 2609 631 2688 1141 
L 2875 1141 
L 2694 0 
L 319 0 
z
" transform="scale(0.015625)"/>
     </defs>
     <use xlink:href="#Cmb10-72" transform="translate(0 0.984375)"/>
     <use xlink:href="#Cmr10-32" transform="translate(47.139922 -16.021875) scale(0.7)"/>
    </g>
   </g>
   <g id="text_4">
    <!-- $\mathbf{r}_{n-2}$ -->
    <g transform="translate(324.431014 118.432642) scale(0.25 -0.25)">
     <defs>
      <path id="Cmmi10-6e" d="M 494 109 
Q 494 147 500 166 
L 978 2075 
Q 1025 2253 1025 2388 
Q 1025 2663 838 2663 
Q 638 2663 541 2423 
Q 444 2184 353 1819 
Q 353 1800 334 1789 
Q 316 1778 300 1778 
L 225 1778 
Q 203 1778 187 1801 
Q 172 1825 172 1844 
Q 241 2122 305 2315 
Q 369 2509 505 2668 
Q 641 2828 844 2828 
Q 1084 2828 1268 2676 
Q 1453 2525 1453 2291 
Q 1644 2541 1900 2684 
Q 2156 2828 2444 2828 
Q 2672 2828 2837 2750 
Q 3003 2672 3095 2514 
Q 3188 2356 3188 2138 
Q 3188 1875 3070 1503 
Q 2953 1131 2778 672 
Q 2688 463 2688 288 
Q 2688 97 2834 97 
Q 3084 97 3251 365 
Q 3419 634 3488 941 
Q 3500 978 3541 978 
L 3616 978 
Q 3641 978 3658 962 
Q 3675 947 3675 922 
Q 3675 916 3669 903 
Q 3581 541 3364 234 
Q 3147 -72 2822 -72 
Q 2597 -72 2437 83 
Q 2278 238 2278 459 
Q 2278 578 2328 709 
Q 2409 919 2514 1209 
Q 2619 1500 2686 1765 
Q 2753 2031 2753 2234 
Q 2753 2413 2679 2538 
Q 2606 2663 2431 2663 
Q 2197 2663 2000 2559 
Q 1803 2456 1656 2286 
Q 1509 2116 1388 1881 
L 953 141 
Q 931 53 854 -9 
Q 778 -72 684 -72 
Q 606 -72 550 -22 
Q 494 28 494 109 
z
" transform="scale(0.015625)"/>
      <path id="Cmsy10-a1" d="M 653 1472 
Q 600 1472 565 1512 
Q 531 1553 531 1600 
Q 531 1647 565 1687 
Q 600 1728 653 1728 
L 4325 1728 
Q 4375 1728 4408 1687 
Q 4441 1647 4441 1600 
Q 4441 1553 4408 1512 
Q 4375 1472 4325 1472 
L 653 1472 
z
" transform="scale(0.015625)"/>
     </defs>
     <use xlink:href="#Cmb10-72" transform="translate(0 0.984375)"/>
     <use xlink:href="#Cmmi10-6e" transform="translate(47.139922 -16.021875) scale(0.7)"/>
     <use xlink:href="#Cmsy10-a1" transform="translate(101.437773 -16.021875) scale(0.7)"/>
     <use xlink:href="#Cmr10-32" transform="translate(168.108672 -16.021875) scale(0.7)"/>
    </g>
   </g>
   <g id="text_5">
    <!-- $\mathbf{r}_{n-1}$ -->
    <g transform="translate(411.925595 134.71274) scale(0.25 -0.25)">
     <use xlink:href="#Cmb10-72" transform="translate(0 0.984375)"/>
     <use xlink:href="#Cmmi10-6e" transform="translate(47.139922 -16.021875) scale(0.7)"/>
     <use xlink:href="#Cmsy10-a1" transform="translate(101.437773 -16.021875) scale(0.7)"/>
     <use xlink:href="#Cmr10-31" transform="translate(168.108672 -16.021875) scale(0.7)"/>
    </g>
   </g>
   <g id="text_6">
    <!-- $Q=\mathbf{r}_{n}$ -->
    <g transform="translate(479.56739 179.426264) scale(0.25 -0.25)">
     <defs>
      <path id="Cmmi10-51" d="M 1947 -141 
Q 1466 -141 1094 79 
Q 722 300 520 692 
Q 319 1084 319 1563 
Q 319 2259 714 2950 
Q 1109 3641 1756 4077 
Q 2403 4513 3109 4513 
Q 3475 4513 3778 4381 
Q 4081 4250 4290 4017 
Q 4500 3784 4614 3471 
Q 4728 3159 4728 2791 
Q 4728 2366 4581 1936 
Q 4434 1506 4171 1136 
Q 3909 766 3559 484 
Q 3209 203 2809 38 
Q 2850 -256 2934 -425 
Q 3019 -594 3256 -594 
Q 3506 -594 3726 -412 
Q 3947 -231 4006 13 
Q 4019 72 4078 72 
Q 4147 72 4147 -13 
Q 4100 -219 4008 -430 
Q 3916 -641 3786 -823 
Q 3656 -1006 3478 -1123 
Q 3300 -1241 3084 -1241 
Q 2547 -1241 2547 -550 
Q 2547 -509 2562 -332 
Q 2578 -156 2578 -44 
Q 2269 -141 1947 -141 
z
M 1709 300 
Q 1709 44 1991 44 
Q 2275 44 2591 184 
L 2591 244 
Q 2591 503 2509 648 
Q 2428 794 2194 794 
Q 2078 794 1964 723 
Q 1850 653 1779 539 
Q 1709 425 1709 300 
z
M 1544 288 
Q 1544 456 1637 612 
Q 1731 769 1881 864 
Q 2031 959 2203 959 
Q 2481 959 2607 771 
Q 2734 584 2778 281 
Q 3188 525 3500 978 
Q 3813 1431 3977 1973 
Q 4141 2516 4141 3003 
Q 4141 3356 4023 3656 
Q 3906 3956 3664 4140 
Q 3422 4325 3066 4325 
Q 2722 4325 2403 4156 
Q 2084 3988 1813 3706 
Q 1550 3434 1342 3032 
Q 1134 2631 1021 2193 
Q 909 1756 909 1356 
Q 909 947 1068 612 
Q 1228 278 1569 128 
Q 1544 194 1544 288 
z
" transform="scale(0.015625)"/>
     </defs>
     <use xlink:href="#Cmmi10-51" transform="translate(0 0.484375)"/>
     <use xlink:href="#Cmr10-3d" transform="translate(96.5625 0.484375)"/>
     <use xlink:href="#Cmb10-72" transform="translate(191.806641 0.484375)"/>
     <use xlink:href="#Cmmi10-6e" transform="translate(238.946562 -16.521875) scale(0.7)"/>
    </g>
   </g>
   <g id="text_7">
    <!-- $\Delta \mathbf{r}_i=\mathbf{r}_{i}-\mathbf{r}_{i-1}$ -->
    <g style="fill: #ff0000" transform="translate(164.17398 161.208026) scale(0.25 -0.25)">
     <defs>
      <path id="Cmr10-a2" d="M 347 0 
Q 294 0 294 50 
Q 297 56 298 59 
Q 300 63 300 72 
L 2503 4513 
Q 2531 4581 2619 4581 
L 2706 4581 
Q 2794 4581 2822 4513 
L 5025 72 
Q 5028 66 5029 61 
Q 5031 56 5031 50 
Q 5031 0 4978 0 
L 347 0 
z
M 769 513 
L 4141 513 
L 2456 3909 
L 769 513 
z
" transform="scale(0.015625)"/>
      <path id="Cmmi10-69" d="M 500 459 
Q 500 578 550 709 
L 1069 2088 
Q 1153 2322 1153 2472 
Q 1153 2663 1013 2663 
Q 759 2663 595 2402 
Q 431 2141 353 1819 
Q 341 1778 300 1778 
L 225 1778 
Q 172 1778 172 1838 
L 172 1856 
Q 275 2238 487 2533 
Q 700 2828 1025 2828 
Q 1253 2828 1411 2678 
Q 1569 2528 1569 2297 
Q 1569 2178 1516 2047 
L 997 672 
Q 909 459 909 288 
Q 909 97 1056 97 
Q 1306 97 1473 364 
Q 1641 631 1709 941 
Q 1722 978 1759 978 
L 1838 978 
Q 1863 978 1878 961 
Q 1894 944 1894 922 
Q 1894 916 1888 903 
Q 1800 541 1583 234 
Q 1366 -72 1044 -72 
Q 819 -72 659 83 
Q 500 238 500 459 
z
M 1222 3878 
Q 1222 4013 1334 4122 
Q 1447 4231 1581 4231 
Q 1691 4231 1761 4164 
Q 1831 4097 1831 3994 
Q 1831 3850 1717 3742 
Q 1603 3634 1466 3634 
Q 1363 3634 1292 3704 
Q 1222 3775 1222 3878 
z
" transform="scale(0.015625)"/>
     </defs>
     <use xlink:href="#Cmr10-a2" transform="translate(0 0.421875)"/>
     <use xlink:href="#Cmb10-72" transform="translate(83.300781 0.421875)"/>
     <use xlink:href="#Cmmi10-69" transform="translate(130.440703 -16.584375) scale(0.7)"/>
     <use xlink:href="#Cmr10-3d" transform="translate(178.47332 0.421875)"/>
     <use xlink:href="#Cmb10-72" transform="translate(273.717461 0.421875)"/>
     <use xlink:href="#Cmmi10-69" transform="translate(320.857383 -16.584375) scale(0.7)"/>
     <use xlink:href="#Cmsy10-a1" transform="translate(368.89 0.421875)"/>
     <use xlink:href="#Cmb10-72" transform="translate(464.134141 0.421875)"/>
     <use xlink:href="#Cmmi10-69" transform="translate(511.274063 -16.584375) scale(0.7)"/>
     <use xlink:href="#Cmsy10-a1" transform="translate(547.661758 -16.584375) scale(0.7)"/>
     <use xlink:href="#Cmr10-31" transform="translate(614.332656 -16.584375) scale(0.7)"/>
    </g>
   </g>
  </g>
 </g>
 <defs>
  <clipPath id="p4ea8113434">
   <rect x="7.2" y="88.932768" width="554.4" height="231.562264"/>
  </clipPath>
 </defs>
</svg>
