<?xml version="1.0" encoding="utf-8" standalone="no"?>
<!DOCTYPE svg PUBLIC "-//W3C//DTD SVG 1.1//EN"
  "http://www.w3.org/Graphics/SVG/1.1/DTD/svg11.dtd">
<svg xmlns:xlink="http://www.w3.org/1999/xlink" width="744.831365pt" height="334.710455pt" viewBox="0 0 744.831365 334.710455" xmlns="http://www.w3.org/2000/svg" version="1.1">
 <metadata>
  <rdf:RDF xmlns:dc="http://purl.org/dc/elements/1.1/" xmlns:cc="http://creativecommons.org/ns#" xmlns:rdf="http://www.w3.org/1999/02/22-rdf-syntax-ns#">
   <cc:Work>
    <dc:type rdf:resource="http://purl.org/dc/dcmitype/StillImage"/>
    <dc:date>2023-05-16T15:29:59.372293</dc:date>
    <dc:format>image/svg+xml</dc:format>
    <dc:creator>
     <cc:Agent>
      <dc:title>Matplotlib v3.6.2, https://matplotlib.org/</dc:title>
     </cc:Agent>
    </dc:creator>
   </cc:Work>
  </rdf:RDF>
 </metadata>
 <defs>
  <style type="text/css">*{stroke-linejoin: round; stroke-linecap: butt}</style>
 </defs>
 <g id="figure_1">
  <g id="patch_1">
   <path d="M 0 334.710455 
L 744.831365 334.710455 
L 744.831365 0 
L 0 0 
z
" style="fill: #ffffff"/>
  </g>
  <g id="axes_1">
   <g id="patch_2">
    <path d="M 7.2 327.510455 
L 533.093977 327.510455 
L 533.093977 111.525844 
L 7.2 111.525844 
z
" style="fill: #ffffff"/>
   </g>
   <g id="PathCollection_1">
    <path d="M 289.175942 308.261154 
C 290.113577 308.261154 291.012935 307.888628 291.675942 307.22562 
C 292.33895 306.562612 292.711476 305.663254 292.711476 304.72562 
C 292.711476 303.787985 292.33895 302.888628 291.675942 302.22562 
C 291.012935 301.562612 290.113577 301.190086 289.175942 301.190086 
C 288.238308 301.190086 287.33895 301.562612 286.675942 302.22562 
C 286.012935 302.888628 285.640408 303.787985 285.640408 304.72562 
C 285.640408 305.663254 286.012935 306.562612 286.675942 307.22562 
C 287.33895 307.888628 288.238308 308.261154 289.175942 308.261154 
z
" clip-path="url(#pf3538ab595)"/>
   </g>
   <g id="PathCollection_2">
    <path d="M 491.294774 119.214928 
C 492.232408 119.214928 493.131766 118.842402 493.794774 118.179394 
C 494.457781 117.516387 494.830308 116.617029 494.830308 115.679394 
C 494.830308 114.74176 494.457781 113.842402 493.794774 113.179394 
C 493.131766 112.516387 492.232408 112.143861 491.294774 112.143861 
C 490.357139 112.143861 489.457781 112.516387 488.794774 113.179394 
C 488.131766 113.842402 487.75924 114.74176 487.75924 115.679394 
C 487.75924 116.617029 488.131766 117.516387 488.794774 118.179394 
C 489.457781 118.842402 490.357139 119.214928 491.294774 119.214928 
z
" clip-path="url(#pf3538ab595)"/>
   </g>
   <g id="matplotlib.axis_1"/>
   <g id="matplotlib.axis_2"/>
   <g id="line2d_1">
    <path d="M 491.294774 115.679394 
L 478.462802 123.942605 
L 465.838278 132.356584 
L 454.710334 140.02259 
L 443.166641 148.23919 
L 431.220952 157.046105 
L 420.642557 165.123589 
L 410.004876 173.532128 
L 400.523982 181.287875 
L 390.220571 190.021011 
L 381.199974 197.951133 
L 372.29829 206.062286 
L 363.709162 214.184342 
L 356.186348 221.560951 
L 348.407827 229.47379 
L 341.171127 237.124449 
L 334.053385 244.952794 
L 326.596046 253.518337 
L 320.183936 261.220796 
L 314.164305 268.775553 
L 308.042736 276.826479 
L 302.150975 284.981089 
L 297.358553 291.955734 
L 292.043199 300.112749 
L 289.175942 304.72562 
L 289.175942 304.72562 
" clip-path="url(#pf3538ab595)" style="fill: none; stroke: #000000; stroke-width: 2; stroke-linecap: square"/>
   </g>
   <g id="patch_3">
    <path d="M 289.175942 304.72562 
Q 153.244644 314.041262 19.544181 323.204022 
" clip-path="url(#pf3538ab595)" style="fill: none; stroke: #0000ff; stroke-width: 2; stroke-linecap: round"/>
    <path d="M 29.862638 327.508605 
L 19.544181 323.204022 
L 29.178922 317.532006 
L 29.862638 327.508605 
z
" clip-path="url(#pf3538ab595)" style="fill: #0000ff; stroke: #0000ff; stroke-width: 2; stroke-linecap: round"/>
   </g>
   <g id="patch_4">
    <path d="M 316.958192 265.227489 
Q 185.657268 281.126153 56.576199 296.756025 
" clip-path="url(#pf3538ab595)" style="fill: none; stroke: #0000ff; stroke-width: 2; stroke-linecap: round"/>
    <path d="M 67.104725 300.517692 
L 56.576199 296.756025 
L 65.902648 290.590205 
L 67.104725 300.517692 
z
" clip-path="url(#pf3538ab595)" style="fill: #0000ff; stroke: #0000ff; stroke-width: 2; stroke-linecap: round"/>
   </g>
   <g id="patch_5">
    <path d="M 351.618501 226.170576 
Q 226.094296 248.578726 102.771359 270.593913 
" clip-path="url(#pf3538ab595)" style="fill: none; stroke: #0000ff; stroke-width: 2; stroke-linecap: round"/>
    <path d="M 113.494419 273.758715 
L 102.771359 270.593913 
L 111.737036 263.914346 
L 113.494419 273.758715 
z
" clip-path="url(#pf3538ab595)" style="fill: #0000ff; stroke: #0000ff; stroke-width: 2; stroke-linecap: round"/>
   </g>
   <g id="patch_6">
    <path d="M 392.616688 187.960276 
Q 273.925514 216.73681 157.407451 244.986475 
" clip-path="url(#pf3538ab595)" style="fill: none; stroke: #0000ff; stroke-width: 2; stroke-linecap: round"/>
    <path d="M 168.30401 247.489472 
L 157.407451 244.986475 
L 165.947785 237.771026 
L 168.30401 247.489472 
z
" clip-path="url(#pf3538ab595)" style="fill: #0000ff; stroke: #0000ff; stroke-width: 2; stroke-linecap: round"/>
   </g>
   <g id="patch_7">
    <path d="M 439.376978 150.998487 
Q 328.479186 185.935319 219.71413 220.200261 
" clip-path="url(#pf3538ab595)" style="fill: none; stroke: #0000ff; stroke-width: 2; stroke-linecap: round"/>
    <path d="M 230.754408 221.964423 
L 219.71413 220.200261 
L 227.749627 212.426536 
L 230.754408 221.964423 
z
" clip-path="url(#pf3538ab595)" style="fill: #0000ff; stroke: #0000ff; stroke-width: 2; stroke-linecap: round"/>
   </g>
   <g id="patch_8">
    <path d="M 491.294774 115.679394 
Q 389.049947 156.502741 288.88178 196.496939 
" clip-path="url(#pf3538ab595)" style="fill: none; stroke: #0000ff; stroke-width: 2; stroke-linecap: round"/>
    <path d="M 300.022914 197.432424 
L 288.88178 196.496939 
L 296.314848 188.145323 
L 300.022914 197.432424 
z
" clip-path="url(#pf3538ab595)" style="fill: #0000ff; stroke: #0000ff; stroke-width: 2; stroke-linecap: round"/>
   </g>
   <g id="patch_9">
    <path d="M 289.175942 304.72562 
Q 390.235358 210.202507 489.661705 117.206839 
" clip-path="url(#pf3538ab595)" style="fill: none; stroke: #ff0000; stroke-width: 2; stroke-linecap: round"/>
    <path d="M 478.942931 120.386129 
L 489.661705 117.206839 
L 485.773873 127.689433 
L 478.942931 120.386129 
z
" clip-path="url(#pf3538ab595)" style="fill: #ff0000; stroke: #ff0000; stroke-width: 2; stroke-linecap: round"/>
   </g>
   <g id="text_1">
    <!-- $\mathbf{r}_{i-1}$ -->
    <g transform="translate(319.0419 311.624057) scale(0.25 -0.25)">
     <defs>
      <path id="Cmb10-72" d="M 91 0 
L 91 325 
L 531 325 
L 531 2322 
Q 531 2503 91 2503 
L 91 2828 
L 1178 2881 
L 1178 2356 
Q 1269 2594 1436 2737 
Q 1603 2881 1838 2881 
Q 2006 2881 2173 2822 
Q 2341 2763 2450 2641 
Q 2559 2519 2559 2344 
Q 2559 2178 2443 2059 
Q 2328 1941 2156 1941 
Q 1984 1941 1868 2059 
Q 1753 2178 1753 2344 
Q 1753 2513 1856 2625 
L 1838 2625 
Q 1488 2625 1367 2248 
Q 1247 1872 1247 1416 
L 1247 325 
L 1806 325 
L 1806 0 
L 91 0 
z
" transform="scale(0.015625)"/>
      <path id="Cmmi10-69" d="M 500 459 
Q 500 578 550 709 
L 1069 2088 
Q 1153 2322 1153 2472 
Q 1153 2663 1013 2663 
Q 759 2663 595 2402 
Q 431 2141 353 1819 
Q 341 1778 300 1778 
L 225 1778 
Q 172 1778 172 1838 
L 172 1856 
Q 275 2238 487 2533 
Q 700 2828 1025 2828 
Q 1253 2828 1411 2678 
Q 1569 2528 1569 2297 
Q 1569 2178 1516 2047 
L 997 672 
Q 909 459 909 288 
Q 909 97 1056 97 
Q 1306 97 1473 364 
Q 1641 631 1709 941 
Q 1722 978 1759 978 
L 1838 978 
Q 1863 978 1878 961 
Q 1894 944 1894 922 
Q 1894 916 1888 903 
Q 1800 541 1583 234 
Q 1366 -72 1044 -72 
Q 819 -72 659 83 
Q 500 238 500 459 
z
M 1222 3878 
Q 1222 4013 1334 4122 
Q 1447 4231 1581 4231 
Q 1691 4231 1761 4164 
Q 1831 4097 1831 3994 
Q 1831 3850 1717 3742 
Q 1603 3634 1466 3634 
Q 1363 3634 1292 3704 
Q 1222 3775 1222 3878 
z
" transform="scale(0.015625)"/>
      <path id="Cmsy10-a1" d="M 653 1472 
Q 600 1472 565 1512 
Q 531 1553 531 1600 
Q 531 1647 565 1687 
Q 600 1728 653 1728 
L 4325 1728 
Q 4375 1728 4408 1687 
Q 4441 1647 4441 1600 
Q 4441 1553 4408 1512 
Q 4375 1472 4325 1472 
L 653 1472 
z
" transform="scale(0.015625)"/>
      <path id="Cmr10-31" d="M 594 0 
L 594 225 
Q 1394 225 1394 428 
L 1394 3788 
Q 1063 3628 556 3628 
L 556 3853 
Q 1341 3853 1741 4263 
L 1831 4263 
Q 1853 4263 1873 4245 
Q 1894 4228 1894 4206 
L 1894 428 
Q 1894 225 2694 225 
L 2694 0 
L 594 0 
z
" transform="scale(0.015625)"/>
     </defs>
     <use xlink:href="#Cmb10-72" transform="translate(0 0.984375)"/>
     <use xlink:href="#Cmmi10-69" transform="translate(47.139922 -16.021875) scale(0.7)"/>
     <use xlink:href="#Cmsy10-a1" transform="translate(83.527617 -16.021875) scale(0.7)"/>
     <use xlink:href="#Cmr10-31" transform="translate(150.198516 -16.021875) scale(0.7)"/>
    </g>
   </g>
   <g id="text_2">
    <!-- $\mathbf{r}_i$ -->
    <g transform="translate(513.230631 122.577832) scale(0.25 -0.25)">
     <use xlink:href="#Cmb10-72" transform="translate(0 0.984375)"/>
     <use xlink:href="#Cmmi10-69" transform="translate(47.139922 -16.021875) scale(0.7)"/>
    </g>
   </g>
   <g id="text_3">
    <!-- $\Delta \mathbf{r}_i=\mathbf{r}_{i}-\mathbf{r}_{i-1}$ -->
    <g style="fill: #ff0000" transform="translate(389.046583 256.617412) scale(0.25 -0.25)">
     <defs>
      <path id="Cmr10-a2" d="M 347 0 
Q 294 0 294 50 
Q 297 56 298 59 
Q 300 63 300 72 
L 2503 4513 
Q 2531 4581 2619 4581 
L 2706 4581 
Q 2794 4581 2822 4513 
L 5025 72 
Q 5028 66 5029 61 
Q 5031 56 5031 50 
Q 5031 0 4978 0 
L 347 0 
z
M 769 513 
L 4141 513 
L 2456 3909 
L 769 513 
z
" transform="scale(0.015625)"/>
      <path id="Cmr10-3d" d="M 481 850 
Q 428 850 393 890 
Q 359 931 359 978 
Q 359 1031 393 1068 
Q 428 1106 481 1106 
L 4500 1106 
Q 4547 1106 4581 1068 
Q 4616 1031 4616 978 
Q 4616 931 4581 890 
Q 4547 850 4500 850 
L 481 850 
z
M 481 2094 
Q 428 2094 393 2131 
Q 359 2169 359 2222 
Q 359 2269 393 2309 
Q 428 2350 481 2350 
L 4500 2350 
Q 4547 2350 4581 2309 
Q 4616 2269 4616 2222 
Q 4616 2169 4581 2131 
Q 4547 2094 4500 2094 
L 481 2094 
z
" transform="scale(0.015625)"/>
     </defs>
     <use xlink:href="#Cmr10-a2" transform="translate(0 0.421875)"/>
     <use xlink:href="#Cmb10-72" transform="translate(83.300781 0.421875)"/>
     <use xlink:href="#Cmmi10-69" transform="translate(130.440703 -16.584375) scale(0.7)"/>
     <use xlink:href="#Cmr10-3d" transform="translate(178.47332 0.421875)"/>
     <use xlink:href="#Cmb10-72" transform="translate(273.717461 0.421875)"/>
     <use xlink:href="#Cmmi10-69" transform="translate(320.857383 -16.584375) scale(0.7)"/>
     <use xlink:href="#Cmsy10-a1" transform="translate(368.89 0.421875)"/>
     <use xlink:href="#Cmb10-72" transform="translate(464.134141 0.421875)"/>
     <use xlink:href="#Cmmi10-69" transform="translate(511.274063 -16.584375) scale(0.7)"/>
     <use xlink:href="#Cmsy10-a1" transform="translate(547.661758 -16.584375) scale(0.7)"/>
     <use xlink:href="#Cmr10-31" transform="translate(614.332656 -16.584375) scale(0.7)"/>
    </g>
   </g>
  </g>
 </g>
 <defs>
  <clipPath id="pf3538ab595">
   <rect x="7.2" y="111.525844" width="525.893977" height="215.984611"/>
  </clipPath>
 </defs>
</svg>
