<?xml version="1.0" encoding="utf-8" standalone="no"?>
<!DOCTYPE svg PUBLIC "-//W3C//DTD SVG 1.1//EN"
  "http://www.w3.org/Graphics/SVG/1.1/DTD/svg11.dtd">
<svg xmlns:xlink="http://www.w3.org/1999/xlink" width="768.49736pt" height="375.377989pt" viewBox="0 0 768.49736 375.377989" xmlns="http://www.w3.org/2000/svg" version="1.1">
 <metadata>
  <rdf:RDF xmlns:dc="http://purl.org/dc/elements/1.1/" xmlns:cc="http://creativecommons.org/ns#" xmlns:rdf="http://www.w3.org/1999/02/22-rdf-syntax-ns#">
   <cc:Work>
    <dc:type rdf:resource="http://purl.org/dc/dcmitype/StillImage"/>
    <dc:date>2023-05-23T19:03:18.645952</dc:date>
    <dc:format>image/svg+xml</dc:format>
    <dc:creator>
     <cc:Agent>
      <dc:title>Matplotlib v3.6.2, https://matplotlib.org/</dc:title>
     </cc:Agent>
    </dc:creator>
   </cc:Work>
  </rdf:RDF>
 </metadata>
 <defs>
  <style type="text/css">*{stroke-linejoin: round; stroke-linecap: butt}</style>
 </defs>
 <g id="figure_1">
  <g id="patch_1">
   <path d="M 0 375.377989 
L 768.49736 375.377989 
L 768.49736 0 
L 0 0 
z
" style="fill: #ffffff"/>
  </g>
  <g id="axes_1">
   <g id="patch_2">
    <path d="M 7.2 360.78181 
L 548.434125 360.78181 
L 548.434125 116.304987 
L 7.2 116.304987 
z
" style="fill: #ffffff"/>
   </g>
   <g id="PathCollection_1">
    <path d="M 151.542684 341.904464 
C 152.480319 341.904464 153.379676 341.531938 154.042684 340.86893 
C 154.705692 340.205923 155.078218 339.306565 155.078218 338.36893 
C 155.078218 337.431296 154.705692 336.531938 154.042684 335.86893 
C 153.379676 335.205923 152.480319 334.833396 151.542684 334.833396 
C 150.60505 334.833396 149.705692 335.205923 149.042684 335.86893 
C 148.379676 336.531938 148.00715 337.431296 148.00715 338.36893 
C 148.00715 339.306565 148.379676 340.205923 149.042684 340.86893 
C 149.705692 341.531938 150.60505 341.904464 151.542684 341.904464 
z
" clip-path="url(#p5e99ff3524)"/>
   </g>
   <g id="PathCollection_2">
    <path d="M 95.470223 301.250315 
C 96.407857 301.250315 97.307215 300.877789 97.970223 300.214781 
C 98.633231 299.551773 99.005757 298.652416 99.005757 297.714781 
C 99.005757 296.777147 98.633231 295.877789 97.970223 295.214781 
C 97.307215 294.551773 96.407857 294.179247 95.470223 294.179247 
C 94.532588 294.179247 93.633231 294.551773 92.970223 295.214781 
C 92.307215 295.877789 91.934689 296.777147 91.934689 297.714781 
C 91.934689 298.652416 92.307215 299.551773 92.970223 300.214781 
C 93.633231 300.877789 94.532588 301.250315 95.470223 301.250315 
z
" clip-path="url(#p5e99ff3524)"/>
   </g>
   <g id="PathCollection_3">
    <path d="M 101.111822 248.09281 
C 102.049457 248.09281 102.948814 247.720284 103.611822 247.057276 
C 104.27483 246.394268 104.647356 245.494911 104.647356 244.557276 
C 104.647356 243.619642 104.27483 242.720284 103.611822 242.057276 
C 102.948814 241.394268 102.049457 241.021742 101.111822 241.021742 
C 100.174188 241.021742 99.27483 241.394268 98.611822 242.057276 
C 97.948814 242.720284 97.576288 243.619642 97.576288 244.557276 
C 97.576288 245.494911 97.948814 246.394268 98.611822 247.057276 
C 99.27483 247.720284 100.174188 248.09281 101.111822 248.09281 
z
" clip-path="url(#p5e99ff3524)"/>
   </g>
   <g id="PathCollection_4">
    <path d="M 157.600872 195.257349 
C 158.538507 195.257349 159.437865 194.884822 160.100872 194.221815 
C 160.76388 193.558807 161.136406 192.659449 161.136406 191.721815 
C 161.136406 190.78418 160.76388 189.884822 160.100872 189.221815 
C 159.437865 188.558807 158.538507 188.186281 157.600872 188.186281 
C 156.663238 188.186281 155.76388 188.558807 155.100872 189.221815 
C 154.437865 189.884822 154.065338 190.78418 154.065338 191.721815 
C 154.065338 192.659449 154.437865 193.558807 155.100872 194.221815 
C 155.76388 194.884822 156.663238 195.257349 157.600872 195.257349 
z
" clip-path="url(#p5e99ff3524)"/>
   </g>
   <g id="PathCollection_5">
    <path d="M 342.524037 142.253401 
C 343.461672 142.253401 344.361029 141.880874 345.024037 141.217867 
C 345.687045 140.554859 346.059571 139.655501 346.059571 138.717867 
C 346.059571 137.780232 345.687045 136.880874 345.024037 136.217867 
C 344.361029 135.554859 343.461672 135.182333 342.524037 135.182333 
C 341.586403 135.182333 340.687045 135.554859 340.024037 136.217867 
C 339.361029 136.880874 338.988503 137.780232 338.988503 138.717867 
C 338.988503 139.655501 339.361029 140.554859 340.024037 141.217867 
C 340.687045 141.880874 341.586403 142.253401 342.524037 142.253401 
z
" clip-path="url(#p5e99ff3524)"/>
   </g>
   <g id="PathCollection_6">
    <path d="M 427.940799 158.146879 
C 428.878434 158.146879 429.777791 157.774353 430.440799 157.111345 
C 431.103807 156.448338 431.476333 155.54898 431.476333 154.611345 
C 431.476333 153.673711 431.103807 152.774353 430.440799 152.111345 
C 429.777791 151.448338 428.878434 151.075811 427.940799 151.075811 
C 427.003164 151.075811 426.103807 151.448338 425.440799 152.111345 
C 424.777791 152.774353 424.405265 153.673711 424.405265 154.611345 
C 424.405265 155.54898 424.777791 156.448338 425.440799 157.111345 
C 426.103807 157.774353 427.003164 158.146879 427.940799 158.146879 
z
" clip-path="url(#p5e99ff3524)"/>
   </g>
   <g id="PathCollection_7">
    <path d="M 485.783294 201.798548 
C 486.720928 201.798548 487.620286 201.426022 488.283294 200.763014 
C 488.946302 200.100007 489.318828 199.200649 489.318828 198.263014 
C 489.318828 197.32538 488.946302 196.426022 488.283294 195.763014 
C 487.620286 195.100007 486.720928 194.72748 485.783294 194.72748 
C 484.845659 194.72748 483.946302 195.100007 483.283294 195.763014 
C 482.620286 196.426022 482.24776 197.32538 482.24776 198.263014 
C 482.24776 199.200649 482.620286 200.100007 483.283294 200.763014 
C 483.946302 201.426022 484.845659 201.798548 485.783294 201.798548 
z
" clip-path="url(#p5e99ff3524)"/>
   </g>
   <g id="matplotlib.axis_1"/>
   <g id="matplotlib.axis_2"/>
   <g id="line2d_1">
    <path d="M 485.783294 198.263014 
L 481.922793 193.292781 
L 478.120067 188.899716 
L 474.803274 185.40234 
L 471.163189 181.867341 
L 467.05402 178.2048 
L 464.089544 175.751976 
L 460.263027 172.794108 
L 454.362982 168.639533 
L 449.903902 165.787838 
L 444.103307 162.404728 
L 439.052385 159.728522 
L 432.947988 156.794563 
L 428.164382 154.704786 
L 421.464024 152.059432 
L 416.639848 150.342925 
L 411.290301 148.610252 
L 403.656589 146.42699 
L 399.552434 145.384977 
L 392.868565 143.87298 
L 384.621368 142.304719 
L 375.315064 140.902805 
L 369.189854 140.180008 
L 362.203387 139.539247 
L 355.190176 139.084529 
L 347.117886 138.785029 
L 339.114451 138.715191 
L 330.81006 138.872792 
L 321.292686 139.33154 
L 310.874161 140.163272 
L 301.350208 141.216548 
L 292.939024 142.37453 
L 282.95319 144.02248 
L 272.53742 146.054349 
L 264.625073 147.810677 
L 256.354344 149.843437 
L 246.76088 152.455419 
L 238.7676 154.843062 
L 229.182281 157.965011 
L 221.29748 160.75036 
L 210.837524 164.75968 
L 204.666679 167.300064 
L 194.094857 171.971355 
L 184.895054 176.38604 
L 179.430111 179.174141 
L 170.043644 184.275865 
L 162.5207 188.677216 
L 157.511013 191.778727 
L 149.679772 196.931907 
L 142.455494 202.059677 
L 135.801712 207.154509 
L 130.336287 211.654577 
L 125.816213 215.630236 
L 121.634701 219.549951 
L 116.965105 224.257517 
L 113.122507 228.452201 
L 110.204048 231.878117 
L 107.368909 235.452083 
L 105.409784 238.094802 
L 102.334416 242.607811 
L 99.631937 247.067999 
L 97.787827 250.490252 
L 95.90825 254.445707 
L 94.55115 257.743343 
L 93.352584 261.153352 
L 92.176736 265.323553 
L 91.604681 267.947293 
L 90.98868 271.956151 
L 90.710648 275.545155 
L 90.704966 279.230869 
L 90.886897 281.920746 
L 91.211966 284.483842 
L 91.761684 287.36889 
L 92.574461 290.455172 
L 93.440482 293.035619 
L 94.648685 295.985226 
L 96.352795 299.397095 
L 97.812186 301.880661 
L 99.671742 304.651809 
L 101.914822 307.575837 
L 104.729801 310.781477 
L 108.195967 314.217514 
L 111.217297 316.86931 
L 115.296494 320.0633 
L 118.177402 322.104004 
L 121.56035 324.313546 
L 126.112219 327.019704 
L 130.668514 329.472463 
L 134.639873 331.433756 
L 139.008575 333.427367 
L 145.812021 336.238666 
L 151.542684 338.36893 
L 151.542684 338.36893 
" clip-path="url(#p5e99ff3524)" style="fill: none; stroke: #000000; stroke-width: 2; stroke-linecap: square"/>
   </g>
   <g id="patch_3">
    <path d="M 151.542684 338.36893 
Q 121.957157 325.337231 94.417978 313.206898 
" clip-path="url(#p5e99ff3524)" style="fill: none; stroke: #0000ff; stroke-width: 2; stroke-linecap: round"/>
    <path d="M 101.554008 321.813702 
L 94.417978 313.206898 
L 105.585039 312.662156 
L 101.554008 321.813702 
z
" clip-path="url(#p5e99ff3524)" style="fill: #0000ff; stroke: #0000ff; stroke-width: 2; stroke-linecap: round"/>
   </g>
   <g id="patch_4">
    <path d="M 151.542684 338.36893 
Q 123.506453 318.041856 97.280542 299.027315 
" clip-path="url(#p5e99ff3524)" style="fill: none; stroke: #ff0000; stroke-width: 2; stroke-linecap: round"/>
    <path d="M 102.441621 308.94514 
L 97.280542 299.027315 
L 108.31145 300.849146 
L 102.441621 308.94514 
z
" clip-path="url(#p5e99ff3524)" style="fill: #ff0000; stroke: #ff0000; stroke-width: 2; stroke-linecap: round"/>
   </g>
   <g id="patch_5">
    <path d="M 95.470223 297.714781 
Q 56.539286 291.458773 19.816093 285.557539 
" clip-path="url(#p5e99ff3524)" style="fill: none; stroke: #0000ff; stroke-width: 2; stroke-linecap: round"/>
    <path d="M 28.896129 292.080801 
L 19.816093 285.557539 
L 30.482724 282.207468 
L 28.896129 292.080801 
z
" clip-path="url(#p5e99ff3524)" style="fill: #0000ff; stroke: #0000ff; stroke-width: 2; stroke-linecap: round"/>
   </g>
   <g id="patch_6">
    <path d="M 95.470223 297.714781 
Q 98.291022 271.136029 100.875834 246.780856 
" clip-path="url(#p5e99ff3524)" style="fill: none; stroke: #ff0000; stroke-width: 2; stroke-linecap: round"/>
    <path d="M 94.848385 256.197324 
L 100.875834 246.780856 
L 104.792539 257.252696 
L 94.848385 256.197324 
z
" clip-path="url(#p5e99ff3524)" style="fill: #ff0000; stroke: #ff0000; stroke-width: 2; stroke-linecap: round"/>
   </g>
   <g id="patch_7">
    <path d="M 101.111822 244.557276 
Q 63.121152 247.160852 27.361316 249.611545 
" clip-path="url(#p5e99ff3524)" style="fill: none; stroke: #0000ff; stroke-width: 2; stroke-linecap: round"/>
    <path d="M 37.679774 253.916129 
L 27.361316 249.611545 
L 36.996057 243.939529 
L 37.679774 253.916129 
z
" clip-path="url(#p5e99ff3524)" style="fill: #0000ff; stroke: #0000ff; stroke-width: 2; stroke-linecap: round"/>
   </g>
   <g id="patch_8">
    <path d="M 101.111822 244.557276 
Q 129.356347 218.139545 155.967804 193.24926 
" clip-path="url(#p5e99ff3524)" style="fill: none; stroke: #ff0000; stroke-width: 2; stroke-linecap: round"/>
    <path d="M 145.24903 196.428549 
L 155.967804 193.24926 
L 152.079972 203.731853 
L 145.24903 196.428549 
z
" clip-path="url(#p5e99ff3524)" style="fill: #ff0000; stroke: #ff0000; stroke-width: 2; stroke-linecap: round"/>
   </g>
   <g id="patch_9">
    <path d="M 157.600872 191.721815 
Q 129.025043 203.131301 102.525874 213.711639 
" clip-path="url(#p5e99ff3524)" style="fill: none; stroke: #0000ff; stroke-width: 2; stroke-linecap: round"/>
    <path d="M 113.667008 214.647124 
L 102.525874 213.711639 
L 109.958942 205.360023 
L 113.667008 214.647124 
z
" clip-path="url(#p5e99ff3524)" style="fill: #0000ff; stroke: #0000ff; stroke-width: 2; stroke-linecap: round"/>
   </g>
   <g id="patch_10">
    <path d="M 157.600872 191.721815 
Q 250.062455 165.219841 340.374523 139.333975 
" clip-path="url(#p5e99ff3524)" style="fill: none; stroke: #ff0000; stroke-width: 2; stroke-linecap: round"/>
    <path d="M 329.383944 137.282837 
L 340.374523 139.333975 
L 332.139265 146.895755 
L 329.383944 137.282837 
z
" clip-path="url(#p5e99ff3524)" style="fill: #ff0000; stroke: #ff0000; stroke-width: 2; stroke-linecap: round"/>
   </g>
   <g id="patch_11">
    <path d="M 342.524037 138.717867 
Q 344.768736 158.961345 346.766998 176.982376 
" clip-path="url(#p5e99ff3524)" style="fill: none; stroke: #0000ff; stroke-width: 2; stroke-linecap: round"/>
    <path d="M 350.634445 166.492244 
L 346.766998 176.982376 
L 340.695361 167.59434 
L 350.634445 166.492244 
z
" clip-path="url(#p5e99ff3524)" style="fill: #0000ff; stroke: #0000ff; stroke-width: 2; stroke-linecap: round"/>
   </g>
   <g id="patch_12">
    <path d="M 342.524037 138.717867 
Q 385.232418 146.664606 425.742463 154.202301 
" clip-path="url(#p5e99ff3524)" style="fill: none; stroke: #ff0000; stroke-width: 2; stroke-linecap: round"/>
    <path d="M 416.825853 147.457371 
L 425.742463 154.202301 
L 414.996553 157.288631 
L 416.825853 147.457371 
z
" clip-path="url(#p5e99ff3524)" style="fill: #ff0000; stroke: #ff0000; stroke-width: 2; stroke-linecap: round"/>
   </g>
   <g id="patch_13">
    <path d="M 427.940799 154.611345 
Q 444.421625 172.20591 459.373806 188.168529 
" clip-path="url(#p5e99ff3524)" style="fill: none; stroke: #0000ff; stroke-width: 2; stroke-linecap: round"/>
    <path d="M 456.186647 177.452092 
L 459.373806 188.168529 
L 448.888361 184.288395 
L 456.186647 177.452092 
z
" clip-path="url(#p5e99ff3524)" style="fill: #0000ff; stroke: #0000ff; stroke-width: 2; stroke-linecap: round"/>
   </g>
   <g id="patch_14">
    <path d="M 427.940799 154.611345 
Q 456.862046 176.43718 483.998443 196.916051 
" clip-path="url(#p5e99ff3524)" style="fill: none; stroke: #ff0000; stroke-width: 2; stroke-linecap: round"/>
    <path d="M 479.028251 186.901203 
L 483.998443 196.916051 
L 473.004449 194.883297 
L 479.028251 186.901203 
z
" clip-path="url(#p5e99ff3524)" style="fill: #ff0000; stroke: #ff0000; stroke-width: 2; stroke-linecap: round"/>
   </g>
   <g id="patch_15">
    <path d="M 485.783294 198.263014 
Q 511.904535 208.582301 535.946111 218.080009 
" clip-path="url(#p5e99ff3524)" style="fill: none; stroke: #0000ff; stroke-width: 2; stroke-linecap: round"/>
    <path d="M 528.482672 209.755523 
L 535.946111 218.080009 
L 524.808459 219.056069 
L 528.482672 209.755523 
z
" clip-path="url(#p5e99ff3524)" style="fill: #0000ff; stroke: #0000ff; stroke-width: 2; stroke-linecap: round"/>
   </g>
   <g id="text_1">
    <!-- $P=\mathbf{r}_0$ -->
    <g transform="translate(127.148385 362.97877) scale(0.25 -0.25)">
     <defs>
      <path id="Cmmi10-50" d="M 313 0 
Q 250 0 250 84 
Q 253 100 262 139 
Q 272 178 289 201 
Q 306 225 331 225 
Q 722 225 878 269 
Q 959 297 997 441 
L 1875 3956 
Q 1888 4019 1888 4044 
Q 1888 4113 1813 4122 
Q 1691 4147 1350 4147 
Q 1288 4147 1288 4231 
Q 1291 4247 1300 4286 
Q 1309 4325 1326 4348 
Q 1344 4372 1369 4372 
L 3578 4372 
Q 3881 4372 4165 4264 
Q 4450 4156 4631 3934 
Q 4813 3713 4813 3397 
Q 4813 2991 4527 2672 
Q 4241 2353 3814 2175 
Q 3388 1997 2988 1997 
L 1947 1997 
L 1556 416 
Q 1544 353 1544 325 
Q 1544 300 1551 283 
Q 1559 266 1573 261 
Q 1588 256 1619 250 
Q 1741 225 2081 225 
Q 2144 225 2144 141 
Q 2122 50 2109 25 
Q 2097 0 2034 0 
L 313 0 
z
M 1978 2188 
L 2875 2188 
Q 3497 2188 3822 2522 
Q 3988 2688 4092 3000 
Q 4197 3313 4197 3566 
Q 4197 3881 3956 4014 
Q 3716 4147 3359 4147 
L 2747 4147 
Q 2572 4147 2515 4117 
Q 2459 4088 2413 3928 
L 1978 2188 
z
" transform="scale(0.015625)"/>
      <path id="Cmr10-3d" d="M 481 850 
Q 428 850 393 890 
Q 359 931 359 978 
Q 359 1031 393 1068 
Q 428 1106 481 1106 
L 4500 1106 
Q 4547 1106 4581 1068 
Q 4616 1031 4616 978 
Q 4616 931 4581 890 
Q 4547 850 4500 850 
L 481 850 
z
M 481 2094 
Q 428 2094 393 2131 
Q 359 2169 359 2222 
Q 359 2269 393 2309 
Q 428 2350 481 2350 
L 4500 2350 
Q 4547 2350 4581 2309 
Q 4616 2269 4616 2222 
Q 4616 2169 4581 2131 
Q 4547 2094 4500 2094 
L 481 2094 
z
" transform="scale(0.015625)"/>
      <path id="Cmb10-72" d="M 91 0 
L 91 325 
L 531 325 
L 531 2322 
Q 531 2503 91 2503 
L 91 2828 
L 1178 2881 
L 1178 2356 
Q 1269 2594 1436 2737 
Q 1603 2881 1838 2881 
Q 2006 2881 2173 2822 
Q 2341 2763 2450 2641 
Q 2559 2519 2559 2344 
Q 2559 2178 2443 2059 
Q 2328 1941 2156 1941 
Q 1984 1941 1868 2059 
Q 1753 2178 1753 2344 
Q 1753 2513 1856 2625 
L 1838 2625 
Q 1488 2625 1367 2248 
Q 1247 1872 1247 1416 
L 1247 325 
L 1806 325 
L 1806 0 
L 91 0 
z
" transform="scale(0.015625)"/>
      <path id="Cmr10-30" d="M 1600 -141 
Q 816 -141 533 504 
Q 250 1150 250 2041 
Q 250 2597 351 3087 
Q 453 3578 754 3920 
Q 1056 4263 1600 4263 
Q 2022 4263 2290 4056 
Q 2559 3850 2700 3523 
Q 2841 3197 2892 2823 
Q 2944 2450 2944 2041 
Q 2944 1491 2842 1011 
Q 2741 531 2444 195 
Q 2147 -141 1600 -141 
z
M 1600 25 
Q 1956 25 2131 390 
Q 2306 756 2347 1200 
Q 2388 1644 2388 2144 
Q 2388 2625 2347 3031 
Q 2306 3438 2132 3767 
Q 1959 4097 1600 4097 
Q 1238 4097 1063 3765 
Q 888 3434 847 3029 
Q 806 2625 806 2144 
Q 806 1788 823 1472 
Q 841 1156 916 820 
Q 991 484 1158 254 
Q 1325 25 1600 25 
z
" transform="scale(0.015625)"/>
     </defs>
     <use xlink:href="#Cmmi10-50" transform="translate(0 0.6875)"/>
     <use xlink:href="#Cmr10-3d" transform="translate(81.767578 0.6875)"/>
     <use xlink:href="#Cmb10-72" transform="translate(177.011719 0.6875)"/>
     <use xlink:href="#Cmr10-30" transform="translate(224.151641 -16.31875) scale(0.7)"/>
    </g>
   </g>
   <g id="text_2">
    <!-- $\mathbf{r}_1$ -->
    <g transform="translate(66.63382 313.46892) scale(0.25 -0.25)">
     <defs>
      <path id="Cmr10-31" d="M 594 0 
L 594 225 
Q 1394 225 1394 428 
L 1394 3788 
Q 1063 3628 556 3628 
L 556 3853 
Q 1341 3853 1741 4263 
L 1831 4263 
Q 1853 4263 1873 4245 
Q 1894 4228 1894 4206 
L 1894 428 
Q 1894 225 2694 225 
L 2694 0 
L 594 0 
z
" transform="scale(0.015625)"/>
     </defs>
     <use xlink:href="#Cmb10-72" transform="translate(0 0.984375)"/>
     <use xlink:href="#Cmr10-31" transform="translate(47.139922 -16.021875) scale(0.7)"/>
    </g>
   </g>
   <g id="text_3">
    <!-- $\mathbf{r}_2$ -->
    <g transform="translate(107.698225 251.455714) scale(0.25 -0.25)">
     <defs>
      <path id="Cmr10-32" d="M 319 0 
L 319 172 
Q 319 188 331 206 
L 1325 1306 
Q 1550 1550 1690 1715 
Q 1831 1881 1968 2097 
Q 2106 2313 2186 2536 
Q 2266 2759 2266 3009 
Q 2266 3272 2169 3511 
Q 2072 3750 1880 3894 
Q 1688 4038 1416 4038 
Q 1138 4038 916 3870 
Q 694 3703 603 3438 
Q 628 3444 672 3444 
Q 816 3444 917 3347 
Q 1019 3250 1019 3097 
Q 1019 2950 917 2848 
Q 816 2747 672 2747 
Q 522 2747 420 2851 
Q 319 2956 319 3097 
Q 319 3338 409 3548 
Q 500 3759 670 3923 
Q 841 4088 1055 4175 
Q 1269 4263 1509 4263 
Q 1875 4263 2190 4108 
Q 2506 3953 2690 3670 
Q 2875 3388 2875 3009 
Q 2875 2731 2753 2481 
Q 2631 2231 2440 2026 
Q 2250 1822 1953 1562 
Q 1656 1303 1563 1216 
L 838 519 
L 1453 519 
Q 1906 519 2211 526 
Q 2516 534 2534 550 
Q 2609 631 2688 1141 
L 2875 1141 
L 2694 0 
L 319 0 
z
" transform="scale(0.015625)"/>
     </defs>
     <use xlink:href="#Cmb10-72" transform="translate(0 0.984375)"/>
     <use xlink:href="#Cmr10-32" transform="translate(47.139922 -16.021875) scale(0.7)"/>
    </g>
   </g>
   <g id="text_4">
    <!-- $\mathbf{r}_{n-2}$ -->
    <g transform="translate(316.274037 127.904902) scale(0.25 -0.25)">
     <defs>
      <path id="Cmmi10-6e" d="M 494 109 
Q 494 147 500 166 
L 978 2075 
Q 1025 2253 1025 2388 
Q 1025 2663 838 2663 
Q 638 2663 541 2423 
Q 444 2184 353 1819 
Q 353 1800 334 1789 
Q 316 1778 300 1778 
L 225 1778 
Q 203 1778 187 1801 
Q 172 1825 172 1844 
Q 241 2122 305 2315 
Q 369 2509 505 2668 
Q 641 2828 844 2828 
Q 1084 2828 1268 2676 
Q 1453 2525 1453 2291 
Q 1644 2541 1900 2684 
Q 2156 2828 2444 2828 
Q 2672 2828 2837 2750 
Q 3003 2672 3095 2514 
Q 3188 2356 3188 2138 
Q 3188 1875 3070 1503 
Q 2953 1131 2778 672 
Q 2688 463 2688 288 
Q 2688 97 2834 97 
Q 3084 97 3251 365 
Q 3419 634 3488 941 
Q 3500 978 3541 978 
L 3616 978 
Q 3641 978 3658 962 
Q 3675 947 3675 922 
Q 3675 916 3669 903 
Q 3581 541 3364 234 
Q 3147 -72 2822 -72 
Q 2597 -72 2437 83 
Q 2278 238 2278 459 
Q 2278 578 2328 709 
Q 2409 919 2514 1209 
Q 2619 1500 2686 1765 
Q 2753 2031 2753 2234 
Q 2753 2413 2679 2538 
Q 2606 2663 2431 2663 
Q 2197 2663 2000 2559 
Q 1803 2456 1656 2286 
Q 1509 2116 1388 1881 
L 953 141 
Q 931 53 854 -9 
Q 778 -72 684 -72 
Q 606 -72 550 -22 
Q 494 28 494 109 
z
" transform="scale(0.015625)"/>
      <path id="Cmsy10-a1" d="M 653 1472 
Q 600 1472 565 1512 
Q 531 1553 531 1600 
Q 531 1647 565 1687 
Q 600 1728 653 1728 
L 4325 1728 
Q 4375 1728 4408 1687 
Q 4441 1647 4441 1600 
Q 4441 1553 4408 1512 
Q 4375 1472 4325 1472 
L 653 1472 
z
" transform="scale(0.015625)"/>
     </defs>
     <use xlink:href="#Cmb10-72" transform="translate(0 0.984375)"/>
     <use xlink:href="#Cmmi10-6e" transform="translate(47.139922 -16.021875) scale(0.7)"/>
     <use xlink:href="#Cmsy10-a1" transform="translate(101.437773 -16.021875) scale(0.7)"/>
     <use xlink:href="#Cmr10-32" transform="translate(168.108672 -16.021875) scale(0.7)"/>
    </g>
   </g>
   <g id="text_5">
    <!-- $\mathbf{r}_{n-1}$ -->
    <g transform="translate(419.402202 143.79838) scale(0.25 -0.25)">
     <use xlink:href="#Cmb10-72" transform="translate(0 0.984375)"/>
     <use xlink:href="#Cmmi10-6e" transform="translate(47.139922 -16.021875) scale(0.7)"/>
     <use xlink:href="#Cmsy10-a1" transform="translate(101.437773 -16.021875) scale(0.7)"/>
     <use xlink:href="#Cmr10-31" transform="translate(168.108672 -16.021875) scale(0.7)"/>
    </g>
   </g>
   <g id="text_6">
    <!-- $Q=\mathbf{r}_{n}$ -->
    <g transform="translate(485.206099 187.450049) scale(0.25 -0.25)">
     <defs>
      <path id="Cmmi10-51" d="M 1947 -141 
Q 1466 -141 1094 79 
Q 722 300 520 692 
Q 319 1084 319 1563 
Q 319 2259 714 2950 
Q 1109 3641 1756 4077 
Q 2403 4513 3109 4513 
Q 3475 4513 3778 4381 
Q 4081 4250 4290 4017 
Q 4500 3784 4614 3471 
Q 4728 3159 4728 2791 
Q 4728 2366 4581 1936 
Q 4434 1506 4171 1136 
Q 3909 766 3559 484 
Q 3209 203 2809 38 
Q 2850 -256 2934 -425 
Q 3019 -594 3256 -594 
Q 3506 -594 3726 -412 
Q 3947 -231 4006 13 
Q 4019 72 4078 72 
Q 4147 72 4147 -13 
Q 4100 -219 4008 -430 
Q 3916 -641 3786 -823 
Q 3656 -1006 3478 -1123 
Q 3300 -1241 3084 -1241 
Q 2547 -1241 2547 -550 
Q 2547 -509 2562 -332 
Q 2578 -156 2578 -44 
Q 2269 -141 1947 -141 
z
M 1709 300 
Q 1709 44 1991 44 
Q 2275 44 2591 184 
L 2591 244 
Q 2591 503 2509 648 
Q 2428 794 2194 794 
Q 2078 794 1964 723 
Q 1850 653 1779 539 
Q 1709 425 1709 300 
z
M 1544 288 
Q 1544 456 1637 612 
Q 1731 769 1881 864 
Q 2031 959 2203 959 
Q 2481 959 2607 771 
Q 2734 584 2778 281 
Q 3188 525 3500 978 
Q 3813 1431 3977 1973 
Q 4141 2516 4141 3003 
Q 4141 3356 4023 3656 
Q 3906 3956 3664 4140 
Q 3422 4325 3066 4325 
Q 2722 4325 2403 4156 
Q 2084 3988 1813 3706 
Q 1550 3434 1342 3032 
Q 1134 2631 1021 2193 
Q 909 1756 909 1356 
Q 909 947 1068 612 
Q 1228 278 1569 128 
Q 1544 194 1544 288 
z
" transform="scale(0.015625)"/>
     </defs>
     <use xlink:href="#Cmmi10-51" transform="translate(0 0.484375)"/>
     <use xlink:href="#Cmr10-3d" transform="translate(96.5625 0.484375)"/>
     <use xlink:href="#Cmb10-72" transform="translate(191.806641 0.484375)"/>
     <use xlink:href="#Cmmi10-6e" transform="translate(238.946562 -16.521875) scale(0.7)"/>
    </g>
   </g>
   <g id="text_7">
    <!-- $\Delta \mathbf{r}_i=\mathbf{r}_{i}-\mathbf{r}_{i-1}$ -->
    <g style="fill: #ff0000" transform="translate(167.354534 213.942964) scale(0.25 -0.25)">
     <defs>
      <path id="Cmr10-a2" d="M 347 0 
Q 294 0 294 50 
Q 297 56 298 59 
Q 300 63 300 72 
L 2503 4513 
Q 2531 4581 2619 4581 
L 2706 4581 
Q 2794 4581 2822 4513 
L 5025 72 
Q 5028 66 5029 61 
Q 5031 56 5031 50 
Q 5031 0 4978 0 
L 347 0 
z
M 769 513 
L 4141 513 
L 2456 3909 
L 769 513 
z
" transform="scale(0.015625)"/>
      <path id="Cmmi10-69" d="M 500 459 
Q 500 578 550 709 
L 1069 2088 
Q 1153 2322 1153 2472 
Q 1153 2663 1013 2663 
Q 759 2663 595 2402 
Q 431 2141 353 1819 
Q 341 1778 300 1778 
L 225 1778 
Q 172 1778 172 1838 
L 172 1856 
Q 275 2238 487 2533 
Q 700 2828 1025 2828 
Q 1253 2828 1411 2678 
Q 1569 2528 1569 2297 
Q 1569 2178 1516 2047 
L 997 672 
Q 909 459 909 288 
Q 909 97 1056 97 
Q 1306 97 1473 364 
Q 1641 631 1709 941 
Q 1722 978 1759 978 
L 1838 978 
Q 1863 978 1878 961 
Q 1894 944 1894 922 
Q 1894 916 1888 903 
Q 1800 541 1583 234 
Q 1366 -72 1044 -72 
Q 819 -72 659 83 
Q 500 238 500 459 
z
M 1222 3878 
Q 1222 4013 1334 4122 
Q 1447 4231 1581 4231 
Q 1691 4231 1761 4164 
Q 1831 4097 1831 3994 
Q 1831 3850 1717 3742 
Q 1603 3634 1466 3634 
Q 1363 3634 1292 3704 
Q 1222 3775 1222 3878 
z
" transform="scale(0.015625)"/>
     </defs>
     <use xlink:href="#Cmr10-a2" transform="translate(0 0.421875)"/>
     <use xlink:href="#Cmb10-72" transform="translate(83.300781 0.421875)"/>
     <use xlink:href="#Cmmi10-69" transform="translate(130.440703 -16.584375) scale(0.7)"/>
     <use xlink:href="#Cmr10-3d" transform="translate(178.47332 0.421875)"/>
     <use xlink:href="#Cmb10-72" transform="translate(273.717461 0.421875)"/>
     <use xlink:href="#Cmmi10-69" transform="translate(320.857383 -16.584375) scale(0.7)"/>
     <use xlink:href="#Cmsy10-a1" transform="translate(368.89 0.421875)"/>
     <use xlink:href="#Cmb10-72" transform="translate(464.134141 0.421875)"/>
     <use xlink:href="#Cmmi10-69" transform="translate(511.274063 -16.584375) scale(0.7)"/>
     <use xlink:href="#Cmsy10-a1" transform="translate(547.661758 -16.584375) scale(0.7)"/>
     <use xlink:href="#Cmr10-31" transform="translate(614.332656 -16.584375) scale(0.7)"/>
    </g>
   </g>
  </g>
 </g>
 <defs>
  <clipPath id="p5e99ff3524">
   <rect x="7.2" y="116.304987" width="541.234125" height="244.476824"/>
  </clipPath>
 </defs>
</svg>
