<?xml version="1.0" encoding="utf-8" standalone="no"?>
<!DOCTYPE svg PUBLIC "-//W3C//DTD SVG 1.1//EN"
  "http://www.w3.org/Graphics/SVG/1.1/DTD/svg11.dtd">
<svg xmlns:xlink="http://www.w3.org/1999/xlink" width="750.708377pt" height="364.81771pt" viewBox="0 0 750.708377 364.81771" xmlns="http://www.w3.org/2000/svg" version="1.1">
 <metadata>
  <rdf:RDF xmlns:dc="http://purl.org/dc/elements/1.1/" xmlns:cc="http://creativecommons.org/ns#" xmlns:rdf="http://www.w3.org/1999/02/22-rdf-syntax-ns#">
   <cc:Work>
    <dc:type rdf:resource="http://purl.org/dc/dcmitype/StillImage"/>
    <dc:date>2023-05-30T16:02:13.043942</dc:date>
    <dc:format>image/svg+xml</dc:format>
    <dc:creator>
     <cc:Agent>
      <dc:title>Matplotlib v3.6.2, https://matplotlib.org/</dc:title>
     </cc:Agent>
    </dc:creator>
   </cc:Work>
  </rdf:RDF>
 </metadata>
 <defs>
  <style type="text/css">*{stroke-linejoin: round; stroke-linecap: butt}</style>
 </defs>
 <g id="figure_1">
  <g id="patch_1">
   <path d="M 0 364.81771 
L 750.708377 364.81771 
L 750.708377 0 
L 0 0 
z
" style="fill: #ffffff"/>
  </g>
  <g id="axes_1">
   <g id="patch_2">
    <path d="M 8.591384 350.489758 
L 514.73941 350.489758 
L 514.73941 92.065143 
L 8.591384 92.065143 
z
" style="fill: #ffffff"/>
   </g>
   <g id="PathCollection_1">
    <path d="M 102.671167 328.808764 
C 103.608802 328.808764 104.50816 328.436238 105.171167 327.77323 
C 105.834175 327.110222 106.206701 326.210864 106.206701 325.27323 
C 106.206701 324.335595 105.834175 323.436238 105.171167 322.77323 
C 104.50816 322.110222 103.608802 321.737696 102.671167 321.737696 
C 101.733533 321.737696 100.834175 322.110222 100.171167 322.77323 
C 99.50816 323.436238 99.135634 324.335595 99.135634 325.27323 
C 99.135634 326.210864 99.50816 327.110222 100.171167 327.77323 
C 100.834175 328.436238 101.733533 328.808764 102.671167 328.808764 
z
" clip-path="url(#pdbb6c61cbf)"/>
   </g>
   <g id="PathCollection_2">
    <path d="M 38.571824 282.334894 
C 39.509459 282.334894 40.408817 281.962368 41.071824 281.29936 
C 41.734832 280.636352 42.107358 279.736995 42.107358 278.79936 
C 42.107358 277.861725 41.734832 276.962368 41.071824 276.29936 
C 40.408817 275.636352 39.509459 275.263826 38.571824 275.263826 
C 37.63419 275.263826 36.734832 275.636352 36.071824 276.29936 
C 35.408817 276.962368 35.03629 277.861725 35.03629 278.79936 
C 35.03629 279.736995 35.408817 280.636352 36.071824 281.29936 
C 36.734832 281.962368 37.63419 282.334894 38.571824 282.334894 
z
" clip-path="url(#pdbb6c61cbf)"/>
   </g>
   <g id="PathCollection_3">
    <path d="M 45.021029 221.567789 
C 45.958664 221.567789 46.858022 221.195263 47.521029 220.532255 
C 48.184037 219.869247 48.556563 218.969889 48.556563 218.032255 
C 48.556563 217.09462 48.184037 216.195263 47.521029 215.532255 
C 46.858022 214.869247 45.958664 214.496721 45.021029 214.496721 
C 44.083395 214.496721 43.184037 214.869247 42.521029 215.532255 
C 41.858022 216.195263 41.485496 217.09462 41.485496 218.032255 
C 41.485496 218.969889 41.858022 219.869247 42.521029 220.532255 
C 43.184037 221.195263 44.083395 221.567789 45.021029 221.567789 
z
" clip-path="url(#pdbb6c61cbf)"/>
   </g>
   <g id="PathCollection_4">
    <path d="M 109.596597 161.168828 
C 110.534232 161.168828 111.433589 160.796302 112.096597 160.133294 
C 112.759605 159.470287 113.132131 158.570929 113.132131 157.633294 
C 113.132131 156.69566 112.759605 155.796302 112.096597 155.133294 
C 111.433589 154.470287 110.534232 154.097761 109.596597 154.097761 
C 108.658962 154.097761 107.759605 154.470287 107.096597 155.133294 
C 106.433589 155.796302 106.061063 156.69566 106.061063 157.633294 
C 106.061063 158.570929 106.433589 159.470287 107.096597 160.133294 
C 107.759605 160.796302 108.658962 161.168828 109.596597 161.168828 
z
" clip-path="url(#pdbb6c61cbf)"/>
   </g>
   <g id="PathCollection_5">
    <path d="M 320.991872 100.577262 
C 321.929507 100.577262 322.828865 100.204736 323.491872 99.541728 
C 324.15488 98.87872 324.527406 97.979363 324.527406 97.041728 
C 324.527406 96.104094 324.15488 95.204736 323.491872 94.541728 
C 322.828865 93.87872 321.929507 93.506194 320.991872 93.506194 
C 320.054238 93.506194 319.15488 93.87872 318.491872 94.541728 
C 317.828865 95.204736 317.456339 96.104094 317.456339 97.041728 
C 317.456339 97.979363 317.828865 98.87872 318.491872 99.541728 
C 319.15488 100.204736 320.054238 100.577262 320.991872 100.577262 
z
" clip-path="url(#pdbb6c61cbf)"/>
   </g>
   <g id="PathCollection_6">
    <path d="M 418.63621 118.745923 
C 419.573844 118.745923 420.473202 118.373397 421.13621 117.710389 
C 421.799218 117.047381 422.171744 116.148024 422.171744 115.210389 
C 422.171744 114.272755 421.799218 113.373397 421.13621 112.710389 
C 420.473202 112.047381 419.573844 111.674855 418.63621 111.674855 
C 417.698575 111.674855 416.799218 112.047381 416.13621 112.710389 
C 415.473202 113.373397 415.100676 114.272755 415.100676 115.210389 
C 415.100676 116.148024 415.473202 117.047381 416.13621 117.710389 
C 416.799218 118.373397 417.698575 118.745923 418.63621 118.745923 
z
" clip-path="url(#pdbb6c61cbf)"/>
   </g>
   <g id="PathCollection_7">
    <path d="M 484.75897 168.646413 
C 485.696605 168.646413 486.595962 168.273887 487.25897 167.610879 
C 487.921978 166.947872 488.294504 166.048514 488.294504 165.110879 
C 488.294504 164.173245 487.921978 163.273887 487.25897 162.610879 
C 486.595962 161.947872 485.696605 161.575346 484.75897 161.575346 
C 483.821336 161.575346 482.921978 161.947872 482.25897 162.610879 
C 481.595962 163.273887 481.223436 164.173245 481.223436 165.110879 
C 481.223436 166.048514 481.595962 166.947872 482.25897 167.610879 
C 482.921978 168.273887 483.821336 168.646413 484.75897 168.646413 
z
" clip-path="url(#pdbb6c61cbf)"/>
   </g>
   <g id="matplotlib.axis_1"/>
   <g id="matplotlib.axis_2"/>
   <g id="line2d_1">
    <path d="M 484.75897 165.110879 
L 481.076434 160.325632 
L 478.577571 157.324448 
L 476.004748 154.413809 
L 472.10119 150.302006 
L 467.302577 145.680503 
L 462.706151 141.636554 
L 459.808749 139.256321 
L 453.87914 134.74396 
L 450.831311 132.594009 
L 445.539545 129.105451 
L 440.8401 126.244248 
L 433.527929 122.188388 
L 427.711229 119.272136 
L 421.048425 116.235462 
L 414.794996 113.654932 
L 408.296762 111.227203 
L 402.006011 109.105152 
L 395.757426 107.204319 
L 388.223572 105.168593 
L 379.491542 103.135527 
L 369.583779 101.222605 
L 361.017919 99.883349 
L 353.078677 98.886949 
L 347.760624 98.345268 
L 336.645638 97.523881 
L 327.093482 97.138889 
L 317.36362 97.03742 
L 309.734052 97.1555 
L 298.5137 97.63395 
L 286.296216 98.554417 
L 275.813928 99.666474 
L 266.742873 100.863864 
L 257.439581 102.315066 
L 250.162778 103.606181 
L 238.569477 105.944397 
L 227.083061 108.60148 
L 218.395014 110.837329 
L 209.094274 113.448847 
L 199.397232 116.415294 
L 189.277345 119.782191 
L 182.449273 122.214393 
L 171.315993 126.467054 
L 160.827637 130.812814 
L 151.494892 134.972412 
L 146.031992 137.542101 
L 136.436776 142.311669 
L 130.008047 145.701267 
L 120.654077 150.935064 
L 114.756403 154.434269 
L 109.703947 157.565364 
L 101.414361 162.99482 
L 94.221338 168.034949 
L 88.875277 172.005778 
L 81.619786 177.747992 
L 75.930736 182.581181 
L 69.406233 188.555589 
L 64.446435 193.471999 
L 59.821469 198.418346 
L 55.770756 203.107304 
L 52.161304 207.640047 
L 48.510689 212.665471 
L 45.286427 217.599933 
L 42.849848 221.755889 
L 40.390687 226.486088 
L 38.460014 230.761755 
L 36.811292 235.040109 
L 35.334947 239.738016 
L 34.474487 243.209709 
L 33.792361 246.826185 
L 33.355813 250.227992 
L 33.1179 253.804417 
L 33.109881 257.241254 
L 33.355882 260.979522 
L 33.831618 264.450955 
L 34.66416 268.354848 
L 35.332857 270.734562 
L 36.70021 274.620953 
L 38.364762 278.380684 
L 39.986969 281.448913 
L 42.061113 284.822815 
L 44.343639 288.045262 
L 46.109807 290.279873 
L 48.295031 292.803138 
L 51.071078 295.702846 
L 53.218779 297.756421 
L 56.862946 300.936477 
L 60.594221 303.870298 
L 63.972781 306.298093 
L 69.700253 310.011304 
L 75.591755 313.403105 
L 81.675691 316.53914 
L 86.969335 319.015639 
L 92.986983 321.588627 
L 99.760594 324.219421 
L 102.671167 325.27323 
L 102.671167 325.27323 
" clip-path="url(#pdbb6c61cbf)" style="fill: none; stroke: #000000; stroke-width: 2; stroke-linecap: square"/>
   </g>
   <g id="patch_3">
    <path d="M 210.104962 113.154054 
Q 211.20539 112.837743 210.15677 113.139162 
" clip-path="url(#pdbb6c61cbf)" style="fill: none; stroke: #000000; stroke-width: 2; stroke-linecap: round"/>
    <path d="M 199.164647 111.096312 
L 210.15677 113.139162 
L 201.927216 120.70715 
L 199.164647 111.096312 
z
" clip-path="url(#pdbb6c61cbf)" style="stroke: #000000; stroke-width: 2; stroke-linecap: round"/>
   </g>
   <g id="text_1">
    <!-- $P=\mathbf{r}_0$ -->
    <g transform="translate(79.54458 352.418492) scale(0.25 -0.25)">
     <defs>
      <path id="Cmmi10-50" d="M 313 0 
Q 250 0 250 84 
Q 253 100 262 139 
Q 272 178 289 201 
Q 306 225 331 225 
Q 722 225 878 269 
Q 959 297 997 441 
L 1875 3956 
Q 1888 4019 1888 4044 
Q 1888 4113 1813 4122 
Q 1691 4147 1350 4147 
Q 1288 4147 1288 4231 
Q 1291 4247 1300 4286 
Q 1309 4325 1326 4348 
Q 1344 4372 1369 4372 
L 3578 4372 
Q 3881 4372 4165 4264 
Q 4450 4156 4631 3934 
Q 4813 3713 4813 3397 
Q 4813 2991 4527 2672 
Q 4241 2353 3814 2175 
Q 3388 1997 2988 1997 
L 1947 1997 
L 1556 416 
Q 1544 353 1544 325 
Q 1544 300 1551 283 
Q 1559 266 1573 261 
Q 1588 256 1619 250 
Q 1741 225 2081 225 
Q 2144 225 2144 141 
Q 2122 50 2109 25 
Q 2097 0 2034 0 
L 313 0 
z
M 1978 2188 
L 2875 2188 
Q 3497 2188 3822 2522 
Q 3988 2688 4092 3000 
Q 4197 3313 4197 3566 
Q 4197 3881 3956 4014 
Q 3716 4147 3359 4147 
L 2747 4147 
Q 2572 4147 2515 4117 
Q 2459 4088 2413 3928 
L 1978 2188 
z
" transform="scale(0.015625)"/>
      <path id="Cmr10-3d" d="M 481 850 
Q 428 850 393 890 
Q 359 931 359 978 
Q 359 1031 393 1068 
Q 428 1106 481 1106 
L 4500 1106 
Q 4547 1106 4581 1068 
Q 4616 1031 4616 978 
Q 4616 931 4581 890 
Q 4547 850 4500 850 
L 481 850 
z
M 481 2094 
Q 428 2094 393 2131 
Q 359 2169 359 2222 
Q 359 2269 393 2309 
Q 428 2350 481 2350 
L 4500 2350 
Q 4547 2350 4581 2309 
Q 4616 2269 4616 2222 
Q 4616 2169 4581 2131 
Q 4547 2094 4500 2094 
L 481 2094 
z
" transform="scale(0.015625)"/>
      <path id="Cmb10-72" d="M 91 0 
L 91 325 
L 531 325 
L 531 2322 
Q 531 2503 91 2503 
L 91 2828 
L 1178 2881 
L 1178 2356 
Q 1269 2594 1436 2737 
Q 1603 2881 1838 2881 
Q 2006 2881 2173 2822 
Q 2341 2763 2450 2641 
Q 2559 2519 2559 2344 
Q 2559 2178 2443 2059 
Q 2328 1941 2156 1941 
Q 1984 1941 1868 2059 
Q 1753 2178 1753 2344 
Q 1753 2513 1856 2625 
L 1838 2625 
Q 1488 2625 1367 2248 
Q 1247 1872 1247 1416 
L 1247 325 
L 1806 325 
L 1806 0 
L 91 0 
z
" transform="scale(0.015625)"/>
      <path id="Cmr10-30" d="M 1600 -141 
Q 816 -141 533 504 
Q 250 1150 250 2041 
Q 250 2597 351 3087 
Q 453 3578 754 3920 
Q 1056 4263 1600 4263 
Q 2022 4263 2290 4056 
Q 2559 3850 2700 3523 
Q 2841 3197 2892 2823 
Q 2944 2450 2944 2041 
Q 2944 1491 2842 1011 
Q 2741 531 2444 195 
Q 2147 -141 1600 -141 
z
M 1600 25 
Q 1956 25 2131 390 
Q 2306 756 2347 1200 
Q 2388 1644 2388 2144 
Q 2388 2625 2347 3031 
Q 2306 3438 2132 3767 
Q 1959 4097 1600 4097 
Q 1238 4097 1063 3765 
Q 888 3434 847 3029 
Q 806 2625 806 2144 
Q 806 1788 823 1472 
Q 841 1156 916 820 
Q 991 484 1158 254 
Q 1325 25 1600 25 
z
" transform="scale(0.015625)"/>
     </defs>
     <use xlink:href="#Cmmi10-50" transform="translate(0 0.6875)"/>
     <use xlink:href="#Cmr10-3d" transform="translate(81.767578 0.6875)"/>
     <use xlink:href="#Cmb10-72" transform="translate(177.011719 0.6875)"/>
     <use xlink:href="#Cmr10-30" transform="translate(224.151641 -16.31875) scale(0.7)"/>
    </g>
   </g>
   <g id="text_2">
    <!-- $\mathbf{r}_1$ -->
    <g transform="translate(7.2 295.82121) scale(0.25 -0.25)">
     <defs>
      <path id="Cmr10-31" d="M 594 0 
L 594 225 
Q 1394 225 1394 428 
L 1394 3788 
Q 1063 3628 556 3628 
L 556 3853 
Q 1341 3853 1741 4263 
L 1831 4263 
Q 1853 4263 1873 4245 
Q 1894 4228 1894 4206 
L 1894 428 
Q 1894 225 2694 225 
L 2694 0 
L 594 0 
z
" transform="scale(0.015625)"/>
     </defs>
     <use xlink:href="#Cmb10-72" transform="translate(0 0.984375)"/>
     <use xlink:href="#Cmr10-31" transform="translate(47.139922 -16.021875) scale(0.7)"/>
    </g>
   </g>
   <g id="text_3">
    <!-- $\mathbf{r}_2$ -->
    <g transform="translate(54.142854 224.930692) scale(0.25 -0.25)">
     <defs>
      <path id="Cmr10-32" d="M 319 0 
L 319 172 
Q 319 188 331 206 
L 1325 1306 
Q 1550 1550 1690 1715 
Q 1831 1881 1968 2097 
Q 2106 2313 2186 2536 
Q 2266 2759 2266 3009 
Q 2266 3272 2169 3511 
Q 2072 3750 1880 3894 
Q 1688 4038 1416 4038 
Q 1138 4038 916 3870 
Q 694 3703 603 3438 
Q 628 3444 672 3444 
Q 816 3444 917 3347 
Q 1019 3250 1019 3097 
Q 1019 2950 917 2848 
Q 816 2747 672 2747 
Q 522 2747 420 2851 
Q 319 2956 319 3097 
Q 319 3338 409 3548 
Q 500 3759 670 3923 
Q 841 4088 1055 4175 
Q 1269 4263 1509 4263 
Q 1875 4263 2190 4108 
Q 2506 3953 2690 3670 
Q 2875 3388 2875 3009 
Q 2875 2731 2753 2481 
Q 2631 2231 2440 2026 
Q 2250 1822 1953 1562 
Q 1656 1303 1563 1216 
L 838 519 
L 1453 519 
Q 1906 519 2211 526 
Q 2516 534 2534 550 
Q 2609 631 2688 1141 
L 2875 1141 
L 2694 0 
L 319 0 
z
" transform="scale(0.015625)"/>
     </defs>
     <use xlink:href="#Cmb10-72" transform="translate(0 0.984375)"/>
     <use xlink:href="#Cmr10-32" transform="translate(47.139922 -16.021875) scale(0.7)"/>
    </g>
   </g>
   <g id="text_4">
    <!-- $\mathbf{r}_{n-2}$ -->
    <g transform="translate(294.741872 124.18699) scale(0.25 -0.25)">
     <defs>
      <path id="Cmmi10-6e" d="M 494 109 
Q 494 147 500 166 
L 978 2075 
Q 1025 2253 1025 2388 
Q 1025 2663 838 2663 
Q 638 2663 541 2423 
Q 444 2184 353 1819 
Q 353 1800 334 1789 
Q 316 1778 300 1778 
L 225 1778 
Q 203 1778 187 1801 
Q 172 1825 172 1844 
Q 241 2122 305 2315 
Q 369 2509 505 2668 
Q 641 2828 844 2828 
Q 1084 2828 1268 2676 
Q 1453 2525 1453 2291 
Q 1644 2541 1900 2684 
Q 2156 2828 2444 2828 
Q 2672 2828 2837 2750 
Q 3003 2672 3095 2514 
Q 3188 2356 3188 2138 
Q 3188 1875 3070 1503 
Q 2953 1131 2778 672 
Q 2688 463 2688 288 
Q 2688 97 2834 97 
Q 3084 97 3251 365 
Q 3419 634 3488 941 
Q 3500 978 3541 978 
L 3616 978 
Q 3641 978 3658 962 
Q 3675 947 3675 922 
Q 3675 916 3669 903 
Q 3581 541 3364 234 
Q 3147 -72 2822 -72 
Q 2597 -72 2437 83 
Q 2278 238 2278 459 
Q 2278 578 2328 709 
Q 2409 919 2514 1209 
Q 2619 1500 2686 1765 
Q 2753 2031 2753 2234 
Q 2753 2413 2679 2538 
Q 2606 2663 2431 2663 
Q 2197 2663 2000 2559 
Q 1803 2456 1656 2286 
Q 1509 2116 1388 1881 
L 953 141 
Q 931 53 854 -9 
Q 778 -72 684 -72 
Q 606 -72 550 -22 
Q 494 28 494 109 
z
" transform="scale(0.015625)"/>
      <path id="Cmsy10-a1" d="M 653 1472 
Q 600 1472 565 1512 
Q 531 1553 531 1600 
Q 531 1647 565 1687 
Q 600 1728 653 1728 
L 4325 1728 
Q 4375 1728 4408 1687 
Q 4441 1647 4441 1600 
Q 4441 1553 4408 1512 
Q 4375 1472 4325 1472 
L 653 1472 
z
" transform="scale(0.015625)"/>
     </defs>
     <use xlink:href="#Cmb10-72" transform="translate(0 0.984375)"/>
     <use xlink:href="#Cmmi10-6e" transform="translate(47.139922 -16.021875) scale(0.7)"/>
     <use xlink:href="#Cmsy10-a1" transform="translate(101.437773 -16.021875) scale(0.7)"/>
     <use xlink:href="#Cmr10-32" transform="translate(168.108672 -16.021875) scale(0.7)"/>
    </g>
   </g>
   <g id="text_5">
    <!-- $\mathbf{r}_{n-1}$ -->
    <g transform="translate(392.38621 142.355651) scale(0.25 -0.25)">
     <use xlink:href="#Cmb10-72" transform="translate(0 0.984375)"/>
     <use xlink:href="#Cmmi10-6e" transform="translate(47.139922 -16.021875) scale(0.7)"/>
     <use xlink:href="#Cmsy10-a1" transform="translate(101.437773 -16.021875) scale(0.7)"/>
     <use xlink:href="#Cmr10-31" transform="translate(168.108672 -16.021875) scale(0.7)"/>
    </g>
   </g>
   <g id="text_6">
    <!-- $Q=\mathbf{r}_{n}$ -->
    <g transform="translate(469.005794 192.256141) scale(0.25 -0.25)">
     <defs>
      <path id="Cmmi10-51" d="M 1947 -141 
Q 1466 -141 1094 79 
Q 722 300 520 692 
Q 319 1084 319 1563 
Q 319 2259 714 2950 
Q 1109 3641 1756 4077 
Q 2403 4513 3109 4513 
Q 3475 4513 3778 4381 
Q 4081 4250 4290 4017 
Q 4500 3784 4614 3471 
Q 4728 3159 4728 2791 
Q 4728 2366 4581 1936 
Q 4434 1506 4171 1136 
Q 3909 766 3559 484 
Q 3209 203 2809 38 
Q 2850 -256 2934 -425 
Q 3019 -594 3256 -594 
Q 3506 -594 3726 -412 
Q 3947 -231 4006 13 
Q 4019 72 4078 72 
Q 4147 72 4147 -13 
Q 4100 -219 4008 -430 
Q 3916 -641 3786 -823 
Q 3656 -1006 3478 -1123 
Q 3300 -1241 3084 -1241 
Q 2547 -1241 2547 -550 
Q 2547 -509 2562 -332 
Q 2578 -156 2578 -44 
Q 2269 -141 1947 -141 
z
M 1709 300 
Q 1709 44 1991 44 
Q 2275 44 2591 184 
L 2591 244 
Q 2591 503 2509 648 
Q 2428 794 2194 794 
Q 2078 794 1964 723 
Q 1850 653 1779 539 
Q 1709 425 1709 300 
z
M 1544 288 
Q 1544 456 1637 612 
Q 1731 769 1881 864 
Q 2031 959 2203 959 
Q 2481 959 2607 771 
Q 2734 584 2778 281 
Q 3188 525 3500 978 
Q 3813 1431 3977 1973 
Q 4141 2516 4141 3003 
Q 4141 3356 4023 3656 
Q 3906 3956 3664 4140 
Q 3422 4325 3066 4325 
Q 2722 4325 2403 4156 
Q 2084 3988 1813 3706 
Q 1550 3434 1342 3032 
Q 1134 2631 1021 2193 
Q 909 1756 909 1356 
Q 909 947 1068 612 
Q 1228 278 1569 128 
Q 1544 194 1544 288 
z
" transform="scale(0.015625)"/>
     </defs>
     <use xlink:href="#Cmmi10-51" transform="translate(0 0.484375)"/>
     <use xlink:href="#Cmr10-3d" transform="translate(96.5625 0.484375)"/>
     <use xlink:href="#Cmb10-72" transform="translate(191.806641 0.484375)"/>
     <use xlink:href="#Cmmi10-6e" transform="translate(238.946562 -16.521875) scale(0.7)"/>
    </g>
   </g>
  </g>
 </g>
 <defs>
  <clipPath id="pdbb6c61cbf">
   <rect x="8.591384" y="92.065143" width="506.148026" height="258.424615"/>
  </clipPath>
 </defs>
</svg>
