<?xml version="1.0" encoding="utf-8" standalone="no"?>
<!DOCTYPE svg PUBLIC "-//W3C//DTD SVG 1.1//EN"
  "http://www.w3.org/Graphics/SVG/1.1/DTD/svg11.dtd">
<svg xmlns:xlink="http://www.w3.org/1999/xlink" width="772.404012pt" height="363.800558pt" viewBox="0 0 772.404012 363.800558" xmlns="http://www.w3.org/2000/svg" version="1.1">
 <metadata>
  <rdf:RDF xmlns:dc="http://purl.org/dc/elements/1.1/" xmlns:cc="http://creativecommons.org/ns#" xmlns:rdf="http://www.w3.org/1999/02/22-rdf-syntax-ns#">
   <cc:Work>
    <dc:type rdf:resource="http://purl.org/dc/dcmitype/StillImage"/>
    <dc:date>2023-05-30T18:25:10.686145</dc:date>
    <dc:format>image/svg+xml</dc:format>
    <dc:creator>
     <cc:Agent>
      <dc:title>Matplotlib v3.6.2, https://matplotlib.org/</dc:title>
     </cc:Agent>
    </dc:creator>
   </cc:Work>
  </rdf:RDF>
 </metadata>
 <defs>
  <style type="text/css">*{stroke-linejoin: round; stroke-linecap: butt}</style>
 </defs>
 <g id="figure_1">
  <g id="patch_1">
   <path d="M 0 363.800558 
L 772.404012 363.800558 
L 772.404012 0 
L 0 0 
z
" style="fill: #ffffff"/>
  </g>
  <g id="axes_1">
   <g id="patch_2">
    <path d="M 22.297624 349.028723 
L 524.221175 349.028723 
L 524.221175 92.764108 
L 22.297624 92.764108 
z
" style="fill: #ffffff"/>
   </g>
   <g id="PathCollection_1">
    <path d="M 115.592187 327.558254 
C 116.529822 327.558254 117.429179 327.185728 118.092187 326.52272 
C 118.755195 325.859712 119.127721 324.960354 119.127721 324.02272 
C 119.127721 323.085085 118.755195 322.185728 118.092187 321.52272 
C 117.429179 320.859712 116.529822 320.487186 115.592187 320.487186 
C 114.654552 320.487186 113.755195 320.859712 113.092187 321.52272 
C 112.429179 322.185728 112.056653 323.085085 112.056653 324.02272 
C 112.056653 324.960354 112.429179 325.859712 113.092187 326.52272 
C 113.755195 327.185728 114.654552 327.558254 115.592187 327.558254 
z
" clip-path="url(#p62185c9a6e)"/>
   </g>
   <g id="PathCollection_2">
    <path d="M 52.027838 281.47227 
C 52.965472 281.47227 53.86483 281.099744 54.527838 280.436736 
C 55.190845 279.773728 55.563372 278.874371 55.563372 277.936736 
C 55.563372 276.999102 55.190845 276.099744 54.527838 275.436736 
C 53.86483 274.773728 52.965472 274.401202 52.027838 274.401202 
C 51.090203 274.401202 50.190845 274.773728 49.527838 275.436736 
C 48.86483 276.099744 48.492304 276.999102 48.492304 277.936736 
C 48.492304 278.874371 48.86483 279.773728 49.527838 280.436736 
C 50.190845 281.099744 51.090203 281.47227 52.027838 281.47227 
z
" clip-path="url(#p62185c9a6e)"/>
   </g>
   <g id="PathCollection_3">
    <path d="M 58.423216 221.212347 
C 59.36085 221.212347 60.260208 220.839821 60.923216 220.176813 
C 61.586224 219.513805 61.95875 218.614448 61.95875 217.676813 
C 61.95875 216.739178 61.586224 215.839821 60.923216 215.176813 
C 60.260208 214.513805 59.36085 214.141279 58.423216 214.141279 
C 57.485581 214.141279 56.586224 214.513805 55.923216 215.176813 
C 55.260208 215.839821 54.887682 216.739178 54.887682 217.676813 
C 54.887682 218.614448 55.260208 219.513805 55.923216 220.176813 
C 56.586224 220.839821 57.485581 221.212347 58.423216 221.212347 
z
" clip-path="url(#p62185c9a6e)"/>
   </g>
   <g id="PathCollection_4">
    <path d="M 122.459815 161.317496 
C 123.397449 161.317496 124.296807 160.94497 124.959815 160.281962 
C 125.622822 159.618954 125.995349 158.719596 125.995349 157.781962 
C 125.995349 156.844327 125.622822 155.94497 124.959815 155.281962 
C 124.296807 154.618954 123.397449 154.246428 122.459815 154.246428 
C 121.52218 154.246428 120.622822 154.618954 119.959815 155.281962 
C 119.296807 155.94497 118.924281 156.844327 118.924281 157.781962 
C 118.924281 158.719596 119.296807 159.618954 119.959815 160.281962 
C 120.622822 160.94497 121.52218 161.317496 122.459815 161.317496 
z
" clip-path="url(#p62185c9a6e)"/>
   </g>
   <g id="PathCollection_5">
    <path d="M 332.090717 101.231646 
C 333.028351 101.231646 333.927709 100.85912 334.590717 100.196113 
C 335.253724 99.533105 335.62625 98.633747 335.62625 97.696113 
C 335.62625 96.758478 335.253724 95.85912 334.590717 95.196113 
C 333.927709 94.533105 333.028351 94.160579 332.090717 94.160579 
C 331.153082 94.160579 330.253724 94.533105 329.590717 95.196113 
C 328.927709 95.85912 328.555183 96.758478 328.555183 97.696113 
C 328.555183 98.633747 328.927709 99.533105 329.590717 100.196113 
C 330.253724 100.85912 331.153082 101.231646 332.090717 101.231646 
z
" clip-path="url(#p62185c9a6e)"/>
   </g>
   <g id="PathCollection_6">
    <path d="M 428.920083 119.248666 
C 429.857717 119.248666 430.757075 118.87614 431.420083 118.213132 
C 432.08309 117.550124 432.455616 116.650767 432.455616 115.713132 
C 432.455616 114.775497 432.08309 113.87614 431.420083 113.213132 
C 430.757075 112.550124 429.857717 112.177598 428.920083 112.177598 
C 427.982448 112.177598 427.08309 112.550124 426.420083 113.213132 
C 425.757075 113.87614 425.384549 114.775497 425.384549 115.713132 
C 425.384549 116.650767 425.757075 117.550124 426.420083 118.213132 
C 427.08309 118.87614 427.982448 119.248666 428.920083 119.248666 
z
" clip-path="url(#p62185c9a6e)"/>
   </g>
   <g id="PathCollection_7">
    <path d="M 494.490961 168.73267 
C 495.428596 168.73267 496.327953 168.360144 496.990961 167.697137 
C 497.653969 167.034129 498.026495 166.134771 498.026495 165.197137 
C 498.026495 164.259502 497.653969 163.360144 496.990961 162.697137 
C 496.327953 162.034129 495.428596 161.661603 494.490961 161.661603 
C 493.553326 161.661603 492.653969 162.034129 491.990961 162.697137 
C 491.327953 163.360144 490.955427 164.259502 490.955427 165.197137 
C 490.955427 166.134771 491.327953 167.034129 491.990961 167.697137 
C 492.653969 168.360144 493.553326 168.73267 494.490961 168.73267 
z
" clip-path="url(#p62185c9a6e)"/>
   </g>
   <g id="matplotlib.axis_1"/>
   <g id="matplotlib.axis_2"/>
   <g id="line2d_1">
    <path d="M 494.490961 165.197137 
L 491.417935 161.173803 
L 487.448534 156.423606 
L 484.562324 153.237714 
L 480.826606 149.400919 
L 475.615058 144.512869 
L 471.761528 141.198823 
L 466.807618 137.263329 
L 463.457398 134.787056 
L 458.972496 131.682251 
L 453.353245 128.098806 
L 445.204973 123.437477 
L 438.451581 119.997169 
L 433.405168 117.650526 
L 427.784125 115.243492 
L 422.24035 113.067728 
L 419.310996 111.99284 
L 410.742157 109.126116 
L 403.272129 106.941813 
L 395.339977 104.918392 
L 390.044343 103.726709 
L 381.330038 102.026441 
L 372.854612 100.666314 
L 364.750299 99.620663 
L 357.385952 98.875689 
L 351.817366 98.436792 
L 341.834246 97.90728 
L 335.135492 97.730488 
L 325.535272 97.717438 
L 316.516481 97.954535 
L 310.310851 98.253893 
L 299.164774 99.062959 
L 290.155692 99.965872 
L 282.806009 100.864023 
L 272.590894 102.349758 
L 263.236641 103.949758 
L 251.423766 106.294764 
L 242.154083 108.387911 
L 231.691832 111.018533 
L 222.70689 113.506705 
L 210.746857 117.152449 
L 201.831093 120.123701 
L 190.511611 124.218079 
L 178.148043 129.119556 
L 167.40936 133.761587 
L 159.165852 137.58326 
L 151.133518 141.537053 
L 142.399737 146.112331 
L 133.507898 151.091595 
L 127.177548 154.852309 
L 118.612796 160.256974 
L 111.247257 165.23018 
L 106.160784 168.862294 
L 100.302721 173.270795 
L 95.145959 177.376447 
L 89.71437 181.962217 
L 84.089576 187.041393 
L 79.422892 191.55898 
L 73.921152 197.319534 
L 68.814616 203.201199 
L 65.216409 207.749423 
L 62.187121 211.916986 
L 58.90668 216.89265 
L 56.559279 220.852403 
L 54.390952 224.925036 
L 52.679161 228.537372 
L 50.883694 232.893753 
L 49.54531 236.747653 
L 48.364114 240.933185 
L 47.602953 244.416462 
L 46.989242 248.380105 
L 46.698157 251.541558 
L 46.59112 255.556615 
L 46.771158 259.362095 
L 47.253137 263.26661 
L 47.795201 266.080741 
L 48.556958 269.069121 
L 49.848994 272.959354 
L 51.306392 276.436192 
L 52.749232 279.329674 
L 54.887017 282.983105 
L 56.810685 285.828457 
L 59.680099 289.535254 
L 62.019278 292.205868 
L 65.580748 295.824618 
L 69.348099 299.204691 
L 72.096667 301.442827 
L 76.52328 304.723401 
L 80.70954 307.523837 
L 84.211941 309.679621 
L 89.4615 312.642228 
L 95.414169 315.673647 
L 99.382035 317.529444 
L 107.26906 320.886377 
L 112.882245 323.042798 
L 115.592187 324.02272 
L 115.592187 324.02272 
" clip-path="url(#p62185c9a6e)" style="fill: none; stroke: #000000; stroke-width: 2; stroke-linecap: square"/>
   </g>
   <g id="patch_3">
    <path d="M 115.592187 324.02272 
Q 83.810012 300.979728 53.838157 279.24927 
" clip-path="url(#p62185c9a6e)" style="fill: none; stroke: #0000ff; stroke-width: 2; stroke-linecap: round"/>
    <path d="M 58.999236 289.167095 
L 53.838157 279.24927 
L 64.869065 281.071101 
L 58.999236 289.167095 
z
" clip-path="url(#p62185c9a6e)" style="fill: #0000ff; stroke: #0000ff; stroke-width: 2; stroke-linecap: round"/>
   </g>
   <g id="patch_4">
    <path d="M 52.027838 277.936736 
Q 55.225527 247.806775 58.187227 219.900393 
" clip-path="url(#p62185c9a6e)" style="fill: none; stroke: #0000ff; stroke-width: 2; stroke-linecap: round"/>
    <path d="M 52.159779 229.316861 
L 58.187227 219.900393 
L 62.103932 230.372233 
L 52.159779 229.316861 
z
" clip-path="url(#p62185c9a6e)" style="fill: #0000ff; stroke: #0000ff; stroke-width: 2; stroke-linecap: round"/>
   </g>
   <g id="patch_5">
    <path d="M 58.423216 217.676813 
Q 90.441515 187.729387 120.826746 159.309407 
" clip-path="url(#p62185c9a6e)" style="fill: none; stroke: #0000ff; stroke-width: 2; stroke-linecap: round"/>
    <path d="M 110.107972 162.488697 
L 120.826746 159.309407 
L 116.938914 169.792 
L 110.107972 162.488697 
z
" clip-path="url(#p62185c9a6e)" style="fill: #0000ff; stroke: #0000ff; stroke-width: 2; stroke-linecap: round"/>
   </g>
   <g id="patch_6">
    <path d="M 122.459815 157.781962 
Q 227.275266 127.739037 329.941203 98.312221 
" clip-path="url(#p62185c9a6e)" style="fill: none; stroke: #ff0000; stroke-width: 2; stroke-linecap: round"/>
    <path d="M 318.950623 96.261082 
L 329.941203 98.312221 
L 321.705944 105.874001 
L 318.950623 96.261082 
z
" clip-path="url(#p62185c9a6e)" style="fill: #ff0000; stroke: #ff0000; stroke-width: 2; stroke-linecap: round"/>
   </g>
   <g id="patch_7">
    <path d="M 332.090717 97.696113 
Q 380.5054 106.704622 426.721746 115.304088 
" clip-path="url(#p62185c9a6e)" style="fill: none; stroke: #0000ff; stroke-width: 2; stroke-linecap: round"/>
    <path d="M 417.805137 108.559158 
L 426.721746 115.304088 
L 415.975837 118.390417 
L 417.805137 108.559158 
z
" clip-path="url(#p62185c9a6e)" style="fill: #0000ff; stroke: #0000ff; stroke-width: 2; stroke-linecap: round"/>
   </g>
   <g id="patch_8">
    <path d="M 428.920083 115.713132 
Q 461.705522 140.455134 492.706111 163.850174 
" clip-path="url(#p62185c9a6e)" style="fill: none; stroke: #0000ff; stroke-width: 2; stroke-linecap: round"/>
    <path d="M 487.735918 153.835325 
L 492.706111 163.850174 
L 481.712116 161.817419 
L 487.735918 153.835325 
z
" clip-path="url(#p62185c9a6e)" style="fill: #0000ff; stroke: #0000ff; stroke-width: 2; stroke-linecap: round"/>
   </g>
   <g id="text_1">
    <!-- $P=\mathbf{r}(t_0)$ -->
    <g transform="translate(78.756106 350.350558) scale(0.25 -0.25)">
     <defs>
      <path id="Cmmi10-50" d="M 313 0 
Q 250 0 250 84 
Q 253 100 262 139 
Q 272 178 289 201 
Q 306 225 331 225 
Q 722 225 878 269 
Q 959 297 997 441 
L 1875 3956 
Q 1888 4019 1888 4044 
Q 1888 4113 1813 4122 
Q 1691 4147 1350 4147 
Q 1288 4147 1288 4231 
Q 1291 4247 1300 4286 
Q 1309 4325 1326 4348 
Q 1344 4372 1369 4372 
L 3578 4372 
Q 3881 4372 4165 4264 
Q 4450 4156 4631 3934 
Q 4813 3713 4813 3397 
Q 4813 2991 4527 2672 
Q 4241 2353 3814 2175 
Q 3388 1997 2988 1997 
L 1947 1997 
L 1556 416 
Q 1544 353 1544 325 
Q 1544 300 1551 283 
Q 1559 266 1573 261 
Q 1588 256 1619 250 
Q 1741 225 2081 225 
Q 2144 225 2144 141 
Q 2122 50 2109 25 
Q 2097 0 2034 0 
L 313 0 
z
M 1978 2188 
L 2875 2188 
Q 3497 2188 3822 2522 
Q 3988 2688 4092 3000 
Q 4197 3313 4197 3566 
Q 4197 3881 3956 4014 
Q 3716 4147 3359 4147 
L 2747 4147 
Q 2572 4147 2515 4117 
Q 2459 4088 2413 3928 
L 1978 2188 
z
" transform="scale(0.015625)"/>
      <path id="Cmr10-3d" d="M 481 850 
Q 428 850 393 890 
Q 359 931 359 978 
Q 359 1031 393 1068 
Q 428 1106 481 1106 
L 4500 1106 
Q 4547 1106 4581 1068 
Q 4616 1031 4616 978 
Q 4616 931 4581 890 
Q 4547 850 4500 850 
L 481 850 
z
M 481 2094 
Q 428 2094 393 2131 
Q 359 2169 359 2222 
Q 359 2269 393 2309 
Q 428 2350 481 2350 
L 4500 2350 
Q 4547 2350 4581 2309 
Q 4616 2269 4616 2222 
Q 4616 2169 4581 2131 
Q 4547 2094 4500 2094 
L 481 2094 
z
" transform="scale(0.015625)"/>
      <path id="Cmb10-72" d="M 91 0 
L 91 325 
L 531 325 
L 531 2322 
Q 531 2503 91 2503 
L 91 2828 
L 1178 2881 
L 1178 2356 
Q 1269 2594 1436 2737 
Q 1603 2881 1838 2881 
Q 2006 2881 2173 2822 
Q 2341 2763 2450 2641 
Q 2559 2519 2559 2344 
Q 2559 2178 2443 2059 
Q 2328 1941 2156 1941 
Q 1984 1941 1868 2059 
Q 1753 2178 1753 2344 
Q 1753 2513 1856 2625 
L 1838 2625 
Q 1488 2625 1367 2248 
Q 1247 1872 1247 1416 
L 1247 325 
L 1806 325 
L 1806 0 
L 91 0 
z
" transform="scale(0.015625)"/>
      <path id="Cmr10-28" d="M 1984 -1588 
Q 1628 -1306 1370 -942 
Q 1113 -578 948 -165 
Q 784 247 703 697 
Q 622 1147 622 1600 
Q 622 2059 703 2509 
Q 784 2959 951 3375 
Q 1119 3791 1378 4153 
Q 1638 4516 1984 4788 
Q 1984 4800 2016 4800 
L 2075 4800 
Q 2094 4800 2109 4783 
Q 2125 4766 2125 4744 
Q 2125 4716 2113 4703 
Q 1800 4397 1592 4047 
Q 1384 3697 1257 3301 
Q 1131 2906 1075 2482 
Q 1019 2059 1019 1600 
Q 1019 -434 2106 -1491 
Q 2125 -1509 2125 -1544 
Q 2125 -1559 2108 -1579 
Q 2091 -1600 2075 -1600 
L 2016 -1600 
Q 1984 -1600 1984 -1588 
z
" transform="scale(0.015625)"/>
      <path id="Cmmi10-74" d="M 397 519 
Q 397 613 416 697 
L 878 2534 
L 206 2534 
Q 141 2534 141 2619 
Q 166 2759 225 2759 
L 934 2759 
L 1191 3803 
Q 1216 3888 1291 3947 
Q 1366 4006 1459 4006 
Q 1541 4006 1595 3957 
Q 1650 3909 1650 3828 
Q 1650 3809 1648 3798 
Q 1647 3788 1644 3775 
L 1388 2759 
L 2047 2759 
Q 2113 2759 2113 2675 
Q 2109 2659 2100 2621 
Q 2091 2584 2075 2559 
Q 2059 2534 2028 2534 
L 1331 2534 
L 872 684 
Q 825 503 825 372 
Q 825 97 1013 97 
Q 1294 97 1511 361 
Q 1728 625 1844 941 
Q 1869 978 1894 978 
L 1972 978 
Q 1997 978 2012 961 
Q 2028 944 2028 922 
Q 2028 909 2022 903 
Q 1881 516 1612 222 
Q 1344 -72 997 -72 
Q 744 -72 570 93 
Q 397 259 397 519 
z
" transform="scale(0.015625)"/>
      <path id="Cmr10-30" d="M 1600 -141 
Q 816 -141 533 504 
Q 250 1150 250 2041 
Q 250 2597 351 3087 
Q 453 3578 754 3920 
Q 1056 4263 1600 4263 
Q 2022 4263 2290 4056 
Q 2559 3850 2700 3523 
Q 2841 3197 2892 2823 
Q 2944 2450 2944 2041 
Q 2944 1491 2842 1011 
Q 2741 531 2444 195 
Q 2147 -141 1600 -141 
z
M 1600 25 
Q 1956 25 2131 390 
Q 2306 756 2347 1200 
Q 2388 1644 2388 2144 
Q 2388 2625 2347 3031 
Q 2306 3438 2132 3767 
Q 1959 4097 1600 4097 
Q 1238 4097 1063 3765 
Q 888 3434 847 3029 
Q 806 2625 806 2144 
Q 806 1788 823 1472 
Q 841 1156 916 820 
Q 991 484 1158 254 
Q 1325 25 1600 25 
z
" transform="scale(0.015625)"/>
      <path id="Cmr10-29" d="M 416 -1600 
Q 359 -1600 359 -1544 
Q 359 -1516 372 -1503 
Q 1466 -434 1466 1600 
Q 1466 3634 384 4691 
Q 359 4706 359 4744 
Q 359 4766 376 4783 
Q 394 4800 416 4800 
L 475 4800 
Q 494 4800 506 4788 
Q 966 4425 1272 3906 
Q 1578 3388 1720 2800 
Q 1863 2213 1863 1600 
Q 1863 1147 1786 708 
Q 1709 269 1542 -157 
Q 1375 -584 1119 -945 
Q 863 -1306 506 -1588 
Q 494 -1600 475 -1600 
L 416 -1600 
z
" transform="scale(0.015625)"/>
     </defs>
     <use xlink:href="#Cmmi10-50"/>
     <use xlink:href="#Cmr10-3d" transform="translate(81.767578 0)"/>
     <use xlink:href="#Cmb10-72" transform="translate(177.011719 0)"/>
     <use xlink:href="#Cmr10-28" transform="translate(219.6875 0)"/>
     <use xlink:href="#Cmmi10-74" transform="translate(258.505859 0)"/>
     <use xlink:href="#Cmr10-30" transform="translate(294.589844 -17.00625) scale(0.7)"/>
     <use xlink:href="#Cmr10-29" transform="translate(335.967188 0)"/>
    </g>
   </g>
   <g id="text_2">
    <!-- $\mathbf{r}(t_1)$ -->
    <g transform="translate(7.2 294.225655) scale(0.25 -0.25)">
     <defs>
      <path id="Cmr10-31" d="M 594 0 
L 594 225 
Q 1394 225 1394 428 
L 1394 3788 
Q 1063 3628 556 3628 
L 556 3853 
Q 1341 3853 1741 4263 
L 1831 4263 
Q 1853 4263 1873 4245 
Q 1894 4228 1894 4206 
L 1894 428 
Q 1894 225 2694 225 
L 2694 0 
L 594 0 
z
" transform="scale(0.015625)"/>
     </defs>
     <use xlink:href="#Cmb10-72"/>
     <use xlink:href="#Cmr10-28" transform="translate(42.675781 0)"/>
     <use xlink:href="#Cmmi10-74" transform="translate(81.494141 0)"/>
     <use xlink:href="#Cmr10-31" transform="translate(117.578125 -17.00625) scale(0.7)"/>
     <use xlink:href="#Cmr10-29" transform="translate(158.955469 0)"/>
    </g>
   </g>
   <g id="text_3">
    <!-- $\mathbf{r}(t_2)$ -->
    <g transform="translate(53.751053 223.926813) scale(0.25 -0.25)">
     <defs>
      <path id="Cmr10-32" d="M 319 0 
L 319 172 
Q 319 188 331 206 
L 1325 1306 
Q 1550 1550 1690 1715 
Q 1831 1881 1968 2097 
Q 2106 2313 2186 2536 
Q 2266 2759 2266 3009 
Q 2266 3272 2169 3511 
Q 2072 3750 1880 3894 
Q 1688 4038 1416 4038 
Q 1138 4038 916 3870 
Q 694 3703 603 3438 
Q 628 3444 672 3444 
Q 816 3444 917 3347 
Q 1019 3250 1019 3097 
Q 1019 2950 917 2848 
Q 816 2747 672 2747 
Q 522 2747 420 2851 
Q 319 2956 319 3097 
Q 319 3338 409 3548 
Q 500 3759 670 3923 
Q 841 4088 1055 4175 
Q 1269 4263 1509 4263 
Q 1875 4263 2190 4108 
Q 2506 3953 2690 3670 
Q 2875 3388 2875 3009 
Q 2875 2731 2753 2481 
Q 2631 2231 2440 2026 
Q 2250 1822 1953 1562 
Q 1656 1303 1563 1216 
L 838 519 
L 1453 519 
Q 1906 519 2211 526 
Q 2516 534 2534 550 
Q 2609 631 2688 1141 
L 2875 1141 
L 2694 0 
L 319 0 
z
" transform="scale(0.015625)"/>
     </defs>
     <use xlink:href="#Cmb10-72"/>
     <use xlink:href="#Cmr10-28" transform="translate(42.675781 0)"/>
     <use xlink:href="#Cmmi10-74" transform="translate(81.494141 0)"/>
     <use xlink:href="#Cmr10-32" transform="translate(117.578125 -17.00625) scale(0.7)"/>
     <use xlink:href="#Cmr10-29" transform="translate(158.955469 0)"/>
    </g>
   </g>
   <g id="text_4">
    <!-- $\mathbf{r}(t_{n-2})$ -->
    <g transform="translate(292.215717 124.02395) scale(0.25 -0.25)">
     <defs>
      <path id="Cmmi10-6e" d="M 494 109 
Q 494 147 500 166 
L 978 2075 
Q 1025 2253 1025 2388 
Q 1025 2663 838 2663 
Q 638 2663 541 2423 
Q 444 2184 353 1819 
Q 353 1800 334 1789 
Q 316 1778 300 1778 
L 225 1778 
Q 203 1778 187 1801 
Q 172 1825 172 1844 
Q 241 2122 305 2315 
Q 369 2509 505 2668 
Q 641 2828 844 2828 
Q 1084 2828 1268 2676 
Q 1453 2525 1453 2291 
Q 1644 2541 1900 2684 
Q 2156 2828 2444 2828 
Q 2672 2828 2837 2750 
Q 3003 2672 3095 2514 
Q 3188 2356 3188 2138 
Q 3188 1875 3070 1503 
Q 2953 1131 2778 672 
Q 2688 463 2688 288 
Q 2688 97 2834 97 
Q 3084 97 3251 365 
Q 3419 634 3488 941 
Q 3500 978 3541 978 
L 3616 978 
Q 3641 978 3658 962 
Q 3675 947 3675 922 
Q 3675 916 3669 903 
Q 3581 541 3364 234 
Q 3147 -72 2822 -72 
Q 2597 -72 2437 83 
Q 2278 238 2278 459 
Q 2278 578 2328 709 
Q 2409 919 2514 1209 
Q 2619 1500 2686 1765 
Q 2753 2031 2753 2234 
Q 2753 2413 2679 2538 
Q 2606 2663 2431 2663 
Q 2197 2663 2000 2559 
Q 1803 2456 1656 2286 
Q 1509 2116 1388 1881 
L 953 141 
Q 931 53 854 -9 
Q 778 -72 684 -72 
Q 606 -72 550 -22 
Q 494 28 494 109 
z
" transform="scale(0.015625)"/>
      <path id="Cmsy10-a1" d="M 653 1472 
Q 600 1472 565 1512 
Q 531 1553 531 1600 
Q 531 1647 565 1687 
Q 600 1728 653 1728 
L 4325 1728 
Q 4375 1728 4408 1687 
Q 4441 1647 4441 1600 
Q 4441 1553 4408 1512 
Q 4375 1472 4325 1472 
L 653 1472 
z
" transform="scale(0.015625)"/>
     </defs>
     <use xlink:href="#Cmb10-72"/>
     <use xlink:href="#Cmr10-28" transform="translate(42.675781 0)"/>
     <use xlink:href="#Cmmi10-74" transform="translate(81.494141 0)"/>
     <use xlink:href="#Cmmi10-6e" transform="translate(117.578125 -17.00625) scale(0.7)"/>
     <use xlink:href="#Cmsy10-a1" transform="translate(171.875977 -17.00625) scale(0.7)"/>
     <use xlink:href="#Cmr10-32" transform="translate(238.546875 -17.00625) scale(0.7)"/>
     <use xlink:href="#Cmr10-29" transform="translate(279.924219 0)"/>
    </g>
   </g>
   <g id="text_5">
    <!-- $\mathbf{r}(t_{n-1})$ -->
    <g transform="translate(389.045083 142.04097) scale(0.25 -0.25)">
     <use xlink:href="#Cmb10-72"/>
     <use xlink:href="#Cmr10-28" transform="translate(42.675781 0)"/>
     <use xlink:href="#Cmmi10-74" transform="translate(81.494141 0)"/>
     <use xlink:href="#Cmmi10-6e" transform="translate(117.578125 -17.00625) scale(0.7)"/>
     <use xlink:href="#Cmsy10-a1" transform="translate(171.875977 -17.00625) scale(0.7)"/>
     <use xlink:href="#Cmr10-31" transform="translate(238.546875 -17.00625) scale(0.7)"/>
     <use xlink:href="#Cmr10-29" transform="translate(279.924219 0)"/>
    </g>
   </g>
   <g id="text_6">
    <!-- $Q=\mathbf{r}(t_{n})$ -->
    <g transform="translate(464.943799 191.524974) scale(0.25 -0.25)">
     <defs>
      <path id="Cmmi10-51" d="M 1947 -141 
Q 1466 -141 1094 79 
Q 722 300 520 692 
Q 319 1084 319 1563 
Q 319 2259 714 2950 
Q 1109 3641 1756 4077 
Q 2403 4513 3109 4513 
Q 3475 4513 3778 4381 
Q 4081 4250 4290 4017 
Q 4500 3784 4614 3471 
Q 4728 3159 4728 2791 
Q 4728 2366 4581 1936 
Q 4434 1506 4171 1136 
Q 3909 766 3559 484 
Q 3209 203 2809 38 
Q 2850 -256 2934 -425 
Q 3019 -594 3256 -594 
Q 3506 -594 3726 -412 
Q 3947 -231 4006 13 
Q 4019 72 4078 72 
Q 4147 72 4147 -13 
Q 4100 -219 4008 -430 
Q 3916 -641 3786 -823 
Q 3656 -1006 3478 -1123 
Q 3300 -1241 3084 -1241 
Q 2547 -1241 2547 -550 
Q 2547 -509 2562 -332 
Q 2578 -156 2578 -44 
Q 2269 -141 1947 -141 
z
M 1709 300 
Q 1709 44 1991 44 
Q 2275 44 2591 184 
L 2591 244 
Q 2591 503 2509 648 
Q 2428 794 2194 794 
Q 2078 794 1964 723 
Q 1850 653 1779 539 
Q 1709 425 1709 300 
z
M 1544 288 
Q 1544 456 1637 612 
Q 1731 769 1881 864 
Q 2031 959 2203 959 
Q 2481 959 2607 771 
Q 2734 584 2778 281 
Q 3188 525 3500 978 
Q 3813 1431 3977 1973 
Q 4141 2516 4141 3003 
Q 4141 3356 4023 3656 
Q 3906 3956 3664 4140 
Q 3422 4325 3066 4325 
Q 2722 4325 2403 4156 
Q 2084 3988 1813 3706 
Q 1550 3434 1342 3032 
Q 1134 2631 1021 2193 
Q 909 1756 909 1356 
Q 909 947 1068 612 
Q 1228 278 1569 128 
Q 1544 194 1544 288 
z
" transform="scale(0.015625)"/>
     </defs>
     <use xlink:href="#Cmmi10-51"/>
     <use xlink:href="#Cmr10-3d" transform="translate(96.5625 0)"/>
     <use xlink:href="#Cmb10-72" transform="translate(191.806641 0)"/>
     <use xlink:href="#Cmr10-28" transform="translate(234.482422 0)"/>
     <use xlink:href="#Cmmi10-74" transform="translate(273.300781 0)"/>
     <use xlink:href="#Cmmi10-6e" transform="translate(309.384766 -17.00625) scale(0.7)"/>
     <use xlink:href="#Cmr10-29" transform="translate(357.768945 0)"/>
    </g>
   </g>
   <g id="text_7">
    <!-- $\cdots$ -->
    <g style="fill: #ff0000" transform="translate(204.80884 172.011472) scale(0.25 -0.25)">
     <defs>
      <path id="STIXGeneral-Regular-22ef" d="M 5235 1619 
Q 5235 1453 5123 1331 
Q 5011 1210 4832 1210 
Q 4646 1210 4534 1322 
Q 4422 1434 4422 1619 
Q 4422 1792 4547 1907 
Q 4672 2022 4832 2022 
Q 4992 2022 5113 1907 
Q 5235 1792 5235 1619 
z
M 3366 1619 
Q 3366 1453 3254 1331 
Q 3142 1210 2963 1210 
Q 2778 1210 2666 1322 
Q 2554 1434 2554 1619 
Q 2554 1792 2678 1907 
Q 2803 2022 2963 2022 
Q 3123 2022 3244 1907 
Q 3366 1792 3366 1619 
z
M 1504 1619 
Q 1504 1453 1392 1331 
Q 1280 1210 1101 1210 
Q 915 1210 803 1322 
Q 691 1434 691 1619 
Q 691 1792 816 1907 
Q 941 2022 1101 2022 
Q 1261 2022 1382 1907 
Q 1504 1792 1504 1619 
z
" transform="scale(0.015625)"/>
     </defs>
     <use xlink:href="#STIXGeneral-Regular-22ef" transform="translate(0 0.40625)"/>
    </g>
   </g>
  </g>
 </g>
 <defs>
  <clipPath id="p62185c9a6e">
   <rect x="22.297624" y="92.764108" width="501.923551" height="256.264615"/>
  </clipPath>
 </defs>
</svg>
