<?xml version="1.0" encoding="utf-8" standalone="no"?>
<!DOCTYPE svg PUBLIC "-//W3C//DTD SVG 1.1//EN"
  "http://www.w3.org/Graphics/SVG/1.1/DTD/svg11.dtd">
<svg xmlns:xlink="http://www.w3.org/1999/xlink" width="764.173338pt" height="360.935463pt" viewBox="0 0 764.173338 360.935463" xmlns="http://www.w3.org/2000/svg" version="1.1">
 <metadata>
  <rdf:RDF xmlns:dc="http://purl.org/dc/elements/1.1/" xmlns:cc="http://creativecommons.org/ns#" xmlns:rdf="http://www.w3.org/1999/02/22-rdf-syntax-ns#">
   <cc:Work>
    <dc:type rdf:resource="http://purl.org/dc/dcmitype/StillImage"/>
    <dc:date>2023-05-30T18:28:03.485050</dc:date>
    <dc:format>image/svg+xml</dc:format>
    <dc:creator>
     <cc:Agent>
      <dc:title>Matplotlib v3.6.2, https://matplotlib.org/</dc:title>
     </cc:Agent>
    </dc:creator>
   </cc:Work>
  </rdf:RDF>
 </metadata>
 <defs>
  <style type="text/css">*{stroke-linejoin: round; stroke-linecap: butt}</style>
 </defs>
 <g id="figure_1">
  <g id="patch_1">
   <path d="M 0 360.935463 
L 764.173338 360.935463 
L 764.173338 0 
L 0 0 
z
" style="fill: #ffffff"/>
  </g>
  <g id="axes_1">
   <g id="patch_2">
    <path d="M 17.252555 348.71209 
L 524.11971 348.71209 
L 524.11971 89.927475 
L 17.252555 89.927475 
z
" style="fill: #ffffff"/>
   </g>
   <g id="PathCollection_1">
    <path d="M 111.466005 326.995406 
C 112.40364 326.995406 113.302998 326.62288 113.966005 325.959873 
C 114.629013 325.296865 115.001539 324.397507 115.001539 323.459873 
C 115.001539 322.522238 114.629013 321.62288 113.966005 320.959873 
C 113.302998 320.296865 112.40364 319.924339 111.466005 319.924339 
C 110.528371 319.924339 109.629013 320.296865 108.966005 320.959873 
C 108.302998 321.62288 107.930472 322.522238 107.930472 323.459873 
C 107.930472 324.397507 108.302998 325.296865 108.966005 325.959873 
C 109.629013 326.62288 110.528371 326.995406 111.466005 326.995406 
z
" clip-path="url(#p2055b548c1)"/>
   </g>
   <g id="PathCollection_2">
    <path d="M 47.275591 280.455507 
C 48.213225 280.455507 49.112583 280.082981 49.775591 279.419973 
C 50.438598 278.756965 50.811125 277.857608 50.811125 276.919973 
C 50.811125 275.982339 50.438598 275.082981 49.775591 274.419973 
C 49.112583 273.756965 48.213225 273.384439 47.275591 273.384439 
C 46.337956 273.384439 45.438598 273.756965 44.775591 274.419973 
C 44.112583 275.082981 43.740057 275.982339 43.740057 276.919973 
C 43.740057 277.857608 44.112583 278.756965 44.775591 279.419973 
C 45.438598 280.082981 46.337956 280.455507 47.275591 280.455507 
z
" clip-path="url(#p2055b548c1)"/>
   </g>
   <g id="PathCollection_3">
    <path d="M 53.733959 219.602065 
C 54.671593 219.602065 55.570951 219.229539 56.233959 218.566531 
C 56.896967 217.903523 57.269493 217.004165 57.269493 216.066531 
C 57.269493 215.128896 56.896967 214.229539 56.233959 213.566531 
C 55.570951 212.903523 54.671593 212.530997 53.733959 212.530997 
C 52.796324 212.530997 51.896967 212.903523 51.233959 213.566531 
C 50.570951 214.229539 50.198425 215.128896 50.198425 216.066531 
C 50.198425 217.004165 50.570951 217.903523 51.233959 218.566531 
C 51.896967 219.229539 52.796324 219.602065 53.733959 219.602065 
z
" clip-path="url(#p2055b548c1)"/>
   </g>
   <g id="PathCollection_4">
    <path d="M 118.401275 159.11729 
C 119.338909 159.11729 120.238267 158.744764 120.901275 158.081756 
C 121.564282 157.418749 121.936809 156.519391 121.936809 155.581756 
C 121.936809 154.644122 121.564282 153.744764 120.901275 153.081756 
C 120.238267 152.418749 119.338909 152.046222 118.401275 152.046222 
C 117.46364 152.046222 116.564282 152.418749 115.901275 153.081756 
C 115.238267 153.744764 114.865741 154.644122 114.865741 155.581756 
C 114.865741 156.519391 115.238267 157.418749 115.901275 158.081756 
C 116.564282 158.744764 117.46364 159.11729 118.401275 159.11729 
z
" clip-path="url(#p2055b548c1)"/>
   </g>
   <g id="PathCollection_5">
    <path d="M 330.096898 98.439636 
C 331.034533 98.439636 331.93389 98.06711 332.596898 97.404102 
C 333.259906 96.741095 333.632432 95.841737 333.632432 94.904102 
C 333.632432 93.966468 333.259906 93.06711 332.596898 92.404102 
C 331.93389 91.741095 331.034533 91.368568 330.096898 91.368568 
C 329.159263 91.368568 328.259906 91.741095 327.596898 92.404102 
C 326.93389 93.06711 326.561364 93.966468 326.561364 94.904102 
C 326.561364 95.841737 326.93389 96.741095 327.596898 97.404102 
C 328.259906 98.06711 329.159263 98.439636 330.096898 98.439636 
z
" clip-path="url(#p2055b548c1)"/>
   </g>
   <g id="PathCollection_6">
    <path d="M 427.879967 116.634111 
C 428.817602 116.634111 429.71696 116.261585 430.379967 115.598577 
C 431.042975 114.935569 431.415501 114.036212 431.415501 113.098577 
C 431.415501 112.160943 431.042975 111.261585 430.379967 110.598577 
C 429.71696 109.935569 428.817602 109.563043 427.879967 109.563043 
C 426.942333 109.563043 426.042975 109.935569 425.379967 110.598577 
C 424.71696 111.261585 424.344433 112.160943 424.344433 113.098577 
C 424.344433 114.036212 424.71696 114.935569 425.379967 115.598577 
C 426.042975 116.261585 426.942333 116.634111 427.879967 116.634111 
z
" clip-path="url(#p2055b548c1)"/>
   </g>
   <g id="PathCollection_7">
    <path d="M 494.096674 166.605499 
C 495.034309 166.605499 495.933666 166.232973 496.596674 165.569965 
C 497.259682 164.906958 497.632208 164.0076 497.632208 163.069965 
C 497.632208 162.132331 497.259682 161.232973 496.596674 160.569965 
C 495.933666 159.906958 495.034309 159.534432 494.096674 159.534432 
C 493.15904 159.534432 492.259682 159.906958 491.596674 160.569965 
C 490.933666 161.232973 490.56114 162.132331 490.56114 163.069965 
C 490.56114 164.0076 490.933666 164.906958 491.596674 165.569965 
C 492.259682 166.232973 493.15904 166.605499 494.096674 166.605499 
z
" clip-path="url(#p2055b548c1)"/>
   </g>
   <g id="matplotlib.axis_1"/>
   <g id="matplotlib.axis_2"/>
   <g id="line2d_1">
    <path d="M 494.096674 163.069965 
L 491.385425 159.502152 
L 487.370562 154.651868 
L 484.101369 151.026019 
L 479.641043 146.473991 
L 475.684317 142.764369 
L 470.218209 138.073766 
L 466.704164 135.291627 
L 460.347391 130.66304 
L 455.618573 127.520066 
L 449.71423 123.913485 
L 442.47339 119.9195 
L 435.683527 116.556384 
L 428.552944 113.380736 
L 423.915725 111.49475 
L 416.076225 108.601435 
L 410.46753 106.743167 
L 405.904115 105.353089 
L 397.952846 103.17663 
L 390.638994 101.433505 
L 380.944044 99.478552 
L 374.750957 98.429303 
L 366.115841 97.211052 
L 359.579392 96.469673 
L 352.292716 95.818603 
L 342.775733 95.234929 
L 337.34408 95.032158 
L 330.573691 94.907609 
L 321.772153 94.952157 
L 315.045192 95.139102 
L 303.613732 95.751422 
L 295.693504 96.387666 
L 285.596592 97.444245 
L 279.291008 98.241319 
L 271.524013 99.36621 
L 261.311015 101.083319 
L 250.203525 103.255332 
L 240.697741 105.365321 
L 227.939552 108.56253 
L 217.09249 111.613443 
L 208.974358 114.100104 
L 202.761968 116.122727 
L 192.043855 119.862079 
L 182.639952 123.411392 
L 170.815846 128.2468 
L 159.8386 133.129123 
L 153.729107 136.020653 
L 146.375458 139.67648 
L 137.357259 144.438824 
L 127.957471 149.758696 
L 119.280913 155.026879 
L 112.307815 159.538797 
L 104.206478 165.132608 
L 98.023258 169.691053 
L 90.864316 175.331659 
L 87.214767 178.378707 
L 80.562532 184.282801 
L 75.725455 188.909892 
L 70.031497 194.803313 
L 64.936118 200.595767 
L 61.809464 204.461129 
L 58.799104 208.467336 
L 55.561029 213.175567 
L 52.683321 217.824337 
L 50.63072 221.507551 
L 48.637438 225.496137 
L 47.080245 229.013987 
L 45.872525 232.097723 
L 44.860013 235.038372 
L 43.69576 239.075212 
L 42.90917 242.542165 
L 42.308768 246.127345 
L 41.846006 251.111637 
L 41.784485 254.23571 
L 41.979583 258.307545 
L 42.311392 261.178545 
L 42.796311 263.981429 
L 43.778699 267.993386 
L 45.004617 271.705146 
L 46.325756 274.919232 
L 47.839905 278.018038 
L 49.607437 281.124403 
L 51.217056 283.618377 
L 53.168824 286.328319 
L 56.068479 289.882756 
L 58.828458 292.874533 
L 62.428412 296.347971 
L 65.966927 299.396299 
L 69.721355 302.318617 
L 73.536345 305.020973 
L 78.471775 308.190606 
L 84.782387 311.8082 
L 88.049572 313.520732 
L 94.78712 316.762398 
L 100.507348 319.250543 
L 106.551535 321.654772 
L 111.466005 323.459873 
L 111.466005 323.459873 
" clip-path="url(#p2055b548c1)" style="fill: none; stroke: #000000; stroke-width: 2; stroke-linecap: square"/>
   </g>
   <g id="patch_3">
    <path d="M 219.05244 111.03932 
Q 220.154432 110.72256 219.107376 111.023529 
" clip-path="url(#p2055b548c1)" style="fill: none; stroke: #000000; stroke-width: 2; stroke-linecap: round"/>
    <path d="M 208.115253 108.980679 
L 219.107376 111.023529 
L 210.877822 118.591517 
L 208.115253 108.980679 
z
" clip-path="url(#p2055b548c1)" style="stroke: #000000; stroke-width: 2; stroke-linecap: round"/>
   </g>
   <g id="text_1">
    <!-- $P=\mathbf{r}(t_0)$ -->
    <g transform="translate(84.103801 348.735463) scale(0.2 -0.2)">
     <defs>
      <path id="Cmmi10-50" d="M 313 0 
Q 250 0 250 84 
Q 253 100 262 139 
Q 272 178 289 201 
Q 306 225 331 225 
Q 722 225 878 269 
Q 959 297 997 441 
L 1875 3956 
Q 1888 4019 1888 4044 
Q 1888 4113 1813 4122 
Q 1691 4147 1350 4147 
Q 1288 4147 1288 4231 
Q 1291 4247 1300 4286 
Q 1309 4325 1326 4348 
Q 1344 4372 1369 4372 
L 3578 4372 
Q 3881 4372 4165 4264 
Q 4450 4156 4631 3934 
Q 4813 3713 4813 3397 
Q 4813 2991 4527 2672 
Q 4241 2353 3814 2175 
Q 3388 1997 2988 1997 
L 1947 1997 
L 1556 416 
Q 1544 353 1544 325 
Q 1544 300 1551 283 
Q 1559 266 1573 261 
Q 1588 256 1619 250 
Q 1741 225 2081 225 
Q 2144 225 2144 141 
Q 2122 50 2109 25 
Q 2097 0 2034 0 
L 313 0 
z
M 1978 2188 
L 2875 2188 
Q 3497 2188 3822 2522 
Q 3988 2688 4092 3000 
Q 4197 3313 4197 3566 
Q 4197 3881 3956 4014 
Q 3716 4147 3359 4147 
L 2747 4147 
Q 2572 4147 2515 4117 
Q 2459 4088 2413 3928 
L 1978 2188 
z
" transform="scale(0.015625)"/>
      <path id="Cmr10-3d" d="M 481 850 
Q 428 850 393 890 
Q 359 931 359 978 
Q 359 1031 393 1068 
Q 428 1106 481 1106 
L 4500 1106 
Q 4547 1106 4581 1068 
Q 4616 1031 4616 978 
Q 4616 931 4581 890 
Q 4547 850 4500 850 
L 481 850 
z
M 481 2094 
Q 428 2094 393 2131 
Q 359 2169 359 2222 
Q 359 2269 393 2309 
Q 428 2350 481 2350 
L 4500 2350 
Q 4547 2350 4581 2309 
Q 4616 2269 4616 2222 
Q 4616 2169 4581 2131 
Q 4547 2094 4500 2094 
L 481 2094 
z
" transform="scale(0.015625)"/>
      <path id="Cmb10-72" d="M 91 0 
L 91 325 
L 531 325 
L 531 2322 
Q 531 2503 91 2503 
L 91 2828 
L 1178 2881 
L 1178 2356 
Q 1269 2594 1436 2737 
Q 1603 2881 1838 2881 
Q 2006 2881 2173 2822 
Q 2341 2763 2450 2641 
Q 2559 2519 2559 2344 
Q 2559 2178 2443 2059 
Q 2328 1941 2156 1941 
Q 1984 1941 1868 2059 
Q 1753 2178 1753 2344 
Q 1753 2513 1856 2625 
L 1838 2625 
Q 1488 2625 1367 2248 
Q 1247 1872 1247 1416 
L 1247 325 
L 1806 325 
L 1806 0 
L 91 0 
z
" transform="scale(0.015625)"/>
      <path id="Cmr10-28" d="M 1984 -1588 
Q 1628 -1306 1370 -942 
Q 1113 -578 948 -165 
Q 784 247 703 697 
Q 622 1147 622 1600 
Q 622 2059 703 2509 
Q 784 2959 951 3375 
Q 1119 3791 1378 4153 
Q 1638 4516 1984 4788 
Q 1984 4800 2016 4800 
L 2075 4800 
Q 2094 4800 2109 4783 
Q 2125 4766 2125 4744 
Q 2125 4716 2113 4703 
Q 1800 4397 1592 4047 
Q 1384 3697 1257 3301 
Q 1131 2906 1075 2482 
Q 1019 2059 1019 1600 
Q 1019 -434 2106 -1491 
Q 2125 -1509 2125 -1544 
Q 2125 -1559 2108 -1579 
Q 2091 -1600 2075 -1600 
L 2016 -1600 
Q 1984 -1600 1984 -1588 
z
" transform="scale(0.015625)"/>
      <path id="Cmmi10-74" d="M 397 519 
Q 397 613 416 697 
L 878 2534 
L 206 2534 
Q 141 2534 141 2619 
Q 166 2759 225 2759 
L 934 2759 
L 1191 3803 
Q 1216 3888 1291 3947 
Q 1366 4006 1459 4006 
Q 1541 4006 1595 3957 
Q 1650 3909 1650 3828 
Q 1650 3809 1648 3798 
Q 1647 3788 1644 3775 
L 1388 2759 
L 2047 2759 
Q 2113 2759 2113 2675 
Q 2109 2659 2100 2621 
Q 2091 2584 2075 2559 
Q 2059 2534 2028 2534 
L 1331 2534 
L 872 684 
Q 825 503 825 372 
Q 825 97 1013 97 
Q 1294 97 1511 361 
Q 1728 625 1844 941 
Q 1869 978 1894 978 
L 1972 978 
Q 1997 978 2012 961 
Q 2028 944 2028 922 
Q 2028 909 2022 903 
Q 1881 516 1612 222 
Q 1344 -72 997 -72 
Q 744 -72 570 93 
Q 397 259 397 519 
z
" transform="scale(0.015625)"/>
      <path id="Cmr10-30" d="M 1600 -141 
Q 816 -141 533 504 
Q 250 1150 250 2041 
Q 250 2597 351 3087 
Q 453 3578 754 3920 
Q 1056 4263 1600 4263 
Q 2022 4263 2290 4056 
Q 2559 3850 2700 3523 
Q 2841 3197 2892 2823 
Q 2944 2450 2944 2041 
Q 2944 1491 2842 1011 
Q 2741 531 2444 195 
Q 2147 -141 1600 -141 
z
M 1600 25 
Q 1956 25 2131 390 
Q 2306 756 2347 1200 
Q 2388 1644 2388 2144 
Q 2388 2625 2347 3031 
Q 2306 3438 2132 3767 
Q 1959 4097 1600 4097 
Q 1238 4097 1063 3765 
Q 888 3434 847 3029 
Q 806 2625 806 2144 
Q 806 1788 823 1472 
Q 841 1156 916 820 
Q 991 484 1158 254 
Q 1325 25 1600 25 
z
" transform="scale(0.015625)"/>
      <path id="Cmr10-29" d="M 416 -1600 
Q 359 -1600 359 -1544 
Q 359 -1516 372 -1503 
Q 1466 -434 1466 1600 
Q 1466 3634 384 4691 
Q 359 4706 359 4744 
Q 359 4766 376 4783 
Q 394 4800 416 4800 
L 475 4800 
Q 494 4800 506 4788 
Q 966 4425 1272 3906 
Q 1578 3388 1720 2800 
Q 1863 2213 1863 1600 
Q 1863 1147 1786 708 
Q 1709 269 1542 -157 
Q 1375 -584 1119 -945 
Q 863 -1306 506 -1588 
Q 494 -1600 475 -1600 
L 416 -1600 
z
" transform="scale(0.015625)"/>
     </defs>
     <use xlink:href="#Cmmi10-50"/>
     <use xlink:href="#Cmr10-3d" transform="translate(81.767578 0)"/>
     <use xlink:href="#Cmb10-72" transform="translate(177.011719 0)"/>
     <use xlink:href="#Cmr10-28" transform="translate(219.6875 0)"/>
     <use xlink:href="#Cmmi10-74" transform="translate(258.505859 0)"/>
     <use xlink:href="#Cmr10-30" transform="translate(294.589844 -17.00625) scale(0.7)"/>
     <use xlink:href="#Cmr10-29" transform="translate(335.967188 0)"/>
    </g>
   </g>
   <g id="text_2">
    <!-- $\mathbf{r}(t_1)$ -->
    <g transform="translate(7.2 292.057769) scale(0.2 -0.2)">
     <defs>
      <path id="Cmr10-31" d="M 594 0 
L 594 225 
Q 1394 225 1394 428 
L 1394 3788 
Q 1063 3628 556 3628 
L 556 3853 
Q 1341 3853 1741 4263 
L 1831 4263 
Q 1853 4263 1873 4245 
Q 1894 4228 1894 4206 
L 1894 428 
Q 1894 225 2694 225 
L 2694 0 
L 594 0 
z
" transform="scale(0.015625)"/>
     </defs>
     <use xlink:href="#Cmb10-72"/>
     <use xlink:href="#Cmr10-28" transform="translate(42.675781 0)"/>
     <use xlink:href="#Cmmi10-74" transform="translate(81.494141 0)"/>
     <use xlink:href="#Cmr10-31" transform="translate(117.578125 -17.00625) scale(0.7)"/>
     <use xlink:href="#Cmr10-29" transform="translate(158.955469 0)"/>
    </g>
   </g>
   <g id="text_3">
    <!-- $\mathbf{r}(t_2)$ -->
    <g transform="translate(64.347345 221.066531) scale(0.2 -0.2)">
     <defs>
      <path id="Cmr10-32" d="M 319 0 
L 319 172 
Q 319 188 331 206 
L 1325 1306 
Q 1550 1550 1690 1715 
Q 1831 1881 1968 2097 
Q 2106 2313 2186 2536 
Q 2266 2759 2266 3009 
Q 2266 3272 2169 3511 
Q 2072 3750 1880 3894 
Q 1688 4038 1416 4038 
Q 1138 4038 916 3870 
Q 694 3703 603 3438 
Q 628 3444 672 3444 
Q 816 3444 917 3347 
Q 1019 3250 1019 3097 
Q 1019 2950 917 2848 
Q 816 2747 672 2747 
Q 522 2747 420 2851 
Q 319 2956 319 3097 
Q 319 3338 409 3548 
Q 500 3759 670 3923 
Q 841 4088 1055 4175 
Q 1269 4263 1509 4263 
Q 1875 4263 2190 4108 
Q 2506 3953 2690 3670 
Q 2875 3388 2875 3009 
Q 2875 2731 2753 2481 
Q 2631 2231 2440 2026 
Q 2250 1822 1953 1562 
Q 1656 1303 1563 1216 
L 838 519 
L 1453 519 
Q 1906 519 2211 526 
Q 2516 534 2534 550 
Q 2609 631 2688 1141 
L 2875 1141 
L 2694 0 
L 319 0 
z
" transform="scale(0.015625)"/>
     </defs>
     <use xlink:href="#Cmb10-72"/>
     <use xlink:href="#Cmr10-28" transform="translate(42.675781 0)"/>
     <use xlink:href="#Cmmi10-74" transform="translate(81.494141 0)"/>
     <use xlink:href="#Cmr10-32" transform="translate(117.578125 -17.00625) scale(0.7)"/>
     <use xlink:href="#Cmr10-29" transform="translate(158.955469 0)"/>
    </g>
   </g>
   <g id="text_4">
    <!-- $\cdots$ -->
    <g transform="translate(129.376865 140.824916) scale(0.2 -0.2)">
     <defs>
      <path id="STIXGeneral-Regular-22ef" d="M 5235 1619 
Q 5235 1453 5123 1331 
Q 5011 1210 4832 1210 
Q 4646 1210 4534 1322 
Q 4422 1434 4422 1619 
Q 4422 1792 4547 1907 
Q 4672 2022 4832 2022 
Q 4992 2022 5113 1907 
Q 5235 1792 5235 1619 
z
M 3366 1619 
Q 3366 1453 3254 1331 
Q 3142 1210 2963 1210 
Q 2778 1210 2666 1322 
Q 2554 1434 2554 1619 
Q 2554 1792 2678 1907 
Q 2803 2022 2963 2022 
Q 3123 2022 3244 1907 
Q 3366 1792 3366 1619 
z
M 1504 1619 
Q 1504 1453 1392 1331 
Q 1280 1210 1101 1210 
Q 915 1210 803 1322 
Q 691 1434 691 1619 
Q 691 1792 816 1907 
Q 941 2022 1101 2022 
Q 1261 2022 1382 1907 
Q 1504 1792 1504 1619 
z
" transform="scale(0.015625)"/>
     </defs>
     <use xlink:href="#STIXGeneral-Regular-22ef" transform="translate(0 0.40625)"/>
    </g>
   </g>
   <g id="text_5">
    <!-- $\mathbf{r}(t_{n-2})$ -->
    <g transform="translate(298.196898 120.179693) scale(0.2 -0.2)">
     <defs>
      <path id="Cmmi10-6e" d="M 494 109 
Q 494 147 500 166 
L 978 2075 
Q 1025 2253 1025 2388 
Q 1025 2663 838 2663 
Q 638 2663 541 2423 
Q 444 2184 353 1819 
Q 353 1800 334 1789 
Q 316 1778 300 1778 
L 225 1778 
Q 203 1778 187 1801 
Q 172 1825 172 1844 
Q 241 2122 305 2315 
Q 369 2509 505 2668 
Q 641 2828 844 2828 
Q 1084 2828 1268 2676 
Q 1453 2525 1453 2291 
Q 1644 2541 1900 2684 
Q 2156 2828 2444 2828 
Q 2672 2828 2837 2750 
Q 3003 2672 3095 2514 
Q 3188 2356 3188 2138 
Q 3188 1875 3070 1503 
Q 2953 1131 2778 672 
Q 2688 463 2688 288 
Q 2688 97 2834 97 
Q 3084 97 3251 365 
Q 3419 634 3488 941 
Q 3500 978 3541 978 
L 3616 978 
Q 3641 978 3658 962 
Q 3675 947 3675 922 
Q 3675 916 3669 903 
Q 3581 541 3364 234 
Q 3147 -72 2822 -72 
Q 2597 -72 2437 83 
Q 2278 238 2278 459 
Q 2278 578 2328 709 
Q 2409 919 2514 1209 
Q 2619 1500 2686 1765 
Q 2753 2031 2753 2234 
Q 2753 2413 2679 2538 
Q 2606 2663 2431 2663 
Q 2197 2663 2000 2559 
Q 1803 2456 1656 2286 
Q 1509 2116 1388 1881 
L 953 141 
Q 931 53 854 -9 
Q 778 -72 684 -72 
Q 606 -72 550 -22 
Q 494 28 494 109 
z
" transform="scale(0.015625)"/>
      <path id="Cmsy10-a1" d="M 653 1472 
Q 600 1472 565 1512 
Q 531 1553 531 1600 
Q 531 1647 565 1687 
Q 600 1728 653 1728 
L 4325 1728 
Q 4375 1728 4408 1687 
Q 4441 1647 4441 1600 
Q 4441 1553 4408 1512 
Q 4375 1472 4325 1472 
L 653 1472 
z
" transform="scale(0.015625)"/>
     </defs>
     <use xlink:href="#Cmb10-72"/>
     <use xlink:href="#Cmr10-28" transform="translate(42.675781 0)"/>
     <use xlink:href="#Cmmi10-74" transform="translate(81.494141 0)"/>
     <use xlink:href="#Cmmi10-6e" transform="translate(117.578125 -17.00625) scale(0.7)"/>
     <use xlink:href="#Cmsy10-a1" transform="translate(171.875977 -17.00625) scale(0.7)"/>
     <use xlink:href="#Cmr10-32" transform="translate(238.546875 -17.00625) scale(0.7)"/>
     <use xlink:href="#Cmr10-29" transform="translate(279.924219 0)"/>
    </g>
   </g>
   <g id="text_6">
    <!-- $\mathbf{r}(t_{n-1})$ -->
    <g transform="translate(385.842172 138.374168) scale(0.2 -0.2)">
     <use xlink:href="#Cmb10-72"/>
     <use xlink:href="#Cmr10-28" transform="translate(42.675781 0)"/>
     <use xlink:href="#Cmmi10-74" transform="translate(81.494141 0)"/>
     <use xlink:href="#Cmmi10-6e" transform="translate(117.578125 -17.00625) scale(0.7)"/>
     <use xlink:href="#Cmsy10-a1" transform="translate(171.875977 -17.00625) scale(0.7)"/>
     <use xlink:href="#Cmr10-31" transform="translate(238.546875 -17.00625) scale(0.7)"/>
     <use xlink:href="#Cmr10-29" transform="translate(279.924219 0)"/>
    </g>
   </g>
   <g id="text_7">
    <!-- $Q=\mathbf{r}(t_{n})$ -->
    <g transform="translate(474.672265 188.345556) scale(0.2 -0.2)">
     <defs>
      <path id="Cmmi10-51" d="M 1947 -141 
Q 1466 -141 1094 79 
Q 722 300 520 692 
Q 319 1084 319 1563 
Q 319 2259 714 2950 
Q 1109 3641 1756 4077 
Q 2403 4513 3109 4513 
Q 3475 4513 3778 4381 
Q 4081 4250 4290 4017 
Q 4500 3784 4614 3471 
Q 4728 3159 4728 2791 
Q 4728 2366 4581 1936 
Q 4434 1506 4171 1136 
Q 3909 766 3559 484 
Q 3209 203 2809 38 
Q 2850 -256 2934 -425 
Q 3019 -594 3256 -594 
Q 3506 -594 3726 -412 
Q 3947 -231 4006 13 
Q 4019 72 4078 72 
Q 4147 72 4147 -13 
Q 4100 -219 4008 -430 
Q 3916 -641 3786 -823 
Q 3656 -1006 3478 -1123 
Q 3300 -1241 3084 -1241 
Q 2547 -1241 2547 -550 
Q 2547 -509 2562 -332 
Q 2578 -156 2578 -44 
Q 2269 -141 1947 -141 
z
M 1709 300 
Q 1709 44 1991 44 
Q 2275 44 2591 184 
L 2591 244 
Q 2591 503 2509 648 
Q 2428 794 2194 794 
Q 2078 794 1964 723 
Q 1850 653 1779 539 
Q 1709 425 1709 300 
z
M 1544 288 
Q 1544 456 1637 612 
Q 1731 769 1881 864 
Q 2031 959 2203 959 
Q 2481 959 2607 771 
Q 2734 584 2778 281 
Q 3188 525 3500 978 
Q 3813 1431 3977 1973 
Q 4141 2516 4141 3003 
Q 4141 3356 4023 3656 
Q 3906 3956 3664 4140 
Q 3422 4325 3066 4325 
Q 2722 4325 2403 4156 
Q 2084 3988 1813 3706 
Q 1550 3434 1342 3032 
Q 1134 2631 1021 2193 
Q 909 1756 909 1356 
Q 909 947 1068 612 
Q 1228 278 1569 128 
Q 1544 194 1544 288 
z
" transform="scale(0.015625)"/>
     </defs>
     <use xlink:href="#Cmmi10-51"/>
     <use xlink:href="#Cmr10-3d" transform="translate(96.5625 0)"/>
     <use xlink:href="#Cmb10-72" transform="translate(191.806641 0)"/>
     <use xlink:href="#Cmr10-28" transform="translate(234.482422 0)"/>
     <use xlink:href="#Cmmi10-74" transform="translate(273.300781 0)"/>
     <use xlink:href="#Cmmi10-6e" transform="translate(309.384766 -17.00625) scale(0.7)"/>
     <use xlink:href="#Cmr10-29" transform="translate(357.768945 0)"/>
    </g>
   </g>
  </g>
 </g>
 <defs>
  <clipPath id="p2055b548c1">
   <rect x="17.252555" y="89.927475" width="506.867155" height="258.784615"/>
  </clipPath>
 </defs>
</svg>
