<?xml version="1.0" encoding="utf-8" standalone="no"?>
<!DOCTYPE svg PUBLIC "-//W3C//DTD SVG 1.1//EN"
  "http://www.w3.org/Graphics/SVG/1.1/DTD/svg11.dtd">
<svg xmlns:xlink="http://www.w3.org/1999/xlink" width="519.996339pt" height="323.484666pt" viewBox="0 0 519.996339 323.484666" xmlns="http://www.w3.org/2000/svg" version="1.1">
 <metadata>
  <rdf:RDF xmlns:dc="http://purl.org/dc/elements/1.1/" xmlns:cc="http://creativecommons.org/ns#" xmlns:rdf="http://www.w3.org/1999/02/22-rdf-syntax-ns#">
   <cc:Work>
    <dc:type rdf:resource="http://purl.org/dc/dcmitype/StillImage"/>
    <dc:date>2023-05-16T16:41:30.361506</dc:date>
    <dc:format>image/svg+xml</dc:format>
    <dc:creator>
     <cc:Agent>
      <dc:title>Matplotlib v3.6.2, https://matplotlib.org/</dc:title>
     </cc:Agent>
    </dc:creator>
   </cc:Work>
  </rdf:RDF>
 </metadata>
 <defs>
  <style type="text/css">*{stroke-linejoin: round; stroke-linecap: butt}</style>
 </defs>
 <g id="figure_1">
  <g id="patch_1">
   <path d="M 0 323.484666 
L 519.996339 323.484666 
L 519.996339 0 
L 0 0 
z
" style="fill: #ffffff"/>
  </g>
  <g id="axes_1">
   <g id="patch_2">
    <path d="M 7.2 316.284666 
L 337.301714 316.284666 
L 337.301714 49.884666 
L 7.2 49.884666 
z
" style="fill: #ffffff"/>
   </g>
   <g id="PathCollection_1">
    <path d="M 312.605398 247.495306 
C 313.543033 247.495306 314.44239 247.12278 315.105398 246.459772 
C 315.768406 245.796765 316.140932 244.897407 316.140932 243.959772 
C 316.140932 243.022138 315.768406 242.12278 315.105398 241.459772 
C 314.44239 240.796765 313.543033 240.424238 312.605398 240.424238 
C 311.667763 240.424238 310.768406 240.796765 310.105398 241.459772 
C 309.44239 242.12278 309.069864 243.022138 309.069864 243.959772 
C 309.069864 244.897407 309.44239 245.796765 310.105398 246.459772 
C 310.768406 247.12278 311.667763 247.495306 312.605398 247.495306 
z
" clip-path="url(#p1c018d047b)"/>
   </g>
   <g id="PathCollection_2">
    <path d="M 114.886906 127.361759 
C 115.824541 127.361759 116.723898 126.989233 117.386906 126.326225 
C 118.049914 125.663217 118.42244 124.76386 118.42244 123.826225 
C 118.42244 122.888591 118.049914 121.989233 117.386906 121.326225 
C 116.723898 120.663217 115.824541 120.290691 114.886906 120.290691 
C 113.949271 120.290691 113.049914 120.663217 112.386906 121.326225 
C 111.723898 121.989233 111.351372 122.888591 111.351372 123.826225 
C 111.351372 124.76386 111.723898 125.663217 112.386906 126.326225 
C 113.049914 126.989233 113.949271 127.361759 114.886906 127.361759 
z
" clip-path="url(#p1c018d047b)"/>
   </g>
   <g id="matplotlib.axis_1"/>
   <g id="matplotlib.axis_2"/>
   <g id="line2d_1">
    <path d="M 312.605398 243.959772 
L 282.983374 207.351457 
L 265.127314 185.454317 
L 249.139127 166.264341 
L 239.372215 154.836049 
L 228.014291 141.911656 
L 217.92345 130.825487 
L 207.220975 119.548458 
L 201.384289 113.634725 
L 193.608655 106.044433 
L 187.761673 100.571734 
L 181.935212 95.335013 
L 175.487369 89.810403 
L 166.648787 82.737783 
L 160.928584 78.493878 
L 154.791282 74.254694 
L 148.785786 70.442466 
L 144.845451 68.132519 
L 138.315918 64.659078 
L 133.090037 62.216418 
L 127.432372 59.932487 
L 123.012141 58.42435 
L 117.47329 56.8977 
L 112.985233 55.974163 
L 109.682762 55.483618 
L 105.45403 55.101314 
L 102.734788 55.007743 
L 98.405617 55.116993 
L 94.416031 55.512739 
L 90.523078 56.187548 
L 88.010738 56.782127 
L 82.90738 58.396915 
L 79.960654 59.591809 
L 77.725946 60.633455 
L 73.230187 63.103265 
L 68.762994 66.087402 
L 67.365295 67.136959 
L 64.045105 69.865748 
L 62.403888 71.342778 
L 58.258184 75.47815 
L 55.391498 78.70104 
L 53.626472 80.844618 
L 49.759789 85.99968 
L 47.491078 89.341969 
L 44.55817 94.046923 
L 41.695375 99.099797 
L 39.044643 104.231917 
L 37.008657 108.504623 
L 34.25072 114.810693 
L 31.390006 122.079532 
L 29.538522 127.247126 
L 26.81753 135.63738 
L 24.508619 143.670555 
L 22.390662 151.994441 
L 20.509368 160.408924 
L 19.137316 167.36861 
L 17.69096 175.770381 
L 16.789405 181.799232 
L 15.728312 190.109192 
L 14.756586 199.755936 
L 14.159877 207.799238 
L 13.729956 216.698154 
L 13.567759 223.668176 
L 13.59068 232.301489 
L 13.889946 241.140092 
L 14.305286 247.641097 
L 15.000931 255.022501 
L 15.958347 262.342087 
L 17.040762 268.690414 
L 18.377327 274.92867 
L 19.923176 280.748877 
L 21.003938 284.191324 
L 22.45375 288.197625 
L 24.441176 292.800303 
L 26.528381 296.772998 
L 28.910152 300.460932 
L 30.60918 302.639083 
L 31.461556 303.608206 
L 33.853754 305.937214 
L 36.11386 307.668568 
L 38.034698 308.826273 
L 40.32472 309.871367 
L 41.573754 310.301123 
L 43.169488 310.717158 
L 45.705481 311.094133 
L 48.767676 311.126989 
L 51.860223 310.739111 
L 53.447078 310.389907 
L 56.447715 309.473279 
L 59.167884 308.373197 
L 61.371305 307.308285 
L 61.371305 307.308285 
" clip-path="url(#p1c018d047b)" style="fill: none; stroke: #000000; stroke-linecap: square"/>
   </g>
   <g id="line2d_2">
    <path d="M 61.371305 307.308285 
L 65.932073 303.095084 
L 69.833916 299.204003 
L 74.257875 294.398945 
L 77.360432 290.722416 
L 80.64425 286.487139 
L 83.474587 282.483969 
L 86.460992 277.806769 
L 88.460994 274.342321 
L 90.672364 270.108969 
L 92.605553 265.957046 
L 94.435291 261.502754 
L 96.078581 256.896584 
L 97.573429 251.980997 
L 98.792763 247.194545 
L 99.701979 242.917029 
L 100.718172 236.92289 
L 101.473782 230.888381 
L 102.016812 224.640037 
L 102.396978 217.491605 
L 102.593121 209.802261 
L 102.654777 196.569659 
L 102.765169 181.938359 
L 103.074651 173.366836 
L 103.50501 167.042682 
L 104.160974 160.70605 
L 105.009346 154.842672 
L 106.027371 149.450596 
L 107.183322 144.519611 
L 108.616397 139.461631 
L 110.185399 134.78379 
L 111.931468 130.28959 
L 113.915077 125.823757 
L 114.886906 123.826225 
L 114.886906 123.826225 
" clip-path="url(#p1c018d047b)" style="fill: none; stroke: #000000; stroke-linecap: square"/>
   </g>
   <g id="patch_3">
    <path d="M 83.9396 58.024785 
Q 83.85541 58.054331 85.881128 57.343409 
" clip-path="url(#p1c018d047b)" style="fill: none; stroke: #000000; stroke-width: 2; stroke-linecap: round"/>
    <path d="M 96.972655 58.749831 
L 85.881128 57.343409 
L 93.661182 49.31404 
L 96.972655 58.749831 
z
" clip-path="url(#p1c018d047b)" style="stroke: #000000; stroke-width: 2; stroke-linecap: round"/>
   </g>
   <g id="patch_4">
    <path d="M 102.654769 197.219049 
Q 102.654775 196.852085 102.654744 198.721189 
" clip-path="url(#p1c018d047b)" style="fill: none; stroke: #000000; stroke-width: 2; stroke-linecap: round"/>
    <path d="M 97.654577 208.721106 
L 102.654744 198.721189 
L 107.654577 208.721272 
L 97.654577 208.721106 
z
" clip-path="url(#p1c018d047b)" style="stroke: #000000; stroke-width: 2; stroke-linecap: round"/>
   </g>
   <g id="text_1">
    <!-- $P$ -->
    <g transform="translate(322.828604 232.510004) scale(0.25 -0.25)">
     <defs>
      <path id="Cmmi10-50" d="M 313 0 
Q 250 0 250 84 
Q 253 100 262 139 
Q 272 178 289 201 
Q 306 225 331 225 
Q 722 225 878 269 
Q 959 297 997 441 
L 1875 3956 
Q 1888 4019 1888 4044 
Q 1888 4113 1813 4122 
Q 1691 4147 1350 4147 
Q 1288 4147 1288 4231 
Q 1291 4247 1300 4286 
Q 1309 4325 1326 4348 
Q 1344 4372 1369 4372 
L 3578 4372 
Q 3881 4372 4165 4264 
Q 4450 4156 4631 3934 
Q 4813 3713 4813 3397 
Q 4813 2991 4527 2672 
Q 4241 2353 3814 2175 
Q 3388 1997 2988 1997 
L 1947 1997 
L 1556 416 
Q 1544 353 1544 325 
Q 1544 300 1551 283 
Q 1559 266 1573 261 
Q 1588 256 1619 250 
Q 1741 225 2081 225 
Q 2144 225 2144 141 
Q 2122 50 2109 25 
Q 2097 0 2034 0 
L 313 0 
z
M 1978 2188 
L 2875 2188 
Q 3497 2188 3822 2522 
Q 3988 2688 4092 3000 
Q 4197 3313 4197 3566 
Q 4197 3881 3956 4014 
Q 3716 4147 3359 4147 
L 2747 4147 
Q 2572 4147 2515 4117 
Q 2459 4088 2413 3928 
L 1978 2188 
z
" transform="scale(0.015625)"/>
     </defs>
     <use xlink:href="#Cmmi10-50" transform="translate(0 0.6875)"/>
    </g>
   </g>
   <g id="text_2">
    <!-- $R$ -->
    <g transform="translate(123.735112 112.376457) scale(0.25 -0.25)">
     <defs>
      <path id="Cmmi10-52" d="M 313 0 
Q 250 0 250 84 
Q 253 100 262 139 
Q 272 178 289 201 
Q 306 225 331 225 
Q 722 225 878 269 
Q 959 297 997 441 
L 1875 3956 
Q 1888 4019 1888 4044 
Q 1888 4113 1813 4122 
Q 1691 4147 1350 4147 
Q 1288 4147 1288 4231 
Q 1291 4247 1300 4286 
Q 1309 4325 1326 4348 
Q 1344 4372 1369 4372 
L 3309 4372 
Q 3541 4372 3791 4319 
Q 4041 4266 4250 4152 
Q 4459 4038 4593 3848 
Q 4728 3659 4728 3406 
Q 4728 3084 4515 2831 
Q 4303 2578 3978 2408 
Q 3653 2238 3347 2169 
Q 3597 2078 3756 1879 
Q 3916 1681 3916 1422 
Q 3916 1388 3914 1370 
Q 3913 1353 3909 1331 
L 3859 763 
Q 3853 638 3847 550 
Q 3841 463 3841 409 
Q 3841 234 3892 129 
Q 3944 25 4097 25 
Q 4297 25 4448 211 
Q 4600 397 4647 616 
Q 4675 672 4709 672 
L 4769 672 
Q 4831 672 4831 588 
Q 4784 403 4682 237 
Q 4581 72 4426 -34 
Q 4272 -141 4091 -141 
Q 3716 -141 3452 26 
Q 3188 194 3188 550 
Q 3188 684 3213 788 
L 3353 1356 
Q 3378 1434 3378 1538 
Q 3378 1803 3198 1954 
Q 3019 2106 2747 2106 
L 1959 2106 
L 1538 416 
Q 1522 363 1522 325 
Q 1522 259 1600 250 
Q 1722 225 2059 225 
Q 2125 225 2125 141 
Q 2103 50 2090 25 
Q 2078 0 2016 0 
L 313 0 
z
M 1997 2272 
L 2706 2272 
Q 3403 2272 3756 2625 
Q 3919 2788 4014 3039 
Q 4109 3291 4109 3541 
Q 4109 3778 3970 3912 
Q 3831 4047 3626 4097 
Q 3422 4147 3175 4147 
L 2747 4147 
Q 2572 4147 2515 4117 
Q 2459 4088 2413 3928 
L 1997 2272 
z
" transform="scale(0.015625)"/>
     </defs>
     <use xlink:href="#Cmmi10-52" transform="translate(0 0.6875)"/>
    </g>
   </g>
  </g>
 </g>
 <defs>
  <clipPath id="p1c018d047b">
   <rect x="7.2" y="49.884666" width="330.101714" height="266.4"/>
  </clipPath>
 </defs>
</svg>
