<?xml version="1.0" encoding="utf-8" standalone="no"?>
<!DOCTYPE svg PUBLIC "-//W3C//DTD SVG 1.1//EN"
  "http://www.w3.org/Graphics/SVG/1.1/DTD/svg11.dtd">
<svg xmlns:xlink="http://www.w3.org/1999/xlink" width="240.032895pt" height="382.237324pt" viewBox="0 0 240.032895 382.237324" xmlns="http://www.w3.org/2000/svg" version="1.1">
 <metadata>
  <rdf:RDF xmlns:dc="http://purl.org/dc/elements/1.1/" xmlns:cc="http://creativecommons.org/ns#" xmlns:rdf="http://www.w3.org/1999/02/22-rdf-syntax-ns#">
   <cc:Work>
    <dc:type rdf:resource="http://purl.org/dc/dcmitype/StillImage"/>
    <dc:date>2023-05-16T16:39:29.299347</dc:date>
    <dc:format>image/svg+xml</dc:format>
    <dc:creator>
     <cc:Agent>
      <dc:title>Matplotlib v3.6.2, https://matplotlib.org/</dc:title>
     </cc:Agent>
    </dc:creator>
   </cc:Work>
  </rdf:RDF>
 </metadata>
 <defs>
  <style type="text/css">*{stroke-linejoin: round; stroke-linecap: butt}</style>
 </defs>
 <g id="figure_1">
  <g id="patch_1">
   <path d="M 0 382.237324 
L 240.032895 382.237324 
L 240.032895 0 
L 0 0 
z
" style="fill: #ffffff"/>
  </g>
  <g id="axes_1">
   <g id="patch_2">
    <path d="M 7.2 367.755999 
L 96.375105 367.755999 
L 96.375105 117.306769 
L 7.2 117.306769 
z
" style="fill: #ffffff"/>
   </g>
   <g id="PathCollection_1">
    <path d="M 8.914906 366.475202 
C 9.85254 366.475202 10.751898 366.102676 11.414906 365.439668 
C 12.077914 364.77666 12.45044 363.877303 12.45044 362.939668 
C 12.45044 362.002034 12.077914 361.102676 11.414906 360.439668 
C 10.751898 359.77666 9.85254 359.404134 8.914906 359.404134 
C 7.977271 359.404134 7.077914 359.77666 6.414906 360.439668 
C 5.751898 361.102676 5.379372 362.002034 5.379372 362.939668 
C 5.379372 363.877303 5.751898 364.77666 6.414906 365.439668 
C 7.077914 366.102676 7.977271 366.475202 8.914906 366.475202 
z
" clip-path="url(#pca48cdbe17)"/>
   </g>
   <g id="PathCollection_2">
    <path d="M 72.767784 147.551049 
C 73.705418 147.551049 74.604776 147.178523 75.267784 146.515515 
C 75.930792 145.852508 76.303318 144.95315 76.303318 144.015515 
C 76.303318 143.077881 75.930792 142.178523 75.267784 141.515515 
C 74.604776 140.852508 73.705418 140.479981 72.767784 140.479981 
C 71.830149 140.479981 70.930792 140.852508 70.267784 141.515515 
C 69.604776 142.178523 69.23225 143.077881 69.23225 144.015515 
C 69.23225 144.95315 69.604776 145.852508 70.267784 146.515515 
C 70.930792 147.178523 71.830149 147.551049 72.767784 147.551049 
z
" clip-path="url(#pca48cdbe17)"/>
   </g>
   <g id="matplotlib.axis_1"/>
   <g id="matplotlib.axis_2"/>
   <g id="line2d_1">
    <path d="M 8.914906 362.939668 
L 13.888223 358.361211 
L 17.760803 354.552516 
L 22.678878 349.346956 
L 26.079787 345.458817 
L 30.096475 340.494859 
L 33.26117 336.23869 
L 36.345922 331.727348 
L 39.210497 327.139468 
L 41.156762 323.751589 
L 43.763908 318.781224 
L 45.67911 314.732876 
L 47.696843 309.991543 
L 49.626572 304.847108 
L 51.037966 300.569167 
L 52.741157 294.574124 
L 53.833442 290.032241 
L 54.901786 284.777479 
L 55.853856 279.01507 
L 56.625873 273.027735 
L 57.234217 266.66978 
L 57.689256 259.711323 
L 57.998505 251.602896 
L 58.156258 240.722832 
L 58.417459 209.174786 
L 58.785881 201.144848 
L 59.229341 195.089384 
L 59.944758 188.224033 
L 60.853412 181.808184 
L 61.959007 175.735658 
L 63.071284 170.728873 
L 64.62551 164.873885 
L 65.855076 160.880401 
L 67.735201 155.527818 
L 69.766671 150.483747 
L 72.085005 145.402939 
L 72.767784 144.015515 
L 72.767784 144.015515 
" clip-path="url(#pca48cdbe17)" style="fill: none; stroke: #000000; stroke-linecap: square"/>
   </g>
   <g id="patch_3">
    <path d="M 58.17284 231.585176 
Q 58.172848 231.147328 58.172818 232.945548 
" clip-path="url(#pca48cdbe17)" style="fill: none; stroke: #000000; stroke-width: 2; stroke-linecap: round"/>
    <path d="M 53.172651 242.945464 
L 58.172818 232.945548 
L 63.172651 242.945631 
L 53.172651 242.945464 
z
" clip-path="url(#pca48cdbe17)" style="stroke: #000000; stroke-width: 2; stroke-linecap: round"/>
   </g>
   <g id="text_1">
    <!-- $Q$ -->
    <g transform="translate(20.807321 369.838106) scale(0.25 -0.25)">
     <defs>
      <path id="Cmmi10-51" d="M 1947 -141 
Q 1466 -141 1094 79 
Q 722 300 520 692 
Q 319 1084 319 1563 
Q 319 2259 714 2950 
Q 1109 3641 1756 4077 
Q 2403 4513 3109 4513 
Q 3475 4513 3778 4381 
Q 4081 4250 4290 4017 
Q 4500 3784 4614 3471 
Q 4728 3159 4728 2791 
Q 4728 2366 4581 1936 
Q 4434 1506 4171 1136 
Q 3909 766 3559 484 
Q 3209 203 2809 38 
Q 2850 -256 2934 -425 
Q 3019 -594 3256 -594 
Q 3506 -594 3726 -412 
Q 3947 -231 4006 13 
Q 4019 72 4078 72 
Q 4147 72 4147 -13 
Q 4100 -219 4008 -430 
Q 3916 -641 3786 -823 
Q 3656 -1006 3478 -1123 
Q 3300 -1241 3084 -1241 
Q 2547 -1241 2547 -550 
Q 2547 -509 2562 -332 
Q 2578 -156 2578 -44 
Q 2269 -141 1947 -141 
z
M 1709 300 
Q 1709 44 1991 44 
Q 2275 44 2591 184 
L 2591 244 
Q 2591 503 2509 648 
Q 2428 794 2194 794 
Q 2078 794 1964 723 
Q 1850 653 1779 539 
Q 1709 425 1709 300 
z
M 1544 288 
Q 1544 456 1637 612 
Q 1731 769 1881 864 
Q 2031 959 2203 959 
Q 2481 959 2607 771 
Q 2734 584 2778 281 
Q 3188 525 3500 978 
Q 3813 1431 3977 1973 
Q 4141 2516 4141 3003 
Q 4141 3356 4023 3656 
Q 3906 3956 3664 4140 
Q 3422 4325 3066 4325 
Q 2722 4325 2403 4156 
Q 2084 3988 1813 3706 
Q 1550 3434 1342 3032 
Q 1134 2631 1021 2193 
Q 909 1756 909 1356 
Q 909 947 1068 612 
Q 1228 278 1569 128 
Q 1544 194 1544 288 
z
" transform="scale(0.015625)"/>
     </defs>
     <use xlink:href="#Cmmi10-51" transform="translate(0 0.484375)"/>
    </g>
   </g>
   <g id="text_2">
    <!-- $R$ -->
    <g transform="translate(85.160199 129.021538) scale(0.25 -0.25)">
     <defs>
      <path id="Cmmi10-52" d="M 313 0 
Q 250 0 250 84 
Q 253 100 262 139 
Q 272 178 289 201 
Q 306 225 331 225 
Q 722 225 878 269 
Q 959 297 997 441 
L 1875 3956 
Q 1888 4019 1888 4044 
Q 1888 4113 1813 4122 
Q 1691 4147 1350 4147 
Q 1288 4147 1288 4231 
Q 1291 4247 1300 4286 
Q 1309 4325 1326 4348 
Q 1344 4372 1369 4372 
L 3309 4372 
Q 3541 4372 3791 4319 
Q 4041 4266 4250 4152 
Q 4459 4038 4593 3848 
Q 4728 3659 4728 3406 
Q 4728 3084 4515 2831 
Q 4303 2578 3978 2408 
Q 3653 2238 3347 2169 
Q 3597 2078 3756 1879 
Q 3916 1681 3916 1422 
Q 3916 1388 3914 1370 
Q 3913 1353 3909 1331 
L 3859 763 
Q 3853 638 3847 550 
Q 3841 463 3841 409 
Q 3841 234 3892 129 
Q 3944 25 4097 25 
Q 4297 25 4448 211 
Q 4600 397 4647 616 
Q 4675 672 4709 672 
L 4769 672 
Q 4831 672 4831 588 
Q 4784 403 4682 237 
Q 4581 72 4426 -34 
Q 4272 -141 4091 -141 
Q 3716 -141 3452 26 
Q 3188 194 3188 550 
Q 3188 684 3213 788 
L 3353 1356 
Q 3378 1434 3378 1538 
Q 3378 1803 3198 1954 
Q 3019 2106 2747 2106 
L 1959 2106 
L 1538 416 
Q 1522 363 1522 325 
Q 1522 259 1600 250 
Q 1722 225 2059 225 
Q 2125 225 2125 141 
Q 2103 50 2090 25 
Q 2078 0 2016 0 
L 313 0 
z
M 1997 2272 
L 2706 2272 
Q 3403 2272 3756 2625 
Q 3919 2788 4014 3039 
Q 4109 3291 4109 3541 
Q 4109 3778 3970 3912 
Q 3831 4047 3626 4097 
Q 3422 4147 3175 4147 
L 2747 4147 
Q 2572 4147 2515 4117 
Q 2459 4088 2413 3928 
L 1997 2272 
z
" transform="scale(0.015625)"/>
     </defs>
     <use xlink:href="#Cmmi10-52" transform="translate(0 0.6875)"/>
    </g>
   </g>
  </g>
 </g>
 <defs>
  <clipPath id="pca48cdbe17">
   <rect x="7.2" y="117.306769" width="89.175105" height="250.449231"/>
  </clipPath>
 </defs>
</svg>
