<?xml version="1.0" encoding="utf-8" standalone="no"?>
<!DOCTYPE svg PUBLIC "-//W3C//DTD SVG 1.1//EN"
  "http://www.w3.org/Graphics/SVG/1.1/DTD/svg11.dtd">
<svg xmlns:xlink="http://www.w3.org/1999/xlink" width="325.414871pt" height="280.8pt" viewBox="0 0 325.414871 280.8" xmlns="http://www.w3.org/2000/svg" version="1.1">
 <metadata>
  <rdf:RDF xmlns:dc="http://purl.org/dc/elements/1.1/" xmlns:cc="http://creativecommons.org/ns#" xmlns:rdf="http://www.w3.org/1999/02/22-rdf-syntax-ns#">
   <cc:Work>
    <dc:type rdf:resource="http://purl.org/dc/dcmitype/StillImage"/>
    <dc:date>2023-06-08T19:09:07.300212</dc:date>
    <dc:format>image/svg+xml</dc:format>
    <dc:creator>
     <cc:Agent>
      <dc:title>Matplotlib v3.6.2, https://matplotlib.org/</dc:title>
     </cc:Agent>
    </dc:creator>
   </cc:Work>
  </rdf:RDF>
 </metadata>
 <defs>
  <style type="text/css">*{stroke-linejoin: round; stroke-linecap: butt}</style>
 </defs>
 <g id="figure_1">
  <g id="patch_1">
   <path d="M 0 280.8 
L 325.414871 280.8 
L 325.414871 0 
L 0 0 
z
" style="fill: #ffffff"/>
  </g>
  <g id="axes_1">
   <g id="patch_2">
    <path d="M 7.2 273.6 
L 318.214871 273.6 
L 318.214871 7.2 
L 7.2 7.2 
z
" style="fill: #ffffff"/>
   </g>
   <g id="PathCollection_1">
    <path d="M 312.233815 204.806768 
C 313.17145 204.806768 314.070808 204.434242 314.733815 203.771234 
C 315.396823 203.108226 315.769349 202.208868 315.769349 201.271234 
C 315.769349 200.333599 315.396823 199.434242 314.733815 198.771234 
C 314.070808 198.108226 313.17145 197.7357 312.233815 197.7357 
C 311.296181 197.7357 310.396823 198.108226 309.733815 198.771234 
C 309.070808 199.434242 308.698281 200.333599 308.698281 201.271234 
C 308.698281 202.208868 309.070808 203.108226 309.733815 203.771234 
C 310.396823 204.434242 311.296181 204.806768 312.233815 204.806768 
z
" clip-path="url(#p9ebbfa5758)"/>
   </g>
   <g id="PathCollection_2">
    <path d="M 61.00326 268.154389 
C 61.940895 268.154389 62.840253 267.781863 63.50326 267.118855 
C 64.166268 266.455847 64.538794 265.556489 64.538794 264.618855 
C 64.538794 263.68122 64.166268 262.781863 63.50326 262.118855 
C 62.840253 261.455847 61.940895 261.083321 61.00326 261.083321 
C 60.065626 261.083321 59.166268 261.455847 58.50326 262.118855 
C 57.840253 262.781863 57.467726 263.68122 57.467726 264.618855 
C 57.467726 265.556489 57.840253 266.455847 58.50326 267.118855 
C 59.166268 267.781863 60.065626 268.154389 61.00326 268.154389 
z
" clip-path="url(#p9ebbfa5758)"/>
   </g>
   <g id="matplotlib.axis_1"/>
   <g id="matplotlib.axis_2"/>
   <g id="line2d_1">
    <path d="M 312.233815 201.271234 
L 255.808684 131.963128 
L 241.722583 115.305919 
L 230.939355 102.929419 
L 221.122517 92.01308 
L 212.013395 82.234773 
L 205.338091 75.312023 
L 196.283921 66.289469 
L 190.322971 60.6024 
L 181.268189 52.387456 
L 174.472476 46.587614 
L 167.803894 41.228071 
L 160.921519 36.068342 
L 154.133824 31.377899 
L 149.729379 28.56026 
L 142.747129 24.482728 
L 139.079528 22.542852 
L 133.768653 19.995143 
L 130.833873 18.725861 
L 124.952467 16.495184 
L 120.549329 15.1126 
L 116.069783 13.973343 
L 111.967885 13.179022 
L 107.97548 12.646278 
L 103.395248 12.342902 
L 100.870688 12.323077 
L 96.743479 12.527627 
L 91.655948 13.206607 
L 89.373631 13.672811 
L 85.459231 14.718614 
L 83.219308 15.463086 
L 80.393177 16.561364 
L 76.465537 18.397115 
L 73.248876 20.184312 
L 70.764097 21.750139 
L 65.936658 25.285855 
L 62.417735 28.305143 
L 59.742161 30.870794 
L 56.155259 34.705216 
L 53.376934 38.010632 
L 50.065855 42.367254 
L 46.925706 46.958484 
L 43.714984 52.166693 
L 40.95577 57.105723 
L 37.445854 64.092345 
L 34.905675 69.711423 
L 32.640341 75.183059 
L 30.187058 81.675105 
L 28.452789 86.676098 
L 26.360787 93.243651 
L 23.955967 101.670834 
L 22.099894 108.986516 
L 19.937497 118.708231 
L 18.358229 126.943446 
L 16.810313 136.42224 
L 15.832544 143.524443 
L 14.63439 154.354454 
L 13.85976 164.054003 
L 13.370891 173.771336 
L 13.181055 183.446029 
L 13.256183 191.217839 
L 13.591306 199.742874 
L 13.963832 205.283825 
L 14.775035 213.566516 
L 15.574456 219.543854 
L 16.579397 225.505763 
L 17.467769 229.874105 
L 18.906082 235.760132 
L 20.104303 239.862087 
L 21.598399 244.229446 
L 23.373278 248.59133 
L 24.995433 251.961837 
L 26.982653 255.44829 
L 28.051116 257.075185 
L 30.292452 260.009785 
L 30.950655 260.761353 
L 33.592066 263.338628 
L 34.983362 264.441714 
L 37.40203 265.993056 
L 38.953621 266.766459 
L 40.563254 267.40231 
L 43.373385 268.142199 
L 44.631163 268.333052 
L 47.11311 268.476923 
L 49.467108 268.349147 
L 52.13549 267.919869 
L 55.284801 267.05804 
L 58.436484 265.844762 
L 61.00326 264.618855 
L 61.00326 264.618855 
" clip-path="url(#p9ebbfa5758)" style="fill: none; stroke: #000000; stroke-linecap: square"/>
   </g>
   <g id="patch_3">
    <path d="M 83.571237 15.338865 
Q 83.487049 15.36841 85.512767 14.657488 
" clip-path="url(#p9ebbfa5758)" style="fill: none; stroke: #000000; stroke-width: 2; stroke-linecap: round"/>
    <path d="M 96.604295 16.06391 
L 85.512767 14.657488 
L 93.292821 6.628119 
L 96.604295 16.06391 
z
" clip-path="url(#p9ebbfa5758)" style="stroke: #000000; stroke-width: 2; stroke-linecap: round"/>
   </g>
   <g id="text_1">
    <g clip-path="url(#p9ebbfa5758)">
     <!-- $P$ -->
     <g transform="translate(296.769636 226.517619) scale(0.25 -0.25)">
      <defs>
       <path id="Cmmi10-50" d="M 313 0 
Q 250 0 250 84 
Q 253 100 262 139 
Q 272 178 289 201 
Q 306 225 331 225 
Q 722 225 878 269 
Q 959 297 997 441 
L 1875 3956 
Q 1888 4019 1888 4044 
Q 1888 4113 1813 4122 
Q 1691 4147 1350 4147 
Q 1288 4147 1288 4231 
Q 1291 4247 1300 4286 
Q 1309 4325 1326 4348 
Q 1344 4372 1369 4372 
L 3578 4372 
Q 3881 4372 4165 4264 
Q 4450 4156 4631 3934 
Q 4813 3713 4813 3397 
Q 4813 2991 4527 2672 
Q 4241 2353 3814 2175 
Q 3388 1997 2988 1997 
L 1947 1997 
L 1556 416 
Q 1544 353 1544 325 
Q 1544 300 1551 283 
Q 1559 266 1573 261 
Q 1588 256 1619 250 
Q 1741 225 2081 225 
Q 2144 225 2144 141 
Q 2122 50 2109 25 
Q 2097 0 2034 0 
L 313 0 
z
M 1978 2188 
L 2875 2188 
Q 3497 2188 3822 2522 
Q 3988 2688 4092 3000 
Q 4197 3313 4197 3566 
Q 4197 3881 3956 4014 
Q 3716 4147 3359 4147 
L 2747 4147 
Q 2572 4147 2515 4117 
Q 2459 4088 2413 3928 
L 1978 2188 
z
" transform="scale(0.015625)"/>
      </defs>
      <use xlink:href="#Cmmi10-50" transform="translate(0 0.6875)"/>
     </g>
    </g>
   </g>
   <g id="text_2">
    <g clip-path="url(#p9ebbfa5758)">
     <!-- $Q$ -->
     <g transform="translate(69.351208 267.847703) scale(0.25 -0.25)">
      <defs>
       <path id="Cmmi10-51" d="M 1947 -141 
Q 1466 -141 1094 79 
Q 722 300 520 692 
Q 319 1084 319 1563 
Q 319 2259 714 2950 
Q 1109 3641 1756 4077 
Q 2403 4513 3109 4513 
Q 3475 4513 3778 4381 
Q 4081 4250 4290 4017 
Q 4500 3784 4614 3471 
Q 4728 3159 4728 2791 
Q 4728 2366 4581 1936 
Q 4434 1506 4171 1136 
Q 3909 766 3559 484 
Q 3209 203 2809 38 
Q 2850 -256 2934 -425 
Q 3019 -594 3256 -594 
Q 3506 -594 3726 -412 
Q 3947 -231 4006 13 
Q 4019 72 4078 72 
Q 4147 72 4147 -13 
Q 4100 -219 4008 -430 
Q 3916 -641 3786 -823 
Q 3656 -1006 3478 -1123 
Q 3300 -1241 3084 -1241 
Q 2547 -1241 2547 -550 
Q 2547 -509 2562 -332 
Q 2578 -156 2578 -44 
Q 2269 -141 1947 -141 
z
M 1709 300 
Q 1709 44 1991 44 
Q 2275 44 2591 184 
L 2591 244 
Q 2591 503 2509 648 
Q 2428 794 2194 794 
Q 2078 794 1964 723 
Q 1850 653 1779 539 
Q 1709 425 1709 300 
z
M 1544 288 
Q 1544 456 1637 612 
Q 1731 769 1881 864 
Q 2031 959 2203 959 
Q 2481 959 2607 771 
Q 2734 584 2778 281 
Q 3188 525 3500 978 
Q 3813 1431 3977 1973 
Q 4141 2516 4141 3003 
Q 4141 3356 4023 3656 
Q 3906 3956 3664 4140 
Q 3422 4325 3066 4325 
Q 2722 4325 2403 4156 
Q 2084 3988 1813 3706 
Q 1550 3434 1342 3032 
Q 1134 2631 1021 2193 
Q 909 1756 909 1356 
Q 909 947 1068 612 
Q 1228 278 1569 128 
Q 1544 194 1544 288 
z
" transform="scale(0.015625)"/>
      </defs>
      <use xlink:href="#Cmmi10-51" transform="translate(0 0.484375)"/>
     </g>
    </g>
   </g>
  </g>
 </g>
 <defs>
  <clipPath id="p9ebbfa5758">
   <rect x="7.2" y="7.2" width="311.014871" height="266.4"/>
  </clipPath>
 </defs>
</svg>
