<?xml version="1.0" encoding="utf-8" standalone="no"?>
<!DOCTYPE svg PUBLIC "-//W3C//DTD SVG 1.1//EN"
  "http://www.w3.org/Graphics/SVG/1.1/DTD/svg11.dtd">
<svg xmlns:xlink="http://www.w3.org/1999/xlink" width="513.091436pt" height="279.314012pt" viewBox="0 0 513.091436 279.314012" xmlns="http://www.w3.org/2000/svg" version="1.1">
 <metadata>
  <rdf:RDF xmlns:dc="http://purl.org/dc/elements/1.1/" xmlns:cc="http://creativecommons.org/ns#" xmlns:rdf="http://www.w3.org/1999/02/22-rdf-syntax-ns#">
   <cc:Work>
    <dc:type rdf:resource="http://purl.org/dc/dcmitype/StillImage"/>
    <dc:date>2023-05-16T16:45:48.970703</dc:date>
    <dc:format>image/svg+xml</dc:format>
    <dc:creator>
     <cc:Agent>
      <dc:title>Matplotlib v3.6.2, https://matplotlib.org/</dc:title>
     </cc:Agent>
    </dc:creator>
   </cc:Work>
  </rdf:RDF>
 </metadata>
 <defs>
  <style type="text/css">*{stroke-linejoin: round; stroke-linecap: butt}</style>
 </defs>
 <g id="figure_1">
  <g id="patch_1">
   <path d="M 0 279.314012 
L 513.091436 279.314012 
L 513.091436 0 
L 0 0 
z
" style="fill: #ffffff"/>
  </g>
  <g id="axes_1">
   <g id="patch_2">
    <path d="M 7.2 268.832906 
L 331.38864 268.832906 
L 331.38864 7.2 
L 7.2 7.2 
z
" style="fill: #ffffff"/>
   </g>
   <g id="PathCollection_1">
    <path d="M 307.134685 201.338058 
C 308.07232 201.338058 308.971678 200.965532 309.634685 200.302524 
C 310.297693 199.639516 310.670219 198.740159 310.670219 197.802524 
C 310.670219 196.864889 310.297693 195.965532 309.634685 195.302524 
C 308.971678 194.639516 308.07232 194.26699 307.134685 194.26699 
C 306.197051 194.26699 305.297693 194.639516 304.634685 195.302524 
C 303.971678 195.965532 303.599151 196.864889 303.599151 197.802524 
C 303.599151 198.740159 303.971678 199.639516 304.634685 200.302524 
C 305.297693 200.965532 306.197051 201.338058 307.134685 201.338058 
z
" clip-path="url(#p438ba47b94)"/>
   </g>
   <g id="PathCollection_2">
    <path d="M 60.400628 263.55189 
C 61.338262 263.55189 62.23762 263.179364 62.900628 262.516356 
C 63.563635 261.853348 63.936162 260.953991 63.936162 260.016356 
C 63.936162 259.078721 63.563635 258.179364 62.900628 257.516356 
C 62.23762 256.853348 61.338262 256.480822 60.400628 256.480822 
C 59.462993 256.480822 58.563635 256.853348 57.900628 257.516356 
C 57.23762 258.179364 56.865094 259.078721 56.865094 260.016356 
C 56.865094 260.953991 57.23762 261.853348 57.900628 262.516356 
C 58.563635 263.179364 59.462993 263.55189 60.400628 263.55189 
z
" clip-path="url(#p438ba47b94)"/>
   </g>
   <g id="matplotlib.axis_1"/>
   <g id="matplotlib.axis_2"/>
   <g id="line2d_1">
    <path d="M 307.134685 197.802524 
L 253.122511 131.419074 
L 239.428155 115.175375 
L 231.984469 106.558087 
L 222.555334 95.905316 
L 212.462374 84.883219 
L 207.538997 79.668733 
L 200.479513 72.398037 
L 194.211632 66.163779 
L 185.608956 57.979472 
L 176.935606 50.208234 
L 172.354937 46.316125 
L 164.816726 40.256783 
L 161.60139 37.810889 
L 154.785431 32.918756 
L 150.486106 30.0487 
L 143.861974 25.975512 
L 141.752345 24.771488 
L 137.023375 22.244444 
L 130.069033 18.983033 
L 126.915806 17.692884 
L 123.914758 16.579888 
L 118.073023 14.750008 
L 113.745132 13.69644 
L 109.159126 12.877782 
L 107.075077 12.611681 
L 104.159381 12.355044 
L 98.467176 12.261227 
L 95.277937 12.456746 
L 91.384812 12.951494 
L 89.02636 13.394444 
L 85.801663 14.183339 
L 83.522979 14.873654 
L 79.94118 16.192034 
L 76.473167 17.754554 
L 72.464381 19.93442 
L 68.702632 22.370227 
L 64.074305 25.929256 
L 61.3821 28.307641 
L 57.258293 32.42981 
L 52.917137 37.456047 
L 49.346717 42.178407 
L 45.774295 47.500001 
L 42.951717 52.176474 
L 40.092773 57.389926 
L 37.656074 62.257661 
L 35.366712 67.231486 
L 31.955931 75.474035 
L 29.005728 83.565285 
L 26.461162 91.435497 
L 24.366904 98.689405 
L 22.708743 105.056826 
L 20.915962 112.73445 
L 19.233341 120.936366 
L 17.793553 129.035995 
L 16.583134 136.999363 
L 15.552467 145.114222 
L 14.649398 154.061631 
L 13.995199 162.939428 
L 13.655398 169.851678 
L 13.458059 177.497827 
L 13.436994 183.012853 
L 13.623043 191.705541 
L 14.027732 199.365787 
L 14.627698 206.472956 
L 15.375132 212.862033 
L 16.146666 218.048486 
L 17.265833 224.114147 
L 18.816544 230.772288 
L 20.214551 235.641829 
L 21.295623 238.876933 
L 22.682346 242.49818 
L 24.0478 245.590959 
L 25.785559 248.973724 
L 27.699394 252.108744 
L 28.806629 253.682208 
L 31.304543 256.681866 
L 32.707011 258.072863 
L 35.022847 259.970764 
L 36.705934 261.071546 
L 39.300145 262.362883 
L 41.529742 263.121256 
L 44.24557 263.654872 
L 46.326335 263.801504 
L 49.194718 263.666461 
L 51.850477 263.223727 
L 54.026374 262.652459 
L 56.651132 261.732522 
L 58.120973 261.113913 
L 60.400628 260.016356 
L 60.400628 260.016356 
" clip-path="url(#p438ba47b94)" style="fill: none; stroke: #000000; stroke-linecap: square"/>
   </g>
   <g id="patch_3">
    <path d="M 82.399322 15.255986 
Q 82.482004 15.226969 80.454778 15.93842 
" clip-path="url(#p438ba47b94)" style="fill: none; stroke: #000000; stroke-width: 2; stroke-linecap: round"/>
    <path d="M 69.363251 14.531998 
L 80.454778 15.93842 
L 72.674724 23.967789 
L 69.363251 14.531998 
z
" clip-path="url(#p438ba47b94)" style="stroke: #000000; stroke-width: 2; stroke-linecap: round"/>
   </g>
   <g id="text_1">
    <!-- $P$ -->
    <g transform="translate(317.029243 186.681403) scale(0.25 -0.25)">
     <defs>
      <path id="Cmmi10-50" d="M 313 0 
Q 250 0 250 84 
Q 253 100 262 139 
Q 272 178 289 201 
Q 306 225 331 225 
Q 722 225 878 269 
Q 959 297 997 441 
L 1875 3956 
Q 1888 4019 1888 4044 
Q 1888 4113 1813 4122 
Q 1691 4147 1350 4147 
Q 1288 4147 1288 4231 
Q 1291 4247 1300 4286 
Q 1309 4325 1326 4348 
Q 1344 4372 1369 4372 
L 3578 4372 
Q 3881 4372 4165 4264 
Q 4450 4156 4631 3934 
Q 4813 3713 4813 3397 
Q 4813 2991 4527 2672 
Q 4241 2353 3814 2175 
Q 3388 1997 2988 1997 
L 1947 1997 
L 1556 416 
Q 1544 353 1544 325 
Q 1544 300 1551 283 
Q 1559 266 1573 261 
Q 1588 256 1619 250 
Q 1741 225 2081 225 
Q 2144 225 2144 141 
Q 2122 50 2109 25 
Q 2097 0 2034 0 
L 313 0 
z
M 1978 2188 
L 2875 2188 
Q 3497 2188 3822 2522 
Q 3988 2688 4092 3000 
Q 4197 3313 4197 3566 
Q 4197 3881 3956 4014 
Q 3716 4147 3359 4147 
L 2747 4147 
Q 2572 4147 2515 4117 
Q 2459 4088 2413 3928 
L 1978 2188 
z
" transform="scale(0.015625)"/>
     </defs>
     <use xlink:href="#Cmmi10-50" transform="translate(0 0.6875)"/>
    </g>
   </g>
   <g id="text_2">
    <!-- $Q$ -->
    <g transform="translate(68.420186 266.914793) scale(0.25 -0.25)">
     <defs>
      <path id="Cmmi10-51" d="M 1947 -141 
Q 1466 -141 1094 79 
Q 722 300 520 692 
Q 319 1084 319 1563 
Q 319 2259 714 2950 
Q 1109 3641 1756 4077 
Q 2403 4513 3109 4513 
Q 3475 4513 3778 4381 
Q 4081 4250 4290 4017 
Q 4500 3784 4614 3471 
Q 4728 3159 4728 2791 
Q 4728 2366 4581 1936 
Q 4434 1506 4171 1136 
Q 3909 766 3559 484 
Q 3209 203 2809 38 
Q 2850 -256 2934 -425 
Q 3019 -594 3256 -594 
Q 3506 -594 3726 -412 
Q 3947 -231 4006 13 
Q 4019 72 4078 72 
Q 4147 72 4147 -13 
Q 4100 -219 4008 -430 
Q 3916 -641 3786 -823 
Q 3656 -1006 3478 -1123 
Q 3300 -1241 3084 -1241 
Q 2547 -1241 2547 -550 
Q 2547 -509 2562 -332 
Q 2578 -156 2578 -44 
Q 2269 -141 1947 -141 
z
M 1709 300 
Q 1709 44 1991 44 
Q 2275 44 2591 184 
L 2591 244 
Q 2591 503 2509 648 
Q 2428 794 2194 794 
Q 2078 794 1964 723 
Q 1850 653 1779 539 
Q 1709 425 1709 300 
z
M 1544 288 
Q 1544 456 1637 612 
Q 1731 769 1881 864 
Q 2031 959 2203 959 
Q 2481 959 2607 771 
Q 2734 584 2778 281 
Q 3188 525 3500 978 
Q 3813 1431 3977 1973 
Q 4141 2516 4141 3003 
Q 4141 3356 4023 3656 
Q 3906 3956 3664 4140 
Q 3422 4325 3066 4325 
Q 2722 4325 2403 4156 
Q 2084 3988 1813 3706 
Q 1550 3434 1342 3032 
Q 1134 2631 1021 2193 
Q 909 1756 909 1356 
Q 909 947 1068 612 
Q 1228 278 1569 128 
Q 1544 194 1544 288 
z
" transform="scale(0.015625)"/>
     </defs>
     <use xlink:href="#Cmmi10-51" transform="translate(0 0.484375)"/>
    </g>
   </g>
  </g>
 </g>
 <defs>
  <clipPath id="p438ba47b94">
   <rect x="7.2" y="7.2" width="324.18864" height="261.632906"/>
  </clipPath>
 </defs>
</svg>
