<?xml version="1.0" encoding="utf-8" standalone="no"?>
<!DOCTYPE svg PUBLIC "-//W3C//DTD SVG 1.1//EN"
  "http://www.w3.org/Graphics/SVG/1.1/DTD/svg11.dtd">
<svg xmlns:xlink="http://www.w3.org/1999/xlink" width="750.723045pt" height="364.82631pt" viewBox="0 0 750.723045 364.82631" xmlns="http://www.w3.org/2000/svg" version="1.1">
 <metadata>
  <rdf:RDF xmlns:dc="http://purl.org/dc/elements/1.1/" xmlns:cc="http://creativecommons.org/ns#" xmlns:rdf="http://www.w3.org/1999/02/22-rdf-syntax-ns#">
   <cc:Work>
    <dc:type rdf:resource="http://purl.org/dc/dcmitype/StillImage"/>
    <dc:date>2023-05-16T14:55:41.597459</dc:date>
    <dc:format>image/svg+xml</dc:format>
    <dc:creator>
     <cc:Agent>
      <dc:title>Matplotlib v3.6.2, https://matplotlib.org/</dc:title>
     </cc:Agent>
    </dc:creator>
   </cc:Work>
  </rdf:RDF>
 </metadata>
 <defs>
  <style type="text/css">*{stroke-linejoin: round; stroke-linecap: butt}</style>
 </defs>
 <g id="figure_1">
  <g id="patch_1">
   <path d="M 0 364.82631 
L 750.723045 364.82631 
L 750.723045 0 
L 0 0 
z
" style="fill: #ffffff"/>
  </g>
  <g id="axes_1">
   <g id="patch_2">
    <path d="M 8.59112 350.498357 
L 514.752877 350.498357 
L 514.752877 92.073742 
L 8.59112 92.073742 
z
" style="fill: #ffffff"/>
   </g>
   <g id="PathCollection_1">
    <path d="M 102.673456 328.816814 
C 103.61109 328.816814 104.510448 328.444288 105.173456 327.78128 
C 105.836463 327.118272 106.20899 326.218914 106.20899 325.28128 
C 106.20899 324.343645 105.836463 323.444288 105.173456 322.78128 
C 104.510448 322.118272 103.61109 321.745746 102.673456 321.745746 
C 101.735821 321.745746 100.836463 322.118272 100.173456 322.78128 
C 99.510448 323.444288 99.137922 324.343645 99.137922 325.28128 
C 99.137922 326.218914 99.510448 327.118272 100.173456 327.78128 
C 100.836463 328.444288 101.735821 328.816814 102.673456 328.816814 
z
" clip-path="url(#pe53d701ca6)"/>
   </g>
   <g id="PathCollection_2">
    <path d="M 38.572374 282.341683 
C 39.510008 282.341683 40.409366 281.969157 41.072374 281.306149 
C 41.735381 280.643142 42.107907 279.743784 42.107907 278.806149 
C 42.107907 277.868515 41.735381 276.969157 41.072374 276.306149 
C 40.409366 275.643142 39.510008 275.270615 38.572374 275.270615 
C 37.634739 275.270615 36.735381 275.643142 36.072374 276.306149 
C 35.409366 276.969157 35.03684 277.868515 35.03684 278.806149 
C 35.03684 279.743784 35.409366 280.643142 36.072374 281.306149 
C 36.735381 281.969157 37.634739 282.341683 38.572374 282.341683 
z
" clip-path="url(#pe53d701ca6)"/>
   </g>
   <g id="PathCollection_3">
    <path d="M 45.021754 221.57293 
C 45.959388 221.57293 46.858746 221.200403 47.521754 220.537396 
C 48.184761 219.874388 48.557288 218.97503 48.557288 218.037396 
C 48.557288 217.099761 48.184761 216.200403 47.521754 215.537396 
C 46.858746 214.874388 45.959388 214.501862 45.021754 214.501862 
C 44.084119 214.501862 43.184761 214.874388 42.521754 215.537396 
C 41.858746 216.200403 41.48622 217.099761 41.48622 218.037396 
C 41.48622 218.97503 41.858746 219.874388 42.521754 220.537396 
C 43.184761 221.200403 44.084119 221.57293 45.021754 221.57293 
z
" clip-path="url(#pe53d701ca6)"/>
   </g>
   <g id="PathCollection_4">
    <path d="M 109.599073 161.172331 
C 110.536708 161.172331 111.436065 160.799804 112.099073 160.136797 
C 112.762081 159.473789 113.134607 158.574431 113.134607 157.636797 
C 113.134607 156.699162 112.762081 155.799804 112.099073 155.136797 
C 111.436065 154.473789 110.536708 154.101263 109.599073 154.101263 
C 108.661439 154.101263 107.762081 154.473789 107.099073 155.136797 
C 106.436065 155.799804 106.063539 156.699162 106.063539 157.636797 
C 106.063539 158.574431 106.436065 159.473789 107.099073 160.136797 
C 107.762081 160.799804 108.661439 161.172331 109.599073 161.172331 
z
" clip-path="url(#pe53d701ca6)"/>
   </g>
   <g id="PathCollection_5">
    <path d="M 321.000083 100.579121 
C 321.937718 100.579121 322.837076 100.206595 323.500083 99.543587 
C 324.163091 98.880579 324.535617 97.981221 324.535617 97.043587 
C 324.535617 96.105952 324.163091 95.206595 323.500083 94.543587 
C 322.837076 93.880579 321.937718 93.508053 321.000083 93.508053 
C 320.062449 93.508053 319.163091 93.880579 318.500083 94.543587 
C 317.837076 95.206595 317.464549 96.105952 317.464549 97.043587 
C 317.464549 97.981221 317.837076 98.880579 318.500083 99.543587 
C 319.163091 100.206595 320.062449 100.579121 321.000083 100.579121 
z
" clip-path="url(#pe53d701ca6)"/>
   </g>
   <g id="PathCollection_6">
    <path d="M 418.647069 118.748275 
C 419.584704 118.748275 420.484062 118.375748 421.147069 117.712741 
C 421.810077 117.049733 422.182603 116.150375 422.182603 115.212741 
C 422.182603 114.275106 421.810077 113.375748 421.147069 112.712741 
C 420.484062 112.049733 419.584704 111.677207 418.647069 111.677207 
C 417.709435 111.677207 416.810077 112.049733 416.147069 112.712741 
C 415.484062 113.375748 415.111536 114.275106 415.111536 115.212741 
C 415.111536 116.150375 415.484062 117.049733 416.147069 117.712741 
C 416.810077 118.375748 417.709435 118.748275 418.647069 118.748275 
z
" clip-path="url(#pe53d701ca6)"/>
   </g>
   <g id="PathCollection_7">
    <path d="M 484.771624 168.650119 
C 485.709258 168.650119 486.608616 168.277592 487.271624 167.614585 
C 487.934631 166.951577 488.307158 166.052219 488.307158 165.114585 
C 488.307158 164.17695 487.934631 163.277592 487.271624 162.614585 
C 486.608616 161.951577 485.709258 161.579051 484.771624 161.579051 
C 483.833989 161.579051 482.934631 161.951577 482.271624 162.614585 
C 481.608616 163.277592 481.23609 164.17695 481.23609 165.114585 
C 481.23609 166.052219 481.608616 166.951577 482.271624 167.614585 
C 482.934631 168.277592 483.833989 168.650119 484.771624 168.650119 
z
" clip-path="url(#pe53d701ca6)"/>
   </g>
   <g id="matplotlib.axis_1"/>
   <g id="matplotlib.axis_2"/>
   <g id="line2d_1">
    <path d="M 484.771624 165.114585 
L 482.236538 161.771047 
L 479.13384 157.965698 
L 474.637405 152.924248 
L 468.934985 147.195233 
L 464.651778 143.298765 
L 460.815028 140.062351 
L 456.008832 136.306387 
L 450.258302 132.196523 
L 443.080337 127.577523 
L 436.461126 123.756949 
L 430.410507 120.590124 
L 423.794178 117.446915 
L 417.293038 114.653842 
L 411.827471 112.513674 
L 403.58928 109.617752 
L 398.344402 107.966178 
L 392.284286 106.231505 
L 383.277722 103.97537 
L 376.163175 102.447779 
L 369.268896 101.168673 
L 362.418488 100.083766 
L 353.54558 98.940135 
L 344.223398 98.040185 
L 336.559479 97.520502 
L 324.725896 97.089371 
L 314.648587 97.061805 
L 302.718581 97.415056 
L 291.37591 98.124458 
L 280.2068 99.167381 
L 270.590943 100.332383 
L 262.194761 101.548254 
L 251.764802 103.313412 
L 241.321755 105.361421 
L 231.400517 107.566445 
L 222.666535 109.717252 
L 214.087102 112.022489 
L 203.7273 115.063527 
L 193.927055 118.204401 
L 181.916693 122.413825 
L 170.983141 126.604128 
L 163.845366 129.532035 
L 153.036103 134.270313 
L 144.266902 138.399163 
L 138.025283 141.503394 
L 129.340074 146.067684 
L 122.454719 149.903241 
L 114.524655 154.580128 
L 107.123902 159.219889 
L 100.278587 163.774415 
L 95.121704 167.391104 
L 87.885731 172.76919 
L 82.845871 176.751879 
L 76.940573 181.705189 
L 71.227842 186.841435 
L 64.806648 193.108154 
L 61.37147 196.722659 
L 55.868063 202.996071 
L 52.14124 207.672406 
L 48.83126 212.209087 
L 46.519037 215.654257 
L 43.397326 220.78924 
L 41.475264 224.326029 
L 39.680201 227.995583 
L 37.74326 232.538546 
L 36.206658 236.838469 
L 34.929235 241.283594 
L 34.005886 245.568589 
L 33.388676 249.913795 
L 33.152974 252.97987 
L 33.102776 256.972112 
L 33.365882 261.078798 
L 34.072658 265.752694 
L 34.923468 269.336297 
L 35.867358 272.379682 
L 36.786389 274.841997 
L 38.357198 278.370884 
L 39.502518 280.585485 
L 41.726225 284.317016 
L 43.493486 286.90053 
L 46.155018 290.340789 
L 48.655674 293.203907 
L 51.689347 296.315829 
L 54.846504 299.226548 
L 57.922808 301.806409 
L 61.461822 304.519458 
L 65.55654 307.378434 
L 70.928256 310.757654 
L 75.233012 313.214167 
L 80.716389 316.073483 
L 87.358072 319.196302 
L 91.039544 320.789036 
L 97.400237 323.339265 
L 102.673456 325.28128 
L 102.673456 325.28128 
" clip-path="url(#pe53d701ca6)" style="fill: none; stroke: #000000; stroke-width: 2; stroke-linecap: square"/>
   </g>
   <g id="patch_3">
    <path d="M 102.673456 325.28128 
Q 70.622915 302.043715 40.382693 280.118683 
" clip-path="url(#pe53d701ca6)" style="fill: none; stroke: #0000ff; stroke-width: 2; stroke-linecap: round"/>
    <path d="M 45.543772 290.036508 
L 40.382693 280.118683 
L 51.413601 281.940515 
L 45.543772 290.036508 
z
" clip-path="url(#pe53d701ca6)" style="fill: #0000ff; stroke: #0000ff; stroke-width: 2; stroke-linecap: round"/>
   </g>
   <g id="patch_4">
    <path d="M 38.572374 278.806149 
Q 41.797064 248.421772 44.785765 220.260976 
" clip-path="url(#pe53d701ca6)" style="fill: none; stroke: #0000ff; stroke-width: 2; stroke-linecap: round"/>
    <path d="M 38.758317 229.677444 
L 44.785765 220.260976 
L 48.70247 230.732815 
L 38.758317 229.677444 
z
" clip-path="url(#pe53d701ca6)" style="fill: #0000ff; stroke: #0000ff; stroke-width: 2; stroke-linecap: round"/>
   </g>
   <g id="patch_5">
    <path d="M 45.021754 218.037396 
Q 77.310413 187.837096 107.966005 159.164242 
" clip-path="url(#pe53d701ca6)" style="fill: none; stroke: #0000ff; stroke-width: 2; stroke-linecap: round"/>
    <path d="M 97.247231 162.343532 
L 107.966005 159.164242 
L 104.078172 169.646835 
L 97.247231 162.343532 
z
" clip-path="url(#pe53d701ca6)" style="fill: #0000ff; stroke: #0000ff; stroke-width: 2; stroke-linecap: round"/>
   </g>
   <g id="patch_6">
    <path d="M 109.599073 157.636797 
Q 215.299578 127.340192 318.850569 97.659695 
" clip-path="url(#pe53d701ca6)" style="fill: none; stroke: #ff0000; stroke-width: 2; stroke-linecap: round"/>
    <path d="M 307.85999 95.608557 
L 318.850569 97.659695 
L 310.615311 105.221475 
L 307.85999 95.608557 
z
" clip-path="url(#pe53d701ca6)" style="fill: #ff0000; stroke: #ff0000; stroke-width: 2; stroke-linecap: round"/>
   </g>
   <g id="patch_7">
    <path d="M 321.000083 97.043587 
Q 369.823576 106.128164 416.448733 114.803697 
" clip-path="url(#pe53d701ca6)" style="fill: none; stroke: #0000ff; stroke-width: 2; stroke-linecap: round"/>
    <path d="M 407.532124 108.058767 
L 416.448733 114.803697 
L 405.702824 117.890026 
L 407.532124 108.058767 
z
" clip-path="url(#pe53d701ca6)" style="fill: #0000ff; stroke: #0000ff; stroke-width: 2; stroke-linecap: round"/>
   </g>
   <g id="patch_8">
    <path d="M 418.647069 115.212741 
Q 451.709347 140.163663 482.986773 163.767622 
" clip-path="url(#pe53d701ca6)" style="fill: none; stroke: #0000ff; stroke-width: 2; stroke-linecap: round"/>
    <path d="M 478.016581 153.752774 
L 482.986773 163.767622 
L 471.992779 161.734867 
L 478.016581 153.752774 
z
" clip-path="url(#pe53d701ca6)" style="fill: #0000ff; stroke: #0000ff; stroke-width: 2; stroke-linecap: round"/>
   </g>
   <g id="text_1">
    <!-- $P=\mathbf{r}_0$ -->
    <g transform="translate(79.547142 352.427091) scale(0.25 -0.25)">
     <defs>
      <path id="Cmmi10-50" d="M 313 0 
Q 250 0 250 84 
Q 253 100 262 139 
Q 272 178 289 201 
Q 306 225 331 225 
Q 722 225 878 269 
Q 959 297 997 441 
L 1875 3956 
Q 1888 4019 1888 4044 
Q 1888 4113 1813 4122 
Q 1691 4147 1350 4147 
Q 1288 4147 1288 4231 
Q 1291 4247 1300 4286 
Q 1309 4325 1326 4348 
Q 1344 4372 1369 4372 
L 3578 4372 
Q 3881 4372 4165 4264 
Q 4450 4156 4631 3934 
Q 4813 3713 4813 3397 
Q 4813 2991 4527 2672 
Q 4241 2353 3814 2175 
Q 3388 1997 2988 1997 
L 1947 1997 
L 1556 416 
Q 1544 353 1544 325 
Q 1544 300 1551 283 
Q 1559 266 1573 261 
Q 1588 256 1619 250 
Q 1741 225 2081 225 
Q 2144 225 2144 141 
Q 2122 50 2109 25 
Q 2097 0 2034 0 
L 313 0 
z
M 1978 2188 
L 2875 2188 
Q 3497 2188 3822 2522 
Q 3988 2688 4092 3000 
Q 4197 3313 4197 3566 
Q 4197 3881 3956 4014 
Q 3716 4147 3359 4147 
L 2747 4147 
Q 2572 4147 2515 4117 
Q 2459 4088 2413 3928 
L 1978 2188 
z
" transform="scale(0.015625)"/>
      <path id="Cmr10-3d" d="M 481 850 
Q 428 850 393 890 
Q 359 931 359 978 
Q 359 1031 393 1068 
Q 428 1106 481 1106 
L 4500 1106 
Q 4547 1106 4581 1068 
Q 4616 1031 4616 978 
Q 4616 931 4581 890 
Q 4547 850 4500 850 
L 481 850 
z
M 481 2094 
Q 428 2094 393 2131 
Q 359 2169 359 2222 
Q 359 2269 393 2309 
Q 428 2350 481 2350 
L 4500 2350 
Q 4547 2350 4581 2309 
Q 4616 2269 4616 2222 
Q 4616 2169 4581 2131 
Q 4547 2094 4500 2094 
L 481 2094 
z
" transform="scale(0.015625)"/>
      <path id="Cmb10-72" d="M 91 0 
L 91 325 
L 531 325 
L 531 2322 
Q 531 2503 91 2503 
L 91 2828 
L 1178 2881 
L 1178 2356 
Q 1269 2594 1436 2737 
Q 1603 2881 1838 2881 
Q 2006 2881 2173 2822 
Q 2341 2763 2450 2641 
Q 2559 2519 2559 2344 
Q 2559 2178 2443 2059 
Q 2328 1941 2156 1941 
Q 1984 1941 1868 2059 
Q 1753 2178 1753 2344 
Q 1753 2513 1856 2625 
L 1838 2625 
Q 1488 2625 1367 2248 
Q 1247 1872 1247 1416 
L 1247 325 
L 1806 325 
L 1806 0 
L 91 0 
z
" transform="scale(0.015625)"/>
      <path id="Cmr10-30" d="M 1600 -141 
Q 816 -141 533 504 
Q 250 1150 250 2041 
Q 250 2597 351 3087 
Q 453 3578 754 3920 
Q 1056 4263 1600 4263 
Q 2022 4263 2290 4056 
Q 2559 3850 2700 3523 
Q 2841 3197 2892 2823 
Q 2944 2450 2944 2041 
Q 2944 1491 2842 1011 
Q 2741 531 2444 195 
Q 2147 -141 1600 -141 
z
M 1600 25 
Q 1956 25 2131 390 
Q 2306 756 2347 1200 
Q 2388 1644 2388 2144 
Q 2388 2625 2347 3031 
Q 2306 3438 2132 3767 
Q 1959 4097 1600 4097 
Q 1238 4097 1063 3765 
Q 888 3434 847 3029 
Q 806 2625 806 2144 
Q 806 1788 823 1472 
Q 841 1156 916 820 
Q 991 484 1158 254 
Q 1325 25 1600 25 
z
" transform="scale(0.015625)"/>
     </defs>
     <use xlink:href="#Cmmi10-50" transform="translate(0 0.6875)"/>
     <use xlink:href="#Cmr10-3d" transform="translate(81.767578 0.6875)"/>
     <use xlink:href="#Cmb10-72" transform="translate(177.011719 0.6875)"/>
     <use xlink:href="#Cmr10-30" transform="translate(224.151641 -16.31875) scale(0.7)"/>
    </g>
   </g>
   <g id="text_2">
    <!-- $\mathbf{r}_1$ -->
    <g transform="translate(7.2 295.828274) scale(0.25 -0.25)">
     <defs>
      <path id="Cmr10-31" d="M 594 0 
L 594 225 
Q 1394 225 1394 428 
L 1394 3788 
Q 1063 3628 556 3628 
L 556 3853 
Q 1341 3853 1741 4263 
L 1831 4263 
Q 1853 4263 1873 4245 
Q 1894 4228 1894 4206 
L 1894 428 
Q 1894 225 2694 225 
L 2694 0 
L 594 0 
z
" transform="scale(0.015625)"/>
     </defs>
     <use xlink:href="#Cmb10-72" transform="translate(0 0.984375)"/>
     <use xlink:href="#Cmr10-31" transform="translate(47.139922 -16.021875) scale(0.7)"/>
    </g>
   </g>
   <g id="text_3">
    <!-- $\mathbf{r}_2$ -->
    <g transform="translate(54.144127 224.935833) scale(0.25 -0.25)">
     <defs>
      <path id="Cmr10-32" d="M 319 0 
L 319 172 
Q 319 188 331 206 
L 1325 1306 
Q 1550 1550 1690 1715 
Q 1831 1881 1968 2097 
Q 2106 2313 2186 2536 
Q 2266 2759 2266 3009 
Q 2266 3272 2169 3511 
Q 2072 3750 1880 3894 
Q 1688 4038 1416 4038 
Q 1138 4038 916 3870 
Q 694 3703 603 3438 
Q 628 3444 672 3444 
Q 816 3444 917 3347 
Q 1019 3250 1019 3097 
Q 1019 2950 917 2848 
Q 816 2747 672 2747 
Q 522 2747 420 2851 
Q 319 2956 319 3097 
Q 319 3338 409 3548 
Q 500 3759 670 3923 
Q 841 4088 1055 4175 
Q 1269 4263 1509 4263 
Q 1875 4263 2190 4108 
Q 2506 3953 2690 3670 
Q 2875 3388 2875 3009 
Q 2875 2731 2753 2481 
Q 2631 2231 2440 2026 
Q 2250 1822 1953 1562 
Q 1656 1303 1563 1216 
L 838 519 
L 1453 519 
Q 1906 519 2211 526 
Q 2516 534 2534 550 
Q 2609 631 2688 1141 
L 2875 1141 
L 2694 0 
L 319 0 
z
" transform="scale(0.015625)"/>
     </defs>
     <use xlink:href="#Cmb10-72" transform="translate(0 0.984375)"/>
     <use xlink:href="#Cmr10-32" transform="translate(47.139922 -16.021875) scale(0.7)"/>
    </g>
   </g>
   <g id="text_4">
    <!-- $\mathbf{r}_{n-2}$ -->
    <g transform="translate(294.750083 124.189398) scale(0.25 -0.25)">
     <defs>
      <path id="Cmmi10-6e" d="M 494 109 
Q 494 147 500 166 
L 978 2075 
Q 1025 2253 1025 2388 
Q 1025 2663 838 2663 
Q 638 2663 541 2423 
Q 444 2184 353 1819 
Q 353 1800 334 1789 
Q 316 1778 300 1778 
L 225 1778 
Q 203 1778 187 1801 
Q 172 1825 172 1844 
Q 241 2122 305 2315 
Q 369 2509 505 2668 
Q 641 2828 844 2828 
Q 1084 2828 1268 2676 
Q 1453 2525 1453 2291 
Q 1644 2541 1900 2684 
Q 2156 2828 2444 2828 
Q 2672 2828 2837 2750 
Q 3003 2672 3095 2514 
Q 3188 2356 3188 2138 
Q 3188 1875 3070 1503 
Q 2953 1131 2778 672 
Q 2688 463 2688 288 
Q 2688 97 2834 97 
Q 3084 97 3251 365 
Q 3419 634 3488 941 
Q 3500 978 3541 978 
L 3616 978 
Q 3641 978 3658 962 
Q 3675 947 3675 922 
Q 3675 916 3669 903 
Q 3581 541 3364 234 
Q 3147 -72 2822 -72 
Q 2597 -72 2437 83 
Q 2278 238 2278 459 
Q 2278 578 2328 709 
Q 2409 919 2514 1209 
Q 2619 1500 2686 1765 
Q 2753 2031 2753 2234 
Q 2753 2413 2679 2538 
Q 2606 2663 2431 2663 
Q 2197 2663 2000 2559 
Q 1803 2456 1656 2286 
Q 1509 2116 1388 1881 
L 953 141 
Q 931 53 854 -9 
Q 778 -72 684 -72 
Q 606 -72 550 -22 
Q 494 28 494 109 
z
" transform="scale(0.015625)"/>
      <path id="Cmsy10-a1" d="M 653 1472 
Q 600 1472 565 1512 
Q 531 1553 531 1600 
Q 531 1647 565 1687 
Q 600 1728 653 1728 
L 4325 1728 
Q 4375 1728 4408 1687 
Q 4441 1647 4441 1600 
Q 4441 1553 4408 1512 
Q 4375 1472 4325 1472 
L 653 1472 
z
" transform="scale(0.015625)"/>
     </defs>
     <use xlink:href="#Cmb10-72" transform="translate(0 0.984375)"/>
     <use xlink:href="#Cmmi10-6e" transform="translate(47.139922 -16.021875) scale(0.7)"/>
     <use xlink:href="#Cmsy10-a1" transform="translate(101.437773 -16.021875) scale(0.7)"/>
     <use xlink:href="#Cmr10-32" transform="translate(168.108672 -16.021875) scale(0.7)"/>
    </g>
   </g>
   <g id="text_5">
    <!-- $\mathbf{r}_{n-1}$ -->
    <g transform="translate(392.397069 142.358552) scale(0.25 -0.25)">
     <use xlink:href="#Cmb10-72" transform="translate(0 0.984375)"/>
     <use xlink:href="#Cmmi10-6e" transform="translate(47.139922 -16.021875) scale(0.7)"/>
     <use xlink:href="#Cmsy10-a1" transform="translate(101.437773 -16.021875) scale(0.7)"/>
     <use xlink:href="#Cmr10-31" transform="translate(168.108672 -16.021875) scale(0.7)"/>
    </g>
   </g>
   <g id="text_6">
    <!-- $Q=\mathbf{r}_{n}$ -->
    <g transform="translate(469.018997 192.260396) scale(0.25 -0.25)">
     <defs>
      <path id="Cmmi10-51" d="M 1947 -141 
Q 1466 -141 1094 79 
Q 722 300 520 692 
Q 319 1084 319 1563 
Q 319 2259 714 2950 
Q 1109 3641 1756 4077 
Q 2403 4513 3109 4513 
Q 3475 4513 3778 4381 
Q 4081 4250 4290 4017 
Q 4500 3784 4614 3471 
Q 4728 3159 4728 2791 
Q 4728 2366 4581 1936 
Q 4434 1506 4171 1136 
Q 3909 766 3559 484 
Q 3209 203 2809 38 
Q 2850 -256 2934 -425 
Q 3019 -594 3256 -594 
Q 3506 -594 3726 -412 
Q 3947 -231 4006 13 
Q 4019 72 4078 72 
Q 4147 72 4147 -13 
Q 4100 -219 4008 -430 
Q 3916 -641 3786 -823 
Q 3656 -1006 3478 -1123 
Q 3300 -1241 3084 -1241 
Q 2547 -1241 2547 -550 
Q 2547 -509 2562 -332 
Q 2578 -156 2578 -44 
Q 2269 -141 1947 -141 
z
M 1709 300 
Q 1709 44 1991 44 
Q 2275 44 2591 184 
L 2591 244 
Q 2591 503 2509 648 
Q 2428 794 2194 794 
Q 2078 794 1964 723 
Q 1850 653 1779 539 
Q 1709 425 1709 300 
z
M 1544 288 
Q 1544 456 1637 612 
Q 1731 769 1881 864 
Q 2031 959 2203 959 
Q 2481 959 2607 771 
Q 2734 584 2778 281 
Q 3188 525 3500 978 
Q 3813 1431 3977 1973 
Q 4141 2516 4141 3003 
Q 4141 3356 4023 3656 
Q 3906 3956 3664 4140 
Q 3422 4325 3066 4325 
Q 2722 4325 2403 4156 
Q 2084 3988 1813 3706 
Q 1550 3434 1342 3032 
Q 1134 2631 1021 2193 
Q 909 1756 909 1356 
Q 909 947 1068 612 
Q 1228 278 1569 128 
Q 1544 194 1544 288 
z
" transform="scale(0.015625)"/>
     </defs>
     <use xlink:href="#Cmmi10-51" transform="translate(0 0.484375)"/>
     <use xlink:href="#Cmr10-3d" transform="translate(96.5625 0.484375)"/>
     <use xlink:href="#Cmb10-72" transform="translate(191.806641 0.484375)"/>
     <use xlink:href="#Cmmi10-6e" transform="translate(238.946562 -16.521875) scale(0.7)"/>
    </g>
   </g>
   <g id="text_7">
    <!-- $\Delta \mathbf{r}_i=\mathbf{r}_{i+1}-\mathbf{r}_i$ -->
    <g style="fill: #ff0000" transform="translate(122.366608 171.377429) scale(0.25 -0.25)">
     <defs>
      <path id="Cmr10-a2" d="M 347 0 
Q 294 0 294 50 
Q 297 56 298 59 
Q 300 63 300 72 
L 2503 4513 
Q 2531 4581 2619 4581 
L 2706 4581 
Q 2794 4581 2822 4513 
L 5025 72 
Q 5028 66 5029 61 
Q 5031 56 5031 50 
Q 5031 0 4978 0 
L 347 0 
z
M 769 513 
L 4141 513 
L 2456 3909 
L 769 513 
z
" transform="scale(0.015625)"/>
      <path id="Cmmi10-69" d="M 500 459 
Q 500 578 550 709 
L 1069 2088 
Q 1153 2322 1153 2472 
Q 1153 2663 1013 2663 
Q 759 2663 595 2402 
Q 431 2141 353 1819 
Q 341 1778 300 1778 
L 225 1778 
Q 172 1778 172 1838 
L 172 1856 
Q 275 2238 487 2533 
Q 700 2828 1025 2828 
Q 1253 2828 1411 2678 
Q 1569 2528 1569 2297 
Q 1569 2178 1516 2047 
L 997 672 
Q 909 459 909 288 
Q 909 97 1056 97 
Q 1306 97 1473 364 
Q 1641 631 1709 941 
Q 1722 978 1759 978 
L 1838 978 
Q 1863 978 1878 961 
Q 1894 944 1894 922 
Q 1894 916 1888 903 
Q 1800 541 1583 234 
Q 1366 -72 1044 -72 
Q 819 -72 659 83 
Q 500 238 500 459 
z
M 1222 3878 
Q 1222 4013 1334 4122 
Q 1447 4231 1581 4231 
Q 1691 4231 1761 4164 
Q 1831 4097 1831 3994 
Q 1831 3850 1717 3742 
Q 1603 3634 1466 3634 
Q 1363 3634 1292 3704 
Q 1222 3775 1222 3878 
z
" transform="scale(0.015625)"/>
      <path id="Cmr10-2b" d="M 481 1472 
Q 428 1472 393 1512 
Q 359 1553 359 1600 
Q 359 1647 393 1687 
Q 428 1728 481 1728 
L 2363 1728 
L 2363 3616 
Q 2363 3666 2400 3698 
Q 2438 3731 2491 3731 
Q 2538 3731 2578 3698 
Q 2619 3666 2619 3616 
L 2619 1728 
L 4500 1728 
Q 4547 1728 4581 1687 
Q 4616 1647 4616 1600 
Q 4616 1553 4581 1512 
Q 4547 1472 4500 1472 
L 2619 1472 
L 2619 -416 
Q 2619 -466 2578 -498 
Q 2538 -531 2491 -531 
Q 2438 -531 2400 -498 
Q 2363 -466 2363 -416 
L 2363 1472 
L 481 1472 
z
" transform="scale(0.015625)"/>
     </defs>
     <use xlink:href="#Cmr10-a2" transform="translate(0 0.421875)"/>
     <use xlink:href="#Cmb10-72" transform="translate(83.300781 0.421875)"/>
     <use xlink:href="#Cmmi10-69" transform="translate(130.440703 -16.584375) scale(0.7)"/>
     <use xlink:href="#Cmr10-3d" transform="translate(178.47332 0.421875)"/>
     <use xlink:href="#Cmb10-72" transform="translate(273.717461 0.421875)"/>
     <use xlink:href="#Cmmi10-69" transform="translate(320.857383 -16.584375) scale(0.7)"/>
     <use xlink:href="#Cmr10-2b" transform="translate(357.245078 -16.584375) scale(0.7)"/>
     <use xlink:href="#Cmr10-31" transform="translate(423.915977 -16.584375) scale(0.7)"/>
     <use xlink:href="#Cmsy10-a1" transform="translate(482.851914 0.421875)"/>
     <use xlink:href="#Cmb10-72" transform="translate(578.096055 0.421875)"/>
     <use xlink:href="#Cmmi10-69" transform="translate(625.235977 -16.584375) scale(0.7)"/>
    </g>
   </g>
  </g>
 </g>
 <defs>
  <clipPath id="pe53d701ca6">
   <rect x="8.59112" y="92.073742" width="506.161757" height="258.424615"/>
  </clipPath>
 </defs>
</svg>
