<?xml version="1.0" encoding="utf-8" standalone="no"?>
<!DOCTYPE svg PUBLIC "-//W3C//DTD SVG 1.1//EN"
  "http://www.w3.org/Graphics/SVG/1.1/DTD/svg11.dtd">
<svg xmlns:xlink="http://www.w3.org/1999/xlink" width="750.711749pt" height="364.819688pt" viewBox="0 0 750.711749 364.819688" xmlns="http://www.w3.org/2000/svg" version="1.1">
 <metadata>
  <rdf:RDF xmlns:dc="http://purl.org/dc/elements/1.1/" xmlns:cc="http://creativecommons.org/ns#" xmlns:rdf="http://www.w3.org/1999/02/22-rdf-syntax-ns#">
   <cc:Work>
    <dc:type rdf:resource="http://purl.org/dc/dcmitype/StillImage"/>
    <dc:date>2023-05-31T19:51:59.461305</dc:date>
    <dc:format>image/svg+xml</dc:format>
    <dc:creator>
     <cc:Agent>
      <dc:title>Matplotlib v3.6.2, https://matplotlib.org/</dc:title>
     </cc:Agent>
    </dc:creator>
   </cc:Work>
  </rdf:RDF>
 </metadata>
 <defs>
  <style type="text/css">*{stroke-linejoin: round; stroke-linecap: butt}</style>
 </defs>
 <g id="figure_1">
  <g id="patch_1">
   <path d="M 0 364.819688 
L 750.711749 364.819688 
L 750.711749 0 
L 0 0 
z
" style="fill: #ffffff"/>
  </g>
  <g id="axes_1">
   <g id="patch_2">
    <path d="M 8.591323 350.491736 
L 514.742507 350.491736 
L 514.742507 92.06712 
L 8.591323 92.06712 
z
" style="fill: #ffffff"/>
   </g>
   <g id="PathCollection_1">
    <path d="M 102.671694 328.810615 
C 103.609328 328.810615 104.508686 328.438089 105.171694 327.775081 
C 105.834701 327.112073 106.207227 326.212715 106.207227 325.275081 
C 106.207227 324.337446 105.834701 323.438089 105.171694 322.775081 
C 104.508686 322.112073 103.609328 321.739547 102.671694 321.739547 
C 101.734059 321.739547 100.834701 322.112073 100.171694 322.775081 
C 99.508686 323.438089 99.13616 324.337446 99.13616 325.275081 
C 99.13616 326.212715 99.508686 327.112073 100.171694 327.775081 
C 100.834701 328.438089 101.734059 328.810615 102.671694 328.810615 
z
" clip-path="url(#p23eb21f9ad)"/>
   </g>
   <g id="PathCollection_2">
    <path d="M 38.571951 282.336455 
C 39.509585 282.336455 40.408943 281.963929 41.071951 281.300921 
C 41.734958 280.637913 42.107484 279.738556 42.107484 278.800921 
C 42.107484 277.863287 41.734958 276.963929 41.071951 276.300921 
C 40.408943 275.637913 39.509585 275.265387 38.571951 275.265387 
C 37.634316 275.265387 36.734958 275.637913 36.071951 276.300921 
C 35.408943 276.963929 35.036417 277.863287 35.036417 278.800921 
C 35.036417 279.738556 35.408943 280.637913 36.071951 281.300921 
C 36.734958 281.963929 37.634316 282.336455 38.571951 282.336455 
z
" clip-path="url(#p23eb21f9ad)"/>
   </g>
   <g id="PathCollection_3">
    <path d="M 45.021196 221.568971 
C 45.958831 221.568971 46.858188 221.196445 47.521196 220.533437 
C 48.184204 219.870429 48.55673 218.971072 48.55673 218.033437 
C 48.55673 217.095802 48.184204 216.196445 47.521196 215.533437 
C 46.858188 214.870429 45.958831 214.497903 45.021196 214.497903 
C 44.083561 214.497903 43.184204 214.870429 42.521196 215.533437 
C 41.858188 216.196445 41.485662 217.095802 41.485662 218.033437 
C 41.485662 218.971072 41.858188 219.870429 42.521196 220.533437 
C 43.184204 221.196445 44.083561 221.568971 45.021196 221.568971 
z
" clip-path="url(#p23eb21f9ad)"/>
   </g>
   <g id="PathCollection_4">
    <path d="M 109.597166 161.169634 
C 110.534801 161.169634 111.434159 160.797108 112.097166 160.1341 
C 112.760174 159.471092 113.1327 158.571734 113.1327 157.6341 
C 113.1327 156.696465 112.760174 155.797108 112.097166 155.1341 
C 111.434159 154.471092 110.534801 154.098566 109.597166 154.098566 
C 108.659532 154.098566 107.760174 154.471092 107.097166 155.1341 
C 106.434159 155.797108 106.061632 156.696465 106.061632 157.6341 
C 106.061632 158.571734 106.434159 159.471092 107.097166 160.1341 
C 107.760174 160.797108 108.659532 161.169634 109.597166 161.169634 
z
" clip-path="url(#p23eb21f9ad)"/>
   </g>
   <g id="PathCollection_5">
    <path d="M 320.99376 100.577689 
C 321.931395 100.577689 322.830753 100.205163 323.49376 99.542156 
C 324.156768 98.879148 324.529294 97.97979 324.529294 97.042156 
C 324.529294 96.104521 324.156768 95.205163 323.49376 94.542156 
C 322.830753 93.879148 321.931395 93.506622 320.99376 93.506622 
C 320.056126 93.506622 319.156768 93.879148 318.49376 94.542156 
C 317.830753 95.205163 317.458227 96.104521 317.458227 97.042156 
C 317.458227 97.97979 317.830753 98.879148 318.49376 99.542156 
C 319.156768 100.205163 320.056126 100.577689 320.99376 100.577689 
z
" clip-path="url(#p23eb21f9ad)"/>
   </g>
   <g id="PathCollection_6">
    <path d="M 418.638707 118.746464 
C 419.576341 118.746464 420.475699 118.373938 421.138707 117.71093 
C 421.801715 117.047922 422.174241 116.148564 422.174241 115.21093 
C 422.174241 114.273295 421.801715 113.373938 421.138707 112.71093 
C 420.475699 112.047922 419.576341 111.675396 418.638707 111.675396 
C 417.701072 111.675396 416.801715 112.047922 416.138707 112.71093 
C 415.475699 113.373938 415.103173 114.273295 415.103173 115.21093 
C 415.103173 116.148564 415.475699 117.047922 416.138707 117.71093 
C 416.801715 118.373938 417.701072 118.746464 418.638707 118.746464 
z
" clip-path="url(#p23eb21f9ad)"/>
   </g>
   <g id="PathCollection_7">
    <path d="M 484.76188 168.647265 
C 485.699514 168.647265 486.598872 168.274739 487.26188 167.611731 
C 487.924887 166.948724 488.297414 166.049366 488.297414 165.111731 
C 488.297414 164.174097 487.924887 163.274739 487.26188 162.611731 
C 486.598872 161.948724 485.699514 161.576198 484.76188 161.576198 
C 483.824245 161.576198 482.924887 161.948724 482.26188 162.611731 
C 481.598872 163.274739 481.226346 164.174097 481.226346 165.111731 
C 481.226346 166.049366 481.598872 166.948724 482.26188 167.611731 
C 482.924887 168.274739 483.824245 168.647265 484.76188 168.647265 
z
" clip-path="url(#p23eb21f9ad)"/>
   </g>
   <g id="matplotlib.axis_1"/>
   <g id="matplotlib.axis_2"/>
   <g id="line2d_1">
    <path d="M 484.76188 165.111731 
L 480.094264 159.121525 
L 476.178076 154.602234 
L 472.116799 150.315679 
L 468.92197 147.189341 
L 463.219196 142.069429 
L 460.437072 139.760593 
L 454.827574 135.434162 
L 450.61251 132.442573 
L 445.689129 129.198994 
L 439.35639 125.382859 
L 433.508216 122.177288 
L 426.811966 118.843346 
L 418.346774 115.089439 
L 411.701593 112.467831 
L 406.160567 110.481946 
L 397.418271 107.689977 
L 390.309213 105.705053 
L 384.205683 104.191007 
L 376.013158 102.417823 
L 372.641247 101.770129 
L 363.176152 100.194486 
L 354.124645 99.005393 
L 347.859303 98.354669 
L 339.119465 97.671545 
L 328.049596 97.164862 
L 321.037787 97.042451 
L 310.631117 97.133263 
L 300.022971 97.549398 
L 289.532492 98.271375 
L 278.860407 99.313658 
L 270.750301 100.308885 
L 260.818536 101.762716 
L 250.011634 103.635183 
L 242.74808 105.062626 
L 234.362323 106.87904 
L 224.575538 109.227549 
L 214.016706 112.039309 
L 203.056235 115.267335 
L 193.073609 118.487178 
L 185.295174 121.185651 
L 178.380198 123.727806 
L 167.169541 128.145741 
L 159.962774 131.187459 
L 148.385072 136.423724 
L 140.547422 140.228289 
L 131.696338 144.796457 
L 124.189554 148.914082 
L 115.980779 153.695559 
L 109.974701 157.395462 
L 100.731293 163.460821 
L 94.581072 167.776163 
L 86.94093 173.495919 
L 79.182551 179.781084 
L 71.833182 186.274888 
L 67.531619 190.372956 
L 62.119131 195.913802 
L 58.652837 199.734709 
L 54.771741 204.326169 
L 51.279118 208.810484 
L 47.630169 213.961469 
L 45.869911 216.666286 
L 43.17346 221.179171 
L 40.819158 225.614618 
L 38.539656 230.573764 
L 36.704429 235.347612 
L 35.31008 239.829937 
L 34.310696 243.98175 
L 33.565878 248.397862 
L 33.173897 252.574127 
L 33.0932 256.512113 
L 33.236703 259.641966 
L 33.65507 263.355762 
L 34.416058 267.338703 
L 35.140751 270.095874 
L 36.504111 274.120902 
L 37.604436 276.760675 
L 38.682045 279.01994 
L 40.623841 282.541721 
L 42.848031 285.984487 
L 45.442123 289.459316 
L 47.951642 292.423543 
L 50.333926 294.963484 
L 53.904576 298.383661 
L 56.971129 301.027277 
L 60.484753 303.789754 
L 63.939725 306.276805 
L 68.944051 309.548183 
L 72.997035 311.958294 
L 79.10561 315.256797 
L 85.202823 318.214558 
L 89.570592 320.158985 
L 97.542006 323.387892 
L 102.671694 325.275081 
L 102.671694 325.275081 
" clip-path="url(#p23eb21f9ad)" style="fill: none; stroke: #000000; stroke-width: 2; stroke-linecap: square"/>
   </g>
   <g id="patch_3">
    <path d="M 102.671694 325.275081 
Q 70.621822 302.038001 40.38227 280.113455 
" clip-path="url(#p23eb21f9ad)" style="fill: none; stroke: #0000ff; stroke-width: 2; stroke-linecap: round"/>
    <path d="M 45.543349 290.03128 
L 40.38227 280.113455 
L 51.413178 281.935286 
L 45.543349 290.03128 
z
" clip-path="url(#p23eb21f9ad)" style="fill: #0000ff; stroke: #0000ff; stroke-width: 2; stroke-linecap: round"/>
   </g>
   <g id="patch_4">
    <path d="M 38.571951 278.800921 
Q 41.796573 248.417179 44.785208 220.257017 
" clip-path="url(#p23eb21f9ad)" style="fill: none; stroke: #0000ff; stroke-width: 2; stroke-linecap: round"/>
    <path d="M 38.757759 229.673485 
L 44.785208 220.257017 
L 48.701913 230.728857 
L 38.757759 229.673485 
z
" clip-path="url(#p23eb21f9ad)" style="fill: #0000ff; stroke: #0000ff; stroke-width: 2; stroke-linecap: round"/>
   </g>
   <g id="patch_5">
    <path d="M 45.021196 218.033437 
Q 77.309181 187.833768 107.964098 159.161545 
" clip-path="url(#p23eb21f9ad)" style="fill: none; stroke: #0000ff; stroke-width: 2; stroke-linecap: round"/>
    <path d="M 97.245324 162.340835 
L 107.964098 159.161545 
L 104.076266 169.644138 
L 97.245324 162.340835 
z
" clip-path="url(#p23eb21f9ad)" style="fill: #0000ff; stroke: #0000ff; stroke-width: 2; stroke-linecap: round"/>
   </g>
   <g id="patch_6">
    <path d="M 109.597166 157.6341 
Q 215.295463 127.338128 318.844246 97.658264 
" clip-path="url(#p23eb21f9ad)" style="fill: none; stroke: #ff0000; stroke-width: 2; stroke-linecap: round"/>
    <path d="M 307.853667 95.607125 
L 318.844246 97.658264 
L 310.608988 105.220044 
L 307.853667 95.607125 
z
" clip-path="url(#p23eb21f9ad)" style="fill: #ff0000; stroke: #ff0000; stroke-width: 2; stroke-linecap: round"/>
   </g>
   <g id="patch_7">
    <path d="M 320.99376 97.042156 
Q 369.816234 106.126543 416.44037 114.801886 
" clip-path="url(#p23eb21f9ad)" style="fill: none; stroke: #0000ff; stroke-width: 2; stroke-linecap: round"/>
    <path d="M 407.523761 108.056956 
L 416.44037 114.801886 
L 405.694461 117.888215 
L 407.523761 108.056956 
z
" clip-path="url(#p23eb21f9ad)" style="fill: #0000ff; stroke: #0000ff; stroke-width: 2; stroke-linecap: round"/>
   </g>
   <g id="patch_8">
    <path d="M 418.638707 115.21093 
Q 451.700293 140.161331 482.977029 163.764769 
" clip-path="url(#p23eb21f9ad)" style="fill: none; stroke: #0000ff; stroke-width: 2; stroke-linecap: round"/>
    <path d="M 478.006837 153.74992 
L 482.977029 163.764769 
L 471.983035 161.732014 
L 478.006837 153.74992 
z
" clip-path="url(#p23eb21f9ad)" style="fill: #0000ff; stroke: #0000ff; stroke-width: 2; stroke-linecap: round"/>
   </g>
   <g id="text_1">
    <!-- $P=\mathbf{r}_0$ -->
    <g transform="translate(79.545169 352.420469) scale(0.25 -0.25)">
     <defs>
      <path id="Cmmi10-50" d="M 313 0 
Q 250 0 250 84 
Q 253 100 262 139 
Q 272 178 289 201 
Q 306 225 331 225 
Q 722 225 878 269 
Q 959 297 997 441 
L 1875 3956 
Q 1888 4019 1888 4044 
Q 1888 4113 1813 4122 
Q 1691 4147 1350 4147 
Q 1288 4147 1288 4231 
Q 1291 4247 1300 4286 
Q 1309 4325 1326 4348 
Q 1344 4372 1369 4372 
L 3578 4372 
Q 3881 4372 4165 4264 
Q 4450 4156 4631 3934 
Q 4813 3713 4813 3397 
Q 4813 2991 4527 2672 
Q 4241 2353 3814 2175 
Q 3388 1997 2988 1997 
L 1947 1997 
L 1556 416 
Q 1544 353 1544 325 
Q 1544 300 1551 283 
Q 1559 266 1573 261 
Q 1588 256 1619 250 
Q 1741 225 2081 225 
Q 2144 225 2144 141 
Q 2122 50 2109 25 
Q 2097 0 2034 0 
L 313 0 
z
M 1978 2188 
L 2875 2188 
Q 3497 2188 3822 2522 
Q 3988 2688 4092 3000 
Q 4197 3313 4197 3566 
Q 4197 3881 3956 4014 
Q 3716 4147 3359 4147 
L 2747 4147 
Q 2572 4147 2515 4117 
Q 2459 4088 2413 3928 
L 1978 2188 
z
" transform="scale(0.015625)"/>
      <path id="Cmr10-3d" d="M 481 850 
Q 428 850 393 890 
Q 359 931 359 978 
Q 359 1031 393 1068 
Q 428 1106 481 1106 
L 4500 1106 
Q 4547 1106 4581 1068 
Q 4616 1031 4616 978 
Q 4616 931 4581 890 
Q 4547 850 4500 850 
L 481 850 
z
M 481 2094 
Q 428 2094 393 2131 
Q 359 2169 359 2222 
Q 359 2269 393 2309 
Q 428 2350 481 2350 
L 4500 2350 
Q 4547 2350 4581 2309 
Q 4616 2269 4616 2222 
Q 4616 2169 4581 2131 
Q 4547 2094 4500 2094 
L 481 2094 
z
" transform="scale(0.015625)"/>
      <path id="Cmb10-72" d="M 91 0 
L 91 325 
L 531 325 
L 531 2322 
Q 531 2503 91 2503 
L 91 2828 
L 1178 2881 
L 1178 2356 
Q 1269 2594 1436 2737 
Q 1603 2881 1838 2881 
Q 2006 2881 2173 2822 
Q 2341 2763 2450 2641 
Q 2559 2519 2559 2344 
Q 2559 2178 2443 2059 
Q 2328 1941 2156 1941 
Q 1984 1941 1868 2059 
Q 1753 2178 1753 2344 
Q 1753 2513 1856 2625 
L 1838 2625 
Q 1488 2625 1367 2248 
Q 1247 1872 1247 1416 
L 1247 325 
L 1806 325 
L 1806 0 
L 91 0 
z
" transform="scale(0.015625)"/>
      <path id="Cmr10-30" d="M 1600 -141 
Q 816 -141 533 504 
Q 250 1150 250 2041 
Q 250 2597 351 3087 
Q 453 3578 754 3920 
Q 1056 4263 1600 4263 
Q 2022 4263 2290 4056 
Q 2559 3850 2700 3523 
Q 2841 3197 2892 2823 
Q 2944 2450 2944 2041 
Q 2944 1491 2842 1011 
Q 2741 531 2444 195 
Q 2147 -141 1600 -141 
z
M 1600 25 
Q 1956 25 2131 390 
Q 2306 756 2347 1200 
Q 2388 1644 2388 2144 
Q 2388 2625 2347 3031 
Q 2306 3438 2132 3767 
Q 1959 4097 1600 4097 
Q 1238 4097 1063 3765 
Q 888 3434 847 3029 
Q 806 2625 806 2144 
Q 806 1788 823 1472 
Q 841 1156 916 820 
Q 991 484 1158 254 
Q 1325 25 1600 25 
z
" transform="scale(0.015625)"/>
     </defs>
     <use xlink:href="#Cmmi10-50" transform="translate(0 0.6875)"/>
     <use xlink:href="#Cmr10-3d" transform="translate(81.767578 0.6875)"/>
     <use xlink:href="#Cmb10-72" transform="translate(177.011719 0.6875)"/>
     <use xlink:href="#Cmr10-30" transform="translate(224.151641 -16.31875) scale(0.7)"/>
    </g>
   </g>
   <g id="text_2">
    <!-- $\mathbf{r}_1$ -->
    <g transform="translate(7.2 295.822834) scale(0.25 -0.25)">
     <defs>
      <path id="Cmr10-31" d="M 594 0 
L 594 225 
Q 1394 225 1394 428 
L 1394 3788 
Q 1063 3628 556 3628 
L 556 3853 
Q 1341 3853 1741 4263 
L 1831 4263 
Q 1853 4263 1873 4245 
Q 1894 4228 1894 4206 
L 1894 428 
Q 1894 225 2694 225 
L 2694 0 
L 594 0 
z
" transform="scale(0.015625)"/>
     </defs>
     <use xlink:href="#Cmb10-72" transform="translate(0 0.984375)"/>
     <use xlink:href="#Cmr10-31" transform="translate(47.139922 -16.021875) scale(0.7)"/>
    </g>
   </g>
   <g id="text_3">
    <!-- $\mathbf{r}_2$ -->
    <g transform="translate(54.143147 224.931874) scale(0.25 -0.25)">
     <defs>
      <path id="Cmr10-32" d="M 319 0 
L 319 172 
Q 319 188 331 206 
L 1325 1306 
Q 1550 1550 1690 1715 
Q 1831 1881 1968 2097 
Q 2106 2313 2186 2536 
Q 2266 2759 2266 3009 
Q 2266 3272 2169 3511 
Q 2072 3750 1880 3894 
Q 1688 4038 1416 4038 
Q 1138 4038 916 3870 
Q 694 3703 603 3438 
Q 628 3444 672 3444 
Q 816 3444 917 3347 
Q 1019 3250 1019 3097 
Q 1019 2950 917 2848 
Q 816 2747 672 2747 
Q 522 2747 420 2851 
Q 319 2956 319 3097 
Q 319 3338 409 3548 
Q 500 3759 670 3923 
Q 841 4088 1055 4175 
Q 1269 4263 1509 4263 
Q 1875 4263 2190 4108 
Q 2506 3953 2690 3670 
Q 2875 3388 2875 3009 
Q 2875 2731 2753 2481 
Q 2631 2231 2440 2026 
Q 2250 1822 1953 1562 
Q 1656 1303 1563 1216 
L 838 519 
L 1453 519 
Q 1906 519 2211 526 
Q 2516 534 2534 550 
Q 2609 631 2688 1141 
L 2875 1141 
L 2694 0 
L 319 0 
z
" transform="scale(0.015625)"/>
     </defs>
     <use xlink:href="#Cmb10-72" transform="translate(0 0.984375)"/>
     <use xlink:href="#Cmr10-32" transform="translate(47.139922 -16.021875) scale(0.7)"/>
    </g>
   </g>
   <g id="text_4">
    <!-- $\mathbf{r}_{n-2}$ -->
    <g transform="translate(294.74376 124.187544) scale(0.25 -0.25)">
     <defs>
      <path id="Cmmi10-6e" d="M 494 109 
Q 494 147 500 166 
L 978 2075 
Q 1025 2253 1025 2388 
Q 1025 2663 838 2663 
Q 638 2663 541 2423 
Q 444 2184 353 1819 
Q 353 1800 334 1789 
Q 316 1778 300 1778 
L 225 1778 
Q 203 1778 187 1801 
Q 172 1825 172 1844 
Q 241 2122 305 2315 
Q 369 2509 505 2668 
Q 641 2828 844 2828 
Q 1084 2828 1268 2676 
Q 1453 2525 1453 2291 
Q 1644 2541 1900 2684 
Q 2156 2828 2444 2828 
Q 2672 2828 2837 2750 
Q 3003 2672 3095 2514 
Q 3188 2356 3188 2138 
Q 3188 1875 3070 1503 
Q 2953 1131 2778 672 
Q 2688 463 2688 288 
Q 2688 97 2834 97 
Q 3084 97 3251 365 
Q 3419 634 3488 941 
Q 3500 978 3541 978 
L 3616 978 
Q 3641 978 3658 962 
Q 3675 947 3675 922 
Q 3675 916 3669 903 
Q 3581 541 3364 234 
Q 3147 -72 2822 -72 
Q 2597 -72 2437 83 
Q 2278 238 2278 459 
Q 2278 578 2328 709 
Q 2409 919 2514 1209 
Q 2619 1500 2686 1765 
Q 2753 2031 2753 2234 
Q 2753 2413 2679 2538 
Q 2606 2663 2431 2663 
Q 2197 2663 2000 2559 
Q 1803 2456 1656 2286 
Q 1509 2116 1388 1881 
L 953 141 
Q 931 53 854 -9 
Q 778 -72 684 -72 
Q 606 -72 550 -22 
Q 494 28 494 109 
z
" transform="scale(0.015625)"/>
      <path id="Cmsy10-a1" d="M 653 1472 
Q 600 1472 565 1512 
Q 531 1553 531 1600 
Q 531 1647 565 1687 
Q 600 1728 653 1728 
L 4325 1728 
Q 4375 1728 4408 1687 
Q 4441 1647 4441 1600 
Q 4441 1553 4408 1512 
Q 4375 1472 4325 1472 
L 653 1472 
z
" transform="scale(0.015625)"/>
     </defs>
     <use xlink:href="#Cmb10-72" transform="translate(0 0.984375)"/>
     <use xlink:href="#Cmmi10-6e" transform="translate(47.139922 -16.021875) scale(0.7)"/>
     <use xlink:href="#Cmsy10-a1" transform="translate(101.437773 -16.021875) scale(0.7)"/>
     <use xlink:href="#Cmr10-32" transform="translate(168.108672 -16.021875) scale(0.7)"/>
    </g>
   </g>
   <g id="text_5">
    <!-- $\mathbf{r}_{n-1}$ -->
    <g transform="translate(392.388707 142.356318) scale(0.25 -0.25)">
     <use xlink:href="#Cmb10-72" transform="translate(0 0.984375)"/>
     <use xlink:href="#Cmmi10-6e" transform="translate(47.139922 -16.021875) scale(0.7)"/>
     <use xlink:href="#Cmsy10-a1" transform="translate(101.437773 -16.021875) scale(0.7)"/>
     <use xlink:href="#Cmr10-31" transform="translate(168.108672 -16.021875) scale(0.7)"/>
    </g>
   </g>
   <g id="text_6">
    <!-- $Q=\mathbf{r}_{n}$ -->
    <g transform="translate(469.00883 192.25712) scale(0.25 -0.25)">
     <defs>
      <path id="Cmmi10-51" d="M 1947 -141 
Q 1466 -141 1094 79 
Q 722 300 520 692 
Q 319 1084 319 1563 
Q 319 2259 714 2950 
Q 1109 3641 1756 4077 
Q 2403 4513 3109 4513 
Q 3475 4513 3778 4381 
Q 4081 4250 4290 4017 
Q 4500 3784 4614 3471 
Q 4728 3159 4728 2791 
Q 4728 2366 4581 1936 
Q 4434 1506 4171 1136 
Q 3909 766 3559 484 
Q 3209 203 2809 38 
Q 2850 -256 2934 -425 
Q 3019 -594 3256 -594 
Q 3506 -594 3726 -412 
Q 3947 -231 4006 13 
Q 4019 72 4078 72 
Q 4147 72 4147 -13 
Q 4100 -219 4008 -430 
Q 3916 -641 3786 -823 
Q 3656 -1006 3478 -1123 
Q 3300 -1241 3084 -1241 
Q 2547 -1241 2547 -550 
Q 2547 -509 2562 -332 
Q 2578 -156 2578 -44 
Q 2269 -141 1947 -141 
z
M 1709 300 
Q 1709 44 1991 44 
Q 2275 44 2591 184 
L 2591 244 
Q 2591 503 2509 648 
Q 2428 794 2194 794 
Q 2078 794 1964 723 
Q 1850 653 1779 539 
Q 1709 425 1709 300 
z
M 1544 288 
Q 1544 456 1637 612 
Q 1731 769 1881 864 
Q 2031 959 2203 959 
Q 2481 959 2607 771 
Q 2734 584 2778 281 
Q 3188 525 3500 978 
Q 3813 1431 3977 1973 
Q 4141 2516 4141 3003 
Q 4141 3356 4023 3656 
Q 3906 3956 3664 4140 
Q 3422 4325 3066 4325 
Q 2722 4325 2403 4156 
Q 2084 3988 1813 3706 
Q 1550 3434 1342 3032 
Q 1134 2631 1021 2193 
Q 909 1756 909 1356 
Q 909 947 1068 612 
Q 1228 278 1569 128 
Q 1544 194 1544 288 
z
" transform="scale(0.015625)"/>
     </defs>
     <use xlink:href="#Cmmi10-51" transform="translate(0 0.484375)"/>
     <use xlink:href="#Cmr10-3d" transform="translate(96.5625 0.484375)"/>
     <use xlink:href="#Cmb10-72" transform="translate(191.806641 0.484375)"/>
     <use xlink:href="#Cmmi10-6e" transform="translate(238.946562 -16.521875) scale(0.7)"/>
    </g>
   </g>
   <g id="text_7">
    <!-- $\Delta \mathbf{r}_i=\mathbf{r}_{i+1}-\mathbf{r}_i$ -->
    <g style="fill: #ff0000" transform="translate(122.362722 171.374578) scale(0.25 -0.25)">
     <defs>
      <path id="Cmr10-a2" d="M 347 0 
Q 294 0 294 50 
Q 297 56 298 59 
Q 300 63 300 72 
L 2503 4513 
Q 2531 4581 2619 4581 
L 2706 4581 
Q 2794 4581 2822 4513 
L 5025 72 
Q 5028 66 5029 61 
Q 5031 56 5031 50 
Q 5031 0 4978 0 
L 347 0 
z
M 769 513 
L 4141 513 
L 2456 3909 
L 769 513 
z
" transform="scale(0.015625)"/>
      <path id="Cmmi10-69" d="M 500 459 
Q 500 578 550 709 
L 1069 2088 
Q 1153 2322 1153 2472 
Q 1153 2663 1013 2663 
Q 759 2663 595 2402 
Q 431 2141 353 1819 
Q 341 1778 300 1778 
L 225 1778 
Q 172 1778 172 1838 
L 172 1856 
Q 275 2238 487 2533 
Q 700 2828 1025 2828 
Q 1253 2828 1411 2678 
Q 1569 2528 1569 2297 
Q 1569 2178 1516 2047 
L 997 672 
Q 909 459 909 288 
Q 909 97 1056 97 
Q 1306 97 1473 364 
Q 1641 631 1709 941 
Q 1722 978 1759 978 
L 1838 978 
Q 1863 978 1878 961 
Q 1894 944 1894 922 
Q 1894 916 1888 903 
Q 1800 541 1583 234 
Q 1366 -72 1044 -72 
Q 819 -72 659 83 
Q 500 238 500 459 
z
M 1222 3878 
Q 1222 4013 1334 4122 
Q 1447 4231 1581 4231 
Q 1691 4231 1761 4164 
Q 1831 4097 1831 3994 
Q 1831 3850 1717 3742 
Q 1603 3634 1466 3634 
Q 1363 3634 1292 3704 
Q 1222 3775 1222 3878 
z
" transform="scale(0.015625)"/>
      <path id="Cmr10-2b" d="M 481 1472 
Q 428 1472 393 1512 
Q 359 1553 359 1600 
Q 359 1647 393 1687 
Q 428 1728 481 1728 
L 2363 1728 
L 2363 3616 
Q 2363 3666 2400 3698 
Q 2438 3731 2491 3731 
Q 2538 3731 2578 3698 
Q 2619 3666 2619 3616 
L 2619 1728 
L 4500 1728 
Q 4547 1728 4581 1687 
Q 4616 1647 4616 1600 
Q 4616 1553 4581 1512 
Q 4547 1472 4500 1472 
L 2619 1472 
L 2619 -416 
Q 2619 -466 2578 -498 
Q 2538 -531 2491 -531 
Q 2438 -531 2400 -498 
Q 2363 -466 2363 -416 
L 2363 1472 
L 481 1472 
z
" transform="scale(0.015625)"/>
     </defs>
     <use xlink:href="#Cmr10-a2" transform="translate(0 0.421875)"/>
     <use xlink:href="#Cmb10-72" transform="translate(83.300781 0.421875)"/>
     <use xlink:href="#Cmmi10-69" transform="translate(130.440703 -16.584375) scale(0.7)"/>
     <use xlink:href="#Cmr10-3d" transform="translate(178.47332 0.421875)"/>
     <use xlink:href="#Cmb10-72" transform="translate(273.717461 0.421875)"/>
     <use xlink:href="#Cmmi10-69" transform="translate(320.857383 -16.584375) scale(0.7)"/>
     <use xlink:href="#Cmr10-2b" transform="translate(357.245078 -16.584375) scale(0.7)"/>
     <use xlink:href="#Cmr10-31" transform="translate(423.915977 -16.584375) scale(0.7)"/>
     <use xlink:href="#Cmsy10-a1" transform="translate(482.851914 0.421875)"/>
     <use xlink:href="#Cmb10-72" transform="translate(578.096055 0.421875)"/>
     <use xlink:href="#Cmmi10-69" transform="translate(625.235977 -16.584375) scale(0.7)"/>
    </g>
   </g>
  </g>
 </g>
 <defs>
  <clipPath id="p23eb21f9ad">
   <rect x="8.591323" y="92.06712" width="506.151184" height="258.424615"/>
  </clipPath>
 </defs>
</svg>
