<?xml version="1.0" encoding="utf-8" standalone="no"?>
<!DOCTYPE svg PUBLIC "-//W3C//DTD SVG 1.1//EN"
  "http://www.w3.org/Graphics/SVG/1.1/DTD/svg11.dtd">
<!-- Created with matplotlib (http://matplotlib.org/) -->
<svg height="280.705pt" version="1.1" viewBox="0 0 274.5 280.705" width="274.5pt" xmlns="http://www.w3.org/2000/svg" xmlns:xlink="http://www.w3.org/1999/xlink">
 <defs>
  <style type="text/css">
*{stroke-linecap:butt;stroke-linejoin:round;}
  </style>
 </defs>
 <g id="figure_1">
  <g id="patch_1">
   <path d="M 0 280.705 
L 274.5 280.705 
L 274.5 0 
L 0 0 
z
" style="fill:#ffffff;"/>
  </g>
  <g id="axes_1">
   <g id="patch_2">
    <path d="M 10.7 270.005 
L 250.02 270.005 
L 250.02 30.685 
L 10.7 30.685 
z
" style="fill:#ffffff;"/>
   </g>
   <g id="PathCollection_1">
    <path clip-path="url(#pe8412e2416)" d="M 119.90021 120.902121 
C 120.413773 120.902121 120.906372 120.69808 121.269516 120.334936 
C 121.63266 119.971791 121.836701 119.479193 121.836701 118.965629 
C 121.836701 118.452066 121.63266 117.959467 121.269516 117.596323 
C 120.906372 117.233179 120.413773 117.029138 119.90021 117.029138 
C 119.386646 117.029138 118.894048 117.233179 118.530903 117.596323 
C 118.167759 117.959467 117.963718 118.452066 117.963718 118.965629 
C 117.963718 119.479193 118.167759 119.971791 118.530903 120.334936 
C 118.894048 120.69808 119.386646 120.902121 119.90021 120.902121 
z
"/>
   </g>
   <g id="PathCollection_2">
    <path clip-path="url(#pe8412e2416)" d="M 161.739371 80.662002 
C 162.677005 80.662002 163.576363 80.289476 164.239371 79.626469 
C 164.902378 78.963461 165.274905 78.064103 165.274905 77.126469 
C 165.274905 76.188834 164.902378 75.289476 164.239371 74.626469 
C 163.576363 73.963461 162.677005 73.590935 161.739371 73.590935 
C 160.801736 73.590935 159.902378 73.963461 159.239371 74.626469 
C 158.576363 75.289476 158.203837 76.188834 158.203837 77.126469 
C 158.203837 78.064103 158.576363 78.963461 159.239371 79.626469 
C 159.902378 80.289476 160.801736 80.662002 161.739371 80.662002 
z
" style="fill:#800080;"/>
   </g>
   <g id="matplotlib.axis_1">
    <g id="text_1">
     <!-- $x$ -->
     <defs>
      <path d="M 7.8125 2.875 
Q 9.578125 1.515625 12.796875 1.515625 
Q 15.921875 1.515625 18.3125 4.515625 
Q 20.703125 7.515625 21.578125 11.078125 
L 26.125 28.8125 
Q 27.203125 33.640625 27.203125 35.40625 
Q 27.203125 37.890625 25.8125 39.75 
Q 24.421875 41.609375 21.921875 41.609375 
Q 18.75 41.609375 15.96875 39.625 
Q 13.1875 37.640625 11.28125 34.59375 
Q 9.375 31.546875 8.59375 28.421875 
Q 8.40625 27.78125 7.8125 27.78125 
L 6.59375 27.78125 
Q 5.8125 27.78125 5.8125 28.71875 
L 5.8125 29 
Q 6.78125 32.71875 9.125 36.25 
Q 11.46875 39.796875 14.859375 41.984375 
Q 18.265625 44.1875 22.125 44.1875 
Q 25.78125 44.1875 28.734375 42.234375 
Q 31.6875 40.28125 32.90625 36.921875 
Q 34.625 39.984375 37.28125 42.078125 
Q 39.9375 44.1875 43.109375 44.1875 
Q 45.265625 44.1875 47.5 43.421875 
Q 49.75 42.671875 51.171875 41.109375 
Q 52.59375 39.546875 52.59375 37.203125 
Q 52.59375 34.671875 50.953125 32.828125 
Q 49.3125 31 46.78125 31 
Q 45.171875 31 44.09375 32.03125 
Q 43.015625 33.0625 43.015625 34.625 
Q 43.015625 36.71875 44.453125 38.296875 
Q 45.90625 39.890625 47.90625 40.1875 
Q 46.09375 41.609375 42.921875 41.609375 
Q 39.703125 41.609375 37.328125 38.625 
Q 34.96875 35.640625 33.984375 31.984375 
L 29.59375 14.3125 
Q 28.515625 10.296875 28.515625 7.71875 
Q 28.515625 5.171875 29.953125 3.34375 
Q 31.390625 1.515625 33.796875 1.515625 
Q 38.484375 1.515625 42.15625 5.640625 
Q 45.84375 9.765625 47.015625 14.703125 
Q 47.21875 15.28125 47.796875 15.28125 
L 49.03125 15.28125 
Q 49.421875 15.28125 49.65625 15.015625 
Q 49.90625 14.75 49.90625 14.40625 
Q 49.90625 14.3125 49.8125 14.109375 
Q 48.390625 8.15625 43.84375 3.515625 
Q 39.3125 -1.125 33.59375 -1.125 
Q 29.9375 -1.125 26.984375 0.84375 
Q 24.03125 2.828125 22.796875 6.203125 
Q 21.234375 3.265625 18.46875 1.0625 
Q 15.71875 -1.125 12.59375 -1.125 
Q 10.453125 -1.125 8.171875 -0.359375 
Q 5.90625 0.390625 4.484375 1.953125 
Q 3.078125 3.515625 3.078125 5.90625 
Q 3.078125 8.25 4.703125 10.171875 
Q 6.34375 12.109375 8.796875 12.109375 
Q 10.453125 12.109375 11.578125 11.109375 
Q 12.703125 10.109375 12.703125 8.5 
Q 12.703125 6.390625 11.296875 4.828125 
Q 9.90625 3.265625 7.8125 2.875 
z
" id="Cmmi10-78"/>
     </defs>
     <g transform="translate(258.02 244.483112)scale(0.16 -0.16)">
      <use transform="translate(0 0.8125)" xlink:href="#Cmmi10-78"/>
     </g>
    </g>
   </g>
   <g id="matplotlib.axis_2">
    <g id="text_2">
     <!-- $y$ -->
     <defs>
      <path d="M 8.40625 -14.3125 
Q 10.5 -17.921875 15.71875 -17.921875 
Q 20.453125 -17.921875 23.921875 -14.59375 
Q 27.390625 -11.28125 29.515625 -6.5625 
Q 31.640625 -1.859375 32.8125 3.078125 
Q 28.375 -1.125 23.1875 -1.125 
Q 19.234375 -1.125 16.453125 0.234375 
Q 13.671875 1.609375 12.125 4.3125 
Q 10.59375 7.03125 10.59375 10.890625 
Q 10.59375 14.15625 11.46875 17.59375 
Q 12.359375 21.046875 13.9375 25.265625 
Q 15.53125 29.5 16.703125 32.625 
Q 18.015625 36.28125 18.015625 38.625 
Q 18.015625 41.609375 15.828125 41.609375 
Q 11.859375 41.609375 9.296875 37.53125 
Q 6.734375 33.453125 5.515625 28.421875 
Q 5.328125 27.78125 4.6875 27.78125 
L 3.515625 27.78125 
Q 2.6875 27.78125 2.6875 28.71875 
L 2.6875 29 
Q 4.296875 34.96875 7.609375 39.578125 
Q 10.9375 44.1875 16.015625 44.1875 
Q 19.578125 44.1875 22.046875 41.84375 
Q 24.515625 39.5 24.515625 35.890625 
Q 24.515625 34.03125 23.6875 31.984375 
Q 23.25 30.765625 21.6875 26.65625 
Q 20.125 22.5625 19.28125 19.875 
Q 18.453125 17.1875 17.921875 14.59375 
Q 17.390625 12.015625 17.390625 9.421875 
Q 17.390625 6.109375 18.796875 3.8125 
Q 20.21875 1.515625 23.296875 1.515625 
Q 29.5 1.515625 34.421875 9.078125 
L 42 39.890625 
Q 42.328125 41.21875 43.546875 42.15625 
Q 44.78125 43.109375 46.1875 43.109375 
Q 47.40625 43.109375 48.3125 42.328125 
Q 49.21875 41.546875 49.21875 40.28125 
Q 49.21875 39.703125 49.125 39.5 
L 39.203125 -0.296875 
Q 37.890625 -5.421875 34.375 -10.109375 
Q 30.859375 -14.796875 25.90625 -17.65625 
Q 20.953125 -20.515625 15.578125 -20.515625 
Q 12.984375 -20.515625 10.4375 -19.5 
Q 7.90625 -18.5 6.34375 -16.5 
Q 4.78125 -14.5 4.78125 -11.8125 
Q 4.78125 -9.078125 6.390625 -7.078125 
Q 8.015625 -5.078125 10.6875 -5.078125 
Q 12.3125 -5.078125 13.40625 -6.078125 
Q 14.5 -7.078125 14.5 -8.6875 
Q 14.5 -10.984375 12.78125 -12.6875 
Q 11.078125 -14.40625 8.796875 -14.40625 
Q 8.6875 -14.359375 8.59375 -14.328125 
Q 8.5 -14.3125 8.40625 -14.3125 
z
" id="Cmmi10-79"/>
     </defs>
     <g transform="translate(32.221888 19.325)scale(0.16 -0.16)">
      <use transform="translate(0 0.8125)" xlink:href="#Cmmi10-79"/>
     </g>
    </g>
   </g>
   <g id="patch_3">
    <path clip-path="url(#pe8412e2416)" d="M 161.739371 139.88521 
Q 161.739371 118.965629 161.739371 100.282117 
" style="fill:none;stroke:#ff0000;stroke-linecap:round;stroke-width:2;"/>
    <path clip-path="url(#pe8412e2416)" d="M 156.739371 110.282117 
L 161.739371 100.282117 
L 166.739371 110.282117 
L 156.739371 110.282117 
z
" style="fill:#ff0000;stroke:#ff0000;stroke-linecap:round;stroke-width:2;"/>
   </g>
   <g id="patch_4">
    <path clip-path="url(#pe8412e2416)" d="M 78.061049 98.046049 
Q 78.061049 118.965629 78.061049 137.649142 
" style="fill:none;stroke:#008000;stroke-linecap:round;stroke-width:2;"/>
    <path clip-path="url(#pe8412e2416)" d="M 83.061049 127.649142 
L 78.061049 137.649142 
L 73.061049 127.649142 
L 83.061049 127.649142 
z
" style="fill:#008000;stroke:#008000;stroke-linecap:round;stroke-width:2;"/>
   </g>
   <g id="patch_5">
    <path clip-path="url(#pe8412e2416)" d="M 140.81979 77.126469 
Q 119.90021 77.126469 101.216697 77.126469 
" style="fill:none;stroke:#0000ff;stroke-linecap:round;stroke-width:2;"/>
    <path clip-path="url(#pe8412e2416)" d="M 111.216697 82.126469 
L 101.216697 77.126469 
L 111.216697 72.126469 
L 111.216697 82.126469 
z
" style="fill:#0000ff;stroke:#0000ff;stroke-linecap:round;stroke-width:2;"/>
   </g>
   <g id="patch_6">
    <path clip-path="url(#pe8412e2416)" d="M 98.980629 160.80479 
Q 119.90021 160.80479 138.583722 160.80479 
" style="fill:none;stroke:#ffa500;stroke-linecap:round;stroke-width:2;"/>
    <path clip-path="url(#pe8412e2416)" d="M 128.583722 155.80479 
L 138.583722 160.80479 
L 128.583722 165.80479 
L 128.583722 155.80479 
z
" style="fill:#ffa500;stroke:#ffa500;stroke-linecap:round;stroke-width:2;"/>
   </g>
   <g id="line2d_1">
    <path clip-path="url(#pe8412e2416)" d="M 161.739371 160.80479 
L 161.739371 77.126469 
L 161.739371 77.126469 
" style="fill:none;stroke:#ff0000;stroke-linecap:square;stroke-width:3;"/>
   </g>
   <g id="line2d_2">
    <path clip-path="url(#pe8412e2416)" d="M 78.061049 160.80479 
L 78.061049 77.126469 
L 78.061049 77.126469 
" style="fill:none;stroke:#008000;stroke-linecap:square;stroke-width:3;"/>
   </g>
   <g id="line2d_3">
    <path clip-path="url(#pe8412e2416)" d="M 78.061049 77.126469 
L 161.739371 77.126469 
L 161.739371 77.126469 
" style="fill:none;stroke:#0000ff;stroke-linecap:square;stroke-width:3;"/>
   </g>
   <g id="line2d_4">
    <path clip-path="url(#pe8412e2416)" d="M 78.061049 160.80479 
L 161.739371 160.80479 
L 161.739371 160.80479 
" style="fill:none;stroke:#ffa500;stroke-linecap:square;stroke-width:3;"/>
   </g>
   <g id="patch_7">
    <path d="M 36.221888 270.005 
L 36.221888 30.685 
" style="fill:none;stroke:#000000;stroke-linecap:square;stroke-linejoin:miter;stroke-width:0.8;"/>
   </g>
   <g id="patch_8">
    <path d="M 10.7 244.483112 
L 250.02 244.483112 
" style="fill:none;stroke:#000000;stroke-linecap:square;stroke-linejoin:miter;stroke-width:0.8;"/>
   </g>
   <g id="text_3">
    <g clip-path="url(#pe8412e2416)">
     <!-- $(a,b)$ -->
     <defs>
      <path d="M 31 -24.8125 
Q 25.4375 -20.40625 21.40625 -14.71875 
Q 17.390625 -9.03125 14.8125 -2.578125 
Q 12.25 3.859375 10.984375 10.890625 
Q 9.71875 17.921875 9.71875 25 
Q 9.71875 32.171875 10.984375 39.203125 
Q 12.25 46.234375 14.859375 52.734375 
Q 17.484375 59.234375 21.53125 64.890625 
Q 25.59375 70.5625 31 74.8125 
Q 31 75 31.5 75 
L 32.421875 75 
Q 32.71875 75 32.953125 74.734375 
Q 33.203125 74.46875 33.203125 74.125 
Q 33.203125 73.6875 33.015625 73.484375 
Q 28.125 68.703125 24.875 63.234375 
Q 21.625 57.765625 19.640625 51.578125 
Q 17.671875 45.40625 16.796875 38.78125 
Q 15.921875 32.171875 15.921875 25 
Q 15.921875 -6.78125 32.90625 -23.296875 
Q 33.203125 -23.578125 33.203125 -24.125 
Q 33.203125 -24.359375 32.9375 -24.671875 
Q 32.671875 -25 32.421875 -25 
L 31.5 -25 
Q 31 -25 31 -24.8125 
z
" id="Cmr10-28"/>
      <path d="M 17.390625 -1.125 
Q 11.078125 -1.125 7.4375 3.640625 
Q 3.8125 8.40625 3.8125 14.890625 
Q 3.8125 21.296875 7.125 28.171875 
Q 10.453125 35.0625 16.09375 39.625 
Q 21.734375 44.1875 28.21875 44.1875 
Q 31.203125 44.1875 33.546875 42.578125 
Q 35.890625 40.96875 37.203125 38.1875 
Q 38.328125 42.1875 41.609375 42.1875 
Q 42.875 42.1875 43.71875 41.421875 
Q 44.578125 40.671875 44.578125 39.40625 
Q 44.578125 39.109375 44.546875 38.953125 
Q 44.53125 38.8125 44.484375 38.625 
L 37.5 10.6875 
Q 36.8125 7.71875 36.8125 5.8125 
Q 36.8125 1.515625 39.703125 1.515625 
Q 42.828125 1.515625 44.453125 5.484375 
Q 46.09375 9.46875 47.21875 14.703125 
Q 47.40625 15.28125 48 15.28125 
L 49.21875 15.28125 
Q 49.609375 15.28125 49.84375 14.9375 
Q 50.09375 14.59375 50.09375 14.3125 
Q 48.34375 7.328125 46.265625 3.09375 
Q 44.1875 -1.125 39.5 -1.125 
Q 36.140625 -1.125 33.546875 0.84375 
Q 30.953125 2.828125 30.328125 6.109375 
Q 23.875 -1.125 17.390625 -1.125 
z
M 17.484375 1.515625 
Q 21.09375 1.515625 24.484375 4.21875 
Q 27.875 6.9375 30.328125 10.59375 
Q 30.421875 10.6875 30.421875 10.890625 
L 35.796875 32.625 
L 35.890625 32.90625 
Q 35.296875 36.46875 33.3125 39.03125 
Q 31.34375 41.609375 27.984375 41.609375 
Q 24.609375 41.609375 21.703125 38.84375 
Q 18.796875 36.078125 16.796875 32.328125 
Q 14.84375 28.328125 13.0625 21.34375 
Q 11.28125 14.359375 11.28125 10.5 
Q 11.28125 7.03125 12.765625 4.265625 
Q 14.265625 1.515625 17.484375 1.515625 
z
" id="Cmmi10-61"/>
      <path d="M 9.90625 -18.015625 
Q 9.90625 -17.578125 10.296875 -17.1875 
Q 13.921875 -13.71875 15.921875 -9.171875 
Q 17.921875 -4.640625 17.921875 0.390625 
L 17.921875 1.609375 
Q 16.3125 0 13.921875 0 
Q 11.625 0 10.015625 1.609375 
Q 8.40625 3.21875 8.40625 5.515625 
Q 8.40625 7.859375 10.015625 9.421875 
Q 11.625 10.984375 13.921875 10.984375 
Q 17.484375 10.984375 19 7.6875 
Q 20.515625 4.390625 20.515625 0.390625 
Q 20.515625 -5.171875 18.28125 -10.171875 
Q 16.0625 -15.1875 12.015625 -19.1875 
Q 11.625 -19.390625 11.375 -19.390625 
Q 10.890625 -19.390625 10.390625 -18.9375 
Q 9.90625 -18.5 9.90625 -18.015625 
z
" id="Cmmi10-3b"/>
      <path d="M 17.28125 -1.125 
Q 11.234375 -1.125 7.859375 3.609375 
Q 4.5 8.34375 4.5 14.703125 
Q 4.5 15.625 4.953125 18.328125 
Q 5.421875 21.046875 5.421875 21.6875 
L 15.09375 60.5 
Q 15.484375 62.203125 15.578125 63.1875 
Q 15.578125 64.796875 9.078125 64.796875 
Q 8.109375 64.796875 8.109375 66.109375 
Q 8.15625 66.359375 8.328125 66.984375 
Q 8.5 67.625 8.765625 67.96875 
Q 9.03125 68.3125 9.515625 68.3125 
L 23 69.390625 
Q 24.21875 69.390625 24.21875 68.109375 
L 16.796875 38.625 
Q 22.46875 44.1875 28.21875 44.1875 
Q 32.46875 44.1875 35.515625 41.9375 
Q 38.578125 39.703125 40.09375 36.03125 
Q 41.609375 32.375 41.609375 28.21875 
Q 41.609375 23.390625 39.71875 18.234375 
Q 37.84375 13.09375 34.515625 8.671875 
Q 31.203125 4.25 26.75 1.5625 
Q 22.3125 -1.125 17.28125 -1.125 
z
M 17.484375 1.515625 
Q 20.90625 1.515625 23.875 4.375 
Q 26.859375 7.234375 28.71875 10.796875 
Q 30.71875 14.796875 32.453125 21.65625 
Q 34.1875 28.515625 34.1875 32.625 
Q 34.1875 36.1875 32.6875 38.890625 
Q 31.203125 41.609375 27.984375 41.609375 
Q 24.359375 41.609375 21.0625 38.9375 
Q 17.78125 36.28125 15.28125 32.625 
L 12.5 21.296875 
Q 10.890625 14.984375 10.796875 11.1875 
Q 10.796875 7.421875 12.421875 4.46875 
Q 14.0625 1.515625 17.484375 1.515625 
z
" id="Cmmi10-62"/>
      <path d="M 6.5 -25 
Q 5.609375 -25 5.609375 -24.125 
Q 5.609375 -23.6875 5.8125 -23.484375 
Q 22.90625 -6.78125 22.90625 25 
Q 22.90625 56.78125 6 73.296875 
Q 5.609375 73.53125 5.609375 74.125 
Q 5.609375 74.46875 5.875 74.734375 
Q 6.15625 75 6.5 75 
L 7.421875 75 
Q 7.71875 75 7.90625 74.8125 
Q 15.09375 69.140625 19.875 61.03125 
Q 24.65625 52.9375 26.875 43.75 
Q 29.109375 34.578125 29.109375 25 
Q 29.109375 17.921875 27.90625 11.0625 
Q 26.703125 4.203125 24.09375 -2.453125 
Q 21.484375 -9.125 17.484375 -14.765625 
Q 13.484375 -20.40625 7.90625 -24.8125 
Q 7.71875 -25 7.421875 -25 
z
" id="Cmr10-29"/>
     </defs>
     <g transform="translate(104.13221 112.105839)scale(0.144 -0.144)">
      <use xlink:href="#Cmr10-28"/>
      <use transform="translate(38.818359 0)" xlink:href="#Cmmi10-61"/>
      <use transform="translate(91.601562 0)" xlink:href="#Cmmi10-3b"/>
      <use transform="translate(136.845703 0)" xlink:href="#Cmmi10-62"/>
      <use transform="translate(179.765625 0)" xlink:href="#Cmr10-29"/>
     </g>
    </g>
   </g>
   <g id="text_4">
    <g clip-path="url(#pe8412e2416)">
     <!-- $(a+h,b+h)$ -->
     <defs>
      <path d="M 7.515625 23 
Q 6.6875 23 6.140625 23.625 
Q 5.609375 24.265625 5.609375 25 
Q 5.609375 25.734375 6.140625 26.359375 
Q 6.6875 27 7.515625 27 
L 36.921875 27 
L 36.921875 56.5 
Q 36.921875 57.28125 37.5 57.78125 
Q 38.09375 58.296875 38.921875 58.296875 
Q 39.65625 58.296875 40.28125 57.78125 
Q 40.921875 57.28125 40.921875 56.5 
L 40.921875 27 
L 70.3125 27 
Q 71.046875 27 71.578125 26.359375 
Q 72.125 25.734375 72.125 25 
Q 72.125 24.265625 71.578125 23.625 
Q 71.046875 23 70.3125 23 
L 40.921875 23 
L 40.921875 -6.5 
Q 40.921875 -7.28125 40.28125 -7.78125 
Q 39.65625 -8.296875 38.921875 -8.296875 
Q 38.09375 -8.296875 37.5 -7.78125 
Q 36.921875 -7.28125 36.921875 -6.5 
L 36.921875 23 
z
" id="Cmr10-2b"/>
      <path d="M 5.328125 1.8125 
Q 5.328125 2.390625 5.421875 2.6875 
L 19.921875 60.5 
Q 20.3125 62.203125 20.40625 63.1875 
Q 20.40625 64.796875 13.921875 64.796875 
Q 12.890625 64.796875 12.890625 66.109375 
Q 12.9375 66.359375 13.109375 66.984375 
Q 13.28125 67.625 13.546875 67.96875 
Q 13.8125 68.3125 14.3125 68.3125 
L 27.78125 69.390625 
L 28.078125 69.390625 
Q 28.078125 69.28125 28.421875 69.109375 
Q 28.765625 68.953125 28.8125 68.890625 
Q 29 68.40625 29 68.109375 
L 21.1875 36.921875 
Q 27.34375 44.1875 35.796875 44.1875 
Q 39.3125 44.1875 41.875 42.96875 
Q 44.4375 41.75 45.875 39.28125 
Q 47.3125 36.8125 47.3125 33.40625 
Q 47.3125 29.296875 45.484375 23.484375 
Q 43.65625 17.671875 40.921875 10.5 
Q 39.5 7.234375 39.5 4.5 
Q 39.5 1.515625 41.796875 1.515625 
Q 45.703125 1.515625 48.3125 5.6875 
Q 50.921875 9.859375 52 14.703125 
Q 52.203125 15.28125 52.78125 15.28125 
L 54 15.28125 
Q 54.390625 15.28125 54.640625 15.015625 
Q 54.890625 14.75 54.890625 14.40625 
Q 54.890625 14.3125 54.78125 14.109375 
Q 53.90625 10.5 52.171875 7 
Q 50.4375 3.515625 47.796875 1.1875 
Q 45.171875 -1.125 41.609375 -1.125 
Q 38.09375 -1.125 35.59375 1.296875 
Q 33.109375 3.71875 33.109375 7.171875 
Q 33.109375 9.03125 33.890625 11.078125 
Q 36.71875 18.609375 38.59375 24.515625 
Q 40.484375 30.421875 40.484375 34.90625 
Q 40.484375 37.796875 39.359375 39.703125 
Q 38.234375 41.609375 35.59375 41.609375 
Q 30.21875 41.609375 26.21875 38.3125 
Q 22.21875 35.015625 19.28125 29.59375 
L 12.5 2.296875 
Q 12.109375 0.78125 10.984375 -0.171875 
Q 9.859375 -1.125 8.40625 -1.125 
Q 7.125 -1.125 6.21875 -0.265625 
Q 5.328125 0.59375 5.328125 1.8125 
z
" id="Cmmi10-68"/>
     </defs>
     <g style="fill:#800080;" transform="translate(121.419371 70.266678)scale(0.144 -0.144)">
      <use xlink:href="#Cmr10-28"/>
      <use transform="translate(38.818359 0)" xlink:href="#Cmmi10-61"/>
      <use transform="translate(109.160156 0)" xlink:href="#Cmr10-2b"/>
      <use transform="translate(204.404297 0)" xlink:href="#Cmmi10-68"/>
      <use transform="translate(262.021484 0)" xlink:href="#Cmmi10-3b"/>
      <use transform="translate(307.265625 0)" xlink:href="#Cmmi10-62"/>
      <use transform="translate(367.744141 0)" xlink:href="#Cmr10-2b"/>
      <use transform="translate(462.988281 0)" xlink:href="#Cmmi10-68"/>
      <use transform="translate(520.605469 0)" xlink:href="#Cmr10-29"/>
     </g>
    </g>
   </g>
  </g>
 </g>
 <defs>
  <clipPath id="pe8412e2416">
   <rect height="239.32" width="239.32" x="10.7" y="30.685"/>
  </clipPath>
 </defs>
</svg>
