<?xml version="1.0" encoding="utf-8" standalone="no"?>
<!DOCTYPE svg PUBLIC "-//W3C//DTD SVG 1.1//EN"
  "http://www.w3.org/Graphics/SVG/1.1/DTD/svg11.dtd">
<svg xmlns:xlink="http://www.w3.org/1999/xlink" width="334.9pt" height="338.0025pt" viewBox="0 0 334.9 338.0025" xmlns="http://www.w3.org/2000/svg" version="1.1">
 <metadata>
  <rdf:RDF xmlns:dc="http://purl.org/dc/elements/1.1/" xmlns:cc="http://creativecommons.org/ns#" xmlns:rdf="http://www.w3.org/1999/02/22-rdf-syntax-ns#">
   <cc:Work>
    <dc:type rdf:resource="http://purl.org/dc/dcmitype/StillImage"/>
    <dc:date>2025-02-05T12:07:01.403931</dc:date>
    <dc:format>image/svg+xml</dc:format>
    <dc:creator>
     <cc:Agent>
      <dc:title>Matplotlib v3.8.0, https://matplotlib.org/</dc:title>
     </cc:Agent>
    </dc:creator>
   </cc:Work>
  </rdf:RDF>
 </metadata>
 <defs>
  <style type="text/css">*{stroke-linejoin: round; stroke-linecap: butt}</style>
 </defs>
 <g id="figure_1">
  <g id="patch_1">
   <path d="M -0 338.0025 
L 334.9 338.0025 
L 334.9 0 
L -0 0 
z
" style="fill: #ffffff"/>
  </g>
  <g id="axes_1">
   <g id="patch_2">
    <path d="M 7.2 330.8025 
L 314.56 330.8025 
L 314.56 23.4425 
L 7.2 23.4425 
z
" style="fill: #ffffff"/>
   </g>
   <g id="Quiver_1">
    <path d="M 25.092353 313.524867 
L 25.092353 329.336831 
L 26.321793 328.722111 
L 24.477633 334.869311 
L 22.633473 328.722111 
L 23.862913 329.336831 
L 23.862913 313.524867 
L 25.092353 313.524867 
" clip-path="url(#pfb33c1d044)" style="fill: #0000ff"/>
    <path d="M 25.092353 294.038814 
L 25.092353 309.850779 
L 26.321793 309.236059 
L 24.477633 315.383259 
L 22.633473 309.236059 
L 23.862913 309.850779 
L 23.862913 294.038814 
L 25.092353 294.038814 
" clip-path="url(#pfb33c1d044)" style="fill: #0000ff"/>
    <path d="M 25.092353 274.552762 
L 25.092353 290.364726 
L 26.321793 289.750006 
L 24.477633 295.897206 
L 22.633473 289.750006 
L 23.862913 290.364726 
L 23.862913 274.552762 
L 25.092353 274.552762 
" clip-path="url(#pfb33c1d044)" style="fill: #0000ff"/>
    <path d="M 25.092353 255.06671 
L 25.092353 270.878674 
L 26.321793 270.263954 
L 24.477633 276.411154 
L 22.633473 270.263954 
L 23.862913 270.878674 
L 23.862913 255.06671 
L 25.092353 255.06671 
" clip-path="url(#pfb33c1d044)" style="fill: #0000ff"/>
    <path d="M 25.092353 235.580657 
L 25.092353 251.392622 
L 26.321793 250.777902 
L 24.477633 256.925102 
L 22.633473 250.777902 
L 23.862913 251.392622 
L 23.862913 235.580657 
L 25.092353 235.580657 
" clip-path="url(#pfb33c1d044)" style="fill: #0000ff"/>
    <path d="M 25.092353 216.094605 
L 25.092353 231.906569 
L 26.321793 231.291849 
L 24.477633 237.439049 
L 22.633473 231.291849 
L 23.862913 231.906569 
L 23.862913 216.094605 
L 25.092353 216.094605 
" clip-path="url(#pfb33c1d044)" style="fill: #0000ff"/>
    <path d="M 25.092353 196.608552 
L 25.092353 212.420517 
L 26.321793 211.805797 
L 24.477633 217.952997 
L 22.633473 211.805797 
L 23.862913 212.420517 
L 23.862913 196.608552 
L 25.092353 196.608552 
" clip-path="url(#pfb33c1d044)" style="fill: #0000ff"/>
    <path d="M 25.092353 177.1225 
L 25.092353 192.934464 
L 26.321793 192.319744 
L 24.477633 198.466944 
L 22.633473 192.319744 
L 23.862913 192.934464 
L 23.862913 177.1225 
L 25.092353 177.1225 
" clip-path="url(#pfb33c1d044)" style="fill: #0000ff"/>
    <path d="M 25.092353 157.636448 
L 25.092353 173.448412 
L 26.321793 172.833692 
L 24.477633 178.980892 
L 22.633473 172.833692 
L 23.862913 173.448412 
L 23.862913 157.636448 
L 25.092353 157.636448 
" clip-path="url(#pfb33c1d044)" style="fill: #0000ff"/>
    <path d="M 25.092353 138.150395 
L 25.092353 153.96236 
L 26.321793 153.34764 
L 24.477633 159.49484 
L 22.633473 153.34764 
L 23.862913 153.96236 
L 23.862913 138.150395 
L 25.092353 138.150395 
" clip-path="url(#pfb33c1d044)" style="fill: #0000ff"/>
    <path d="M 25.092353 118.664343 
L 25.092353 134.476307 
L 26.321793 133.861587 
L 24.477633 140.008787 
L 22.633473 133.861587 
L 23.862913 134.476307 
L 23.862913 118.664343 
L 25.092353 118.664343 
" clip-path="url(#pfb33c1d044)" style="fill: #0000ff"/>
    <path d="M 25.092353 99.17829 
L 25.092353 114.990255 
L 26.321793 114.375535 
L 24.477633 120.522735 
L 22.633473 114.375535 
L 23.862913 114.990255 
L 23.862913 99.17829 
L 25.092353 99.17829 
" clip-path="url(#pfb33c1d044)" style="fill: #0000ff"/>
    <path d="M 25.092353 79.692238 
L 25.092353 95.504202 
L 26.321793 94.889482 
L 24.477633 101.036682 
L 22.633473 94.889482 
L 23.862913 95.504202 
L 23.862913 79.692238 
L 25.092353 79.692238 
" clip-path="url(#pfb33c1d044)" style="fill: #0000ff"/>
    <path d="M 25.092353 60.206186 
L 25.092353 76.01815 
L 26.321793 75.40343 
L 24.477633 81.55063 
L 22.633473 75.40343 
L 23.862913 76.01815 
L 23.862913 60.206186 
L 25.092353 60.206186 
" clip-path="url(#pfb33c1d044)" style="fill: #0000ff"/>
    <path d="M 25.092353 40.720133 
L 25.092353 56.532098 
L 26.321793 55.917378 
L 24.477633 62.064578 
L 22.633473 55.917378 
L 23.862913 56.532098 
L 23.862913 40.720133 
L 25.092353 40.720133 
" clip-path="url(#pfb33c1d044)" style="fill: #0000ff"/>
    <path d="M 44.578406 313.524867 
L 44.578406 326.287625 
L 45.807846 325.672905 
L 43.963686 331.820105 
L 42.119526 325.672905 
L 43.348966 326.287625 
L 43.348966 313.524867 
L 44.578406 313.524867 
" clip-path="url(#pfb33c1d044)" style="fill: #0000ff"/>
    <path d="M 44.578406 294.038814 
L 44.578406 306.801573 
L 45.807846 306.186853 
L 43.963686 312.334053 
L 42.119526 306.186853 
L 43.348966 306.801573 
L 43.348966 294.038814 
L 44.578406 294.038814 
" clip-path="url(#pfb33c1d044)" style="fill: #0000ff"/>
    <path d="M 44.578406 274.552762 
L 44.578406 287.31552 
L 45.807846 286.7008 
L 43.963686 292.848 
L 42.119526 286.7008 
L 43.348966 287.31552 
L 43.348966 274.552762 
L 44.578406 274.552762 
" clip-path="url(#pfb33c1d044)" style="fill: #0000ff"/>
    <path d="M 44.578406 255.06671 
L 44.578406 267.829468 
L 45.807846 267.214748 
L 43.963686 273.361948 
L 42.119526 267.214748 
L 43.348966 267.829468 
L 43.348966 255.06671 
L 44.578406 255.06671 
" clip-path="url(#pfb33c1d044)" style="fill: #0000ff"/>
    <path d="M 44.578406 235.580657 
L 44.578406 248.343415 
L 45.807846 247.728695 
L 43.963686 253.875895 
L 42.119526 247.728695 
L 43.348966 248.343415 
L 43.348966 235.580657 
L 44.578406 235.580657 
" clip-path="url(#pfb33c1d044)" style="fill: #0000ff"/>
    <path d="M 44.578406 216.094605 
L 44.578406 228.857363 
L 45.807846 228.242643 
L 43.963686 234.389843 
L 42.119526 228.242643 
L 43.348966 228.857363 
L 43.348966 216.094605 
L 44.578406 216.094605 
" clip-path="url(#pfb33c1d044)" style="fill: #0000ff"/>
    <path d="M 44.578406 196.608552 
L 44.578406 209.371311 
L 45.807846 208.756591 
L 43.963686 214.903791 
L 42.119526 208.756591 
L 43.348966 209.371311 
L 43.348966 196.608552 
L 44.578406 196.608552 
" clip-path="url(#pfb33c1d044)" style="fill: #0000ff"/>
    <path d="M 44.578406 177.1225 
L 44.578406 189.885258 
L 45.807846 189.270538 
L 43.963686 195.417738 
L 42.119526 189.270538 
L 43.348966 189.885258 
L 43.348966 177.1225 
L 44.578406 177.1225 
" clip-path="url(#pfb33c1d044)" style="fill: #0000ff"/>
    <path d="M 44.578406 157.636448 
L 44.578406 170.399206 
L 45.807846 169.784486 
L 43.963686 175.931686 
L 42.119526 169.784486 
L 43.348966 170.399206 
L 43.348966 157.636448 
L 44.578406 157.636448 
" clip-path="url(#pfb33c1d044)" style="fill: #0000ff"/>
    <path d="M 44.578406 138.150395 
L 44.578406 150.913153 
L 45.807846 150.298433 
L 43.963686 156.445633 
L 42.119526 150.298433 
L 43.348966 150.913153 
L 43.348966 138.150395 
L 44.578406 138.150395 
" clip-path="url(#pfb33c1d044)" style="fill: #0000ff"/>
    <path d="M 44.578406 118.664343 
L 44.578406 131.427101 
L 45.807846 130.812381 
L 43.963686 136.959581 
L 42.119526 130.812381 
L 43.348966 131.427101 
L 43.348966 118.664343 
L 44.578406 118.664343 
" clip-path="url(#pfb33c1d044)" style="fill: #0000ff"/>
    <path d="M 44.578406 99.17829 
L 44.578406 111.941048 
L 45.807846 111.326328 
L 43.963686 117.473528 
L 42.119526 111.326328 
L 43.348966 111.941048 
L 43.348966 99.17829 
L 44.578406 99.17829 
" clip-path="url(#pfb33c1d044)" style="fill: #0000ff"/>
    <path d="M 44.578406 79.692238 
L 44.578406 92.454996 
L 45.807846 91.840276 
L 43.963686 97.987476 
L 42.119526 91.840276 
L 43.348966 92.454996 
L 43.348966 79.692238 
L 44.578406 79.692238 
" clip-path="url(#pfb33c1d044)" style="fill: #0000ff"/>
    <path d="M 44.578406 60.206186 
L 44.578406 72.968944 
L 45.807846 72.354224 
L 43.963686 78.501424 
L 42.119526 72.354224 
L 43.348966 72.968944 
L 43.348966 60.206186 
L 44.578406 60.206186 
" clip-path="url(#pfb33c1d044)" style="fill: #0000ff"/>
    <path d="M 44.578406 40.720133 
L 44.578406 53.482891 
L 45.807846 52.868171 
L 43.963686 59.015371 
L 42.119526 52.868171 
L 43.348966 53.482891 
L 43.348966 40.720133 
L 44.578406 40.720133 
" clip-path="url(#pfb33c1d044)" style="fill: #0000ff"/>
    <path d="M 64.064458 313.524867 
L 64.064458 323.238419 
L 65.293898 322.623699 
L 63.449738 328.770899 
L 61.605578 322.623699 
L 62.835018 323.238419 
L 62.835018 313.524867 
L 64.064458 313.524867 
" clip-path="url(#pfb33c1d044)" style="fill: #0000ff"/>
    <path d="M 64.064458 294.038814 
L 64.064458 303.752366 
L 65.293898 303.137646 
L 63.449738 309.284846 
L 61.605578 303.137646 
L 62.835018 303.752366 
L 62.835018 294.038814 
L 64.064458 294.038814 
" clip-path="url(#pfb33c1d044)" style="fill: #0000ff"/>
    <path d="M 64.064458 274.552762 
L 64.064458 284.266314 
L 65.293898 283.651594 
L 63.449738 289.798794 
L 61.605578 283.651594 
L 62.835018 284.266314 
L 62.835018 274.552762 
L 64.064458 274.552762 
" clip-path="url(#pfb33c1d044)" style="fill: #0000ff"/>
    <path d="M 64.064458 255.06671 
L 64.064458 264.780261 
L 65.293898 264.165541 
L 63.449738 270.312741 
L 61.605578 264.165541 
L 62.835018 264.780261 
L 62.835018 255.06671 
L 64.064458 255.06671 
" clip-path="url(#pfb33c1d044)" style="fill: #0000ff"/>
    <path d="M 64.064458 235.580657 
L 64.064458 245.294209 
L 65.293898 244.679489 
L 63.449738 250.826689 
L 61.605578 244.679489 
L 62.835018 245.294209 
L 62.835018 235.580657 
L 64.064458 235.580657 
" clip-path="url(#pfb33c1d044)" style="fill: #0000ff"/>
    <path d="M 64.064458 216.094605 
L 64.064458 225.808157 
L 65.293898 225.193437 
L 63.449738 231.340637 
L 61.605578 225.193437 
L 62.835018 225.808157 
L 62.835018 216.094605 
L 64.064458 216.094605 
" clip-path="url(#pfb33c1d044)" style="fill: #0000ff"/>
    <path d="M 64.064458 196.608552 
L 64.064458 206.322104 
L 65.293898 205.707384 
L 63.449738 211.854584 
L 61.605578 205.707384 
L 62.835018 206.322104 
L 62.835018 196.608552 
L 64.064458 196.608552 
" clip-path="url(#pfb33c1d044)" style="fill: #0000ff"/>
    <path d="M 64.064458 177.1225 
L 64.064458 186.836052 
L 65.293898 186.221332 
L 63.449738 192.368532 
L 61.605578 186.221332 
L 62.835018 186.836052 
L 62.835018 177.1225 
L 64.064458 177.1225 
" clip-path="url(#pfb33c1d044)" style="fill: #0000ff"/>
    <path d="M 64.064458 157.636448 
L 64.064458 167.349999 
L 65.293898 166.735279 
L 63.449738 172.882479 
L 61.605578 166.735279 
L 62.835018 167.349999 
L 62.835018 157.636448 
L 64.064458 157.636448 
" clip-path="url(#pfb33c1d044)" style="fill: #0000ff"/>
    <path d="M 64.064458 138.150395 
L 64.064458 147.863947 
L 65.293898 147.249227 
L 63.449738 153.396427 
L 61.605578 147.249227 
L 62.835018 147.863947 
L 62.835018 138.150395 
L 64.064458 138.150395 
" clip-path="url(#pfb33c1d044)" style="fill: #0000ff"/>
    <path d="M 64.064458 118.664343 
L 64.064458 128.377895 
L 65.293898 127.763175 
L 63.449738 133.910375 
L 61.605578 127.763175 
L 62.835018 128.377895 
L 62.835018 118.664343 
L 64.064458 118.664343 
" clip-path="url(#pfb33c1d044)" style="fill: #0000ff"/>
    <path d="M 64.064458 99.17829 
L 64.064458 108.891842 
L 65.293898 108.277122 
L 63.449738 114.424322 
L 61.605578 108.277122 
L 62.835018 108.891842 
L 62.835018 99.17829 
L 64.064458 99.17829 
" clip-path="url(#pfb33c1d044)" style="fill: #0000ff"/>
    <path d="M 64.064458 79.692238 
L 64.064458 89.40579 
L 65.293898 88.79107 
L 63.449738 94.93827 
L 61.605578 88.79107 
L 62.835018 89.40579 
L 62.835018 79.692238 
L 64.064458 79.692238 
" clip-path="url(#pfb33c1d044)" style="fill: #0000ff"/>
    <path d="M 64.064458 60.206186 
L 64.064458 69.919737 
L 65.293898 69.305017 
L 63.449738 75.452217 
L 61.605578 69.305017 
L 62.835018 69.919737 
L 62.835018 60.206186 
L 64.064458 60.206186 
" clip-path="url(#pfb33c1d044)" style="fill: #0000ff"/>
    <path d="M 64.064458 40.720133 
L 64.064458 50.433685 
L 65.293898 49.818965 
L 63.449738 55.966165 
L 61.605578 49.818965 
L 62.835018 50.433685 
L 62.835018 40.720133 
L 64.064458 40.720133 
" clip-path="url(#pfb33c1d044)" style="fill: #0000ff"/>
    <path d="M 83.55051 313.524867 
L 83.55051 320.189212 
L 84.77995 319.574492 
L 82.93579 325.721692 
L 81.09163 319.574492 
L 82.32107 320.189212 
L 82.32107 313.524867 
L 83.55051 313.524867 
" clip-path="url(#pfb33c1d044)" style="fill: #0000ff"/>
    <path d="M 83.55051 294.038814 
L 83.55051 300.70316 
L 84.77995 300.08844 
L 82.93579 306.23564 
L 81.09163 300.08844 
L 82.32107 300.70316 
L 82.32107 294.038814 
L 83.55051 294.038814 
" clip-path="url(#pfb33c1d044)" style="fill: #0000ff"/>
    <path d="M 83.55051 274.552762 
L 83.55051 281.217107 
L 84.77995 280.602387 
L 82.93579 286.749587 
L 81.09163 280.602387 
L 82.32107 281.217107 
L 82.32107 274.552762 
L 83.55051 274.552762 
" clip-path="url(#pfb33c1d044)" style="fill: #0000ff"/>
    <path d="M 83.55051 255.06671 
L 83.55051 261.731055 
L 84.77995 261.116335 
L 82.93579 267.263535 
L 81.09163 261.116335 
L 82.32107 261.731055 
L 82.32107 255.06671 
L 83.55051 255.06671 
" clip-path="url(#pfb33c1d044)" style="fill: #0000ff"/>
    <path d="M 83.55051 235.580657 
L 83.55051 242.245003 
L 84.77995 241.630283 
L 82.93579 247.777483 
L 81.09163 241.630283 
L 82.32107 242.245003 
L 82.32107 235.580657 
L 83.55051 235.580657 
" clip-path="url(#pfb33c1d044)" style="fill: #0000ff"/>
    <path d="M 83.55051 216.094605 
L 83.55051 222.75895 
L 84.77995 222.14423 
L 82.93579 228.29143 
L 81.09163 222.14423 
L 82.32107 222.75895 
L 82.32107 216.094605 
L 83.55051 216.094605 
" clip-path="url(#pfb33c1d044)" style="fill: #0000ff"/>
    <path d="M 83.55051 196.608552 
L 83.55051 203.272898 
L 84.77995 202.658178 
L 82.93579 208.805378 
L 81.09163 202.658178 
L 82.32107 203.272898 
L 82.32107 196.608552 
L 83.55051 196.608552 
" clip-path="url(#pfb33c1d044)" style="fill: #0000ff"/>
    <path d="M 83.55051 177.1225 
L 83.55051 183.786845 
L 84.77995 183.172125 
L 82.93579 189.319325 
L 81.09163 183.172125 
L 82.32107 183.786845 
L 82.32107 177.1225 
L 83.55051 177.1225 
" clip-path="url(#pfb33c1d044)" style="fill: #0000ff"/>
    <path d="M 83.55051 157.636448 
L 83.55051 164.300793 
L 84.77995 163.686073 
L 82.93579 169.833273 
L 81.09163 163.686073 
L 82.32107 164.300793 
L 82.32107 157.636448 
L 83.55051 157.636448 
" clip-path="url(#pfb33c1d044)" style="fill: #0000ff"/>
    <path d="M 83.55051 138.150395 
L 83.55051 144.814741 
L 84.77995 144.200021 
L 82.93579 150.347221 
L 81.09163 144.200021 
L 82.32107 144.814741 
L 82.32107 138.150395 
L 83.55051 138.150395 
" clip-path="url(#pfb33c1d044)" style="fill: #0000ff"/>
    <path d="M 83.55051 118.664343 
L 83.55051 125.328688 
L 84.77995 124.713968 
L 82.93579 130.861168 
L 81.09163 124.713968 
L 82.32107 125.328688 
L 82.32107 118.664343 
L 83.55051 118.664343 
" clip-path="url(#pfb33c1d044)" style="fill: #0000ff"/>
    <path d="M 83.55051 99.17829 
L 83.55051 105.842636 
L 84.77995 105.227916 
L 82.93579 111.375116 
L 81.09163 105.227916 
L 82.32107 105.842636 
L 82.32107 99.17829 
L 83.55051 99.17829 
" clip-path="url(#pfb33c1d044)" style="fill: #0000ff"/>
    <path d="M 83.55051 79.692238 
L 83.55051 86.356583 
L 84.77995 85.741863 
L 82.93579 91.889063 
L 81.09163 85.741863 
L 82.32107 86.356583 
L 82.32107 79.692238 
L 83.55051 79.692238 
" clip-path="url(#pfb33c1d044)" style="fill: #0000ff"/>
    <path d="M 83.55051 60.206186 
L 83.55051 66.870531 
L 84.77995 66.255811 
L 82.93579 72.403011 
L 81.09163 66.255811 
L 82.32107 66.870531 
L 82.32107 60.206186 
L 83.55051 60.206186 
" clip-path="url(#pfb33c1d044)" style="fill: #0000ff"/>
    <path d="M 83.55051 40.720133 
L 83.55051 47.384479 
L 84.77995 46.769759 
L 82.93579 52.916959 
L 81.09163 46.769759 
L 82.32107 47.384479 
L 82.32107 40.720133 
L 83.55051 40.720133 
" clip-path="url(#pfb33c1d044)" style="fill: #0000ff"/>
    <path d="M 103.036563 313.524867 
L 103.036563 317.140006 
L 104.266003 316.525286 
L 102.421843 322.672486 
L 100.577683 316.525286 
L 101.807123 317.140006 
L 101.807123 313.524867 
L 103.036563 313.524867 
" clip-path="url(#pfb33c1d044)" style="fill: #0000ff"/>
    <path d="M 103.036563 294.038814 
L 103.036563 297.653954 
L 104.266003 297.039234 
L 102.421843 303.186434 
L 100.577683 297.039234 
L 101.807123 297.653954 
L 101.807123 294.038814 
L 103.036563 294.038814 
" clip-path="url(#pfb33c1d044)" style="fill: #0000ff"/>
    <path d="M 103.036563 274.552762 
L 103.036563 278.167901 
L 104.266003 277.553181 
L 102.421843 283.700381 
L 100.577683 277.553181 
L 101.807123 278.167901 
L 101.807123 274.552762 
L 103.036563 274.552762 
" clip-path="url(#pfb33c1d044)" style="fill: #0000ff"/>
    <path d="M 103.036563 255.06671 
L 103.036563 258.681849 
L 104.266003 258.067129 
L 102.421843 264.214329 
L 100.577683 258.067129 
L 101.807123 258.681849 
L 101.807123 255.06671 
L 103.036563 255.06671 
" clip-path="url(#pfb33c1d044)" style="fill: #0000ff"/>
    <path d="M 103.036563 235.580657 
L 103.036563 239.195796 
L 104.266003 238.581076 
L 102.421843 244.728276 
L 100.577683 238.581076 
L 101.807123 239.195796 
L 101.807123 235.580657 
L 103.036563 235.580657 
" clip-path="url(#pfb33c1d044)" style="fill: #0000ff"/>
    <path d="M 103.036563 216.094605 
L 103.036563 219.709744 
L 104.266003 219.095024 
L 102.421843 225.242224 
L 100.577683 219.095024 
L 101.807123 219.709744 
L 101.807123 216.094605 
L 103.036563 216.094605 
" clip-path="url(#pfb33c1d044)" style="fill: #0000ff"/>
    <path d="M 103.036563 196.608552 
L 103.036563 200.223691 
L 104.266003 199.608971 
L 102.421843 205.756171 
L 100.577683 199.608971 
L 101.807123 200.223691 
L 101.807123 196.608552 
L 103.036563 196.608552 
" clip-path="url(#pfb33c1d044)" style="fill: #0000ff"/>
    <path d="M 103.036563 177.1225 
L 103.036563 180.737639 
L 104.266003 180.122919 
L 102.421843 186.270119 
L 100.577683 180.122919 
L 101.807123 180.737639 
L 101.807123 177.1225 
L 103.036563 177.1225 
" clip-path="url(#pfb33c1d044)" style="fill: #0000ff"/>
    <path d="M 103.036563 157.636448 
L 103.036563 161.251587 
L 104.266003 160.636867 
L 102.421843 166.784067 
L 100.577683 160.636867 
L 101.807123 161.251587 
L 101.807123 157.636448 
L 103.036563 157.636448 
" clip-path="url(#pfb33c1d044)" style="fill: #0000ff"/>
    <path d="M 103.036563 138.150395 
L 103.036563 141.765534 
L 104.266003 141.150814 
L 102.421843 147.298014 
L 100.577683 141.150814 
L 101.807123 141.765534 
L 101.807123 138.150395 
L 103.036563 138.150395 
" clip-path="url(#pfb33c1d044)" style="fill: #0000ff"/>
    <path d="M 103.036563 118.664343 
L 103.036563 122.279482 
L 104.266003 121.664762 
L 102.421843 127.811962 
L 100.577683 121.664762 
L 101.807123 122.279482 
L 101.807123 118.664343 
L 103.036563 118.664343 
" clip-path="url(#pfb33c1d044)" style="fill: #0000ff"/>
    <path d="M 103.036563 99.17829 
L 103.036563 102.793429 
L 104.266003 102.178709 
L 102.421843 108.325909 
L 100.577683 102.178709 
L 101.807123 102.793429 
L 101.807123 99.17829 
L 103.036563 99.17829 
" clip-path="url(#pfb33c1d044)" style="fill: #0000ff"/>
    <path d="M 103.036563 79.692238 
L 103.036563 83.307377 
L 104.266003 82.692657 
L 102.421843 88.839857 
L 100.577683 82.692657 
L 101.807123 83.307377 
L 101.807123 79.692238 
L 103.036563 79.692238 
" clip-path="url(#pfb33c1d044)" style="fill: #0000ff"/>
    <path d="M 103.036563 60.206186 
L 103.036563 63.821325 
L 104.266003 63.206605 
L 102.421843 69.353805 
L 100.577683 63.206605 
L 101.807123 63.821325 
L 101.807123 60.206186 
L 103.036563 60.206186 
" clip-path="url(#pfb33c1d044)" style="fill: #0000ff"/>
    <path d="M 103.036563 40.720133 
L 103.036563 44.335272 
L 104.266003 43.720552 
L 102.421843 49.867752 
L 100.577683 43.720552 
L 101.807123 44.335272 
L 101.807123 40.720133 
L 103.036563 40.720133 
" clip-path="url(#pfb33c1d044)" style="fill: #0000ff"/>
    <path d="M 122.517736 313.524867 
L 122.517736 314.134708 
L 123.737419 313.524867 
L 121.907895 319.62328 
L 120.078371 313.524867 
L 121.298054 314.134708 
L 121.298054 313.524867 
L 122.517736 313.524867 
" clip-path="url(#pfb33c1d044)" style="fill: #0000ff"/>
    <path d="M 122.517736 294.038814 
L 122.517736 294.648656 
L 123.737419 294.038814 
L 121.907895 300.137227 
L 120.078371 294.038814 
L 121.298054 294.648656 
L 121.298054 294.038814 
L 122.517736 294.038814 
" clip-path="url(#pfb33c1d044)" style="fill: #0000ff"/>
    <path d="M 122.517736 274.552762 
L 122.517736 275.162603 
L 123.737419 274.552762 
L 121.907895 280.651175 
L 120.078371 274.552762 
L 121.298054 275.162603 
L 121.298054 274.552762 
L 122.517736 274.552762 
" clip-path="url(#pfb33c1d044)" style="fill: #0000ff"/>
    <path d="M 122.517736 255.06671 
L 122.517736 255.676551 
L 123.737419 255.06671 
L 121.907895 261.165122 
L 120.078371 255.06671 
L 121.298054 255.676551 
L 121.298054 255.06671 
L 122.517736 255.06671 
" clip-path="url(#pfb33c1d044)" style="fill: #0000ff"/>
    <path d="M 122.517736 235.580657 
L 122.517736 236.190498 
L 123.737419 235.580657 
L 121.907895 241.67907 
L 120.078371 235.580657 
L 121.298054 236.190498 
L 121.298054 235.580657 
L 122.517736 235.580657 
" clip-path="url(#pfb33c1d044)" style="fill: #0000ff"/>
    <path d="M 122.517736 216.094605 
L 122.517736 216.704446 
L 123.737419 216.094605 
L 121.907895 222.193018 
L 120.078371 216.094605 
L 121.298054 216.704446 
L 121.298054 216.094605 
L 122.517736 216.094605 
" clip-path="url(#pfb33c1d044)" style="fill: #0000ff"/>
    <path d="M 122.517736 196.608552 
L 122.517736 197.218394 
L 123.737419 196.608552 
L 121.907895 202.706965 
L 120.078371 196.608552 
L 121.298054 197.218394 
L 121.298054 196.608552 
L 122.517736 196.608552 
" clip-path="url(#pfb33c1d044)" style="fill: #0000ff"/>
    <path d="M 122.517736 177.1225 
L 122.517736 177.732341 
L 123.737419 177.1225 
L 121.907895 183.220913 
L 120.078371 177.1225 
L 121.298054 177.732341 
L 121.298054 177.1225 
L 122.517736 177.1225 
" clip-path="url(#pfb33c1d044)" style="fill: #0000ff"/>
    <path d="M 122.517736 157.636448 
L 122.517736 158.246289 
L 123.737419 157.636448 
L 121.907895 163.73486 
L 120.078371 157.636448 
L 121.298054 158.246289 
L 121.298054 157.636448 
L 122.517736 157.636448 
" clip-path="url(#pfb33c1d044)" style="fill: #0000ff"/>
    <path d="M 122.517736 138.150395 
L 122.517736 138.760236 
L 123.737419 138.150395 
L 121.907895 144.248808 
L 120.078371 138.150395 
L 121.298054 138.760236 
L 121.298054 138.150395 
L 122.517736 138.150395 
" clip-path="url(#pfb33c1d044)" style="fill: #0000ff"/>
    <path d="M 122.517736 118.664343 
L 122.517736 119.274184 
L 123.737419 118.664343 
L 121.907895 124.762755 
L 120.078371 118.664343 
L 121.298054 119.274184 
L 121.298054 118.664343 
L 122.517736 118.664343 
" clip-path="url(#pfb33c1d044)" style="fill: #0000ff"/>
    <path d="M 122.517736 99.17829 
L 122.517736 99.788132 
L 123.737419 99.17829 
L 121.907895 105.276703 
L 120.078371 99.17829 
L 121.298054 99.788132 
L 121.298054 99.17829 
L 122.517736 99.17829 
" clip-path="url(#pfb33c1d044)" style="fill: #0000ff"/>
    <path d="M 122.517736 79.692238 
L 122.517736 80.302079 
L 123.737419 79.692238 
L 121.907895 85.790651 
L 120.078371 79.692238 
L 121.298054 80.302079 
L 121.298054 79.692238 
L 122.517736 79.692238 
" clip-path="url(#pfb33c1d044)" style="fill: #0000ff"/>
    <path d="M 122.517736 60.206186 
L 122.517736 60.816027 
L 123.737419 60.206186 
L 121.907895 66.304598 
L 120.078371 60.206186 
L 121.298054 60.816027 
L 121.298054 60.206186 
L 122.517736 60.206186 
" clip-path="url(#pfb33c1d044)" style="fill: #0000ff"/>
    <path d="M 122.517736 40.720133 
L 122.517736 41.329974 
L 123.737419 40.720133 
L 121.907895 46.818546 
L 120.078371 40.720133 
L 121.298054 41.329974 
L 121.298054 40.720133 
L 122.517736 40.720133 
" clip-path="url(#pfb33c1d044)" style="fill: #0000ff"/>
    <path d="M 141.698868 313.524867 
L 141.698868 313.829787 
L 142.308709 313.524867 
L 141.393948 316.574073 
L 140.479186 313.524867 
L 141.089027 313.829787 
L 141.089027 313.524867 
L 141.698868 313.524867 
" clip-path="url(#pfb33c1d044)" style="fill: #0000ff"/>
    <path d="M 141.698868 294.038814 
L 141.698868 294.343735 
L 142.308709 294.038814 
L 141.393948 297.088021 
L 140.479186 294.038814 
L 141.089027 294.343735 
L 141.089027 294.038814 
L 141.698868 294.038814 
" clip-path="url(#pfb33c1d044)" style="fill: #0000ff"/>
    <path d="M 141.698868 274.552762 
L 141.698868 274.857683 
L 142.308709 274.552762 
L 141.393948 277.601968 
L 140.479186 274.552762 
L 141.089027 274.857683 
L 141.089027 274.552762 
L 141.698868 274.552762 
" clip-path="url(#pfb33c1d044)" style="fill: #0000ff"/>
    <path d="M 141.698868 255.06671 
L 141.698868 255.37163 
L 142.308709 255.06671 
L 141.393948 258.115916 
L 140.479186 255.06671 
L 141.089027 255.37163 
L 141.089027 255.06671 
L 141.698868 255.06671 
" clip-path="url(#pfb33c1d044)" style="fill: #0000ff"/>
    <path d="M 141.698868 235.580657 
L 141.698868 235.885578 
L 142.308709 235.580657 
L 141.393948 238.629864 
L 140.479186 235.580657 
L 141.089027 235.885578 
L 141.089027 235.580657 
L 141.698868 235.580657 
" clip-path="url(#pfb33c1d044)" style="fill: #0000ff"/>
    <path d="M 141.698868 216.094605 
L 141.698868 216.399525 
L 142.308709 216.094605 
L 141.393948 219.143811 
L 140.479186 216.094605 
L 141.089027 216.399525 
L 141.089027 216.094605 
L 141.698868 216.094605 
" clip-path="url(#pfb33c1d044)" style="fill: #0000ff"/>
    <path d="M 141.698868 196.608552 
L 141.698868 196.913473 
L 142.308709 196.608552 
L 141.393948 199.657759 
L 140.479186 196.608552 
L 141.089027 196.913473 
L 141.089027 196.608552 
L 141.698868 196.608552 
" clip-path="url(#pfb33c1d044)" style="fill: #0000ff"/>
    <path d="M 141.698868 177.1225 
L 141.698868 177.427421 
L 142.308709 177.1225 
L 141.393948 180.171706 
L 140.479186 177.1225 
L 141.089027 177.427421 
L 141.089027 177.1225 
L 141.698868 177.1225 
" clip-path="url(#pfb33c1d044)" style="fill: #0000ff"/>
    <path d="M 141.698868 157.636448 
L 141.698868 157.941368 
L 142.308709 157.636448 
L 141.393948 160.685654 
L 140.479186 157.636448 
L 141.089027 157.941368 
L 141.089027 157.636448 
L 141.698868 157.636448 
" clip-path="url(#pfb33c1d044)" style="fill: #0000ff"/>
    <path d="M 141.698868 138.150395 
L 141.698868 138.455316 
L 142.308709 138.150395 
L 141.393948 141.199602 
L 140.479186 138.150395 
L 141.089027 138.455316 
L 141.089027 138.150395 
L 141.698868 138.150395 
" clip-path="url(#pfb33c1d044)" style="fill: #0000ff"/>
    <path d="M 141.698868 118.664343 
L 141.698868 118.969263 
L 142.308709 118.664343 
L 141.393948 121.713549 
L 140.479186 118.664343 
L 141.089027 118.969263 
L 141.089027 118.664343 
L 141.698868 118.664343 
" clip-path="url(#pfb33c1d044)" style="fill: #0000ff"/>
    <path d="M 141.698868 99.17829 
L 141.698868 99.483211 
L 142.308709 99.17829 
L 141.393948 102.227497 
L 140.479186 99.17829 
L 141.089027 99.483211 
L 141.089027 99.17829 
L 141.698868 99.17829 
" clip-path="url(#pfb33c1d044)" style="fill: #0000ff"/>
    <path d="M 141.698868 79.692238 
L 141.698868 79.997159 
L 142.308709 79.692238 
L 141.393948 82.741444 
L 140.479186 79.692238 
L 141.089027 79.997159 
L 141.089027 79.692238 
L 141.698868 79.692238 
" clip-path="url(#pfb33c1d044)" style="fill: #0000ff"/>
    <path d="M 141.698868 60.206186 
L 141.698868 60.511106 
L 142.308709 60.206186 
L 141.393948 63.255392 
L 140.479186 60.206186 
L 141.089027 60.511106 
L 141.089027 60.206186 
L 141.698868 60.206186 
" clip-path="url(#pfb33c1d044)" style="fill: #0000ff"/>
    <path d="M 141.698868 40.720133 
L 141.698868 41.025054 
L 142.308709 40.720133 
L 141.393948 43.769339 
L 140.479186 40.720133 
L 141.089027 41.025054 
L 141.089027 40.720133 
L 141.698868 40.720133 
" clip-path="url(#pfb33c1d044)" style="fill: #0000ff"/>
    <path d="M 161.49472 313.524867 
L 161.18736 312.992504 
L 160.57264 312.992504 
L 160.26528 313.524867 
L 160.57264 314.05723 
L 161.18736 314.05723 
L 161.49472 313.524867 
L 161.18736 312.992504 
" clip-path="url(#pfb33c1d044)" style="fill: #0000ff"/>
    <path d="M 161.49472 294.038814 
L 161.18736 293.506451 
L 160.57264 293.506451 
L 160.26528 294.038814 
L 160.57264 294.571178 
L 161.18736 294.571178 
L 161.49472 294.038814 
L 161.18736 293.506451 
" clip-path="url(#pfb33c1d044)" style="fill: #0000ff"/>
    <path d="M 161.49472 274.552762 
L 161.18736 274.020399 
L 160.57264 274.020399 
L 160.26528 274.552762 
L 160.57264 275.085125 
L 161.18736 275.085125 
L 161.49472 274.552762 
L 161.18736 274.020399 
" clip-path="url(#pfb33c1d044)" style="fill: #0000ff"/>
    <path d="M 161.49472 255.06671 
L 161.18736 254.534347 
L 160.57264 254.534347 
L 160.26528 255.06671 
L 160.57264 255.599073 
L 161.18736 255.599073 
L 161.49472 255.06671 
L 161.18736 254.534347 
" clip-path="url(#pfb33c1d044)" style="fill: #0000ff"/>
    <path d="M 161.49472 235.580657 
L 161.18736 235.048294 
L 160.57264 235.048294 
L 160.26528 235.580657 
L 160.57264 236.11302 
L 161.18736 236.11302 
L 161.49472 235.580657 
L 161.18736 235.048294 
" clip-path="url(#pfb33c1d044)" style="fill: #0000ff"/>
    <path d="M 161.49472 216.094605 
L 161.18736 215.562242 
L 160.57264 215.562242 
L 160.26528 216.094605 
L 160.57264 216.626968 
L 161.18736 216.626968 
L 161.49472 216.094605 
L 161.18736 215.562242 
" clip-path="url(#pfb33c1d044)" style="fill: #0000ff"/>
    <path d="M 161.49472 196.608552 
L 161.18736 196.076189 
L 160.57264 196.076189 
L 160.26528 196.608552 
L 160.57264 197.140916 
L 161.18736 197.140916 
L 161.49472 196.608552 
L 161.18736 196.076189 
" clip-path="url(#pfb33c1d044)" style="fill: #0000ff"/>
    <path d="M 161.49472 177.1225 
L 161.18736 176.590137 
L 160.57264 176.590137 
L 160.26528 177.1225 
L 160.57264 177.654863 
L 161.18736 177.654863 
L 161.49472 177.1225 
L 161.18736 176.590137 
" clip-path="url(#pfb33c1d044)" style="fill: #0000ff"/>
    <path d="M 161.49472 157.636448 
L 161.18736 157.104084 
L 160.57264 157.104084 
L 160.26528 157.636448 
L 160.57264 158.168811 
L 161.18736 158.168811 
L 161.49472 157.636448 
L 161.18736 157.104084 
" clip-path="url(#pfb33c1d044)" style="fill: #0000ff"/>
    <path d="M 161.49472 138.150395 
L 161.18736 137.618032 
L 160.57264 137.618032 
L 160.26528 138.150395 
L 160.57264 138.682758 
L 161.18736 138.682758 
L 161.49472 138.150395 
L 161.18736 137.618032 
" clip-path="url(#pfb33c1d044)" style="fill: #0000ff"/>
    <path d="M 161.49472 118.664343 
L 161.18736 118.13198 
L 160.57264 118.13198 
L 160.26528 118.664343 
L 160.57264 119.196706 
L 161.18736 119.196706 
L 161.49472 118.664343 
L 161.18736 118.13198 
" clip-path="url(#pfb33c1d044)" style="fill: #0000ff"/>
    <path d="M 161.49472 99.17829 
L 161.18736 98.645927 
L 160.57264 98.645927 
L 160.26528 99.17829 
L 160.57264 99.710653 
L 161.18736 99.710653 
L 161.49472 99.17829 
L 161.18736 98.645927 
" clip-path="url(#pfb33c1d044)" style="fill: #0000ff"/>
    <path d="M 161.49472 79.692238 
L 161.18736 79.159875 
L 160.57264 79.159875 
L 160.26528 79.692238 
L 160.57264 80.224601 
L 161.18736 80.224601 
L 161.49472 79.692238 
L 161.18736 79.159875 
" clip-path="url(#pfb33c1d044)" style="fill: #0000ff"/>
    <path d="M 161.49472 60.206186 
L 161.18736 59.673822 
L 160.57264 59.673822 
L 160.26528 60.206186 
L 160.57264 60.738549 
L 161.18736 60.738549 
L 161.49472 60.206186 
L 161.18736 59.673822 
" clip-path="url(#pfb33c1d044)" style="fill: #0000ff"/>
    <path d="M 161.49472 40.720133 
L 161.18736 40.18777 
L 160.57264 40.18777 
L 160.26528 40.720133 
L 160.57264 41.252496 
L 161.18736 41.252496 
L 161.49472 40.720133 
L 161.18736 40.18777 
" clip-path="url(#pfb33c1d044)" style="fill: #0000ff"/>
    <path d="M 180.061132 313.524867 
L 180.061132 313.219946 
L 179.451291 313.524867 
L 180.366052 310.475661 
L 181.280814 313.524867 
L 180.670973 313.219946 
L 180.670973 313.524867 
L 180.061132 313.524867 
" clip-path="url(#pfb33c1d044)" style="fill: #0000ff"/>
    <path d="M 180.061132 294.038814 
L 180.061132 293.733894 
L 179.451291 294.038814 
L 180.366052 290.989608 
L 181.280814 294.038814 
L 180.670973 293.733894 
L 180.670973 294.038814 
L 180.061132 294.038814 
" clip-path="url(#pfb33c1d044)" style="fill: #0000ff"/>
    <path d="M 180.061132 274.552762 
L 180.061132 274.247841 
L 179.451291 274.552762 
L 180.366052 271.503556 
L 181.280814 274.552762 
L 180.670973 274.247841 
L 180.670973 274.552762 
L 180.061132 274.552762 
" clip-path="url(#pfb33c1d044)" style="fill: #0000ff"/>
    <path d="M 180.061132 255.06671 
L 180.061132 254.761789 
L 179.451291 255.06671 
L 180.366052 252.017503 
L 181.280814 255.06671 
L 180.670973 254.761789 
L 180.670973 255.06671 
L 180.061132 255.06671 
" clip-path="url(#pfb33c1d044)" style="fill: #0000ff"/>
    <path d="M 180.061132 235.580657 
L 180.061132 235.275737 
L 179.451291 235.580657 
L 180.366052 232.531451 
L 181.280814 235.580657 
L 180.670973 235.275737 
L 180.670973 235.580657 
L 180.061132 235.580657 
" clip-path="url(#pfb33c1d044)" style="fill: #0000ff"/>
    <path d="M 180.061132 216.094605 
L 180.061132 215.789684 
L 179.451291 216.094605 
L 180.366052 213.045398 
L 181.280814 216.094605 
L 180.670973 215.789684 
L 180.670973 216.094605 
L 180.061132 216.094605 
" clip-path="url(#pfb33c1d044)" style="fill: #0000ff"/>
    <path d="M 180.061132 196.608552 
L 180.061132 196.303632 
L 179.451291 196.608552 
L 180.366052 193.559346 
L 181.280814 196.608552 
L 180.670973 196.303632 
L 180.670973 196.608552 
L 180.061132 196.608552 
" clip-path="url(#pfb33c1d044)" style="fill: #0000ff"/>
    <path d="M 180.061132 177.1225 
L 180.061132 176.817579 
L 179.451291 177.1225 
L 180.366052 174.073294 
L 181.280814 177.1225 
L 180.670973 176.817579 
L 180.670973 177.1225 
L 180.061132 177.1225 
" clip-path="url(#pfb33c1d044)" style="fill: #0000ff"/>
    <path d="M 180.061132 157.636448 
L 180.061132 157.331527 
L 179.451291 157.636448 
L 180.366052 154.587241 
L 181.280814 157.636448 
L 180.670973 157.331527 
L 180.670973 157.636448 
L 180.061132 157.636448 
" clip-path="url(#pfb33c1d044)" style="fill: #0000ff"/>
    <path d="M 180.061132 138.150395 
L 180.061132 137.845475 
L 179.451291 138.150395 
L 180.366052 135.101189 
L 181.280814 138.150395 
L 180.670973 137.845475 
L 180.670973 138.150395 
L 180.061132 138.150395 
" clip-path="url(#pfb33c1d044)" style="fill: #0000ff"/>
    <path d="M 180.061132 118.664343 
L 180.061132 118.359422 
L 179.451291 118.664343 
L 180.366052 115.615136 
L 181.280814 118.664343 
L 180.670973 118.359422 
L 180.670973 118.664343 
L 180.061132 118.664343 
" clip-path="url(#pfb33c1d044)" style="fill: #0000ff"/>
    <path d="M 180.061132 99.17829 
L 180.061132 98.87337 
L 179.451291 99.17829 
L 180.366052 96.129084 
L 181.280814 99.17829 
L 180.670973 98.87337 
L 180.670973 99.17829 
L 180.061132 99.17829 
" clip-path="url(#pfb33c1d044)" style="fill: #0000ff"/>
    <path d="M 180.061132 79.692238 
L 180.061132 79.387317 
L 179.451291 79.692238 
L 180.366052 76.643032 
L 181.280814 79.692238 
L 180.670973 79.387317 
L 180.670973 79.692238 
L 180.061132 79.692238 
" clip-path="url(#pfb33c1d044)" style="fill: #0000ff"/>
    <path d="M 180.061132 60.206186 
L 180.061132 59.901265 
L 179.451291 60.206186 
L 180.366052 57.156979 
L 181.280814 60.206186 
L 180.670973 59.901265 
L 180.670973 60.206186 
L 180.061132 60.206186 
" clip-path="url(#pfb33c1d044)" style="fill: #0000ff"/>
    <path d="M 180.061132 40.720133 
L 180.061132 40.415213 
L 179.451291 40.720133 
L 180.366052 37.670927 
L 181.280814 40.720133 
L 180.670973 40.415213 
L 180.670973 40.720133 
L 180.061132 40.720133 
" clip-path="url(#pfb33c1d044)" style="fill: #0000ff"/>
    <path d="M 199.242264 313.524867 
L 199.242264 312.915026 
L 198.022581 313.524867 
L 199.852105 307.426454 
L 201.681629 313.524867 
L 200.461946 312.915026 
L 200.461946 313.524867 
L 199.242264 313.524867 
" clip-path="url(#pfb33c1d044)" style="fill: #0000ff"/>
    <path d="M 199.242264 294.038814 
L 199.242264 293.428973 
L 198.022581 294.038814 
L 199.852105 287.940402 
L 201.681629 294.038814 
L 200.461946 293.428973 
L 200.461946 294.038814 
L 199.242264 294.038814 
" clip-path="url(#pfb33c1d044)" style="fill: #0000ff"/>
    <path d="M 199.242264 274.552762 
L 199.242264 273.942921 
L 198.022581 274.552762 
L 199.852105 268.454349 
L 201.681629 274.552762 
L 200.461946 273.942921 
L 200.461946 274.552762 
L 199.242264 274.552762 
" clip-path="url(#pfb33c1d044)" style="fill: #0000ff"/>
    <path d="M 199.242264 255.06671 
L 199.242264 254.456868 
L 198.022581 255.06671 
L 199.852105 248.968297 
L 201.681629 255.06671 
L 200.461946 254.456868 
L 200.461946 255.06671 
L 199.242264 255.06671 
" clip-path="url(#pfb33c1d044)" style="fill: #0000ff"/>
    <path d="M 199.242264 235.580657 
L 199.242264 234.970816 
L 198.022581 235.580657 
L 199.852105 229.482245 
L 201.681629 235.580657 
L 200.461946 234.970816 
L 200.461946 235.580657 
L 199.242264 235.580657 
" clip-path="url(#pfb33c1d044)" style="fill: #0000ff"/>
    <path d="M 199.242264 216.094605 
L 199.242264 215.484764 
L 198.022581 216.094605 
L 199.852105 209.996192 
L 201.681629 216.094605 
L 200.461946 215.484764 
L 200.461946 216.094605 
L 199.242264 216.094605 
" clip-path="url(#pfb33c1d044)" style="fill: #0000ff"/>
    <path d="M 199.242264 196.608552 
L 199.242264 195.998711 
L 198.022581 196.608552 
L 199.852105 190.51014 
L 201.681629 196.608552 
L 200.461946 195.998711 
L 200.461946 196.608552 
L 199.242264 196.608552 
" clip-path="url(#pfb33c1d044)" style="fill: #0000ff"/>
    <path d="M 199.242264 177.1225 
L 199.242264 176.512659 
L 198.022581 177.1225 
L 199.852105 171.024087 
L 201.681629 177.1225 
L 200.461946 176.512659 
L 200.461946 177.1225 
L 199.242264 177.1225 
" clip-path="url(#pfb33c1d044)" style="fill: #0000ff"/>
    <path d="M 199.242264 157.636448 
L 199.242264 157.026606 
L 198.022581 157.636448 
L 199.852105 151.538035 
L 201.681629 157.636448 
L 200.461946 157.026606 
L 200.461946 157.636448 
L 199.242264 157.636448 
" clip-path="url(#pfb33c1d044)" style="fill: #0000ff"/>
    <path d="M 199.242264 138.150395 
L 199.242264 137.540554 
L 198.022581 138.150395 
L 199.852105 132.051982 
L 201.681629 138.150395 
L 200.461946 137.540554 
L 200.461946 138.150395 
L 199.242264 138.150395 
" clip-path="url(#pfb33c1d044)" style="fill: #0000ff"/>
    <path d="M 199.242264 118.664343 
L 199.242264 118.054502 
L 198.022581 118.664343 
L 199.852105 112.56593 
L 201.681629 118.664343 
L 200.461946 118.054502 
L 200.461946 118.664343 
L 199.242264 118.664343 
" clip-path="url(#pfb33c1d044)" style="fill: #0000ff"/>
    <path d="M 199.242264 99.17829 
L 199.242264 98.568449 
L 198.022581 99.17829 
L 199.852105 93.079878 
L 201.681629 99.17829 
L 200.461946 98.568449 
L 200.461946 99.17829 
L 199.242264 99.17829 
" clip-path="url(#pfb33c1d044)" style="fill: #0000ff"/>
    <path d="M 199.242264 79.692238 
L 199.242264 79.082397 
L 198.022581 79.692238 
L 199.852105 73.593825 
L 201.681629 79.692238 
L 200.461946 79.082397 
L 200.461946 79.692238 
L 199.242264 79.692238 
" clip-path="url(#pfb33c1d044)" style="fill: #0000ff"/>
    <path d="M 199.242264 60.206186 
L 199.242264 59.596344 
L 198.022581 60.206186 
L 199.852105 54.107773 
L 201.681629 60.206186 
L 200.461946 59.596344 
L 200.461946 60.206186 
L 199.242264 60.206186 
" clip-path="url(#pfb33c1d044)" style="fill: #0000ff"/>
    <path d="M 199.242264 40.720133 
L 199.242264 40.110292 
L 198.022581 40.720133 
L 199.852105 34.62172 
L 201.681629 40.720133 
L 200.461946 40.110292 
L 200.461946 40.720133 
L 199.242264 40.720133 
" clip-path="url(#pfb33c1d044)" style="fill: #0000ff"/>
    <path d="M 218.723437 313.524867 
L 218.723437 309.909728 
L 217.493997 310.524448 
L 219.338157 304.377248 
L 221.182317 310.524448 
L 219.952877 309.909728 
L 219.952877 313.524867 
L 218.723437 313.524867 
" clip-path="url(#pfb33c1d044)" style="fill: #0000ff"/>
    <path d="M 218.723437 294.038814 
L 218.723437 290.423675 
L 217.493997 291.038395 
L 219.338157 284.891195 
L 221.182317 291.038395 
L 219.952877 290.423675 
L 219.952877 294.038814 
L 218.723437 294.038814 
" clip-path="url(#pfb33c1d044)" style="fill: #0000ff"/>
    <path d="M 218.723437 274.552762 
L 218.723437 270.937623 
L 217.493997 271.552343 
L 219.338157 265.405143 
L 221.182317 271.552343 
L 219.952877 270.937623 
L 219.952877 274.552762 
L 218.723437 274.552762 
" clip-path="url(#pfb33c1d044)" style="fill: #0000ff"/>
    <path d="M 218.723437 255.06671 
L 218.723437 251.451571 
L 217.493997 252.066291 
L 219.338157 245.919091 
L 221.182317 252.066291 
L 219.952877 251.451571 
L 219.952877 255.06671 
L 218.723437 255.06671 
" clip-path="url(#pfb33c1d044)" style="fill: #0000ff"/>
    <path d="M 218.723437 235.580657 
L 218.723437 231.965518 
L 217.493997 232.580238 
L 219.338157 226.433038 
L 221.182317 232.580238 
L 219.952877 231.965518 
L 219.952877 235.580657 
L 218.723437 235.580657 
" clip-path="url(#pfb33c1d044)" style="fill: #0000ff"/>
    <path d="M 218.723437 216.094605 
L 218.723437 212.479466 
L 217.493997 213.094186 
L 219.338157 206.946986 
L 221.182317 213.094186 
L 219.952877 212.479466 
L 219.952877 216.094605 
L 218.723437 216.094605 
" clip-path="url(#pfb33c1d044)" style="fill: #0000ff"/>
    <path d="M 218.723437 196.608552 
L 218.723437 192.993413 
L 217.493997 193.608133 
L 219.338157 187.460933 
L 221.182317 193.608133 
L 219.952877 192.993413 
L 219.952877 196.608552 
L 218.723437 196.608552 
" clip-path="url(#pfb33c1d044)" style="fill: #0000ff"/>
    <path d="M 218.723437 177.1225 
L 218.723437 173.507361 
L 217.493997 174.122081 
L 219.338157 167.974881 
L 221.182317 174.122081 
L 219.952877 173.507361 
L 219.952877 177.1225 
L 218.723437 177.1225 
" clip-path="url(#pfb33c1d044)" style="fill: #0000ff"/>
    <path d="M 218.723437 157.636448 
L 218.723437 154.021309 
L 217.493997 154.636029 
L 219.338157 148.488829 
L 221.182317 154.636029 
L 219.952877 154.021309 
L 219.952877 157.636448 
L 218.723437 157.636448 
" clip-path="url(#pfb33c1d044)" style="fill: #0000ff"/>
    <path d="M 218.723437 138.150395 
L 218.723437 134.535256 
L 217.493997 135.149976 
L 219.338157 129.002776 
L 221.182317 135.149976 
L 219.952877 134.535256 
L 219.952877 138.150395 
L 218.723437 138.150395 
" clip-path="url(#pfb33c1d044)" style="fill: #0000ff"/>
    <path d="M 218.723437 118.664343 
L 218.723437 115.049204 
L 217.493997 115.663924 
L 219.338157 109.516724 
L 221.182317 115.663924 
L 219.952877 115.049204 
L 219.952877 118.664343 
L 218.723437 118.664343 
" clip-path="url(#pfb33c1d044)" style="fill: #0000ff"/>
    <path d="M 218.723437 99.17829 
L 218.723437 95.563151 
L 217.493997 96.177871 
L 219.338157 90.030671 
L 221.182317 96.177871 
L 219.952877 95.563151 
L 219.952877 99.17829 
L 218.723437 99.17829 
" clip-path="url(#pfb33c1d044)" style="fill: #0000ff"/>
    <path d="M 218.723437 79.692238 
L 218.723437 76.077099 
L 217.493997 76.691819 
L 219.338157 70.544619 
L 221.182317 76.691819 
L 219.952877 76.077099 
L 219.952877 79.692238 
L 218.723437 79.692238 
" clip-path="url(#pfb33c1d044)" style="fill: #0000ff"/>
    <path d="M 218.723437 60.206186 
L 218.723437 56.591046 
L 217.493997 57.205766 
L 219.338157 51.058566 
L 221.182317 57.205766 
L 219.952877 56.591046 
L 219.952877 60.206186 
L 218.723437 60.206186 
" clip-path="url(#pfb33c1d044)" style="fill: #0000ff"/>
    <path d="M 218.723437 40.720133 
L 218.723437 37.104994 
L 217.493997 37.719714 
L 219.338157 31.572514 
L 221.182317 37.719714 
L 219.952877 37.104994 
L 219.952877 40.720133 
L 218.723437 40.720133 
" clip-path="url(#pfb33c1d044)" style="fill: #0000ff"/>
    <path d="M 238.20949 313.524867 
L 238.20949 306.860521 
L 236.98005 307.475241 
L 238.82421 301.328041 
L 240.66837 307.475241 
L 239.43893 306.860521 
L 239.43893 313.524867 
L 238.20949 313.524867 
" clip-path="url(#pfb33c1d044)" style="fill: #0000ff"/>
    <path d="M 238.20949 294.038814 
L 238.20949 287.374469 
L 236.98005 287.989189 
L 238.82421 281.841989 
L 240.66837 287.989189 
L 239.43893 287.374469 
L 239.43893 294.038814 
L 238.20949 294.038814 
" clip-path="url(#pfb33c1d044)" style="fill: #0000ff"/>
    <path d="M 238.20949 274.552762 
L 238.20949 267.888417 
L 236.98005 268.503137 
L 238.82421 262.355937 
L 240.66837 268.503137 
L 239.43893 267.888417 
L 239.43893 274.552762 
L 238.20949 274.552762 
" clip-path="url(#pfb33c1d044)" style="fill: #0000ff"/>
    <path d="M 238.20949 255.06671 
L 238.20949 248.402364 
L 236.98005 249.017084 
L 238.82421 242.869884 
L 240.66837 249.017084 
L 239.43893 248.402364 
L 239.43893 255.06671 
L 238.20949 255.06671 
" clip-path="url(#pfb33c1d044)" style="fill: #0000ff"/>
    <path d="M 238.20949 235.580657 
L 238.20949 228.916312 
L 236.98005 229.531032 
L 238.82421 223.383832 
L 240.66837 229.531032 
L 239.43893 228.916312 
L 239.43893 235.580657 
L 238.20949 235.580657 
" clip-path="url(#pfb33c1d044)" style="fill: #0000ff"/>
    <path d="M 238.20949 216.094605 
L 238.20949 209.430259 
L 236.98005 210.044979 
L 238.82421 203.897779 
L 240.66837 210.044979 
L 239.43893 209.430259 
L 239.43893 216.094605 
L 238.20949 216.094605 
" clip-path="url(#pfb33c1d044)" style="fill: #0000ff"/>
    <path d="M 238.20949 196.608552 
L 238.20949 189.944207 
L 236.98005 190.558927 
L 238.82421 184.411727 
L 240.66837 190.558927 
L 239.43893 189.944207 
L 239.43893 196.608552 
L 238.20949 196.608552 
" clip-path="url(#pfb33c1d044)" style="fill: #0000ff"/>
    <path d="M 238.20949 177.1225 
L 238.20949 170.458155 
L 236.98005 171.072875 
L 238.82421 164.925675 
L 240.66837 171.072875 
L 239.43893 170.458155 
L 239.43893 177.1225 
L 238.20949 177.1225 
" clip-path="url(#pfb33c1d044)" style="fill: #0000ff"/>
    <path d="M 238.20949 157.636448 
L 238.20949 150.972102 
L 236.98005 151.586822 
L 238.82421 145.439622 
L 240.66837 151.586822 
L 239.43893 150.972102 
L 239.43893 157.636448 
L 238.20949 157.636448 
" clip-path="url(#pfb33c1d044)" style="fill: #0000ff"/>
    <path d="M 238.20949 138.150395 
L 238.20949 131.48605 
L 236.98005 132.10077 
L 238.82421 125.95357 
L 240.66837 132.10077 
L 239.43893 131.48605 
L 239.43893 138.150395 
L 238.20949 138.150395 
" clip-path="url(#pfb33c1d044)" style="fill: #0000ff"/>
    <path d="M 238.20949 118.664343 
L 238.20949 111.999997 
L 236.98005 112.614717 
L 238.82421 106.467517 
L 240.66837 112.614717 
L 239.43893 111.999997 
L 239.43893 118.664343 
L 238.20949 118.664343 
" clip-path="url(#pfb33c1d044)" style="fill: #0000ff"/>
    <path d="M 238.20949 99.17829 
L 238.20949 92.513945 
L 236.98005 93.128665 
L 238.82421 86.981465 
L 240.66837 93.128665 
L 239.43893 92.513945 
L 239.43893 99.17829 
L 238.20949 99.17829 
" clip-path="url(#pfb33c1d044)" style="fill: #0000ff"/>
    <path d="M 238.20949 79.692238 
L 238.20949 73.027893 
L 236.98005 73.642613 
L 238.82421 67.495413 
L 240.66837 73.642613 
L 239.43893 73.027893 
L 239.43893 79.692238 
L 238.20949 79.692238 
" clip-path="url(#pfb33c1d044)" style="fill: #0000ff"/>
    <path d="M 238.20949 60.206186 
L 238.20949 53.54184 
L 236.98005 54.15656 
L 238.82421 48.00936 
L 240.66837 54.15656 
L 239.43893 53.54184 
L 239.43893 60.206186 
L 238.20949 60.206186 
" clip-path="url(#pfb33c1d044)" style="fill: #0000ff"/>
    <path d="M 238.20949 40.720133 
L 238.20949 34.055788 
L 236.98005 34.670508 
L 238.82421 28.523308 
L 240.66837 34.670508 
L 239.43893 34.055788 
L 239.43893 40.720133 
L 238.20949 40.720133 
" clip-path="url(#pfb33c1d044)" style="fill: #0000ff"/>
    <path d="M 257.695542 313.524867 
L 257.695542 303.811315 
L 256.466102 304.426035 
L 258.310262 298.278835 
L 260.154422 304.426035 
L 258.924982 303.811315 
L 258.924982 313.524867 
L 257.695542 313.524867 
" clip-path="url(#pfb33c1d044)" style="fill: #0000ff"/>
    <path d="M 257.695542 294.038814 
L 257.695542 284.325263 
L 256.466102 284.939983 
L 258.310262 278.792783 
L 260.154422 284.939983 
L 258.924982 284.325263 
L 258.924982 294.038814 
L 257.695542 294.038814 
" clip-path="url(#pfb33c1d044)" style="fill: #0000ff"/>
    <path d="M 257.695542 274.552762 
L 257.695542 264.83921 
L 256.466102 265.45393 
L 258.310262 259.30673 
L 260.154422 265.45393 
L 258.924982 264.83921 
L 258.924982 274.552762 
L 257.695542 274.552762 
" clip-path="url(#pfb33c1d044)" style="fill: #0000ff"/>
    <path d="M 257.695542 255.06671 
L 257.695542 245.353158 
L 256.466102 245.967878 
L 258.310262 239.820678 
L 260.154422 245.967878 
L 258.924982 245.353158 
L 258.924982 255.06671 
L 257.695542 255.06671 
" clip-path="url(#pfb33c1d044)" style="fill: #0000ff"/>
    <path d="M 257.695542 235.580657 
L 257.695542 225.867105 
L 256.466102 226.481825 
L 258.310262 220.334625 
L 260.154422 226.481825 
L 258.924982 225.867105 
L 258.924982 235.580657 
L 257.695542 235.580657 
" clip-path="url(#pfb33c1d044)" style="fill: #0000ff"/>
    <path d="M 257.695542 216.094605 
L 257.695542 206.381053 
L 256.466102 206.995773 
L 258.310262 200.848573 
L 260.154422 206.995773 
L 258.924982 206.381053 
L 258.924982 216.094605 
L 257.695542 216.094605 
" clip-path="url(#pfb33c1d044)" style="fill: #0000ff"/>
    <path d="M 257.695542 196.608552 
L 257.695542 186.895001 
L 256.466102 187.509721 
L 258.310262 181.362521 
L 260.154422 187.509721 
L 258.924982 186.895001 
L 258.924982 196.608552 
L 257.695542 196.608552 
" clip-path="url(#pfb33c1d044)" style="fill: #0000ff"/>
    <path d="M 257.695542 177.1225 
L 257.695542 167.408948 
L 256.466102 168.023668 
L 258.310262 161.876468 
L 260.154422 168.023668 
L 258.924982 167.408948 
L 258.924982 177.1225 
L 257.695542 177.1225 
" clip-path="url(#pfb33c1d044)" style="fill: #0000ff"/>
    <path d="M 257.695542 157.636448 
L 257.695542 147.922896 
L 256.466102 148.537616 
L 258.310262 142.390416 
L 260.154422 148.537616 
L 258.924982 147.922896 
L 258.924982 157.636448 
L 257.695542 157.636448 
" clip-path="url(#pfb33c1d044)" style="fill: #0000ff"/>
    <path d="M 257.695542 138.150395 
L 257.695542 128.436843 
L 256.466102 129.051563 
L 258.310262 122.904363 
L 260.154422 129.051563 
L 258.924982 128.436843 
L 258.924982 138.150395 
L 257.695542 138.150395 
" clip-path="url(#pfb33c1d044)" style="fill: #0000ff"/>
    <path d="M 257.695542 118.664343 
L 257.695542 108.950791 
L 256.466102 109.565511 
L 258.310262 103.418311 
L 260.154422 109.565511 
L 258.924982 108.950791 
L 258.924982 118.664343 
L 257.695542 118.664343 
" clip-path="url(#pfb33c1d044)" style="fill: #0000ff"/>
    <path d="M 257.695542 99.17829 
L 257.695542 89.464739 
L 256.466102 90.079459 
L 258.310262 83.932259 
L 260.154422 90.079459 
L 258.924982 89.464739 
L 258.924982 99.17829 
L 257.695542 99.17829 
" clip-path="url(#pfb33c1d044)" style="fill: #0000ff"/>
    <path d="M 257.695542 79.692238 
L 257.695542 69.978686 
L 256.466102 70.593406 
L 258.310262 64.446206 
L 260.154422 70.593406 
L 258.924982 69.978686 
L 258.924982 79.692238 
L 257.695542 79.692238 
" clip-path="url(#pfb33c1d044)" style="fill: #0000ff"/>
    <path d="M 257.695542 60.206186 
L 257.695542 50.492634 
L 256.466102 51.107354 
L 258.310262 44.960154 
L 260.154422 51.107354 
L 258.924982 50.492634 
L 258.924982 60.206186 
L 257.695542 60.206186 
" clip-path="url(#pfb33c1d044)" style="fill: #0000ff"/>
    <path d="M 257.695542 40.720133 
L 257.695542 31.006581 
L 256.466102 31.621301 
L 258.310262 25.474101 
L 260.154422 31.621301 
L 258.924982 31.006581 
L 258.924982 40.720133 
L 257.695542 40.720133 
" clip-path="url(#pfb33c1d044)" style="fill: #0000ff"/>
    <path d="M 277.181594 313.524867 
L 277.181594 300.762109 
L 275.952154 301.376829 
L 277.796314 295.229629 
L 279.640474 301.376829 
L 278.411034 300.762109 
L 278.411034 313.524867 
L 277.181594 313.524867 
" clip-path="url(#pfb33c1d044)" style="fill: #0000ff"/>
    <path d="M 277.181594 294.038814 
L 277.181594 281.276056 
L 275.952154 281.890776 
L 277.796314 275.743576 
L 279.640474 281.890776 
L 278.411034 281.276056 
L 278.411034 294.038814 
L 277.181594 294.038814 
" clip-path="url(#pfb33c1d044)" style="fill: #0000ff"/>
    <path d="M 277.181594 274.552762 
L 277.181594 261.790004 
L 275.952154 262.404724 
L 277.796314 256.257524 
L 279.640474 262.404724 
L 278.411034 261.790004 
L 278.411034 274.552762 
L 277.181594 274.552762 
" clip-path="url(#pfb33c1d044)" style="fill: #0000ff"/>
    <path d="M 277.181594 255.06671 
L 277.181594 242.303952 
L 275.952154 242.918672 
L 277.796314 236.771472 
L 279.640474 242.918672 
L 278.411034 242.303952 
L 278.411034 255.06671 
L 277.181594 255.06671 
" clip-path="url(#pfb33c1d044)" style="fill: #0000ff"/>
    <path d="M 277.181594 235.580657 
L 277.181594 222.817899 
L 275.952154 223.432619 
L 277.796314 217.285419 
L 279.640474 223.432619 
L 278.411034 222.817899 
L 278.411034 235.580657 
L 277.181594 235.580657 
" clip-path="url(#pfb33c1d044)" style="fill: #0000ff"/>
    <path d="M 277.181594 216.094605 
L 277.181594 203.331847 
L 275.952154 203.946567 
L 277.796314 197.799367 
L 279.640474 203.946567 
L 278.411034 203.331847 
L 278.411034 216.094605 
L 277.181594 216.094605 
" clip-path="url(#pfb33c1d044)" style="fill: #0000ff"/>
    <path d="M 277.181594 196.608552 
L 277.181594 183.845794 
L 275.952154 184.460514 
L 277.796314 178.313314 
L 279.640474 184.460514 
L 278.411034 183.845794 
L 278.411034 196.608552 
L 277.181594 196.608552 
" clip-path="url(#pfb33c1d044)" style="fill: #0000ff"/>
    <path d="M 277.181594 177.1225 
L 277.181594 164.359742 
L 275.952154 164.974462 
L 277.796314 158.827262 
L 279.640474 164.974462 
L 278.411034 164.359742 
L 278.411034 177.1225 
L 277.181594 177.1225 
" clip-path="url(#pfb33c1d044)" style="fill: #0000ff"/>
    <path d="M 277.181594 157.636448 
L 277.181594 144.873689 
L 275.952154 145.488409 
L 277.796314 139.341209 
L 279.640474 145.488409 
L 278.411034 144.873689 
L 278.411034 157.636448 
L 277.181594 157.636448 
" clip-path="url(#pfb33c1d044)" style="fill: #0000ff"/>
    <path d="M 277.181594 138.150395 
L 277.181594 125.387637 
L 275.952154 126.002357 
L 277.796314 119.855157 
L 279.640474 126.002357 
L 278.411034 125.387637 
L 278.411034 138.150395 
L 277.181594 138.150395 
" clip-path="url(#pfb33c1d044)" style="fill: #0000ff"/>
    <path d="M 277.181594 118.664343 
L 277.181594 105.901585 
L 275.952154 106.516305 
L 277.796314 100.369105 
L 279.640474 106.516305 
L 278.411034 105.901585 
L 278.411034 118.664343 
L 277.181594 118.664343 
" clip-path="url(#pfb33c1d044)" style="fill: #0000ff"/>
    <path d="M 277.181594 99.17829 
L 277.181594 86.415532 
L 275.952154 87.030252 
L 277.796314 80.883052 
L 279.640474 87.030252 
L 278.411034 86.415532 
L 278.411034 99.17829 
L 277.181594 99.17829 
" clip-path="url(#pfb33c1d044)" style="fill: #0000ff"/>
    <path d="M 277.181594 79.692238 
L 277.181594 66.92948 
L 275.952154 67.5442 
L 277.796314 61.397 
L 279.640474 67.5442 
L 278.411034 66.92948 
L 278.411034 79.692238 
L 277.181594 79.692238 
" clip-path="url(#pfb33c1d044)" style="fill: #0000ff"/>
    <path d="M 277.181594 60.206186 
L 277.181594 47.443427 
L 275.952154 48.058147 
L 277.796314 41.910947 
L 279.640474 48.058147 
L 278.411034 47.443427 
L 278.411034 60.206186 
L 277.181594 60.206186 
" clip-path="url(#pfb33c1d044)" style="fill: #0000ff"/>
    <path d="M 277.181594 40.720133 
L 277.181594 27.957375 
L 275.952154 28.572095 
L 277.796314 22.424895 
L 279.640474 28.572095 
L 278.411034 27.957375 
L 278.411034 40.720133 
L 277.181594 40.720133 
" clip-path="url(#pfb33c1d044)" style="fill: #0000ff"/>
    <path d="M 296.667647 313.524867 
L 296.667647 297.712902 
L 295.438207 298.327622 
L 297.282367 292.180422 
L 299.126527 298.327622 
L 297.897087 297.712902 
L 297.897087 313.524867 
L 296.667647 313.524867 
" clip-path="url(#pfb33c1d044)" style="fill: #0000ff"/>
    <path d="M 296.667647 294.038814 
L 296.667647 278.22685 
L 295.438207 278.84157 
L 297.282367 272.69437 
L 299.126527 278.84157 
L 297.897087 278.22685 
L 297.897087 294.038814 
L 296.667647 294.038814 
" clip-path="url(#pfb33c1d044)" style="fill: #0000ff"/>
    <path d="M 296.667647 274.552762 
L 296.667647 258.740798 
L 295.438207 259.355518 
L 297.282367 253.208318 
L 299.126527 259.355518 
L 297.897087 258.740798 
L 297.897087 274.552762 
L 296.667647 274.552762 
" clip-path="url(#pfb33c1d044)" style="fill: #0000ff"/>
    <path d="M 296.667647 255.06671 
L 296.667647 239.254745 
L 295.438207 239.869465 
L 297.282367 233.722265 
L 299.126527 239.869465 
L 297.897087 239.254745 
L 297.897087 255.06671 
L 296.667647 255.06671 
" clip-path="url(#pfb33c1d044)" style="fill: #0000ff"/>
    <path d="M 296.667647 235.580657 
L 296.667647 219.768693 
L 295.438207 220.383413 
L 297.282367 214.236213 
L 299.126527 220.383413 
L 297.897087 219.768693 
L 297.897087 235.580657 
L 296.667647 235.580657 
" clip-path="url(#pfb33c1d044)" style="fill: #0000ff"/>
    <path d="M 296.667647 216.094605 
L 296.667647 200.28264 
L 295.438207 200.89736 
L 297.282367 194.75016 
L 299.126527 200.89736 
L 297.897087 200.28264 
L 297.897087 216.094605 
L 296.667647 216.094605 
" clip-path="url(#pfb33c1d044)" style="fill: #0000ff"/>
    <path d="M 296.667647 196.608552 
L 296.667647 180.796588 
L 295.438207 181.411308 
L 297.282367 175.264108 
L 299.126527 181.411308 
L 297.897087 180.796588 
L 297.897087 196.608552 
L 296.667647 196.608552 
" clip-path="url(#pfb33c1d044)" style="fill: #0000ff"/>
    <path d="M 296.667647 177.1225 
L 296.667647 161.310536 
L 295.438207 161.925256 
L 297.282367 155.778056 
L 299.126527 161.925256 
L 297.897087 161.310536 
L 297.897087 177.1225 
L 296.667647 177.1225 
" clip-path="url(#pfb33c1d044)" style="fill: #0000ff"/>
    <path d="M 296.667647 157.636448 
L 296.667647 141.824483 
L 295.438207 142.439203 
L 297.282367 136.292003 
L 299.126527 142.439203 
L 297.897087 141.824483 
L 297.897087 157.636448 
L 296.667647 157.636448 
" clip-path="url(#pfb33c1d044)" style="fill: #0000ff"/>
    <path d="M 296.667647 138.150395 
L 296.667647 122.338431 
L 295.438207 122.953151 
L 297.282367 116.805951 
L 299.126527 122.953151 
L 297.897087 122.338431 
L 297.897087 138.150395 
L 296.667647 138.150395 
" clip-path="url(#pfb33c1d044)" style="fill: #0000ff"/>
    <path d="M 296.667647 118.664343 
L 296.667647 102.852378 
L 295.438207 103.467098 
L 297.282367 97.319898 
L 299.126527 103.467098 
L 297.897087 102.852378 
L 297.897087 118.664343 
L 296.667647 118.664343 
" clip-path="url(#pfb33c1d044)" style="fill: #0000ff"/>
    <path d="M 296.667647 99.17829 
L 296.667647 83.366326 
L 295.438207 83.981046 
L 297.282367 77.833846 
L 299.126527 83.981046 
L 297.897087 83.366326 
L 297.897087 99.17829 
L 296.667647 99.17829 
" clip-path="url(#pfb33c1d044)" style="fill: #0000ff"/>
    <path d="M 296.667647 79.692238 
L 296.667647 63.880274 
L 295.438207 64.494994 
L 297.282367 58.347794 
L 299.126527 64.494994 
L 297.897087 63.880274 
L 297.897087 79.692238 
L 296.667647 79.692238 
" clip-path="url(#pfb33c1d044)" style="fill: #0000ff"/>
    <path d="M 296.667647 60.206186 
L 296.667647 44.394221 
L 295.438207 45.008941 
L 297.282367 38.861741 
L 299.126527 45.008941 
L 297.897087 44.394221 
L 297.897087 60.206186 
L 296.667647 60.206186 
" clip-path="url(#pfb33c1d044)" style="fill: #0000ff"/>
    <path d="M 296.667647 40.720133 
L 296.667647 24.908169 
L 295.438207 25.522889 
L 297.282367 19.375689 
L 299.126527 25.522889 
L 297.897087 24.908169 
L 297.897087 40.720133 
L 296.667647 40.720133 
" clip-path="url(#pfb33c1d044)" style="fill: #0000ff"/>
   </g>
   <g id="matplotlib.axis_1">
    <g id="xtick_1">
     <g id="line2d_1">
      <defs>
       <path id="m31a468596b" d="M 0 0 
L 0 3.5 
" style="stroke: #000000; stroke-width: 0.8"/>
      </defs>
      <g>
       <use xlink:href="#m31a468596b" x="24.477633" y="177.1225" style="stroke: #000000; stroke-width: 0.8"/>
      </g>
     </g>
     <g id="text_1">
      <!-- 3 -->
      <g transform="translate(17.106539 191.720937) scale(0.1 -0.1)">
       <defs>
        <path id="DejaVuSans-2212" d="M 678 2272 
L 4684 2272 
L 4684 1741 
L 678 1741 
L 678 2272 
z
" transform="scale(0.015625)"/>
        <path id="DejaVuSans-33" d="M 2597 2516 
Q 3050 2419 3304 2112 
Q 3559 1806 3559 1356 
Q 3559 666 3084 287 
Q 2609 -91 1734 -91 
Q 1441 -91 1130 -33 
Q 819 25 488 141 
L 488 750 
Q 750 597 1062 519 
Q 1375 441 1716 441 
Q 2309 441 2620 675 
Q 2931 909 2931 1356 
Q 2931 1769 2642 2001 
Q 2353 2234 1838 2234 
L 1294 2234 
L 1294 2753 
L 1863 2753 
Q 2328 2753 2575 2939 
Q 2822 3125 2822 3475 
Q 2822 3834 2567 4026 
Q 2313 4219 1838 4219 
Q 1578 4219 1281 4162 
Q 984 4106 628 3988 
L 628 4550 
Q 988 4650 1302 4700 
Q 1616 4750 1894 4750 
Q 2613 4750 3031 4423 
Q 3450 4097 3450 3541 
Q 3450 3153 3228 2886 
Q 3006 2619 2597 2516 
z
" transform="scale(0.015625)"/>
       </defs>
       <use xlink:href="#DejaVuSans-2212"/>
       <use xlink:href="#DejaVuSans-33" x="83.789062"/>
      </g>
     </g>
    </g>
    <g id="xtick_2">
     <g id="line2d_2">
      <g>
       <use xlink:href="#m31a468596b" x="69.945089" y="177.1225" style="stroke: #000000; stroke-width: 0.8"/>
      </g>
     </g>
     <g id="text_2">
      <!-- 2 -->
      <g transform="translate(62.573995 191.720937) scale(0.1 -0.1)">
       <defs>
        <path id="DejaVuSans-32" d="M 1228 531 
L 3431 531 
L 3431 0 
L 469 0 
L 469 531 
Q 828 903 1448 1529 
Q 2069 2156 2228 2338 
Q 2531 2678 2651 2914 
Q 2772 3150 2772 3378 
Q 2772 3750 2511 3984 
Q 2250 4219 1831 4219 
Q 1534 4219 1204 4116 
Q 875 4013 500 3803 
L 500 4441 
Q 881 4594 1212 4672 
Q 1544 4750 1819 4750 
Q 2544 4750 2975 4387 
Q 3406 4025 3406 3419 
Q 3406 3131 3298 2873 
Q 3191 2616 2906 2266 
Q 2828 2175 2409 1742 
Q 1991 1309 1228 531 
z
" transform="scale(0.015625)"/>
       </defs>
       <use xlink:href="#DejaVuSans-2212"/>
       <use xlink:href="#DejaVuSans-32" x="83.789062"/>
      </g>
     </g>
    </g>
    <g id="xtick_3">
     <g id="line2d_3">
      <g>
       <use xlink:href="#m31a468596b" x="115.412544" y="177.1225" style="stroke: #000000; stroke-width: 0.8"/>
      </g>
     </g>
     <g id="text_3">
      <!-- 1 -->
      <g transform="translate(108.041451 191.720937) scale(0.1 -0.1)">
       <defs>
        <path id="DejaVuSans-31" d="M 794 531 
L 1825 531 
L 1825 4091 
L 703 3866 
L 703 4441 
L 1819 4666 
L 2450 4666 
L 2450 531 
L 3481 531 
L 3481 0 
L 794 0 
L 794 531 
z
" transform="scale(0.015625)"/>
       </defs>
       <use xlink:href="#DejaVuSans-2212"/>
       <use xlink:href="#DejaVuSans-31" x="83.789062"/>
      </g>
     </g>
    </g>
    <g id="xtick_4">
     <g id="line2d_4">
      <g>
       <use xlink:href="#m31a468596b" x="160.88" y="177.1225" style="stroke: #000000; stroke-width: 0.8"/>
      </g>
     </g>
    </g>
    <g id="xtick_5">
     <g id="line2d_5">
      <g>
       <use xlink:href="#m31a468596b" x="206.347456" y="177.1225" style="stroke: #000000; stroke-width: 0.8"/>
      </g>
     </g>
     <g id="text_4">
      <!-- 1 -->
      <g transform="translate(203.166206 191.720937) scale(0.1 -0.1)">
       <use xlink:href="#DejaVuSans-31"/>
      </g>
     </g>
    </g>
    <g id="xtick_6">
     <g id="line2d_6">
      <g>
       <use xlink:href="#m31a468596b" x="251.814911" y="177.1225" style="stroke: #000000; stroke-width: 0.8"/>
      </g>
     </g>
     <g id="text_5">
      <!-- 2 -->
      <g transform="translate(248.633661 191.720937) scale(0.1 -0.1)">
       <use xlink:href="#DejaVuSans-32"/>
      </g>
     </g>
    </g>
    <g id="xtick_7">
     <g id="line2d_7">
      <g>
       <use xlink:href="#m31a468596b" x="297.282367" y="177.1225" style="stroke: #000000; stroke-width: 0.8"/>
      </g>
     </g>
     <g id="text_6">
      <!-- 3 -->
      <g transform="translate(294.101117 191.720937) scale(0.1 -0.1)">
       <use xlink:href="#DejaVuSans-33"/>
      </g>
     </g>
    </g>
    <g id="xtick_8">
     <g id="line2d_8">
      <defs>
       <path id="m8fc03ce5e3" d="M 0 0 
L 0 2 
" style="stroke: #000000; stroke-width: 0.6"/>
      </defs>
      <g>
       <use xlink:href="#m8fc03ce5e3" x="15.384142" y="177.1225" style="stroke: #000000; stroke-width: 0.6"/>
      </g>
     </g>
    </g>
    <g id="xtick_9">
     <g id="line2d_9">
      <g>
       <use xlink:href="#m8fc03ce5e3" x="33.571124" y="177.1225" style="stroke: #000000; stroke-width: 0.6"/>
      </g>
     </g>
    </g>
    <g id="xtick_10">
     <g id="line2d_10">
      <g>
       <use xlink:href="#m8fc03ce5e3" x="42.664615" y="177.1225" style="stroke: #000000; stroke-width: 0.6"/>
      </g>
     </g>
    </g>
    <g id="xtick_11">
     <g id="line2d_11">
      <g>
       <use xlink:href="#m8fc03ce5e3" x="51.758107" y="177.1225" style="stroke: #000000; stroke-width: 0.6"/>
      </g>
     </g>
    </g>
    <g id="xtick_12">
     <g id="line2d_12">
      <g>
       <use xlink:href="#m8fc03ce5e3" x="60.851598" y="177.1225" style="stroke: #000000; stroke-width: 0.6"/>
      </g>
     </g>
    </g>
    <g id="xtick_13">
     <g id="line2d_13">
      <g>
       <use xlink:href="#m8fc03ce5e3" x="79.03858" y="177.1225" style="stroke: #000000; stroke-width: 0.6"/>
      </g>
     </g>
    </g>
    <g id="xtick_14">
     <g id="line2d_14">
      <g>
       <use xlink:href="#m8fc03ce5e3" x="88.132071" y="177.1225" style="stroke: #000000; stroke-width: 0.6"/>
      </g>
     </g>
    </g>
    <g id="xtick_15">
     <g id="line2d_15">
      <g>
       <use xlink:href="#m8fc03ce5e3" x="97.225562" y="177.1225" style="stroke: #000000; stroke-width: 0.6"/>
      </g>
     </g>
    </g>
    <g id="xtick_16">
     <g id="line2d_16">
      <g>
       <use xlink:href="#m8fc03ce5e3" x="106.319053" y="177.1225" style="stroke: #000000; stroke-width: 0.6"/>
      </g>
     </g>
    </g>
    <g id="xtick_17">
     <g id="line2d_17">
      <g>
       <use xlink:href="#m8fc03ce5e3" x="124.506036" y="177.1225" style="stroke: #000000; stroke-width: 0.6"/>
      </g>
     </g>
    </g>
    <g id="xtick_18">
     <g id="line2d_18">
      <g>
       <use xlink:href="#m8fc03ce5e3" x="133.599527" y="177.1225" style="stroke: #000000; stroke-width: 0.6"/>
      </g>
     </g>
    </g>
    <g id="xtick_19">
     <g id="line2d_19">
      <g>
       <use xlink:href="#m8fc03ce5e3" x="142.693018" y="177.1225" style="stroke: #000000; stroke-width: 0.6"/>
      </g>
     </g>
    </g>
    <g id="xtick_20">
     <g id="line2d_20">
      <g>
       <use xlink:href="#m8fc03ce5e3" x="151.786509" y="177.1225" style="stroke: #000000; stroke-width: 0.6"/>
      </g>
     </g>
    </g>
    <g id="xtick_21">
     <g id="line2d_21">
      <g>
       <use xlink:href="#m8fc03ce5e3" x="169.973491" y="177.1225" style="stroke: #000000; stroke-width: 0.6"/>
      </g>
     </g>
    </g>
    <g id="xtick_22">
     <g id="line2d_22">
      <g>
       <use xlink:href="#m8fc03ce5e3" x="179.066982" y="177.1225" style="stroke: #000000; stroke-width: 0.6"/>
      </g>
     </g>
    </g>
    <g id="xtick_23">
     <g id="line2d_23">
      <g>
       <use xlink:href="#m8fc03ce5e3" x="188.160473" y="177.1225" style="stroke: #000000; stroke-width: 0.6"/>
      </g>
     </g>
    </g>
    <g id="xtick_24">
     <g id="line2d_24">
      <g>
       <use xlink:href="#m8fc03ce5e3" x="197.253964" y="177.1225" style="stroke: #000000; stroke-width: 0.6"/>
      </g>
     </g>
    </g>
    <g id="xtick_25">
     <g id="line2d_25">
      <g>
       <use xlink:href="#m8fc03ce5e3" x="215.440947" y="177.1225" style="stroke: #000000; stroke-width: 0.6"/>
      </g>
     </g>
    </g>
    <g id="xtick_26">
     <g id="line2d_26">
      <g>
       <use xlink:href="#m8fc03ce5e3" x="224.534438" y="177.1225" style="stroke: #000000; stroke-width: 0.6"/>
      </g>
     </g>
    </g>
    <g id="xtick_27">
     <g id="line2d_27">
      <g>
       <use xlink:href="#m8fc03ce5e3" x="233.627929" y="177.1225" style="stroke: #000000; stroke-width: 0.6"/>
      </g>
     </g>
    </g>
    <g id="xtick_28">
     <g id="line2d_28">
      <g>
       <use xlink:href="#m8fc03ce5e3" x="242.72142" y="177.1225" style="stroke: #000000; stroke-width: 0.6"/>
      </g>
     </g>
    </g>
    <g id="xtick_29">
     <g id="line2d_29">
      <g>
       <use xlink:href="#m8fc03ce5e3" x="260.908402" y="177.1225" style="stroke: #000000; stroke-width: 0.6"/>
      </g>
     </g>
    </g>
    <g id="xtick_30">
     <g id="line2d_30">
      <g>
       <use xlink:href="#m8fc03ce5e3" x="270.001893" y="177.1225" style="stroke: #000000; stroke-width: 0.6"/>
      </g>
     </g>
    </g>
    <g id="xtick_31">
     <g id="line2d_31">
      <g>
       <use xlink:href="#m8fc03ce5e3" x="279.095385" y="177.1225" style="stroke: #000000; stroke-width: 0.6"/>
      </g>
     </g>
    </g>
    <g id="xtick_32">
     <g id="line2d_32">
      <g>
       <use xlink:href="#m8fc03ce5e3" x="288.188876" y="177.1225" style="stroke: #000000; stroke-width: 0.6"/>
      </g>
     </g>
    </g>
    <g id="xtick_33">
     <g id="line2d_33">
      <g>
       <use xlink:href="#m8fc03ce5e3" x="306.375858" y="177.1225" style="stroke: #000000; stroke-width: 0.6"/>
      </g>
     </g>
    </g>
    <g id="text_7">
     <!-- $x$ -->
     <g transform="translate(322.56 177.1225) scale(0.16 -0.16)">
      <defs>
       <path id="Cmmi10-78" d="M 500 184 
Q 613 97 819 97 
Q 1019 97 1172 289 
Q 1325 481 1381 709 
L 1672 1844 
Q 1741 2153 1741 2266 
Q 1741 2425 1652 2544 
Q 1563 2663 1403 2663 
Q 1200 2663 1022 2536 
Q 844 2409 722 2214 
Q 600 2019 550 1819 
Q 538 1778 500 1778 
L 422 1778 
Q 372 1778 372 1838 
L 372 1856 
Q 434 2094 584 2320 
Q 734 2547 951 2687 
Q 1169 2828 1416 2828 
Q 1650 2828 1839 2703 
Q 2028 2578 2106 2363 
Q 2216 2559 2386 2693 
Q 2556 2828 2759 2828 
Q 2897 2828 3040 2779 
Q 3184 2731 3275 2631 
Q 3366 2531 3366 2381 
Q 3366 2219 3261 2101 
Q 3156 1984 2994 1984 
Q 2891 1984 2822 2050 
Q 2753 2116 2753 2216 
Q 2753 2350 2845 2451 
Q 2938 2553 3066 2572 
Q 2950 2663 2747 2663 
Q 2541 2663 2389 2472 
Q 2238 2281 2175 2047 
L 1894 916 
Q 1825 659 1825 494 
Q 1825 331 1917 214 
Q 2009 97 2163 97 
Q 2463 97 2698 361 
Q 2934 625 3009 941 
Q 3022 978 3059 978 
L 3138 978 
Q 3163 978 3178 961 
Q 3194 944 3194 922 
Q 3194 916 3188 903 
Q 3097 522 2806 225 
Q 2516 -72 2150 -72 
Q 1916 -72 1727 54 
Q 1538 181 1459 397 
Q 1359 209 1182 68 
Q 1006 -72 806 -72 
Q 669 -72 523 -23 
Q 378 25 287 125 
Q 197 225 197 378 
Q 197 528 301 651 
Q 406 775 563 775 
Q 669 775 741 711 
Q 813 647 813 544 
Q 813 409 723 309 
Q 634 209 500 184 
z
" transform="scale(0.015625)"/>
      </defs>
      <use xlink:href="#Cmmi10-78" transform="translate(0 0.8125)"/>
     </g>
    </g>
   </g>
   <g id="matplotlib.axis_2">
    <g id="ytick_1">
     <g id="line2d_34">
      <defs>
       <path id="m10fb40af58" d="M 0 0 
L -3.5 0 
" style="stroke: #000000; stroke-width: 0.8"/>
      </defs>
      <g>
       <use xlink:href="#m10fb40af58" x="160.88" y="313.524867" style="stroke: #000000; stroke-width: 0.8"/>
      </g>
     </g>
     <g id="text_8">
      <!-- 3 -->
      <g transform="translate(139.137812 317.324086) scale(0.1 -0.1)">
       <use xlink:href="#DejaVuSans-2212"/>
       <use xlink:href="#DejaVuSans-33" x="83.789062"/>
      </g>
     </g>
    </g>
    <g id="ytick_2">
     <g id="line2d_35">
      <g>
       <use xlink:href="#m10fb40af58" x="160.88" y="268.057411" style="stroke: #000000; stroke-width: 0.8"/>
      </g>
     </g>
     <g id="text_9">
      <!-- 2 -->
      <g transform="translate(139.137812 271.85663) scale(0.1 -0.1)">
       <use xlink:href="#DejaVuSans-2212"/>
       <use xlink:href="#DejaVuSans-32" x="83.789062"/>
      </g>
     </g>
    </g>
    <g id="ytick_3">
     <g id="line2d_36">
      <g>
       <use xlink:href="#m10fb40af58" x="160.88" y="222.589956" style="stroke: #000000; stroke-width: 0.8"/>
      </g>
     </g>
     <g id="text_10">
      <!-- 1 -->
      <g transform="translate(139.137812 226.389174) scale(0.1 -0.1)">
       <use xlink:href="#DejaVuSans-2212"/>
       <use xlink:href="#DejaVuSans-31" x="83.789062"/>
      </g>
     </g>
    </g>
    <g id="ytick_4">
     <g id="line2d_37">
      <g>
       <use xlink:href="#m10fb40af58" x="160.88" y="177.1225" style="stroke: #000000; stroke-width: 0.8"/>
      </g>
     </g>
    </g>
    <g id="ytick_5">
     <g id="line2d_38">
      <g>
       <use xlink:href="#m10fb40af58" x="160.88" y="131.655044" style="stroke: #000000; stroke-width: 0.8"/>
      </g>
     </g>
     <g id="text_11">
      <!-- 1 -->
      <g transform="translate(147.5175 135.454263) scale(0.1 -0.1)">
       <use xlink:href="#DejaVuSans-31"/>
      </g>
     </g>
    </g>
    <g id="ytick_6">
     <g id="line2d_39">
      <g>
       <use xlink:href="#m10fb40af58" x="160.88" y="86.187589" style="stroke: #000000; stroke-width: 0.8"/>
      </g>
     </g>
     <g id="text_12">
      <!-- 2 -->
      <g transform="translate(147.5175 89.986808) scale(0.1 -0.1)">
       <use xlink:href="#DejaVuSans-32"/>
      </g>
     </g>
    </g>
    <g id="ytick_7">
     <g id="line2d_40">
      <g>
       <use xlink:href="#m10fb40af58" x="160.88" y="40.720133" style="stroke: #000000; stroke-width: 0.8"/>
      </g>
     </g>
     <g id="text_13">
      <!-- 3 -->
      <g transform="translate(147.5175 44.519352) scale(0.1 -0.1)">
       <use xlink:href="#DejaVuSans-33"/>
      </g>
     </g>
    </g>
    <g id="ytick_8">
     <g id="line2d_41">
      <defs>
       <path id="mc3e7d891ac" d="M 0 0 
L -2 0 
" style="stroke: #000000; stroke-width: 0.6"/>
      </defs>
      <g>
       <use xlink:href="#mc3e7d891ac" x="160.88" y="322.618358" style="stroke: #000000; stroke-width: 0.6"/>
      </g>
     </g>
    </g>
    <g id="ytick_9">
     <g id="line2d_42">
      <g>
       <use xlink:href="#mc3e7d891ac" x="160.88" y="304.431376" style="stroke: #000000; stroke-width: 0.6"/>
      </g>
     </g>
    </g>
    <g id="ytick_10">
     <g id="line2d_43">
      <g>
       <use xlink:href="#mc3e7d891ac" x="160.88" y="295.337885" style="stroke: #000000; stroke-width: 0.6"/>
      </g>
     </g>
    </g>
    <g id="ytick_11">
     <g id="line2d_44">
      <g>
       <use xlink:href="#mc3e7d891ac" x="160.88" y="286.244393" style="stroke: #000000; stroke-width: 0.6"/>
      </g>
     </g>
    </g>
    <g id="ytick_12">
     <g id="line2d_45">
      <g>
       <use xlink:href="#mc3e7d891ac" x="160.88" y="277.150902" style="stroke: #000000; stroke-width: 0.6"/>
      </g>
     </g>
    </g>
    <g id="ytick_13">
     <g id="line2d_46">
      <g>
       <use xlink:href="#mc3e7d891ac" x="160.88" y="258.96392" style="stroke: #000000; stroke-width: 0.6"/>
      </g>
     </g>
    </g>
    <g id="ytick_14">
     <g id="line2d_47">
      <g>
       <use xlink:href="#mc3e7d891ac" x="160.88" y="249.870429" style="stroke: #000000; stroke-width: 0.6"/>
      </g>
     </g>
    </g>
    <g id="ytick_15">
     <g id="line2d_48">
      <g>
       <use xlink:href="#mc3e7d891ac" x="160.88" y="240.776938" style="stroke: #000000; stroke-width: 0.6"/>
      </g>
     </g>
    </g>
    <g id="ytick_16">
     <g id="line2d_49">
      <g>
       <use xlink:href="#mc3e7d891ac" x="160.88" y="231.683447" style="stroke: #000000; stroke-width: 0.6"/>
      </g>
     </g>
    </g>
    <g id="ytick_17">
     <g id="line2d_50">
      <g>
       <use xlink:href="#mc3e7d891ac" x="160.88" y="213.496464" style="stroke: #000000; stroke-width: 0.6"/>
      </g>
     </g>
    </g>
    <g id="ytick_18">
     <g id="line2d_51">
      <g>
       <use xlink:href="#mc3e7d891ac" x="160.88" y="204.402973" style="stroke: #000000; stroke-width: 0.6"/>
      </g>
     </g>
    </g>
    <g id="ytick_19">
     <g id="line2d_52">
      <g>
       <use xlink:href="#mc3e7d891ac" x="160.88" y="195.309482" style="stroke: #000000; stroke-width: 0.6"/>
      </g>
     </g>
    </g>
    <g id="ytick_20">
     <g id="line2d_53">
      <g>
       <use xlink:href="#mc3e7d891ac" x="160.88" y="186.215991" style="stroke: #000000; stroke-width: 0.6"/>
      </g>
     </g>
    </g>
    <g id="ytick_21">
     <g id="line2d_54">
      <g>
       <use xlink:href="#mc3e7d891ac" x="160.88" y="168.029009" style="stroke: #000000; stroke-width: 0.6"/>
      </g>
     </g>
    </g>
    <g id="ytick_22">
     <g id="line2d_55">
      <g>
       <use xlink:href="#mc3e7d891ac" x="160.88" y="158.935518" style="stroke: #000000; stroke-width: 0.6"/>
      </g>
     </g>
    </g>
    <g id="ytick_23">
     <g id="line2d_56">
      <g>
       <use xlink:href="#mc3e7d891ac" x="160.88" y="149.842027" style="stroke: #000000; stroke-width: 0.6"/>
      </g>
     </g>
    </g>
    <g id="ytick_24">
     <g id="line2d_57">
      <g>
       <use xlink:href="#mc3e7d891ac" x="160.88" y="140.748536" style="stroke: #000000; stroke-width: 0.6"/>
      </g>
     </g>
    </g>
    <g id="ytick_25">
     <g id="line2d_58">
      <g>
       <use xlink:href="#mc3e7d891ac" x="160.88" y="122.561553" style="stroke: #000000; stroke-width: 0.6"/>
      </g>
     </g>
    </g>
    <g id="ytick_26">
     <g id="line2d_59">
      <g>
       <use xlink:href="#mc3e7d891ac" x="160.88" y="113.468062" style="stroke: #000000; stroke-width: 0.6"/>
      </g>
     </g>
    </g>
    <g id="ytick_27">
     <g id="line2d_60">
      <g>
       <use xlink:href="#mc3e7d891ac" x="160.88" y="104.374571" style="stroke: #000000; stroke-width: 0.6"/>
      </g>
     </g>
    </g>
    <g id="ytick_28">
     <g id="line2d_61">
      <g>
       <use xlink:href="#mc3e7d891ac" x="160.88" y="95.28108" style="stroke: #000000; stroke-width: 0.6"/>
      </g>
     </g>
    </g>
    <g id="ytick_29">
     <g id="line2d_62">
      <g>
       <use xlink:href="#mc3e7d891ac" x="160.88" y="77.094098" style="stroke: #000000; stroke-width: 0.6"/>
      </g>
     </g>
    </g>
    <g id="ytick_30">
     <g id="line2d_63">
      <g>
       <use xlink:href="#mc3e7d891ac" x="160.88" y="68.000607" style="stroke: #000000; stroke-width: 0.6"/>
      </g>
     </g>
    </g>
    <g id="ytick_31">
     <g id="line2d_64">
      <g>
       <use xlink:href="#mc3e7d891ac" x="160.88" y="58.907115" style="stroke: #000000; stroke-width: 0.6"/>
      </g>
     </g>
    </g>
    <g id="ytick_32">
     <g id="line2d_65">
      <g>
       <use xlink:href="#mc3e7d891ac" x="160.88" y="49.813624" style="stroke: #000000; stroke-width: 0.6"/>
      </g>
     </g>
    </g>
    <g id="ytick_33">
     <g id="line2d_66">
      <g>
       <use xlink:href="#mc3e7d891ac" x="160.88" y="31.626642" style="stroke: #000000; stroke-width: 0.6"/>
      </g>
     </g>
    </g>
    <g id="text_14">
     <!-- $y$ -->
     <g transform="translate(156.88 12.0825) scale(0.16 -0.16)">
      <defs>
       <path id="Cmmi10-79" d="M 538 -916 
Q 672 -1147 1006 -1147 
Q 1309 -1147 1531 -934 
Q 1753 -722 1889 -420 
Q 2025 -119 2100 197 
Q 1816 -72 1484 -72 
Q 1231 -72 1053 15 
Q 875 103 776 276 
Q 678 450 678 697 
Q 678 906 734 1126 
Q 791 1347 892 1617 
Q 994 1888 1069 2088 
Q 1153 2322 1153 2472 
Q 1153 2663 1013 2663 
Q 759 2663 595 2402 
Q 431 2141 353 1819 
Q 341 1778 300 1778 
L 225 1778 
Q 172 1778 172 1838 
L 172 1856 
Q 275 2238 487 2533 
Q 700 2828 1025 2828 
Q 1253 2828 1411 2678 
Q 1569 2528 1569 2297 
Q 1569 2178 1516 2047 
Q 1488 1969 1388 1706 
Q 1288 1444 1234 1272 
Q 1181 1100 1147 934 
Q 1113 769 1113 603 
Q 1113 391 1203 244 
Q 1294 97 1491 97 
Q 1888 97 2203 581 
L 2688 2553 
Q 2709 2638 2787 2698 
Q 2866 2759 2956 2759 
Q 3034 2759 3092 2709 
Q 3150 2659 3150 2578 
Q 3150 2541 3144 2528 
L 2509 -19 
Q 2425 -347 2200 -647 
Q 1975 -947 1658 -1130 
Q 1341 -1313 997 -1313 
Q 831 -1313 668 -1248 
Q 506 -1184 406 -1056 
Q 306 -928 306 -756 
Q 306 -581 409 -453 
Q 513 -325 684 -325 
Q 788 -325 858 -389 
Q 928 -453 928 -556 
Q 928 -703 818 -812 
Q 709 -922 563 -922 
Q 556 -919 550 -917 
Q 544 -916 538 -916 
z
" transform="scale(0.015625)"/>
      </defs>
      <use xlink:href="#Cmmi10-79" transform="translate(0 0.8125)"/>
     </g>
    </g>
   </g>
   <g id="line2d_67">
    <path d="M 206.347456 245.323683 
L 206.347456 63.453861 
L 206.347456 63.453861 
" clip-path="url(#pfb33c1d044)" style="fill: none; stroke: #ff0000; stroke-width: 2; stroke-linecap: square"/>
   </g>
   <g id="patch_3">
    <path d="M 135.872899 245.323683 
Q 139.282959 245.323683 140.45695 245.323683 
" clip-path="url(#pfb33c1d044)" style="fill: none; stroke: #ff0000; stroke-width: 2; stroke-linecap: round"/>
    <path d="M 130.45695 240.323683 
L 140.45695 245.323683 
L 130.45695 250.323683 
z
" clip-path="url(#pfb33c1d044)" style="fill: #ff0000; stroke: #ff0000; stroke-width: 2; stroke-linecap: round"/>
   </g>
   <g id="line2d_68">
    <path d="M 58.578225 63.453861 
L 206.347456 63.453861 
L 206.347456 63.453861 
" clip-path="url(#pfb33c1d044)" style="fill: none; stroke: #ff0000; stroke-width: 2; stroke-linecap: square"/>
   </g>
   <g id="line2d_69">
    <path d="M 58.578225 245.323683 
L 206.347456 245.323683 
L 206.347456 245.323683 
" clip-path="url(#pfb33c1d044)" style="fill: none; stroke: #ff0000; stroke-width: 2; stroke-linecap: square"/>
   </g>
   <g id="line2d_70">
    <path d="M 58.578225 245.323683 
L 58.578225 63.453861 
L 58.578225 63.453861 
" clip-path="url(#pfb33c1d044)" style="fill: none; stroke: #ff0000; stroke-width: 2; stroke-linecap: square"/>
   </g>
   <g id="line2d_71">
    <path d="M 229.081183 322.618358 
L 229.081183 272.604157 
L 229.081183 272.604157 
" clip-path="url(#pfb33c1d044)" style="fill: none; stroke: #ff0000; stroke-width: 2; stroke-linecap: square"/>
   </g>
   <g id="patch_4">
    <path d="M 174.520237 322.618358 
Q 171.110178 322.618358 169.936186 322.618358 
" clip-path="url(#pfb33c1d044)" style="fill: none; stroke: #ff0000; stroke-width: 2; stroke-linecap: round"/>
    <path d="M 179.936186 327.618358 
L 169.936186 322.618358 
L 179.936186 317.618358 
z
" clip-path="url(#pfb33c1d044)" style="fill: #ff0000; stroke: #ff0000; stroke-width: 2; stroke-linecap: round"/>
   </g>
   <g id="line2d_72">
    <path d="M 81.311953 322.618358 
L 229.081183 322.618358 
L 229.081183 322.618358 
" clip-path="url(#pfb33c1d044)" style="fill: none; stroke: #ff0000; stroke-width: 2; stroke-linecap: square"/>
   </g>
   <g id="line2d_73">
    <path d="M 81.311953 272.604157 
L 229.081183 272.604157 
L 229.081183 272.604157 
" clip-path="url(#pfb33c1d044)" style="fill: none; stroke: #ff0000; stroke-width: 2; stroke-linecap: square"/>
   </g>
   <g id="line2d_74">
    <path d="M 81.311953 322.618358 
L 81.311953 272.604157 
L 81.311953 272.604157 
" clip-path="url(#pfb33c1d044)" style="fill: none; stroke: #ff0000; stroke-width: 2; stroke-linecap: square"/>
   </g>
   <g id="patch_5">
    <path d="M 160.88 330.8025 
L 160.88 23.4425 
" style="fill: none; stroke: #000000; stroke-width: 0.8; stroke-linejoin: miter; stroke-linecap: square"/>
   </g>
   <g id="patch_6">
    <path d="M 7.2 177.1225 
L 314.56 177.1225 
" style="fill: none; stroke: #000000; stroke-width: 0.8; stroke-linejoin: miter; stroke-linecap: square"/>
   </g>
  </g>
 </g>
 <defs>
  <clipPath id="pfb33c1d044">
   <rect x="7.2" y="23.4425" width="307.36" height="307.36"/>
  </clipPath>
 </defs>
</svg>
