<?xml version="1.0" encoding="utf-8" standalone="no"?>
<!DOCTYPE svg PUBLIC "-//W3C//DTD SVG 1.1//EN"
  "http://www.w3.org/Graphics/SVG/1.1/DTD/svg11.dtd">
<svg xmlns:xlink="http://www.w3.org/1999/xlink" width="335.377141pt" height="337.000038pt" viewBox="0 0 335.377141 337.000038" xmlns="http://www.w3.org/2000/svg" version="1.1">
 <metadata>
  <rdf:RDF xmlns:dc="http://purl.org/dc/elements/1.1/" xmlns:cc="http://creativecommons.org/ns#" xmlns:rdf="http://www.w3.org/1999/02/22-rdf-syntax-ns#">
   <cc:Work>
    <dc:type rdf:resource="http://purl.org/dc/dcmitype/StillImage"/>
    <dc:date>2024-12-04T07:51:15.440156</dc:date>
    <dc:format>image/svg+xml</dc:format>
    <dc:creator>
     <cc:Agent>
      <dc:title>Matplotlib v3.6.2, https://matplotlib.org/</dc:title>
     </cc:Agent>
    </dc:creator>
   </cc:Work>
  </rdf:RDF>
 </metadata>
 <defs>
  <style type="text/css">*{stroke-linejoin: round; stroke-linecap: butt}</style>
 </defs>
 <g id="figure_1">
  <g id="patch_1">
   <path d="M 0 337.000038 
L 335.377141 337.000038 
L 335.377141 0 
L 0 0 
z
" style="fill: #ffffff"/>
  </g>
  <g id="axes_1">
   <g id="patch_2">
    <path d="M 8.679603 329.800038 
L 315.037141 329.800038 
L 315.037141 23.4425 
L 8.679603 23.4425 
z
" style="fill: #ffffff"/>
   </g>
   <g id="matplotlib.axis_1">
    <g id="xtick_1">
     <g id="line2d_1">
      <defs>
       <path id="m7a9e9f84d5" d="M 0 0 
L 0 3.5 
" style="stroke: #000000; stroke-width: 0.8"/>
      </defs>
      <g>
       <use xlink:href="#m7a9e9f84d5" x="14.571094" y="176.621269" style="stroke: #000000; stroke-width: 0.8"/>
      </g>
     </g>
     <g id="text_1">
      <!-- −3 -->
      <g transform="translate(7.2 191.219707) scale(0.1 -0.1)">
       <defs>
        <path id="DejaVuSans-2212" d="M 678 2272 
L 4684 2272 
L 4684 1741 
L 678 1741 
L 678 2272 
z
" transform="scale(0.015625)"/>
        <path id="DejaVuSans-33" d="M 2597 2516 
Q 3050 2419 3304 2112 
Q 3559 1806 3559 1356 
Q 3559 666 3084 287 
Q 2609 -91 1734 -91 
Q 1441 -91 1130 -33 
Q 819 25 488 141 
L 488 750 
Q 750 597 1062 519 
Q 1375 441 1716 441 
Q 2309 441 2620 675 
Q 2931 909 2931 1356 
Q 2931 1769 2642 2001 
Q 2353 2234 1838 2234 
L 1294 2234 
L 1294 2753 
L 1863 2753 
Q 2328 2753 2575 2939 
Q 2822 3125 2822 3475 
Q 2822 3834 2567 4026 
Q 2313 4219 1838 4219 
Q 1578 4219 1281 4162 
Q 984 4106 628 3988 
L 628 4550 
Q 988 4650 1302 4700 
Q 1616 4750 1894 4750 
Q 2613 4750 3031 4423 
Q 3450 4097 3450 3541 
Q 3450 3153 3228 2886 
Q 3006 2619 2597 2516 
z
" transform="scale(0.015625)"/>
       </defs>
       <use xlink:href="#DejaVuSans-2212"/>
       <use xlink:href="#DejaVuSans-33" x="83.789062"/>
      </g>
     </g>
    </g>
    <g id="xtick_2">
     <g id="line2d_2">
      <g>
       <use xlink:href="#m7a9e9f84d5" x="63.666853" y="176.621269" style="stroke: #000000; stroke-width: 0.8"/>
      </g>
     </g>
     <g id="text_2">
      <!-- −2 -->
      <g transform="translate(56.295759 191.219707) scale(0.1 -0.1)">
       <defs>
        <path id="DejaVuSans-32" d="M 1228 531 
L 3431 531 
L 3431 0 
L 469 0 
L 469 531 
Q 828 903 1448 1529 
Q 2069 2156 2228 2338 
Q 2531 2678 2651 2914 
Q 2772 3150 2772 3378 
Q 2772 3750 2511 3984 
Q 2250 4219 1831 4219 
Q 1534 4219 1204 4116 
Q 875 4013 500 3803 
L 500 4441 
Q 881 4594 1212 4672 
Q 1544 4750 1819 4750 
Q 2544 4750 2975 4387 
Q 3406 4025 3406 3419 
Q 3406 3131 3298 2873 
Q 3191 2616 2906 2266 
Q 2828 2175 2409 1742 
Q 1991 1309 1228 531 
z
" transform="scale(0.015625)"/>
       </defs>
       <use xlink:href="#DejaVuSans-2212"/>
       <use xlink:href="#DejaVuSans-32" x="83.789062"/>
      </g>
     </g>
    </g>
    <g id="xtick_3">
     <g id="line2d_3">
      <g>
       <use xlink:href="#m7a9e9f84d5" x="112.762612" y="176.621269" style="stroke: #000000; stroke-width: 0.8"/>
      </g>
     </g>
     <g id="text_3">
      <!-- −1 -->
      <g transform="translate(105.391519 191.219707) scale(0.1 -0.1)">
       <defs>
        <path id="DejaVuSans-31" d="M 794 531 
L 1825 531 
L 1825 4091 
L 703 3866 
L 703 4441 
L 1819 4666 
L 2450 4666 
L 2450 531 
L 3481 531 
L 3481 0 
L 794 0 
L 794 531 
z
" transform="scale(0.015625)"/>
       </defs>
       <use xlink:href="#DejaVuSans-2212"/>
       <use xlink:href="#DejaVuSans-31" x="83.789062"/>
      </g>
     </g>
    </g>
    <g id="xtick_4">
     <g id="line2d_4">
      <g>
       <use xlink:href="#m7a9e9f84d5" x="161.858372" y="176.621269" style="stroke: #000000; stroke-width: 0.8"/>
      </g>
     </g>
    </g>
    <g id="xtick_5">
     <g id="line2d_5">
      <g>
       <use xlink:href="#m7a9e9f84d5" x="210.954131" y="176.621269" style="stroke: #000000; stroke-width: 0.8"/>
      </g>
     </g>
     <g id="text_4">
      <!-- 1 -->
      <g transform="translate(207.772881 191.219707) scale(0.1 -0.1)">
       <use xlink:href="#DejaVuSans-31"/>
      </g>
     </g>
    </g>
    <g id="xtick_6">
     <g id="line2d_6">
      <g>
       <use xlink:href="#m7a9e9f84d5" x="260.049891" y="176.621269" style="stroke: #000000; stroke-width: 0.8"/>
      </g>
     </g>
     <g id="text_5">
      <!-- 2 -->
      <g transform="translate(256.868641 191.219707) scale(0.1 -0.1)">
       <use xlink:href="#DejaVuSans-32"/>
      </g>
     </g>
    </g>
    <g id="xtick_7">
     <g id="line2d_7">
      <g>
       <use xlink:href="#m7a9e9f84d5" x="309.14565" y="176.621269" style="stroke: #000000; stroke-width: 0.8"/>
      </g>
     </g>
     <g id="text_6">
      <!-- 3 -->
      <g transform="translate(305.9644 191.219707) scale(0.1 -0.1)">
       <use xlink:href="#DejaVuSans-33"/>
      </g>
     </g>
    </g>
    <g id="xtick_8">
     <g id="line2d_8">
      <defs>
       <path id="m9089bd1c37" d="M 0 0 
L 0 2 
" style="stroke: #000000; stroke-width: 0.6"/>
      </defs>
      <g>
       <use xlink:href="#m9089bd1c37" x="24.390246" y="176.621269" style="stroke: #000000; stroke-width: 0.6"/>
      </g>
     </g>
    </g>
    <g id="xtick_9">
     <g id="line2d_9">
      <g>
       <use xlink:href="#m9089bd1c37" x="34.209397" y="176.621269" style="stroke: #000000; stroke-width: 0.6"/>
      </g>
     </g>
    </g>
    <g id="xtick_10">
     <g id="line2d_10">
      <g>
       <use xlink:href="#m9089bd1c37" x="44.028549" y="176.621269" style="stroke: #000000; stroke-width: 0.6"/>
      </g>
     </g>
    </g>
    <g id="xtick_11">
     <g id="line2d_11">
      <g>
       <use xlink:href="#m9089bd1c37" x="53.847701" y="176.621269" style="stroke: #000000; stroke-width: 0.6"/>
      </g>
     </g>
    </g>
    <g id="xtick_12">
     <g id="line2d_12">
      <g>
       <use xlink:href="#m9089bd1c37" x="73.486005" y="176.621269" style="stroke: #000000; stroke-width: 0.6"/>
      </g>
     </g>
    </g>
    <g id="xtick_13">
     <g id="line2d_13">
      <g>
       <use xlink:href="#m9089bd1c37" x="83.305157" y="176.621269" style="stroke: #000000; stroke-width: 0.6"/>
      </g>
     </g>
    </g>
    <g id="xtick_14">
     <g id="line2d_14">
      <g>
       <use xlink:href="#m9089bd1c37" x="93.124309" y="176.621269" style="stroke: #000000; stroke-width: 0.6"/>
      </g>
     </g>
    </g>
    <g id="xtick_15">
     <g id="line2d_15">
      <g>
       <use xlink:href="#m9089bd1c37" x="102.943461" y="176.621269" style="stroke: #000000; stroke-width: 0.6"/>
      </g>
     </g>
    </g>
    <g id="xtick_16">
     <g id="line2d_16">
      <g>
       <use xlink:href="#m9089bd1c37" x="122.581764" y="176.621269" style="stroke: #000000; stroke-width: 0.6"/>
      </g>
     </g>
    </g>
    <g id="xtick_17">
     <g id="line2d_17">
      <g>
       <use xlink:href="#m9089bd1c37" x="132.400916" y="176.621269" style="stroke: #000000; stroke-width: 0.6"/>
      </g>
     </g>
    </g>
    <g id="xtick_18">
     <g id="line2d_18">
      <g>
       <use xlink:href="#m9089bd1c37" x="142.220068" y="176.621269" style="stroke: #000000; stroke-width: 0.6"/>
      </g>
     </g>
    </g>
    <g id="xtick_19">
     <g id="line2d_19">
      <g>
       <use xlink:href="#m9089bd1c37" x="152.03922" y="176.621269" style="stroke: #000000; stroke-width: 0.6"/>
      </g>
     </g>
    </g>
    <g id="xtick_20">
     <g id="line2d_20">
      <g>
       <use xlink:href="#m9089bd1c37" x="171.677524" y="176.621269" style="stroke: #000000; stroke-width: 0.6"/>
      </g>
     </g>
    </g>
    <g id="xtick_21">
     <g id="line2d_21">
      <g>
       <use xlink:href="#m9089bd1c37" x="181.496676" y="176.621269" style="stroke: #000000; stroke-width: 0.6"/>
      </g>
     </g>
    </g>
    <g id="xtick_22">
     <g id="line2d_22">
      <g>
       <use xlink:href="#m9089bd1c37" x="191.315827" y="176.621269" style="stroke: #000000; stroke-width: 0.6"/>
      </g>
     </g>
    </g>
    <g id="xtick_23">
     <g id="line2d_23">
      <g>
       <use xlink:href="#m9089bd1c37" x="201.134979" y="176.621269" style="stroke: #000000; stroke-width: 0.6"/>
      </g>
     </g>
    </g>
    <g id="xtick_24">
     <g id="line2d_24">
      <g>
       <use xlink:href="#m9089bd1c37" x="220.773283" y="176.621269" style="stroke: #000000; stroke-width: 0.6"/>
      </g>
     </g>
    </g>
    <g id="xtick_25">
     <g id="line2d_25">
      <g>
       <use xlink:href="#m9089bd1c37" x="230.592435" y="176.621269" style="stroke: #000000; stroke-width: 0.6"/>
      </g>
     </g>
    </g>
    <g id="xtick_26">
     <g id="line2d_26">
      <g>
       <use xlink:href="#m9089bd1c37" x="240.411587" y="176.621269" style="stroke: #000000; stroke-width: 0.6"/>
      </g>
     </g>
    </g>
    <g id="xtick_27">
     <g id="line2d_27">
      <g>
       <use xlink:href="#m9089bd1c37" x="250.230739" y="176.621269" style="stroke: #000000; stroke-width: 0.6"/>
      </g>
     </g>
    </g>
    <g id="xtick_28">
     <g id="line2d_28">
      <g>
       <use xlink:href="#m9089bd1c37" x="269.869042" y="176.621269" style="stroke: #000000; stroke-width: 0.6"/>
      </g>
     </g>
    </g>
    <g id="xtick_29">
     <g id="line2d_29">
      <g>
       <use xlink:href="#m9089bd1c37" x="279.688194" y="176.621269" style="stroke: #000000; stroke-width: 0.6"/>
      </g>
     </g>
    </g>
    <g id="xtick_30">
     <g id="line2d_30">
      <g>
       <use xlink:href="#m9089bd1c37" x="289.507346" y="176.621269" style="stroke: #000000; stroke-width: 0.6"/>
      </g>
     </g>
    </g>
    <g id="xtick_31">
     <g id="line2d_31">
      <g>
       <use xlink:href="#m9089bd1c37" x="299.326498" y="176.621269" style="stroke: #000000; stroke-width: 0.6"/>
      </g>
     </g>
    </g>
    <g id="text_7">
     <!-- $x$ -->
     <g transform="translate(323.037141 176.621269) scale(0.16 -0.16)">
      <defs>
       <path id="Cmmi10-78" d="M 500 184 
Q 613 97 819 97 
Q 1019 97 1172 289 
Q 1325 481 1381 709 
L 1672 1844 
Q 1741 2153 1741 2266 
Q 1741 2425 1652 2544 
Q 1563 2663 1403 2663 
Q 1200 2663 1022 2536 
Q 844 2409 722 2214 
Q 600 2019 550 1819 
Q 538 1778 500 1778 
L 422 1778 
Q 372 1778 372 1838 
L 372 1856 
Q 434 2094 584 2320 
Q 734 2547 951 2687 
Q 1169 2828 1416 2828 
Q 1650 2828 1839 2703 
Q 2028 2578 2106 2363 
Q 2216 2559 2386 2693 
Q 2556 2828 2759 2828 
Q 2897 2828 3040 2779 
Q 3184 2731 3275 2631 
Q 3366 2531 3366 2381 
Q 3366 2219 3261 2101 
Q 3156 1984 2994 1984 
Q 2891 1984 2822 2050 
Q 2753 2116 2753 2216 
Q 2753 2350 2845 2451 
Q 2938 2553 3066 2572 
Q 2950 2663 2747 2663 
Q 2541 2663 2389 2472 
Q 2238 2281 2175 2047 
L 1894 916 
Q 1825 659 1825 494 
Q 1825 331 1917 214 
Q 2009 97 2163 97 
Q 2463 97 2698 361 
Q 2934 625 3009 941 
Q 3022 978 3059 978 
L 3138 978 
Q 3163 978 3178 961 
Q 3194 944 3194 922 
Q 3194 916 3188 903 
Q 3097 522 2806 225 
Q 2516 -72 2150 -72 
Q 1916 -72 1727 54 
Q 1538 181 1459 397 
Q 1359 209 1182 68 
Q 1006 -72 806 -72 
Q 669 -72 523 -23 
Q 378 25 287 125 
Q 197 225 197 378 
Q 197 528 301 651 
Q 406 775 563 775 
Q 669 775 741 711 
Q 813 647 813 544 
Q 813 409 723 309 
Q 634 209 500 184 
z
" transform="scale(0.015625)"/>
      </defs>
      <use xlink:href="#Cmmi10-78" transform="translate(0 0.8125)"/>
     </g>
    </g>
   </g>
   <g id="matplotlib.axis_2">
    <g id="ytick_1">
     <g id="line2d_32">
      <defs>
       <path id="m91ceb5ff78" d="M 0 0 
L -3.5 0 
" style="stroke: #000000; stroke-width: 0.8"/>
      </defs>
      <g>
       <use xlink:href="#m91ceb5ff78" x="161.858372" y="323.908547" style="stroke: #000000; stroke-width: 0.8"/>
      </g>
     </g>
     <g id="text_8">
      <!-- −3 -->
      <g transform="translate(140.116184 327.707766) scale(0.1 -0.1)">
       <use xlink:href="#DejaVuSans-2212"/>
       <use xlink:href="#DejaVuSans-33" x="83.789062"/>
      </g>
     </g>
    </g>
    <g id="ytick_2">
     <g id="line2d_33">
      <g>
       <use xlink:href="#m91ceb5ff78" x="161.858372" y="274.812788" style="stroke: #000000; stroke-width: 0.8"/>
      </g>
     </g>
     <g id="text_9">
      <!-- −2 -->
      <g transform="translate(140.116184 278.612007) scale(0.1 -0.1)">
       <use xlink:href="#DejaVuSans-2212"/>
       <use xlink:href="#DejaVuSans-32" x="83.789062"/>
      </g>
     </g>
    </g>
    <g id="ytick_3">
     <g id="line2d_34">
      <g>
       <use xlink:href="#m91ceb5ff78" x="161.858372" y="225.717029" style="stroke: #000000; stroke-width: 0.8"/>
      </g>
     </g>
     <g id="text_10">
      <!-- −1 -->
      <g transform="translate(140.116184 229.516247) scale(0.1 -0.1)">
       <use xlink:href="#DejaVuSans-2212"/>
       <use xlink:href="#DejaVuSans-31" x="83.789062"/>
      </g>
     </g>
    </g>
    <g id="ytick_4">
     <g id="line2d_35">
      <g>
       <use xlink:href="#m91ceb5ff78" x="161.858372" y="176.621269" style="stroke: #000000; stroke-width: 0.8"/>
      </g>
     </g>
    </g>
    <g id="ytick_5">
     <g id="line2d_36">
      <g>
       <use xlink:href="#m91ceb5ff78" x="161.858372" y="127.52551" style="stroke: #000000; stroke-width: 0.8"/>
      </g>
     </g>
     <g id="text_11">
      <!-- 1 -->
      <g transform="translate(148.495872 131.324729) scale(0.1 -0.1)">
       <use xlink:href="#DejaVuSans-31"/>
      </g>
     </g>
    </g>
    <g id="ytick_6">
     <g id="line2d_37">
      <g>
       <use xlink:href="#m91ceb5ff78" x="161.858372" y="78.42975" style="stroke: #000000; stroke-width: 0.8"/>
      </g>
     </g>
     <g id="text_12">
      <!-- 2 -->
      <g transform="translate(148.495872 82.228969) scale(0.1 -0.1)">
       <use xlink:href="#DejaVuSans-32"/>
      </g>
     </g>
    </g>
    <g id="ytick_7">
     <g id="line2d_38">
      <g>
       <use xlink:href="#m91ceb5ff78" x="161.858372" y="29.333991" style="stroke: #000000; stroke-width: 0.8"/>
      </g>
     </g>
     <g id="text_13">
      <!-- 3 -->
      <g transform="translate(148.495872 33.13321) scale(0.1 -0.1)">
       <use xlink:href="#DejaVuSans-33"/>
      </g>
     </g>
    </g>
    <g id="ytick_8">
     <g id="line2d_39">
      <defs>
       <path id="mefcaceacd5" d="M 0 0 
L -2 0 
" style="stroke: #000000; stroke-width: 0.6"/>
      </defs>
      <g>
       <use xlink:href="#mefcaceacd5" x="161.858372" y="314.089395" style="stroke: #000000; stroke-width: 0.6"/>
      </g>
     </g>
    </g>
    <g id="ytick_9">
     <g id="line2d_40">
      <g>
       <use xlink:href="#mefcaceacd5" x="161.858372" y="304.270244" style="stroke: #000000; stroke-width: 0.6"/>
      </g>
     </g>
    </g>
    <g id="ytick_10">
     <g id="line2d_41">
      <g>
       <use xlink:href="#mefcaceacd5" x="161.858372" y="294.451092" style="stroke: #000000; stroke-width: 0.6"/>
      </g>
     </g>
    </g>
    <g id="ytick_11">
     <g id="line2d_42">
      <g>
       <use xlink:href="#mefcaceacd5" x="161.858372" y="284.63194" style="stroke: #000000; stroke-width: 0.6"/>
      </g>
     </g>
    </g>
    <g id="ytick_12">
     <g id="line2d_43">
      <g>
       <use xlink:href="#mefcaceacd5" x="161.858372" y="264.993636" style="stroke: #000000; stroke-width: 0.6"/>
      </g>
     </g>
    </g>
    <g id="ytick_13">
     <g id="line2d_44">
      <g>
       <use xlink:href="#mefcaceacd5" x="161.858372" y="255.174484" style="stroke: #000000; stroke-width: 0.6"/>
      </g>
     </g>
    </g>
    <g id="ytick_14">
     <g id="line2d_45">
      <g>
       <use xlink:href="#mefcaceacd5" x="161.858372" y="245.355332" style="stroke: #000000; stroke-width: 0.6"/>
      </g>
     </g>
    </g>
    <g id="ytick_15">
     <g id="line2d_46">
      <g>
       <use xlink:href="#mefcaceacd5" x="161.858372" y="235.53618" style="stroke: #000000; stroke-width: 0.6"/>
      </g>
     </g>
    </g>
    <g id="ytick_16">
     <g id="line2d_47">
      <g>
       <use xlink:href="#mefcaceacd5" x="161.858372" y="215.897877" style="stroke: #000000; stroke-width: 0.6"/>
      </g>
     </g>
    </g>
    <g id="ytick_17">
     <g id="line2d_48">
      <g>
       <use xlink:href="#mefcaceacd5" x="161.858372" y="206.078725" style="stroke: #000000; stroke-width: 0.6"/>
      </g>
     </g>
    </g>
    <g id="ytick_18">
     <g id="line2d_49">
      <g>
       <use xlink:href="#mefcaceacd5" x="161.858372" y="196.259573" style="stroke: #000000; stroke-width: 0.6"/>
      </g>
     </g>
    </g>
    <g id="ytick_19">
     <g id="line2d_50">
      <g>
       <use xlink:href="#mefcaceacd5" x="161.858372" y="186.440421" style="stroke: #000000; stroke-width: 0.6"/>
      </g>
     </g>
    </g>
    <g id="ytick_20">
     <g id="line2d_51">
      <g>
       <use xlink:href="#mefcaceacd5" x="161.858372" y="166.802117" style="stroke: #000000; stroke-width: 0.6"/>
      </g>
     </g>
    </g>
    <g id="ytick_21">
     <g id="line2d_52">
      <g>
       <use xlink:href="#mefcaceacd5" x="161.858372" y="156.982965" style="stroke: #000000; stroke-width: 0.6"/>
      </g>
     </g>
    </g>
    <g id="ytick_22">
     <g id="line2d_53">
      <g>
       <use xlink:href="#mefcaceacd5" x="161.858372" y="147.163814" style="stroke: #000000; stroke-width: 0.6"/>
      </g>
     </g>
    </g>
    <g id="ytick_23">
     <g id="line2d_54">
      <g>
       <use xlink:href="#mefcaceacd5" x="161.858372" y="137.344662" style="stroke: #000000; stroke-width: 0.6"/>
      </g>
     </g>
    </g>
    <g id="ytick_24">
     <g id="line2d_55">
      <g>
       <use xlink:href="#mefcaceacd5" x="161.858372" y="117.706358" style="stroke: #000000; stroke-width: 0.6"/>
      </g>
     </g>
    </g>
    <g id="ytick_25">
     <g id="line2d_56">
      <g>
       <use xlink:href="#mefcaceacd5" x="161.858372" y="107.887206" style="stroke: #000000; stroke-width: 0.6"/>
      </g>
     </g>
    </g>
    <g id="ytick_26">
     <g id="line2d_57">
      <g>
       <use xlink:href="#mefcaceacd5" x="161.858372" y="98.068054" style="stroke: #000000; stroke-width: 0.6"/>
      </g>
     </g>
    </g>
    <g id="ytick_27">
     <g id="line2d_58">
      <g>
       <use xlink:href="#mefcaceacd5" x="161.858372" y="88.248902" style="stroke: #000000; stroke-width: 0.6"/>
      </g>
     </g>
    </g>
    <g id="ytick_28">
     <g id="line2d_59">
      <g>
       <use xlink:href="#mefcaceacd5" x="161.858372" y="68.610599" style="stroke: #000000; stroke-width: 0.6"/>
      </g>
     </g>
    </g>
    <g id="ytick_29">
     <g id="line2d_60">
      <g>
       <use xlink:href="#mefcaceacd5" x="161.858372" y="58.791447" style="stroke: #000000; stroke-width: 0.6"/>
      </g>
     </g>
    </g>
    <g id="ytick_30">
     <g id="line2d_61">
      <g>
       <use xlink:href="#mefcaceacd5" x="161.858372" y="48.972295" style="stroke: #000000; stroke-width: 0.6"/>
      </g>
     </g>
    </g>
    <g id="ytick_31">
     <g id="line2d_62">
      <g>
       <use xlink:href="#mefcaceacd5" x="161.858372" y="39.153143" style="stroke: #000000; stroke-width: 0.6"/>
      </g>
     </g>
    </g>
    <g id="text_14">
     <!-- $y$ -->
     <g transform="translate(157.858372 12.0825) scale(0.16 -0.16)">
      <defs>
       <path id="Cmmi10-79" d="M 538 -916 
Q 672 -1147 1006 -1147 
Q 1309 -1147 1531 -934 
Q 1753 -722 1889 -420 
Q 2025 -119 2100 197 
Q 1816 -72 1484 -72 
Q 1231 -72 1053 15 
Q 875 103 776 276 
Q 678 450 678 697 
Q 678 906 734 1126 
Q 791 1347 892 1617 
Q 994 1888 1069 2088 
Q 1153 2322 1153 2472 
Q 1153 2663 1013 2663 
Q 759 2663 595 2402 
Q 431 2141 353 1819 
Q 341 1778 300 1778 
L 225 1778 
Q 172 1778 172 1838 
L 172 1856 
Q 275 2238 487 2533 
Q 700 2828 1025 2828 
Q 1253 2828 1411 2678 
Q 1569 2528 1569 2297 
Q 1569 2178 1516 2047 
Q 1488 1969 1388 1706 
Q 1288 1444 1234 1272 
Q 1181 1100 1147 934 
Q 1113 769 1113 603 
Q 1113 391 1203 244 
Q 1294 97 1491 97 
Q 1888 97 2203 581 
L 2688 2553 
Q 2709 2638 2787 2698 
Q 2866 2759 2956 2759 
Q 3034 2759 3092 2709 
Q 3150 2659 3150 2578 
Q 3150 2541 3144 2528 
L 2509 -19 
Q 2425 -347 2200 -647 
Q 1975 -947 1658 -1130 
Q 1341 -1313 997 -1313 
Q 831 -1313 668 -1248 
Q 506 -1184 406 -1056 
Q 306 -928 306 -756 
Q 306 -581 409 -453 
Q 513 -325 684 -325 
Q 788 -325 858 -389 
Q 928 -453 928 -556 
Q 928 -703 818 -812 
Q 709 -922 563 -922 
Q 556 -919 550 -917 
Q 544 -916 538 -916 
z
" transform="scale(0.015625)"/>
      </defs>
      <use xlink:href="#Cmmi10-79" transform="translate(0 0.8125)"/>
     </g>
    </g>
   </g>
   <g id="PathCollection_1"/>
   <g id="PathCollection_2">
    <path d="M 231.782635 288.604296 
L 229.804828 288.202541 
L 228.807135 287.982435 
L 225.831634 287.088511 
L 222.856133 285.934733 
L 221.374218 285.22704 
L 219.880633 284.435621 
L 216.905132 282.535367 
L 216.525201 282.251539 
L 213.929632 280.056524 
L 213.13181 279.276039 
L 210.954131 276.819802 
L 210.548588 276.300538 
L 208.560352 273.325038 
L 207.978631 272.28267 
L 207.008655 270.349537 
L 205.795042 267.374037 
L 205.00313 264.892038 
L 204.859008 264.398536 
L 204.209186 261.423035 
L 203.777177 258.447535 
L 203.554853 255.472034 
L 203.538091 252.496534 
L 203.72658 249.521033 
L 204.123813 246.545533 
L 204.73724 243.570032 
L 205.00313 242.620263 
L 205.622319 240.594531 
L 206.790739 237.619031 
L 207.978631 235.180691 
L 208.26949 234.64353 
L 210.197146 231.66803 
L 210.954131 230.675545 
L 212.669784 228.692529 
L 213.929632 227.432681 
L 215.912647 225.717029 
L 216.905132 224.960043 
L 219.880633 223.032387 
L 220.417794 222.741528 
L 222.856133 221.553637 
L 225.831634 220.385216 
L 227.857366 219.766027 
L 228.807135 219.500138 
L 231.782635 218.88671 
L 234.758136 218.489477 
L 237.733636 218.300988 
L 240.709137 218.317751 
L 243.684637 218.540074 
L 246.660138 218.972083 
L 249.635639 219.621906 
L 250.129141 219.766027 
L 252.611139 220.557939 
L 255.58664 221.771553 
L 257.519773 222.741528 
L 258.56214 223.32325 
L 261.537641 225.311485 
L 262.056904 225.717029 
L 264.513141 227.894708 
L 265.293627 228.692529 
L 267.488642 231.288098 
L 267.772469 231.66803 
L 269.672723 234.64353 
L 270.464143 236.137115 
L 271.171836 237.619031 
L 272.325614 240.594531 
L 273.219538 243.570032 
L 273.439643 244.567726 
L 273.841399 246.545533 
L 274.234227 249.521033 
L 274.420627 252.496534 
L 274.40405 255.472034 
L 274.184191 258.447535 
L 273.756972 261.423035 
L 273.439643 262.900878 
L 273.090165 264.398536 
L 272.155056 267.374037 
L 270.956651 270.349537 
L 270.464143 271.350863 
L 269.385996 273.325038 
L 267.488642 276.207995 
L 267.419958 276.300538 
L 264.839094 279.276039 
L 264.513141 279.601991 
L 261.537641 282.182855 
L 261.445098 282.251539 
L 258.56214 284.148893 
L 256.587965 285.22704 
L 255.58664 285.719548 
L 252.611139 286.917953 
L 249.635639 287.853063 
L 248.13798 288.202541 
L 246.660138 288.519869 
L 243.684637 288.947088 
L 240.709137 289.166947 
L 237.733636 289.183524 
L 234.758136 288.997124 
L 231.782635 288.604296 
" clip-path="url(#p87f304f4ce)" style="fill: none; stroke: #0000ff; stroke-width: 1.5"/>
    <path d="M 74.081105 133.620633 
L 73.587603 133.476511 
L 71.105605 132.684599 
L 68.130104 131.470986 
L 66.196971 130.50101 
L 65.154603 129.919289 
L 62.179103 127.931053 
L 61.659839 127.52551 
L 59.203602 125.347831 
L 58.423117 124.550009 
L 56.228102 121.954441 
L 55.944275 121.574509 
L 54.04402 118.599008 
L 53.252601 117.105423 
L 52.544908 115.623508 
L 51.39113 112.648007 
L 50.497206 109.672506 
L 50.277101 108.674813 
L 49.875345 106.697006 
L 49.482517 103.721505 
L 49.296117 100.746005 
L 49.312694 97.770504 
L 49.532553 94.795004 
L 49.959772 91.819503 
L 50.277101 90.341661 
L 50.626578 88.844002 
L 51.561688 85.868502 
L 52.760093 82.893001 
L 53.252601 81.891676 
L 54.330748 79.917501 
L 56.228102 77.034543 
L 56.296786 76.942 
L 58.87765 73.9665 
L 59.203602 73.640547 
L 62.179103 71.059683 
L 62.271646 70.990999 
L 65.154603 69.093645 
L 67.128778 68.015499 
L 68.130104 67.52299 
L 71.105605 66.324585 
L 74.081105 65.389476 
L 75.578764 65.039998 
L 77.056606 64.722669 
L 80.032106 64.29545 
L 83.007607 64.075591 
L 85.983107 64.059015 
L 88.958608 64.245414 
L 91.934109 64.638243 
L 93.911915 65.039998 
L 94.909609 65.260103 
L 97.88511 66.154027 
L 100.86061 67.307805 
L 102.342526 68.015499 
L 103.836111 68.806918 
L 106.811611 70.707172 
L 107.191543 70.990999 
L 109.787112 73.186014 
L 110.584933 73.9665 
L 112.762612 76.422737 
L 113.168156 76.942 
L 115.156392 79.917501 
L 115.738113 80.959868 
L 116.708089 82.893001 
L 117.921702 85.868502 
L 118.713614 88.3505 
L 118.857735 88.844002 
L 119.507558 91.819503 
L 119.939567 94.795004 
L 120.16189 97.770504 
L 120.178653 100.746005 
L 119.990164 103.721505 
L 119.592931 106.697006 
L 118.979503 109.672506 
L 118.713614 110.622275 
L 118.094425 112.648007 
L 116.926005 115.623508 
L 115.738113 118.061847 
L 115.447254 118.599008 
L 113.519598 121.574509 
L 112.762612 122.566994 
L 111.04696 124.550009 
L 109.787112 125.809857 
L 107.804097 127.52551 
L 106.811611 128.282495 
L 103.836111 130.210151 
L 103.29895 130.50101 
L 100.86061 131.688902 
L 97.88511 132.857322 
L 95.859378 133.476511 
L 94.909609 133.742401 
L 91.934109 134.355828 
L 88.958608 134.753061 
L 85.983107 134.94155 
L 83.007607 134.924788 
L 80.032106 134.702464 
L 77.056606 134.270455 
L 74.081105 133.620633 
z
" clip-path="url(#p87f304f4ce)" style="fill: none; stroke: #0000ff; stroke-width: 1.5"/>
   </g>
   <g id="PathCollection_3">
    <path d="M 222.856133 303.53095 
L 219.880633 302.828088 
L 216.905132 301.949802 
L 213.929632 300.893689 
L 210.954131 299.612745 
L 207.978631 298.048649 
L 205.00313 296.143638 
L 202.02763 293.801882 
L 199.052129 290.844264 
L 196.076628 286.991704 
L 194.957338 285.22704 
L 193.101128 281.75462 
L 192.02092 279.276039 
L 190.925976 276.300538 
L 190.018216 273.325038 
L 189.296871 270.349537 
L 188.715339 267.374037 
L 188.261572 264.398536 
L 187.92655 261.423035 
L 187.589203 255.472034 
L 187.677738 249.521033 
L 187.882535 246.545533 
L 188.198793 243.570032 
L 188.632575 240.594531 
L 189.192452 237.619031 
L 190.125627 233.802416 
L 190.764757 231.66803 
L 191.828082 228.692529 
L 193.101128 225.707533 
L 194.672533 222.741528 
L 196.568475 219.766027 
L 199.052129 216.63222 
L 202.02763 213.674297 
L 205.720355 210.839526 
L 207.978631 209.43543 
L 210.954131 207.859411 
L 213.929632 206.590979 
L 216.905132 205.527655 
L 219.880633 204.652834 
L 222.856133 203.955349 
L 225.831634 203.395472 
L 228.807135 202.961691 
L 234.758136 202.440635 
L 240.709137 202.3521 
L 246.660138 202.689447 
L 249.635639 203.024469 
L 252.611139 203.478236 
L 255.58664 204.059769 
L 258.93559 204.888525 
L 261.537641 205.688873 
L 264.513141 206.783817 
L 267.488642 208.099101 
L 270.464143 209.720236 
L 273.439643 211.687425 
L 276.415144 214.115664 
L 279.390644 217.197291 
L 281.380741 219.766027 
L 283.285751 222.741528 
L 285.341645 226.803486 
L 286.130791 228.692529 
L 287.186905 231.66803 
L 288.317146 235.668632 
L 288.768052 237.619031 
L 289.324605 240.594531 
L 289.755811 243.570032 
L 290.273773 249.521033 
L 290.361783 255.472034 
L 290.026438 261.423035 
L 289.693406 264.398536 
L 289.242332 267.374037 
L 288.317146 271.807289 
L 287.932667 273.325038 
L 287.02678 276.300538 
L 285.341645 280.675516 
L 284.611793 282.251539 
L 282.366145 286.251302 
L 281.027788 288.202541 
L 278.593728 291.178041 
L 275.512087 294.153542 
L 273.439643 295.790685 
L 270.464143 297.766036 
L 265.912618 300.104543 
L 264.513141 300.702158 
L 261.537641 301.789677 
L 257.044391 303.080043 
L 255.58664 303.42715 
L 252.611139 304.00523 
L 249.635639 304.456303 
L 243.684637 305.01074 
L 237.733636 305.133271 
L 231.782635 304.833089 
L 228.807135 304.518709 
L 225.831634 304.087503 
L 222.856133 303.53095 
L 222.856133 303.53095 
" clip-path="url(#p87f304f4ce)" style="fill: none; stroke: #0000ff; stroke-width: 1.5"/>
    <path d="M 65.154603 148.461426 
L 64.781154 148.354014 
L 62.179103 147.553666 
L 59.203602 146.458721 
L 56.725021 145.378513 
L 56.228102 145.143438 
L 53.252601 143.522303 
L 51.487937 142.403013 
L 50.277101 141.555113 
L 47.635377 139.427512 
L 47.3016 139.126874 
L 44.677759 136.452012 
L 44.326099 136.045247 
L 42.336003 133.476511 
L 41.350599 132.009488 
L 40.430992 130.50101 
L 38.866896 127.52551 
L 38.375098 126.439053 
L 37.585953 124.550009 
L 36.529839 121.574509 
L 35.651553 118.599008 
L 35.399598 117.573907 
L 34.948691 115.623508 
L 34.392138 112.648007 
L 33.960932 109.672506 
L 33.646552 106.697006 
L 33.442971 103.721505 
L 33.34637 100.746005 
L 33.354961 97.770504 
L 33.468901 94.795004 
L 33.690305 91.819503 
L 34.023338 88.844002 
L 34.474411 85.868502 
L 35.052491 82.893001 
L 35.399598 81.43525 
L 35.784077 79.917501 
L 36.689964 76.942 
L 37.777483 73.9665 
L 38.375098 72.567023 
L 39.10495 70.990999 
L 40.713605 68.015499 
L 41.350599 66.991237 
L 42.688956 65.039998 
L 44.326099 62.967554 
L 45.123015 62.064497 
L 47.3016 59.885913 
L 48.204657 59.088997 
L 50.277101 57.451854 
L 52.228339 56.113496 
L 53.252601 55.476502 
L 56.228102 53.867848 
L 57.804125 53.137996 
L 59.203602 52.54038 
L 62.179103 51.452861 
L 65.154603 50.546974 
L 66.672353 50.162495 
L 68.130104 49.815389 
L 71.105605 49.237309 
L 74.081105 48.786236 
L 77.056606 48.453203 
L 80.032106 48.231799 
L 83.007607 48.117858 
L 85.983107 48.109268 
L 88.958608 48.205868 
L 91.934109 48.409449 
L 94.909609 48.72383 
L 97.88511 49.155036 
L 100.86061 49.711589 
L 102.811009 50.162495 
L 103.836111 50.414451 
L 106.811611 51.292736 
L 109.787112 52.34885 
L 111.676155 53.137996 
L 112.762612 53.629793 
L 115.738113 55.19389 
L 117.246591 56.113496 
L 118.713614 57.0989 
L 121.28235 59.088997 
L 121.689114 59.440656 
L 124.363977 62.064497 
L 124.664615 62.398274 
L 126.792216 65.039998 
L 127.640115 66.250834 
L 128.759405 68.015499 
L 130.38054 70.990999 
L 130.615616 71.487919 
L 131.695824 73.9665 
L 132.790768 76.942 
L 133.591116 79.544051 
L 133.698528 79.917501 
L 134.419872 82.893001 
L 135.001405 85.868502 
L 135.455172 88.844002 
L 135.790194 91.819503 
L 136.01292 94.795004 
L 136.127541 97.770504 
L 136.136183 100.746005 
L 136.039006 103.721505 
L 135.834209 106.697006 
L 135.517951 109.672506 
L 135.084169 112.648007 
L 134.524292 115.623508 
L 133.826807 118.599008 
L 133.591116 119.440122 
L 132.951987 121.574509 
L 131.888662 124.550009 
L 130.62023 127.52551 
L 130.615616 127.535005 
L 129.044211 130.50101 
L 127.640115 132.759287 
L 127.148269 133.476511 
L 124.805344 136.452012 
L 124.664615 136.610319 
L 121.847421 139.427512 
L 121.689114 139.568241 
L 118.713614 141.911166 
L 117.996389 142.403013 
L 115.738113 143.807108 
L 112.772108 145.378513 
L 112.762612 145.383128 
L 109.787112 146.651559 
L 106.811611 147.714884 
L 104.677225 148.354014 
L 103.836111 148.589704 
L 100.86061 149.287189 
L 97.88511 149.847067 
L 94.909609 150.280848 
L 91.934109 150.597106 
L 88.958608 150.801903 
L 85.983107 150.89908 
L 83.007607 150.890438 
L 80.032106 150.775817 
L 77.056606 150.553091 
L 74.081105 150.218069 
L 71.105605 149.764302 
L 68.130104 149.18277 
L 65.154603 148.461426 
z
" clip-path="url(#p87f304f4ce)" style="fill: none; stroke: #0000ff; stroke-width: 1.5"/>
   </g>
   <g id="PathCollection_4">
    <path d="M 225.831634 317.985397 
L 219.880633 317.424458 
L 213.929632 316.588434 
L 207.978631 315.396989 
L 205.00313 314.621541 
L 202.02763 313.688722 
L 197.746051 312.006545 
L 196.076628 311.211425 
L 192.322171 309.031044 
L 190.125627 307.427394 
L 188.520244 306.055544 
L 187.150127 304.717499 
L 185.687483 303.080043 
L 183.494346 300.104543 
L 181.199126 296.016419 
L 180.351222 294.153542 
L 179.197994 291.178041 
L 178.223625 288.165117 
L 177.441461 285.22704 
L 176.212153 279.276039 
L 175.347997 273.325038 
L 174.772634 267.374037 
L 174.425313 261.423035 
L 174.276772 255.472034 
L 174.315756 249.521033 
L 174.545188 243.570032 
L 174.982717 237.619031 
L 175.67129 231.66803 
L 176.675268 225.717029 
L 177.324206 222.741528 
L 178.223625 219.328194 
L 179.028309 216.790527 
L 180.147617 213.815026 
L 181.503089 210.839526 
L 183.184687 207.864025 
L 185.290608 204.888525 
L 187.998816 201.913024 
L 190.125627 200.053506 
L 193.101128 197.947584 
L 196.696811 195.962023 
L 199.052129 194.910515 
L 202.02763 193.791206 
L 205.00313 192.857645 
L 207.978631 192.087103 
L 213.929632 190.892021 
L 220.276865 190.011022 
L 225.831634 189.499088 
L 231.782635 189.16883 
L 237.733636 189.035864 
L 243.684637 189.09014 
L 249.635639 189.335728 
L 255.58664 189.791592 
L 261.537641 190.503603 
L 267.488642 191.536934 
L 270.464143 192.204358 
L 273.439643 192.997199 
L 276.415144 193.960891 
L 279.390644 195.114119 
L 282.366145 196.518756 
L 286.342052 198.937523 
L 288.317146 200.45038 
L 289.954601 201.913024 
L 291.292647 203.283141 
L 292.664497 204.888525 
L 294.77435 207.864025 
L 296.448527 210.839526 
L 297.810673 213.815026 
L 298.925825 216.790527 
L 300.219148 221.099471 
L 301.281054 225.717029 
L 302.281976 231.66803 
L 302.972979 237.619031 
L 303.413045 243.570032 
L 303.641926 249.521033 
L 303.680816 255.472034 
L 303.532632 261.423035 
L 303.186004 267.374037 
L 302.604285 273.325038 
L 301.74276 279.276039 
L 300.517194 285.22704 
L 299.716884 288.202541 
L 298.75677 291.178041 
L 297.243648 294.976313 
L 296.196873 297.129042 
L 294.268147 300.40295 
L 292.269667 303.080043 
L 291.292647 304.199167 
L 288.317146 307.032564 
L 285.341645 309.228955 
L 282.366145 310.95977 
L 279.390644 312.370721 
L 276.415144 313.519667 
L 271.62031 314.982046 
L 267.488642 315.945484 
L 261.537641 316.97567 
L 255.58664 317.689254 
L 249.635639 318.148366 
L 243.684637 318.393365 
L 237.733636 318.44751 
L 231.782635 318.314863 
L 225.831634 317.985397 
L 225.831634 317.985397 
" clip-path="url(#p87f304f4ce)" style="fill: none; stroke: #0000ff; stroke-width: 1.5"/>
    <path d="M 68.130104 163.450946 
L 66.059669 163.231517 
L 65.154603 163.131644 
L 62.179103 162.738935 
L 59.203602 162.267488 
L 56.228102 161.705605 
L 53.252601 161.03818 
L 50.314524 160.256016 
L 50.277101 160.24534 
L 47.3016 159.281647 
L 44.326099 158.128419 
L 42.463222 157.280516 
L 41.350599 156.723782 
L 38.375098 154.985295 
L 37.374692 154.305015 
L 35.399598 152.792158 
L 33.762142 151.329514 
L 32.424097 149.959398 
L 31.052247 148.354014 
L 29.448597 146.15747 
L 28.942393 145.378513 
L 27.268217 142.403013 
L 26.473096 140.73359 
L 25.906071 139.427512 
L 24.790919 136.452012 
L 23.8581 133.476511 
L 23.497595 132.143067 
L 23.082652 130.50101 
L 22.43569 127.52551 
L 21.891207 124.550009 
L 21.434767 121.574509 
L 21.055183 118.599008 
L 20.743765 115.623508 
L 20.522095 112.990573 
L 20.494244 112.648007 
L 20.303699 109.672506 
L 20.164778 106.697006 
L 20.074818 103.721505 
L 20.032131 100.746005 
L 20.035927 97.770504 
L 20.086276 94.795004 
L 20.184112 91.819503 
L 20.331275 88.844002 
L 20.522095 85.99361 
L 20.530739 85.868502 
L 20.790387 82.893001 
L 21.112458 79.917501 
L 21.503971 76.942 
L 21.973984 73.9665 
L 22.534157 70.990999 
L 23.19955 68.015499 
L 23.497595 66.859331 
L 23.99986 65.039998 
L 24.959974 62.064497 
L 26.10892 59.088997 
L 26.473096 58.266225 
L 27.519871 56.113496 
L 29.250686 53.137996 
L 29.448597 52.839589 
L 31.447077 50.162495 
L 32.424097 49.043372 
L 34.280474 47.186995 
L 35.399598 46.209974 
L 38.076691 44.211494 
L 38.375098 44.013583 
L 41.350599 42.282768 
L 43.503328 41.235993 
L 44.326099 40.871818 
L 47.3016 39.722871 
L 50.277101 38.762757 
L 52.096434 38.260493 
L 53.252601 37.962447 
L 56.228102 37.297054 
L 59.203602 36.736881 
L 62.179103 36.266869 
L 65.154603 35.875356 
L 68.130104 35.553284 
L 71.105605 35.293637 
L 71.230713 35.284992 
L 74.081105 35.094173 
L 77.056606 34.947009 
L 80.032106 34.849174 
L 83.007607 34.798825 
L 85.983107 34.795028 
L 88.958608 34.837715 
L 91.934109 34.927675 
L 94.909609 35.066596 
L 97.88511 35.257141 
L 98.227676 35.284992 
L 100.86061 35.506662 
L 103.836111 35.818081 
L 106.811611 36.197665 
L 109.787112 36.654104 
L 112.762612 37.198587 
L 115.738113 37.845549 
L 117.38017 38.260493 
L 118.713614 38.620997 
L 121.689114 39.553816 
L 124.664615 40.668969 
L 125.970692 41.235993 
L 127.640115 42.031114 
L 130.615616 43.705291 
L 131.394573 44.211494 
L 133.591116 45.815144 
L 135.1965 47.186995 
L 136.566617 48.52504 
L 138.029261 50.162495 
L 139.542118 52.137589 
L 140.222398 53.137996 
L 141.960885 56.113496 
L 142.517618 57.226119 
L 143.365522 59.088997 
L 144.51875 62.064497 
L 145.482442 65.039998 
L 145.493119 65.077422 
L 146.275283 68.015499 
L 146.942707 70.990999 
L 147.504591 73.9665 
L 147.976038 76.942 
L 148.368746 79.917501 
L 148.468619 80.822566 
L 148.688049 82.893001 
L 148.94411 85.868502 
L 149.143913 88.844002 
L 149.29143 91.819503 
L 149.389502 94.795004 
L 149.439972 97.770504 
L 149.443777 100.746005 
L 149.400988 103.721505 
L 149.310811 106.697006 
L 149.171556 109.672506 
L 148.980553 112.648007 
L 148.734027 115.623508 
L 148.468619 118.202776 
L 148.426196 118.599008 
L 148.045453 121.574509 
L 147.587621 124.550009 
L 147.041475 127.52551 
L 146.392538 130.50101 
L 145.621996 133.476511 
L 145.493119 133.914345 
L 144.688435 136.452012 
L 143.569127 139.427512 
L 142.517618 141.78283 
L 142.213654 142.403013 
L 140.532057 145.378513 
L 139.542118 146.864262 
L 138.426136 148.354014 
L 136.566617 150.480825 
L 135.717928 151.329514 
L 133.591116 153.189033 
L 132.101365 154.305015 
L 130.615616 155.294954 
L 127.640115 156.976552 
L 127.019932 157.280516 
L 124.664615 158.332024 
L 121.689114 159.451332 
L 119.151448 160.256016 
L 118.713614 160.384894 
L 115.738113 161.155435 
L 112.762612 161.804373 
L 109.787112 162.350518 
L 106.811611 162.808351 
L 103.836111 163.189094 
L 103.439879 163.231517 
L 100.86061 163.496924 
L 97.88511 163.74345 
L 94.909609 163.934453 
L 91.934109 164.073709 
L 88.958608 164.163885 
L 85.983107 164.206674 
L 83.007607 164.202869 
L 80.032106 164.152399 
L 77.056606 164.054328 
L 74.081105 163.906811 
L 71.105605 163.707007 
L 68.130104 163.450946 
z
" clip-path="url(#p87f304f4ce)" style="fill: none; stroke: #0000ff; stroke-width: 1.5"/>
   </g>
   <g id="PathCollection_5">
    <path d="M 161.858372 323.908547 
L 161.858372 320.933047 
L 161.858372 317.957546 
L 161.858372 314.982046 
L 161.858372 312.006545 
L 161.858372 309.031044 
L 161.858372 306.055544 
L 161.858372 303.080043 
L 161.858372 300.104543 
L 161.858372 297.129042 
L 161.858372 294.153542 
L 161.858372 291.178041 
L 161.858372 288.202541 
L 161.858372 285.22704 
L 161.858372 282.251539 
L 161.858372 279.276039 
L 161.858372 276.300538 
L 161.858372 273.325038 
L 161.858372 270.349537 
L 161.858372 267.374037 
L 161.858372 264.398536 
L 161.858372 261.423035 
L 161.858372 258.447535 
L 161.858372 255.472034 
L 161.858372 252.496534 
L 161.858372 249.521033 
L 161.858372 246.545533 
L 161.858372 243.570032 
L 161.858372 240.594531 
L 161.858372 237.619031 
L 161.858372 234.64353 
L 161.858372 231.66803 
L 161.858372 228.692529 
L 161.858372 225.717029 
L 161.858372 222.741528 
L 161.858372 219.766027 
L 161.858372 216.790527 
L 161.858372 213.815026 
L 161.858372 210.839526 
L 161.858372 207.864025 
L 161.858372 204.888525 
L 161.858372 201.913024 
L 161.858372 198.937523 
L 161.858372 195.962023 
L 161.858372 192.986522 
L 161.858372 190.011022 
L 161.858372 187.035521 
L 161.858372 184.060021 
L 161.858372 181.08452 
L 161.858372 178.10902 
L 163.346122 176.621269 
L 166.321623 176.621269 
L 169.297123 176.621269 
L 172.272624 176.621269 
L 175.248124 176.621269 
L 178.223625 176.621269 
L 181.199126 176.621269 
L 184.174626 176.621269 
L 187.150127 176.621269 
L 190.125627 176.621269 
L 193.101128 176.621269 
L 196.076628 176.621269 
L 199.052129 176.621269 
L 202.02763 176.621269 
L 205.00313 176.621269 
L 207.978631 176.621269 
L 210.954131 176.621269 
L 213.929632 176.621269 
L 216.905132 176.621269 
L 219.880633 176.621269 
L 222.856133 176.621269 
L 225.831634 176.621269 
L 228.807135 176.621269 
L 231.782635 176.621269 
L 234.758136 176.621269 
L 237.733636 176.621269 
L 240.709137 176.621269 
L 243.684637 176.621269 
L 246.660138 176.621269 
L 249.635639 176.621269 
L 252.611139 176.621269 
L 255.58664 176.621269 
L 258.56214 176.621269 
L 261.537641 176.621269 
L 264.513141 176.621269 
L 267.488642 176.621269 
L 270.464143 176.621269 
L 273.439643 176.621269 
L 276.415144 176.621269 
L 279.390644 176.621269 
L 282.366145 176.621269 
L 285.341645 176.621269 
L 288.317146 176.621269 
L 291.292647 176.621269 
L 294.268147 176.621269 
L 297.243648 176.621269 
L 300.219148 176.621269 
L 303.194649 176.621269 
L 306.170149 176.621269 
L 309.14565 176.621269 
" clip-path="url(#p87f304f4ce)" style="fill: none; stroke: #0000ff; stroke-width: 1.5"/>
    <path d="M 161.858372 29.333991 
L 161.858372 32.309492 
L 161.858372 35.284992 
L 161.858372 38.260493 
L 161.858372 41.235993 
L 161.858372 44.211494 
L 161.858372 47.186995 
L 161.858372 50.162495 
L 161.858372 53.137996 
L 161.858372 56.113496 
L 161.858372 59.088997 
L 161.858372 62.064497 
L 161.858372 65.039998 
L 161.858372 68.015499 
L 161.858372 70.990999 
L 161.858372 73.9665 
L 161.858372 76.942 
L 161.858372 79.917501 
L 161.858372 82.893001 
L 161.858372 85.868502 
L 161.858372 88.844002 
L 161.858372 91.819503 
L 161.858372 94.795004 
L 161.858372 97.770504 
L 161.858372 100.746005 
L 161.858372 103.721505 
L 161.858372 106.697006 
L 161.858372 109.672506 
L 161.858372 112.648007 
L 161.858372 115.623508 
L 161.858372 118.599008 
L 161.858372 121.574509 
L 161.858372 124.550009 
L 161.858372 127.52551 
L 161.858372 130.50101 
L 161.858372 133.476511 
L 161.858372 136.452012 
L 161.858372 139.427512 
L 161.858372 142.403013 
L 161.858372 145.378513 
L 161.858372 148.354014 
L 161.858372 151.329514 
L 161.858372 154.305015 
L 161.858372 157.280516 
L 161.858372 160.256016 
L 161.858372 163.231517 
L 161.858372 166.207017 
L 161.858372 169.182518 
L 161.858372 172.158018 
L 161.858372 175.133519 
L 160.370622 176.621269 
L 157.395121 176.621269 
L 154.41962 176.621269 
L 151.44412 176.621269 
L 148.468619 176.621269 
L 145.493119 176.621269 
L 142.517618 176.621269 
L 139.542118 176.621269 
L 136.566617 176.621269 
L 133.591116 176.621269 
L 130.615616 176.621269 
L 127.640115 176.621269 
L 124.664615 176.621269 
L 121.689114 176.621269 
L 118.713614 176.621269 
L 115.738113 176.621269 
L 112.762612 176.621269 
L 109.787112 176.621269 
L 106.811611 176.621269 
L 103.836111 176.621269 
L 100.86061 176.621269 
L 97.88511 176.621269 
L 94.909609 176.621269 
L 91.934109 176.621269 
L 88.958608 176.621269 
L 85.983107 176.621269 
L 83.007607 176.621269 
L 80.032106 176.621269 
L 77.056606 176.621269 
L 74.081105 176.621269 
L 71.105605 176.621269 
L 68.130104 176.621269 
L 65.154603 176.621269 
L 62.179103 176.621269 
L 59.203602 176.621269 
L 56.228102 176.621269 
L 53.252601 176.621269 
L 50.277101 176.621269 
L 47.3016 176.621269 
L 44.326099 176.621269 
L 41.350599 176.621269 
L 38.375098 176.621269 
L 35.399598 176.621269 
L 32.424097 176.621269 
L 29.448597 176.621269 
L 26.473096 176.621269 
L 23.497595 176.621269 
L 20.522095 176.621269 
L 17.546594 176.621269 
L 14.571094 176.621269 
" clip-path="url(#p87f304f4ce)" style="fill: none; stroke: #0000ff; stroke-width: 1.5"/>
   </g>
   <g id="PathCollection_6">
    <path d="M 74.081105 318.148366 
L 77.056606 318.295529 
L 80.032106 318.393365 
L 83.007607 318.443714 
L 85.983107 318.44751 
L 88.958608 318.404823 
L 91.934109 318.314863 
L 94.909609 318.175942 
L 97.88511 317.985397 
L 98.227676 317.957546 
L 100.86061 317.735876 
L 103.836111 317.424458 
L 106.811611 317.044874 
L 109.787112 316.588434 
L 112.762612 316.043952 
L 115.738113 315.396989 
L 117.38017 314.982046 
L 118.713614 314.621541 
L 121.689114 313.688722 
L 124.664615 312.57357 
L 125.970692 312.006545 
L 127.640115 311.211425 
L 130.615616 309.537248 
L 131.394573 309.031044 
L 133.591116 307.427394 
L 135.1965 306.055544 
L 136.566617 304.717499 
L 138.029261 303.080043 
L 139.542118 301.104949 
L 140.222398 300.104543 
L 141.960885 297.129042 
L 142.517618 296.016419 
L 143.365522 294.153542 
L 144.51875 291.178041 
L 145.482442 288.202541 
L 145.493119 288.165117 
L 146.275283 285.22704 
L 146.942707 282.251539 
L 147.504591 279.276039 
L 147.976038 276.300538 
L 148.368746 273.325038 
L 148.468619 272.419972 
L 148.688049 270.349537 
L 148.94411 267.374037 
L 149.143913 264.398536 
L 149.29143 261.423035 
L 149.389502 258.447535 
L 149.439972 255.472034 
L 149.443777 252.496534 
L 149.400988 249.521033 
L 149.310811 246.545533 
L 149.171556 243.570032 
L 148.980553 240.594531 
L 148.734027 237.619031 
L 148.468619 235.039762 
L 148.426196 234.64353 
L 148.045453 231.66803 
L 147.587621 228.692529 
L 147.041475 225.717029 
L 146.392538 222.741528 
L 145.621996 219.766027 
L 145.493119 219.328194 
L 144.688435 216.790527 
L 143.569127 213.815026 
L 142.517618 211.459709 
L 142.213654 210.839526 
L 140.532057 207.864025 
L 139.542118 206.378276 
L 138.426136 204.888525 
L 136.566617 202.761713 
L 135.717928 201.913024 
L 133.591116 200.053506 
L 132.101365 198.937523 
L 130.615616 197.947584 
L 127.640115 196.265987 
L 127.019932 195.962023 
L 124.664615 194.910515 
L 121.689114 193.791206 
L 119.151448 192.986522 
L 118.713614 192.857645 
L 115.738113 192.087103 
L 112.762612 191.438166 
L 109.787112 190.892021 
L 106.811611 190.434188 
L 103.836111 190.053445 
L 103.439879 190.011022 
L 100.86061 189.745614 
L 97.88511 189.499088 
L 94.909609 189.308085 
L 91.934109 189.16883 
L 88.958608 189.078653 
L 85.983107 189.035864 
L 83.007607 189.039669 
L 80.032106 189.09014 
L 77.056606 189.188211 
L 74.081105 189.335728 
L 71.105605 189.535531 
L 68.130104 189.791592 
L 66.059669 190.011022 
L 65.154603 190.110895 
L 62.179103 190.503603 
L 59.203602 190.97505 
L 56.228102 191.536934 
L 53.252601 192.204358 
L 50.314524 192.986522 
L 50.277101 192.997199 
L 47.3016 193.960891 
L 44.326099 195.114119 
L 42.463222 195.962023 
L 41.350599 196.518756 
L 38.375098 198.257243 
L 37.374692 198.937523 
L 35.399598 200.45038 
L 33.762142 201.913024 
L 32.424097 203.283141 
L 31.052247 204.888525 
L 29.448597 207.085069 
L 28.942393 207.864025 
L 27.268217 210.839526 
L 26.473096 212.508949 
L 25.906071 213.815026 
L 24.790919 216.790527 
L 23.8581 219.766027 
L 23.497595 221.099471 
L 23.082652 222.741528 
L 22.43569 225.717029 
L 21.891207 228.692529 
L 21.434767 231.66803 
L 21.055183 234.64353 
L 20.743765 237.619031 
L 20.522095 240.251965 
L 20.494244 240.594531 
L 20.303699 243.570032 
L 20.164778 246.545533 
L 20.074818 249.521033 
L 20.032131 252.496534 
L 20.035927 255.472034 
L 20.086276 258.447535 
L 20.184112 261.423035 
L 20.331275 264.398536 
L 20.522095 267.248928 
L 20.530739 267.374037 
L 20.790387 270.349537 
L 21.112458 273.325038 
L 21.503971 276.300538 
L 21.973984 279.276039 
L 22.534157 282.251539 
L 23.19955 285.22704 
L 23.497595 286.383207 
L 23.99986 288.202541 
L 24.959974 291.178041 
L 26.10892 294.153542 
L 26.473096 294.976313 
L 27.519871 297.129042 
L 29.250686 300.104543 
L 29.448597 300.40295 
L 31.447077 303.080043 
L 32.424097 304.199167 
L 34.280474 306.055544 
L 35.399598 307.032564 
L 38.076691 309.031044 
L 38.375098 309.228955 
L 41.350599 310.95977 
L 43.503328 312.006545 
L 44.326099 312.370721 
L 47.3016 313.519667 
L 50.277101 314.479781 
L 52.096434 314.982046 
L 53.252601 315.280091 
L 56.228102 315.945484 
L 59.203602 316.505657 
L 62.179103 316.97567 
L 65.154603 317.367183 
L 68.130104 317.689254 
L 71.105605 317.948902 
L 71.230713 317.957546 
L 74.081105 318.148366 
z
" clip-path="url(#p87f304f4ce)" style="fill: none; stroke: #0000ff; stroke-width: 1.5"/>
    <path d="M 222.856133 163.496924 
L 225.831634 163.74345 
L 228.807135 163.934453 
L 231.782635 164.073709 
L 234.758136 164.163885 
L 237.733636 164.206674 
L 240.709137 164.202869 
L 243.684637 164.152399 
L 246.660138 164.054328 
L 249.635639 163.906811 
L 252.611139 163.707007 
L 255.58664 163.450946 
L 257.657075 163.231517 
L 258.56214 163.131644 
L 261.537641 162.738935 
L 264.513141 162.267488 
L 267.488642 161.705605 
L 270.464143 161.03818 
L 273.40222 160.256016 
L 273.439643 160.24534 
L 276.415144 159.281647 
L 279.390644 158.128419 
L 281.253522 157.280516 
L 282.366145 156.723782 
L 285.341645 154.985295 
L 286.342052 154.305015 
L 288.317146 152.792158 
L 289.954601 151.329514 
L 291.292647 149.959398 
L 292.664497 148.354014 
L 294.268147 146.15747 
L 294.77435 145.378513 
L 296.448527 142.403013 
L 297.243648 140.73359 
L 297.810673 139.427512 
L 298.925825 136.452012 
L 299.858644 133.476511 
L 300.219148 132.143067 
L 300.634092 130.50101 
L 301.281054 127.52551 
L 301.825537 124.550009 
L 302.281976 121.574509 
L 302.66156 118.599008 
L 302.972979 115.623508 
L 303.194649 112.990573 
L 303.2225 112.648007 
L 303.413045 109.672506 
L 303.551966 106.697006 
L 303.641926 103.721505 
L 303.684613 100.746005 
L 303.680816 97.770504 
L 303.630467 94.795004 
L 303.532632 91.819503 
L 303.385468 88.844002 
L 303.194649 85.99361 
L 303.186004 85.868502 
L 302.926357 82.893001 
L 302.604285 79.917501 
L 302.212772 76.942 
L 301.74276 73.9665 
L 301.182587 70.990999 
L 300.517194 68.015499 
L 300.219148 66.859331 
L 299.716884 65.039998 
L 298.75677 62.064497 
L 297.607824 59.088997 
L 297.243648 58.266225 
L 296.196873 56.113496 
L 294.466058 53.137996 
L 294.268147 52.839589 
L 292.269667 50.162495 
L 291.292647 49.043372 
L 289.43627 47.186995 
L 288.317146 46.209974 
L 285.640053 44.211494 
L 285.341645 44.013583 
L 282.366145 42.282768 
L 280.213416 41.235993 
L 279.390644 40.871818 
L 276.415144 39.722871 
L 273.439643 38.762757 
L 271.62031 38.260493 
L 270.464143 37.962447 
L 267.488642 37.297054 
L 264.513141 36.736881 
L 261.537641 36.266869 
L 258.56214 35.875356 
L 255.58664 35.553284 
L 252.611139 35.293637 
L 252.486031 35.284992 
L 249.635639 35.094173 
L 246.660138 34.947009 
L 243.684637 34.849174 
L 240.709137 34.798825 
L 237.733636 34.795028 
L 234.758136 34.837715 
L 231.782635 34.927675 
L 228.807135 35.066596 
L 225.831634 35.257141 
L 225.489068 35.284992 
L 222.856133 35.506662 
L 219.880633 35.818081 
L 216.905132 36.197665 
L 213.929632 36.654104 
L 210.954131 37.198587 
L 207.978631 37.845549 
L 206.336574 38.260493 
L 205.00313 38.620997 
L 202.02763 39.553816 
L 199.052129 40.668969 
L 197.746051 41.235993 
L 196.076628 42.031114 
L 193.101128 43.705291 
L 192.322171 44.211494 
L 190.125627 45.815144 
L 188.520244 47.186995 
L 187.150127 48.52504 
L 185.687483 50.162495 
L 184.174626 52.137589 
L 183.494346 53.137996 
L 181.755859 56.113496 
L 181.199126 57.226119 
L 180.351222 59.088997 
L 179.197994 62.064497 
L 178.234302 65.039998 
L 178.223625 65.077422 
L 177.441461 68.015499 
L 176.774036 70.990999 
L 176.212153 73.9665 
L 175.740706 76.942 
L 175.347997 79.917501 
L 175.248124 80.822566 
L 175.028695 82.893001 
L 174.772634 85.868502 
L 174.57283 88.844002 
L 174.425313 91.819503 
L 174.327242 94.795004 
L 174.276772 97.770504 
L 174.272967 100.746005 
L 174.315756 103.721505 
L 174.405932 106.697006 
L 174.545188 109.672506 
L 174.736191 112.648007 
L 174.982717 115.623508 
L 175.248124 118.202776 
L 175.290547 118.599008 
L 175.67129 121.574509 
L 176.129123 124.550009 
L 176.675268 127.52551 
L 177.324206 130.50101 
L 178.094747 133.476511 
L 178.223625 133.914345 
L 179.028309 136.452012 
L 180.147617 139.427512 
L 181.199126 141.78283 
L 181.503089 142.403013 
L 183.184687 145.378513 
L 184.174626 146.864262 
L 185.290608 148.354014 
L 187.150127 150.480825 
L 187.998816 151.329514 
L 190.125627 153.189033 
L 191.615379 154.305015 
L 193.101128 155.294954 
L 196.076628 156.976552 
L 196.696811 157.280516 
L 199.052129 158.332024 
L 202.02763 159.451332 
L 204.565296 160.256016 
L 205.00313 160.384894 
L 207.978631 161.155435 
L 210.954131 161.804373 
L 213.929632 162.350518 
L 216.905132 162.808351 
L 219.880633 163.189094 
L 220.276865 163.231517 
L 222.856133 163.496924 
z
" clip-path="url(#p87f304f4ce)" style="fill: none; stroke: #0000ff; stroke-width: 1.5"/>
   </g>
   <g id="PathCollection_7">
    <path d="M 68.130104 303.42715 
L 71.105605 304.00523 
L 74.081105 304.456303 
L 77.056606 304.789336 
L 80.032106 305.01074 
L 83.007607 305.12468 
L 85.983107 305.133271 
L 88.958608 305.03667 
L 91.934109 304.833089 
L 94.909609 304.518709 
L 97.88511 304.087503 
L 100.86061 303.53095 
L 102.811009 303.080043 
L 103.836111 302.828088 
L 106.811611 301.949802 
L 109.787112 300.893689 
L 111.676155 300.104543 
L 112.762612 299.612745 
L 115.738113 298.048649 
L 117.246591 297.129042 
L 118.713614 296.143638 
L 121.28235 294.153542 
L 121.689114 293.801882 
L 124.363977 291.178041 
L 124.664615 290.844264 
L 126.792216 288.202541 
L 127.640115 286.991704 
L 128.759405 285.22704 
L 130.38054 282.251539 
L 130.615616 281.75462 
L 131.695824 279.276039 
L 132.790768 276.300538 
L 133.591116 273.698487 
L 133.698528 273.325038 
L 134.419872 270.349537 
L 135.001405 267.374037 
L 135.455172 264.398536 
L 135.790194 261.423035 
L 136.01292 258.447535 
L 136.127541 255.472034 
L 136.136183 252.496534 
L 136.039006 249.521033 
L 135.834209 246.545533 
L 135.517951 243.570032 
L 135.084169 240.594531 
L 134.524292 237.619031 
L 133.826807 234.64353 
L 133.591116 233.802416 
L 132.951987 231.66803 
L 131.888662 228.692529 
L 130.62023 225.717029 
L 130.615616 225.707533 
L 129.044211 222.741528 
L 127.640115 220.483252 
L 127.148269 219.766027 
L 124.805344 216.790527 
L 124.664615 216.63222 
L 121.847421 213.815026 
L 121.689114 213.674297 
L 118.713614 211.331373 
L 117.996389 210.839526 
L 115.738113 209.43543 
L 112.772108 207.864025 
L 112.762612 207.859411 
L 109.787112 206.590979 
L 106.811611 205.527655 
L 104.677225 204.888525 
L 103.836111 204.652834 
L 100.86061 203.955349 
L 97.88511 203.395472 
L 94.909609 202.961691 
L 91.934109 202.645432 
L 88.958608 202.440635 
L 85.983107 202.343458 
L 83.007607 202.3521 
L 80.032106 202.466721 
L 77.056606 202.689447 
L 74.081105 203.024469 
L 71.105605 203.478236 
L 68.130104 204.059769 
L 65.154603 204.781113 
L 64.781154 204.888525 
L 62.179103 205.688873 
L 59.203602 206.783817 
L 56.725021 207.864025 
L 56.228102 208.099101 
L 53.252601 209.720236 
L 51.487937 210.839526 
L 50.277101 211.687425 
L 47.635377 213.815026 
L 47.3016 214.115664 
L 44.677759 216.790527 
L 44.326099 217.197291 
L 42.336003 219.766027 
L 41.350599 221.233051 
L 40.430992 222.741528 
L 38.866896 225.717029 
L 38.375098 226.803486 
L 37.585953 228.692529 
L 36.529839 231.66803 
L 35.651553 234.64353 
L 35.399598 235.668632 
L 34.948691 237.619031 
L 34.392138 240.594531 
L 33.960932 243.570032 
L 33.646552 246.545533 
L 33.442971 249.521033 
L 33.34637 252.496534 
L 33.354961 255.472034 
L 33.468901 258.447535 
L 33.690305 261.423035 
L 34.023338 264.398536 
L 34.474411 267.374037 
L 35.052491 270.349537 
L 35.399598 271.807289 
L 35.784077 273.325038 
L 36.689964 276.300538 
L 37.777483 279.276039 
L 38.375098 280.675516 
L 39.10495 282.251539 
L 40.713605 285.22704 
L 41.350599 286.251302 
L 42.688956 288.202541 
L 44.326099 290.274984 
L 45.123015 291.178041 
L 47.3016 293.356626 
L 48.204657 294.153542 
L 50.277101 295.790685 
L 52.228339 297.129042 
L 53.252601 297.766036 
L 56.228102 299.374691 
L 57.804125 300.104543 
L 59.203602 300.702158 
L 62.179103 301.789677 
L 65.154603 302.695564 
L 66.672353 303.080043 
L 68.130104 303.42715 
z
" clip-path="url(#p87f304f4ce)" style="fill: none; stroke: #0000ff; stroke-width: 1.5"/>
    <path d="M 219.880633 148.589704 
L 222.856133 149.287189 
L 225.831634 149.847067 
L 228.807135 150.280848 
L 231.782635 150.597106 
L 234.758136 150.801903 
L 237.733636 150.89908 
L 240.709137 150.890438 
L 243.684637 150.775817 
L 246.660138 150.553091 
L 249.635639 150.218069 
L 252.611139 149.764302 
L 255.58664 149.18277 
L 258.56214 148.461426 
L 258.93559 148.354014 
L 261.537641 147.553666 
L 264.513141 146.458721 
L 266.991722 145.378513 
L 267.488642 145.143438 
L 270.464143 143.522303 
L 272.228807 142.403013 
L 273.439643 141.555113 
L 276.081367 139.427512 
L 276.415144 139.126874 
L 279.038985 136.452012 
L 279.390644 136.045247 
L 281.380741 133.476511 
L 282.366145 132.009488 
L 283.285751 130.50101 
L 284.849848 127.52551 
L 285.341645 126.439053 
L 286.130791 124.550009 
L 287.186905 121.574509 
L 288.06519 118.599008 
L 288.317146 117.573907 
L 288.768052 115.623508 
L 289.324605 112.648007 
L 289.755811 109.672506 
L 290.070192 106.697006 
L 290.273773 103.721505 
L 290.370374 100.746005 
L 290.361783 97.770504 
L 290.247842 94.795004 
L 290.026438 91.819503 
L 289.693406 88.844002 
L 289.242332 85.868502 
L 288.664252 82.893001 
L 288.317146 81.43525 
L 287.932667 79.917501 
L 287.02678 76.942 
L 285.939261 73.9665 
L 285.341645 72.567023 
L 284.611793 70.990999 
L 283.003139 68.015499 
L 282.366145 66.991237 
L 281.027788 65.039998 
L 279.390644 62.967554 
L 278.593728 62.064497 
L 276.415144 59.885913 
L 275.512087 59.088997 
L 273.439643 57.451854 
L 271.488404 56.113496 
L 270.464143 55.476502 
L 267.488642 53.867848 
L 265.912618 53.137996 
L 264.513141 52.54038 
L 261.537641 51.452861 
L 258.56214 50.546974 
L 257.044391 50.162495 
L 255.58664 49.815389 
L 252.611139 49.237309 
L 249.635639 48.786236 
L 246.660138 48.453203 
L 243.684637 48.231799 
L 240.709137 48.117858 
L 237.733636 48.109268 
L 234.758136 48.205868 
L 231.782635 48.409449 
L 228.807135 48.72383 
L 225.831634 49.155036 
L 222.856133 49.711589 
L 220.905734 50.162495 
L 219.880633 50.414451 
L 216.905132 51.292736 
L 213.929632 52.34885 
L 212.040588 53.137996 
L 210.954131 53.629793 
L 207.978631 55.19389 
L 206.470153 56.113496 
L 205.00313 57.0989 
L 202.434394 59.088997 
L 202.02763 59.440656 
L 199.352767 62.064497 
L 199.052129 62.398274 
L 196.924528 65.039998 
L 196.076628 66.250834 
L 194.957338 68.015499 
L 193.336203 70.990999 
L 193.101128 71.487919 
L 192.02092 73.9665 
L 190.925976 76.942 
L 190.125627 79.544051 
L 190.018216 79.917501 
L 189.296871 82.893001 
L 188.715339 85.868502 
L 188.261572 88.844002 
L 187.92655 91.819503 
L 187.703824 94.795004 
L 187.589203 97.770504 
L 187.580561 100.746005 
L 187.677738 103.721505 
L 187.882535 106.697006 
L 188.198793 109.672506 
L 188.632575 112.648007 
L 189.192452 115.623508 
L 189.889937 118.599008 
L 190.125627 119.440122 
L 190.764757 121.574509 
L 191.828082 124.550009 
L 193.096514 127.52551 
L 193.101128 127.535005 
L 194.672533 130.50101 
L 196.076628 132.759287 
L 196.568475 133.476511 
L 198.9114 136.452012 
L 199.052129 136.610319 
L 201.869323 139.427512 
L 202.02763 139.568241 
L 205.00313 141.911166 
L 205.720355 142.403013 
L 207.978631 143.807108 
L 210.944636 145.378513 
L 210.954131 145.383128 
L 213.929632 146.651559 
L 216.905132 147.714884 
L 219.039519 148.354014 
L 219.880633 148.589704 
z
" clip-path="url(#p87f304f4ce)" style="fill: none; stroke: #0000ff; stroke-width: 1.5"/>
   </g>
   <g id="PathCollection_8">
    <path d="M 77.056606 288.519869 
L 80.032106 288.947088 
L 83.007607 289.166947 
L 85.983107 289.183524 
L 88.958608 288.997124 
L 91.934109 288.604296 
L 93.911915 288.202541 
L 94.909609 287.982435 
L 97.88511 287.088511 
L 100.86061 285.934733 
L 102.342526 285.22704 
L 103.836111 284.435621 
L 106.811611 282.535367 
L 107.191543 282.251539 
L 109.787112 280.056524 
L 110.584933 279.276039 
L 112.762612 276.819802 
L 113.168156 276.300538 
L 115.156392 273.325038 
L 115.738113 272.28267 
L 116.708089 270.349537 
L 117.921702 267.374037 
L 118.713614 264.892038 
L 118.857735 264.398536 
L 119.507558 261.423035 
L 119.939567 258.447535 
L 120.16189 255.472034 
L 120.178653 252.496534 
L 119.990164 249.521033 
L 119.592931 246.545533 
L 118.979503 243.570032 
L 118.713614 242.620263 
L 118.094425 240.594531 
L 116.926005 237.619031 
L 115.738113 235.180691 
L 115.447254 234.64353 
L 113.519598 231.66803 
L 112.762612 230.675545 
L 111.04696 228.692529 
L 109.787112 227.432681 
L 107.804097 225.717029 
L 106.811611 224.960043 
L 103.836111 223.032387 
L 103.29895 222.741528 
L 100.86061 221.553637 
L 97.88511 220.385216 
L 95.859378 219.766027 
L 94.909609 219.500138 
L 91.934109 218.88671 
L 88.958608 218.489477 
L 85.983107 218.300988 
L 83.007607 218.317751 
L 80.032106 218.540074 
L 77.056606 218.972083 
L 74.081105 219.621906 
L 73.587603 219.766027 
L 71.105605 220.557939 
L 68.130104 221.771553 
L 66.196971 222.741528 
L 65.154603 223.32325 
L 62.179103 225.311485 
L 61.659839 225.717029 
L 59.203602 227.894708 
L 58.423117 228.692529 
L 56.228102 231.288098 
L 55.944275 231.66803 
L 54.04402 234.64353 
L 53.252601 236.137115 
L 52.544908 237.619031 
L 51.39113 240.594531 
L 50.497206 243.570032 
L 50.277101 244.567726 
L 49.875345 246.545533 
L 49.482517 249.521033 
L 49.296117 252.496534 
L 49.312694 255.472034 
L 49.532553 258.447535 
L 49.959772 261.423035 
L 50.277101 262.900878 
L 50.626578 264.398536 
L 51.561688 267.374037 
L 52.760093 270.349537 
L 53.252601 271.350863 
L 54.330748 273.325038 
L 56.228102 276.207995 
L 56.296786 276.300538 
L 58.87765 279.276039 
L 59.203602 279.601991 
L 62.179103 282.182855 
L 62.271646 282.251539 
L 65.154603 284.148893 
L 67.128778 285.22704 
L 68.130104 285.719548 
L 71.105605 286.917953 
L 74.081105 287.853063 
L 75.578764 288.202541 
L 77.056606 288.519869 
z
" clip-path="url(#p87f304f4ce)" style="fill: none; stroke: #0000ff; stroke-width: 1.5"/>
    <path d="M 228.807135 133.742401 
L 231.782635 134.355828 
L 234.758136 134.753061 
L 237.733636 134.94155 
L 240.709137 134.924788 
L 243.684637 134.702464 
L 246.660138 134.270455 
L 249.635639 133.620633 
L 250.129141 133.476511 
L 252.611139 132.684599 
L 255.58664 131.470986 
L 257.519773 130.50101 
L 258.56214 129.919289 
L 261.537641 127.931053 
L 262.056904 127.52551 
L 264.513141 125.347831 
L 265.293627 124.550009 
L 267.488642 121.954441 
L 267.772469 121.574509 
L 269.672723 118.599008 
L 270.464143 117.105423 
L 271.171836 115.623508 
L 272.325614 112.648007 
L 273.219538 109.672506 
L 273.439643 108.674813 
L 273.841399 106.697006 
L 274.234227 103.721505 
L 274.420627 100.746005 
L 274.40405 97.770504 
L 274.184191 94.795004 
L 273.756972 91.819503 
L 273.439643 90.341661 
L 273.090165 88.844002 
L 272.155056 85.868502 
L 270.956651 82.893001 
L 270.464143 81.891676 
L 269.385996 79.917501 
L 267.488642 77.034543 
L 267.419958 76.942 
L 264.839094 73.9665 
L 264.513141 73.640547 
L 261.537641 71.059683 
L 261.445098 70.990999 
L 258.56214 69.093645 
L 256.587965 68.015499 
L 255.58664 67.52299 
L 252.611139 66.324585 
L 249.635639 65.389476 
L 248.13798 65.039998 
L 246.660138 64.722669 
L 243.684637 64.29545 
L 240.709137 64.075591 
L 237.733636 64.059015 
L 234.758136 64.245414 
L 231.782635 64.638243 
L 229.804828 65.039998 
L 228.807135 65.260103 
L 225.831634 66.154027 
L 222.856133 67.307805 
L 221.374218 68.015499 
L 219.880633 68.806918 
L 216.905132 70.707172 
L 216.525201 70.990999 
L 213.929632 73.186014 
L 213.13181 73.9665 
L 210.954131 76.422737 
L 210.548588 76.942 
L 208.560352 79.917501 
L 207.978631 80.959868 
L 207.008655 82.893001 
L 205.795042 85.868502 
L 205.00313 88.3505 
L 204.859008 88.844002 
L 204.209186 91.819503 
L 203.777177 94.795004 
L 203.554853 97.770504 
L 203.538091 100.746005 
L 203.72658 103.721505 
L 204.123813 106.697006 
L 204.73724 109.672506 
L 205.00313 110.622275 
L 205.622319 112.648007 
L 206.790739 115.623508 
L 207.978631 118.061847 
L 208.26949 118.599008 
L 210.197146 121.574509 
L 210.954131 122.566994 
L 212.669784 124.550009 
L 213.929632 125.809857 
L 215.912647 127.52551 
L 216.905132 128.282495 
L 219.880633 130.210151 
L 220.417794 130.50101 
L 222.856133 131.688902 
L 225.831634 132.857322 
L 227.857366 133.476511 
L 228.807135 133.742401 
z
" clip-path="url(#p87f304f4ce)" style="fill: none; stroke: #0000ff; stroke-width: 1.5"/>
   </g>
   <g id="PathCollection_9"/>
   <g id="patch_3">
    <path d="M 161.858372 329.800038 
L 161.858372 23.4425 
" style="fill: none; stroke: #000000; stroke-width: 0.8; stroke-linejoin: miter; stroke-linecap: square"/>
   </g>
   <g id="patch_4">
    <path d="M 8.679603 176.621269 
L 315.037141 176.621269 
" style="fill: none; stroke: #000000; stroke-width: 0.8; stroke-linejoin: miter; stroke-linecap: square"/>
   </g>
   <g id="text_15">
    <g clip-path="url(#p87f304f4ce)">
     <!-- -1 -->
     <g transform="translate(214.781255 284.977604) rotate(-337.101529) scale(0.09 -0.09)">
      <defs>
       <path id="DejaVuSans-2d" d="M 313 2009 
L 1997 2009 
L 1997 1497 
L 313 1497 
L 313 2009 
z
" transform="scale(0.015625)"/>
      </defs>
      <use xlink:href="#DejaVuSans-2d"/>
      <use xlink:href="#DejaVuSans-31" x="36.083984"/>
     </g>
    </g>
   </g>
   <g id="text_16">
    <g clip-path="url(#p87f304f4ce)">
     <!-- -1 -->
     <g transform="translate(57.051299 127.876015) rotate(-330.419722) scale(0.09 -0.09)">
      <use xlink:href="#DejaVuSans-2d"/>
      <use xlink:href="#DejaVuSans-31" x="36.083984"/>
     </g>
    </g>
   </g>
   <g id="text_17">
    <g clip-path="url(#p87f304f4ce)">
     <!-- -0 -->
     <g transform="translate(205.894901 300.450358) rotate(-340.435358) scale(0.09 -0.09)">
      <defs>
       <path id="DejaVuSans-30" d="M 2034 4250 
Q 1547 4250 1301 3770 
Q 1056 3291 1056 2328 
Q 1056 1369 1301 889 
Q 1547 409 2034 409 
Q 2525 409 2770 889 
Q 3016 1369 3016 2328 
Q 3016 3291 2770 3770 
Q 2525 4250 2034 4250 
z
M 2034 4750 
Q 2819 4750 3233 4129 
Q 3647 3509 3647 2328 
Q 3647 1150 3233 529 
Q 2819 -91 2034 -91 
Q 1250 -91 836 529 
Q 422 1150 422 2328 
Q 422 3509 836 4129 
Q 1250 4750 2034 4750 
z
" transform="scale(0.015625)"/>
      </defs>
      <use xlink:href="#DejaVuSans-2d"/>
      <use xlink:href="#DejaVuSans-30" x="36.083984"/>
     </g>
    </g>
   </g>
   <g id="text_18">
    <g clip-path="url(#p87f304f4ce)">
     <!-- -0 -->
     <g transform="translate(61.25908 53.881986) rotate(-11.601957) scale(0.09 -0.09)">
      <use xlink:href="#DejaVuSans-2d"/>
      <use xlink:href="#DejaVuSans-30" x="36.083984"/>
     </g>
    </g>
   </g>
   <g id="text_19">
    <g clip-path="url(#p87f304f4ce)">
     <!-- -0 -->
     <g transform="translate(227.226448 320.668279) rotate(-358.352461) scale(0.09 -0.09)">
      <use xlink:href="#DejaVuSans-2d"/>
      <use xlink:href="#DejaVuSans-30" x="36.083984"/>
     </g>
    </g>
   </g>
   <g id="text_20">
    <g clip-path="url(#p87f304f4ce)">
     <!-- -0 -->
     <g transform="translate(69.490432 166.192227) rotate(-357.500585) scale(0.09 -0.09)">
      <use xlink:href="#DejaVuSans-2d"/>
      <use xlink:href="#DejaVuSans-30" x="36.083984"/>
     </g>
    </g>
   </g>
   <g id="text_21">
    <g clip-path="url(#p87f304f4ce)">
     <!-- 0 -->
     <g transform="translate(159.374934 309.14342) rotate(-270) scale(0.09 -0.09)">
      <use xlink:href="#DejaVuSans-30"/>
     </g>
    </g>
   </g>
   <g id="text_22">
    <g clip-path="url(#p87f304f4ce)">
     <!-- 0 -->
     <g transform="translate(159.374934 38.372868) rotate(-270) scale(0.09 -0.09)">
      <use xlink:href="#DejaVuSans-30"/>
     </g>
    </g>
   </g>
   <g id="text_23">
    <g clip-path="url(#p87f304f4ce)">
     <!-- 0 -->
     <g transform="translate(80.127711 320.907684) rotate(-359.611563) scale(0.09 -0.09)">
      <use xlink:href="#DejaVuSans-30"/>
     </g>
    </g>
   </g>
   <g id="text_24">
    <g clip-path="url(#p87f304f4ce)">
     <!-- 0 -->
     <g transform="translate(240.775934 37.279069) rotate(-358.937029) scale(0.09 -0.09)">
      <use xlink:href="#DejaVuSans-30"/>
     </g>
    </g>
   </g>
   <g id="text_25">
    <g clip-path="url(#p87f304f4ce)">
     <!-- 0 -->
     <g transform="translate(74.028389 307.068557) rotate(-356.029416) scale(0.09 -0.09)">
      <use xlink:href="#DejaVuSans-30"/>
     </g>
    </g>
   </g>
   <g id="text_26">
    <g clip-path="url(#p87f304f4ce)">
     <!-- 0 -->
     <g transform="translate(225.724382 152.485748) rotate(-354.635832) scale(0.09 -0.09)">
      <use xlink:href="#DejaVuSans-30"/>
     </g>
    </g>
   </g>
   <g id="text_27">
    <g clip-path="url(#p87f304f4ce)">
     <!-- 1 -->
     <g transform="translate(83.173392 291.727231) rotate(-1.2174) scale(0.09 -0.09)">
      <use xlink:href="#DejaVuSans-31"/>
     </g>
    </g>
   </g>
   <g id="text_28">
    <g clip-path="url(#p87f304f4ce)">
     <!-- 1 -->
     <g transform="translate(234.817818 137.362904) rotate(-358.768974) scale(0.09 -0.09)">
      <use xlink:href="#DejaVuSans-31"/>
     </g>
    </g>
   </g>
  </g>
 </g>
 <defs>
  <clipPath id="p87f304f4ce">
   <rect x="8.679603" y="23.4425" width="306.357538" height="306.357538"/>
  </clipPath>
 </defs>
</svg>
