<?xml version="1.0" encoding="utf-8" standalone="no"?>
<!DOCTYPE svg PUBLIC "-//W3C//DTD SVG 1.1//EN"
  "http://www.w3.org/Graphics/SVG/1.1/DTD/svg11.dtd">
<svg xmlns:xlink="http://www.w3.org/1999/xlink" width="337.297852pt" height="338.0025pt" viewBox="0 0 337.297852 338.0025" xmlns="http://www.w3.org/2000/svg" version="1.1">
 <metadata>
  <rdf:RDF xmlns:dc="http://purl.org/dc/elements/1.1/" xmlns:cc="http://creativecommons.org/ns#" xmlns:rdf="http://www.w3.org/1999/02/22-rdf-syntax-ns#">
   <cc:Work>
    <dc:type rdf:resource="http://purl.org/dc/dcmitype/StillImage"/>
    <dc:date>2024-12-04T07:54:18.755727</dc:date>
    <dc:format>image/svg+xml</dc:format>
    <dc:creator>
     <cc:Agent>
      <dc:title>Matplotlib v3.6.2, https://matplotlib.org/</dc:title>
     </cc:Agent>
    </dc:creator>
   </cc:Work>
  </rdf:RDF>
 </metadata>
 <defs>
  <style type="text/css">*{stroke-linejoin: round; stroke-linecap: butt}</style>
 </defs>
 <g id="figure_1">
  <g id="patch_1">
   <path d="M 0 338.0025 
L 337.297852 338.0025 
L 337.297852 0 
L 0 0 
z
" style="fill: #ffffff"/>
  </g>
  <g id="axes_1">
   <g id="patch_2">
    <path d="M 9.597852 330.8025 
L 316.957852 330.8025 
L 316.957852 23.4425 
L 9.597852 23.4425 
z
" style="fill: #ffffff"/>
   </g>
   <g id="Quiver_1">
    <path d="M 28.667276 310.908342 
L 33.90077 308.291595 
L 32.801125 307.466862 
L 39.124082 306.367217 
L 34.450592 310.765796 
L 34.450592 309.39124 
L 29.217099 312.007987 
L 28.667276 310.908342 
" clip-path="url(#p51be2653b6)" style="fill: #0000ff"/>
    <path d="M 28.667276 291.717533 
L 33.90077 289.100786 
L 32.801125 288.276053 
L 39.124082 287.176408 
L 34.450592 291.574986 
L 34.450592 290.200431 
L 29.217099 292.817177 
L 28.667276 291.717533 
" clip-path="url(#p51be2653b6)" style="fill: #0000ff"/>
    <path d="M 28.667276 272.526724 
L 33.90077 269.909977 
L 32.801125 269.085243 
L 39.124082 267.985599 
L 34.450592 272.384177 
L 34.450592 271.009621 
L 29.217099 273.626368 
L 28.667276 272.526724 
" clip-path="url(#p51be2653b6)" style="fill: #0000ff"/>
    <path d="M 28.667276 253.335914 
L 33.90077 250.719168 
L 32.801125 249.894434 
L 39.124082 248.79479 
L 34.450592 253.193368 
L 34.450592 251.818812 
L 29.217099 254.435559 
L 28.667276 253.335914 
" clip-path="url(#p51be2653b6)" style="fill: #0000ff"/>
    <path d="M 28.667276 234.145105 
L 33.90077 231.528358 
L 32.801125 230.703625 
L 39.124082 229.603981 
L 34.450592 234.002559 
L 34.450592 232.628003 
L 29.217099 235.24475 
L 28.667276 234.145105 
" clip-path="url(#p51be2653b6)" style="fill: #0000ff"/>
    <path d="M 28.667276 214.954296 
L 33.90077 212.337549 
L 32.801125 211.512816 
L 39.124082 210.413171 
L 34.450592 214.81175 
L 34.450592 213.437194 
L 29.217099 216.053941 
L 28.667276 214.954296 
" clip-path="url(#p51be2653b6)" style="fill: #0000ff"/>
    <path d="M 28.667276 195.763487 
L 33.90077 193.14674 
L 32.801125 192.322007 
L 39.124082 191.222362 
L 34.450592 195.62094 
L 34.450592 194.246385 
L 29.217099 196.863131 
L 28.667276 195.763487 
" clip-path="url(#p51be2653b6)" style="fill: #0000ff"/>
    <path d="M 28.667276 176.572678 
L 33.90077 173.955931 
L 32.801125 173.131198 
L 39.124082 172.031553 
L 34.450592 176.430131 
L 34.450592 175.055575 
L 29.217099 177.672322 
L 28.667276 176.572678 
" clip-path="url(#p51be2653b6)" style="fill: #0000ff"/>
    <path d="M 28.667276 157.381869 
L 33.90077 154.765122 
L 32.801125 153.940388 
L 39.124082 152.840744 
L 34.450592 157.239322 
L 34.450592 155.864766 
L 29.217099 158.481513 
L 28.667276 157.381869 
" clip-path="url(#p51be2653b6)" style="fill: #0000ff"/>
    <path d="M 28.667276 138.191059 
L 33.90077 135.574313 
L 32.801125 134.749579 
L 39.124082 133.649935 
L 34.450592 138.048513 
L 34.450592 136.673957 
L 29.217099 139.290704 
L 28.667276 138.191059 
" clip-path="url(#p51be2653b6)" style="fill: #0000ff"/>
    <path d="M 28.667276 119.00025 
L 33.90077 116.383503 
L 32.801125 115.55877 
L 39.124082 114.459125 
L 34.450592 118.857704 
L 34.450592 117.483148 
L 29.217099 120.099895 
L 28.667276 119.00025 
" clip-path="url(#p51be2653b6)" style="fill: #0000ff"/>
    <path d="M 28.667276 99.809441 
L 33.90077 97.192694 
L 32.801125 96.367961 
L 39.124082 95.268316 
L 34.450592 99.666894 
L 34.450592 98.292339 
L 29.217099 100.909086 
L 28.667276 99.809441 
" clip-path="url(#p51be2653b6)" style="fill: #0000ff"/>
    <path d="M 28.667276 80.618632 
L 33.90077 78.001885 
L 32.801125 77.177152 
L 39.124082 76.077507 
L 34.450592 80.476085 
L 34.450592 79.10153 
L 29.217099 81.718276 
L 28.667276 80.618632 
" clip-path="url(#p51be2653b6)" style="fill: #0000ff"/>
    <path d="M 28.667276 61.427823 
L 33.90077 58.811076 
L 32.801125 57.986342 
L 39.124082 56.886698 
L 34.450592 61.285276 
L 34.450592 59.91072 
L 29.217099 62.527467 
L 28.667276 61.427823 
" clip-path="url(#p51be2653b6)" style="fill: #0000ff"/>
    <path d="M 28.667276 42.237013 
L 33.90077 39.620267 
L 32.801125 38.795533 
L 39.124082 37.695889 
L 34.450592 42.094467 
L 34.450592 40.719911 
L 29.217099 43.336658 
L 28.667276 42.237013 
" clip-path="url(#p51be2653b6)" style="fill: #0000ff"/>
    <path d="M 47.858086 310.908342 
L 53.091579 308.291595 
L 51.991935 307.466862 
L 58.314891 306.367217 
L 53.641401 310.765796 
L 53.641401 309.39124 
L 48.407908 312.007987 
L 47.858086 310.908342 
" clip-path="url(#p51be2653b6)" style="fill: #0000ff"/>
    <path d="M 47.858086 291.717533 
L 53.091579 289.100786 
L 51.991935 288.276053 
L 58.314891 287.176408 
L 53.641401 291.574986 
L 53.641401 290.200431 
L 48.407908 292.817177 
L 47.858086 291.717533 
" clip-path="url(#p51be2653b6)" style="fill: #0000ff"/>
    <path d="M 47.858086 272.526724 
L 53.091579 269.909977 
L 51.991935 269.085243 
L 58.314891 267.985599 
L 53.641401 272.384177 
L 53.641401 271.009621 
L 48.407908 273.626368 
L 47.858086 272.526724 
" clip-path="url(#p51be2653b6)" style="fill: #0000ff"/>
    <path d="M 47.858086 253.335914 
L 53.091579 250.719168 
L 51.991935 249.894434 
L 58.314891 248.79479 
L 53.641401 253.193368 
L 53.641401 251.818812 
L 48.407908 254.435559 
L 47.858086 253.335914 
" clip-path="url(#p51be2653b6)" style="fill: #0000ff"/>
    <path d="M 47.858086 234.145105 
L 53.091579 231.528358 
L 51.991935 230.703625 
L 58.314891 229.603981 
L 53.641401 234.002559 
L 53.641401 232.628003 
L 48.407908 235.24475 
L 47.858086 234.145105 
" clip-path="url(#p51be2653b6)" style="fill: #0000ff"/>
    <path d="M 47.858086 214.954296 
L 53.091579 212.337549 
L 51.991935 211.512816 
L 58.314891 210.413171 
L 53.641401 214.81175 
L 53.641401 213.437194 
L 48.407908 216.053941 
L 47.858086 214.954296 
" clip-path="url(#p51be2653b6)" style="fill: #0000ff"/>
    <path d="M 47.858086 195.763487 
L 53.091579 193.14674 
L 51.991935 192.322007 
L 58.314891 191.222362 
L 53.641401 195.62094 
L 53.641401 194.246385 
L 48.407908 196.863131 
L 47.858086 195.763487 
" clip-path="url(#p51be2653b6)" style="fill: #0000ff"/>
    <path d="M 47.858086 176.572678 
L 53.091579 173.955931 
L 51.991935 173.131198 
L 58.314891 172.031553 
L 53.641401 176.430131 
L 53.641401 175.055575 
L 48.407908 177.672322 
L 47.858086 176.572678 
" clip-path="url(#p51be2653b6)" style="fill: #0000ff"/>
    <path d="M 47.858086 157.381869 
L 53.091579 154.765122 
L 51.991935 153.940388 
L 58.314891 152.840744 
L 53.641401 157.239322 
L 53.641401 155.864766 
L 48.407908 158.481513 
L 47.858086 157.381869 
" clip-path="url(#p51be2653b6)" style="fill: #0000ff"/>
    <path d="M 47.858086 138.191059 
L 53.091579 135.574313 
L 51.991935 134.749579 
L 58.314891 133.649935 
L 53.641401 138.048513 
L 53.641401 136.673957 
L 48.407908 139.290704 
L 47.858086 138.191059 
" clip-path="url(#p51be2653b6)" style="fill: #0000ff"/>
    <path d="M 47.858086 119.00025 
L 53.091579 116.383503 
L 51.991935 115.55877 
L 58.314891 114.459125 
L 53.641401 118.857704 
L 53.641401 117.483148 
L 48.407908 120.099895 
L 47.858086 119.00025 
" clip-path="url(#p51be2653b6)" style="fill: #0000ff"/>
    <path d="M 47.858086 99.809441 
L 53.091579 97.192694 
L 51.991935 96.367961 
L 58.314891 95.268316 
L 53.641401 99.666894 
L 53.641401 98.292339 
L 48.407908 100.909086 
L 47.858086 99.809441 
" clip-path="url(#p51be2653b6)" style="fill: #0000ff"/>
    <path d="M 47.858086 80.618632 
L 53.091579 78.001885 
L 51.991935 77.177152 
L 58.314891 76.077507 
L 53.641401 80.476085 
L 53.641401 79.10153 
L 48.407908 81.718276 
L 47.858086 80.618632 
" clip-path="url(#p51be2653b6)" style="fill: #0000ff"/>
    <path d="M 47.858086 61.427823 
L 53.091579 58.811076 
L 51.991935 57.986342 
L 58.314891 56.886698 
L 53.641401 61.285276 
L 53.641401 59.91072 
L 48.407908 62.527467 
L 47.858086 61.427823 
" clip-path="url(#p51be2653b6)" style="fill: #0000ff"/>
    <path d="M 47.858086 42.237013 
L 53.091579 39.620267 
L 51.991935 38.795533 
L 58.314891 37.695889 
L 53.641401 42.094467 
L 53.641401 40.719911 
L 48.407908 43.336658 
L 47.858086 42.237013 
" clip-path="url(#p51be2653b6)" style="fill: #0000ff"/>
    <path d="M 67.048895 310.908342 
L 72.282388 308.291595 
L 71.182744 307.466862 
L 77.5057 306.367217 
L 72.832211 310.765796 
L 72.832211 309.39124 
L 67.598717 312.007987 
L 67.048895 310.908342 
" clip-path="url(#p51be2653b6)" style="fill: #0000ff"/>
    <path d="M 67.048895 291.717533 
L 72.282388 289.100786 
L 71.182744 288.276053 
L 77.5057 287.176408 
L 72.832211 291.574986 
L 72.832211 290.200431 
L 67.598717 292.817177 
L 67.048895 291.717533 
" clip-path="url(#p51be2653b6)" style="fill: #0000ff"/>
    <path d="M 67.048895 272.526724 
L 72.282388 269.909977 
L 71.182744 269.085243 
L 77.5057 267.985599 
L 72.832211 272.384177 
L 72.832211 271.009621 
L 67.598717 273.626368 
L 67.048895 272.526724 
" clip-path="url(#p51be2653b6)" style="fill: #0000ff"/>
    <path d="M 67.048895 253.335914 
L 72.282388 250.719168 
L 71.182744 249.894434 
L 77.5057 248.79479 
L 72.832211 253.193368 
L 72.832211 251.818812 
L 67.598717 254.435559 
L 67.048895 253.335914 
" clip-path="url(#p51be2653b6)" style="fill: #0000ff"/>
    <path d="M 67.048895 234.145105 
L 72.282388 231.528358 
L 71.182744 230.703625 
L 77.5057 229.603981 
L 72.832211 234.002559 
L 72.832211 232.628003 
L 67.598717 235.24475 
L 67.048895 234.145105 
" clip-path="url(#p51be2653b6)" style="fill: #0000ff"/>
    <path d="M 67.048895 214.954296 
L 72.282388 212.337549 
L 71.182744 211.512816 
L 77.5057 210.413171 
L 72.832211 214.81175 
L 72.832211 213.437194 
L 67.598717 216.053941 
L 67.048895 214.954296 
" clip-path="url(#p51be2653b6)" style="fill: #0000ff"/>
    <path d="M 67.048895 195.763487 
L 72.282388 193.14674 
L 71.182744 192.322007 
L 77.5057 191.222362 
L 72.832211 195.62094 
L 72.832211 194.246385 
L 67.598717 196.863131 
L 67.048895 195.763487 
" clip-path="url(#p51be2653b6)" style="fill: #0000ff"/>
    <path d="M 67.048895 176.572678 
L 72.282388 173.955931 
L 71.182744 173.131198 
L 77.5057 172.031553 
L 72.832211 176.430131 
L 72.832211 175.055575 
L 67.598717 177.672322 
L 67.048895 176.572678 
" clip-path="url(#p51be2653b6)" style="fill: #0000ff"/>
    <path d="M 67.048895 157.381869 
L 72.282388 154.765122 
L 71.182744 153.940388 
L 77.5057 152.840744 
L 72.832211 157.239322 
L 72.832211 155.864766 
L 67.598717 158.481513 
L 67.048895 157.381869 
" clip-path="url(#p51be2653b6)" style="fill: #0000ff"/>
    <path d="M 67.048895 138.191059 
L 72.282388 135.574313 
L 71.182744 134.749579 
L 77.5057 133.649935 
L 72.832211 138.048513 
L 72.832211 136.673957 
L 67.598717 139.290704 
L 67.048895 138.191059 
" clip-path="url(#p51be2653b6)" style="fill: #0000ff"/>
    <path d="M 67.048895 119.00025 
L 72.282388 116.383503 
L 71.182744 115.55877 
L 77.5057 114.459125 
L 72.832211 118.857704 
L 72.832211 117.483148 
L 67.598717 120.099895 
L 67.048895 119.00025 
" clip-path="url(#p51be2653b6)" style="fill: #0000ff"/>
    <path d="M 67.048895 99.809441 
L 72.282388 97.192694 
L 71.182744 96.367961 
L 77.5057 95.268316 
L 72.832211 99.666894 
L 72.832211 98.292339 
L 67.598717 100.909086 
L 67.048895 99.809441 
" clip-path="url(#p51be2653b6)" style="fill: #0000ff"/>
    <path d="M 67.048895 80.618632 
L 72.282388 78.001885 
L 71.182744 77.177152 
L 77.5057 76.077507 
L 72.832211 80.476085 
L 72.832211 79.10153 
L 67.598717 81.718276 
L 67.048895 80.618632 
" clip-path="url(#p51be2653b6)" style="fill: #0000ff"/>
    <path d="M 67.048895 61.427823 
L 72.282388 58.811076 
L 71.182744 57.986342 
L 77.5057 56.886698 
L 72.832211 61.285276 
L 72.832211 59.91072 
L 67.598717 62.527467 
L 67.048895 61.427823 
" clip-path="url(#p51be2653b6)" style="fill: #0000ff"/>
    <path d="M 67.048895 42.237013 
L 72.282388 39.620267 
L 71.182744 38.795533 
L 77.5057 37.695889 
L 72.832211 42.094467 
L 72.832211 40.719911 
L 67.598717 43.336658 
L 67.048895 42.237013 
" clip-path="url(#p51be2653b6)" style="fill: #0000ff"/>
    <path d="M 86.239704 310.908342 
L 91.473198 308.291595 
L 90.373553 307.466862 
L 96.696509 306.367217 
L 92.02302 310.765796 
L 92.02302 309.39124 
L 86.789526 312.007987 
L 86.239704 310.908342 
" clip-path="url(#p51be2653b6)" style="fill: #0000ff"/>
    <path d="M 86.239704 291.717533 
L 91.473198 289.100786 
L 90.373553 288.276053 
L 96.696509 287.176408 
L 92.02302 291.574986 
L 92.02302 290.200431 
L 86.789526 292.817177 
L 86.239704 291.717533 
" clip-path="url(#p51be2653b6)" style="fill: #0000ff"/>
    <path d="M 86.239704 272.526724 
L 91.473198 269.909977 
L 90.373553 269.085243 
L 96.696509 267.985599 
L 92.02302 272.384177 
L 92.02302 271.009621 
L 86.789526 273.626368 
L 86.239704 272.526724 
" clip-path="url(#p51be2653b6)" style="fill: #0000ff"/>
    <path d="M 86.239704 253.335914 
L 91.473198 250.719168 
L 90.373553 249.894434 
L 96.696509 248.79479 
L 92.02302 253.193368 
L 92.02302 251.818812 
L 86.789526 254.435559 
L 86.239704 253.335914 
" clip-path="url(#p51be2653b6)" style="fill: #0000ff"/>
    <path d="M 86.239704 234.145105 
L 91.473198 231.528358 
L 90.373553 230.703625 
L 96.696509 229.603981 
L 92.02302 234.002559 
L 92.02302 232.628003 
L 86.789526 235.24475 
L 86.239704 234.145105 
" clip-path="url(#p51be2653b6)" style="fill: #0000ff"/>
    <path d="M 86.239704 214.954296 
L 91.473198 212.337549 
L 90.373553 211.512816 
L 96.696509 210.413171 
L 92.02302 214.81175 
L 92.02302 213.437194 
L 86.789526 216.053941 
L 86.239704 214.954296 
" clip-path="url(#p51be2653b6)" style="fill: #0000ff"/>
    <path d="M 86.239704 195.763487 
L 91.473198 193.14674 
L 90.373553 192.322007 
L 96.696509 191.222362 
L 92.02302 195.62094 
L 92.02302 194.246385 
L 86.789526 196.863131 
L 86.239704 195.763487 
" clip-path="url(#p51be2653b6)" style="fill: #0000ff"/>
    <path d="M 86.239704 176.572678 
L 91.473198 173.955931 
L 90.373553 173.131198 
L 96.696509 172.031553 
L 92.02302 176.430131 
L 92.02302 175.055575 
L 86.789526 177.672322 
L 86.239704 176.572678 
" clip-path="url(#p51be2653b6)" style="fill: #0000ff"/>
    <path d="M 86.239704 157.381869 
L 91.473198 154.765122 
L 90.373553 153.940388 
L 96.696509 152.840744 
L 92.02302 157.239322 
L 92.02302 155.864766 
L 86.789526 158.481513 
L 86.239704 157.381869 
" clip-path="url(#p51be2653b6)" style="fill: #0000ff"/>
    <path d="M 86.239704 138.191059 
L 91.473198 135.574313 
L 90.373553 134.749579 
L 96.696509 133.649935 
L 92.02302 138.048513 
L 92.02302 136.673957 
L 86.789526 139.290704 
L 86.239704 138.191059 
" clip-path="url(#p51be2653b6)" style="fill: #0000ff"/>
    <path d="M 86.239704 119.00025 
L 91.473198 116.383503 
L 90.373553 115.55877 
L 96.696509 114.459125 
L 92.02302 118.857704 
L 92.02302 117.483148 
L 86.789526 120.099895 
L 86.239704 119.00025 
" clip-path="url(#p51be2653b6)" style="fill: #0000ff"/>
    <path d="M 86.239704 99.809441 
L 91.473198 97.192694 
L 90.373553 96.367961 
L 96.696509 95.268316 
L 92.02302 99.666894 
L 92.02302 98.292339 
L 86.789526 100.909086 
L 86.239704 99.809441 
" clip-path="url(#p51be2653b6)" style="fill: #0000ff"/>
    <path d="M 86.239704 80.618632 
L 91.473198 78.001885 
L 90.373553 77.177152 
L 96.696509 76.077507 
L 92.02302 80.476085 
L 92.02302 79.10153 
L 86.789526 81.718276 
L 86.239704 80.618632 
" clip-path="url(#p51be2653b6)" style="fill: #0000ff"/>
    <path d="M 86.239704 61.427823 
L 91.473198 58.811076 
L 90.373553 57.986342 
L 96.696509 56.886698 
L 92.02302 61.285276 
L 92.02302 59.91072 
L 86.789526 62.527467 
L 86.239704 61.427823 
" clip-path="url(#p51be2653b6)" style="fill: #0000ff"/>
    <path d="M 86.239704 42.237013 
L 91.473198 39.620267 
L 90.373553 38.795533 
L 96.696509 37.695889 
L 92.02302 42.094467 
L 92.02302 40.719911 
L 86.789526 43.336658 
L 86.239704 42.237013 
" clip-path="url(#p51be2653b6)" style="fill: #0000ff"/>
    <path d="M 105.430513 310.908342 
L 110.664007 308.291595 
L 109.564362 307.466862 
L 115.887318 306.367217 
L 111.213829 310.765796 
L 111.213829 309.39124 
L 105.980335 312.007987 
L 105.430513 310.908342 
" clip-path="url(#p51be2653b6)" style="fill: #0000ff"/>
    <path d="M 105.430513 291.717533 
L 110.664007 289.100786 
L 109.564362 288.276053 
L 115.887318 287.176408 
L 111.213829 291.574986 
L 111.213829 290.200431 
L 105.980335 292.817177 
L 105.430513 291.717533 
" clip-path="url(#p51be2653b6)" style="fill: #0000ff"/>
    <path d="M 105.430513 272.526724 
L 110.664007 269.909977 
L 109.564362 269.085243 
L 115.887318 267.985599 
L 111.213829 272.384177 
L 111.213829 271.009621 
L 105.980335 273.626368 
L 105.430513 272.526724 
" clip-path="url(#p51be2653b6)" style="fill: #0000ff"/>
    <path d="M 105.430513 253.335914 
L 110.664007 250.719168 
L 109.564362 249.894434 
L 115.887318 248.79479 
L 111.213829 253.193368 
L 111.213829 251.818812 
L 105.980335 254.435559 
L 105.430513 253.335914 
" clip-path="url(#p51be2653b6)" style="fill: #0000ff"/>
    <path d="M 105.430513 234.145105 
L 110.664007 231.528358 
L 109.564362 230.703625 
L 115.887318 229.603981 
L 111.213829 234.002559 
L 111.213829 232.628003 
L 105.980335 235.24475 
L 105.430513 234.145105 
" clip-path="url(#p51be2653b6)" style="fill: #0000ff"/>
    <path d="M 105.430513 214.954296 
L 110.664007 212.337549 
L 109.564362 211.512816 
L 115.887318 210.413171 
L 111.213829 214.81175 
L 111.213829 213.437194 
L 105.980335 216.053941 
L 105.430513 214.954296 
" clip-path="url(#p51be2653b6)" style="fill: #0000ff"/>
    <path d="M 105.430513 195.763487 
L 110.664007 193.14674 
L 109.564362 192.322007 
L 115.887318 191.222362 
L 111.213829 195.62094 
L 111.213829 194.246385 
L 105.980335 196.863131 
L 105.430513 195.763487 
" clip-path="url(#p51be2653b6)" style="fill: #0000ff"/>
    <path d="M 105.430513 176.572678 
L 110.664007 173.955931 
L 109.564362 173.131198 
L 115.887318 172.031553 
L 111.213829 176.430131 
L 111.213829 175.055575 
L 105.980335 177.672322 
L 105.430513 176.572678 
" clip-path="url(#p51be2653b6)" style="fill: #0000ff"/>
    <path d="M 105.430513 157.381869 
L 110.664007 154.765122 
L 109.564362 153.940388 
L 115.887318 152.840744 
L 111.213829 157.239322 
L 111.213829 155.864766 
L 105.980335 158.481513 
L 105.430513 157.381869 
" clip-path="url(#p51be2653b6)" style="fill: #0000ff"/>
    <path d="M 105.430513 138.191059 
L 110.664007 135.574313 
L 109.564362 134.749579 
L 115.887318 133.649935 
L 111.213829 138.048513 
L 111.213829 136.673957 
L 105.980335 139.290704 
L 105.430513 138.191059 
" clip-path="url(#p51be2653b6)" style="fill: #0000ff"/>
    <path d="M 105.430513 119.00025 
L 110.664007 116.383503 
L 109.564362 115.55877 
L 115.887318 114.459125 
L 111.213829 118.857704 
L 111.213829 117.483148 
L 105.980335 120.099895 
L 105.430513 119.00025 
" clip-path="url(#p51be2653b6)" style="fill: #0000ff"/>
    <path d="M 105.430513 99.809441 
L 110.664007 97.192694 
L 109.564362 96.367961 
L 115.887318 95.268316 
L 111.213829 99.666894 
L 111.213829 98.292339 
L 105.980335 100.909086 
L 105.430513 99.809441 
" clip-path="url(#p51be2653b6)" style="fill: #0000ff"/>
    <path d="M 105.430513 80.618632 
L 110.664007 78.001885 
L 109.564362 77.177152 
L 115.887318 76.077507 
L 111.213829 80.476085 
L 111.213829 79.10153 
L 105.980335 81.718276 
L 105.430513 80.618632 
" clip-path="url(#p51be2653b6)" style="fill: #0000ff"/>
    <path d="M 105.430513 61.427823 
L 110.664007 58.811076 
L 109.564362 57.986342 
L 115.887318 56.886698 
L 111.213829 61.285276 
L 111.213829 59.91072 
L 105.980335 62.527467 
L 105.430513 61.427823 
" clip-path="url(#p51be2653b6)" style="fill: #0000ff"/>
    <path d="M 105.430513 42.237013 
L 110.664007 39.620267 
L 109.564362 38.795533 
L 115.887318 37.695889 
L 111.213829 42.094467 
L 111.213829 40.719911 
L 105.980335 43.336658 
L 105.430513 42.237013 
" clip-path="url(#p51be2653b6)" style="fill: #0000ff"/>
    <path d="M 124.621322 310.908342 
L 129.854816 308.291595 
L 128.755171 307.466862 
L 135.078128 306.367217 
L 130.404638 310.765796 
L 130.404638 309.39124 
L 125.171145 312.007987 
L 124.621322 310.908342 
" clip-path="url(#p51be2653b6)" style="fill: #0000ff"/>
    <path d="M 124.621322 291.717533 
L 129.854816 289.100786 
L 128.755171 288.276053 
L 135.078128 287.176408 
L 130.404638 291.574986 
L 130.404638 290.200431 
L 125.171145 292.817177 
L 124.621322 291.717533 
" clip-path="url(#p51be2653b6)" style="fill: #0000ff"/>
    <path d="M 124.621322 272.526724 
L 129.854816 269.909977 
L 128.755171 269.085243 
L 135.078128 267.985599 
L 130.404638 272.384177 
L 130.404638 271.009621 
L 125.171145 273.626368 
L 124.621322 272.526724 
" clip-path="url(#p51be2653b6)" style="fill: #0000ff"/>
    <path d="M 124.621322 253.335914 
L 129.854816 250.719168 
L 128.755171 249.894434 
L 135.078128 248.79479 
L 130.404638 253.193368 
L 130.404638 251.818812 
L 125.171145 254.435559 
L 124.621322 253.335914 
" clip-path="url(#p51be2653b6)" style="fill: #0000ff"/>
    <path d="M 124.621322 234.145105 
L 129.854816 231.528358 
L 128.755171 230.703625 
L 135.078128 229.603981 
L 130.404638 234.002559 
L 130.404638 232.628003 
L 125.171145 235.24475 
L 124.621322 234.145105 
" clip-path="url(#p51be2653b6)" style="fill: #0000ff"/>
    <path d="M 124.621322 214.954296 
L 129.854816 212.337549 
L 128.755171 211.512816 
L 135.078128 210.413171 
L 130.404638 214.81175 
L 130.404638 213.437194 
L 125.171145 216.053941 
L 124.621322 214.954296 
" clip-path="url(#p51be2653b6)" style="fill: #0000ff"/>
    <path d="M 124.621322 195.763487 
L 129.854816 193.14674 
L 128.755171 192.322007 
L 135.078128 191.222362 
L 130.404638 195.62094 
L 130.404638 194.246385 
L 125.171145 196.863131 
L 124.621322 195.763487 
" clip-path="url(#p51be2653b6)" style="fill: #0000ff"/>
    <path d="M 124.621322 176.572678 
L 129.854816 173.955931 
L 128.755171 173.131198 
L 135.078128 172.031553 
L 130.404638 176.430131 
L 130.404638 175.055575 
L 125.171145 177.672322 
L 124.621322 176.572678 
" clip-path="url(#p51be2653b6)" style="fill: #0000ff"/>
    <path d="M 124.621322 157.381869 
L 129.854816 154.765122 
L 128.755171 153.940388 
L 135.078128 152.840744 
L 130.404638 157.239322 
L 130.404638 155.864766 
L 125.171145 158.481513 
L 124.621322 157.381869 
" clip-path="url(#p51be2653b6)" style="fill: #0000ff"/>
    <path d="M 124.621322 138.191059 
L 129.854816 135.574313 
L 128.755171 134.749579 
L 135.078128 133.649935 
L 130.404638 138.048513 
L 130.404638 136.673957 
L 125.171145 139.290704 
L 124.621322 138.191059 
" clip-path="url(#p51be2653b6)" style="fill: #0000ff"/>
    <path d="M 124.621322 119.00025 
L 129.854816 116.383503 
L 128.755171 115.55877 
L 135.078128 114.459125 
L 130.404638 118.857704 
L 130.404638 117.483148 
L 125.171145 120.099895 
L 124.621322 119.00025 
" clip-path="url(#p51be2653b6)" style="fill: #0000ff"/>
    <path d="M 124.621322 99.809441 
L 129.854816 97.192694 
L 128.755171 96.367961 
L 135.078128 95.268316 
L 130.404638 99.666894 
L 130.404638 98.292339 
L 125.171145 100.909086 
L 124.621322 99.809441 
" clip-path="url(#p51be2653b6)" style="fill: #0000ff"/>
    <path d="M 124.621322 80.618632 
L 129.854816 78.001885 
L 128.755171 77.177152 
L 135.078128 76.077507 
L 130.404638 80.476085 
L 130.404638 79.10153 
L 125.171145 81.718276 
L 124.621322 80.618632 
" clip-path="url(#p51be2653b6)" style="fill: #0000ff"/>
    <path d="M 124.621322 61.427823 
L 129.854816 58.811076 
L 128.755171 57.986342 
L 135.078128 56.886698 
L 130.404638 61.285276 
L 130.404638 59.91072 
L 125.171145 62.527467 
L 124.621322 61.427823 
" clip-path="url(#p51be2653b6)" style="fill: #0000ff"/>
    <path d="M 124.621322 42.237013 
L 129.854816 39.620267 
L 128.755171 38.795533 
L 135.078128 37.695889 
L 130.404638 42.094467 
L 130.404638 40.719911 
L 125.171145 43.336658 
L 124.621322 42.237013 
" clip-path="url(#p51be2653b6)" style="fill: #0000ff"/>
    <path d="M 143.812132 310.908342 
L 149.045625 308.291595 
L 147.945981 307.466862 
L 154.268937 306.367217 
L 149.595447 310.765796 
L 149.595447 309.39124 
L 144.361954 312.007987 
L 143.812132 310.908342 
" clip-path="url(#p51be2653b6)" style="fill: #0000ff"/>
    <path d="M 143.812132 291.717533 
L 149.045625 289.100786 
L 147.945981 288.276053 
L 154.268937 287.176408 
L 149.595447 291.574986 
L 149.595447 290.200431 
L 144.361954 292.817177 
L 143.812132 291.717533 
" clip-path="url(#p51be2653b6)" style="fill: #0000ff"/>
    <path d="M 143.812132 272.526724 
L 149.045625 269.909977 
L 147.945981 269.085243 
L 154.268937 267.985599 
L 149.595447 272.384177 
L 149.595447 271.009621 
L 144.361954 273.626368 
L 143.812132 272.526724 
" clip-path="url(#p51be2653b6)" style="fill: #0000ff"/>
    <path d="M 143.812132 253.335914 
L 149.045625 250.719168 
L 147.945981 249.894434 
L 154.268937 248.79479 
L 149.595447 253.193368 
L 149.595447 251.818812 
L 144.361954 254.435559 
L 143.812132 253.335914 
" clip-path="url(#p51be2653b6)" style="fill: #0000ff"/>
    <path d="M 143.812132 234.145105 
L 149.045625 231.528358 
L 147.945981 230.703625 
L 154.268937 229.603981 
L 149.595447 234.002559 
L 149.595447 232.628003 
L 144.361954 235.24475 
L 143.812132 234.145105 
" clip-path="url(#p51be2653b6)" style="fill: #0000ff"/>
    <path d="M 143.812132 214.954296 
L 149.045625 212.337549 
L 147.945981 211.512816 
L 154.268937 210.413171 
L 149.595447 214.81175 
L 149.595447 213.437194 
L 144.361954 216.053941 
L 143.812132 214.954296 
" clip-path="url(#p51be2653b6)" style="fill: #0000ff"/>
    <path d="M 143.812132 195.763487 
L 149.045625 193.14674 
L 147.945981 192.322007 
L 154.268937 191.222362 
L 149.595447 195.62094 
L 149.595447 194.246385 
L 144.361954 196.863131 
L 143.812132 195.763487 
" clip-path="url(#p51be2653b6)" style="fill: #0000ff"/>
    <path d="M 143.812132 176.572678 
L 149.045625 173.955931 
L 147.945981 173.131198 
L 154.268937 172.031553 
L 149.595447 176.430131 
L 149.595447 175.055575 
L 144.361954 177.672322 
L 143.812132 176.572678 
" clip-path="url(#p51be2653b6)" style="fill: #0000ff"/>
    <path d="M 143.812132 157.381869 
L 149.045625 154.765122 
L 147.945981 153.940388 
L 154.268937 152.840744 
L 149.595447 157.239322 
L 149.595447 155.864766 
L 144.361954 158.481513 
L 143.812132 157.381869 
" clip-path="url(#p51be2653b6)" style="fill: #0000ff"/>
    <path d="M 143.812132 138.191059 
L 149.045625 135.574313 
L 147.945981 134.749579 
L 154.268937 133.649935 
L 149.595447 138.048513 
L 149.595447 136.673957 
L 144.361954 139.290704 
L 143.812132 138.191059 
" clip-path="url(#p51be2653b6)" style="fill: #0000ff"/>
    <path d="M 143.812132 119.00025 
L 149.045625 116.383503 
L 147.945981 115.55877 
L 154.268937 114.459125 
L 149.595447 118.857704 
L 149.595447 117.483148 
L 144.361954 120.099895 
L 143.812132 119.00025 
" clip-path="url(#p51be2653b6)" style="fill: #0000ff"/>
    <path d="M 143.812132 99.809441 
L 149.045625 97.192694 
L 147.945981 96.367961 
L 154.268937 95.268316 
L 149.595447 99.666894 
L 149.595447 98.292339 
L 144.361954 100.909086 
L 143.812132 99.809441 
" clip-path="url(#p51be2653b6)" style="fill: #0000ff"/>
    <path d="M 143.812132 80.618632 
L 149.045625 78.001885 
L 147.945981 77.177152 
L 154.268937 76.077507 
L 149.595447 80.476085 
L 149.595447 79.10153 
L 144.361954 81.718276 
L 143.812132 80.618632 
" clip-path="url(#p51be2653b6)" style="fill: #0000ff"/>
    <path d="M 143.812132 61.427823 
L 149.045625 58.811076 
L 147.945981 57.986342 
L 154.268937 56.886698 
L 149.595447 61.285276 
L 149.595447 59.91072 
L 144.361954 62.527467 
L 143.812132 61.427823 
" clip-path="url(#p51be2653b6)" style="fill: #0000ff"/>
    <path d="M 143.812132 42.237013 
L 149.045625 39.620267 
L 147.945981 38.795533 
L 154.268937 37.695889 
L 149.595447 42.094467 
L 149.595447 40.719911 
L 144.361954 43.336658 
L 143.812132 42.237013 
" clip-path="url(#p51be2653b6)" style="fill: #0000ff"/>
    <path d="M 163.002941 310.908342 
L 168.236434 308.291595 
L 167.13679 307.466862 
L 173.459746 306.367217 
L 168.786257 310.765796 
L 168.786257 309.39124 
L 163.552763 312.007987 
L 163.002941 310.908342 
" clip-path="url(#p51be2653b6)" style="fill: #0000ff"/>
    <path d="M 163.002941 291.717533 
L 168.236434 289.100786 
L 167.13679 288.276053 
L 173.459746 287.176408 
L 168.786257 291.574986 
L 168.786257 290.200431 
L 163.552763 292.817177 
L 163.002941 291.717533 
" clip-path="url(#p51be2653b6)" style="fill: #0000ff"/>
    <path d="M 163.002941 272.526724 
L 168.236434 269.909977 
L 167.13679 269.085243 
L 173.459746 267.985599 
L 168.786257 272.384177 
L 168.786257 271.009621 
L 163.552763 273.626368 
L 163.002941 272.526724 
" clip-path="url(#p51be2653b6)" style="fill: #0000ff"/>
    <path d="M 163.002941 253.335914 
L 168.236434 250.719168 
L 167.13679 249.894434 
L 173.459746 248.79479 
L 168.786257 253.193368 
L 168.786257 251.818812 
L 163.552763 254.435559 
L 163.002941 253.335914 
" clip-path="url(#p51be2653b6)" style="fill: #0000ff"/>
    <path d="M 163.002941 234.145105 
L 168.236434 231.528358 
L 167.13679 230.703625 
L 173.459746 229.603981 
L 168.786257 234.002559 
L 168.786257 232.628003 
L 163.552763 235.24475 
L 163.002941 234.145105 
" clip-path="url(#p51be2653b6)" style="fill: #0000ff"/>
    <path d="M 163.002941 214.954296 
L 168.236434 212.337549 
L 167.13679 211.512816 
L 173.459746 210.413171 
L 168.786257 214.81175 
L 168.786257 213.437194 
L 163.552763 216.053941 
L 163.002941 214.954296 
" clip-path="url(#p51be2653b6)" style="fill: #0000ff"/>
    <path d="M 163.002941 195.763487 
L 168.236434 193.14674 
L 167.13679 192.322007 
L 173.459746 191.222362 
L 168.786257 195.62094 
L 168.786257 194.246385 
L 163.552763 196.863131 
L 163.002941 195.763487 
" clip-path="url(#p51be2653b6)" style="fill: #0000ff"/>
    <path d="M 163.002941 176.572678 
L 168.236434 173.955931 
L 167.13679 173.131198 
L 173.459746 172.031553 
L 168.786257 176.430131 
L 168.786257 175.055575 
L 163.552763 177.672322 
L 163.002941 176.572678 
" clip-path="url(#p51be2653b6)" style="fill: #0000ff"/>
    <path d="M 163.002941 157.381869 
L 168.236434 154.765122 
L 167.13679 153.940388 
L 173.459746 152.840744 
L 168.786257 157.239322 
L 168.786257 155.864766 
L 163.552763 158.481513 
L 163.002941 157.381869 
" clip-path="url(#p51be2653b6)" style="fill: #0000ff"/>
    <path d="M 163.002941 138.191059 
L 168.236434 135.574313 
L 167.13679 134.749579 
L 173.459746 133.649935 
L 168.786257 138.048513 
L 168.786257 136.673957 
L 163.552763 139.290704 
L 163.002941 138.191059 
" clip-path="url(#p51be2653b6)" style="fill: #0000ff"/>
    <path d="M 163.002941 119.00025 
L 168.236434 116.383503 
L 167.13679 115.55877 
L 173.459746 114.459125 
L 168.786257 118.857704 
L 168.786257 117.483148 
L 163.552763 120.099895 
L 163.002941 119.00025 
" clip-path="url(#p51be2653b6)" style="fill: #0000ff"/>
    <path d="M 163.002941 99.809441 
L 168.236434 97.192694 
L 167.13679 96.367961 
L 173.459746 95.268316 
L 168.786257 99.666894 
L 168.786257 98.292339 
L 163.552763 100.909086 
L 163.002941 99.809441 
" clip-path="url(#p51be2653b6)" style="fill: #0000ff"/>
    <path d="M 163.002941 80.618632 
L 168.236434 78.001885 
L 167.13679 77.177152 
L 173.459746 76.077507 
L 168.786257 80.476085 
L 168.786257 79.10153 
L 163.552763 81.718276 
L 163.002941 80.618632 
" clip-path="url(#p51be2653b6)" style="fill: #0000ff"/>
    <path d="M 163.002941 61.427823 
L 168.236434 58.811076 
L 167.13679 57.986342 
L 173.459746 56.886698 
L 168.786257 61.285276 
L 168.786257 59.91072 
L 163.552763 62.527467 
L 163.002941 61.427823 
" clip-path="url(#p51be2653b6)" style="fill: #0000ff"/>
    <path d="M 163.002941 42.237013 
L 168.236434 39.620267 
L 167.13679 38.795533 
L 173.459746 37.695889 
L 168.786257 42.094467 
L 168.786257 40.719911 
L 163.552763 43.336658 
L 163.002941 42.237013 
" clip-path="url(#p51be2653b6)" style="fill: #0000ff"/>
    <path d="M 182.19375 310.908342 
L 187.427243 308.291595 
L 186.327599 307.466862 
L 192.650555 306.367217 
L 187.977066 310.765796 
L 187.977066 309.39124 
L 182.743572 312.007987 
L 182.19375 310.908342 
" clip-path="url(#p51be2653b6)" style="fill: #0000ff"/>
    <path d="M 182.19375 291.717533 
L 187.427243 289.100786 
L 186.327599 288.276053 
L 192.650555 287.176408 
L 187.977066 291.574986 
L 187.977066 290.200431 
L 182.743572 292.817177 
L 182.19375 291.717533 
" clip-path="url(#p51be2653b6)" style="fill: #0000ff"/>
    <path d="M 182.19375 272.526724 
L 187.427243 269.909977 
L 186.327599 269.085243 
L 192.650555 267.985599 
L 187.977066 272.384177 
L 187.977066 271.009621 
L 182.743572 273.626368 
L 182.19375 272.526724 
" clip-path="url(#p51be2653b6)" style="fill: #0000ff"/>
    <path d="M 182.19375 253.335914 
L 187.427243 250.719168 
L 186.327599 249.894434 
L 192.650555 248.79479 
L 187.977066 253.193368 
L 187.977066 251.818812 
L 182.743572 254.435559 
L 182.19375 253.335914 
" clip-path="url(#p51be2653b6)" style="fill: #0000ff"/>
    <path d="M 182.19375 234.145105 
L 187.427243 231.528358 
L 186.327599 230.703625 
L 192.650555 229.603981 
L 187.977066 234.002559 
L 187.977066 232.628003 
L 182.743572 235.24475 
L 182.19375 234.145105 
" clip-path="url(#p51be2653b6)" style="fill: #0000ff"/>
    <path d="M 182.19375 214.954296 
L 187.427243 212.337549 
L 186.327599 211.512816 
L 192.650555 210.413171 
L 187.977066 214.81175 
L 187.977066 213.437194 
L 182.743572 216.053941 
L 182.19375 214.954296 
" clip-path="url(#p51be2653b6)" style="fill: #0000ff"/>
    <path d="M 182.19375 195.763487 
L 187.427243 193.14674 
L 186.327599 192.322007 
L 192.650555 191.222362 
L 187.977066 195.62094 
L 187.977066 194.246385 
L 182.743572 196.863131 
L 182.19375 195.763487 
" clip-path="url(#p51be2653b6)" style="fill: #0000ff"/>
    <path d="M 182.19375 176.572678 
L 187.427243 173.955931 
L 186.327599 173.131198 
L 192.650555 172.031553 
L 187.977066 176.430131 
L 187.977066 175.055575 
L 182.743572 177.672322 
L 182.19375 176.572678 
" clip-path="url(#p51be2653b6)" style="fill: #0000ff"/>
    <path d="M 182.19375 157.381869 
L 187.427243 154.765122 
L 186.327599 153.940388 
L 192.650555 152.840744 
L 187.977066 157.239322 
L 187.977066 155.864766 
L 182.743572 158.481513 
L 182.19375 157.381869 
" clip-path="url(#p51be2653b6)" style="fill: #0000ff"/>
    <path d="M 182.19375 138.191059 
L 187.427243 135.574313 
L 186.327599 134.749579 
L 192.650555 133.649935 
L 187.977066 138.048513 
L 187.977066 136.673957 
L 182.743572 139.290704 
L 182.19375 138.191059 
" clip-path="url(#p51be2653b6)" style="fill: #0000ff"/>
    <path d="M 182.19375 119.00025 
L 187.427243 116.383503 
L 186.327599 115.55877 
L 192.650555 114.459125 
L 187.977066 118.857704 
L 187.977066 117.483148 
L 182.743572 120.099895 
L 182.19375 119.00025 
" clip-path="url(#p51be2653b6)" style="fill: #0000ff"/>
    <path d="M 182.19375 99.809441 
L 187.427243 97.192694 
L 186.327599 96.367961 
L 192.650555 95.268316 
L 187.977066 99.666894 
L 187.977066 98.292339 
L 182.743572 100.909086 
L 182.19375 99.809441 
" clip-path="url(#p51be2653b6)" style="fill: #0000ff"/>
    <path d="M 182.19375 80.618632 
L 187.427243 78.001885 
L 186.327599 77.177152 
L 192.650555 76.077507 
L 187.977066 80.476085 
L 187.977066 79.10153 
L 182.743572 81.718276 
L 182.19375 80.618632 
" clip-path="url(#p51be2653b6)" style="fill: #0000ff"/>
    <path d="M 182.19375 61.427823 
L 187.427243 58.811076 
L 186.327599 57.986342 
L 192.650555 56.886698 
L 187.977066 61.285276 
L 187.977066 59.91072 
L 182.743572 62.527467 
L 182.19375 61.427823 
" clip-path="url(#p51be2653b6)" style="fill: #0000ff"/>
    <path d="M 182.19375 42.237013 
L 187.427243 39.620267 
L 186.327599 38.795533 
L 192.650555 37.695889 
L 187.977066 42.094467 
L 187.977066 40.719911 
L 182.743572 43.336658 
L 182.19375 42.237013 
" clip-path="url(#p51be2653b6)" style="fill: #0000ff"/>
    <path d="M 201.384559 310.908342 
L 206.618053 308.291595 
L 205.518408 307.466862 
L 211.841364 306.367217 
L 207.167875 310.765796 
L 207.167875 309.39124 
L 201.934381 312.007987 
L 201.384559 310.908342 
" clip-path="url(#p51be2653b6)" style="fill: #0000ff"/>
    <path d="M 201.384559 291.717533 
L 206.618053 289.100786 
L 205.518408 288.276053 
L 211.841364 287.176408 
L 207.167875 291.574986 
L 207.167875 290.200431 
L 201.934381 292.817177 
L 201.384559 291.717533 
" clip-path="url(#p51be2653b6)" style="fill: #0000ff"/>
    <path d="M 201.384559 272.526724 
L 206.618053 269.909977 
L 205.518408 269.085243 
L 211.841364 267.985599 
L 207.167875 272.384177 
L 207.167875 271.009621 
L 201.934381 273.626368 
L 201.384559 272.526724 
" clip-path="url(#p51be2653b6)" style="fill: #0000ff"/>
    <path d="M 201.384559 253.335914 
L 206.618053 250.719168 
L 205.518408 249.894434 
L 211.841364 248.79479 
L 207.167875 253.193368 
L 207.167875 251.818812 
L 201.934381 254.435559 
L 201.384559 253.335914 
" clip-path="url(#p51be2653b6)" style="fill: #0000ff"/>
    <path d="M 201.384559 234.145105 
L 206.618053 231.528358 
L 205.518408 230.703625 
L 211.841364 229.603981 
L 207.167875 234.002559 
L 207.167875 232.628003 
L 201.934381 235.24475 
L 201.384559 234.145105 
" clip-path="url(#p51be2653b6)" style="fill: #0000ff"/>
    <path d="M 201.384559 214.954296 
L 206.618053 212.337549 
L 205.518408 211.512816 
L 211.841364 210.413171 
L 207.167875 214.81175 
L 207.167875 213.437194 
L 201.934381 216.053941 
L 201.384559 214.954296 
" clip-path="url(#p51be2653b6)" style="fill: #0000ff"/>
    <path d="M 201.384559 195.763487 
L 206.618053 193.14674 
L 205.518408 192.322007 
L 211.841364 191.222362 
L 207.167875 195.62094 
L 207.167875 194.246385 
L 201.934381 196.863131 
L 201.384559 195.763487 
" clip-path="url(#p51be2653b6)" style="fill: #0000ff"/>
    <path d="M 201.384559 176.572678 
L 206.618053 173.955931 
L 205.518408 173.131198 
L 211.841364 172.031553 
L 207.167875 176.430131 
L 207.167875 175.055575 
L 201.934381 177.672322 
L 201.384559 176.572678 
" clip-path="url(#p51be2653b6)" style="fill: #0000ff"/>
    <path d="M 201.384559 157.381869 
L 206.618053 154.765122 
L 205.518408 153.940388 
L 211.841364 152.840744 
L 207.167875 157.239322 
L 207.167875 155.864766 
L 201.934381 158.481513 
L 201.384559 157.381869 
" clip-path="url(#p51be2653b6)" style="fill: #0000ff"/>
    <path d="M 201.384559 138.191059 
L 206.618053 135.574313 
L 205.518408 134.749579 
L 211.841364 133.649935 
L 207.167875 138.048513 
L 207.167875 136.673957 
L 201.934381 139.290704 
L 201.384559 138.191059 
" clip-path="url(#p51be2653b6)" style="fill: #0000ff"/>
    <path d="M 201.384559 119.00025 
L 206.618053 116.383503 
L 205.518408 115.55877 
L 211.841364 114.459125 
L 207.167875 118.857704 
L 207.167875 117.483148 
L 201.934381 120.099895 
L 201.384559 119.00025 
" clip-path="url(#p51be2653b6)" style="fill: #0000ff"/>
    <path d="M 201.384559 99.809441 
L 206.618053 97.192694 
L 205.518408 96.367961 
L 211.841364 95.268316 
L 207.167875 99.666894 
L 207.167875 98.292339 
L 201.934381 100.909086 
L 201.384559 99.809441 
" clip-path="url(#p51be2653b6)" style="fill: #0000ff"/>
    <path d="M 201.384559 80.618632 
L 206.618053 78.001885 
L 205.518408 77.177152 
L 211.841364 76.077507 
L 207.167875 80.476085 
L 207.167875 79.10153 
L 201.934381 81.718276 
L 201.384559 80.618632 
" clip-path="url(#p51be2653b6)" style="fill: #0000ff"/>
    <path d="M 201.384559 61.427823 
L 206.618053 58.811076 
L 205.518408 57.986342 
L 211.841364 56.886698 
L 207.167875 61.285276 
L 207.167875 59.91072 
L 201.934381 62.527467 
L 201.384559 61.427823 
" clip-path="url(#p51be2653b6)" style="fill: #0000ff"/>
    <path d="M 201.384559 42.237013 
L 206.618053 39.620267 
L 205.518408 38.795533 
L 211.841364 37.695889 
L 207.167875 42.094467 
L 207.167875 40.719911 
L 201.934381 43.336658 
L 201.384559 42.237013 
" clip-path="url(#p51be2653b6)" style="fill: #0000ff"/>
    <path d="M 220.575368 310.908342 
L 225.808862 308.291595 
L 224.709217 307.466862 
L 231.032174 306.367217 
L 226.358684 310.765796 
L 226.358684 309.39124 
L 221.125191 312.007987 
L 220.575368 310.908342 
" clip-path="url(#p51be2653b6)" style="fill: #0000ff"/>
    <path d="M 220.575368 291.717533 
L 225.808862 289.100786 
L 224.709217 288.276053 
L 231.032174 287.176408 
L 226.358684 291.574986 
L 226.358684 290.200431 
L 221.125191 292.817177 
L 220.575368 291.717533 
" clip-path="url(#p51be2653b6)" style="fill: #0000ff"/>
    <path d="M 220.575368 272.526724 
L 225.808862 269.909977 
L 224.709217 269.085243 
L 231.032174 267.985599 
L 226.358684 272.384177 
L 226.358684 271.009621 
L 221.125191 273.626368 
L 220.575368 272.526724 
" clip-path="url(#p51be2653b6)" style="fill: #0000ff"/>
    <path d="M 220.575368 253.335914 
L 225.808862 250.719168 
L 224.709217 249.894434 
L 231.032174 248.79479 
L 226.358684 253.193368 
L 226.358684 251.818812 
L 221.125191 254.435559 
L 220.575368 253.335914 
" clip-path="url(#p51be2653b6)" style="fill: #0000ff"/>
    <path d="M 220.575368 234.145105 
L 225.808862 231.528358 
L 224.709217 230.703625 
L 231.032174 229.603981 
L 226.358684 234.002559 
L 226.358684 232.628003 
L 221.125191 235.24475 
L 220.575368 234.145105 
" clip-path="url(#p51be2653b6)" style="fill: #0000ff"/>
    <path d="M 220.575368 214.954296 
L 225.808862 212.337549 
L 224.709217 211.512816 
L 231.032174 210.413171 
L 226.358684 214.81175 
L 226.358684 213.437194 
L 221.125191 216.053941 
L 220.575368 214.954296 
" clip-path="url(#p51be2653b6)" style="fill: #0000ff"/>
    <path d="M 220.575368 195.763487 
L 225.808862 193.14674 
L 224.709217 192.322007 
L 231.032174 191.222362 
L 226.358684 195.62094 
L 226.358684 194.246385 
L 221.125191 196.863131 
L 220.575368 195.763487 
" clip-path="url(#p51be2653b6)" style="fill: #0000ff"/>
    <path d="M 220.575368 176.572678 
L 225.808862 173.955931 
L 224.709217 173.131198 
L 231.032174 172.031553 
L 226.358684 176.430131 
L 226.358684 175.055575 
L 221.125191 177.672322 
L 220.575368 176.572678 
" clip-path="url(#p51be2653b6)" style="fill: #0000ff"/>
    <path d="M 220.575368 157.381869 
L 225.808862 154.765122 
L 224.709217 153.940388 
L 231.032174 152.840744 
L 226.358684 157.239322 
L 226.358684 155.864766 
L 221.125191 158.481513 
L 220.575368 157.381869 
" clip-path="url(#p51be2653b6)" style="fill: #0000ff"/>
    <path d="M 220.575368 138.191059 
L 225.808862 135.574313 
L 224.709217 134.749579 
L 231.032174 133.649935 
L 226.358684 138.048513 
L 226.358684 136.673957 
L 221.125191 139.290704 
L 220.575368 138.191059 
" clip-path="url(#p51be2653b6)" style="fill: #0000ff"/>
    <path d="M 220.575368 119.00025 
L 225.808862 116.383503 
L 224.709217 115.55877 
L 231.032174 114.459125 
L 226.358684 118.857704 
L 226.358684 117.483148 
L 221.125191 120.099895 
L 220.575368 119.00025 
" clip-path="url(#p51be2653b6)" style="fill: #0000ff"/>
    <path d="M 220.575368 99.809441 
L 225.808862 97.192694 
L 224.709217 96.367961 
L 231.032174 95.268316 
L 226.358684 99.666894 
L 226.358684 98.292339 
L 221.125191 100.909086 
L 220.575368 99.809441 
" clip-path="url(#p51be2653b6)" style="fill: #0000ff"/>
    <path d="M 220.575368 80.618632 
L 225.808862 78.001885 
L 224.709217 77.177152 
L 231.032174 76.077507 
L 226.358684 80.476085 
L 226.358684 79.10153 
L 221.125191 81.718276 
L 220.575368 80.618632 
" clip-path="url(#p51be2653b6)" style="fill: #0000ff"/>
    <path d="M 220.575368 61.427823 
L 225.808862 58.811076 
L 224.709217 57.986342 
L 231.032174 56.886698 
L 226.358684 61.285276 
L 226.358684 59.91072 
L 221.125191 62.527467 
L 220.575368 61.427823 
" clip-path="url(#p51be2653b6)" style="fill: #0000ff"/>
    <path d="M 220.575368 42.237013 
L 225.808862 39.620267 
L 224.709217 38.795533 
L 231.032174 37.695889 
L 226.358684 42.094467 
L 226.358684 40.719911 
L 221.125191 43.336658 
L 220.575368 42.237013 
" clip-path="url(#p51be2653b6)" style="fill: #0000ff"/>
    <path d="M 239.766177 310.908342 
L 244.999671 308.291595 
L 243.900026 307.466862 
L 250.222983 306.367217 
L 245.549493 310.765796 
L 245.549493 309.39124 
L 240.316 312.007987 
L 239.766177 310.908342 
" clip-path="url(#p51be2653b6)" style="fill: #0000ff"/>
    <path d="M 239.766177 291.717533 
L 244.999671 289.100786 
L 243.900026 288.276053 
L 250.222983 287.176408 
L 245.549493 291.574986 
L 245.549493 290.200431 
L 240.316 292.817177 
L 239.766177 291.717533 
" clip-path="url(#p51be2653b6)" style="fill: #0000ff"/>
    <path d="M 239.766177 272.526724 
L 244.999671 269.909977 
L 243.900026 269.085243 
L 250.222983 267.985599 
L 245.549493 272.384177 
L 245.549493 271.009621 
L 240.316 273.626368 
L 239.766177 272.526724 
" clip-path="url(#p51be2653b6)" style="fill: #0000ff"/>
    <path d="M 239.766177 253.335914 
L 244.999671 250.719168 
L 243.900026 249.894434 
L 250.222983 248.79479 
L 245.549493 253.193368 
L 245.549493 251.818812 
L 240.316 254.435559 
L 239.766177 253.335914 
" clip-path="url(#p51be2653b6)" style="fill: #0000ff"/>
    <path d="M 239.766177 234.145105 
L 244.999671 231.528358 
L 243.900026 230.703625 
L 250.222983 229.603981 
L 245.549493 234.002559 
L 245.549493 232.628003 
L 240.316 235.24475 
L 239.766177 234.145105 
" clip-path="url(#p51be2653b6)" style="fill: #0000ff"/>
    <path d="M 239.766177 214.954296 
L 244.999671 212.337549 
L 243.900026 211.512816 
L 250.222983 210.413171 
L 245.549493 214.81175 
L 245.549493 213.437194 
L 240.316 216.053941 
L 239.766177 214.954296 
" clip-path="url(#p51be2653b6)" style="fill: #0000ff"/>
    <path d="M 239.766177 195.763487 
L 244.999671 193.14674 
L 243.900026 192.322007 
L 250.222983 191.222362 
L 245.549493 195.62094 
L 245.549493 194.246385 
L 240.316 196.863131 
L 239.766177 195.763487 
" clip-path="url(#p51be2653b6)" style="fill: #0000ff"/>
    <path d="M 239.766177 176.572678 
L 244.999671 173.955931 
L 243.900026 173.131198 
L 250.222983 172.031553 
L 245.549493 176.430131 
L 245.549493 175.055575 
L 240.316 177.672322 
L 239.766177 176.572678 
" clip-path="url(#p51be2653b6)" style="fill: #0000ff"/>
    <path d="M 239.766177 157.381869 
L 244.999671 154.765122 
L 243.900026 153.940388 
L 250.222983 152.840744 
L 245.549493 157.239322 
L 245.549493 155.864766 
L 240.316 158.481513 
L 239.766177 157.381869 
" clip-path="url(#p51be2653b6)" style="fill: #0000ff"/>
    <path d="M 239.766177 138.191059 
L 244.999671 135.574313 
L 243.900026 134.749579 
L 250.222983 133.649935 
L 245.549493 138.048513 
L 245.549493 136.673957 
L 240.316 139.290704 
L 239.766177 138.191059 
" clip-path="url(#p51be2653b6)" style="fill: #0000ff"/>
    <path d="M 239.766177 119.00025 
L 244.999671 116.383503 
L 243.900026 115.55877 
L 250.222983 114.459125 
L 245.549493 118.857704 
L 245.549493 117.483148 
L 240.316 120.099895 
L 239.766177 119.00025 
" clip-path="url(#p51be2653b6)" style="fill: #0000ff"/>
    <path d="M 239.766177 99.809441 
L 244.999671 97.192694 
L 243.900026 96.367961 
L 250.222983 95.268316 
L 245.549493 99.666894 
L 245.549493 98.292339 
L 240.316 100.909086 
L 239.766177 99.809441 
" clip-path="url(#p51be2653b6)" style="fill: #0000ff"/>
    <path d="M 239.766177 80.618632 
L 244.999671 78.001885 
L 243.900026 77.177152 
L 250.222983 76.077507 
L 245.549493 80.476085 
L 245.549493 79.10153 
L 240.316 81.718276 
L 239.766177 80.618632 
" clip-path="url(#p51be2653b6)" style="fill: #0000ff"/>
    <path d="M 239.766177 61.427823 
L 244.999671 58.811076 
L 243.900026 57.986342 
L 250.222983 56.886698 
L 245.549493 61.285276 
L 245.549493 59.91072 
L 240.316 62.527467 
L 239.766177 61.427823 
" clip-path="url(#p51be2653b6)" style="fill: #0000ff"/>
    <path d="M 239.766177 42.237013 
L 244.999671 39.620267 
L 243.900026 38.795533 
L 250.222983 37.695889 
L 245.549493 42.094467 
L 245.549493 40.719911 
L 240.316 43.336658 
L 239.766177 42.237013 
" clip-path="url(#p51be2653b6)" style="fill: #0000ff"/>
    <path d="M 258.956987 310.908342 
L 264.19048 308.291595 
L 263.090836 307.466862 
L 269.413792 306.367217 
L 264.740303 310.765796 
L 264.740303 309.39124 
L 259.506809 312.007987 
L 258.956987 310.908342 
" clip-path="url(#p51be2653b6)" style="fill: #0000ff"/>
    <path d="M 258.956987 291.717533 
L 264.19048 289.100786 
L 263.090836 288.276053 
L 269.413792 287.176408 
L 264.740303 291.574986 
L 264.740303 290.200431 
L 259.506809 292.817177 
L 258.956987 291.717533 
" clip-path="url(#p51be2653b6)" style="fill: #0000ff"/>
    <path d="M 258.956987 272.526724 
L 264.19048 269.909977 
L 263.090836 269.085243 
L 269.413792 267.985599 
L 264.740303 272.384177 
L 264.740303 271.009621 
L 259.506809 273.626368 
L 258.956987 272.526724 
" clip-path="url(#p51be2653b6)" style="fill: #0000ff"/>
    <path d="M 258.956987 253.335914 
L 264.19048 250.719168 
L 263.090836 249.894434 
L 269.413792 248.79479 
L 264.740303 253.193368 
L 264.740303 251.818812 
L 259.506809 254.435559 
L 258.956987 253.335914 
" clip-path="url(#p51be2653b6)" style="fill: #0000ff"/>
    <path d="M 258.956987 234.145105 
L 264.19048 231.528358 
L 263.090836 230.703625 
L 269.413792 229.603981 
L 264.740303 234.002559 
L 264.740303 232.628003 
L 259.506809 235.24475 
L 258.956987 234.145105 
" clip-path="url(#p51be2653b6)" style="fill: #0000ff"/>
    <path d="M 258.956987 214.954296 
L 264.19048 212.337549 
L 263.090836 211.512816 
L 269.413792 210.413171 
L 264.740303 214.81175 
L 264.740303 213.437194 
L 259.506809 216.053941 
L 258.956987 214.954296 
" clip-path="url(#p51be2653b6)" style="fill: #0000ff"/>
    <path d="M 258.956987 195.763487 
L 264.19048 193.14674 
L 263.090836 192.322007 
L 269.413792 191.222362 
L 264.740303 195.62094 
L 264.740303 194.246385 
L 259.506809 196.863131 
L 258.956987 195.763487 
" clip-path="url(#p51be2653b6)" style="fill: #0000ff"/>
    <path d="M 258.956987 176.572678 
L 264.19048 173.955931 
L 263.090836 173.131198 
L 269.413792 172.031553 
L 264.740303 176.430131 
L 264.740303 175.055575 
L 259.506809 177.672322 
L 258.956987 176.572678 
" clip-path="url(#p51be2653b6)" style="fill: #0000ff"/>
    <path d="M 258.956987 157.381869 
L 264.19048 154.765122 
L 263.090836 153.940388 
L 269.413792 152.840744 
L 264.740303 157.239322 
L 264.740303 155.864766 
L 259.506809 158.481513 
L 258.956987 157.381869 
" clip-path="url(#p51be2653b6)" style="fill: #0000ff"/>
    <path d="M 258.956987 138.191059 
L 264.19048 135.574313 
L 263.090836 134.749579 
L 269.413792 133.649935 
L 264.740303 138.048513 
L 264.740303 136.673957 
L 259.506809 139.290704 
L 258.956987 138.191059 
" clip-path="url(#p51be2653b6)" style="fill: #0000ff"/>
    <path d="M 258.956987 119.00025 
L 264.19048 116.383503 
L 263.090836 115.55877 
L 269.413792 114.459125 
L 264.740303 118.857704 
L 264.740303 117.483148 
L 259.506809 120.099895 
L 258.956987 119.00025 
" clip-path="url(#p51be2653b6)" style="fill: #0000ff"/>
    <path d="M 258.956987 99.809441 
L 264.19048 97.192694 
L 263.090836 96.367961 
L 269.413792 95.268316 
L 264.740303 99.666894 
L 264.740303 98.292339 
L 259.506809 100.909086 
L 258.956987 99.809441 
" clip-path="url(#p51be2653b6)" style="fill: #0000ff"/>
    <path d="M 258.956987 80.618632 
L 264.19048 78.001885 
L 263.090836 77.177152 
L 269.413792 76.077507 
L 264.740303 80.476085 
L 264.740303 79.10153 
L 259.506809 81.718276 
L 258.956987 80.618632 
" clip-path="url(#p51be2653b6)" style="fill: #0000ff"/>
    <path d="M 258.956987 61.427823 
L 264.19048 58.811076 
L 263.090836 57.986342 
L 269.413792 56.886698 
L 264.740303 61.285276 
L 264.740303 59.91072 
L 259.506809 62.527467 
L 258.956987 61.427823 
" clip-path="url(#p51be2653b6)" style="fill: #0000ff"/>
    <path d="M 258.956987 42.237013 
L 264.19048 39.620267 
L 263.090836 38.795533 
L 269.413792 37.695889 
L 264.740303 42.094467 
L 264.740303 40.719911 
L 259.506809 43.336658 
L 258.956987 42.237013 
" clip-path="url(#p51be2653b6)" style="fill: #0000ff"/>
    <path d="M 278.147796 310.908342 
L 283.381289 308.291595 
L 282.281645 307.466862 
L 288.604601 306.367217 
L 283.931112 310.765796 
L 283.931112 309.39124 
L 278.697618 312.007987 
L 278.147796 310.908342 
" clip-path="url(#p51be2653b6)" style="fill: #0000ff"/>
    <path d="M 278.147796 291.717533 
L 283.381289 289.100786 
L 282.281645 288.276053 
L 288.604601 287.176408 
L 283.931112 291.574986 
L 283.931112 290.200431 
L 278.697618 292.817177 
L 278.147796 291.717533 
" clip-path="url(#p51be2653b6)" style="fill: #0000ff"/>
    <path d="M 278.147796 272.526724 
L 283.381289 269.909977 
L 282.281645 269.085243 
L 288.604601 267.985599 
L 283.931112 272.384177 
L 283.931112 271.009621 
L 278.697618 273.626368 
L 278.147796 272.526724 
" clip-path="url(#p51be2653b6)" style="fill: #0000ff"/>
    <path d="M 278.147796 253.335914 
L 283.381289 250.719168 
L 282.281645 249.894434 
L 288.604601 248.79479 
L 283.931112 253.193368 
L 283.931112 251.818812 
L 278.697618 254.435559 
L 278.147796 253.335914 
" clip-path="url(#p51be2653b6)" style="fill: #0000ff"/>
    <path d="M 278.147796 234.145105 
L 283.381289 231.528358 
L 282.281645 230.703625 
L 288.604601 229.603981 
L 283.931112 234.002559 
L 283.931112 232.628003 
L 278.697618 235.24475 
L 278.147796 234.145105 
" clip-path="url(#p51be2653b6)" style="fill: #0000ff"/>
    <path d="M 278.147796 214.954296 
L 283.381289 212.337549 
L 282.281645 211.512816 
L 288.604601 210.413171 
L 283.931112 214.81175 
L 283.931112 213.437194 
L 278.697618 216.053941 
L 278.147796 214.954296 
" clip-path="url(#p51be2653b6)" style="fill: #0000ff"/>
    <path d="M 278.147796 195.763487 
L 283.381289 193.14674 
L 282.281645 192.322007 
L 288.604601 191.222362 
L 283.931112 195.62094 
L 283.931112 194.246385 
L 278.697618 196.863131 
L 278.147796 195.763487 
" clip-path="url(#p51be2653b6)" style="fill: #0000ff"/>
    <path d="M 278.147796 176.572678 
L 283.381289 173.955931 
L 282.281645 173.131198 
L 288.604601 172.031553 
L 283.931112 176.430131 
L 283.931112 175.055575 
L 278.697618 177.672322 
L 278.147796 176.572678 
" clip-path="url(#p51be2653b6)" style="fill: #0000ff"/>
    <path d="M 278.147796 157.381869 
L 283.381289 154.765122 
L 282.281645 153.940388 
L 288.604601 152.840744 
L 283.931112 157.239322 
L 283.931112 155.864766 
L 278.697618 158.481513 
L 278.147796 157.381869 
" clip-path="url(#p51be2653b6)" style="fill: #0000ff"/>
    <path d="M 278.147796 138.191059 
L 283.381289 135.574313 
L 282.281645 134.749579 
L 288.604601 133.649935 
L 283.931112 138.048513 
L 283.931112 136.673957 
L 278.697618 139.290704 
L 278.147796 138.191059 
" clip-path="url(#p51be2653b6)" style="fill: #0000ff"/>
    <path d="M 278.147796 119.00025 
L 283.381289 116.383503 
L 282.281645 115.55877 
L 288.604601 114.459125 
L 283.931112 118.857704 
L 283.931112 117.483148 
L 278.697618 120.099895 
L 278.147796 119.00025 
" clip-path="url(#p51be2653b6)" style="fill: #0000ff"/>
    <path d="M 278.147796 99.809441 
L 283.381289 97.192694 
L 282.281645 96.367961 
L 288.604601 95.268316 
L 283.931112 99.666894 
L 283.931112 98.292339 
L 278.697618 100.909086 
L 278.147796 99.809441 
" clip-path="url(#p51be2653b6)" style="fill: #0000ff"/>
    <path d="M 278.147796 80.618632 
L 283.381289 78.001885 
L 282.281645 77.177152 
L 288.604601 76.077507 
L 283.931112 80.476085 
L 283.931112 79.10153 
L 278.697618 81.718276 
L 278.147796 80.618632 
" clip-path="url(#p51be2653b6)" style="fill: #0000ff"/>
    <path d="M 278.147796 61.427823 
L 283.381289 58.811076 
L 282.281645 57.986342 
L 288.604601 56.886698 
L 283.931112 61.285276 
L 283.931112 59.91072 
L 278.697618 62.527467 
L 278.147796 61.427823 
" clip-path="url(#p51be2653b6)" style="fill: #0000ff"/>
    <path d="M 278.147796 42.237013 
L 283.381289 39.620267 
L 282.281645 38.795533 
L 288.604601 37.695889 
L 283.931112 42.094467 
L 283.931112 40.719911 
L 278.697618 43.336658 
L 278.147796 42.237013 
" clip-path="url(#p51be2653b6)" style="fill: #0000ff"/>
    <path d="M 297.338605 310.908342 
L 302.572099 308.291595 
L 301.472454 307.466862 
L 307.79541 306.367217 
L 303.121921 310.765796 
L 303.121921 309.39124 
L 297.888427 312.007987 
L 297.338605 310.908342 
" clip-path="url(#p51be2653b6)" style="fill: #0000ff"/>
    <path d="M 297.338605 291.717533 
L 302.572099 289.100786 
L 301.472454 288.276053 
L 307.79541 287.176408 
L 303.121921 291.574986 
L 303.121921 290.200431 
L 297.888427 292.817177 
L 297.338605 291.717533 
" clip-path="url(#p51be2653b6)" style="fill: #0000ff"/>
    <path d="M 297.338605 272.526724 
L 302.572099 269.909977 
L 301.472454 269.085243 
L 307.79541 267.985599 
L 303.121921 272.384177 
L 303.121921 271.009621 
L 297.888427 273.626368 
L 297.338605 272.526724 
" clip-path="url(#p51be2653b6)" style="fill: #0000ff"/>
    <path d="M 297.338605 253.335914 
L 302.572099 250.719168 
L 301.472454 249.894434 
L 307.79541 248.79479 
L 303.121921 253.193368 
L 303.121921 251.818812 
L 297.888427 254.435559 
L 297.338605 253.335914 
" clip-path="url(#p51be2653b6)" style="fill: #0000ff"/>
    <path d="M 297.338605 234.145105 
L 302.572099 231.528358 
L 301.472454 230.703625 
L 307.79541 229.603981 
L 303.121921 234.002559 
L 303.121921 232.628003 
L 297.888427 235.24475 
L 297.338605 234.145105 
" clip-path="url(#p51be2653b6)" style="fill: #0000ff"/>
    <path d="M 297.338605 214.954296 
L 302.572099 212.337549 
L 301.472454 211.512816 
L 307.79541 210.413171 
L 303.121921 214.81175 
L 303.121921 213.437194 
L 297.888427 216.053941 
L 297.338605 214.954296 
" clip-path="url(#p51be2653b6)" style="fill: #0000ff"/>
    <path d="M 297.338605 195.763487 
L 302.572099 193.14674 
L 301.472454 192.322007 
L 307.79541 191.222362 
L 303.121921 195.62094 
L 303.121921 194.246385 
L 297.888427 196.863131 
L 297.338605 195.763487 
" clip-path="url(#p51be2653b6)" style="fill: #0000ff"/>
    <path d="M 297.338605 176.572678 
L 302.572099 173.955931 
L 301.472454 173.131198 
L 307.79541 172.031553 
L 303.121921 176.430131 
L 303.121921 175.055575 
L 297.888427 177.672322 
L 297.338605 176.572678 
" clip-path="url(#p51be2653b6)" style="fill: #0000ff"/>
    <path d="M 297.338605 157.381869 
L 302.572099 154.765122 
L 301.472454 153.940388 
L 307.79541 152.840744 
L 303.121921 157.239322 
L 303.121921 155.864766 
L 297.888427 158.481513 
L 297.338605 157.381869 
" clip-path="url(#p51be2653b6)" style="fill: #0000ff"/>
    <path d="M 297.338605 138.191059 
L 302.572099 135.574313 
L 301.472454 134.749579 
L 307.79541 133.649935 
L 303.121921 138.048513 
L 303.121921 136.673957 
L 297.888427 139.290704 
L 297.338605 138.191059 
" clip-path="url(#p51be2653b6)" style="fill: #0000ff"/>
    <path d="M 297.338605 119.00025 
L 302.572099 116.383503 
L 301.472454 115.55877 
L 307.79541 114.459125 
L 303.121921 118.857704 
L 303.121921 117.483148 
L 297.888427 120.099895 
L 297.338605 119.00025 
" clip-path="url(#p51be2653b6)" style="fill: #0000ff"/>
    <path d="M 297.338605 99.809441 
L 302.572099 97.192694 
L 301.472454 96.367961 
L 307.79541 95.268316 
L 303.121921 99.666894 
L 303.121921 98.292339 
L 297.888427 100.909086 
L 297.338605 99.809441 
" clip-path="url(#p51be2653b6)" style="fill: #0000ff"/>
    <path d="M 297.338605 80.618632 
L 302.572099 78.001885 
L 301.472454 77.177152 
L 307.79541 76.077507 
L 303.121921 80.476085 
L 303.121921 79.10153 
L 297.888427 81.718276 
L 297.338605 80.618632 
" clip-path="url(#p51be2653b6)" style="fill: #0000ff"/>
    <path d="M 297.338605 61.427823 
L 302.572099 58.811076 
L 301.472454 57.986342 
L 307.79541 56.886698 
L 303.121921 61.285276 
L 303.121921 59.91072 
L 297.888427 62.527467 
L 297.338605 61.427823 
" clip-path="url(#p51be2653b6)" style="fill: #0000ff"/>
    <path d="M 297.338605 42.237013 
L 302.572099 39.620267 
L 301.472454 38.795533 
L 307.79541 37.695889 
L 303.121921 42.094467 
L 303.121921 40.719911 
L 297.888427 43.336658 
L 297.338605 42.237013 
" clip-path="url(#p51be2653b6)" style="fill: #0000ff"/>
   </g>
   <g id="matplotlib.axis_1">
    <g id="xtick_1">
     <g id="line2d_1">
      <defs>
       <path id="m12a07c2c80" d="M 0 0 
L 0 3.5 
" style="stroke: #000000; stroke-width: 0.8"/>
      </defs>
      <g>
       <use xlink:href="#m12a07c2c80" x="28.942188" y="150.255367" style="stroke: #000000; stroke-width: 0.8"/>
      </g>
     </g>
    </g>
    <g id="xtick_2">
     <g id="line2d_2">
      <g>
       <use xlink:href="#m12a07c2c80" x="82.676453" y="150.255367" style="stroke: #000000; stroke-width: 0.8"/>
      </g>
     </g>
     <g id="text_1">
      <!-- 1 -->
      <g transform="translate(79.495203 164.853805) scale(0.1 -0.1)">
       <defs>
        <path id="DejaVuSans-31" d="M 794 531 
L 1825 531 
L 1825 4091 
L 703 3866 
L 703 4441 
L 1819 4666 
L 2450 4666 
L 2450 531 
L 3481 531 
L 3481 0 
L 794 0 
L 794 531 
z
" transform="scale(0.015625)"/>
       </defs>
       <use xlink:href="#DejaVuSans-31"/>
      </g>
     </g>
    </g>
    <g id="xtick_3">
     <g id="line2d_3">
      <g>
       <use xlink:href="#m12a07c2c80" x="136.410719" y="150.255367" style="stroke: #000000; stroke-width: 0.8"/>
      </g>
     </g>
     <g id="text_2">
      <!-- 2 -->
      <g transform="translate(133.229469 164.853805) scale(0.1 -0.1)">
       <defs>
        <path id="DejaVuSans-32" d="M 1228 531 
L 3431 531 
L 3431 0 
L 469 0 
L 469 531 
Q 828 903 1448 1529 
Q 2069 2156 2228 2338 
Q 2531 2678 2651 2914 
Q 2772 3150 2772 3378 
Q 2772 3750 2511 3984 
Q 2250 4219 1831 4219 
Q 1534 4219 1204 4116 
Q 875 4013 500 3803 
L 500 4441 
Q 881 4594 1212 4672 
Q 1544 4750 1819 4750 
Q 2544 4750 2975 4387 
Q 3406 4025 3406 3419 
Q 3406 3131 3298 2873 
Q 3191 2616 2906 2266 
Q 2828 2175 2409 1742 
Q 1991 1309 1228 531 
z
" transform="scale(0.015625)"/>
       </defs>
       <use xlink:href="#DejaVuSans-32"/>
      </g>
     </g>
    </g>
    <g id="xtick_4">
     <g id="line2d_4">
      <g>
       <use xlink:href="#m12a07c2c80" x="190.144985" y="150.255367" style="stroke: #000000; stroke-width: 0.8"/>
      </g>
     </g>
     <g id="text_3">
      <!-- 3 -->
      <g transform="translate(186.963735 164.853805) scale(0.1 -0.1)">
       <defs>
        <path id="DejaVuSans-33" d="M 2597 2516 
Q 3050 2419 3304 2112 
Q 3559 1806 3559 1356 
Q 3559 666 3084 287 
Q 2609 -91 1734 -91 
Q 1441 -91 1130 -33 
Q 819 25 488 141 
L 488 750 
Q 750 597 1062 519 
Q 1375 441 1716 441 
Q 2309 441 2620 675 
Q 2931 909 2931 1356 
Q 2931 1769 2642 2001 
Q 2353 2234 1838 2234 
L 1294 2234 
L 1294 2753 
L 1863 2753 
Q 2328 2753 2575 2939 
Q 2822 3125 2822 3475 
Q 2822 3834 2567 4026 
Q 2313 4219 1838 4219 
Q 1578 4219 1281 4162 
Q 984 4106 628 3988 
L 628 4550 
Q 988 4650 1302 4700 
Q 1616 4750 1894 4750 
Q 2613 4750 3031 4423 
Q 3450 4097 3450 3541 
Q 3450 3153 3228 2886 
Q 3006 2619 2597 2516 
z
" transform="scale(0.015625)"/>
       </defs>
       <use xlink:href="#DejaVuSans-33"/>
      </g>
     </g>
    </g>
    <g id="xtick_5">
     <g id="line2d_5">
      <g>
       <use xlink:href="#m12a07c2c80" x="243.87925" y="150.255367" style="stroke: #000000; stroke-width: 0.8"/>
      </g>
     </g>
     <g id="text_4">
      <!-- 4 -->
      <g transform="translate(240.698 164.853805) scale(0.1 -0.1)">
       <defs>
        <path id="DejaVuSans-34" d="M 2419 4116 
L 825 1625 
L 2419 1625 
L 2419 4116 
z
M 2253 4666 
L 3047 4666 
L 3047 1625 
L 3713 1625 
L 3713 1100 
L 3047 1100 
L 3047 0 
L 2419 0 
L 2419 1100 
L 313 1100 
L 313 1709 
L 2253 4666 
z
" transform="scale(0.015625)"/>
       </defs>
       <use xlink:href="#DejaVuSans-34"/>
      </g>
     </g>
    </g>
    <g id="xtick_6">
     <g id="line2d_6">
      <g>
       <use xlink:href="#m12a07c2c80" x="297.613516" y="150.255367" style="stroke: #000000; stroke-width: 0.8"/>
      </g>
     </g>
     <g id="text_5">
      <!-- 5 -->
      <g transform="translate(294.432266 164.853805) scale(0.1 -0.1)">
       <defs>
        <path id="DejaVuSans-35" d="M 691 4666 
L 3169 4666 
L 3169 4134 
L 1269 4134 
L 1269 2991 
Q 1406 3038 1543 3061 
Q 1681 3084 1819 3084 
Q 2600 3084 3056 2656 
Q 3513 2228 3513 1497 
Q 3513 744 3044 326 
Q 2575 -91 1722 -91 
Q 1428 -91 1123 -41 
Q 819 9 494 109 
L 494 744 
Q 775 591 1075 516 
Q 1375 441 1709 441 
Q 2250 441 2565 725 
Q 2881 1009 2881 1497 
Q 2881 1984 2565 2268 
Q 2250 2553 1709 2553 
Q 1456 2553 1204 2497 
Q 953 2441 691 2322 
L 691 4666 
z
" transform="scale(0.015625)"/>
       </defs>
       <use xlink:href="#DejaVuSans-35"/>
      </g>
     </g>
    </g>
    <g id="xtick_7">
     <g id="line2d_7">
      <defs>
       <path id="m9292bd28f7" d="M 0 0 
L 0 2 
" style="stroke: #000000; stroke-width: 0.6"/>
      </defs>
      <g>
       <use xlink:href="#m9292bd28f7" x="18.195334" y="150.255367" style="stroke: #000000; stroke-width: 0.6"/>
      </g>
     </g>
    </g>
    <g id="xtick_8">
     <g id="line2d_8">
      <g>
       <use xlink:href="#m9292bd28f7" x="39.689041" y="150.255367" style="stroke: #000000; stroke-width: 0.6"/>
      </g>
     </g>
    </g>
    <g id="xtick_9">
     <g id="line2d_9">
      <g>
       <use xlink:href="#m9292bd28f7" x="50.435894" y="150.255367" style="stroke: #000000; stroke-width: 0.6"/>
      </g>
     </g>
    </g>
    <g id="xtick_10">
     <g id="line2d_10">
      <g>
       <use xlink:href="#m9292bd28f7" x="61.182747" y="150.255367" style="stroke: #000000; stroke-width: 0.6"/>
      </g>
     </g>
    </g>
    <g id="xtick_11">
     <g id="line2d_11">
      <g>
       <use xlink:href="#m9292bd28f7" x="71.9296" y="150.255367" style="stroke: #000000; stroke-width: 0.6"/>
      </g>
     </g>
    </g>
    <g id="xtick_12">
     <g id="line2d_12">
      <g>
       <use xlink:href="#m9292bd28f7" x="93.423306" y="150.255367" style="stroke: #000000; stroke-width: 0.6"/>
      </g>
     </g>
    </g>
    <g id="xtick_13">
     <g id="line2d_13">
      <g>
       <use xlink:href="#m9292bd28f7" x="104.17016" y="150.255367" style="stroke: #000000; stroke-width: 0.6"/>
      </g>
     </g>
    </g>
    <g id="xtick_14">
     <g id="line2d_14">
      <g>
       <use xlink:href="#m9292bd28f7" x="114.917013" y="150.255367" style="stroke: #000000; stroke-width: 0.6"/>
      </g>
     </g>
    </g>
    <g id="xtick_15">
     <g id="line2d_15">
      <g>
       <use xlink:href="#m9292bd28f7" x="125.663866" y="150.255367" style="stroke: #000000; stroke-width: 0.6"/>
      </g>
     </g>
    </g>
    <g id="xtick_16">
     <g id="line2d_16">
      <g>
       <use xlink:href="#m9292bd28f7" x="147.157572" y="150.255367" style="stroke: #000000; stroke-width: 0.6"/>
      </g>
     </g>
    </g>
    <g id="xtick_17">
     <g id="line2d_17">
      <g>
       <use xlink:href="#m9292bd28f7" x="157.904425" y="150.255367" style="stroke: #000000; stroke-width: 0.6"/>
      </g>
     </g>
    </g>
    <g id="xtick_18">
     <g id="line2d_18">
      <g>
       <use xlink:href="#m9292bd28f7" x="168.651278" y="150.255367" style="stroke: #000000; stroke-width: 0.6"/>
      </g>
     </g>
    </g>
    <g id="xtick_19">
     <g id="line2d_19">
      <g>
       <use xlink:href="#m9292bd28f7" x="179.398132" y="150.255367" style="stroke: #000000; stroke-width: 0.6"/>
      </g>
     </g>
    </g>
    <g id="xtick_20">
     <g id="line2d_20">
      <g>
       <use xlink:href="#m9292bd28f7" x="200.891838" y="150.255367" style="stroke: #000000; stroke-width: 0.6"/>
      </g>
     </g>
    </g>
    <g id="xtick_21">
     <g id="line2d_21">
      <g>
       <use xlink:href="#m9292bd28f7" x="211.638691" y="150.255367" style="stroke: #000000; stroke-width: 0.6"/>
      </g>
     </g>
    </g>
    <g id="xtick_22">
     <g id="line2d_22">
      <g>
       <use xlink:href="#m9292bd28f7" x="222.385544" y="150.255367" style="stroke: #000000; stroke-width: 0.6"/>
      </g>
     </g>
    </g>
    <g id="xtick_23">
     <g id="line2d_23">
      <g>
       <use xlink:href="#m9292bd28f7" x="233.132397" y="150.255367" style="stroke: #000000; stroke-width: 0.6"/>
      </g>
     </g>
    </g>
    <g id="xtick_24">
     <g id="line2d_24">
      <g>
       <use xlink:href="#m9292bd28f7" x="254.626104" y="150.255367" style="stroke: #000000; stroke-width: 0.6"/>
      </g>
     </g>
    </g>
    <g id="xtick_25">
     <g id="line2d_25">
      <g>
       <use xlink:href="#m9292bd28f7" x="265.372957" y="150.255367" style="stroke: #000000; stroke-width: 0.6"/>
      </g>
     </g>
    </g>
    <g id="xtick_26">
     <g id="line2d_26">
      <g>
       <use xlink:href="#m9292bd28f7" x="276.11981" y="150.255367" style="stroke: #000000; stroke-width: 0.6"/>
      </g>
     </g>
    </g>
    <g id="xtick_27">
     <g id="line2d_27">
      <g>
       <use xlink:href="#m9292bd28f7" x="286.866663" y="150.255367" style="stroke: #000000; stroke-width: 0.6"/>
      </g>
     </g>
    </g>
    <g id="xtick_28">
     <g id="line2d_28">
      <g>
       <use xlink:href="#m9292bd28f7" x="308.360369" y="150.255367" style="stroke: #000000; stroke-width: 0.6"/>
      </g>
     </g>
    </g>
    <g id="text_6">
     <!-- $x$ -->
     <g transform="translate(324.957852 150.255367) scale(0.16 -0.16)">
      <defs>
       <path id="Cmmi10-78" d="M 500 184 
Q 613 97 819 97 
Q 1019 97 1172 289 
Q 1325 481 1381 709 
L 1672 1844 
Q 1741 2153 1741 2266 
Q 1741 2425 1652 2544 
Q 1563 2663 1403 2663 
Q 1200 2663 1022 2536 
Q 844 2409 722 2214 
Q 600 2019 550 1819 
Q 538 1778 500 1778 
L 422 1778 
Q 372 1778 372 1838 
L 372 1856 
Q 434 2094 584 2320 
Q 734 2547 951 2687 
Q 1169 2828 1416 2828 
Q 1650 2828 1839 2703 
Q 2028 2578 2106 2363 
Q 2216 2559 2386 2693 
Q 2556 2828 2759 2828 
Q 2897 2828 3040 2779 
Q 3184 2731 3275 2631 
Q 3366 2531 3366 2381 
Q 3366 2219 3261 2101 
Q 3156 1984 2994 1984 
Q 2891 1984 2822 2050 
Q 2753 2116 2753 2216 
Q 2753 2350 2845 2451 
Q 2938 2553 3066 2572 
Q 2950 2663 2747 2663 
Q 2541 2663 2389 2472 
Q 2238 2281 2175 2047 
L 1894 916 
Q 1825 659 1825 494 
Q 1825 331 1917 214 
Q 2009 97 2163 97 
Q 2463 97 2698 361 
Q 2934 625 3009 941 
Q 3022 978 3059 978 
L 3138 978 
Q 3163 978 3178 961 
Q 3194 944 3194 922 
Q 3194 916 3188 903 
Q 3097 522 2806 225 
Q 2516 -72 2150 -72 
Q 1916 -72 1727 54 
Q 1538 181 1459 397 
Q 1359 209 1182 68 
Q 1006 -72 806 -72 
Q 669 -72 523 -23 
Q 378 25 287 125 
Q 197 225 197 378 
Q 197 528 301 651 
Q 406 775 563 775 
Q 669 775 741 711 
Q 813 647 813 544 
Q 813 409 723 309 
Q 634 209 500 184 
z
" transform="scale(0.015625)"/>
      </defs>
      <use xlink:href="#Cmmi10-78" transform="translate(0 0.8125)"/>
     </g>
    </g>
   </g>
   <g id="matplotlib.axis_2">
    <g id="ytick_1">
     <g id="line2d_29">
      <defs>
       <path id="m06974649af" d="M 0 0 
L -3.5 0 
" style="stroke: #000000; stroke-width: 0.8"/>
      </defs>
      <g>
       <use xlink:href="#m06974649af" x="28.942188" y="311.458164" style="stroke: #000000; stroke-width: 0.8"/>
      </g>
     </g>
     <g id="text_7">
      <!-- 3 -->
      <g transform="translate(7.2 315.257383) scale(0.1 -0.1)">
       <defs>
        <path id="DejaVuSans-2212" d="M 678 2272 
L 4684 2272 
L 4684 1741 
L 678 1741 
L 678 2272 
z
" transform="scale(0.015625)"/>
       </defs>
       <use xlink:href="#DejaVuSans-2212"/>
       <use xlink:href="#DejaVuSans-33" x="83.789062"/>
      </g>
     </g>
    </g>
    <g id="ytick_2">
     <g id="line2d_30">
      <g>
       <use xlink:href="#m06974649af" x="28.942188" y="257.723899" style="stroke: #000000; stroke-width: 0.8"/>
      </g>
     </g>
     <g id="text_8">
      <!-- 2 -->
      <g transform="translate(7.2 261.523117) scale(0.1 -0.1)">
       <use xlink:href="#DejaVuSans-2212"/>
       <use xlink:href="#DejaVuSans-32" x="83.789062"/>
      </g>
     </g>
    </g>
    <g id="ytick_3">
     <g id="line2d_31">
      <g>
       <use xlink:href="#m06974649af" x="28.942188" y="203.989633" style="stroke: #000000; stroke-width: 0.8"/>
      </g>
     </g>
     <g id="text_9">
      <!-- 1 -->
      <g transform="translate(7.2 207.788852) scale(0.1 -0.1)">
       <use xlink:href="#DejaVuSans-2212"/>
       <use xlink:href="#DejaVuSans-31" x="83.789062"/>
      </g>
     </g>
    </g>
    <g id="ytick_4">
     <g id="line2d_32">
      <g>
       <use xlink:href="#m06974649af" x="28.942188" y="150.255367" style="stroke: #000000; stroke-width: 0.8"/>
      </g>
     </g>
    </g>
    <g id="ytick_5">
     <g id="line2d_33">
      <g>
       <use xlink:href="#m06974649af" x="28.942188" y="96.521101" style="stroke: #000000; stroke-width: 0.8"/>
      </g>
     </g>
     <g id="text_10">
      <!-- 1 -->
      <g transform="translate(15.579688 100.32032) scale(0.1 -0.1)">
       <use xlink:href="#DejaVuSans-31"/>
      </g>
     </g>
    </g>
    <g id="ytick_6">
     <g id="line2d_34">
      <g>
       <use xlink:href="#m06974649af" x="28.942188" y="42.786836" style="stroke: #000000; stroke-width: 0.8"/>
      </g>
     </g>
     <g id="text_11">
      <!-- 2 -->
      <g transform="translate(15.579688 46.586054) scale(0.1 -0.1)">
       <use xlink:href="#DejaVuSans-32"/>
      </g>
     </g>
    </g>
    <g id="ytick_7">
     <g id="line2d_35">
      <defs>
       <path id="m47c2869af0" d="M 0 0 
L -2 0 
" style="stroke: #000000; stroke-width: 0.6"/>
      </defs>
      <g>
       <use xlink:href="#m47c2869af0" x="28.942188" y="322.205017" style="stroke: #000000; stroke-width: 0.6"/>
      </g>
     </g>
    </g>
    <g id="ytick_8">
     <g id="line2d_36">
      <g>
       <use xlink:href="#m47c2869af0" x="28.942188" y="300.711311" style="stroke: #000000; stroke-width: 0.6"/>
      </g>
     </g>
    </g>
    <g id="ytick_9">
     <g id="line2d_37">
      <g>
       <use xlink:href="#m47c2869af0" x="28.942188" y="289.964458" style="stroke: #000000; stroke-width: 0.6"/>
      </g>
     </g>
    </g>
    <g id="ytick_10">
     <g id="line2d_38">
      <g>
       <use xlink:href="#m47c2869af0" x="28.942188" y="279.217605" style="stroke: #000000; stroke-width: 0.6"/>
      </g>
     </g>
    </g>
    <g id="ytick_11">
     <g id="line2d_39">
      <g>
       <use xlink:href="#m47c2869af0" x="28.942188" y="268.470752" style="stroke: #000000; stroke-width: 0.6"/>
      </g>
     </g>
    </g>
    <g id="ytick_12">
     <g id="line2d_40">
      <g>
       <use xlink:href="#m47c2869af0" x="28.942188" y="246.977045" style="stroke: #000000; stroke-width: 0.6"/>
      </g>
     </g>
    </g>
    <g id="ytick_13">
     <g id="line2d_41">
      <g>
       <use xlink:href="#m47c2869af0" x="28.942188" y="236.230192" style="stroke: #000000; stroke-width: 0.6"/>
      </g>
     </g>
    </g>
    <g id="ytick_14">
     <g id="line2d_42">
      <g>
       <use xlink:href="#m47c2869af0" x="28.942188" y="225.483339" style="stroke: #000000; stroke-width: 0.6"/>
      </g>
     </g>
    </g>
    <g id="ytick_15">
     <g id="line2d_43">
      <g>
       <use xlink:href="#m47c2869af0" x="28.942188" y="214.736486" style="stroke: #000000; stroke-width: 0.6"/>
      </g>
     </g>
    </g>
    <g id="ytick_16">
     <g id="line2d_44">
      <g>
       <use xlink:href="#m47c2869af0" x="28.942188" y="193.24278" style="stroke: #000000; stroke-width: 0.6"/>
      </g>
     </g>
    </g>
    <g id="ytick_17">
     <g id="line2d_45">
      <g>
       <use xlink:href="#m47c2869af0" x="28.942188" y="182.495927" style="stroke: #000000; stroke-width: 0.6"/>
      </g>
     </g>
    </g>
    <g id="ytick_18">
     <g id="line2d_46">
      <g>
       <use xlink:href="#m47c2869af0" x="28.942188" y="171.749073" style="stroke: #000000; stroke-width: 0.6"/>
      </g>
     </g>
    </g>
    <g id="ytick_19">
     <g id="line2d_47">
      <g>
       <use xlink:href="#m47c2869af0" x="28.942188" y="161.00222" style="stroke: #000000; stroke-width: 0.6"/>
      </g>
     </g>
    </g>
    <g id="ytick_20">
     <g id="line2d_48">
      <g>
       <use xlink:href="#m47c2869af0" x="28.942188" y="139.508514" style="stroke: #000000; stroke-width: 0.6"/>
      </g>
     </g>
    </g>
    <g id="ytick_21">
     <g id="line2d_49">
      <g>
       <use xlink:href="#m47c2869af0" x="28.942188" y="128.761661" style="stroke: #000000; stroke-width: 0.6"/>
      </g>
     </g>
    </g>
    <g id="ytick_22">
     <g id="line2d_50">
      <g>
       <use xlink:href="#m47c2869af0" x="28.942188" y="118.014808" style="stroke: #000000; stroke-width: 0.6"/>
      </g>
     </g>
    </g>
    <g id="ytick_23">
     <g id="line2d_51">
      <g>
       <use xlink:href="#m47c2869af0" x="28.942188" y="107.267955" style="stroke: #000000; stroke-width: 0.6"/>
      </g>
     </g>
    </g>
    <g id="ytick_24">
     <g id="line2d_52">
      <g>
       <use xlink:href="#m47c2869af0" x="28.942188" y="85.774248" style="stroke: #000000; stroke-width: 0.6"/>
      </g>
     </g>
    </g>
    <g id="ytick_25">
     <g id="line2d_53">
      <g>
       <use xlink:href="#m47c2869af0" x="28.942188" y="75.027395" style="stroke: #000000; stroke-width: 0.6"/>
      </g>
     </g>
    </g>
    <g id="ytick_26">
     <g id="line2d_54">
      <g>
       <use xlink:href="#m47c2869af0" x="28.942188" y="64.280542" style="stroke: #000000; stroke-width: 0.6"/>
      </g>
     </g>
    </g>
    <g id="ytick_27">
     <g id="line2d_55">
      <g>
       <use xlink:href="#m47c2869af0" x="28.942188" y="53.533689" style="stroke: #000000; stroke-width: 0.6"/>
      </g>
     </g>
    </g>
    <g id="ytick_28">
     <g id="line2d_56">
      <g>
       <use xlink:href="#m47c2869af0" x="28.942188" y="32.039983" style="stroke: #000000; stroke-width: 0.6"/>
      </g>
     </g>
    </g>
    <g id="text_12">
     <!-- $y$ -->
     <g transform="translate(24.942188 12.0825) scale(0.16 -0.16)">
      <defs>
       <path id="Cmmi10-79" d="M 538 -916 
Q 672 -1147 1006 -1147 
Q 1309 -1147 1531 -934 
Q 1753 -722 1889 -420 
Q 2025 -119 2100 197 
Q 1816 -72 1484 -72 
Q 1231 -72 1053 15 
Q 875 103 776 276 
Q 678 450 678 697 
Q 678 906 734 1126 
Q 791 1347 892 1617 
Q 994 1888 1069 2088 
Q 1153 2322 1153 2472 
Q 1153 2663 1013 2663 
Q 759 2663 595 2402 
Q 431 2141 353 1819 
Q 341 1778 300 1778 
L 225 1778 
Q 172 1778 172 1838 
L 172 1856 
Q 275 2238 487 2533 
Q 700 2828 1025 2828 
Q 1253 2828 1411 2678 
Q 1569 2528 1569 2297 
Q 1569 2178 1516 2047 
Q 1488 1969 1388 1706 
Q 1288 1444 1234 1272 
Q 1181 1100 1147 934 
Q 1113 769 1113 603 
Q 1113 391 1203 244 
Q 1294 97 1491 97 
Q 1888 97 2203 581 
L 2688 2553 
Q 2709 2638 2787 2698 
Q 2866 2759 2956 2759 
Q 3034 2759 3092 2709 
Q 3150 2659 3150 2578 
Q 3150 2541 3144 2528 
L 2509 -19 
Q 2425 -347 2200 -647 
Q 1975 -947 1658 -1130 
Q 1341 -1313 997 -1313 
Q 831 -1313 668 -1248 
Q 506 -1184 406 -1056 
Q 306 -928 306 -756 
Q 306 -581 409 -453 
Q 513 -325 684 -325 
Q 788 -325 858 -389 
Q 928 -453 928 -556 
Q 928 -703 818 -812 
Q 709 -922 563 -922 
Q 556 -919 550 -917 
Q 544 -916 538 -916 
z
" transform="scale(0.015625)"/>
      </defs>
      <use xlink:href="#Cmmi10-79" transform="translate(0 0.8125)"/>
     </g>
    </g>
   </g>
   <g id="line2d_57">
    <path d="M 82.676453 96.521101 
L 243.87925 96.521101 
L 243.87925 96.521101 
" clip-path="url(#p51be2653b6)" style="fill: none; stroke: #ff0000; stroke-width: 2; stroke-linecap: square"/>
   </g>
   <g id="patch_3">
    <path d="M 235.819111 96.521101 
Q 239.849181 96.521101 241.643182 96.521101 
" clip-path="url(#p51be2653b6)" style="fill: none; stroke: #ff0000; stroke-width: 2; stroke-linecap: round"/>
    <path d="M 231.643182 91.521101 
L 241.643182 96.521101 
L 231.643182 101.521101 
L 231.643182 91.521101 
z
" clip-path="url(#p51be2653b6)" style="fill: #ff0000; stroke: #ff0000; stroke-width: 2; stroke-linecap: round"/>
   </g>
   <g id="line2d_58">
    <path d="M 243.87925 96.521101 
L 243.87925 257.723899 
L 243.87925 257.723899 
" clip-path="url(#p51be2653b6)" style="fill: none; stroke: #ff0000; stroke-width: 2; stroke-linecap: square"/>
   </g>
   <g id="patch_4">
    <path d="M 243.87925 249.663759 
Q 243.87925 253.693829 243.87925 255.487831 
" clip-path="url(#p51be2653b6)" style="fill: none; stroke: #ff0000; stroke-width: 2; stroke-linecap: round"/>
    <path d="M 248.87925 245.487831 
L 243.87925 255.487831 
L 238.87925 245.487831 
L 248.87925 245.487831 
z
" clip-path="url(#p51be2653b6)" style="fill: #ff0000; stroke: #ff0000; stroke-width: 2; stroke-linecap: round"/>
   </g>
   <g id="patch_5">
    <path d="M 28.942188 330.8025 
L 28.942188 23.4425 
" style="fill: none; stroke: #000000; stroke-width: 0.8; stroke-linejoin: miter; stroke-linecap: square"/>
   </g>
   <g id="patch_6">
    <path d="M 9.597852 150.255367 
L 316.957852 150.255367 
" style="fill: none; stroke: #000000; stroke-width: 0.8; stroke-linejoin: miter; stroke-linecap: square"/>
   </g>
  </g>
 </g>
 <defs>
  <clipPath id="p51be2653b6">
   <rect x="9.597852" y="23.4425" width="307.36" height="307.36"/>
  </clipPath>
 </defs>
</svg>
