<?xml version="1.0" encoding="utf-8" standalone="no"?>
<!DOCTYPE svg PUBLIC "-//W3C//DTD SVG 1.1//EN"
  "http://www.w3.org/Graphics/SVG/1.1/DTD/svg11.dtd">
<svg xmlns:xlink="http://www.w3.org/1999/xlink" width="379.4245pt" height="338.0025pt" viewBox="0 0 379.4245 338.0025" xmlns="http://www.w3.org/2000/svg" version="1.1">
 <metadata>
  <rdf:RDF xmlns:dc="http://purl.org/dc/elements/1.1/" xmlns:cc="http://creativecommons.org/ns#" xmlns:rdf="http://www.w3.org/1999/02/22-rdf-syntax-ns#">
   <cc:Work>
    <dc:type rdf:resource="http://purl.org/dc/dcmitype/StillImage"/>
    <dc:date>2024-11-20T07:35:30.579994</dc:date>
    <dc:format>image/svg+xml</dc:format>
    <dc:creator>
     <cc:Agent>
      <dc:title>Matplotlib v3.6.2, https://matplotlib.org/</dc:title>
     </cc:Agent>
    </dc:creator>
   </cc:Work>
  </rdf:RDF>
 </metadata>
 <defs>
  <style type="text/css">*{stroke-linejoin: round; stroke-linecap: butt}</style>
 </defs>
 <g id="figure_1">
  <g id="patch_1">
   <path d="M 0 338.0025 
L 379.4245 338.0025 
L 379.4245 0 
L 0 0 
z
" style="fill: #ffffff"/>
  </g>
  <g id="axes_1">
   <g id="patch_2">
    <path d="M 7.815929 330.8025 
L 359.0845 330.8025 
L 359.0845 23.4425 
L 7.815929 23.4425 
z
" style="fill: #ffffff"/>
   </g>
   <g id="matplotlib.axis_1">
    <g id="xtick_1">
     <g id="line2d_1">
      <defs>
       <path id="mc75948af66" d="M 0 0 
L 0 3.5 
" style="stroke: #000000; stroke-width: 0.8"/>
      </defs>
      <g>
       <use xlink:href="#mc75948af66" x="14.571094" y="177.1225" style="stroke: #000000; stroke-width: 0.8"/>
      </g>
     </g>
     <g id="text_1">
      <!-- −8 -->
      <g transform="translate(7.2 191.720937) scale(0.1 -0.1)">
       <defs>
        <path id="DejaVuSans-2212" d="M 678 2272 
L 4684 2272 
L 4684 1741 
L 678 1741 
L 678 2272 
z
" transform="scale(0.015625)"/>
        <path id="DejaVuSans-38" d="M 2034 2216 
Q 1584 2216 1326 1975 
Q 1069 1734 1069 1313 
Q 1069 891 1326 650 
Q 1584 409 2034 409 
Q 2484 409 2743 651 
Q 3003 894 3003 1313 
Q 3003 1734 2745 1975 
Q 2488 2216 2034 2216 
z
M 1403 2484 
Q 997 2584 770 2862 
Q 544 3141 544 3541 
Q 544 4100 942 4425 
Q 1341 4750 2034 4750 
Q 2731 4750 3128 4425 
Q 3525 4100 3525 3541 
Q 3525 3141 3298 2862 
Q 3072 2584 2669 2484 
Q 3125 2378 3379 2068 
Q 3634 1759 3634 1313 
Q 3634 634 3220 271 
Q 2806 -91 2034 -91 
Q 1263 -91 848 271 
Q 434 634 434 1313 
Q 434 1759 690 2068 
Q 947 2378 1403 2484 
z
M 1172 3481 
Q 1172 3119 1398 2916 
Q 1625 2713 2034 2713 
Q 2441 2713 2670 2916 
Q 2900 3119 2900 3481 
Q 2900 3844 2670 4047 
Q 2441 4250 2034 4250 
Q 1625 4250 1398 4047 
Q 1172 3844 1172 3481 
z
" transform="scale(0.015625)"/>
       </defs>
       <use xlink:href="#DejaVuSans-2212"/>
       <use xlink:href="#DejaVuSans-38" x="83.789062"/>
      </g>
     </g>
    </g>
    <g id="xtick_2">
     <g id="line2d_2">
      <g>
       <use xlink:href="#mc75948af66" x="56.790874" y="177.1225" style="stroke: #000000; stroke-width: 0.8"/>
      </g>
     </g>
     <g id="text_2">
      <!-- −6 -->
      <g transform="translate(49.41978 191.720937) scale(0.1 -0.1)">
       <defs>
        <path id="DejaVuSans-36" d="M 2113 2584 
Q 1688 2584 1439 2293 
Q 1191 2003 1191 1497 
Q 1191 994 1439 701 
Q 1688 409 2113 409 
Q 2538 409 2786 701 
Q 3034 994 3034 1497 
Q 3034 2003 2786 2293 
Q 2538 2584 2113 2584 
z
M 3366 4563 
L 3366 3988 
Q 3128 4100 2886 4159 
Q 2644 4219 2406 4219 
Q 1781 4219 1451 3797 
Q 1122 3375 1075 2522 
Q 1259 2794 1537 2939 
Q 1816 3084 2150 3084 
Q 2853 3084 3261 2657 
Q 3669 2231 3669 1497 
Q 3669 778 3244 343 
Q 2819 -91 2113 -91 
Q 1303 -91 875 529 
Q 447 1150 447 2328 
Q 447 3434 972 4092 
Q 1497 4750 2381 4750 
Q 2619 4750 2861 4703 
Q 3103 4656 3366 4563 
z
" transform="scale(0.015625)"/>
       </defs>
       <use xlink:href="#DejaVuSans-2212"/>
       <use xlink:href="#DejaVuSans-36" x="83.789062"/>
      </g>
     </g>
    </g>
    <g id="xtick_3">
     <g id="line2d_3">
      <g>
       <use xlink:href="#mc75948af66" x="99.010654" y="177.1225" style="stroke: #000000; stroke-width: 0.8"/>
      </g>
     </g>
     <g id="text_3">
      <!-- −4 -->
      <g transform="translate(91.63956 191.720937) scale(0.1 -0.1)">
       <defs>
        <path id="DejaVuSans-34" d="M 2419 4116 
L 825 1625 
L 2419 1625 
L 2419 4116 
z
M 2253 4666 
L 3047 4666 
L 3047 1625 
L 3713 1625 
L 3713 1100 
L 3047 1100 
L 3047 0 
L 2419 0 
L 2419 1100 
L 313 1100 
L 313 1709 
L 2253 4666 
z
" transform="scale(0.015625)"/>
       </defs>
       <use xlink:href="#DejaVuSans-2212"/>
       <use xlink:href="#DejaVuSans-34" x="83.789062"/>
      </g>
     </g>
    </g>
    <g id="xtick_4">
     <g id="line2d_4">
      <g>
       <use xlink:href="#mc75948af66" x="141.230434" y="177.1225" style="stroke: #000000; stroke-width: 0.8"/>
      </g>
     </g>
     <g id="text_4">
      <!-- −2 -->
      <g transform="translate(133.859341 191.720937) scale(0.1 -0.1)">
       <defs>
        <path id="DejaVuSans-32" d="M 1228 531 
L 3431 531 
L 3431 0 
L 469 0 
L 469 531 
Q 828 903 1448 1529 
Q 2069 2156 2228 2338 
Q 2531 2678 2651 2914 
Q 2772 3150 2772 3378 
Q 2772 3750 2511 3984 
Q 2250 4219 1831 4219 
Q 1534 4219 1204 4116 
Q 875 4013 500 3803 
L 500 4441 
Q 881 4594 1212 4672 
Q 1544 4750 1819 4750 
Q 2544 4750 2975 4387 
Q 3406 4025 3406 3419 
Q 3406 3131 3298 2873 
Q 3191 2616 2906 2266 
Q 2828 2175 2409 1742 
Q 1991 1309 1228 531 
z
" transform="scale(0.015625)"/>
       </defs>
       <use xlink:href="#DejaVuSans-2212"/>
       <use xlink:href="#DejaVuSans-32" x="83.789062"/>
      </g>
     </g>
    </g>
    <g id="xtick_5">
     <g id="line2d_5">
      <g>
       <use xlink:href="#mc75948af66" x="183.450215" y="177.1225" style="stroke: #000000; stroke-width: 0.8"/>
      </g>
     </g>
    </g>
    <g id="xtick_6">
     <g id="line2d_6">
      <g>
       <use xlink:href="#mc75948af66" x="225.669995" y="177.1225" style="stroke: #000000; stroke-width: 0.8"/>
      </g>
     </g>
     <g id="text_5">
      <!-- 2 -->
      <g transform="translate(222.488745 191.720937) scale(0.1 -0.1)">
       <use xlink:href="#DejaVuSans-32"/>
      </g>
     </g>
    </g>
    <g id="xtick_7">
     <g id="line2d_7">
      <g>
       <use xlink:href="#mc75948af66" x="267.889775" y="177.1225" style="stroke: #000000; stroke-width: 0.8"/>
      </g>
     </g>
     <g id="text_6">
      <!-- 4 -->
      <g transform="translate(264.708525 191.720937) scale(0.1 -0.1)">
       <use xlink:href="#DejaVuSans-34"/>
      </g>
     </g>
    </g>
    <g id="xtick_8">
     <g id="line2d_8">
      <g>
       <use xlink:href="#mc75948af66" x="310.109555" y="177.1225" style="stroke: #000000; stroke-width: 0.8"/>
      </g>
     </g>
     <g id="text_7">
      <!-- 6 -->
      <g transform="translate(306.928305 191.720937) scale(0.1 -0.1)">
       <use xlink:href="#DejaVuSans-36"/>
      </g>
     </g>
    </g>
    <g id="xtick_9">
     <g id="line2d_9">
      <g>
       <use xlink:href="#mc75948af66" x="352.329336" y="177.1225" style="stroke: #000000; stroke-width: 0.8"/>
      </g>
     </g>
     <g id="text_8">
      <!-- 8 -->
      <g transform="translate(349.148086 191.720937) scale(0.1 -0.1)">
       <use xlink:href="#DejaVuSans-38"/>
      </g>
     </g>
    </g>
    <g id="xtick_10">
     <g id="line2d_10">
      <defs>
       <path id="m036fe7d625" d="M 0 0 
L 0 2 
" style="stroke: #000000; stroke-width: 0.6"/>
      </defs>
      <g>
       <use xlink:href="#m036fe7d625" x="25.126039" y="177.1225" style="stroke: #000000; stroke-width: 0.6"/>
      </g>
     </g>
    </g>
    <g id="xtick_11">
     <g id="line2d_11">
      <g>
       <use xlink:href="#m036fe7d625" x="35.680984" y="177.1225" style="stroke: #000000; stroke-width: 0.6"/>
      </g>
     </g>
    </g>
    <g id="xtick_12">
     <g id="line2d_12">
      <g>
       <use xlink:href="#m036fe7d625" x="46.235929" y="177.1225" style="stroke: #000000; stroke-width: 0.6"/>
      </g>
     </g>
    </g>
    <g id="xtick_13">
     <g id="line2d_13">
      <g>
       <use xlink:href="#m036fe7d625" x="67.345819" y="177.1225" style="stroke: #000000; stroke-width: 0.6"/>
      </g>
     </g>
    </g>
    <g id="xtick_14">
     <g id="line2d_14">
      <g>
       <use xlink:href="#m036fe7d625" x="77.900764" y="177.1225" style="stroke: #000000; stroke-width: 0.6"/>
      </g>
     </g>
    </g>
    <g id="xtick_15">
     <g id="line2d_15">
      <g>
       <use xlink:href="#m036fe7d625" x="88.455709" y="177.1225" style="stroke: #000000; stroke-width: 0.6"/>
      </g>
     </g>
    </g>
    <g id="xtick_16">
     <g id="line2d_16">
      <g>
       <use xlink:href="#m036fe7d625" x="109.565599" y="177.1225" style="stroke: #000000; stroke-width: 0.6"/>
      </g>
     </g>
    </g>
    <g id="xtick_17">
     <g id="line2d_17">
      <g>
       <use xlink:href="#m036fe7d625" x="120.120544" y="177.1225" style="stroke: #000000; stroke-width: 0.6"/>
      </g>
     </g>
    </g>
    <g id="xtick_18">
     <g id="line2d_18">
      <g>
       <use xlink:href="#m036fe7d625" x="130.675489" y="177.1225" style="stroke: #000000; stroke-width: 0.6"/>
      </g>
     </g>
    </g>
    <g id="xtick_19">
     <g id="line2d_19">
      <g>
       <use xlink:href="#m036fe7d625" x="151.785379" y="177.1225" style="stroke: #000000; stroke-width: 0.6"/>
      </g>
     </g>
    </g>
    <g id="xtick_20">
     <g id="line2d_20">
      <g>
       <use xlink:href="#m036fe7d625" x="162.340325" y="177.1225" style="stroke: #000000; stroke-width: 0.6"/>
      </g>
     </g>
    </g>
    <g id="xtick_21">
     <g id="line2d_21">
      <g>
       <use xlink:href="#m036fe7d625" x="172.89527" y="177.1225" style="stroke: #000000; stroke-width: 0.6"/>
      </g>
     </g>
    </g>
    <g id="xtick_22">
     <g id="line2d_22">
      <g>
       <use xlink:href="#m036fe7d625" x="194.00516" y="177.1225" style="stroke: #000000; stroke-width: 0.6"/>
      </g>
     </g>
    </g>
    <g id="xtick_23">
     <g id="line2d_23">
      <g>
       <use xlink:href="#m036fe7d625" x="204.560105" y="177.1225" style="stroke: #000000; stroke-width: 0.6"/>
      </g>
     </g>
    </g>
    <g id="xtick_24">
     <g id="line2d_24">
      <g>
       <use xlink:href="#m036fe7d625" x="215.11505" y="177.1225" style="stroke: #000000; stroke-width: 0.6"/>
      </g>
     </g>
    </g>
    <g id="xtick_25">
     <g id="line2d_25">
      <g>
       <use xlink:href="#m036fe7d625" x="236.22494" y="177.1225" style="stroke: #000000; stroke-width: 0.6"/>
      </g>
     </g>
    </g>
    <g id="xtick_26">
     <g id="line2d_26">
      <g>
       <use xlink:href="#m036fe7d625" x="246.779885" y="177.1225" style="stroke: #000000; stroke-width: 0.6"/>
      </g>
     </g>
    </g>
    <g id="xtick_27">
     <g id="line2d_27">
      <g>
       <use xlink:href="#m036fe7d625" x="257.33483" y="177.1225" style="stroke: #000000; stroke-width: 0.6"/>
      </g>
     </g>
    </g>
    <g id="xtick_28">
     <g id="line2d_28">
      <g>
       <use xlink:href="#m036fe7d625" x="278.44472" y="177.1225" style="stroke: #000000; stroke-width: 0.6"/>
      </g>
     </g>
    </g>
    <g id="xtick_29">
     <g id="line2d_29">
      <g>
       <use xlink:href="#m036fe7d625" x="288.999665" y="177.1225" style="stroke: #000000; stroke-width: 0.6"/>
      </g>
     </g>
    </g>
    <g id="xtick_30">
     <g id="line2d_30">
      <g>
       <use xlink:href="#m036fe7d625" x="299.55461" y="177.1225" style="stroke: #000000; stroke-width: 0.6"/>
      </g>
     </g>
    </g>
    <g id="xtick_31">
     <g id="line2d_31">
      <g>
       <use xlink:href="#m036fe7d625" x="320.6645" y="177.1225" style="stroke: #000000; stroke-width: 0.6"/>
      </g>
     </g>
    </g>
    <g id="xtick_32">
     <g id="line2d_32">
      <g>
       <use xlink:href="#m036fe7d625" x="331.219445" y="177.1225" style="stroke: #000000; stroke-width: 0.6"/>
      </g>
     </g>
    </g>
    <g id="xtick_33">
     <g id="line2d_33">
      <g>
       <use xlink:href="#m036fe7d625" x="341.77439" y="177.1225" style="stroke: #000000; stroke-width: 0.6"/>
      </g>
     </g>
    </g>
    <g id="text_9">
     <!-- $x$ -->
     <g transform="translate(367.0845 177.1225) scale(0.16 -0.16)">
      <defs>
       <path id="Cmmi10-78" d="M 500 184 
Q 613 97 819 97 
Q 1019 97 1172 289 
Q 1325 481 1381 709 
L 1672 1844 
Q 1741 2153 1741 2266 
Q 1741 2425 1652 2544 
Q 1563 2663 1403 2663 
Q 1200 2663 1022 2536 
Q 844 2409 722 2214 
Q 600 2019 550 1819 
Q 538 1778 500 1778 
L 422 1778 
Q 372 1778 372 1838 
L 372 1856 
Q 434 2094 584 2320 
Q 734 2547 951 2687 
Q 1169 2828 1416 2828 
Q 1650 2828 1839 2703 
Q 2028 2578 2106 2363 
Q 2216 2559 2386 2693 
Q 2556 2828 2759 2828 
Q 2897 2828 3040 2779 
Q 3184 2731 3275 2631 
Q 3366 2531 3366 2381 
Q 3366 2219 3261 2101 
Q 3156 1984 2994 1984 
Q 2891 1984 2822 2050 
Q 2753 2116 2753 2216 
Q 2753 2350 2845 2451 
Q 2938 2553 3066 2572 
Q 2950 2663 2747 2663 
Q 2541 2663 2389 2472 
Q 2238 2281 2175 2047 
L 1894 916 
Q 1825 659 1825 494 
Q 1825 331 1917 214 
Q 2009 97 2163 97 
Q 2463 97 2698 361 
Q 2934 625 3009 941 
Q 3022 978 3059 978 
L 3138 978 
Q 3163 978 3178 961 
Q 3194 944 3194 922 
Q 3194 916 3188 903 
Q 3097 522 2806 225 
Q 2516 -72 2150 -72 
Q 1916 -72 1727 54 
Q 1538 181 1459 397 
Q 1359 209 1182 68 
Q 1006 -72 806 -72 
Q 669 -72 523 -23 
Q 378 25 287 125 
Q 197 225 197 378 
Q 197 528 301 651 
Q 406 775 563 775 
Q 669 775 741 711 
Q 813 647 813 544 
Q 813 409 723 309 
Q 634 209 500 184 
z
" transform="scale(0.015625)"/>
      </defs>
      <use xlink:href="#Cmmi10-78" transform="translate(0 0.8125)"/>
     </g>
    </g>
   </g>
   <g id="matplotlib.axis_2">
    <g id="ytick_1">
     <g id="line2d_34">
      <defs>
       <path id="m37fb655f74" d="M 0 0 
L -3.5 0 
" style="stroke: #000000; stroke-width: 0.8"/>
      </defs>
      <g>
       <use xlink:href="#m37fb655f74" x="183.450215" y="303.781841" style="stroke: #000000; stroke-width: 0.8"/>
      </g>
     </g>
     <g id="text_10">
      <!-- −6 -->
      <g transform="translate(161.708027 307.581059) scale(0.1 -0.1)">
       <use xlink:href="#DejaVuSans-2212"/>
       <use xlink:href="#DejaVuSans-36" x="83.789062"/>
      </g>
     </g>
    </g>
    <g id="ytick_2">
     <g id="line2d_35">
      <g>
       <use xlink:href="#m37fb655f74" x="183.450215" y="261.56206" style="stroke: #000000; stroke-width: 0.8"/>
      </g>
     </g>
     <g id="text_11">
      <!-- −4 -->
      <g transform="translate(161.708027 265.361279) scale(0.1 -0.1)">
       <use xlink:href="#DejaVuSans-2212"/>
       <use xlink:href="#DejaVuSans-34" x="83.789062"/>
      </g>
     </g>
    </g>
    <g id="ytick_3">
     <g id="line2d_36">
      <g>
       <use xlink:href="#m37fb655f74" x="183.450215" y="219.34228" style="stroke: #000000; stroke-width: 0.8"/>
      </g>
     </g>
     <g id="text_12">
      <!-- −2 -->
      <g transform="translate(161.708027 223.141499) scale(0.1 -0.1)">
       <use xlink:href="#DejaVuSans-2212"/>
       <use xlink:href="#DejaVuSans-32" x="83.789062"/>
      </g>
     </g>
    </g>
    <g id="ytick_4">
     <g id="line2d_37">
      <g>
       <use xlink:href="#m37fb655f74" x="183.450215" y="177.1225" style="stroke: #000000; stroke-width: 0.8"/>
      </g>
     </g>
    </g>
    <g id="ytick_5">
     <g id="line2d_38">
      <g>
       <use xlink:href="#m37fb655f74" x="183.450215" y="134.90272" style="stroke: #000000; stroke-width: 0.8"/>
      </g>
     </g>
     <g id="text_13">
      <!-- 2 -->
      <g transform="translate(170.087715 138.701939) scale(0.1 -0.1)">
       <use xlink:href="#DejaVuSans-32"/>
      </g>
     </g>
    </g>
    <g id="ytick_6">
     <g id="line2d_39">
      <g>
       <use xlink:href="#m37fb655f74" x="183.450215" y="92.68294" style="stroke: #000000; stroke-width: 0.8"/>
      </g>
     </g>
     <g id="text_14">
      <!-- 4 -->
      <g transform="translate(170.087715 96.482158) scale(0.1 -0.1)">
       <use xlink:href="#DejaVuSans-34"/>
      </g>
     </g>
    </g>
    <g id="ytick_7">
     <g id="line2d_40">
      <g>
       <use xlink:href="#m37fb655f74" x="183.450215" y="50.463159" style="stroke: #000000; stroke-width: 0.8"/>
      </g>
     </g>
     <g id="text_15">
      <!-- 6 -->
      <g transform="translate(170.087715 54.262378) scale(0.1 -0.1)">
       <use xlink:href="#DejaVuSans-36"/>
      </g>
     </g>
    </g>
    <g id="ytick_8">
     <g id="line2d_41">
      <defs>
       <path id="m8cba768d96" d="M 0 0 
L -2 0 
" style="stroke: #000000; stroke-width: 0.6"/>
      </defs>
      <g>
       <use xlink:href="#m8cba768d96" x="183.450215" y="324.891731" style="stroke: #000000; stroke-width: 0.6"/>
      </g>
     </g>
    </g>
    <g id="ytick_9">
     <g id="line2d_42">
      <g>
       <use xlink:href="#m8cba768d96" x="183.450215" y="314.336786" style="stroke: #000000; stroke-width: 0.6"/>
      </g>
     </g>
    </g>
    <g id="ytick_10">
     <g id="line2d_43">
      <g>
       <use xlink:href="#m8cba768d96" x="183.450215" y="293.226896" style="stroke: #000000; stroke-width: 0.6"/>
      </g>
     </g>
    </g>
    <g id="ytick_11">
     <g id="line2d_44">
      <g>
       <use xlink:href="#m8cba768d96" x="183.450215" y="282.671951" style="stroke: #000000; stroke-width: 0.6"/>
      </g>
     </g>
    </g>
    <g id="ytick_12">
     <g id="line2d_45">
      <g>
       <use xlink:href="#m8cba768d96" x="183.450215" y="272.117005" style="stroke: #000000; stroke-width: 0.6"/>
      </g>
     </g>
    </g>
    <g id="ytick_13">
     <g id="line2d_46">
      <g>
       <use xlink:href="#m8cba768d96" x="183.450215" y="251.007115" style="stroke: #000000; stroke-width: 0.6"/>
      </g>
     </g>
    </g>
    <g id="ytick_14">
     <g id="line2d_47">
      <g>
       <use xlink:href="#m8cba768d96" x="183.450215" y="240.45217" style="stroke: #000000; stroke-width: 0.6"/>
      </g>
     </g>
    </g>
    <g id="ytick_15">
     <g id="line2d_48">
      <g>
       <use xlink:href="#m8cba768d96" x="183.450215" y="229.897225" style="stroke: #000000; stroke-width: 0.6"/>
      </g>
     </g>
    </g>
    <g id="ytick_16">
     <g id="line2d_49">
      <g>
       <use xlink:href="#m8cba768d96" x="183.450215" y="208.787335" style="stroke: #000000; stroke-width: 0.6"/>
      </g>
     </g>
    </g>
    <g id="ytick_17">
     <g id="line2d_50">
      <g>
       <use xlink:href="#m8cba768d96" x="183.450215" y="198.23239" style="stroke: #000000; stroke-width: 0.6"/>
      </g>
     </g>
    </g>
    <g id="ytick_18">
     <g id="line2d_51">
      <g>
       <use xlink:href="#m8cba768d96" x="183.450215" y="187.677445" style="stroke: #000000; stroke-width: 0.6"/>
      </g>
     </g>
    </g>
    <g id="ytick_19">
     <g id="line2d_52">
      <g>
       <use xlink:href="#m8cba768d96" x="183.450215" y="166.567555" style="stroke: #000000; stroke-width: 0.6"/>
      </g>
     </g>
    </g>
    <g id="ytick_20">
     <g id="line2d_53">
      <g>
       <use xlink:href="#m8cba768d96" x="183.450215" y="156.01261" style="stroke: #000000; stroke-width: 0.6"/>
      </g>
     </g>
    </g>
    <g id="ytick_21">
     <g id="line2d_54">
      <g>
       <use xlink:href="#m8cba768d96" x="183.450215" y="145.457665" style="stroke: #000000; stroke-width: 0.6"/>
      </g>
     </g>
    </g>
    <g id="ytick_22">
     <g id="line2d_55">
      <g>
       <use xlink:href="#m8cba768d96" x="183.450215" y="124.347775" style="stroke: #000000; stroke-width: 0.6"/>
      </g>
     </g>
    </g>
    <g id="ytick_23">
     <g id="line2d_56">
      <g>
       <use xlink:href="#m8cba768d96" x="183.450215" y="113.79283" style="stroke: #000000; stroke-width: 0.6"/>
      </g>
     </g>
    </g>
    <g id="ytick_24">
     <g id="line2d_57">
      <g>
       <use xlink:href="#m8cba768d96" x="183.450215" y="103.237885" style="stroke: #000000; stroke-width: 0.6"/>
      </g>
     </g>
    </g>
    <g id="ytick_25">
     <g id="line2d_58">
      <g>
       <use xlink:href="#m8cba768d96" x="183.450215" y="82.127995" style="stroke: #000000; stroke-width: 0.6"/>
      </g>
     </g>
    </g>
    <g id="ytick_26">
     <g id="line2d_59">
      <g>
       <use xlink:href="#m8cba768d96" x="183.450215" y="71.573049" style="stroke: #000000; stroke-width: 0.6"/>
      </g>
     </g>
    </g>
    <g id="ytick_27">
     <g id="line2d_60">
      <g>
       <use xlink:href="#m8cba768d96" x="183.450215" y="61.018104" style="stroke: #000000; stroke-width: 0.6"/>
      </g>
     </g>
    </g>
    <g id="ytick_28">
     <g id="line2d_61">
      <g>
       <use xlink:href="#m8cba768d96" x="183.450215" y="39.908214" style="stroke: #000000; stroke-width: 0.6"/>
      </g>
     </g>
    </g>
    <g id="ytick_29">
     <g id="line2d_62">
      <g>
       <use xlink:href="#m8cba768d96" x="183.450215" y="29.353269" style="stroke: #000000; stroke-width: 0.6"/>
      </g>
     </g>
    </g>
    <g id="text_16">
     <!-- $y$ -->
     <g transform="translate(179.450215 12.0825) scale(0.16 -0.16)">
      <defs>
       <path id="Cmmi10-79" d="M 538 -916 
Q 672 -1147 1006 -1147 
Q 1309 -1147 1531 -934 
Q 1753 -722 1889 -420 
Q 2025 -119 2100 197 
Q 1816 -72 1484 -72 
Q 1231 -72 1053 15 
Q 875 103 776 276 
Q 678 450 678 697 
Q 678 906 734 1126 
Q 791 1347 892 1617 
Q 994 1888 1069 2088 
Q 1153 2322 1153 2472 
Q 1153 2663 1013 2663 
Q 759 2663 595 2402 
Q 431 2141 353 1819 
Q 341 1778 300 1778 
L 225 1778 
Q 172 1778 172 1838 
L 172 1856 
Q 275 2238 487 2533 
Q 700 2828 1025 2828 
Q 1253 2828 1411 2678 
Q 1569 2528 1569 2297 
Q 1569 2178 1516 2047 
Q 1488 1969 1388 1706 
Q 1288 1444 1234 1272 
Q 1181 1100 1147 934 
Q 1113 769 1113 603 
Q 1113 391 1203 244 
Q 1294 97 1491 97 
Q 1888 97 2203 581 
L 2688 2553 
Q 2709 2638 2787 2698 
Q 2866 2759 2956 2759 
Q 3034 2759 3092 2709 
Q 3150 2659 3150 2578 
Q 3150 2541 3144 2528 
L 2509 -19 
Q 2425 -347 2200 -647 
Q 1975 -947 1658 -1130 
Q 1341 -1313 997 -1313 
Q 831 -1313 668 -1248 
Q 506 -1184 406 -1056 
Q 306 -928 306 -756 
Q 306 -581 409 -453 
Q 513 -325 684 -325 
Q 788 -325 858 -389 
Q 928 -453 928 -556 
Q 928 -703 818 -812 
Q 709 -922 563 -922 
Q 556 -919 550 -917 
Q 544 -916 538 -916 
z
" transform="scale(0.015625)"/>
      </defs>
      <use xlink:href="#Cmmi10-79" transform="translate(0 0.8125)"/>
     </g>
    </g>
   </g>
   <g id="PathCollection_1">
    <path d="M 185.156064 217.483741 
L 184.938884 217.423199 
L 181.744365 216.487131 
L 178.332666 215.369115 
L 175.757386 214.437962 
L 174.920966 214.119643 
L 171.509267 212.691883 
L 168.747959 211.452725 
L 168.097567 211.145093 
L 164.685868 209.406284 
L 162.949512 208.467488 
L 161.274168 207.511358 
L 157.898008 205.482251 
L 157.862469 205.459636 
L 154.45077 203.160175 
L 153.510614 202.497014 
L 151.03907 200.6479 
L 149.584833 199.511777 
L 147.627371 197.883751 
L 146.06183 196.52654 
L 144.215671 194.815561 
L 142.894424 193.541303 
L 140.803972 191.375689 
L 140.042527 190.556066 
L 137.477336 187.570829 
L 137.392273 187.461864 
L 135.230603 184.585592 
L 133.980573 182.756004 
L 133.219368 181.600355 
L 131.474997 178.615118 
L 130.568874 176.835756 
L 129.976682 175.629882 
L 128.749894 172.644645 
L 127.757753 169.659408 
L 127.157174 167.210894 
L 127.030313 166.674171 
L 126.604591 163.688934 
L 126.46657 160.703697 
L 126.642925 157.71846 
L 127.157174 154.769661 
L 127.164247 154.733223 
L 128.13679 151.747986 
L 129.567137 148.762749 
L 130.568874 147.193913 
L 131.598211 145.777512 
L 133.980573 143.193386 
L 134.409636 142.792275 
L 137.392273 140.491154 
L 138.448254 139.807038 
L 140.803972 138.507889 
L 144.215671 136.979724 
L 144.654561 136.821801 
L 147.627371 135.886341 
L 151.03907 135.077418 
L 154.45077 134.514057 
L 157.862469 134.175436 
L 161.274168 134.043017 
L 164.685868 134.10025 
L 168.097567 134.332309 
L 171.509267 134.725873 
L 174.920966 135.268943 
L 178.332666 135.950677 
L 181.744365 136.761259 
L 181.961545 136.821801 
L 185.156064 137.757869 
L 188.567764 138.875885 
L 191.143044 139.807038 
L 191.979463 140.125357 
L 195.391163 141.553117 
L 198.15247 142.792275 
L 198.802862 143.099907 
L 202.214561 144.838716 
L 203.950918 145.777512 
L 205.626261 146.733642 
L 209.002422 148.762749 
L 209.03796 148.785364 
L 212.44966 151.084825 
L 213.389815 151.747986 
L 215.861359 153.5971 
L 217.315596 154.733223 
L 219.273058 156.361249 
L 220.838599 157.71846 
L 222.684758 159.429439 
L 224.006005 160.703697 
L 226.096457 162.869311 
L 226.857902 163.688934 
L 229.423093 166.674171 
L 229.508157 166.783136 
L 231.669827 169.659408 
L 232.919856 171.488996 
L 233.681062 172.644645 
L 235.425432 175.629882 
L 236.331556 177.409244 
L 236.923747 178.615118 
L 238.150535 181.600355 
L 239.142676 184.585592 
L 239.743255 187.034106 
L 239.870117 187.570829 
L 240.295839 190.556066 
L 240.433859 193.541303 
L 240.257505 196.52654 
L 239.743255 199.475339 
L 239.736182 199.511777 
L 238.763639 202.497014 
L 237.333292 205.482251 
L 236.331556 207.051087 
L 235.302219 208.467488 
L 232.919856 211.051614 
L 232.490793 211.452725 
L 229.508157 213.753846 
L 228.452176 214.437962 
L 226.096457 215.737111 
L 222.684758 217.265276 
L 222.245868 217.423199 
L 219.273058 218.358659 
L 215.861359 219.167582 
L 212.44966 219.730943 
L 209.03796 220.069564 
L 205.626261 220.201983 
L 202.214561 220.14475 
L 198.802862 219.912691 
L 195.391163 219.519127 
L 191.979463 218.976057 
L 188.567764 218.294323 
L 185.156064 217.483741 
z
" clip-path="url(#p63f4c8ecbe)" style="fill: none; stroke: #0000ff; stroke-width: 1.5"/>
   </g>
   <g id="PathCollection_2">
    <path d="M 191.979463 235.653731 
L 190.544233 235.334621 
L 188.567764 234.879183 
L 185.156064 233.996266 
L 181.744365 233.027171 
L 179.557279 232.349384 
L 178.332666 231.956048 
L 174.920966 230.767669 
L 171.509267 229.503441 
L 171.158979 229.364147 
L 168.097567 228.102372 
L 164.685868 226.624034 
L 164.15216 226.37891 
L 161.274168 225.007975 
L 158.023601 223.393673 
L 157.862469 223.310563 
L 154.45077 221.459353 
L 152.586516 220.408436 
L 151.03907 219.501758 
L 147.627371 217.429379 
L 147.617616 217.423199 
L 144.215671 215.18148 
L 143.123672 214.437962 
L 140.803972 212.792388 
L 138.974415 211.452725 
L 137.392273 210.243591 
L 135.138562 208.467488 
L 133.980573 207.51319 
L 131.588505 205.482251 
L 130.568874 204.57509 
L 128.299786 202.497014 
L 127.157174 201.397947 
L 125.250661 199.511777 
L 123.745475 197.943775 
L 122.421731 196.52654 
L 120.333776 194.166089 
L 119.795639 193.541303 
L 117.377536 190.556066 
L 116.922076 189.954465 
L 115.164621 187.570829 
L 113.510377 185.171305 
L 113.116864 184.585592 
L 111.273834 181.600355 
L 110.098677 179.528133 
L 109.594015 178.615118 
L 108.110533 175.629882 
L 106.780403 172.644645 
L 106.686978 172.401097 
L 105.662267 169.659408 
L 104.715831 166.674171 
L 103.947369 163.688934 
L 103.368223 160.703697 
L 103.275278 159.956737 
L 103.004172 157.71846 
L 102.849861 154.733223 
L 102.91428 151.747986 
L 103.211897 148.762749 
L 103.275278 148.409701 
L 103.784735 145.777512 
L 104.643388 142.792275 
L 105.805641 139.807038 
L 106.686978 138.022092 
L 107.332572 136.821801 
L 109.293102 133.836564 
L 110.098677 132.804356 
L 111.776994 130.851327 
L 113.510377 129.121746 
L 114.910326 127.86609 
L 116.922076 126.286808 
L 118.939989 124.880853 
L 120.333776 124.017466 
L 123.745475 122.164546 
L 124.31353 121.895616 
L 127.157174 120.680565 
L 130.568874 119.445252 
L 132.333697 118.910379 
L 133.980573 118.454626 
L 137.392273 117.682694 
L 140.803972 117.0824 
L 144.215671 116.643391 
L 147.627371 116.356134 
L 151.03907 116.211832 
L 154.45077 116.202355 
L 157.862469 116.320177 
L 161.274168 116.558324 
L 164.685868 116.91032 
L 168.097567 117.370147 
L 171.509267 117.932204 
L 174.920966 118.591269 
L 176.356196 118.910379 
L 178.332666 119.365817 
L 181.744365 120.248734 
L 185.156064 121.217829 
L 187.34315 121.895616 
L 188.567764 122.288952 
L 191.979463 123.477331 
L 195.391163 124.741559 
L 195.741451 124.880853 
L 198.802862 126.142628 
L 202.214561 127.620966 
L 202.74827 127.86609 
L 205.626261 129.237025 
L 208.876828 130.851327 
L 209.03796 130.934437 
L 212.44966 132.785647 
L 214.313913 133.836564 
L 215.861359 134.743242 
L 219.273058 136.815621 
L 219.282813 136.821801 
L 222.684758 139.06352 
L 223.776757 139.807038 
L 226.096457 141.452612 
L 227.926014 142.792275 
L 229.508157 144.001409 
L 231.761867 145.777512 
L 232.919856 146.73181 
L 235.311924 148.762749 
L 236.331556 149.66991 
L 238.600643 151.747986 
L 239.743255 152.847053 
L 241.649769 154.733223 
L 243.154954 156.301225 
L 244.478698 157.71846 
L 246.566654 160.078911 
L 247.10479 160.703697 
L 249.522893 163.688934 
L 249.978353 164.290535 
L 251.735809 166.674171 
L 253.390053 169.073695 
L 253.783565 169.659408 
L 255.626596 172.644645 
L 256.801752 174.716867 
L 257.306414 175.629882 
L 258.789896 178.615118 
L 260.120026 181.600355 
L 260.213451 181.843903 
L 261.238163 184.585592 
L 262.184599 187.570829 
L 262.953061 190.556066 
L 263.532206 193.541303 
L 263.625151 194.288263 
L 263.896257 196.52654 
L 264.050568 199.511777 
L 263.986149 202.497014 
L 263.688533 205.482251 
L 263.625151 205.835299 
L 263.115695 208.467488 
L 262.257041 211.452725 
L 261.094788 214.437962 
L 260.213451 216.222908 
L 259.567858 217.423199 
L 257.607328 220.408436 
L 256.801752 221.440644 
L 255.123435 223.393673 
L 253.390053 225.123254 
L 251.990104 226.37891 
L 249.978353 227.958192 
L 247.96044 229.364147 
L 246.566654 230.227534 
L 243.154954 232.080454 
L 242.586899 232.349384 
L 239.743255 233.564435 
L 236.331556 234.799748 
L 234.566732 235.334621 
L 232.919856 235.790374 
L 229.508157 236.562306 
L 226.096457 237.1626 
L 222.684758 237.601609 
L 219.273058 237.888866 
L 215.861359 238.033168 
L 212.44966 238.042645 
L 209.03796 237.924823 
L 205.626261 237.686676 
L 202.214561 237.33468 
L 198.802862 236.874853 
L 195.391163 236.312796 
L 191.979463 235.653731 
z
" clip-path="url(#p63f4c8ecbe)" style="fill: none; stroke: #0000ff; stroke-width: 1.5"/>
   </g>
   <g id="PathCollection_3">
    <path d="M 202.214561 250.321381 
L 201.838202 250.260806 
L 198.802862 249.757665 
L 195.391163 249.109929 
L 191.979463 248.384334 
L 188.567764 247.584125 
L 187.370941 247.275569 
L 185.156064 246.687707 
L 181.744365 245.707052 
L 178.332666 244.658809 
L 177.213624 244.290332 
L 174.920966 243.513125 
L 171.509267 242.287576 
L 168.91222 241.305095 
L 168.097567 240.987669 
L 164.685868 239.584165 
L 161.737579 238.319858 
L 161.274168 238.115085 
L 157.862469 236.533174 
L 155.370203 235.334621 
L 154.45077 234.878782 
L 151.03907 233.118237 
L 149.600956 232.349384 
L 147.627371 231.261093 
L 144.291035 229.364147 
L 144.215671 229.319908 
L 140.803972 227.243188 
L 139.424066 226.37891 
L 137.392273 225.06434 
L 134.879992 223.393673 
L 133.980573 222.775148 
L 130.629752 220.408436 
L 130.568874 220.363918 
L 127.157174 217.796915 
L 126.672822 217.423199 
L 123.745475 215.083237 
L 122.95757 214.437962 
L 120.333776 212.208924 
L 119.464491 211.452725 
L 116.922076 209.155291 
L 116.178341 208.467488 
L 113.510377 205.900633 
L 113.085239 205.482251 
L 110.175505 202.497014 
L 110.098677 202.414445 
L 107.457931 199.511777 
L 106.686978 198.624578 
L 104.903519 196.52654 
L 103.275278 194.516757 
L 102.501842 193.541303 
L 100.257967 190.556066 
L 99.863579 189.998692 
L 98.182091 187.570829 
L 96.45188 184.924073 
L 96.235205 184.585592 
L 94.460805 181.600355 
L 93.04018 179.038425 
L 92.810302 178.615118 
L 91.329603 175.629882 
L 89.973243 172.644645 
L 89.628481 171.794837 
L 88.780261 169.659408 
L 87.733568 166.674171 
L 86.827293 163.688934 
L 86.216781 161.278713 
L 86.07421 160.703697 
L 85.494037 157.71846 
L 85.071862 154.733223 
L 84.815887 151.747986 
L 84.734892 148.762749 
L 84.838287 145.777512 
L 85.136169 142.792275 
L 85.639386 139.807038 
L 86.216781 137.404947 
L 86.366073 136.821801 
L 87.359861 133.836564 
L 88.610058 130.851327 
L 89.628481 128.841127 
L 90.158359 127.86609 
L 92.065655 124.880853 
L 93.04018 123.563754 
L 94.373527 121.895616 
L 96.45188 119.618567 
L 97.154693 118.910379 
L 99.863579 116.482517 
L 100.544944 115.925142 
L 103.275278 113.913976 
L 104.737505 112.939905 
L 106.686978 111.758818 
L 110.017003 109.954668 
L 110.098677 109.914091 
L 113.510377 108.390527 
L 116.922076 107.060741 
L 117.188806 106.969431 
L 120.333776 105.972333 
L 123.745475 105.049636 
L 127.157174 104.279023 
L 128.748207 103.984194 
L 130.568874 103.669258 
L 133.980573 103.203634 
L 137.392273 102.860979 
L 140.803972 102.635532 
L 144.215671 102.521891 
L 147.627371 102.514976 
L 151.03907 102.610015 
L 154.45077 102.802513 
L 157.862469 103.088237 
L 161.274168 103.463194 
L 164.685868 103.923619 
L 165.062227 103.984194 
L 168.097567 104.487335 
L 171.509267 105.135071 
L 174.920966 105.860666 
L 178.332666 106.660875 
L 179.529489 106.969431 
L 181.744365 107.557293 
L 185.156064 108.537948 
L 188.567764 109.586191 
L 189.686806 109.954668 
L 191.979463 110.731875 
L 195.391163 111.957424 
L 197.988209 112.939905 
L 198.802862 113.257331 
L 202.214561 114.660835 
L 205.16285 115.925142 
L 205.626261 116.129915 
L 209.03796 117.711826 
L 211.530226 118.910379 
L 212.44966 119.366218 
L 215.861359 121.126763 
L 217.299473 121.895616 
L 219.273058 122.983907 
L 222.609395 124.880853 
L 222.684758 124.925092 
L 226.096457 127.001812 
L 227.476363 127.86609 
L 229.508157 129.18066 
L 232.020437 130.851327 
L 232.919856 131.469852 
L 236.270677 133.836564 
L 236.331556 133.881082 
L 239.743255 136.448085 
L 240.227607 136.821801 
L 243.154954 139.161763 
L 243.942859 139.807038 
L 246.566654 142.036076 
L 247.435938 142.792275 
L 249.978353 145.089709 
L 250.722088 145.777512 
L 253.390053 148.344367 
L 253.815191 148.762749 
L 256.724924 151.747986 
L 256.801752 151.830555 
L 259.442498 154.733223 
L 260.213451 155.620422 
L 261.99691 157.71846 
L 263.625151 159.728243 
L 264.398587 160.703697 
L 266.642462 163.688934 
L 267.03685 164.246308 
L 268.718338 166.674171 
L 270.44855 169.320927 
L 270.665224 169.659408 
L 272.439624 172.644645 
L 273.860249 175.206575 
L 274.090127 175.629882 
L 275.570826 178.615118 
L 276.927187 181.600355 
L 277.271948 182.450163 
L 278.120168 184.585592 
L 279.166861 187.570829 
L 280.073136 190.556066 
L 280.683648 192.966287 
L 280.82622 193.541303 
L 281.406392 196.52654 
L 281.828567 199.511777 
L 282.084543 202.497014 
L 282.165538 205.482251 
L 282.062143 208.467488 
L 281.76426 211.452725 
L 281.261043 214.437962 
L 280.683648 216.840053 
L 280.534356 217.423199 
L 279.540569 220.408436 
L 278.290371 223.393673 
L 277.271948 225.403873 
L 276.742071 226.37891 
L 274.834774 229.364147 
L 273.860249 230.681246 
L 272.526903 232.349384 
L 270.44855 234.626433 
L 269.745736 235.334621 
L 267.03685 237.762483 
L 266.355486 238.319858 
L 263.625151 240.331024 
L 262.162924 241.305095 
L 260.213451 242.486182 
L 256.883427 244.290332 
L 256.801752 244.330909 
L 253.390053 245.854473 
L 249.978353 247.184259 
L 249.711623 247.275569 
L 246.566654 248.272667 
L 243.154954 249.195364 
L 239.743255 249.965977 
L 238.152222 250.260806 
L 236.331556 250.575742 
L 232.919856 251.041366 
L 229.508157 251.384021 
L 226.096457 251.609468 
L 222.684758 251.723109 
L 219.273058 251.730024 
L 215.861359 251.634985 
L 212.44966 251.442487 
L 209.03796 251.156763 
L 205.626261 250.781806 
L 202.214561 250.321381 
z
" clip-path="url(#p63f4c8ecbe)" style="fill: none; stroke: #0000ff; stroke-width: 1.5"/>
   </g>
   <g id="PathCollection_4">
    <path d="M 212.44966 262.565367 
L 209.182227 262.201754 
L 209.03796 262.185276 
L 205.626261 261.714627 
L 202.214561 261.17068 
L 198.802862 260.556142 
L 195.391163 259.873588 
L 192.399101 259.216517 
L 191.979463 259.121992 
L 188.567764 258.280081 
L 185.156064 257.375634 
L 181.744365 256.410909 
L 181.151101 256.23128 
L 178.332666 255.356219 
L 174.920966 254.23743 
L 172.045287 253.246043 
L 171.509267 253.05649 
L 168.097567 251.783058 
L 164.685868 250.457513 
L 164.203108 250.260806 
L 161.274168 249.036601 
L 157.862469 247.559096 
L 157.234348 247.275569 
L 154.45077 245.986263 
L 151.03907 244.356561 
L 150.905675 244.290332 
L 147.627371 242.619607 
L 145.119128 241.305095 
L 144.215671 240.818733 
L 140.803972 238.923507 
L 139.748659 238.319858 
L 137.392273 236.934791 
L 134.737899 235.334621 
L 133.980573 234.865118 
L 130.568874 232.692516 
L 130.044162 232.349384 
L 127.157174 230.407092 
L 125.642327 229.364147 
L 123.745475 228.019478 
L 121.482833 226.37891 
L 120.333776 225.520309 
L 117.549816 223.393673 
L 116.922076 222.899036 
L 113.828769 220.408436 
L 113.510377 220.143737 
L 110.306398 217.423199 
L 110.098677 217.240888 
L 106.970498 214.437962 
L 106.686978 214.175078 
L 103.809842 211.452725 
L 103.275278 210.928678 
L 100.814089 208.467488 
L 99.863579 207.481415 
L 97.973695 205.482251 
L 96.45188 203.809868 
L 95.279837 202.497014 
L 93.04018 199.886827 
L 92.724349 199.511777 
L 90.322152 196.52654 
L 89.628481 195.624012 
L 88.057352 193.541303 
L 86.216781 190.986559 
L 85.912265 190.556066 
L 83.915707 187.570829 
L 82.805082 185.817873 
L 82.038468 184.585592 
L 80.292986 181.600355 
L 79.393383 179.956946 
L 78.6721 178.615118 
L 77.182868 175.629882 
L 75.981683 173.029515 
L 75.807091 172.644645 
L 74.579133 169.659408 
L 73.465938 166.674171 
L 72.569984 163.978013 
L 72.475662 163.688934 
L 71.635763 160.703697 
L 70.923076 157.71846 
L 70.34322 154.733223 
L 69.902147 151.747986 
L 69.606174 148.762749 
L 69.462004 145.777512 
L 69.476761 142.792275 
L 69.658022 139.807038 
L 70.013853 136.821801 
L 70.552849 133.836564 
L 71.284179 130.851327 
L 72.217635 127.86609 
L 72.569984 126.937376 
L 73.396289 124.880853 
L 74.824033 121.895616 
L 75.981683 119.821605 
L 76.522843 118.910379 
L 78.549153 115.925142 
L 79.393383 114.824991 
L 80.940927 112.939905 
L 82.805082 110.912713 
L 83.752187 109.954668 
L 86.216781 107.703108 
L 87.085031 106.969431 
L 89.628481 105.010007 
L 91.077614 103.984194 
L 93.04018 102.707668 
L 95.921607 100.998957 
L 96.45188 100.708103 
L 99.863579 98.999793 
L 102.054301 98.01372 
L 103.275278 97.501864 
L 106.686978 96.217252 
L 110.098677 95.086147 
L 110.295377 95.028483 
L 113.510377 94.144666 
L 116.922076 93.337268 
L 120.333776 92.655344 
L 123.745475 92.093381 
L 124.123041 92.043246 
L 127.157174 91.662996 
L 130.568874 91.339519 
L 133.980573 91.116569 
L 137.392273 90.99014 
L 140.803972 90.956439 
L 144.215671 91.011867 
L 147.627371 91.15301 
L 151.03907 91.376625 
L 154.45077 91.679633 
L 157.718202 92.043246 
L 157.862469 92.059724 
L 161.274168 92.530373 
L 164.685868 93.07432 
L 168.097567 93.688858 
L 171.509267 94.371412 
L 174.501329 95.028483 
L 174.920966 95.123008 
L 178.332666 95.964919 
L 181.744365 96.869366 
L 185.156064 97.834091 
L 185.749329 98.01372 
L 188.567764 98.888781 
L 191.979463 100.00757 
L 194.855143 100.998957 
L 195.391163 101.18851 
L 198.802862 102.461942 
L 202.214561 103.787487 
L 202.697321 103.984194 
L 205.626261 105.208399 
L 209.03796 106.685904 
L 209.666081 106.969431 
L 212.44966 108.258737 
L 215.861359 109.888439 
L 215.994754 109.954668 
L 219.273058 111.625393 
L 221.781301 112.939905 
L 222.684758 113.426267 
L 226.096457 115.321493 
L 227.15177 115.925142 
L 229.508157 117.310209 
L 232.16253 118.910379 
L 232.919856 119.379882 
L 236.331556 121.552484 
L 236.856267 121.895616 
L 239.743255 123.837908 
L 241.258102 124.880853 
L 243.154954 126.225522 
L 245.417596 127.86609 
L 246.566654 128.724691 
L 249.350613 130.851327 
L 249.978353 131.345964 
L 253.07166 133.836564 
L 253.390053 134.101263 
L 256.594031 136.821801 
L 256.801752 137.004112 
L 259.929932 139.807038 
L 260.213451 140.069922 
L 263.090587 142.792275 
L 263.625151 143.316322 
L 266.08634 145.777512 
L 267.03685 146.763585 
L 268.926735 148.762749 
L 270.44855 150.435132 
L 271.620593 151.747986 
L 273.860249 154.358173 
L 274.17608 154.733223 
L 276.578277 157.71846 
L 277.271948 158.620988 
L 278.843077 160.703697 
L 280.683648 163.258441 
L 280.988164 163.688934 
L 282.984723 166.674171 
L 284.095347 168.427127 
L 284.861962 169.659408 
L 286.607444 172.644645 
L 287.507047 174.288054 
L 288.22833 175.629882 
L 289.717562 178.615118 
L 290.918746 181.215485 
L 291.093338 181.600355 
L 292.321297 184.585592 
L 293.434492 187.570829 
L 294.330446 190.266987 
L 294.424768 190.556066 
L 295.264666 193.541303 
L 295.977353 196.52654 
L 296.557209 199.511777 
L 296.998282 202.497014 
L 297.294255 205.482251 
L 297.438425 208.467488 
L 297.423668 211.452725 
L 297.242407 214.437962 
L 296.886576 217.423199 
L 296.34758 220.408436 
L 295.61625 223.393673 
L 294.682794 226.37891 
L 294.330446 227.307624 
L 293.50414 229.364147 
L 292.076396 232.349384 
L 290.918746 234.423395 
L 290.377587 235.334621 
L 288.351276 238.319858 
L 287.507047 239.420009 
L 285.959503 241.305095 
L 284.095347 243.332287 
L 283.148242 244.290332 
L 280.683648 246.541892 
L 279.815398 247.275569 
L 277.271948 249.234993 
L 275.822815 250.260806 
L 273.860249 251.537332 
L 270.978822 253.246043 
L 270.44855 253.536897 
L 267.03685 255.245207 
L 264.846128 256.23128 
L 263.625151 256.743136 
L 260.213451 258.027748 
L 256.801752 259.158853 
L 256.605052 259.216517 
L 253.390053 260.100334 
L 249.978353 260.907732 
L 246.566654 261.589656 
L 243.154954 262.151619 
L 242.777388 262.201754 
L 239.743255 262.582004 
L 236.331556 262.905481 
L 232.919856 263.128431 
L 229.508157 263.25486 
L 226.096457 263.288561 
L 222.684758 263.233133 
L 219.273058 263.09199 
L 215.861359 262.868375 
L 212.44966 262.565367 
z
" clip-path="url(#p63f4c8ecbe)" style="fill: none; stroke: #0000ff; stroke-width: 1.5"/>
   </g>
   <g id="PathCollection_5">
    <path d="M 205.626261 271.301294 
L 204.780615 271.157465 
L 202.214561 270.710961 
L 198.802862 270.053364 
L 195.391163 269.335526 
L 191.979463 268.559403 
L 190.401963 268.172228 
L 188.567764 267.711775 
L 185.156064 266.795049 
L 181.744365 265.824304 
L 179.627626 265.186991 
L 178.332666 264.788197 
L 174.920966 263.678683 
L 171.509267 262.519291 
L 170.61932 262.201754 
L 168.097567 261.281419 
L 164.685868 259.985245 
L 162.740734 259.216517 
L 161.274168 258.623519 
L 157.862469 257.190229 
L 155.655509 256.23128 
L 154.45077 255.695556 
L 151.03907 254.124912 
L 149.187864 253.246043 
L 147.627371 252.487641 
L 144.215671 250.779507 
L 143.210376 250.260806 
L 140.803972 248.9894 
L 137.638562 247.275569 
L 137.392273 247.138946 
L 133.980573 245.189936 
L 132.44276 244.290332 
L 130.568874 243.166848 
L 127.532362 241.305095 
L 127.157174 241.069189 
L 123.745475 238.869715 
L 122.911452 238.319858 
L 120.333776 236.576492 
L 118.535106 235.334621 
L 116.922076 234.191355 
L 114.375279 232.349384 
L 113.510377 231.706783 
L 110.419222 229.364147 
L 110.098677 229.114411 
L 106.686978 226.403844 
L 106.656217 226.37891 
L 103.275278 223.56049 
L 103.078824 223.393673 
L 99.863579 220.583543 
L 99.666824 220.408436 
L 96.45188 217.460914 
L 96.411468 217.423199 
L 93.313019 214.437962 
L 93.04018 214.166472 
L 90.360852 211.452725 
L 89.628481 210.685942 
L 87.546154 208.467488 
L 86.216781 207.001806 
L 84.861929 205.482251 
L 82.805082 203.091983 
L 82.301647 202.497014 
L 79.873203 199.511777 
L 79.393383 198.896845 
L 77.574617 196.52654 
L 75.981683 194.364702 
L 75.384888 193.541303 
L 73.320216 190.556066 
L 72.569984 189.417096 
L 71.37367 187.570829 
L 69.533247 184.585592 
L 69.158284 183.940349 
L 67.820542 181.600355 
L 66.208586 178.615118 
L 65.746585 177.698649 
L 64.720565 175.629882 
L 63.341186 172.644645 
L 62.334886 170.291615 
L 62.068871 169.659408 
L 60.926071 166.674171 
L 59.888209 163.688934 
L 58.959386 160.703697 
L 58.923186 160.569508 
L 58.166732 157.71846 
L 57.49015 154.733223 
L 56.933128 151.747986 
L 56.500445 148.762749 
L 56.197137 145.777512 
L 56.028515 142.792275 
L 56.000186 139.807038 
L 56.118071 136.821801 
L 56.38843 133.836564 
L 56.817886 130.851327 
L 57.413451 127.86609 
L 58.182554 124.880853 
L 58.923186 122.547116 
L 59.140596 121.895616 
L 60.322531 118.910379 
L 61.711831 115.925142 
L 62.334886 114.75607 
L 63.357172 112.939905 
L 65.266219 109.954668 
L 65.746585 109.282155 
L 67.498649 106.969431 
L 69.158284 105.001207 
L 70.071171 103.984194 
L 72.569984 101.457026 
L 73.05415 100.998957 
L 75.981683 98.463029 
L 76.538797 98.01372 
L 79.393383 95.890729 
L 80.645513 95.028483 
L 82.805082 93.648758 
L 85.536578 92.043246 
L 86.216781 91.670368 
L 89.628481 89.947994 
L 91.564346 89.058009 
L 93.04018 88.421679 
L 96.45188 87.085219 
L 99.334503 86.072772 
L 99.863579 85.897665 
L 103.275278 84.882278 
L 106.686978 83.989122 
L 110.098677 83.213205 
L 110.737909 83.087535 
L 113.510377 82.571051 
L 116.922076 82.037083 
L 120.333776 81.602376 
L 123.745475 81.263233 
L 127.157174 81.016134 
L 130.568874 80.857734 
L 133.980573 80.784845 
L 137.392273 80.794432 
L 140.803972 80.8836 
L 144.215671 81.04959 
L 147.627371 81.289767 
L 151.03907 81.601618 
L 154.45077 81.982738 
L 157.862469 82.430833 
L 161.274168 82.943706 
L 162.119814 83.087535 
L 164.685868 83.534039 
L 168.097567 84.191636 
L 171.509267 84.909474 
L 174.920966 85.685597 
L 176.498466 86.072772 
L 178.332666 86.533225 
L 181.744365 87.449951 
L 185.156064 88.420696 
L 187.272803 89.058009 
L 188.567764 89.456803 
L 191.979463 90.566317 
L 195.391163 91.725709 
L 196.28111 92.043246 
L 198.802862 92.963581 
L 202.214561 94.259755 
L 204.159696 95.028483 
L 205.626261 95.621481 
L 209.03796 97.054771 
L 211.24492 98.01372 
L 212.44966 98.549444 
L 215.861359 100.120088 
L 217.712565 100.998957 
L 219.273058 101.757359 
L 222.684758 103.465493 
L 223.690054 103.984194 
L 226.096457 105.2556 
L 229.261867 106.969431 
L 229.508157 107.106054 
L 232.919856 109.055064 
L 234.457669 109.954668 
L 236.331556 111.078152 
L 239.368068 112.939905 
L 239.743255 113.175811 
L 243.154954 115.375285 
L 243.988977 115.925142 
L 246.566654 117.668508 
L 248.365323 118.910379 
L 249.978353 120.053645 
L 252.52515 121.895616 
L 253.390053 122.538217 
L 256.481208 124.880853 
L 256.801752 125.130589 
L 260.213451 127.841156 
L 260.244212 127.86609 
L 263.625151 130.68451 
L 263.821605 130.851327 
L 267.03685 133.661457 
L 267.233605 133.836564 
L 270.44855 136.784086 
L 270.488961 136.821801 
L 273.58741 139.807038 
L 273.860249 140.078528 
L 276.539577 142.792275 
L 277.271948 143.559058 
L 279.354275 145.777512 
L 280.683648 147.243194 
L 282.0385 148.762749 
L 284.095347 151.153017 
L 284.598782 151.747986 
L 287.027226 154.733223 
L 287.507047 155.348155 
L 289.325812 157.71846 
L 290.918746 159.880298 
L 291.515542 160.703697 
L 293.580213 163.688934 
L 294.330446 164.827904 
L 295.526759 166.674171 
L 297.367182 169.659408 
L 297.742145 170.304651 
L 299.079887 172.644645 
L 300.691843 175.629882 
L 301.153844 176.546351 
L 302.179864 178.615118 
L 303.559244 181.600355 
L 304.565544 183.953385 
L 304.831558 184.585592 
L 305.974358 187.570829 
L 307.01222 190.556066 
L 307.941043 193.541303 
L 307.977243 193.675492 
L 308.733697 196.52654 
L 309.410279 199.511777 
L 309.967301 202.497014 
L 310.399984 205.482251 
L 310.703292 208.467488 
L 310.871914 211.452725 
L 310.900244 214.437962 
L 310.782359 217.423199 
L 310.511999 220.408436 
L 310.082543 223.393673 
L 309.486978 226.37891 
L 308.717875 229.364147 
L 307.977243 231.697884 
L 307.759833 232.349384 
L 306.577898 235.334621 
L 305.188598 238.319858 
L 304.565544 239.48893 
L 303.543258 241.305095 
L 301.634211 244.290332 
L 301.153844 244.962845 
L 299.40178 247.275569 
L 297.742145 249.243793 
L 296.829258 250.260806 
L 294.330446 252.787974 
L 293.84628 253.246043 
L 290.918746 255.781971 
L 290.361632 256.23128 
L 287.507047 258.354271 
L 286.254916 259.216517 
L 284.095347 260.596242 
L 281.363851 262.201754 
L 280.683648 262.574632 
L 277.271948 264.297006 
L 275.336083 265.186991 
L 273.860249 265.823321 
L 270.44855 267.159781 
L 267.565927 268.172228 
L 267.03685 268.347335 
L 263.625151 269.362722 
L 260.213451 270.255878 
L 256.801752 271.031795 
L 256.16252 271.157465 
L 253.390053 271.673949 
L 249.978353 272.207917 
L 246.566654 272.642624 
L 243.154954 272.981767 
L 239.743255 273.228866 
L 236.331556 273.387266 
L 232.919856 273.460155 
L 229.508157 273.450568 
L 226.096457 273.3614 
L 222.684758 273.19541 
L 219.273058 272.955233 
L 215.861359 272.643382 
L 212.44966 272.262262 
L 209.03796 271.814167 
L 205.626261 271.301294 
z
" clip-path="url(#p63f4c8ecbe)" style="fill: none; stroke: #0000ff; stroke-width: 1.5"/>
   </g>
   <g id="PathCollection_6">
    <path d="M 209.03796 280.493082 
L 206.698386 280.113176 
L 205.626261 279.935404 
L 202.214561 279.308052 
L 198.802862 278.624805 
L 195.391163 277.887327 
L 192.113376 277.127939 
L 191.979463 277.096265 
L 188.567764 276.229202 
L 185.156064 275.311531 
L 181.744365 274.344747 
L 181.070191 274.142702 
L 178.332666 273.305281 
L 174.920966 272.212449 
L 171.761908 271.157465 
L 171.509267 271.071326 
L 168.097567 269.852044 
L 164.685868 268.589104 
L 163.603608 268.172228 
L 161.274168 267.25614 
L 157.862469 265.868493 
L 156.242756 265.186991 
L 154.45077 264.417024 
L 151.03907 262.904448 
L 149.501744 262.201754 
L 147.627371 261.326641 
L 144.215671 259.68899 
L 143.259666 259.216517 
L 140.803972 257.976577 
L 137.426479 256.23128 
L 137.392273 256.213213 
L 133.980573 254.358038 
L 131.979779 253.246043 
L 130.568874 252.444327 
L 127.157174 250.461829 
L 126.819719 250.260806 
L 123.745475 248.387967 
L 121.955805 247.275569 
L 120.333776 246.24399 
L 117.321798 244.290332 
L 116.922076 244.024905 
L 113.510377 241.710591 
L 112.924429 241.305095 
L 110.098677 239.302578 
L 108.73715 238.319858 
L 106.686978 236.803649 
L 104.736039 235.334621 
L 103.275278 234.206918 
L 100.911308 232.349384 
L 99.863579 231.504786 
L 97.253843 229.364147 
L 96.45188 228.688843 
L 93.755147 226.37891 
L 93.04018 225.749763 
L 90.407288 223.393673 
L 89.628481 222.677171 
L 87.202854 220.408436 
L 86.216781 219.459492 
L 84.134914 217.423199 
L 82.805082 216.083775 
L 81.196971 214.437962 
L 79.393383 212.535478 
L 78.382938 211.452725 
L 75.981683 208.798222 
L 75.687102 208.467488 
L 73.118865 205.482251 
L 72.569984 204.821423 
L 70.668914 202.497014 
L 69.158284 200.58431 
L 68.323993 199.511777 
L 66.088451 196.52654 
L 65.746585 196.05011 
L 63.973444 193.541303 
L 62.334886 191.128814 
L 61.95164 190.556066 
L 60.048154 187.570829 
L 58.923186 185.722558 
L 58.24138 184.585592 
L 56.543889 181.600355 
L 55.511487 179.683492 
L 54.944541 178.615118 
L 53.456469 175.629882 
L 52.099787 172.737064 
L 52.05708 172.644645 
L 50.781771 169.659408 
L 49.598678 166.674171 
L 48.688088 164.170049 
L 48.515725 163.688934 
L 47.553381 160.703697 
L 46.691399 157.71846 
L 45.933367 154.733223 
L 45.283046 151.747986 
L 45.276388 151.710644 
L 44.758819 148.762749 
L 44.347734 145.777512 
L 44.053736 142.792275 
L 43.881149 139.807038 
L 43.834514 136.821801 
L 43.918602 133.836564 
L 44.138425 130.851327 
L 44.499258 127.86609 
L 45.006652 124.880853 
L 45.276388 123.6509 
L 45.678677 121.895616 
L 46.523219 118.910379 
L 47.538883 115.925142 
L 48.688088 113.050683 
L 48.734528 112.939905 
L 50.162251 109.954668 
L 51.792644 106.969431 
L 52.099787 106.465387 
L 53.691389 103.984194 
L 55.511487 101.441881 
L 55.846224 100.998957 
L 58.326834 98.01372 
L 58.923186 97.357652 
L 61.167326 95.028483 
L 62.334886 93.914655 
L 64.421727 92.043246 
L 65.746585 90.944026 
L 68.174657 89.058009 
L 69.158284 88.347143 
L 72.53549 86.072772 
L 72.569984 86.051054 
L 75.981683 84.044712 
L 77.744904 83.087535 
L 79.393383 82.246506 
L 82.805082 80.643207 
L 84.058435 80.102298 
L 86.216781 79.222972 
L 89.628481 77.956625 
L 92.130169 77.117061 
L 93.04018 76.827645 
L 96.45188 75.846869 
L 99.863579 74.976422 
L 103.275278 74.212199 
L 103.685095 74.131824 
L 106.686978 73.571325 
L 110.098677 73.027913 
L 113.510377 72.575751 
L 116.922076 72.211717 
L 120.333776 71.93283 
L 123.745475 71.736242 
L 127.157174 71.61923 
L 130.568874 71.579191 
L 133.980573 71.613632 
L 137.392273 71.72017 
L 140.803972 71.89652 
L 144.215671 72.140494 
L 147.627371 72.449992 
L 151.03907 72.823003 
L 154.45077 73.257596 
L 157.862469 73.751918 
L 160.202044 74.131824 
L 161.274168 74.309596 
L 164.685868 74.936948 
L 168.097567 75.620195 
L 171.509267 76.357673 
L 174.787053 77.117061 
L 174.920966 77.148735 
L 178.332666 78.015798 
L 181.744365 78.933469 
L 185.156064 79.900253 
L 185.830238 80.102298 
L 188.567764 80.939719 
L 191.979463 82.032551 
L 195.138521 83.087535 
L 195.391163 83.173674 
L 198.802862 84.392956 
L 202.214561 85.655896 
L 203.296822 86.072772 
L 205.626261 86.98886 
L 209.03796 88.376507 
L 210.657673 89.058009 
L 212.44966 89.827976 
L 215.861359 91.340552 
L 217.398685 92.043246 
L 219.273058 92.918359 
L 222.684758 94.55601 
L 223.640763 95.028483 
L 226.096457 96.268423 
L 229.47395 98.01372 
L 229.508157 98.031787 
L 232.919856 99.886962 
L 234.92065 100.998957 
L 236.331556 101.800673 
L 239.743255 103.783171 
L 240.080711 103.984194 
L 243.154954 105.857033 
L 244.944624 106.969431 
L 246.566654 108.00101 
L 249.578631 109.954668 
L 249.978353 110.220095 
L 253.390053 112.534409 
L 253.976 112.939905 
L 256.801752 114.942422 
L 258.16328 115.925142 
L 260.213451 117.441351 
L 262.16439 118.910379 
L 263.625151 120.038082 
L 265.989121 121.895616 
L 267.03685 122.740214 
L 269.646586 124.880853 
L 270.44855 125.556157 
L 273.145283 127.86609 
L 273.860249 128.495237 
L 276.493142 130.851327 
L 277.271948 131.567829 
L 279.697575 133.836564 
L 280.683648 134.785508 
L 282.765516 136.821801 
L 284.095347 138.161225 
L 285.703458 139.807038 
L 287.507047 141.709522 
L 288.517491 142.792275 
L 290.918746 145.446778 
L 291.213327 145.777512 
L 293.781564 148.762749 
L 294.330446 149.423577 
L 296.231515 151.747986 
L 297.742145 153.66069 
L 298.576437 154.733223 
L 300.811978 157.71846 
L 301.153844 158.19489 
L 302.926986 160.703697 
L 304.565544 163.116186 
L 304.94879 163.688934 
L 306.852275 166.674171 
L 307.977243 168.522442 
L 308.65905 169.659408 
L 310.356541 172.644645 
L 311.388943 174.561508 
L 311.955888 175.629882 
L 313.443961 178.615118 
L 314.800642 181.507936 
L 314.843349 181.600355 
L 316.118659 184.585592 
L 317.301752 187.570829 
L 318.212341 190.074951 
L 318.384705 190.556066 
L 319.347049 193.541303 
L 320.20903 196.52654 
L 320.967062 199.511777 
L 321.617383 202.497014 
L 321.624041 202.534356 
L 322.14161 205.482251 
L 322.552695 208.467488 
L 322.846693 211.452725 
L 323.01928 214.437962 
L 323.065915 217.423199 
L 322.981828 220.408436 
L 322.762004 223.393673 
L 322.401171 226.37891 
L 321.893777 229.364147 
L 321.624041 230.5941 
L 321.221752 232.349384 
L 320.37721 235.334621 
L 319.361546 238.319858 
L 318.212341 241.194317 
L 318.165901 241.305095 
L 316.738178 244.290332 
L 315.107785 247.275569 
L 314.800642 247.779613 
L 313.209041 250.260806 
L 311.388943 252.803119 
L 311.054206 253.246043 
L 308.573596 256.23128 
L 307.977243 256.887348 
L 305.733103 259.216517 
L 304.565544 260.330345 
L 302.478702 262.201754 
L 301.153844 263.300974 
L 298.725773 265.186991 
L 297.742145 265.897857 
L 294.364939 268.172228 
L 294.330446 268.193946 
L 290.918746 270.200288 
L 289.155525 271.157465 
L 287.507047 271.998494 
L 284.095347 273.601793 
L 282.841994 274.142702 
L 280.683648 275.022028 
L 277.271948 276.288375 
L 274.77026 277.127939 
L 273.860249 277.417355 
L 270.44855 278.398131 
L 267.03685 279.268578 
L 263.625151 280.032801 
L 263.215334 280.113176 
L 260.213451 280.673675 
L 256.801752 281.217087 
L 253.390053 281.669249 
L 249.978353 282.033283 
L 246.566654 282.31217 
L 243.154954 282.508758 
L 239.743255 282.62577 
L 236.331556 282.665809 
L 232.919856 282.631368 
L 229.508157 282.52483 
L 226.096457 282.34848 
L 222.684758 282.104506 
L 219.273058 281.795008 
L 215.861359 281.421997 
L 212.44966 280.987404 
L 209.03796 280.493082 
z
" clip-path="url(#p63f4c8ecbe)" style="fill: none; stroke: #0000ff; stroke-width: 1.5"/>
   </g>
   <g id="PathCollection_7">
    <path d="M 215.861359 289.461183 
L 213.030872 289.068887 
L 212.44966 288.986748 
L 209.03796 288.445441 
L 205.626261 287.850387 
L 202.214561 287.203083 
L 198.802862 286.504968 
L 196.887678 286.08365 
L 195.391163 285.748073 
L 191.979463 284.929926 
L 188.567764 284.064081 
L 185.156064 283.151842 
L 184.967288 283.098413 
L 181.744365 282.16876 
L 178.332666 281.139481 
L 175.069877 280.113176 
L 174.920966 280.06543 
L 171.509267 278.918734 
L 168.097567 277.730336 
L 166.433076 277.127939 
L 164.685868 276.483368 
L 161.274168 275.178998 
L 158.647562 274.142702 
L 157.862469 273.826897 
L 154.45077 272.406319 
L 151.531637 271.157465 
L 151.03907 270.942575 
L 147.627371 269.405607 
L 144.956369 268.172228 
L 144.215671 267.823375 
L 140.803972 266.169898 
L 138.823931 265.186991 
L 137.392273 264.461979 
L 133.980573 262.691941 
L 133.058754 262.201754 
L 130.568874 260.850763 
L 127.617392 259.216517 
L 127.157174 258.956394 
L 123.745475 256.981779 
L 122.475094 256.23128 
L 120.333776 254.939669 
L 117.578342 253.246043 
L 116.922076 252.834009 
L 113.510377 250.648 
L 112.917951 250.260806 
L 110.098677 248.378199 
L 108.476221 247.275569 
L 106.686978 246.032605 
L 104.221936 244.290332 
L 103.275278 243.606056 
L 100.145627 241.305095 
L 99.863579 241.092914 
L 96.45188 238.481303 
L 96.244556 238.319858 
L 93.04018 235.765944 
L 92.507571 235.334621 
L 89.628481 232.946929 
L 88.919187 232.349384 
L 86.216781 230.01659 
L 85.472563 229.364147 
L 82.805082 226.966481 
L 82.161271 226.37891 
L 79.393383 223.787279 
L 78.979266 223.393673 
L 75.981683 220.468671 
L 75.920859 220.408436 
L 72.991524 217.423199 
L 72.569984 216.981256 
L 70.179577 214.437962 
L 69.158284 213.319447 
L 67.478384 211.452725 
L 65.746585 209.470125 
L 64.883226 208.467488 
L 62.391044 205.482251 
L 62.334886 205.412513 
L 60.020379 202.497014 
L 58.923186 201.06819 
L 57.744707 199.511777 
L 55.561324 196.52654 
L 55.511487 196.455463 
L 53.496592 193.541303 
L 52.099787 191.443663 
L 51.516858 190.556066 
L 49.641628 187.570829 
L 48.688088 185.983229 
L 47.860135 184.585592 
L 46.176188 181.600355 
L 45.276388 179.920816 
L 44.586418 178.615118 
L 43.096692 175.629882 
L 41.864689 173.015632 
L 41.692234 172.644645 
L 40.3996 169.659408 
L 39.191972 166.674171 
L 38.45299 164.696936 
L 38.081418 163.688934 
L 37.077739 160.703697 
L 36.166023 157.71846 
L 35.34931 154.733223 
L 35.04129 153.445418 
L 34.640965 151.747986 
L 34.039522 148.762749 
L 33.540724 145.777512 
L 33.14803 142.792275 
L 32.865052 139.807038 
L 32.695572 136.821801 
L 32.643545 133.836564 
L 32.713113 130.851327 
L 32.908616 127.86609 
L 33.2346 124.880853 
L 33.695837 121.895616 
L 34.297329 118.910379 
L 35.04129 115.937155 
L 35.044423 115.925142 
L 35.969193 112.939905 
L 37.056235 109.954668 
L 38.312057 106.969431 
L 38.45299 106.671939 
L 39.784779 103.984194 
L 41.452053 100.998957 
L 41.864689 100.331298 
L 43.367051 98.01372 
L 45.276388 95.351963 
L 45.520354 95.028483 
L 47.977479 92.043246 
L 48.688088 91.249777 
L 50.759112 89.058009 
L 52.099787 87.747161 
L 53.912117 86.072772 
L 55.511487 84.699646 
L 57.505471 83.087535 
L 58.923186 82.017045 
L 61.626358 80.102298 
L 62.334886 79.631522 
L 65.746585 77.508285 
L 66.419693 77.117061 
L 69.158284 75.616894 
L 72.086957 74.131824 
L 72.569984 73.900214 
L 75.981683 72.379137 
L 78.997074 71.146587 
L 79.393383 70.992847 
L 82.805082 69.772137 
L 86.216781 68.664758 
L 87.927062 68.16135 
L 89.628481 67.684259 
L 93.04018 66.822706 
L 96.45188 66.058481 
L 99.863579 65.388294 
L 101.104357 65.176113 
L 103.275278 64.82111 
L 106.686978 64.345619 
L 110.098677 63.95207 
L 113.510377 63.637901 
L 116.922076 63.400654 
L 120.333776 63.237969 
L 123.745475 63.147586 
L 127.157174 63.127332 
L 130.568874 63.175122 
L 133.980573 63.288951 
L 137.392273 63.466895 
L 140.803972 63.707101 
L 144.215671 64.007789 
L 147.627371 64.367244 
L 151.03907 64.783817 
L 153.869557 65.176113 
L 154.45077 65.258252 
L 157.862469 65.799559 
L 161.274168 66.394613 
L 164.685868 67.041917 
L 168.097567 67.740032 
L 170.012751 68.16135 
L 171.509267 68.496927 
L 174.920966 69.315074 
L 178.332666 70.180919 
L 181.744365 71.093158 
L 181.933141 71.146587 
L 185.156064 72.07624 
L 188.567764 73.105519 
L 191.830552 74.131824 
L 191.979463 74.17957 
L 195.391163 75.326266 
L 198.802862 76.514664 
L 200.467354 77.117061 
L 202.214561 77.761632 
L 205.626261 79.066002 
L 208.252867 80.102298 
L 209.03796 80.418103 
L 212.44966 81.838681 
L 215.368792 83.087535 
L 215.861359 83.302425 
L 219.273058 84.839393 
L 221.94406 86.072772 
L 222.684758 86.421625 
L 226.096457 88.075102 
L 228.076498 89.058009 
L 229.508157 89.783021 
L 232.919856 91.553059 
L 233.841675 92.043246 
L 236.331556 93.394237 
L 239.283037 95.028483 
L 239.743255 95.288606 
L 243.154954 97.263221 
L 244.425335 98.01372 
L 246.566654 99.305331 
L 249.322087 100.998957 
L 249.978353 101.410991 
L 253.390053 103.597 
L 253.982478 103.984194 
L 256.801752 105.866801 
L 258.424208 106.969431 
L 260.213451 108.212395 
L 262.678493 109.954668 
L 263.625151 110.638944 
L 266.754803 112.939905 
L 267.03685 113.152086 
L 270.44855 115.763697 
L 270.655874 115.925142 
L 273.860249 118.479056 
L 274.392858 118.910379 
L 277.271948 121.298071 
L 277.981242 121.895616 
L 280.683648 124.22841 
L 281.427867 124.880853 
L 284.095347 127.278519 
L 284.739159 127.86609 
L 287.507047 130.457721 
L 287.921163 130.851327 
L 290.918746 133.776329 
L 290.97957 133.836564 
L 293.908905 136.821801 
L 294.330446 137.263744 
L 296.720852 139.807038 
L 297.742145 140.925553 
L 299.422045 142.792275 
L 301.153844 144.774875 
L 302.017204 145.777512 
L 304.509385 148.762749 
L 304.565544 148.832487 
L 306.88005 151.747986 
L 307.977243 153.17681 
L 309.155722 154.733223 
L 311.339105 157.71846 
L 311.388943 157.789537 
L 313.403837 160.703697 
L 314.800642 162.801337 
L 315.383572 163.688934 
L 317.258802 166.674171 
L 318.212341 168.261771 
L 319.040295 169.659408 
L 320.724241 172.644645 
L 321.624041 174.324184 
L 322.314011 175.629882 
L 323.803738 178.615118 
L 325.03574 181.229368 
L 325.208195 181.600355 
L 326.500829 184.585592 
L 327.708458 187.570829 
L 328.44744 189.548064 
L 328.819011 190.556066 
L 329.822691 193.541303 
L 330.734407 196.52654 
L 331.55112 199.511777 
L 331.859139 200.799582 
L 332.259465 202.497014 
L 332.860908 205.482251 
L 333.359705 208.467488 
L 333.7524 211.452725 
L 334.035377 214.437962 
L 334.204857 217.423199 
L 334.256884 220.408436 
L 334.187316 223.393673 
L 333.991814 226.37891 
L 333.665829 229.364147 
L 333.204593 232.349384 
L 332.6031 235.334621 
L 331.859139 238.307845 
L 331.856006 238.319858 
L 330.931236 241.305095 
L 329.844195 244.290332 
L 328.588372 247.275569 
L 328.44744 247.573061 
L 327.11565 250.260806 
L 325.448376 253.246043 
L 325.03574 253.913702 
L 323.533378 256.23128 
L 321.624041 258.893037 
L 321.380076 259.216517 
L 318.922951 262.201754 
L 318.212341 262.995223 
L 316.141317 265.186991 
L 314.800642 266.497839 
L 312.988312 268.172228 
L 311.388943 269.545354 
L 309.394958 271.157465 
L 307.977243 272.227955 
L 305.274071 274.142702 
L 304.565544 274.613478 
L 301.153844 276.736715 
L 300.480736 277.127939 
L 297.742145 278.628106 
L 294.813472 280.113176 
L 294.330446 280.344786 
L 290.918746 281.865863 
L 287.903355 283.098413 
L 287.507047 283.252153 
L 284.095347 284.472863 
L 280.683648 285.580242 
L 278.973367 286.08365 
L 277.271948 286.560741 
L 273.860249 287.422294 
L 270.44855 288.186519 
L 267.03685 288.856706 
L 265.796073 289.068887 
L 263.625151 289.42389 
L 260.213451 289.899381 
L 256.801752 290.29293 
L 253.390053 290.607099 
L 249.978353 290.844346 
L 246.566654 291.007031 
L 243.154954 291.097414 
L 239.743255 291.117668 
L 236.331556 291.069878 
L 232.919856 290.956049 
L 229.508157 290.778105 
L 226.096457 290.537899 
L 222.684758 290.237211 
L 219.273058 289.877756 
L 215.861359 289.461183 
z
" clip-path="url(#p63f4c8ecbe)" style="fill: none; stroke: #0000ff; stroke-width: 1.5"/>
   </g>
   <g id="PathCollection_8">
    <path d="M 226.096457 298.124112 
L 219.273058 297.367323 
L 212.44966 296.394998 
L 204.692857 295.039361 
L 198.802862 293.823775 
L 191.261996 292.054124 
L 185.156064 290.430881 
L 178.332666 288.433981 
L 171.063367 286.08365 
L 162.734833 283.098413 
L 155.140309 280.113176 
L 148.140247 277.127939 
L 141.628369 274.142702 
L 135.522302 271.157465 
L 129.757221 268.172228 
L 123.745475 264.875386 
L 116.922076 260.886944 
L 109.460323 256.23128 
L 103.275278 252.101474 
L 96.45188 247.266158 
L 88.656159 241.305095 
L 81.42431 235.334621 
L 74.719729 229.364147 
L 68.498779 223.393673 
L 62.334886 216.991826 
L 57.39993 211.452725 
L 52.461719 205.482251 
L 47.922572 199.511777 
L 43.760551 193.541303 
L 39.964092 187.570829 
L 36.530055 181.600355 
L 33.455336 175.629882 
L 30.736865 169.659408 
L 28.217891 163.240508 
L 26.392495 157.71846 
L 24.764893 151.747986 
L 23.538708 145.777512 
L 22.701115 139.807038 
L 22.277206 133.836564 
L 22.22882 130.851327 
L 22.294276 127.86609 
L 22.477373 124.880853 
L 22.78208 121.895616 
L 23.212544 118.910379 
L 23.773107 115.925142 
L 24.806192 111.722923 
L 25.316648 109.954668 
L 26.323202 106.969431 
L 28.217891 102.317708 
L 28.82308 100.998957 
L 30.355739 98.01372 
L 32.08143 95.028483 
L 35.04129 90.650258 
L 36.240024 89.058009 
L 38.70081 86.072772 
L 41.864689 82.701584 
L 45.276388 79.509861 
L 48.688088 76.683536 
L 52.138695 74.131824 
L 56.757896 71.146587 
L 62.097953 68.16135 
L 65.746585 66.39323 
L 69.158284 64.885011 
L 75.981683 62.304204 
L 79.393383 61.212942 
L 86.216781 59.335153 
L 89.628481 58.559738 
L 96.45188 57.276082 
L 103.275278 56.319984 
L 110.098677 55.688124 
L 116.922076 55.340305 
L 123.745475 55.257933 
L 130.568874 55.426537 
L 137.392273 55.832679 
L 144.215671 56.470583 
L 151.03907 57.337949 
L 157.862469 58.412483 
L 164.685868 59.696404 
L 171.509267 61.192396 
L 178.332666 62.887155 
L 186.473829 65.176113 
L 191.979463 66.889989 
L 198.802862 69.193564 
L 205.626261 71.699857 
L 212.44966 74.414604 
L 219.273058 77.343761 
L 226.096457 80.493513 
L 232.919856 83.870286 
L 239.743255 87.480756 
L 246.566654 91.331865 
L 253.390053 95.442773 
L 260.213451 99.838289 
L 267.03685 104.522134 
L 274.415527 109.954668 
L 281.929032 115.925142 
L 288.891473 121.895616 
L 295.349093 127.86609 
L 301.343101 133.836564 
L 306.884614 139.807038 
L 312.020071 145.777512 
L 316.751739 151.747986 
L 321.108654 157.71846 
L 325.092761 163.688934 
L 328.705289 169.659408 
L 331.961045 175.629882 
L 334.853639 181.600355 
L 337.3851 187.570829 
L 339.560875 193.541303 
L 341.367387 199.511777 
L 342.795715 205.482251 
L 343.830611 211.452725 
L 344.464631 217.423199 
L 344.67161 223.393673 
L 344.606153 226.37891 
L 344.423056 229.364147 
L 344.11835 232.349384 
L 343.687885 235.334621 
L 343.127322 238.319858 
L 342.094237 242.522077 
L 341.583782 244.290332 
L 340.577227 247.275569 
L 338.682538 251.927292 
L 338.077349 253.246043 
L 336.54469 256.23128 
L 334.818999 259.216517 
L 331.859139 263.594742 
L 330.660405 265.186991 
L 328.199619 268.172228 
L 325.03574 271.543416 
L 321.624041 274.735139 
L 318.212341 277.561464 
L 314.761734 280.113176 
L 310.142533 283.098413 
L 304.802477 286.08365 
L 301.153844 287.85177 
L 297.742145 289.359989 
L 290.918746 291.940796 
L 287.507047 293.032058 
L 280.683648 294.909847 
L 277.271948 295.685262 
L 270.44855 296.968918 
L 263.625151 297.925016 
L 256.801752 298.556876 
L 249.978353 298.904695 
L 243.154954 298.987067 
L 236.331556 298.818463 
L 229.508157 298.412321 
L 226.096457 298.124112 
L 226.096457 298.124112 
" clip-path="url(#p63f4c8ecbe)" style="fill: none; stroke: #0000ff; stroke-width: 1.5"/>
   </g>
   <g id="patch_3">
    <path d="M 183.450215 330.8025 
L 183.450215 23.4425 
" style="fill: none; stroke: #000000; stroke-width: 0.8; stroke-linejoin: miter; stroke-linecap: square"/>
   </g>
   <g id="patch_4">
    <path d="M 7.815929 177.1225 
L 359.0845 177.1225 
" style="fill: none; stroke: #000000; stroke-width: 0.8; stroke-linejoin: miter; stroke-linecap: square"/>
   </g>
   <g id="text_17">
    <g clip-path="url(#p63f4c8ecbe)">
     <!-- 25 -->
     <g transform="translate(161.857361 211.276327) rotate(-337.75871) scale(0.09 -0.09)">
      <defs>
       <path id="DejaVuSans-35" d="M 691 4666 
L 3169 4666 
L 3169 4134 
L 1269 4134 
L 1269 2991 
Q 1406 3038 1543 3061 
Q 1681 3084 1819 3084 
Q 2600 3084 3056 2656 
Q 3513 2228 3513 1497 
Q 3513 744 3044 326 
Q 2575 -91 1722 -91 
Q 1428 -91 1123 -41 
Q 819 9 494 109 
L 494 744 
Q 775 591 1075 516 
Q 1375 441 1709 441 
Q 2250 441 2565 725 
Q 2881 1009 2881 1497 
Q 2881 1984 2565 2268 
Q 2250 2553 1709 2553 
Q 1456 2553 1204 2497 
Q 953 2441 691 2322 
L 691 4666 
z
" transform="scale(0.015625)"/>
      </defs>
      <use xlink:href="#DejaVuSans-32"/>
      <use xlink:href="#DejaVuSans-35" x="63.623047"/>
     </g>
    </g>
   </g>
   <g id="text_18">
    <g clip-path="url(#p63f4c8ecbe)">
     <!-- 50 -->
     <g transform="translate(206.21149 132.579145) rotate(-334.657962) scale(0.09 -0.09)">
      <defs>
       <path id="DejaVuSans-30" d="M 2034 4250 
Q 1547 4250 1301 3770 
Q 1056 3291 1056 2328 
Q 1056 1369 1301 889 
Q 1547 409 2034 409 
Q 2525 409 2770 889 
Q 3016 1369 3016 2328 
Q 3016 3291 2770 3770 
Q 2525 4250 2034 4250 
z
M 2034 4750 
Q 2819 4750 3233 4129 
Q 3647 3509 3647 2328 
Q 3647 1150 3233 529 
Q 2819 -91 2034 -91 
Q 1250 -91 836 529 
Q 422 1150 422 2328 
Q 422 3509 836 4129 
Q 1250 4750 2034 4750 
z
" transform="scale(0.015625)"/>
      </defs>
      <use xlink:href="#DejaVuSans-35"/>
      <use xlink:href="#DejaVuSans-30" x="63.623047"/>
     </g>
    </g>
   </g>
   <g id="text_19">
    <g clip-path="url(#p63f4c8ecbe)">
     <!-- 75 -->
     <g transform="translate(138.058887 229.021012) rotate(-333.402471) scale(0.09 -0.09)">
      <defs>
       <path id="DejaVuSans-37" d="M 525 4666 
L 3525 4666 
L 3525 4397 
L 1831 0 
L 1172 0 
L 2766 4134 
L 525 4134 
L 525 4666 
z
" transform="scale(0.015625)"/>
      </defs>
      <use xlink:href="#DejaVuSans-37"/>
      <use xlink:href="#DejaVuSans-35" x="63.623047"/>
     </g>
    </g>
   </g>
   <g id="text_20">
    <g clip-path="url(#p63f4c8ecbe)">
     <!-- 100 -->
     <g transform="translate(223.403408 117.115217) rotate(-332.291637) scale(0.09 -0.09)">
      <defs>
       <path id="DejaVuSans-31" d="M 794 531 
L 1825 531 
L 1825 4091 
L 703 3866 
L 703 4441 
L 1819 4666 
L 2450 4666 
L 2450 531 
L 3481 531 
L 3481 0 
L 794 0 
L 794 531 
z
" transform="scale(0.015625)"/>
      </defs>
      <use xlink:href="#DejaVuSans-31"/>
      <use xlink:href="#DejaVuSans-30" x="63.623047"/>
      <use xlink:href="#DejaVuSans-30" x="127.246094"/>
     </g>
    </g>
   </g>
   <g id="text_21">
    <g clip-path="url(#p63f4c8ecbe)">
     <!-- 125 -->
     <g transform="translate(247.94478 122.221111) rotate(-326.568129) scale(0.09 -0.09)">
      <use xlink:href="#DejaVuSans-31"/>
      <use xlink:href="#DejaVuSans-32" x="63.623047"/>
      <use xlink:href="#DejaVuSans-35" x="127.246094"/>
     </g>
    </g>
   </g>
   <g id="text_22">
    <g clip-path="url(#p63f4c8ecbe)">
     <!-- 150 -->
     <g transform="translate(114.986512 246.592029) rotate(-332.286559) scale(0.09 -0.09)">
      <use xlink:href="#DejaVuSans-31"/>
      <use xlink:href="#DejaVuSans-35" x="63.623047"/>
      <use xlink:href="#DejaVuSans-30" x="127.246094"/>
     </g>
    </g>
   </g>
   <g id="text_23">
    <g clip-path="url(#p63f4c8ecbe)">
     <!-- 175 -->
     <g transform="translate(237.797797 97.55834) rotate(-332.606559) scale(0.09 -0.09)">
      <use xlink:href="#DejaVuSans-31"/>
      <use xlink:href="#DejaVuSans-37" x="63.623047"/>
      <use xlink:href="#DejaVuSans-35" x="127.246094"/>
     </g>
    </g>
   </g>
   <g id="text_24">
    <g clip-path="url(#p63f4c8ecbe)">
     <!-- 200 -->
     <g transform="translate(126.64953 270.053502) rotate(-336.781511) scale(0.09 -0.09)">
      <use xlink:href="#DejaVuSans-32"/>
      <use xlink:href="#DejaVuSans-30" x="63.623047"/>
      <use xlink:href="#DejaVuSans-30" x="127.246094"/>
     </g>
    </g>
   </g>
  </g>
 </g>
 <defs>
  <clipPath id="p63f4c8ecbe">
   <rect x="7.815929" y="23.4425" width="351.268571" height="307.36"/>
  </clipPath>
 </defs>
</svg>
