<?xml version="1.0" encoding="utf-8" standalone="no"?>
<!DOCTYPE svg PUBLIC "-//W3C//DTD SVG 1.1//EN"
  "http://www.w3.org/Graphics/SVG/1.1/DTD/svg11.dtd">
<svg xmlns:xlink="http://www.w3.org/1999/xlink" width="334.568308pt" height="337.670808pt" viewBox="0 0 334.568308 337.670808" xmlns="http://www.w3.org/2000/svg" version="1.1">
 <metadata>
  <rdf:RDF xmlns:dc="http://purl.org/dc/elements/1.1/" xmlns:cc="http://creativecommons.org/ns#" xmlns:rdf="http://www.w3.org/1999/02/22-rdf-syntax-ns#">
   <cc:Work>
    <dc:type rdf:resource="http://purl.org/dc/dcmitype/StillImage"/>
    <dc:date>2024-11-20T07:37:34.564906</dc:date>
    <dc:format>image/svg+xml</dc:format>
    <dc:creator>
     <cc:Agent>
      <dc:title>Matplotlib v3.6.2, https://matplotlib.org/</dc:title>
     </cc:Agent>
    </dc:creator>
   </cc:Work>
  </rdf:RDF>
 </metadata>
 <defs>
  <style type="text/css">*{stroke-linejoin: round; stroke-linecap: butt}</style>
 </defs>
 <g id="figure_1">
  <g id="patch_1">
   <path d="M 0 337.670808 
L 334.568308 337.670808 
L 334.568308 0 
L 0 0 
z
" style="fill: #ffffff"/>
  </g>
  <g id="axes_1">
   <g id="patch_2">
    <path d="M 7.2 330.470808 
L 314.228308 330.470808 
L 314.228308 23.4425 
L 7.2 23.4425 
z
" style="fill: #ffffff"/>
   </g>
   <g id="Quiver_1">
    <path d="M 27.444545 311.147348 
L 26.984002 310.349665 
L 26.062917 310.349665 
L 25.602375 311.147348 
L 26.062917 311.945031 
L 26.984002 311.945031 
L 27.444545 311.147348 
L 26.984002 310.349665 
" clip-path="url(#pf86ffa77aa)" style="fill: #0000ff"/>
    <path d="M 27.444545 281.327194 
L 26.984002 280.529511 
L 26.062917 280.529511 
L 25.602375 281.327194 
L 26.062917 282.124877 
L 26.984002 282.124877 
L 27.444545 281.327194 
L 26.984002 280.529511 
" clip-path="url(#pf86ffa77aa)" style="fill: #0000ff"/>
    <path d="M 27.444545 251.507039 
L 26.984002 250.709356 
L 26.062917 250.709356 
L 25.602375 251.507039 
L 26.062917 252.304722 
L 26.984002 252.304722 
L 27.444545 251.507039 
L 26.984002 250.709356 
" clip-path="url(#pf86ffa77aa)" style="fill: #0000ff"/>
    <path d="M 27.444545 221.686885 
L 26.984002 220.889202 
L 26.062917 220.889202 
L 25.602375 221.686885 
L 26.062917 222.484568 
L 26.984002 222.484568 
L 27.444545 221.686885 
L 26.984002 220.889202 
" clip-path="url(#pf86ffa77aa)" style="fill: #0000ff"/>
    <path d="M 27.444545 191.866731 
L 26.984002 191.069048 
L 26.062917 191.069048 
L 25.602375 191.866731 
L 26.062917 192.664414 
L 26.984002 192.664414 
L 27.444545 191.866731 
L 26.984002 191.069048 
" clip-path="url(#pf86ffa77aa)" style="fill: #0000ff"/>
    <path d="M 27.444545 162.046577 
L 26.984002 161.248894 
L 26.062917 161.248894 
L 25.602375 162.046577 
L 26.062917 162.84426 
L 26.984002 162.84426 
L 27.444545 162.046577 
L 26.984002 161.248894 
" clip-path="url(#pf86ffa77aa)" style="fill: #0000ff"/>
    <path d="M 27.444545 132.226423 
L 26.984002 131.42874 
L 26.062917 131.42874 
L 25.602375 132.226423 
L 26.062917 133.024105 
L 26.984002 133.024105 
L 27.444545 132.226423 
L 26.984002 131.42874 
" clip-path="url(#pf86ffa77aa)" style="fill: #0000ff"/>
    <path d="M 27.444545 102.406268 
L 26.984002 101.608585 
L 26.062917 101.608585 
L 25.602375 102.406268 
L 26.062917 103.203951 
L 26.984002 103.203951 
L 27.444545 102.406268 
L 26.984002 101.608585 
" clip-path="url(#pf86ffa77aa)" style="fill: #0000ff"/>
    <path d="M 27.444545 72.586114 
L 26.984002 71.788431 
L 26.062917 71.788431 
L 25.602375 72.586114 
L 26.062917 73.383797 
L 26.984002 73.383797 
L 27.444545 72.586114 
L 26.984002 71.788431 
" clip-path="url(#pf86ffa77aa)" style="fill: #0000ff"/>
    <path d="M 27.444545 42.76596 
L 26.984002 41.968277 
L 26.062917 41.968277 
L 25.602375 42.76596 
L 26.062917 43.563643 
L 26.984002 43.563643 
L 27.444545 42.76596 
L 26.984002 41.968277 
" clip-path="url(#pf86ffa77aa)" style="fill: #0000ff"/>
    <path d="M 56.722661 311.147348 
L 56.722661 311.526395 
L 57.480756 311.147348 
L 56.343614 314.937821 
L 55.206472 311.147348 
L 55.964567 311.526395 
L 55.964567 311.147348 
L 56.722661 311.147348 
" clip-path="url(#pf86ffa77aa)" style="fill: #0000ff"/>
    <path d="M 56.722661 281.327194 
L 56.722661 281.706241 
L 57.480756 281.327194 
L 56.343614 285.117666 
L 55.206472 281.327194 
L 55.964567 281.706241 
L 55.964567 281.327194 
L 56.722661 281.327194 
" clip-path="url(#pf86ffa77aa)" style="fill: #0000ff"/>
    <path d="M 56.722661 251.507039 
L 56.722661 251.886087 
L 57.480756 251.507039 
L 56.343614 255.297512 
L 55.206472 251.507039 
L 55.964567 251.886087 
L 55.964567 251.507039 
L 56.722661 251.507039 
" clip-path="url(#pf86ffa77aa)" style="fill: #0000ff"/>
    <path d="M 56.722661 221.686885 
L 56.722661 222.065932 
L 57.480756 221.686885 
L 56.343614 225.477358 
L 55.206472 221.686885 
L 55.964567 222.065932 
L 55.964567 221.686885 
L 56.722661 221.686885 
" clip-path="url(#pf86ffa77aa)" style="fill: #0000ff"/>
    <path d="M 56.722661 191.866731 
L 56.722661 192.245778 
L 57.480756 191.866731 
L 56.343614 195.657204 
L 55.206472 191.866731 
L 55.964567 192.245778 
L 55.964567 191.866731 
L 56.722661 191.866731 
" clip-path="url(#pf86ffa77aa)" style="fill: #0000ff"/>
    <path d="M 56.722661 162.046577 
L 56.722661 162.425624 
L 57.480756 162.046577 
L 56.343614 165.83705 
L 55.206472 162.046577 
L 55.964567 162.425624 
L 55.964567 162.046577 
L 56.722661 162.046577 
" clip-path="url(#pf86ffa77aa)" style="fill: #0000ff"/>
    <path d="M 56.722661 132.226423 
L 56.722661 132.60547 
L 57.480756 132.226423 
L 56.343614 136.016895 
L 55.206472 132.226423 
L 55.964567 132.60547 
L 55.964567 132.226423 
L 56.722661 132.226423 
" clip-path="url(#pf86ffa77aa)" style="fill: #0000ff"/>
    <path d="M 56.722661 102.406268 
L 56.722661 102.785316 
L 57.480756 102.406268 
L 56.343614 106.196741 
L 55.206472 102.406268 
L 55.964567 102.785316 
L 55.964567 102.406268 
L 56.722661 102.406268 
" clip-path="url(#pf86ffa77aa)" style="fill: #0000ff"/>
    <path d="M 56.722661 72.586114 
L 56.722661 72.965161 
L 57.480756 72.586114 
L 56.343614 76.376587 
L 55.206472 72.586114 
L 55.964567 72.965161 
L 55.964567 72.586114 
L 56.722661 72.586114 
" clip-path="url(#pf86ffa77aa)" style="fill: #0000ff"/>
    <path d="M 56.722661 42.76596 
L 56.722661 43.145007 
L 57.480756 42.76596 
L 56.343614 46.556433 
L 55.206472 42.76596 
L 55.964567 43.145007 
L 55.964567 42.76596 
L 56.722661 42.76596 
" clip-path="url(#pf86ffa77aa)" style="fill: #0000ff"/>
    <path d="M 86.921863 311.147348 
L 86.921863 311.905442 
L 88.438052 311.147348 
L 86.163768 318.728294 
L 83.889485 311.147348 
L 85.405674 311.905442 
L 85.405674 311.147348 
L 86.921863 311.147348 
" clip-path="url(#pf86ffa77aa)" style="fill: #0000ff"/>
    <path d="M 86.921863 281.327194 
L 86.921863 282.085288 
L 88.438052 281.327194 
L 86.163768 288.908139 
L 83.889485 281.327194 
L 85.405674 282.085288 
L 85.405674 281.327194 
L 86.921863 281.327194 
" clip-path="url(#pf86ffa77aa)" style="fill: #0000ff"/>
    <path d="M 86.921863 251.507039 
L 86.921863 252.265134 
L 88.438052 251.507039 
L 86.163768 259.087985 
L 83.889485 251.507039 
L 85.405674 252.265134 
L 85.405674 251.507039 
L 86.921863 251.507039 
" clip-path="url(#pf86ffa77aa)" style="fill: #0000ff"/>
    <path d="M 86.921863 221.686885 
L 86.921863 222.44498 
L 88.438052 221.686885 
L 86.163768 229.267831 
L 83.889485 221.686885 
L 85.405674 222.44498 
L 85.405674 221.686885 
L 86.921863 221.686885 
" clip-path="url(#pf86ffa77aa)" style="fill: #0000ff"/>
    <path d="M 86.921863 191.866731 
L 86.921863 192.624826 
L 88.438052 191.866731 
L 86.163768 199.447677 
L 83.889485 191.866731 
L 85.405674 192.624826 
L 85.405674 191.866731 
L 86.921863 191.866731 
" clip-path="url(#pf86ffa77aa)" style="fill: #0000ff"/>
    <path d="M 86.921863 162.046577 
L 86.921863 162.804671 
L 88.438052 162.046577 
L 86.163768 169.627523 
L 83.889485 162.046577 
L 85.405674 162.804671 
L 85.405674 162.046577 
L 86.921863 162.046577 
" clip-path="url(#pf86ffa77aa)" style="fill: #0000ff"/>
    <path d="M 86.921863 132.226423 
L 86.921863 132.984517 
L 88.438052 132.226423 
L 86.163768 139.807368 
L 83.889485 132.226423 
L 85.405674 132.984517 
L 85.405674 132.226423 
L 86.921863 132.226423 
" clip-path="url(#pf86ffa77aa)" style="fill: #0000ff"/>
    <path d="M 86.921863 102.406268 
L 86.921863 103.164363 
L 88.438052 102.406268 
L 86.163768 109.987214 
L 83.889485 102.406268 
L 85.405674 103.164363 
L 85.405674 102.406268 
L 86.921863 102.406268 
" clip-path="url(#pf86ffa77aa)" style="fill: #0000ff"/>
    <path d="M 86.921863 72.586114 
L 86.921863 73.344209 
L 88.438052 72.586114 
L 86.163768 80.16706 
L 83.889485 72.586114 
L 85.405674 73.344209 
L 85.405674 72.586114 
L 86.921863 72.586114 
" clip-path="url(#pf86ffa77aa)" style="fill: #0000ff"/>
    <path d="M 86.921863 42.76596 
L 86.921863 43.524055 
L 88.438052 42.76596 
L 86.163768 50.346906 
L 83.889485 42.76596 
L 85.405674 43.524055 
L 85.405674 42.76596 
L 86.921863 42.76596 
" clip-path="url(#pf86ffa77aa)" style="fill: #0000ff"/>
    <path d="M 116.905007 311.147348 
L 116.905007 314.229002 
L 118.747177 313.307917 
L 115.983923 322.518767 
L 113.220668 313.307917 
L 115.062838 314.229002 
L 115.062838 311.147348 
L 116.905007 311.147348 
" clip-path="url(#pf86ffa77aa)" style="fill: #0000ff"/>
    <path d="M 116.905007 281.327194 
L 116.905007 284.408848 
L 118.747177 283.487763 
L 115.983923 292.698612 
L 113.220668 283.487763 
L 115.062838 284.408848 
L 115.062838 281.327194 
L 116.905007 281.327194 
" clip-path="url(#pf86ffa77aa)" style="fill: #0000ff"/>
    <path d="M 116.905007 251.507039 
L 116.905007 254.588694 
L 118.747177 253.667609 
L 115.983923 262.878458 
L 113.220668 253.667609 
L 115.062838 254.588694 
L 115.062838 251.507039 
L 116.905007 251.507039 
" clip-path="url(#pf86ffa77aa)" style="fill: #0000ff"/>
    <path d="M 116.905007 221.686885 
L 116.905007 224.76854 
L 118.747177 223.847455 
L 115.983923 233.058304 
L 113.220668 223.847455 
L 115.062838 224.76854 
L 115.062838 221.686885 
L 116.905007 221.686885 
" clip-path="url(#pf86ffa77aa)" style="fill: #0000ff"/>
    <path d="M 116.905007 191.866731 
L 116.905007 194.948385 
L 118.747177 194.027301 
L 115.983923 203.23815 
L 113.220668 194.027301 
L 115.062838 194.948385 
L 115.062838 191.866731 
L 116.905007 191.866731 
" clip-path="url(#pf86ffa77aa)" style="fill: #0000ff"/>
    <path d="M 116.905007 162.046577 
L 116.905007 165.128231 
L 118.747177 164.207146 
L 115.983923 173.417996 
L 113.220668 164.207146 
L 115.062838 165.128231 
L 115.062838 162.046577 
L 116.905007 162.046577 
" clip-path="url(#pf86ffa77aa)" style="fill: #0000ff"/>
    <path d="M 116.905007 132.226423 
L 116.905007 135.308077 
L 118.747177 134.386992 
L 115.983923 143.597841 
L 113.220668 134.386992 
L 115.062838 135.308077 
L 115.062838 132.226423 
L 116.905007 132.226423 
" clip-path="url(#pf86ffa77aa)" style="fill: #0000ff"/>
    <path d="M 116.905007 102.406268 
L 116.905007 105.487923 
L 118.747177 104.566838 
L 115.983923 113.777687 
L 113.220668 104.566838 
L 115.062838 105.487923 
L 115.062838 102.406268 
L 116.905007 102.406268 
" clip-path="url(#pf86ffa77aa)" style="fill: #0000ff"/>
    <path d="M 116.905007 72.586114 
L 116.905007 75.667769 
L 118.747177 74.746684 
L 115.983923 83.957533 
L 113.220668 74.746684 
L 115.062838 75.667769 
L 115.062838 72.586114 
L 116.905007 72.586114 
" clip-path="url(#pf86ffa77aa)" style="fill: #0000ff"/>
    <path d="M 116.905007 42.76596 
L 116.905007 45.847614 
L 118.747177 44.926529 
L 115.983923 54.137379 
L 113.220668 44.926529 
L 115.062838 45.847614 
L 115.062838 42.76596 
L 116.905007 42.76596 
" clip-path="url(#pf86ffa77aa)" style="fill: #0000ff"/>
    <path d="M 146.725162 311.147348 
L 146.725162 318.019475 
L 148.567332 317.09839 
L 145.804077 326.30924 
L 143.040822 317.09839 
L 144.882992 318.019475 
L 144.882992 311.147348 
L 146.725162 311.147348 
" clip-path="url(#pf86ffa77aa)" style="fill: #0000ff"/>
    <path d="M 146.725162 281.327194 
L 146.725162 288.199321 
L 148.567332 287.278236 
L 145.804077 296.489085 
L 143.040822 287.278236 
L 144.882992 288.199321 
L 144.882992 281.327194 
L 146.725162 281.327194 
" clip-path="url(#pf86ffa77aa)" style="fill: #0000ff"/>
    <path d="M 146.725162 251.507039 
L 146.725162 258.379167 
L 148.567332 257.458082 
L 145.804077 266.668931 
L 143.040822 257.458082 
L 144.882992 258.379167 
L 144.882992 251.507039 
L 146.725162 251.507039 
" clip-path="url(#pf86ffa77aa)" style="fill: #0000ff"/>
    <path d="M 146.725162 221.686885 
L 146.725162 228.559013 
L 148.567332 227.637928 
L 145.804077 236.848777 
L 143.040822 227.637928 
L 144.882992 228.559013 
L 144.882992 221.686885 
L 146.725162 221.686885 
" clip-path="url(#pf86ffa77aa)" style="fill: #0000ff"/>
    <path d="M 146.725162 191.866731 
L 146.725162 198.738858 
L 148.567332 197.817773 
L 145.804077 207.028623 
L 143.040822 197.817773 
L 144.882992 198.738858 
L 144.882992 191.866731 
L 146.725162 191.866731 
" clip-path="url(#pf86ffa77aa)" style="fill: #0000ff"/>
    <path d="M 146.725162 162.046577 
L 146.725162 168.918704 
L 148.567332 167.997619 
L 145.804077 177.208468 
L 143.040822 167.997619 
L 144.882992 168.918704 
L 144.882992 162.046577 
L 146.725162 162.046577 
" clip-path="url(#pf86ffa77aa)" style="fill: #0000ff"/>
    <path d="M 146.725162 132.226423 
L 146.725162 139.09855 
L 148.567332 138.177465 
L 145.804077 147.388314 
L 143.040822 138.177465 
L 144.882992 139.09855 
L 144.882992 132.226423 
L 146.725162 132.226423 
" clip-path="url(#pf86ffa77aa)" style="fill: #0000ff"/>
    <path d="M 146.725162 102.406268 
L 146.725162 109.278396 
L 148.567332 108.357311 
L 145.804077 117.56816 
L 143.040822 108.357311 
L 144.882992 109.278396 
L 144.882992 102.406268 
L 146.725162 102.406268 
" clip-path="url(#pf86ffa77aa)" style="fill: #0000ff"/>
    <path d="M 146.725162 72.586114 
L 146.725162 79.458242 
L 148.567332 78.537157 
L 145.804077 87.748006 
L 143.040822 78.537157 
L 144.882992 79.458242 
L 144.882992 72.586114 
L 146.725162 72.586114 
" clip-path="url(#pf86ffa77aa)" style="fill: #0000ff"/>
    <path d="M 146.725162 42.76596 
L 146.725162 49.638087 
L 148.567332 48.717002 
L 145.804077 57.927852 
L 143.040822 48.717002 
L 144.882992 49.638087 
L 144.882992 42.76596 
L 146.725162 42.76596 
" clip-path="url(#pf86ffa77aa)" style="fill: #0000ff"/>
    <path d="M 176.545316 311.147348 
L 176.545316 321.809948 
L 178.387486 320.888863 
L 175.624231 330.099712 
L 172.860976 320.888863 
L 174.703146 321.809948 
L 174.703146 311.147348 
L 176.545316 311.147348 
" clip-path="url(#pf86ffa77aa)" style="fill: #0000ff"/>
    <path d="M 176.545316 281.327194 
L 176.545316 291.989794 
L 178.387486 291.068709 
L 175.624231 300.279558 
L 172.860976 291.068709 
L 174.703146 291.989794 
L 174.703146 281.327194 
L 176.545316 281.327194 
" clip-path="url(#pf86ffa77aa)" style="fill: #0000ff"/>
    <path d="M 176.545316 251.507039 
L 176.545316 262.16964 
L 178.387486 261.248555 
L 175.624231 270.459404 
L 172.860976 261.248555 
L 174.703146 262.16964 
L 174.703146 251.507039 
L 176.545316 251.507039 
" clip-path="url(#pf86ffa77aa)" style="fill: #0000ff"/>
    <path d="M 176.545316 221.686885 
L 176.545316 232.349486 
L 178.387486 231.428401 
L 175.624231 240.63925 
L 172.860976 231.428401 
L 174.703146 232.349486 
L 174.703146 221.686885 
L 176.545316 221.686885 
" clip-path="url(#pf86ffa77aa)" style="fill: #0000ff"/>
    <path d="M 176.545316 191.866731 
L 176.545316 202.529331 
L 178.387486 201.608246 
L 175.624231 210.819096 
L 172.860976 201.608246 
L 174.703146 202.529331 
L 174.703146 191.866731 
L 176.545316 191.866731 
" clip-path="url(#pf86ffa77aa)" style="fill: #0000ff"/>
    <path d="M 176.545316 162.046577 
L 176.545316 172.709177 
L 178.387486 171.788092 
L 175.624231 180.998941 
L 172.860976 171.788092 
L 174.703146 172.709177 
L 174.703146 162.046577 
L 176.545316 162.046577 
" clip-path="url(#pf86ffa77aa)" style="fill: #0000ff"/>
    <path d="M 176.545316 132.226423 
L 176.545316 142.889023 
L 178.387486 141.967938 
L 175.624231 151.178787 
L 172.860976 141.967938 
L 174.703146 142.889023 
L 174.703146 132.226423 
L 176.545316 132.226423 
" clip-path="url(#pf86ffa77aa)" style="fill: #0000ff"/>
    <path d="M 176.545316 102.406268 
L 176.545316 113.068869 
L 178.387486 112.147784 
L 175.624231 121.358633 
L 172.860976 112.147784 
L 174.703146 113.068869 
L 174.703146 102.406268 
L 176.545316 102.406268 
" clip-path="url(#pf86ffa77aa)" style="fill: #0000ff"/>
    <path d="M 176.545316 72.586114 
L 176.545316 83.248714 
L 178.387486 82.32763 
L 175.624231 91.538479 
L 172.860976 82.32763 
L 174.703146 83.248714 
L 174.703146 72.586114 
L 176.545316 72.586114 
" clip-path="url(#pf86ffa77aa)" style="fill: #0000ff"/>
    <path d="M 176.545316 42.76596 
L 176.545316 53.42856 
L 178.387486 52.507475 
L 175.624231 61.718325 
L 172.860976 52.507475 
L 174.703146 53.42856 
L 174.703146 42.76596 
L 176.545316 42.76596 
" clip-path="url(#pf86ffa77aa)" style="fill: #0000ff"/>
    <path d="M 206.36547 311.147348 
L 206.36547 325.600421 
L 208.20764 324.679336 
L 205.444385 333.890185 
L 202.68113 324.679336 
L 204.5233 325.600421 
L 204.5233 311.147348 
L 206.36547 311.147348 
" clip-path="url(#pf86ffa77aa)" style="fill: #0000ff"/>
    <path d="M 206.36547 281.327194 
L 206.36547 295.780267 
L 208.20764 294.859182 
L 205.444385 304.070031 
L 202.68113 294.859182 
L 204.5233 295.780267 
L 204.5233 281.327194 
L 206.36547 281.327194 
" clip-path="url(#pf86ffa77aa)" style="fill: #0000ff"/>
    <path d="M 206.36547 251.507039 
L 206.36547 265.960113 
L 208.20764 265.039028 
L 205.444385 274.249877 
L 202.68113 265.039028 
L 204.5233 265.960113 
L 204.5233 251.507039 
L 206.36547 251.507039 
" clip-path="url(#pf86ffa77aa)" style="fill: #0000ff"/>
    <path d="M 206.36547 221.686885 
L 206.36547 236.139958 
L 208.20764 235.218874 
L 205.444385 244.429723 
L 202.68113 235.218874 
L 204.5233 236.139958 
L 204.5233 221.686885 
L 206.36547 221.686885 
" clip-path="url(#pf86ffa77aa)" style="fill: #0000ff"/>
    <path d="M 206.36547 191.866731 
L 206.36547 206.319804 
L 208.20764 205.398719 
L 205.444385 214.609569 
L 202.68113 205.398719 
L 204.5233 206.319804 
L 204.5233 191.866731 
L 206.36547 191.866731 
" clip-path="url(#pf86ffa77aa)" style="fill: #0000ff"/>
    <path d="M 206.36547 162.046577 
L 206.36547 176.49965 
L 208.20764 175.578565 
L 205.444385 184.789414 
L 202.68113 175.578565 
L 204.5233 176.49965 
L 204.5233 162.046577 
L 206.36547 162.046577 
" clip-path="url(#pf86ffa77aa)" style="fill: #0000ff"/>
    <path d="M 206.36547 132.226423 
L 206.36547 146.679496 
L 208.20764 145.758411 
L 205.444385 154.96926 
L 202.68113 145.758411 
L 204.5233 146.679496 
L 204.5233 132.226423 
L 206.36547 132.226423 
" clip-path="url(#pf86ffa77aa)" style="fill: #0000ff"/>
    <path d="M 206.36547 102.406268 
L 206.36547 116.859342 
L 208.20764 115.938257 
L 205.444385 125.149106 
L 202.68113 115.938257 
L 204.5233 116.859342 
L 204.5233 102.406268 
L 206.36547 102.406268 
" clip-path="url(#pf86ffa77aa)" style="fill: #0000ff"/>
    <path d="M 206.36547 72.586114 
L 206.36547 87.039187 
L 208.20764 86.118103 
L 205.444385 95.328952 
L 202.68113 86.118103 
L 204.5233 87.039187 
L 204.5233 72.586114 
L 206.36547 72.586114 
" clip-path="url(#pf86ffa77aa)" style="fill: #0000ff"/>
    <path d="M 206.36547 42.76596 
L 206.36547 57.219033 
L 208.20764 56.297948 
L 205.444385 65.508798 
L 202.68113 56.297948 
L 204.5233 57.219033 
L 204.5233 42.76596 
L 206.36547 42.76596 
" clip-path="url(#pf86ffa77aa)" style="fill: #0000ff"/>
    <path d="M 236.185624 311.147348 
L 236.185624 329.390894 
L 238.027794 328.469809 
L 235.264539 337.680658 
L 232.501285 328.469809 
L 234.343454 329.390894 
L 234.343454 311.147348 
L 236.185624 311.147348 
" clip-path="url(#pf86ffa77aa)" style="fill: #0000ff"/>
    <path d="M 236.185624 281.327194 
L 236.185624 299.57074 
L 238.027794 298.649655 
L 235.264539 307.860504 
L 232.501285 298.649655 
L 234.343454 299.57074 
L 234.343454 281.327194 
L 236.185624 281.327194 
" clip-path="url(#pf86ffa77aa)" style="fill: #0000ff"/>
    <path d="M 236.185624 251.507039 
L 236.185624 269.750586 
L 238.027794 268.829501 
L 235.264539 278.04035 
L 232.501285 268.829501 
L 234.343454 269.750586 
L 234.343454 251.507039 
L 236.185624 251.507039 
" clip-path="url(#pf86ffa77aa)" style="fill: #0000ff"/>
    <path d="M 236.185624 221.686885 
L 236.185624 239.930431 
L 238.027794 239.009346 
L 235.264539 248.220196 
L 232.501285 239.009346 
L 234.343454 239.930431 
L 234.343454 221.686885 
L 236.185624 221.686885 
" clip-path="url(#pf86ffa77aa)" style="fill: #0000ff"/>
    <path d="M 236.185624 191.866731 
L 236.185624 210.110277 
L 238.027794 209.189192 
L 235.264539 218.400041 
L 232.501285 209.189192 
L 234.343454 210.110277 
L 234.343454 191.866731 
L 236.185624 191.866731 
" clip-path="url(#pf86ffa77aa)" style="fill: #0000ff"/>
    <path d="M 236.185624 162.046577 
L 236.185624 180.290123 
L 238.027794 179.369038 
L 235.264539 188.579887 
L 232.501285 179.369038 
L 234.343454 180.290123 
L 234.343454 162.046577 
L 236.185624 162.046577 
" clip-path="url(#pf86ffa77aa)" style="fill: #0000ff"/>
    <path d="M 236.185624 132.226423 
L 236.185624 150.469969 
L 238.027794 149.548884 
L 235.264539 158.759733 
L 232.501285 149.548884 
L 234.343454 150.469969 
L 234.343454 132.226423 
L 236.185624 132.226423 
" clip-path="url(#pf86ffa77aa)" style="fill: #0000ff"/>
    <path d="M 236.185624 102.406268 
L 236.185624 120.649815 
L 238.027794 119.72873 
L 235.264539 128.939579 
L 232.501285 119.72873 
L 234.343454 120.649815 
L 234.343454 102.406268 
L 236.185624 102.406268 
" clip-path="url(#pf86ffa77aa)" style="fill: #0000ff"/>
    <path d="M 236.185624 72.586114 
L 236.185624 90.82966 
L 238.027794 89.908575 
L 235.264539 99.119425 
L 232.501285 89.908575 
L 234.343454 90.82966 
L 234.343454 72.586114 
L 236.185624 72.586114 
" clip-path="url(#pf86ffa77aa)" style="fill: #0000ff"/>
    <path d="M 236.185624 42.76596 
L 236.185624 61.009506 
L 238.027794 60.088421 
L 235.264539 69.29927 
L 232.501285 60.088421 
L 234.343454 61.009506 
L 234.343454 42.76596 
L 236.185624 42.76596 
" clip-path="url(#pf86ffa77aa)" style="fill: #0000ff"/>
    <path d="M 266.005778 311.147348 
L 266.005778 333.181367 
L 267.847948 332.260282 
L 265.084694 341.471131 
L 262.321439 332.260282 
L 264.163609 333.181367 
L 264.163609 311.147348 
L 266.005778 311.147348 
" clip-path="url(#pf86ffa77aa)" style="fill: #0000ff"/>
    <path d="M 266.005778 281.327194 
L 266.005778 303.361213 
L 267.847948 302.440128 
L 265.084694 311.650977 
L 262.321439 302.440128 
L 264.163609 303.361213 
L 264.163609 281.327194 
L 266.005778 281.327194 
" clip-path="url(#pf86ffa77aa)" style="fill: #0000ff"/>
    <path d="M 266.005778 251.507039 
L 266.005778 273.541059 
L 267.847948 272.619974 
L 265.084694 281.830823 
L 262.321439 272.619974 
L 264.163609 273.541059 
L 264.163609 251.507039 
L 266.005778 251.507039 
" clip-path="url(#pf86ffa77aa)" style="fill: #0000ff"/>
    <path d="M 266.005778 221.686885 
L 266.005778 243.720904 
L 267.847948 242.799819 
L 265.084694 252.010669 
L 262.321439 242.799819 
L 264.163609 243.720904 
L 264.163609 221.686885 
L 266.005778 221.686885 
" clip-path="url(#pf86ffa77aa)" style="fill: #0000ff"/>
    <path d="M 266.005778 191.866731 
L 266.005778 213.90075 
L 267.847948 212.979665 
L 265.084694 222.190514 
L 262.321439 212.979665 
L 264.163609 213.90075 
L 264.163609 191.866731 
L 266.005778 191.866731 
" clip-path="url(#pf86ffa77aa)" style="fill: #0000ff"/>
    <path d="M 266.005778 162.046577 
L 266.005778 184.080596 
L 267.847948 183.159511 
L 265.084694 192.37036 
L 262.321439 183.159511 
L 264.163609 184.080596 
L 264.163609 162.046577 
L 266.005778 162.046577 
" clip-path="url(#pf86ffa77aa)" style="fill: #0000ff"/>
    <path d="M 266.005778 132.226423 
L 266.005778 154.260442 
L 267.847948 153.339357 
L 265.084694 162.550206 
L 262.321439 153.339357 
L 264.163609 154.260442 
L 264.163609 132.226423 
L 266.005778 132.226423 
" clip-path="url(#pf86ffa77aa)" style="fill: #0000ff"/>
    <path d="M 266.005778 102.406268 
L 266.005778 124.440288 
L 267.847948 123.519203 
L 265.084694 132.730052 
L 262.321439 123.519203 
L 264.163609 124.440288 
L 264.163609 102.406268 
L 266.005778 102.406268 
" clip-path="url(#pf86ffa77aa)" style="fill: #0000ff"/>
    <path d="M 266.005778 72.586114 
L 266.005778 94.620133 
L 267.847948 93.699048 
L 265.084694 102.909898 
L 262.321439 93.699048 
L 264.163609 94.620133 
L 264.163609 72.586114 
L 266.005778 72.586114 
" clip-path="url(#pf86ffa77aa)" style="fill: #0000ff"/>
    <path d="M 266.005778 42.76596 
L 266.005778 64.799979 
L 267.847948 63.878894 
L 265.084694 73.089743 
L 262.321439 63.878894 
L 264.163609 64.799979 
L 264.163609 42.76596 
L 266.005778 42.76596 
" clip-path="url(#pf86ffa77aa)" style="fill: #0000ff"/>
    <path d="M 295.825933 311.147348 
L 295.825933 336.97184 
L 297.668103 336.050755 
L 294.904848 345.261604 
L 292.141593 336.050755 
L 293.983763 336.97184 
L 293.983763 311.147348 
L 295.825933 311.147348 
" clip-path="url(#pf86ffa77aa)" style="fill: #0000ff"/>
    <path d="M 295.825933 281.327194 
L 295.825933 307.151686 
L 297.668103 306.230601 
L 294.904848 315.44145 
L 292.141593 306.230601 
L 293.983763 307.151686 
L 293.983763 281.327194 
L 295.825933 281.327194 
" clip-path="url(#pf86ffa77aa)" style="fill: #0000ff"/>
    <path d="M 295.825933 251.507039 
L 295.825933 277.331531 
L 297.668103 276.410447 
L 294.904848 285.621296 
L 292.141593 276.410447 
L 293.983763 277.331531 
L 293.983763 251.507039 
L 295.825933 251.507039 
" clip-path="url(#pf86ffa77aa)" style="fill: #0000ff"/>
    <path d="M 295.825933 221.686885 
L 295.825933 247.511377 
L 297.668103 246.590292 
L 294.904848 255.801142 
L 292.141593 246.590292 
L 293.983763 247.511377 
L 293.983763 221.686885 
L 295.825933 221.686885 
" clip-path="url(#pf86ffa77aa)" style="fill: #0000ff"/>
    <path d="M 295.825933 191.866731 
L 295.825933 217.691223 
L 297.668103 216.770138 
L 294.904848 225.980987 
L 292.141593 216.770138 
L 293.983763 217.691223 
L 293.983763 191.866731 
L 295.825933 191.866731 
" clip-path="url(#pf86ffa77aa)" style="fill: #0000ff"/>
    <path d="M 295.825933 162.046577 
L 295.825933 187.871069 
L 297.668103 186.949984 
L 294.904848 196.160833 
L 292.141593 186.949984 
L 293.983763 187.871069 
L 293.983763 162.046577 
L 295.825933 162.046577 
" clip-path="url(#pf86ffa77aa)" style="fill: #0000ff"/>
    <path d="M 295.825933 132.226423 
L 295.825933 158.050915 
L 297.668103 157.12983 
L 294.904848 166.340679 
L 292.141593 157.12983 
L 293.983763 158.050915 
L 293.983763 132.226423 
L 295.825933 132.226423 
" clip-path="url(#pf86ffa77aa)" style="fill: #0000ff"/>
    <path d="M 295.825933 102.406268 
L 295.825933 128.23076 
L 297.668103 127.309676 
L 294.904848 136.520525 
L 292.141593 127.309676 
L 293.983763 128.23076 
L 293.983763 102.406268 
L 295.825933 102.406268 
" clip-path="url(#pf86ffa77aa)" style="fill: #0000ff"/>
    <path d="M 295.825933 72.586114 
L 295.825933 98.410606 
L 297.668103 97.489521 
L 294.904848 106.700371 
L 292.141593 97.489521 
L 293.983763 98.410606 
L 293.983763 72.586114 
L 295.825933 72.586114 
" clip-path="url(#pf86ffa77aa)" style="fill: #0000ff"/>
    <path d="M 295.825933 42.76596 
L 295.825933 68.590452 
L 297.668103 67.669367 
L 294.904848 76.880216 
L 292.141593 67.669367 
L 293.983763 68.590452 
L 293.983763 42.76596 
L 295.825933 42.76596 
" clip-path="url(#pf86ffa77aa)" style="fill: #0000ff"/>
   </g>
   <g id="matplotlib.axis_1">
    <g id="xtick_1">
     <g id="line2d_1">
      <defs>
       <path id="m91495fdb3b" d="M 0 0 
L 0 3.5 
" style="stroke: #000000; stroke-width: 0.8"/>
      </defs>
      <g>
       <use xlink:href="#m91495fdb3b" x="26.52346" y="311.147348" style="stroke: #000000; stroke-width: 0.8"/>
      </g>
     </g>
    </g>
    <g id="xtick_2">
     <g id="line2d_2">
      <g>
       <use xlink:href="#m91495fdb3b" x="80.199737" y="311.147348" style="stroke: #000000; stroke-width: 0.8"/>
      </g>
     </g>
     <g id="text_1">
      <!-- 1 -->
      <g transform="translate(77.018487 325.745785) scale(0.1 -0.1)">
       <defs>
        <path id="DejaVuSans-31" d="M 794 531 
L 1825 531 
L 1825 4091 
L 703 3866 
L 703 4441 
L 1819 4666 
L 2450 4666 
L 2450 531 
L 3481 531 
L 3481 0 
L 794 0 
L 794 531 
z
" transform="scale(0.015625)"/>
       </defs>
       <use xlink:href="#DejaVuSans-31"/>
      </g>
     </g>
    </g>
    <g id="xtick_3">
     <g id="line2d_3">
      <g>
       <use xlink:href="#m91495fdb3b" x="133.876015" y="311.147348" style="stroke: #000000; stroke-width: 0.8"/>
      </g>
     </g>
     <g id="text_2">
      <!-- 2 -->
      <g transform="translate(130.694765 325.745785) scale(0.1 -0.1)">
       <defs>
        <path id="DejaVuSans-32" d="M 1228 531 
L 3431 531 
L 3431 0 
L 469 0 
L 469 531 
Q 828 903 1448 1529 
Q 2069 2156 2228 2338 
Q 2531 2678 2651 2914 
Q 2772 3150 2772 3378 
Q 2772 3750 2511 3984 
Q 2250 4219 1831 4219 
Q 1534 4219 1204 4116 
Q 875 4013 500 3803 
L 500 4441 
Q 881 4594 1212 4672 
Q 1544 4750 1819 4750 
Q 2544 4750 2975 4387 
Q 3406 4025 3406 3419 
Q 3406 3131 3298 2873 
Q 3191 2616 2906 2266 
Q 2828 2175 2409 1742 
Q 1991 1309 1228 531 
z
" transform="scale(0.015625)"/>
       </defs>
       <use xlink:href="#DejaVuSans-32"/>
      </g>
     </g>
    </g>
    <g id="xtick_4">
     <g id="line2d_4">
      <g>
       <use xlink:href="#m91495fdb3b" x="187.552293" y="311.147348" style="stroke: #000000; stroke-width: 0.8"/>
      </g>
     </g>
     <g id="text_3">
      <!-- 3 -->
      <g transform="translate(184.371043 325.745785) scale(0.1 -0.1)">
       <defs>
        <path id="DejaVuSans-33" d="M 2597 2516 
Q 3050 2419 3304 2112 
Q 3559 1806 3559 1356 
Q 3559 666 3084 287 
Q 2609 -91 1734 -91 
Q 1441 -91 1130 -33 
Q 819 25 488 141 
L 488 750 
Q 750 597 1062 519 
Q 1375 441 1716 441 
Q 2309 441 2620 675 
Q 2931 909 2931 1356 
Q 2931 1769 2642 2001 
Q 2353 2234 1838 2234 
L 1294 2234 
L 1294 2753 
L 1863 2753 
Q 2328 2753 2575 2939 
Q 2822 3125 2822 3475 
Q 2822 3834 2567 4026 
Q 2313 4219 1838 4219 
Q 1578 4219 1281 4162 
Q 984 4106 628 3988 
L 628 4550 
Q 988 4650 1302 4700 
Q 1616 4750 1894 4750 
Q 2613 4750 3031 4423 
Q 3450 4097 3450 3541 
Q 3450 3153 3228 2886 
Q 3006 2619 2597 2516 
z
" transform="scale(0.015625)"/>
       </defs>
       <use xlink:href="#DejaVuSans-33"/>
      </g>
     </g>
    </g>
    <g id="xtick_5">
     <g id="line2d_5">
      <g>
       <use xlink:href="#m91495fdb3b" x="241.22857" y="311.147348" style="stroke: #000000; stroke-width: 0.8"/>
      </g>
     </g>
     <g id="text_4">
      <!-- 4 -->
      <g transform="translate(238.04732 325.745785) scale(0.1 -0.1)">
       <defs>
        <path id="DejaVuSans-34" d="M 2419 4116 
L 825 1625 
L 2419 1625 
L 2419 4116 
z
M 2253 4666 
L 3047 4666 
L 3047 1625 
L 3713 1625 
L 3713 1100 
L 3047 1100 
L 3047 0 
L 2419 0 
L 2419 1100 
L 313 1100 
L 313 1709 
L 2253 4666 
z
" transform="scale(0.015625)"/>
       </defs>
       <use xlink:href="#DejaVuSans-34"/>
      </g>
     </g>
    </g>
    <g id="xtick_6">
     <g id="line2d_6">
      <g>
       <use xlink:href="#m91495fdb3b" x="294.904848" y="311.147348" style="stroke: #000000; stroke-width: 0.8"/>
      </g>
     </g>
     <g id="text_5">
      <!-- 5 -->
      <g transform="translate(291.723598 325.745785) scale(0.1 -0.1)">
       <defs>
        <path id="DejaVuSans-35" d="M 691 4666 
L 3169 4666 
L 3169 4134 
L 1269 4134 
L 1269 2991 
Q 1406 3038 1543 3061 
Q 1681 3084 1819 3084 
Q 2600 3084 3056 2656 
Q 3513 2228 3513 1497 
Q 3513 744 3044 326 
Q 2575 -91 1722 -91 
Q 1428 -91 1123 -41 
Q 819 9 494 109 
L 494 744 
Q 775 591 1075 516 
Q 1375 441 1709 441 
Q 2250 441 2565 725 
Q 2881 1009 2881 1497 
Q 2881 1984 2565 2268 
Q 2250 2553 1709 2553 
Q 1456 2553 1204 2497 
Q 953 2441 691 2322 
L 691 4666 
z
" transform="scale(0.015625)"/>
       </defs>
       <use xlink:href="#DejaVuSans-35"/>
      </g>
     </g>
    </g>
    <g id="xtick_7">
     <g id="line2d_7">
      <defs>
       <path id="m9a4c69680e" d="M 0 0 
L 0 2 
" style="stroke: #000000; stroke-width: 0.6"/>
      </defs>
      <g>
       <use xlink:href="#m9a4c69680e" x="15.788204" y="311.147348" style="stroke: #000000; stroke-width: 0.6"/>
      </g>
     </g>
    </g>
    <g id="xtick_8">
     <g id="line2d_8">
      <g>
       <use xlink:href="#m9a4c69680e" x="37.258715" y="311.147348" style="stroke: #000000; stroke-width: 0.6"/>
      </g>
     </g>
    </g>
    <g id="xtick_9">
     <g id="line2d_9">
      <g>
       <use xlink:href="#m9a4c69680e" x="47.993971" y="311.147348" style="stroke: #000000; stroke-width: 0.6"/>
      </g>
     </g>
    </g>
    <g id="xtick_10">
     <g id="line2d_10">
      <g>
       <use xlink:href="#m9a4c69680e" x="58.729226" y="311.147348" style="stroke: #000000; stroke-width: 0.6"/>
      </g>
     </g>
    </g>
    <g id="xtick_11">
     <g id="line2d_11">
      <g>
       <use xlink:href="#m9a4c69680e" x="69.464482" y="311.147348" style="stroke: #000000; stroke-width: 0.6"/>
      </g>
     </g>
    </g>
    <g id="xtick_12">
     <g id="line2d_12">
      <g>
       <use xlink:href="#m9a4c69680e" x="90.934993" y="311.147348" style="stroke: #000000; stroke-width: 0.6"/>
      </g>
     </g>
    </g>
    <g id="xtick_13">
     <g id="line2d_13">
      <g>
       <use xlink:href="#m9a4c69680e" x="101.670249" y="311.147348" style="stroke: #000000; stroke-width: 0.6"/>
      </g>
     </g>
    </g>
    <g id="xtick_14">
     <g id="line2d_14">
      <g>
       <use xlink:href="#m9a4c69680e" x="112.405504" y="311.147348" style="stroke: #000000; stroke-width: 0.6"/>
      </g>
     </g>
    </g>
    <g id="xtick_15">
     <g id="line2d_15">
      <g>
       <use xlink:href="#m9a4c69680e" x="123.14076" y="311.147348" style="stroke: #000000; stroke-width: 0.6"/>
      </g>
     </g>
    </g>
    <g id="xtick_16">
     <g id="line2d_16">
      <g>
       <use xlink:href="#m9a4c69680e" x="144.611271" y="311.147348" style="stroke: #000000; stroke-width: 0.6"/>
      </g>
     </g>
    </g>
    <g id="xtick_17">
     <g id="line2d_17">
      <g>
       <use xlink:href="#m9a4c69680e" x="155.346526" y="311.147348" style="stroke: #000000; stroke-width: 0.6"/>
      </g>
     </g>
    </g>
    <g id="xtick_18">
     <g id="line2d_18">
      <g>
       <use xlink:href="#m9a4c69680e" x="166.081782" y="311.147348" style="stroke: #000000; stroke-width: 0.6"/>
      </g>
     </g>
    </g>
    <g id="xtick_19">
     <g id="line2d_19">
      <g>
       <use xlink:href="#m9a4c69680e" x="176.817037" y="311.147348" style="stroke: #000000; stroke-width: 0.6"/>
      </g>
     </g>
    </g>
    <g id="xtick_20">
     <g id="line2d_20">
      <g>
       <use xlink:href="#m9a4c69680e" x="198.287548" y="311.147348" style="stroke: #000000; stroke-width: 0.6"/>
      </g>
     </g>
    </g>
    <g id="xtick_21">
     <g id="line2d_21">
      <g>
       <use xlink:href="#m9a4c69680e" x="209.022804" y="311.147348" style="stroke: #000000; stroke-width: 0.6"/>
      </g>
     </g>
    </g>
    <g id="xtick_22">
     <g id="line2d_22">
      <g>
       <use xlink:href="#m9a4c69680e" x="219.758059" y="311.147348" style="stroke: #000000; stroke-width: 0.6"/>
      </g>
     </g>
    </g>
    <g id="xtick_23">
     <g id="line2d_23">
      <g>
       <use xlink:href="#m9a4c69680e" x="230.493315" y="311.147348" style="stroke: #000000; stroke-width: 0.6"/>
      </g>
     </g>
    </g>
    <g id="xtick_24">
     <g id="line2d_24">
      <g>
       <use xlink:href="#m9a4c69680e" x="251.963826" y="311.147348" style="stroke: #000000; stroke-width: 0.6"/>
      </g>
     </g>
    </g>
    <g id="xtick_25">
     <g id="line2d_25">
      <g>
       <use xlink:href="#m9a4c69680e" x="262.699081" y="311.147348" style="stroke: #000000; stroke-width: 0.6"/>
      </g>
     </g>
    </g>
    <g id="xtick_26">
     <g id="line2d_26">
      <g>
       <use xlink:href="#m9a4c69680e" x="273.434337" y="311.147348" style="stroke: #000000; stroke-width: 0.6"/>
      </g>
     </g>
    </g>
    <g id="xtick_27">
     <g id="line2d_27">
      <g>
       <use xlink:href="#m9a4c69680e" x="284.169592" y="311.147348" style="stroke: #000000; stroke-width: 0.6"/>
      </g>
     </g>
    </g>
    <g id="xtick_28">
     <g id="line2d_28">
      <g>
       <use xlink:href="#m9a4c69680e" x="305.640103" y="311.147348" style="stroke: #000000; stroke-width: 0.6"/>
      </g>
     </g>
    </g>
    <g id="text_6">
     <!-- $x$ -->
     <g transform="translate(322.228308 311.147348) scale(0.16 -0.16)">
      <defs>
       <path id="Cmmi10-78" d="M 500 184 
Q 613 97 819 97 
Q 1019 97 1172 289 
Q 1325 481 1381 709 
L 1672 1844 
Q 1741 2153 1741 2266 
Q 1741 2425 1652 2544 
Q 1563 2663 1403 2663 
Q 1200 2663 1022 2536 
Q 844 2409 722 2214 
Q 600 2019 550 1819 
Q 538 1778 500 1778 
L 422 1778 
Q 372 1778 372 1838 
L 372 1856 
Q 434 2094 584 2320 
Q 734 2547 951 2687 
Q 1169 2828 1416 2828 
Q 1650 2828 1839 2703 
Q 2028 2578 2106 2363 
Q 2216 2559 2386 2693 
Q 2556 2828 2759 2828 
Q 2897 2828 3040 2779 
Q 3184 2731 3275 2631 
Q 3366 2531 3366 2381 
Q 3366 2219 3261 2101 
Q 3156 1984 2994 1984 
Q 2891 1984 2822 2050 
Q 2753 2116 2753 2216 
Q 2753 2350 2845 2451 
Q 2938 2553 3066 2572 
Q 2950 2663 2747 2663 
Q 2541 2663 2389 2472 
Q 2238 2281 2175 2047 
L 1894 916 
Q 1825 659 1825 494 
Q 1825 331 1917 214 
Q 2009 97 2163 97 
Q 2463 97 2698 361 
Q 2934 625 3009 941 
Q 3022 978 3059 978 
L 3138 978 
Q 3163 978 3178 961 
Q 3194 944 3194 922 
Q 3194 916 3188 903 
Q 3097 522 2806 225 
Q 2516 -72 2150 -72 
Q 1916 -72 1727 54 
Q 1538 181 1459 397 
Q 1359 209 1182 68 
Q 1006 -72 806 -72 
Q 669 -72 523 -23 
Q 378 25 287 125 
Q 197 225 197 378 
Q 197 528 301 651 
Q 406 775 563 775 
Q 669 775 741 711 
Q 813 647 813 544 
Q 813 409 723 309 
Q 634 209 500 184 
z
" transform="scale(0.015625)"/>
      </defs>
      <use xlink:href="#Cmmi10-78" transform="translate(0 0.8125)"/>
     </g>
    </g>
   </g>
   <g id="matplotlib.axis_2">
    <g id="ytick_1">
     <g id="line2d_29">
      <defs>
       <path id="mbd237671d5" d="M 0 0 
L -3.5 0 
" style="stroke: #000000; stroke-width: 0.8"/>
      </defs>
      <g>
       <use xlink:href="#mbd237671d5" x="26.52346" y="311.147348" style="stroke: #000000; stroke-width: 0.8"/>
      </g>
     </g>
    </g>
    <g id="ytick_2">
     <g id="line2d_30">
      <g>
       <use xlink:href="#mbd237671d5" x="26.52346" y="257.47107" style="stroke: #000000; stroke-width: 0.8"/>
      </g>
     </g>
     <g id="text_7">
      <!-- 1 -->
      <g transform="translate(13.16096 261.270289) scale(0.1 -0.1)">
       <use xlink:href="#DejaVuSans-31"/>
      </g>
     </g>
    </g>
    <g id="ytick_3">
     <g id="line2d_31">
      <g>
       <use xlink:href="#mbd237671d5" x="26.52346" y="203.794793" style="stroke: #000000; stroke-width: 0.8"/>
      </g>
     </g>
     <g id="text_8">
      <!-- 2 -->
      <g transform="translate(13.16096 207.594011) scale(0.1 -0.1)">
       <use xlink:href="#DejaVuSans-32"/>
      </g>
     </g>
    </g>
    <g id="ytick_4">
     <g id="line2d_32">
      <g>
       <use xlink:href="#mbd237671d5" x="26.52346" y="150.118515" style="stroke: #000000; stroke-width: 0.8"/>
      </g>
     </g>
     <g id="text_9">
      <!-- 3 -->
      <g transform="translate(13.16096 153.917734) scale(0.1 -0.1)">
       <use xlink:href="#DejaVuSans-33"/>
      </g>
     </g>
    </g>
    <g id="ytick_5">
     <g id="line2d_33">
      <g>
       <use xlink:href="#mbd237671d5" x="26.52346" y="96.442237" style="stroke: #000000; stroke-width: 0.8"/>
      </g>
     </g>
     <g id="text_10">
      <!-- 4 -->
      <g transform="translate(13.16096 100.241456) scale(0.1 -0.1)">
       <use xlink:href="#DejaVuSans-34"/>
      </g>
     </g>
    </g>
    <g id="ytick_6">
     <g id="line2d_34">
      <g>
       <use xlink:href="#mbd237671d5" x="26.52346" y="42.76596" style="stroke: #000000; stroke-width: 0.8"/>
      </g>
     </g>
     <g id="text_11">
      <!-- 5 -->
      <g transform="translate(13.16096 46.565179) scale(0.1 -0.1)">
       <use xlink:href="#DejaVuSans-35"/>
      </g>
     </g>
    </g>
    <g id="ytick_7">
     <g id="line2d_35">
      <defs>
       <path id="m9a1db1d938" d="M 0 0 
L -2 0 
" style="stroke: #000000; stroke-width: 0.6"/>
      </defs>
      <g>
       <use xlink:href="#m9a1db1d938" x="26.52346" y="321.882603" style="stroke: #000000; stroke-width: 0.6"/>
      </g>
     </g>
    </g>
    <g id="ytick_8">
     <g id="line2d_36">
      <g>
       <use xlink:href="#m9a1db1d938" x="26.52346" y="300.412092" style="stroke: #000000; stroke-width: 0.6"/>
      </g>
     </g>
    </g>
    <g id="ytick_9">
     <g id="line2d_37">
      <g>
       <use xlink:href="#m9a1db1d938" x="26.52346" y="289.676837" style="stroke: #000000; stroke-width: 0.6"/>
      </g>
     </g>
    </g>
    <g id="ytick_10">
     <g id="line2d_38">
      <g>
       <use xlink:href="#m9a1db1d938" x="26.52346" y="278.941581" style="stroke: #000000; stroke-width: 0.6"/>
      </g>
     </g>
    </g>
    <g id="ytick_11">
     <g id="line2d_39">
      <g>
       <use xlink:href="#m9a1db1d938" x="26.52346" y="268.206326" style="stroke: #000000; stroke-width: 0.6"/>
      </g>
     </g>
    </g>
    <g id="ytick_12">
     <g id="line2d_40">
      <g>
       <use xlink:href="#m9a1db1d938" x="26.52346" y="246.735815" style="stroke: #000000; stroke-width: 0.6"/>
      </g>
     </g>
    </g>
    <g id="ytick_13">
     <g id="line2d_41">
      <g>
       <use xlink:href="#m9a1db1d938" x="26.52346" y="236.000559" style="stroke: #000000; stroke-width: 0.6"/>
      </g>
     </g>
    </g>
    <g id="ytick_14">
     <g id="line2d_42">
      <g>
       <use xlink:href="#m9a1db1d938" x="26.52346" y="225.265304" style="stroke: #000000; stroke-width: 0.6"/>
      </g>
     </g>
    </g>
    <g id="ytick_15">
     <g id="line2d_43">
      <g>
       <use xlink:href="#m9a1db1d938" x="26.52346" y="214.530048" style="stroke: #000000; stroke-width: 0.6"/>
      </g>
     </g>
    </g>
    <g id="ytick_16">
     <g id="line2d_44">
      <g>
       <use xlink:href="#m9a1db1d938" x="26.52346" y="193.059537" style="stroke: #000000; stroke-width: 0.6"/>
      </g>
     </g>
    </g>
    <g id="ytick_17">
     <g id="line2d_45">
      <g>
       <use xlink:href="#m9a1db1d938" x="26.52346" y="182.324282" style="stroke: #000000; stroke-width: 0.6"/>
      </g>
     </g>
    </g>
    <g id="ytick_18">
     <g id="line2d_46">
      <g>
       <use xlink:href="#m9a1db1d938" x="26.52346" y="171.589026" style="stroke: #000000; stroke-width: 0.6"/>
      </g>
     </g>
    </g>
    <g id="ytick_19">
     <g id="line2d_47">
      <g>
       <use xlink:href="#m9a1db1d938" x="26.52346" y="160.853771" style="stroke: #000000; stroke-width: 0.6"/>
      </g>
     </g>
    </g>
    <g id="ytick_20">
     <g id="line2d_48">
      <g>
       <use xlink:href="#m9a1db1d938" x="26.52346" y="139.38326" style="stroke: #000000; stroke-width: 0.6"/>
      </g>
     </g>
    </g>
    <g id="ytick_21">
     <g id="line2d_49">
      <g>
       <use xlink:href="#m9a1db1d938" x="26.52346" y="128.648004" style="stroke: #000000; stroke-width: 0.6"/>
      </g>
     </g>
    </g>
    <g id="ytick_22">
     <g id="line2d_50">
      <g>
       <use xlink:href="#m9a1db1d938" x="26.52346" y="117.912749" style="stroke: #000000; stroke-width: 0.6"/>
      </g>
     </g>
    </g>
    <g id="ytick_23">
     <g id="line2d_51">
      <g>
       <use xlink:href="#m9a1db1d938" x="26.52346" y="107.177493" style="stroke: #000000; stroke-width: 0.6"/>
      </g>
     </g>
    </g>
    <g id="ytick_24">
     <g id="line2d_52">
      <g>
       <use xlink:href="#m9a1db1d938" x="26.52346" y="85.706982" style="stroke: #000000; stroke-width: 0.6"/>
      </g>
     </g>
    </g>
    <g id="ytick_25">
     <g id="line2d_53">
      <g>
       <use xlink:href="#m9a1db1d938" x="26.52346" y="74.971726" style="stroke: #000000; stroke-width: 0.6"/>
      </g>
     </g>
    </g>
    <g id="ytick_26">
     <g id="line2d_54">
      <g>
       <use xlink:href="#m9a1db1d938" x="26.52346" y="64.236471" style="stroke: #000000; stroke-width: 0.6"/>
      </g>
     </g>
    </g>
    <g id="ytick_27">
     <g id="line2d_55">
      <g>
       <use xlink:href="#m9a1db1d938" x="26.52346" y="53.501215" style="stroke: #000000; stroke-width: 0.6"/>
      </g>
     </g>
    </g>
    <g id="ytick_28">
     <g id="line2d_56">
      <g>
       <use xlink:href="#m9a1db1d938" x="26.52346" y="32.030704" style="stroke: #000000; stroke-width: 0.6"/>
      </g>
     </g>
    </g>
    <g id="text_12">
     <!-- $y$ -->
     <g transform="translate(22.52346 12.0825) scale(0.16 -0.16)">
      <defs>
       <path id="Cmmi10-79" d="M 538 -916 
Q 672 -1147 1006 -1147 
Q 1309 -1147 1531 -934 
Q 1753 -722 1889 -420 
Q 2025 -119 2100 197 
Q 1816 -72 1484 -72 
Q 1231 -72 1053 15 
Q 875 103 776 276 
Q 678 450 678 697 
Q 678 906 734 1126 
Q 791 1347 892 1617 
Q 994 1888 1069 2088 
Q 1153 2322 1153 2472 
Q 1153 2663 1013 2663 
Q 759 2663 595 2402 
Q 431 2141 353 1819 
Q 341 1778 300 1778 
L 225 1778 
Q 172 1778 172 1838 
L 172 1856 
Q 275 2238 487 2533 
Q 700 2828 1025 2828 
Q 1253 2828 1411 2678 
Q 1569 2528 1569 2297 
Q 1569 2178 1516 2047 
Q 1488 1969 1388 1706 
Q 1288 1444 1234 1272 
Q 1181 1100 1147 934 
Q 1113 769 1113 603 
Q 1113 391 1203 244 
Q 1294 97 1491 97 
Q 1888 97 2203 581 
L 2688 2553 
Q 2709 2638 2787 2698 
Q 2866 2759 2956 2759 
Q 3034 2759 3092 2709 
Q 3150 2659 3150 2578 
Q 3150 2541 3144 2528 
L 2509 -19 
Q 2425 -347 2200 -647 
Q 1975 -947 1658 -1130 
Q 1341 -1313 997 -1313 
Q 831 -1313 668 -1248 
Q 506 -1184 406 -1056 
Q 306 -928 306 -756 
Q 306 -581 409 -453 
Q 513 -325 684 -325 
Q 788 -325 858 -389 
Q 928 -453 928 -556 
Q 928 -703 818 -812 
Q 709 -922 563 -922 
Q 556 -919 550 -917 
Q 544 -916 538 -916 
z
" transform="scale(0.015625)"/>
      </defs>
      <use xlink:href="#Cmmi10-79" transform="translate(0 0.8125)"/>
     </g>
    </g>
   </g>
   <g id="line2d_57">
    <path d="M 133.876015 203.794793 
L 133.992726 207.332529 
L 134.311586 210.619009 
L 134.894735 214.202695 
L 135.5337 217.031439 
L 136.479967 220.310249 
L 137.689802 223.66625 
L 139.087012 226.86554 
L 140.838814 230.233282 
L 142.161046 232.444008 
L 144.132819 235.35255 
L 146.459356 238.327579 
L 148.851408 240.988667 
L 150.746938 242.865352 
L 153.615756 245.3815 
L 155.883881 247.133626 
L 159.429493 249.514054 
L 162.477968 251.25447 
L 164.604643 252.318479 
L 167.824662 253.714361 
L 171.124058 254.895242 
L 175.042293 255.992903 
L 178.382637 256.682033 
L 181.937359 257.176581 
L 185.048404 257.412638 
L 188.432658 257.46385 
L 191.27943 257.341513 
L 194.989523 256.953333 
L 198.052915 256.433939 
L 201.726585 255.565752 
L 204.672264 254.667667 
L 208.01836 253.416188 
L 210.606247 252.268063 
L 213.565065 250.746667 
L 216.542142 248.969248 
L 219.704965 246.775584 
L 222.329831 244.6808 
L 224.882236 242.364445 
L 227.423617 239.731129 
L 229.712367 237.016335 
L 232.146072 233.67016 
L 233.508762 231.528269 
L 235.178338 228.551662 
L 236.85242 225.023081 
L 238.136884 221.748676 
L 239.120856 218.688618 
L 239.961817 215.387226 
L 240.643639 211.69743 
L 241.037039 208.32521 
L 241.215498 204.979362 
L 241.22857 203.794793 
L 241.22857 203.794793 
" clip-path="url(#pf86ffa77aa)" style="fill: none; stroke: #008000; stroke-width: 2; stroke-linecap: square"/>
   </g>
   <g id="patch_3">
    <path d="M 239.618282 211.846234 
Q 240.423426 207.820513 240.790041 205.987438 
" clip-path="url(#pf86ffa77aa)" style="fill: none; stroke: #008000; stroke-width: 2; stroke-linecap: round"/>
    <path d="M 233.925976 214.812664 
L 240.790041 205.987438 
L 243.731783 216.773825 
L 233.925976 214.812664 
z
" clip-path="url(#pf86ffa77aa)" style="fill: #008000; stroke: #008000; stroke-width: 2; stroke-linecap: round"/>
   </g>
   <g id="line2d_58">
    <path d="M 80.199737 257.47107 
L 80.199737 42.76596 
L 80.199737 42.76596 
" clip-path="url(#pf86ffa77aa)" style="fill: none; stroke: #ff0000; stroke-width: 2; stroke-linecap: square"/>
   </g>
   <g id="patch_4">
    <path d="M 80.199737 50.817402 
Q 80.199737 46.791681 80.199737 45.002028 
" clip-path="url(#pf86ffa77aa)" style="fill: none; stroke: #ff0000; stroke-width: 2; stroke-linecap: round"/>
    <path d="M 75.199737 55.002028 
L 80.199737 45.002028 
L 85.199737 55.002028 
L 75.199737 55.002028 
z
" clip-path="url(#pf86ffa77aa)" style="fill: #ff0000; stroke: #ff0000; stroke-width: 2; stroke-linecap: round"/>
   </g>
   <g id="line2d_59">
    <path d="M 187.552293 150.118515 
L 246.596198 150.118515 
L 246.596198 150.118515 
" clip-path="url(#pf86ffa77aa)" style="fill: none; stroke: #800080; stroke-width: 2; stroke-linecap: square"/>
   </g>
   <g id="patch_5">
    <path d="M 228.883026 150.118515 
Q 232.908747 150.118515 234.6984 150.118515 
" clip-path="url(#pf86ffa77aa)" style="fill: none; stroke: #800080; stroke-width: 2; stroke-linecap: round"/>
    <path d="M 224.6984 145.118515 
L 234.6984 150.118515 
L 224.6984 155.118515 
L 224.6984 145.118515 
z
" clip-path="url(#pf86ffa77aa)" style="fill: #800080; stroke: #800080; stroke-width: 2; stroke-linecap: round"/>
   </g>
   <g id="line2d_60">
    <path d="M 187.552293 42.76596 
L 246.596198 42.76596 
L 246.596198 42.76596 
" clip-path="url(#pf86ffa77aa)" style="fill: none; stroke: #800080; stroke-width: 2; stroke-linecap: square"/>
   </g>
   <g id="patch_6">
    <path d="M 226.199212 42.76596 
Q 222.173492 42.76596 220.383839 42.76596 
" clip-path="url(#pf86ffa77aa)" style="fill: none; stroke: #800080; stroke-width: 2; stroke-linecap: round"/>
    <path d="M 230.383839 47.76596 
L 220.383839 42.76596 
L 230.383839 37.76596 
L 230.383839 47.76596 
z
" clip-path="url(#pf86ffa77aa)" style="fill: #800080; stroke: #800080; stroke-width: 2; stroke-linecap: round"/>
   </g>
   <g id="line2d_61">
    <path d="M 187.552293 150.118515 
L 187.552293 42.76596 
L 187.552293 42.76596 
" clip-path="url(#pf86ffa77aa)" style="fill: none; stroke: #800080; stroke-width: 2; stroke-linecap: square"/>
   </g>
   <g id="patch_7">
    <path d="M 187.552293 88.390796 
Q 187.552293 92.416517 187.552293 94.20617 
" clip-path="url(#pf86ffa77aa)" style="fill: none; stroke: #800080; stroke-width: 2; stroke-linecap: round"/>
    <path d="M 192.552293 84.20617 
L 187.552293 94.20617 
L 182.552293 84.20617 
L 192.552293 84.20617 
z
" clip-path="url(#pf86ffa77aa)" style="fill: #800080; stroke: #800080; stroke-width: 2; stroke-linecap: round"/>
   </g>
   <g id="line2d_62">
    <path d="M 246.596198 150.118515 
L 246.596198 42.76596 
L 246.596198 42.76596 
" clip-path="url(#pf86ffa77aa)" style="fill: none; stroke: #800080; stroke-width: 2; stroke-linecap: square"/>
   </g>
   <g id="patch_8">
    <path d="M 246.596198 96.442237 
Q 246.596198 92.416517 246.596198 90.626864 
" clip-path="url(#pf86ffa77aa)" style="fill: none; stroke: #800080; stroke-width: 2; stroke-linecap: round"/>
    <path d="M 241.596198 100.626864 
L 246.596198 90.626864 
L 251.596198 100.626864 
L 241.596198 100.626864 
z
" clip-path="url(#pf86ffa77aa)" style="fill: #800080; stroke: #800080; stroke-width: 2; stroke-linecap: round"/>
   </g>
   <g id="patch_9">
    <path d="M 26.52346 330.470808 
L 26.52346 23.4425 
" style="fill: none; stroke: #000000; stroke-width: 0.8; stroke-linejoin: miter; stroke-linecap: square"/>
   </g>
   <g id="patch_10">
    <path d="M 7.2 311.147348 
L 314.228308 311.147348 
" style="fill: none; stroke: #000000; stroke-width: 0.8; stroke-linejoin: miter; stroke-linecap: square"/>
   </g>
   <g id="text_13">
    <g clip-path="url(#pf86ffa77aa)">
     <!-- $C_1$ -->
     <g style="fill: #800080" transform="translate(211.622059 170.194898) scale(0.144 -0.144)">
      <defs>
       <path id="Cmmi10-43" d="M 934 1381 
Q 934 997 1082 705 
Q 1231 413 1514 248 
Q 1797 84 2181 84 
Q 2584 84 2957 290 
Q 3331 497 3595 842 
Q 3859 1188 3956 1575 
Q 3969 1613 4006 1613 
L 4084 1613 
Q 4109 1613 4125 1595 
Q 4141 1578 4141 1556 
Q 4141 1550 4134 1538 
Q 4025 1094 3711 705 
Q 3397 316 2959 87 
Q 2522 -141 2059 -141 
Q 1559 -141 1162 84 
Q 766 309 545 709 
Q 325 1109 325 1613 
Q 325 2150 565 2676 
Q 806 3203 1212 3614 
Q 1619 4025 2139 4269 
Q 2659 4513 3194 4513 
Q 3406 4513 3600 4448 
Q 3794 4384 3959 4253 
Q 4125 4122 4231 3950 
L 4738 4500 
Q 4738 4513 4769 4513 
L 4806 4513 
Q 4831 4513 4847 4491 
Q 4863 4469 4863 4447 
L 4428 2719 
Q 4428 2675 4378 2675 
L 4263 2675 
Q 4213 2675 4213 2747 
Q 4238 2888 4238 3084 
Q 4238 3397 4131 3673 
Q 4025 3950 3801 4119 
Q 3578 4288 3256 4288 
Q 2734 4288 2300 4025 
Q 1866 3763 1564 3336 
Q 1263 2909 1098 2389 
Q 934 1869 934 1381 
z
" transform="scale(0.015625)"/>
       <path id="Cmr10-31" d="M 594 0 
L 594 225 
Q 1394 225 1394 428 
L 1394 3788 
Q 1063 3628 556 3628 
L 556 3853 
Q 1341 3853 1741 4263 
L 1831 4263 
Q 1853 4263 1873 4245 
Q 1894 4228 1894 4206 
L 1894 428 
Q 1894 225 2694 225 
L 2694 0 
L 594 0 
z
" transform="scale(0.015625)"/>
      </defs>
      <use xlink:href="#Cmmi10-43" transform="translate(0 0.484375)"/>
      <use xlink:href="#Cmr10-31" transform="translate(71.386719 -16.521875) scale(0.7)"/>
     </g>
    </g>
   </g>
   <g id="text_14">
    <g clip-path="url(#pf86ffa77aa)">
     <!-- $C_2$ -->
     <g style="fill: #800080" transform="translate(273.349778 124.570062) scale(0.144 -0.144)">
      <defs>
       <path id="Cmr10-32" d="M 319 0 
L 319 172 
Q 319 188 331 206 
L 1325 1306 
Q 1550 1550 1690 1715 
Q 1831 1881 1968 2097 
Q 2106 2313 2186 2536 
Q 2266 2759 2266 3009 
Q 2266 3272 2169 3511 
Q 2072 3750 1880 3894 
Q 1688 4038 1416 4038 
Q 1138 4038 916 3870 
Q 694 3703 603 3438 
Q 628 3444 672 3444 
Q 816 3444 917 3347 
Q 1019 3250 1019 3097 
Q 1019 2950 917 2848 
Q 816 2747 672 2747 
Q 522 2747 420 2851 
Q 319 2956 319 3097 
Q 319 3338 409 3548 
Q 500 3759 670 3923 
Q 841 4088 1055 4175 
Q 1269 4263 1509 4263 
Q 1875 4263 2190 4108 
Q 2506 3953 2690 3670 
Q 2875 3388 2875 3009 
Q 2875 2731 2753 2481 
Q 2631 2231 2440 2026 
Q 2250 1822 1953 1562 
Q 1656 1303 1563 1216 
L 838 519 
L 1453 519 
Q 1906 519 2211 526 
Q 2516 534 2534 550 
Q 2609 631 2688 1141 
L 2875 1141 
L 2694 0 
L 319 0 
z
" transform="scale(0.015625)"/>
      </defs>
      <use xlink:href="#Cmmi10-43" transform="translate(0 0.484375)"/>
      <use xlink:href="#Cmr10-32" transform="translate(71.386719 -16.521875) scale(0.7)"/>
     </g>
    </g>
   </g>
   <g id="text_15">
    <g clip-path="url(#pf86ffa77aa)">
     <!-- $C_3$ -->
     <g style="fill: #800080" transform="translate(200.886804 36.540967) scale(0.144 -0.144)">
      <defs>
       <path id="Cmr10-33" d="M 609 494 
Q 759 275 1012 169 
Q 1266 63 1556 63 
Q 1928 63 2084 380 
Q 2241 697 2241 1100 
Q 2241 1281 2208 1462 
Q 2175 1644 2097 1800 
Q 2019 1956 1883 2050 
Q 1747 2144 1550 2144 
L 1125 2144 
Q 1069 2144 1069 2203 
L 1069 2259 
Q 1069 2309 1125 2309 
L 1478 2338 
Q 1703 2338 1851 2506 
Q 2000 2675 2069 2917 
Q 2138 3159 2138 3378 
Q 2138 3684 1994 3881 
Q 1850 4078 1556 4078 
Q 1313 4078 1091 3986 
Q 869 3894 738 3706 
Q 750 3709 759 3711 
Q 769 3713 781 3713 
Q 925 3713 1022 3613 
Q 1119 3513 1119 3372 
Q 1119 3234 1022 3134 
Q 925 3034 781 3034 
Q 641 3034 541 3134 
Q 441 3234 441 3372 
Q 441 3647 606 3850 
Q 772 4053 1033 4158 
Q 1294 4263 1556 4263 
Q 1750 4263 1965 4205 
Q 2181 4147 2356 4039 
Q 2531 3931 2642 3762 
Q 2753 3594 2753 3378 
Q 2753 3109 2633 2881 
Q 2513 2653 2303 2487 
Q 2094 2322 1844 2241 
Q 2122 2188 2372 2031 
Q 2622 1875 2773 1631 
Q 2925 1388 2925 1106 
Q 2925 753 2731 467 
Q 2538 181 2222 20 
Q 1906 -141 1556 -141 
Q 1256 -141 954 -26 
Q 653 88 461 316 
Q 269 544 269 863 
Q 269 1022 375 1128 
Q 481 1234 641 1234 
Q 744 1234 830 1186 
Q 916 1138 964 1050 
Q 1013 963 1013 863 
Q 1013 706 903 600 
Q 794 494 641 494 
L 609 494 
z
" transform="scale(0.015625)"/>
      </defs>
      <use xlink:href="#Cmmi10-43" transform="translate(0 0.484375)"/>
      <use xlink:href="#Cmr10-33" transform="translate(71.386719 -16.521875) scale(0.7)"/>
     </g>
    </g>
   </g>
   <g id="text_16">
    <g clip-path="url(#pf86ffa77aa)">
     <!-- $C_4$ -->
     <g style="fill: #800080" transform="translate(157.945782 124.570062) scale(0.144 -0.144)">
      <defs>
       <path id="Cmr10-34" d="M 178 1056 
L 178 1281 
L 2156 4231 
Q 2178 4263 2222 4263 
L 2316 4263 
Q 2388 4263 2388 4191 
L 2388 1281 
L 3016 1281 
L 3016 1056 
L 2388 1056 
L 2388 428 
Q 2388 297 2575 261 
Q 2763 225 3009 225 
L 3009 0 
L 1247 0 
L 1247 225 
Q 1494 225 1681 261 
Q 1869 297 1869 428 
L 1869 1056 
L 178 1056 
z
M 391 1281 
L 1906 1281 
L 1906 3547 
L 391 1281 
z
" transform="scale(0.015625)"/>
      </defs>
      <use xlink:href="#Cmmi10-43" transform="translate(0 0.484375)"/>
      <use xlink:href="#Cmr10-34" transform="translate(71.386719 -16.521875) scale(0.7)"/>
     </g>
    </g>
   </g>
   <g id="text_17">
    <g clip-path="url(#pf86ffa77aa)">
     <!-- $C_6$ -->
     <g style="fill: #008000" transform="translate(182.100107 274.86364) scale(0.144 -0.144)">
      <defs>
       <path id="Cmr10-36" d="M 1600 -141 
Q 1203 -141 937 70 
Q 672 281 526 617 
Q 381 953 325 1322 
Q 269 1691 269 2069 
Q 269 2575 466 3084 
Q 663 3594 1045 3928 
Q 1428 4263 1953 4263 
Q 2172 4263 2361 4180 
Q 2550 4097 2658 3936 
Q 2766 3775 2766 3547 
Q 2766 3416 2677 3327 
Q 2588 3238 2456 3238 
Q 2331 3238 2240 3328 
Q 2150 3419 2150 3547 
Q 2150 3672 2240 3762 
Q 2331 3853 2456 3853 
L 2491 3853 
Q 2409 3969 2261 4023 
Q 2113 4078 1953 4078 
Q 1759 4078 1595 3993 
Q 1431 3909 1300 3765 
Q 1169 3622 1081 3448 
Q 994 3275 945 3053 
Q 897 2831 884 2637 
Q 872 2444 872 2150 
Q 984 2413 1190 2580 
Q 1397 2747 1656 2747 
Q 1941 2747 2175 2631 
Q 2409 2516 2578 2311 
Q 2747 2106 2836 1843 
Q 2925 1581 2925 1313 
Q 2925 938 2758 598 
Q 2591 259 2287 59 
Q 1984 -141 1600 -141 
z
M 1600 63 
Q 1847 63 1997 175 
Q 2147 288 2217 473 
Q 2288 659 2305 848 
Q 2322 1038 2322 1313 
Q 2322 1675 2287 1931 
Q 2253 2188 2100 2383 
Q 1947 2578 1631 2578 
Q 1372 2578 1205 2403 
Q 1038 2228 961 1961 
Q 884 1694 884 1447 
Q 884 1363 891 1319 
Q 891 1309 889 1303 
Q 888 1297 884 1288 
Q 884 1013 940 731 
Q 997 450 1156 256 
Q 1316 63 1600 63 
z
" transform="scale(0.015625)"/>
      </defs>
      <use xlink:href="#Cmmi10-43" transform="translate(0 0.484375)"/>
      <use xlink:href="#Cmr10-36" transform="translate(71.386719 -16.521875) scale(0.7)"/>
     </g>
    </g>
   </g>
   <g id="text_18">
    <g clip-path="url(#pf86ffa77aa)">
     <!-- $C_5$ -->
     <g style="fill: #ff0000" transform="translate(58.644668 154.092015) scale(0.144 -0.144)">
      <defs>
       <path id="Cmr10-35" d="M 556 728 
Q 622 541 758 387 
Q 894 234 1080 148 
Q 1266 63 1466 63 
Q 1928 63 2103 422 
Q 2278 781 2278 1294 
Q 2278 1516 2270 1667 
Q 2263 1819 2228 1959 
Q 2169 2184 2020 2353 
Q 1872 2522 1656 2522 
Q 1441 2522 1286 2456 
Q 1131 2391 1034 2303 
Q 938 2216 863 2119 
Q 788 2022 769 2016 
L 697 2016 
Q 681 2016 657 2036 
Q 634 2056 634 2075 
L 634 4213 
Q 634 4228 654 4245 
Q 675 4263 697 4263 
L 716 4263 
Q 1147 4056 1631 4056 
Q 2106 4056 2547 4263 
L 2566 4263 
Q 2588 4263 2606 4247 
Q 2625 4231 2625 4213 
L 2625 4153 
Q 2625 4122 2613 4122 
Q 2394 3831 2064 3668 
Q 1734 3506 1381 3506 
Q 1125 3506 856 3578 
L 856 2369 
Q 1069 2541 1236 2614 
Q 1403 2688 1663 2688 
Q 2016 2688 2295 2484 
Q 2575 2281 2725 1954 
Q 2875 1628 2875 1288 
Q 2875 903 2686 575 
Q 2497 247 2172 53 
Q 1847 -141 1466 -141 
Q 1150 -141 886 21 
Q 622 184 470 459 
Q 319 734 319 1044 
Q 319 1188 412 1278 
Q 506 1369 647 1369 
Q 788 1369 883 1276 
Q 978 1184 978 1044 
Q 978 906 883 811 
Q 788 716 647 716 
Q 625 716 597 720 
Q 569 725 556 728 
z
" transform="scale(0.015625)"/>
      </defs>
      <use xlink:href="#Cmmi10-43" transform="translate(0 0.484375)"/>
      <use xlink:href="#Cmr10-35" transform="translate(71.386719 -16.521875) scale(0.7)"/>
     </g>
    </g>
   </g>
  </g>
 </g>
 <defs>
  <clipPath id="pf86ffa77aa">
   <rect x="7.2" y="23.4425" width="307.028308" height="307.028308"/>
  </clipPath>
 </defs>
</svg>
