<?xml version="1.0" encoding="utf-8" standalone="no"?>
<!DOCTYPE svg PUBLIC "-//W3C//DTD SVG 1.1//EN"
  "http://www.w3.org/Graphics/SVG/1.1/DTD/svg11.dtd">
<svg xmlns:xlink="http://www.w3.org/1999/xlink" width="334.9pt" height="338.0025pt" viewBox="0 0 334.9 338.0025" xmlns="http://www.w3.org/2000/svg" version="1.1">
 <metadata>
  <rdf:RDF xmlns:dc="http://purl.org/dc/elements/1.1/" xmlns:cc="http://creativecommons.org/ns#" xmlns:rdf="http://www.w3.org/1999/02/22-rdf-syntax-ns#">
   <cc:Work>
    <dc:type rdf:resource="http://purl.org/dc/dcmitype/StillImage"/>
    <dc:date>2024-12-04T07:54:43.317425</dc:date>
    <dc:format>image/svg+xml</dc:format>
    <dc:creator>
     <cc:Agent>
      <dc:title>Matplotlib v3.6.2, https://matplotlib.org/</dc:title>
     </cc:Agent>
    </dc:creator>
   </cc:Work>
  </rdf:RDF>
 </metadata>
 <defs>
  <style type="text/css">*{stroke-linejoin: round; stroke-linecap: butt}</style>
 </defs>
 <g id="figure_1">
  <g id="patch_1">
   <path d="M -0 338.0025 
L 334.9 338.0025 
L 334.9 0 
L -0 0 
z
" style="fill: #ffffff"/>
  </g>
  <g id="axes_1">
   <g id="patch_2">
    <path d="M 7.2 330.8025 
L 314.56 330.8025 
L 314.56 23.4425 
L 7.2 23.4425 
z
" style="fill: #ffffff"/>
   </g>
   <g id="Quiver_1">
    <path d="M 24.912306 313.95954 
L 14.913086 323.95876 
L 16.217104 324.393432 
L 10.566359 327.436141 
L 13.609068 321.785396 
L 14.04374 323.089414 
L 24.04296 313.090194 
L 24.912306 313.95954 
" clip-path="url(#p1fe73d4c17)" style="fill: #0000ff"/>
    <path d="M 24.877688 294.505545 
L 15.166985 302.829004 
L 16.433825 303.36241 
L 10.566359 305.962764 
L 14.033498 300.562028 
L 14.366876 301.895543 
L 24.077579 293.572084 
L 24.877688 294.505545 
" clip-path="url(#p1fe73d4c17)" style="fill: #0000ff"/>
    <path d="M 24.834932 275.05298 
L 15.425622 281.773916 
L 16.640438 282.417054 
L 10.566359 284.489386 
L 14.496645 279.415744 
L 14.711024 280.77348 
L 24.120334 274.052544 
L 24.834932 275.05298 
" clip-path="url(#p1fe73d4c17)" style="fill: #0000ff"/>
    <path d="M 24.78262 255.600436 
L 15.674883 260.804857 
L 16.818583 261.567323 
L 10.566359 263.016009 
L 14.988664 258.364965 
L 15.06491 259.737404 
L 24.172647 254.532983 
L 24.78262 255.600436 
" clip-path="url(#p1fe73d4c17)" style="fill: #0000ff"/>
    <path d="M 24.719783 236.145674 
L 15.89366 239.928298 
L 16.942977 240.816182 
L 10.566359 241.542632 
L 15.490077 237.426081 
L 15.40936 238.798264 
L 24.235483 235.01564 
L 24.719783 236.145674 
" clip-path="url(#p1fe73d4c17)" style="fill: #0000ff"/>
    <path d="M 24.64651 216.685673 
L 16.054848 219.140433 
L 16.983669 220.153693 
L 10.566359 220.069255 
L 15.970409 216.607285 
L 15.717094 217.958297 
L 24.308757 215.503537 
L 24.64651 216.685673 
" clip-path="url(#p1fe73d4c17)" style="fill: #0000ff"/>
    <path d="M 24.564568 197.217094 
L 16.130169 198.422008 
L 16.91258 199.552157 
L 10.566359 198.595877 
L 16.390973 195.900907 
L 15.9563 197.204925 
L 24.390699 196.000011 
L 24.564568 197.217094 
" clip-path="url(#p1fe73d4c17)" style="fill: #0000ff"/>
    <path d="M 24.477633 177.73722 
L 16.098839 177.73722 
L 16.713559 178.96666 
L 10.566359 177.1225 
L 16.713559 175.27834 
L 16.098839 176.50778 
L 24.477633 176.50778 
L 24.477633 177.73722 
" clip-path="url(#p1fe73d4c17)" style="fill: #0000ff"/>
    <path d="M 24.390699 158.244989 
L 15.9563 157.040075 
L 16.390973 158.344093 
L 10.566359 155.649123 
L 16.91258 154.692843 
L 16.130169 155.822992 
L 24.564568 157.027906 
L 24.390699 158.244989 
" clip-path="url(#p1fe73d4c17)" style="fill: #0000ff"/>
    <path d="M 24.308757 138.741463 
L 15.717094 136.286703 
L 15.970409 137.637715 
L 10.566359 134.175745 
L 16.983669 134.091307 
L 16.054848 135.104567 
L 24.64651 137.559327 
L 24.308757 138.741463 
" clip-path="url(#p1fe73d4c17)" style="fill: #0000ff"/>
    <path d="M 24.235483 119.22936 
L 15.40936 115.446736 
L 15.490077 116.818919 
L 10.566359 112.702368 
L 16.942977 113.428818 
L 15.89366 114.316702 
L 24.719783 118.099326 
L 24.235483 119.22936 
" clip-path="url(#p1fe73d4c17)" style="fill: #0000ff"/>
    <path d="M 24.172647 99.712017 
L 15.06491 94.507596 
L 14.988664 95.880035 
L 10.566359 91.228991 
L 16.818583 92.677677 
L 15.674883 93.440143 
L 24.78262 98.644564 
L 24.172647 99.712017 
" clip-path="url(#p1fe73d4c17)" style="fill: #0000ff"/>
    <path d="M 24.120334 80.192456 
L 14.711024 73.47152 
L 14.496645 74.829256 
L 10.566359 69.755614 
L 16.640438 71.827946 
L 15.425622 72.471084 
L 24.834932 79.19202 
L 24.120334 80.192456 
" clip-path="url(#p1fe73d4c17)" style="fill: #0000ff"/>
    <path d="M 24.077579 60.672916 
L 14.366876 52.349457 
L 14.033498 53.682972 
L 10.566359 48.282236 
L 16.433825 50.88259 
L 15.166985 51.415996 
L 24.877688 59.739455 
L 24.077579 60.672916 
" clip-path="url(#p1fe73d4c17)" style="fill: #0000ff"/>
    <path d="M 24.04296 41.154806 
L 14.04374 31.155586 
L 13.609068 32.459604 
L 10.566359 26.808859 
L 16.217104 29.851568 
L 14.913086 30.28624 
L 24.912306 40.28546 
L 24.04296 41.154806 
" clip-path="url(#p1fe73d4c17)" style="fill: #0000ff"/>
    <path d="M 44.430416 313.924921 
L 36.106957 323.635624 
L 37.440472 323.969002 
L 32.039736 327.436141 
L 34.64009 321.568675 
L 35.173496 322.835515 
L 43.496955 313.124812 
L 44.430416 313.924921 
" clip-path="url(#p1fe73d4c17)" style="fill: #0000ff"/>
    <path d="M 44.398358 294.473487 
L 36.386463 302.485382 
L 37.690481 302.920055 
L 32.039736 305.962764 
L 35.082445 300.312019 
L 35.517118 301.616037 
L 43.529013 293.604142 
L 44.398358 294.473487 
" clip-path="url(#p1fe73d4c17)" style="fill: #0000ff"/>
    <path d="M 44.35722 275.025003 
L 36.683439 281.41982 
L 37.942749 281.970768 
L 32.039736 284.489386 
L 35.581544 279.137322 
L 35.896371 280.475338 
L 43.570151 274.080521 
L 44.35722 275.025003 
" clip-path="url(#p1fe73d4c17)" style="fill: #0000ff"/>
    <path d="M 44.304671 255.578188 
L 36.984023 260.458619 
L 38.177472 261.14059 
L 32.039736 263.016009 
L 36.13156 258.071722 
L 36.302053 259.435663 
L 43.6227 254.555232 
L 44.304671 255.578188 
" clip-path="url(#p1fe73d4c17)" style="fill: #0000ff"/>
    <path d="M 44.238597 236.13048 
L 37.263048 239.618254 
L 38.362692 240.442987 
L 32.039736 241.542632 
L 36.713226 237.144054 
L 36.713226 238.518609 
L 43.688774 235.030835 
L 44.238597 236.13048 
" clip-path="url(#p1fe73d4c17)" style="fill: #0000ff"/>
    <path d="M 44.158077 216.677779 
L 37.482699 218.902905 
L 38.454657 219.874863 
L 32.039736 220.069255 
L 37.288308 216.375815 
L 37.093916 217.736556 
L 43.769294 215.51143 
L 44.158077 216.677779 
" clip-path="url(#p1fe73d4c17)" style="fill: #0000ff"/>
    <path d="M 44.064745 197.214908 
L 37.598 198.292699 
L 38.406475 199.404352 
L 32.039736 198.595877 
L 37.800119 195.766216 
L 37.395882 197.079987 
L 43.862626 196.002196 
L 44.064745 197.214908 
" clip-path="url(#p1fe73d4c17)" style="fill: #0000ff"/>
    <path d="M 43.963686 177.73722 
L 37.572216 177.73722 
L 38.186936 178.96666 
L 32.039736 177.1225 
L 38.186936 175.27834 
L 37.572216 176.50778 
L 43.963686 176.50778 
L 43.963686 177.73722 
" clip-path="url(#p1fe73d4c17)" style="fill: #0000ff"/>
    <path d="M 43.862626 158.242804 
L 37.395882 157.165013 
L 37.800119 158.478784 
L 32.039736 155.649123 
L 38.406475 154.840648 
L 37.598 155.952301 
L 44.064745 157.030092 
L 43.862626 158.242804 
" clip-path="url(#p1fe73d4c17)" style="fill: #0000ff"/>
    <path d="M 43.769294 138.73357 
L 37.093916 136.508444 
L 37.288308 137.869185 
L 32.039736 134.175745 
L 38.454657 134.370137 
L 37.482699 135.342095 
L 44.158077 137.567221 
L 43.769294 138.73357 
" clip-path="url(#p1fe73d4c17)" style="fill: #0000ff"/>
    <path d="M 43.688774 119.214165 
L 36.713226 115.726391 
L 36.713226 117.100946 
L 32.039736 112.702368 
L 38.362692 113.802013 
L 37.263048 114.626746 
L 44.238597 118.11452 
L 43.688774 119.214165 
" clip-path="url(#p1fe73d4c17)" style="fill: #0000ff"/>
    <path d="M 43.6227 99.689768 
L 36.302053 94.809337 
L 36.13156 96.173278 
L 32.039736 91.228991 
L 38.177472 93.10441 
L 36.984023 93.786381 
L 44.304671 98.666812 
L 43.6227 99.689768 
" clip-path="url(#p1fe73d4c17)" style="fill: #0000ff"/>
    <path d="M 43.570151 80.164479 
L 35.896371 73.769662 
L 35.581544 75.107678 
L 32.039736 69.755614 
L 37.942749 72.274232 
L 36.683439 72.82518 
L 44.35722 79.219997 
L 43.570151 80.164479 
" clip-path="url(#p1fe73d4c17)" style="fill: #0000ff"/>
    <path d="M 43.529013 60.640858 
L 35.517118 52.628963 
L 35.082445 53.932981 
L 32.039736 48.282236 
L 37.690481 51.324945 
L 36.386463 51.759618 
L 44.398358 59.771513 
L 43.529013 60.640858 
" clip-path="url(#p1fe73d4c17)" style="fill: #0000ff"/>
    <path d="M 43.496955 41.120188 
L 35.173496 31.409485 
L 34.64009 32.676325 
L 32.039736 26.808859 
L 37.440472 30.275998 
L 36.106957 30.609376 
L 44.430416 40.320079 
L 43.496955 41.120188 
" clip-path="url(#p1fe73d4c17)" style="fill: #0000ff"/>
    <path d="M 63.949956 313.882166 
L 57.22902 323.291476 
L 58.586756 323.505855 
L 53.513114 327.436141 
L 55.585446 321.362062 
L 56.228584 322.576878 
L 62.94952 313.167568 
L 63.949956 313.882166 
" clip-path="url(#p1fe73d4c17)" style="fill: #0000ff"/>
    <path d="M 63.921979 294.432349 
L 57.527162 302.106129 
L 58.865178 302.420956 
L 53.513114 305.962764 
L 56.031732 300.059751 
L 56.58268 301.319061 
L 62.977497 293.64528 
L 63.921979 294.432349 
" clip-path="url(#p1fe73d4c17)" style="fill: #0000ff"/>
    <path d="M 63.884411 274.987435 
L 57.85984 281.012005 
L 59.163858 281.446678 
L 53.513114 284.489386 
L 56.555822 278.838642 
L 56.990495 280.14266 
L 63.015065 274.118089 
L 63.884411 274.987435 
" clip-path="url(#p1fe73d4c17)" style="fill: #0000ff"/>
    <path d="M 63.83375 255.546725 
L 58.217267 260.039912 
L 59.465308 260.615931 
L 53.513114 263.016009 
L 57.161233 257.735837 
L 57.449242 259.079881 
L 63.065725 254.586694 
L 63.83375 255.546725 
" clip-path="url(#p1fe73d4c17)" style="fill: #0000ff"/>
    <path d="M 63.766009 236.107775 
L 58.573447 239.223312 
L 59.733107 239.961278 
L 53.513114 241.542632 
L 57.835482 236.798569 
L 57.940905 238.169076 
L 63.133467 235.053539 
L 63.766009 236.107775 
" clip-path="url(#p1fe73d4c17)" style="fill: #0000ff"/>
    <path d="M 63.678039 216.665358 
L 58.878194 218.585296 
L 59.905549 219.498501 
L 53.513114 220.069255 
L 58.535742 216.073982 
L 58.421591 217.44379 
L 63.221437 215.523852 
L 63.678039 216.665358 
" clip-path="url(#p1fe73d4c17)" style="fill: #0000ff"/>
    <path d="M 63.570294 197.211335 
L 59.058713 198.113651 
L 59.902609 199.19866 
L 53.513114 198.595877 
L 59.17927 195.581965 
L 58.8176 196.908086 
L 63.329181 196.00577 
L 63.570294 197.211335 
" clip-path="url(#p1fe73d4c17)" style="fill: #0000ff"/>
    <path d="M 63.449738 177.73722 
L 59.045594 177.73722 
L 59.660314 178.96666 
L 53.513114 177.1225 
L 59.660314 175.27834 
L 59.045594 176.50778 
L 63.449738 176.50778 
L 63.449738 177.73722 
" clip-path="url(#p1fe73d4c17)" style="fill: #0000ff"/>
    <path d="M 63.329181 158.23923 
L 58.8176 157.336914 
L 59.17927 158.663035 
L 53.513114 155.649123 
L 59.902609 155.04634 
L 59.058713 156.131349 
L 63.570294 157.033665 
L 63.329181 158.23923 
" clip-path="url(#p1fe73d4c17)" style="fill: #0000ff"/>
    <path d="M 63.221437 138.721148 
L 58.421591 136.80121 
L 58.535742 138.171018 
L 53.513114 134.175745 
L 59.905549 134.746499 
L 58.878194 135.659704 
L 63.678039 137.579642 
L 63.221437 138.721148 
" clip-path="url(#p1fe73d4c17)" style="fill: #0000ff"/>
    <path d="M 63.133467 119.191461 
L 57.940905 116.075924 
L 57.835482 117.446431 
L 53.513114 112.702368 
L 59.733107 114.283722 
L 58.573447 115.021688 
L 63.766009 118.137225 
L 63.133467 119.191461 
" clip-path="url(#p1fe73d4c17)" style="fill: #0000ff"/>
    <path d="M 63.065725 99.658306 
L 57.449242 95.165119 
L 57.161233 96.509163 
L 53.513114 91.228991 
L 59.465308 93.629069 
L 58.217267 94.205088 
L 63.83375 98.698275 
L 63.065725 99.658306 
" clip-path="url(#p1fe73d4c17)" style="fill: #0000ff"/>
    <path d="M 63.015065 80.126911 
L 56.990495 74.10234 
L 56.555822 75.406358 
L 53.513114 69.755614 
L 59.163858 72.798322 
L 57.85984 73.232995 
L 63.884411 79.257565 
L 63.015065 80.126911 
" clip-path="url(#p1fe73d4c17)" style="fill: #0000ff"/>
    <path d="M 62.977497 60.59972 
L 56.58268 52.925939 
L 56.031732 54.185249 
L 53.513114 48.282236 
L 58.865178 51.824044 
L 57.527162 52.138871 
L 63.921979 59.812651 
L 62.977497 60.59972 
" clip-path="url(#p1fe73d4c17)" style="fill: #0000ff"/>
    <path d="M 62.94952 41.077432 
L 56.228584 31.668122 
L 55.585446 32.882938 
L 53.513114 26.808859 
L 58.586756 30.739145 
L 57.22902 30.953524 
L 63.949956 40.362834 
L 62.94952 41.077432 
" clip-path="url(#p1fe73d4c17)" style="fill: #0000ff"/>
    <path d="M 83.469517 313.829853 
L 78.265096 322.93759 
L 79.637535 323.013836 
L 74.986491 327.436141 
L 76.435177 321.183917 
L 77.197643 322.327617 
L 82.402064 313.21988 
L 83.469517 313.829853 
" clip-path="url(#p1fe73d4c17)" style="fill: #0000ff"/>
    <path d="M 83.447268 294.3798 
L 78.566837 301.700447 
L 79.930778 301.87094 
L 74.986491 305.962764 
L 76.86191 299.825028 
L 77.543881 301.018477 
L 82.424312 293.697829 
L 83.447268 294.3798 
" clip-path="url(#p1fe73d4c17)" style="fill: #0000ff"/>
    <path d="M 83.415806 274.936775 
L 78.922619 280.553258 
L 80.266663 280.841267 
L 74.986491 284.489386 
L 77.386569 278.537192 
L 77.962588 279.785233 
L 82.455775 274.16875 
L 83.415806 274.936775 
" clip-path="url(#p1fe73d4c17)" style="fill: #0000ff"/>
    <path d="M 83.370463 255.501382 
L 79.333218 259.538628 
L 80.637236 259.9733 
L 74.986491 263.016009 
L 78.0292 257.365264 
L 78.463872 258.669282 
L 82.501118 254.632037 
L 83.370463 255.501382 
" clip-path="url(#p1fe73d4c17)" style="fill: #0000ff"/>
    <path d="M 83.304622 236.072433 
L 79.781307 238.71492 
L 81.010747 239.32964 
L 74.986491 241.542632 
L 78.797755 236.378984 
L 79.043643 237.731368 
L 82.566958 235.088881 
L 83.304622 236.072433 
" clip-path="url(#p1fe73d4c17)" style="fill: #0000ff"/>
    <path d="M 83.210702 216.644427 
L 80.209802 218.144877 
L 81.309447 218.96961 
L 74.986491 220.069255 
L 79.65998 215.670676 
L 79.65998 217.045232 
L 82.660879 215.544783 
L 83.210702 216.644427 
" clip-path="url(#p1fe73d4c17)" style="fill: #0000ff"/>
    <path d="M 83.084882 197.204918 
L 80.502876 197.85042 
L 81.397425 198.89406 
L 74.986491 198.595877 
L 80.502876 195.315864 
L 80.204693 196.657688 
L 82.786699 196.012186 
L 83.084882 197.204918 
" clip-path="url(#p1fe73d4c17)" style="fill: #0000ff"/>
    <path d="M 82.93579 177.73722 
L 80.518971 177.73722 
L 81.133691 178.96666 
L 74.986491 177.1225 
L 81.133691 175.27834 
L 80.518971 176.50778 
L 82.93579 176.50778 
L 82.93579 177.73722 
" clip-path="url(#p1fe73d4c17)" style="fill: #0000ff"/>
    <path d="M 82.786699 158.232814 
L 80.204693 157.587312 
L 80.502876 158.929136 
L 74.986491 155.649123 
L 81.397425 155.35094 
L 80.502876 156.39458 
L 83.084882 157.040082 
L 82.786699 158.232814 
" clip-path="url(#p1fe73d4c17)" style="fill: #0000ff"/>
    <path d="M 82.660879 138.700217 
L 79.65998 137.199768 
L 79.65998 138.574324 
L 74.986491 134.175745 
L 81.309447 135.27539 
L 80.209802 136.100123 
L 83.210702 137.600573 
L 82.660879 138.700217 
" clip-path="url(#p1fe73d4c17)" style="fill: #0000ff"/>
    <path d="M 82.566958 119.156119 
L 79.043643 116.513632 
L 78.797755 117.866016 
L 74.986491 112.702368 
L 81.010747 114.91536 
L 79.781307 115.53008 
L 83.304622 118.172567 
L 82.566958 119.156119 
" clip-path="url(#p1fe73d4c17)" style="fill: #0000ff"/>
    <path d="M 82.501118 99.612963 
L 78.463872 95.575718 
L 78.0292 96.879736 
L 74.986491 91.228991 
L 80.637236 94.2717 
L 79.333218 94.706372 
L 83.370463 98.743618 
L 82.501118 99.612963 
" clip-path="url(#p1fe73d4c17)" style="fill: #0000ff"/>
    <path d="M 82.455775 80.07625 
L 77.962588 74.459767 
L 77.386569 75.707808 
L 74.986491 69.755614 
L 80.266663 73.403733 
L 78.922619 73.691742 
L 83.415806 79.308225 
L 82.455775 80.07625 
" clip-path="url(#p1fe73d4c17)" style="fill: #0000ff"/>
    <path d="M 82.424312 60.547171 
L 77.543881 53.226523 
L 76.86191 54.419972 
L 74.986491 48.282236 
L 79.930778 52.37406 
L 78.566837 52.544553 
L 83.447268 59.8652 
L 82.424312 60.547171 
" clip-path="url(#p1fe73d4c17)" style="fill: #0000ff"/>
    <path d="M 82.402064 41.02512 
L 77.197643 31.917383 
L 76.435177 33.061083 
L 74.986491 26.808859 
L 79.637535 31.231164 
L 78.265096 31.30741 
L 83.469517 40.415147 
L 82.402064 41.02512 
" clip-path="url(#p1fe73d4c17)" style="fill: #0000ff"/>
    <path d="M 102.98686 313.767017 
L 99.204236 322.59314 
L 100.576419 322.512423 
L 96.459868 327.436141 
L 97.186318 321.059523 
L 98.074202 322.10884 
L 101.856826 313.282717 
L 102.98686 313.767017 
" clip-path="url(#p1fe73d4c17)" style="fill: #0000ff"/>
    <path d="M 102.971665 294.313726 
L 99.483891 301.289274 
L 100.858446 301.289274 
L 96.459868 305.962764 
L 97.559513 299.639808 
L 98.384246 300.739452 
L 101.87202 293.763903 
L 102.971665 294.313726 
" clip-path="url(#p1fe73d4c17)" style="fill: #0000ff"/>
    <path d="M 102.948961 274.869033 
L 99.833424 280.061595 
L 101.203931 280.167018 
L 96.459868 284.489386 
L 98.041222 278.269393 
L 98.779188 279.429053 
L 101.894725 274.236491 
L 102.948961 274.869033 
" clip-path="url(#p1fe73d4c17)" style="fill: #0000ff"/>
    <path d="M 102.913619 255.435542 
L 100.271132 258.958857 
L 101.623516 259.204745 
L 96.459868 263.016009 
L 98.67286 256.991753 
L 99.28758 258.221193 
L 101.930067 254.697878 
L 102.913619 255.435542 
" clip-path="url(#p1fe73d4c17)" style="fill: #0000ff"/>
    <path d="M 102.856515 236.01533 
L 100.806595 238.06525 
L 102.110613 238.499923 
L 96.459868 241.542632 
L 99.502577 235.891887 
L 99.93725 237.195905 
L 101.98717 235.145985 
L 102.856515 236.01533 
" clip-path="url(#p1fe73d4c17)" style="fill: #0000ff"/>
    <path d="M 102.762828 216.606083 
L 101.404155 217.511865 
L 102.597604 218.193835 
L 96.459868 220.069255 
L 100.551692 215.124968 
L 100.722184 216.488909 
L 102.080857 215.583127 
L 102.762828 216.606083 
" clip-path="url(#p1fe73d4c17)" style="fill: #0000ff"/>
    <path d="M 102.616234 197.191727 
L 101.902831 197.429528 
L 102.874789 198.401486 
L 96.459868 198.595877 
L 101.708439 194.902438 
L 101.514048 196.263179 
L 102.227451 196.025378 
L 102.616234 197.191727 
" clip-path="url(#p1fe73d4c17)" style="fill: #0000ff"/>
    <path d="M 102.421843 177.718697 
L 101.825645 177.718697 
L 102.421843 178.911092 
L 96.459868 177.1225 
L 102.421843 175.333908 
L 101.825645 176.526303 
L 102.421843 176.526303 
L 102.421843 177.718697 
" clip-path="url(#p1fe73d4c17)" style="fill: #0000ff"/>
    <path d="M 102.227451 158.219622 
L 101.514048 157.981821 
L 101.708439 159.342562 
L 96.459868 155.649123 
L 102.874789 155.843514 
L 101.902831 156.815472 
L 102.616234 157.053273 
L 102.227451 158.219622 
" clip-path="url(#p1fe73d4c17)" style="fill: #0000ff"/>
    <path d="M 102.080857 138.661873 
L 100.722184 137.756091 
L 100.551692 139.120032 
L 96.459868 134.175745 
L 102.597604 136.051165 
L 101.404155 136.733135 
L 102.762828 137.638917 
L 102.080857 138.661873 
" clip-path="url(#p1fe73d4c17)" style="fill: #0000ff"/>
    <path d="M 101.98717 119.099015 
L 99.93725 117.049095 
L 99.502577 118.353113 
L 96.459868 112.702368 
L 102.110613 115.745077 
L 100.806595 116.17975 
L 102.856515 118.22967 
L 101.98717 119.099015 
" clip-path="url(#p1fe73d4c17)" style="fill: #0000ff"/>
    <path d="M 101.930067 99.547122 
L 99.28758 96.023807 
L 98.67286 97.253247 
L 96.459868 91.228991 
L 101.623516 95.040255 
L 100.271132 95.286143 
L 102.913619 98.809458 
L 101.930067 99.547122 
" clip-path="url(#p1fe73d4c17)" style="fill: #0000ff"/>
    <path d="M 101.894725 80.008509 
L 98.779188 74.815947 
L 98.041222 75.975607 
L 96.459868 69.755614 
L 101.203931 74.077982 
L 99.833424 74.183405 
L 102.948961 79.375967 
L 101.894725 80.008509 
" clip-path="url(#p1fe73d4c17)" style="fill: #0000ff"/>
    <path d="M 101.87202 60.481097 
L 98.384246 53.505548 
L 97.559513 54.605192 
L 96.459868 48.282236 
L 100.858446 52.955726 
L 99.483891 52.955726 
L 102.971665 59.931274 
L 101.87202 60.481097 
" clip-path="url(#p1fe73d4c17)" style="fill: #0000ff"/>
    <path d="M 101.856826 40.962283 
L 98.074202 32.13616 
L 97.186318 33.185477 
L 96.459868 26.808859 
L 100.576419 31.732577 
L 99.204236 31.65186 
L 102.98686 40.477983 
L 101.856826 40.962283 
" clip-path="url(#p1fe73d4c17)" style="fill: #0000ff"/>
    <path d="M 122.498963 313.693743 
L 120.044203 322.285406 
L 121.395215 322.032091 
L 117.933245 327.436141 
L 117.848807 321.018831 
L 118.862067 321.947652 
L 121.316827 313.35599 
L 122.498963 313.693743 
" clip-path="url(#p1fe73d4c17)" style="fill: #0000ff"/>
    <path d="M 122.49107 294.233206 
L 120.265944 300.908584 
L 121.626685 300.714192 
L 117.933245 305.962764 
L 118.127637 299.547843 
L 119.099595 300.519801 
L 121.324721 293.844423 
L 122.49107 294.233206 
" clip-path="url(#p1fe73d4c17)" style="fill: #0000ff"/>
    <path d="M 122.478648 274.781063 
L 120.55871 279.580909 
L 121.928518 279.466758 
L 117.933245 284.489386 
L 118.503999 278.096951 
L 119.417204 279.124306 
L 121.337142 274.324461 
L 122.478648 274.781063 
" clip-path="url(#p1fe73d4c17)" style="fill: #0000ff"/>
    <path d="M 122.457717 255.341621 
L 120.957268 258.34252 
L 122.331824 258.34252 
L 117.933245 263.016009 
L 119.03289 256.693053 
L 119.857623 257.792698 
L 121.358073 254.791798 
L 122.457717 255.341621 
" clip-path="url(#p1fe73d4c17)" style="fill: #0000ff"/>
    <path d="M 122.419373 235.921643 
L 121.513591 237.280316 
L 122.877532 237.450808 
L 117.933245 241.542632 
L 119.808665 235.404896 
L 120.490635 236.598345 
L 121.396417 235.239672 
L 122.419373 235.921643 
" clip-path="url(#p1fe73d4c17)" style="fill: #0000ff"/>
    <path d="M 122.30536 216.49207 
L 121.907895 216.889535 
L 123.10029 217.287 
L 117.933245 220.069255 
L 120.7155 214.90221 
L 121.112965 216.094605 
L 121.51043 215.69714 
L 122.30536 216.49207 
" clip-path="url(#p1fe73d4c17)" style="fill: #0000ff"/>
    <path d="M 122.106628 197.006017 
L 121.709163 197.20475 
L 122.504093 197.800947 
L 117.933245 198.595877 
L 121.311698 195.416157 
L 121.311698 196.40982 
L 121.709163 196.211087 
L 122.106628 197.006017 
" clip-path="url(#p1fe73d4c17)" style="fill: #0000ff"/>
    <path d="M 121.907895 177.519965 
L 121.51043 177.519965 
L 121.907895 178.314895 
L 117.933245 177.1225 
L 121.907895 175.930105 
L 121.51043 176.725035 
L 121.907895 176.725035 
L 121.907895 177.519965 
" clip-path="url(#p1fe73d4c17)" style="fill: #0000ff"/>
    <path d="M 121.709163 158.033913 
L 121.311698 157.83518 
L 121.311698 158.828843 
L 117.933245 155.649123 
L 122.504093 156.444053 
L 121.709163 157.04025 
L 122.106628 157.238983 
L 121.709163 158.033913 
" clip-path="url(#p1fe73d4c17)" style="fill: #0000ff"/>
    <path d="M 121.51043 138.54786 
L 121.112965 138.150395 
L 120.7155 139.34279 
L 117.933245 134.175745 
L 123.10029 136.958 
L 121.907895 137.355465 
L 122.30536 137.75293 
L 121.51043 138.54786 
" clip-path="url(#p1fe73d4c17)" style="fill: #0000ff"/>
    <path d="M 121.396417 119.005328 
L 120.490635 117.646655 
L 119.808665 118.840104 
L 117.933245 112.702368 
L 122.877532 116.794192 
L 121.513591 116.964684 
L 122.419373 118.323357 
L 121.396417 119.005328 
" clip-path="url(#p1fe73d4c17)" style="fill: #0000ff"/>
    <path d="M 121.358073 99.453202 
L 119.857623 96.452302 
L 119.03289 97.551947 
L 117.933245 91.228991 
L 122.331824 95.90248 
L 120.957268 95.90248 
L 122.457717 98.903379 
L 121.358073 99.453202 
" clip-path="url(#p1fe73d4c17)" style="fill: #0000ff"/>
    <path d="M 121.337142 79.920539 
L 119.417204 75.120694 
L 118.503999 76.148049 
L 117.933245 69.755614 
L 121.928518 74.778242 
L 120.55871 74.664091 
L 122.478648 79.463937 
L 121.337142 79.920539 
" clip-path="url(#p1fe73d4c17)" style="fill: #0000ff"/>
    <path d="M 121.324721 60.400577 
L 119.099595 53.725199 
L 118.127637 54.697157 
L 117.933245 48.282236 
L 121.626685 53.530808 
L 120.265944 53.336416 
L 122.49107 60.011794 
L 121.324721 60.400577 
" clip-path="url(#p1fe73d4c17)" style="fill: #0000ff"/>
    <path d="M 121.316827 40.88901 
L 118.862067 32.297348 
L 117.848807 33.226169 
L 117.933245 26.808859 
L 121.395215 32.212909 
L 120.044203 31.959594 
L 122.498963 40.551257 
L 121.316827 40.88901 
" clip-path="url(#p1fe73d4c17)" style="fill: #0000ff"/>
    <path d="M 142.002489 313.611801 
L 140.797575 322.0462 
L 142.101593 321.611527 
L 139.406623 327.436141 
L 138.450343 321.08992 
L 139.580492 321.872331 
L 140.785406 313.437932 
L 142.002489 313.611801 
" clip-path="url(#p1fe73d4c17)" style="fill: #0000ff"/>
    <path d="M 142.000304 294.139874 
L 140.922513 300.606618 
L 142.236284 300.202381 
L 139.406623 305.962764 
L 138.598148 299.596025 
L 139.709801 300.4045 
L 140.787592 293.937755 
L 142.000304 294.139874 
" clip-path="url(#p1fe73d4c17)" style="fill: #0000ff"/>
    <path d="M 141.99673 274.673319 
L 141.094414 279.1849 
L 142.420535 278.82323 
L 139.406623 284.489386 
L 138.80384 278.099891 
L 139.888849 278.943787 
L 140.791165 274.432206 
L 141.99673 274.673319 
" clip-path="url(#p1fe73d4c17)" style="fill: #0000ff"/>
    <path d="M 141.990314 255.215801 
L 141.344812 257.797807 
L 142.686636 257.499624 
L 139.406623 263.016009 
L 139.10844 256.605075 
L 140.15208 257.499624 
L 140.797582 254.917618 
L 141.990314 255.215801 
" clip-path="url(#p1fe73d4c17)" style="fill: #0000ff"/>
    <path d="M 141.977122 235.775049 
L 141.739321 236.488452 
L 143.100062 236.294061 
L 139.406623 241.542632 
L 139.601014 235.127711 
L 140.572972 236.099669 
L 140.810773 235.386266 
L 141.977122 235.775049 
" clip-path="url(#p1fe73d4c17)" style="fill: #0000ff"/>
    <path d="M 141.791413 216.293337 
L 141.59268 216.690802 
L 142.586343 216.690802 
L 139.406623 220.069255 
L 140.201553 215.498407 
L 140.79775 216.293337 
L 140.996483 215.895872 
L 141.791413 216.293337 
" clip-path="url(#p1fe73d4c17)" style="fill: #0000ff"/>
    <path d="M 141.59268 196.807285 
L 141.393948 197.006017 
L 141.990145 197.20475 
L 139.406623 198.595877 
L 140.79775 196.012355 
L 140.996483 196.608552 
L 141.195215 196.40982 
L 141.59268 196.807285 
" clip-path="url(#p1fe73d4c17)" style="fill: #0000ff"/>
    <path d="M 141.393948 177.321232 
L 141.195215 177.321232 
L 141.393948 177.718697 
L 139.406623 177.1225 
L 141.393948 176.526303 
L 141.195215 176.923768 
L 141.393948 176.923768 
L 141.393948 177.321232 
" clip-path="url(#p1fe73d4c17)" style="fill: #0000ff"/>
    <path d="M 141.195215 157.83518 
L 140.996483 157.636448 
L 140.79775 158.232645 
L 139.406623 155.649123 
L 141.990145 157.04025 
L 141.393948 157.238983 
L 141.59268 157.437715 
L 141.195215 157.83518 
" clip-path="url(#p1fe73d4c17)" style="fill: #0000ff"/>
    <path d="M 140.996483 138.349128 
L 140.79775 137.951663 
L 140.201553 138.746593 
L 139.406623 134.175745 
L 142.586343 137.554198 
L 141.59268 137.554198 
L 141.791413 137.951663 
L 140.996483 138.349128 
" clip-path="url(#p1fe73d4c17)" style="fill: #0000ff"/>
    <path d="M 140.810773 118.858734 
L 140.572972 118.145331 
L 139.601014 119.117289 
L 139.406623 112.702368 
L 143.100062 117.950939 
L 141.739321 117.756548 
L 141.977122 118.469951 
L 140.810773 118.858734 
" clip-path="url(#p1fe73d4c17)" style="fill: #0000ff"/>
    <path d="M 140.797582 99.327382 
L 140.15208 96.745376 
L 139.10844 97.639925 
L 139.406623 91.228991 
L 142.686636 96.745376 
L 141.344812 96.447193 
L 141.990314 99.029199 
L 140.797582 99.327382 
" clip-path="url(#p1fe73d4c17)" style="fill: #0000ff"/>
    <path d="M 140.791165 79.812794 
L 139.888849 75.301213 
L 138.80384 76.145109 
L 139.406623 69.755614 
L 142.420535 75.42177 
L 141.094414 75.0601 
L 141.99673 79.571681 
L 140.791165 79.812794 
" clip-path="url(#p1fe73d4c17)" style="fill: #0000ff"/>
    <path d="M 140.787592 60.307245 
L 139.709801 53.8405 
L 138.598148 54.648975 
L 139.406623 48.282236 
L 142.236284 54.042619 
L 140.922513 53.638382 
L 142.000304 60.105126 
L 140.787592 60.307245 
" clip-path="url(#p1fe73d4c17)" style="fill: #0000ff"/>
    <path d="M 140.785406 40.807068 
L 139.580492 32.372669 
L 138.450343 33.15508 
L 139.406623 26.808859 
L 142.101593 32.633473 
L 140.797575 32.1988 
L 142.002489 40.633199 
L 140.785406 40.807068 
" clip-path="url(#p1fe73d4c17)" style="fill: #0000ff"/>
    <path d="M 161.49472 313.524867 
L 161.49472 321.903661 
L 162.72416 321.288941 
L 160.88 327.436141 
L 159.03584 321.288941 
L 160.26528 321.903661 
L 160.26528 313.524867 
L 161.49472 313.524867 
" clip-path="url(#p1fe73d4c17)" style="fill: #0000ff"/>
    <path d="M 161.49472 294.038814 
L 161.49472 300.430284 
L 162.72416 299.815564 
L 160.88 305.962764 
L 159.03584 299.815564 
L 160.26528 300.430284 
L 160.26528 294.038814 
L 161.49472 294.038814 
" clip-path="url(#p1fe73d4c17)" style="fill: #0000ff"/>
    <path d="M 161.49472 274.552762 
L 161.49472 278.956906 
L 162.72416 278.342186 
L 160.88 284.489386 
L 159.03584 278.342186 
L 160.26528 278.956906 
L 160.26528 274.552762 
L 161.49472 274.552762 
" clip-path="url(#p1fe73d4c17)" style="fill: #0000ff"/>
    <path d="M 161.49472 255.06671 
L 161.49472 257.483529 
L 162.72416 256.868809 
L 160.88 263.016009 
L 159.03584 256.868809 
L 160.26528 257.483529 
L 160.26528 255.06671 
L 161.49472 255.06671 
" clip-path="url(#p1fe73d4c17)" style="fill: #0000ff"/>
    <path d="M 161.476197 235.580657 
L 161.476197 236.176855 
L 162.668592 235.580657 
L 160.88 241.542632 
L 159.091408 235.580657 
L 160.283803 236.176855 
L 160.283803 235.580657 
L 161.476197 235.580657 
" clip-path="url(#p1fe73d4c17)" style="fill: #0000ff"/>
    <path d="M 161.277465 216.094605 
L 161.277465 216.49207 
L 162.072395 216.094605 
L 160.88 220.069255 
L 159.687605 216.094605 
L 160.482535 216.49207 
L 160.482535 216.094605 
L 161.277465 216.094605 
" clip-path="url(#p1fe73d4c17)" style="fill: #0000ff"/>
    <path d="M 161.078732 196.608552 
L 161.078732 196.807285 
L 161.476197 196.608552 
L 160.88 198.595877 
L 160.283803 196.608552 
L 160.681268 196.807285 
L 160.681268 196.608552 
L 161.078732 196.608552 
" clip-path="url(#p1fe73d4c17)" style="fill: #0000ff"/>
    <path d="M 161.49472 177.1225 
L 161.18736 176.590137 
L 160.57264 176.590137 
L 160.26528 177.1225 
L 160.57264 177.654863 
L 161.18736 177.654863 
L 161.49472 177.1225 
L 161.18736 176.590137 
" clip-path="url(#p1fe73d4c17)" style="fill: #0000ff"/>
    <path d="M 160.681268 157.636448 
L 160.681268 157.437715 
L 160.283803 157.636448 
L 160.88 155.649123 
L 161.476197 157.636448 
L 161.078732 157.437715 
L 161.078732 157.636448 
L 160.681268 157.636448 
" clip-path="url(#p1fe73d4c17)" style="fill: #0000ff"/>
    <path d="M 160.482535 138.150395 
L 160.482535 137.75293 
L 159.687605 138.150395 
L 160.88 134.175745 
L 162.072395 138.150395 
L 161.277465 137.75293 
L 161.277465 138.150395 
L 160.482535 138.150395 
" clip-path="url(#p1fe73d4c17)" style="fill: #0000ff"/>
    <path d="M 160.283803 118.664343 
L 160.283803 118.068145 
L 159.091408 118.664343 
L 160.88 112.702368 
L 162.668592 118.664343 
L 161.476197 118.068145 
L 161.476197 118.664343 
L 160.283803 118.664343 
" clip-path="url(#p1fe73d4c17)" style="fill: #0000ff"/>
    <path d="M 160.26528 99.17829 
L 160.26528 96.761471 
L 159.03584 97.376191 
L 160.88 91.228991 
L 162.72416 97.376191 
L 161.49472 96.761471 
L 161.49472 99.17829 
L 160.26528 99.17829 
" clip-path="url(#p1fe73d4c17)" style="fill: #0000ff"/>
    <path d="M 160.26528 79.692238 
L 160.26528 75.288094 
L 159.03584 75.902814 
L 160.88 69.755614 
L 162.72416 75.902814 
L 161.49472 75.288094 
L 161.49472 79.692238 
L 160.26528 79.692238 
" clip-path="url(#p1fe73d4c17)" style="fill: #0000ff"/>
    <path d="M 160.26528 60.206186 
L 160.26528 53.814716 
L 159.03584 54.429436 
L 160.88 48.282236 
L 162.72416 54.429436 
L 161.49472 53.814716 
L 161.49472 60.206186 
L 160.26528 60.206186 
" clip-path="url(#p1fe73d4c17)" style="fill: #0000ff"/>
    <path d="M 160.26528 40.720133 
L 160.26528 32.341339 
L 159.03584 32.956059 
L 160.88 26.808859 
L 162.72416 32.956059 
L 161.49472 32.341339 
L 161.49472 40.720133 
L 160.26528 40.720133 
" clip-path="url(#p1fe73d4c17)" style="fill: #0000ff"/>
    <path d="M 180.974594 313.437932 
L 182.179508 321.872331 
L 183.309657 321.08992 
L 182.353377 327.436141 
L 179.658407 321.611527 
L 180.962425 322.0462 
L 179.757511 313.611801 
L 180.974594 313.437932 
" clip-path="url(#p1fe73d4c17)" style="fill: #0000ff"/>
    <path d="M 180.972408 293.937755 
L 182.050199 300.4045 
L 183.161852 299.596025 
L 182.353377 305.962764 
L 179.523716 300.202381 
L 180.837487 300.606618 
L 179.759696 294.139874 
L 180.972408 293.937755 
" clip-path="url(#p1fe73d4c17)" style="fill: #0000ff"/>
    <path d="M 180.968835 274.432206 
L 181.871151 278.943787 
L 182.95616 278.099891 
L 182.353377 284.489386 
L 179.339465 278.82323 
L 180.665586 279.1849 
L 179.76327 274.673319 
L 180.968835 274.432206 
" clip-path="url(#p1fe73d4c17)" style="fill: #0000ff"/>
    <path d="M 180.962418 254.917618 
L 181.60792 257.499624 
L 182.65156 256.605075 
L 182.353377 263.016009 
L 179.073364 257.499624 
L 180.415188 257.797807 
L 179.769686 255.215801 
L 180.962418 254.917618 
" clip-path="url(#p1fe73d4c17)" style="fill: #0000ff"/>
    <path d="M 180.949227 235.386266 
L 181.187028 236.099669 
L 182.158986 235.127711 
L 182.353377 241.542632 
L 178.659938 236.294061 
L 180.020679 236.488452 
L 179.782878 235.775049 
L 180.949227 235.386266 
" clip-path="url(#p1fe73d4c17)" style="fill: #0000ff"/>
    <path d="M 180.763517 215.895872 
L 180.96225 216.293337 
L 181.558447 215.498407 
L 182.353377 220.069255 
L 179.173657 216.690802 
L 180.16732 216.690802 
L 179.968587 216.293337 
L 180.763517 215.895872 
" clip-path="url(#p1fe73d4c17)" style="fill: #0000ff"/>
    <path d="M 180.564785 196.40982 
L 180.763517 196.608552 
L 180.96225 196.012355 
L 182.353377 198.595877 
L 179.769855 197.20475 
L 180.366052 197.006017 
L 180.16732 196.807285 
L 180.564785 196.40982 
" clip-path="url(#p1fe73d4c17)" style="fill: #0000ff"/>
    <path d="M 180.366052 176.923768 
L 180.564785 176.923768 
L 180.366052 176.526303 
L 182.353377 177.1225 
L 180.366052 177.718697 
L 180.564785 177.321232 
L 180.366052 177.321232 
L 180.366052 176.923768 
" clip-path="url(#p1fe73d4c17)" style="fill: #0000ff"/>
    <path d="M 180.16732 157.437715 
L 180.366052 157.238983 
L 179.769855 157.04025 
L 182.353377 155.649123 
L 180.96225 158.232645 
L 180.763517 157.636448 
L 180.564785 157.83518 
L 180.16732 157.437715 
" clip-path="url(#p1fe73d4c17)" style="fill: #0000ff"/>
    <path d="M 179.968587 137.951663 
L 180.16732 137.554198 
L 179.173657 137.554198 
L 182.353377 134.175745 
L 181.558447 138.746593 
L 180.96225 137.951663 
L 180.763517 138.349128 
L 179.968587 137.951663 
" clip-path="url(#p1fe73d4c17)" style="fill: #0000ff"/>
    <path d="M 179.782878 118.469951 
L 180.020679 117.756548 
L 178.659938 117.950939 
L 182.353377 112.702368 
L 182.158986 119.117289 
L 181.187028 118.145331 
L 180.949227 118.858734 
L 179.782878 118.469951 
" clip-path="url(#p1fe73d4c17)" style="fill: #0000ff"/>
    <path d="M 179.769686 99.029199 
L 180.415188 96.447193 
L 179.073364 96.745376 
L 182.353377 91.228991 
L 182.65156 97.639925 
L 181.60792 96.745376 
L 180.962418 99.327382 
L 179.769686 99.029199 
" clip-path="url(#p1fe73d4c17)" style="fill: #0000ff"/>
    <path d="M 179.76327 79.571681 
L 180.665586 75.0601 
L 179.339465 75.42177 
L 182.353377 69.755614 
L 182.95616 76.145109 
L 181.871151 75.301213 
L 180.968835 79.812794 
L 179.76327 79.571681 
" clip-path="url(#p1fe73d4c17)" style="fill: #0000ff"/>
    <path d="M 179.759696 60.105126 
L 180.837487 53.638382 
L 179.523716 54.042619 
L 182.353377 48.282236 
L 183.161852 54.648975 
L 182.050199 53.8405 
L 180.972408 60.307245 
L 179.759696 60.105126 
" clip-path="url(#p1fe73d4c17)" style="fill: #0000ff"/>
    <path d="M 179.757511 40.633199 
L 180.962425 32.1988 
L 179.658407 32.633473 
L 182.353377 26.808859 
L 183.309657 33.15508 
L 182.179508 32.372669 
L 180.974594 40.807068 
L 179.757511 40.633199 
" clip-path="url(#p1fe73d4c17)" style="fill: #0000ff"/>
    <path d="M 200.443173 313.35599 
L 202.897933 321.947652 
L 203.911193 321.018831 
L 203.826755 327.436141 
L 200.364785 322.032091 
L 201.715797 322.285406 
L 199.261037 313.693743 
L 200.443173 313.35599 
" clip-path="url(#p1fe73d4c17)" style="fill: #0000ff"/>
    <path d="M 200.435279 293.844423 
L 202.660405 300.519801 
L 203.632363 299.547843 
L 203.826755 305.962764 
L 200.133315 300.714192 
L 201.494056 300.908584 
L 199.26893 294.233206 
L 200.435279 293.844423 
" clip-path="url(#p1fe73d4c17)" style="fill: #0000ff"/>
    <path d="M 200.422858 274.324461 
L 202.342796 279.124306 
L 203.256001 278.096951 
L 203.826755 284.489386 
L 199.831482 279.466758 
L 201.20129 279.580909 
L 199.281352 274.781063 
L 200.422858 274.324461 
" clip-path="url(#p1fe73d4c17)" style="fill: #0000ff"/>
    <path d="M 200.401927 254.791798 
L 201.902377 257.792698 
L 202.72711 256.693053 
L 203.826755 263.016009 
L 199.428176 258.34252 
L 200.802732 258.34252 
L 199.302283 255.341621 
L 200.401927 254.791798 
" clip-path="url(#p1fe73d4c17)" style="fill: #0000ff"/>
    <path d="M 200.363583 235.239672 
L 201.269365 236.598345 
L 201.951335 235.404896 
L 203.826755 241.542632 
L 198.882468 237.450808 
L 200.246409 237.280316 
L 199.340627 235.921643 
L 200.363583 235.239672 
" clip-path="url(#p1fe73d4c17)" style="fill: #0000ff"/>
    <path d="M 200.24957 215.69714 
L 200.647035 216.094605 
L 201.0445 214.90221 
L 203.826755 220.069255 
L 198.65971 217.287 
L 199.852105 216.889535 
L 199.45464 216.49207 
L 200.24957 215.69714 
" clip-path="url(#p1fe73d4c17)" style="fill: #0000ff"/>
    <path d="M 200.050837 196.211087 
L 200.448302 196.40982 
L 200.448302 195.416157 
L 203.826755 198.595877 
L 199.255907 197.800947 
L 200.050837 197.20475 
L 199.653372 197.006017 
L 200.050837 196.211087 
" clip-path="url(#p1fe73d4c17)" style="fill: #0000ff"/>
    <path d="M 199.852105 176.725035 
L 200.24957 176.725035 
L 199.852105 175.930105 
L 203.826755 177.1225 
L 199.852105 178.314895 
L 200.24957 177.519965 
L 199.852105 177.519965 
L 199.852105 176.725035 
" clip-path="url(#p1fe73d4c17)" style="fill: #0000ff"/>
    <path d="M 199.653372 157.238983 
L 200.050837 157.04025 
L 199.255907 156.444053 
L 203.826755 155.649123 
L 200.448302 158.828843 
L 200.448302 157.83518 
L 200.050837 158.033913 
L 199.653372 157.238983 
" clip-path="url(#p1fe73d4c17)" style="fill: #0000ff"/>
    <path d="M 199.45464 137.75293 
L 199.852105 137.355465 
L 198.65971 136.958 
L 203.826755 134.175745 
L 201.0445 139.34279 
L 200.647035 138.150395 
L 200.24957 138.54786 
L 199.45464 137.75293 
" clip-path="url(#p1fe73d4c17)" style="fill: #0000ff"/>
    <path d="M 199.340627 118.323357 
L 200.246409 116.964684 
L 198.882468 116.794192 
L 203.826755 112.702368 
L 201.951335 118.840104 
L 201.269365 117.646655 
L 200.363583 119.005328 
L 199.340627 118.323357 
" clip-path="url(#p1fe73d4c17)" style="fill: #0000ff"/>
    <path d="M 199.302283 98.903379 
L 200.802732 95.90248 
L 199.428176 95.90248 
L 203.826755 91.228991 
L 202.72711 97.551947 
L 201.902377 96.452302 
L 200.401927 99.453202 
L 199.302283 98.903379 
" clip-path="url(#p1fe73d4c17)" style="fill: #0000ff"/>
    <path d="M 199.281352 79.463937 
L 201.20129 74.664091 
L 199.831482 74.778242 
L 203.826755 69.755614 
L 203.256001 76.148049 
L 202.342796 75.120694 
L 200.422858 79.920539 
L 199.281352 79.463937 
" clip-path="url(#p1fe73d4c17)" style="fill: #0000ff"/>
    <path d="M 199.26893 60.011794 
L 201.494056 53.336416 
L 200.133315 53.530808 
L 203.826755 48.282236 
L 203.632363 54.697157 
L 202.660405 53.725199 
L 200.435279 60.400577 
L 199.26893 60.011794 
" clip-path="url(#p1fe73d4c17)" style="fill: #0000ff"/>
    <path d="M 199.261037 40.551257 
L 201.715797 31.959594 
L 200.364785 32.212909 
L 203.826755 26.808859 
L 203.911193 33.226169 
L 202.897933 32.297348 
L 200.443173 40.88901 
L 199.261037 40.551257 
" clip-path="url(#p1fe73d4c17)" style="fill: #0000ff"/>
    <path d="M 219.903174 313.282717 
L 223.685798 322.10884 
L 224.573682 321.059523 
L 225.300132 327.436141 
L 221.183581 322.512423 
L 222.555764 322.59314 
L 218.77314 313.767017 
L 219.903174 313.282717 
" clip-path="url(#p1fe73d4c17)" style="fill: #0000ff"/>
    <path d="M 219.88798 293.763903 
L 223.375754 300.739452 
L 224.200487 299.639808 
L 225.300132 305.962764 
L 220.901554 301.289274 
L 222.276109 301.289274 
L 218.788335 294.313726 
L 219.88798 293.763903 
" clip-path="url(#p1fe73d4c17)" style="fill: #0000ff"/>
    <path d="M 219.865275 274.236491 
L 222.980812 279.429053 
L 223.718778 278.269393 
L 225.300132 284.489386 
L 220.556069 280.167018 
L 221.926576 280.061595 
L 218.811039 274.869033 
L 219.865275 274.236491 
" clip-path="url(#p1fe73d4c17)" style="fill: #0000ff"/>
    <path d="M 219.829933 254.697878 
L 222.47242 258.221193 
L 223.08714 256.991753 
L 225.300132 263.016009 
L 220.136484 259.204745 
L 221.488868 258.958857 
L 218.846381 255.435542 
L 219.829933 254.697878 
" clip-path="url(#p1fe73d4c17)" style="fill: #0000ff"/>
    <path d="M 219.77283 235.145985 
L 221.82275 237.195905 
L 222.257423 235.891887 
L 225.300132 241.542632 
L 219.649387 238.499923 
L 220.953405 238.06525 
L 218.903485 236.01533 
L 219.77283 235.145985 
" clip-path="url(#p1fe73d4c17)" style="fill: #0000ff"/>
    <path d="M 219.679143 215.583127 
L 221.037816 216.488909 
L 221.208308 215.124968 
L 225.300132 220.069255 
L 219.162396 218.193835 
L 220.355845 217.511865 
L 218.997172 216.606083 
L 219.679143 215.583127 
" clip-path="url(#p1fe73d4c17)" style="fill: #0000ff"/>
    <path d="M 219.532549 196.025378 
L 220.245952 196.263179 
L 220.051561 194.902438 
L 225.300132 198.595877 
L 218.885211 198.401486 
L 219.857169 197.429528 
L 219.143766 197.191727 
L 219.532549 196.025378 
" clip-path="url(#p1fe73d4c17)" style="fill: #0000ff"/>
    <path d="M 219.338157 176.526303 
L 219.934355 176.526303 
L 219.338157 175.333908 
L 225.300132 177.1225 
L 219.338157 178.911092 
L 219.934355 177.718697 
L 219.338157 177.718697 
L 219.338157 176.526303 
" clip-path="url(#p1fe73d4c17)" style="fill: #0000ff"/>
    <path d="M 219.143766 157.053273 
L 219.857169 156.815472 
L 218.885211 155.843514 
L 225.300132 155.649123 
L 220.051561 159.342562 
L 220.245952 157.981821 
L 219.532549 158.219622 
L 219.143766 157.053273 
" clip-path="url(#p1fe73d4c17)" style="fill: #0000ff"/>
    <path d="M 218.997172 137.638917 
L 220.355845 136.733135 
L 219.162396 136.051165 
L 225.300132 134.175745 
L 221.208308 139.120032 
L 221.037816 137.756091 
L 219.679143 138.661873 
L 218.997172 137.638917 
" clip-path="url(#p1fe73d4c17)" style="fill: #0000ff"/>
    <path d="M 218.903485 118.22967 
L 220.953405 116.17975 
L 219.649387 115.745077 
L 225.300132 112.702368 
L 222.257423 118.353113 
L 221.82275 117.049095 
L 219.77283 119.099015 
L 218.903485 118.22967 
" clip-path="url(#p1fe73d4c17)" style="fill: #0000ff"/>
    <path d="M 218.846381 98.809458 
L 221.488868 95.286143 
L 220.136484 95.040255 
L 225.300132 91.228991 
L 223.08714 97.253247 
L 222.47242 96.023807 
L 219.829933 99.547122 
L 218.846381 98.809458 
" clip-path="url(#p1fe73d4c17)" style="fill: #0000ff"/>
    <path d="M 218.811039 79.375967 
L 221.926576 74.183405 
L 220.556069 74.077982 
L 225.300132 69.755614 
L 223.718778 75.975607 
L 222.980812 74.815947 
L 219.865275 80.008509 
L 218.811039 79.375967 
" clip-path="url(#p1fe73d4c17)" style="fill: #0000ff"/>
    <path d="M 218.788335 59.931274 
L 222.276109 52.955726 
L 220.901554 52.955726 
L 225.300132 48.282236 
L 224.200487 54.605192 
L 223.375754 53.505548 
L 219.88798 60.481097 
L 218.788335 59.931274 
" clip-path="url(#p1fe73d4c17)" style="fill: #0000ff"/>
    <path d="M 218.77314 40.477983 
L 222.555764 31.65186 
L 221.183581 31.732577 
L 225.300132 26.808859 
L 224.573682 33.185477 
L 223.685798 32.13616 
L 219.903174 40.962283 
L 218.77314 40.477983 
" clip-path="url(#p1fe73d4c17)" style="fill: #0000ff"/>
    <path d="M 239.357936 313.21988 
L 244.562357 322.327617 
L 245.324823 321.183917 
L 246.773509 327.436141 
L 242.122465 323.013836 
L 243.494904 322.93759 
L 238.290483 313.829853 
L 239.357936 313.21988 
" clip-path="url(#p1fe73d4c17)" style="fill: #0000ff"/>
    <path d="M 239.335688 293.697829 
L 244.216119 301.018477 
L 244.89809 299.825028 
L 246.773509 305.962764 
L 241.829222 301.87094 
L 243.193163 301.700447 
L 238.312732 294.3798 
L 239.335688 293.697829 
" clip-path="url(#p1fe73d4c17)" style="fill: #0000ff"/>
    <path d="M 239.304225 274.16875 
L 243.797412 279.785233 
L 244.373431 278.537192 
L 246.773509 284.489386 
L 241.493337 280.841267 
L 242.837381 280.553258 
L 238.344194 274.936775 
L 239.304225 274.16875 
" clip-path="url(#p1fe73d4c17)" style="fill: #0000ff"/>
    <path d="M 239.258882 254.632037 
L 243.296128 258.669282 
L 243.7308 257.365264 
L 246.773509 263.016009 
L 241.122764 259.9733 
L 242.426782 259.538628 
L 238.389537 255.501382 
L 239.258882 254.632037 
" clip-path="url(#p1fe73d4c17)" style="fill: #0000ff"/>
    <path d="M 239.193042 235.088881 
L 242.716357 237.731368 
L 242.962245 236.378984 
L 246.773509 241.542632 
L 240.749253 239.32964 
L 241.978693 238.71492 
L 238.455378 236.072433 
L 239.193042 235.088881 
" clip-path="url(#p1fe73d4c17)" style="fill: #0000ff"/>
    <path d="M 239.099121 215.544783 
L 242.10002 217.045232 
L 242.10002 215.670676 
L 246.773509 220.069255 
L 240.450553 218.96961 
L 241.550198 218.144877 
L 238.549298 216.644427 
L 239.099121 215.544783 
" clip-path="url(#p1fe73d4c17)" style="fill: #0000ff"/>
    <path d="M 238.973301 196.012186 
L 241.555307 196.657688 
L 241.257124 195.315864 
L 246.773509 198.595877 
L 240.362575 198.89406 
L 241.257124 197.85042 
L 238.675118 197.204918 
L 238.973301 196.012186 
" clip-path="url(#p1fe73d4c17)" style="fill: #0000ff"/>
    <path d="M 238.82421 176.50778 
L 241.241029 176.50778 
L 240.626309 175.27834 
L 246.773509 177.1225 
L 240.626309 178.96666 
L 241.241029 177.73722 
L 238.82421 177.73722 
L 238.82421 176.50778 
" clip-path="url(#p1fe73d4c17)" style="fill: #0000ff"/>
    <path d="M 238.675118 157.040082 
L 241.257124 156.39458 
L 240.362575 155.35094 
L 246.773509 155.649123 
L 241.257124 158.929136 
L 241.555307 157.587312 
L 238.973301 158.232814 
L 238.675118 157.040082 
" clip-path="url(#p1fe73d4c17)" style="fill: #0000ff"/>
    <path d="M 238.549298 137.600573 
L 241.550198 136.100123 
L 240.450553 135.27539 
L 246.773509 134.175745 
L 242.10002 138.574324 
L 242.10002 137.199768 
L 239.099121 138.700217 
L 238.549298 137.600573 
" clip-path="url(#p1fe73d4c17)" style="fill: #0000ff"/>
    <path d="M 238.455378 118.172567 
L 241.978693 115.53008 
L 240.749253 114.91536 
L 246.773509 112.702368 
L 242.962245 117.866016 
L 242.716357 116.513632 
L 239.193042 119.156119 
L 238.455378 118.172567 
" clip-path="url(#p1fe73d4c17)" style="fill: #0000ff"/>
    <path d="M 238.389537 98.743618 
L 242.426782 94.706372 
L 241.122764 94.2717 
L 246.773509 91.228991 
L 243.7308 96.879736 
L 243.296128 95.575718 
L 239.258882 99.612963 
L 238.389537 98.743618 
" clip-path="url(#p1fe73d4c17)" style="fill: #0000ff"/>
    <path d="M 238.344194 79.308225 
L 242.837381 73.691742 
L 241.493337 73.403733 
L 246.773509 69.755614 
L 244.373431 75.707808 
L 243.797412 74.459767 
L 239.304225 80.07625 
L 238.344194 79.308225 
" clip-path="url(#p1fe73d4c17)" style="fill: #0000ff"/>
    <path d="M 238.312732 59.8652 
L 243.193163 52.544553 
L 241.829222 52.37406 
L 246.773509 48.282236 
L 244.89809 54.419972 
L 244.216119 53.226523 
L 239.335688 60.547171 
L 238.312732 59.8652 
" clip-path="url(#p1fe73d4c17)" style="fill: #0000ff"/>
    <path d="M 238.290483 40.415147 
L 243.494904 31.30741 
L 242.122465 31.231164 
L 246.773509 26.808859 
L 245.324823 33.061083 
L 244.562357 31.917383 
L 239.357936 41.02512 
L 238.290483 40.415147 
" clip-path="url(#p1fe73d4c17)" style="fill: #0000ff"/>
    <path d="M 258.81048 313.167568 
L 265.531416 322.576878 
L 266.174554 321.362062 
L 268.246886 327.436141 
L 263.173244 323.505855 
L 264.53098 323.291476 
L 257.810044 313.882166 
L 258.81048 313.167568 
" clip-path="url(#p1fe73d4c17)" style="fill: #0000ff"/>
    <path d="M 258.782503 293.64528 
L 265.17732 301.319061 
L 265.728268 300.059751 
L 268.246886 305.962764 
L 262.894822 302.420956 
L 264.232838 302.106129 
L 257.838021 294.432349 
L 258.782503 293.64528 
" clip-path="url(#p1fe73d4c17)" style="fill: #0000ff"/>
    <path d="M 258.744935 274.118089 
L 264.769505 280.14266 
L 265.204178 278.838642 
L 268.246886 284.489386 
L 262.596142 281.446678 
L 263.90016 281.012005 
L 257.875589 274.987435 
L 258.744935 274.118089 
" clip-path="url(#p1fe73d4c17)" style="fill: #0000ff"/>
    <path d="M 258.694275 254.586694 
L 264.310758 259.079881 
L 264.598767 257.735837 
L 268.246886 263.016009 
L 262.294692 260.615931 
L 263.542733 260.039912 
L 257.92625 255.546725 
L 258.694275 254.586694 
" clip-path="url(#p1fe73d4c17)" style="fill: #0000ff"/>
    <path d="M 258.626533 235.053539 
L 263.819095 238.169076 
L 263.924518 236.798569 
L 268.246886 241.542632 
L 262.026893 239.961278 
L 263.186553 239.223312 
L 257.993991 236.107775 
L 258.626533 235.053539 
" clip-path="url(#p1fe73d4c17)" style="fill: #0000ff"/>
    <path d="M 258.538563 215.523852 
L 263.338409 217.44379 
L 263.224258 216.073982 
L 268.246886 220.069255 
L 261.854451 219.498501 
L 262.881806 218.585296 
L 258.081961 216.665358 
L 258.538563 215.523852 
" clip-path="url(#p1fe73d4c17)" style="fill: #0000ff"/>
    <path d="M 258.430819 196.00577 
L 262.9424 196.908086 
L 262.58073 195.581965 
L 268.246886 198.595877 
L 261.857391 199.19866 
L 262.701287 198.113651 
L 258.189706 197.211335 
L 258.430819 196.00577 
" clip-path="url(#p1fe73d4c17)" style="fill: #0000ff"/>
    <path d="M 258.310262 176.50778 
L 262.714406 176.50778 
L 262.099686 175.27834 
L 268.246886 177.1225 
L 262.099686 178.96666 
L 262.714406 177.73722 
L 258.310262 177.73722 
L 258.310262 176.50778 
" clip-path="url(#p1fe73d4c17)" style="fill: #0000ff"/>
    <path d="M 258.189706 157.033665 
L 262.701287 156.131349 
L 261.857391 155.04634 
L 268.246886 155.649123 
L 262.58073 158.663035 
L 262.9424 157.336914 
L 258.430819 158.23923 
L 258.189706 157.033665 
" clip-path="url(#p1fe73d4c17)" style="fill: #0000ff"/>
    <path d="M 258.081961 137.579642 
L 262.881806 135.659704 
L 261.854451 134.746499 
L 268.246886 134.175745 
L 263.224258 138.171018 
L 263.338409 136.80121 
L 258.538563 138.721148 
L 258.081961 137.579642 
" clip-path="url(#p1fe73d4c17)" style="fill: #0000ff"/>
    <path d="M 257.993991 118.137225 
L 263.186553 115.021688 
L 262.026893 114.283722 
L 268.246886 112.702368 
L 263.924518 117.446431 
L 263.819095 116.075924 
L 258.626533 119.191461 
L 257.993991 118.137225 
" clip-path="url(#p1fe73d4c17)" style="fill: #0000ff"/>
    <path d="M 257.92625 98.698275 
L 263.542733 94.205088 
L 262.294692 93.629069 
L 268.246886 91.228991 
L 264.598767 96.509163 
L 264.310758 95.165119 
L 258.694275 99.658306 
L 257.92625 98.698275 
" clip-path="url(#p1fe73d4c17)" style="fill: #0000ff"/>
    <path d="M 257.875589 79.257565 
L 263.90016 73.232995 
L 262.596142 72.798322 
L 268.246886 69.755614 
L 265.204178 75.406358 
L 264.769505 74.10234 
L 258.744935 80.126911 
L 257.875589 79.257565 
" clip-path="url(#p1fe73d4c17)" style="fill: #0000ff"/>
    <path d="M 257.838021 59.812651 
L 264.232838 52.138871 
L 262.894822 51.824044 
L 268.246886 48.282236 
L 265.728268 54.185249 
L 265.17732 52.925939 
L 258.782503 60.59972 
L 257.838021 59.812651 
" clip-path="url(#p1fe73d4c17)" style="fill: #0000ff"/>
    <path d="M 257.810044 40.362834 
L 264.53098 30.953524 
L 263.173244 30.739145 
L 268.246886 26.808859 
L 266.174554 32.882938 
L 265.531416 31.668122 
L 258.81048 41.077432 
L 257.810044 40.362834 
" clip-path="url(#p1fe73d4c17)" style="fill: #0000ff"/>
    <path d="M 278.263045 313.124812 
L 286.586504 322.835515 
L 287.11991 321.568675 
L 289.720264 327.436141 
L 284.319528 323.969002 
L 285.653043 323.635624 
L 277.329584 313.924921 
L 278.263045 313.124812 
" clip-path="url(#p1fe73d4c17)" style="fill: #0000ff"/>
    <path d="M 278.230987 293.604142 
L 286.242882 301.616037 
L 286.677555 300.312019 
L 289.720264 305.962764 
L 284.069519 302.920055 
L 285.373537 302.485382 
L 277.361642 294.473487 
L 278.230987 293.604142 
" clip-path="url(#p1fe73d4c17)" style="fill: #0000ff"/>
    <path d="M 278.189849 274.080521 
L 285.863629 280.475338 
L 286.178456 279.137322 
L 289.720264 284.489386 
L 283.817251 281.970768 
L 285.076561 281.41982 
L 277.40278 275.025003 
L 278.189849 274.080521 
" clip-path="url(#p1fe73d4c17)" style="fill: #0000ff"/>
    <path d="M 278.1373 254.555232 
L 285.457947 259.435663 
L 285.62844 258.071722 
L 289.720264 263.016009 
L 283.582528 261.14059 
L 284.775977 260.458619 
L 277.455329 255.578188 
L 278.1373 254.555232 
" clip-path="url(#p1fe73d4c17)" style="fill: #0000ff"/>
    <path d="M 278.071226 235.030835 
L 285.046774 238.518609 
L 285.046774 237.144054 
L 289.720264 241.542632 
L 283.397308 240.442987 
L 284.496952 239.618254 
L 277.521403 236.13048 
L 278.071226 235.030835 
" clip-path="url(#p1fe73d4c17)" style="fill: #0000ff"/>
    <path d="M 277.990706 215.51143 
L 284.666084 217.736556 
L 284.471692 216.375815 
L 289.720264 220.069255 
L 283.305343 219.874863 
L 284.277301 218.902905 
L 277.601923 216.677779 
L 277.990706 215.51143 
" clip-path="url(#p1fe73d4c17)" style="fill: #0000ff"/>
    <path d="M 277.897374 196.002196 
L 284.364118 197.079987 
L 283.959881 195.766216 
L 289.720264 198.595877 
L 283.353525 199.404352 
L 284.162 198.292699 
L 277.695255 197.214908 
L 277.897374 196.002196 
" clip-path="url(#p1fe73d4c17)" style="fill: #0000ff"/>
    <path d="M 277.796314 176.50778 
L 284.187784 176.50778 
L 283.573064 175.27834 
L 289.720264 177.1225 
L 283.573064 178.96666 
L 284.187784 177.73722 
L 277.796314 177.73722 
L 277.796314 176.50778 
" clip-path="url(#p1fe73d4c17)" style="fill: #0000ff"/>
    <path d="M 277.695255 157.030092 
L 284.162 155.952301 
L 283.353525 154.840648 
L 289.720264 155.649123 
L 283.959881 158.478784 
L 284.364118 157.165013 
L 277.897374 158.242804 
L 277.695255 157.030092 
" clip-path="url(#p1fe73d4c17)" style="fill: #0000ff"/>
    <path d="M 277.601923 137.567221 
L 284.277301 135.342095 
L 283.305343 134.370137 
L 289.720264 134.175745 
L 284.471692 137.869185 
L 284.666084 136.508444 
L 277.990706 138.73357 
L 277.601923 137.567221 
" clip-path="url(#p1fe73d4c17)" style="fill: #0000ff"/>
    <path d="M 277.521403 118.11452 
L 284.496952 114.626746 
L 283.397308 113.802013 
L 289.720264 112.702368 
L 285.046774 117.100946 
L 285.046774 115.726391 
L 278.071226 119.214165 
L 277.521403 118.11452 
" clip-path="url(#p1fe73d4c17)" style="fill: #0000ff"/>
    <path d="M 277.455329 98.666812 
L 284.775977 93.786381 
L 283.582528 93.10441 
L 289.720264 91.228991 
L 285.62844 96.173278 
L 285.457947 94.809337 
L 278.1373 99.689768 
L 277.455329 98.666812 
" clip-path="url(#p1fe73d4c17)" style="fill: #0000ff"/>
    <path d="M 277.40278 79.219997 
L 285.076561 72.82518 
L 283.817251 72.274232 
L 289.720264 69.755614 
L 286.178456 75.107678 
L 285.863629 73.769662 
L 278.189849 80.164479 
L 277.40278 79.219997 
" clip-path="url(#p1fe73d4c17)" style="fill: #0000ff"/>
    <path d="M 277.361642 59.771513 
L 285.373537 51.759618 
L 284.069519 51.324945 
L 289.720264 48.282236 
L 286.677555 53.932981 
L 286.242882 52.628963 
L 278.230987 60.640858 
L 277.361642 59.771513 
" clip-path="url(#p1fe73d4c17)" style="fill: #0000ff"/>
    <path d="M 277.329584 40.320079 
L 285.653043 30.609376 
L 284.319528 30.275998 
L 289.720264 26.808859 
L 287.11991 32.676325 
L 286.586504 31.409485 
L 278.263045 41.120188 
L 277.329584 40.320079 
" clip-path="url(#p1fe73d4c17)" style="fill: #0000ff"/>
    <path d="M 297.71704 313.090194 
L 307.71626 323.089414 
L 308.150932 321.785396 
L 311.193641 327.436141 
L 305.542896 324.393432 
L 306.846914 323.95876 
L 296.847694 313.95954 
L 297.71704 313.090194 
" clip-path="url(#p1fe73d4c17)" style="fill: #0000ff"/>
    <path d="M 297.682421 293.572084 
L 307.393124 301.895543 
L 307.726502 300.562028 
L 311.193641 305.962764 
L 305.326175 303.36241 
L 306.593015 302.829004 
L 296.882312 294.505545 
L 297.682421 293.572084 
" clip-path="url(#p1fe73d4c17)" style="fill: #0000ff"/>
    <path d="M 297.639666 274.052544 
L 307.048976 280.77348 
L 307.263355 279.415744 
L 311.193641 284.489386 
L 305.119562 282.417054 
L 306.334378 281.773916 
L 296.925068 275.05298 
L 297.639666 274.052544 
" clip-path="url(#p1fe73d4c17)" style="fill: #0000ff"/>
    <path d="M 297.587353 254.532983 
L 306.69509 259.737404 
L 306.771336 258.364965 
L 311.193641 263.016009 
L 304.941417 261.567323 
L 306.085117 260.804857 
L 296.97738 255.600436 
L 297.587353 254.532983 
" clip-path="url(#p1fe73d4c17)" style="fill: #0000ff"/>
    <path d="M 297.524517 235.01564 
L 306.35064 238.798264 
L 306.269923 237.426081 
L 311.193641 241.542632 
L 304.817023 240.816182 
L 305.86634 239.928298 
L 297.040217 236.145674 
L 297.524517 235.01564 
" clip-path="url(#p1fe73d4c17)" style="fill: #0000ff"/>
    <path d="M 297.451243 215.503537 
L 306.042906 217.958297 
L 305.789591 216.607285 
L 311.193641 220.069255 
L 304.776331 220.153693 
L 305.705152 219.140433 
L 297.11349 216.685673 
L 297.451243 215.503537 
" clip-path="url(#p1fe73d4c17)" style="fill: #0000ff"/>
    <path d="M 297.369301 196.000011 
L 305.8037 197.204925 
L 305.369027 195.900907 
L 311.193641 198.595877 
L 304.84742 199.552157 
L 305.629831 198.422008 
L 297.195432 197.217094 
L 297.369301 196.000011 
" clip-path="url(#p1fe73d4c17)" style="fill: #0000ff"/>
    <path d="M 297.282367 176.50778 
L 305.661161 176.50778 
L 305.046441 175.27834 
L 311.193641 177.1225 
L 305.046441 178.96666 
L 305.661161 177.73722 
L 297.282367 177.73722 
L 297.282367 176.50778 
" clip-path="url(#p1fe73d4c17)" style="fill: #0000ff"/>
    <path d="M 297.195432 157.027906 
L 305.629831 155.822992 
L 304.84742 154.692843 
L 311.193641 155.649123 
L 305.369027 158.344093 
L 305.8037 157.040075 
L 297.369301 158.244989 
L 297.195432 157.027906 
" clip-path="url(#p1fe73d4c17)" style="fill: #0000ff"/>
    <path d="M 297.11349 137.559327 
L 305.705152 135.104567 
L 304.776331 134.091307 
L 311.193641 134.175745 
L 305.789591 137.637715 
L 306.042906 136.286703 
L 297.451243 138.741463 
L 297.11349 137.559327 
" clip-path="url(#p1fe73d4c17)" style="fill: #0000ff"/>
    <path d="M 297.040217 118.099326 
L 305.86634 114.316702 
L 304.817023 113.428818 
L 311.193641 112.702368 
L 306.269923 116.818919 
L 306.35064 115.446736 
L 297.524517 119.22936 
L 297.040217 118.099326 
" clip-path="url(#p1fe73d4c17)" style="fill: #0000ff"/>
    <path d="M 296.97738 98.644564 
L 306.085117 93.440143 
L 304.941417 92.677677 
L 311.193641 91.228991 
L 306.771336 95.880035 
L 306.69509 94.507596 
L 297.587353 99.712017 
L 296.97738 98.644564 
" clip-path="url(#p1fe73d4c17)" style="fill: #0000ff"/>
    <path d="M 296.925068 79.19202 
L 306.334378 72.471084 
L 305.119562 71.827946 
L 311.193641 69.755614 
L 307.263355 74.829256 
L 307.048976 73.47152 
L 297.639666 80.192456 
L 296.925068 79.19202 
" clip-path="url(#p1fe73d4c17)" style="fill: #0000ff"/>
    <path d="M 296.882312 59.739455 
L 306.593015 51.415996 
L 305.326175 50.88259 
L 311.193641 48.282236 
L 307.726502 53.682972 
L 307.393124 52.349457 
L 297.682421 60.672916 
L 296.882312 59.739455 
" clip-path="url(#p1fe73d4c17)" style="fill: #0000ff"/>
    <path d="M 296.847694 40.28546 
L 306.846914 30.28624 
L 305.542896 29.851568 
L 311.193641 26.808859 
L 308.150932 32.459604 
L 307.71626 31.155586 
L 297.71704 41.154806 
L 296.847694 40.28546 
" clip-path="url(#p1fe73d4c17)" style="fill: #0000ff"/>
   </g>
   <g id="matplotlib.axis_1">
    <g id="xtick_1">
     <g id="line2d_1">
      <defs>
       <path id="m517d255b54" d="M 0 0 
L 0 3.5 
" style="stroke: #000000; stroke-width: 0.8"/>
      </defs>
      <g>
       <use xlink:href="#m517d255b54" x="24.477633" y="177.1225" style="stroke: #000000; stroke-width: 0.8"/>
      </g>
     </g>
     <g id="text_1">
      <!-- 3 -->
      <g transform="translate(17.106539 191.720937) scale(0.1 -0.1)">
       <defs>
        <path id="DejaVuSans-2212" d="M 678 2272 
L 4684 2272 
L 4684 1741 
L 678 1741 
L 678 2272 
z
" transform="scale(0.015625)"/>
        <path id="DejaVuSans-33" d="M 2597 2516 
Q 3050 2419 3304 2112 
Q 3559 1806 3559 1356 
Q 3559 666 3084 287 
Q 2609 -91 1734 -91 
Q 1441 -91 1130 -33 
Q 819 25 488 141 
L 488 750 
Q 750 597 1062 519 
Q 1375 441 1716 441 
Q 2309 441 2620 675 
Q 2931 909 2931 1356 
Q 2931 1769 2642 2001 
Q 2353 2234 1838 2234 
L 1294 2234 
L 1294 2753 
L 1863 2753 
Q 2328 2753 2575 2939 
Q 2822 3125 2822 3475 
Q 2822 3834 2567 4026 
Q 2313 4219 1838 4219 
Q 1578 4219 1281 4162 
Q 984 4106 628 3988 
L 628 4550 
Q 988 4650 1302 4700 
Q 1616 4750 1894 4750 
Q 2613 4750 3031 4423 
Q 3450 4097 3450 3541 
Q 3450 3153 3228 2886 
Q 3006 2619 2597 2516 
z
" transform="scale(0.015625)"/>
       </defs>
       <use xlink:href="#DejaVuSans-2212"/>
       <use xlink:href="#DejaVuSans-33" x="83.789062"/>
      </g>
     </g>
    </g>
    <g id="xtick_2">
     <g id="line2d_2">
      <g>
       <use xlink:href="#m517d255b54" x="69.945089" y="177.1225" style="stroke: #000000; stroke-width: 0.8"/>
      </g>
     </g>
     <g id="text_2">
      <!-- 2 -->
      <g transform="translate(62.573995 191.720937) scale(0.1 -0.1)">
       <defs>
        <path id="DejaVuSans-32" d="M 1228 531 
L 3431 531 
L 3431 0 
L 469 0 
L 469 531 
Q 828 903 1448 1529 
Q 2069 2156 2228 2338 
Q 2531 2678 2651 2914 
Q 2772 3150 2772 3378 
Q 2772 3750 2511 3984 
Q 2250 4219 1831 4219 
Q 1534 4219 1204 4116 
Q 875 4013 500 3803 
L 500 4441 
Q 881 4594 1212 4672 
Q 1544 4750 1819 4750 
Q 2544 4750 2975 4387 
Q 3406 4025 3406 3419 
Q 3406 3131 3298 2873 
Q 3191 2616 2906 2266 
Q 2828 2175 2409 1742 
Q 1991 1309 1228 531 
z
" transform="scale(0.015625)"/>
       </defs>
       <use xlink:href="#DejaVuSans-2212"/>
       <use xlink:href="#DejaVuSans-32" x="83.789062"/>
      </g>
     </g>
    </g>
    <g id="xtick_3">
     <g id="line2d_3">
      <g>
       <use xlink:href="#m517d255b54" x="115.412544" y="177.1225" style="stroke: #000000; stroke-width: 0.8"/>
      </g>
     </g>
     <g id="text_3">
      <!-- 1 -->
      <g transform="translate(108.041451 191.720937) scale(0.1 -0.1)">
       <defs>
        <path id="DejaVuSans-31" d="M 794 531 
L 1825 531 
L 1825 4091 
L 703 3866 
L 703 4441 
L 1819 4666 
L 2450 4666 
L 2450 531 
L 3481 531 
L 3481 0 
L 794 0 
L 794 531 
z
" transform="scale(0.015625)"/>
       </defs>
       <use xlink:href="#DejaVuSans-2212"/>
       <use xlink:href="#DejaVuSans-31" x="83.789062"/>
      </g>
     </g>
    </g>
    <g id="xtick_4">
     <g id="line2d_4">
      <g>
       <use xlink:href="#m517d255b54" x="160.88" y="177.1225" style="stroke: #000000; stroke-width: 0.8"/>
      </g>
     </g>
    </g>
    <g id="xtick_5">
     <g id="line2d_5">
      <g>
       <use xlink:href="#m517d255b54" x="206.347456" y="177.1225" style="stroke: #000000; stroke-width: 0.8"/>
      </g>
     </g>
     <g id="text_4">
      <!-- 1 -->
      <g transform="translate(203.166206 191.720937) scale(0.1 -0.1)">
       <use xlink:href="#DejaVuSans-31"/>
      </g>
     </g>
    </g>
    <g id="xtick_6">
     <g id="line2d_6">
      <g>
       <use xlink:href="#m517d255b54" x="251.814911" y="177.1225" style="stroke: #000000; stroke-width: 0.8"/>
      </g>
     </g>
     <g id="text_5">
      <!-- 2 -->
      <g transform="translate(248.633661 191.720937) scale(0.1 -0.1)">
       <use xlink:href="#DejaVuSans-32"/>
      </g>
     </g>
    </g>
    <g id="xtick_7">
     <g id="line2d_7">
      <g>
       <use xlink:href="#m517d255b54" x="297.282367" y="177.1225" style="stroke: #000000; stroke-width: 0.8"/>
      </g>
     </g>
     <g id="text_6">
      <!-- 3 -->
      <g transform="translate(294.101117 191.720937) scale(0.1 -0.1)">
       <use xlink:href="#DejaVuSans-33"/>
      </g>
     </g>
    </g>
    <g id="xtick_8">
     <g id="line2d_8">
      <defs>
       <path id="mb480f2f17e" d="M 0 0 
L 0 2 
" style="stroke: #000000; stroke-width: 0.6"/>
      </defs>
      <g>
       <use xlink:href="#mb480f2f17e" x="15.384142" y="177.1225" style="stroke: #000000; stroke-width: 0.6"/>
      </g>
     </g>
    </g>
    <g id="xtick_9">
     <g id="line2d_9">
      <g>
       <use xlink:href="#mb480f2f17e" x="33.571124" y="177.1225" style="stroke: #000000; stroke-width: 0.6"/>
      </g>
     </g>
    </g>
    <g id="xtick_10">
     <g id="line2d_10">
      <g>
       <use xlink:href="#mb480f2f17e" x="42.664615" y="177.1225" style="stroke: #000000; stroke-width: 0.6"/>
      </g>
     </g>
    </g>
    <g id="xtick_11">
     <g id="line2d_11">
      <g>
       <use xlink:href="#mb480f2f17e" x="51.758107" y="177.1225" style="stroke: #000000; stroke-width: 0.6"/>
      </g>
     </g>
    </g>
    <g id="xtick_12">
     <g id="line2d_12">
      <g>
       <use xlink:href="#mb480f2f17e" x="60.851598" y="177.1225" style="stroke: #000000; stroke-width: 0.6"/>
      </g>
     </g>
    </g>
    <g id="xtick_13">
     <g id="line2d_13">
      <g>
       <use xlink:href="#mb480f2f17e" x="79.03858" y="177.1225" style="stroke: #000000; stroke-width: 0.6"/>
      </g>
     </g>
    </g>
    <g id="xtick_14">
     <g id="line2d_14">
      <g>
       <use xlink:href="#mb480f2f17e" x="88.132071" y="177.1225" style="stroke: #000000; stroke-width: 0.6"/>
      </g>
     </g>
    </g>
    <g id="xtick_15">
     <g id="line2d_15">
      <g>
       <use xlink:href="#mb480f2f17e" x="97.225562" y="177.1225" style="stroke: #000000; stroke-width: 0.6"/>
      </g>
     </g>
    </g>
    <g id="xtick_16">
     <g id="line2d_16">
      <g>
       <use xlink:href="#mb480f2f17e" x="106.319053" y="177.1225" style="stroke: #000000; stroke-width: 0.6"/>
      </g>
     </g>
    </g>
    <g id="xtick_17">
     <g id="line2d_17">
      <g>
       <use xlink:href="#mb480f2f17e" x="124.506036" y="177.1225" style="stroke: #000000; stroke-width: 0.6"/>
      </g>
     </g>
    </g>
    <g id="xtick_18">
     <g id="line2d_18">
      <g>
       <use xlink:href="#mb480f2f17e" x="133.599527" y="177.1225" style="stroke: #000000; stroke-width: 0.6"/>
      </g>
     </g>
    </g>
    <g id="xtick_19">
     <g id="line2d_19">
      <g>
       <use xlink:href="#mb480f2f17e" x="142.693018" y="177.1225" style="stroke: #000000; stroke-width: 0.6"/>
      </g>
     </g>
    </g>
    <g id="xtick_20">
     <g id="line2d_20">
      <g>
       <use xlink:href="#mb480f2f17e" x="151.786509" y="177.1225" style="stroke: #000000; stroke-width: 0.6"/>
      </g>
     </g>
    </g>
    <g id="xtick_21">
     <g id="line2d_21">
      <g>
       <use xlink:href="#mb480f2f17e" x="169.973491" y="177.1225" style="stroke: #000000; stroke-width: 0.6"/>
      </g>
     </g>
    </g>
    <g id="xtick_22">
     <g id="line2d_22">
      <g>
       <use xlink:href="#mb480f2f17e" x="179.066982" y="177.1225" style="stroke: #000000; stroke-width: 0.6"/>
      </g>
     </g>
    </g>
    <g id="xtick_23">
     <g id="line2d_23">
      <g>
       <use xlink:href="#mb480f2f17e" x="188.160473" y="177.1225" style="stroke: #000000; stroke-width: 0.6"/>
      </g>
     </g>
    </g>
    <g id="xtick_24">
     <g id="line2d_24">
      <g>
       <use xlink:href="#mb480f2f17e" x="197.253964" y="177.1225" style="stroke: #000000; stroke-width: 0.6"/>
      </g>
     </g>
    </g>
    <g id="xtick_25">
     <g id="line2d_25">
      <g>
       <use xlink:href="#mb480f2f17e" x="215.440947" y="177.1225" style="stroke: #000000; stroke-width: 0.6"/>
      </g>
     </g>
    </g>
    <g id="xtick_26">
     <g id="line2d_26">
      <g>
       <use xlink:href="#mb480f2f17e" x="224.534438" y="177.1225" style="stroke: #000000; stroke-width: 0.6"/>
      </g>
     </g>
    </g>
    <g id="xtick_27">
     <g id="line2d_27">
      <g>
       <use xlink:href="#mb480f2f17e" x="233.627929" y="177.1225" style="stroke: #000000; stroke-width: 0.6"/>
      </g>
     </g>
    </g>
    <g id="xtick_28">
     <g id="line2d_28">
      <g>
       <use xlink:href="#mb480f2f17e" x="242.72142" y="177.1225" style="stroke: #000000; stroke-width: 0.6"/>
      </g>
     </g>
    </g>
    <g id="xtick_29">
     <g id="line2d_29">
      <g>
       <use xlink:href="#mb480f2f17e" x="260.908402" y="177.1225" style="stroke: #000000; stroke-width: 0.6"/>
      </g>
     </g>
    </g>
    <g id="xtick_30">
     <g id="line2d_30">
      <g>
       <use xlink:href="#mb480f2f17e" x="270.001893" y="177.1225" style="stroke: #000000; stroke-width: 0.6"/>
      </g>
     </g>
    </g>
    <g id="xtick_31">
     <g id="line2d_31">
      <g>
       <use xlink:href="#mb480f2f17e" x="279.095385" y="177.1225" style="stroke: #000000; stroke-width: 0.6"/>
      </g>
     </g>
    </g>
    <g id="xtick_32">
     <g id="line2d_32">
      <g>
       <use xlink:href="#mb480f2f17e" x="288.188876" y="177.1225" style="stroke: #000000; stroke-width: 0.6"/>
      </g>
     </g>
    </g>
    <g id="xtick_33">
     <g id="line2d_33">
      <g>
       <use xlink:href="#mb480f2f17e" x="306.375858" y="177.1225" style="stroke: #000000; stroke-width: 0.6"/>
      </g>
     </g>
    </g>
    <g id="text_7">
     <!-- $x$ -->
     <g transform="translate(322.56 177.1225) scale(0.16 -0.16)">
      <defs>
       <path id="Cmmi10-78" d="M 500 184 
Q 613 97 819 97 
Q 1019 97 1172 289 
Q 1325 481 1381 709 
L 1672 1844 
Q 1741 2153 1741 2266 
Q 1741 2425 1652 2544 
Q 1563 2663 1403 2663 
Q 1200 2663 1022 2536 
Q 844 2409 722 2214 
Q 600 2019 550 1819 
Q 538 1778 500 1778 
L 422 1778 
Q 372 1778 372 1838 
L 372 1856 
Q 434 2094 584 2320 
Q 734 2547 951 2687 
Q 1169 2828 1416 2828 
Q 1650 2828 1839 2703 
Q 2028 2578 2106 2363 
Q 2216 2559 2386 2693 
Q 2556 2828 2759 2828 
Q 2897 2828 3040 2779 
Q 3184 2731 3275 2631 
Q 3366 2531 3366 2381 
Q 3366 2219 3261 2101 
Q 3156 1984 2994 1984 
Q 2891 1984 2822 2050 
Q 2753 2116 2753 2216 
Q 2753 2350 2845 2451 
Q 2938 2553 3066 2572 
Q 2950 2663 2747 2663 
Q 2541 2663 2389 2472 
Q 2238 2281 2175 2047 
L 1894 916 
Q 1825 659 1825 494 
Q 1825 331 1917 214 
Q 2009 97 2163 97 
Q 2463 97 2698 361 
Q 2934 625 3009 941 
Q 3022 978 3059 978 
L 3138 978 
Q 3163 978 3178 961 
Q 3194 944 3194 922 
Q 3194 916 3188 903 
Q 3097 522 2806 225 
Q 2516 -72 2150 -72 
Q 1916 -72 1727 54 
Q 1538 181 1459 397 
Q 1359 209 1182 68 
Q 1006 -72 806 -72 
Q 669 -72 523 -23 
Q 378 25 287 125 
Q 197 225 197 378 
Q 197 528 301 651 
Q 406 775 563 775 
Q 669 775 741 711 
Q 813 647 813 544 
Q 813 409 723 309 
Q 634 209 500 184 
z
" transform="scale(0.015625)"/>
      </defs>
      <use xlink:href="#Cmmi10-78" transform="translate(0 0.8125)"/>
     </g>
    </g>
   </g>
   <g id="matplotlib.axis_2">
    <g id="ytick_1">
     <g id="line2d_34">
      <defs>
       <path id="m2f154992bf" d="M 0 0 
L -3.5 0 
" style="stroke: #000000; stroke-width: 0.8"/>
      </defs>
      <g>
       <use xlink:href="#m2f154992bf" x="160.88" y="313.524867" style="stroke: #000000; stroke-width: 0.8"/>
      </g>
     </g>
     <g id="text_8">
      <!-- 3 -->
      <g transform="translate(139.137812 317.324086) scale(0.1 -0.1)">
       <use xlink:href="#DejaVuSans-2212"/>
       <use xlink:href="#DejaVuSans-33" x="83.789062"/>
      </g>
     </g>
    </g>
    <g id="ytick_2">
     <g id="line2d_35">
      <g>
       <use xlink:href="#m2f154992bf" x="160.88" y="268.057411" style="stroke: #000000; stroke-width: 0.8"/>
      </g>
     </g>
     <g id="text_9">
      <!-- 2 -->
      <g transform="translate(139.137812 271.85663) scale(0.1 -0.1)">
       <use xlink:href="#DejaVuSans-2212"/>
       <use xlink:href="#DejaVuSans-32" x="83.789062"/>
      </g>
     </g>
    </g>
    <g id="ytick_3">
     <g id="line2d_36">
      <g>
       <use xlink:href="#m2f154992bf" x="160.88" y="222.589956" style="stroke: #000000; stroke-width: 0.8"/>
      </g>
     </g>
     <g id="text_10">
      <!-- 1 -->
      <g transform="translate(139.137812 226.389174) scale(0.1 -0.1)">
       <use xlink:href="#DejaVuSans-2212"/>
       <use xlink:href="#DejaVuSans-31" x="83.789062"/>
      </g>
     </g>
    </g>
    <g id="ytick_4">
     <g id="line2d_37">
      <g>
       <use xlink:href="#m2f154992bf" x="160.88" y="177.1225" style="stroke: #000000; stroke-width: 0.8"/>
      </g>
     </g>
    </g>
    <g id="ytick_5">
     <g id="line2d_38">
      <g>
       <use xlink:href="#m2f154992bf" x="160.88" y="131.655044" style="stroke: #000000; stroke-width: 0.8"/>
      </g>
     </g>
     <g id="text_11">
      <!-- 1 -->
      <g transform="translate(147.5175 135.454263) scale(0.1 -0.1)">
       <use xlink:href="#DejaVuSans-31"/>
      </g>
     </g>
    </g>
    <g id="ytick_6">
     <g id="line2d_39">
      <g>
       <use xlink:href="#m2f154992bf" x="160.88" y="86.187589" style="stroke: #000000; stroke-width: 0.8"/>
      </g>
     </g>
     <g id="text_12">
      <!-- 2 -->
      <g transform="translate(147.5175 89.986808) scale(0.1 -0.1)">
       <use xlink:href="#DejaVuSans-32"/>
      </g>
     </g>
    </g>
    <g id="ytick_7">
     <g id="line2d_40">
      <g>
       <use xlink:href="#m2f154992bf" x="160.88" y="40.720133" style="stroke: #000000; stroke-width: 0.8"/>
      </g>
     </g>
     <g id="text_13">
      <!-- 3 -->
      <g transform="translate(147.5175 44.519352) scale(0.1 -0.1)">
       <use xlink:href="#DejaVuSans-33"/>
      </g>
     </g>
    </g>
    <g id="ytick_8">
     <g id="line2d_41">
      <defs>
       <path id="m60d7ae6412" d="M 0 0 
L -2 0 
" style="stroke: #000000; stroke-width: 0.6"/>
      </defs>
      <g>
       <use xlink:href="#m60d7ae6412" x="160.88" y="322.618358" style="stroke: #000000; stroke-width: 0.6"/>
      </g>
     </g>
    </g>
    <g id="ytick_9">
     <g id="line2d_42">
      <g>
       <use xlink:href="#m60d7ae6412" x="160.88" y="304.431376" style="stroke: #000000; stroke-width: 0.6"/>
      </g>
     </g>
    </g>
    <g id="ytick_10">
     <g id="line2d_43">
      <g>
       <use xlink:href="#m60d7ae6412" x="160.88" y="295.337885" style="stroke: #000000; stroke-width: 0.6"/>
      </g>
     </g>
    </g>
    <g id="ytick_11">
     <g id="line2d_44">
      <g>
       <use xlink:href="#m60d7ae6412" x="160.88" y="286.244393" style="stroke: #000000; stroke-width: 0.6"/>
      </g>
     </g>
    </g>
    <g id="ytick_12">
     <g id="line2d_45">
      <g>
       <use xlink:href="#m60d7ae6412" x="160.88" y="277.150902" style="stroke: #000000; stroke-width: 0.6"/>
      </g>
     </g>
    </g>
    <g id="ytick_13">
     <g id="line2d_46">
      <g>
       <use xlink:href="#m60d7ae6412" x="160.88" y="258.96392" style="stroke: #000000; stroke-width: 0.6"/>
      </g>
     </g>
    </g>
    <g id="ytick_14">
     <g id="line2d_47">
      <g>
       <use xlink:href="#m60d7ae6412" x="160.88" y="249.870429" style="stroke: #000000; stroke-width: 0.6"/>
      </g>
     </g>
    </g>
    <g id="ytick_15">
     <g id="line2d_48">
      <g>
       <use xlink:href="#m60d7ae6412" x="160.88" y="240.776938" style="stroke: #000000; stroke-width: 0.6"/>
      </g>
     </g>
    </g>
    <g id="ytick_16">
     <g id="line2d_49">
      <g>
       <use xlink:href="#m60d7ae6412" x="160.88" y="231.683447" style="stroke: #000000; stroke-width: 0.6"/>
      </g>
     </g>
    </g>
    <g id="ytick_17">
     <g id="line2d_50">
      <g>
       <use xlink:href="#m60d7ae6412" x="160.88" y="213.496464" style="stroke: #000000; stroke-width: 0.6"/>
      </g>
     </g>
    </g>
    <g id="ytick_18">
     <g id="line2d_51">
      <g>
       <use xlink:href="#m60d7ae6412" x="160.88" y="204.402973" style="stroke: #000000; stroke-width: 0.6"/>
      </g>
     </g>
    </g>
    <g id="ytick_19">
     <g id="line2d_52">
      <g>
       <use xlink:href="#m60d7ae6412" x="160.88" y="195.309482" style="stroke: #000000; stroke-width: 0.6"/>
      </g>
     </g>
    </g>
    <g id="ytick_20">
     <g id="line2d_53">
      <g>
       <use xlink:href="#m60d7ae6412" x="160.88" y="186.215991" style="stroke: #000000; stroke-width: 0.6"/>
      </g>
     </g>
    </g>
    <g id="ytick_21">
     <g id="line2d_54">
      <g>
       <use xlink:href="#m60d7ae6412" x="160.88" y="168.029009" style="stroke: #000000; stroke-width: 0.6"/>
      </g>
     </g>
    </g>
    <g id="ytick_22">
     <g id="line2d_55">
      <g>
       <use xlink:href="#m60d7ae6412" x="160.88" y="158.935518" style="stroke: #000000; stroke-width: 0.6"/>
      </g>
     </g>
    </g>
    <g id="ytick_23">
     <g id="line2d_56">
      <g>
       <use xlink:href="#m60d7ae6412" x="160.88" y="149.842027" style="stroke: #000000; stroke-width: 0.6"/>
      </g>
     </g>
    </g>
    <g id="ytick_24">
     <g id="line2d_57">
      <g>
       <use xlink:href="#m60d7ae6412" x="160.88" y="140.748536" style="stroke: #000000; stroke-width: 0.6"/>
      </g>
     </g>
    </g>
    <g id="ytick_25">
     <g id="line2d_58">
      <g>
       <use xlink:href="#m60d7ae6412" x="160.88" y="122.561553" style="stroke: #000000; stroke-width: 0.6"/>
      </g>
     </g>
    </g>
    <g id="ytick_26">
     <g id="line2d_59">
      <g>
       <use xlink:href="#m60d7ae6412" x="160.88" y="113.468062" style="stroke: #000000; stroke-width: 0.6"/>
      </g>
     </g>
    </g>
    <g id="ytick_27">
     <g id="line2d_60">
      <g>
       <use xlink:href="#m60d7ae6412" x="160.88" y="104.374571" style="stroke: #000000; stroke-width: 0.6"/>
      </g>
     </g>
    </g>
    <g id="ytick_28">
     <g id="line2d_61">
      <g>
       <use xlink:href="#m60d7ae6412" x="160.88" y="95.28108" style="stroke: #000000; stroke-width: 0.6"/>
      </g>
     </g>
    </g>
    <g id="ytick_29">
     <g id="line2d_62">
      <g>
       <use xlink:href="#m60d7ae6412" x="160.88" y="77.094098" style="stroke: #000000; stroke-width: 0.6"/>
      </g>
     </g>
    </g>
    <g id="ytick_30">
     <g id="line2d_63">
      <g>
       <use xlink:href="#m60d7ae6412" x="160.88" y="68.000607" style="stroke: #000000; stroke-width: 0.6"/>
      </g>
     </g>
    </g>
    <g id="ytick_31">
     <g id="line2d_64">
      <g>
       <use xlink:href="#m60d7ae6412" x="160.88" y="58.907115" style="stroke: #000000; stroke-width: 0.6"/>
      </g>
     </g>
    </g>
    <g id="ytick_32">
     <g id="line2d_65">
      <g>
       <use xlink:href="#m60d7ae6412" x="160.88" y="49.813624" style="stroke: #000000; stroke-width: 0.6"/>
      </g>
     </g>
    </g>
    <g id="ytick_33">
     <g id="line2d_66">
      <g>
       <use xlink:href="#m60d7ae6412" x="160.88" y="31.626642" style="stroke: #000000; stroke-width: 0.6"/>
      </g>
     </g>
    </g>
    <g id="text_14">
     <!-- $y$ -->
     <g transform="translate(156.88 12.0825) scale(0.16 -0.16)">
      <defs>
       <path id="Cmmi10-79" d="M 538 -916 
Q 672 -1147 1006 -1147 
Q 1309 -1147 1531 -934 
Q 1753 -722 1889 -420 
Q 2025 -119 2100 197 
Q 1816 -72 1484 -72 
Q 1231 -72 1053 15 
Q 875 103 776 276 
Q 678 450 678 697 
Q 678 906 734 1126 
Q 791 1347 892 1617 
Q 994 1888 1069 2088 
Q 1153 2322 1153 2472 
Q 1153 2663 1013 2663 
Q 759 2663 595 2402 
Q 431 2141 353 1819 
Q 341 1778 300 1778 
L 225 1778 
Q 172 1778 172 1838 
L 172 1856 
Q 275 2238 487 2533 
Q 700 2828 1025 2828 
Q 1253 2828 1411 2678 
Q 1569 2528 1569 2297 
Q 1569 2178 1516 2047 
Q 1488 1969 1388 1706 
Q 1288 1444 1234 1272 
Q 1181 1100 1147 934 
Q 1113 769 1113 603 
Q 1113 391 1203 244 
Q 1294 97 1491 97 
Q 1888 97 2203 581 
L 2688 2553 
Q 2709 2638 2787 2698 
Q 2866 2759 2956 2759 
Q 3034 2759 3092 2709 
Q 3150 2659 3150 2578 
Q 3150 2541 3144 2528 
L 2509 -19 
Q 2425 -347 2200 -647 
Q 1975 -947 1658 -1130 
Q 1341 -1313 997 -1313 
Q 831 -1313 668 -1248 
Q 506 -1184 406 -1056 
Q 306 -928 306 -756 
Q 306 -581 409 -453 
Q 513 -325 684 -325 
Q 788 -325 858 -389 
Q 928 -453 928 -556 
Q 928 -703 818 -812 
Q 709 -922 563 -922 
Q 556 -919 550 -917 
Q 544 -916 538 -916 
z
" transform="scale(0.015625)"/>
      </defs>
      <use xlink:href="#Cmmi10-79" transform="translate(0 0.8125)"/>
     </g>
    </g>
   </g>
   <g id="line2d_67">
    <path d="M 69.945089 268.057411 
L 251.814911 86.187589 
L 251.814911 86.187589 
" clip-path="url(#p1fe73d4c17)" style="fill: none; stroke: #ff0000; stroke-width: 2; stroke-linecap: square"/>
   </g>
   <g id="patch_3">
    <path d="M 244.994793 93.007707 
Q 248.404852 89.597648 250.233772 87.768728 
" clip-path="url(#p1fe73d4c17)" style="fill: none; stroke: #ff0000; stroke-width: 2; stroke-linecap: round"/>
    <path d="M 239.627171 91.304261 
L 250.233772 87.768728 
L 246.698239 98.375329 
L 239.627171 91.304261 
z
" clip-path="url(#p1fe73d4c17)" style="fill: #ff0000; stroke: #ff0000; stroke-width: 2; stroke-linecap: round"/>
   </g>
   <g id="line2d_68">
    <path d="M 160.88 268.057411 
L 251.814911 268.057411 
L 251.814911 268.057411 
" clip-path="url(#p1fe73d4c17)" style="fill: none; stroke: #800080; stroke-width: 2; stroke-linecap: square"/>
   </g>
   <g id="patch_4">
    <path d="M 167.700118 268.057411 
Q 164.290059 268.057411 163.116068 268.057411 
" clip-path="url(#p1fe73d4c17)" style="fill: none; stroke: #800080; stroke-width: 2; stroke-linecap: round"/>
    <path d="M 173.116068 273.057411 
L 163.116068 268.057411 
L 173.116068 263.057411 
L 173.116068 273.057411 
z
" clip-path="url(#p1fe73d4c17)" style="fill: #800080; stroke: #800080; stroke-width: 2; stroke-linecap: round"/>
   </g>
   <g id="patch_5">
    <path d="M 160.88 330.8025 
L 160.88 23.4425 
" style="fill: none; stroke: #000000; stroke-width: 0.8; stroke-linejoin: miter; stroke-linecap: square"/>
   </g>
   <g id="patch_6">
    <path d="M 7.2 177.1225 
L 314.56 177.1225 
" style="fill: none; stroke: #000000; stroke-width: 0.8; stroke-linejoin: miter; stroke-linecap: square"/>
   </g>
   <g id="text_15">
    <g id="patch_7">
     <path d="M 157.493609 140.239678 
L 196.093609 140.239678 
L 196.093609 104.883428 
L 157.493609 104.883428 
z
" clip-path="url(#p1fe73d4c17)" style="fill: #ffffff; stroke: #ffffff; stroke-linejoin: miter"/>
    </g>
    <g clip-path="url(#p1fe73d4c17)">
     <!-- $C_1$ -->
     <g style="fill: #ff0000" transform="translate(165.493609 128.080303) scale(0.2 -0.2)">
      <defs>
       <path id="Cmmi10-43" d="M 934 1381 
Q 934 997 1082 705 
Q 1231 413 1514 248 
Q 1797 84 2181 84 
Q 2584 84 2957 290 
Q 3331 497 3595 842 
Q 3859 1188 3956 1575 
Q 3969 1613 4006 1613 
L 4084 1613 
Q 4109 1613 4125 1595 
Q 4141 1578 4141 1556 
Q 4141 1550 4134 1538 
Q 4025 1094 3711 705 
Q 3397 316 2959 87 
Q 2522 -141 2059 -141 
Q 1559 -141 1162 84 
Q 766 309 545 709 
Q 325 1109 325 1613 
Q 325 2150 565 2676 
Q 806 3203 1212 3614 
Q 1619 4025 2139 4269 
Q 2659 4513 3194 4513 
Q 3406 4513 3600 4448 
Q 3794 4384 3959 4253 
Q 4125 4122 4231 3950 
L 4738 4500 
Q 4738 4513 4769 4513 
L 4806 4513 
Q 4831 4513 4847 4491 
Q 4863 4469 4863 4447 
L 4428 2719 
Q 4428 2675 4378 2675 
L 4263 2675 
Q 4213 2675 4213 2747 
Q 4238 2888 4238 3084 
Q 4238 3397 4131 3673 
Q 4025 3950 3801 4119 
Q 3578 4288 3256 4288 
Q 2734 4288 2300 4025 
Q 1866 3763 1564 3336 
Q 1263 2909 1098 2389 
Q 934 1869 934 1381 
z
" transform="scale(0.015625)"/>
       <path id="Cmr10-31" d="M 594 0 
L 594 225 
Q 1394 225 1394 428 
L 1394 3788 
Q 1063 3628 556 3628 
L 556 3853 
Q 1341 3853 1741 4263 
L 1831 4263 
Q 1853 4263 1873 4245 
Q 1894 4228 1894 4206 
L 1894 428 
Q 1894 225 2694 225 
L 2694 0 
L 594 0 
z
" transform="scale(0.015625)"/>
      </defs>
      <use xlink:href="#Cmmi10-43" transform="translate(0 0.484375)"/>
      <use xlink:href="#Cmr10-31" transform="translate(71.386719 -16.521875) scale(0.7)"/>
     </g>
    </g>
   </g>
   <g id="text_16">
    <g id="patch_8">
     <path d="M 191.594201 249.361572 
L 230.194201 249.361572 
L 230.194201 214.005322 
L 191.594201 214.005322 
z
" clip-path="url(#p1fe73d4c17)" style="fill: #ffffff; stroke: #ffffff; stroke-linejoin: miter"/>
    </g>
    <g clip-path="url(#p1fe73d4c17)">
     <!-- $C_2$ -->
     <g style="fill: #800080" transform="translate(199.594201 237.202197) scale(0.2 -0.2)">
      <defs>
       <path id="Cmr10-32" d="M 319 0 
L 319 172 
Q 319 188 331 206 
L 1325 1306 
Q 1550 1550 1690 1715 
Q 1831 1881 1968 2097 
Q 2106 2313 2186 2536 
Q 2266 2759 2266 3009 
Q 2266 3272 2169 3511 
Q 2072 3750 1880 3894 
Q 1688 4038 1416 4038 
Q 1138 4038 916 3870 
Q 694 3703 603 3438 
Q 628 3444 672 3444 
Q 816 3444 917 3347 
Q 1019 3250 1019 3097 
Q 1019 2950 917 2848 
Q 816 2747 672 2747 
Q 522 2747 420 2851 
Q 319 2956 319 3097 
Q 319 3338 409 3548 
Q 500 3759 670 3923 
Q 841 4088 1055 4175 
Q 1269 4263 1509 4263 
Q 1875 4263 2190 4108 
Q 2506 3953 2690 3670 
Q 2875 3388 2875 3009 
Q 2875 2731 2753 2481 
Q 2631 2231 2440 2026 
Q 2250 1822 1953 1562 
Q 1656 1303 1563 1216 
L 838 519 
L 1453 519 
Q 1906 519 2211 526 
Q 2516 534 2534 550 
Q 2609 631 2688 1141 
L 2875 1141 
L 2694 0 
L 319 0 
z
" transform="scale(0.015625)"/>
      </defs>
      <use xlink:href="#Cmmi10-43" transform="translate(0 0.484375)"/>
      <use xlink:href="#Cmr10-32" transform="translate(71.386719 -16.521875) scale(0.7)"/>
     </g>
    </g>
   </g>
  </g>
 </g>
 <defs>
  <clipPath id="p1fe73d4c17">
   <rect x="7.2" y="23.4425" width="307.36" height="307.36"/>
  </clipPath>
 </defs>
</svg>
