<?xml version="1.0" encoding="utf-8" standalone="no"?>
<!DOCTYPE svg PUBLIC "-//W3C//DTD SVG 1.1//EN"
  "http://www.w3.org/Graphics/SVG/1.1/DTD/svg11.dtd">
<svg xmlns:xlink="http://www.w3.org/1999/xlink" width="452.244624pt" height="337.038018pt" viewBox="0 0 452.244624 337.038018" xmlns="http://www.w3.org/2000/svg" version="1.1">
 <metadata>
  <rdf:RDF xmlns:dc="http://purl.org/dc/elements/1.1/" xmlns:cc="http://creativecommons.org/ns#" xmlns:rdf="http://www.w3.org/1999/02/22-rdf-syntax-ns#">
   <cc:Work>
    <dc:type rdf:resource="http://purl.org/dc/dcmitype/StillImage"/>
    <dc:date>2024-08-16T15:22:47.041445</dc:date>
    <dc:format>image/svg+xml</dc:format>
    <dc:creator>
     <cc:Agent>
      <dc:title>Matplotlib v3.8.0, https://matplotlib.org/</dc:title>
     </cc:Agent>
    </dc:creator>
   </cc:Work>
  </rdf:RDF>
 </metadata>
 <defs>
  <style type="text/css">*{stroke-linejoin: round; stroke-linecap: butt}</style>
 </defs>
 <g id="figure_1">
  <g id="patch_1">
   <path d="M 0 337.038018 
L 452.244624 337.038018 
L 452.244624 0 
L 0 0 
z
" style="fill: #ffffff"/>
  </g>
  <g id="axes_1">
   <g id="patch_2">
    <path d="M 11.251931 318.835577 
L 431.904624 318.835577 
L 431.904624 23.4425 
L 11.251931 23.4425 
z
" style="fill: #ffffff"/>
   </g>
   <g id="matplotlib.axis_1">
    <g id="xtick_1">
     <g id="line2d_1">
      <defs>
       <path id="m95972de2e2" d="M 0 0 
L 0 3.5 
" style="stroke: #000000; stroke-width: 0.8"/>
      </defs>
      <g>
       <use xlink:href="#m95972de2e2" x="19.341406" y="313.159893" style="stroke: #000000; stroke-width: 0.8"/>
      </g>
     </g>
     <g id="text_1">
      <!-- −1.0 -->
      <g transform="translate(7.2 327.758331) scale(0.1 -0.1)">
       <defs>
        <path id="DejaVuSans-2212" d="M 678 2272 
L 4684 2272 
L 4684 1741 
L 678 1741 
L 678 2272 
z
" transform="scale(0.015625)"/>
        <path id="DejaVuSans-31" d="M 794 531 
L 1825 531 
L 1825 4091 
L 703 3866 
L 703 4441 
L 1819 4666 
L 2450 4666 
L 2450 531 
L 3481 531 
L 3481 0 
L 794 0 
L 794 531 
z
" transform="scale(0.015625)"/>
        <path id="DejaVuSans-2e" d="M 684 794 
L 1344 794 
L 1344 0 
L 684 0 
L 684 794 
z
" transform="scale(0.015625)"/>
        <path id="DejaVuSans-30" d="M 2034 4250 
Q 1547 4250 1301 3770 
Q 1056 3291 1056 2328 
Q 1056 1369 1301 889 
Q 1547 409 2034 409 
Q 2525 409 2770 889 
Q 3016 1369 3016 2328 
Q 3016 3291 2770 3770 
Q 2525 4250 2034 4250 
z
M 2034 4750 
Q 2819 4750 3233 4129 
Q 3647 3509 3647 2328 
Q 3647 1150 3233 529 
Q 2819 -91 2034 -91 
Q 1250 -91 836 529 
Q 422 1150 422 2328 
Q 422 3509 836 4129 
Q 1250 4750 2034 4750 
z
" transform="scale(0.015625)"/>
       </defs>
       <use xlink:href="#DejaVuSans-2212"/>
       <use xlink:href="#DejaVuSans-31" x="83.789062"/>
       <use xlink:href="#DejaVuSans-2e" x="147.412109"/>
       <use xlink:href="#DejaVuSans-30" x="179.199219"/>
      </g>
     </g>
    </g>
    <g id="xtick_2">
     <g id="line2d_2">
      <g>
       <use xlink:href="#m95972de2e2" x="86.753697" y="313.159893" style="stroke: #000000; stroke-width: 0.8"/>
      </g>
     </g>
     <g id="text_2">
      <!-- −0.5 -->
      <g transform="translate(74.61229 327.758331) scale(0.1 -0.1)">
       <defs>
        <path id="DejaVuSans-35" d="M 691 4666 
L 3169 4666 
L 3169 4134 
L 1269 4134 
L 1269 2991 
Q 1406 3038 1543 3061 
Q 1681 3084 1819 3084 
Q 2600 3084 3056 2656 
Q 3513 2228 3513 1497 
Q 3513 744 3044 326 
Q 2575 -91 1722 -91 
Q 1428 -91 1123 -41 
Q 819 9 494 109 
L 494 744 
Q 775 591 1075 516 
Q 1375 441 1709 441 
Q 2250 441 2565 725 
Q 2881 1009 2881 1497 
Q 2881 1984 2565 2268 
Q 2250 2553 1709 2553 
Q 1456 2553 1204 2497 
Q 953 2441 691 2322 
L 691 4666 
z
" transform="scale(0.015625)"/>
       </defs>
       <use xlink:href="#DejaVuSans-2212"/>
       <use xlink:href="#DejaVuSans-30" x="83.789062"/>
       <use xlink:href="#DejaVuSans-2e" x="147.412109"/>
       <use xlink:href="#DejaVuSans-35" x="179.199219"/>
      </g>
     </g>
    </g>
    <g id="xtick_3">
     <g id="line2d_3">
      <g>
       <use xlink:href="#m95972de2e2" x="154.165987" y="313.159893" style="stroke: #000000; stroke-width: 0.8"/>
      </g>
     </g>
    </g>
    <g id="xtick_4">
     <g id="line2d_4">
      <g>
       <use xlink:href="#m95972de2e2" x="221.578278" y="313.159893" style="stroke: #000000; stroke-width: 0.8"/>
      </g>
     </g>
     <g id="text_3">
      <!-- 0.5 -->
      <g transform="translate(213.626715 327.758331) scale(0.1 -0.1)">
       <use xlink:href="#DejaVuSans-30"/>
       <use xlink:href="#DejaVuSans-2e" x="63.623047"/>
       <use xlink:href="#DejaVuSans-35" x="95.410156"/>
      </g>
     </g>
    </g>
    <g id="xtick_5">
     <g id="line2d_5">
      <g>
       <use xlink:href="#m95972de2e2" x="288.990568" y="313.159893" style="stroke: #000000; stroke-width: 0.8"/>
      </g>
     </g>
     <g id="text_4">
      <!-- 1.0 -->
      <g transform="translate(281.039005 327.758331) scale(0.1 -0.1)">
       <use xlink:href="#DejaVuSans-31"/>
       <use xlink:href="#DejaVuSans-2e" x="63.623047"/>
       <use xlink:href="#DejaVuSans-30" x="95.410156"/>
      </g>
     </g>
    </g>
    <g id="xtick_6">
     <g id="line2d_6">
      <g>
       <use xlink:href="#m95972de2e2" x="356.402858" y="313.159893" style="stroke: #000000; stroke-width: 0.8"/>
      </g>
     </g>
     <g id="text_5">
      <!-- 1.5 -->
      <g transform="translate(348.451296 327.758331) scale(0.1 -0.1)">
       <use xlink:href="#DejaVuSans-31"/>
       <use xlink:href="#DejaVuSans-2e" x="63.623047"/>
       <use xlink:href="#DejaVuSans-35" x="95.410156"/>
      </g>
     </g>
    </g>
    <g id="xtick_7">
     <g id="line2d_7">
      <g>
       <use xlink:href="#m95972de2e2" x="423.815149" y="313.159893" style="stroke: #000000; stroke-width: 0.8"/>
      </g>
     </g>
     <g id="text_6">
      <!-- 2.0 -->
      <g transform="translate(415.863586 327.758331) scale(0.1 -0.1)">
       <defs>
        <path id="DejaVuSans-32" d="M 1228 531 
L 3431 531 
L 3431 0 
L 469 0 
L 469 531 
Q 828 903 1448 1529 
Q 2069 2156 2228 2338 
Q 2531 2678 2651 2914 
Q 2772 3150 2772 3378 
Q 2772 3750 2511 3984 
Q 2250 4219 1831 4219 
Q 1534 4219 1204 4116 
Q 875 4013 500 3803 
L 500 4441 
Q 881 4594 1212 4672 
Q 1544 4750 1819 4750 
Q 2544 4750 2975 4387 
Q 3406 4025 3406 3419 
Q 3406 3131 3298 2873 
Q 3191 2616 2906 2266 
Q 2828 2175 2409 1742 
Q 1991 1309 1228 531 
z
" transform="scale(0.015625)"/>
       </defs>
       <use xlink:href="#DejaVuSans-32"/>
       <use xlink:href="#DejaVuSans-2e" x="63.623047"/>
       <use xlink:href="#DejaVuSans-30" x="95.410156"/>
      </g>
     </g>
    </g>
    <g id="xtick_8">
     <g id="line2d_8">
      <defs>
       <path id="mda3b01c87f" d="M 0 0 
L 0 2 
" style="stroke: #000000; stroke-width: 0.6"/>
      </defs>
      <g>
       <use xlink:href="#mda3b01c87f" x="32.823864" y="313.159893" style="stroke: #000000; stroke-width: 0.6"/>
      </g>
     </g>
    </g>
    <g id="xtick_9">
     <g id="line2d_9">
      <g>
       <use xlink:href="#mda3b01c87f" x="46.306322" y="313.159893" style="stroke: #000000; stroke-width: 0.6"/>
      </g>
     </g>
    </g>
    <g id="xtick_10">
     <g id="line2d_10">
      <g>
       <use xlink:href="#mda3b01c87f" x="59.788781" y="313.159893" style="stroke: #000000; stroke-width: 0.6"/>
      </g>
     </g>
    </g>
    <g id="xtick_11">
     <g id="line2d_11">
      <g>
       <use xlink:href="#mda3b01c87f" x="73.271239" y="313.159893" style="stroke: #000000; stroke-width: 0.6"/>
      </g>
     </g>
    </g>
    <g id="xtick_12">
     <g id="line2d_12">
      <g>
       <use xlink:href="#mda3b01c87f" x="100.236155" y="313.159893" style="stroke: #000000; stroke-width: 0.6"/>
      </g>
     </g>
    </g>
    <g id="xtick_13">
     <g id="line2d_13">
      <g>
       <use xlink:href="#mda3b01c87f" x="113.718613" y="313.159893" style="stroke: #000000; stroke-width: 0.6"/>
      </g>
     </g>
    </g>
    <g id="xtick_14">
     <g id="line2d_14">
      <g>
       <use xlink:href="#mda3b01c87f" x="127.201071" y="313.159893" style="stroke: #000000; stroke-width: 0.6"/>
      </g>
     </g>
    </g>
    <g id="xtick_15">
     <g id="line2d_15">
      <g>
       <use xlink:href="#mda3b01c87f" x="140.683529" y="313.159893" style="stroke: #000000; stroke-width: 0.6"/>
      </g>
     </g>
    </g>
    <g id="xtick_16">
     <g id="line2d_16">
      <g>
       <use xlink:href="#mda3b01c87f" x="167.648445" y="313.159893" style="stroke: #000000; stroke-width: 0.6"/>
      </g>
     </g>
    </g>
    <g id="xtick_17">
     <g id="line2d_17">
      <g>
       <use xlink:href="#mda3b01c87f" x="181.130903" y="313.159893" style="stroke: #000000; stroke-width: 0.6"/>
      </g>
     </g>
    </g>
    <g id="xtick_18">
     <g id="line2d_18">
      <g>
       <use xlink:href="#mda3b01c87f" x="194.613361" y="313.159893" style="stroke: #000000; stroke-width: 0.6"/>
      </g>
     </g>
    </g>
    <g id="xtick_19">
     <g id="line2d_19">
      <g>
       <use xlink:href="#mda3b01c87f" x="208.095819" y="313.159893" style="stroke: #000000; stroke-width: 0.6"/>
      </g>
     </g>
    </g>
    <g id="xtick_20">
     <g id="line2d_20">
      <g>
       <use xlink:href="#mda3b01c87f" x="235.060736" y="313.159893" style="stroke: #000000; stroke-width: 0.6"/>
      </g>
     </g>
    </g>
    <g id="xtick_21">
     <g id="line2d_21">
      <g>
       <use xlink:href="#mda3b01c87f" x="248.543194" y="313.159893" style="stroke: #000000; stroke-width: 0.6"/>
      </g>
     </g>
    </g>
    <g id="xtick_22">
     <g id="line2d_22">
      <g>
       <use xlink:href="#mda3b01c87f" x="262.025652" y="313.159893" style="stroke: #000000; stroke-width: 0.6"/>
      </g>
     </g>
    </g>
    <g id="xtick_23">
     <g id="line2d_23">
      <g>
       <use xlink:href="#mda3b01c87f" x="275.50811" y="313.159893" style="stroke: #000000; stroke-width: 0.6"/>
      </g>
     </g>
    </g>
    <g id="xtick_24">
     <g id="line2d_24">
      <g>
       <use xlink:href="#mda3b01c87f" x="302.473026" y="313.159893" style="stroke: #000000; stroke-width: 0.6"/>
      </g>
     </g>
    </g>
    <g id="xtick_25">
     <g id="line2d_25">
      <g>
       <use xlink:href="#mda3b01c87f" x="315.955484" y="313.159893" style="stroke: #000000; stroke-width: 0.6"/>
      </g>
     </g>
    </g>
    <g id="xtick_26">
     <g id="line2d_26">
      <g>
       <use xlink:href="#mda3b01c87f" x="329.437942" y="313.159893" style="stroke: #000000; stroke-width: 0.6"/>
      </g>
     </g>
    </g>
    <g id="xtick_27">
     <g id="line2d_27">
      <g>
       <use xlink:href="#mda3b01c87f" x="342.9204" y="313.159893" style="stroke: #000000; stroke-width: 0.6"/>
      </g>
     </g>
    </g>
    <g id="xtick_28">
     <g id="line2d_28">
      <g>
       <use xlink:href="#mda3b01c87f" x="369.885317" y="313.159893" style="stroke: #000000; stroke-width: 0.6"/>
      </g>
     </g>
    </g>
    <g id="xtick_29">
     <g id="line2d_29">
      <g>
       <use xlink:href="#mda3b01c87f" x="383.367775" y="313.159893" style="stroke: #000000; stroke-width: 0.6"/>
      </g>
     </g>
    </g>
    <g id="xtick_30">
     <g id="line2d_30">
      <g>
       <use xlink:href="#mda3b01c87f" x="396.850233" y="313.159893" style="stroke: #000000; stroke-width: 0.6"/>
      </g>
     </g>
    </g>
    <g id="xtick_31">
     <g id="line2d_31">
      <g>
       <use xlink:href="#mda3b01c87f" x="410.332691" y="313.159893" style="stroke: #000000; stroke-width: 0.6"/>
      </g>
     </g>
    </g>
    <g id="text_7">
     <!-- $x$ -->
     <g transform="translate(439.904624 313.159893) scale(0.16 -0.16)">
      <defs>
       <path id="Cmmi10-78" d="M 500 184 
Q 613 97 819 97 
Q 1019 97 1172 289 
Q 1325 481 1381 709 
L 1672 1844 
Q 1741 2153 1741 2266 
Q 1741 2425 1652 2544 
Q 1563 2663 1403 2663 
Q 1200 2663 1022 2536 
Q 844 2409 722 2214 
Q 600 2019 550 1819 
Q 538 1778 500 1778 
L 422 1778 
Q 372 1778 372 1838 
L 372 1856 
Q 434 2094 584 2320 
Q 734 2547 951 2687 
Q 1169 2828 1416 2828 
Q 1650 2828 1839 2703 
Q 2028 2578 2106 2363 
Q 2216 2559 2386 2693 
Q 2556 2828 2759 2828 
Q 2897 2828 3040 2779 
Q 3184 2731 3275 2631 
Q 3366 2531 3366 2381 
Q 3366 2219 3261 2101 
Q 3156 1984 2994 1984 
Q 2891 1984 2822 2050 
Q 2753 2116 2753 2216 
Q 2753 2350 2845 2451 
Q 2938 2553 3066 2572 
Q 2950 2663 2747 2663 
Q 2541 2663 2389 2472 
Q 2238 2281 2175 2047 
L 1894 916 
Q 1825 659 1825 494 
Q 1825 331 1917 214 
Q 2009 97 2163 97 
Q 2463 97 2698 361 
Q 2934 625 3009 941 
Q 3022 978 3059 978 
L 3138 978 
Q 3163 978 3178 961 
Q 3194 944 3194 922 
Q 3194 916 3188 903 
Q 3097 522 2806 225 
Q 2516 -72 2150 -72 
Q 1916 -72 1727 54 
Q 1538 181 1459 397 
Q 1359 209 1182 68 
Q 1006 -72 806 -72 
Q 669 -72 523 -23 
Q 378 25 287 125 
Q 197 225 197 378 
Q 197 528 301 651 
Q 406 775 563 775 
Q 669 775 741 711 
Q 813 647 813 544 
Q 813 409 723 309 
Q 634 209 500 184 
z
" transform="scale(0.015625)"/>
      </defs>
      <use xlink:href="#Cmmi10-78" transform="translate(0 0.8125)"/>
     </g>
    </g>
   </g>
   <g id="matplotlib.axis_2">
    <g id="ytick_1">
     <g id="line2d_32">
      <defs>
       <path id="m301a4fe6e3" d="M 0 0 
L -3.5 0 
" style="stroke: #000000; stroke-width: 0.8"/>
      </defs>
      <g>
       <use xlink:href="#m301a4fe6e3" x="154.165987" y="313.159893" style="stroke: #000000; stroke-width: 0.8"/>
      </g>
     </g>
    </g>
    <g id="ytick_2">
     <g id="line2d_33">
      <g>
       <use xlink:href="#m301a4fe6e3" x="154.165987" y="277.655299" style="stroke: #000000; stroke-width: 0.8"/>
      </g>
     </g>
     <g id="text_8">
      <!-- 0.5 -->
      <g transform="translate(131.262862 281.454517) scale(0.1 -0.1)">
       <use xlink:href="#DejaVuSans-30"/>
       <use xlink:href="#DejaVuSans-2e" x="63.623047"/>
       <use xlink:href="#DejaVuSans-35" x="95.410156"/>
      </g>
     </g>
    </g>
    <g id="ytick_3">
     <g id="line2d_34">
      <g>
       <use xlink:href="#m301a4fe6e3" x="154.165987" y="242.150704" style="stroke: #000000; stroke-width: 0.8"/>
      </g>
     </g>
     <g id="text_9">
      <!-- 1.0 -->
      <g transform="translate(131.262862 245.949923) scale(0.1 -0.1)">
       <use xlink:href="#DejaVuSans-31"/>
       <use xlink:href="#DejaVuSans-2e" x="63.623047"/>
       <use xlink:href="#DejaVuSans-30" x="95.410156"/>
      </g>
     </g>
    </g>
    <g id="ytick_4">
     <g id="line2d_35">
      <g>
       <use xlink:href="#m301a4fe6e3" x="154.165987" y="206.646109" style="stroke: #000000; stroke-width: 0.8"/>
      </g>
     </g>
     <g id="text_10">
      <!-- 1.5 -->
      <g transform="translate(131.262862 210.445328) scale(0.1 -0.1)">
       <use xlink:href="#DejaVuSans-31"/>
       <use xlink:href="#DejaVuSans-2e" x="63.623047"/>
       <use xlink:href="#DejaVuSans-35" x="95.410156"/>
      </g>
     </g>
    </g>
    <g id="ytick_5">
     <g id="line2d_36">
      <g>
       <use xlink:href="#m301a4fe6e3" x="154.165987" y="171.141515" style="stroke: #000000; stroke-width: 0.8"/>
      </g>
     </g>
     <g id="text_11">
      <!-- 2.0 -->
      <g transform="translate(131.262862 174.940733) scale(0.1 -0.1)">
       <use xlink:href="#DejaVuSans-32"/>
       <use xlink:href="#DejaVuSans-2e" x="63.623047"/>
       <use xlink:href="#DejaVuSans-30" x="95.410156"/>
      </g>
     </g>
    </g>
    <g id="ytick_6">
     <g id="line2d_37">
      <g>
       <use xlink:href="#m301a4fe6e3" x="154.165987" y="135.63692" style="stroke: #000000; stroke-width: 0.8"/>
      </g>
     </g>
     <g id="text_12">
      <!-- 2.5 -->
      <g transform="translate(131.262862 139.436139) scale(0.1 -0.1)">
       <use xlink:href="#DejaVuSans-32"/>
       <use xlink:href="#DejaVuSans-2e" x="63.623047"/>
       <use xlink:href="#DejaVuSans-35" x="95.410156"/>
      </g>
     </g>
    </g>
    <g id="ytick_7">
     <g id="line2d_38">
      <g>
       <use xlink:href="#m301a4fe6e3" x="154.165987" y="100.132325" style="stroke: #000000; stroke-width: 0.8"/>
      </g>
     </g>
     <g id="text_13">
      <!-- 3.0 -->
      <g transform="translate(131.262862 103.931544) scale(0.1 -0.1)">
       <defs>
        <path id="DejaVuSans-33" d="M 2597 2516 
Q 3050 2419 3304 2112 
Q 3559 1806 3559 1356 
Q 3559 666 3084 287 
Q 2609 -91 1734 -91 
Q 1441 -91 1130 -33 
Q 819 25 488 141 
L 488 750 
Q 750 597 1062 519 
Q 1375 441 1716 441 
Q 2309 441 2620 675 
Q 2931 909 2931 1356 
Q 2931 1769 2642 2001 
Q 2353 2234 1838 2234 
L 1294 2234 
L 1294 2753 
L 1863 2753 
Q 2328 2753 2575 2939 
Q 2822 3125 2822 3475 
Q 2822 3834 2567 4026 
Q 2313 4219 1838 4219 
Q 1578 4219 1281 4162 
Q 984 4106 628 3988 
L 628 4550 
Q 988 4650 1302 4700 
Q 1616 4750 1894 4750 
Q 2613 4750 3031 4423 
Q 3450 4097 3450 3541 
Q 3450 3153 3228 2886 
Q 3006 2619 2597 2516 
z
" transform="scale(0.015625)"/>
       </defs>
       <use xlink:href="#DejaVuSans-33"/>
       <use xlink:href="#DejaVuSans-2e" x="63.623047"/>
       <use xlink:href="#DejaVuSans-30" x="95.410156"/>
      </g>
     </g>
    </g>
    <g id="ytick_8">
     <g id="line2d_39">
      <g>
       <use xlink:href="#m301a4fe6e3" x="154.165987" y="64.627731" style="stroke: #000000; stroke-width: 0.8"/>
      </g>
     </g>
     <g id="text_14">
      <!-- 3.5 -->
      <g transform="translate(131.262862 68.426949) scale(0.1 -0.1)">
       <use xlink:href="#DejaVuSans-33"/>
       <use xlink:href="#DejaVuSans-2e" x="63.623047"/>
       <use xlink:href="#DejaVuSans-35" x="95.410156"/>
      </g>
     </g>
    </g>
    <g id="ytick_9">
     <g id="line2d_40">
      <g>
       <use xlink:href="#m301a4fe6e3" x="154.165987" y="29.123136" style="stroke: #000000; stroke-width: 0.8"/>
      </g>
     </g>
     <g id="text_15">
      <!-- 4.0 -->
      <g transform="translate(131.262862 32.922355) scale(0.1 -0.1)">
       <defs>
        <path id="DejaVuSans-34" d="M 2419 4116 
L 825 1625 
L 2419 1625 
L 2419 4116 
z
M 2253 4666 
L 3047 4666 
L 3047 1625 
L 3713 1625 
L 3713 1100 
L 3047 1100 
L 3047 0 
L 2419 0 
L 2419 1100 
L 313 1100 
L 313 1709 
L 2253 4666 
z
" transform="scale(0.015625)"/>
       </defs>
       <use xlink:href="#DejaVuSans-34"/>
       <use xlink:href="#DejaVuSans-2e" x="63.623047"/>
       <use xlink:href="#DejaVuSans-30" x="95.410156"/>
      </g>
     </g>
    </g>
    <g id="ytick_10">
     <g id="line2d_41">
      <defs>
       <path id="m3a0c74acaa" d="M 0 0 
L -2 0 
" style="stroke: #000000; stroke-width: 0.6"/>
      </defs>
      <g>
       <use xlink:href="#m3a0c74acaa" x="154.165987" y="306.058974" style="stroke: #000000; stroke-width: 0.6"/>
      </g>
     </g>
    </g>
    <g id="ytick_11">
     <g id="line2d_42">
      <g>
       <use xlink:href="#m3a0c74acaa" x="154.165987" y="298.958055" style="stroke: #000000; stroke-width: 0.6"/>
      </g>
     </g>
    </g>
    <g id="ytick_12">
     <g id="line2d_43">
      <g>
       <use xlink:href="#m3a0c74acaa" x="154.165987" y="291.857136" style="stroke: #000000; stroke-width: 0.6"/>
      </g>
     </g>
    </g>
    <g id="ytick_13">
     <g id="line2d_44">
      <g>
       <use xlink:href="#m3a0c74acaa" x="154.165987" y="284.756218" style="stroke: #000000; stroke-width: 0.6"/>
      </g>
     </g>
    </g>
    <g id="ytick_14">
     <g id="line2d_45">
      <g>
       <use xlink:href="#m3a0c74acaa" x="154.165987" y="270.55438" style="stroke: #000000; stroke-width: 0.6"/>
      </g>
     </g>
    </g>
    <g id="ytick_15">
     <g id="line2d_46">
      <g>
       <use xlink:href="#m3a0c74acaa" x="154.165987" y="263.453461" style="stroke: #000000; stroke-width: 0.6"/>
      </g>
     </g>
    </g>
    <g id="ytick_16">
     <g id="line2d_47">
      <g>
       <use xlink:href="#m3a0c74acaa" x="154.165987" y="256.352542" style="stroke: #000000; stroke-width: 0.6"/>
      </g>
     </g>
    </g>
    <g id="ytick_17">
     <g id="line2d_48">
      <g>
       <use xlink:href="#m3a0c74acaa" x="154.165987" y="249.251623" style="stroke: #000000; stroke-width: 0.6"/>
      </g>
     </g>
    </g>
    <g id="ytick_18">
     <g id="line2d_49">
      <g>
       <use xlink:href="#m3a0c74acaa" x="154.165987" y="235.049785" style="stroke: #000000; stroke-width: 0.6"/>
      </g>
     </g>
    </g>
    <g id="ytick_19">
     <g id="line2d_50">
      <g>
       <use xlink:href="#m3a0c74acaa" x="154.165987" y="227.948866" style="stroke: #000000; stroke-width: 0.6"/>
      </g>
     </g>
    </g>
    <g id="ytick_20">
     <g id="line2d_51">
      <g>
       <use xlink:href="#m3a0c74acaa" x="154.165987" y="220.847947" style="stroke: #000000; stroke-width: 0.6"/>
      </g>
     </g>
    </g>
    <g id="ytick_21">
     <g id="line2d_52">
      <g>
       <use xlink:href="#m3a0c74acaa" x="154.165987" y="213.747028" style="stroke: #000000; stroke-width: 0.6"/>
      </g>
     </g>
    </g>
    <g id="ytick_22">
     <g id="line2d_53">
      <g>
       <use xlink:href="#m3a0c74acaa" x="154.165987" y="199.54519" style="stroke: #000000; stroke-width: 0.6"/>
      </g>
     </g>
    </g>
    <g id="ytick_23">
     <g id="line2d_54">
      <g>
       <use xlink:href="#m3a0c74acaa" x="154.165987" y="192.444271" style="stroke: #000000; stroke-width: 0.6"/>
      </g>
     </g>
    </g>
    <g id="ytick_24">
     <g id="line2d_55">
      <g>
       <use xlink:href="#m3a0c74acaa" x="154.165987" y="185.343353" style="stroke: #000000; stroke-width: 0.6"/>
      </g>
     </g>
    </g>
    <g id="ytick_25">
     <g id="line2d_56">
      <g>
       <use xlink:href="#m3a0c74acaa" x="154.165987" y="178.242434" style="stroke: #000000; stroke-width: 0.6"/>
      </g>
     </g>
    </g>
    <g id="ytick_26">
     <g id="line2d_57">
      <g>
       <use xlink:href="#m3a0c74acaa" x="154.165987" y="164.040596" style="stroke: #000000; stroke-width: 0.6"/>
      </g>
     </g>
    </g>
    <g id="ytick_27">
     <g id="line2d_58">
      <g>
       <use xlink:href="#m3a0c74acaa" x="154.165987" y="156.939677" style="stroke: #000000; stroke-width: 0.6"/>
      </g>
     </g>
    </g>
    <g id="ytick_28">
     <g id="line2d_59">
      <g>
       <use xlink:href="#m3a0c74acaa" x="154.165987" y="149.838758" style="stroke: #000000; stroke-width: 0.6"/>
      </g>
     </g>
    </g>
    <g id="ytick_29">
     <g id="line2d_60">
      <g>
       <use xlink:href="#m3a0c74acaa" x="154.165987" y="142.737839" style="stroke: #000000; stroke-width: 0.6"/>
      </g>
     </g>
    </g>
    <g id="ytick_30">
     <g id="line2d_61">
      <g>
       <use xlink:href="#m3a0c74acaa" x="154.165987" y="128.536001" style="stroke: #000000; stroke-width: 0.6"/>
      </g>
     </g>
    </g>
    <g id="ytick_31">
     <g id="line2d_62">
      <g>
       <use xlink:href="#m3a0c74acaa" x="154.165987" y="121.435082" style="stroke: #000000; stroke-width: 0.6"/>
      </g>
     </g>
    </g>
    <g id="ytick_32">
     <g id="line2d_63">
      <g>
       <use xlink:href="#m3a0c74acaa" x="154.165987" y="114.334163" style="stroke: #000000; stroke-width: 0.6"/>
      </g>
     </g>
    </g>
    <g id="ytick_33">
     <g id="line2d_64">
      <g>
       <use xlink:href="#m3a0c74acaa" x="154.165987" y="107.233244" style="stroke: #000000; stroke-width: 0.6"/>
      </g>
     </g>
    </g>
    <g id="ytick_34">
     <g id="line2d_65">
      <g>
       <use xlink:href="#m3a0c74acaa" x="154.165987" y="93.031406" style="stroke: #000000; stroke-width: 0.6"/>
      </g>
     </g>
    </g>
    <g id="ytick_35">
     <g id="line2d_66">
      <g>
       <use xlink:href="#m3a0c74acaa" x="154.165987" y="85.930488" style="stroke: #000000; stroke-width: 0.6"/>
      </g>
     </g>
    </g>
    <g id="ytick_36">
     <g id="line2d_67">
      <g>
       <use xlink:href="#m3a0c74acaa" x="154.165987" y="78.829569" style="stroke: #000000; stroke-width: 0.6"/>
      </g>
     </g>
    </g>
    <g id="ytick_37">
     <g id="line2d_68">
      <g>
       <use xlink:href="#m3a0c74acaa" x="154.165987" y="71.72865" style="stroke: #000000; stroke-width: 0.6"/>
      </g>
     </g>
    </g>
    <g id="ytick_38">
     <g id="line2d_69">
      <g>
       <use xlink:href="#m3a0c74acaa" x="154.165987" y="57.526812" style="stroke: #000000; stroke-width: 0.6"/>
      </g>
     </g>
    </g>
    <g id="ytick_39">
     <g id="line2d_70">
      <g>
       <use xlink:href="#m3a0c74acaa" x="154.165987" y="50.425893" style="stroke: #000000; stroke-width: 0.6"/>
      </g>
     </g>
    </g>
    <g id="ytick_40">
     <g id="line2d_71">
      <g>
       <use xlink:href="#m3a0c74acaa" x="154.165987" y="43.324974" style="stroke: #000000; stroke-width: 0.6"/>
      </g>
     </g>
    </g>
    <g id="ytick_41">
     <g id="line2d_72">
      <g>
       <use xlink:href="#m3a0c74acaa" x="154.165987" y="36.224055" style="stroke: #000000; stroke-width: 0.6"/>
      </g>
     </g>
    </g>
    <g id="text_16">
     <!-- $y$ -->
     <g transform="translate(150.165987 12.0825) scale(0.16 -0.16)">
      <defs>
       <path id="Cmmi10-79" d="M 538 -916 
Q 672 -1147 1006 -1147 
Q 1309 -1147 1531 -934 
Q 1753 -722 1889 -420 
Q 2025 -119 2100 197 
Q 1816 -72 1484 -72 
Q 1231 -72 1053 15 
Q 875 103 776 276 
Q 678 450 678 697 
Q 678 906 734 1126 
Q 791 1347 892 1617 
Q 994 1888 1069 2088 
Q 1153 2322 1153 2472 
Q 1153 2663 1013 2663 
Q 759 2663 595 2402 
Q 431 2141 353 1819 
Q 341 1778 300 1778 
L 225 1778 
Q 172 1778 172 1838 
L 172 1856 
Q 275 2238 487 2533 
Q 700 2828 1025 2828 
Q 1253 2828 1411 2678 
Q 1569 2528 1569 2297 
Q 1569 2178 1516 2047 
Q 1488 1969 1388 1706 
Q 1288 1444 1234 1272 
Q 1181 1100 1147 934 
Q 1113 769 1113 603 
Q 1113 391 1203 244 
Q 1294 97 1491 97 
Q 1888 97 2203 581 
L 2688 2553 
Q 2709 2638 2787 2698 
Q 2866 2759 2956 2759 
Q 3034 2759 3092 2709 
Q 3150 2659 3150 2578 
Q 3150 2541 3144 2528 
L 2509 -19 
Q 2425 -347 2200 -647 
Q 1975 -947 1658 -1130 
Q 1341 -1313 997 -1313 
Q 831 -1313 668 -1248 
Q 506 -1184 406 -1056 
Q 306 -928 306 -756 
Q 306 -581 409 -453 
Q 513 -325 684 -325 
Q 788 -325 858 -389 
Q 928 -453 928 -556 
Q 928 -703 818 -812 
Q 709 -922 563 -922 
Q 556 -919 550 -917 
Q 544 -916 538 -916 
z
" transform="scale(0.015625)"/>
      </defs>
      <use xlink:href="#Cmmi10-79" transform="translate(0 0.8125)"/>
     </g>
    </g>
   </g>
   <g id="line2d_73">
    <path d="M 19.341406 242.150704 
L 26.243708 249.235182 
L 31.847256 254.712879 
L 39.229162 261.554536 
L 46.389838 267.784362 
L 52.858486 273.06772 
L 57.951211 276.997269 
L 64.911037 282.03979 
L 70.405412 285.75326 
L 76.181546 289.402854 
L 83.07085 293.414937 
L 88.051425 296.084503 
L 93.974764 299.007081 
L 100.290908 301.821481 
L 106.376338 304.238266 
L 110.037135 305.552749 
L 115.975817 307.462456 
L 122.081144 309.138503 
L 128.353823 310.557187 
L 133.554609 311.500343 
L 139.076243 312.270405 
L 145.565867 312.870968 
L 149.904563 313.088954 
L 155.915979 313.14793 
L 160.518741 313.002241 
L 165.661541 312.643672 
L 171.677749 311.96195 
L 178.412494 310.863349 
L 181.737408 310.190316 
L 187.568672 308.801372 
L 193.323882 307.170055 
L 199.421792 305.159248 
L 205.92645 302.694087 
L 213.318487 299.491338 
L 218.148631 297.167968 
L 224.989271 293.565649 
L 230.071046 290.652882 
L 237.457798 286.059162 
L 242.310974 282.808989 
L 249.081541 277.967308 
L 255.079269 273.379135 
L 262.278939 267.50032 
L 268.920599 261.71803 
L 275.522528 255.628781 
L 281.867705 249.455428 
L 288.724417 242.430779 
L 295.057095 235.61672 
L 301.574011 228.277298 
L 308.788937 219.764747 
L 316.134397 210.680385 
L 323.840752 200.69657 
L 330.938778 191.090375 
L 338.098659 181.00168 
L 344.024086 172.349519 
L 351.412347 161.177111 
L 357.902798 151.010471 
L 364.834133 139.789817 
L 371.727823 128.257801 
L 378.486754 116.590744 
L 386.124206 102.977696 
L 394.377975 87.753748 
L 401.192877 74.782614 
L 409.412644 58.654775 
L 417.8202 41.612382 
L 423.815149 29.123136 
L 423.815149 29.123136 
" clip-path="url(#pcf9da2fa1b)" style="fill: none; stroke: #1e88e5; stroke-width: 2; stroke-linecap: square"/>
   </g>
   <g id="patch_3">
    <path d="M 154.165987 318.835577 
L 154.165987 23.4425 
" style="fill: none; stroke: #000000; stroke-width: 0.8; stroke-linejoin: miter; stroke-linecap: square"/>
   </g>
   <g id="patch_4">
    <path d="M 11.251931 313.159893 
L 431.904624 313.159893 
" style="fill: none; stroke: #000000; stroke-width: 0.8; stroke-linejoin: miter; stroke-linecap: square"/>
   </g>
   <g id="text_17">
    <!-- $C$ -->
    <g style="fill: #1e88e5" transform="translate(349.202858 247.669454) scale(0.2 -0.2)">
     <defs>
      <path id="Cmmi10-43" d="M 934 1381 
Q 934 997 1082 705 
Q 1231 413 1514 248 
Q 1797 84 2181 84 
Q 2584 84 2957 290 
Q 3331 497 3595 842 
Q 3859 1188 3956 1575 
Q 3969 1613 4006 1613 
L 4084 1613 
Q 4109 1613 4125 1595 
Q 4141 1578 4141 1556 
Q 4141 1550 4134 1538 
Q 4025 1094 3711 705 
Q 3397 316 2959 87 
Q 2522 -141 2059 -141 
Q 1559 -141 1162 84 
Q 766 309 545 709 
Q 325 1109 325 1613 
Q 325 2150 565 2676 
Q 806 3203 1212 3614 
Q 1619 4025 2139 4269 
Q 2659 4513 3194 4513 
Q 3406 4513 3600 4448 
Q 3794 4384 3959 4253 
Q 4125 4122 4231 3950 
L 4738 4500 
Q 4738 4513 4769 4513 
L 4806 4513 
Q 4831 4513 4847 4491 
Q 4863 4469 4863 4447 
L 4428 2719 
Q 4428 2675 4378 2675 
L 4263 2675 
Q 4213 2675 4213 2747 
Q 4238 2888 4238 3084 
Q 4238 3397 4131 3673 
Q 4025 3950 3801 4119 
Q 3578 4288 3256 4288 
Q 2734 4288 2300 4025 
Q 1866 3763 1564 3336 
Q 1263 2909 1098 2389 
Q 934 1869 934 1381 
z
" transform="scale(0.015625)"/>
     </defs>
     <use xlink:href="#Cmmi10-43" transform="translate(0 0.484375)"/>
    </g>
   </g>
  </g>
 </g>
 <defs>
  <clipPath id="pcf9da2fa1b">
   <rect x="11.251931" y="23.4425" width="420.652692" height="295.393077"/>
  </clipPath>
 </defs>
</svg>
