<?xml version="1.0" encoding="utf-8" standalone="no"?>
<!DOCTYPE svg PUBLIC "-//W3C//DTD SVG 1.1//EN"
  "http://www.w3.org/Graphics/SVG/1.1/DTD/svg11.dtd">
<svg xmlns:xlink="http://www.w3.org/1999/xlink" width="334.9pt" height="338.0025pt" viewBox="0 0 334.9 338.0025" xmlns="http://www.w3.org/2000/svg" version="1.1">
 <metadata>
  <rdf:RDF xmlns:dc="http://purl.org/dc/elements/1.1/" xmlns:cc="http://creativecommons.org/ns#" xmlns:rdf="http://www.w3.org/1999/02/22-rdf-syntax-ns#">
   <cc:Work>
    <dc:type rdf:resource="http://purl.org/dc/dcmitype/StillImage"/>
    <dc:date>2025-02-05T12:01:37.328669</dc:date>
    <dc:format>image/svg+xml</dc:format>
    <dc:creator>
     <cc:Agent>
      <dc:title>Matplotlib v3.8.0, https://matplotlib.org/</dc:title>
     </cc:Agent>
    </dc:creator>
   </cc:Work>
  </rdf:RDF>
 </metadata>
 <defs>
  <style type="text/css">*{stroke-linejoin: round; stroke-linecap: butt}</style>
 </defs>
 <g id="figure_1">
  <g id="patch_1">
   <path d="M -0 338.0025 
L 334.9 338.0025 
L 334.9 0 
L -0 0 
z
" style="fill: #ffffff"/>
  </g>
  <g id="axes_1">
   <g id="patch_2">
    <path d="M 7.2 330.8025 
L 314.56 330.8025 
L 314.56 23.4425 
L 7.2 23.4425 
z
" style="fill: #ffffff"/>
   </g>
   <g id="Quiver_1">
    <path d="M 31.110105 307.507115 
L 30.802745 306.974752 
L 30.188025 306.974752 
L 29.880665 307.507115 
L 30.188025 308.039479 
L 30.802745 308.039479 
L 31.110105 307.507115 
L 30.802745 306.974752 
" clip-path="url(#p2b008edd91)" style="fill: #0000ff"/>
    <path d="M 30.495385 289.50778 
L 29.963021 289.81514 
L 29.963021 290.42986 
L 30.495385 290.73722 
L 31.027748 290.42986 
L 31.027748 289.81514 
L 30.495385 289.50778 
L 29.963021 289.81514 
" clip-path="url(#p2b008edd91)" style="fill: #0000ff"/>
    <path d="M 30.495385 272.123165 
L 29.963021 272.430525 
L 29.963021 273.045245 
L 30.495385 273.352605 
L 31.027748 273.045245 
L 31.027748 272.430525 
L 30.495385 272.123165 
L 29.963021 272.430525 
" clip-path="url(#p2b008edd91)" style="fill: #0000ff"/>
    <path d="M 30.367606 255.353269 
L 30.367606 255.22549 
L 30.112048 255.353269 
L 30.495385 254.075482 
L 30.878721 255.353269 
L 30.623163 255.22549 
L 30.623163 255.353269 
L 30.367606 255.353269 
" clip-path="url(#p2b008edd91)" style="fill: #0000ff"/>
    <path d="M 30.268222 237.968654 
L 30.268222 237.741492 
L 29.813898 237.968654 
L 30.495385 235.697032 
L 31.176871 237.968654 
L 30.722547 237.741492 
L 30.722547 237.968654 
L 30.268222 237.968654 
" clip-path="url(#p2b008edd91)" style="fill: #0000ff"/>
    <path d="M 30.140444 220.584038 
L 30.140444 220.229097 
L 29.430562 220.584038 
L 30.495385 217.034629 
L 31.560208 220.584038 
L 30.850326 220.229097 
L 30.850326 220.584038 
L 30.140444 220.584038 
" clip-path="url(#p2b008edd91)" style="fill: #0000ff"/>
    <path d="M 29.98427 203.199423 
L 29.98427 202.688308 
L 28.96204 203.199423 
L 30.495385 198.088273 
L 32.02873 203.199423 
L 31.0065 202.688308 
L 31.0065 203.199423 
L 29.98427 203.199423 
" clip-path="url(#p2b008edd91)" style="fill: #0000ff"/>
    <path d="M 29.880665 185.814808 
L 29.880665 184.390445 
L 28.651225 185.005165 
L 30.495385 178.857965 
L 32.339545 185.005165 
L 31.110105 184.390445 
L 31.110105 185.814808 
L 29.880665 185.814808 
" clip-path="url(#p2b008edd91)" style="fill: #0000ff"/>
    <path d="M 29.880665 168.430192 
L 29.880665 164.876183 
L 28.651225 165.490903 
L 30.495385 159.343703 
L 32.339545 165.490903 
L 31.110105 164.876183 
L 31.110105 168.430192 
L 29.880665 168.430192 
" clip-path="url(#p2b008edd91)" style="fill: #0000ff"/>
    <path d="M 29.880665 151.045577 
L 29.880665 145.077969 
L 28.651225 145.692689 
L 30.495385 139.545489 
L 32.339545 145.692689 
L 31.110105 145.077969 
L 31.110105 151.045577 
L 29.880665 151.045577 
" clip-path="url(#p2b008edd91)" style="fill: #0000ff"/>
    <path d="M 29.880665 133.660962 
L 29.880665 124.995803 
L 28.651225 125.610523 
L 30.495385 119.463323 
L 32.339545 125.610523 
L 31.110105 124.995803 
L 31.110105 133.660962 
L 29.880665 133.660962 
" clip-path="url(#p2b008edd91)" style="fill: #0000ff"/>
    <path d="M 29.880665 116.276346 
L 29.880665 104.629683 
L 28.651225 105.244403 
L 30.495385 99.097203 
L 32.339545 105.244403 
L 31.110105 104.629683 
L 31.110105 116.276346 
L 29.880665 116.276346 
" clip-path="url(#p2b008edd91)" style="fill: #0000ff"/>
    <path d="M 29.880665 98.891731 
L 29.880665 83.979611 
L 28.651225 84.594331 
L 30.495385 78.447131 
L 32.339545 84.594331 
L 31.110105 83.979611 
L 31.110105 98.891731 
L 29.880665 98.891731 
" clip-path="url(#p2b008edd91)" style="fill: #0000ff"/>
    <path d="M 29.880665 81.507115 
L 29.880665 63.045585 
L 28.651225 63.660305 
L 30.495385 57.513105 
L 32.339545 63.660305 
L 31.110105 63.045585 
L 31.110105 81.507115 
L 29.880665 81.507115 
" clip-path="url(#p2b008edd91)" style="fill: #0000ff"/>
    <path d="M 29.880665 64.1225 
L 29.880665 41.827608 
L 28.651225 42.442328 
L 30.495385 36.295128 
L 32.339545 42.442328 
L 31.110105 41.827608 
L 31.110105 64.1225 
L 29.880665 64.1225 
" clip-path="url(#p2b008edd91)" style="fill: #0000ff"/>
    <path d="M 48.49472 307.507115 
L 48.18736 306.974752 
L 47.57264 306.974752 
L 47.26528 307.507115 
L 47.57264 308.039479 
L 48.18736 308.039479 
L 48.49472 307.507115 
L 48.18736 306.974752 
" clip-path="url(#p2b008edd91)" style="fill: #0000ff"/>
    <path d="M 48.476366 289.973409 
L 48.049066 289.531486 
L 47.4527 289.680578 
L 47.283634 290.271591 
L 47.710934 290.713514 
L 48.3073 290.564422 
L 48.476366 289.973409 
L 48.049066 289.531486 
" clip-path="url(#p2b008edd91)" style="fill: #0000ff"/>
    <path d="M 48.314673 272.303212 
L 47.720899 272.144111 
L 47.286226 272.578783 
L 47.445327 273.172557 
L 48.039101 273.331659 
L 48.473774 272.896986 
L 48.314673 272.303212 
L 47.720899 272.144111 
" clip-path="url(#p2b008edd91)" style="fill: #0000ff"/>
    <path d="M 47.752221 255.296479 
L 47.809012 255.1687 
L 47.496664 255.182898 
L 48.447906 254.075482 
L 48.263336 255.523641 
L 48.064569 255.282281 
L 48.007779 255.41006 
L 47.752221 255.296479 
" clip-path="url(#p2b008edd91)" style="fill: #0000ff"/>
    <path d="M 47.652838 237.911863 
L 47.709628 237.684701 
L 47.198513 237.798282 
L 48.447906 235.697032 
L 48.561487 238.139026 
L 48.163953 237.798282 
L 48.107162 238.025444 
L 47.652838 237.911863 
" clip-path="url(#p2b008edd91)" style="fill: #0000ff"/>
    <path d="M 47.525059 220.527248 
L 47.58185 220.172307 
L 46.815177 220.413667 
L 48.447906 217.034629 
L 48.944823 220.75441 
L 48.291732 220.285888 
L 48.234941 220.640829 
L 47.525059 220.527248 
" clip-path="url(#p2b008edd91)" style="fill: #0000ff"/>
    <path d="M 47.368885 203.142633 
L 47.425676 202.631518 
L 46.346655 203.029051 
L 48.447906 198.088273 
L 49.413345 203.369795 
L 48.447906 202.745099 
L 48.391115 203.256214 
L 47.368885 203.142633 
" clip-path="url(#p2b008edd91)" style="fill: #0000ff"/>
    <path d="M 47.267318 185.764793 
L 47.38509 184.322087 
L 46.109711 184.83474 
L 48.447906 178.857965 
L 49.785803 185.134829 
L 48.610454 184.422117 
L 48.492682 185.864823 
L 47.267318 185.764793 
" clip-path="url(#p2b008edd91)" style="fill: #0000ff"/>
    <path d="M 47.266477 168.391847 
L 47.489276 164.827064 
L 46.223885 165.363897 
L 48.447906 159.343703 
L 49.905022 165.593968 
L 48.716322 164.903754 
L 48.493523 168.468537 
L 47.266477 168.391847 
" clip-path="url(#p2b008edd91)" style="fill: #0000ff"/>
    <path d="M 47.266028 151.015257 
L 47.561057 145.040916 
L 46.302794 145.594249 
L 48.447906 139.545489 
L 49.986625 145.776166 
L 48.789001 145.101555 
L 48.493972 151.075897 
L 47.266028 151.015257 
" clip-path="url(#p2b008edd91)" style="fill: #0000ff"/>
    <path d="M 47.265771 133.636392 
L 47.612554 124.966813 
L 46.359528 125.531903 
L 48.447906 119.463323 
L 50.0449 125.679318 
L 48.841012 125.015951 
L 48.494229 133.685531 
L 47.265771 133.636392 
" clip-path="url(#p2b008edd91)" style="fill: #0000ff"/>
    <path d="M 47.265616 116.256036 
L 47.650729 104.606352 
L 46.40165 105.180116 
L 48.447906 99.097203 
L 50.087956 105.301977 
L 48.879498 104.646973 
L 48.494384 116.296656 
L 47.265616 116.256036 
" clip-path="url(#p2b008edd91)" style="fill: #0000ff"/>
    <path d="M 47.265517 98.874662 
L 47.679802 83.960408 
L 46.433767 84.540753 
L 48.447906 78.447131 
L 50.120665 84.643167 
L 48.908768 83.994546 
L 48.494483 98.9088 
L 47.265517 98.874662 
" clip-path="url(#p2b008edd91)" style="fill: #0000ff"/>
    <path d="M 47.265452 81.49257 
L 47.702448 63.029491 
L 46.458807 63.614948 
L 48.447906 57.513105 
L 50.146094 63.702221 
L 48.931544 63.058582 
L 48.494548 81.521661 
L 47.265452 81.49257 
" clip-path="url(#p2b008edd91)" style="fill: #0000ff"/>
    <path d="M 47.265408 64.109957 
L 47.720429 41.813913 
L 46.478703 42.40342 
L 48.447906 36.295128 
L 50.166255 42.478676 
L 48.949613 41.838998 
L 48.494592 64.135043 
L 47.265408 64.109957 
" clip-path="url(#p2b008edd91)" style="fill: #0000ff"/>
    <path d="M 65.879335 307.507115 
L 65.571975 306.974752 
L 64.957255 306.974752 
L 64.649895 307.507115 
L 64.957255 308.039479 
L 65.571975 308.039479 
L 65.879335 307.507115 
L 65.571975 306.974752 
" clip-path="url(#p2b008edd91)" style="fill: #0000ff"/>
    <path d="M 65.874588 290.046253 
L 65.50357 289.556125 
L 64.893597 289.632371 
L 64.654642 290.198747 
L 65.02566 290.688875 
L 65.635633 290.612629 
L 65.874588 290.046253 
L 65.50357 289.556125 
" clip-path="url(#p2b008edd91)" style="fill: #0000ff"/>
    <path d="M 65.207825 272.624304 
L 65.321406 272.567513 
L 65.094244 272.397141 
L 66.400427 272.169979 
L 65.434987 273.078628 
L 65.434987 272.794675 
L 65.321406 272.851466 
L 65.207825 272.624304 
" clip-path="url(#p2b008edd91)" style="fill: #0000ff"/>
    <path d="M 65.136837 255.239688 
L 65.250418 255.111909 
L 64.881279 255.012526 
L 66.400427 254.075482 
L 65.647952 255.694013 
L 65.505975 255.339072 
L 65.392394 255.46685 
L 65.136837 255.239688 
" clip-path="url(#p2b008edd91)" style="fill: #0000ff"/>
    <path d="M 65.037453 237.855073 
L 65.151034 237.627911 
L 64.583129 237.627911 
L 66.400427 235.697032 
L 65.946102 238.309397 
L 65.605359 237.855073 
L 65.491778 238.082235 
L 65.037453 237.855073 
" clip-path="url(#p2b008edd91)" style="fill: #0000ff"/>
    <path d="M 64.909674 220.470457 
L 65.023256 220.115516 
L 64.199792 220.243295 
L 66.400427 217.034629 
L 66.329438 220.924782 
L 65.733137 220.342679 
L 65.619556 220.69762 
L 64.909674 220.470457 
" clip-path="url(#p2b008edd91)" style="fill: #0000ff"/>
    <path d="M 64.7535 203.085842 
L 64.867081 202.574727 
L 63.73127 202.85868 
L 66.400427 198.088273 
L 66.79796 203.540166 
L 65.889312 202.801889 
L 65.77573 203.313004 
L 64.7535 203.085842 
" clip-path="url(#p2b008edd91)" style="fill: #0000ff"/>
    <path d="M 64.657928 185.715757 
L 64.90228 184.2191 
L 63.589854 184.627685 
L 66.400427 178.857965 
L 67.229979 185.221991 
L 66.115655 184.417202 
L 65.871303 185.913859 
L 64.657928 185.715757 
" clip-path="url(#p2b008edd91)" style="fill: #0000ff"/>
    <path d="M 64.654642 168.353946 
L 65.104234 164.757214 
L 63.808041 165.214694 
L 66.400427 159.343703 
L 67.467879 165.672174 
L 66.32418 164.909707 
L 65.874588 168.506439 
L 64.654642 168.353946 
" clip-path="url(#p2b008edd91)" style="fill: #0000ff"/>
    <path d="M 64.652872 150.985158 
L 65.244911 144.990762 
L 63.961005 145.481668 
L 66.400427 139.545489 
L 67.631466 145.844182 
L 66.468398 145.111601 
L 65.876359 151.105996 
L 64.652872 150.985158 
" clip-path="url(#p2b008edd91)" style="fill: #0000ff"/>
    <path d="M 64.651853 133.611941 
L 65.346475 124.929162 
L 64.07193 125.443882 
L 66.400427 119.463323 
L 67.748504 125.738008 
L 66.572 125.027204 
L 65.877378 133.709983 
L 64.651853 133.611941 
" clip-path="url(#p2b008edd91)" style="fill: #0000ff"/>
    <path d="M 64.651235 116.235792 
L 65.422059 104.577076 
L 64.154743 105.109349 
L 66.400427 99.097203 
L 67.835028 105.352674 
L 66.64882 104.658185 
L 65.877996 116.3169 
L 64.651235 116.235792 
" clip-path="url(#p2b008edd91)" style="fill: #0000ff"/>
    <path d="M 64.650842 98.857632 
L 65.479766 83.936994 
L 64.218121 84.48257 
L 66.400427 78.447131 
L 67.900762 84.687162 
L 66.707313 84.005191 
L 65.878389 98.925829 
L 64.650842 98.857632 
" clip-path="url(#p2b008edd91)" style="fill: #0000ff"/>
    <path d="M 64.650583 81.478049 
L 65.524794 63.010331 
L 64.267663 63.56623 
L 66.400427 57.513105 
L 67.951858 63.74063 
L 66.752859 63.068464 
L 65.878648 81.536182 
L 64.650583 81.478049 
" clip-path="url(#p2b008edd91)" style="fill: #0000ff"/>
    <path d="M 64.650407 64.09743 
L 65.56059 41.797935 
L 64.307103 42.362004 
L 66.400427 36.295128 
L 67.992355 42.512423 
L 66.789007 41.848075 
L 65.878824 64.14757 
L 64.650407 64.09743 
" clip-path="url(#p2b008edd91)" style="fill: #0000ff"/>
    <path d="M 82.649231 307.336744 
L 82.819602 307.336744 
L 82.649231 306.996 
L 84.352947 307.507115 
L 82.649231 308.01823 
L 82.819602 307.677487 
L 82.649231 307.677487 
L 82.649231 307.336744 
" clip-path="url(#p2b008edd91)" style="fill: #0000ff"/>
    <path d="M 82.635033 289.952128 
L 82.805405 289.937931 
L 82.606638 289.611385 
L 84.352947 289.980524 
L 82.691824 290.633615 
L 82.8338 290.278674 
L 82.663428 290.292872 
L 82.635033 289.952128 
" clip-path="url(#p2b008edd91)" style="fill: #0000ff"/>
    <path d="M 82.59244 272.567513 
L 82.762812 272.510722 
L 82.478859 272.22677 
L 84.352947 272.169979 
L 82.819602 273.249 
L 82.876393 272.851466 
L 82.706021 272.908256 
L 82.59244 272.567513 
" clip-path="url(#p2b008edd91)" style="fill: #0000ff"/>
    <path d="M 82.521452 255.182898 
L 82.691824 255.055119 
L 82.265895 254.842154 
L 84.352947 254.075482 
L 83.032567 255.864384 
L 82.947381 255.395862 
L 82.77701 255.523641 
L 82.521452 255.182898 
" clip-path="url(#p2b008edd91)" style="fill: #0000ff"/>
    <path d="M 82.422069 237.798282 
L 82.59244 237.57112 
L 81.967744 237.457539 
L 84.352947 235.697032 
L 83.330717 238.479769 
L 83.046765 237.911863 
L 82.876393 238.139026 
L 82.422069 237.798282 
" clip-path="url(#p2b008edd91)" style="fill: #0000ff"/>
    <path d="M 82.29429 220.413667 
L 82.464661 220.058726 
L 81.584408 220.072923 
L 84.352947 217.034629 
L 83.714054 221.095153 
L 83.174543 220.399469 
L 83.004172 220.75441 
L 82.29429 220.413667 
" clip-path="url(#p2b008edd91)" style="fill: #0000ff"/>
    <path d="M 82.138116 203.029051 
L 82.308487 202.517936 
L 81.115886 202.688308 
L 84.352947 198.088273 
L 84.182576 203.710538 
L 83.330717 202.85868 
L 83.160346 203.369795 
L 82.138116 203.029051 
" clip-path="url(#p2b008edd91)" style="fill: #0000ff"/>
    <path d="M 82.052155 185.668585 
L 82.439868 184.085425 
L 81.099493 184.390055 
L 84.352947 178.857965 
L 84.681948 185.267391 
L 83.634019 184.37787 
L 83.246307 185.96103 
L 82.052155 185.668585 
" clip-path="url(#p2b008edd91)" style="fill: #0000ff"/>
    <path d="M 82.04504 168.316906 
L 82.729184 164.668138 
L 81.407515 165.045758 
L 84.352947 159.343703 
L 85.032663 165.725473 
L 83.937566 164.89471 
L 83.253422 168.543478 
L 82.04504 168.316906 
" clip-path="url(#p2b008edd91)" style="fill: #0000ff"/>
    <path d="M 82.041148 150.955491 
L 82.934087 144.928151 
L 81.627834 145.356062 
L 84.352947 139.545489 
L 85.276333 145.89658 
L 84.150253 145.108324 
L 83.257314 151.135663 
L 82.041148 150.955491 
" clip-path="url(#p2b008edd91)" style="fill: #0000ff"/>
    <path d="M 82.03889 133.587721 
L 83.083438 124.883153 
L 81.789514 125.347012 
L 84.352947 119.463323 
L 85.451562 125.786458 
L 84.30412 125.029635 
L 83.259572 133.734202 
L 82.03889 133.587721 
" clip-path="url(#p2b008edd91)" style="fill: #0000ff"/>
    <path d="M 82.037512 116.21568 
L 83.195231 104.542009 
L 81.911127 105.032395 
L 84.352947 99.097203 
L 85.581441 105.396393 
L 84.418669 104.663341 
L 83.26095 116.337013 
L 82.037512 116.21568 
" clip-path="url(#p2b008edd91)" style="fill: #0000ff"/>
    <path d="M 82.036634 98.840681 
L 83.280903 83.90945 
L 82.00466 84.419948 
L 84.352947 78.447131 
L 85.68024 84.726246 
L 84.506097 84.01155 
L 83.261827 98.94278 
L 82.036634 98.840681 
" clip-path="url(#p2b008edd91)" style="fill: #0000ff"/>
    <path d="M 82.036055 81.463576 
L 83.347919 62.988152 
L 82.078028 63.51425 
L 84.352947 57.513105 
L 85.757085 63.775485 
L 84.574271 63.07523 
L 83.262407 81.550655 
L 82.036055 81.463576 
" clip-path="url(#p2b008edd91)" style="fill: #0000ff"/>
    <path d="M 82.03566 64.084934 
L 83.401286 41.779702 
L 82.136578 42.318142 
L 84.352947 36.295128 
L 85.818005 42.543535 
L 84.628428 41.854833 
L 83.262802 64.160066 
L 82.03566 64.084934 
" clip-path="url(#p2b008edd91)" style="fill: #0000ff"/>
    <path d="M 100.033846 307.279953 
L 100.261008 307.279953 
L 100.033846 306.825629 
L 102.305468 307.507115 
L 100.033846 308.188602 
L 100.261008 307.734278 
L 100.033846 307.734278 
L 100.033846 307.279953 
" clip-path="url(#p2b008edd91)" style="fill: #0000ff"/>
    <path d="M 100.019649 289.895338 
L 100.246811 289.88114 
L 99.991253 289.441013 
L 102.305468 289.980524 
L 100.076439 290.803987 
L 100.275206 290.335465 
L 100.048044 290.349662 
L 100.019649 289.895338 
" clip-path="url(#p2b008edd91)" style="fill: #0000ff"/>
    <path d="M 99.977056 272.510722 
L 100.204218 272.453932 
L 99.863474 272.056398 
L 102.305468 272.169979 
L 100.204218 273.419371 
L 100.317799 272.908256 
L 100.090637 272.965047 
L 99.977056 272.510722 
" clip-path="url(#p2b008edd91)" style="fill: #0000ff"/>
    <path d="M 99.906067 255.126107 
L 100.13323 254.998328 
L 99.65051 254.671783 
L 102.305468 254.075482 
L 100.417182 256.034756 
L 100.388787 255.452653 
L 100.161625 255.580431 
L 99.906067 255.126107 
" clip-path="url(#p2b008edd91)" style="fill: #0000ff"/>
    <path d="M 99.806684 237.741492 
L 100.033846 237.514329 
L 99.352359 237.287167 
L 102.305468 235.697032 
L 100.715333 238.650141 
L 100.488171 237.968654 
L 100.261008 238.195816 
L 99.806684 237.741492 
" clip-path="url(#p2b008edd91)" style="fill: #0000ff"/>
    <path d="M 99.678905 220.356876 
L 99.906067 220.001935 
L 98.969023 219.902552 
L 102.305468 217.034629 
L 101.098669 221.265525 
L 100.615949 220.45626 
L 100.388787 220.811201 
L 99.678905 220.356876 
" clip-path="url(#p2b008edd91)" style="fill: #0000ff"/>
    <path d="M 99.522731 202.972261 
L 99.749893 202.461146 
L 98.500501 202.517936 
L 102.305468 198.088273 
L 101.567191 203.88091 
L 100.772123 202.91547 
L 100.544961 203.426585 
L 99.522731 202.972261 
" clip-path="url(#p2b008edd91)" style="fill: #0000ff"/>
    <path d="M 99.44949 185.623998 
L 100.003821 183.92636 
L 98.644298 184.129096 
L 102.305468 178.857965 
L 102.150435 185.273957 
L 101.172533 184.30798 
L 100.618202 186.005618 
L 99.44949 185.623998 
" clip-path="url(#p2b008edd91)" style="fill: #0000ff"/>
    <path d="M 99.43748 168.281101 
L 100.367279 164.561906 
L 99.025455 164.860089 
L 102.305468 159.343703 
L 102.603651 165.754638 
L 101.560011 164.860089 
L 100.630212 168.579284 
L 99.43748 168.281101 
" clip-path="url(#p2b008edd91)" style="fill: #0000ff"/>
    <path d="M 99.430779 150.926453 
L 100.630282 144.85397 
L 99.305023 145.218788 
L 102.305468 139.545489 
L 102.923426 145.933535 
L 101.836416 145.092219 
L 100.636913 151.164701 
L 99.430779 150.926453 
" clip-path="url(#p2b008edd91)" style="fill: #0000ff"/>
    <path d="M 99.426847 133.563842 
L 100.82439 124.829198 
L 99.513271 125.241958 
L 102.305468 119.463323 
L 103.155268 125.824677 
L 102.038389 125.023438 
L 100.640846 133.758081 
L 99.426847 133.563842 
" clip-path="url(#p2b008edd91)" style="fill: #0000ff"/>
    <path d="M 99.424431 116.195762 
L 100.970799 104.501356 
L 99.671384 104.949604 
L 102.305468 99.097203 
L 103.327876 105.433107 
L 102.189629 104.662524 
L 100.643261 116.35693 
L 99.424431 116.195762 
" clip-path="url(#p2b008edd91)" style="fill: #0000ff"/>
    <path d="M 99.422886 98.823846 
L 101.083548 83.877888 
L 99.793743 84.353079 
L 102.305468 78.447131 
L 103.459504 84.760386 
L 102.305468 84.013657 
L 100.644806 98.959615 
L 99.422886 98.823846 
" clip-path="url(#p2b008edd91)" style="fill: #0000ff"/>
    <path d="M 99.421863 81.449176 
L 101.172032 62.963017 
L 99.890126 63.459122 
L 102.305468 57.513105 
L 103.562026 63.806758 
L 102.395998 63.078896 
L 100.64583 81.565055 
L 99.421863 81.449176 
" clip-path="url(#p2b008edd91)" style="fill: #0000ff"/>
    <path d="M 99.421164 64.072485 
L 101.242653 41.75925 
L 99.967274 42.271903 
L 102.305468 36.295128 
L 103.643366 42.571992 
L 102.468017 41.85928 
L 100.646528 64.172515 
L 99.421164 64.072485 
" clip-path="url(#p2b008edd91)" style="fill: #0000ff"/>
    <path d="M 117.418462 307.223163 
L 117.702414 307.223163 
L 117.418462 306.655257 
L 120.257989 307.507115 
L 117.418462 308.358974 
L 117.702414 307.791068 
L 117.418462 307.791068 
L 117.418462 307.223163 
" clip-path="url(#p2b008edd91)" style="fill: #0000ff"/>
    <path d="M 117.404264 289.838547 
L 117.688217 289.82435 
L 117.375869 289.270642 
L 120.257989 289.980524 
L 117.461054 290.974358 
L 117.716612 290.392255 
L 117.432659 290.406453 
L 117.404264 289.838547 
" clip-path="url(#p2b008edd91)" style="fill: #0000ff"/>
    <path d="M 117.361671 272.453932 
L 117.645624 272.397141 
L 117.24809 271.886026 
L 120.257989 272.169979 
L 117.588833 273.589743 
L 117.759205 272.965047 
L 117.475252 273.021837 
L 117.361671 272.453932 
" clip-path="url(#p2b008edd91)" style="fill: #0000ff"/>
    <path d="M 117.290683 255.069316 
L 117.574636 254.941538 
L 117.035125 254.501411 
L 120.257989 254.075482 
L 117.801798 256.205128 
L 117.830193 255.509443 
L 117.54624 255.637222 
L 117.290683 255.069316 
" clip-path="url(#p2b008edd91)" style="fill: #0000ff"/>
    <path d="M 117.191299 237.684701 
L 117.475252 237.457539 
L 116.736975 237.116796 
L 120.257989 235.697032 
L 118.099948 238.820512 
L 117.929577 238.025444 
L 117.645624 238.252607 
L 117.191299 237.684701 
" clip-path="url(#p2b008edd91)" style="fill: #0000ff"/>
    <path d="M 117.063521 220.300086 
L 117.347473 219.945145 
L 116.353639 219.73218 
L 120.257989 217.034629 
L 118.483284 221.435897 
L 118.057355 220.51305 
L 117.773403 220.867991 
L 117.063521 220.300086 
" clip-path="url(#p2b008edd91)" style="fill: #0000ff"/>
    <path d="M 116.907347 202.91547 
L 117.191299 202.404355 
L 115.885117 202.347565 
L 120.257989 198.088273 
L 118.951807 204.051281 
L 118.213529 202.972261 
L 117.929577 203.483376 
L 116.907347 202.91547 
" clip-path="url(#p2b008edd91)" style="fill: #0000ff"/>
    <path d="M 116.849324 185.582507 
L 117.598145 183.747897 
L 116.22757 183.852433 
L 120.257989 178.857965 
L 119.642392 185.246238 
L 118.736419 184.212499 
L 117.987599 186.047109 
L 116.849324 185.582507 
" clip-path="url(#p2b008edd91)" style="fill: #0000ff"/>
    <path d="M 116.831724 168.246837 
L 118.021051 164.440989 
L 116.66422 164.661016 
L 120.257989 159.343703 
L 120.184647 165.761149 
L 119.194527 164.8077 
L 118.005199 168.613548 
L 116.831724 168.246837 
" clip-path="url(#p2b008edd91)" style="fill: #0000ff"/>
    <path d="M 116.821665 150.89822 
L 118.334977 144.769304 
L 116.994026 145.071386 
L 120.257989 139.545489 
L 120.574807 145.95553 
L 119.528571 145.064019 
L 118.015258 151.192934 
L 116.821665 150.89822 
" clip-path="url(#p2b008edd91)" style="fill: #0000ff"/>
    <path d="M 116.815679 133.540405 
L 118.570198 124.767809 
L 117.244077 125.129479 
L 120.257989 119.463323 
L 120.860772 125.852818 
L 119.775763 125.008922 
L 118.021244 133.781518 
L 116.815679 133.540405 
" clip-path="url(#p2b008edd91)" style="fill: #0000ff"/>
    <path d="M 116.811971 116.1761 
L 118.74928 104.455375 
L 117.436052 104.861374 
L 120.257989 99.097203 
L 121.074998 105.462852 
L 119.962262 104.655868 
L 118.024953 116.376593 
L 116.811971 116.1761 
" clip-path="url(#p2b008edd91)" style="fill: #0000ff"/>
    <path d="M 116.809586 98.807165 
L 118.88802 83.842443 
L 117.585703 84.282187 
L 120.257989 78.447131 
L 121.238955 84.789583 
L 120.10577 84.011575 
L 118.027337 98.976297 
L 116.809586 98.807165 
" clip-path="url(#p2b008edd91)" style="fill: #0000ff"/>
    <path d="M 116.808001 81.434872 
L 118.997335 62.935002 
L 117.704171 63.400975 
L 120.257989 57.513105 
L 121.366932 63.834438 
L 120.218255 63.07949 
L 118.028922 81.579359 
L 116.808001 81.434872 
" clip-path="url(#p2b008edd91)" style="fill: #0000ff"/>
    <path d="M 116.806917 64.060098 
L 119.084822 41.736625 
L 117.799331 42.223365 
L 120.257989 36.295128 
L 121.468598 42.597779 
L 120.307911 41.86143 
L 118.030006 64.184902 
L 116.806917 64.060098 
" clip-path="url(#p2b008edd91)" style="fill: #0000ff"/>
    <path d="M 134.803077 307.166372 
L 135.14382 307.166372 
L 134.803077 306.484885 
L 138.21051 307.507115 
L 134.803077 308.529345 
L 135.14382 307.847859 
L 134.803077 307.847859 
L 134.803077 307.166372 
" clip-path="url(#p2b008edd91)" style="fill: #0000ff"/>
    <path d="M 134.788879 289.781757 
L 135.129623 289.767559 
L 134.760484 289.10027 
L 138.21051 289.980524 
L 134.84567 291.14473 
L 135.158018 290.449046 
L 134.817275 290.463243 
L 134.788879 289.781757 
" clip-path="url(#p2b008edd91)" style="fill: #0000ff"/>
    <path d="M 134.746286 272.397141 
L 135.08703 272.340351 
L 134.632705 271.715655 
L 138.21051 272.169979 
L 134.973449 273.760115 
L 135.200611 273.021837 
L 134.859867 273.078628 
L 134.746286 272.397141 
" clip-path="url(#p2b008edd91)" style="fill: #0000ff"/>
    <path d="M 134.675298 255.012526 
L 135.016042 254.884747 
L 134.419741 254.331039 
L 138.21051 254.075482 
L 135.186413 256.375499 
L 135.271599 255.566234 
L 134.930856 255.694013 
L 134.675298 255.012526 
" clip-path="url(#p2b008edd91)" style="fill: #0000ff"/>
    <path d="M 134.575915 237.627911 
L 134.916658 237.400748 
L 134.12159 236.946424 
L 138.21051 235.697032 
L 135.484564 238.990884 
L 135.370982 238.082235 
L 135.030239 238.309397 
L 134.575915 237.627911 
" clip-path="url(#p2b008edd91)" style="fill: #0000ff"/>
    <path d="M 134.448136 220.243295 
L 134.788879 219.888354 
L 133.738254 219.561808 
L 138.21051 217.034629 
L 135.8679 221.606268 
L 135.498761 220.569841 
L 135.158018 220.924782 
L 134.448136 220.243295 
" clip-path="url(#p2b008edd91)" style="fill: #0000ff"/>
    <path d="M 134.291962 202.85868 
L 134.632705 202.347565 
L 133.269732 202.177193 
L 138.21051 198.088273 
L 136.336422 204.221653 
L 135.654935 203.029051 
L 135.314192 203.540166 
L 134.291962 202.85868 
" clip-path="url(#p2b008edd91)" style="fill: #0000ff"/>
    <path d="M 134.25102 185.544412 
L 135.224895 183.556083 
L 133.850386 183.56735 
L 138.21051 178.857965 
L 137.162728 185.189722 
L 136.32901 184.096874 
L 135.355134 186.085203 
L 134.25102 185.544412 
" clip-path="url(#p2b008edd91)" style="fill: #0000ff"/>
    <path d="M 134.227497 168.21435 
L 135.692347 164.308083 
L 134.325343 164.451978 
L 138.21051 159.343703 
L 137.778825 165.747034 
L 136.843507 164.739768 
L 135.378657 168.646035 
L 134.227497 168.21435 
" clip-path="url(#p2b008edd91)" style="fill: #0000ff"/>
    <path d="M 134.213685 150.870942 
L 136.049405 144.675386 
L 134.695985 144.915509 
L 138.21051 139.545489 
L 138.23234 145.963317 
L 137.22819 145.024655 
L 135.392469 151.220212 
L 134.213685 150.870942 
" clip-path="url(#p2b008edd91)" style="fill: #0000ff"/>
    <path d="M 134.205331 133.517503 
L 136.321633 124.699577 
L 134.982682 125.010405 
L 138.21051 119.463323 
L 138.569158 125.871159 
L 137.517125 124.986495 
L 135.400823 133.804421 
L 134.205331 133.517503 
" clip-path="url(#p2b008edd91)" style="fill: #0000ff"/>
    <path d="M 134.200103 116.156748 
L 136.531154 104.404366 
L 135.20561 104.768143 
L 138.21051 99.097203 
L 138.82345 105.485732 
L 137.737101 104.643562 
L 135.40605 116.395944 
L 134.200103 116.156748 
" clip-path="url(#p2b008edd91)" style="fill: #0000ff"/>
    <path d="M 134.196721 98.790671 
L 136.69462 83.803276 
L 135.380849 84.207513 
L 138.21051 78.447131 
L 139.018985 84.813869 
L 137.907332 84.005395 
L 135.409433 98.99279 
L 134.196721 98.790671 
" clip-path="url(#p2b008edd91)" style="fill: #0000ff"/>
    <path d="M 134.194463 81.420685 
L 136.824024 62.904197 
L 135.520366 63.33995 
L 138.21051 57.513105 
L 139.172048 63.858532 
L 138.041251 63.077058 
L 135.41169 81.593546 
L 134.194463 81.420685 
" clip-path="url(#p2b008edd91)" style="fill: #0000ff"/>
    <path d="M 134.192914 64.047786 
L 136.927923 41.711878 
L 135.632884 42.172613 
L 138.21051 36.295128 
L 139.29386 42.620896 
L 138.148249 41.861306 
L 135.41324 64.197214 
L 134.192914 64.047786 
" clip-path="url(#p2b008edd91)" style="fill: #0000ff"/>
    <path d="M 152.187692 307.109581 
L 152.585226 307.109581 
L 152.187692 306.314514 
L 156.163031 307.507115 
L 152.187692 308.699717 
L 152.585226 307.904649 
L 152.187692 307.904649 
L 152.187692 307.109581 
" clip-path="url(#p2b008edd91)" style="fill: #0000ff"/>
    <path d="M 152.173495 289.724966 
L 152.571029 289.710768 
L 152.145099 288.929898 
L 156.163031 289.980524 
L 152.230285 291.315102 
L 152.599424 290.505836 
L 152.20189 290.520034 
L 152.173495 289.724966 
" clip-path="url(#p2b008edd91)" style="fill: #0000ff"/>
    <path d="M 152.130902 272.340351 
L 152.528436 272.28356 
L 152.017321 271.545283 
L 156.163031 272.169979 
L 152.358064 273.930486 
L 152.642017 273.078628 
L 152.244483 273.135419 
L 152.130902 272.340351 
" clip-path="url(#p2b008edd91)" style="fill: #0000ff"/>
    <path d="M 152.059914 254.955735 
L 152.457447 254.827957 
L 151.804356 254.160668 
L 156.163031 254.075482 
L 152.571029 256.545871 
L 152.713005 255.623024 
L 152.315471 255.750803 
L 152.059914 254.955735 
" clip-path="url(#p2b008edd91)" style="fill: #0000ff"/>
    <path d="M 151.96053 237.57112 
L 152.358064 237.343958 
L 151.506206 236.776052 
L 156.163031 235.697032 
L 152.869179 239.161256 
L 152.812388 238.139026 
L 152.414855 238.366188 
L 151.96053 237.57112 
" clip-path="url(#p2b008edd91)" style="fill: #0000ff"/>
    <path d="M 151.832751 220.186505 
L 152.230285 219.831564 
L 151.122869 219.391437 
L 156.163031 217.034629 
L 153.252515 221.77664 
L 152.940167 220.626631 
L 152.542633 220.981572 
L 151.832751 220.186505 
" clip-path="url(#p2b008edd91)" style="fill: #0000ff"/>
    <path d="M 151.702462 202.822022 
L 152.281186 202.077947 
L 150.933324 201.808374 
L 156.163031 198.088273 
L 153.844707 204.072784 
L 153.251648 202.83275 
L 152.672923 203.576825 
L 151.702462 202.822022 
" clip-path="url(#p2b008edd91)" style="fill: #0000ff"/>
    <path d="M 151.653966 185.509821 
L 152.884426 183.356516 
L 151.511987 183.280269 
L 156.163031 178.857965 
L 154.714345 185.110188 
L 153.951879 183.966489 
L 152.721419 186.119794 
L 151.653966 185.509821 
" clip-path="url(#p2b008edd91)" style="fill: #0000ff"/>
    <path d="M 151.624512 168.183801 
L 153.382329 164.165934 
L 152.009577 164.236332 
L 156.163031 159.343703 
L 155.388658 165.71468 
L 154.508689 164.658717 
L 152.750873 168.676584 
L 151.624512 168.183801 
" clip-path="url(#p2b008edd91)" style="fill: #0000ff"/>
    <path d="M 151.606705 150.844742 
L 153.774529 144.573538 
L 152.41172 144.752855 
L 156.163031 139.545489 
L 155.897642 145.957865 
L 154.936503 144.975208 
L 152.768679 151.246412 
L 151.606705 150.844742 
" clip-path="url(#p2b008edd91)" style="fill: #0000ff"/>
    <path d="M 151.595739 133.495215 
L 154.079356 124.625155 
L 152.729702 124.885614 
L 156.163031 119.463323 
L 156.281422 125.880096 
L 155.263262 124.956649 
L 152.779646 133.826708 
L 151.595739 133.495215 
" clip-path="url(#p2b008edd91)" style="fill: #0000ff"/>
    <path d="M 151.588798 116.137759 
L 154.316853 104.348664 
L 152.980478 104.670384 
L 156.163031 99.097203 
L 156.573843 105.501907 
L 155.514642 104.625838 
L 152.786587 116.414933 
L 151.588798 116.137759 
" clip-path="url(#p2b008edd91)" style="fill: #0000ff"/>
    <path d="M 151.584274 98.774399 
L 154.50363 83.760567 
L 153.179461 84.129323 
L 156.163031 78.447131 
L 156.799973 84.833311 
L 155.710467 83.99523 
L 152.791111 99.009062 
L 151.584274 98.774399 
" clip-path="url(#p2b008edd91)" style="fill: #0000ff"/>
    <path d="M 151.58124 81.406638 
L 154.652282 62.870703 
L 153.338899 63.276201 
L 156.163031 57.513105 
L 156.977616 63.879065 
L 155.865188 63.071658 
L 152.794145 81.607593 
L 151.58124 81.406638 
" clip-path="url(#p2b008edd91)" style="fill: #0000ff"/>
    <path d="M 151.579151 64.035565 
L 154.772079 41.685069 
L 153.468061 42.119741 
L 156.163031 36.295128 
L 157.119311 42.641349 
L 155.989162 41.858938 
L 152.796234 64.209435 
L 151.579151 64.035565 
" clip-path="url(#p2b008edd91)" style="fill: #0000ff"/>
    <path d="M 169.572308 307.052791 
L 170.026632 307.052791 
L 169.572308 306.144142 
L 174.115552 307.507115 
L 169.572308 308.870089 
L 170.026632 307.96144 
L 169.572308 307.96144 
L 169.572308 307.052791 
" clip-path="url(#p2b008edd91)" style="fill: #0000ff"/>
    <path d="M 169.55811 289.668176 
L 170.012435 289.653978 
L 169.529715 288.759527 
L 174.115552 289.980524 
L 169.614901 291.485473 
L 170.04083 290.562627 
L 169.586505 290.576824 
L 169.55811 289.668176 
" clip-path="url(#p2b008edd91)" style="fill: #0000ff"/>
    <path d="M 169.515517 272.28356 
L 169.969842 272.22677 
L 169.401936 271.374911 
L 174.115552 272.169979 
L 169.742679 274.100858 
L 170.083423 273.135419 
L 169.629098 273.192209 
L 169.515517 272.28356 
" clip-path="url(#p2b008edd91)" style="fill: #0000ff"/>
    <path d="M 169.444529 254.898945 
L 169.898853 254.771166 
L 169.188971 253.990296 
L 174.115552 254.075482 
L 169.955644 256.716243 
L 170.154411 255.679815 
L 169.700086 255.807594 
L 169.444529 254.898945 
" clip-path="url(#p2b008edd91)" style="fill: #0000ff"/>
    <path d="M 169.345145 237.514329 
L 169.79947 237.287167 
L 168.890821 236.605681 
L 174.115552 235.697032 
L 170.253794 239.331627 
L 170.253794 238.195816 
L 169.79947 238.422978 
L 169.345145 237.514329 
" clip-path="url(#p2b008edd91)" style="fill: #0000ff"/>
    <path d="M 169.217367 220.129714 
L 169.671691 219.774773 
L 168.507485 219.221065 
L 174.115552 217.034629 
L 170.637131 221.947012 
L 170.381573 220.683422 
L 169.927249 221.038363 
L 169.217367 220.129714 
" clip-path="url(#p2b008edd91)" style="fill: #0000ff"/>
    <path d="M 169.11286 202.791025 
L 169.980525 201.814902 
L 168.653232 201.457554 
L 174.115552 198.088273 
L 171.409917 203.907941 
L 170.89942 202.631698 
L 170.031755 203.607821 
L 169.11286 202.791025 
" clip-path="url(#p2b008edd91)" style="fill: #0000ff"/>
    <path d="M 169.057621 185.478686 
L 170.575767 183.154025 
L 169.210271 182.996468 
L 174.115552 178.857965 
L 172.298392 185.0132 
L 171.60514 183.826269 
L 170.086995 186.15093 
L 169.057621 185.478686 
" clip-path="url(#p2b008edd91)" style="fill: #0000ff"/>
    <path d="M 169.022485 168.155281 
L 171.09153 164.017193 
L 169.716974 164.017193 
L 174.115552 159.343703 
L 173.015908 165.66666 
L 172.191174 164.567015 
L 170.12213 168.705103 
L 169.022485 168.155281 
" clip-path="url(#p2b008edd91)" style="fill: #0000ff"/>
    <path d="M 169.000586 150.819712 
L 171.511043 144.465118 
L 170.141734 144.585109 
L 174.115552 139.545489 
L 173.572064 145.940301 
L 172.654486 144.916849 
L 170.144029 151.271442 
L 169.000586 150.819712 
" clip-path="url(#p2b008edd91)" style="fill: #0000ff"/>
    <path d="M 168.986834 133.47361 
L 171.843912 124.545238 
L 170.485612 124.756009 
L 174.115552 119.463323 
L 173.998457 125.880119 
L 173.014861 124.919942 
L 170.157782 133.848313 
L 168.986834 133.47361 
" clip-path="url(#p2b008edd91)" style="fill: #0000ff"/>
    <path d="M 168.978019 116.119179 
L 172.106758 104.288634 
L 170.761013 104.568589 
L 174.115552 99.097203 
L 174.326746 105.511592 
L 173.295335 104.602969 
L 170.166596 116.433513 
L 168.978019 116.119179 
" clip-path="url(#p2b008edd91)" style="fill: #0000ff"/>
    <path d="M 168.972226 98.758379 
L 172.315307 83.714514 
L 170.981792 84.047893 
L 174.115552 78.447131 
L 174.582282 84.848002 
L 173.51547 83.981217 
L 170.172389 99.025082 
L 168.972226 98.758379 
" clip-path="url(#p2b008edd91)" style="fill: #0000ff"/>
    <path d="M 168.96832 81.392751 
L 172.482283 62.834632 
L 171.159943 63.209891 
L 174.115552 57.513105 
L 174.78387 63.896079 
L 173.690259 63.063361 
L 170.176296 81.62148 
L 168.96832 81.392751 
" clip-path="url(#p2b008edd91)" style="fill: #0000ff"/>
    <path d="M 168.96562 64.023449 
L 172.617406 41.656263 
L 171.30498 42.064848 
L 174.115552 36.295128 
L 174.945104 42.659154 
L 173.830781 41.854365 
L 170.178995 64.221551 
L 168.96562 64.023449 
" clip-path="url(#p2b008edd91)" style="fill: #0000ff"/>
    <path d="M 186.956923 306.996 
L 187.468038 306.996 
L 186.956923 305.97377 
L 192.068073 307.507115 
L 186.956923 309.04046 
L 187.468038 308.01823 
L 186.956923 308.01823 
L 186.956923 306.996 
" clip-path="url(#p2b008edd91)" style="fill: #0000ff"/>
    <path d="M 186.942725 289.611385 
L 187.45384 289.597187 
L 186.91433 288.589155 
L 192.068073 289.980524 
L 186.999516 291.655845 
L 187.482236 290.619417 
L 186.971121 290.633615 
L 186.942725 289.611385 
" clip-path="url(#p2b008edd91)" style="fill: #0000ff"/>
    <path d="M 186.900133 272.22677 
L 187.411248 272.169979 
L 186.786551 271.20454 
L 192.068073 272.169979 
L 187.127295 274.27123 
L 187.524829 273.192209 
L 187.013714 273.249 
L 186.900133 272.22677 
" clip-path="url(#p2b008edd91)" style="fill: #0000ff"/>
    <path d="M 186.829144 254.842154 
L 187.340259 254.714375 
L 186.573587 253.819924 
L 192.068073 254.075482 
L 187.340259 256.886614 
L 187.595817 255.736605 
L 187.084702 255.864384 
L 186.829144 254.842154 
" clip-path="url(#p2b008edd91)" style="fill: #0000ff"/>
    <path d="M 186.729761 237.457539 
L 187.240876 237.230377 
L 186.275436 236.435309 
L 192.068073 235.697032 
L 187.63841 239.501999 
L 187.6952 238.252607 
L 187.184085 238.479769 
L 186.729761 237.457539 
" clip-path="url(#p2b008edd91)" style="fill: #0000ff"/>
    <path d="M 186.606289 220.079126 
L 187.173226 219.68542 
L 185.967047 219.026228 
L 192.068073 217.034629 
L 188.070849 222.055703 
L 187.874494 220.695245 
L 187.307557 221.088951 
L 186.606289 220.079126 
" clip-path="url(#p2b008edd91)" style="fill: #0000ff"/>
    <path d="M 186.52225 202.76475 
L 187.721346 201.565654 
L 186.417328 201.130982 
L 192.068073 198.088273 
L 189.025364 203.739018 
L 188.590692 202.435 
L 187.391596 203.634096 
L 186.52225 202.76475 
" clip-path="url(#p2b008edd91)" style="fill: #0000ff"/>
    <path d="M 186.461531 185.450846 
L 188.29703 182.952528 
L 186.942286 182.719998 
L 192.068073 178.857965 
L 189.914636 184.903765 
L 189.287814 183.680451 
L 187.452315 186.178769 
L 186.461531 185.450846 
" clip-path="url(#p2b008edd91)" style="fill: #0000ff"/>
    <path d="M 186.421148 168.128819 
L 188.819938 163.864304 
L 187.447014 163.797332 
L 192.068073 159.343703 
L 190.661664 165.605573 
L 189.891488 164.467051 
L 187.492698 168.731566 
L 186.421148 168.128819 
" clip-path="url(#p2b008edd91)" style="fill: #0000ff"/>
    <path d="M 186.395185 150.795915 
L 189.259382 144.351472 
L 187.886244 144.413887 
L 192.068073 139.545489 
L 191.256673 145.911856 
L 190.382858 144.850795 
L 187.518661 151.295238 
L 186.395185 150.795915 
" clip-path="url(#p2b008edd91)" style="fill: #0000ff"/>
    <path d="M 186.378541 133.452744 
L 189.615732 124.460546 
L 188.25075 124.622493 
L 192.068073 119.463323 
L 191.721044 125.871799 
L 190.772497 124.876981 
L 187.535305 133.869179 
L 186.378541 133.452744 
" clip-path="url(#p2b008edd91)" style="fill: #0000ff"/>
    <path d="M 186.367728 116.101048 
L 189.901197 104.224665 
L 188.547508 104.463265 
L 192.068073 99.097203 
L 192.082681 105.515052 
L 191.079588 104.57526 
L 187.546119 116.451644 
L 186.367728 116.101048 
" clip-path="url(#p2b008edd91)" style="fill: #0000ff"/>
    <path d="M 186.360557 98.742639 
L 190.129884 83.665333 
L 188.78806 83.963516 
L 192.068073 78.447131 
L 192.366256 84.858065 
L 191.322616 83.963516 
L 187.553289 99.040822 
L 186.360557 98.742639 
" clip-path="url(#p2b008edd91)" style="fill: #0000ff"/>
    <path d="M 186.355693 81.379043 
L 190.314188 62.796107 
L 188.983654 63.141192 
L 192.068073 57.513105 
L 192.591037 63.909628 
L 191.516649 63.052252 
L 187.558154 81.635188 
L 186.355693 81.379043 
" clip-path="url(#p2b008edd91)" style="fill: #0000ff"/>
    <path d="M 186.352317 64.01145 
L 190.464016 41.625532 
L 189.143754 42.008038 
L 192.068073 36.295128 
L 192.77139 42.674339 
L 191.673228 41.847633 
L 187.561529 64.23355 
L 186.352317 64.01145 
" clip-path="url(#p2b008edd91)" style="fill: #0000ff"/>
    <path d="M 204.341538 306.93921 
L 204.909444 306.93921 
L 204.341538 305.803399 
L 210.020594 307.507115 
L 204.341538 309.210832 
L 204.909444 308.075021 
L 204.341538 308.075021 
L 204.341538 306.93921 
" clip-path="url(#p2b008edd91)" style="fill: #0000ff"/>
    <path d="M 204.327341 289.554594 
L 204.895246 289.540397 
L 204.298946 288.418783 
L 210.020594 289.980524 
L 204.384131 291.826217 
L 204.923642 290.676208 
L 204.355736 290.690406 
L 204.327341 289.554594 
" clip-path="url(#p2b008edd91)" style="fill: #0000ff"/>
    <path d="M 204.284748 272.169979 
L 204.852653 272.113188 
L 204.171167 271.034168 
L 210.020594 272.169979 
L 204.51191 274.441601 
L 204.966235 273.249 
L 204.398329 273.30579 
L 204.284748 272.169979 
" clip-path="url(#p2b008edd91)" style="fill: #0000ff"/>
    <path d="M 204.21376 254.785364 
L 204.781665 254.657585 
L 203.958202 253.649553 
L 210.020594 254.075482 
L 204.724875 257.056986 
L 205.037223 255.793396 
L 204.469317 255.921175 
L 204.21376 254.785364 
" clip-path="url(#p2b008edd91)" style="fill: #0000ff"/>
    <path d="M 204.114376 237.400748 
L 204.682282 237.173586 
L 203.660052 236.264937 
L 210.020594 235.697032 
L 205.023025 239.672371 
L 205.136606 238.309397 
L 204.568701 238.536559 
L 204.114376 237.400748 
" clip-path="url(#p2b008edd91)" style="fill: #0000ff"/>
    <path d="M 204.015738 220.062757 
L 205.003259 219.445556 
L 203.830376 218.728794 
L 210.020594 217.034629 
L 205.785182 221.856483 
L 205.654861 220.488119 
L 204.667339 221.10532 
L 204.015738 220.062757 
" clip-path="url(#p2b008edd91)" style="fill: #0000ff"/>
    <path d="M 203.930312 202.742505 
L 205.497108 201.332389 
L 204.217738 200.82978 
L 210.020594 198.088273 
L 206.685094 203.571286 
L 206.31956 202.246225 
L 204.752764 203.656341 
L 203.930312 202.742505 
" clip-path="url(#p2b008edd91)" style="fill: #0000ff"/>
    <path d="M 203.865339 185.426073 
L 206.045784 182.755028 
L 204.70465 182.453758 
L 210.020594 178.857965 
L 207.561849 184.786165 
L 206.998184 183.532497 
L 204.817738 186.203542 
L 203.865339 185.426073 
" clip-path="url(#p2b008edd91)" style="fill: #0000ff"/>
    <path d="M 203.820257 168.104391 
L 206.567104 163.709436 
L 205.19874 163.579116 
L 210.020594 159.343703 
L 208.326429 165.533921 
L 207.609667 164.361038 
L 204.86282 168.755993 
L 203.820257 168.104391 
" clip-path="url(#p2b008edd91)" style="fill: #0000ff"/>
    <path d="M 203.790362 150.773391 
L 207.019744 144.233892 
L 205.645206 144.240696 
L 210.020594 139.545489 
L 208.952264 145.873812 
L 208.122097 144.778264 
L 204.892715 151.317763 
L 203.790362 150.773391 
" clip-path="url(#p2b008edd91)" style="fill: #0000ff"/>
    <path d="M 203.770785 133.43266 
L 207.395129 124.3718 
L 206.025322 124.485951 
L 210.020594 119.463323 
L 209.449841 125.855758 
L 208.536636 124.828403 
L 204.912292 133.889263 
L 203.770785 133.43266 
" clip-path="url(#p2b008edd91)" style="fill: #0000ff"/>
    <path d="M 203.757883 116.083402 
L 207.700444 104.157156 
L 206.34019 104.354923 
L 210.020594 99.097203 
L 209.842121 105.512586 
L 208.867755 104.543043 
L 204.925194 116.46929 
L 203.757883 116.083402 
" clip-path="url(#p2b008edd91)" style="fill: #0000ff"/>
    <path d="M 203.749245 98.727205 
L 207.947566 83.613248 
L 206.598453 83.87649 
L 210.020594 78.447131 
L 210.152215 84.863646 
L 209.132153 83.9423 
L 204.933832 99.056257 
L 203.749245 98.727205 
" clip-path="url(#p2b008edd91)" style="fill: #0000ff"/>
    <path d="M 203.743346 81.365531 
L 208.148144 62.755257 
L 206.810175 63.070281 
L 210.020594 57.513105 
L 210.399332 63.919786 
L 209.34453 63.038425 
L 204.939731 81.648699 
L 203.743346 81.365531 
" clip-path="url(#p2b008edd91)" style="fill: #0000ff"/>
    <path d="M 203.739233 63.999581 
L 208.312014 41.592954 
L 206.984484 41.949421 
L 210.020594 36.295128 
L 210.598315 42.686937 
L 209.516624 41.838793 
L 204.943844 64.245419 
L 203.739233 63.999581 
" clip-path="url(#p2b008edd91)" style="fill: #0000ff"/>
    <path d="M 221.726154 306.892395 
L 222.440635 306.892395 
L 221.825915 305.662955 
L 227.973115 307.507115 
L 221.825915 309.351275 
L 222.440635 308.121835 
L 221.726154 308.121835 
L 221.726154 306.892395 
" clip-path="url(#p2b008edd91)" style="fill: #0000ff"/>
    <path d="M 221.712187 289.507939 
L 222.428096 289.491668 
L 221.7856 288.276513 
L 227.973115 289.980524 
L 221.869404 291.963881 
L 222.456031 290.720791 
L 221.740121 290.737061 
L 221.712187 289.507939 
" clip-path="url(#p2b008edd91)" style="fill: #0000ff"/>
    <path d="M 221.6705 272.125689 
L 222.407702 272.058671 
L 221.684198 270.889934 
L 227.973115 272.169979 
L 222.018123 274.563107 
L 222.51901 273.283062 
L 221.781808 273.35008 
L 221.6705 272.125689 
" clip-path="url(#p2b008edd91)" style="fill: #0000ff"/>
    <path d="M 221.602966 254.751019 
L 222.429674 254.58192 
L 221.581049 253.500606 
L 227.973115 254.075482 
L 222.320174 257.114109 
L 222.676049 255.78642 
L 221.849341 255.95552 
L 221.602966 254.751019 
" clip-path="url(#p2b008edd91)" style="fill: #0000ff"/>
    <path d="M 221.516078 237.390944 
L 222.56365 237.010008 
L 221.565788 236.064665 
L 227.973115 235.697032 
L 222.826246 239.530924 
L 222.983803 238.165428 
L 221.93623 238.546364 
L 221.516078 237.390944 
" clip-path="url(#p2b008edd91)" style="fill: #0000ff"/>
    <path d="M 221.422476 220.049566 
L 222.859187 219.233254 
L 221.717359 218.467986 
L 227.973115 217.034629 
L 223.539424 221.67482 
L 223.466541 220.302198 
L 222.029831 221.118511 
L 221.422476 220.049566 
" clip-path="url(#p2b008edd91)" style="fill: #0000ff"/>
    <path d="M 221.33689 202.723656 
L 223.301948 201.115881 
L 222.047653 200.553611 
L 227.973115 198.088273 
L 224.383237 203.408213 
L 224.080476 202.067415 
L 222.115418 203.67519 
L 221.33689 202.723656 
" clip-path="url(#p2b008edd91)" style="fill: #0000ff"/>
    <path d="M 221.268772 185.404098 
L 223.819343 182.563689 
L 222.49387 182.199651 
L 227.973115 178.857965 
L 225.23816 184.663911 
L 224.734106 183.385109 
L 222.183535 186.225518 
L 221.268772 185.404098 
" clip-path="url(#p2b008edd91)" style="fill: #0000ff"/>
    <path d="M 221.219599 168.081936 
L 224.332251 163.554442 
L 222.970884 163.364484 
L 227.973115 159.343703 
L 226.010214 165.454024 
L 225.345361 164.250955 
L 222.232709 168.778449 
L 221.219599 168.081936 
" clip-path="url(#p2b008edd91)" style="fill: #0000ff"/>
    <path d="M 221.185985 150.752152 
L 224.792121 144.113584 
L 223.418358 144.066903 
L 227.973115 139.545489 
L 226.659371 145.827453 
L 225.872458 144.700434 
L 222.266323 151.339002 
L 221.185985 150.752152 
" clip-path="url(#p2b008edd91)" style="fill: #0000ff"/>
    <path d="M 221.163491 133.41339 
L 225.182309 124.279713 
L 223.809413 124.347233 
L 227.973115 119.463323 
L 227.185388 125.832662 
L 226.307634 124.774856 
L 222.288816 133.908533 
L 221.163491 133.41339 
" clip-path="url(#p2b008edd91)" style="fill: #0000ff"/>
    <path d="M 221.148444 116.06627 
L 225.504719 104.086515 
L 224.139223 104.244072 
L 227.973115 99.097203 
L 227.605481 105.50453 
L 226.660138 104.506668 
L 222.303864 116.486422 
L 221.148444 116.06627 
" clip-path="url(#p2b008edd91)" style="fill: #0000ff"/>
    <path d="M 221.138265 98.712098 
L 225.768533 83.558494 
L 224.413124 83.787117 
L 227.973115 78.447131 
L 227.940455 84.864913 
L 226.94431 83.917759 
L 222.314042 99.071363 
L 221.138265 98.712098 
" clip-path="url(#p2b008edd91)" style="fill: #0000ff"/>
    <path d="M 221.131265 81.352233 
L 225.984287 62.712219 
L 224.639628 62.997343 
L 227.973115 57.513105 
L 228.208958 63.926636 
L 227.174064 63.021983 
L 222.321042 81.661998 
L 221.131265 81.352233 
" clip-path="url(#p2b008edd91)" style="fill: #0000ff"/>
    <path d="M 221.126362 63.987853 
L 226.161497 41.558611 
L 224.827266 41.889109 
L 227.973115 36.295128 
L 228.426019 42.696992 
L 227.361082 41.827905 
L 222.325946 64.257147 
L 221.126362 63.987853 
" clip-path="url(#p2b008edd91)" style="fill: #0000ff"/>
    <path d="M 239.110769 306.892395 
L 240.393156 306.892395 
L 239.778436 305.662955 
L 245.925636 307.507115 
L 239.778436 309.351275 
L 240.393156 308.121835 
L 239.110769 308.121835 
L 239.110769 306.892395 
" clip-path="url(#p2b008edd91)" style="fill: #0000ff"/>
    <path d="M 239.097965 289.507913 
L 240.381552 289.481172 
L 239.741358 288.264803 
L 245.925636 289.980524 
L 239.818181 291.952322 
L 240.40716 290.710345 
L 239.123573 290.737087 
L 239.097965 289.507913 
" clip-path="url(#p2b008edd91)" style="fill: #0000ff"/>
    <path d="M 239.05972 272.125288 
L 240.361217 272.01683 
L 239.646521 270.842686 
L 245.925636 272.169979 
L 239.952819 274.518266 
L 240.463316 273.242023 
L 239.161819 273.350481 
L 239.05972 272.125288 
" clip-path="url(#p2b008edd91)" style="fill: #0000ff"/>
    <path d="M 238.997483 254.749078 
L 240.374629 254.490863 
L 239.543867 253.395767 
L 245.925636 254.075482 
L 240.223582 257.020914 
L 240.601201 255.699246 
L 239.224055 255.95746 
L 238.997483 254.749078 
" clip-path="url(#p2b008edd91)" style="fill: #0000ff"/>
    <path d="M 238.916378 237.385479 
L 240.482673 236.863381 
L 239.510715 235.891423 
L 245.925636 235.697032 
L 240.677065 239.390471 
L 240.871456 238.02973 
L 239.305161 238.551828 
L 238.916378 237.385479 
" clip-path="url(#p2b008edd91)" style="fill: #0000ff"/>
    <path d="M 238.826809 220.038835 
L 240.734841 219.045068 
L 239.621717 218.23862 
L 245.925636 217.034629 
L 241.325479 221.509843 
L 241.302762 220.135475 
L 239.39473 221.129242 
L 238.826809 220.038835 
" clip-path="url(#p2b008edd91)" style="fill: #0000ff"/>
    <path d="M 238.741937 202.707647 
L 241.13082 200.915985 
L 239.90138 200.301265 
L 245.925636 198.088273 
L 242.114372 203.251921 
L 241.868484 201.899537 
L 239.479601 203.691199 
L 238.741937 202.707647 
" clip-path="url(#p2b008edd91)" style="fill: #0000ff"/>
    <path d="M 238.671639 185.384639 
L 241.614988 182.37997 
L 240.306558 181.958764 
L 245.925636 178.857965 
L 242.941341 184.539776 
L 242.493249 183.240308 
L 239.5499 186.244976 
L 238.671639 185.384639 
" clip-path="url(#p2b008edd91)" style="fill: #0000ff"/>
    <path d="M 238.618993 168.06136 
L 242.114372 163.400855 
L 240.761988 163.154967 
L 245.925636 159.343703 
L 243.712644 165.367959 
L 243.097924 164.138519 
L 239.602545 168.799024 
L 238.618993 168.06136 
" clip-path="url(#p2b008edd91)" style="fill: #0000ff"/>
    <path d="M 238.581931 150.732191 
L 242.576326 143.991649 
L 241.205263 143.893716 
L 245.925636 139.545489 
L 244.378294 145.774031 
L 243.634003 144.618421 
L 239.639608 151.358963 
L 238.581931 150.732191 
" clip-path="url(#p2b008edd91)" style="fill: #0000ff"/>
    <path d="M 238.556585 133.394953 
L 242.977376 124.184972 
L 241.602999 124.20714 
L 245.925636 119.463323 
L 244.928104 125.80319 
L 244.085744 124.716989 
L 239.664953 133.92697 
L 238.556585 133.394953 
" clip-path="url(#p2b008edd91)" style="fill: #0000ff"/>
    <path d="M 238.539367 116.049674 
L 243.314186 104.013151 
L 241.94471 104.131209 
L 245.925636 99.097203 
L 245.373123 105.491241 
L 244.456991 104.466495 
L 239.682171 116.503018 
L 238.539367 116.049674 
" clip-path="url(#p2b008edd91)" style="fill: #0000ff"/>
    <path d="M 238.527595 98.697339 
L 243.592938 83.50131 
L 242.232197 83.695702 
L 245.925636 78.447131 
L 245.731244 84.862051 
L 244.759287 83.890094 
L 239.693944 99.086122 
L 238.527595 98.697339 
" clip-path="url(#p2b008edd91)" style="fill: #0000ff"/>
    <path d="M 238.519438 81.339163 
L 243.822736 62.667136 
L 242.472121 62.922563 
L 245.925636 57.513105 
L 246.020109 63.930275 
L 245.005398 63.00304 
L 239.702101 81.675067 
L 238.519438 81.339163 
" clip-path="url(#p2b008edd91)" style="fill: #0000ff"/>
    <path d="M 238.513693 63.976277 
L 244.012556 41.522588 
L 242.672182 41.827218 
L 245.925636 36.295128 
L 246.254637 42.704554 
L 245.206708 41.815033 
L 239.707845 64.268723 
L 238.513693 63.976277 
" clip-path="url(#p2b008edd91)" style="fill: #0000ff"/>
    <path d="M 256.495385 306.892395 
L 258.345677 306.892395 
L 257.730957 305.662955 
L 263.878157 307.507115 
L 257.730957 309.351275 
L 258.345677 308.121835 
L 256.495385 308.121835 
L 256.495385 306.892395 
" clip-path="url(#p2b008edd91)" style="fill: #0000ff"/>
    <path d="M 256.483565 289.507894 
L 258.33488 289.472291 
L 257.696635 288.254898 
L 263.878157 289.980524 
L 257.767551 291.942536 
L 258.358519 290.701504 
L 256.507204 290.737106 
L 256.483565 289.507894 
" clip-path="url(#p2b008edd91)" style="fill: #0000ff"/>
    <path d="M 256.448238 272.124975 
L 258.314826 271.981392 
L 257.607623 270.80272 
L 263.878157 272.169979 
L 257.890504 274.480176 
L 258.40912 273.20721 
L 256.542531 273.350794 
L 256.448238 272.124975 
" clip-path="url(#p2b008edd91)" style="fill: #0000ff"/>
    <path d="M 256.390549 254.747555 
L 258.32189 254.413284 
L 257.506505 253.30669 
L 263.878157 254.075482 
L 258.135516 256.940978 
L 258.53156 255.624713 
L 256.60022 255.958984 
L 256.390549 254.747555 
" clip-path="url(#p2b008edd91)" style="fill: #0000ff"/>
    <path d="M 256.314604 237.381117 
L 258.409548 236.736519 
L 257.460451 235.742227 
L 263.878157 235.697032 
L 258.545134 239.267446 
L 258.771109 237.911592 
L 256.676165 238.55619 
L 256.314604 237.381117 
" clip-path="url(#p2b008edd91)" style="fill: #0000ff"/>
    <path d="M 256.22903 220.030021 
L 258.625641 218.877804 
L 257.538914 218.036123 
L 263.878157 217.034629 
L 259.137042 221.36023 
L 259.158351 219.985839 
L 256.761739 221.138056 
L 256.22903 220.030021 
" clip-path="url(#p2b008edd91)" style="fill: #0000ff"/>
    <path d="M 256.14548 202.694005 
L 258.97949 200.731998 
L 257.774263 200.071067 
L 263.878157 198.088273 
L 259.873691 203.103575 
L 259.6793 201.742834 
L 256.845289 203.704841 
L 256.14548 202.694005 
" clip-path="url(#p2b008edd91)" style="fill: #0000ff"/>
    <path d="M 256.073809 185.367421 
L 259.430103 182.204759 
L 258.139565 181.731562 
L 263.878157 178.857965 
L 260.66902 184.415881 
L 260.273255 183.099532 
L 256.91696 186.262194 
L 256.073809 185.367421 
" clip-path="url(#p2b008edd91)" style="fill: #0000ff"/>
    <path d="M 256.018292 168.042554 
L 259.912323 163.249901 
L 258.5705 162.951718 
L 263.878157 159.343703 
L 261.433056 165.277545 
L 260.866509 164.025176 
L 256.972477 168.81783 
L 256.018292 168.042554 
" clip-path="url(#p2b008edd91)" style="fill: #0000ff"/>
    <path d="M 255.978088 150.713485 
L 260.372035 143.869067 
L 259.00535 143.722181 
L 263.878157 139.545489 
L 262.10913 145.714731 
L 261.406629 144.533251 
L 257.012681 151.377669 
L 255.978088 150.713485 
" clip-path="url(#p2b008edd91)" style="fill: #0000ff"/>
    <path d="M 255.949995 133.377359 
L 260.780342 124.088229 
L 259.40596 124.066413 
L 263.878157 119.463323 
L 262.678299 125.76803 
L 261.871122 124.655434 
L 257.040775 133.944564 
L 255.949995 133.377359 
" clip-path="url(#p2b008edd91)" style="fill: #0000ff"/>
    <path d="M 255.930609 116.033633 
L 261.128962 103.937466 
L 259.756699 104.016814 
L 263.878157 99.097203 
L 263.14535 105.473094 
L 262.258513 104.422892 
L 257.06016 116.519059 
L 255.930609 116.033633 
" clip-path="url(#p2b008edd91)" style="fill: #0000ff"/>
    <path d="M 255.917207 98.682945 
L 261.420903 83.44194 
L 260.055763 83.602545 
L 263.878157 78.447131 
L 263.524826 84.855262 
L 262.577258 83.859512 
L 257.073562 99.100517 
L 255.917207 98.682945 
" clip-path="url(#p2b008edd91)" style="fill: #0000ff"/>
    <path d="M 255.907848 81.326335 
L 261.663596 62.620153 
L 260.307743 62.846129 
L 263.878157 57.513105 
L 263.832962 63.930812 
L 262.838669 62.981714 
L 257.082921 81.687896 
L 255.907848 81.326335 
" clip-path="url(#p2b008edd91)" style="fill: #0000ff"/>
    <path d="M 255.90122 63.964864 
L 261.865272 41.484974 
L 260.519307 41.763868 
L 263.878157 36.295128 
L 264.084296 42.709681 
L 263.053602 41.800246 
L 257.089549 64.280136 
L 255.90122 63.964864 
" clip-path="url(#p2b008edd91)" style="fill: #0000ff"/>
    <path d="M 273.88 306.892395 
L 276.298198 306.892395 
L 275.683478 305.662955 
L 281.830678 307.507115 
L 275.683478 309.351275 
L 276.298198 308.121835 
L 273.88 308.121835 
L 273.88 306.892395 
" clip-path="url(#p2b008edd91)" style="fill: #0000ff"/>
    <path d="M 273.869025 289.507878 
L 276.288104 289.46468 
L 275.651532 288.246412 
L 281.830678 289.980524 
L 275.717384 291.934144 
L 276.310055 290.693924 
L 273.890975 290.737122 
L 273.869025 289.507878 
" clip-path="url(#p2b008edd91)" style="fill: #0000ff"/>
    <path d="M 273.836203 272.124727 
L 276.268461 271.950994 
L 275.567709 270.768475 
L 281.830678 272.169979 
L 275.830491 274.447422 
L 276.356055 273.17731 
L 273.923797 273.351042 
L 273.836203 272.124727 
" clip-path="url(#p2b008edd91)" style="fill: #0000ff"/>
    <path d="M 273.782457 254.746338 
L 276.27075 254.346433 
L 275.468733 253.230113 
L 281.830678 254.075482 
L 276.053988 256.871703 
L 276.465835 255.560297 
L 273.977543 255.960201 
L 273.782457 254.746338 
" clip-path="url(#p2b008edd91)" style="fill: #0000ff"/>
    <path d="M 273.711123 237.377586 
L 276.342189 236.625853 
L 275.413368 235.612593 
L 281.830678 235.697032 
L 276.426628 239.159001 
L 276.679942 237.807989 
L 274.048877 238.559722 
L 273.711123 237.377586 
" clip-path="url(#p2b008edd91)" style="fill: #0000ff"/>
    <path d="M 273.629409 220.022714 
L 276.52817 218.728625 
L 275.465663 217.856568 
L 281.830678 217.034629 
L 276.96921 221.224512 
L 277.029352 219.851273 
L 274.130591 221.145363 
L 273.629409 220.022714 
" clip-path="url(#p2b008edd91)" style="fill: #0000ff"/>
    <path d="M 273.547585 202.682334 
L 276.84446 200.562914 
L 275.662542 199.86115 
L 281.830678 198.088273 
L 277.657029 202.963686 
L 277.509289 201.597093 
L 274.212415 203.716512 
L 273.547585 202.682334 
" clip-path="url(#p2b008edd91)" style="fill: #0000ff"/>
    <path d="M 273.475204 185.352184 
L 277.262266 182.038504 
L 275.990051 181.518052 
L 281.830678 178.857965 
L 278.418826 184.293796 
L 278.071858 182.963752 
L 274.284796 186.277432 
L 273.475204 185.352184 
" clip-path="url(#p2b008edd91)" style="fill: #0000ff"/>
    <path d="M 273.417376 168.025396 
L 277.72489 163.102523 
L 276.394846 162.755555 
L 281.830678 159.343703 
L 279.17059 165.184331 
L 278.650138 163.912115 
L 274.342624 168.834988 
L 273.417376 168.025396 
" clip-path="url(#p2b008edd91)" style="fill: #0000ff"/>
    <path d="M 273.374357 150.695997 
L 278.178815 143.746693 
L 276.817949 143.553175 
L 281.830678 139.545489 
L 279.851805 145.650656 
L 279.1901 144.445853 
L 274.385643 151.395157 
L 273.374357 150.695997 
" clip-path="url(#p2b008edd91)" style="fill: #0000ff"/>
    <path d="M 273.343653 133.360607 
L 278.591143 123.99009 
L 277.218095 123.925729 
L 281.830678 119.463323 
L 280.436176 125.727854 
L 279.663836 124.590799 
L 274.416347 133.961316 
L 273.343653 133.360607 
" clip-path="url(#p2b008edd91)" style="fill: #0000ff"/>
    <path d="M 273.322129 116.018158 
L 278.949115 103.85985 
L 277.575186 103.901345 
L 281.830678 99.097203 
L 280.922409 105.450473 
L 280.064856 104.376226 
L 274.437871 116.534534 
L 273.322129 116.018158 
" clip-path="url(#p2b008edd91)" style="fill: #0000ff"/>
    <path d="M 273.307078 98.668928 
L 279.252529 83.380625 
L 277.883882 83.507941 
L 281.830678 78.447131 
L 281.321414 84.844759 
L 280.398373 83.826231 
L 274.452922 99.114534 
L 273.307078 98.668928 
" clip-path="url(#p2b008edd91)" style="fill: #0000ff"/>
    <path d="M 273.296481 81.31376 
L 279.50696 62.571421 
L 278.146567 62.768229 
L 281.830678 57.513105 
L 281.647681 63.928361 
L 280.673998 62.958131 
L 274.463519 81.700471 
L 273.296481 81.31376 
" clip-path="url(#p2b008edd91)" style="fill: #0000ff"/>
    <path d="M 273.288932 63.953623 
L 279.719721 41.445863 
L 278.368708 41.699178 
L 281.830678 36.295128 
L 281.915116 42.712437 
L 280.901857 41.783616 
L 274.471068 64.291377 
L 273.288932 63.953623 
" clip-path="url(#p2b008edd91)" style="fill: #0000ff"/>
   </g>
   <g id="matplotlib.axis_1">
    <g id="xtick_1">
     <g id="line2d_1">
      <defs>
       <path id="mb5f46d429a" d="M 0 0 
L 0 3.5 
" style="stroke: #000000; stroke-width: 0.8"/>
      </defs>
      <g>
       <use xlink:href="#mb5f46d429a" x="30.495385" y="307.507115" style="stroke: #000000; stroke-width: 0.8"/>
      </g>
     </g>
    </g>
    <g id="xtick_2">
     <g id="line2d_2">
      <g>
       <use xlink:href="#mb5f46d429a" x="65.264615" y="307.507115" style="stroke: #000000; stroke-width: 0.8"/>
      </g>
     </g>
     <g id="text_1">
      <!-- 0.5 -->
      <g transform="translate(57.313053 322.105553) scale(0.1 -0.1)">
       <defs>
        <path id="DejaVuSans-30" d="M 2034 4250 
Q 1547 4250 1301 3770 
Q 1056 3291 1056 2328 
Q 1056 1369 1301 889 
Q 1547 409 2034 409 
Q 2525 409 2770 889 
Q 3016 1369 3016 2328 
Q 3016 3291 2770 3770 
Q 2525 4250 2034 4250 
z
M 2034 4750 
Q 2819 4750 3233 4129 
Q 3647 3509 3647 2328 
Q 3647 1150 3233 529 
Q 2819 -91 2034 -91 
Q 1250 -91 836 529 
Q 422 1150 422 2328 
Q 422 3509 836 4129 
Q 1250 4750 2034 4750 
z
" transform="scale(0.015625)"/>
        <path id="DejaVuSans-2e" d="M 684 794 
L 1344 794 
L 1344 0 
L 684 0 
L 684 794 
z
" transform="scale(0.015625)"/>
        <path id="DejaVuSans-35" d="M 691 4666 
L 3169 4666 
L 3169 4134 
L 1269 4134 
L 1269 2991 
Q 1406 3038 1543 3061 
Q 1681 3084 1819 3084 
Q 2600 3084 3056 2656 
Q 3513 2228 3513 1497 
Q 3513 744 3044 326 
Q 2575 -91 1722 -91 
Q 1428 -91 1123 -41 
Q 819 9 494 109 
L 494 744 
Q 775 591 1075 516 
Q 1375 441 1709 441 
Q 2250 441 2565 725 
Q 2881 1009 2881 1497 
Q 2881 1984 2565 2268 
Q 2250 2553 1709 2553 
Q 1456 2553 1204 2497 
Q 953 2441 691 2322 
L 691 4666 
z
" transform="scale(0.015625)"/>
       </defs>
       <use xlink:href="#DejaVuSans-30"/>
       <use xlink:href="#DejaVuSans-2e" x="63.623047"/>
       <use xlink:href="#DejaVuSans-35" x="95.410156"/>
      </g>
     </g>
    </g>
    <g id="xtick_3">
     <g id="line2d_3">
      <g>
       <use xlink:href="#mb5f46d429a" x="100.033846" y="307.507115" style="stroke: #000000; stroke-width: 0.8"/>
      </g>
     </g>
     <g id="text_2">
      <!-- 1.0 -->
      <g transform="translate(92.082284 322.105553) scale(0.1 -0.1)">
       <defs>
        <path id="DejaVuSans-31" d="M 794 531 
L 1825 531 
L 1825 4091 
L 703 3866 
L 703 4441 
L 1819 4666 
L 2450 4666 
L 2450 531 
L 3481 531 
L 3481 0 
L 794 0 
L 794 531 
z
" transform="scale(0.015625)"/>
       </defs>
       <use xlink:href="#DejaVuSans-31"/>
       <use xlink:href="#DejaVuSans-2e" x="63.623047"/>
       <use xlink:href="#DejaVuSans-30" x="95.410156"/>
      </g>
     </g>
    </g>
    <g id="xtick_4">
     <g id="line2d_4">
      <g>
       <use xlink:href="#mb5f46d429a" x="134.803077" y="307.507115" style="stroke: #000000; stroke-width: 0.8"/>
      </g>
     </g>
     <g id="text_3">
      <!-- 1.5 -->
      <g transform="translate(126.851514 322.105553) scale(0.1 -0.1)">
       <use xlink:href="#DejaVuSans-31"/>
       <use xlink:href="#DejaVuSans-2e" x="63.623047"/>
       <use xlink:href="#DejaVuSans-35" x="95.410156"/>
      </g>
     </g>
    </g>
    <g id="xtick_5">
     <g id="line2d_5">
      <g>
       <use xlink:href="#mb5f46d429a" x="169.572308" y="307.507115" style="stroke: #000000; stroke-width: 0.8"/>
      </g>
     </g>
     <g id="text_4">
      <!-- 2.0 -->
      <g transform="translate(161.620745 322.105553) scale(0.1 -0.1)">
       <defs>
        <path id="DejaVuSans-32" d="M 1228 531 
L 3431 531 
L 3431 0 
L 469 0 
L 469 531 
Q 828 903 1448 1529 
Q 2069 2156 2228 2338 
Q 2531 2678 2651 2914 
Q 2772 3150 2772 3378 
Q 2772 3750 2511 3984 
Q 2250 4219 1831 4219 
Q 1534 4219 1204 4116 
Q 875 4013 500 3803 
L 500 4441 
Q 881 4594 1212 4672 
Q 1544 4750 1819 4750 
Q 2544 4750 2975 4387 
Q 3406 4025 3406 3419 
Q 3406 3131 3298 2873 
Q 3191 2616 2906 2266 
Q 2828 2175 2409 1742 
Q 1991 1309 1228 531 
z
" transform="scale(0.015625)"/>
       </defs>
       <use xlink:href="#DejaVuSans-32"/>
       <use xlink:href="#DejaVuSans-2e" x="63.623047"/>
       <use xlink:href="#DejaVuSans-30" x="95.410156"/>
      </g>
     </g>
    </g>
    <g id="xtick_6">
     <g id="line2d_6">
      <g>
       <use xlink:href="#mb5f46d429a" x="204.341538" y="307.507115" style="stroke: #000000; stroke-width: 0.8"/>
      </g>
     </g>
     <g id="text_5">
      <!-- 2.5 -->
      <g transform="translate(196.389976 322.105553) scale(0.1 -0.1)">
       <use xlink:href="#DejaVuSans-32"/>
       <use xlink:href="#DejaVuSans-2e" x="63.623047"/>
       <use xlink:href="#DejaVuSans-35" x="95.410156"/>
      </g>
     </g>
    </g>
    <g id="xtick_7">
     <g id="line2d_7">
      <g>
       <use xlink:href="#mb5f46d429a" x="239.110769" y="307.507115" style="stroke: #000000; stroke-width: 0.8"/>
      </g>
     </g>
     <g id="text_6">
      <!-- 3.0 -->
      <g transform="translate(231.159207 322.105553) scale(0.1 -0.1)">
       <defs>
        <path id="DejaVuSans-33" d="M 2597 2516 
Q 3050 2419 3304 2112 
Q 3559 1806 3559 1356 
Q 3559 666 3084 287 
Q 2609 -91 1734 -91 
Q 1441 -91 1130 -33 
Q 819 25 488 141 
L 488 750 
Q 750 597 1062 519 
Q 1375 441 1716 441 
Q 2309 441 2620 675 
Q 2931 909 2931 1356 
Q 2931 1769 2642 2001 
Q 2353 2234 1838 2234 
L 1294 2234 
L 1294 2753 
L 1863 2753 
Q 2328 2753 2575 2939 
Q 2822 3125 2822 3475 
Q 2822 3834 2567 4026 
Q 2313 4219 1838 4219 
Q 1578 4219 1281 4162 
Q 984 4106 628 3988 
L 628 4550 
Q 988 4650 1302 4700 
Q 1616 4750 1894 4750 
Q 2613 4750 3031 4423 
Q 3450 4097 3450 3541 
Q 3450 3153 3228 2886 
Q 3006 2619 2597 2516 
z
" transform="scale(0.015625)"/>
       </defs>
       <use xlink:href="#DejaVuSans-33"/>
       <use xlink:href="#DejaVuSans-2e" x="63.623047"/>
       <use xlink:href="#DejaVuSans-30" x="95.410156"/>
      </g>
     </g>
    </g>
    <g id="xtick_8">
     <g id="line2d_8">
      <g>
       <use xlink:href="#mb5f46d429a" x="273.88" y="307.507115" style="stroke: #000000; stroke-width: 0.8"/>
      </g>
     </g>
     <g id="text_7">
      <!-- 3.5 -->
      <g transform="translate(265.928437 322.105553) scale(0.1 -0.1)">
       <use xlink:href="#DejaVuSans-33"/>
       <use xlink:href="#DejaVuSans-2e" x="63.623047"/>
       <use xlink:href="#DejaVuSans-35" x="95.410156"/>
      </g>
     </g>
    </g>
    <g id="xtick_9">
     <g id="line2d_9">
      <g>
       <use xlink:href="#mb5f46d429a" x="308.649231" y="307.507115" style="stroke: #000000; stroke-width: 0.8"/>
      </g>
     </g>
     <g id="text_8">
      <!-- 4.0 -->
      <g transform="translate(300.697668 322.105553) scale(0.1 -0.1)">
       <defs>
        <path id="DejaVuSans-34" d="M 2419 4116 
L 825 1625 
L 2419 1625 
L 2419 4116 
z
M 2253 4666 
L 3047 4666 
L 3047 1625 
L 3713 1625 
L 3713 1100 
L 3047 1100 
L 3047 0 
L 2419 0 
L 2419 1100 
L 313 1100 
L 313 1709 
L 2253 4666 
z
" transform="scale(0.015625)"/>
       </defs>
       <use xlink:href="#DejaVuSans-34"/>
       <use xlink:href="#DejaVuSans-2e" x="63.623047"/>
       <use xlink:href="#DejaVuSans-30" x="95.410156"/>
      </g>
     </g>
    </g>
    <g id="xtick_10">
     <g id="line2d_10">
      <defs>
       <path id="ma50c184d89" d="M 0 0 
L 0 2 
" style="stroke: #000000; stroke-width: 0.6"/>
      </defs>
      <g>
       <use xlink:href="#ma50c184d89" x="9.633846" y="307.507115" style="stroke: #000000; stroke-width: 0.6"/>
      </g>
     </g>
    </g>
    <g id="xtick_11">
     <g id="line2d_11">
      <g>
       <use xlink:href="#ma50c184d89" x="16.587692" y="307.507115" style="stroke: #000000; stroke-width: 0.6"/>
      </g>
     </g>
    </g>
    <g id="xtick_12">
     <g id="line2d_12">
      <g>
       <use xlink:href="#ma50c184d89" x="23.541538" y="307.507115" style="stroke: #000000; stroke-width: 0.6"/>
      </g>
     </g>
    </g>
    <g id="xtick_13">
     <g id="line2d_13">
      <g>
       <use xlink:href="#ma50c184d89" x="37.449231" y="307.507115" style="stroke: #000000; stroke-width: 0.6"/>
      </g>
     </g>
    </g>
    <g id="xtick_14">
     <g id="line2d_14">
      <g>
       <use xlink:href="#ma50c184d89" x="44.403077" y="307.507115" style="stroke: #000000; stroke-width: 0.6"/>
      </g>
     </g>
    </g>
    <g id="xtick_15">
     <g id="line2d_15">
      <g>
       <use xlink:href="#ma50c184d89" x="51.356923" y="307.507115" style="stroke: #000000; stroke-width: 0.6"/>
      </g>
     </g>
    </g>
    <g id="xtick_16">
     <g id="line2d_16">
      <g>
       <use xlink:href="#ma50c184d89" x="58.310769" y="307.507115" style="stroke: #000000; stroke-width: 0.6"/>
      </g>
     </g>
    </g>
    <g id="xtick_17">
     <g id="line2d_17">
      <g>
       <use xlink:href="#ma50c184d89" x="72.218462" y="307.507115" style="stroke: #000000; stroke-width: 0.6"/>
      </g>
     </g>
    </g>
    <g id="xtick_18">
     <g id="line2d_18">
      <g>
       <use xlink:href="#ma50c184d89" x="79.172308" y="307.507115" style="stroke: #000000; stroke-width: 0.6"/>
      </g>
     </g>
    </g>
    <g id="xtick_19">
     <g id="line2d_19">
      <g>
       <use xlink:href="#ma50c184d89" x="86.126154" y="307.507115" style="stroke: #000000; stroke-width: 0.6"/>
      </g>
     </g>
    </g>
    <g id="xtick_20">
     <g id="line2d_20">
      <g>
       <use xlink:href="#ma50c184d89" x="93.08" y="307.507115" style="stroke: #000000; stroke-width: 0.6"/>
      </g>
     </g>
    </g>
    <g id="xtick_21">
     <g id="line2d_21">
      <g>
       <use xlink:href="#ma50c184d89" x="106.987692" y="307.507115" style="stroke: #000000; stroke-width: 0.6"/>
      </g>
     </g>
    </g>
    <g id="xtick_22">
     <g id="line2d_22">
      <g>
       <use xlink:href="#ma50c184d89" x="113.941538" y="307.507115" style="stroke: #000000; stroke-width: 0.6"/>
      </g>
     </g>
    </g>
    <g id="xtick_23">
     <g id="line2d_23">
      <g>
       <use xlink:href="#ma50c184d89" x="120.895385" y="307.507115" style="stroke: #000000; stroke-width: 0.6"/>
      </g>
     </g>
    </g>
    <g id="xtick_24">
     <g id="line2d_24">
      <g>
       <use xlink:href="#ma50c184d89" x="127.849231" y="307.507115" style="stroke: #000000; stroke-width: 0.6"/>
      </g>
     </g>
    </g>
    <g id="xtick_25">
     <g id="line2d_25">
      <g>
       <use xlink:href="#ma50c184d89" x="141.756923" y="307.507115" style="stroke: #000000; stroke-width: 0.6"/>
      </g>
     </g>
    </g>
    <g id="xtick_26">
     <g id="line2d_26">
      <g>
       <use xlink:href="#ma50c184d89" x="148.710769" y="307.507115" style="stroke: #000000; stroke-width: 0.6"/>
      </g>
     </g>
    </g>
    <g id="xtick_27">
     <g id="line2d_27">
      <g>
       <use xlink:href="#ma50c184d89" x="155.664615" y="307.507115" style="stroke: #000000; stroke-width: 0.6"/>
      </g>
     </g>
    </g>
    <g id="xtick_28">
     <g id="line2d_28">
      <g>
       <use xlink:href="#ma50c184d89" x="162.618462" y="307.507115" style="stroke: #000000; stroke-width: 0.6"/>
      </g>
     </g>
    </g>
    <g id="xtick_29">
     <g id="line2d_29">
      <g>
       <use xlink:href="#ma50c184d89" x="176.526154" y="307.507115" style="stroke: #000000; stroke-width: 0.6"/>
      </g>
     </g>
    </g>
    <g id="xtick_30">
     <g id="line2d_30">
      <g>
       <use xlink:href="#ma50c184d89" x="183.48" y="307.507115" style="stroke: #000000; stroke-width: 0.6"/>
      </g>
     </g>
    </g>
    <g id="xtick_31">
     <g id="line2d_31">
      <g>
       <use xlink:href="#ma50c184d89" x="190.433846" y="307.507115" style="stroke: #000000; stroke-width: 0.6"/>
      </g>
     </g>
    </g>
    <g id="xtick_32">
     <g id="line2d_32">
      <g>
       <use xlink:href="#ma50c184d89" x="197.387692" y="307.507115" style="stroke: #000000; stroke-width: 0.6"/>
      </g>
     </g>
    </g>
    <g id="xtick_33">
     <g id="line2d_33">
      <g>
       <use xlink:href="#ma50c184d89" x="211.295385" y="307.507115" style="stroke: #000000; stroke-width: 0.6"/>
      </g>
     </g>
    </g>
    <g id="xtick_34">
     <g id="line2d_34">
      <g>
       <use xlink:href="#ma50c184d89" x="218.249231" y="307.507115" style="stroke: #000000; stroke-width: 0.6"/>
      </g>
     </g>
    </g>
    <g id="xtick_35">
     <g id="line2d_35">
      <g>
       <use xlink:href="#ma50c184d89" x="225.203077" y="307.507115" style="stroke: #000000; stroke-width: 0.6"/>
      </g>
     </g>
    </g>
    <g id="xtick_36">
     <g id="line2d_36">
      <g>
       <use xlink:href="#ma50c184d89" x="232.156923" y="307.507115" style="stroke: #000000; stroke-width: 0.6"/>
      </g>
     </g>
    </g>
    <g id="xtick_37">
     <g id="line2d_37">
      <g>
       <use xlink:href="#ma50c184d89" x="246.064615" y="307.507115" style="stroke: #000000; stroke-width: 0.6"/>
      </g>
     </g>
    </g>
    <g id="xtick_38">
     <g id="line2d_38">
      <g>
       <use xlink:href="#ma50c184d89" x="253.018462" y="307.507115" style="stroke: #000000; stroke-width: 0.6"/>
      </g>
     </g>
    </g>
    <g id="xtick_39">
     <g id="line2d_39">
      <g>
       <use xlink:href="#ma50c184d89" x="259.972308" y="307.507115" style="stroke: #000000; stroke-width: 0.6"/>
      </g>
     </g>
    </g>
    <g id="xtick_40">
     <g id="line2d_40">
      <g>
       <use xlink:href="#ma50c184d89" x="266.926154" y="307.507115" style="stroke: #000000; stroke-width: 0.6"/>
      </g>
     </g>
    </g>
    <g id="xtick_41">
     <g id="line2d_41">
      <g>
       <use xlink:href="#ma50c184d89" x="280.833846" y="307.507115" style="stroke: #000000; stroke-width: 0.6"/>
      </g>
     </g>
    </g>
    <g id="xtick_42">
     <g id="line2d_42">
      <g>
       <use xlink:href="#ma50c184d89" x="287.787692" y="307.507115" style="stroke: #000000; stroke-width: 0.6"/>
      </g>
     </g>
    </g>
    <g id="xtick_43">
     <g id="line2d_43">
      <g>
       <use xlink:href="#ma50c184d89" x="294.741538" y="307.507115" style="stroke: #000000; stroke-width: 0.6"/>
      </g>
     </g>
    </g>
    <g id="xtick_44">
     <g id="line2d_44">
      <g>
       <use xlink:href="#ma50c184d89" x="301.695385" y="307.507115" style="stroke: #000000; stroke-width: 0.6"/>
      </g>
     </g>
    </g>
    <g id="text_9">
     <!-- $x$ -->
     <g transform="translate(322.56 307.507115) scale(0.16 -0.16)">
      <defs>
       <path id="Cmmi10-78" d="M 500 184 
Q 613 97 819 97 
Q 1019 97 1172 289 
Q 1325 481 1381 709 
L 1672 1844 
Q 1741 2153 1741 2266 
Q 1741 2425 1652 2544 
Q 1563 2663 1403 2663 
Q 1200 2663 1022 2536 
Q 844 2409 722 2214 
Q 600 2019 550 1819 
Q 538 1778 500 1778 
L 422 1778 
Q 372 1778 372 1838 
L 372 1856 
Q 434 2094 584 2320 
Q 734 2547 951 2687 
Q 1169 2828 1416 2828 
Q 1650 2828 1839 2703 
Q 2028 2578 2106 2363 
Q 2216 2559 2386 2693 
Q 2556 2828 2759 2828 
Q 2897 2828 3040 2779 
Q 3184 2731 3275 2631 
Q 3366 2531 3366 2381 
Q 3366 2219 3261 2101 
Q 3156 1984 2994 1984 
Q 2891 1984 2822 2050 
Q 2753 2116 2753 2216 
Q 2753 2350 2845 2451 
Q 2938 2553 3066 2572 
Q 2950 2663 2747 2663 
Q 2541 2663 2389 2472 
Q 2238 2281 2175 2047 
L 1894 916 
Q 1825 659 1825 494 
Q 1825 331 1917 214 
Q 2009 97 2163 97 
Q 2463 97 2698 361 
Q 2934 625 3009 941 
Q 3022 978 3059 978 
L 3138 978 
Q 3163 978 3178 961 
Q 3194 944 3194 922 
Q 3194 916 3188 903 
Q 3097 522 2806 225 
Q 2516 -72 2150 -72 
Q 1916 -72 1727 54 
Q 1538 181 1459 397 
Q 1359 209 1182 68 
Q 1006 -72 806 -72 
Q 669 -72 523 -23 
Q 378 25 287 125 
Q 197 225 197 378 
Q 197 528 301 651 
Q 406 775 563 775 
Q 669 775 741 711 
Q 813 647 813 544 
Q 813 409 723 309 
Q 634 209 500 184 
z
" transform="scale(0.015625)"/>
      </defs>
      <use xlink:href="#Cmmi10-78" transform="translate(0 0.8125)"/>
     </g>
    </g>
   </g>
   <g id="matplotlib.axis_2">
    <g id="ytick_1">
     <g id="line2d_45">
      <defs>
       <path id="m3bd4007041" d="M 0 0 
L -3.5 0 
" style="stroke: #000000; stroke-width: 0.8"/>
      </defs>
      <g>
       <use xlink:href="#m3bd4007041" x="30.495385" y="307.507115" style="stroke: #000000; stroke-width: 0.8"/>
      </g>
     </g>
    </g>
    <g id="ytick_2">
     <g id="line2d_46">
      <g>
       <use xlink:href="#m3bd4007041" x="30.495385" y="272.737885" style="stroke: #000000; stroke-width: 0.8"/>
      </g>
     </g>
     <g id="text_10">
      <!-- 0.5 -->
      <g transform="translate(7.59226 276.537103) scale(0.1 -0.1)">
       <use xlink:href="#DejaVuSans-30"/>
       <use xlink:href="#DejaVuSans-2e" x="63.623047"/>
       <use xlink:href="#DejaVuSans-35" x="95.410156"/>
      </g>
     </g>
    </g>
    <g id="ytick_3">
     <g id="line2d_47">
      <g>
       <use xlink:href="#m3bd4007041" x="30.495385" y="237.968654" style="stroke: #000000; stroke-width: 0.8"/>
      </g>
     </g>
     <g id="text_11">
      <!-- 1.0 -->
      <g transform="translate(7.59226 241.767873) scale(0.1 -0.1)">
       <use xlink:href="#DejaVuSans-31"/>
       <use xlink:href="#DejaVuSans-2e" x="63.623047"/>
       <use xlink:href="#DejaVuSans-30" x="95.410156"/>
      </g>
     </g>
    </g>
    <g id="ytick_4">
     <g id="line2d_48">
      <g>
       <use xlink:href="#m3bd4007041" x="30.495385" y="203.199423" style="stroke: #000000; stroke-width: 0.8"/>
      </g>
     </g>
     <g id="text_12">
      <!-- 1.5 -->
      <g transform="translate(7.59226 206.998642) scale(0.1 -0.1)">
       <use xlink:href="#DejaVuSans-31"/>
       <use xlink:href="#DejaVuSans-2e" x="63.623047"/>
       <use xlink:href="#DejaVuSans-35" x="95.410156"/>
      </g>
     </g>
    </g>
    <g id="ytick_5">
     <g id="line2d_49">
      <g>
       <use xlink:href="#m3bd4007041" x="30.495385" y="168.430192" style="stroke: #000000; stroke-width: 0.8"/>
      </g>
     </g>
     <g id="text_13">
      <!-- 2.0 -->
      <g transform="translate(7.59226 172.229411) scale(0.1 -0.1)">
       <use xlink:href="#DejaVuSans-32"/>
       <use xlink:href="#DejaVuSans-2e" x="63.623047"/>
       <use xlink:href="#DejaVuSans-30" x="95.410156"/>
      </g>
     </g>
    </g>
    <g id="ytick_6">
     <g id="line2d_50">
      <g>
       <use xlink:href="#m3bd4007041" x="30.495385" y="133.660962" style="stroke: #000000; stroke-width: 0.8"/>
      </g>
     </g>
     <g id="text_14">
      <!-- 2.5 -->
      <g transform="translate(7.59226 137.46018) scale(0.1 -0.1)">
       <use xlink:href="#DejaVuSans-32"/>
       <use xlink:href="#DejaVuSans-2e" x="63.623047"/>
       <use xlink:href="#DejaVuSans-35" x="95.410156"/>
      </g>
     </g>
    </g>
    <g id="ytick_7">
     <g id="line2d_51">
      <g>
       <use xlink:href="#m3bd4007041" x="30.495385" y="98.891731" style="stroke: #000000; stroke-width: 0.8"/>
      </g>
     </g>
     <g id="text_15">
      <!-- 3.0 -->
      <g transform="translate(7.59226 102.69095) scale(0.1 -0.1)">
       <use xlink:href="#DejaVuSans-33"/>
       <use xlink:href="#DejaVuSans-2e" x="63.623047"/>
       <use xlink:href="#DejaVuSans-30" x="95.410156"/>
      </g>
     </g>
    </g>
    <g id="ytick_8">
     <g id="line2d_52">
      <g>
       <use xlink:href="#m3bd4007041" x="30.495385" y="64.1225" style="stroke: #000000; stroke-width: 0.8"/>
      </g>
     </g>
     <g id="text_16">
      <!-- 3.5 -->
      <g transform="translate(7.59226 67.921719) scale(0.1 -0.1)">
       <use xlink:href="#DejaVuSans-33"/>
       <use xlink:href="#DejaVuSans-2e" x="63.623047"/>
       <use xlink:href="#DejaVuSans-35" x="95.410156"/>
      </g>
     </g>
    </g>
    <g id="ytick_9">
     <g id="line2d_53">
      <g>
       <use xlink:href="#m3bd4007041" x="30.495385" y="29.353269" style="stroke: #000000; stroke-width: 0.8"/>
      </g>
     </g>
     <g id="text_17">
      <!-- 4.0 -->
      <g transform="translate(7.59226 33.152488) scale(0.1 -0.1)">
       <use xlink:href="#DejaVuSans-34"/>
       <use xlink:href="#DejaVuSans-2e" x="63.623047"/>
       <use xlink:href="#DejaVuSans-30" x="95.410156"/>
      </g>
     </g>
    </g>
    <g id="ytick_10">
     <g id="line2d_54">
      <defs>
       <path id="mf8167b41e6" d="M 0 0 
L -2 0 
" style="stroke: #000000; stroke-width: 0.6"/>
      </defs>
      <g>
       <use xlink:href="#mf8167b41e6" x="30.495385" y="328.368654" style="stroke: #000000; stroke-width: 0.6"/>
      </g>
     </g>
    </g>
    <g id="ytick_11">
     <g id="line2d_55">
      <g>
       <use xlink:href="#mf8167b41e6" x="30.495385" y="321.414808" style="stroke: #000000; stroke-width: 0.6"/>
      </g>
     </g>
    </g>
    <g id="ytick_12">
     <g id="line2d_56">
      <g>
       <use xlink:href="#mf8167b41e6" x="30.495385" y="314.460962" style="stroke: #000000; stroke-width: 0.6"/>
      </g>
     </g>
    </g>
    <g id="ytick_13">
     <g id="line2d_57">
      <g>
       <use xlink:href="#mf8167b41e6" x="30.495385" y="300.553269" style="stroke: #000000; stroke-width: 0.6"/>
      </g>
     </g>
    </g>
    <g id="ytick_14">
     <g id="line2d_58">
      <g>
       <use xlink:href="#mf8167b41e6" x="30.495385" y="293.599423" style="stroke: #000000; stroke-width: 0.6"/>
      </g>
     </g>
    </g>
    <g id="ytick_15">
     <g id="line2d_59">
      <g>
       <use xlink:href="#mf8167b41e6" x="30.495385" y="286.645577" style="stroke: #000000; stroke-width: 0.6"/>
      </g>
     </g>
    </g>
    <g id="ytick_16">
     <g id="line2d_60">
      <g>
       <use xlink:href="#mf8167b41e6" x="30.495385" y="279.691731" style="stroke: #000000; stroke-width: 0.6"/>
      </g>
     </g>
    </g>
    <g id="ytick_17">
     <g id="line2d_61">
      <g>
       <use xlink:href="#mf8167b41e6" x="30.495385" y="265.784038" style="stroke: #000000; stroke-width: 0.6"/>
      </g>
     </g>
    </g>
    <g id="ytick_18">
     <g id="line2d_62">
      <g>
       <use xlink:href="#mf8167b41e6" x="30.495385" y="258.830192" style="stroke: #000000; stroke-width: 0.6"/>
      </g>
     </g>
    </g>
    <g id="ytick_19">
     <g id="line2d_63">
      <g>
       <use xlink:href="#mf8167b41e6" x="30.495385" y="251.876346" style="stroke: #000000; stroke-width: 0.6"/>
      </g>
     </g>
    </g>
    <g id="ytick_20">
     <g id="line2d_64">
      <g>
       <use xlink:href="#mf8167b41e6" x="30.495385" y="244.9225" style="stroke: #000000; stroke-width: 0.6"/>
      </g>
     </g>
    </g>
    <g id="ytick_21">
     <g id="line2d_65">
      <g>
       <use xlink:href="#mf8167b41e6" x="30.495385" y="231.014808" style="stroke: #000000; stroke-width: 0.6"/>
      </g>
     </g>
    </g>
    <g id="ytick_22">
     <g id="line2d_66">
      <g>
       <use xlink:href="#mf8167b41e6" x="30.495385" y="224.060962" style="stroke: #000000; stroke-width: 0.6"/>
      </g>
     </g>
    </g>
    <g id="ytick_23">
     <g id="line2d_67">
      <g>
       <use xlink:href="#mf8167b41e6" x="30.495385" y="217.107115" style="stroke: #000000; stroke-width: 0.6"/>
      </g>
     </g>
    </g>
    <g id="ytick_24">
     <g id="line2d_68">
      <g>
       <use xlink:href="#mf8167b41e6" x="30.495385" y="210.153269" style="stroke: #000000; stroke-width: 0.6"/>
      </g>
     </g>
    </g>
    <g id="ytick_25">
     <g id="line2d_69">
      <g>
       <use xlink:href="#mf8167b41e6" x="30.495385" y="196.245577" style="stroke: #000000; stroke-width: 0.6"/>
      </g>
     </g>
    </g>
    <g id="ytick_26">
     <g id="line2d_70">
      <g>
       <use xlink:href="#mf8167b41e6" x="30.495385" y="189.291731" style="stroke: #000000; stroke-width: 0.6"/>
      </g>
     </g>
    </g>
    <g id="ytick_27">
     <g id="line2d_71">
      <g>
       <use xlink:href="#mf8167b41e6" x="30.495385" y="182.337885" style="stroke: #000000; stroke-width: 0.6"/>
      </g>
     </g>
    </g>
    <g id="ytick_28">
     <g id="line2d_72">
      <g>
       <use xlink:href="#mf8167b41e6" x="30.495385" y="175.384038" style="stroke: #000000; stroke-width: 0.6"/>
      </g>
     </g>
    </g>
    <g id="ytick_29">
     <g id="line2d_73">
      <g>
       <use xlink:href="#mf8167b41e6" x="30.495385" y="161.476346" style="stroke: #000000; stroke-width: 0.6"/>
      </g>
     </g>
    </g>
    <g id="ytick_30">
     <g id="line2d_74">
      <g>
       <use xlink:href="#mf8167b41e6" x="30.495385" y="154.5225" style="stroke: #000000; stroke-width: 0.6"/>
      </g>
     </g>
    </g>
    <g id="ytick_31">
     <g id="line2d_75">
      <g>
       <use xlink:href="#mf8167b41e6" x="30.495385" y="147.568654" style="stroke: #000000; stroke-width: 0.6"/>
      </g>
     </g>
    </g>
    <g id="ytick_32">
     <g id="line2d_76">
      <g>
       <use xlink:href="#mf8167b41e6" x="30.495385" y="140.614808" style="stroke: #000000; stroke-width: 0.6"/>
      </g>
     </g>
    </g>
    <g id="ytick_33">
     <g id="line2d_77">
      <g>
       <use xlink:href="#mf8167b41e6" x="30.495385" y="126.707115" style="stroke: #000000; stroke-width: 0.6"/>
      </g>
     </g>
    </g>
    <g id="ytick_34">
     <g id="line2d_78">
      <g>
       <use xlink:href="#mf8167b41e6" x="30.495385" y="119.753269" style="stroke: #000000; stroke-width: 0.6"/>
      </g>
     </g>
    </g>
    <g id="ytick_35">
     <g id="line2d_79">
      <g>
       <use xlink:href="#mf8167b41e6" x="30.495385" y="112.799423" style="stroke: #000000; stroke-width: 0.6"/>
      </g>
     </g>
    </g>
    <g id="ytick_36">
     <g id="line2d_80">
      <g>
       <use xlink:href="#mf8167b41e6" x="30.495385" y="105.845577" style="stroke: #000000; stroke-width: 0.6"/>
      </g>
     </g>
    </g>
    <g id="ytick_37">
     <g id="line2d_81">
      <g>
       <use xlink:href="#mf8167b41e6" x="30.495385" y="91.937885" style="stroke: #000000; stroke-width: 0.6"/>
      </g>
     </g>
    </g>
    <g id="ytick_38">
     <g id="line2d_82">
      <g>
       <use xlink:href="#mf8167b41e6" x="30.495385" y="84.984038" style="stroke: #000000; stroke-width: 0.6"/>
      </g>
     </g>
    </g>
    <g id="ytick_39">
     <g id="line2d_83">
      <g>
       <use xlink:href="#mf8167b41e6" x="30.495385" y="78.030192" style="stroke: #000000; stroke-width: 0.6"/>
      </g>
     </g>
    </g>
    <g id="ytick_40">
     <g id="line2d_84">
      <g>
       <use xlink:href="#mf8167b41e6" x="30.495385" y="71.076346" style="stroke: #000000; stroke-width: 0.6"/>
      </g>
     </g>
    </g>
    <g id="ytick_41">
     <g id="line2d_85">
      <g>
       <use xlink:href="#mf8167b41e6" x="30.495385" y="57.168654" style="stroke: #000000; stroke-width: 0.6"/>
      </g>
     </g>
    </g>
    <g id="ytick_42">
     <g id="line2d_86">
      <g>
       <use xlink:href="#mf8167b41e6" x="30.495385" y="50.214808" style="stroke: #000000; stroke-width: 0.6"/>
      </g>
     </g>
    </g>
    <g id="ytick_43">
     <g id="line2d_87">
      <g>
       <use xlink:href="#mf8167b41e6" x="30.495385" y="43.260962" style="stroke: #000000; stroke-width: 0.6"/>
      </g>
     </g>
    </g>
    <g id="ytick_44">
     <g id="line2d_88">
      <g>
       <use xlink:href="#mf8167b41e6" x="30.495385" y="36.307115" style="stroke: #000000; stroke-width: 0.6"/>
      </g>
     </g>
    </g>
    <g id="text_18">
     <!-- $y$ -->
     <g transform="translate(26.495385 12.0825) scale(0.16 -0.16)">
      <defs>
       <path id="Cmmi10-79" d="M 538 -916 
Q 672 -1147 1006 -1147 
Q 1309 -1147 1531 -934 
Q 1753 -722 1889 -420 
Q 2025 -119 2100 197 
Q 1816 -72 1484 -72 
Q 1231 -72 1053 15 
Q 875 103 776 276 
Q 678 450 678 697 
Q 678 906 734 1126 
Q 791 1347 892 1617 
Q 994 1888 1069 2088 
Q 1153 2322 1153 2472 
Q 1153 2663 1013 2663 
Q 759 2663 595 2402 
Q 431 2141 353 1819 
Q 341 1778 300 1778 
L 225 1778 
Q 172 1778 172 1838 
L 172 1856 
Q 275 2238 487 2533 
Q 700 2828 1025 2828 
Q 1253 2828 1411 2678 
Q 1569 2528 1569 2297 
Q 1569 2178 1516 2047 
Q 1488 1969 1388 1706 
Q 1288 1444 1234 1272 
Q 1181 1100 1147 934 
Q 1113 769 1113 603 
Q 1113 391 1203 244 
Q 1294 97 1491 97 
Q 1888 97 2203 581 
L 2688 2553 
Q 2709 2638 2787 2698 
Q 2866 2759 2956 2759 
Q 3034 2759 3092 2709 
Q 3150 2659 3150 2578 
Q 3150 2541 3144 2528 
L 2509 -19 
Q 2425 -347 2200 -647 
Q 1975 -947 1658 -1130 
Q 1341 -1313 997 -1313 
Q 831 -1313 668 -1248 
Q 506 -1184 406 -1056 
Q 306 -928 306 -756 
Q 306 -581 409 -453 
Q 513 -325 684 -325 
Q 788 -325 858 -389 
Q 928 -453 928 -556 
Q 928 -703 818 -812 
Q 709 -922 563 -922 
Q 556 -919 550 -917 
Q 544 -916 538 -916 
z
" transform="scale(0.015625)"/>
      </defs>
      <use xlink:href="#Cmmi10-79" transform="translate(0 0.8125)"/>
     </g>
    </g>
   </g>
   <g id="line2d_89">
    <path d="M 30.495385 98.891731 
L 37.006084 98.993352 
L 44.44881 99.358898 
L 51.520988 99.953983 
L 58.892224 100.833464 
L 64.157004 101.625416 
L 72.198775 103.1026 
L 77.377309 104.22784 
L 83.740484 105.801047 
L 91.066557 107.878681 
L 97.965377 110.103522 
L 104.66694 112.522605 
L 110.514703 114.848642 
L 117.230668 117.777389 
L 122.084276 120.072184 
L 129.46633 123.863083 
L 135.198854 127.069974 
L 141.244362 130.716158 
L 146.831266 134.341468 
L 153.023233 138.666051 
L 159.172163 143.303993 
L 164.836209 147.904729 
L 168.581568 151.133893 
L 173.639086 155.749876 
L 178.672998 160.661028 
L 183.801866 166.023896 
L 188.567575 171.369092 
L 192.484218 176.053715 
L 196.798015 181.555483 
L 201.004832 187.311829 
L 204.120812 191.858554 
L 208.303091 198.398004 
L 211.063458 203.029608 
L 214.640978 209.472535 
L 218.013331 216.088308 
L 221.297882 223.157925 
L 223.471317 228.256448 
L 225.929324 234.527981 
L 228.137691 240.739628 
L 230.30782 247.545718 
L 232.0779 253.796146 
L 233.567982 259.737889 
L 235.126359 266.929496 
L 236.425396 274.142324 
L 237.348688 280.449963 
L 238.188561 287.913156 
L 238.766247 295.522677 
L 239.039348 302.048739 
L 239.110769 307.507115 
L 239.110769 307.507115 
" clip-path="url(#p2b008edd91)" style="fill: none; stroke: #ff0000; stroke-width: 2; stroke-linecap: square"/>
   </g>
   <g id="patch_3">
    <path d="M 239.110769 297.076346 
Q 239.110769 302.291731 239.110769 305.271047 
" clip-path="url(#p2b008edd91)" style="fill: none; stroke: #ff0000; stroke-width: 2; stroke-linecap: round"/>
    <path d="M 244.110769 295.271047 
L 239.110769 305.271047 
L 234.110769 295.271047 
z
" clip-path="url(#p2b008edd91)" style="fill: #ff0000; stroke: #ff0000; stroke-width: 2; stroke-linecap: round"/>
   </g>
   <g id="patch_4">
    <path d="M 30.495385 330.8025 
L 30.495385 23.4425 
" style="fill: none; stroke: #000000; stroke-width: 0.8; stroke-linejoin: miter; stroke-linecap: square"/>
   </g>
   <g id="patch_5">
    <path d="M 7.2 307.507115 
L 314.56 307.507115 
" style="fill: none; stroke: #000000; stroke-width: 0.8; stroke-linejoin: miter; stroke-linecap: square"/>
   </g>
  </g>
 </g>
 <defs>
  <clipPath id="p2b008edd91">
   <rect x="7.2" y="23.4425" width="307.36" height="307.36"/>
  </clipPath>
 </defs>
</svg>
