<?xml version="1.0" encoding="utf-8" standalone="no"?>
<!DOCTYPE svg PUBLIC "-//W3C//DTD SVG 1.1//EN"
  "http://www.w3.org/Graphics/SVG/1.1/DTD/svg11.dtd">
<svg xmlns:xlink="http://www.w3.org/1999/xlink" width="340.142657pt" height="336.999339pt" viewBox="0 0 340.142657 336.999339" xmlns="http://www.w3.org/2000/svg" version="1.1">
 <metadata>
  <rdf:RDF xmlns:dc="http://purl.org/dc/elements/1.1/" xmlns:cc="http://creativecommons.org/ns#" xmlns:rdf="http://www.w3.org/1999/02/22-rdf-syntax-ns#">
   <cc:Work>
    <dc:type rdf:resource="http://purl.org/dc/dcmitype/StillImage"/>
    <dc:date>2023-08-04T14:50:33.449089</dc:date>
    <dc:format>image/svg+xml</dc:format>
    <dc:creator>
     <cc:Agent>
      <dc:title>Matplotlib v3.6.2, https://matplotlib.org/</dc:title>
     </cc:Agent>
    </dc:creator>
   </cc:Work>
  </rdf:RDF>
 </metadata>
 <defs>
  <style type="text/css">*{stroke-linejoin: round; stroke-linecap: butt}</style>
 </defs>
 <g id="figure_1">
  <g id="patch_1">
   <path d="M 0 336.999339 
L 340.142657 336.999339 
L 340.142657 0 
L 0 0 
z
" style="fill: #ffffff"/>
  </g>
  <g id="axes_1">
   <g id="patch_2">
    <path d="M 13.450038 329.799339 
L 319.802657 329.799339 
L 319.802657 23.4425 
L 13.450038 23.4425 
z
" style="fill: #ffffff"/>
   </g>
   <g id="matplotlib.axis_1">
    <g id="xtick_1">
     <g id="line2d_1">
      <defs>
       <path id="m912742b86f" d="M 0 0 
L 0 3.5 
" style="stroke: #000000; stroke-width: 0.8"/>
      </defs>
      <g>
       <use xlink:href="#m912742b86f" x="19.341406" y="176.621322" style="stroke: #000000; stroke-width: 0.8"/>
      </g>
     </g>
     <g id="text_1">
      <!-- −1.0 -->
      <g transform="translate(7.2 191.21976) scale(0.1 -0.1)">
       <defs>
        <path id="DejaVuSans-2212" d="M 678 2272 
L 4684 2272 
L 4684 1741 
L 678 1741 
L 678 2272 
z
" transform="scale(0.015625)"/>
        <path id="DejaVuSans-31" d="M 794 531 
L 1825 531 
L 1825 4091 
L 703 3866 
L 703 4441 
L 1819 4666 
L 2450 4666 
L 2450 531 
L 3481 531 
L 3481 0 
L 794 0 
L 794 531 
z
" transform="scale(0.015625)"/>
        <path id="DejaVuSans-2e" d="M 684 794 
L 1344 794 
L 1344 0 
L 684 0 
L 684 794 
z
" transform="scale(0.015625)"/>
        <path id="DejaVuSans-30" d="M 2034 4250 
Q 1547 4250 1301 3770 
Q 1056 3291 1056 2328 
Q 1056 1369 1301 889 
Q 1547 409 2034 409 
Q 2525 409 2770 889 
Q 3016 1369 3016 2328 
Q 3016 3291 2770 3770 
Q 2525 4250 2034 4250 
z
M 2034 4750 
Q 2819 4750 3233 4129 
Q 3647 3509 3647 2328 
Q 3647 1150 3233 529 
Q 2819 -91 2034 -91 
Q 1250 -91 836 529 
Q 422 1150 422 2328 
Q 422 3509 836 4129 
Q 1250 4750 2034 4750 
z
" transform="scale(0.015625)"/>
       </defs>
       <use xlink:href="#DejaVuSans-2212"/>
       <use xlink:href="#DejaVuSans-31" x="83.789062"/>
       <use xlink:href="#DejaVuSans-2e" x="147.412109"/>
       <use xlink:href="#DejaVuSans-30" x="179.199219"/>
      </g>
     </g>
    </g>
    <g id="xtick_2">
     <g id="line2d_2">
      <g>
       <use xlink:href="#m912742b86f" x="92.985078" y="176.621322" style="stroke: #000000; stroke-width: 0.8"/>
      </g>
     </g>
     <g id="text_2">
      <!-- −0.5 -->
      <g transform="translate(80.843672 191.21976) scale(0.1 -0.1)">
       <defs>
        <path id="DejaVuSans-35" d="M 691 4666 
L 3169 4666 
L 3169 4134 
L 1269 4134 
L 1269 2991 
Q 1406 3038 1543 3061 
Q 1681 3084 1819 3084 
Q 2600 3084 3056 2656 
Q 3513 2228 3513 1497 
Q 3513 744 3044 326 
Q 2575 -91 1722 -91 
Q 1428 -91 1123 -41 
Q 819 9 494 109 
L 494 744 
Q 775 591 1075 516 
Q 1375 441 1709 441 
Q 2250 441 2565 725 
Q 2881 1009 2881 1497 
Q 2881 1984 2565 2268 
Q 2250 2553 1709 2553 
Q 1456 2553 1204 2497 
Q 953 2441 691 2322 
L 691 4666 
z
" transform="scale(0.015625)"/>
       </defs>
       <use xlink:href="#DejaVuSans-2212"/>
       <use xlink:href="#DejaVuSans-30" x="83.789062"/>
       <use xlink:href="#DejaVuSans-2e" x="147.412109"/>
       <use xlink:href="#DejaVuSans-35" x="179.199219"/>
      </g>
     </g>
    </g>
    <g id="xtick_3">
     <g id="line2d_3">
      <g>
       <use xlink:href="#m912742b86f" x="166.628751" y="176.621322" style="stroke: #000000; stroke-width: 0.8"/>
      </g>
     </g>
    </g>
    <g id="xtick_4">
     <g id="line2d_4">
      <g>
       <use xlink:href="#m912742b86f" x="240.272423" y="176.621322" style="stroke: #000000; stroke-width: 0.8"/>
      </g>
     </g>
     <g id="text_3">
      <!-- 0.5 -->
      <g transform="translate(232.32086 191.21976) scale(0.1 -0.1)">
       <use xlink:href="#DejaVuSans-30"/>
       <use xlink:href="#DejaVuSans-2e" x="63.623047"/>
       <use xlink:href="#DejaVuSans-35" x="95.410156"/>
      </g>
     </g>
    </g>
    <g id="xtick_5">
     <g id="line2d_5">
      <g>
       <use xlink:href="#m912742b86f" x="313.916095" y="176.621322" style="stroke: #000000; stroke-width: 0.8"/>
      </g>
     </g>
     <g id="text_4">
      <!-- 1.0 -->
      <g transform="translate(305.964533 191.21976) scale(0.1 -0.1)">
       <use xlink:href="#DejaVuSans-31"/>
       <use xlink:href="#DejaVuSans-2e" x="63.623047"/>
       <use xlink:href="#DejaVuSans-30" x="95.410156"/>
      </g>
     </g>
    </g>
    <g id="xtick_6">
     <g id="line2d_6">
      <defs>
       <path id="mc0422f97ce" d="M 0 0 
L 0 2 
" style="stroke: #000000; stroke-width: 0.6"/>
      </defs>
      <g>
       <use xlink:href="#mc0422f97ce" x="34.070141" y="176.621322" style="stroke: #000000; stroke-width: 0.6"/>
      </g>
     </g>
    </g>
    <g id="xtick_7">
     <g id="line2d_7">
      <g>
       <use xlink:href="#mc0422f97ce" x="48.798875" y="176.621322" style="stroke: #000000; stroke-width: 0.6"/>
      </g>
     </g>
    </g>
    <g id="xtick_8">
     <g id="line2d_8">
      <g>
       <use xlink:href="#mc0422f97ce" x="63.52761" y="176.621322" style="stroke: #000000; stroke-width: 0.6"/>
      </g>
     </g>
    </g>
    <g id="xtick_9">
     <g id="line2d_9">
      <g>
       <use xlink:href="#mc0422f97ce" x="78.256344" y="176.621322" style="stroke: #000000; stroke-width: 0.6"/>
      </g>
     </g>
    </g>
    <g id="xtick_10">
     <g id="line2d_10">
      <g>
       <use xlink:href="#mc0422f97ce" x="107.713813" y="176.621322" style="stroke: #000000; stroke-width: 0.6"/>
      </g>
     </g>
    </g>
    <g id="xtick_11">
     <g id="line2d_11">
      <g>
       <use xlink:href="#mc0422f97ce" x="122.442547" y="176.621322" style="stroke: #000000; stroke-width: 0.6"/>
      </g>
     </g>
    </g>
    <g id="xtick_12">
     <g id="line2d_12">
      <g>
       <use xlink:href="#mc0422f97ce" x="137.171282" y="176.621322" style="stroke: #000000; stroke-width: 0.6"/>
      </g>
     </g>
    </g>
    <g id="xtick_13">
     <g id="line2d_13">
      <g>
       <use xlink:href="#mc0422f97ce" x="151.900016" y="176.621322" style="stroke: #000000; stroke-width: 0.6"/>
      </g>
     </g>
    </g>
    <g id="xtick_14">
     <g id="line2d_14">
      <g>
       <use xlink:href="#mc0422f97ce" x="181.357485" y="176.621322" style="stroke: #000000; stroke-width: 0.6"/>
      </g>
     </g>
    </g>
    <g id="xtick_15">
     <g id="line2d_15">
      <g>
       <use xlink:href="#mc0422f97ce" x="196.08622" y="176.621322" style="stroke: #000000; stroke-width: 0.6"/>
      </g>
     </g>
    </g>
    <g id="xtick_16">
     <g id="line2d_16">
      <g>
       <use xlink:href="#mc0422f97ce" x="210.814954" y="176.621322" style="stroke: #000000; stroke-width: 0.6"/>
      </g>
     </g>
    </g>
    <g id="xtick_17">
     <g id="line2d_17">
      <g>
       <use xlink:href="#mc0422f97ce" x="225.543689" y="176.621322" style="stroke: #000000; stroke-width: 0.6"/>
      </g>
     </g>
    </g>
    <g id="xtick_18">
     <g id="line2d_18">
      <g>
       <use xlink:href="#mc0422f97ce" x="255.001157" y="176.621322" style="stroke: #000000; stroke-width: 0.6"/>
      </g>
     </g>
    </g>
    <g id="xtick_19">
     <g id="line2d_19">
      <g>
       <use xlink:href="#mc0422f97ce" x="269.729892" y="176.621322" style="stroke: #000000; stroke-width: 0.6"/>
      </g>
     </g>
    </g>
    <g id="xtick_20">
     <g id="line2d_20">
      <g>
       <use xlink:href="#mc0422f97ce" x="284.458626" y="176.621322" style="stroke: #000000; stroke-width: 0.6"/>
      </g>
     </g>
    </g>
    <g id="xtick_21">
     <g id="line2d_21">
      <g>
       <use xlink:href="#mc0422f97ce" x="299.187361" y="176.621322" style="stroke: #000000; stroke-width: 0.6"/>
      </g>
     </g>
    </g>
    <g id="text_5">
     <!-- $x$ -->
     <g transform="translate(327.802657 176.621322) scale(0.16 -0.16)">
      <defs>
       <path id="Cmmi10-78" d="M 500 184 
Q 613 97 819 97 
Q 1019 97 1172 289 
Q 1325 481 1381 709 
L 1672 1844 
Q 1741 2153 1741 2266 
Q 1741 2425 1652 2544 
Q 1563 2663 1403 2663 
Q 1200 2663 1022 2536 
Q 844 2409 722 2214 
Q 600 2019 550 1819 
Q 538 1778 500 1778 
L 422 1778 
Q 372 1778 372 1838 
L 372 1856 
Q 434 2094 584 2320 
Q 734 2547 951 2687 
Q 1169 2828 1416 2828 
Q 1650 2828 1839 2703 
Q 2028 2578 2106 2363 
Q 2216 2559 2386 2693 
Q 2556 2828 2759 2828 
Q 2897 2828 3040 2779 
Q 3184 2731 3275 2631 
Q 3366 2531 3366 2381 
Q 3366 2219 3261 2101 
Q 3156 1984 2994 1984 
Q 2891 1984 2822 2050 
Q 2753 2116 2753 2216 
Q 2753 2350 2845 2451 
Q 2938 2553 3066 2572 
Q 2950 2663 2747 2663 
Q 2541 2663 2389 2472 
Q 2238 2281 2175 2047 
L 1894 916 
Q 1825 659 1825 494 
Q 1825 331 1917 214 
Q 2009 97 2163 97 
Q 2463 97 2698 361 
Q 2934 625 3009 941 
Q 3022 978 3059 978 
L 3138 978 
Q 3163 978 3178 961 
Q 3194 944 3194 922 
Q 3194 916 3188 903 
Q 3097 522 2806 225 
Q 2516 -72 2150 -72 
Q 1916 -72 1727 54 
Q 1538 181 1459 397 
Q 1359 209 1182 68 
Q 1006 -72 806 -72 
Q 669 -72 523 -23 
Q 378 25 287 125 
Q 197 225 197 378 
Q 197 528 301 651 
Q 406 775 563 775 
Q 669 775 741 711 
Q 813 647 813 544 
Q 813 409 723 309 
Q 634 209 500 184 
z
" transform="scale(0.015625)"/>
      </defs>
      <use xlink:href="#Cmmi10-78" transform="translate(0 0.8125)"/>
     </g>
    </g>
   </g>
   <g id="matplotlib.axis_2">
    <g id="ytick_1">
     <g id="line2d_22">
      <defs>
       <path id="m3ab323d423" d="M 0 0 
L -3.5 0 
" style="stroke: #000000; stroke-width: 0.8"/>
      </defs>
      <g>
       <use xlink:href="#m3ab323d423" x="166.628751" y="323.908667" style="stroke: #000000; stroke-width: 0.8"/>
      </g>
     </g>
     <g id="text_6">
      <!-- −1.0 -->
      <g transform="translate(135.345938 327.707885) scale(0.1 -0.1)">
       <use xlink:href="#DejaVuSans-2212"/>
       <use xlink:href="#DejaVuSans-31" x="83.789062"/>
       <use xlink:href="#DejaVuSans-2e" x="147.412109"/>
       <use xlink:href="#DejaVuSans-30" x="179.199219"/>
      </g>
     </g>
    </g>
    <g id="ytick_2">
     <g id="line2d_23">
      <g>
       <use xlink:href="#m3ab323d423" x="166.628751" y="250.264994" style="stroke: #000000; stroke-width: 0.8"/>
      </g>
     </g>
     <g id="text_7">
      <!-- −0.5 -->
      <g transform="translate(135.345938 254.064213) scale(0.1 -0.1)">
       <use xlink:href="#DejaVuSans-2212"/>
       <use xlink:href="#DejaVuSans-30" x="83.789062"/>
       <use xlink:href="#DejaVuSans-2e" x="147.412109"/>
       <use xlink:href="#DejaVuSans-35" x="179.199219"/>
      </g>
     </g>
    </g>
    <g id="ytick_3">
     <g id="line2d_24">
      <g>
       <use xlink:href="#m3ab323d423" x="166.628751" y="176.621322" style="stroke: #000000; stroke-width: 0.8"/>
      </g>
     </g>
    </g>
    <g id="ytick_4">
     <g id="line2d_25">
      <g>
       <use xlink:href="#m3ab323d423" x="166.628751" y="102.97765" style="stroke: #000000; stroke-width: 0.8"/>
      </g>
     </g>
     <g id="text_8">
      <!-- 0.5 -->
      <g transform="translate(143.725626 106.776869) scale(0.1 -0.1)">
       <use xlink:href="#DejaVuSans-30"/>
       <use xlink:href="#DejaVuSans-2e" x="63.623047"/>
       <use xlink:href="#DejaVuSans-35" x="95.410156"/>
      </g>
     </g>
    </g>
    <g id="ytick_5">
     <g id="line2d_26">
      <g>
       <use xlink:href="#m3ab323d423" x="166.628751" y="29.333978" style="stroke: #000000; stroke-width: 0.8"/>
      </g>
     </g>
     <g id="text_9">
      <!-- 1.0 -->
      <g transform="translate(143.725626 33.133196) scale(0.1 -0.1)">
       <use xlink:href="#DejaVuSans-31"/>
       <use xlink:href="#DejaVuSans-2e" x="63.623047"/>
       <use xlink:href="#DejaVuSans-30" x="95.410156"/>
      </g>
     </g>
    </g>
    <g id="ytick_6">
     <g id="line2d_27">
      <defs>
       <path id="mda2e06f02e" d="M 0 0 
L -2 0 
" style="stroke: #000000; stroke-width: 0.6"/>
      </defs>
      <g>
       <use xlink:href="#mda2e06f02e" x="166.628751" y="309.179932" style="stroke: #000000; stroke-width: 0.6"/>
      </g>
     </g>
    </g>
    <g id="ytick_7">
     <g id="line2d_28">
      <g>
       <use xlink:href="#mda2e06f02e" x="166.628751" y="294.451198" style="stroke: #000000; stroke-width: 0.6"/>
      </g>
     </g>
    </g>
    <g id="ytick_8">
     <g id="line2d_29">
      <g>
       <use xlink:href="#mda2e06f02e" x="166.628751" y="279.722463" style="stroke: #000000; stroke-width: 0.6"/>
      </g>
     </g>
    </g>
    <g id="ytick_9">
     <g id="line2d_30">
      <g>
       <use xlink:href="#mda2e06f02e" x="166.628751" y="264.993729" style="stroke: #000000; stroke-width: 0.6"/>
      </g>
     </g>
    </g>
    <g id="ytick_10">
     <g id="line2d_31">
      <g>
       <use xlink:href="#mda2e06f02e" x="166.628751" y="235.53626" style="stroke: #000000; stroke-width: 0.6"/>
      </g>
     </g>
    </g>
    <g id="ytick_11">
     <g id="line2d_32">
      <g>
       <use xlink:href="#mda2e06f02e" x="166.628751" y="220.807525" style="stroke: #000000; stroke-width: 0.6"/>
      </g>
     </g>
    </g>
    <g id="ytick_12">
     <g id="line2d_33">
      <g>
       <use xlink:href="#mda2e06f02e" x="166.628751" y="206.078791" style="stroke: #000000; stroke-width: 0.6"/>
      </g>
     </g>
    </g>
    <g id="ytick_13">
     <g id="line2d_34">
      <g>
       <use xlink:href="#mda2e06f02e" x="166.628751" y="191.350057" style="stroke: #000000; stroke-width: 0.6"/>
      </g>
     </g>
    </g>
    <g id="ytick_14">
     <g id="line2d_35">
      <g>
       <use xlink:href="#mda2e06f02e" x="166.628751" y="161.892588" style="stroke: #000000; stroke-width: 0.6"/>
      </g>
     </g>
    </g>
    <g id="ytick_15">
     <g id="line2d_36">
      <g>
       <use xlink:href="#mda2e06f02e" x="166.628751" y="147.163853" style="stroke: #000000; stroke-width: 0.6"/>
      </g>
     </g>
    </g>
    <g id="ytick_16">
     <g id="line2d_37">
      <g>
       <use xlink:href="#mda2e06f02e" x="166.628751" y="132.435119" style="stroke: #000000; stroke-width: 0.6"/>
      </g>
     </g>
    </g>
    <g id="ytick_17">
     <g id="line2d_38">
      <g>
       <use xlink:href="#mda2e06f02e" x="166.628751" y="117.706384" style="stroke: #000000; stroke-width: 0.6"/>
      </g>
     </g>
    </g>
    <g id="ytick_18">
     <g id="line2d_39">
      <g>
       <use xlink:href="#mda2e06f02e" x="166.628751" y="88.248915" style="stroke: #000000; stroke-width: 0.6"/>
      </g>
     </g>
    </g>
    <g id="ytick_19">
     <g id="line2d_40">
      <g>
       <use xlink:href="#mda2e06f02e" x="166.628751" y="73.520181" style="stroke: #000000; stroke-width: 0.6"/>
      </g>
     </g>
    </g>
    <g id="ytick_20">
     <g id="line2d_41">
      <g>
       <use xlink:href="#mda2e06f02e" x="166.628751" y="58.791447" style="stroke: #000000; stroke-width: 0.6"/>
      </g>
     </g>
    </g>
    <g id="ytick_21">
     <g id="line2d_42">
      <g>
       <use xlink:href="#mda2e06f02e" x="166.628751" y="44.062712" style="stroke: #000000; stroke-width: 0.6"/>
      </g>
     </g>
    </g>
    <g id="text_10">
     <!-- $y$ -->
     <g transform="translate(162.628751 12.0825) scale(0.16 -0.16)">
      <defs>
       <path id="Cmmi10-79" d="M 538 -916 
Q 672 -1147 1006 -1147 
Q 1309 -1147 1531 -934 
Q 1753 -722 1889 -420 
Q 2025 -119 2100 197 
Q 1816 -72 1484 -72 
Q 1231 -72 1053 15 
Q 875 103 776 276 
Q 678 450 678 697 
Q 678 906 734 1126 
Q 791 1347 892 1617 
Q 994 1888 1069 2088 
Q 1153 2322 1153 2472 
Q 1153 2663 1013 2663 
Q 759 2663 595 2402 
Q 431 2141 353 1819 
Q 341 1778 300 1778 
L 225 1778 
Q 172 1778 172 1838 
L 172 1856 
Q 275 2238 487 2533 
Q 700 2828 1025 2828 
Q 1253 2828 1411 2678 
Q 1569 2528 1569 2297 
Q 1569 2178 1516 2047 
Q 1488 1969 1388 1706 
Q 1288 1444 1234 1272 
Q 1181 1100 1147 934 
Q 1113 769 1113 603 
Q 1113 391 1203 244 
Q 1294 97 1491 97 
Q 1888 97 2203 581 
L 2688 2553 
Q 2709 2638 2787 2698 
Q 2866 2759 2956 2759 
Q 3034 2759 3092 2709 
Q 3150 2659 3150 2578 
Q 3150 2541 3144 2528 
L 2509 -19 
Q 2425 -347 2200 -647 
Q 1975 -947 1658 -1130 
Q 1341 -1313 997 -1313 
Q 831 -1313 668 -1248 
Q 506 -1184 406 -1056 
Q 306 -928 306 -756 
Q 306 -581 409 -453 
Q 513 -325 684 -325 
Q 788 -325 858 -389 
Q 928 -453 928 -556 
Q 928 -703 818 -812 
Q 709 -922 563 -922 
Q 556 -919 550 -917 
Q 544 -916 538 -916 
z
" transform="scale(0.015625)"/>
      </defs>
      <use xlink:href="#Cmmi10-79" transform="translate(0 0.8125)"/>
     </g>
    </g>
   </g>
   <g id="line2d_43">
    <path d="M 166.628751 29.333978 
L 173.226226 29.370941 
L 187.144236 29.693363 
L 196.313409 30.091518 
L 208.887801 30.890344 
L 221.216543 31.980044 
L 234.501389 33.536585 
L 246.766373 35.385636 
L 255.332861 36.958045 
L 265.247473 39.132243 
L 270.807776 40.55399 
L 279.494269 43.14578 
L 285.609399 45.319025 
L 291.452934 47.763188 
L 296.189347 50.107128 
L 298.382672 51.340699 
L 301.161926 53.082037 
L 303.678612 54.88366 
L 305.509063 56.375982 
L 307.164129 57.90627 
L 308.531746 59.349118 
L 309.747295 60.823386 
L 311.14913 62.869934 
L 312.308183 65.063511 
L 313.15576 67.316727 
L 313.640306 69.335508 
L 313.91126 72.052348 
L 313.754269 74.943104 
L 313.398277 76.931602 
L 312.841411 78.954212 
L 311.772775 81.736771 
L 309.706902 85.669713 
L 308.264987 87.902387 
L 305.371083 91.733298 
L 301.966513 95.584028 
L 299.714654 97.882449 
L 297.1652 100.31338 
L 291.647677 105.122342 
L 287.178002 108.690006 
L 281.182223 113.148125 
L 276.390015 116.505372 
L 269.397496 121.15321 
L 262.15769 125.720692 
L 255.228426 129.910144 
L 242.228158 137.40611 
L 226.249465 146.151857 
L 209.848874 154.769427 
L 191.13566 164.32494 
L 121.509282 199.457194 
L 105.191217 208.064981 
L 90.576858 216.090847 
L 80.883247 221.649977 
L 72.829222 226.461272 
L 67.050461 230.049632 
L 59.775357 234.772061 
L 54.347544 238.482766 
L 45.765782 244.7954 
L 39.390009 249.992309 
L 36.367507 252.675973 
L 33.07081 255.828948 
L 30.038015 259.014679 
L 27.799026 261.615963 
L 25.815839 264.178091 
L 24.093042 266.698415 
L 22.632567 269.17729 
L 21.068646 272.488447 
L 20.26765 274.7653 
L 19.713726 277.00073 
L 19.401367 279.272718 
L 19.341434 280.801341 
L 19.406667 282.307831 
L 19.673317 284.206445 
L 20.514778 287.134675 
L 21.174642 288.66065 
L 21.980014 290.158604 
L 23.004643 291.733692 
L 24.194557 293.275659 
L 25.738867 294.98024 
L 27.490842 296.641204 
L 30.033699 298.703707 
L 33.212544 300.887558 
L 36.781746 302.980496 
L 39.77773 304.523394 
L 45.20326 306.951473 
L 51.591547 309.363173 
L 55.298101 310.592797 
L 59.573493 311.885331 
L 68.006856 314.109636 
L 74.143974 315.50467 
L 83.550616 317.34578 
L 89.157328 318.296581 
L 97.724891 319.566864 
L 111.032213 321.158989 
L 116.437994 321.68805 
L 131.86676 322.86473 
L 141.000927 323.345906 
L 150.958879 323.699536 
L 170.652272 323.894924 
L 182.593856 323.691552 
L 189.782575 323.450129 
L 199.856638 322.956329 
L 214.69026 321.879145 
L 227.060801 320.630029 
L 234.934983 319.647874 
L 246.692295 317.869524 
L 251.529056 317.014407 
L 262.891344 314.666029 
L 270.668805 312.726229 
L 276.812786 310.95184 
L 279.643756 310.047591 
L 286.973512 307.38942 
L 292.796633 304.852854 
L 297.951165 302.153447 
L 301.695861 299.798599 
L 303.789787 298.273276 
L 305.693406 296.705752 
L 307.584049 294.913261 
L 309.898136 292.219896 
L 311.40544 289.93936 
L 312.562211 287.590223 
L 313.09389 286.126037 
L 313.493931 284.637245 
L 313.764464 283.105299 
L 313.91026 281.231694 
L 313.860092 279.323288 
L 313.529813 276.929473 
L 312.903919 274.485188 
L 312.277285 272.710954 
L 311.501418 270.912104 
L 310.057049 268.164313 
L 308.518894 265.713358 
L 305.759771 261.987177 
L 303.444014 259.264499 
L 300.85111 256.499962 
L 295.773953 251.664915 
L 293.391778 249.584699 
L 287.420234 244.739991 
L 285.032473 242.919465 
L 276.764374 236.99397 
L 272.46754 234.097654 
L 266.732673 230.382609 
L 255.339949 223.398718 
L 243.356596 216.471546 
L 235.74789 212.237927 
L 219.342113 203.425606 
L 206.867939 196.935044 
L 181.258074 183.945043 
L 135.885653 161.164422 
L 113.665741 149.685557 
L 100.676803 142.736438 
L 90.83604 137.297518 
L 79.716752 130.907804 
L 72.671802 126.685262 
L 63.635413 121.00787 
L 57.824465 117.157635 
L 51.110629 112.452037 
L 47.042023 109.428383 
L 40.717702 104.378994 
L 38.339086 102.336375 
L 33.18971 97.532376 
L 30.066442 94.259438 
L 28.450731 92.410936 
L 26.044346 89.375517 
L 23.106046 84.914823 
L 21.358772 81.449443 
L 20.686664 79.749624 
L 20.14978 78.072246 
L 19.702689 76.184667 
L 19.407513 74.04531 
L 19.348966 71.947174 
L 19.487127 70.182809 
L 19.937743 67.892954 
L 20.692402 65.659447 
L 21.314462 64.299231 
L 22.053044 62.961533 
L 23.56142 60.756634 
L 24.802123 59.263242 
L 26.199123 57.802185 
L 28.137446 56.043319 
L 31.871323 53.232877 
L 34.020738 51.85248 
L 36.330656 50.50984 
L 39.551335 48.830142 
L 45.415035 46.204286 
L 49.492989 44.627179 
L 53.831256 43.123416 
L 61.488689 40.816895 
L 70.295005 38.593015 
L 75.918711 37.364786 
L 81.764084 36.221646 
L 92.25541 34.462471 
L 103.757998 32.900313 
L 114.167406 31.769031 
L 125.947677 30.773396 
L 134.568624 30.219543 
L 150.643527 29.551642 
L 166.628751 29.333978 
L 166.628751 29.333978 
" clip-path="url(#p07eb7bb8d2)" style="fill: none; stroke: #0000ff; stroke-width: 1.5; stroke-linecap: square"/>
   </g>
   <g id="patch_3">
    <path d="M 294.183333 49.06674 
Q 290.188662 47.30612 288.240138 46.447324 
" clip-path="url(#p07eb7bb8d2)" style="fill: none; stroke: #0000ff; stroke-width: 2; stroke-linecap: round"/>
    <path d="M 295.374246 55.055721 
L 288.240138 46.447324 
L 299.407321 45.905076 
L 295.374246 55.055721 
z
" clip-path="url(#p07eb7bb8d2)" style="fill: #0000ff; stroke: #0000ff; stroke-width: 2; stroke-linecap: round"/>
   </g>
   <g id="patch_4">
    <path d="M 166.628751 329.799339 
L 166.628751 23.4425 
" style="fill: none; stroke: #000000; stroke-width: 0.8; stroke-linejoin: miter; stroke-linecap: square"/>
   </g>
   <g id="patch_5">
    <path d="M 13.450038 176.621322 
L 319.802657 176.621322 
" style="fill: none; stroke: #000000; stroke-width: 0.8; stroke-linejoin: miter; stroke-linecap: square"/>
   </g>
  </g>
 </g>
 <defs>
  <clipPath id="p07eb7bb8d2">
   <rect x="13.450038" y="23.4425" width="306.352619" height="306.356839"/>
  </clipPath>
 </defs>
</svg>
