<?xml version="1.0" encoding="utf-8" standalone="no"?>
<!DOCTYPE svg PUBLIC "-//W3C//DTD SVG 1.1//EN"
  "http://www.w3.org/Graphics/SVG/1.1/DTD/svg11.dtd">
<svg xmlns:xlink="http://www.w3.org/1999/xlink" width="340.14677pt" height="336.998901pt" viewBox="0 0 340.14677 336.998901" xmlns="http://www.w3.org/2000/svg" version="1.1">
 <metadata>
  <rdf:RDF xmlns:dc="http://purl.org/dc/elements/1.1/" xmlns:cc="http://creativecommons.org/ns#" xmlns:rdf="http://www.w3.org/1999/02/22-rdf-syntax-ns#">
   <cc:Work>
    <dc:type rdf:resource="http://purl.org/dc/dcmitype/StillImage"/>
    <dc:date>2024-12-04T08:25:12.825719</dc:date>
    <dc:format>image/svg+xml</dc:format>
    <dc:creator>
     <cc:Agent>
      <dc:title>Matplotlib v3.6.2, https://matplotlib.org/</dc:title>
     </cc:Agent>
    </dc:creator>
   </cc:Work>
  </rdf:RDF>
 </metadata>
 <defs>
  <style type="text/css">*{stroke-linejoin: round; stroke-linecap: butt}</style>
 </defs>
 <g id="figure_1">
  <g id="patch_1">
   <path d="M -0 336.998901 
L 340.14677 336.998901 
L 340.14677 0 
L -0 0 
z
" style="fill: #ffffff"/>
  </g>
  <g id="axes_1">
   <g id="patch_2">
    <path d="M 13.450283 329.798901 
L 319.80677 329.798901 
L 319.80677 23.4425 
L 13.450283 23.4425 
z
" style="fill: #ffffff"/>
   </g>
   <g id="matplotlib.axis_1">
    <g id="xtick_1">
     <g id="line2d_1">
      <defs>
       <path id="m2c35558579" d="M 0 0 
L 0 3.5 
" style="stroke: #000000; stroke-width: 0.8"/>
      </defs>
      <g>
       <use xlink:href="#m2c35558579" x="19.341406" y="176.621355" style="stroke: #000000; stroke-width: 0.8"/>
      </g>
     </g>
     <g id="text_1">
      <!-- −1.0 -->
      <g transform="translate(7.2 191.219793) scale(0.1 -0.1)">
       <defs>
        <path id="DejaVuSans-2212" d="M 678 2272 
L 4684 2272 
L 4684 1741 
L 678 1741 
L 678 2272 
z
" transform="scale(0.015625)"/>
        <path id="DejaVuSans-31" d="M 794 531 
L 1825 531 
L 1825 4091 
L 703 3866 
L 703 4441 
L 1819 4666 
L 2450 4666 
L 2450 531 
L 3481 531 
L 3481 0 
L 794 0 
L 794 531 
z
" transform="scale(0.015625)"/>
        <path id="DejaVuSans-2e" d="M 684 794 
L 1344 794 
L 1344 0 
L 684 0 
L 684 794 
z
" transform="scale(0.015625)"/>
        <path id="DejaVuSans-30" d="M 2034 4250 
Q 1547 4250 1301 3770 
Q 1056 3291 1056 2328 
Q 1056 1369 1301 889 
Q 1547 409 2034 409 
Q 2525 409 2770 889 
Q 3016 1369 3016 2328 
Q 3016 3291 2770 3770 
Q 2525 4250 2034 4250 
z
M 2034 4750 
Q 2819 4750 3233 4129 
Q 3647 3509 3647 2328 
Q 3647 1150 3233 529 
Q 2819 -91 2034 -91 
Q 1250 -91 836 529 
Q 422 1150 422 2328 
Q 422 3509 836 4129 
Q 1250 4750 2034 4750 
z
" transform="scale(0.015625)"/>
       </defs>
       <use xlink:href="#DejaVuSans-2212"/>
       <use xlink:href="#DejaVuSans-31" x="83.789062"/>
       <use xlink:href="#DejaVuSans-2e" x="147.412109"/>
       <use xlink:href="#DejaVuSans-30" x="179.199219"/>
      </g>
     </g>
    </g>
    <g id="xtick_2">
     <g id="line2d_2">
      <g>
       <use xlink:href="#m2c35558579" x="92.985099" y="176.621355" style="stroke: #000000; stroke-width: 0.8"/>
      </g>
     </g>
     <g id="text_2">
      <!-- −0.5 -->
      <g transform="translate(80.843693 191.219793) scale(0.1 -0.1)">
       <defs>
        <path id="DejaVuSans-35" d="M 691 4666 
L 3169 4666 
L 3169 4134 
L 1269 4134 
L 1269 2991 
Q 1406 3038 1543 3061 
Q 1681 3084 1819 3084 
Q 2600 3084 3056 2656 
Q 3513 2228 3513 1497 
Q 3513 744 3044 326 
Q 2575 -91 1722 -91 
Q 1428 -91 1123 -41 
Q 819 9 494 109 
L 494 744 
Q 775 591 1075 516 
Q 1375 441 1709 441 
Q 2250 441 2565 725 
Q 2881 1009 2881 1497 
Q 2881 1984 2565 2268 
Q 2250 2553 1709 2553 
Q 1456 2553 1204 2497 
Q 953 2441 691 2322 
L 691 4666 
z
" transform="scale(0.015625)"/>
       </defs>
       <use xlink:href="#DejaVuSans-2212"/>
       <use xlink:href="#DejaVuSans-30" x="83.789062"/>
       <use xlink:href="#DejaVuSans-2e" x="147.412109"/>
       <use xlink:href="#DejaVuSans-35" x="179.199219"/>
      </g>
     </g>
    </g>
    <g id="xtick_3">
     <g id="line2d_3">
      <g>
       <use xlink:href="#m2c35558579" x="166.628792" y="176.621355" style="stroke: #000000; stroke-width: 0.8"/>
      </g>
     </g>
    </g>
    <g id="xtick_4">
     <g id="line2d_4">
      <g>
       <use xlink:href="#m2c35558579" x="240.272485" y="176.621355" style="stroke: #000000; stroke-width: 0.8"/>
      </g>
     </g>
     <g id="text_3">
      <!-- 0.5 -->
      <g transform="translate(232.320923 191.219793) scale(0.1 -0.1)">
       <use xlink:href="#DejaVuSans-30"/>
       <use xlink:href="#DejaVuSans-2e" x="63.623047"/>
       <use xlink:href="#DejaVuSans-35" x="95.410156"/>
      </g>
     </g>
    </g>
    <g id="xtick_5">
     <g id="line2d_5">
      <g>
       <use xlink:href="#m2c35558579" x="313.916178" y="176.621355" style="stroke: #000000; stroke-width: 0.8"/>
      </g>
     </g>
     <g id="text_4">
      <!-- 1.0 -->
      <g transform="translate(305.964616 191.219793) scale(0.1 -0.1)">
       <use xlink:href="#DejaVuSans-31"/>
       <use xlink:href="#DejaVuSans-2e" x="63.623047"/>
       <use xlink:href="#DejaVuSans-30" x="95.410156"/>
      </g>
     </g>
    </g>
    <g id="xtick_6">
     <g id="line2d_6">
      <defs>
       <path id="m9fe0791b84" d="M 0 0 
L 0 2 
" style="stroke: #000000; stroke-width: 0.6"/>
      </defs>
      <g>
       <use xlink:href="#m9fe0791b84" x="34.070145" y="176.621355" style="stroke: #000000; stroke-width: 0.6"/>
      </g>
     </g>
    </g>
    <g id="xtick_7">
     <g id="line2d_7">
      <g>
       <use xlink:href="#m9fe0791b84" x="48.798883" y="176.621355" style="stroke: #000000; stroke-width: 0.6"/>
      </g>
     </g>
    </g>
    <g id="xtick_8">
     <g id="line2d_8">
      <g>
       <use xlink:href="#m9fe0791b84" x="63.527622" y="176.621355" style="stroke: #000000; stroke-width: 0.6"/>
      </g>
     </g>
    </g>
    <g id="xtick_9">
     <g id="line2d_9">
      <g>
       <use xlink:href="#m9fe0791b84" x="78.256361" y="176.621355" style="stroke: #000000; stroke-width: 0.6"/>
      </g>
     </g>
    </g>
    <g id="xtick_10">
     <g id="line2d_10">
      <g>
       <use xlink:href="#m9fe0791b84" x="107.713838" y="176.621355" style="stroke: #000000; stroke-width: 0.6"/>
      </g>
     </g>
    </g>
    <g id="xtick_11">
     <g id="line2d_11">
      <g>
       <use xlink:href="#m9fe0791b84" x="122.442576" y="176.621355" style="stroke: #000000; stroke-width: 0.6"/>
      </g>
     </g>
    </g>
    <g id="xtick_12">
     <g id="line2d_12">
      <g>
       <use xlink:href="#m9fe0791b84" x="137.171315" y="176.621355" style="stroke: #000000; stroke-width: 0.6"/>
      </g>
     </g>
    </g>
    <g id="xtick_13">
     <g id="line2d_13">
      <g>
       <use xlink:href="#m9fe0791b84" x="151.900054" y="176.621355" style="stroke: #000000; stroke-width: 0.6"/>
      </g>
     </g>
    </g>
    <g id="xtick_14">
     <g id="line2d_14">
      <g>
       <use xlink:href="#m9fe0791b84" x="181.357531" y="176.621355" style="stroke: #000000; stroke-width: 0.6"/>
      </g>
     </g>
    </g>
    <g id="xtick_15">
     <g id="line2d_15">
      <g>
       <use xlink:href="#m9fe0791b84" x="196.086269" y="176.621355" style="stroke: #000000; stroke-width: 0.6"/>
      </g>
     </g>
    </g>
    <g id="xtick_16">
     <g id="line2d_16">
      <g>
       <use xlink:href="#m9fe0791b84" x="210.815008" y="176.621355" style="stroke: #000000; stroke-width: 0.6"/>
      </g>
     </g>
    </g>
    <g id="xtick_17">
     <g id="line2d_17">
      <g>
       <use xlink:href="#m9fe0791b84" x="225.543747" y="176.621355" style="stroke: #000000; stroke-width: 0.6"/>
      </g>
     </g>
    </g>
    <g id="xtick_18">
     <g id="line2d_18">
      <g>
       <use xlink:href="#m9fe0791b84" x="255.001224" y="176.621355" style="stroke: #000000; stroke-width: 0.6"/>
      </g>
     </g>
    </g>
    <g id="xtick_19">
     <g id="line2d_19">
      <g>
       <use xlink:href="#m9fe0791b84" x="269.729962" y="176.621355" style="stroke: #000000; stroke-width: 0.6"/>
      </g>
     </g>
    </g>
    <g id="xtick_20">
     <g id="line2d_20">
      <g>
       <use xlink:href="#m9fe0791b84" x="284.458701" y="176.621355" style="stroke: #000000; stroke-width: 0.6"/>
      </g>
     </g>
    </g>
    <g id="xtick_21">
     <g id="line2d_21">
      <g>
       <use xlink:href="#m9fe0791b84" x="299.18744" y="176.621355" style="stroke: #000000; stroke-width: 0.6"/>
      </g>
     </g>
    </g>
    <g id="text_5">
     <!-- $x$ -->
     <g transform="translate(327.80677 176.621355) scale(0.16 -0.16)">
      <defs>
       <path id="Cmmi10-78" d="M 500 184 
Q 613 97 819 97 
Q 1019 97 1172 289 
Q 1325 481 1381 709 
L 1672 1844 
Q 1741 2153 1741 2266 
Q 1741 2425 1652 2544 
Q 1563 2663 1403 2663 
Q 1200 2663 1022 2536 
Q 844 2409 722 2214 
Q 600 2019 550 1819 
Q 538 1778 500 1778 
L 422 1778 
Q 372 1778 372 1838 
L 372 1856 
Q 434 2094 584 2320 
Q 734 2547 951 2687 
Q 1169 2828 1416 2828 
Q 1650 2828 1839 2703 
Q 2028 2578 2106 2363 
Q 2216 2559 2386 2693 
Q 2556 2828 2759 2828 
Q 2897 2828 3040 2779 
Q 3184 2731 3275 2631 
Q 3366 2531 3366 2381 
Q 3366 2219 3261 2101 
Q 3156 1984 2994 1984 
Q 2891 1984 2822 2050 
Q 2753 2116 2753 2216 
Q 2753 2350 2845 2451 
Q 2938 2553 3066 2572 
Q 2950 2663 2747 2663 
Q 2541 2663 2389 2472 
Q 2238 2281 2175 2047 
L 1894 916 
Q 1825 659 1825 494 
Q 1825 331 1917 214 
Q 2009 97 2163 97 
Q 2463 97 2698 361 
Q 2934 625 3009 941 
Q 3022 978 3059 978 
L 3138 978 
Q 3163 978 3178 961 
Q 3194 944 3194 922 
Q 3194 916 3188 903 
Q 3097 522 2806 225 
Q 2516 -72 2150 -72 
Q 1916 -72 1727 54 
Q 1538 181 1459 397 
Q 1359 209 1182 68 
Q 1006 -72 806 -72 
Q 669 -72 523 -23 
Q 378 25 287 125 
Q 197 225 197 378 
Q 197 528 301 651 
Q 406 775 563 775 
Q 669 775 741 711 
Q 813 647 813 544 
Q 813 409 723 309 
Q 634 209 500 184 
z
" transform="scale(0.015625)"/>
      </defs>
      <use xlink:href="#Cmmi10-78" transform="translate(0 0.8125)"/>
     </g>
    </g>
   </g>
   <g id="matplotlib.axis_2">
    <g id="ytick_1">
     <g id="line2d_22">
      <defs>
       <path id="m6566f32c10" d="M 0 0 
L -3.5 0 
" style="stroke: #000000; stroke-width: 0.8"/>
      </defs>
      <g>
       <use xlink:href="#m6566f32c10" x="166.628792" y="323.908741" style="stroke: #000000; stroke-width: 0.8"/>
      </g>
     </g>
     <g id="text_6">
      <!-- −1.0 -->
      <g transform="translate(135.34598 327.70796) scale(0.1 -0.1)">
       <use xlink:href="#DejaVuSans-2212"/>
       <use xlink:href="#DejaVuSans-31" x="83.789062"/>
       <use xlink:href="#DejaVuSans-2e" x="147.412109"/>
       <use xlink:href="#DejaVuSans-30" x="179.199219"/>
      </g>
     </g>
    </g>
    <g id="ytick_2">
     <g id="line2d_23">
      <g>
       <use xlink:href="#m6566f32c10" x="166.628792" y="250.265048" style="stroke: #000000; stroke-width: 0.8"/>
      </g>
     </g>
     <g id="text_7">
      <!-- −0.5 -->
      <g transform="translate(135.34598 254.064267) scale(0.1 -0.1)">
       <use xlink:href="#DejaVuSans-2212"/>
       <use xlink:href="#DejaVuSans-30" x="83.789062"/>
       <use xlink:href="#DejaVuSans-2e" x="147.412109"/>
       <use xlink:href="#DejaVuSans-35" x="179.199219"/>
      </g>
     </g>
    </g>
    <g id="ytick_3">
     <g id="line2d_24">
      <g>
       <use xlink:href="#m6566f32c10" x="166.628792" y="176.621355" style="stroke: #000000; stroke-width: 0.8"/>
      </g>
     </g>
    </g>
    <g id="ytick_4">
     <g id="line2d_25">
      <g>
       <use xlink:href="#m6566f32c10" x="166.628792" y="102.977662" style="stroke: #000000; stroke-width: 0.8"/>
      </g>
     </g>
     <g id="text_8">
      <!-- 0.5 -->
      <g transform="translate(143.725667 106.776881) scale(0.1 -0.1)">
       <use xlink:href="#DejaVuSans-30"/>
       <use xlink:href="#DejaVuSans-2e" x="63.623047"/>
       <use xlink:href="#DejaVuSans-35" x="95.410156"/>
      </g>
     </g>
    </g>
    <g id="ytick_5">
     <g id="line2d_26">
      <g>
       <use xlink:href="#m6566f32c10" x="166.628792" y="29.333969" style="stroke: #000000; stroke-width: 0.8"/>
      </g>
     </g>
     <g id="text_9">
      <!-- 1.0 -->
      <g transform="translate(143.725667 33.133188) scale(0.1 -0.1)">
       <use xlink:href="#DejaVuSans-31"/>
       <use xlink:href="#DejaVuSans-2e" x="63.623047"/>
       <use xlink:href="#DejaVuSans-30" x="95.410156"/>
      </g>
     </g>
    </g>
    <g id="ytick_6">
     <g id="line2d_27">
      <defs>
       <path id="m67c3b57b75" d="M 0 0 
L -2 0 
" style="stroke: #000000; stroke-width: 0.6"/>
      </defs>
      <g>
       <use xlink:href="#m67c3b57b75" x="166.628792" y="309.180003" style="stroke: #000000; stroke-width: 0.6"/>
      </g>
     </g>
    </g>
    <g id="ytick_7">
     <g id="line2d_28">
      <g>
       <use xlink:href="#m67c3b57b75" x="166.628792" y="294.451264" style="stroke: #000000; stroke-width: 0.6"/>
      </g>
     </g>
    </g>
    <g id="ytick_8">
     <g id="line2d_29">
      <g>
       <use xlink:href="#m67c3b57b75" x="166.628792" y="279.722525" style="stroke: #000000; stroke-width: 0.6"/>
      </g>
     </g>
    </g>
    <g id="ytick_9">
     <g id="line2d_30">
      <g>
       <use xlink:href="#m67c3b57b75" x="166.628792" y="264.993787" style="stroke: #000000; stroke-width: 0.6"/>
      </g>
     </g>
    </g>
    <g id="ytick_10">
     <g id="line2d_31">
      <g>
       <use xlink:href="#m67c3b57b75" x="166.628792" y="235.53631" style="stroke: #000000; stroke-width: 0.6"/>
      </g>
     </g>
    </g>
    <g id="ytick_11">
     <g id="line2d_32">
      <g>
       <use xlink:href="#m67c3b57b75" x="166.628792" y="220.807571" style="stroke: #000000; stroke-width: 0.6"/>
      </g>
     </g>
    </g>
    <g id="ytick_12">
     <g id="line2d_33">
      <g>
       <use xlink:href="#m67c3b57b75" x="166.628792" y="206.078832" style="stroke: #000000; stroke-width: 0.6"/>
      </g>
     </g>
    </g>
    <g id="ytick_13">
     <g id="line2d_34">
      <g>
       <use xlink:href="#m67c3b57b75" x="166.628792" y="191.350094" style="stroke: #000000; stroke-width: 0.6"/>
      </g>
     </g>
    </g>
    <g id="ytick_14">
     <g id="line2d_35">
      <g>
       <use xlink:href="#m67c3b57b75" x="166.628792" y="161.892617" style="stroke: #000000; stroke-width: 0.6"/>
      </g>
     </g>
    </g>
    <g id="ytick_15">
     <g id="line2d_36">
      <g>
       <use xlink:href="#m67c3b57b75" x="166.628792" y="147.163878" style="stroke: #000000; stroke-width: 0.6"/>
      </g>
     </g>
    </g>
    <g id="ytick_16">
     <g id="line2d_37">
      <g>
       <use xlink:href="#m67c3b57b75" x="166.628792" y="132.435139" style="stroke: #000000; stroke-width: 0.6"/>
      </g>
     </g>
    </g>
    <g id="ytick_17">
     <g id="line2d_38">
      <g>
       <use xlink:href="#m67c3b57b75" x="166.628792" y="117.706401" style="stroke: #000000; stroke-width: 0.6"/>
      </g>
     </g>
    </g>
    <g id="ytick_18">
     <g id="line2d_39">
      <g>
       <use xlink:href="#m67c3b57b75" x="166.628792" y="88.248924" style="stroke: #000000; stroke-width: 0.6"/>
      </g>
     </g>
    </g>
    <g id="ytick_19">
     <g id="line2d_40">
      <g>
       <use xlink:href="#m67c3b57b75" x="166.628792" y="73.520185" style="stroke: #000000; stroke-width: 0.6"/>
      </g>
     </g>
    </g>
    <g id="ytick_20">
     <g id="line2d_41">
      <g>
       <use xlink:href="#m67c3b57b75" x="166.628792" y="58.791446" style="stroke: #000000; stroke-width: 0.6"/>
      </g>
     </g>
    </g>
    <g id="ytick_21">
     <g id="line2d_42">
      <g>
       <use xlink:href="#m67c3b57b75" x="166.628792" y="44.062708" style="stroke: #000000; stroke-width: 0.6"/>
      </g>
     </g>
    </g>
    <g id="text_10">
     <!-- $y$ -->
     <g transform="translate(162.628792 12.0825) scale(0.16 -0.16)">
      <defs>
       <path id="Cmmi10-79" d="M 538 -916 
Q 672 -1147 1006 -1147 
Q 1309 -1147 1531 -934 
Q 1753 -722 1889 -420 
Q 2025 -119 2100 197 
Q 1816 -72 1484 -72 
Q 1231 -72 1053 15 
Q 875 103 776 276 
Q 678 450 678 697 
Q 678 906 734 1126 
Q 791 1347 892 1617 
Q 994 1888 1069 2088 
Q 1153 2322 1153 2472 
Q 1153 2663 1013 2663 
Q 759 2663 595 2402 
Q 431 2141 353 1819 
Q 341 1778 300 1778 
L 225 1778 
Q 172 1778 172 1838 
L 172 1856 
Q 275 2238 487 2533 
Q 700 2828 1025 2828 
Q 1253 2828 1411 2678 
Q 1569 2528 1569 2297 
Q 1569 2178 1516 2047 
Q 1488 1969 1388 1706 
Q 1288 1444 1234 1272 
Q 1181 1100 1147 934 
Q 1113 769 1113 603 
Q 1113 391 1203 244 
Q 1294 97 1491 97 
Q 1888 97 2203 581 
L 2688 2553 
Q 2709 2638 2787 2698 
Q 2866 2759 2956 2759 
Q 3034 2759 3092 2709 
Q 3150 2659 3150 2578 
Q 3150 2541 3144 2528 
L 2509 -19 
Q 2425 -347 2200 -647 
Q 1975 -947 1658 -1130 
Q 1341 -1313 997 -1313 
Q 831 -1313 668 -1248 
Q 506 -1184 406 -1056 
Q 306 -928 306 -756 
Q 306 -581 409 -453 
Q 513 -325 684 -325 
Q 788 -325 858 -389 
Q 928 -453 928 -556 
Q 928 -703 818 -812 
Q 709 -922 563 -922 
Q 556 -919 550 -917 
Q 544 -916 538 -916 
z
" transform="scale(0.015625)"/>
      </defs>
      <use xlink:href="#Cmmi10-79" transform="translate(0 0.8125)"/>
     </g>
    </g>
   </g>
   <g id="line2d_43">
    <path d="M 166.628792 29.333969 
L 171.952529 29.358033 
L 185.386933 29.634119 
L 199.744127 30.27976 
L 211.099634 31.062614 
L 221.955142 32.055671 
L 235.544333 33.677364 
L 242.924525 34.759169 
L 249.196337 35.806031 
L 260.124949 37.956443 
L 264.753251 39.013492 
L 269.776207 40.277662 
L 274.574049 41.616232 
L 278.739038 42.899481 
L 282.771275 44.268283 
L 286.585524 45.699196 
L 290.917583 47.520974 
L 296.902215 50.496155 
L 299.001594 51.709598 
L 302.175668 53.777997 
L 304.98424 55.929221 
L 307.366585 58.108181 
L 309.555486 60.575617 
L 310.561643 61.954183 
L 311.437329 63.358737 
L 312.730758 66.076445 
L 313.175941 67.383571 
L 313.550067 68.866555 
L 313.793932 70.373423 
L 313.915299 72.65354 
L 313.801282 74.550626 
L 313.536699 76.278616 
L 313.118884 78.032774 
L 312.030462 81.140133 
L 310.484665 84.322592 
L 309.29949 86.331004 
L 307.942002 88.366679 
L 305.835533 91.161321 
L 302.605844 94.899952 
L 298.466825 99.092385 
L 295.464862 101.853474 
L 291.968106 104.856754 
L 286.352879 109.323632 
L 280.93018 113.328865 
L 275.399829 117.180234 
L 269.462216 121.111415 
L 263.178998 125.089246 
L 256.387956 129.219901 
L 245.790955 135.392008 
L 235.759739 140.998263 
L 220.643318 149.131021 
L 204.598243 157.474149 
L 180.740147 169.55755 
L 138.650322 190.674707 
L 115.512771 202.585996 
L 101.049448 210.30358 
L 86.946975 218.146804 
L 75.263789 224.985643 
L 64.541772 231.649752 
L 56.732966 236.829469 
L 50.996206 240.873727 
L 44.072294 246.124833 
L 37.80558 251.377808 
L 33.404587 255.496893 
L 29.587531 259.51823 
L 26.694652 263.006378 
L 24.855283 265.541036 
L 23.275938 268.034918 
L 21.924553 270.558863 
L 20.854522 273.037141 
L 20.18195 275.057263 
L 19.652763 277.32825 
L 19.380979 279.55514 
L 19.408599 282.330337 
L 19.635204 284.006416 
L 20.021535 285.653322 
L 20.590432 287.329929 
L 21.329987 288.974192 
L 22.483664 290.968864 
L 23.999179 293.038696 
L 25.806371 295.049002 
L 28.273466 297.313591 
L 30.24237 298.858872 
L 33.032111 300.772824 
L 38.069383 303.664444 
L 42.754663 305.906533 
L 48.029593 308.069552 
L 52.992789 309.841072 
L 57.538148 311.28562 
L 62.326249 312.655244 
L 71.719561 314.973705 
L 78.004337 316.300508 
L 87.369886 318.004417 
L 94.830325 319.16095 
L 106.190488 320.629385 
L 114.828019 321.537222 
L 122.219978 322.185062 
L 134.786162 323.035332 
L 143.485967 323.450643 
L 153.639743 323.765206 
L 165.386758 323.907432 
L 175.435386 323.842847 
L 189.831744 323.44824 
L 206.525207 322.525649 
L 219.371037 321.446384 
L 228.305555 320.48506 
L 239.318875 319.031248 
L 246.03491 317.979905 
L 252.671711 316.800779 
L 261.577886 314.964761 
L 267.684632 313.507318 
L 273.479451 311.944223 
L 280.965243 309.604272 
L 287.414461 307.212457 
L 290.718077 305.810946 
L 293.819454 304.356793 
L 296.773623 302.817543 
L 301.352779 300.032463 
L 304.408831 297.785177 
L 306.614576 295.867317 
L 308.535985 293.888897 
L 309.807198 292.340758 
L 310.909418 290.758471 
L 311.688863 289.430931 
L 312.352331 288.080841 
L 313.157525 285.920423 
L 313.693579 283.592863 
L 313.910944 281.207343 
L 313.882009 279.641536 
L 313.72081 278.052594 
L 313.460736 276.593576 
L 312.972924 274.708968 
L 312.310203 272.79505 
L 310.780085 269.467382 
L 309.76306 267.66618 
L 308.60574 265.842667 
L 307.074964 263.681242 
L 305.355717 261.490608 
L 302.919885 258.684667 
L 300.192619 255.834851 
L 295.313302 251.254726 
L 292.814166 249.094619 
L 288.93345 245.925047 
L 284.779038 242.729513 
L 280.342595 239.494522 
L 271.259077 233.301507 
L 261.087767 226.864496 
L 248.185177 219.220134 
L 235.139111 211.903781 
L 221.412578 204.518203 
L 205.604888 196.285442 
L 189.338767 188.010443 
L 125.397909 155.796715 
L 107.937827 146.648707 
L 93.709983 138.90432 
L 81.146631 131.746797 
L 71.845893 126.1796 
L 63.922932 121.193898 
L 57.534234 116.960415 
L 50.804349 112.229471 
L 44.666663 107.588192 
L 38.572489 102.541026 
L 34.328904 98.649329 
L 31.961401 96.285492 
L 28.102182 91.99457 
L 26.559656 90.060424 
L 23.791357 86.063689 
L 22.091592 83.023901 
L 21.39304 81.52842 
L 20.690316 79.759822 
L 20.09414 77.871294 
L 19.670336 76.011808 
L 19.440511 74.401258 
L 19.341754 72.586628 
L 19.418429 70.80298 
L 19.709969 68.854716 
L 20.218311 66.946213 
L 21.169104 64.593433 
L 21.877845 63.258619 
L 23.638813 60.656631 
L 24.689644 59.389974 
L 26.455473 57.553769 
L 28.623965 55.639661 
L 31.300747 53.624608 
L 36.13695 50.617566 
L 38.073223 49.576276 
L 41.086105 48.094796 
L 45.291899 46.25474 
L 50.974526 44.095197 
L 57.509529 41.96572 
L 64.40219 40.036025 
L 69.450856 38.789364 
L 74.710371 37.617477 
L 84.237789 35.774832 
L 91.460021 34.583913 
L 99.510672 33.4365 
L 112.322666 31.95151 
L 117.865593 31.425409 
L 130.455863 30.466073 
L 144.428281 29.755258 
L 153.75436 29.474976 
L 166.628792 29.333969 
L 166.628792 29.333969 
" clip-path="url(#p99d44df702)" style="fill: none; stroke: #0000ff; stroke-width: 1.5; stroke-linecap: square"/>
   </g>
   <g id="patch_3">
    <path d="M 294.18341 49.066737 
Q 290.188738 47.306117 288.240213 46.44732 
" clip-path="url(#p99d44df702)" style="fill: none; stroke: #0000ff; stroke-width: 2; stroke-linecap: round"/>
    <path d="M 295.374321 55.055718 
L 288.240213 46.44732 
L 299.407396 45.905072 
L 295.374321 55.055718 
z
" clip-path="url(#p99d44df702)" style="fill: #0000ff; stroke: #0000ff; stroke-width: 2; stroke-linecap: round"/>
   </g>
   <g id="patch_4">
    <path d="M 166.628792 329.798901 
L 166.628792 23.4425 
" style="fill: none; stroke: #000000; stroke-width: 0.8; stroke-linejoin: miter; stroke-linecap: square"/>
   </g>
   <g id="patch_5">
    <path d="M 13.450283 176.621355 
L 319.80677 176.621355 
" style="fill: none; stroke: #000000; stroke-width: 0.8; stroke-linejoin: miter; stroke-linecap: square"/>
   </g>
  </g>
 </g>
 <defs>
  <clipPath id="p99d44df702">
   <rect x="13.450283" y="23.4425" width="306.356487" height="306.356401"/>
  </clipPath>
 </defs>
</svg>
