<?xml version="1.0" encoding="utf-8" standalone="no"?>
<!DOCTYPE svg PUBLIC "-//W3C//DTD SVG 1.1//EN"
  "http://www.w3.org/Graphics/SVG/1.1/DTD/svg11.dtd">
<svg xmlns:xlink="http://www.w3.org/1999/xlink" width="340.147454pt" height="337.000038pt" viewBox="0 0 340.147454 337.000038" xmlns="http://www.w3.org/2000/svg" version="1.1">
 <metadata>
  <rdf:RDF xmlns:dc="http://purl.org/dc/elements/1.1/" xmlns:cc="http://creativecommons.org/ns#" xmlns:rdf="http://www.w3.org/1999/02/22-rdf-syntax-ns#">
   <cc:Work>
    <dc:type rdf:resource="http://purl.org/dc/dcmitype/StillImage"/>
    <dc:date>2025-02-05T08:55:20.416305</dc:date>
    <dc:format>image/svg+xml</dc:format>
    <dc:creator>
     <cc:Agent>
      <dc:title>Matplotlib v3.6.2, https://matplotlib.org/</dc:title>
     </cc:Agent>
    </dc:creator>
   </cc:Work>
  </rdf:RDF>
 </metadata>
 <defs>
  <style type="text/css">*{stroke-linejoin: round; stroke-linecap: butt}</style>
 </defs>
 <g id="figure_1">
  <g id="patch_1">
   <path d="M -0 337.000038 
L 340.147454 337.000038 
L 340.147454 0 
L -0 0 
z
" style="fill: #ffffff"/>
  </g>
  <g id="axes_1">
   <g id="patch_2">
    <path d="M 13.449915 329.800038 
L 319.807454 329.800038 
L 319.807454 23.4425 
L 13.449915 23.4425 
z
" style="fill: #ffffff"/>
   </g>
   <g id="patch_3">
    <path d="M 313.915962 176.621269 
C 313.915962 157.279681 310.106091 138.126166 302.704386 120.256868 
C 295.302681 102.387571 284.453086 86.150004 270.776517 72.473436 
C 257.099949 58.796868 240.862383 47.947273 222.993085 40.545568 
C 205.123788 33.143862 185.970273 29.333991 166.628684 29.333991 
C 147.287096 29.333991 128.133581 33.143862 110.264283 40.545568 
C 92.394986 47.947273 76.157419 58.796868 62.480851 72.473436 
C 48.804283 86.150004 37.954688 102.387571 30.552983 120.256868 
C 23.151277 138.126166 19.341406 157.279681 19.341406 176.621269 
C 19.341406 195.962857 23.151277 215.116373 30.552983 232.98567 
C 37.954688 250.854968 48.804283 267.092534 62.480851 280.769102 
C 76.157419 294.44567 92.394986 305.295266 110.264283 312.696971 
C 128.133581 320.098676 147.287096 323.908547 166.628684 323.908547 
C 185.970273 323.908547 205.123788 320.098676 222.993085 312.696971 
C 240.862383 305.295266 257.099949 294.44567 270.776517 280.769102 
C 284.453086 267.092534 295.302681 250.854968 302.704386 232.98567 
C 310.106091 215.116373 313.915962 195.962857 313.915962 176.621269 
M 166.628684 176.621269 
M 313.915962 176.621269 
z
" clip-path="url(#pb498224bf6)" style="fill: #ffff00"/>
   </g>
   <g id="patch_4">
    <path d="M 104.031591 127.52551 
C 104.031591 126.074891 103.745851 124.638377 103.190723 123.29818 
C 102.635595 121.957982 101.821875 120.740165 100.796133 119.714422 
C 99.77039 118.68868 98.552573 117.87496 97.212375 117.319832 
C 95.872178 116.764704 94.435664 116.478964 92.985045 116.478964 
C 91.534426 116.478964 90.097913 116.764704 88.757715 117.319832 
C 87.417518 117.87496 86.1997 118.68868 85.173958 119.714422 
C 84.148215 120.740165 83.334496 121.957982 82.779368 123.29818 
C 82.22424 124.638377 81.938499 126.074891 81.938499 127.52551 
C 81.938499 128.976129 82.22424 130.412643 82.779368 131.75284 
C 83.334496 133.093037 84.148215 134.310855 85.173958 135.336597 
C 86.1997 136.36234 87.417518 137.17606 88.757715 137.731187 
C 90.097913 138.286315 91.534426 138.572056 92.985045 138.572056 
C 94.435664 138.572056 95.872178 138.286315 97.212375 137.731187 
C 98.552573 137.17606 99.77039 136.36234 100.796133 135.336597 
C 101.821875 134.310855 102.635595 133.093037 103.190723 131.75284 
C 103.745851 130.412643 104.031591 128.976129 104.031591 127.52551 
M 92.985045 127.52551 
M 104.031591 127.52551 
z
" clip-path="url(#pb498224bf6)" style="fill: #ffa500"/>
   </g>
   <g id="PathCollection_1">
    <path d="M 92.985045 129.761578 
C 93.578057 129.761578 94.146861 129.525972 94.566184 129.106649 
C 94.985507 128.687326 95.221113 128.118522 95.221113 127.52551 
C 95.221113 126.932498 94.985507 126.363694 94.566184 125.944371 
C 94.146861 125.525048 93.578057 125.289442 92.985045 125.289442 
C 92.392033 125.289442 91.823229 125.525048 91.403906 125.944371 
C 90.984584 126.363694 90.748977 126.932498 90.748977 127.52551 
C 90.748977 128.118522 90.984584 128.687326 91.403906 129.106649 
C 91.823229 129.525972 92.392033 129.761578 92.985045 129.761578 
z
" clip-path="url(#pb498224bf6)" style="fill: #0000ff"/>
   </g>
   <g id="patch_5">
    <path d="M 281.823063 72.473436 
C 281.823063 71.022817 281.537323 69.586303 280.982195 68.246106 
C 280.427067 66.905909 279.613348 65.688091 278.587605 64.662349 
C 277.561862 63.636606 276.344045 62.822886 275.003848 62.267758 
C 273.66365 61.712631 272.227137 61.42689 270.776517 61.42689 
C 269.325898 61.42689 267.889385 61.712631 266.549187 62.267758 
C 265.20899 62.822886 263.991173 63.636606 262.96543 64.662349 
C 261.939687 65.688091 261.125968 66.905909 260.57084 68.246106 
C 260.015712 69.586303 259.729972 71.022817 259.729972 72.473436 
C 259.729972 73.924055 260.015712 75.360569 260.57084 76.700766 
C 261.125968 78.040963 261.939687 79.258781 262.96543 80.284524 
C 263.991173 81.310266 265.20899 82.123986 266.549187 82.679114 
C 267.889385 83.234242 269.325898 83.519982 270.776517 83.519982 
C 272.227137 83.519982 273.66365 83.234242 275.003848 82.679114 
C 276.344045 82.123986 277.561862 81.310266 278.587605 80.284524 
C 279.613348 79.258781 280.427067 78.040963 280.982195 76.700766 
C 281.537323 75.360569 281.823063 73.924055 281.823063 72.473436 
M 270.776517 72.473436 
M 281.823063 72.473436 
z
" clip-path="url(#pb498224bf6)" style="fill: #ffa500"/>
   </g>
   <g id="PathCollection_2">
    <path d="M 270.776517 74.709504 
C 271.36953 74.709504 271.938333 74.473898 272.357656 74.054575 
C 272.776979 73.635252 273.012585 73.066448 273.012585 72.473436 
C 273.012585 71.880424 272.776979 71.31162 272.357656 70.892297 
C 271.938333 70.472974 271.36953 70.237368 270.776517 70.237368 
C 270.183505 70.237368 269.614702 70.472974 269.195379 70.892297 
C 268.776056 71.31162 268.54045 71.880424 268.54045 72.473436 
C 268.54045 73.066448 268.776056 73.635252 269.195379 74.054575 
C 269.614702 74.473898 270.183505 74.709504 270.776517 74.709504 
z
" clip-path="url(#pb498224bf6)" style="fill: #0000ff"/>
   </g>
   <g id="matplotlib.axis_1">
    <g id="xtick_1">
     <g id="line2d_1">
      <defs>
       <path id="m0df4cc0177" d="M 0 0 
L 0 3.5 
" style="stroke: #000000; stroke-width: 0.8"/>
      </defs>
      <g>
       <use xlink:href="#m0df4cc0177" x="19.341406" y="176.621269" style="stroke: #000000; stroke-width: 0.8"/>
      </g>
     </g>
     <g id="text_1">
      <!-- −1.0 -->
      <g transform="translate(7.2 191.219707) scale(0.1 -0.1)">
       <defs>
        <path id="DejaVuSans-2212" d="M 678 2272 
L 4684 2272 
L 4684 1741 
L 678 1741 
L 678 2272 
z
" transform="scale(0.015625)"/>
        <path id="DejaVuSans-31" d="M 794 531 
L 1825 531 
L 1825 4091 
L 703 3866 
L 703 4441 
L 1819 4666 
L 2450 4666 
L 2450 531 
L 3481 531 
L 3481 0 
L 794 0 
L 794 531 
z
" transform="scale(0.015625)"/>
        <path id="DejaVuSans-2e" d="M 684 794 
L 1344 794 
L 1344 0 
L 684 0 
L 684 794 
z
" transform="scale(0.015625)"/>
        <path id="DejaVuSans-30" d="M 2034 4250 
Q 1547 4250 1301 3770 
Q 1056 3291 1056 2328 
Q 1056 1369 1301 889 
Q 1547 409 2034 409 
Q 2525 409 2770 889 
Q 3016 1369 3016 2328 
Q 3016 3291 2770 3770 
Q 2525 4250 2034 4250 
z
M 2034 4750 
Q 2819 4750 3233 4129 
Q 3647 3509 3647 2328 
Q 3647 1150 3233 529 
Q 2819 -91 2034 -91 
Q 1250 -91 836 529 
Q 422 1150 422 2328 
Q 422 3509 836 4129 
Q 1250 4750 2034 4750 
z
" transform="scale(0.015625)"/>
       </defs>
       <use xlink:href="#DejaVuSans-2212"/>
       <use xlink:href="#DejaVuSans-31" x="83.789062"/>
       <use xlink:href="#DejaVuSans-2e" x="147.412109"/>
       <use xlink:href="#DejaVuSans-30" x="179.199219"/>
      </g>
     </g>
    </g>
    <g id="xtick_2">
     <g id="line2d_2">
      <g>
       <use xlink:href="#m0df4cc0177" x="92.985045" y="176.621269" style="stroke: #000000; stroke-width: 0.8"/>
      </g>
     </g>
     <g id="text_2">
      <!-- −0.5 -->
      <g transform="translate(80.843639 191.219707) scale(0.1 -0.1)">
       <defs>
        <path id="DejaVuSans-35" d="M 691 4666 
L 3169 4666 
L 3169 4134 
L 1269 4134 
L 1269 2991 
Q 1406 3038 1543 3061 
Q 1681 3084 1819 3084 
Q 2600 3084 3056 2656 
Q 3513 2228 3513 1497 
Q 3513 744 3044 326 
Q 2575 -91 1722 -91 
Q 1428 -91 1123 -41 
Q 819 9 494 109 
L 494 744 
Q 775 591 1075 516 
Q 1375 441 1709 441 
Q 2250 441 2565 725 
Q 2881 1009 2881 1497 
Q 2881 1984 2565 2268 
Q 2250 2553 1709 2553 
Q 1456 2553 1204 2497 
Q 953 2441 691 2322 
L 691 4666 
z
" transform="scale(0.015625)"/>
       </defs>
       <use xlink:href="#DejaVuSans-2212"/>
       <use xlink:href="#DejaVuSans-30" x="83.789062"/>
       <use xlink:href="#DejaVuSans-2e" x="147.412109"/>
       <use xlink:href="#DejaVuSans-35" x="179.199219"/>
      </g>
     </g>
    </g>
    <g id="xtick_3">
     <g id="line2d_3">
      <g>
       <use xlink:href="#m0df4cc0177" x="166.628684" y="176.621269" style="stroke: #000000; stroke-width: 0.8"/>
      </g>
     </g>
    </g>
    <g id="xtick_4">
     <g id="line2d_4">
      <g>
       <use xlink:href="#m0df4cc0177" x="240.272323" y="176.621269" style="stroke: #000000; stroke-width: 0.8"/>
      </g>
     </g>
     <g id="text_3">
      <!-- 0.5 -->
      <g transform="translate(232.320761 191.219707) scale(0.1 -0.1)">
       <use xlink:href="#DejaVuSans-30"/>
       <use xlink:href="#DejaVuSans-2e" x="63.623047"/>
       <use xlink:href="#DejaVuSans-35" x="95.410156"/>
      </g>
     </g>
    </g>
    <g id="xtick_5">
     <g id="line2d_5">
      <g>
       <use xlink:href="#m0df4cc0177" x="313.915962" y="176.621269" style="stroke: #000000; stroke-width: 0.8"/>
      </g>
     </g>
     <g id="text_4">
      <!-- 1.0 -->
      <g transform="translate(305.9644 191.219707) scale(0.1 -0.1)">
       <use xlink:href="#DejaVuSans-31"/>
       <use xlink:href="#DejaVuSans-2e" x="63.623047"/>
       <use xlink:href="#DejaVuSans-30" x="95.410156"/>
      </g>
     </g>
    </g>
    <g id="xtick_6">
     <g id="line2d_6">
      <defs>
       <path id="m334950416c" d="M 0 0 
L 0 2 
" style="stroke: #000000; stroke-width: 0.6"/>
      </defs>
      <g>
       <use xlink:href="#m334950416c" x="34.070134" y="176.621269" style="stroke: #000000; stroke-width: 0.6"/>
      </g>
     </g>
    </g>
    <g id="xtick_7">
     <g id="line2d_7">
      <g>
       <use xlink:href="#m334950416c" x="48.798862" y="176.621269" style="stroke: #000000; stroke-width: 0.6"/>
      </g>
     </g>
    </g>
    <g id="xtick_8">
     <g id="line2d_8">
      <g>
       <use xlink:href="#m334950416c" x="63.52759" y="176.621269" style="stroke: #000000; stroke-width: 0.6"/>
      </g>
     </g>
    </g>
    <g id="xtick_9">
     <g id="line2d_9">
      <g>
       <use xlink:href="#m334950416c" x="78.256317" y="176.621269" style="stroke: #000000; stroke-width: 0.6"/>
      </g>
     </g>
    </g>
    <g id="xtick_10">
     <g id="line2d_10">
      <g>
       <use xlink:href="#m334950416c" x="107.713773" y="176.621269" style="stroke: #000000; stroke-width: 0.6"/>
      </g>
     </g>
    </g>
    <g id="xtick_11">
     <g id="line2d_11">
      <g>
       <use xlink:href="#m334950416c" x="122.442501" y="176.621269" style="stroke: #000000; stroke-width: 0.6"/>
      </g>
     </g>
    </g>
    <g id="xtick_12">
     <g id="line2d_12">
      <g>
       <use xlink:href="#m334950416c" x="137.171229" y="176.621269" style="stroke: #000000; stroke-width: 0.6"/>
      </g>
     </g>
    </g>
    <g id="xtick_13">
     <g id="line2d_13">
      <g>
       <use xlink:href="#m334950416c" x="151.899957" y="176.621269" style="stroke: #000000; stroke-width: 0.6"/>
      </g>
     </g>
    </g>
    <g id="xtick_14">
     <g id="line2d_14">
      <g>
       <use xlink:href="#m334950416c" x="181.357412" y="176.621269" style="stroke: #000000; stroke-width: 0.6"/>
      </g>
     </g>
    </g>
    <g id="xtick_15">
     <g id="line2d_15">
      <g>
       <use xlink:href="#m334950416c" x="196.08614" y="176.621269" style="stroke: #000000; stroke-width: 0.6"/>
      </g>
     </g>
    </g>
    <g id="xtick_16">
     <g id="line2d_16">
      <g>
       <use xlink:href="#m334950416c" x="210.814868" y="176.621269" style="stroke: #000000; stroke-width: 0.6"/>
      </g>
     </g>
    </g>
    <g id="xtick_17">
     <g id="line2d_17">
      <g>
       <use xlink:href="#m334950416c" x="225.543596" y="176.621269" style="stroke: #000000; stroke-width: 0.6"/>
      </g>
     </g>
    </g>
    <g id="xtick_18">
     <g id="line2d_18">
      <g>
       <use xlink:href="#m334950416c" x="255.001051" y="176.621269" style="stroke: #000000; stroke-width: 0.6"/>
      </g>
     </g>
    </g>
    <g id="xtick_19">
     <g id="line2d_19">
      <g>
       <use xlink:href="#m334950416c" x="269.729779" y="176.621269" style="stroke: #000000; stroke-width: 0.6"/>
      </g>
     </g>
    </g>
    <g id="xtick_20">
     <g id="line2d_20">
      <g>
       <use xlink:href="#m334950416c" x="284.458507" y="176.621269" style="stroke: #000000; stroke-width: 0.6"/>
      </g>
     </g>
    </g>
    <g id="xtick_21">
     <g id="line2d_21">
      <g>
       <use xlink:href="#m334950416c" x="299.187235" y="176.621269" style="stroke: #000000; stroke-width: 0.6"/>
      </g>
     </g>
    </g>
    <g id="text_5">
     <!-- $x$ -->
     <g transform="translate(327.807454 176.621269) scale(0.16 -0.16)">
      <defs>
       <path id="Cmmi10-78" d="M 500 184 
Q 613 97 819 97 
Q 1019 97 1172 289 
Q 1325 481 1381 709 
L 1672 1844 
Q 1741 2153 1741 2266 
Q 1741 2425 1652 2544 
Q 1563 2663 1403 2663 
Q 1200 2663 1022 2536 
Q 844 2409 722 2214 
Q 600 2019 550 1819 
Q 538 1778 500 1778 
L 422 1778 
Q 372 1778 372 1838 
L 372 1856 
Q 434 2094 584 2320 
Q 734 2547 951 2687 
Q 1169 2828 1416 2828 
Q 1650 2828 1839 2703 
Q 2028 2578 2106 2363 
Q 2216 2559 2386 2693 
Q 2556 2828 2759 2828 
Q 2897 2828 3040 2779 
Q 3184 2731 3275 2631 
Q 3366 2531 3366 2381 
Q 3366 2219 3261 2101 
Q 3156 1984 2994 1984 
Q 2891 1984 2822 2050 
Q 2753 2116 2753 2216 
Q 2753 2350 2845 2451 
Q 2938 2553 3066 2572 
Q 2950 2663 2747 2663 
Q 2541 2663 2389 2472 
Q 2238 2281 2175 2047 
L 1894 916 
Q 1825 659 1825 494 
Q 1825 331 1917 214 
Q 2009 97 2163 97 
Q 2463 97 2698 361 
Q 2934 625 3009 941 
Q 3022 978 3059 978 
L 3138 978 
Q 3163 978 3178 961 
Q 3194 944 3194 922 
Q 3194 916 3188 903 
Q 3097 522 2806 225 
Q 2516 -72 2150 -72 
Q 1916 -72 1727 54 
Q 1538 181 1459 397 
Q 1359 209 1182 68 
Q 1006 -72 806 -72 
Q 669 -72 523 -23 
Q 378 25 287 125 
Q 197 225 197 378 
Q 197 528 301 651 
Q 406 775 563 775 
Q 669 775 741 711 
Q 813 647 813 544 
Q 813 409 723 309 
Q 634 209 500 184 
z
" transform="scale(0.015625)"/>
      </defs>
      <use xlink:href="#Cmmi10-78" transform="translate(0 0.8125)"/>
     </g>
    </g>
   </g>
   <g id="matplotlib.axis_2">
    <g id="ytick_1">
     <g id="line2d_22">
      <defs>
       <path id="m6f3a5bf88b" d="M 0 0 
L -3.5 0 
" style="stroke: #000000; stroke-width: 0.8"/>
      </defs>
      <g>
       <use xlink:href="#m6f3a5bf88b" x="166.628684" y="323.908547" style="stroke: #000000; stroke-width: 0.8"/>
      </g>
     </g>
     <g id="text_6">
      <!-- −1.0 -->
      <g transform="translate(135.345872 327.707766) scale(0.1 -0.1)">
       <use xlink:href="#DejaVuSans-2212"/>
       <use xlink:href="#DejaVuSans-31" x="83.789062"/>
       <use xlink:href="#DejaVuSans-2e" x="147.412109"/>
       <use xlink:href="#DejaVuSans-30" x="179.199219"/>
      </g>
     </g>
    </g>
    <g id="ytick_2">
     <g id="line2d_23">
      <g>
       <use xlink:href="#m6f3a5bf88b" x="166.628684" y="250.264908" style="stroke: #000000; stroke-width: 0.8"/>
      </g>
     </g>
     <g id="text_7">
      <!-- −0.5 -->
      <g transform="translate(135.345872 254.064127) scale(0.1 -0.1)">
       <use xlink:href="#DejaVuSans-2212"/>
       <use xlink:href="#DejaVuSans-30" x="83.789062"/>
       <use xlink:href="#DejaVuSans-2e" x="147.412109"/>
       <use xlink:href="#DejaVuSans-35" x="179.199219"/>
      </g>
     </g>
    </g>
    <g id="ytick_3">
     <g id="line2d_24">
      <g>
       <use xlink:href="#m6f3a5bf88b" x="166.628684" y="176.621269" style="stroke: #000000; stroke-width: 0.8"/>
      </g>
     </g>
    </g>
    <g id="ytick_4">
     <g id="line2d_25">
      <g>
       <use xlink:href="#m6f3a5bf88b" x="166.628684" y="102.97763" style="stroke: #000000; stroke-width: 0.8"/>
      </g>
     </g>
     <g id="text_8">
      <!-- 0.5 -->
      <g transform="translate(143.725559 106.776849) scale(0.1 -0.1)">
       <use xlink:href="#DejaVuSans-30"/>
       <use xlink:href="#DejaVuSans-2e" x="63.623047"/>
       <use xlink:href="#DejaVuSans-35" x="95.410156"/>
      </g>
     </g>
    </g>
    <g id="ytick_5">
     <g id="line2d_26">
      <g>
       <use xlink:href="#m6f3a5bf88b" x="166.628684" y="29.333991" style="stroke: #000000; stroke-width: 0.8"/>
      </g>
     </g>
     <g id="text_9">
      <!-- 1.0 -->
      <g transform="translate(143.725559 33.13321) scale(0.1 -0.1)">
       <use xlink:href="#DejaVuSans-31"/>
       <use xlink:href="#DejaVuSans-2e" x="63.623047"/>
       <use xlink:href="#DejaVuSans-30" x="95.410156"/>
      </g>
     </g>
    </g>
    <g id="ytick_6">
     <g id="line2d_27">
      <defs>
       <path id="m718d03c2b9" d="M 0 0 
L -2 0 
" style="stroke: #000000; stroke-width: 0.6"/>
      </defs>
      <g>
       <use xlink:href="#m718d03c2b9" x="166.628684" y="309.17982" style="stroke: #000000; stroke-width: 0.6"/>
      </g>
     </g>
    </g>
    <g id="ytick_7">
     <g id="line2d_28">
      <g>
       <use xlink:href="#m718d03c2b9" x="166.628684" y="294.451092" style="stroke: #000000; stroke-width: 0.6"/>
      </g>
     </g>
    </g>
    <g id="ytick_8">
     <g id="line2d_29">
      <g>
       <use xlink:href="#m718d03c2b9" x="166.628684" y="279.722364" style="stroke: #000000; stroke-width: 0.6"/>
      </g>
     </g>
    </g>
    <g id="ytick_9">
     <g id="line2d_30">
      <g>
       <use xlink:href="#m718d03c2b9" x="166.628684" y="264.993636" style="stroke: #000000; stroke-width: 0.6"/>
      </g>
     </g>
    </g>
    <g id="ytick_10">
     <g id="line2d_31">
      <g>
       <use xlink:href="#m718d03c2b9" x="166.628684" y="235.53618" style="stroke: #000000; stroke-width: 0.6"/>
      </g>
     </g>
    </g>
    <g id="ytick_11">
     <g id="line2d_32">
      <g>
       <use xlink:href="#m718d03c2b9" x="166.628684" y="220.807453" style="stroke: #000000; stroke-width: 0.6"/>
      </g>
     </g>
    </g>
    <g id="ytick_12">
     <g id="line2d_33">
      <g>
       <use xlink:href="#m718d03c2b9" x="166.628684" y="206.078725" style="stroke: #000000; stroke-width: 0.6"/>
      </g>
     </g>
    </g>
    <g id="ytick_13">
     <g id="line2d_34">
      <g>
       <use xlink:href="#m718d03c2b9" x="166.628684" y="191.349997" style="stroke: #000000; stroke-width: 0.6"/>
      </g>
     </g>
    </g>
    <g id="ytick_14">
     <g id="line2d_35">
      <g>
       <use xlink:href="#m718d03c2b9" x="166.628684" y="161.892541" style="stroke: #000000; stroke-width: 0.6"/>
      </g>
     </g>
    </g>
    <g id="ytick_15">
     <g id="line2d_36">
      <g>
       <use xlink:href="#m718d03c2b9" x="166.628684" y="147.163814" style="stroke: #000000; stroke-width: 0.6"/>
      </g>
     </g>
    </g>
    <g id="ytick_16">
     <g id="line2d_37">
      <g>
       <use xlink:href="#m718d03c2b9" x="166.628684" y="132.435086" style="stroke: #000000; stroke-width: 0.6"/>
      </g>
     </g>
    </g>
    <g id="ytick_17">
     <g id="line2d_38">
      <g>
       <use xlink:href="#m718d03c2b9" x="166.628684" y="117.706358" style="stroke: #000000; stroke-width: 0.6"/>
      </g>
     </g>
    </g>
    <g id="ytick_18">
     <g id="line2d_39">
      <g>
       <use xlink:href="#m718d03c2b9" x="166.628684" y="88.248902" style="stroke: #000000; stroke-width: 0.6"/>
      </g>
     </g>
    </g>
    <g id="ytick_19">
     <g id="line2d_40">
      <g>
       <use xlink:href="#m718d03c2b9" x="166.628684" y="73.520175" style="stroke: #000000; stroke-width: 0.6"/>
      </g>
     </g>
    </g>
    <g id="ytick_20">
     <g id="line2d_41">
      <g>
       <use xlink:href="#m718d03c2b9" x="166.628684" y="58.791447" style="stroke: #000000; stroke-width: 0.6"/>
      </g>
     </g>
    </g>
    <g id="ytick_21">
     <g id="line2d_42">
      <g>
       <use xlink:href="#m718d03c2b9" x="166.628684" y="44.062719" style="stroke: #000000; stroke-width: 0.6"/>
      </g>
     </g>
    </g>
    <g id="text_10">
     <!-- $y$ -->
     <g transform="translate(162.628684 12.0825) scale(0.16 -0.16)">
      <defs>
       <path id="Cmmi10-79" d="M 538 -916 
Q 672 -1147 1006 -1147 
Q 1309 -1147 1531 -934 
Q 1753 -722 1889 -420 
Q 2025 -119 2100 197 
Q 1816 -72 1484 -72 
Q 1231 -72 1053 15 
Q 875 103 776 276 
Q 678 450 678 697 
Q 678 906 734 1126 
Q 791 1347 892 1617 
Q 994 1888 1069 2088 
Q 1153 2322 1153 2472 
Q 1153 2663 1013 2663 
Q 759 2663 595 2402 
Q 431 2141 353 1819 
Q 341 1778 300 1778 
L 225 1778 
Q 172 1778 172 1838 
L 172 1856 
Q 275 2238 487 2533 
Q 700 2828 1025 2828 
Q 1253 2828 1411 2678 
Q 1569 2528 1569 2297 
Q 1569 2178 1516 2047 
Q 1488 1969 1388 1706 
Q 1288 1444 1234 1272 
Q 1181 1100 1147 934 
Q 1113 769 1113 603 
Q 1113 391 1203 244 
Q 1294 97 1491 97 
Q 1888 97 2203 581 
L 2688 2553 
Q 2709 2638 2787 2698 
Q 2866 2759 2956 2759 
Q 3034 2759 3092 2709 
Q 3150 2659 3150 2578 
Q 3150 2541 3144 2528 
L 2509 -19 
Q 2425 -347 2200 -647 
Q 1975 -947 1658 -1130 
Q 1341 -1313 997 -1313 
Q 831 -1313 668 -1248 
Q 506 -1184 406 -1056 
Q 306 -928 306 -756 
Q 306 -581 409 -453 
Q 513 -325 684 -325 
Q 788 -325 858 -389 
Q 928 -453 928 -556 
Q 928 -703 818 -812 
Q 709 -922 563 -922 
Q 556 -919 550 -917 
Q 544 -916 538 -916 
z
" transform="scale(0.015625)"/>
      </defs>
      <use xlink:href="#Cmmi10-79" transform="translate(0 0.8125)"/>
     </g>
    </g>
   </g>
   <g id="line2d_43">
    <path d="M 313.915962 176.621269 
L 313.812777 171.108994 
L 313.577799 166.646301 
L 313.011346 160.322232 
L 311.928776 152.508498 
L 310.981455 147.36687 
L 309.439393 140.58457 
L 308.484563 136.99234 
L 307.077118 132.261607 
L 305.072135 126.352458 
L 302.130261 118.890299 
L 298.765628 111.556914 
L 298.020081 110.064202 
L 295.612145 105.510025 
L 293.603854 101.983152 
L 289.843885 95.927053 
L 285.611361 89.807302 
L 283.298952 86.723599 
L 278.156273 80.417634 
L 274.493527 76.328109 
L 270.945246 72.642438 
L 265.406063 67.36665 
L 262.301779 64.638229 
L 256.34435 59.810989 
L 249.972131 55.182345 
L 245.52581 52.247696 
L 238.41643 48.013097 
L 233.320783 45.298361 
L 227.819782 42.646675 
L 220.032278 39.356567 
L 214.703831 37.400859 
L 211.054825 36.193849 
L 206.198918 34.749007 
L 202.524278 33.775028 
L 197.850359 32.68118 
L 189.51872 31.123542 
L 182.242572 30.163942 
L 176.974069 29.697768 
L 167.024952 29.334524 
L 159.541725 29.50459 
L 154.776536 29.811634 
L 149.229284 30.365318 
L 138.43457 32.05767 
L 132.662742 33.303939 
L 125.552184 35.17777 
L 121.277414 36.489886 
L 117.541301 37.75453 
L 111.392991 40.083507 
L 106.893512 41.991215 
L 100.034565 45.248648 
L 90.414489 50.585803 
L 86.716991 52.897126 
L 83.024976 55.361374 
L 76.001611 60.516679 
L 72.766789 63.115821 
L 68.082236 67.158308 
L 63.784459 71.185945 
L 60.281716 74.72002 
L 55.459117 80.00414 
L 50.710792 85.755519 
L 46.632236 91.21404 
L 43.506223 95.785623 
L 40.889568 99.919139 
L 38.938144 103.213721 
L 36.588881 107.460645 
L 33.485785 113.641028 
L 31.568043 117.866138 
L 28.975785 124.226408 
L 26.492914 131.283557 
L 25.204799 135.47729 
L 23.56703 141.594059 
L 22.003332 148.745657 
L 21.064575 154.157243 
L 19.999235 162.716344 
L 19.500473 169.777896 
L 19.342696 177.237726 
L 19.48912 183.216023 
L 20.064067 191.193682 
L 20.745976 196.913579 
L 21.954731 204.243536 
L 22.736557 208.063247 
L 24.23277 214.263609 
L 26.689705 222.562801 
L 28.150577 226.794531 
L 29.583733 230.586291 
L 32.700386 237.913627 
L 35.952224 244.571288 
L 37.907067 248.205398 
L 41.27944 253.9589 
L 43.819481 257.932042 
L 46.522473 261.874072 
L 49.724096 266.214012 
L 52.138583 269.279561 
L 55.003244 272.711348 
L 60.379894 278.624881 
L 63.014685 281.300214 
L 68.216183 286.204671 
L 73.921008 291.071385 
L 79.231947 295.176541 
L 86.030972 299.899617 
L 88.457181 301.452188 
L 97.021148 306.422399 
L 101.943177 308.944084 
L 109.880815 312.537499 
L 113.767448 314.095747 
L 117.603778 315.510077 
L 122.085976 317.011758 
L 129.083639 319.042868 
L 135.175846 320.511023 
L 143.126671 322.021399 
L 151.364095 323.115415 
L 159.601682 323.740824 
L 168.396432 323.897939 
L 172.662781 323.784892 
L 181.686888 323.136773 
L 187.837307 322.373582 
L 196.151008 320.919484 
L 202.96025 319.357248 
L 208.546786 317.81764 
L 213.242697 316.337682 
L 218.187177 314.589614 
L 227.592265 310.699545 
L 230.886873 309.152124 
L 235.813411 306.648251 
L 241.375005 303.532773 
L 247.84096 299.49563 
L 250.991961 297.353949 
L 259.373425 291.041352 
L 266.634701 284.752388 
L 271.510936 280.029468 
L 276.221234 275.023583 
L 280.366601 270.201335 
L 282.798813 267.164317 
L 286.166029 262.669892 
L 289.24242 258.226503 
L 291.726432 254.365052 
L 295.282904 248.326459 
L 297.189761 244.792727 
L 300.155597 238.783202 
L 303.464072 231.115481 
L 305.85639 224.675285 
L 307.476012 219.697628 
L 308.629823 215.726497 
L 309.671695 211.724538 
L 310.809871 206.709932 
L 311.765195 201.699855 
L 312.469189 197.214704 
L 313.01761 192.863952 
L 313.585164 186.487143 
L 313.869335 180.327097 
L 313.915962 176.621269 
L 313.915962 176.621269 
" clip-path="url(#pb498224bf6)" style="fill: none; stroke-dasharray: 3.7,1.6; stroke-dashoffset: 0; stroke: #0000ff"/>
   </g>
   <g id="patch_6">
    <path d="M 166.628684 329.800038 
L 166.628684 23.4425 
" style="fill: none; stroke: #000000; stroke-width: 0.8; stroke-linejoin: miter; stroke-linecap: square"/>
   </g>
   <g id="patch_7">
    <path d="M 13.449915 176.621269 
L 319.807454 176.621269 
" style="fill: none; stroke: #000000; stroke-width: 0.8; stroke-linejoin: miter; stroke-linecap: square"/>
   </g>
   <g id="text_11">
    <!-- $P$ -->
    <g transform="translate(102.838773 131.664572) scale(0.15 -0.15)">
     <defs>
      <path id="Cmmi10-50" d="M 313 0 
Q 250 0 250 84 
Q 253 100 262 139 
Q 272 178 289 201 
Q 306 225 331 225 
Q 722 225 878 269 
Q 959 297 997 441 
L 1875 3956 
Q 1888 4019 1888 4044 
Q 1888 4113 1813 4122 
Q 1691 4147 1350 4147 
Q 1288 4147 1288 4231 
Q 1291 4247 1300 4286 
Q 1309 4325 1326 4348 
Q 1344 4372 1369 4372 
L 3578 4372 
Q 3881 4372 4165 4264 
Q 4450 4156 4631 3934 
Q 4813 3713 4813 3397 
Q 4813 2991 4527 2672 
Q 4241 2353 3814 2175 
Q 3388 1997 2988 1997 
L 1947 1997 
L 1556 416 
Q 1544 353 1544 325 
Q 1544 300 1551 283 
Q 1559 266 1573 261 
Q 1588 256 1619 250 
Q 1741 225 2081 225 
Q 2144 225 2144 141 
Q 2122 50 2109 25 
Q 2097 0 2034 0 
L 313 0 
z
M 1978 2188 
L 2875 2188 
Q 3497 2188 3822 2522 
Q 3988 2688 4092 3000 
Q 4197 3313 4197 3566 
Q 4197 3881 3956 4014 
Q 3716 4147 3359 4147 
L 2747 4147 
Q 2572 4147 2515 4117 
Q 2459 4088 2413 3928 
L 1978 2188 
z
" transform="scale(0.015625)"/>
     </defs>
     <use xlink:href="#Cmmi10-50" transform="translate(0 0.6875)"/>
    </g>
   </g>
   <g id="text_12">
    <!-- $Q$ -->
    <g transform="translate(278.458507 62.930509) scale(0.15 -0.15)">
     <defs>
      <path id="Cmmi10-51" d="M 1947 -141 
Q 1466 -141 1094 79 
Q 722 300 520 692 
Q 319 1084 319 1563 
Q 319 2259 714 2950 
Q 1109 3641 1756 4077 
Q 2403 4513 3109 4513 
Q 3475 4513 3778 4381 
Q 4081 4250 4290 4017 
Q 4500 3784 4614 3471 
Q 4728 3159 4728 2791 
Q 4728 2366 4581 1936 
Q 4434 1506 4171 1136 
Q 3909 766 3559 484 
Q 3209 203 2809 38 
Q 2850 -256 2934 -425 
Q 3019 -594 3256 -594 
Q 3506 -594 3726 -412 
Q 3947 -231 4006 13 
Q 4019 72 4078 72 
Q 4147 72 4147 -13 
Q 4100 -219 4008 -430 
Q 3916 -641 3786 -823 
Q 3656 -1006 3478 -1123 
Q 3300 -1241 3084 -1241 
Q 2547 -1241 2547 -550 
Q 2547 -509 2562 -332 
Q 2578 -156 2578 -44 
Q 2269 -141 1947 -141 
z
M 1709 300 
Q 1709 44 1991 44 
Q 2275 44 2591 184 
L 2591 244 
Q 2591 503 2509 648 
Q 2428 794 2194 794 
Q 2078 794 1964 723 
Q 1850 653 1779 539 
Q 1709 425 1709 300 
z
M 1544 288 
Q 1544 456 1637 612 
Q 1731 769 1881 864 
Q 2031 959 2203 959 
Q 2481 959 2607 771 
Q 2734 584 2778 281 
Q 3188 525 3500 978 
Q 3813 1431 3977 1973 
Q 4141 2516 4141 3003 
Q 4141 3356 4023 3656 
Q 3906 3956 3664 4140 
Q 3422 4325 3066 4325 
Q 2722 4325 2403 4156 
Q 2084 3988 1813 3706 
Q 1550 3434 1342 3032 
Q 1134 2631 1021 2193 
Q 909 1756 909 1356 
Q 909 947 1068 612 
Q 1228 278 1569 128 
Q 1544 194 1544 288 
z
" transform="scale(0.015625)"/>
     </defs>
     <use xlink:href="#Cmmi10-51" transform="translate(0 0.484375)"/>
    </g>
   </g>
  </g>
 </g>
 <defs>
  <clipPath id="pb498224bf6">
   <rect x="13.449915" y="23.4425" width="306.357538" height="306.357538"/>
  </clipPath>
 </defs>
</svg>
