<?xml version="1.0" encoding="utf-8" standalone="no"?>
<!DOCTYPE svg PUBLIC "-//W3C//DTD SVG 1.1//EN"
  "http://www.w3.org/Graphics/SVG/1.1/DTD/svg11.dtd">
<svg xmlns:xlink="http://www.w3.org/1999/xlink" width="340.146442pt" height="336.998831pt" viewBox="0 0 340.146442 336.998831" xmlns="http://www.w3.org/2000/svg" version="1.1">
 <metadata>
  <rdf:RDF xmlns:dc="http://purl.org/dc/elements/1.1/" xmlns:cc="http://creativecommons.org/ns#" xmlns:rdf="http://www.w3.org/1999/02/22-rdf-syntax-ns#">
   <cc:Work>
    <dc:type rdf:resource="http://purl.org/dc/dcmitype/StillImage"/>
    <dc:date>2024-12-16T16:33:59.661559</dc:date>
    <dc:format>image/svg+xml</dc:format>
    <dc:creator>
     <cc:Agent>
      <dc:title>Matplotlib v3.6.2, https://matplotlib.org/</dc:title>
     </cc:Agent>
    </dc:creator>
   </cc:Work>
  </rdf:RDF>
 </metadata>
 <defs>
  <style type="text/css">*{stroke-linejoin: round; stroke-linecap: butt}</style>
 </defs>
 <g id="figure_1">
  <g id="patch_1">
   <path d="M 0 336.998831 
L 340.146442 336.998831 
L 340.146442 0 
L 0 0 
z
" style="fill: #ffffff"/>
  </g>
  <g id="axes_1">
   <g id="patch_2">
    <path d="M 13.456735 329.798831 
L 319.806442 329.798831 
L 319.806442 23.4425 
L 13.456735 23.4425 
z
" style="fill: #ffffff"/>
   </g>
   <g id="matplotlib.axis_1">
    <g id="xtick_1">
     <g id="line2d_1">
      <defs>
       <path id="mf69b3ed7c4" d="M 0 0 
L 0 3.5 
" style="stroke: #000000; stroke-width: 0.8"/>
      </defs>
      <g>
       <use xlink:href="#mf69b3ed7c4" x="19.341406" y="176.621361" style="stroke: #000000; stroke-width: 0.8"/>
      </g>
     </g>
     <g id="text_1">
      <!-- −1.0 -->
      <g transform="translate(7.2 191.219798) scale(0.1 -0.1)">
       <defs>
        <path id="DejaVuSans-2212" d="M 678 2272 
L 4684 2272 
L 4684 1741 
L 678 1741 
L 678 2272 
z
" transform="scale(0.015625)"/>
        <path id="DejaVuSans-31" d="M 794 531 
L 1825 531 
L 1825 4091 
L 703 3866 
L 703 4441 
L 1819 4666 
L 2450 4666 
L 2450 531 
L 3481 531 
L 3481 0 
L 794 0 
L 794 531 
z
" transform="scale(0.015625)"/>
        <path id="DejaVuSans-2e" d="M 684 794 
L 1344 794 
L 1344 0 
L 684 0 
L 684 794 
z
" transform="scale(0.015625)"/>
        <path id="DejaVuSans-30" d="M 2034 4250 
Q 1547 4250 1301 3770 
Q 1056 3291 1056 2328 
Q 1056 1369 1301 889 
Q 1547 409 2034 409 
Q 2525 409 2770 889 
Q 3016 1369 3016 2328 
Q 3016 3291 2770 3770 
Q 2525 4250 2034 4250 
z
M 2034 4750 
Q 2819 4750 3233 4129 
Q 3647 3509 3647 2328 
Q 3647 1150 3233 529 
Q 2819 -91 2034 -91 
Q 1250 -91 836 529 
Q 422 1150 422 2328 
Q 422 3509 836 4129 
Q 1250 4750 2034 4750 
z
" transform="scale(0.015625)"/>
       </defs>
       <use xlink:href="#DejaVuSans-2212"/>
       <use xlink:href="#DejaVuSans-31" x="83.789062"/>
       <use xlink:href="#DejaVuSans-2e" x="147.412109"/>
       <use xlink:href="#DejaVuSans-30" x="179.199219"/>
      </g>
     </g>
    </g>
    <g id="xtick_2">
     <g id="line2d_2">
      <g>
       <use xlink:href="#mf69b3ed7c4" x="92.985103" y="176.621361" style="stroke: #000000; stroke-width: 0.8"/>
      </g>
     </g>
     <g id="text_2">
      <!-- −0.5 -->
      <g transform="translate(80.843696 191.219798) scale(0.1 -0.1)">
       <defs>
        <path id="DejaVuSans-35" d="M 691 4666 
L 3169 4666 
L 3169 4134 
L 1269 4134 
L 1269 2991 
Q 1406 3038 1543 3061 
Q 1681 3084 1819 3084 
Q 2600 3084 3056 2656 
Q 3513 2228 3513 1497 
Q 3513 744 3044 326 
Q 2575 -91 1722 -91 
Q 1428 -91 1123 -41 
Q 819 9 494 109 
L 494 744 
Q 775 591 1075 516 
Q 1375 441 1709 441 
Q 2250 441 2565 725 
Q 2881 1009 2881 1497 
Q 2881 1984 2565 2268 
Q 2250 2553 1709 2553 
Q 1456 2553 1204 2497 
Q 953 2441 691 2322 
L 691 4666 
z
" transform="scale(0.015625)"/>
       </defs>
       <use xlink:href="#DejaVuSans-2212"/>
       <use xlink:href="#DejaVuSans-30" x="83.789062"/>
       <use xlink:href="#DejaVuSans-2e" x="147.412109"/>
       <use xlink:href="#DejaVuSans-35" x="179.199219"/>
      </g>
     </g>
    </g>
    <g id="xtick_3">
     <g id="line2d_3">
      <g>
       <use xlink:href="#mf69b3ed7c4" x="166.628799" y="176.621361" style="stroke: #000000; stroke-width: 0.8"/>
      </g>
     </g>
    </g>
    <g id="xtick_4">
     <g id="line2d_4">
      <g>
       <use xlink:href="#mf69b3ed7c4" x="240.272495" y="176.621361" style="stroke: #000000; stroke-width: 0.8"/>
      </g>
     </g>
     <g id="text_3">
      <!-- 0.5 -->
      <g transform="translate(232.320933 191.219798) scale(0.1 -0.1)">
       <use xlink:href="#DejaVuSans-30"/>
       <use xlink:href="#DejaVuSans-2e" x="63.623047"/>
       <use xlink:href="#DejaVuSans-35" x="95.410156"/>
      </g>
     </g>
    </g>
    <g id="xtick_5">
     <g id="line2d_5">
      <g>
       <use xlink:href="#mf69b3ed7c4" x="313.916192" y="176.621361" style="stroke: #000000; stroke-width: 0.8"/>
      </g>
     </g>
     <g id="text_4">
      <!-- 1.0 -->
      <g transform="translate(305.964629 191.219798) scale(0.1 -0.1)">
       <use xlink:href="#DejaVuSans-31"/>
       <use xlink:href="#DejaVuSans-2e" x="63.623047"/>
       <use xlink:href="#DejaVuSans-30" x="95.410156"/>
      </g>
     </g>
    </g>
    <g id="xtick_6">
     <g id="line2d_6">
      <defs>
       <path id="m44ee18fef4" d="M 0 0 
L 0 2 
" style="stroke: #000000; stroke-width: 0.6"/>
      </defs>
      <g>
       <use xlink:href="#m44ee18fef4" x="34.070146" y="176.621361" style="stroke: #000000; stroke-width: 0.6"/>
      </g>
     </g>
    </g>
    <g id="xtick_7">
     <g id="line2d_7">
      <g>
       <use xlink:href="#m44ee18fef4" x="48.798885" y="176.621361" style="stroke: #000000; stroke-width: 0.6"/>
      </g>
     </g>
    </g>
    <g id="xtick_8">
     <g id="line2d_8">
      <g>
       <use xlink:href="#m44ee18fef4" x="63.527624" y="176.621361" style="stroke: #000000; stroke-width: 0.6"/>
      </g>
     </g>
    </g>
    <g id="xtick_9">
     <g id="line2d_9">
      <g>
       <use xlink:href="#m44ee18fef4" x="78.256363" y="176.621361" style="stroke: #000000; stroke-width: 0.6"/>
      </g>
     </g>
    </g>
    <g id="xtick_10">
     <g id="line2d_10">
      <g>
       <use xlink:href="#m44ee18fef4" x="107.713842" y="176.621361" style="stroke: #000000; stroke-width: 0.6"/>
      </g>
     </g>
    </g>
    <g id="xtick_11">
     <g id="line2d_11">
      <g>
       <use xlink:href="#m44ee18fef4" x="122.442581" y="176.621361" style="stroke: #000000; stroke-width: 0.6"/>
      </g>
     </g>
    </g>
    <g id="xtick_12">
     <g id="line2d_12">
      <g>
       <use xlink:href="#m44ee18fef4" x="137.17132" y="176.621361" style="stroke: #000000; stroke-width: 0.6"/>
      </g>
     </g>
    </g>
    <g id="xtick_13">
     <g id="line2d_13">
      <g>
       <use xlink:href="#m44ee18fef4" x="151.90006" y="176.621361" style="stroke: #000000; stroke-width: 0.6"/>
      </g>
     </g>
    </g>
    <g id="xtick_14">
     <g id="line2d_14">
      <g>
       <use xlink:href="#m44ee18fef4" x="181.357538" y="176.621361" style="stroke: #000000; stroke-width: 0.6"/>
      </g>
     </g>
    </g>
    <g id="xtick_15">
     <g id="line2d_15">
      <g>
       <use xlink:href="#m44ee18fef4" x="196.086277" y="176.621361" style="stroke: #000000; stroke-width: 0.6"/>
      </g>
     </g>
    </g>
    <g id="xtick_16">
     <g id="line2d_16">
      <g>
       <use xlink:href="#m44ee18fef4" x="210.815017" y="176.621361" style="stroke: #000000; stroke-width: 0.6"/>
      </g>
     </g>
    </g>
    <g id="xtick_17">
     <g id="line2d_17">
      <g>
       <use xlink:href="#m44ee18fef4" x="225.543756" y="176.621361" style="stroke: #000000; stroke-width: 0.6"/>
      </g>
     </g>
    </g>
    <g id="xtick_18">
     <g id="line2d_18">
      <g>
       <use xlink:href="#m44ee18fef4" x="255.001234" y="176.621361" style="stroke: #000000; stroke-width: 0.6"/>
      </g>
     </g>
    </g>
    <g id="xtick_19">
     <g id="line2d_19">
      <g>
       <use xlink:href="#m44ee18fef4" x="269.729974" y="176.621361" style="stroke: #000000; stroke-width: 0.6"/>
      </g>
     </g>
    </g>
    <g id="xtick_20">
     <g id="line2d_20">
      <g>
       <use xlink:href="#m44ee18fef4" x="284.458713" y="176.621361" style="stroke: #000000; stroke-width: 0.6"/>
      </g>
     </g>
    </g>
    <g id="xtick_21">
     <g id="line2d_21">
      <g>
       <use xlink:href="#m44ee18fef4" x="299.187452" y="176.621361" style="stroke: #000000; stroke-width: 0.6"/>
      </g>
     </g>
    </g>
    <g id="text_5">
     <!-- $x$ -->
     <g transform="translate(327.806442 176.621361) scale(0.16 -0.16)">
      <defs>
       <path id="Cmmi10-78" d="M 500 184 
Q 613 97 819 97 
Q 1019 97 1172 289 
Q 1325 481 1381 709 
L 1672 1844 
Q 1741 2153 1741 2266 
Q 1741 2425 1652 2544 
Q 1563 2663 1403 2663 
Q 1200 2663 1022 2536 
Q 844 2409 722 2214 
Q 600 2019 550 1819 
Q 538 1778 500 1778 
L 422 1778 
Q 372 1778 372 1838 
L 372 1856 
Q 434 2094 584 2320 
Q 734 2547 951 2687 
Q 1169 2828 1416 2828 
Q 1650 2828 1839 2703 
Q 2028 2578 2106 2363 
Q 2216 2559 2386 2693 
Q 2556 2828 2759 2828 
Q 2897 2828 3040 2779 
Q 3184 2731 3275 2631 
Q 3366 2531 3366 2381 
Q 3366 2219 3261 2101 
Q 3156 1984 2994 1984 
Q 2891 1984 2822 2050 
Q 2753 2116 2753 2216 
Q 2753 2350 2845 2451 
Q 2938 2553 3066 2572 
Q 2950 2663 2747 2663 
Q 2541 2663 2389 2472 
Q 2238 2281 2175 2047 
L 1894 916 
Q 1825 659 1825 494 
Q 1825 331 1917 214 
Q 2009 97 2163 97 
Q 2463 97 2698 361 
Q 2934 625 3009 941 
Q 3022 978 3059 978 
L 3138 978 
Q 3163 978 3178 961 
Q 3194 944 3194 922 
Q 3194 916 3188 903 
Q 3097 522 2806 225 
Q 2516 -72 2150 -72 
Q 1916 -72 1727 54 
Q 1538 181 1459 397 
Q 1359 209 1182 68 
Q 1006 -72 806 -72 
Q 669 -72 523 -23 
Q 378 25 287 125 
Q 197 225 197 378 
Q 197 528 301 651 
Q 406 775 563 775 
Q 669 775 741 711 
Q 813 647 813 544 
Q 813 409 723 309 
Q 634 209 500 184 
z
" transform="scale(0.015625)"/>
      </defs>
      <use xlink:href="#Cmmi10-78" transform="translate(0 0.8125)"/>
     </g>
    </g>
   </g>
   <g id="matplotlib.axis_2">
    <g id="ytick_1">
     <g id="line2d_22">
      <defs>
       <path id="m40f87d7d05" d="M 0 0 
L -3.5 0 
" style="stroke: #000000; stroke-width: 0.8"/>
      </defs>
      <g>
       <use xlink:href="#m40f87d7d05" x="166.628799" y="323.908753" style="stroke: #000000; stroke-width: 0.8"/>
      </g>
     </g>
     <g id="text_6">
      <!-- −1.0 -->
      <g transform="translate(135.345986 327.707972) scale(0.1 -0.1)">
       <use xlink:href="#DejaVuSans-2212"/>
       <use xlink:href="#DejaVuSans-31" x="83.789062"/>
       <use xlink:href="#DejaVuSans-2e" x="147.412109"/>
       <use xlink:href="#DejaVuSans-30" x="179.199219"/>
      </g>
     </g>
    </g>
    <g id="ytick_2">
     <g id="line2d_23">
      <g>
       <use xlink:href="#m40f87d7d05" x="166.628799" y="250.265057" style="stroke: #000000; stroke-width: 0.8"/>
      </g>
     </g>
     <g id="text_7">
      <!-- −0.5 -->
      <g transform="translate(135.345986 254.064276) scale(0.1 -0.1)">
       <use xlink:href="#DejaVuSans-2212"/>
       <use xlink:href="#DejaVuSans-30" x="83.789062"/>
       <use xlink:href="#DejaVuSans-2e" x="147.412109"/>
       <use xlink:href="#DejaVuSans-35" x="179.199219"/>
      </g>
     </g>
    </g>
    <g id="ytick_3">
     <g id="line2d_24">
      <g>
       <use xlink:href="#m40f87d7d05" x="166.628799" y="176.621361" style="stroke: #000000; stroke-width: 0.8"/>
      </g>
     </g>
    </g>
    <g id="ytick_4">
     <g id="line2d_25">
      <g>
       <use xlink:href="#m40f87d7d05" x="166.628799" y="102.977664" style="stroke: #000000; stroke-width: 0.8"/>
      </g>
     </g>
     <g id="text_8">
      <!-- 0.5 -->
      <g transform="translate(143.725674 106.776883) scale(0.1 -0.1)">
       <use xlink:href="#DejaVuSans-30"/>
       <use xlink:href="#DejaVuSans-2e" x="63.623047"/>
       <use xlink:href="#DejaVuSans-35" x="95.410156"/>
      </g>
     </g>
    </g>
    <g id="ytick_5">
     <g id="line2d_26">
      <g>
       <use xlink:href="#m40f87d7d05" x="166.628799" y="29.333968" style="stroke: #000000; stroke-width: 0.8"/>
      </g>
     </g>
     <g id="text_9">
      <!-- 1.0 -->
      <g transform="translate(143.725674 33.133187) scale(0.1 -0.1)">
       <use xlink:href="#DejaVuSans-31"/>
       <use xlink:href="#DejaVuSans-2e" x="63.623047"/>
       <use xlink:href="#DejaVuSans-30" x="95.410156"/>
      </g>
     </g>
    </g>
    <g id="ytick_6">
     <g id="line2d_27">
      <defs>
       <path id="m3cf6efb491" d="M 0 0 
L -2 0 
" style="stroke: #000000; stroke-width: 0.6"/>
      </defs>
      <g>
       <use xlink:href="#m3cf6efb491" x="166.628799" y="309.180014" style="stroke: #000000; stroke-width: 0.6"/>
      </g>
     </g>
    </g>
    <g id="ytick_7">
     <g id="line2d_28">
      <g>
       <use xlink:href="#m3cf6efb491" x="166.628799" y="294.451275" style="stroke: #000000; stroke-width: 0.6"/>
      </g>
     </g>
    </g>
    <g id="ytick_8">
     <g id="line2d_29">
      <g>
       <use xlink:href="#m3cf6efb491" x="166.628799" y="279.722535" style="stroke: #000000; stroke-width: 0.6"/>
      </g>
     </g>
    </g>
    <g id="ytick_9">
     <g id="line2d_30">
      <g>
       <use xlink:href="#m3cf6efb491" x="166.628799" y="264.993796" style="stroke: #000000; stroke-width: 0.6"/>
      </g>
     </g>
    </g>
    <g id="ytick_10">
     <g id="line2d_31">
      <g>
       <use xlink:href="#m3cf6efb491" x="166.628799" y="235.536318" style="stroke: #000000; stroke-width: 0.6"/>
      </g>
     </g>
    </g>
    <g id="ytick_11">
     <g id="line2d_32">
      <g>
       <use xlink:href="#m3cf6efb491" x="166.628799" y="220.807578" style="stroke: #000000; stroke-width: 0.6"/>
      </g>
     </g>
    </g>
    <g id="ytick_12">
     <g id="line2d_33">
      <g>
       <use xlink:href="#m3cf6efb491" x="166.628799" y="206.078839" style="stroke: #000000; stroke-width: 0.6"/>
      </g>
     </g>
    </g>
    <g id="ytick_13">
     <g id="line2d_34">
      <g>
       <use xlink:href="#m3cf6efb491" x="166.628799" y="191.3501" style="stroke: #000000; stroke-width: 0.6"/>
      </g>
     </g>
    </g>
    <g id="ytick_14">
     <g id="line2d_35">
      <g>
       <use xlink:href="#m3cf6efb491" x="166.628799" y="161.892621" style="stroke: #000000; stroke-width: 0.6"/>
      </g>
     </g>
    </g>
    <g id="ytick_15">
     <g id="line2d_36">
      <g>
       <use xlink:href="#m3cf6efb491" x="166.628799" y="147.163882" style="stroke: #000000; stroke-width: 0.6"/>
      </g>
     </g>
    </g>
    <g id="ytick_16">
     <g id="line2d_37">
      <g>
       <use xlink:href="#m3cf6efb491" x="166.628799" y="132.435143" style="stroke: #000000; stroke-width: 0.6"/>
      </g>
     </g>
    </g>
    <g id="ytick_17">
     <g id="line2d_38">
      <g>
       <use xlink:href="#m3cf6efb491" x="166.628799" y="117.706403" style="stroke: #000000; stroke-width: 0.6"/>
      </g>
     </g>
    </g>
    <g id="ytick_18">
     <g id="line2d_39">
      <g>
       <use xlink:href="#m3cf6efb491" x="166.628799" y="88.248925" style="stroke: #000000; stroke-width: 0.6"/>
      </g>
     </g>
    </g>
    <g id="ytick_19">
     <g id="line2d_40">
      <g>
       <use xlink:href="#m3cf6efb491" x="166.628799" y="73.520186" style="stroke: #000000; stroke-width: 0.6"/>
      </g>
     </g>
    </g>
    <g id="ytick_20">
     <g id="line2d_41">
      <g>
       <use xlink:href="#m3cf6efb491" x="166.628799" y="58.791446" style="stroke: #000000; stroke-width: 0.6"/>
      </g>
     </g>
    </g>
    <g id="ytick_21">
     <g id="line2d_42">
      <g>
       <use xlink:href="#m3cf6efb491" x="166.628799" y="44.062707" style="stroke: #000000; stroke-width: 0.6"/>
      </g>
     </g>
    </g>
    <g id="text_10">
     <!-- $y$ -->
     <g transform="translate(162.628799 12.0825) scale(0.16 -0.16)">
      <defs>
       <path id="Cmmi10-79" d="M 538 -916 
Q 672 -1147 1006 -1147 
Q 1309 -1147 1531 -934 
Q 1753 -722 1889 -420 
Q 2025 -119 2100 197 
Q 1816 -72 1484 -72 
Q 1231 -72 1053 15 
Q 875 103 776 276 
Q 678 450 678 697 
Q 678 906 734 1126 
Q 791 1347 892 1617 
Q 994 1888 1069 2088 
Q 1153 2322 1153 2472 
Q 1153 2663 1013 2663 
Q 759 2663 595 2402 
Q 431 2141 353 1819 
Q 341 1778 300 1778 
L 225 1778 
Q 172 1778 172 1838 
L 172 1856 
Q 275 2238 487 2533 
Q 700 2828 1025 2828 
Q 1253 2828 1411 2678 
Q 1569 2528 1569 2297 
Q 1569 2178 1516 2047 
Q 1488 1969 1388 1706 
Q 1288 1444 1234 1272 
Q 1181 1100 1147 934 
Q 1113 769 1113 603 
Q 1113 391 1203 244 
Q 1294 97 1491 97 
Q 1888 97 2203 581 
L 2688 2553 
Q 2709 2638 2787 2698 
Q 2866 2759 2956 2759 
Q 3034 2759 3092 2709 
Q 3150 2659 3150 2578 
Q 3150 2541 3144 2528 
L 2509 -19 
Q 2425 -347 2200 -647 
Q 1975 -947 1658 -1130 
Q 1341 -1313 997 -1313 
Q 831 -1313 668 -1248 
Q 506 -1184 406 -1056 
Q 306 -928 306 -756 
Q 306 -581 409 -453 
Q 513 -325 684 -325 
Q 788 -325 858 -389 
Q 928 -453 928 -556 
Q 928 -703 818 -812 
Q 709 -922 563 -922 
Q 556 -919 550 -917 
Q 544 -916 538 -916 
z
" transform="scale(0.015625)"/>
      </defs>
      <use xlink:href="#Cmmi10-79" transform="translate(0 0.8125)"/>
     </g>
    </g>
   </g>
   <g id="line2d_43">
    <path d="M 166.628799 29.333968 
L 182.656259 29.552788 
L 190.352047 29.815525 
L 200.863595 30.345927 
L 211.640482 31.106241 
L 218.159515 31.679786 
L 231.964896 33.205982 
L 238.226444 34.052852 
L 245.915097 35.242847 
L 251.422186 36.208463 
L 257.580512 37.414843 
L 266.173366 39.357854 
L 271.016827 40.610693 
L 275.643404 41.934188 
L 280.405377 43.448836 
L 287.414118 46.03011 
L 290.511386 47.33992 
L 295.896246 49.950188 
L 299.117917 51.780054 
L 302.423592 53.953973 
L 305.4304 56.307889 
L 307.993423 58.757992 
L 309.821817 60.921233 
L 311.365865 63.234665 
L 312.352342 65.161866 
L 313.09581 67.122396 
L 313.601929 69.127291 
L 313.846585 70.884805 
L 313.915102 72.673948 
L 313.821128 74.361195 
L 313.575651 76.074756 
L 313.119556 78.03042 
L 312.473212 80.018096 
L 311.036454 83.281206 
L 309.681928 85.711203 
L 307.135522 89.480254 
L 304.609239 92.644039 
L 301.406761 96.170879 
L 297.076618 100.395184 
L 291.417074 105.312723 
L 286.951218 108.864928 
L 282.125184 112.467848 
L 277.259814 115.907661 
L 268.194248 121.927929 
L 264.300535 124.391202 
L 252.811875 131.336243 
L 240.146619 138.570761 
L 225.185366 146.720435 
L 210.154976 154.611123 
L 189.323467 165.239996 
L 117.351393 201.622892 
L 105.343588 207.983167 
L 89.677459 216.597667 
L 78.628046 222.977545 
L 69.309381 228.631708 
L 61.495983 233.631666 
L 55.198335 237.88881 
L 48.061999 243.042041 
L 42.590403 247.316244 
L 40.317437 249.201073 
L 36.97944 252.118553 
L 34.018625 254.894119 
L 29.396661 259.734345 
L 26.952985 262.673581 
L 24.310438 266.360528 
L 22.221848 269.96013 
L 21.274477 271.990212 
L 20.63089 273.650415 
L 20.116701 275.289119 
L 19.613081 277.558397 
L 19.367557 279.783371 
L 19.359464 281.581511 
L 19.526677 283.348413 
L 19.90733 285.234089 
L 20.56291 287.259682 
L 21.466253 289.238353 
L 22.313776 290.704244 
L 23.368116 292.23165 
L 24.579671 293.727336 
L 27.129294 296.317456 
L 28.986363 297.895377 
L 31.034454 299.431217 
L 33.981892 301.366502 
L 37.403094 303.314735 
L 42.261935 305.686688 
L 47.189792 307.746451 
L 52.542931 309.689466 
L 56.998721 311.122036 
L 65.421424 313.468827 
L 73.518636 315.37017 
L 85.134114 317.624694 
L 96.455785 319.391748 
L 107.03355 320.725551 
L 115.810806 321.63001 
L 131.095779 322.817105 
L 147.369901 323.592276 
L 155.36571 323.800895 
L 165.348983 323.907363 
L 179.744922 323.762389 
L 190.492443 323.421432 
L 201.230475 322.874597 
L 213.500207 321.9819 
L 221.158701 321.268565 
L 230.007944 320.280619 
L 236.622562 319.416756 
L 247.491969 317.733586 
L 253.739997 316.596749 
L 263.658323 314.488119 
L 267.444169 313.568186 
L 275.231792 311.431822 
L 279.500094 310.095058 
L 283.550216 308.693785 
L 290.36994 305.965311 
L 294.94971 303.787561 
L 297.154128 302.606451 
L 300.207656 300.784223 
L 302.967867 298.893826 
L 304.957502 297.335835 
L 307.550909 294.947418 
L 308.880204 293.49262 
L 310.892179 290.785559 
L 311.62706 289.544783 
L 312.699354 287.247688 
L 313.436515 284.887131 
L 313.734637 283.322746 
L 313.914951 280.555305 
L 313.669662 277.712768 
L 313.28768 275.847396 
L 312.808247 274.186013 
L 312.194455 272.502209 
L 311.078612 270.044656 
L 309.688748 267.542791 
L 308.391034 265.524464 
L 306.923592 263.479525 
L 304.757473 260.773322 
L 302.324134 258.039372 
L 299.617434 255.264413 
L 297.357828 253.107512 
L 294.254099 250.326307 
L 290.313414 247.029282 
L 286.046855 243.685874 
L 277.797201 237.706825 
L 273.712571 234.926011 
L 264.947858 229.256665 
L 252.768455 221.881005 
L 243.610216 216.614644 
L 230.806457 209.543137 
L 216.092897 201.720527 
L 198.699268 192.753654 
L 168.762347 177.688163 
L 135.385736 160.910188 
L 117.65856 151.780392 
L 99.780397 142.247991 
L 88.52492 135.993156 
L 77.653128 129.686786 
L 66.587674 122.899919 
L 59.78907 118.479747 
L 53.18129 113.937382 
L 46.094979 108.701966 
L 39.447009 103.299379 
L 34.471663 98.786854 
L 30.493255 94.727902 
L 28.515436 92.487494 
L 26.724945 90.275616 
L 24.058584 86.490046 
L 22.134022 83.108768 
L 21.327614 81.377106 
L 20.657509 79.667781 
L 20.124335 77.981195 
L 19.728801 76.3188 
L 19.470893 74.679898 
L 19.348075 72.970177 
L 19.380032 71.287688 
L 19.548678 69.74746 
L 20.014428 67.614348 
L 20.823663 65.348016 
L 21.946165 63.14146 
L 23.0152 61.49411 
L 24.264918 59.882974 
L 25.388644 58.625854 
L 27.295318 56.775464 
L 29.454721 54.979425 
L 32.063834 53.103284 
L 37.179642 50.047245 
L 41.366685 47.964374 
L 46.539468 45.751635 
L 50.471617 44.273525 
L 55.792463 42.493876 
L 61.124328 40.917989 
L 70.387709 38.571649 
L 77.964863 36.950045 
L 83.800895 35.852232 
L 89.833696 34.838036 
L 102.592293 33.042957 
L 114.462319 31.740543 
L 126.075543 30.764128 
L 135.626539 30.161233 
L 143.699893 29.783572 
L 160.590252 29.364931 
L 166.628799 29.333968 
L 166.628799 29.333968 
" clip-path="url(#pd18ceb1445)" style="fill: none; stroke: #0000ff; stroke-width: 1.5; stroke-linecap: square"/>
   </g>
   <g id="patch_3">
    <path d="M 294.183423 49.066737 
Q 290.188751 47.306117 288.240225 46.447319 
" clip-path="url(#pd18ceb1445)" style="fill: none; stroke: #0000ff; stroke-width: 2; stroke-linecap: round"/>
    <path d="M 295.374333 55.055717 
L 288.240225 46.447319 
L 299.407408 45.905072 
L 295.374333 55.055717 
z
" clip-path="url(#pd18ceb1445)" style="fill: #0000ff; stroke: #0000ff; stroke-width: 2; stroke-linecap: round"/>
   </g>
   <g id="patch_4">
    <path d="M 166.628799 329.798831 
L 166.628799 23.4425 
" style="fill: none; stroke: #000000; stroke-width: 0.8; stroke-linejoin: miter; stroke-linecap: square"/>
   </g>
   <g id="patch_5">
    <path d="M 13.456735 176.621361 
L 319.806442 176.621361 
" style="fill: none; stroke: #000000; stroke-width: 0.8; stroke-linejoin: miter; stroke-linecap: square"/>
   </g>
  </g>
 </g>
 <defs>
  <clipPath id="pd18ceb1445">
   <rect x="13.456735" y="23.4425" width="306.349707" height="306.356331"/>
  </clipPath>
 </defs>
</svg>
