<?xml version="1.0" encoding="utf-8" standalone="no"?>
<!DOCTYPE svg PUBLIC "-//W3C//DTD SVG 1.1//EN"
  "http://www.w3.org/Graphics/SVG/1.1/DTD/svg11.dtd">
<svg xmlns:xlink="http://www.w3.org/1999/xlink" width="340.131442pt" height="336.998258pt" viewBox="0 0 340.131442 336.998258" xmlns="http://www.w3.org/2000/svg" version="1.1">
 <metadata>
  <rdf:RDF xmlns:dc="http://purl.org/dc/elements/1.1/" xmlns:cc="http://creativecommons.org/ns#" xmlns:rdf="http://www.w3.org/1999/02/22-rdf-syntax-ns#">
   <cc:Work>
    <dc:type rdf:resource="http://purl.org/dc/dcmitype/StillImage"/>
    <dc:date>2025-02-05T11:14:00.069364</dc:date>
    <dc:format>image/svg+xml</dc:format>
    <dc:creator>
     <cc:Agent>
      <dc:title>Matplotlib v3.6.2, https://matplotlib.org/</dc:title>
     </cc:Agent>
    </dc:creator>
   </cc:Work>
  </rdf:RDF>
 </metadata>
 <defs>
  <style type="text/css">*{stroke-linejoin: round; stroke-linecap: butt}</style>
 </defs>
 <g id="figure_1">
  <g id="patch_1">
   <path d="M 0 336.998258 
L 340.131442 336.998258 
L 340.131442 0 
L 0 0 
z
" style="fill: #ffffff"/>
  </g>
  <g id="axes_1">
   <g id="patch_2">
    <path d="M 13.453186 329.798258 
L 319.791442 329.798258 
L 319.791442 23.4425 
L 13.453186 23.4425 
z
" style="fill: #ffffff"/>
   </g>
   <g id="matplotlib.axis_1">
    <g id="xtick_1">
     <g id="line2d_1">
      <defs>
       <path id="m0abffd545c" d="M 0 0 
L 0 3.5 
" style="stroke: #000000; stroke-width: 0.8"/>
      </defs>
      <g>
       <use xlink:href="#m0abffd545c" x="19.341406" y="176.621404" style="stroke: #000000; stroke-width: 0.8"/>
      </g>
     </g>
     <g id="text_1">
      <!-- −1.0 -->
      <g transform="translate(7.2 191.219841) scale(0.1 -0.1)">
       <defs>
        <path id="DejaVuSans-2212" d="M 678 2272 
L 4684 2272 
L 4684 1741 
L 678 1741 
L 678 2272 
z
" transform="scale(0.015625)"/>
        <path id="DejaVuSans-31" d="M 794 531 
L 1825 531 
L 1825 4091 
L 703 3866 
L 703 4441 
L 1819 4666 
L 2450 4666 
L 2450 531 
L 3481 531 
L 3481 0 
L 794 0 
L 794 531 
z
" transform="scale(0.015625)"/>
        <path id="DejaVuSans-2e" d="M 684 794 
L 1344 794 
L 1344 0 
L 684 0 
L 684 794 
z
" transform="scale(0.015625)"/>
        <path id="DejaVuSans-30" d="M 2034 4250 
Q 1547 4250 1301 3770 
Q 1056 3291 1056 2328 
Q 1056 1369 1301 889 
Q 1547 409 2034 409 
Q 2525 409 2770 889 
Q 3016 1369 3016 2328 
Q 3016 3291 2770 3770 
Q 2525 4250 2034 4250 
z
M 2034 4750 
Q 2819 4750 3233 4129 
Q 3647 3509 3647 2328 
Q 3647 1150 3233 529 
Q 2819 -91 2034 -91 
Q 1250 -91 836 529 
Q 422 1150 422 2328 
Q 422 3509 836 4129 
Q 1250 4750 2034 4750 
z
" transform="scale(0.015625)"/>
       </defs>
       <use xlink:href="#DejaVuSans-2212"/>
       <use xlink:href="#DejaVuSans-31" x="83.789062"/>
       <use xlink:href="#DejaVuSans-2e" x="147.412109"/>
       <use xlink:href="#DejaVuSans-30" x="179.199219"/>
      </g>
     </g>
    </g>
    <g id="xtick_2">
     <g id="line2d_2">
      <g>
       <use xlink:href="#m0abffd545c" x="92.98513" y="176.621404" style="stroke: #000000; stroke-width: 0.8"/>
      </g>
     </g>
     <g id="text_2">
      <!-- −0.5 -->
      <g transform="translate(80.843724 191.219841) scale(0.1 -0.1)">
       <defs>
        <path id="DejaVuSans-35" d="M 691 4666 
L 3169 4666 
L 3169 4134 
L 1269 4134 
L 1269 2991 
Q 1406 3038 1543 3061 
Q 1681 3084 1819 3084 
Q 2600 3084 3056 2656 
Q 3513 2228 3513 1497 
Q 3513 744 3044 326 
Q 2575 -91 1722 -91 
Q 1428 -91 1123 -41 
Q 819 9 494 109 
L 494 744 
Q 775 591 1075 516 
Q 1375 441 1709 441 
Q 2250 441 2565 725 
Q 2881 1009 2881 1497 
Q 2881 1984 2565 2268 
Q 2250 2553 1709 2553 
Q 1456 2553 1204 2497 
Q 953 2441 691 2322 
L 691 4666 
z
" transform="scale(0.015625)"/>
       </defs>
       <use xlink:href="#DejaVuSans-2212"/>
       <use xlink:href="#DejaVuSans-30" x="83.789062"/>
       <use xlink:href="#DejaVuSans-2e" x="147.412109"/>
       <use xlink:href="#DejaVuSans-35" x="179.199219"/>
      </g>
     </g>
    </g>
    <g id="xtick_3">
     <g id="line2d_3">
      <g>
       <use xlink:href="#m0abffd545c" x="166.628853" y="176.621404" style="stroke: #000000; stroke-width: 0.8"/>
      </g>
     </g>
    </g>
    <g id="xtick_4">
     <g id="line2d_4">
      <g>
       <use xlink:href="#m0abffd545c" x="240.272577" y="176.621404" style="stroke: #000000; stroke-width: 0.8"/>
      </g>
     </g>
     <g id="text_3">
      <!-- 0.5 -->
      <g transform="translate(232.321014 191.219841) scale(0.1 -0.1)">
       <use xlink:href="#DejaVuSans-30"/>
       <use xlink:href="#DejaVuSans-2e" x="63.623047"/>
       <use xlink:href="#DejaVuSans-35" x="95.410156"/>
      </g>
     </g>
    </g>
    <g id="xtick_5">
     <g id="line2d_5">
      <g>
       <use xlink:href="#m0abffd545c" x="313.9163" y="176.621404" style="stroke: #000000; stroke-width: 0.8"/>
      </g>
     </g>
     <g id="text_4">
      <!-- 1.0 -->
      <g transform="translate(305.964738 191.219841) scale(0.1 -0.1)">
       <use xlink:href="#DejaVuSans-31"/>
       <use xlink:href="#DejaVuSans-2e" x="63.623047"/>
       <use xlink:href="#DejaVuSans-30" x="95.410156"/>
      </g>
     </g>
    </g>
    <g id="xtick_6">
     <g id="line2d_6">
      <defs>
       <path id="med30e370e9" d="M 0 0 
L 0 2 
" style="stroke: #000000; stroke-width: 0.6"/>
      </defs>
      <g>
       <use xlink:href="#med30e370e9" x="34.070151" y="176.621404" style="stroke: #000000; stroke-width: 0.6"/>
      </g>
     </g>
    </g>
    <g id="xtick_7">
     <g id="line2d_7">
      <g>
       <use xlink:href="#med30e370e9" x="48.798896" y="176.621404" style="stroke: #000000; stroke-width: 0.6"/>
      </g>
     </g>
    </g>
    <g id="xtick_8">
     <g id="line2d_8">
      <g>
       <use xlink:href="#med30e370e9" x="63.52764" y="176.621404" style="stroke: #000000; stroke-width: 0.6"/>
      </g>
     </g>
    </g>
    <g id="xtick_9">
     <g id="line2d_9">
      <g>
       <use xlink:href="#med30e370e9" x="78.256385" y="176.621404" style="stroke: #000000; stroke-width: 0.6"/>
      </g>
     </g>
    </g>
    <g id="xtick_10">
     <g id="line2d_10">
      <g>
       <use xlink:href="#med30e370e9" x="107.713874" y="176.621404" style="stroke: #000000; stroke-width: 0.6"/>
      </g>
     </g>
    </g>
    <g id="xtick_11">
     <g id="line2d_11">
      <g>
       <use xlink:href="#med30e370e9" x="122.442619" y="176.621404" style="stroke: #000000; stroke-width: 0.6"/>
      </g>
     </g>
    </g>
    <g id="xtick_12">
     <g id="line2d_12">
      <g>
       <use xlink:href="#med30e370e9" x="137.171364" y="176.621404" style="stroke: #000000; stroke-width: 0.6"/>
      </g>
     </g>
    </g>
    <g id="xtick_13">
     <g id="line2d_13">
      <g>
       <use xlink:href="#med30e370e9" x="151.900109" y="176.621404" style="stroke: #000000; stroke-width: 0.6"/>
      </g>
     </g>
    </g>
    <g id="xtick_14">
     <g id="line2d_14">
      <g>
       <use xlink:href="#med30e370e9" x="181.357598" y="176.621404" style="stroke: #000000; stroke-width: 0.6"/>
      </g>
     </g>
    </g>
    <g id="xtick_15">
     <g id="line2d_15">
      <g>
       <use xlink:href="#med30e370e9" x="196.086343" y="176.621404" style="stroke: #000000; stroke-width: 0.6"/>
      </g>
     </g>
    </g>
    <g id="xtick_16">
     <g id="line2d_16">
      <g>
       <use xlink:href="#med30e370e9" x="210.815087" y="176.621404" style="stroke: #000000; stroke-width: 0.6"/>
      </g>
     </g>
    </g>
    <g id="xtick_17">
     <g id="line2d_17">
      <g>
       <use xlink:href="#med30e370e9" x="225.543832" y="176.621404" style="stroke: #000000; stroke-width: 0.6"/>
      </g>
     </g>
    </g>
    <g id="xtick_18">
     <g id="line2d_18">
      <g>
       <use xlink:href="#med30e370e9" x="255.001321" y="176.621404" style="stroke: #000000; stroke-width: 0.6"/>
      </g>
     </g>
    </g>
    <g id="xtick_19">
     <g id="line2d_19">
      <g>
       <use xlink:href="#med30e370e9" x="269.730066" y="176.621404" style="stroke: #000000; stroke-width: 0.6"/>
      </g>
     </g>
    </g>
    <g id="xtick_20">
     <g id="line2d_20">
      <g>
       <use xlink:href="#med30e370e9" x="284.458811" y="176.621404" style="stroke: #000000; stroke-width: 0.6"/>
      </g>
     </g>
    </g>
    <g id="xtick_21">
     <g id="line2d_21">
      <g>
       <use xlink:href="#med30e370e9" x="299.187556" y="176.621404" style="stroke: #000000; stroke-width: 0.6"/>
      </g>
     </g>
    </g>
    <g id="text_5">
     <!-- $x$ -->
     <g transform="translate(327.791442 176.621404) scale(0.16 -0.16)">
      <defs>
       <path id="Cmmi10-78" d="M 500 184 
Q 613 97 819 97 
Q 1019 97 1172 289 
Q 1325 481 1381 709 
L 1672 1844 
Q 1741 2153 1741 2266 
Q 1741 2425 1652 2544 
Q 1563 2663 1403 2663 
Q 1200 2663 1022 2536 
Q 844 2409 722 2214 
Q 600 2019 550 1819 
Q 538 1778 500 1778 
L 422 1778 
Q 372 1778 372 1838 
L 372 1856 
Q 434 2094 584 2320 
Q 734 2547 951 2687 
Q 1169 2828 1416 2828 
Q 1650 2828 1839 2703 
Q 2028 2578 2106 2363 
Q 2216 2559 2386 2693 
Q 2556 2828 2759 2828 
Q 2897 2828 3040 2779 
Q 3184 2731 3275 2631 
Q 3366 2531 3366 2381 
Q 3366 2219 3261 2101 
Q 3156 1984 2994 1984 
Q 2891 1984 2822 2050 
Q 2753 2116 2753 2216 
Q 2753 2350 2845 2451 
Q 2938 2553 3066 2572 
Q 2950 2663 2747 2663 
Q 2541 2663 2389 2472 
Q 2238 2281 2175 2047 
L 1894 916 
Q 1825 659 1825 494 
Q 1825 331 1917 214 
Q 2009 97 2163 97 
Q 2463 97 2698 361 
Q 2934 625 3009 941 
Q 3022 978 3059 978 
L 3138 978 
Q 3163 978 3178 961 
Q 3194 944 3194 922 
Q 3194 916 3188 903 
Q 3097 522 2806 225 
Q 2516 -72 2150 -72 
Q 1916 -72 1727 54 
Q 1538 181 1459 397 
Q 1359 209 1182 68 
Q 1006 -72 806 -72 
Q 669 -72 523 -23 
Q 378 25 287 125 
Q 197 225 197 378 
Q 197 528 301 651 
Q 406 775 563 775 
Q 669 775 741 711 
Q 813 647 813 544 
Q 813 409 723 309 
Q 634 209 500 184 
z
" transform="scale(0.015625)"/>
      </defs>
      <use xlink:href="#Cmmi10-78" transform="translate(0 0.8125)"/>
     </g>
    </g>
   </g>
   <g id="matplotlib.axis_2">
    <g id="ytick_1">
     <g id="line2d_22">
      <defs>
       <path id="meab4a017cf" d="M 0 0 
L -3.5 0 
" style="stroke: #000000; stroke-width: 0.8"/>
      </defs>
      <g>
       <use xlink:href="#meab4a017cf" x="166.628853" y="323.908851" style="stroke: #000000; stroke-width: 0.8"/>
      </g>
     </g>
     <g id="text_6">
      <!-- −1.0 -->
      <g transform="translate(135.346041 327.70807) scale(0.1 -0.1)">
       <use xlink:href="#DejaVuSans-2212"/>
       <use xlink:href="#DejaVuSans-31" x="83.789062"/>
       <use xlink:href="#DejaVuSans-2e" x="147.412109"/>
       <use xlink:href="#DejaVuSans-30" x="179.199219"/>
      </g>
     </g>
    </g>
    <g id="ytick_2">
     <g id="line2d_23">
      <g>
       <use xlink:href="#meab4a017cf" x="166.628853" y="250.265127" style="stroke: #000000; stroke-width: 0.8"/>
      </g>
     </g>
     <g id="text_7">
      <!-- −0.5 -->
      <g transform="translate(135.346041 254.064346) scale(0.1 -0.1)">
       <use xlink:href="#DejaVuSans-2212"/>
       <use xlink:href="#DejaVuSans-30" x="83.789062"/>
       <use xlink:href="#DejaVuSans-2e" x="147.412109"/>
       <use xlink:href="#DejaVuSans-35" x="179.199219"/>
      </g>
     </g>
    </g>
    <g id="ytick_3">
     <g id="line2d_24">
      <g>
       <use xlink:href="#meab4a017cf" x="166.628853" y="176.621404" style="stroke: #000000; stroke-width: 0.8"/>
      </g>
     </g>
    </g>
    <g id="ytick_4">
     <g id="line2d_25">
      <g>
       <use xlink:href="#meab4a017cf" x="166.628853" y="102.97768" style="stroke: #000000; stroke-width: 0.8"/>
      </g>
     </g>
     <g id="text_8">
      <!-- 0.5 -->
      <g transform="translate(143.725728 106.776899) scale(0.1 -0.1)">
       <use xlink:href="#DejaVuSans-30"/>
       <use xlink:href="#DejaVuSans-2e" x="63.623047"/>
       <use xlink:href="#DejaVuSans-35" x="95.410156"/>
      </g>
     </g>
    </g>
    <g id="ytick_5">
     <g id="line2d_26">
      <g>
       <use xlink:href="#meab4a017cf" x="166.628853" y="29.333957" style="stroke: #000000; stroke-width: 0.8"/>
      </g>
     </g>
     <g id="text_9">
      <!-- 1.0 -->
      <g transform="translate(143.725728 33.133176) scale(0.1 -0.1)">
       <use xlink:href="#DejaVuSans-31"/>
       <use xlink:href="#DejaVuSans-2e" x="63.623047"/>
       <use xlink:href="#DejaVuSans-30" x="95.410156"/>
      </g>
     </g>
    </g>
    <g id="ytick_6">
     <g id="line2d_27">
      <defs>
       <path id="m23079b0e47" d="M 0 0 
L -2 0 
" style="stroke: #000000; stroke-width: 0.6"/>
      </defs>
      <g>
       <use xlink:href="#m23079b0e47" x="166.628853" y="309.180106" style="stroke: #000000; stroke-width: 0.6"/>
      </g>
     </g>
    </g>
    <g id="ytick_7">
     <g id="line2d_28">
      <g>
       <use xlink:href="#m23079b0e47" x="166.628853" y="294.451361" style="stroke: #000000; stroke-width: 0.6"/>
      </g>
     </g>
    </g>
    <g id="ytick_8">
     <g id="line2d_29">
      <g>
       <use xlink:href="#m23079b0e47" x="166.628853" y="279.722617" style="stroke: #000000; stroke-width: 0.6"/>
      </g>
     </g>
    </g>
    <g id="ytick_9">
     <g id="line2d_30">
      <g>
       <use xlink:href="#m23079b0e47" x="166.628853" y="264.993872" style="stroke: #000000; stroke-width: 0.6"/>
      </g>
     </g>
    </g>
    <g id="ytick_10">
     <g id="line2d_31">
      <g>
       <use xlink:href="#m23079b0e47" x="166.628853" y="235.536383" style="stroke: #000000; stroke-width: 0.6"/>
      </g>
     </g>
    </g>
    <g id="ytick_11">
     <g id="line2d_32">
      <g>
       <use xlink:href="#m23079b0e47" x="166.628853" y="220.807638" style="stroke: #000000; stroke-width: 0.6"/>
      </g>
     </g>
    </g>
    <g id="ytick_12">
     <g id="line2d_33">
      <g>
       <use xlink:href="#m23079b0e47" x="166.628853" y="206.078893" style="stroke: #000000; stroke-width: 0.6"/>
      </g>
     </g>
    </g>
    <g id="ytick_13">
     <g id="line2d_34">
      <g>
       <use xlink:href="#m23079b0e47" x="166.628853" y="191.350149" style="stroke: #000000; stroke-width: 0.6"/>
      </g>
     </g>
    </g>
    <g id="ytick_14">
     <g id="line2d_35">
      <g>
       <use xlink:href="#m23079b0e47" x="166.628853" y="161.892659" style="stroke: #000000; stroke-width: 0.6"/>
      </g>
     </g>
    </g>
    <g id="ytick_15">
     <g id="line2d_36">
      <g>
       <use xlink:href="#m23079b0e47" x="166.628853" y="147.163914" style="stroke: #000000; stroke-width: 0.6"/>
      </g>
     </g>
    </g>
    <g id="ytick_16">
     <g id="line2d_37">
      <g>
       <use xlink:href="#m23079b0e47" x="166.628853" y="132.43517" style="stroke: #000000; stroke-width: 0.6"/>
      </g>
     </g>
    </g>
    <g id="ytick_17">
     <g id="line2d_38">
      <g>
       <use xlink:href="#m23079b0e47" x="166.628853" y="117.706425" style="stroke: #000000; stroke-width: 0.6"/>
      </g>
     </g>
    </g>
    <g id="ytick_18">
     <g id="line2d_39">
      <g>
       <use xlink:href="#m23079b0e47" x="166.628853" y="88.248936" style="stroke: #000000; stroke-width: 0.6"/>
      </g>
     </g>
    </g>
    <g id="ytick_19">
     <g id="line2d_40">
      <g>
       <use xlink:href="#m23079b0e47" x="166.628853" y="73.520191" style="stroke: #000000; stroke-width: 0.6"/>
      </g>
     </g>
    </g>
    <g id="ytick_20">
     <g id="line2d_41">
      <g>
       <use xlink:href="#m23079b0e47" x="166.628853" y="58.791446" style="stroke: #000000; stroke-width: 0.6"/>
      </g>
     </g>
    </g>
    <g id="ytick_21">
     <g id="line2d_42">
      <g>
       <use xlink:href="#m23079b0e47" x="166.628853" y="44.062702" style="stroke: #000000; stroke-width: 0.6"/>
      </g>
     </g>
    </g>
    <g id="text_10">
     <!-- $y$ -->
     <g transform="translate(162.628853 12.0825) scale(0.16 -0.16)">
      <defs>
       <path id="Cmmi10-79" d="M 538 -916 
Q 672 -1147 1006 -1147 
Q 1309 -1147 1531 -934 
Q 1753 -722 1889 -420 
Q 2025 -119 2100 197 
Q 1816 -72 1484 -72 
Q 1231 -72 1053 15 
Q 875 103 776 276 
Q 678 450 678 697 
Q 678 906 734 1126 
Q 791 1347 892 1617 
Q 994 1888 1069 2088 
Q 1153 2322 1153 2472 
Q 1153 2663 1013 2663 
Q 759 2663 595 2402 
Q 431 2141 353 1819 
Q 341 1778 300 1778 
L 225 1778 
Q 172 1778 172 1838 
L 172 1856 
Q 275 2238 487 2533 
Q 700 2828 1025 2828 
Q 1253 2828 1411 2678 
Q 1569 2528 1569 2297 
Q 1569 2178 1516 2047 
Q 1488 1969 1388 1706 
Q 1288 1444 1234 1272 
Q 1181 1100 1147 934 
Q 1113 769 1113 603 
Q 1113 391 1203 244 
Q 1294 97 1491 97 
Q 1888 97 2203 581 
L 2688 2553 
Q 2709 2638 2787 2698 
Q 2866 2759 2956 2759 
Q 3034 2759 3092 2709 
Q 3150 2659 3150 2578 
Q 3150 2541 3144 2528 
L 2509 -19 
Q 2425 -347 2200 -647 
Q 1975 -947 1658 -1130 
Q 1341 -1313 997 -1313 
Q 831 -1313 668 -1248 
Q 506 -1184 406 -1056 
Q 306 -928 306 -756 
Q 306 -581 409 -453 
Q 513 -325 684 -325 
Q 788 -325 858 -389 
Q 928 -453 928 -556 
Q 928 -703 818 -812 
Q 709 -922 563 -922 
Q 556 -919 550 -917 
Q 544 -916 538 -916 
z
" transform="scale(0.015625)"/>
      </defs>
      <use xlink:href="#Cmmi10-79" transform="translate(0 0.8125)"/>
     </g>
    </g>
   </g>
   <g id="line2d_43">
    <path d="M 166.628853 29.333957 
L 175.046603 29.394155 
L 185.066691 29.623894 
L 194.706344 30.010757 
L 209.564165 30.941955 
L 219.0267 31.76286 
L 232.383147 33.259336 
L 236.400943 33.795145 
L 244.851675 35.06768 
L 250.990511 36.12906 
L 256.588189 37.210703 
L 265.955455 39.30434 
L 273.468565 41.295329 
L 277.005143 42.350309 
L 281.693673 43.889017 
L 288.634179 46.531763 
L 293.501241 48.729629 
L 297.818922 51.01291 
L 301.878417 53.569989 
L 303.823559 54.995364 
L 305.831164 56.658391 
L 307.621922 58.368141 
L 309.129396 60.046733 
L 310.433749 61.766869 
L 311.382648 63.263437 
L 312.182023 64.789281 
L 312.916304 66.582288 
L 313.408565 68.239386 
L 313.735749 69.926959 
L 313.900321 71.709224 
L 313.886669 73.523232 
L 313.706131 75.292482 
L 313.425217 76.812662 
L 313.027119 78.352761 
L 312.161184 80.823249 
L 311.005888 83.341362 
L 310.014654 85.151541 
L 307.651578 88.774972 
L 306.291673 90.585829 
L 304.574 92.68552 
L 300.686624 96.910293 
L 297.582205 99.92663 
L 291.723278 105.059982 
L 285.995482 109.595997 
L 279.589622 114.281892 
L 271.530072 119.763419 
L 263.266884 125.03481 
L 255.391021 129.813737 
L 242.866505 137.047356 
L 231.534759 143.304913 
L 218.411848 150.306506 
L 202.62129 158.487214 
L 182.470516 168.68906 
L 131.620486 194.252361 
L 113.300185 203.749874 
L 99.362396 211.223017 
L 86.439871 218.436431 
L 74.415294 225.497792 
L 66.304222 230.522851 
L 60.90471 234.02187 
L 52.158368 240.035047 
L 45.452294 245.039193 
L 40.722726 248.859576 
L 36.559105 252.500731 
L 34.696329 254.240563 
L 31.677158 257.252799 
L 29.316642 259.825532 
L 27.198748 262.361507 
L 23.982635 266.872816 
L 22.108777 270.184454 
L 20.713479 273.418622 
L 19.827498 276.452694 
L 19.521134 278.165047 
L 19.36408 279.851633 
L 19.360875 281.612597 
L 19.490782 283.088215 
L 19.742567 284.541785 
L 20.433283 286.916895 
L 21.461003 289.228434 
L 22.314663 290.705731 
L 23.310737 292.154881 
L 24.738444 293.908002 
L 27.305034 296.47605 
L 30.231391 298.850855 
L 32.539238 300.454251 
L 35.05741 302.009083 
L 38.097617 303.67917 
L 42.082521 305.605871 
L 48.216492 308.140568 
L 55.185999 310.557346 
L 63.102809 312.864447 
L 66.459464 313.730291 
L 72.010891 315.038956 
L 82.083462 317.080041 
L 92.155754 318.765231 
L 100.307559 319.910404 
L 110.985965 321.15436 
L 116.745803 321.716445 
L 130.973038 322.8095 
L 140.8959 323.341419 
L 155.835449 323.809815 
L 168.778366 323.904929 
L 185.532719 323.603995 
L 194.376381 323.248045 
L 205.874126 322.571587 
L 213.376023 321.992547 
L 220.745341 321.310417 
L 233.832673 319.79503 
L 245.763584 318.025153 
L 254.351243 316.478234 
L 261.561596 314.968545 
L 266.897982 313.705418 
L 271.999592 312.362034 
L 277.250709 310.816064 
L 284.465676 308.356743 
L 288.850476 306.620231 
L 294.449165 304.042628 
L 298.717629 301.703788 
L 300.519921 300.583534 
L 303.40733 298.56604 
L 305.956032 296.47304 
L 307.720215 294.772893 
L 309.599728 292.61078 
L 311.293432 290.132113 
L 312.570119 287.571629 
L 313.15785 285.919847 
L 313.578411 284.236889 
L 313.880515 281.91094 
L 313.875262 279.532835 
L 313.5632 277.101114 
L 313.007531 274.823898 
L 312.102022 272.274701 
L 310.657608 269.237648 
L 309.16072 266.692372 
L 307.387174 264.103384 
L 305.40972 261.556323 
L 301.384994 257.04921 
L 296.957494 252.737904 
L 294.000653 250.107039 
L 290.824775 247.444577 
L 283.952682 242.114267 
L 275.820613 236.348505 
L 269.011833 231.840423 
L 259.036946 225.615525 
L 252.208341 221.552889 
L 243.865201 216.75865 
L 227.156025 207.576353 
L 205.533237 196.248644 
L 189.487866 188.085691 
L 125.954045 156.083348 
L 108.176431 146.776041 
L 94.236636 139.197043 
L 82.276908 132.406093 
L 74.393819 127.732026 
L 63.106959 120.664963 
L 58.272381 117.461054 
L 51.238552 112.544793 
L 44.635867 107.563936 
L 38.872624 102.802779 
L 34.478736 98.793664 
L 30.5511 94.790824 
L 27.920193 91.774393 
L 26.109586 89.463467 
L 23.534498 85.643026 
L 21.731453 82.277967 
L 20.428621 78.993007 
L 19.687312 76.103494 
L 19.471498 74.685112 
L 19.344306 72.147182 
L 19.486382 70.188614 
L 19.841994 68.268664 
L 20.568551 65.968572 
L 21.40823 64.115683 
L 22.463662 62.304585 
L 24.271264 59.875433 
L 24.960372 59.08749 
L 26.797441 57.23055 
L 28.886311 55.427365 
L 30.779276 53.993146 
L 32.835879 52.595858 
L 35.950207 50.722215 
L 39.728202 48.743436 
L 43.832439 46.866755 
L 48.276011 45.079731 
L 55.327005 42.640675 
L 63.387875 40.302457 
L 69.295354 38.825892 
L 75.494941 37.45273 
L 81.091669 36.346755 
L 87.74446 35.176225 
L 93.703936 34.245981 
L 103.04659 32.986958 
L 115.552221 31.636914 
L 120.786733 31.174378 
L 129.787717 30.509137 
L 138.090323 30.033436 
L 151.280475 29.534565 
L 166.628853 29.333957 
L 166.628853 29.333957 
" clip-path="url(#pefad5f6b92)" style="fill: none; stroke: #0000ff; stroke-width: 1.5; stroke-linecap: square"/>
   </g>
   <g id="patch_3">
    <path d="M 294.183524 49.066733 
Q 290.188851 47.306112 288.240324 46.447314 
" clip-path="url(#pefad5f6b92)" style="fill: none; stroke: #0000ff; stroke-width: 2; stroke-linecap: round"/>
    <path d="M 295.374431 55.055712 
L 288.240324 46.447314 
L 299.407506 45.905067 
L 295.374431 55.055712 
z
" clip-path="url(#pefad5f6b92)" style="fill: #0000ff; stroke: #0000ff; stroke-width: 2; stroke-linecap: round"/>
   </g>
   <g id="patch_4">
    <path d="M 166.628853 329.798258 
L 166.628853 23.4425 
" style="fill: none; stroke: #000000; stroke-width: 0.8; stroke-linejoin: miter; stroke-linecap: square"/>
   </g>
   <g id="patch_5">
    <path d="M 13.453186 176.621404 
L 319.791442 176.621404 
" style="fill: none; stroke: #000000; stroke-width: 0.8; stroke-linejoin: miter; stroke-linecap: square"/>
   </g>
  </g>
 </g>
 <defs>
  <clipPath id="pefad5f6b92">
   <rect x="13.453186" y="23.4425" width="306.338256" height="306.355758"/>
  </clipPath>
 </defs>
</svg>
