<?xml version="1.0" encoding="utf-8" standalone="no"?>
<!DOCTYPE svg PUBLIC "-//W3C//DTD SVG 1.1//EN"
  "http://www.w3.org/Graphics/SVG/1.1/DTD/svg11.dtd">
<svg xmlns:xlink="http://www.w3.org/1999/xlink" width="453.6pt" height="236.334734pt" viewBox="0 0 453.6 236.334734" xmlns="http://www.w3.org/2000/svg" version="1.1">
 <metadata>
  <rdf:RDF xmlns:dc="http://purl.org/dc/elements/1.1/" xmlns:cc="http://creativecommons.org/ns#" xmlns:rdf="http://www.w3.org/1999/02/22-rdf-syntax-ns#">
   <cc:Work>
    <dc:type rdf:resource="http://purl.org/dc/dcmitype/StillImage"/>
    <dc:date>2024-08-16T15:27:36.798169</dc:date>
    <dc:format>image/svg+xml</dc:format>
    <dc:creator>
     <cc:Agent>
      <dc:title>Matplotlib v3.8.0, https://matplotlib.org/</dc:title>
     </cc:Agent>
    </dc:creator>
   </cc:Work>
  </rdf:RDF>
 </metadata>
 <defs>
  <style type="text/css">*{stroke-linejoin: round; stroke-linecap: butt}</style>
 </defs>
 <g id="figure_1">
  <g id="patch_1">
   <path d="M 0 236.334734 
L 453.6 236.334734 
L 453.6 0 
L 0 0 
z
" style="fill: #ffffff"/>
  </g>
  <g id="axes_1">
   <g id="patch_2">
    <path d="M 7.2 229.134734 
L 446.4 229.134734 
L 446.4 7.2 
L 7.2 7.2 
z
" style="fill: #ffffff"/>
   </g>
   <g id="PathCollection_1">
    <path d="M 20.707362 139.146031 
C 21.43365 139.146031 22.13029 138.857473 22.643854 138.34391 
C 23.157417 137.830346 23.445975 137.133707 23.445975 136.407418 
C 23.445975 135.681129 23.157417 134.98449 22.643854 134.470926 
C 22.13029 133.957363 21.43365 133.668805 20.707362 133.668805 
C 19.981073 133.668805 19.284434 133.957363 18.77087 134.470926 
C 18.257307 134.98449 17.968749 135.681129 17.968749 136.407418 
C 17.968749 137.133707 18.257307 137.830346 18.77087 138.34391 
C 19.284434 138.857473 19.981073 139.146031 20.707362 139.146031 
z
" clip-path="url(#p937105b754)"/>
   </g>
   <g id="matplotlib.axis_1"/>
   <g id="matplotlib.axis_2"/>
   <g id="line2d_1">
    <path d="M 437.953846 75.11655 
L 433.682723 69.628349 
L 429.414684 64.727564 
L 426.588401 61.747217 
L 423.033516 58.255025 
L 419.358571 54.908652 
L 413.409868 49.980468 
L 409.165385 46.784498 
L 405.338205 44.103679 
L 399.40119 40.2812 
L 393.973501 37.106326 
L 387.558114 33.703289 
L 383.910189 31.921946 
L 377.333317 28.967124 
L 371.328533 26.535135 
L 363.784651 23.807455 
L 354.875448 21.014099 
L 348.168128 19.191298 
L 341.430333 17.584651 
L 333.748588 16.00989 
L 328.420479 15.069584 
L 319.145559 13.712817 
L 311.334241 12.831747 
L 305.769055 12.342839 
L 299.708578 11.936764 
L 290.423947 11.560546 
L 283.95284 11.467976 
L 278.027646 11.501447 
L 267.907321 11.812141 
L 260.83489 12.213873 
L 253.227877 12.811111 
L 242.614003 13.924076 
L 232.209631 15.324854 
L 223.803722 16.677004 
L 213.230092 18.654744 
L 203.376475 20.774264 
L 197.776047 22.097842 
L 187.478904 24.757557 
L 176.626351 27.881338 
L 168.591497 30.409927 
L 158.833401 33.734015 
L 148.597142 37.529184 
L 141.051575 40.536856 
L 131.008978 44.830182 
L 120.899794 49.507072 
L 113.870914 52.983621 
L 105.81987 57.209681 
L 97.579459 61.827483 
L 90.682555 65.941658 
L 84.906037 69.579708 
L 76.808884 75.008344 
L 73.25043 77.528791 
L 66.68111 82.426268 
L 60.894011 87.038042 
L 54.813307 92.237516 
L 49.70174 96.942949 
L 46.079973 100.498082 
L 41.927333 104.845 
L 38.868127 108.268079 
L 35.913908 111.788742 
L 31.872516 117.033808 
L 28.035305 122.630062 
L 25.23885 127.250501 
L 23.157552 131.121716 
L 21.380789 134.852314 
L 19.66062 139.034831 
L 18.650317 141.902856 
L 17.559522 145.585156 
L 16.778155 148.911917 
L 16.198035 152.223203 
L 15.762776 156.304867 
L 15.646154 159.342797 
L 15.725785 162.615368 
L 16.031306 165.928234 
L 16.375468 168.194654 
L 17.169168 171.841156 
L 17.731901 173.83132 
L 19.193163 177.929262 
L 21.050025 181.959623 
L 22.910942 185.27488 
L 25.271271 188.8388 
L 27.096917 191.254314 
L 29.550803 194.159633 
L 32.276293 197.035938 
L 35.386772 199.973212 
L 39.185618 203.174574 
L 42.805759 205.914182 
L 47.911348 209.371366 
L 52.809542 212.329573 
L 57.127419 214.699479 
L 61.710405 217.009203 
L 66.209848 219.098882 
L 73.198983 222.045767 
L 80.705542 224.866758 
L 80.705542 224.866758 
" clip-path="url(#p937105b754)" style="fill: none; stroke: #000000; stroke-width: 2; stroke-linecap: square"/>
   </g>
   <g id="patch_3">
    <path d="M 181.155074 26.537433 
Q 180.12809 26.83859 181.24682 26.510529 
" clip-path="url(#p937105b754)" style="fill: none; stroke: #000000; stroke-width: 2; stroke-linecap: round"/>
    <path d="M 192.249715 28.494542 
L 181.24682 26.510529 
L 189.435768 18.898621 
z
" clip-path="url(#p937105b754)" style="stroke: #000000; stroke-width: 2; stroke-linecap: round"/>
   </g>
   <g id="text_1">
    <!-- $Q$ -->
    <g transform="translate(31.637942 151.391458) scale(0.2 -0.2)">
     <defs>
      <path id="Cmmi10-51" d="M 1947 -141 
Q 1466 -141 1094 79 
Q 722 300 520 692 
Q 319 1084 319 1563 
Q 319 2259 714 2950 
Q 1109 3641 1756 4077 
Q 2403 4513 3109 4513 
Q 3475 4513 3778 4381 
Q 4081 4250 4290 4017 
Q 4500 3784 4614 3471 
Q 4728 3159 4728 2791 
Q 4728 2366 4581 1936 
Q 4434 1506 4171 1136 
Q 3909 766 3559 484 
Q 3209 203 2809 38 
Q 2850 -256 2934 -425 
Q 3019 -594 3256 -594 
Q 3506 -594 3726 -412 
Q 3947 -231 4006 13 
Q 4019 72 4078 72 
Q 4147 72 4147 -13 
Q 4100 -219 4008 -430 
Q 3916 -641 3786 -823 
Q 3656 -1006 3478 -1123 
Q 3300 -1241 3084 -1241 
Q 2547 -1241 2547 -550 
Q 2547 -509 2562 -332 
Q 2578 -156 2578 -44 
Q 2269 -141 1947 -141 
z
M 1709 300 
Q 1709 44 1991 44 
Q 2275 44 2591 184 
L 2591 244 
Q 2591 503 2509 648 
Q 2428 794 2194 794 
Q 2078 794 1964 723 
Q 1850 653 1779 539 
Q 1709 425 1709 300 
z
M 1544 288 
Q 1544 456 1637 612 
Q 1731 769 1881 864 
Q 2031 959 2203 959 
Q 2481 959 2607 771 
Q 2734 584 2778 281 
Q 3188 525 3500 978 
Q 3813 1431 3977 1973 
Q 4141 2516 4141 3003 
Q 4141 3356 4023 3656 
Q 3906 3956 3664 4140 
Q 3422 4325 3066 4325 
Q 2722 4325 2403 4156 
Q 2084 3988 1813 3706 
Q 1550 3434 1342 3032 
Q 1134 2631 1021 2193 
Q 909 1756 909 1356 
Q 909 947 1068 612 
Q 1228 278 1569 128 
Q 1544 194 1544 288 
z
" transform="scale(0.015625)"/>
     </defs>
     <use xlink:href="#Cmmi10-51" transform="translate(0 0.484375)"/>
    </g>
   </g>
  </g>
 </g>
 <defs>
  <clipPath id="p937105b754">
   <rect x="7.2" y="7.2" width="439.2" height="221.934734"/>
  </clipPath>
 </defs>
</svg>
