<?xml version="1.0" encoding="utf-8" standalone="no"?>
<!DOCTYPE svg PUBLIC "-//W3C//DTD SVG 1.1//EN"
  "http://www.w3.org/Graphics/SVG/1.1/DTD/svg11.dtd">
<svg xmlns:xlink="http://www.w3.org/1999/xlink" width="452.644161pt" height="225.136881pt" viewBox="0 0 452.644161 225.136881" xmlns="http://www.w3.org/2000/svg" version="1.1">
 <metadata>
  <rdf:RDF xmlns:dc="http://purl.org/dc/elements/1.1/" xmlns:cc="http://creativecommons.org/ns#" xmlns:rdf="http://www.w3.org/1999/02/22-rdf-syntax-ns#">
   <cc:Work>
    <dc:type rdf:resource="http://purl.org/dc/dcmitype/StillImage"/>
    <dc:date>2024-12-16T16:36:00.000131</dc:date>
    <dc:format>image/svg+xml</dc:format>
    <dc:creator>
     <cc:Agent>
      <dc:title>Matplotlib v3.6.2, https://matplotlib.org/</dc:title>
     </cc:Agent>
    </dc:creator>
   </cc:Work>
  </rdf:RDF>
 </metadata>
 <defs>
  <style type="text/css">*{stroke-linejoin: round; stroke-linecap: butt}</style>
 </defs>
 <g id="figure_1">
  <g id="patch_1">
   <path d="M 0 225.136881 
L 452.644161 225.136881 
L 452.644161 -0 
L 0 -0 
z
" style="fill: #ffffff"/>
  </g>
  <g id="axes_1">
   <g id="patch_2">
    <path d="M 10.944232 217.936881 
L 445.444161 217.936881 
L 445.444161 7.2 
L 10.944232 7.2 
z
" style="fill: #ffffff"/>
   </g>
   <g id="PathCollection_1">
    <path d="M 40.896684 133.424211 
C 41.834319 133.424211 42.733677 133.051684 43.396684 132.388677 
C 44.059692 131.725669 44.432218 130.826311 44.432218 129.888677 
C 44.432218 128.951042 44.059692 128.051684 43.396684 127.388677 
C 42.733677 126.725669 41.834319 126.353143 40.896684 126.353143 
C 39.95905 126.353143 39.059692 126.725669 38.396684 127.388677 
C 37.733677 128.051684 37.361151 128.951042 37.361151 129.888677 
C 37.361151 130.826311 37.733677 131.725669 38.396684 132.388677 
C 39.059692 133.051684 39.95905 133.424211 40.896684 133.424211 
z
" clip-path="url(#p8c7b747981)"/>
   </g>
   <g id="PathCollection_2">
    <path d="M 37.275319 166.007862 
C 38.212954 166.007862 39.112311 165.635336 39.775319 164.972328 
C 40.438327 164.30932 40.810853 163.409962 40.810853 162.472328 
C 40.810853 161.534693 40.438327 160.635336 39.775319 159.972328 
C 39.112311 159.30932 38.212954 158.936794 37.275319 158.936794 
C 36.337685 158.936794 35.438327 159.30932 34.775319 159.972328 
C 34.112311 160.635336 33.739785 161.534693 33.739785 162.472328 
C 33.739785 163.409962 34.112311 164.30932 34.775319 164.972328 
C 35.438327 165.635336 36.337685 166.007862 37.275319 166.007862 
z
" clip-path="url(#p8c7b747981)"/>
   </g>
   <g id="matplotlib.axis_1"/>
   <g id="matplotlib.axis_2"/>
   <g id="line2d_1">
    <path d="M 437.088394 71.690622 
L 434.279548 68.016253 
L 430.089427 63.051353 
L 426.626248 59.333943 
L 422.463062 55.249193 
L 418.593895 51.774133 
L 414.607136 48.473201 
L 409.520685 44.620571 
L 404.577624 41.213644 
L 398.302442 37.305322 
L 395.404599 35.641648 
L 388.699754 32.098775 
L 382.259261 29.060426 
L 375.180018 26.088768 
L 367.301984 23.188767 
L 361.327643 21.249504 
L 355.933394 19.676496 
L 346.99586 17.414949 
L 337.272558 15.405004 
L 327.431847 13.809378 
L 318.649062 12.730693 
L 310.706857 12.018558 
L 304.704441 11.638392 
L 295.670197 11.311618 
L 286.113567 11.273663 
L 278.250652 11.470284 
L 269.256012 11.938785 
L 263.885312 12.339342 
L 253.063803 13.414198 
L 247.938766 14.045997 
L 237.635866 15.550838 
L 226.446511 17.536092 
L 218.699963 19.122939 
L 207.683325 21.678658 
L 202.370658 23.037121 
L 190.434668 26.391482 
L 181.278776 29.252883 
L 171.145015 32.719977 
L 161.358 36.378462 
L 152.971714 39.766439 
L 142.947304 44.139637 
L 138.921695 46.000093 
L 129.153379 50.779214 
L 121.404818 54.855292 
L 113.102668 59.529786 
L 107.018661 63.176854 
L 100.303139 67.443527 
L 93.118011 72.32219 
L 88.768369 75.45272 
L 82.440032 80.279736 
L 79.173782 82.913165 
L 72.709161 88.45835 
L 68.422785 92.420583 
L 62.905085 97.935371 
L 58.528202 102.724478 
L 54.121113 108.032661 
L 50.443419 112.963299 
L 46.993922 118.172221 
L 44.520574 122.409723 
L 42.869559 125.57631 
L 41.364135 128.800756 
L 40.107409 131.846659 
L 38.543405 136.37063 
L 37.763215 139.16088 
L 37.016497 142.515658 
L 36.403494 146.547813 
L 36.19993 148.806884 
L 36.103923 153.258988 
L 36.242713 155.869803 
L 36.579815 158.816274 
L 37.339217 162.742165 
L 38.101011 165.520488 
L 38.970142 168.065825 
L 40.079974 170.767572 
L 41.847559 174.318133 
L 43.96928 177.838815 
L 46.052067 180.791219 
L 48.057668 183.303743 
L 49.901599 185.396118 
L 53.245759 188.784157 
L 55.824329 191.1164 
L 58.941145 193.680331 
L 61.562193 195.658017 
L 66.330019 198.916082 
L 69.944113 201.144454 
L 74.534268 203.728394 
L 79.822712 206.419354 
L 85.245788 208.91258 
L 90.931088 211.281768 
L 97.867282 213.884249 
L 97.867282 213.884249 
" clip-path="url(#p8c7b747981)" style="fill: none; stroke: #000000; stroke-width: 2; stroke-linecap: square"/>
   </g>
   <g id="patch_3">
    <path d="M 193.248006 25.562868 
Q 192.272845 25.848828 193.443398 25.50557 
" clip-path="url(#p8c7b747981)" style="fill: none; stroke: #000000; stroke-width: 2; stroke-linecap: round"/>
    <path d="M 204.446293 27.489583 
L 193.443398 25.50557 
L 201.632345 17.893662 
L 204.446293 27.489583 
z
" clip-path="url(#p8c7b747981)" style="stroke: #000000; stroke-width: 2; stroke-linecap: round"/>
   </g>
   <g id="text_1">
    <!-- $Q_0$ -->
    <g transform="translate(19.809025 117.432108) scale(0.2 -0.2)">
     <defs>
      <path id="Cmmi10-51" d="M 1947 -141 
Q 1466 -141 1094 79 
Q 722 300 520 692 
Q 319 1084 319 1563 
Q 319 2259 714 2950 
Q 1109 3641 1756 4077 
Q 2403 4513 3109 4513 
Q 3475 4513 3778 4381 
Q 4081 4250 4290 4017 
Q 4500 3784 4614 3471 
Q 4728 3159 4728 2791 
Q 4728 2366 4581 1936 
Q 4434 1506 4171 1136 
Q 3909 766 3559 484 
Q 3209 203 2809 38 
Q 2850 -256 2934 -425 
Q 3019 -594 3256 -594 
Q 3506 -594 3726 -412 
Q 3947 -231 4006 13 
Q 4019 72 4078 72 
Q 4147 72 4147 -13 
Q 4100 -219 4008 -430 
Q 3916 -641 3786 -823 
Q 3656 -1006 3478 -1123 
Q 3300 -1241 3084 -1241 
Q 2547 -1241 2547 -550 
Q 2547 -509 2562 -332 
Q 2578 -156 2578 -44 
Q 2269 -141 1947 -141 
z
M 1709 300 
Q 1709 44 1991 44 
Q 2275 44 2591 184 
L 2591 244 
Q 2591 503 2509 648 
Q 2428 794 2194 794 
Q 2078 794 1964 723 
Q 1850 653 1779 539 
Q 1709 425 1709 300 
z
M 1544 288 
Q 1544 456 1637 612 
Q 1731 769 1881 864 
Q 2031 959 2203 959 
Q 2481 959 2607 771 
Q 2734 584 2778 281 
Q 3188 525 3500 978 
Q 3813 1431 3977 1973 
Q 4141 2516 4141 3003 
Q 4141 3356 4023 3656 
Q 3906 3956 3664 4140 
Q 3422 4325 3066 4325 
Q 2722 4325 2403 4156 
Q 2084 3988 1813 3706 
Q 1550 3434 1342 3032 
Q 1134 2631 1021 2193 
Q 909 1756 909 1356 
Q 909 947 1068 612 
Q 1228 278 1569 128 
Q 1544 194 1544 288 
z
" transform="scale(0.015625)"/>
      <path id="Cmr10-30" d="M 1600 -141 
Q 816 -141 533 504 
Q 250 1150 250 2041 
Q 250 2597 351 3087 
Q 453 3578 754 3920 
Q 1056 4263 1600 4263 
Q 2022 4263 2290 4056 
Q 2559 3850 2700 3523 
Q 2841 3197 2892 2823 
Q 2944 2450 2944 2041 
Q 2944 1491 2842 1011 
Q 2741 531 2444 195 
Q 2147 -141 1600 -141 
z
M 1600 25 
Q 1956 25 2131 390 
Q 2306 756 2347 1200 
Q 2388 1644 2388 2144 
Q 2388 2625 2347 3031 
Q 2306 3438 2132 3767 
Q 1959 4097 1600 4097 
Q 1238 4097 1063 3765 
Q 888 3434 847 3029 
Q 806 2625 806 2144 
Q 806 1788 823 1472 
Q 841 1156 916 820 
Q 991 484 1158 254 
Q 1325 25 1600 25 
z
" transform="scale(0.015625)"/>
     </defs>
     <use xlink:href="#Cmmi10-51" transform="translate(0 0.484375)"/>
     <use xlink:href="#Cmr10-30" transform="translate(79.003906 -16.521875) scale(0.7)"/>
    </g>
   </g>
   <g id="text_2">
    <!-- $Q_1$ -->
    <g transform="translate(7.2 159.003418) scale(0.2 -0.2)">
     <defs>
      <path id="Cmr10-31" d="M 594 0 
L 594 225 
Q 1394 225 1394 428 
L 1394 3788 
Q 1063 3628 556 3628 
L 556 3853 
Q 1341 3853 1741 4263 
L 1831 4263 
Q 1853 4263 1873 4245 
Q 1894 4228 1894 4206 
L 1894 428 
Q 1894 225 2694 225 
L 2694 0 
L 594 0 
z
" transform="scale(0.015625)"/>
     </defs>
     <use xlink:href="#Cmmi10-51" transform="translate(0 0.484375)"/>
     <use xlink:href="#Cmr10-31" transform="translate(79.003906 -16.521875) scale(0.7)"/>
    </g>
   </g>
  </g>
 </g>
 <defs>
  <clipPath id="p8c7b747981">
   <rect x="10.944232" y="7.2" width="434.499929" height="210.736881"/>
  </clipPath>
 </defs>
</svg>
