<?xml version="1.0" encoding="utf-8" standalone="no"?>
<!DOCTYPE svg PUBLIC "-//W3C//DTD SVG 1.1//EN"
  "http://www.w3.org/Graphics/SVG/1.1/DTD/svg11.dtd">
<svg xmlns:xlink="http://www.w3.org/1999/xlink" width="453.6pt" height="236.339421pt" viewBox="0 0 453.6 236.339421" xmlns="http://www.w3.org/2000/svg" version="1.1">
 <metadata>
  <rdf:RDF xmlns:dc="http://purl.org/dc/elements/1.1/" xmlns:cc="http://creativecommons.org/ns#" xmlns:rdf="http://www.w3.org/1999/02/22-rdf-syntax-ns#">
   <cc:Work>
    <dc:type rdf:resource="http://purl.org/dc/dcmitype/StillImage"/>
    <dc:date>2024-12-04T08:28:50.969859</dc:date>
    <dc:format>image/svg+xml</dc:format>
    <dc:creator>
     <cc:Agent>
      <dc:title>Matplotlib v3.6.2, https://matplotlib.org/</dc:title>
     </cc:Agent>
    </dc:creator>
   </cc:Work>
  </rdf:RDF>
 </metadata>
 <defs>
  <style type="text/css">*{stroke-linejoin: round; stroke-linecap: butt}</style>
 </defs>
 <g id="figure_1">
  <g id="patch_1">
   <path d="M 0 236.339421 
L 453.6 236.339421 
L 453.6 -0 
L 0 -0 
z
" style="fill: #ffffff"/>
  </g>
  <g id="axes_1">
   <g id="patch_2">
    <path d="M 7.2 229.139421 
L 446.4 229.139421 
L 446.4 7.2 
L 7.2 7.2 
z
" style="fill: #ffffff"/>
   </g>
   <g id="PathCollection_1">
    <path d="M 20.702048 139.149502 
C 21.428336 139.149502 22.124976 138.860944 22.63854 138.34738 
C 23.152103 137.833817 23.440661 137.137177 23.440661 136.410889 
C 23.440661 135.6846 23.152103 134.987961 22.63854 134.474397 
C 22.124976 133.960834 21.428336 133.672276 20.702048 133.672276 
C 19.975759 133.672276 19.27912 133.960834 18.765556 134.474397 
C 18.251993 134.987961 17.963435 135.6846 17.963435 136.410889 
C 17.963435 137.137177 18.251993 137.833817 18.765556 138.34738 
C 19.27912 138.860944 19.975759 139.149502 20.702048 139.149502 
z
" clip-path="url(#pe43f6afabc)"/>
   </g>
   <g id="matplotlib.axis_1"/>
   <g id="matplotlib.axis_2"/>
   <g id="line2d_1">
    <path d="M 437.953846 75.11924 
L 433.847354 69.830894 
L 430.363275 65.775408 
L 426.78929 61.955453 
L 421.764652 57.073714 
L 419.175442 54.750948 
L 413.132514 49.766579 
L 409.000165 46.667575 
L 403.361675 42.790311 
L 397.663995 39.236125 
L 392.893157 36.510338 
L 387.776207 33.815679 
L 382.728757 31.369899 
L 376.018548 28.416183 
L 371.290175 26.522765 
L 365.002216 24.226656 
L 357.773405 21.876816 
L 350.500821 19.801483 
L 344.001698 18.174421 
L 339.365822 17.137439 
L 330.181555 15.36919 
L 320.616036 13.90706 
L 312.290095 12.929237 
L 304.896874 12.278402 
L 295.293918 11.723406 
L 284.91463 11.475013 
L 276.299658 11.533916 
L 271.264141 11.67601 
L 262.141634 12.130153 
L 255.707017 12.599589 
L 248.490342 13.269677 
L 237.038267 14.638564 
L 231.038854 15.502962 
L 220.868835 17.196565 
L 210.657477 19.183779 
L 205.142918 20.376018 
L 194.221753 22.98394 
L 185.853713 25.205439 
L 176.70331 27.859094 
L 165.465137 31.44531 
L 157.063871 34.368066 
L 147.125162 38.102425 
L 140.463827 40.779538 
L 133.659466 43.664503 
L 124.56433 47.769401 
L 116.390594 51.715641 
L 107.571986 56.267023 
L 99.577583 60.679152 
L 93.057252 64.497911 
L 86.329914 68.665499 
L 81.262402 71.972043 
L 73.288536 77.500705 
L 66.199559 82.797887 
L 61.06034 86.90008 
L 55.947628 91.235677 
L 51.076967 95.641725 
L 45.047974 101.547301 
L 40.876189 105.995542 
L 36.602544 110.943954 
L 32.740281 115.85539 
L 29.081381 121.026795 
L 25.950379 126.014707 
L 23.225751 130.980387 
L 21.555676 134.454556 
L 19.60705 139.166852 
L 18.347402 142.836408 
L 17.430724 146.063357 
L 16.486489 150.408569 
L 16.123209 152.721988 
L 15.739179 156.587948 
L 15.646154 160.625722 
L 15.753318 163.141393 
L 16.089177 166.409661 
L 16.805023 170.364048 
L 17.49903 173.069828 
L 18.960023 177.364657 
L 20.682457 181.246306 
L 21.951121 183.647857 
L 24.062219 187.09807 
L 26.013027 189.861728 
L 27.711225 192.025195 
L 30.209965 194.895325 
L 33.143277 197.897087 
L 36.45594 200.92155 
L 39.85367 203.709184 
L 42.947734 206.02429 
L 46.84534 208.691567 
L 51.229597 211.416524 
L 56.95728 214.616878 
L 63.709913 217.964887 
L 69.921885 220.712518 
L 76.949419 223.502273 
L 80.700992 224.871355 
L 80.700992 224.871355 
" clip-path="url(#pe43f6afabc)" style="fill: none; stroke: #000000; stroke-width: 2; stroke-linecap: square"/>
   </g>
   <g id="patch_3">
    <path d="M 181.151803 26.539505 
Q 180.124807 26.840665 181.243523 26.512608 
" clip-path="url(#pe43f6afabc)" style="fill: none; stroke: #000000; stroke-width: 2; stroke-linecap: round"/>
    <path d="M 192.246418 28.496621 
L 181.243523 26.512608 
L 189.432471 18.9007 
L 192.246418 28.496621 
z
" clip-path="url(#pe43f6afabc)" style="stroke: #000000; stroke-width: 2; stroke-linecap: round"/>
   </g>
   <g id="text_1">
    <!-- $Q$ -->
    <g transform="translate(31.632869 151.395049) scale(0.2 -0.2)">
     <defs>
      <path id="Cmmi10-51" d="M 1947 -141 
Q 1466 -141 1094 79 
Q 722 300 520 692 
Q 319 1084 319 1563 
Q 319 2259 714 2950 
Q 1109 3641 1756 4077 
Q 2403 4513 3109 4513 
Q 3475 4513 3778 4381 
Q 4081 4250 4290 4017 
Q 4500 3784 4614 3471 
Q 4728 3159 4728 2791 
Q 4728 2366 4581 1936 
Q 4434 1506 4171 1136 
Q 3909 766 3559 484 
Q 3209 203 2809 38 
Q 2850 -256 2934 -425 
Q 3019 -594 3256 -594 
Q 3506 -594 3726 -412 
Q 3947 -231 4006 13 
Q 4019 72 4078 72 
Q 4147 72 4147 -13 
Q 4100 -219 4008 -430 
Q 3916 -641 3786 -823 
Q 3656 -1006 3478 -1123 
Q 3300 -1241 3084 -1241 
Q 2547 -1241 2547 -550 
Q 2547 -509 2562 -332 
Q 2578 -156 2578 -44 
Q 2269 -141 1947 -141 
z
M 1709 300 
Q 1709 44 1991 44 
Q 2275 44 2591 184 
L 2591 244 
Q 2591 503 2509 648 
Q 2428 794 2194 794 
Q 2078 794 1964 723 
Q 1850 653 1779 539 
Q 1709 425 1709 300 
z
M 1544 288 
Q 1544 456 1637 612 
Q 1731 769 1881 864 
Q 2031 959 2203 959 
Q 2481 959 2607 771 
Q 2734 584 2778 281 
Q 3188 525 3500 978 
Q 3813 1431 3977 1973 
Q 4141 2516 4141 3003 
Q 4141 3356 4023 3656 
Q 3906 3956 3664 4140 
Q 3422 4325 3066 4325 
Q 2722 4325 2403 4156 
Q 2084 3988 1813 3706 
Q 1550 3434 1342 3032 
Q 1134 2631 1021 2193 
Q 909 1756 909 1356 
Q 909 947 1068 612 
Q 1228 278 1569 128 
Q 1544 194 1544 288 
z
" transform="scale(0.015625)"/>
     </defs>
     <use xlink:href="#Cmmi10-51" transform="translate(0 0.484375)"/>
    </g>
   </g>
  </g>
 </g>
 <defs>
  <clipPath id="pe43f6afabc">
   <rect x="7.2" y="7.2" width="439.2" height="221.939421"/>
  </clipPath>
 </defs>
</svg>
