<?xml version="1.0" encoding="utf-8" standalone="no"?>
<!DOCTYPE svg PUBLIC "-//W3C//DTD SVG 1.1//EN"
  "http://www.w3.org/Graphics/SVG/1.1/DTD/svg11.dtd">
<svg xmlns:xlink="http://www.w3.org/1999/xlink" width="453.6pt" height="329.763814pt" viewBox="0 0 453.6 329.763814" xmlns="http://www.w3.org/2000/svg" version="1.1">
 <metadata>
  <rdf:RDF xmlns:dc="http://purl.org/dc/elements/1.1/" xmlns:cc="http://creativecommons.org/ns#" xmlns:rdf="http://www.w3.org/1999/02/22-rdf-syntax-ns#">
   <cc:Work>
    <dc:type rdf:resource="http://purl.org/dc/dcmitype/StillImage"/>
    <dc:date>2025-02-05T08:52:03.530551</dc:date>
    <dc:format>image/svg+xml</dc:format>
    <dc:creator>
     <cc:Agent>
      <dc:title>Matplotlib v3.6.2, https://matplotlib.org/</dc:title>
     </cc:Agent>
    </dc:creator>
   </cc:Work>
  </rdf:RDF>
 </metadata>
 <defs>
  <style type="text/css">*{stroke-linejoin: round; stroke-linecap: butt}</style>
 </defs>
 <g id="figure_1">
  <g id="patch_1">
   <path d="M 0 329.763814 
L 453.6 329.763814 
L 453.6 0 
L 0 0 
z
" style="fill: #ffffff"/>
  </g>
  <g id="axes_1">
   <g id="patch_2">
    <path d="M 7.2 322.563814 
L 446.4 322.563814 
L 446.4 7.2 
L 7.2 7.2 
z
" style="fill: #ffffff"/>
   </g>
   <g id="PathCollection_1">
    <path d="M 230.709948 134.534805 
C 231.436237 134.534805 232.132876 134.246248 232.64644 133.732684 
C 233.160003 133.219121 233.448561 132.522481 233.448561 131.796193 
C 233.448561 131.069904 233.160003 130.373265 232.64644 129.859701 
C 232.132876 129.346137 231.436237 129.05758 230.709948 129.05758 
C 229.98366 129.05758 229.28702 129.346137 228.773457 129.859701 
C 228.259893 130.373265 227.971335 131.069904 227.971335 131.796193 
C 227.971335 132.522481 228.259893 133.219121 228.773457 133.732684 
C 229.28702 134.246248 229.98366 134.534805 230.709948 134.534805 
z
" clip-path="url(#p2328ad6768)"/>
   </g>
   <g id="matplotlib.axis_1"/>
   <g id="matplotlib.axis_2"/>
   <g id="line2d_1">
    <path d="M 15.646154 316.499125 
L 15.764984 305.946859 
L 16.051078 298.878146 
L 16.436181 293.449563 
L 17.183989 286.589895 
L 18.107108 280.691052 
L 19.027634 276.125677 
L 20.045323 271.94973 
L 21.305244 267.584159 
L 23.012812 262.592013 
L 24.755102 258.233237 
L 26.092248 255.248411 
L 27.548361 252.271585 
L 29.81247 248.08595 
L 32.711099 243.32567 
L 35.473077 239.260934 
L 37.980328 235.880674 
L 41.36194 231.693029 
L 45.811024 226.697086 
L 49.767921 222.640942 
L 54.056113 218.574232 
L 59.188424 214.073183 
L 64.362815 209.86588 
L 70.649771 205.11882 
L 76.472724 201.017697 
L 82.527842 197.004995 
L 90.021092 192.338553 
L 97.051205 188.215187 
L 105.069067 183.766943 
L 114.358861 178.900486 
L 121.999184 175.09571 
L 130.462497 171.060506 
L 140.808944 166.349253 
L 152.32678 161.350335 
L 165.228663 156.010564 
L 177.512873 151.141849 
L 193.957301 144.897729 
L 211.543767 138.502953 
L 232.285976 131.254817 
L 252.063502 124.566592 
L 283.121757 114.344838 
L 342.101295 95.05016 
L 360.829636 88.658756 
L 375.073494 83.577 
L 386.989572 79.09528 
L 397.303539 74.962547 
L 405.862756 71.268652 
L 412.973461 67.929358 
L 418.274997 65.203772 
L 422.769731 62.659146 
L 426.49567 60.306756 
L 429.012683 58.530742 
L 431.980867 56.127363 
L 433.859325 54.31797 
L 435.052375 52.963308 
L 436.090398 51.552616 
L 436.840984 50.277553 
L 437.550341 48.579264 
L 437.896616 47.004709 
L 437.953846 46.081777 
L 437.848721 44.808654 
L 437.500566 43.474 
L 436.985665 42.301792 
L 436.198951 41.03296 
L 435.234246 39.841015 
L 433.866069 38.490301 
L 432.245003 37.177599 
L 430.603801 36.043411 
L 428.315836 34.675546 
L 424.647318 32.819694 
L 421.183413 31.319537 
L 416.593651 29.585217 
L 410.953994 27.730575 
L 404.424543 25.851442 
L 397.274099 24.031799 
L 389.465053 22.255874 
L 381.437458 20.60652 
L 369.648588 18.43251 
L 357.259699 16.392493 
L 343.825123 14.398219 
L 335.573838 13.264689 
L 335.573838 13.264689 
" clip-path="url(#p2328ad6768)" style="fill: none; stroke: #000000; stroke-width: 2; stroke-linecap: square"/>
   </g>
   <g id="patch_3">
    <path d="M 230.709948 131.796193 
Q 307.325727 105.444327 381.827015 79.819737 
" clip-path="url(#p2328ad6768)" style="fill: none; stroke: #800080; stroke-width: 2; stroke-linecap: round"/>
    <path d="M 370.744488 78.344067 
L 381.827015 79.819737 
L 373.996963 87.800357 
L 370.744488 78.344067 
z
" clip-path="url(#p2328ad6768)" style="fill: #800080; stroke: #800080; stroke-width: 2; stroke-linecap: round"/>
   </g>
   <g id="patch_4">
    <path d="M 230.709948 131.796193 
Q 257.061814 208.411971 282.686404 282.913259 
" clip-path="url(#p2328ad6768)" style="fill: none; stroke: #ff0000; stroke-width: 2; stroke-linecap: round"/>
    <path d="M 284.162074 271.830733 
L 282.686404 282.913259 
L 274.705784 275.083207 
L 284.162074 271.830733 
z
" clip-path="url(#p2328ad6768)" style="fill: #ff0000; stroke: #ff0000; stroke-width: 2; stroke-linecap: round"/>
   </g>
   <g id="patch_5">
    <path d="M 230.709948 131.796193 
Q 276.336598 116.102985 319.848757 101.137052 
" clip-path="url(#p2328ad6768)" style="fill: none; stroke: #0000ff; stroke-width: 2; stroke-linecap: round"/>
    <path d="M 308.766231 99.661382 
L 319.848757 101.137052 
L 312.018705 109.117672 
L 308.766231 99.661382 
z
" clip-path="url(#p2328ad6768)" style="fill: #0000ff; stroke: #0000ff; stroke-width: 2; stroke-linecap: round"/>
   </g>
   <g id="patch_6">
    <path d="M 230.709948 131.796193 
Q 244.368562 171.507436 257.2999 209.104188 
" clip-path="url(#p2328ad6768)" style="fill: none; stroke: #ffa500; stroke-width: 2; stroke-linecap: round"/>
    <path d="M 258.775571 198.021661 
L 257.2999 209.104188 
L 249.319281 201.274136 
L 258.775571 198.021661 
z
" clip-path="url(#p2328ad6768)" style="fill: #ffa500; stroke: #ffa500; stroke-width: 2; stroke-linecap: round"/>
   </g>
   <g id="patch_7">
    <path d="M 230.709948 131.796193 
Q 289.995212 155.814228 347.208022 178.992657 
" clip-path="url(#p2328ad6768)" style="fill: none; stroke: #008000; stroke-width: 2; stroke-linecap: round"/>
    <path d="M 339.817146 170.60368 
L 347.208022 178.992657 
L 336.062314 179.871972 
L 339.817146 170.60368 
z
" clip-path="url(#p2328ad6768)" style="fill: #008000; stroke: #008000; stroke-width: 2; stroke-linecap: round"/>
   </g>
  </g>
 </g>
 <defs>
  <clipPath id="p2328ad6768">
   <rect x="7.2" y="7.2" width="439.2" height="315.363814"/>
  </clipPath>
 </defs>
</svg>
