<?xml version="1.0" encoding="utf-8" standalone="no"?>
<!DOCTYPE svg PUBLIC "-//W3C//DTD SVG 1.1//EN"
  "http://www.w3.org/Graphics/SVG/1.1/DTD/svg11.dtd">
<svg xmlns:xlink="http://www.w3.org/1999/xlink" width="453.6pt" height="236.335166pt" viewBox="0 0 453.6 236.335166" xmlns="http://www.w3.org/2000/svg" version="1.1">
 <metadata>
  <rdf:RDF xmlns:dc="http://purl.org/dc/elements/1.1/" xmlns:cc="http://creativecommons.org/ns#" xmlns:rdf="http://www.w3.org/1999/02/22-rdf-syntax-ns#">
   <cc:Work>
    <dc:type rdf:resource="http://purl.org/dc/dcmitype/StillImage"/>
    <dc:date>2024-12-16T16:34:48.246896</dc:date>
    <dc:format>image/svg+xml</dc:format>
    <dc:creator>
     <cc:Agent>
      <dc:title>Matplotlib v3.6.2, https://matplotlib.org/</dc:title>
     </cc:Agent>
    </dc:creator>
   </cc:Work>
  </rdf:RDF>
 </metadata>
 <defs>
  <style type="text/css">*{stroke-linejoin: round; stroke-linecap: butt}</style>
 </defs>
 <g id="figure_1">
  <g id="patch_1">
   <path d="M 0 236.335166 
L 453.6 236.335166 
L 453.6 0 
L 0 0 
z
" style="fill: #ffffff"/>
  </g>
  <g id="axes_1">
   <g id="patch_2">
    <path d="M 7.2 229.135166 
L 446.4 229.135166 
L 446.4 7.2 
L 7.2 7.2 
z
" style="fill: #ffffff"/>
   </g>
   <g id="PathCollection_1">
    <path d="M 411.548074 51.287545 
C 412.274363 51.287545 412.971002 50.998988 413.484566 50.485424 
C 413.99813 49.97186 414.286687 49.275221 414.286687 48.548932 
C 414.286687 47.822644 413.99813 47.126004 413.484566 46.612441 
C 412.971002 46.098877 412.274363 45.81032 411.548074 45.81032 
C 410.821786 45.81032 410.125146 46.098877 409.611583 46.612441 
C 409.098019 47.126004 408.809462 47.822644 408.809462 48.548932 
C 408.809462 49.275221 409.098019 49.97186 409.611583 50.485424 
C 410.125146 50.998988 410.821786 51.287545 411.548074 51.287545 
z
" clip-path="url(#p03e9d530aa)"/>
   </g>
   <g id="matplotlib.axis_1"/>
   <g id="matplotlib.axis_2"/>
   <g id="line2d_1">
    <path d="M 437.953846 75.117322 
L 433.996389 70.010655 
L 431.613789 67.188507 
L 428.583839 63.831976 
L 424.460756 59.625785 
L 419.8654 55.35626 
L 416.936401 52.834604 
L 413.010081 49.669534 
L 410.692581 47.906956 
L 403.95927 43.181681 
L 397.031791 38.860638 
L 393.818103 37.020381 
L 389.0368 34.456992 
L 386.106288 32.982395 
L 378.270122 29.369604 
L 371.201378 26.487042 
L 367.081095 24.957287 
L 358.407207 22.069576 
L 351.39115 20.039302 
L 345.666663 18.570189 
L 336.096499 16.464037 
L 326.944293 14.831113 
L 317.187355 13.470931 
L 308.385729 12.559539 
L 302.546993 12.111719 
L 295.692659 11.739063 
L 288.847939 11.526297 
L 281.033109 11.471454 
L 271.252687 11.675549 
L 261.986238 12.139249 
L 253.942369 12.748781 
L 246.100214 13.523959 
L 238.9482 14.383903 
L 229.811086 15.691685 
L 221.583598 17.067741 
L 210.43265 19.230394 
L 202.228187 21.039634 
L 191.616636 23.654494 
L 183.289286 25.925252 
L 172.575825 29.133899 
L 165.27987 31.507623 
L 154.902032 35.15471 
L 144.510598 39.136563 
L 137.713143 41.927649 
L 126.984735 46.649018 
L 121.070192 49.426328 
L 110.831747 54.548513 
L 101.92572 59.354621 
L 96.041208 62.725841 
L 86.999305 68.241347 
L 78.759711 73.664186 
L 71.78607 78.593399 
L 64.935241 83.787591 
L 58.604438 88.95134 
L 53.162017 93.722718 
L 49.430879 97.203611 
L 45.49084 101.09768 
L 41.116659 105.733947 
L 37.09463 110.355473 
L 33.342044 115.063024 
L 31.450092 117.618482 
L 27.887354 122.863419 
L 25.476038 126.838077 
L 23.253173 130.936037 
L 21.294492 135.04939 
L 20.103566 137.890572 
L 18.774272 141.532034 
L 17.475196 145.912098 
L 16.770973 148.952342 
L 16.115954 152.819873 
L 15.756872 156.408322 
L 15.646154 160.066521 
L 15.835605 164.105498 
L 16.088136 166.352402 
L 16.704438 169.874074 
L 17.748729 173.8835 
L 18.899259 177.189761 
L 20.081286 179.972237 
L 22.21381 184.095564 
L 24.195238 187.284842 
L 26.810459 190.890633 
L 30.155329 194.825558 
L 32.960788 197.710381 
L 36.021489 200.534612 
L 39.551918 203.46415 
L 43.370884 206.318361 
L 47.463004 209.08417 
L 52.531919 212.16997 
L 56.206605 214.210845 
L 61.731046 217.019193 
L 67.601516 219.71317 
L 75.296252 222.867291 
L 80.706372 224.867182 
L 80.706372 224.867182 
" clip-path="url(#p03e9d530aa)" style="fill: none; stroke: #000000; stroke-width: 2; stroke-linecap: square"/>
   </g>
   <g id="patch_3">
    <path d="M 181.15567 26.538318 
Q 180.128689 26.839474 181.247421 26.511412 
" clip-path="url(#p03e9d530aa)" style="fill: none; stroke: #000000; stroke-width: 2; stroke-linecap: round"/>
    <path d="M 192.250316 28.495425 
L 181.247421 26.511412 
L 189.436368 18.899504 
L 192.250316 28.495425 
z
" clip-path="url(#p03e9d530aa)" style="stroke: #000000; stroke-width: 2; stroke-linecap: round"/>
   </g>
   <g id="patch_4">
    <path d="M 411.548074 48.548932 
Q 376.05332 39.083664 342.719132 30.194548 
" clip-path="url(#p03e9d530aa)" style="fill: none; stroke: #ff0000; stroke-width: 2; stroke-linecap: round"/>
    <path d="M 351.093168 37.602349 
L 342.719132 30.194548 
L 353.669795 27.94 
L 351.093168 37.602349 
z
" clip-path="url(#p03e9d530aa)" style="fill: #ff0000; stroke: #ff0000; stroke-width: 2; stroke-linecap: round"/>
   </g>
   <g id="text_1">
    <!-- $P$ -->
    <g transform="translate(414.513342 35.137147) scale(0.2 -0.2)">
     <defs>
      <path id="Cmmi10-50" d="M 313 0 
Q 250 0 250 84 
Q 253 100 262 139 
Q 272 178 289 201 
Q 306 225 331 225 
Q 722 225 878 269 
Q 959 297 997 441 
L 1875 3956 
Q 1888 4019 1888 4044 
Q 1888 4113 1813 4122 
Q 1691 4147 1350 4147 
Q 1288 4147 1288 4231 
Q 1291 4247 1300 4286 
Q 1309 4325 1326 4348 
Q 1344 4372 1369 4372 
L 3578 4372 
Q 3881 4372 4165 4264 
Q 4450 4156 4631 3934 
Q 4813 3713 4813 3397 
Q 4813 2991 4527 2672 
Q 4241 2353 3814 2175 
Q 3388 1997 2988 1997 
L 1947 1997 
L 1556 416 
Q 1544 353 1544 325 
Q 1544 300 1551 283 
Q 1559 266 1573 261 
Q 1588 256 1619 250 
Q 1741 225 2081 225 
Q 2144 225 2144 141 
Q 2122 50 2109 25 
Q 2097 0 2034 0 
L 313 0 
z
M 1978 2188 
L 2875 2188 
Q 3497 2188 3822 2522 
Q 3988 2688 4092 3000 
Q 4197 3313 4197 3566 
Q 4197 3881 3956 4014 
Q 3716 4147 3359 4147 
L 2747 4147 
Q 2572 4147 2515 4117 
Q 2459 4088 2413 3928 
L 1978 2188 
z
" transform="scale(0.015625)"/>
     </defs>
     <use xlink:href="#Cmmi10-50" transform="translate(0 0.6875)"/>
    </g>
   </g>
  </g>
 </g>
 <defs>
  <clipPath id="p03e9d530aa">
   <rect x="7.2" y="7.2" width="439.2" height="221.935166"/>
  </clipPath>
 </defs>
</svg>
