<?xml version="1.0" encoding="utf-8" standalone="no"?>
<!DOCTYPE svg PUBLIC "-//W3C//DTD SVG 1.1//EN"
  "http://www.w3.org/Graphics/SVG/1.1/DTD/svg11.dtd">
<svg xmlns:xlink="http://www.w3.org/1999/xlink" width="345.067525pt" height="337.397538pt" viewBox="0 0 345.067525 337.397538" xmlns="http://www.w3.org/2000/svg" version="1.1">
 <metadata>
  <rdf:RDF xmlns:dc="http://purl.org/dc/elements/1.1/" xmlns:cc="http://creativecommons.org/ns#" xmlns:rdf="http://www.w3.org/1999/02/22-rdf-syntax-ns#">
   <cc:Work>
    <dc:type rdf:resource="http://purl.org/dc/dcmitype/StillImage"/>
    <dc:date>2024-12-16T16:33:03.156861</dc:date>
    <dc:format>image/svg+xml</dc:format>
    <dc:creator>
     <cc:Agent>
      <dc:title>Matplotlib v3.6.2, https://matplotlib.org/</dc:title>
     </cc:Agent>
    </dc:creator>
   </cc:Work>
  </rdf:RDF>
 </metadata>
 <defs>
  <style type="text/css">*{stroke-linejoin: round; stroke-linecap: butt}</style>
 </defs>
 <g id="figure_1">
  <g id="patch_1">
   <path d="M 0 337.397538 
L 345.067525 337.397538 
L 345.067525 0 
L 0 0 
z
" style="fill: #ffffff"/>
  </g>
  <g id="axes_1">
   <g id="patch_2">
    <path d="M 13.130028 330.197538 
L 336.127451 330.197538 
L 336.127451 7.2 
L 13.130028 7.2 
z
" style="fill: #ffffff"/>
   </g>
   <g id="matplotlib.axis_1">
    <g id="xtick_1">
     <g id="line2d_1">
      <path d="M 19.341406 330.197538 
L 19.341406 7.2 
" clip-path="url(#p08b93f31cc)" style="fill: none; stroke-dasharray: 0.5,0.825; stroke-dashoffset: 0; stroke: #000000; stroke-width: 0.5"/>
     </g>
     <g id="line2d_2">
      <defs>
       <path id="m762d7d26a8" d="M 0 0 
L 0 3.5 
" style="stroke: #000000; stroke-width: 0.8"/>
      </defs>
      <g>
       <use xlink:href="#m762d7d26a8" x="19.341406" y="168.698769" style="stroke: #000000; stroke-width: 0.8"/>
      </g>
     </g>
     <g id="text_1">
      <!-- −1.0 -->
      <g transform="translate(7.2 183.297207) scale(0.1 -0.1)">
       <defs>
        <path id="DejaVuSans-2212" d="M 678 2272 
L 4684 2272 
L 4684 1741 
L 678 1741 
L 678 2272 
z
" transform="scale(0.015625)"/>
        <path id="DejaVuSans-31" d="M 794 531 
L 1825 531 
L 1825 4091 
L 703 3866 
L 703 4441 
L 1819 4666 
L 2450 4666 
L 2450 531 
L 3481 531 
L 3481 0 
L 794 0 
L 794 531 
z
" transform="scale(0.015625)"/>
        <path id="DejaVuSans-2e" d="M 684 794 
L 1344 794 
L 1344 0 
L 684 0 
L 684 794 
z
" transform="scale(0.015625)"/>
        <path id="DejaVuSans-30" d="M 2034 4250 
Q 1547 4250 1301 3770 
Q 1056 3291 1056 2328 
Q 1056 1369 1301 889 
Q 1547 409 2034 409 
Q 2525 409 2770 889 
Q 3016 1369 3016 2328 
Q 3016 3291 2770 3770 
Q 2525 4250 2034 4250 
z
M 2034 4750 
Q 2819 4750 3233 4129 
Q 3647 3509 3647 2328 
Q 3647 1150 3233 529 
Q 2819 -91 2034 -91 
Q 1250 -91 836 529 
Q 422 1150 422 2328 
Q 422 3509 836 4129 
Q 1250 4750 2034 4750 
z
" transform="scale(0.015625)"/>
       </defs>
       <use xlink:href="#DejaVuSans-2212"/>
       <use xlink:href="#DejaVuSans-31" x="83.789062"/>
       <use xlink:href="#DejaVuSans-2e" x="147.412109"/>
       <use xlink:href="#DejaVuSans-30" x="179.199219"/>
      </g>
     </g>
    </g>
    <g id="xtick_2">
     <g id="line2d_3">
      <path d="M 96.985045 330.197538 
L 96.985045 7.2 
" clip-path="url(#p08b93f31cc)" style="fill: none; stroke-dasharray: 0.5,0.825; stroke-dashoffset: 0; stroke: #000000; stroke-width: 0.5"/>
     </g>
     <g id="line2d_4">
      <g>
       <use xlink:href="#m762d7d26a8" x="96.985045" y="168.698769" style="stroke: #000000; stroke-width: 0.8"/>
      </g>
     </g>
     <g id="text_2">
      <!-- −0.5 -->
      <g transform="translate(84.843639 183.297207) scale(0.1 -0.1)">
       <defs>
        <path id="DejaVuSans-35" d="M 691 4666 
L 3169 4666 
L 3169 4134 
L 1269 4134 
L 1269 2991 
Q 1406 3038 1543 3061 
Q 1681 3084 1819 3084 
Q 2600 3084 3056 2656 
Q 3513 2228 3513 1497 
Q 3513 744 3044 326 
Q 2575 -91 1722 -91 
Q 1428 -91 1123 -41 
Q 819 9 494 109 
L 494 744 
Q 775 591 1075 516 
Q 1375 441 1709 441 
Q 2250 441 2565 725 
Q 2881 1009 2881 1497 
Q 2881 1984 2565 2268 
Q 2250 2553 1709 2553 
Q 1456 2553 1204 2497 
Q 953 2441 691 2322 
L 691 4666 
z
" transform="scale(0.015625)"/>
       </defs>
       <use xlink:href="#DejaVuSans-2212"/>
       <use xlink:href="#DejaVuSans-30" x="83.789062"/>
       <use xlink:href="#DejaVuSans-2e" x="147.412109"/>
       <use xlink:href="#DejaVuSans-35" x="179.199219"/>
      </g>
     </g>
    </g>
    <g id="xtick_3">
     <g id="line2d_5">
      <path d="M 174.628684 330.197538 
L 174.628684 7.2 
" clip-path="url(#p08b93f31cc)" style="fill: none; stroke-dasharray: 0.5,0.825; stroke-dashoffset: 0; stroke: #000000; stroke-width: 0.5"/>
     </g>
     <g id="line2d_6">
      <g>
       <use xlink:href="#m762d7d26a8" x="174.628684" y="168.698769" style="stroke: #000000; stroke-width: 0.8"/>
      </g>
     </g>
    </g>
    <g id="xtick_4">
     <g id="line2d_7">
      <path d="M 252.272323 330.197538 
L 252.272323 7.2 
" clip-path="url(#p08b93f31cc)" style="fill: none; stroke-dasharray: 0.5,0.825; stroke-dashoffset: 0; stroke: #000000; stroke-width: 0.5"/>
     </g>
     <g id="line2d_8">
      <g>
       <use xlink:href="#m762d7d26a8" x="252.272323" y="168.698769" style="stroke: #000000; stroke-width: 0.8"/>
      </g>
     </g>
     <g id="text_3">
      <!-- 0.5 -->
      <g transform="translate(244.320761 183.297207) scale(0.1 -0.1)">
       <use xlink:href="#DejaVuSans-30"/>
       <use xlink:href="#DejaVuSans-2e" x="63.623047"/>
       <use xlink:href="#DejaVuSans-35" x="95.410156"/>
      </g>
     </g>
    </g>
    <g id="xtick_5">
     <g id="line2d_9">
      <path d="M 329.915962 330.197538 
L 329.915962 7.2 
" clip-path="url(#p08b93f31cc)" style="fill: none; stroke-dasharray: 0.5,0.825; stroke-dashoffset: 0; stroke: #000000; stroke-width: 0.5"/>
     </g>
     <g id="line2d_10">
      <g>
       <use xlink:href="#m762d7d26a8" x="329.915962" y="168.698769" style="stroke: #000000; stroke-width: 0.8"/>
      </g>
     </g>
     <g id="text_4">
      <!-- 1.0 -->
      <g transform="translate(321.9644 183.297207) scale(0.1 -0.1)">
       <use xlink:href="#DejaVuSans-31"/>
       <use xlink:href="#DejaVuSans-2e" x="63.623047"/>
       <use xlink:href="#DejaVuSans-30" x="95.410156"/>
      </g>
     </g>
    </g>
    <g id="xtick_6">
     <g id="line2d_11">
      <defs>
       <path id="m078bd6d4c8" d="M 0 0 
L 0 2 
" style="stroke: #000000; stroke-width: 0.6"/>
      </defs>
      <g>
       <use xlink:href="#m078bd6d4c8" x="34.870134" y="168.698769" style="stroke: #000000; stroke-width: 0.6"/>
      </g>
     </g>
    </g>
    <g id="xtick_7">
     <g id="line2d_12">
      <g>
       <use xlink:href="#m078bd6d4c8" x="50.398862" y="168.698769" style="stroke: #000000; stroke-width: 0.6"/>
      </g>
     </g>
    </g>
    <g id="xtick_8">
     <g id="line2d_13">
      <g>
       <use xlink:href="#m078bd6d4c8" x="65.92759" y="168.698769" style="stroke: #000000; stroke-width: 0.6"/>
      </g>
     </g>
    </g>
    <g id="xtick_9">
     <g id="line2d_14">
      <g>
       <use xlink:href="#m078bd6d4c8" x="81.456317" y="168.698769" style="stroke: #000000; stroke-width: 0.6"/>
      </g>
     </g>
    </g>
    <g id="xtick_10">
     <g id="line2d_15">
      <g>
       <use xlink:href="#m078bd6d4c8" x="112.513773" y="168.698769" style="stroke: #000000; stroke-width: 0.6"/>
      </g>
     </g>
    </g>
    <g id="xtick_11">
     <g id="line2d_16">
      <g>
       <use xlink:href="#m078bd6d4c8" x="128.042501" y="168.698769" style="stroke: #000000; stroke-width: 0.6"/>
      </g>
     </g>
    </g>
    <g id="xtick_12">
     <g id="line2d_17">
      <g>
       <use xlink:href="#m078bd6d4c8" x="143.571229" y="168.698769" style="stroke: #000000; stroke-width: 0.6"/>
      </g>
     </g>
    </g>
    <g id="xtick_13">
     <g id="line2d_18">
      <g>
       <use xlink:href="#m078bd6d4c8" x="159.099957" y="168.698769" style="stroke: #000000; stroke-width: 0.6"/>
      </g>
     </g>
    </g>
    <g id="xtick_14">
     <g id="line2d_19">
      <g>
       <use xlink:href="#m078bd6d4c8" x="190.157412" y="168.698769" style="stroke: #000000; stroke-width: 0.6"/>
      </g>
     </g>
    </g>
    <g id="xtick_15">
     <g id="line2d_20">
      <g>
       <use xlink:href="#m078bd6d4c8" x="205.68614" y="168.698769" style="stroke: #000000; stroke-width: 0.6"/>
      </g>
     </g>
    </g>
    <g id="xtick_16">
     <g id="line2d_21">
      <g>
       <use xlink:href="#m078bd6d4c8" x="221.214868" y="168.698769" style="stroke: #000000; stroke-width: 0.6"/>
      </g>
     </g>
    </g>
    <g id="xtick_17">
     <g id="line2d_22">
      <g>
       <use xlink:href="#m078bd6d4c8" x="236.743596" y="168.698769" style="stroke: #000000; stroke-width: 0.6"/>
      </g>
     </g>
    </g>
    <g id="xtick_18">
     <g id="line2d_23">
      <g>
       <use xlink:href="#m078bd6d4c8" x="267.801051" y="168.698769" style="stroke: #000000; stroke-width: 0.6"/>
      </g>
     </g>
    </g>
    <g id="xtick_19">
     <g id="line2d_24">
      <g>
       <use xlink:href="#m078bd6d4c8" x="283.329779" y="168.698769" style="stroke: #000000; stroke-width: 0.6"/>
      </g>
     </g>
    </g>
    <g id="xtick_20">
     <g id="line2d_25">
      <g>
       <use xlink:href="#m078bd6d4c8" x="298.858507" y="168.698769" style="stroke: #000000; stroke-width: 0.6"/>
      </g>
     </g>
    </g>
    <g id="xtick_21">
     <g id="line2d_26">
      <g>
       <use xlink:href="#m078bd6d4c8" x="314.387235" y="168.698769" style="stroke: #000000; stroke-width: 0.6"/>
      </g>
     </g>
    </g>
   </g>
   <g id="matplotlib.axis_2">
    <g id="ytick_1">
     <g id="line2d_27">
      <path d="M 13.130028 323.986047 
L 336.127451 323.986047 
" clip-path="url(#p08b93f31cc)" style="fill: none; stroke-dasharray: 0.5,0.825; stroke-dashoffset: 0; stroke: #000000; stroke-width: 0.5"/>
     </g>
     <g id="line2d_28">
      <defs>
       <path id="mc2ec333e8d" d="M 0 0 
L -3.5 0 
" style="stroke: #000000; stroke-width: 0.8"/>
      </defs>
      <g>
       <use xlink:href="#mc2ec333e8d" x="174.628684" y="323.986047" style="stroke: #000000; stroke-width: 0.8"/>
      </g>
     </g>
     <g id="text_5">
      <!-- −1.0 -->
      <g transform="translate(143.345872 327.785266) scale(0.1 -0.1)">
       <use xlink:href="#DejaVuSans-2212"/>
       <use xlink:href="#DejaVuSans-31" x="83.789062"/>
       <use xlink:href="#DejaVuSans-2e" x="147.412109"/>
       <use xlink:href="#DejaVuSans-30" x="179.199219"/>
      </g>
     </g>
    </g>
    <g id="ytick_2">
     <g id="line2d_29">
      <path d="M 13.130028 246.342408 
L 336.127451 246.342408 
" clip-path="url(#p08b93f31cc)" style="fill: none; stroke-dasharray: 0.5,0.825; stroke-dashoffset: 0; stroke: #000000; stroke-width: 0.5"/>
     </g>
     <g id="line2d_30">
      <g>
       <use xlink:href="#mc2ec333e8d" x="174.628684" y="246.342408" style="stroke: #000000; stroke-width: 0.8"/>
      </g>
     </g>
     <g id="text_6">
      <!-- −0.5 -->
      <g transform="translate(143.345872 250.141627) scale(0.1 -0.1)">
       <use xlink:href="#DejaVuSans-2212"/>
       <use xlink:href="#DejaVuSans-30" x="83.789062"/>
       <use xlink:href="#DejaVuSans-2e" x="147.412109"/>
       <use xlink:href="#DejaVuSans-35" x="179.199219"/>
      </g>
     </g>
    </g>
    <g id="ytick_3">
     <g id="line2d_31">
      <path d="M 13.130028 168.698769 
L 336.127451 168.698769 
" clip-path="url(#p08b93f31cc)" style="fill: none; stroke-dasharray: 0.5,0.825; stroke-dashoffset: 0; stroke: #000000; stroke-width: 0.5"/>
     </g>
     <g id="line2d_32">
      <g>
       <use xlink:href="#mc2ec333e8d" x="174.628684" y="168.698769" style="stroke: #000000; stroke-width: 0.8"/>
      </g>
     </g>
    </g>
    <g id="ytick_4">
     <g id="line2d_33">
      <path d="M 13.130028 91.05513 
L 336.127451 91.05513 
" clip-path="url(#p08b93f31cc)" style="fill: none; stroke-dasharray: 0.5,0.825; stroke-dashoffset: 0; stroke: #000000; stroke-width: 0.5"/>
     </g>
     <g id="line2d_34">
      <g>
       <use xlink:href="#mc2ec333e8d" x="174.628684" y="91.05513" style="stroke: #000000; stroke-width: 0.8"/>
      </g>
     </g>
     <g id="text_7">
      <!-- 0.5 -->
      <g transform="translate(151.725559 94.854349) scale(0.1 -0.1)">
       <use xlink:href="#DejaVuSans-30"/>
       <use xlink:href="#DejaVuSans-2e" x="63.623047"/>
       <use xlink:href="#DejaVuSans-35" x="95.410156"/>
      </g>
     </g>
    </g>
    <g id="ytick_5">
     <g id="line2d_35">
      <path d="M 13.130028 13.411491 
L 336.127451 13.411491 
" clip-path="url(#p08b93f31cc)" style="fill: none; stroke-dasharray: 0.5,0.825; stroke-dashoffset: 0; stroke: #000000; stroke-width: 0.5"/>
     </g>
     <g id="line2d_36">
      <g>
       <use xlink:href="#mc2ec333e8d" x="174.628684" y="13.411491" style="stroke: #000000; stroke-width: 0.8"/>
      </g>
     </g>
     <g id="text_8">
      <!-- 1.0 -->
      <g transform="translate(151.725559 17.21071) scale(0.1 -0.1)">
       <use xlink:href="#DejaVuSans-31"/>
       <use xlink:href="#DejaVuSans-2e" x="63.623047"/>
       <use xlink:href="#DejaVuSans-30" x="95.410156"/>
      </g>
     </g>
    </g>
    <g id="ytick_6">
     <g id="line2d_37">
      <defs>
       <path id="mfc33222e08" d="M 0 0 
L -2 0 
" style="stroke: #000000; stroke-width: 0.6"/>
      </defs>
      <g>
       <use xlink:href="#mfc33222e08" x="174.628684" y="308.45732" style="stroke: #000000; stroke-width: 0.6"/>
      </g>
     </g>
    </g>
    <g id="ytick_7">
     <g id="line2d_38">
      <g>
       <use xlink:href="#mfc33222e08" x="174.628684" y="292.928592" style="stroke: #000000; stroke-width: 0.6"/>
      </g>
     </g>
    </g>
    <g id="ytick_8">
     <g id="line2d_39">
      <g>
       <use xlink:href="#mfc33222e08" x="174.628684" y="277.399864" style="stroke: #000000; stroke-width: 0.6"/>
      </g>
     </g>
    </g>
    <g id="ytick_9">
     <g id="line2d_40">
      <g>
       <use xlink:href="#mfc33222e08" x="174.628684" y="261.871136" style="stroke: #000000; stroke-width: 0.6"/>
      </g>
     </g>
    </g>
    <g id="ytick_10">
     <g id="line2d_41">
      <g>
       <use xlink:href="#mfc33222e08" x="174.628684" y="230.81368" style="stroke: #000000; stroke-width: 0.6"/>
      </g>
     </g>
    </g>
    <g id="ytick_11">
     <g id="line2d_42">
      <g>
       <use xlink:href="#mfc33222e08" x="174.628684" y="215.284953" style="stroke: #000000; stroke-width: 0.6"/>
      </g>
     </g>
    </g>
    <g id="ytick_12">
     <g id="line2d_43">
      <g>
       <use xlink:href="#mfc33222e08" x="174.628684" y="199.756225" style="stroke: #000000; stroke-width: 0.6"/>
      </g>
     </g>
    </g>
    <g id="ytick_13">
     <g id="line2d_44">
      <g>
       <use xlink:href="#mfc33222e08" x="174.628684" y="184.227497" style="stroke: #000000; stroke-width: 0.6"/>
      </g>
     </g>
    </g>
    <g id="ytick_14">
     <g id="line2d_45">
      <g>
       <use xlink:href="#mfc33222e08" x="174.628684" y="153.170041" style="stroke: #000000; stroke-width: 0.6"/>
      </g>
     </g>
    </g>
    <g id="ytick_15">
     <g id="line2d_46">
      <g>
       <use xlink:href="#mfc33222e08" x="174.628684" y="137.641314" style="stroke: #000000; stroke-width: 0.6"/>
      </g>
     </g>
    </g>
    <g id="ytick_16">
     <g id="line2d_47">
      <g>
       <use xlink:href="#mfc33222e08" x="174.628684" y="122.112586" style="stroke: #000000; stroke-width: 0.6"/>
      </g>
     </g>
    </g>
    <g id="ytick_17">
     <g id="line2d_48">
      <g>
       <use xlink:href="#mfc33222e08" x="174.628684" y="106.583858" style="stroke: #000000; stroke-width: 0.6"/>
      </g>
     </g>
    </g>
    <g id="ytick_18">
     <g id="line2d_49">
      <g>
       <use xlink:href="#mfc33222e08" x="174.628684" y="75.526402" style="stroke: #000000; stroke-width: 0.6"/>
      </g>
     </g>
    </g>
    <g id="ytick_19">
     <g id="line2d_50">
      <g>
       <use xlink:href="#mfc33222e08" x="174.628684" y="59.997675" style="stroke: #000000; stroke-width: 0.6"/>
      </g>
     </g>
    </g>
    <g id="ytick_20">
     <g id="line2d_51">
      <g>
       <use xlink:href="#mfc33222e08" x="174.628684" y="44.468947" style="stroke: #000000; stroke-width: 0.6"/>
      </g>
     </g>
    </g>
    <g id="ytick_21">
     <g id="line2d_52">
      <g>
       <use xlink:href="#mfc33222e08" x="174.628684" y="28.940219" style="stroke: #000000; stroke-width: 0.6"/>
      </g>
     </g>
    </g>
   </g>
   <g id="line2d_53">
    <path d="M 329.915962 168.698769 
L 329.65848 150.850904 
L 329.062649 136.363485 
L 328.061213 121.412354 
L 326.22676 103.002287 
L 325.228658 95.253927 
L 322.625186 79.068013 
L 321.395343 72.803018 
L 319.503482 64.384922 
L 316.565741 53.545485 
L 313.522372 44.470352 
L 309.627325 35.265865 
L 308.159591 32.371915 
L 305.878903 28.409145 
L 303.13946 24.415727 
L 300.978245 21.791015 
L 296.438564 17.597358 
L 293.509385 15.72965 
L 290.482889 14.410035 
L 287.481787 13.657749 
L 283.424128 13.43749 
L 280.30611 13.834511 
L 278.351079 14.314991 
L 274.251168 15.859476 
L 271.129816 17.488291 
L 267.060706 20.150604 
L 262.967981 23.394248 
L 257.692326 28.335596 
L 252.018421 34.51002 
L 247.82441 39.589916 
L 241.496844 47.996606 
L 236.101264 55.797083 
L 230.741716 64.055785 
L 226.656531 70.657183 
L 220.766815 80.589538 
L 212.111961 95.94893 
L 202.377759 114.093891 
L 191.403622 135.345223 
L 178.200057 161.557914 
L 158.60952 200.566172 
L 147.810944 221.528372 
L 139.917396 236.364759 
L 132.926166 249.039967 
L 126.717725 259.845943 
L 122.868178 266.299768 
L 116.99353 275.735574 
L 113.653572 280.854401 
L 107.258499 290.09834 
L 103.638644 294.974161 
L 99.265764 300.484483 
L 95.425975 304.951306 
L 89.755987 310.847745 
L 87.850016 312.627179 
L 81.008604 318.084495 
L 77.089652 320.49224 
L 74.556842 321.741234 
L 69.713 323.396342 
L 68.481675 323.652457 
L 62.605703 323.856666 
L 59.941543 323.343064 
L 56.032189 321.817251 
L 53.173946 320.059575 
L 49.347658 316.74747 
L 47.7865 315.046413 
L 46.185394 313.070485 
L 41.68818 306.111438 
L 40.915012 304.680618 
L 37.970425 298.499135 
L 35.955181 293.513677 
L 33.20273 285.512541 
L 31.529236 279.842511 
L 29.879304 273.52621 
L 27.568403 263.162134 
L 25.232924 250.21989 
L 23.981499 241.801342 
L 23.093234 234.91639 
L 22.035672 225.301836 
L 21.237585 216.494272 
L 20.235495 201.786695 
L 19.985323 196.835421 
L 19.410655 177.968732 
L 19.341517 169.069297 
L 19.543245 152.889593 
L 19.839838 143.914813 
L 20.651438 128.781881 
L 21.222655 121.08602 
L 22.611099 106.636714 
L 24.254593 93.645597 
L 25.243091 87.114254 
L 26.505712 79.754349 
L 27.967256 72.298652 
L 30.219244 62.504278 
L 32.041629 55.746117 
L 34.540797 47.807544 
L 36.555434 42.328255 
L 38.68764 37.279291 
L 40.259524 33.989768 
L 42.295796 30.213222 
L 45.82819 24.801507 
L 48.775204 21.248896 
L 50.799202 19.255872 
L 53.234993 17.294317 
L 56.520358 15.336344 
L 60.296423 13.962491 
L 64.614825 13.41262 
L 68.572152 13.761514 
L 71.331018 14.441893 
L 75.133474 15.918487 
L 77.87964 17.345371 
L 80.670372 19.083511 
L 84.828295 22.17427 
L 88.213224 25.101189 
L 95.091603 32.074698 
L 97.667904 35.010291 
L 102.651791 41.142363 
L 109.231227 50.068263 
L 111.470543 53.302058 
L 117.194853 61.976448 
L 120.813724 67.738553 
L 130.200978 83.557536 
L 137.343294 96.309431 
L 143.730226 108.137523 
L 151.802076 123.54148 
L 166.36433 152.193484 
L 193.218196 205.610433 
L 202.972369 224.433868 
L 210.798135 239.04806 
L 220.311001 256.020538 
L 224.652261 263.412758 
L 230.093252 272.310785 
L 234.468501 279.135647 
L 238.447703 285.059617 
L 246.57747 296.218984 
L 252.568507 303.522411 
L 260.335528 311.639636 
L 265.175822 315.82056 
L 269.891125 319.161271 
L 272.686531 320.768389 
L 275.623289 322.132858 
L 281.453514 323.763327 
L 282.719939 323.911581 
L 287.456738 323.743877 
L 290.620187 322.940233 
L 295.02033 320.78076 
L 298.638441 317.97797 
L 301.303073 315.239661 
L 303.860632 312.006002 
L 305.537256 309.530072 
L 307.350472 306.502765 
L 309.518746 302.355634 
L 311.584658 297.804056 
L 313.546849 292.861451 
L 315.949589 285.846511 
L 317.484714 280.710267 
L 319.535799 272.879454 
L 320.622011 268.19644 
L 323.099961 255.708066 
L 324.296299 248.497302 
L 325.757982 238.175617 
L 327.175999 225.758513 
L 327.837672 218.662677 
L 328.464814 210.662517 
L 328.978414 202.569393 
L 329.434225 193.06742 
L 329.851957 177.611246 
L 329.915962 168.698769 
L 329.915962 168.698769 
" clip-path="url(#p08b93f31cc)" style="fill: none; stroke: #000000; stroke-width: 2; stroke-linecap: square"/>
   </g>
   <g id="patch_3">
    <path d="M 174.628684 330.197538 
L 174.628684 7.2 
" style="fill: none; stroke: #000000; stroke-width: 0.8; stroke-linejoin: miter; stroke-linecap: square"/>
   </g>
   <g id="patch_4">
    <path d="M 13.130028 168.698769 
L 336.127451 168.698769 
" style="fill: none; stroke: #000000; stroke-width: 0.8; stroke-linejoin: miter; stroke-linecap: square"/>
   </g>
  </g>
 </g>
 <defs>
  <clipPath id="p08b93f31cc">
   <rect x="13.130028" y="7.2" width="322.997424" height="322.997538"/>
  </clipPath>
 </defs>
</svg>
