<?xml version="1.0" encoding="utf-8" standalone="no"?>
<!DOCTYPE svg PUBLIC "-//W3C//DTD SVG 1.1//EN"
  "http://www.w3.org/Graphics/SVG/1.1/DTD/svg11.dtd">
<svg xmlns:xlink="http://www.w3.org/1999/xlink" width="453.6pt" height="236.335013pt" viewBox="0 0 453.6 236.335013" xmlns="http://www.w3.org/2000/svg" version="1.1">
 <metadata>
  <rdf:RDF xmlns:dc="http://purl.org/dc/elements/1.1/" xmlns:cc="http://creativecommons.org/ns#" xmlns:rdf="http://www.w3.org/1999/02/22-rdf-syntax-ns#">
   <cc:Work>
    <dc:type rdf:resource="http://purl.org/dc/dcmitype/StillImage"/>
    <dc:date>2024-11-20T07:40:17.071084</dc:date>
    <dc:format>image/svg+xml</dc:format>
    <dc:creator>
     <cc:Agent>
      <dc:title>Matplotlib v3.6.2, https://matplotlib.org/</dc:title>
     </cc:Agent>
    </dc:creator>
   </cc:Work>
  </rdf:RDF>
 </metadata>
 <defs>
  <style type="text/css">*{stroke-linejoin: round; stroke-linecap: butt}</style>
 </defs>
 <g id="figure_1">
  <g id="patch_1">
   <path d="M 0 236.335013 
L 453.6 236.335013 
L 453.6 0 
L 0 0 
z
" style="fill: #ffffff"/>
  </g>
  <g id="axes_1">
   <g id="patch_2">
    <path d="M 7.2 229.135013 
L 446.4 229.135013 
L 446.4 7.2 
L 7.2 7.2 
z
" style="fill: #ffffff"/>
   </g>
   <g id="PathCollection_1">
    <path d="M 20.709043 139.146661 
C 21.435331 139.146661 22.131971 138.858103 22.645534 138.34454 
C 23.159098 137.830976 23.447655 137.134337 23.447655 136.408048 
C 23.447655 135.68176 23.159098 134.98512 22.645534 134.471557 
C 22.131971 133.957993 21.435331 133.669435 20.709043 133.669435 
C 19.982754 133.669435 19.286115 133.957993 18.772551 134.471557 
C 18.258987 134.98512 17.97043 135.68176 17.97043 136.408048 
C 17.97043 137.134337 18.258987 137.830976 18.772551 138.34454 
C 19.286115 138.858103 19.982754 139.146661 20.709043 139.146661 
z
" clip-path="url(#p93051b307c)"/>
   </g>
   <g id="matplotlib.axis_1"/>
   <g id="matplotlib.axis_2"/>
   <g id="line2d_1">
    <path d="M 437.953846 75.117427 
L 434.071232 70.102265 
L 431.30216 66.831919 
L 427.156749 62.332091 
L 423.807156 58.993362 
L 419.335635 54.889431 
L 414.407256 50.769222 
L 410.343289 47.647805 
L 404.748045 43.706957 
L 400.768165 41.128282 
L 396.604584 38.610431 
L 389.389811 34.639576 
L 385.045529 32.465954 
L 380.475748 30.340195 
L 372.980668 27.18123 
L 367.10443 24.965801 
L 359.642167 22.454585 
L 352.927076 20.461752 
L 346.649822 18.811154 
L 341.432506 17.586157 
L 336.801877 16.605145 
L 329.862559 15.313222 
L 322.034378 14.099406 
L 315.479965 13.27151 
L 307.875997 12.515748 
L 302.013962 12.077079 
L 293.436768 11.651819 
L 283.814578 11.468612 
L 276.694034 11.525411 
L 270.394372 11.70781 
L 264.565808 11.984473 
L 254.584262 12.69343 
L 244.193709 13.739271 
L 233.526992 15.13197 
L 227.428467 16.071184 
L 216.413653 18.028208 
L 209.425567 19.442808 
L 197.970504 22.051763 
L 186.677224 24.978351 
L 178.534442 27.309401 
L 169.48885 30.119694 
L 157.874979 34.077229 
L 147.406517 37.993188 
L 135.810317 42.736676 
L 128.09423 46.142554 
L 119.848499 50.016567 
L 111.754645 54.070128 
L 102.597956 58.980177 
L 92.467498 64.855572 
L 85.029436 69.501859 
L 78.367883 73.932971 
L 71.057084 79.129145 
L 64.161243 84.399506 
L 59.426989 88.25903 
L 54.819399 92.234282 
L 48.906621 97.708781 
L 44.009172 102.628787 
L 39.944635 107.042302 
L 37.339877 110.063075 
L 33.228716 115.213253 
L 30.977845 118.279785 
L 27.341699 123.728951 
L 24.575846 128.439953 
L 22.391353 132.67688 
L 21.016355 135.686952 
L 19.767767 138.757038 
L 18.296916 143.018767 
L 17.551805 145.621403 
L 16.768496 148.967962 
L 16.122052 152.779772 
L 15.748604 156.54745 
L 15.646154 159.890906 
L 15.79192 163.570446 
L 16.06951 166.2089 
L 16.782296 170.227511 
L 17.310872 172.368947 
L 18.355905 175.721803 
L 19.491188 178.640308 
L 21.275327 182.389522 
L 23.661473 186.470672 
L 25.704301 189.433013 
L 27.521852 191.781179 
L 30.610974 195.315746 
L 33.820153 198.533203 
L 37.688745 201.956493 
L 41.565931 205.005145 
L 46.292083 208.319681 
L 50.04494 210.697957 
L 55.927178 214.060355 
L 61.307421 216.813385 
L 67.085143 219.486522 
L 72.644249 221.823602 
L 78.534833 224.083867 
L 80.706981 224.867032 
L 80.706981 224.867032 
" clip-path="url(#p93051b307c)" style="fill: none; stroke: #000000; stroke-width: 2; stroke-linecap: square"/>
   </g>
   <g id="patch_3">
    <path d="M 181.156108 26.538506 
Q 180.129129 26.839662 181.247863 26.5116 
" clip-path="url(#p93051b307c)" style="fill: none; stroke: #000000; stroke-width: 2; stroke-linecap: round"/>
    <path d="M 192.250758 28.495613 
L 181.247863 26.5116 
L 189.43681 18.899692 
L 192.250758 28.495613 
z
" clip-path="url(#p93051b307c)" style="stroke: #000000; stroke-width: 2; stroke-linecap: round"/>
   </g>
   <g id="text_1">
    <!-- $Q$ -->
    <g transform="translate(31.639546 151.39205) scale(0.2 -0.2)">
     <defs>
      <path id="Cmmi10-51" d="M 1947 -141 
Q 1466 -141 1094 79 
Q 722 300 520 692 
Q 319 1084 319 1563 
Q 319 2259 714 2950 
Q 1109 3641 1756 4077 
Q 2403 4513 3109 4513 
Q 3475 4513 3778 4381 
Q 4081 4250 4290 4017 
Q 4500 3784 4614 3471 
Q 4728 3159 4728 2791 
Q 4728 2366 4581 1936 
Q 4434 1506 4171 1136 
Q 3909 766 3559 484 
Q 3209 203 2809 38 
Q 2850 -256 2934 -425 
Q 3019 -594 3256 -594 
Q 3506 -594 3726 -412 
Q 3947 -231 4006 13 
Q 4019 72 4078 72 
Q 4147 72 4147 -13 
Q 4100 -219 4008 -430 
Q 3916 -641 3786 -823 
Q 3656 -1006 3478 -1123 
Q 3300 -1241 3084 -1241 
Q 2547 -1241 2547 -550 
Q 2547 -509 2562 -332 
Q 2578 -156 2578 -44 
Q 2269 -141 1947 -141 
z
M 1709 300 
Q 1709 44 1991 44 
Q 2275 44 2591 184 
L 2591 244 
Q 2591 503 2509 648 
Q 2428 794 2194 794 
Q 2078 794 1964 723 
Q 1850 653 1779 539 
Q 1709 425 1709 300 
z
M 1544 288 
Q 1544 456 1637 612 
Q 1731 769 1881 864 
Q 2031 959 2203 959 
Q 2481 959 2607 771 
Q 2734 584 2778 281 
Q 3188 525 3500 978 
Q 3813 1431 3977 1973 
Q 4141 2516 4141 3003 
Q 4141 3356 4023 3656 
Q 3906 3956 3664 4140 
Q 3422 4325 3066 4325 
Q 2722 4325 2403 4156 
Q 2084 3988 1813 3706 
Q 1550 3434 1342 3032 
Q 1134 2631 1021 2193 
Q 909 1756 909 1356 
Q 909 947 1068 612 
Q 1228 278 1569 128 
Q 1544 194 1544 288 
z
" transform="scale(0.015625)"/>
     </defs>
     <use xlink:href="#Cmmi10-51" transform="translate(0 0.484375)"/>
    </g>
   </g>
  </g>
 </g>
 <defs>
  <clipPath id="p93051b307c">
   <rect x="7.2" y="7.2" width="439.2" height="221.935013"/>
  </clipPath>
 </defs>
</svg>
