<?xml version="1.0" encoding="utf-8" standalone="no"?>
<!DOCTYPE svg PUBLIC "-//W3C//DTD SVG 1.1//EN"
  "http://www.w3.org/Graphics/SVG/1.1/DTD/svg11.dtd">
<svg xmlns:xlink="http://www.w3.org/1999/xlink" width="453.6pt" height="236.32751pt" viewBox="0 0 453.6 236.32751" xmlns="http://www.w3.org/2000/svg" version="1.1">
 <metadata>
  <rdf:RDF xmlns:dc="http://purl.org/dc/elements/1.1/" xmlns:cc="http://creativecommons.org/ns#" xmlns:rdf="http://www.w3.org/1999/02/22-rdf-syntax-ns#">
   <cc:Work>
    <dc:type rdf:resource="http://purl.org/dc/dcmitype/StillImage"/>
    <dc:date>2024-12-04T08:26:25.767909</dc:date>
    <dc:format>image/svg+xml</dc:format>
    <dc:creator>
     <cc:Agent>
      <dc:title>Matplotlib v3.6.2, https://matplotlib.org/</dc:title>
     </cc:Agent>
    </dc:creator>
   </cc:Work>
  </rdf:RDF>
 </metadata>
 <defs>
  <style type="text/css">*{stroke-linejoin: round; stroke-linecap: butt}</style>
 </defs>
 <g id="figure_1">
  <g id="patch_1">
   <path d="M 0 236.32751 
L 453.6 236.32751 
L 453.6 0 
L 0 0 
z
" style="fill: #ffffff"/>
  </g>
  <g id="axes_1">
   <g id="patch_2">
    <path d="M 7.2 229.12751 
L 446.4 229.12751 
L 446.4 7.2 
L 7.2 7.2 
z
" style="fill: #ffffff"/>
   </g>
   <g id="PathCollection_1">
    <path d="M 376.129985 31.989374 
C 377.06762 31.989374 377.966977 31.616848 378.629985 30.95384 
C 379.292993 30.290832 379.665519 29.391474 379.665519 28.45384 
C 379.665519 27.516205 379.292993 26.616848 378.629985 25.95384 
C 377.966977 25.290832 377.06762 24.918306 376.129985 24.918306 
C 375.192351 24.918306 374.292993 25.290832 373.629985 25.95384 
C 372.966977 26.616848 372.594451 27.516205 372.594451 28.45384 
C 372.594451 29.391474 372.966977 30.290832 373.629985 30.95384 
C 374.292993 31.616848 375.192351 31.989374 376.129985 31.989374 
z
" clip-path="url(#p1ed2211837)"/>
   </g>
   <g id="PathCollection_2">
    <path d="M 342.32741 21.315334 
C 343.265045 21.315334 344.164403 20.942808 344.82741 20.2798 
C 345.490418 19.616792 345.862944 18.717434 345.862944 17.7798 
C 345.862944 16.842165 345.490418 15.942808 344.82741 15.2798 
C 344.164403 14.616792 343.265045 14.244266 342.32741 14.244266 
C 341.389776 14.244266 340.490418 14.616792 339.82741 15.2798 
C 339.164403 15.942808 338.791877 16.842165 338.791877 17.7798 
C 338.791877 18.717434 339.164403 19.616792 339.82741 20.2798 
C 340.490418 20.942808 341.389776 21.315334 342.32741 21.315334 
z
" clip-path="url(#p1ed2211837)"/>
   </g>
   <g id="matplotlib.axis_1"/>
   <g id="matplotlib.axis_2"/>
   <g id="line2d_1">
    <path d="M 437.953846 75.110104 
L 434.46274 70.576584 
L 430.822992 66.28145 
L 427.368312 62.544069 
L 423.865935 59.042564 
L 421.051402 56.412587 
L 416.425918 52.402438 
L 410.239641 47.563864 
L 405.930415 44.500408 
L 401.482533 41.571007 
L 396.798895 38.716751 
L 391.130164 35.547357 
L 384.628261 32.257873 
L 380.110015 30.169519 
L 372.523739 26.993708 
L 365.228905 24.296534 
L 360.927682 22.85693 
L 355.43584 21.170644 
L 347.010459 18.893348 
L 340.027228 17.270779 
L 336.740393 16.585458 
L 328.152118 15.019133 
L 320.66739 13.905561 
L 314.692218 13.175857 
L 306.986823 12.43397 
L 297.038683 11.792359 
L 288.52445 11.512993 
L 280.489807 11.467837 
L 272.646776 11.62124 
L 267.104003 11.844079 
L 259.029569 12.334132 
L 250.149253 13.094574 
L 241.196527 14.090925 
L 233.622549 15.110775 
L 226.040984 16.291971 
L 215.657111 18.167583 
L 209.439055 19.43265 
L 200.352557 21.472221 
L 189.819476 24.121205 
L 182.8727 26.036965 
L 175.263498 28.291275 
L 164.147942 31.882874 
L 158.530835 33.835764 
L 148.088731 37.720333 
L 141.459155 40.363928 
L 132.273164 44.265146 
L 123.873146 48.087272 
L 114.352911 52.733401 
L 106.892053 56.625536 
L 101.225328 59.740583 
L 93.485222 64.235387 
L 85.090124 69.455443 
L 78.968917 73.514624 
L 72.119567 78.343172 
L 67.838505 81.533566 
L 63.462254 84.948909 
L 56.486803 90.761532 
L 52.826642 94.021569 
L 47.681611 98.896167 
L 42.250018 104.490837 
L 38.201434 109.038126 
L 33.57068 114.756976 
L 30.205771 119.37334 
L 27.105544 124.101796 
L 24.868013 127.905262 
L 22.662687 132.111323 
L 20.825483 136.125344 
L 19.159852 140.405437 
L 17.978234 144.075316 
L 17.260268 146.764388 
L 16.382294 151.044331 
L 15.81795 155.584124 
L 15.678626 157.954487 
L 15.679586 161.591388 
L 16.058469 166.11741 
L 16.596674 169.345469 
L 17.067549 171.428196 
L 18.37397 175.765347 
L 19.953844 179.684427 
L 21.680168 183.135692 
L 23.692559 186.511367 
L 26.224782 190.122228 
L 27.923418 192.262772 
L 30.210196 194.876878 
L 33.793372 198.500476 
L 37.396137 201.704695 
L 39.969728 203.783008 
L 45.054646 207.48164 
L 49.358815 210.270549 
L 53.107314 212.491714 
L 57.925366 215.108084 
L 63.408276 217.809337 
L 68.688499 220.175246 
L 73.474263 222.147449 
L 80.707066 224.859673 
L 80.707066 224.859673 
" clip-path="url(#p1ed2211837)" style="fill: none; stroke: #000000; stroke-width: 2; stroke-linecap: square"/>
   </g>
   <g id="patch_3">
    <path d="M 181.156169 26.531195 
Q 180.12919 26.83235 181.247925 26.504288 
" clip-path="url(#p1ed2211837)" style="fill: none; stroke: #000000; stroke-width: 2; stroke-linecap: round"/>
    <path d="M 192.250819 28.488301 
L 181.247925 26.504288 
L 189.436872 18.89238 
L 192.250819 28.488301 
z
" clip-path="url(#p1ed2211837)" style="stroke: #000000; stroke-width: 2; stroke-linecap: round"/>
   </g>
   <g id="text_1">
    <!-- $P_0$ -->
    <g transform="translate(374.995235 52.903089) scale(0.2 -0.2)">
     <defs>
      <path id="Cmmi10-50" d="M 313 0 
Q 250 0 250 84 
Q 253 100 262 139 
Q 272 178 289 201 
Q 306 225 331 225 
Q 722 225 878 269 
Q 959 297 997 441 
L 1875 3956 
Q 1888 4019 1888 4044 
Q 1888 4113 1813 4122 
Q 1691 4147 1350 4147 
Q 1288 4147 1288 4231 
Q 1291 4247 1300 4286 
Q 1309 4325 1326 4348 
Q 1344 4372 1369 4372 
L 3578 4372 
Q 3881 4372 4165 4264 
Q 4450 4156 4631 3934 
Q 4813 3713 4813 3397 
Q 4813 2991 4527 2672 
Q 4241 2353 3814 2175 
Q 3388 1997 2988 1997 
L 1947 1997 
L 1556 416 
Q 1544 353 1544 325 
Q 1544 300 1551 283 
Q 1559 266 1573 261 
Q 1588 256 1619 250 
Q 1741 225 2081 225 
Q 2144 225 2144 141 
Q 2122 50 2109 25 
Q 2097 0 2034 0 
L 313 0 
z
M 1978 2188 
L 2875 2188 
Q 3497 2188 3822 2522 
Q 3988 2688 4092 3000 
Q 4197 3313 4197 3566 
Q 4197 3881 3956 4014 
Q 3716 4147 3359 4147 
L 2747 4147 
Q 2572 4147 2515 4117 
Q 2459 4088 2413 3928 
L 1978 2188 
z
" transform="scale(0.015625)"/>
      <path id="Cmr10-30" d="M 1600 -141 
Q 816 -141 533 504 
Q 250 1150 250 2041 
Q 250 2597 351 3087 
Q 453 3578 754 3920 
Q 1056 4263 1600 4263 
Q 2022 4263 2290 4056 
Q 2559 3850 2700 3523 
Q 2841 3197 2892 2823 
Q 2944 2450 2944 2041 
Q 2944 1491 2842 1011 
Q 2741 531 2444 195 
Q 2147 -141 1600 -141 
z
M 1600 25 
Q 1956 25 2131 390 
Q 2306 756 2347 1200 
Q 2388 1644 2388 2144 
Q 2388 2625 2347 3031 
Q 2306 3438 2132 3767 
Q 1959 4097 1600 4097 
Q 1238 4097 1063 3765 
Q 888 3434 847 3029 
Q 806 2625 806 2144 
Q 806 1788 823 1472 
Q 841 1156 916 820 
Q 991 484 1158 254 
Q 1325 25 1600 25 
z
" transform="scale(0.015625)"/>
     </defs>
     <use xlink:href="#Cmmi10-50" transform="translate(0 0.6875)"/>
     <use xlink:href="#Cmr10-30" transform="translate(64.208984 -16.31875) scale(0.7)"/>
    </g>
   </g>
   <g id="text_2">
    <!-- $P_1$ -->
    <g transform="translate(322.262161 42.229049) scale(0.2 -0.2)">
     <defs>
      <path id="Cmr10-31" d="M 594 0 
L 594 225 
Q 1394 225 1394 428 
L 1394 3788 
Q 1063 3628 556 3628 
L 556 3853 
Q 1341 3853 1741 4263 
L 1831 4263 
Q 1853 4263 1873 4245 
Q 1894 4228 1894 4206 
L 1894 428 
Q 1894 225 2694 225 
L 2694 0 
L 594 0 
z
" transform="scale(0.015625)"/>
     </defs>
     <use xlink:href="#Cmmi10-50" transform="translate(0 0.6875)"/>
     <use xlink:href="#Cmr10-31" transform="translate(64.208984 -16.31875) scale(0.7)"/>
    </g>
   </g>
  </g>
 </g>
 <defs>
  <clipPath id="p1ed2211837">
   <rect x="7.2" y="7.2" width="439.2" height="221.92751"/>
  </clipPath>
 </defs>
</svg>
