<?xml version="1.0" encoding="utf-8" standalone="no"?>
<!DOCTYPE svg PUBLIC "-//W3C//DTD SVG 1.1//EN"
  "http://www.w3.org/Graphics/SVG/1.1/DTD/svg11.dtd">
<svg xmlns:xlink="http://www.w3.org/1999/xlink" width="453.6pt" height="220.528078pt" viewBox="0 0 453.6 220.528078" xmlns="http://www.w3.org/2000/svg" version="1.1">
 <metadata>
  <rdf:RDF xmlns:dc="http://purl.org/dc/elements/1.1/" xmlns:cc="http://creativecommons.org/ns#" xmlns:rdf="http://www.w3.org/1999/02/22-rdf-syntax-ns#">
   <cc:Work>
    <dc:type rdf:resource="http://purl.org/dc/dcmitype/StillImage"/>
    <dc:date>2024-08-29T09:21:30.149419</dc:date>
    <dc:format>image/svg+xml</dc:format>
    <dc:creator>
     <cc:Agent>
      <dc:title>Matplotlib v3.8.0, https://matplotlib.org/</dc:title>
     </cc:Agent>
    </dc:creator>
   </cc:Work>
  </rdf:RDF>
 </metadata>
 <defs>
  <style type="text/css">*{stroke-linejoin: round; stroke-linecap: butt}</style>
 </defs>
 <g id="figure_1">
  <g id="patch_1">
   <path d="M 0 220.528078 
L 453.6 220.528078 
L 453.6 -0 
L 0 -0 
z
" style="fill: #ffffff"/>
  </g>
  <g id="axes_1">
   <g id="patch_2">
    <path d="M 7.2 213.328078 
L 446.4 213.328078 
L 446.4 7.2 
L 7.2 7.2 
z
" style="fill: #ffffff"/>
   </g>
   <g id="PathCollection_1">
    <path d="M 206.319532 65.498802 
C 207.045821 65.498802 207.74246 65.210245 208.256024 64.696681 
C 208.769587 64.183118 209.058145 63.486478 209.058145 62.76019 
C 209.058145 62.033901 208.769587 61.337262 208.256024 60.823698 
C 207.74246 60.310134 207.045821 60.021577 206.319532 60.021577 
C 205.593243 60.021577 204.896604 60.310134 204.38304 60.823698 
C 203.869477 61.337262 203.580919 62.033901 203.580919 62.76019 
C 203.580919 63.486478 203.869477 64.183118 204.38304 64.696681 
C 204.896604 65.210245 205.593243 65.498802 206.319532 65.498802 
z
" clip-path="url(#p0b282c4b16)"/>
   </g>
   <g id="matplotlib.axis_1"/>
   <g id="matplotlib.axis_2"/>
   <g id="line2d_1">
    <path d="M 368.948057 209.364076 
L 383.291698 201.433804 
L 393.323876 195.624555 
L 400.842447 191.032135 
L 406.857416 187.141795 
L 412.570983 183.195108 
L 417.506292 179.509111 
L 421.696154 176.092572 
L 425.300875 172.847629 
L 428.158402 169.980667 
L 430.663454 167.144008 
L 432.536497 164.719333 
L 433.997516 162.542637 
L 435.384234 160.08841 
L 436.478611 157.647928 
L 437.105529 155.821458 
L 437.658231 153.495243 
L 437.886922 151.754125 
L 437.934272 149.33115 
L 437.697315 147.1317 
L 437.239377 145.112441 
L 436.57252 143.158646 
L 435.643625 141.131777 
L 434.477512 139.118314 
L 432.872547 136.855604 
L 430.85635 134.490609 
L 428.715547 132.337894 
L 426.438824 130.318248 
L 423.408601 127.930745 
L 420.319863 125.752035 
L 416.086003 123.067694 
L 411.565688 120.486435 
L 406.203437 117.70691 
L 400.523877 115.016718 
L 394.298734 112.299539 
L 387.58866 109.584032 
L 379.409345 106.510704 
L 370.071814 103.253847 
L 359.431028 99.800228 
L 347.161973 96.086459 
L 334.993796 92.628353 
L 320.11892 88.642256 
L 303.536936 84.445883 
L 285.205581 80.042739 
L 263.717175 75.121222 
L 238.889464 69.669158 
L 204.999248 62.483798 
L 122.83591 45.199972 
L 100.753835 40.270734 
L 84.202535 36.367147 
L 69.943185 32.780095 
L 59.407681 29.932988 
L 50.00091 27.184472 
L 42.061801 24.644247 
L 35.665566 22.380069 
L 29.969764 20.114101 
L 25.680705 18.163544 
L 22.744123 16.634261 
L 19.822004 14.850167 
L 18.057718 13.553954 
L 16.731091 12.378029 
L 15.646154 11.164001 
L 15.646154 11.164001 
" clip-path="url(#p0b282c4b16)" style="fill: none; stroke: #000000; stroke-width: 2; stroke-linecap: square"/>
   </g>
   <g id="patch_3">
    <path d="M 206.319532 62.76019 
Q 155.254704 52.066295 106.378467 41.83073 
" clip-path="url(#p0b282c4b16)" style="fill: none; stroke: #ff0000; stroke-width: 2; stroke-linecap: round"/>
    <path d="M 115.141288 48.774286 
L 106.378467 41.83073 
L 117.191005 38.986607 
z
" clip-path="url(#p0b282c4b16)" style="fill: #ff0000; stroke: #ff0000; stroke-width: 2; stroke-linecap: round"/>
   </g>
   <g id="patch_4">
    <path d="M 206.319532 62.76019 
Q 195.625637 113.825018 185.390072 162.701254 
" clip-path="url(#p0b282c4b16)" style="fill: none; stroke: #800080; stroke-width: 2; stroke-linecap: round"/>
    <path d="M 192.333628 153.938433 
L 185.390072 162.701254 
L 182.545949 151.888717 
z
" clip-path="url(#p0b282c4b16)" style="fill: #800080; stroke: #800080; stroke-width: 2; stroke-linecap: round"/>
   </g>
   <g id="patch_5">
    <path d="M 206.319532 62.76019 
Q 269.346796 75.959234 330.185468 88.699949 
" clip-path="url(#p0b282c4b16)" style="fill: none; stroke: #ffa500; stroke-width: 2; stroke-linecap: round"/>
    <path d="M 321.422647 81.756393 
L 330.185468 88.699949 
L 319.372931 91.544072 
z
" clip-path="url(#p0b282c4b16)" style="fill: #ffa500; stroke: #ffa500; stroke-width: 2; stroke-linecap: round"/>
   </g>
   <g id="patch_6">
    <path d="M 206.319532 62.76019 
Q 202.518754 80.90943 199.176306 96.870079 
" clip-path="url(#p0b282c4b16)" style="fill: none; stroke: #0000ff; stroke-width: 2; stroke-linecap: round"/>
    <path d="M 206.119862 88.107258 
L 199.176306 96.870079 
L 196.332183 86.057542 
z
" clip-path="url(#p0b282c4b16)" style="fill: #0000ff; stroke: #0000ff; stroke-width: 2; stroke-linecap: round"/>
   </g>
   <g id="patch_7">
    <path d="M 206.319532 62.76019 
Q 265.546018 94.108475 322.796199 124.410712 
" clip-path="url(#p0b282c4b16)" style="fill: none; stroke: #008000; stroke-width: 2; stroke-linecap: round"/>
    <path d="M 316.296928 115.313487 
L 322.796199 124.410712 
L 311.618857 124.151793 
z
" clip-path="url(#p0b282c4b16)" style="fill: #008000; stroke: #008000; stroke-width: 2; stroke-linecap: round"/>
   </g>
  </g>
 </g>
 <defs>
  <clipPath id="p0b282c4b16">
   <rect x="7.2" y="7.2" width="439.2" height="206.128078"/>
  </clipPath>
 </defs>
</svg>
