<?xml version="1.0" encoding="utf-8" standalone="no"?>
<!DOCTYPE svg PUBLIC "-//W3C//DTD SVG 1.1//EN"
  "http://www.w3.org/Graphics/SVG/1.1/DTD/svg11.dtd">
<svg xmlns:xlink="http://www.w3.org/1999/xlink" width="453.6pt" height="236.336699pt" viewBox="0 0 453.6 236.336699" xmlns="http://www.w3.org/2000/svg" version="1.1">
 <metadata>
  <rdf:RDF xmlns:dc="http://purl.org/dc/elements/1.1/" xmlns:cc="http://creativecommons.org/ns#" xmlns:rdf="http://www.w3.org/1999/02/22-rdf-syntax-ns#">
   <cc:Work>
    <dc:type rdf:resource="http://purl.org/dc/dcmitype/StillImage"/>
    <dc:date>2025-01-29T09:02:44.500080</dc:date>
    <dc:format>image/svg+xml</dc:format>
    <dc:creator>
     <cc:Agent>
      <dc:title>Matplotlib v3.6.2, https://matplotlib.org/</dc:title>
     </cc:Agent>
    </dc:creator>
   </cc:Work>
  </rdf:RDF>
 </metadata>
 <defs>
  <style type="text/css">*{stroke-linejoin: round; stroke-linecap: butt}</style>
 </defs>
 <g id="figure_1">
  <g id="patch_1">
   <path d="M 0 236.336699 
L 453.6 236.336699 
L 453.6 0 
L 0 0 
z
" style="fill: #ffffff"/>
  </g>
  <g id="axes_1">
   <g id="patch_2">
    <path d="M 7.2 229.136699 
L 446.4 229.136699 
L 446.4 7.2 
L 7.2 7.2 
z
" style="fill: #ffffff"/>
   </g>
   <g id="PathCollection_1">
    <path d="M 376.129796 31.997784 
C 377.06743 31.997784 377.966788 31.625258 378.629796 30.96225 
C 379.292803 30.299243 379.66533 29.399885 379.66533 28.46225 
C 379.66533 27.524616 379.292803 26.625258 378.629796 25.96225 
C 377.966788 25.299243 377.06743 24.926717 376.129796 24.926717 
C 375.192161 24.926717 374.292803 25.299243 373.629796 25.96225 
C 372.966788 26.625258 372.594262 27.524616 372.594262 28.46225 
C 372.594262 29.399885 372.966788 30.299243 373.629796 30.96225 
C 374.292803 31.625258 375.192161 31.997784 376.129796 31.997784 
z
" clip-path="url(#pd092318aa7)"/>
   </g>
   <g id="PathCollection_2">
    <path d="M 342.327117 21.323712 
C 343.264752 21.323712 344.16411 20.951186 344.827117 20.288178 
C 345.490125 19.62517 345.862651 18.725812 345.862651 17.788178 
C 345.862651 16.850543 345.490125 15.951186 344.827117 15.288178 
C 344.16411 14.62517 343.264752 14.252644 342.327117 14.252644 
C 341.389483 14.252644 340.490125 14.62517 339.827117 15.288178 
C 339.16411 15.951186 338.791584 16.850543 338.791584 17.788178 
C 338.791584 18.725812 339.16411 19.62517 339.827117 20.288178 
C 340.490125 20.951186 341.389483 21.323712 342.327117 21.323712 
z
" clip-path="url(#pd092318aa7)"/>
   </g>
   <g id="matplotlib.axis_1"/>
   <g id="matplotlib.axis_2"/>
   <g id="line2d_1">
    <path d="M 437.953846 75.118658 
L 434.905395 71.135827 
L 432.008272 67.645358 
L 427.738551 62.938937 
L 422.678356 57.922585 
L 418.815197 54.436692 
L 415.038957 51.277091 
L 410.463038 47.737717 
L 404.02734 43.228045 
L 399.045761 40.066487 
L 392.746877 36.429728 
L 386.753488 33.30332 
L 383.754585 31.850428 
L 376.991008 28.824027 
L 370.716635 26.302822 
L 364.161472 23.937666 
L 357.982899 21.940596 
L 351.574592 20.090401 
L 343.562296 18.071719 
L 335.774279 16.401685 
L 329.306661 15.219786 
L 320.05042 13.832205 
L 309.573895 12.667025 
L 303.421857 12.172346 
L 296.220524 11.763287 
L 287.304248 11.501041 
L 277.516513 11.511721 
L 269.970966 11.725474 
L 262.938346 12.080982 
L 253.62739 12.777745 
L 245.552524 13.585926 
L 238.923695 14.388337 
L 231.464806 15.438965 
L 221.567347 17.071872 
L 212.89879 18.723907 
L 205.499878 20.29722 
L 194.884257 22.817365 
L 186.868423 24.926746 
L 176.608791 27.888922 
L 165.108392 31.566465 
L 157.336323 34.271359 
L 148.207118 37.682492 
L 139.759961 41.07244 
L 131.319252 44.694707 
L 121.72988 49.111304 
L 118.246121 50.799496 
L 107.071637 56.53707 
L 98.502032 61.297263 
L 92.052213 65.107806 
L 84.507399 69.84006 
L 76.18347 75.447441 
L 70.770432 79.341161 
L 64.108743 84.441582 
L 57.988593 89.475732 
L 52.196747 94.606583 
L 46.668812 99.908716 
L 42.028425 104.737897 
L 38.382448 108.833939 
L 33.551446 114.78918 
L 31.021783 118.21768 
L 28.302811 122.218138 
L 25.258354 127.219134 
L 22.918697 131.599903 
L 21.122748 135.440585 
L 19.705813 138.918465 
L 18.402914 142.676395 
L 17.249118 146.81374 
L 16.537179 150.158635 
L 16.10506 152.899607 
L 15.698148 157.452684 
L 15.67756 161.580202 
L 15.841481 164.177984 
L 16.356052 168.083068 
L 17.192384 171.930365 
L 18.289379 175.536667 
L 19.593231 178.882265 
L 21.49855 182.812464 
L 23.655345 186.464521 
L 25.842859 189.623658 
L 27.92966 192.280724 
L 30.970529 195.699466 
L 33.551376 198.281019 
L 36.628245 201.062814 
L 41.134565 204.684517 
L 45.784221 207.984102 
L 49.613118 210.43665 
L 54.753325 213.42333 
L 60.495139 216.417342 
L 66.024966 219.017922 
L 72.751359 221.868652 
L 77.210643 223.595628 
L 80.705972 224.868686 
L 80.705972 224.868686 
" clip-path="url(#pd092318aa7)" style="fill: none; stroke: #000000; stroke-width: 2; stroke-linecap: square"/>
   </g>
   <g id="patch_3">
    <path d="M 181.155383 26.539599 
Q 180.1284 26.840756 181.247132 26.512694 
" clip-path="url(#pd092318aa7)" style="fill: none; stroke: #000000; stroke-width: 2; stroke-linecap: round"/>
    <path d="M 192.250026 28.496708 
L 181.247132 26.512694 
L 189.436079 18.900787 
L 192.250026 28.496708 
z
" clip-path="url(#pd092318aa7)" style="stroke: #000000; stroke-width: 2; stroke-linecap: round"/>
   </g>
   <g id="text_1">
    <!-- $P_0$ -->
    <g transform="translate(374.995074 52.911557) scale(0.2 -0.2)">
     <defs>
      <path id="Cmmi10-50" d="M 313 0 
Q 250 0 250 84 
Q 253 100 262 139 
Q 272 178 289 201 
Q 306 225 331 225 
Q 722 225 878 269 
Q 959 297 997 441 
L 1875 3956 
Q 1888 4019 1888 4044 
Q 1888 4113 1813 4122 
Q 1691 4147 1350 4147 
Q 1288 4147 1288 4231 
Q 1291 4247 1300 4286 
Q 1309 4325 1326 4348 
Q 1344 4372 1369 4372 
L 3578 4372 
Q 3881 4372 4165 4264 
Q 4450 4156 4631 3934 
Q 4813 3713 4813 3397 
Q 4813 2991 4527 2672 
Q 4241 2353 3814 2175 
Q 3388 1997 2988 1997 
L 1947 1997 
L 1556 416 
Q 1544 353 1544 325 
Q 1544 300 1551 283 
Q 1559 266 1573 261 
Q 1588 256 1619 250 
Q 1741 225 2081 225 
Q 2144 225 2144 141 
Q 2122 50 2109 25 
Q 2097 0 2034 0 
L 313 0 
z
M 1978 2188 
L 2875 2188 
Q 3497 2188 3822 2522 
Q 3988 2688 4092 3000 
Q 4197 3313 4197 3566 
Q 4197 3881 3956 4014 
Q 3716 4147 3359 4147 
L 2747 4147 
Q 2572 4147 2515 4117 
Q 2459 4088 2413 3928 
L 1978 2188 
z
" transform="scale(0.015625)"/>
      <path id="Cmr10-30" d="M 1600 -141 
Q 816 -141 533 504 
Q 250 1150 250 2041 
Q 250 2597 351 3087 
Q 453 3578 754 3920 
Q 1056 4263 1600 4263 
Q 2022 4263 2290 4056 
Q 2559 3850 2700 3523 
Q 2841 3197 2892 2823 
Q 2944 2450 2944 2041 
Q 2944 1491 2842 1011 
Q 2741 531 2444 195 
Q 2147 -141 1600 -141 
z
M 1600 25 
Q 1956 25 2131 390 
Q 2306 756 2347 1200 
Q 2388 1644 2388 2144 
Q 2388 2625 2347 3031 
Q 2306 3438 2132 3767 
Q 1959 4097 1600 4097 
Q 1238 4097 1063 3765 
Q 888 3434 847 3029 
Q 806 2625 806 2144 
Q 806 1788 823 1472 
Q 841 1156 916 820 
Q 991 484 1158 254 
Q 1325 25 1600 25 
z
" transform="scale(0.015625)"/>
     </defs>
     <use xlink:href="#Cmmi10-50" transform="translate(0 0.6875)"/>
     <use xlink:href="#Cmr10-30" transform="translate(64.208984 -16.31875) scale(0.7)"/>
    </g>
   </g>
   <g id="text_2">
    <!-- $P_1$ -->
    <g transform="translate(322.261839 42.237485) scale(0.2 -0.2)">
     <defs>
      <path id="Cmr10-31" d="M 594 0 
L 594 225 
Q 1394 225 1394 428 
L 1394 3788 
Q 1063 3628 556 3628 
L 556 3853 
Q 1341 3853 1741 4263 
L 1831 4263 
Q 1853 4263 1873 4245 
Q 1894 4228 1894 4206 
L 1894 428 
Q 1894 225 2694 225 
L 2694 0 
L 594 0 
z
" transform="scale(0.015625)"/>
     </defs>
     <use xlink:href="#Cmmi10-50" transform="translate(0 0.6875)"/>
     <use xlink:href="#Cmr10-31" transform="translate(64.208984 -16.31875) scale(0.7)"/>
    </g>
   </g>
  </g>
 </g>
 <defs>
  <clipPath id="pd092318aa7">
   <rect x="7.2" y="7.2" width="439.2" height="221.936699"/>
  </clipPath>
 </defs>
</svg>
