<?xml version="1.0" encoding="utf-8" standalone="no"?>
<!DOCTYPE svg PUBLIC "-//W3C//DTD SVG 1.1//EN"
  "http://www.w3.org/Graphics/SVG/1.1/DTD/svg11.dtd">
<svg xmlns:xlink="http://www.w3.org/1999/xlink" width="453.6pt" height="220.528302pt" viewBox="0 0 453.6 220.528302" xmlns="http://www.w3.org/2000/svg" version="1.1">
 <metadata>
  <rdf:RDF xmlns:dc="http://purl.org/dc/elements/1.1/" xmlns:cc="http://creativecommons.org/ns#" xmlns:rdf="http://www.w3.org/1999/02/22-rdf-syntax-ns#">
   <cc:Work>
    <dc:type rdf:resource="http://purl.org/dc/dcmitype/StillImage"/>
    <dc:date>2024-12-04T07:52:32.926903</dc:date>
    <dc:format>image/svg+xml</dc:format>
    <dc:creator>
     <cc:Agent>
      <dc:title>Matplotlib v3.6.2, https://matplotlib.org/</dc:title>
     </cc:Agent>
    </dc:creator>
   </cc:Work>
  </rdf:RDF>
 </metadata>
 <defs>
  <style type="text/css">*{stroke-linejoin: round; stroke-linecap: butt}</style>
 </defs>
 <g id="figure_1">
  <g id="patch_1">
   <path d="M 0 220.528302 
L 453.6 220.528302 
L 453.6 0 
L 0 0 
z
" style="fill: #ffffff"/>
  </g>
  <g id="axes_1">
   <g id="patch_2">
    <path d="M 7.2 213.328302 
L 446.4 213.328302 
L 446.4 7.2 
L 7.2 7.2 
z
" style="fill: #ffffff"/>
   </g>
   <g id="PathCollection_1">
    <path d="M 206.31974 65.498863 
C 207.046028 65.498863 207.742668 65.210305 208.256231 64.696742 
C 208.769795 64.183178 209.058352 63.486539 209.058352 62.76025 
C 209.058352 62.033962 208.769795 61.337322 208.256231 60.823759 
C 207.742668 60.310195 207.046028 60.021637 206.31974 60.021637 
C 205.593451 60.021637 204.896812 60.310195 204.383248 60.823759 
C 203.869684 61.337322 203.581127 62.033962 203.581127 62.76025 
C 203.581127 63.486539 203.869684 64.183178 204.383248 64.696742 
C 204.896812 65.210305 205.593451 65.498863 206.31974 65.498863 
z
" clip-path="url(#p34533b48ef)"/>
   </g>
   <g id="matplotlib.axis_1"/>
   <g id="matplotlib.axis_2"/>
   <g id="line2d_1">
    <path d="M 368.948442 209.364296 
L 382.624451 201.811102 
L 392.682154 196.006062 
L 401.269352 190.7637 
L 407.998831 186.376133 
L 413.430086 182.575169 
L 418.016461 179.109808 
L 421.814917 175.991362 
L 425.431515 172.723725 
L 428.269994 169.862401 
L 430.543214 167.29004 
L 432.449519 164.840521 
L 434.230331 162.163936 
L 435.60849 159.637869 
L 436.517397 157.548886 
L 437.315315 155.068924 
L 437.743776 152.975457 
L 437.934365 151.041573 
L 437.924566 149.135818 
L 437.747875 147.443897 
L 437.338549 145.47253 
L 436.769015 143.670147 
L 435.946254 141.735609 
L 434.839553 139.699381 
L 433.602441 137.829799 
L 431.966706 135.741674 
L 429.988903 133.582058 
L 427.46841 131.202791 
L 425.008313 129.154619 
L 421.557673 126.598971 
L 417.810663 124.125082 
L 413.339405 121.469436 
L 408.095129 118.657399 
L 402.332281 115.848836 
L 395.814576 112.941805 
L 389.103109 110.17999 
L 381.275668 107.191911 
L 372.911537 104.219448 
L 362.796181 100.866409 
L 351.7145 97.435007 
L 339.403462 93.858717 
L 324.428221 89.773059 
L 308.556263 85.692208 
L 291.908438 81.627833 
L 271.336609 76.841119 
L 248.452467 71.744861 
L 218.495512 65.32005 
L 162.628971 53.656134 
L 126.191676 45.9295 
L 104.464937 41.117787 
L 87.258134 37.105666 
L 71.8853 33.2844 
L 59.685972 30.010973 
L 49.734699 27.103052 
L 41.326779 24.395587 
L 34.9268 22.101798 
L 29.638335 19.972348 
L 25.870317 18.255909 
L 22.482012 16.48702 
L 19.733365 14.790057 
L 17.690737 13.251141 
L 16.177346 11.799535 
L 15.646154 11.164006 
L 15.646154 11.164006 
" clip-path="url(#p34533b48ef)" style="fill: none; stroke: #000000; stroke-width: 2; stroke-linecap: square"/>
   </g>
   <g id="patch_3">
    <path d="M 206.31974 62.76025 
Q 155.254856 52.066343 106.378564 41.830767 
" clip-path="url(#p34533b48ef)" style="fill: none; stroke: #ff0000; stroke-width: 2; stroke-linecap: round"/>
    <path d="M 115.141385 48.774323 
L 106.378564 41.830767 
L 117.191101 38.986644 
L 115.141385 48.774323 
z
" clip-path="url(#p34533b48ef)" style="fill: #ff0000; stroke: #ff0000; stroke-width: 2; stroke-linecap: round"/>
   </g>
   <g id="patch_4">
    <path d="M 206.31974 62.76025 
Q 195.625833 113.825134 185.390257 162.701426 
" clip-path="url(#p34533b48ef)" style="fill: none; stroke: #800080; stroke-width: 2; stroke-linecap: round"/>
    <path d="M 192.333813 153.938605 
L 185.390257 162.701426 
L 182.546133 151.888889 
L 192.333813 153.938605 
z
" clip-path="url(#p34533b48ef)" style="fill: #800080; stroke: #800080; stroke-width: 2; stroke-linecap: round"/>
   </g>
   <g id="patch_5">
    <path d="M 206.31974 62.76025 
Q 269.347072 75.959309 330.185813 88.700038 
" clip-path="url(#p34533b48ef)" style="fill: none; stroke: #ffa500; stroke-width: 2; stroke-linecap: round"/>
    <path d="M 321.422992 81.756482 
L 330.185813 88.700038 
L 319.373276 91.544161 
L 321.422992 81.756482 
z
" clip-path="url(#p34533b48ef)" style="fill: #ffa500; stroke: #ffa500; stroke-width: 2; stroke-linecap: round"/>
   </g>
   <g id="patch_6">
    <path d="M 206.31974 62.76025 
Q 202.518958 80.90951 199.176506 96.870179 
" clip-path="url(#p34533b48ef)" style="fill: none; stroke: #0000ff; stroke-width: 2; stroke-linecap: round"/>
    <path d="M 206.120062 88.107358 
L 199.176506 96.870179 
L 196.332383 86.057642 
L 206.120062 88.107358 
z
" clip-path="url(#p34533b48ef)" style="fill: #0000ff; stroke: #0000ff; stroke-width: 2; stroke-linecap: round"/>
   </g>
   <g id="patch_7">
    <path d="M 206.31974 62.76025 
Q 265.54629 94.10857 322.796535 124.410841 
" clip-path="url(#p34533b48ef)" style="fill: none; stroke: #008000; stroke-width: 2; stroke-linecap: round"/>
    <path d="M 316.297265 115.313616 
L 322.796535 124.410841 
L 311.619194 124.151922 
L 316.297265 115.313616 
z
" clip-path="url(#p34533b48ef)" style="fill: #008000; stroke: #008000; stroke-width: 2; stroke-linecap: round"/>
   </g>
  </g>
 </g>
 <defs>
  <clipPath id="p34533b48ef">
   <rect x="7.2" y="7.2" width="439.2" height="206.128302"/>
  </clipPath>
 </defs>
</svg>
