<?xml version="1.0" encoding="utf-8" standalone="no"?>
<!DOCTYPE svg PUBLIC "-//W3C//DTD SVG 1.1//EN"
  "http://www.w3.org/Graphics/SVG/1.1/DTD/svg11.dtd">
<svg xmlns:xlink="http://www.w3.org/1999/xlink" width="453.6pt" height="236.334989pt" viewBox="0 0 453.6 236.334989" xmlns="http://www.w3.org/2000/svg" version="1.1">
 <metadata>
  <rdf:RDF xmlns:dc="http://purl.org/dc/elements/1.1/" xmlns:cc="http://creativecommons.org/ns#" xmlns:rdf="http://www.w3.org/1999/02/22-rdf-syntax-ns#">
   <cc:Work>
    <dc:type rdf:resource="http://purl.org/dc/dcmitype/StillImage"/>
    <dc:date>2025-01-06T15:15:08.385339</dc:date>
    <dc:format>image/svg+xml</dc:format>
    <dc:creator>
     <cc:Agent>
      <dc:title>Matplotlib v3.6.2, https://matplotlib.org/</dc:title>
     </cc:Agent>
    </dc:creator>
   </cc:Work>
  </rdf:RDF>
 </metadata>
 <defs>
  <style type="text/css">*{stroke-linejoin: round; stroke-linecap: butt}</style>
 </defs>
 <g id="figure_1">
  <g id="patch_1">
   <path d="M 0 236.334989 
L 453.6 236.334989 
L 453.6 -0 
L 0 -0 
z
" style="fill: #ffffff"/>
  </g>
  <g id="axes_1">
   <g id="patch_2">
    <path d="M 7.2 229.134989 
L 446.4 229.134989 
L 446.4 7.2 
L 7.2 7.2 
z
" style="fill: #ffffff"/>
   </g>
   <g id="PathCollection_1">
    <path d="M 20.709176 139.146666 
C 21.435464 139.146666 22.132104 138.858108 22.645667 138.344545 
C 23.159231 137.830981 23.447789 137.134342 23.447789 136.408053 
C 23.447789 135.681765 23.159231 134.985125 22.645667 134.471561 
C 22.132104 133.957998 21.435464 133.66944 20.709176 133.66944 
C 19.982887 133.66944 19.286248 133.957998 18.772684 134.471561 
C 18.25912 134.985125 17.970563 135.681765 17.970563 136.408053 
C 17.970563 137.134342 18.25912 137.830981 18.772684 138.344545 
C 19.286248 138.858108 19.982887 139.146666 20.709176 139.146666 
z
" clip-path="url(#p0a1670dc59)"/>
   </g>
   <g id="matplotlib.axis_1"/>
   <g id="matplotlib.axis_2"/>
   <g id="line2d_1">
    <path d="M 437.953846 75.117451 
L 435.076429 71.349172 
L 431.169767 66.681233 
L 427.154525 62.329816 
L 422.501175 57.755415 
L 418.442613 54.113362 
L 413.922032 50.384131 
L 408.886428 46.583844 
L 404.866025 43.786151 
L 399.517529 40.353407 
L 393.080332 36.611716 
L 387.312527 33.580972 
L 381.203841 30.668362 
L 375.174123 28.065631 
L 367.870027 25.242188 
L 360.411849 22.698779 
L 353.329955 20.574575 
L 345.778345 18.597506 
L 337.89103 16.827167 
L 332.315819 15.746179 
L 324.109497 14.396854 
L 319.632724 13.776633 
L 309.702466 12.67778 
L 303.114323 12.150137 
L 295.887913 11.747688 
L 288.250745 11.515364 
L 278.821167 11.491703 
L 269.001603 11.76462 
L 263.81279 12.02772 
L 252.457258 12.88227 
L 245.550363 13.585222 
L 236.278306 14.742214 
L 227.437633 16.069749 
L 217.28774 17.860759 
L 209.020648 19.528942 
L 200.609527 21.418779 
L 191.978721 23.560504 
L 182.617325 26.117326 
L 176.205889 28.010518 
L 165.077291 31.576152 
L 157.541338 34.196924 
L 148.227495 37.673855 
L 139.190494 41.308598 
L 129.833467 45.35687 
L 119.866925 50.007711 
L 111.78534 54.054348 
L 103.635635 58.405559 
L 95.618175 62.975132 
L 87.965456 67.6319 
L 80.089722 72.761565 
L 74.782297 76.435034 
L 67.702828 81.6444 
L 63.632436 84.820346 
L 58.791992 88.793478 
L 52.415751 94.405075 
L 46.961698 99.616329 
L 42.617249 104.103079 
L 38.674268 108.494968 
L 34.501226 113.562721 
L 32.03142 116.819619 
L 29.732985 120.068528 
L 26.740357 124.704231 
L 24.479124 128.616632 
L 22.902899 131.632824 
L 20.96051 135.816822 
L 19.248212 140.164226 
L 17.881764 144.418286 
L 17.161289 147.184741 
L 16.425219 150.797521 
L 15.899928 154.683335 
L 15.684735 157.79927 
L 15.654268 160.673786 
L 15.76572 163.213085 
L 16.326785 167.903899 
L 17.158763 171.794368 
L 18.197892 175.265721 
L 19.569057 178.821687 
L 20.98649 181.83269 
L 22.516851 184.614596 
L 24.70624 188.034579 
L 26.711206 190.762388 
L 29.388176 193.975681 
L 31.724729 196.477752 
L 34.141285 198.834397 
L 36.917134 201.307201 
L 40.328516 204.068026 
L 44.307302 206.975109 
L 49.904277 210.612272 
L 54.089602 213.052931 
L 59.400683 215.869141 
L 63.770906 217.986102 
L 70.789094 221.067078 
L 77.969469 223.875694 
L 80.707095 224.867009 
L 80.707095 224.867009 
" clip-path="url(#p0a1670dc59)" style="fill: none; stroke: #000000; stroke-width: 2; stroke-linecap: square"/>
   </g>
   <g id="patch_3">
    <path d="M 181.15619 26.538546 
Q 180.129211 26.839702 181.247945 26.511639 
" clip-path="url(#p0a1670dc59)" style="fill: none; stroke: #000000; stroke-width: 2; stroke-linecap: round"/>
    <path d="M 192.25084 28.495652 
L 181.247945 26.511639 
L 189.436893 18.899731 
L 192.25084 28.495652 
z
" clip-path="url(#p0a1670dc59)" style="stroke: #000000; stroke-width: 2; stroke-linecap: round"/>
   </g>
   <g id="text_1">
    <!-- $Q$ -->
    <g transform="translate(31.639673 151.392052) scale(0.2 -0.2)">
     <defs>
      <path id="Cmmi10-51" d="M 1947 -141 
Q 1466 -141 1094 79 
Q 722 300 520 692 
Q 319 1084 319 1563 
Q 319 2259 714 2950 
Q 1109 3641 1756 4077 
Q 2403 4513 3109 4513 
Q 3475 4513 3778 4381 
Q 4081 4250 4290 4017 
Q 4500 3784 4614 3471 
Q 4728 3159 4728 2791 
Q 4728 2366 4581 1936 
Q 4434 1506 4171 1136 
Q 3909 766 3559 484 
Q 3209 203 2809 38 
Q 2850 -256 2934 -425 
Q 3019 -594 3256 -594 
Q 3506 -594 3726 -412 
Q 3947 -231 4006 13 
Q 4019 72 4078 72 
Q 4147 72 4147 -13 
Q 4100 -219 4008 -430 
Q 3916 -641 3786 -823 
Q 3656 -1006 3478 -1123 
Q 3300 -1241 3084 -1241 
Q 2547 -1241 2547 -550 
Q 2547 -509 2562 -332 
Q 2578 -156 2578 -44 
Q 2269 -141 1947 -141 
z
M 1709 300 
Q 1709 44 1991 44 
Q 2275 44 2591 184 
L 2591 244 
Q 2591 503 2509 648 
Q 2428 794 2194 794 
Q 2078 794 1964 723 
Q 1850 653 1779 539 
Q 1709 425 1709 300 
z
M 1544 288 
Q 1544 456 1637 612 
Q 1731 769 1881 864 
Q 2031 959 2203 959 
Q 2481 959 2607 771 
Q 2734 584 2778 281 
Q 3188 525 3500 978 
Q 3813 1431 3977 1973 
Q 4141 2516 4141 3003 
Q 4141 3356 4023 3656 
Q 3906 3956 3664 4140 
Q 3422 4325 3066 4325 
Q 2722 4325 2403 4156 
Q 2084 3988 1813 3706 
Q 1550 3434 1342 3032 
Q 1134 2631 1021 2193 
Q 909 1756 909 1356 
Q 909 947 1068 612 
Q 1228 278 1569 128 
Q 1544 194 1544 288 
z
" transform="scale(0.015625)"/>
     </defs>
     <use xlink:href="#Cmmi10-51" transform="translate(0 0.484375)"/>
    </g>
   </g>
  </g>
 </g>
 <defs>
  <clipPath id="p0a1670dc59">
   <rect x="7.2" y="7.2" width="439.2" height="221.934989"/>
  </clipPath>
 </defs>
</svg>
