<?xml version="1.0" encoding="utf-8" standalone="no"?>
<!DOCTYPE svg PUBLIC "-//W3C//DTD SVG 1.1//EN"
  "http://www.w3.org/Graphics/SVG/1.1/DTD/svg11.dtd">
<svg xmlns:xlink="http://www.w3.org/1999/xlink" width="453.6pt" height="236.335488pt" viewBox="0 0 453.6 236.335488" xmlns="http://www.w3.org/2000/svg" version="1.1">
 <metadata>
  <rdf:RDF xmlns:dc="http://purl.org/dc/elements/1.1/" xmlns:cc="http://creativecommons.org/ns#" xmlns:rdf="http://www.w3.org/1999/02/22-rdf-syntax-ns#">
   <cc:Work>
    <dc:type rdf:resource="http://purl.org/dc/dcmitype/StillImage"/>
    <dc:date>2024-08-19T12:05:27.477932</dc:date>
    <dc:format>image/svg+xml</dc:format>
    <dc:creator>
     <cc:Agent>
      <dc:title>Matplotlib v3.8.0, https://matplotlib.org/</dc:title>
     </cc:Agent>
    </dc:creator>
   </cc:Work>
  </rdf:RDF>
 </metadata>
 <defs>
  <style type="text/css">*{stroke-linejoin: round; stroke-linecap: butt}</style>
 </defs>
 <g id="figure_1">
  <g id="patch_1">
   <path d="M 0 236.335488 
L 453.6 236.335488 
L 453.6 0 
L 0 0 
z
" style="fill: #ffffff"/>
  </g>
  <g id="axes_1">
   <g id="patch_2">
    <path d="M 7.2 229.135488 
L 446.4 229.135488 
L 446.4 7.2 
L 7.2 7.2 
z
" style="fill: #ffffff"/>
   </g>
   <g id="PathCollection_1">
    <path d="M 411.547839 51.286289 
C 412.274128 51.286289 412.970767 50.997732 413.484331 50.484168 
C 413.997894 49.970605 414.286452 49.273965 414.286452 48.547676 
C 414.286452 47.821388 413.997894 47.124748 413.484331 46.611185 
C 412.970767 46.097621 412.274128 45.809064 411.547839 45.809064 
C 410.82155 45.809064 410.124911 46.097621 409.611347 46.611185 
C 409.097784 47.124748 408.809226 47.821388 408.809226 48.547676 
C 408.809226 49.273965 409.097784 49.970605 409.611347 50.484168 
C 410.124911 50.997732 410.82155 51.286289 411.547839 51.286289 
z
" clip-path="url(#p624717441b)"/>
   </g>
   <g id="matplotlib.axis_1"/>
   <g id="matplotlib.axis_2"/>
   <g id="line2d_1">
    <path d="M 437.953846 75.116303 
L 434.922323 71.154662 
L 431.297664 66.825661 
L 428.37741 63.610918 
L 424.407223 59.572604 
L 421.130142 56.490266 
L 417.207711 53.061105 
L 410.98503 48.124214 
L 405.742292 44.377999 
L 400.445564 40.925586 
L 394.79561 37.568649 
L 389.237563 34.55947 
L 383.72354 31.833264 
L 378.325724 29.392442 
L 370.061951 26.052092 
L 364.303999 23.983767 
L 355.962803 21.331195 
L 351.320726 20.018929 
L 345.849779 18.613361 
L 339.158753 17.09073 
L 331.802155 15.651816 
L 324.763792 14.4926 
L 317.462413 13.502697 
L 312.615847 12.959905 
L 306.790252 12.423527 
L 298.710255 11.881596 
L 293.06919 11.637448 
L 285.49757 11.477033 
L 277.983702 11.501427 
L 266.754528 11.866673 
L 259.392758 12.313312 
L 248.408964 13.275652 
L 242.280465 13.96345 
L 230.545482 15.576135 
L 220.633762 17.236749 
L 213.497046 18.600113 
L 203.435471 20.759822 
L 194.892934 22.811938 
L 183.26504 25.930044 
L 172.575828 29.131725 
L 161.583875 32.767357 
L 152.628353 35.994906 
L 144.901187 38.978358 
L 133.676752 43.655046 
L 127.592453 46.368307 
L 117.123952 51.349375 
L 111.350871 54.27604 
L 101.8831 59.375624 
L 92.628926 64.754552 
L 84.08674 70.109086 
L 76.322257 75.345983 
L 68.908288 80.726206 
L 63.246618 85.124573 
L 58.907202 88.691728 
L 54.344683 92.652837 
L 49.045037 97.570336 
L 44.646351 101.960761 
L 39.900176 107.086943 
L 35.880151 111.827083 
L 32.909285 115.630102 
L 30.528145 118.910789 
L 27.574309 123.350646 
L 25.043704 127.590643 
L 22.871555 131.686133 
L 20.96527 135.794669 
L 19.185503 140.327037 
L 18.135206 143.535031 
L 17.0733 147.542411 
L 16.223032 152.034021 
L 15.865153 154.997626 
L 15.649183 158.895648 
L 15.71971 162.557977 
L 15.936104 165.1518 
L 16.62659 169.521461 
L 17.224376 172.062895 
L 18.166381 175.186533 
L 19.549337 178.786491 
L 20.733888 181.34113 
L 22.181001 184.044807 
L 24.438915 187.65157 
L 26.056841 189.913099 
L 28.024207 192.396804 
L 31.240749 195.983957 
L 34.307681 198.993504 
L 38.19511 202.377998 
L 42.036949 205.357033 
L 46.881193 208.709635 
L 52.114161 211.930355 
L 56.695177 214.473204 
L 60.742232 216.539285 
L 65.937426 218.978743 
L 70.729664 221.044579 
L 78.580096 224.102306 
L 80.703188 224.867497 
L 80.703188 224.867497 
" clip-path="url(#p624717441b)" style="fill: none; stroke: #000000; stroke-width: 2; stroke-linecap: square"/>
   </g>
   <g id="patch_3">
    <path d="M 181.153381 26.536866 
Q 180.126391 26.838025 181.245114 26.509966 
" clip-path="url(#p624717441b)" style="fill: none; stroke: #000000; stroke-width: 2; stroke-linecap: round"/>
    <path d="M 192.248009 28.493979 
L 181.245114 26.509966 
L 189.434062 18.898058 
z
" clip-path="url(#p624717441b)" style="stroke: #000000; stroke-width: 2; stroke-linecap: round"/>
   </g>
   <g id="text_1">
    <!-- $P$ -->
    <g transform="translate(414.513191 35.135722) scale(0.2 -0.2)">
     <defs>
      <path id="Cmmi10-50" d="M 313 0 
Q 250 0 250 84 
Q 253 100 262 139 
Q 272 178 289 201 
Q 306 225 331 225 
Q 722 225 878 269 
Q 959 297 997 441 
L 1875 3956 
Q 1888 4019 1888 4044 
Q 1888 4113 1813 4122 
Q 1691 4147 1350 4147 
Q 1288 4147 1288 4231 
Q 1291 4247 1300 4286 
Q 1309 4325 1326 4348 
Q 1344 4372 1369 4372 
L 3578 4372 
Q 3881 4372 4165 4264 
Q 4450 4156 4631 3934 
Q 4813 3713 4813 3397 
Q 4813 2991 4527 2672 
Q 4241 2353 3814 2175 
Q 3388 1997 2988 1997 
L 1947 1997 
L 1556 416 
Q 1544 353 1544 325 
Q 1544 300 1551 283 
Q 1559 266 1573 261 
Q 1588 256 1619 250 
Q 1741 225 2081 225 
Q 2144 225 2144 141 
Q 2122 50 2109 25 
Q 2097 0 2034 0 
L 313 0 
z
M 1978 2188 
L 2875 2188 
Q 3497 2188 3822 2522 
Q 3988 2688 4092 3000 
Q 4197 3313 4197 3566 
Q 4197 3881 3956 4014 
Q 3716 4147 3359 4147 
L 2747 4147 
Q 2572 4147 2515 4117 
Q 2459 4088 2413 3928 
L 1978 2188 
z
" transform="scale(0.015625)"/>
     </defs>
     <use xlink:href="#Cmmi10-50" transform="translate(0 0.6875)"/>
    </g>
   </g>
  </g>
 </g>
 <defs>
  <clipPath id="p624717441b">
   <rect x="7.2" y="7.2" width="439.2" height="221.935488"/>
  </clipPath>
 </defs>
</svg>
