<?xml version="1.0" encoding="utf-8" standalone="no"?>
<!DOCTYPE svg PUBLIC "-//W3C//DTD SVG 1.1//EN"
  "http://www.w3.org/Graphics/SVG/1.1/DTD/svg11.dtd">
<svg xmlns:xlink="http://www.w3.org/1999/xlink" width="453.6pt" height="236.332021pt" viewBox="0 0 453.6 236.332021" xmlns="http://www.w3.org/2000/svg" version="1.1">
 <metadata>
  <rdf:RDF xmlns:dc="http://purl.org/dc/elements/1.1/" xmlns:cc="http://creativecommons.org/ns#" xmlns:rdf="http://www.w3.org/1999/02/22-rdf-syntax-ns#">
   <cc:Work>
    <dc:type rdf:resource="http://purl.org/dc/dcmitype/StillImage"/>
    <dc:date>2025-02-05T11:14:20.749768</dc:date>
    <dc:format>image/svg+xml</dc:format>
    <dc:creator>
     <cc:Agent>
      <dc:title>Matplotlib v3.6.2, https://matplotlib.org/</dc:title>
     </cc:Agent>
    </dc:creator>
   </cc:Work>
  </rdf:RDF>
 </metadata>
 <defs>
  <style type="text/css">*{stroke-linejoin: round; stroke-linecap: butt}</style>
 </defs>
 <g id="figure_1">
  <g id="patch_1">
   <path d="M 0 236.332021 
L 453.6 236.332021 
L 453.6 0 
L 0 0 
z
" style="fill: #ffffff"/>
  </g>
  <g id="axes_1">
   <g id="patch_2">
    <path d="M 7.2 229.132021 
L 446.4 229.132021 
L 446.4 7.2 
L 7.2 7.2 
z
" style="fill: #ffffff"/>
   </g>
   <g id="PathCollection_1">
    <path d="M 20.708143 139.143536 
C 21.434431 139.143536 22.131071 138.854978 22.644634 138.341414 
C 23.158198 137.827851 23.446755 137.131211 23.446755 136.404923 
C 23.446755 135.678634 23.158198 134.981995 22.644634 134.468431 
C 22.131071 133.954867 21.434431 133.66631 20.708143 133.66631 
C 19.981854 133.66631 19.285214 133.954867 18.771651 134.468431 
C 18.258087 134.981995 17.96953 135.678634 17.96953 136.404923 
C 17.96953 137.131211 18.258087 137.827851 18.771651 138.341414 
C 19.285214 138.854978 19.981854 139.143536 20.708143 139.143536 
z
" clip-path="url(#p14f32bf1cf)"/>
   </g>
   <g id="matplotlib.axis_1"/>
   <g id="matplotlib.axis_2"/>
   <g id="line2d_1">
    <path d="M 437.953846 75.114169 
L 435.025926 71.282433 
L 431.598866 67.168211 
L 427.998448 63.207592 
L 423.185196 58.396288 
L 419.840175 55.330761 
L 414.371119 50.73715 
L 408.829199 46.539311 
L 405.499062 44.210405 
L 400.313487 40.841382 
L 394.383386 37.333854 
L 389.048012 34.459611 
L 381.659221 30.872263 
L 376.887112 28.775635 
L 372.13661 26.846113 
L 363.472902 23.699798 
L 357.062069 21.656774 
L 347.915345 19.124734 
L 342.354545 17.789932 
L 334.850185 16.217239 
L 325.976733 14.675953 
L 319.39135 13.742048 
L 309.833195 12.686436 
L 303.423816 12.16803 
L 292.983598 11.632936 
L 284.435864 11.467923 
L 278.78244 11.488746 
L 268.096272 11.80122 
L 257.735393 12.434522 
L 250.153594 13.098018 
L 241.972156 13.999455 
L 235.266225 14.879644 
L 223.062092 16.803483 
L 211.812731 18.941019 
L 204.570667 20.501015 
L 193.902578 23.061704 
L 182.170155 26.242013 
L 172.473477 29.162921 
L 163.590238 32.076316 
L 157.087578 34.356525 
L 147.85607 37.814443 
L 137.978726 41.812523 
L 128.569206 45.923283 
L 120.369305 49.760791 
L 114.396018 52.715192 
L 105.261086 57.511162 
L 97.450075 61.900512 
L 90.374944 66.128855 
L 82.695228 71.020133 
L 78.33369 73.952635 
L 70.870597 79.262862 
L 63.453101 84.959599 
L 58.073711 89.398872 
L 52.981799 93.883364 
L 47.737295 98.844574 
L 42.678267 104.033422 
L 38.010793 109.264701 
L 33.846008 114.401289 
L 30.062644 119.583177 
L 27.562355 123.372582 
L 25.190658 127.334243 
L 23.077676 131.278861 
L 21.335765 134.952754 
L 19.60322 139.187418 
L 18.042313 143.856936 
L 17.266465 146.739055 
L 16.580874 149.91927 
L 16.13907 152.644644 
L 15.773745 156.155487 
L 15.649934 160.464978 
L 15.82602 163.994987 
L 16.339135 167.979134 
L 17.143187 171.734909 
L 17.962012 174.556448 
L 19.32778 178.251474 
L 21.060518 181.975902 
L 23.2119 185.759609 
L 24.504469 187.739542 
L 26.567523 190.575532 
L 28.965719 193.493858 
L 31.347509 196.08803 
L 34.246646 198.930477 
L 37.660586 201.930807 
L 40.144535 203.923769 
L 44.662087 207.217937 
L 49.023865 210.068172 
L 53.640572 212.798695 
L 60.147932 216.240623 
L 67.149448 219.512207 
L 73.463683 222.148018 
L 80.706211 224.864097 
L 80.706211 224.864097 
" clip-path="url(#p14f32bf1cf)" style="fill: none; stroke: #000000; stroke-width: 2; stroke-linecap: square"/>
   </g>
   <g id="patch_3">
    <path d="M 181.155554 26.535144 
Q 180.128573 26.8363 181.247304 26.508238 
" clip-path="url(#p14f32bf1cf)" style="fill: none; stroke: #000000; stroke-width: 2; stroke-linecap: round"/>
    <path d="M 192.250199 28.492251 
L 181.247304 26.508238 
L 189.436252 18.89633 
L 192.250199 28.492251 
z
" clip-path="url(#p14f32bf1cf)" style="stroke: #000000; stroke-width: 2; stroke-linecap: round"/>
   </g>
   <g id="patch_4">
    <path d="M 20.708143 136.404923 
Q 52.25905 117.474378 81.892545 99.694282 
" clip-path="url(#p14f32bf1cf)" style="fill: none; stroke: #ff0000; stroke-width: 2; stroke-linecap: round"/>
    <path d="M 70.745137 100.551774 
L 81.892545 99.694282 
L 75.890094 109.126704 
L 70.745137 100.551774 
z
" clip-path="url(#p14f32bf1cf)" style="fill: #ff0000; stroke: #ff0000; stroke-width: 2; stroke-linecap: round"/>
   </g>
   <g id="text_1">
    <!-- $Q$ -->
    <g transform="translate(31.638687 151.388945) scale(0.2 -0.2)">
     <defs>
      <path id="Cmmi10-51" d="M 1947 -141 
Q 1466 -141 1094 79 
Q 722 300 520 692 
Q 319 1084 319 1563 
Q 319 2259 714 2950 
Q 1109 3641 1756 4077 
Q 2403 4513 3109 4513 
Q 3475 4513 3778 4381 
Q 4081 4250 4290 4017 
Q 4500 3784 4614 3471 
Q 4728 3159 4728 2791 
Q 4728 2366 4581 1936 
Q 4434 1506 4171 1136 
Q 3909 766 3559 484 
Q 3209 203 2809 38 
Q 2850 -256 2934 -425 
Q 3019 -594 3256 -594 
Q 3506 -594 3726 -412 
Q 3947 -231 4006 13 
Q 4019 72 4078 72 
Q 4147 72 4147 -13 
Q 4100 -219 4008 -430 
Q 3916 -641 3786 -823 
Q 3656 -1006 3478 -1123 
Q 3300 -1241 3084 -1241 
Q 2547 -1241 2547 -550 
Q 2547 -509 2562 -332 
Q 2578 -156 2578 -44 
Q 2269 -141 1947 -141 
z
M 1709 300 
Q 1709 44 1991 44 
Q 2275 44 2591 184 
L 2591 244 
Q 2591 503 2509 648 
Q 2428 794 2194 794 
Q 2078 794 1964 723 
Q 1850 653 1779 539 
Q 1709 425 1709 300 
z
M 1544 288 
Q 1544 456 1637 612 
Q 1731 769 1881 864 
Q 2031 959 2203 959 
Q 2481 959 2607 771 
Q 2734 584 2778 281 
Q 3188 525 3500 978 
Q 3813 1431 3977 1973 
Q 4141 2516 4141 3003 
Q 4141 3356 4023 3656 
Q 3906 3956 3664 4140 
Q 3422 4325 3066 4325 
Q 2722 4325 2403 4156 
Q 2084 3988 1813 3706 
Q 1550 3434 1342 3032 
Q 1134 2631 1021 2193 
Q 909 1756 909 1356 
Q 909 947 1068 612 
Q 1228 278 1569 128 
Q 1544 194 1544 288 
z
" transform="scale(0.015625)"/>
     </defs>
     <use xlink:href="#Cmmi10-51" transform="translate(0 0.484375)"/>
    </g>
   </g>
  </g>
 </g>
 <defs>
  <clipPath id="p14f32bf1cf">
   <rect x="7.2" y="7.2" width="439.2" height="221.932021"/>
  </clipPath>
 </defs>
</svg>
