<?xml version="1.0" encoding="utf-8" standalone="no"?>
<!DOCTYPE svg PUBLIC "-//W3C//DTD SVG 1.1//EN"
  "http://www.w3.org/Graphics/SVG/1.1/DTD/svg11.dtd">
<svg xmlns:xlink="http://www.w3.org/1999/xlink" width="453.6pt" height="331.548705pt" viewBox="0 0 453.6 331.548705" xmlns="http://www.w3.org/2000/svg" version="1.1">
 <metadata>
  <rdf:RDF xmlns:dc="http://purl.org/dc/elements/1.1/" xmlns:cc="http://creativecommons.org/ns#" xmlns:rdf="http://www.w3.org/1999/02/22-rdf-syntax-ns#">
   <cc:Work>
    <dc:type rdf:resource="http://purl.org/dc/dcmitype/StillImage"/>
    <dc:date>2024-12-04T07:53:48.207998</dc:date>
    <dc:format>image/svg+xml</dc:format>
    <dc:creator>
     <cc:Agent>
      <dc:title>Matplotlib v3.6.2, https://matplotlib.org/</dc:title>
     </cc:Agent>
    </dc:creator>
   </cc:Work>
  </rdf:RDF>
 </metadata>
 <defs>
  <style type="text/css">*{stroke-linejoin: round; stroke-linecap: butt}</style>
 </defs>
 <g id="figure_1">
  <g id="patch_1">
   <path d="M 0 331.548705 
L 453.6 331.548705 
L 453.6 0 
L 0 0 
z
" style="fill: #ffffff"/>
  </g>
  <g id="axes_1">
   <g id="patch_2">
    <path d="M 7.2 324.348705 
L 446.4 324.348705 
L 446.4 7.2 
L 7.2 7.2 
z
" style="fill: #ffffff"/>
   </g>
   <g id="PathCollection_1">
    <path d="M 382.766836 159.451989 
C 383.493124 159.451989 384.189764 159.163432 384.703328 158.649868 
C 385.216891 158.136305 385.505449 157.439665 385.505449 156.713376 
C 385.505449 155.987088 385.216891 155.290448 384.703328 154.776885 
C 384.189764 154.263321 383.493124 153.974764 382.766836 153.974764 
C 382.040547 153.974764 381.343908 154.263321 380.830344 154.776885 
C 380.316781 155.290448 380.028223 155.987088 380.028223 156.713376 
C 380.028223 157.439665 380.316781 158.136305 380.830344 158.649868 
C 381.343908 159.163432 382.040547 159.451989 382.766836 159.451989 
z
" clip-path="url(#p9dfd2bd18d)"/>
   </g>
   <g id="matplotlib.axis_1"/>
   <g id="matplotlib.axis_2"/>
   <g id="line2d_1">
    <path d="M 356.223914 202.577597 
L 357.111131 199.240248 
L 358.303295 195.857947 
L 359.810782 192.398866 
L 361.305981 189.45389 
L 363.794015 185.158219 
L 366.803264 180.532557 
L 370.261545 175.604351 
L 377.992401 164.723714 
L 380.574413 160.676304 
L 382.49441 157.248813 
L 383.560005 155.047796 
L 384.678663 152.273332 
L 385.452954 149.719619 
L 385.924967 147.333297 
L 386.127258 144.904398 
L 386.081409 143.128527 
L 385.77834 140.922667 
L 385.236193 138.874654 
L 384.400732 136.770905 
L 383.297443 134.717839 
L 382.173448 133.039081 
L 380.729726 131.230617 
L 378.837285 129.226986 
L 376.768899 127.344769 
L 373.901877 125.085799 
L 370.626491 122.842546 
L 366.864197 120.571963 
L 362.900361 118.433596 
L 358.547223 116.307315 
L 353.360575 114.003196 
L 346.786399 111.353068 
L 339.215591 108.5824 
L 331.132267 105.874775 
L 322.205269 103.114371 
L 312.539618 100.336293 
L 301.618329 97.402499 
L 287.13084 93.767946 
L 270.986541 89.976118 
L 254.211505 86.24595 
L 233.919863 81.932131 
L 199.38366 74.865745 
L 155.151319 65.822807 
L 133.976947 61.256504 
L 117.9495 57.559388 
L 106.620521 54.739137 
L 97.07818 52.158242 
L 88.635487 49.636874 
L 82.544073 47.606038 
L 82.544073 47.606038 
" clip-path="url(#p9dfd2bd18d)" style="fill: none; stroke: #000000; stroke-width: 2; stroke-linecap: square"/>
   </g>
   <g id="patch_3">
    <path d="M 382.766836 156.713376 
Q 410.360341 101.654018 436.951993 48.593732 
" clip-path="url(#p9dfd2bd18d)" style="fill: none; stroke: #ff0000; stroke-width: 2; stroke-linecap: round"/>
    <path d="M 428.001506 55.293642 
L 436.951993 48.593732 
L 436.941629 59.774067 
L 428.001506 55.293642 
z
" clip-path="url(#p9dfd2bd18d)" style="fill: #ff0000; stroke: #ff0000; stroke-width: 2; stroke-linecap: round"/>
   </g>
   <g id="patch_4">
    <path d="M 382.766836 156.713376 
Q 327.707477 129.119871 274.647191 102.52822 
" clip-path="url(#p9dfd2bd18d)" style="fill: none; stroke: #800080; stroke-width: 2; stroke-linecap: round"/>
    <path d="M 281.347101 111.478706 
L 274.647191 102.52822 
L 285.827526 102.538583 
L 281.347101 111.478706 
z
" clip-path="url(#p9dfd2bd18d)" style="fill: #800080; stroke: #800080; stroke-width: 2; stroke-linecap: round"/>
   </g>
   <g id="patch_5">
    <path d="M 382.766836 156.713376 
Q 342.289129 237.481534 302.813276 316.250619 
" clip-path="url(#p9dfd2bd18d)" style="fill: none; stroke: #008000; stroke-width: 2; stroke-linecap: round"/>
    <path d="M 311.763762 309.550709 
L 302.813276 316.250619 
L 302.823639 305.070284 
L 311.763762 309.550709 
z
" clip-path="url(#p9dfd2bd18d)" style="fill: #008000; stroke: #008000; stroke-width: 2; stroke-linecap: round"/>
   </g>
   <g id="patch_6">
    <path d="M 382.766836 156.713376 
Q 239.684202 85.006195 98.60064 14.300867 
" clip-path="url(#p9dfd2bd18d)" style="fill: none; stroke: #0000ff; stroke-width: 2; stroke-linecap: round"/>
    <path d="M 105.30055 23.251353 
L 98.60064 14.300867 
L 109.780975 14.311231 
L 105.30055 23.251353 
z
" clip-path="url(#p9dfd2bd18d)" style="fill: #0000ff; stroke: #0000ff; stroke-width: 2; stroke-linecap: round"/>
   </g>
   <g id="patch_7">
    <path d="M 382.766836 156.713376 
Q 199.206495 165.774352 17.879503 174.725085 
" clip-path="url(#p9dfd2bd18d)" style="fill: none; stroke: #ffa500; stroke-width: 2; stroke-linecap: round"/>
    <path d="M 28.113853 179.225981 
L 17.879503 174.725085 
L 27.62083 169.238142 
L 28.113853 179.225981 
z
" clip-path="url(#p9dfd2bd18d)" style="fill: #ffa500; stroke: #ffa500; stroke-width: 2; stroke-linecap: round"/>
   </g>
  </g>
 </g>
 <defs>
  <clipPath id="p9dfd2bd18d">
   <rect x="7.2" y="7.2" width="439.2" height="317.148705"/>
  </clipPath>
 </defs>
</svg>
