<?xml version="1.0" encoding="utf-8" standalone="no"?>
<!DOCTYPE svg PUBLIC "-//W3C//DTD SVG 1.1//EN"
  "http://www.w3.org/Graphics/SVG/1.1/DTD/svg11.dtd">
<svg xmlns:xlink="http://www.w3.org/1999/xlink" width="453.6pt" height="236.332079pt" viewBox="0 0 453.6 236.332079" xmlns="http://www.w3.org/2000/svg" version="1.1">
 <metadata>
  <rdf:RDF xmlns:dc="http://purl.org/dc/elements/1.1/" xmlns:cc="http://creativecommons.org/ns#" xmlns:rdf="http://www.w3.org/1999/02/22-rdf-syntax-ns#">
   <cc:Work>
    <dc:type rdf:resource="http://purl.org/dc/dcmitype/StillImage"/>
    <dc:date>2025-02-05T11:04:28.950664</dc:date>
    <dc:format>image/svg+xml</dc:format>
    <dc:creator>
     <cc:Agent>
      <dc:title>Matplotlib v3.6.2, https://matplotlib.org/</dc:title>
     </cc:Agent>
    </dc:creator>
   </cc:Work>
  </rdf:RDF>
 </metadata>
 <defs>
  <style type="text/css">*{stroke-linejoin: round; stroke-linecap: butt}</style>
 </defs>
 <g id="figure_1">
  <g id="patch_1">
   <path d="M 0 236.332079 
L 453.6 236.332079 
L 453.6 0 
L 0 0 
z
" style="fill: #ffffff"/>
  </g>
  <g id="axes_1">
   <g id="patch_2">
    <path d="M 7.2 229.132079 
L 446.4 229.132079 
L 446.4 7.2 
L 7.2 7.2 
z
" style="fill: #ffffff"/>
   </g>
   <g id="PathCollection_1">
    <path d="M 20.706159 139.143172 
C 21.432448 139.143172 22.129087 138.854614 22.642651 138.341051 
C 23.156214 137.827487 23.444772 137.130847 23.444772 136.404559 
C 23.444772 135.67827 23.156214 134.981631 22.642651 134.468067 
C 22.129087 133.954504 21.432448 133.665946 20.706159 133.665946 
C 19.979871 133.665946 19.283231 133.954504 18.769667 134.468067 
C 18.256104 134.981631 17.967546 135.67827 17.967546 136.404559 
C 17.967546 137.130847 18.256104 137.827487 18.769667 138.341051 
C 19.283231 138.854614 19.979871 139.143172 20.706159 139.143172 
z
" clip-path="url(#pe4926ee68d)"/>
   </g>
   <g id="matplotlib.axis_1"/>
   <g id="matplotlib.axis_2"/>
   <g id="line2d_1">
    <path d="M 437.953846 75.113514 
L 434.794045 70.991537 
L 430.796517 66.255029 
L 426.94507 62.10979 
L 422.429465 57.684456 
L 418.455515 54.12051 
L 413.768101 50.258706 
L 410.6008 47.834827 
L 403.851871 43.106871 
L 396.836047 38.741844 
L 389.612678 34.75129 
L 385.977866 32.915483 
L 378.142988 29.310819 
L 369.560366 25.861078 
L 364.153751 23.929783 
L 355.894746 21.308457 
L 350.306209 19.744311 
L 342.235522 17.762148 
L 333.37219 15.936317 
L 326.667695 14.78324 
L 319.076319 13.70081 
L 309.160847 12.624166 
L 302.896686 12.13103 
L 295.086433 11.709765 
L 285.308145 11.472869 
L 278.153981 11.496348 
L 268.490523 11.782479 
L 259.192258 12.325217 
L 250.789198 13.034967 
L 240.34633 14.200169 
L 232.978395 15.207688 
L 223.48444 16.728905 
L 212.338673 18.832193 
L 202.988312 20.859869 
L 192.467804 23.428863 
L 184.078713 25.697229 
L 174.844495 28.422687 
L 165.517561 31.423333 
L 154.713984 35.219233 
L 146.584262 38.310267 
L 137.581165 41.978705 
L 126.140557 47.032918 
L 120.353944 49.766708 
L 114.320516 52.751888 
L 104.008409 58.194888 
L 99.170179 60.908084 
L 89.407522 66.725311 
L 80.74323 72.31614 
L 75.985042 75.580362 
L 68.457278 81.065043 
L 61.26525 86.729058 
L 54.704396 92.330393 
L 51.6327 95.121509 
L 46.926818 99.644495 
L 42.359556 104.373268 
L 38.275079 108.952326 
L 34.609734 113.4171 
L 31.439509 117.626652 
L 28.775147 121.488353 
L 25.801468 126.269422 
L 22.934253 131.560426 
L 20.976897 135.768239 
L 19.979427 138.19742 
L 18.571765 142.137337 
L 17.294979 146.614202 
L 16.5077 150.306856 
L 15.888088 154.769653 
L 15.654216 158.711949 
L 15.702806 162.205377 
L 16.102311 166.467967 
L 16.76465 170.157723 
L 17.67906 173.658928 
L 18.489775 176.101568 
L 19.607868 178.915302 
L 21.219449 182.28545 
L 22.861499 185.192766 
L 24.671702 187.985814 
L 26.976412 191.101095 
L 29.127073 193.680391 
L 31.250586 195.989381 
L 34.139945 198.832827 
L 37.696444 201.962157 
L 40.815451 204.439705 
L 45.113984 207.528304 
L 49.001836 210.055617 
L 54.305438 213.171772 
L 60.599514 216.465032 
L 66.871079 219.390375 
L 72.95169 221.944915 
L 80.704512 224.864154 
L 80.704512 224.864154 
" clip-path="url(#pe4926ee68d)" style="fill: none; stroke: #000000; stroke-width: 2; stroke-linecap: square"/>
   </g>
   <g id="patch_3">
    <path d="M 181.154333 26.534257 
Q 180.127347 26.835415 181.246074 26.507355 
" clip-path="url(#pe4926ee68d)" style="fill: none; stroke: #000000; stroke-width: 2; stroke-linecap: round"/>
    <path d="M 192.248969 28.491368 
L 181.246074 26.507355 
L 189.435021 18.895447 
L 192.248969 28.491368 
z
" clip-path="url(#pe4926ee68d)" style="stroke: #000000; stroke-width: 2; stroke-linecap: round"/>
   </g>
   <g id="patch_4">
    <path d="M 20.706159 136.404559 
Q 52.257216 117.473925 81.890861 99.693738 
" clip-path="url(#pe4926ee68d)" style="fill: none; stroke: #ff0000; stroke-width: 2; stroke-linecap: round"/>
    <path d="M 70.743453 100.551231 
L 81.890861 99.693738 
L 75.888411 109.12616 
L 70.743453 100.551231 
z
" clip-path="url(#pe4926ee68d)" style="fill: #ff0000; stroke: #ff0000; stroke-width: 2; stroke-linecap: round"/>
   </g>
   <g id="text_1">
    <!-- $Q$ -->
    <g transform="translate(31.636793 151.388626) scale(0.2 -0.2)">
     <defs>
      <path id="Cmmi10-51" d="M 1947 -141 
Q 1466 -141 1094 79 
Q 722 300 520 692 
Q 319 1084 319 1563 
Q 319 2259 714 2950 
Q 1109 3641 1756 4077 
Q 2403 4513 3109 4513 
Q 3475 4513 3778 4381 
Q 4081 4250 4290 4017 
Q 4500 3784 4614 3471 
Q 4728 3159 4728 2791 
Q 4728 2366 4581 1936 
Q 4434 1506 4171 1136 
Q 3909 766 3559 484 
Q 3209 203 2809 38 
Q 2850 -256 2934 -425 
Q 3019 -594 3256 -594 
Q 3506 -594 3726 -412 
Q 3947 -231 4006 13 
Q 4019 72 4078 72 
Q 4147 72 4147 -13 
Q 4100 -219 4008 -430 
Q 3916 -641 3786 -823 
Q 3656 -1006 3478 -1123 
Q 3300 -1241 3084 -1241 
Q 2547 -1241 2547 -550 
Q 2547 -509 2562 -332 
Q 2578 -156 2578 -44 
Q 2269 -141 1947 -141 
z
M 1709 300 
Q 1709 44 1991 44 
Q 2275 44 2591 184 
L 2591 244 
Q 2591 503 2509 648 
Q 2428 794 2194 794 
Q 2078 794 1964 723 
Q 1850 653 1779 539 
Q 1709 425 1709 300 
z
M 1544 288 
Q 1544 456 1637 612 
Q 1731 769 1881 864 
Q 2031 959 2203 959 
Q 2481 959 2607 771 
Q 2734 584 2778 281 
Q 3188 525 3500 978 
Q 3813 1431 3977 1973 
Q 4141 2516 4141 3003 
Q 4141 3356 4023 3656 
Q 3906 3956 3664 4140 
Q 3422 4325 3066 4325 
Q 2722 4325 2403 4156 
Q 2084 3988 1813 3706 
Q 1550 3434 1342 3032 
Q 1134 2631 1021 2193 
Q 909 1756 909 1356 
Q 909 947 1068 612 
Q 1228 278 1569 128 
Q 1544 194 1544 288 
z
" transform="scale(0.015625)"/>
     </defs>
     <use xlink:href="#Cmmi10-51" transform="translate(0 0.484375)"/>
    </g>
   </g>
  </g>
 </g>
 <defs>
  <clipPath id="pe4926ee68d">
   <rect x="7.2" y="7.2" width="439.2" height="221.932079"/>
  </clipPath>
 </defs>
</svg>
