<?xml version="1.0" encoding="utf-8" standalone="no"?>
<!DOCTYPE svg PUBLIC "-//W3C//DTD SVG 1.1//EN"
  "http://www.w3.org/Graphics/SVG/1.1/DTD/svg11.dtd">
<svg xmlns:xlink="http://www.w3.org/1999/xlink" width="453.6pt" height="329.765725pt" viewBox="0 0 453.6 329.765725" xmlns="http://www.w3.org/2000/svg" version="1.1">
 <metadata>
  <rdf:RDF xmlns:dc="http://purl.org/dc/elements/1.1/" xmlns:cc="http://creativecommons.org/ns#" xmlns:rdf="http://www.w3.org/1999/02/22-rdf-syntax-ns#">
   <cc:Work>
    <dc:type rdf:resource="http://purl.org/dc/dcmitype/StillImage"/>
    <dc:date>2024-08-29T09:19:26.944293</dc:date>
    <dc:format>image/svg+xml</dc:format>
    <dc:creator>
     <cc:Agent>
      <dc:title>Matplotlib v3.8.0, https://matplotlib.org/</dc:title>
     </cc:Agent>
    </dc:creator>
   </cc:Work>
  </rdf:RDF>
 </metadata>
 <defs>
  <style type="text/css">*{stroke-linejoin: round; stroke-linecap: butt}</style>
 </defs>
 <g id="figure_1">
  <g id="patch_1">
   <path d="M 0 329.765725 
L 453.6 329.765725 
L 453.6 0 
L 0 0 
z
" style="fill: #ffffff"/>
  </g>
  <g id="axes_1">
   <g id="patch_2">
    <path d="M 7.2 322.565725 
L 446.4 322.565725 
L 446.4 7.2 
L 7.2 7.2 
z
" style="fill: #ffffff"/>
   </g>
   <g id="PathCollection_1">
    <path d="M 230.711251 134.53556 
C 231.43754 134.53556 232.134179 134.247003 232.647743 133.733439 
C 233.161307 133.219876 233.449864 132.523236 233.449864 131.796948 
C 233.449864 131.070659 233.161307 130.37402 232.647743 129.860456 
C 232.134179 129.346892 231.43754 129.058335 230.711251 129.058335 
C 229.984963 129.058335 229.288323 129.346892 228.77476 129.860456 
C 228.261196 130.37402 227.972639 131.070659 227.972639 131.796948 
C 227.972639 132.523236 228.261196 133.219876 228.77476 133.733439 
C 229.288323 134.247003 229.984963 134.53556 230.711251 134.53556 
z
" clip-path="url(#pd8ba74ece4)"/>
   </g>
   <g id="matplotlib.axis_1"/>
   <g id="matplotlib.axis_2"/>
   <g id="line2d_1">
    <path d="M 15.646154 316.500999 
L 15.76548 305.929841 
L 16.022642 299.395829 
L 16.536082 292.340304 
L 17.199002 286.479265 
L 18.208111 280.142152 
L 19.410976 274.468311 
L 20.589347 269.977018 
L 21.742534 266.222007 
L 23.010885 262.598858 
L 24.787552 258.159147 
L 26.53373 254.320135 
L 28.617289 250.237323 
L 31.178002 245.772479 
L 34.251197 241.011793 
L 37.277322 236.803911 
L 41.185464 231.903936 
L 44.605518 228.002293 
L 49.169852 223.23531 
L 53.666803 218.932499 
L 59.061575 214.181699 
L 64.732962 209.577472 
L 69.942127 205.636905 
L 76.51804 200.988191 
L 82.010032 197.340522 
L 88.05156 193.537419 
L 95.974321 188.833786 
L 103.025621 184.878524 
L 110.295736 180.995512 
L 118.812584 176.663993 
L 129.056891 171.719983 
L 138.908029 167.199413 
L 152.107122 161.444781 
L 166.004538 155.698487 
L 180.475842 149.996448 
L 196.988104 143.777814 
L 211.913019 138.372588 
L 231.801085 131.422435 
L 255.413866 123.451469 
L 289.701968 112.205393 
L 338.891199 96.124204 
L 359.287125 89.196883 
L 372.264793 84.600453 
L 384.384779 80.099095 
L 394.778702 76.002958 
L 401.872956 73.028441 
L 408.90271 69.878885 
L 415.409553 66.708957 
L 420.944324 63.726185 
L 424.309928 61.721175 
L 427.679607 59.49658 
L 430.397401 57.463874 
L 432.880523 55.301432 
L 434.313046 53.830469 
L 435.622008 52.229087 
L 436.724561 50.502493 
L 437.380103 49.07777 
L 437.808183 47.581459 
L 437.953846 46.264528 
L 437.908149 45.212419 
L 437.672866 44.010253 
L 437.154498 42.634289 
L 436.314069 41.193033 
L 435.156381 39.752902 
L 433.843434 38.468135 
L 431.94983 36.959901 
L 429.379203 35.28455 
L 426.192972 33.5601 
L 422.436429 31.838799 
L 418.273598 30.191545 
L 414.234719 28.777442 
L 408.738585 27.064711 
L 402.430976 25.321718 
L 394.091783 23.284321 
L 384.403972 21.197502 
L 373.702187 19.150799 
L 361.759753 17.108249 
L 347.849277 14.974649 
L 335.575776 13.264725 
L 335.575776 13.264725 
" clip-path="url(#pd8ba74ece4)" style="fill: none; stroke: #000000; stroke-width: 2; stroke-linecap: square"/>
   </g>
   <g id="patch_3">
    <path d="M 230.711251 131.796948 
Q 307.327494 105.444923 381.829246 79.820173 
" clip-path="url(#pd8ba74ece4)" style="fill: none; stroke: #800080; stroke-width: 2; stroke-linecap: round"/>
    <path d="M 370.74672 78.344503 
L 381.829246 79.820173 
L 373.999194 87.800792 
z
" clip-path="url(#pd8ba74ece4)" style="fill: #800080; stroke: #800080; stroke-width: 2; stroke-linecap: round"/>
   </g>
   <g id="patch_4">
    <path d="M 230.711251 131.796948 
Q 257.063276 208.41319 282.688026 282.914943 
" clip-path="url(#pd8ba74ece4)" style="fill: none; stroke: #ff0000; stroke-width: 2; stroke-linecap: round"/>
    <path d="M 284.163696 271.832416 
L 282.688026 282.914943 
L 274.707407 275.08489 
z
" clip-path="url(#pd8ba74ece4)" style="fill: #ff0000; stroke: #ff0000; stroke-width: 2; stroke-linecap: round"/>
   </g>
   <g id="patch_5">
    <path d="M 230.711251 131.796948 
Q 276.338178 116.103645 319.850614 101.137617 
" clip-path="url(#pd8ba74ece4)" style="fill: none; stroke: #0000ff; stroke-width: 2; stroke-linecap: round"/>
    <path d="M 308.768087 99.661947 
L 319.850614 101.137617 
L 312.020561 109.118236 
z
" clip-path="url(#pd8ba74ece4)" style="fill: #0000ff; stroke: #0000ff; stroke-width: 2; stroke-linecap: round"/>
   </g>
   <g id="patch_6">
    <path d="M 230.711251 131.796948 
Q 244.369948 171.508431 257.301369 209.105424 
" clip-path="url(#pd8ba74ece4)" style="fill: none; stroke: #ffa500; stroke-width: 2; stroke-linecap: round"/>
    <path d="M 258.777039 198.022898 
L 257.301369 209.105424 
L 249.32075 201.275372 
z
" clip-path="url(#pd8ba74ece4)" style="fill: #ffa500; stroke: #ffa500; stroke-width: 2; stroke-linecap: round"/>
   </g>
   <g id="patch_7">
    <path d="M 230.711251 131.796948 
Q 289.996874 155.815128 347.210044 178.993703 
" clip-path="url(#pd8ba74ece4)" style="fill: none; stroke: #008000; stroke-width: 2; stroke-linecap: round"/>
    <path d="M 339.819167 170.604726 
L 347.210044 178.993703 
L 336.064336 179.873018 
z
" clip-path="url(#pd8ba74ece4)" style="fill: #008000; stroke: #008000; stroke-width: 2; stroke-linecap: round"/>
   </g>
  </g>
 </g>
 <defs>
  <clipPath id="pd8ba74ece4">
   <rect x="7.2" y="7.2" width="439.2" height="315.365725"/>
  </clipPath>
 </defs>
</svg>
