<?xml version="1.0" encoding="utf-8" standalone="no"?>
<!DOCTYPE svg PUBLIC "-//W3C//DTD SVG 1.1//EN"
  "http://www.w3.org/Graphics/SVG/1.1/DTD/svg11.dtd">
<svg xmlns:xlink="http://www.w3.org/1999/xlink" width="453.6pt" height="236.340675pt" viewBox="0 0 453.6 236.340675" xmlns="http://www.w3.org/2000/svg" version="1.1">
 <metadata>
  <rdf:RDF xmlns:dc="http://purl.org/dc/elements/1.1/" xmlns:cc="http://creativecommons.org/ns#" xmlns:rdf="http://www.w3.org/1999/02/22-rdf-syntax-ns#">
   <cc:Work>
    <dc:type rdf:resource="http://purl.org/dc/dcmitype/StillImage"/>
    <dc:date>2025-01-29T09:02:22.105545</dc:date>
    <dc:format>image/svg+xml</dc:format>
    <dc:creator>
     <cc:Agent>
      <dc:title>Matplotlib v3.6.2, https://matplotlib.org/</dc:title>
     </cc:Agent>
    </dc:creator>
   </cc:Work>
  </rdf:RDF>
 </metadata>
 <defs>
  <style type="text/css">*{stroke-linejoin: round; stroke-linecap: butt}</style>
 </defs>
 <g id="figure_1">
  <g id="patch_1">
   <path d="M 0 236.340675 
L 453.6 236.340675 
L 453.6 0 
L 0 0 
z
" style="fill: #ffffff"/>
  </g>
  <g id="axes_1">
   <g id="patch_2">
    <path d="M 7.2 229.140675 
L 446.4 229.140675 
L 446.4 7.2 
L 7.2 7.2 
z
" style="fill: #ffffff"/>
   </g>
   <g id="PathCollection_1">
    <path d="M 411.547584 51.289674 
C 412.273873 51.289674 412.970512 51.001117 413.484076 50.487553 
C 413.997639 49.97399 414.286197 49.27735 414.286197 48.551062 
C 414.286197 47.824773 413.997639 47.128134 413.484076 46.61457 
C 412.970512 46.101006 412.273873 45.812449 411.547584 45.812449 
C 410.821295 45.812449 410.124656 46.101006 409.611092 46.61457 
C 409.097529 47.128134 408.808971 47.824773 408.808971 48.551062 
C 408.808971 49.27735 409.097529 49.97399 409.611092 50.487553 
C 410.124656 51.001117 410.821295 51.289674 411.547584 51.289674 
z
" clip-path="url(#pc9cd90f3e5)"/>
   </g>
   <g id="matplotlib.axis_1"/>
   <g id="matplotlib.axis_2"/>
   <g id="line2d_1">
    <path d="M 437.953846 75.119944 
L 435.043182 71.309878 
L 432.34785 68.04238 
L 430.434023 65.855017 
L 425.27244 60.426361 
L 421.067022 56.436536 
L 415.936685 52.008791 
L 412.037041 48.922881 
L 405.834353 44.444394 
L 400.743206 41.114956 
L 395.088691 37.738632 
L 388.99314 34.436835 
L 381.494017 30.802343 
L 375.913531 28.373128 
L 367.96746 25.279607 
L 362.995193 23.544796 
L 355.197979 21.110538 
L 348.910061 19.384558 
L 340.424237 17.365978 
L 334.304992 16.117878 
L 326.734397 14.799644 
L 320.190783 13.851165 
L 310.579624 12.761383 
L 306.152123 12.375433 
L 295.973846 11.752732 
L 287.875246 11.510163 
L 277.523905 11.511729 
L 266.88409 11.863213 
L 257.085424 12.489227 
L 248.650233 13.253624 
L 239.161589 14.35717 
L 230.428429 15.596917 
L 220.70157 17.22717 
L 211.54694 18.99964 
L 204.414157 20.540149 
L 195.561548 22.646611 
L 185.035741 25.433344 
L 175.400352 28.256505 
L 168.897371 30.311498 
L 160.018686 33.316296 
L 151.873595 36.280322 
L 144.014781 39.334839 
L 133.442332 43.759264 
L 123.053688 48.479971 
L 115.191906 52.31593 
L 106.977054 56.585697 
L 100.416809 60.202414 
L 91.592375 65.384898 
L 84.782823 69.658938 
L 79.359703 73.253388 
L 71.402759 78.872007 
L 64.581228 84.063859 
L 60.336548 87.497208 
L 54.551428 92.468745 
L 50.719991 95.976036 
L 44.902585 101.696243 
L 41.210511 105.625609 
L 37.971964 109.308218 
L 34.968808 112.962472 
L 31.684632 117.287054 
L 28.539103 121.846412 
L 25.383346 126.989804 
L 22.962391 131.500235 
L 21.752868 134.019803 
L 19.542239 139.337657 
L 18.437776 142.545313 
L 17.262895 146.729531 
L 16.260028 151.76621 
L 15.907312 154.527307 
L 15.651848 158.573409 
L 15.741433 162.98669 
L 16.153011 166.868943 
L 16.594669 169.389966 
L 17.506918 173.10333 
L 18.470556 176.07168 
L 19.694573 179.134712 
L 20.905272 181.694784 
L 22.747834 185.021631 
L 25.059825 188.556702 
L 28.104806 192.502793 
L 30.665528 195.387657 
L 32.743862 197.510644 
L 35.924741 200.461242 
L 40.218751 203.994834 
L 44.724903 207.274172 
L 48.791824 209.936247 
L 52.594786 212.215464 
L 56.953361 214.616709 
L 62.677492 217.480979 
L 67.121825 219.511408 
L 73.287983 222.089317 
L 80.699739 224.872585 
L 80.699739 224.872585 
" clip-path="url(#pc9cd90f3e5)" style="fill: none; stroke: #000000; stroke-width: 2; stroke-linecap: square"/>
   </g>
   <g id="patch_3">
    <path d="M 181.150902 26.540038 
Q 180.123902 26.8412 181.242615 26.513144 
" clip-path="url(#pc9cd90f3e5)" style="fill: none; stroke: #000000; stroke-width: 2; stroke-linecap: round"/>
    <path d="M 192.24551 28.497157 
L 181.242615 26.513144 
L 189.431562 18.901236 
L 192.24551 28.497157 
z
" clip-path="url(#pc9cd90f3e5)" style="stroke: #000000; stroke-width: 2; stroke-linecap: round"/>
   </g>
   <g id="patch_4">
    <path d="M 411.547584 48.551062 
Q 376.05217 39.085618 342.717324 30.196325 
" clip-path="url(#pc9cd90f3e5)" style="fill: none; stroke: #ff0000; stroke-width: 2; stroke-linecap: round"/>
    <path d="M 351.09136 37.604127 
L 342.717324 30.196325 
L 353.667986 27.941777 
L 351.09136 37.604127 
z
" clip-path="url(#pc9cd90f3e5)" style="fill: #ff0000; stroke: #ff0000; stroke-width: 2; stroke-linecap: round"/>
   </g>
   <g id="text_1">
    <!-- $P$ -->
    <g transform="translate(414.513028 35.138924) scale(0.2 -0.2)">
     <defs>
      <path id="Cmmi10-50" d="M 313 0 
Q 250 0 250 84 
Q 253 100 262 139 
Q 272 178 289 201 
Q 306 225 331 225 
Q 722 225 878 269 
Q 959 297 997 441 
L 1875 3956 
Q 1888 4019 1888 4044 
Q 1888 4113 1813 4122 
Q 1691 4147 1350 4147 
Q 1288 4147 1288 4231 
Q 1291 4247 1300 4286 
Q 1309 4325 1326 4348 
Q 1344 4372 1369 4372 
L 3578 4372 
Q 3881 4372 4165 4264 
Q 4450 4156 4631 3934 
Q 4813 3713 4813 3397 
Q 4813 2991 4527 2672 
Q 4241 2353 3814 2175 
Q 3388 1997 2988 1997 
L 1947 1997 
L 1556 416 
Q 1544 353 1544 325 
Q 1544 300 1551 283 
Q 1559 266 1573 261 
Q 1588 256 1619 250 
Q 1741 225 2081 225 
Q 2144 225 2144 141 
Q 2122 50 2109 25 
Q 2097 0 2034 0 
L 313 0 
z
M 1978 2188 
L 2875 2188 
Q 3497 2188 3822 2522 
Q 3988 2688 4092 3000 
Q 4197 3313 4197 3566 
Q 4197 3881 3956 4014 
Q 3716 4147 3359 4147 
L 2747 4147 
Q 2572 4147 2515 4117 
Q 2459 4088 2413 3928 
L 1978 2188 
z
" transform="scale(0.015625)"/>
     </defs>
     <use xlink:href="#Cmmi10-50" transform="translate(0 0.6875)"/>
    </g>
   </g>
  </g>
 </g>
 <defs>
  <clipPath id="pc9cd90f3e5">
   <rect x="7.2" y="7.2" width="439.2" height="221.940675"/>
  </clipPath>
 </defs>
</svg>
