<?xml version="1.0" encoding="utf-8" standalone="no"?>
<!DOCTYPE svg PUBLIC "-//W3C//DTD SVG 1.1//EN"
  "http://www.w3.org/Graphics/SVG/1.1/DTD/svg11.dtd">
<svg xmlns:xlink="http://www.w3.org/1999/xlink" width="453.6pt" height="236.336949pt" viewBox="0 0 453.6 236.336949" xmlns="http://www.w3.org/2000/svg" version="1.1">
 <metadata>
  <rdf:RDF xmlns:dc="http://purl.org/dc/elements/1.1/" xmlns:cc="http://creativecommons.org/ns#" xmlns:rdf="http://www.w3.org/1999/02/22-rdf-syntax-ns#">
   <cc:Work>
    <dc:type rdf:resource="http://purl.org/dc/dcmitype/StillImage"/>
    <dc:date>2025-02-05T12:06:56.085295</dc:date>
    <dc:format>image/svg+xml</dc:format>
    <dc:creator>
     <cc:Agent>
      <dc:title>Matplotlib v3.8.0, https://matplotlib.org/</dc:title>
     </cc:Agent>
    </dc:creator>
   </cc:Work>
  </rdf:RDF>
 </metadata>
 <defs>
  <style type="text/css">*{stroke-linejoin: round; stroke-linecap: butt}</style>
 </defs>
 <g id="figure_1">
  <g id="patch_1">
   <path d="M 0 236.336949 
L 453.6 236.336949 
L 453.6 0 
L 0 0 
z
" style="fill: #ffffff"/>
  </g>
  <g id="axes_1">
   <g id="patch_2">
    <path d="M 7.2 229.136949 
L 446.4 229.136949 
L 446.4 7.2 
L 7.2 7.2 
z
" style="fill: #ffffff"/>
   </g>
   <g id="PathCollection_1">
    <path d="M 376.129754 31.997899 
C 377.067389 31.997899 377.966747 31.625372 378.629754 30.962365 
C 379.292762 30.299357 379.665288 29.399999 379.665288 28.462365 
C 379.665288 27.52473 379.292762 26.625372 378.629754 25.962365 
C 377.966747 25.299357 377.067389 24.926831 376.129754 24.926831 
C 375.19212 24.926831 374.292762 25.299357 373.629754 25.962365 
C 372.966747 26.625372 372.59422 27.52473 372.59422 28.462365 
C 372.59422 29.399999 372.966747 30.299357 373.629754 30.962365 
C 374.292762 31.625372 375.19212 31.997899 376.129754 31.997899 
z
" clip-path="url(#p9fe5f13bc8)"/>
   </g>
   <g id="PathCollection_2">
    <path d="M 342.327054 21.323819 
C 343.264688 21.323819 344.164046 20.951293 344.827054 20.288285 
C 345.490061 19.625277 345.862587 18.725919 345.862587 17.788285 
C 345.862587 16.85065 345.490061 15.951293 344.827054 15.288285 
C 344.164046 14.625277 343.264688 14.252751 342.327054 14.252751 
C 341.389419 14.252751 340.490061 14.625277 339.827054 15.288285 
C 339.164046 15.951293 338.79152 16.85065 338.79152 17.788285 
C 338.79152 18.725919 339.164046 19.625277 339.827054 20.288285 
C 340.490061 20.951293 341.389419 21.323819 342.327054 21.323819 
z
" clip-path="url(#p9fe5f13bc8)"/>
   </g>
   <g id="matplotlib.axis_1"/>
   <g id="matplotlib.axis_2"/>
   <g id="line2d_1">
    <path d="M 437.953846 75.118803 
L 435.240456 71.557227 
L 432.470134 68.18459 
L 429.382333 64.694587 
L 427.001532 62.173231 
L 422.075203 57.360217 
L 418.660459 54.302761 
L 414.095999 50.523135 
L 408.336315 46.190551 
L 403.526515 42.898043 
L 396.597977 38.607906 
L 389.771462 34.839345 
L 385.532266 32.703193 
L 379.133281 29.746653 
L 374.208276 27.673515 
L 370.257845 26.128738 
L 362.371825 23.33692 
L 355.305423 21.14118 
L 347.067652 18.916176 
L 340.678474 17.420973 
L 332.775544 15.831371 
L 324.18796 14.409624 
L 317.411036 13.499308 
L 308.337018 12.556684 
L 300.805078 12.002949 
L 295.982964 11.752948 
L 288.569538 11.522309 
L 280.728945 11.474649 
L 272.200365 11.644155 
L 261.59194 12.166035 
L 254.40088 12.710292 
L 245.62995 13.577379 
L 238.621109 14.428012 
L 226.969847 16.147036 
L 218.830725 17.571173 
L 208.186893 19.708548 
L 197.367402 22.200114 
L 187.275095 24.81549 
L 178.257513 27.392906 
L 167.664404 30.716018 
L 158.070198 34.008273 
L 149.940149 37.015146 
L 141.976612 40.160614 
L 134.664602 43.230261 
L 127.841842 46.258251 
L 119.9267 49.979392 
L 112.619454 53.625324 
L 103.279473 58.602855 
L 95.731719 62.908823 
L 87.193794 68.119201 
L 79.76167 72.983733 
L 74.746389 76.460904 
L 70.771748 79.340155 
L 62.962591 85.357148 
L 56.271797 90.956246 
L 51.679385 95.084637 
L 47.90564 98.683358 
L 42.419161 104.315729 
L 38.678746 108.489496 
L 35.02865 112.893823 
L 32.257657 116.511343 
L 28.885434 121.328737 
L 25.993204 125.950147 
L 23.465837 130.521541 
L 21.214935 135.229633 
L 19.896554 138.419419 
L 18.481561 142.427489 
L 17.45052 146.006538 
L 16.515192 150.278313 
L 16.076952 153.113252 
L 15.749501 156.511813 
L 15.651136 160.586816 
L 15.804967 163.755215 
L 16.263054 167.531645 
L 16.953719 170.978391 
L 17.652085 173.569552 
L 18.777065 176.87605 
L 20.022021 179.846539 
L 21.258604 182.362262 
L 22.721517 184.963217 
L 24.515066 187.760647 
L 26.286508 190.214635 
L 28.238818 192.65108 
L 31.704006 196.459995 
L 35.084966 199.703944 
L 38.310671 202.471721 
L 42.621424 205.783039 
L 46.175336 208.245108 
L 51.128899 211.351534 
L 56.747517 214.501015 
L 62.045692 217.172772 
L 67.594966 219.712341 
L 73.599013 222.206644 
L 80.705733 224.868931 
L 80.705733 224.868931 
" clip-path="url(#p9fe5f13bc8)" style="fill: none; stroke: #000000; stroke-width: 2; stroke-linecap: square"/>
   </g>
   <g id="patch_3">
    <path d="M 181.155211 26.539712 
Q 180.128228 26.840869 181.246958 26.512808 
" clip-path="url(#p9fe5f13bc8)" style="fill: none; stroke: #000000; stroke-width: 2; stroke-linecap: round"/>
    <path d="M 192.249853 28.496821 
L 181.246958 26.512808 
L 189.435906 18.9009 
z
" clip-path="url(#p9fe5f13bc8)" style="stroke: #000000; stroke-width: 2; stroke-linecap: round"/>
   </g>
   <g id="text_1">
    <!-- $P_0$ -->
    <g transform="translate(374.995039 52.911684) scale(0.2 -0.2)">
     <defs>
      <path id="Cmmi10-50" d="M 313 0 
Q 250 0 250 84 
Q 253 100 262 139 
Q 272 178 289 201 
Q 306 225 331 225 
Q 722 225 878 269 
Q 959 297 997 441 
L 1875 3956 
Q 1888 4019 1888 4044 
Q 1888 4113 1813 4122 
Q 1691 4147 1350 4147 
Q 1288 4147 1288 4231 
Q 1291 4247 1300 4286 
Q 1309 4325 1326 4348 
Q 1344 4372 1369 4372 
L 3578 4372 
Q 3881 4372 4165 4264 
Q 4450 4156 4631 3934 
Q 4813 3713 4813 3397 
Q 4813 2991 4527 2672 
Q 4241 2353 3814 2175 
Q 3388 1997 2988 1997 
L 1947 1997 
L 1556 416 
Q 1544 353 1544 325 
Q 1544 300 1551 283 
Q 1559 266 1573 261 
Q 1588 256 1619 250 
Q 1741 225 2081 225 
Q 2144 225 2144 141 
Q 2122 50 2109 25 
Q 2097 0 2034 0 
L 313 0 
z
M 1978 2188 
L 2875 2188 
Q 3497 2188 3822 2522 
Q 3988 2688 4092 3000 
Q 4197 3313 4197 3566 
Q 4197 3881 3956 4014 
Q 3716 4147 3359 4147 
L 2747 4147 
Q 2572 4147 2515 4117 
Q 2459 4088 2413 3928 
L 1978 2188 
z
" transform="scale(0.015625)"/>
      <path id="Cmr10-30" d="M 1600 -141 
Q 816 -141 533 504 
Q 250 1150 250 2041 
Q 250 2597 351 3087 
Q 453 3578 754 3920 
Q 1056 4263 1600 4263 
Q 2022 4263 2290 4056 
Q 2559 3850 2700 3523 
Q 2841 3197 2892 2823 
Q 2944 2450 2944 2041 
Q 2944 1491 2842 1011 
Q 2741 531 2444 195 
Q 2147 -141 1600 -141 
z
M 1600 25 
Q 1956 25 2131 390 
Q 2306 756 2347 1200 
Q 2388 1644 2388 2144 
Q 2388 2625 2347 3031 
Q 2306 3438 2132 3767 
Q 1959 4097 1600 4097 
Q 1238 4097 1063 3765 
Q 888 3434 847 3029 
Q 806 2625 806 2144 
Q 806 1788 823 1472 
Q 841 1156 916 820 
Q 991 484 1158 254 
Q 1325 25 1600 25 
z
" transform="scale(0.015625)"/>
     </defs>
     <use xlink:href="#Cmmi10-50" transform="translate(0 0.6875)"/>
     <use xlink:href="#Cmr10-30" transform="translate(64.208984 -16.31875) scale(0.7)"/>
    </g>
   </g>
   <g id="text_2">
    <!-- $P_1$ -->
    <g transform="translate(322.261769 42.237605) scale(0.2 -0.2)">
     <defs>
      <path id="Cmr10-31" d="M 594 0 
L 594 225 
Q 1394 225 1394 428 
L 1394 3788 
Q 1063 3628 556 3628 
L 556 3853 
Q 1341 3853 1741 4263 
L 1831 4263 
Q 1853 4263 1873 4245 
Q 1894 4228 1894 4206 
L 1894 428 
Q 1894 225 2694 225 
L 2694 0 
L 594 0 
z
" transform="scale(0.015625)"/>
     </defs>
     <use xlink:href="#Cmmi10-50" transform="translate(0 0.6875)"/>
     <use xlink:href="#Cmr10-31" transform="translate(64.208984 -16.31875) scale(0.7)"/>
    </g>
   </g>
  </g>
 </g>
 <defs>
  <clipPath id="p9fe5f13bc8">
   <rect x="7.2" y="7.2" width="439.2" height="221.936949"/>
  </clipPath>
 </defs>
</svg>
