<?xml version="1.0" encoding="utf-8" standalone="no"?>
<!DOCTYPE svg PUBLIC "-//W3C//DTD SVG 1.1//EN"
  "http://www.w3.org/Graphics/SVG/1.1/DTD/svg11.dtd">
<svg xmlns:xlink="http://www.w3.org/1999/xlink" width="453.6pt" height="236.337816pt" viewBox="0 0 453.6 236.337816" xmlns="http://www.w3.org/2000/svg" version="1.1">
 <metadata>
  <rdf:RDF xmlns:dc="http://purl.org/dc/elements/1.1/" xmlns:cc="http://creativecommons.org/ns#" xmlns:rdf="http://www.w3.org/1999/02/22-rdf-syntax-ns#">
   <cc:Work>
    <dc:type rdf:resource="http://purl.org/dc/dcmitype/StillImage"/>
    <dc:date>2024-12-04T07:51:07.489948</dc:date>
    <dc:format>image/svg+xml</dc:format>
    <dc:creator>
     <cc:Agent>
      <dc:title>Matplotlib v3.6.2, https://matplotlib.org/</dc:title>
     </cc:Agent>
    </dc:creator>
   </cc:Work>
  </rdf:RDF>
 </metadata>
 <defs>
  <style type="text/css">*{stroke-linejoin: round; stroke-linecap: butt}</style>
 </defs>
 <g id="figure_1">
  <g id="patch_1">
   <path d="M 0 236.337816 
L 453.6 236.337816 
L 453.6 0 
L 0 0 
z
" style="fill: #ffffff"/>
  </g>
  <g id="axes_1">
   <g id="patch_2">
    <path d="M 7.2 229.137816 
L 446.4 229.137816 
L 446.4 7.2 
L 7.2 7.2 
z
" style="fill: #ffffff"/>
   </g>
   <g id="PathCollection_1">
    <path d="M 411.547924 51.289142 
C 412.274213 51.289142 412.970852 51.000585 413.484416 50.487021 
C 413.99798 49.973457 414.286537 49.276818 414.286537 48.550529 
C 414.286537 47.824241 413.99798 47.127601 413.484416 46.614038 
C 412.970852 46.100474 412.274213 45.811917 411.547924 45.811917 
C 410.821636 45.811917 410.124996 46.100474 409.611433 46.614038 
C 409.097869 47.127601 408.809312 47.824241 408.809312 48.550529 
C 408.809312 49.276818 409.097869 49.973457 409.611433 50.487021 
C 410.124996 51.000585 410.821636 51.289142 411.547924 51.289142 
z
" clip-path="url(#pf367cd247c)"/>
   </g>
   <g id="matplotlib.axis_1"/>
   <g id="matplotlib.axis_2"/>
   <g id="line2d_1">
    <path d="M 437.953846 75.11907 
L 434.170676 70.225769 
L 432.064111 67.71061 
L 430.259927 65.66022 
L 425.831696 60.983591 
L 420.712258 56.114796 
L 416.550946 52.515062 
L 412.591926 49.34766 
L 408.026138 45.969979 
L 403.948903 43.176521 
L 401.523755 41.60603 
L 396.134113 38.338349 
L 391.213659 35.600775 
L 385.611125 32.741794 
L 380.385132 30.301131 
L 374.389145 27.746886 
L 367.169317 24.990544 
L 361.503387 23.052179 
L 352.773072 20.420274 
L 345.469036 18.523904 
L 338.896329 17.038137 
L 332.323009 15.748794 
L 324.976623 14.527557 
L 318.150595 13.589972 
L 311.657016 12.865945 
L 306.379816 12.393343 
L 298.341751 11.865277 
L 288.778497 11.526339 
L 279.999629 11.480245 
L 271.612139 11.664157 
L 261.507615 12.171512 
L 253.770311 12.765187 
L 247.525603 13.371218 
L 238.268552 14.474391 
L 227.623705 16.040471 
L 219.701816 17.409916 
L 212.663278 18.771618 
L 205.438025 20.310931 
L 198.168175 22.004501 
L 188.574336 24.46274 
L 179.883848 26.910909 
L 167.924959 30.630141 
L 158.65771 33.798505 
L 148.650554 37.510558 
L 138.431571 41.626328 
L 129.997282 45.283734 
L 121.514739 49.213836 
L 112.61056 53.629423 
L 104.680638 57.83172 
L 98.565422 61.260278 
L 89.104419 66.919203 
L 81.379515 71.895989 
L 74.159319 76.878301 
L 68.624037 80.944339 
L 62.588783 85.657486 
L 56.825683 90.474091 
L 51.004552 95.712539 
L 46.762908 99.813392 
L 41.680327 105.115061 
L 37.36293 110.033965 
L 34.719981 113.282363 
L 30.665622 118.719359 
L 28.46546 121.965757 
L 25.509189 126.778461 
L 23.669381 130.127055 
L 21.254109 135.137506 
L 19.902421 138.400566 
L 18.72225 141.683235 
L 17.434446 146.063386 
L 16.676215 149.415492 
L 15.980855 153.893863 
L 15.712336 157.124231 
L 15.646974 160.414039 
L 15.79176 163.610759 
L 16.255943 167.498432 
L 17.079741 171.499341 
L 18.108602 175.013532 
L 19.465564 178.58976 
L 20.78036 181.433962 
L 22.747808 185.010397 
L 24.951797 188.393707 
L 27.661033 191.958013 
L 29.413934 194.010724 
L 32.337377 197.101161 
L 35.636551 200.199803 
L 38.321575 202.482649 
L 42.480472 205.682672 
L 47.82798 209.322015 
L 51.095084 211.333147 
L 56.644315 214.447882 
L 60.803087 216.570896 
L 66.519614 219.240411 
L 70.753858 221.056404 
L 76.454063 223.312721 
L 80.704342 224.869781 
L 80.704342 224.869781 
" clip-path="url(#pf367cd247c)" style="fill: none; stroke: #000000; stroke-width: 2; stroke-linecap: square"/>
   </g>
   <g id="patch_3">
    <path d="M 181.154211 26.53979 
Q 180.127224 26.840948 181.245951 26.512888 
" clip-path="url(#pf367cd247c)" style="fill: none; stroke: #000000; stroke-width: 2; stroke-linecap: round"/>
    <path d="M 192.248846 28.496901 
L 181.245951 26.512888 
L 189.434898 18.90098 
L 192.248846 28.496901 
z
" clip-path="url(#pf367cd247c)" style="stroke: #000000; stroke-width: 2; stroke-linecap: round"/>
   </g>
   <g id="patch_4">
    <path d="M 411.547924 48.550529 
Q 376.052968 39.085208 342.718579 30.196037 
" clip-path="url(#pf367cd247c)" style="fill: none; stroke: #ff0000; stroke-width: 2; stroke-linecap: round"/>
    <path d="M 351.092615 37.603838 
L 342.718579 30.196037 
L 353.669241 27.941489 
L 351.092615 37.603838 
z
" clip-path="url(#pf367cd247c)" style="fill: #ff0000; stroke: #ff0000; stroke-width: 2; stroke-linecap: round"/>
   </g>
   <g id="text_1">
    <!-- $P$ -->
    <g transform="translate(414.513246 35.138636) scale(0.2 -0.2)">
     <defs>
      <path id="Cmmi10-50" d="M 313 0 
Q 250 0 250 84 
Q 253 100 262 139 
Q 272 178 289 201 
Q 306 225 331 225 
Q 722 225 878 269 
Q 959 297 997 441 
L 1875 3956 
Q 1888 4019 1888 4044 
Q 1888 4113 1813 4122 
Q 1691 4147 1350 4147 
Q 1288 4147 1288 4231 
Q 1291 4247 1300 4286 
Q 1309 4325 1326 4348 
Q 1344 4372 1369 4372 
L 3578 4372 
Q 3881 4372 4165 4264 
Q 4450 4156 4631 3934 
Q 4813 3713 4813 3397 
Q 4813 2991 4527 2672 
Q 4241 2353 3814 2175 
Q 3388 1997 2988 1997 
L 1947 1997 
L 1556 416 
Q 1544 353 1544 325 
Q 1544 300 1551 283 
Q 1559 266 1573 261 
Q 1588 256 1619 250 
Q 1741 225 2081 225 
Q 2144 225 2144 141 
Q 2122 50 2109 25 
Q 2097 0 2034 0 
L 313 0 
z
M 1978 2188 
L 2875 2188 
Q 3497 2188 3822 2522 
Q 3988 2688 4092 3000 
Q 4197 3313 4197 3566 
Q 4197 3881 3956 4014 
Q 3716 4147 3359 4147 
L 2747 4147 
Q 2572 4147 2515 4117 
Q 2459 4088 2413 3928 
L 1978 2188 
z
" transform="scale(0.015625)"/>
     </defs>
     <use xlink:href="#Cmmi10-50" transform="translate(0 0.6875)"/>
    </g>
   </g>
  </g>
 </g>
 <defs>
  <clipPath id="pf367cd247c">
   <rect x="7.2" y="7.2" width="439.2" height="221.937816"/>
  </clipPath>
 </defs>
</svg>
