<?xml version="1.0" encoding="utf-8" standalone="no"?>
<!DOCTYPE svg PUBLIC "-//W3C//DTD SVG 1.1//EN"
  "http://www.w3.org/Graphics/SVG/1.1/DTD/svg11.dtd">
<svg xmlns:xlink="http://www.w3.org/1999/xlink" width="453.6pt" height="329.763871pt" viewBox="0 0 453.6 329.763871" xmlns="http://www.w3.org/2000/svg" version="1.1">
 <metadata>
  <rdf:RDF xmlns:dc="http://purl.org/dc/elements/1.1/" xmlns:cc="http://creativecommons.org/ns#" xmlns:rdf="http://www.w3.org/1999/02/22-rdf-syntax-ns#">
   <cc:Work>
    <dc:type rdf:resource="http://purl.org/dc/dcmitype/StillImage"/>
    <dc:date>2025-01-29T09:01:50.389107</dc:date>
    <dc:format>image/svg+xml</dc:format>
    <dc:creator>
     <cc:Agent>
      <dc:title>Matplotlib v3.6.2, https://matplotlib.org/</dc:title>
     </cc:Agent>
    </dc:creator>
   </cc:Work>
  </rdf:RDF>
 </metadata>
 <defs>
  <style type="text/css">*{stroke-linejoin: round; stroke-linecap: butt}</style>
 </defs>
 <g id="figure_1">
  <g id="patch_1">
   <path d="M 0 329.763871 
L 453.6 329.763871 
L 453.6 0 
L 0 0 
z
" style="fill: #ffffff"/>
  </g>
  <g id="axes_1">
   <g id="patch_2">
    <path d="M 7.2 322.563871 
L 446.4 322.563871 
L 446.4 7.2 
L 7.2 7.2 
z
" style="fill: #ffffff"/>
   </g>
   <g id="PathCollection_1">
    <path d="M 230.709987 134.534828 
C 231.436276 134.534828 232.132915 134.246271 232.646479 133.732707 
C 233.160043 133.219143 233.4486 132.522504 233.4486 131.796215 
C 233.4486 131.069927 233.160043 130.373287 232.646479 129.859724 
C 232.132915 129.34616 231.436276 129.057603 230.709987 129.057603 
C 229.983699 129.057603 229.287059 129.34616 228.773496 129.859724 
C 228.259932 130.373287 227.971375 131.069927 227.971375 131.796215 
C 227.971375 132.522504 228.259932 133.219143 228.773496 133.732707 
C 229.287059 134.246271 229.983699 134.534828 230.709987 134.534828 
z
" clip-path="url(#p0a2c2fdc4d)"/>
   </g>
   <g id="matplotlib.axis_1"/>
   <g id="matplotlib.axis_2"/>
   <g id="line2d_1">
    <path d="M 15.646154 316.499181 
L 15.732771 307.294015 
L 15.957301 300.681093 
L 16.33552 294.664864 
L 17.012442 287.928143 
L 17.799969 282.462341 
L 19.007594 276.215787 
L 20.167587 271.492627 
L 21.485627 267.013501 
L 23.18728 262.126823 
L 24.349342 259.195707 
L 26.557417 254.269362 
L 28.968918 249.590237 
L 31.586082 245.10515 
L 34.223888 241.050202 
L 36.935288 237.257893 
L 40.271057 233.002587 
L 43.676915 229.029209 
L 46.655866 225.803461 
L 51.214333 221.234333 
L 54.814534 217.885846 
L 59.737593 213.6121 
L 65.196558 209.214956 
L 71.172105 204.740188 
L 77.030064 200.638298 
L 83.747428 196.224365 
L 91.194173 191.634551 
L 99.264539 186.961947 
L 107.001332 182.730984 
L 115.393795 178.375346 
L 123.433059 174.399502 
L 135.268256 168.843982 
L 146.741846 163.744542 
L 160.147388 158.083734 
L 173.000715 152.908024 
L 187.042979 147.488618 
L 204.035884 141.201273 
L 221.117927 135.122718 
L 241.561234 128.095372 
L 265.717492 120.041195 
L 304.38125 107.437646 
L 338.565086 96.231751 
L 359.073507 89.269879 
L 373.826982 84.032084 
L 384.562867 80.029748 
L 393.995399 76.320063 
L 403.016769 72.530076 
L 409.627468 69.538241 
L 415.31159 66.757475 
L 420.274783 64.103661 
L 423.766614 62.055603 
L 427.395937 59.692634 
L 430.030622 57.752555 
L 431.993643 56.116078 
L 433.569193 54.618871 
L 434.960225 53.076235 
L 436.255632 51.296781 
L 437.09427 49.757377 
L 437.654385 48.22738 
L 437.921342 46.773469 
L 437.925285 45.407482 
L 437.751591 44.326248 
L 437.391145 43.182408 
L 436.702948 41.79888 
L 436.030988 40.804059 
L 434.799692 39.378919 
L 433.547697 38.212714 
L 431.291501 36.499699 
L 428.698018 34.890325 
L 425.687781 33.313033 
L 421.645878 31.508806 
L 416.963404 29.716358 
L 411.580955 27.924679 
L 405.527617 26.152434 
L 397.970717 24.200047 
L 390.440903 22.467649 
L 381.678526 20.653827 
L 370.48945 18.579288 
L 359.331724 16.718886 
L 346.267643 14.746257 
L 335.573896 13.26469 
L 335.573896 13.26469 
" clip-path="url(#p0a2c2fdc4d)" style="fill: none; stroke: #000000; stroke-width: 2; stroke-linecap: square"/>
   </g>
   <g id="patch_3">
    <path d="M 230.709987 131.796215 
Q 307.32578 105.444345 381.827082 79.81975 
" clip-path="url(#p0a2c2fdc4d)" style="fill: none; stroke: #800080; stroke-width: 2; stroke-linecap: round"/>
    <path d="M 370.744555 78.34408 
L 381.827082 79.81975 
L 373.99703 87.80037 
L 370.744555 78.34408 
z
" clip-path="url(#p0a2c2fdc4d)" style="fill: #800080; stroke: #800080; stroke-width: 2; stroke-linecap: round"/>
   </g>
   <g id="patch_4">
    <path d="M 230.709987 131.796215 
Q 257.061858 208.412008 282.686452 282.91331 
" clip-path="url(#p0a2c2fdc4d)" style="fill: none; stroke: #ff0000; stroke-width: 2; stroke-linecap: round"/>
    <path d="M 284.162123 271.830783 
L 282.686452 282.91331 
L 274.705833 275.083258 
L 284.162123 271.830783 
z
" clip-path="url(#p0a2c2fdc4d)" style="fill: #ff0000; stroke: #ff0000; stroke-width: 2; stroke-linecap: round"/>
   </g>
   <g id="patch_5">
    <path d="M 230.709987 131.796215 
Q 276.336646 116.103005 319.848813 101.137069 
" clip-path="url(#p0a2c2fdc4d)" style="fill: none; stroke: #0000ff; stroke-width: 2; stroke-linecap: round"/>
    <path d="M 308.766287 99.661399 
L 319.848813 101.137069 
L 312.018761 109.117689 
L 308.766287 99.661399 
z
" clip-path="url(#p0a2c2fdc4d)" style="fill: #0000ff; stroke: #0000ff; stroke-width: 2; stroke-linecap: round"/>
   </g>
   <g id="patch_6">
    <path d="M 230.709987 131.796215 
Q 244.368604 171.507466 257.299944 209.104225 
" clip-path="url(#p0a2c2fdc4d)" style="fill: none; stroke: #ffa500; stroke-width: 2; stroke-linecap: round"/>
    <path d="M 258.775615 198.021698 
L 257.299944 209.104225 
L 249.319325 201.274173 
L 258.775615 198.021698 
z
" clip-path="url(#p0a2c2fdc4d)" style="fill: #ffa500; stroke: #ffa500; stroke-width: 2; stroke-linecap: round"/>
   </g>
   <g id="patch_7">
    <path d="M 230.709987 131.796215 
Q 289.995262 155.814255 347.208083 178.992689 
" clip-path="url(#p0a2c2fdc4d)" style="fill: none; stroke: #008000; stroke-width: 2; stroke-linecap: round"/>
    <path d="M 339.817207 170.603711 
L 347.208083 178.992689 
L 336.062375 179.872003 
L 339.817207 170.603711 
z
" clip-path="url(#p0a2c2fdc4d)" style="fill: #008000; stroke: #008000; stroke-width: 2; stroke-linecap: round"/>
   </g>
  </g>
 </g>
 <defs>
  <clipPath id="p0a2c2fdc4d">
   <rect x="7.2" y="7.2" width="439.2" height="315.363871"/>
  </clipPath>
 </defs>
</svg>
