<?xml version="1.0" encoding="utf-8" standalone="no"?>
<!DOCTYPE svg PUBLIC "-//W3C//DTD SVG 1.1//EN"
  "http://www.w3.org/Graphics/SVG/1.1/DTD/svg11.dtd">
<svg xmlns:xlink="http://www.w3.org/1999/xlink" width="453.6pt" height="236.338897pt" viewBox="0 0 453.6 236.338897" xmlns="http://www.w3.org/2000/svg" version="1.1">
 <metadata>
  <rdf:RDF xmlns:dc="http://purl.org/dc/elements/1.1/" xmlns:cc="http://creativecommons.org/ns#" xmlns:rdf="http://www.w3.org/1999/02/22-rdf-syntax-ns#">
   <cc:Work>
    <dc:type rdf:resource="http://purl.org/dc/dcmitype/StillImage"/>
    <dc:date>2024-12-04T07:51:25.871116</dc:date>
    <dc:format>image/svg+xml</dc:format>
    <dc:creator>
     <cc:Agent>
      <dc:title>Matplotlib v3.6.2, https://matplotlib.org/</dc:title>
     </cc:Agent>
    </dc:creator>
   </cc:Work>
  </rdf:RDF>
 </metadata>
 <defs>
  <style type="text/css">*{stroke-linejoin: round; stroke-linecap: butt}</style>
 </defs>
 <g id="figure_1">
  <g id="patch_1">
   <path d="M 0 236.338897 
L 453.6 236.338897 
L 453.6 -0 
L 0 -0 
z
" style="fill: #ffffff"/>
  </g>
  <g id="axes_1">
   <g id="patch_2">
    <path d="M 7.2 229.138897 
L 446.4 229.138897 
L 446.4 7.2 
L 7.2 7.2 
z
" style="fill: #ffffff"/>
   </g>
   <g id="PathCollection_1">
    <path d="M 376.129184 31.997997 
C 377.066819 31.997997 377.966176 31.625471 378.629184 30.962463 
C 379.292192 30.299456 379.664718 29.400098 379.664718 28.462463 
C 379.664718 27.524829 379.292192 26.625471 378.629184 25.962463 
C 377.966176 25.299456 377.066819 24.926929 376.129184 24.926929 
C 375.191549 24.926929 374.292192 25.299456 373.629184 25.962463 
C 372.966176 26.625471 372.59365 27.524829 372.59365 28.462463 
C 372.59365 29.400098 372.966176 30.299456 373.629184 30.962463 
C 374.292192 31.625471 375.191549 31.997997 376.129184 31.997997 
z
" clip-path="url(#p69133392a9)"/>
   </g>
   <g id="PathCollection_2">
    <path d="M 342.326171 21.323819 
C 343.263806 21.323819 344.163164 20.951293 344.826171 20.288285 
C 345.489179 19.625277 345.861705 18.72592 345.861705 17.788285 
C 345.861705 16.85065 345.489179 15.951293 344.826171 15.288285 
C 344.163164 14.625277 343.263806 14.252751 342.326171 14.252751 
C 341.388537 14.252751 340.489179 14.625277 339.826171 15.288285 
C 339.163164 15.951293 338.790638 16.85065 338.790638 17.788285 
C 338.790638 18.72592 339.163164 19.625277 339.826171 20.288285 
C 340.489179 20.951293 341.388537 21.323819 342.326171 21.323819 
z
" clip-path="url(#p69133392a9)"/>
   </g>
   <g id="matplotlib.axis_1"/>
   <g id="matplotlib.axis_2"/>
   <g id="line2d_1">
    <path d="M 437.953846 75.119332 
L 435.093497 71.372517 
L 430.573523 66.010397 
L 427.145217 62.322051 
L 422.916999 58.147753 
L 418.465983 54.135324 
L 415.31989 51.50498 
L 410.089233 47.462067 
L 406.259493 44.735345 
L 401.240856 41.427233 
L 396.424944 38.507444 
L 390.875573 35.420889 
L 385.273782 32.578043 
L 379.069517 29.719072 
L 372.962308 27.175585 
L 365.793707 24.502546 
L 361.328632 22.995487 
L 355.546403 21.211815 
L 346.296546 18.725561 
L 337.82473 16.814891 
L 331.794988 15.653474 
L 324.361843 14.435512 
L 316.534382 13.394762 
L 306.518617 12.40446 
L 299.12425 11.906714 
L 291.304066 11.586022 
L 281.569077 11.470248 
L 273.403875 11.606436 
L 265.581198 11.929894 
L 256.33398 12.54891 
L 249.010911 13.216736 
L 237.397782 14.590407 
L 225.801034 16.339964 
L 215.618627 18.183015 
L 208.059726 19.735525 
L 201.028148 21.320576 
L 190.554187 23.934181 
L 183.978426 25.73065 
L 173.388772 28.879541 
L 164.828149 31.660215 
L 154.408535 35.33665 
L 148.393059 37.609629 
L 136.148476 42.591932 
L 127.219361 46.541594 
L 117.603523 51.11482 
L 110.31679 54.817105 
L 103.71709 58.35991 
L 94.322788 63.741339 
L 85.706281 69.06539 
L 80.682606 72.361229 
L 72.784342 77.866017 
L 65.549426 83.305114 
L 60.123616 87.675624 
L 54.251762 92.738315 
L 49.008767 97.607597 
L 43.749991 102.897514 
L 40.035909 106.935991 
L 35.824645 111.897639 
L 33.353704 115.044284 
L 29.987803 119.691216 
L 27.964339 122.738425 
L 25.05351 127.574835 
L 22.983362 131.463581 
L 20.773053 136.24631 
L 19.237036 140.182954 
L 18.079504 143.721969 
L 17.024382 147.756412 
L 16.504496 150.317312 
L 16.176107 152.353758 
L 15.727996 156.800897 
L 15.646154 160.518324 
L 15.77218 163.382957 
L 16.137492 166.739611 
L 16.793753 170.305996 
L 17.604918 173.425884 
L 18.900064 177.206819 
L 20.335575 180.528023 
L 21.681168 183.157989 
L 23.62253 186.421663 
L 26.300449 190.239523 
L 28.721788 193.22387 
L 31.31299 196.063148 
L 34.194646 198.892535 
L 38.564268 202.682574 
L 41.950845 205.297567 
L 45.603547 207.867494 
L 50.197981 210.797401 
L 54.681164 213.387681 
L 59.742584 216.047066 
L 66.406198 219.191893 
L 71.587193 221.401019 
L 76.514205 223.337249 
L 80.702438 224.870841 
L 80.702438 224.870841 
" clip-path="url(#p69133392a9)" style="fill: none; stroke: #000000; stroke-width: 2; stroke-linecap: square"/>
   </g>
   <g id="patch_3">
    <path d="M 181.152842 26.539793 
Q 180.12585 26.840953 181.244571 26.512894 
" clip-path="url(#p69133392a9)" style="fill: none; stroke: #000000; stroke-width: 2; stroke-linecap: round"/>
    <path d="M 192.247465 28.496907 
L 181.244571 26.512894 
L 189.433518 18.900986 
L 192.247465 28.496907 
z
" clip-path="url(#p69133392a9)" style="stroke: #000000; stroke-width: 2; stroke-linecap: round"/>
   </g>
   <g id="text_1">
    <!-- $P_0$ -->
    <g transform="translate(374.994556 52.911958) scale(0.2 -0.2)">
     <defs>
      <path id="Cmmi10-50" d="M 313 0 
Q 250 0 250 84 
Q 253 100 262 139 
Q 272 178 289 201 
Q 306 225 331 225 
Q 722 225 878 269 
Q 959 297 997 441 
L 1875 3956 
Q 1888 4019 1888 4044 
Q 1888 4113 1813 4122 
Q 1691 4147 1350 4147 
Q 1288 4147 1288 4231 
Q 1291 4247 1300 4286 
Q 1309 4325 1326 4348 
Q 1344 4372 1369 4372 
L 3578 4372 
Q 3881 4372 4165 4264 
Q 4450 4156 4631 3934 
Q 4813 3713 4813 3397 
Q 4813 2991 4527 2672 
Q 4241 2353 3814 2175 
Q 3388 1997 2988 1997 
L 1947 1997 
L 1556 416 
Q 1544 353 1544 325 
Q 1544 300 1551 283 
Q 1559 266 1573 261 
Q 1588 256 1619 250 
Q 1741 225 2081 225 
Q 2144 225 2144 141 
Q 2122 50 2109 25 
Q 2097 0 2034 0 
L 313 0 
z
M 1978 2188 
L 2875 2188 
Q 3497 2188 3822 2522 
Q 3988 2688 4092 3000 
Q 4197 3313 4197 3566 
Q 4197 3881 3956 4014 
Q 3716 4147 3359 4147 
L 2747 4147 
Q 2572 4147 2515 4117 
Q 2459 4088 2413 3928 
L 1978 2188 
z
" transform="scale(0.015625)"/>
      <path id="Cmr10-30" d="M 1600 -141 
Q 816 -141 533 504 
Q 250 1150 250 2041 
Q 250 2597 351 3087 
Q 453 3578 754 3920 
Q 1056 4263 1600 4263 
Q 2022 4263 2290 4056 
Q 2559 3850 2700 3523 
Q 2841 3197 2892 2823 
Q 2944 2450 2944 2041 
Q 2944 1491 2842 1011 
Q 2741 531 2444 195 
Q 2147 -141 1600 -141 
z
M 1600 25 
Q 1956 25 2131 390 
Q 2306 756 2347 1200 
Q 2388 1644 2388 2144 
Q 2388 2625 2347 3031 
Q 2306 3438 2132 3767 
Q 1959 4097 1600 4097 
Q 1238 4097 1063 3765 
Q 888 3434 847 3029 
Q 806 2625 806 2144 
Q 806 1788 823 1472 
Q 841 1156 916 820 
Q 991 484 1158 254 
Q 1325 25 1600 25 
z
" transform="scale(0.015625)"/>
     </defs>
     <use xlink:href="#Cmmi10-50" transform="translate(0 0.6875)"/>
     <use xlink:href="#Cmr10-30" transform="translate(64.208984 -16.31875) scale(0.7)"/>
    </g>
   </g>
   <g id="text_2">
    <!-- $P_1$ -->
    <g transform="translate(322.260799 42.237779) scale(0.2 -0.2)">
     <defs>
      <path id="Cmr10-31" d="M 594 0 
L 594 225 
Q 1394 225 1394 428 
L 1394 3788 
Q 1063 3628 556 3628 
L 556 3853 
Q 1341 3853 1741 4263 
L 1831 4263 
Q 1853 4263 1873 4245 
Q 1894 4228 1894 4206 
L 1894 428 
Q 1894 225 2694 225 
L 2694 0 
L 594 0 
z
" transform="scale(0.015625)"/>
     </defs>
     <use xlink:href="#Cmmi10-50" transform="translate(0 0.6875)"/>
     <use xlink:href="#Cmr10-31" transform="translate(64.208984 -16.31875) scale(0.7)"/>
    </g>
   </g>
  </g>
 </g>
 <defs>
  <clipPath id="p69133392a9">
   <rect x="7.2" y="7.2" width="439.2" height="221.938897"/>
  </clipPath>
 </defs>
</svg>
