<?xml version="1.0" encoding="utf-8" standalone="no"?>
<!DOCTYPE svg PUBLIC "-//W3C//DTD SVG 1.1//EN"
  "http://www.w3.org/Graphics/SVG/1.1/DTD/svg11.dtd">
<svg xmlns:xlink="http://www.w3.org/1999/xlink" width="453.6pt" height="236.329219pt" viewBox="0 0 453.6 236.329219" xmlns="http://www.w3.org/2000/svg" version="1.1">
 <metadata>
  <rdf:RDF xmlns:dc="http://purl.org/dc/elements/1.1/" xmlns:cc="http://creativecommons.org/ns#" xmlns:rdf="http://www.w3.org/1999/02/22-rdf-syntax-ns#">
   <cc:Work>
    <dc:type rdf:resource="http://purl.org/dc/dcmitype/StillImage"/>
    <dc:date>2024-12-04T07:52:50.046577</dc:date>
    <dc:format>image/svg+xml</dc:format>
    <dc:creator>
     <cc:Agent>
      <dc:title>Matplotlib v3.6.2, https://matplotlib.org/</dc:title>
     </cc:Agent>
    </dc:creator>
   </cc:Work>
  </rdf:RDF>
 </metadata>
 <defs>
  <style type="text/css">*{stroke-linejoin: round; stroke-linecap: butt}</style>
 </defs>
 <g id="figure_1">
  <g id="patch_1">
   <path d="M 0 236.329219 
L 453.6 236.329219 
L 453.6 0 
L 0 0 
z
" style="fill: #ffffff"/>
  </g>
  <g id="axes_1">
   <g id="patch_2">
    <path d="M 7.2 229.129219 
L 446.4 229.129219 
L 446.4 7.2 
L 7.2 7.2 
z
" style="fill: #ffffff"/>
   </g>
   <g id="PathCollection_1">
    <path d="M 411.547686 51.279117 
C 412.273974 51.279117 412.970614 50.99056 413.484177 50.476996 
C 413.997741 49.963433 414.286299 49.266793 414.286299 48.540505 
C 414.286299 47.814216 413.997741 47.117576 413.484177 46.604013 
C 412.970614 46.090449 412.273974 45.801892 411.547686 45.801892 
C 410.821397 45.801892 410.124758 46.090449 409.611194 46.604013 
C 409.097631 47.117576 408.809073 47.814216 408.809073 48.540505 
C 408.809073 49.266793 409.097631 49.963433 409.611194 50.476996 
C 410.124758 50.99056 410.821397 51.279117 411.547686 51.279117 
z
" clip-path="url(#pff5a1267b5)"/>
   </g>
   <g id="matplotlib.axis_1"/>
   <g id="matplotlib.axis_2"/>
   <g id="line2d_1">
    <path d="M 437.953846 75.109285 
L 434.296434 70.370552 
L 431.997226 67.623161 
L 428.502934 63.73756 
L 424.64267 59.795346 
L 421.366742 56.698821 
L 416.039517 52.082626 
L 412.031825 48.908266 
L 407.449683 45.552962 
L 402.955465 42.515416 
L 397.638887 39.211255 
L 393.198561 36.668499 
L 386.596293 33.215785 
L 380.935593 30.538531 
L 372.71716 27.068631 
L 367.024487 24.928602 
L 359.915214 22.532222 
L 353.314336 20.561505 
L 348.936503 19.380861 
L 342.636385 17.848642 
L 336.780992 16.592172 
L 330.249483 15.370984 
L 322.02977 14.089886 
L 313.294548 13.023261 
L 304.163424 12.21468 
L 296.347011 11.75878 
L 288.384628 11.508584 
L 279.950107 11.470312 
L 269.652261 11.728024 
L 263.900934 12.013183 
L 252.978492 12.825303 
L 245.145953 13.621051 
L 235.932259 14.780432 
L 225.957486 16.303481 
L 219.441978 17.447094 
L 210.219162 19.265569 
L 201.783322 21.133381 
L 190.457136 23.949339 
L 179.120372 27.125232 
L 173.004685 28.98923 
L 160.928549 32.987518 
L 150.927529 36.62768 
L 139.561592 41.143308 
L 132.222884 44.283709 
L 123.480448 48.268425 
L 114.189263 52.812408 
L 108.23055 55.906153 
L 100.287242 60.265935 
L 91.790658 65.25437 
L 83.214133 70.670736 
L 76.502487 75.211561 
L 68.400456 81.101237 
L 62.446479 85.760059 
L 56.336763 90.886017 
L 50.226902 96.432037 
L 45.55292 101.020855 
L 40.744029 106.132339 
L 36.959391 110.503269 
L 33.155117 115.294178 
L 29.652326 120.169496 
L 26.441936 125.178612 
L 23.92856 129.618501 
L 21.729293 134.063761 
L 20.449481 137.009586 
L 18.768006 141.525266 
L 17.462896 145.928763 
L 16.587995 149.84547 
L 15.997425 153.708222 
L 15.659992 158.314613 
L 15.699671 162.21979 
L 16.036295 166.001831 
L 16.606747 169.43025 
L 17.682156 173.679077 
L 18.401245 175.862773 
L 19.505 178.682324 
L 20.786222 181.444377 
L 22.640793 184.829071 
L 25.043822 188.520745 
L 26.719662 190.775844 
L 29.787527 194.422513 
L 32.240836 196.999776 
L 35.871155 200.401623 
L 39.900506 203.735601 
L 44.031751 206.78189 
L 47.135981 208.870563 
L 52.601169 212.207096 
L 58.158029 215.233121 
L 63.028241 217.6351 
L 69.177232 220.387984 
L 75.272744 222.854427 
L 80.701115 224.861349 
L 80.701115 224.861349 
" clip-path="url(#pff5a1267b5)" style="fill: none; stroke: #000000; stroke-width: 2; stroke-linecap: square"/>
   </g>
   <g id="patch_3">
    <path d="M 181.151891 26.529566 
Q 180.124895 26.830727 181.243612 26.502669 
" clip-path="url(#pff5a1267b5)" style="fill: none; stroke: #000000; stroke-width: 2; stroke-linecap: round"/>
    <path d="M 192.246507 28.486683 
L 181.243612 26.502669 
L 189.432559 18.890762 
L 192.246507 28.486683 
z
" clip-path="url(#pff5a1267b5)" style="stroke: #000000; stroke-width: 2; stroke-linecap: round"/>
   </g>
   <g id="text_1">
    <!-- $P$ -->
    <g transform="translate(414.513093 35.12844) scale(0.2 -0.2)">
     <defs>
      <path id="Cmmi10-50" d="M 313 0 
Q 250 0 250 84 
Q 253 100 262 139 
Q 272 178 289 201 
Q 306 225 331 225 
Q 722 225 878 269 
Q 959 297 997 441 
L 1875 3956 
Q 1888 4019 1888 4044 
Q 1888 4113 1813 4122 
Q 1691 4147 1350 4147 
Q 1288 4147 1288 4231 
Q 1291 4247 1300 4286 
Q 1309 4325 1326 4348 
Q 1344 4372 1369 4372 
L 3578 4372 
Q 3881 4372 4165 4264 
Q 4450 4156 4631 3934 
Q 4813 3713 4813 3397 
Q 4813 2991 4527 2672 
Q 4241 2353 3814 2175 
Q 3388 1997 2988 1997 
L 1947 1997 
L 1556 416 
Q 1544 353 1544 325 
Q 1544 300 1551 283 
Q 1559 266 1573 261 
Q 1588 256 1619 250 
Q 1741 225 2081 225 
Q 2144 225 2144 141 
Q 2122 50 2109 25 
Q 2097 0 2034 0 
L 313 0 
z
M 1978 2188 
L 2875 2188 
Q 3497 2188 3822 2522 
Q 3988 2688 4092 3000 
Q 4197 3313 4197 3566 
Q 4197 3881 3956 4014 
Q 3716 4147 3359 4147 
L 2747 4147 
Q 2572 4147 2515 4117 
Q 2459 4088 2413 3928 
L 1978 2188 
z
" transform="scale(0.015625)"/>
     </defs>
     <use xlink:href="#Cmmi10-50" transform="translate(0 0.6875)"/>
    </g>
   </g>
  </g>
 </g>
 <defs>
  <clipPath id="pff5a1267b5">
   <rect x="7.2" y="7.2" width="439.2" height="221.929219"/>
  </clipPath>
 </defs>
</svg>
