<?xml version="1.0" encoding="utf-8" standalone="no"?>
<!DOCTYPE svg PUBLIC "-//W3C//DTD SVG 1.1//EN"
  "http://www.w3.org/Graphics/SVG/1.1/DTD/svg11.dtd">
<svg xmlns:xlink="http://www.w3.org/1999/xlink" width="453.6pt" height="236.33381pt" viewBox="0 0 453.6 236.33381" xmlns="http://www.w3.org/2000/svg" version="1.1">
 <metadata>
  <rdf:RDF xmlns:dc="http://purl.org/dc/elements/1.1/" xmlns:cc="http://creativecommons.org/ns#" xmlns:rdf="http://www.w3.org/1999/02/22-rdf-syntax-ns#">
   <cc:Work>
    <dc:type rdf:resource="http://purl.org/dc/dcmitype/StillImage"/>
    <dc:date>2024-11-20T07:37:29.222677</dc:date>
    <dc:format>image/svg+xml</dc:format>
    <dc:creator>
     <cc:Agent>
      <dc:title>Matplotlib v3.6.2, https://matplotlib.org/</dc:title>
     </cc:Agent>
    </dc:creator>
   </cc:Work>
  </rdf:RDF>
 </metadata>
 <defs>
  <style type="text/css">*{stroke-linejoin: round; stroke-linecap: butt}</style>
 </defs>
 <g id="figure_1">
  <g id="patch_1">
   <path d="M 0 236.33381 
L 453.6 236.33381 
L 453.6 0 
L 0 0 
z
" style="fill: #ffffff"/>
  </g>
  <g id="axes_1">
   <g id="patch_2">
    <path d="M 7.2 229.13381 
L 446.4 229.13381 
L 446.4 7.2 
L 7.2 7.2 
z
" style="fill: #ffffff"/>
   </g>
   <g id="PathCollection_1">
    <path d="M 20.707877 139.145234 
C 21.434165 139.145234 22.130805 138.856676 22.644368 138.343113 
C 23.157932 137.829549 23.446489 137.13291 23.446489 136.406621 
C 23.446489 135.680332 23.157932 134.983693 22.644368 134.470129 
C 22.130805 133.956566 21.434165 133.668008 20.707877 133.668008 
C 19.981588 133.668008 19.284949 133.956566 18.771385 134.470129 
C 18.257821 134.983693 17.969264 135.680332 17.969264 136.406621 
C 17.969264 137.13291 18.257821 137.829549 18.771385 138.343113 
C 19.284949 138.856676 19.981588 139.145234 20.707877 139.145234 
z
" clip-path="url(#p7122b053ef)"/>
   </g>
   <g id="matplotlib.axis_1"/>
   <g id="matplotlib.axis_2"/>
   <g id="line2d_1">
    <path d="M 437.953846 75.115828 
L 434.044069 70.067434 
L 430.607689 66.045186 
L 426.867392 62.032237 
L 422.678118 57.919533 
L 417.617002 53.406229 
L 412.889693 49.574616 
L 408.237602 46.117179 
L 402.343448 42.126386 
L 396.198339 38.372394 
L 390.053863 34.984023 
L 386.295036 33.073745 
L 379.920034 30.090715 
L 372.72065 27.076854 
L 364.314767 23.987178 
L 357.502311 21.791394 
L 351.765971 20.139709 
L 346.30753 18.725092 
L 337.156446 16.675123 
L 330.157238 15.362157 
L 321.167882 13.978584 
L 313.368204 13.038244 
L 304.65944 12.258109 
L 296.563222 11.775869 
L 287.64437 11.503388 
L 280.46457 11.473549 
L 270.823391 11.689722 
L 262.841951 12.084059 
L 252.432069 12.882714 
L 241.357332 14.076486 
L 234.611895 14.973886 
L 223.225077 16.776671 
L 212.870593 18.726792 
L 203.267883 20.798519 
L 192.678941 23.377086 
L 183.657293 25.81918 
L 176.67766 27.86522 
L 168.734105 30.362864 
L 161.558885 32.776636 
L 151.666254 36.356872 
L 140.92951 40.586493 
L 131.056681 44.808462 
L 120.68314 49.610899 
L 114.404486 52.712446 
L 107.833875 56.126542 
L 98.092419 61.530401 
L 92.827088 64.6362 
L 86.886142 68.311395 
L 78.49462 73.843804 
L 72.879351 77.796345 
L 67.767253 81.592771 
L 61.261729 86.735484 
L 56.453772 90.795023 
L 52.006419 94.779256 
L 46.899907 99.675129 
L 42.075566 104.683999 
L 37.401886 109.986345 
L 34.173252 113.97981 
L 30.968285 118.290172 
L 27.706462 123.14577 
L 24.867586 127.909666 
L 23.038615 131.357634 
L 21.019658 135.675185 
L 19.372637 139.813953 
L 18.327852 142.913682 
L 17.276281 146.699481 
L 16.468401 150.539566 
L 15.983706 153.882238 
L 15.674393 158.04493 
L 15.700244 162.118388 
L 15.933616 165.098058 
L 16.400811 168.333113 
L 16.980177 171.084086 
L 17.57579 173.308623 
L 19.048642 177.56879 
L 20.324179 180.490785 
L 21.894303 183.531138 
L 23.720718 186.562937 
L 25.660658 189.373922 
L 27.999234 192.361587 
L 30.831189 195.54967 
L 33.843008 198.554573 
L 37.316243 201.644722 
L 40.113677 203.901811 
L 44.910723 207.390355 
L 49.195933 210.176776 
L 52.887861 212.373253 
L 58.770765 215.549278 
L 65.367055 218.718683 
L 71.255212 221.258574 
L 75.850231 223.078616 
L 80.705983 224.865852 
L 80.705983 224.865852 
" clip-path="url(#p7122b053ef)" style="fill: none; stroke: #000000; stroke-width: 2; stroke-linecap: square"/>
   </g>
   <g id="patch_3">
    <path d="M 181.155391 26.536772 
Q 180.128408 26.837928 181.24714 26.509867 
" clip-path="url(#p7122b053ef)" style="fill: none; stroke: #000000; stroke-width: 2; stroke-linecap: round"/>
    <path d="M 192.250034 28.49388 
L 181.24714 26.509867 
L 189.436087 18.897959 
L 192.250034 28.49388 
z
" clip-path="url(#p7122b053ef)" style="stroke: #000000; stroke-width: 2; stroke-linecap: round"/>
   </g>
   <g id="patch_4">
    <path d="M 20.707877 136.406621 
Q 52.258804 117.476065 81.892319 99.695956 
" clip-path="url(#p7122b053ef)" style="fill: none; stroke: #ff0000; stroke-width: 2; stroke-linecap: round"/>
    <path d="M 70.744911 100.553449 
L 81.892319 99.695956 
L 75.889868 109.128378 
L 70.744911 100.553449 
z
" clip-path="url(#p7122b053ef)" style="fill: #ff0000; stroke: #ff0000; stroke-width: 2; stroke-linecap: round"/>
   </g>
   <g id="text_1">
    <!-- $Q$ -->
    <g transform="translate(31.638433 151.390649) scale(0.2 -0.2)">
     <defs>
      <path id="Cmmi10-51" d="M 1947 -141 
Q 1466 -141 1094 79 
Q 722 300 520 692 
Q 319 1084 319 1563 
Q 319 2259 714 2950 
Q 1109 3641 1756 4077 
Q 2403 4513 3109 4513 
Q 3475 4513 3778 4381 
Q 4081 4250 4290 4017 
Q 4500 3784 4614 3471 
Q 4728 3159 4728 2791 
Q 4728 2366 4581 1936 
Q 4434 1506 4171 1136 
Q 3909 766 3559 484 
Q 3209 203 2809 38 
Q 2850 -256 2934 -425 
Q 3019 -594 3256 -594 
Q 3506 -594 3726 -412 
Q 3947 -231 4006 13 
Q 4019 72 4078 72 
Q 4147 72 4147 -13 
Q 4100 -219 4008 -430 
Q 3916 -641 3786 -823 
Q 3656 -1006 3478 -1123 
Q 3300 -1241 3084 -1241 
Q 2547 -1241 2547 -550 
Q 2547 -509 2562 -332 
Q 2578 -156 2578 -44 
Q 2269 -141 1947 -141 
z
M 1709 300 
Q 1709 44 1991 44 
Q 2275 44 2591 184 
L 2591 244 
Q 2591 503 2509 648 
Q 2428 794 2194 794 
Q 2078 794 1964 723 
Q 1850 653 1779 539 
Q 1709 425 1709 300 
z
M 1544 288 
Q 1544 456 1637 612 
Q 1731 769 1881 864 
Q 2031 959 2203 959 
Q 2481 959 2607 771 
Q 2734 584 2778 281 
Q 3188 525 3500 978 
Q 3813 1431 3977 1973 
Q 4141 2516 4141 3003 
Q 4141 3356 4023 3656 
Q 3906 3956 3664 4140 
Q 3422 4325 3066 4325 
Q 2722 4325 2403 4156 
Q 2084 3988 1813 3706 
Q 1550 3434 1342 3032 
Q 1134 2631 1021 2193 
Q 909 1756 909 1356 
Q 909 947 1068 612 
Q 1228 278 1569 128 
Q 1544 194 1544 288 
z
" transform="scale(0.015625)"/>
     </defs>
     <use xlink:href="#Cmmi10-51" transform="translate(0 0.484375)"/>
    </g>
   </g>
  </g>
 </g>
 <defs>
  <clipPath id="p7122b053ef">
   <rect x="7.2" y="7.2" width="439.2" height="221.93381"/>
  </clipPath>
 </defs>
</svg>
