<?xml version="1.0" encoding="utf-8" standalone="no"?>
<!DOCTYPE svg PUBLIC "-//W3C//DTD SVG 1.1//EN"
  "http://www.w3.org/Graphics/SVG/1.1/DTD/svg11.dtd">
<svg xmlns:xlink="http://www.w3.org/1999/xlink" width="453.6pt" height="236.335941pt" viewBox="0 0 453.6 236.335941" xmlns="http://www.w3.org/2000/svg" version="1.1">
 <metadata>
  <rdf:RDF xmlns:dc="http://purl.org/dc/elements/1.1/" xmlns:cc="http://creativecommons.org/ns#" xmlns:rdf="http://www.w3.org/1999/02/22-rdf-syntax-ns#">
   <cc:Work>
    <dc:type rdf:resource="http://purl.org/dc/dcmitype/StillImage"/>
    <dc:date>2024-09-10T13:37:37.581830</dc:date>
    <dc:format>image/svg+xml</dc:format>
    <dc:creator>
     <cc:Agent>
      <dc:title>Matplotlib v3.8.0, https://matplotlib.org/</dc:title>
     </cc:Agent>
    </dc:creator>
   </cc:Work>
  </rdf:RDF>
 </metadata>
 <defs>
  <style type="text/css">*{stroke-linejoin: round; stroke-linecap: butt}</style>
 </defs>
 <g id="figure_1">
  <g id="patch_1">
   <path d="M 0 236.335941 
L 453.6 236.335941 
L 453.6 0 
L 0 0 
z
" style="fill: #ffffff"/>
  </g>
  <g id="axes_1">
   <g id="patch_2">
    <path d="M 7.2 229.135941 
L 446.4 229.135941 
L 446.4 7.2 
L 7.2 7.2 
z
" style="fill: #ffffff"/>
   </g>
   <g id="PathCollection_1">
    <path d="M 411.548126 51.288652 
C 412.274415 51.288652 412.971054 51.000094 413.484618 50.486531 
C 413.998182 49.972967 414.286739 49.276328 414.286739 48.550039 
C 414.286739 47.82375 413.998182 47.127111 413.484618 46.613547 
C 412.971054 46.099984 412.274415 45.811426 411.548126 45.811426 
C 410.821838 45.811426 410.125198 46.099984 409.611635 46.613547 
C 409.098071 47.127111 408.809513 47.82375 408.809513 48.550039 
C 408.809513 49.276328 409.098071 49.972967 409.611635 50.486531 
C 410.125198 51.000094 410.821838 51.288652 411.548126 51.288652 
z
" clip-path="url(#p8f3e441249)"/>
   </g>
   <g id="matplotlib.axis_1"/>
   <g id="matplotlib.axis_2"/>
   <g id="line2d_1">
    <path d="M 437.953846 75.118376 
L 434.986898 71.237662 
L 430.773035 66.23346 
L 426.173648 61.327538 
L 421.755342 57.06433 
L 416.872683 52.782396 
L 411.73112 48.688663 
L 406.431372 44.852965 
L 400.832817 41.169739 
L 396.028886 38.276843 
L 389.537143 34.71699 
L 386.210562 33.034748 
L 378.688594 29.55213 
L 373.08839 27.224868 
L 367.105984 24.967314 
L 358.114193 21.980611 
L 351.487767 20.066625 
L 345.754286 18.592581 
L 338.463334 16.946873 
L 333.411192 15.948732 
L 323.911398 14.368637 
L 320.152652 13.84551 
L 310.068065 12.712595 
L 302.98892 12.142522 
L 296.085816 11.757235 
L 288.016509 11.512216 
L 279.359098 11.48634 
L 271.702121 11.660864 
L 260.895422 12.211949 
L 249.493081 13.168098 
L 239.892434 14.26331 
L 229.444815 15.750195 
L 220.196747 17.319342 
L 210.865828 19.141264 
L 200.885076 21.354704 
L 191.389078 23.715261 
L 183.431224 25.886216 
L 171.708027 29.409459 
L 163.908843 31.972366 
L 154.171806 35.424906 
L 143.130887 39.692272 
L 133.235134 43.851523 
L 127.033194 46.628178 
L 117.327813 51.252493 
L 111.852111 54.020763 
L 105.404779 57.437674 
L 95.622754 62.973347 
L 87.469954 67.945032 
L 79.239182 73.338807 
L 72.71004 77.922282 
L 66.08876 82.887786 
L 59.93655 87.834248 
L 55.016882 92.060072 
L 49.507072 97.132369 
L 45.956379 100.626464 
L 41.864784 104.916519 
L 37.624214 109.726132 
L 33.355619 115.047196 
L 29.731308 120.071878 
L 27.062952 124.179014 
L 24.951713 127.763882 
L 22.878794 131.682116 
L 20.910218 135.934919 
L 19.294025 140.037308 
L 18.378176 142.758809 
L 17.295964 146.626808 
L 16.490774 150.422653 
L 15.993806 153.807694 
L 15.745561 156.598605 
L 15.646154 159.827715 
L 15.74505 162.90485 
L 16.044585 166.019098 
L 16.484219 168.780042 
L 17.354403 172.528604 
L 18.228611 175.356477 
L 19.725361 179.181506 
L 20.761211 181.387753 
L 22.709162 184.939163 
L 25.157251 188.678084 
L 28.05072 192.424041 
L 30.815466 195.533899 
L 33.688225 198.409233 
L 37.382163 201.701233 
L 40.141691 203.924719 
L 43.518886 206.423551 
L 48.243676 209.582467 
L 53.809567 212.897092 
L 57.367289 214.825718 
L 64.032649 218.108681 
L 70.651208 221.010886 
L 75.269945 222.857643 
L 80.707074 224.867942 
L 80.707074 224.867942 
" clip-path="url(#p8f3e441249)" style="fill: none; stroke: #000000; stroke-width: 2; stroke-linecap: square"/>
   </g>
   <g id="patch_3">
    <path d="M 181.156175 26.539468 
Q 180.129196 26.840623 181.24793 26.512561 
" clip-path="url(#p8f3e441249)" style="fill: none; stroke: #000000; stroke-width: 2; stroke-linecap: round"/>
    <path d="M 192.250825 28.496574 
L 181.24793 26.512561 
L 189.436877 18.900653 
z
" clip-path="url(#p8f3e441249)" style="stroke: #000000; stroke-width: 2; stroke-linecap: round"/>
   </g>
   <g id="patch_4">
    <path d="M 411.548126 48.550039 
Q 376.053441 39.08479 342.719324 30.195692 
" clip-path="url(#p8f3e441249)" style="fill: none; stroke: #ff0000; stroke-width: 2; stroke-linecap: round"/>
    <path d="M 351.09336 37.603493 
L 342.719324 30.195692 
L 353.669986 27.941143 
z
" clip-path="url(#p8f3e441249)" style="fill: #ff0000; stroke: #ff0000; stroke-width: 2; stroke-linecap: round"/>
   </g>
   <g id="text_1">
    <!-- $P$ -->
    <g transform="translate(414.513376 35.13829) scale(0.2 -0.2)">
     <defs>
      <path id="Cmmi10-50" d="M 313 0 
Q 250 0 250 84 
Q 253 100 262 139 
Q 272 178 289 201 
Q 306 225 331 225 
Q 722 225 878 269 
Q 959 297 997 441 
L 1875 3956 
Q 1888 4019 1888 4044 
Q 1888 4113 1813 4122 
Q 1691 4147 1350 4147 
Q 1288 4147 1288 4231 
Q 1291 4247 1300 4286 
Q 1309 4325 1326 4348 
Q 1344 4372 1369 4372 
L 3578 4372 
Q 3881 4372 4165 4264 
Q 4450 4156 4631 3934 
Q 4813 3713 4813 3397 
Q 4813 2991 4527 2672 
Q 4241 2353 3814 2175 
Q 3388 1997 2988 1997 
L 1947 1997 
L 1556 416 
Q 1544 353 1544 325 
Q 1544 300 1551 283 
Q 1559 266 1573 261 
Q 1588 256 1619 250 
Q 1741 225 2081 225 
Q 2144 225 2144 141 
Q 2122 50 2109 25 
Q 2097 0 2034 0 
L 313 0 
z
M 1978 2188 
L 2875 2188 
Q 3497 2188 3822 2522 
Q 3988 2688 4092 3000 
Q 4197 3313 4197 3566 
Q 4197 3881 3956 4014 
Q 3716 4147 3359 4147 
L 2747 4147 
Q 2572 4147 2515 4117 
Q 2459 4088 2413 3928 
L 1978 2188 
z
" transform="scale(0.015625)"/>
     </defs>
     <use xlink:href="#Cmmi10-50" transform="translate(0 0.6875)"/>
    </g>
   </g>
  </g>
 </g>
 <defs>
  <clipPath id="p8f3e441249">
   <rect x="7.2" y="7.2" width="439.2" height="221.935941"/>
  </clipPath>
 </defs>
</svg>
