<?xml version="1.0" encoding="utf-8" standalone="no"?>
<!DOCTYPE svg PUBLIC "-//W3C//DTD SVG 1.1//EN"
  "http://www.w3.org/Graphics/SVG/1.1/DTD/svg11.dtd">
<svg xmlns:xlink="http://www.w3.org/1999/xlink" width="338.4pt" height="338.4pt" viewBox="0 0 338.4 338.4" xmlns="http://www.w3.org/2000/svg" version="1.1">
 <metadata>
  <rdf:RDF xmlns:dc="http://purl.org/dc/elements/1.1/" xmlns:cc="http://creativecommons.org/ns#" xmlns:rdf="http://www.w3.org/1999/02/22-rdf-syntax-ns#">
   <cc:Work>
    <dc:type rdf:resource="http://purl.org/dc/dcmitype/StillImage"/>
    <dc:date>2024-12-04T08:29:54.056574</dc:date>
    <dc:format>image/svg+xml</dc:format>
    <dc:creator>
     <cc:Agent>
      <dc:title>Matplotlib v3.6.2, https://matplotlib.org/</dc:title>
     </cc:Agent>
    </dc:creator>
   </cc:Work>
  </rdf:RDF>
 </metadata>
 <defs>
  <style type="text/css">*{stroke-linejoin: round; stroke-linecap: butt}</style>
 </defs>
 <g id="figure_1">
  <g id="patch_1">
   <path d="M -0 338.4 
L 338.4 338.4 
L 338.4 0 
L -0 0 
z
" style="fill: #ffffff"/>
  </g>
  <g id="axes_1">
   <g id="patch_2">
    <path d="M 7.2 331.2 
L 331.2 331.2 
L 331.2 7.2 
L 7.2 7.2 
z
" style="fill: #ffffff"/>
   </g>
   <g id="matplotlib.axis_1"/>
   <g id="matplotlib.axis_2"/>
   <g id="patch_3">
    <path d="M 117.276923 117.276923 
Q 221.123077 65.353846 320.969231 15.430769 
" clip-path="url(#p1facbe748c)" style="fill: none; stroke: #000000; stroke-width: 4; stroke-linecap: round"/>
    <path d="M 309.788891 15.430769 
L 320.969231 15.430769 
L 314.261027 24.375041 
L 309.788891 15.430769 
z
" clip-path="url(#p1facbe748c)" style="stroke: #000000; stroke-width: 4; stroke-linecap: round"/>
   </g>
   <g id="patch_4">
    <path d="M 117.276923 117.276923 
Q 65.353846 221.123077 15.430769 320.969231 
" clip-path="url(#p1facbe748c)" style="fill: none; stroke: #000000; stroke-width: 4; stroke-linecap: round"/>
    <path d="M 24.375041 314.261027 
L 15.430769 320.969231 
L 15.430769 309.788891 
L 24.375041 314.261027 
z
" clip-path="url(#p1facbe748c)" style="stroke: #000000; stroke-width: 4; stroke-linecap: round"/>
   </g>
   <g id="line2d_1">
    <path d="M 186.939041 82.445864 
L 185.720695 80.108881 
L 183.018029 75.514257 
L 180.68474 72.050138 
L 178.550734 69.198514 
L 176.374773 66.547667 
L 173.027922 62.890901 
L 170.09716 60.040257 
L 166.454369 56.881624 
L 162.969189 54.203711 
L 159.920352 52.103683 
L 155.782767 49.576751 
L 152.036168 47.578945 
L 147.478238 45.486298 
L 143.256924 43.853134 
L 139.318693 42.576363 
L 134.946946 41.423224 
L 130.779395 40.571665 
L 126.968153 39.997603 
L 121.435946 39.503432 
L 117.770281 39.39387 
L 113.58739 39.479747 
L 110.581985 39.680589 
L 106.422958 40.152318 
L 102.828398 40.744228 
L 99.03458 41.558826 
L 94.297404 42.859485 
L 90.031651 44.313176 
L 86.911219 45.555676 
L 82.756662 47.460271 
L 79.407306 49.21882 
L 76.329415 51.025018 
L 72.408007 53.615367 
L 69.743908 55.579064 
L 66.103822 58.562981 
L 62.440538 61.968839 
L 59.517668 65.028653 
L 57.366386 67.510057 
L 55.203852 70.234951 
L 53.254607 72.924287 
L 51.156626 76.117238 
L 48.690977 80.371893 
L 46.707777 84.322274 
L 44.599118 89.277818 
L 43.23866 93.103612 
L 42.230197 96.444203 
L 41.085925 101.123129 
L 40.365653 105.002159 
L 39.857418 108.777888 
L 39.496611 113.247488 
L 39.393938 116.77298 
L 39.479973 120.971227 
L 39.734739 124.572335 
L 40.239048 128.730267 
L 40.870962 132.381308 
L 41.981001 137.190169 
L 43.26819 141.540491 
L 44.5668 145.191996 
L 46.182517 149.082562 
L 48.113421 153.08786 
L 50.681837 157.663898 
L 52.987435 161.241398 
L 54.974561 164.014799 
L 58.000793 167.797747 
L 59.788541 169.823086 
L 63.388326 173.508875 
L 65.93193 175.840606 
L 69.82126 179.034298 
L 72.921937 181.297611 
L 76.81505 183.82653 
L 80.961168 186.1767 
L 82.445864 186.939041 
L 82.445864 186.939041 
" clip-path="url(#p1facbe748c)" style="fill: none; stroke: #000000; stroke-linecap: square"/>
   </g>
   <g id="patch_5">
    <path d="M 79.007739 185.111154 
Q 80.726802 186.025097 80.471487 185.889359 
" clip-path="url(#p1facbe748c)" style="fill: none; stroke: #000000; stroke-width: 2; stroke-linecap: round"/>
    <path d="M 73.988962 176.780194 
L 80.471487 185.889359 
L 69.29464 185.609879 
L 73.988962 176.780194 
z
" clip-path="url(#p1facbe748c)" style="stroke: #000000; stroke-width: 2; stroke-linecap: round"/>
   </g>
   <g id="line2d_2">
    <path d="M 94.056217 163.718335 
L 96.853454 165.014621 
L 100.40075 166.380901 
L 104.125833 167.506941 
L 107.374802 168.247051 
L 110.841411 168.799637 
L 114.25716 169.112113 
L 117.684119 169.198403 
L 121.114319 169.058004 
L 124.24438 168.730402 
L 127.936558 168.094027 
L 130.813012 167.404562 
L 134.155394 166.380112 
L 137.147067 165.247573 
L 140.311239 163.811063 
L 143.823468 161.90076 
L 146.367621 160.285494 
L 149.050514 158.343269 
L 151.262206 156.532579 
L 153.623056 154.357437 
L 156.013536 151.852648 
L 158.18649 149.252121 
L 160.170843 146.53641 
L 162.030789 143.603667 
L 163.66659 140.600833 
L 165.102062 137.494786 
L 166.385904 134.138533 
L 167.468178 130.575189 
L 168.230795 127.262356 
L 168.816962 123.57218 
L 169.105918 120.401223 
L 169.199995 117.299471 
L 169.086505 113.845729 
L 168.835767 111.137577 
L 168.344239 107.888889 
L 167.464936 103.966427 
L 166.53166 100.845951 
L 165.361572 97.684261 
L 163.887644 94.397968 
L 163.718335 94.056217 
L 163.718335 94.056217 
" clip-path="url(#p1facbe748c)" style="fill: none; stroke: #000000; stroke-linecap: square"/>
   </g>
   <g id="patch_6">
    <path d="M 163.01479 94.976887 
Q 162.902148 94.748759 163.779494 96.525606 
" clip-path="url(#p1facbe748c)" style="fill: none; stroke: #000000; stroke-width: 2; stroke-linecap: round"/>
    <path d="M 163.723593 107.705806 
L 163.779494 96.525606 
L 172.690113 103.278448 
L 163.723593 107.705806 
z
" clip-path="url(#p1facbe748c)" style="stroke: #000000; stroke-width: 2; stroke-linecap: round"/>
   </g>
   <g id="text_1">
    <!-- $\vec{v}$ -->
    <g transform="translate(69.613462 269.559976) scale(0.25 -0.25)">
     <defs>
      <path id="Cmmi10-7e" d="M 1281 3809 
Q 1231 3809 1198 3846 
Q 1166 3884 1166 3938 
Q 1166 3984 1198 4023 
Q 1231 4063 1281 4063 
L 3547 4063 
Q 3378 4291 3378 4441 
Q 3378 4497 3417 4533 
Q 3456 4569 3506 4569 
Q 3613 4569 3634 4469 
Q 3697 4194 3938 4044 
Q 4000 4003 4000 3938 
Q 4000 3859 3938 3828 
Q 3575 3647 3353 3347 
Q 3328 3303 3256 3303 
Q 3209 3303 3168 3340 
Q 3128 3378 3128 3431 
Q 3128 3547 3438 3809 
L 1281 3809 
z
" transform="scale(0.015625)"/>
      <path id="Cmmi10-76" d="M 684 722 
Q 684 866 718 1037 
Q 753 1209 787 1320 
Q 822 1431 944 1753 
Q 1066 2075 1069 2088 
Q 1153 2322 1153 2472 
Q 1153 2663 1013 2663 
Q 759 2663 595 2402 
Q 431 2141 353 1819 
Q 341 1778 300 1778 
L 225 1778 
Q 172 1778 172 1838 
L 172 1856 
Q 275 2238 487 2533 
Q 700 2828 1025 2828 
Q 1253 2828 1411 2678 
Q 1569 2528 1569 2297 
Q 1569 2178 1516 2047 
Q 1391 1722 1319 1526 
Q 1247 1331 1186 1089 
Q 1125 847 1125 641 
Q 1125 400 1236 248 
Q 1347 97 1581 97 
Q 2025 97 2381 781 
Q 2494 1003 2594 1303 
Q 2694 1603 2694 1791 
Q 2694 1984 2631 2092 
Q 2569 2200 2469 2317 
Q 2369 2434 2369 2503 
Q 2369 2628 2472 2731 
Q 2575 2834 2700 2834 
Q 2853 2834 2920 2693 
Q 2988 2553 2988 2375 
Q 2988 2163 2927 1869 
Q 2866 1575 2758 1259 
Q 2650 944 2559 763 
Q 2138 -72 1575 -72 
Q 1172 -72 928 129 
Q 684 331 684 722 
z
" transform="scale(0.015625)"/>
     </defs>
     <use xlink:href="#Cmmi10-7e" transform="translate(-10.121582 5.609375)"/>
     <use xlink:href="#Cmmi10-76" transform="translate(0 0.4375)"/>
    </g>
   </g>
   <g id="text_2">
    <!-- $\vec{u}$ -->
    <g transform="translate(213.873077 103.40613) scale(0.25 -0.25)">
     <defs>
      <path id="Cmmi10-75" d="M 678 697 
Q 678 906 734 1126 
Q 791 1347 892 1617 
Q 994 1888 1069 2088 
Q 1153 2322 1153 2472 
Q 1153 2663 1013 2663 
Q 759 2663 595 2402 
Q 431 2141 353 1819 
Q 341 1778 300 1778 
L 225 1778 
Q 172 1778 172 1838 
L 172 1856 
Q 275 2238 487 2533 
Q 700 2828 1025 2828 
Q 1253 2828 1411 2678 
Q 1569 2528 1569 2297 
Q 1569 2178 1516 2047 
Q 1488 1969 1388 1706 
Q 1288 1444 1234 1272 
Q 1181 1100 1147 934 
Q 1113 769 1113 603 
Q 1113 391 1203 244 
Q 1294 97 1497 97 
Q 1906 97 2216 603 
Q 2222 628 2226 651 
Q 2231 675 2234 697 
L 2694 2553 
Q 2716 2638 2794 2698 
Q 2872 2759 2963 2759 
Q 3041 2759 3098 2709 
Q 3156 2659 3156 2578 
Q 3156 2541 3150 2528 
L 2688 684 
Q 2644 494 2644 372 
Q 2644 97 2828 97 
Q 3034 97 3136 351 
Q 3238 606 3309 941 
Q 3322 978 3359 978 
L 3438 978 
Q 3463 978 3478 956 
Q 3494 934 3494 916 
Q 3425 641 3361 444 
Q 3297 247 3159 87 
Q 3022 -72 2816 -72 
Q 2613 -72 2452 39 
Q 2291 150 2234 341 
Q 2088 153 1894 40 
Q 1700 -72 1484 -72 
Q 1116 -72 897 129 
Q 678 331 678 697 
z
" transform="scale(0.015625)"/>
     </defs>
     <use xlink:href="#Cmmi10-7e" transform="translate(-4.924316 5.609375)"/>
     <use xlink:href="#Cmmi10-75" transform="translate(0 0.53125)"/>
    </g>
   </g>
   <g id="text_3">
    <!-- $2\pi -\theta$ -->
    <g transform="translate(10.471603 50.745041) scale(0.25 -0.25)">
     <defs>
      <path id="Cmr10-32" d="M 319 0 
L 319 172 
Q 319 188 331 206 
L 1325 1306 
Q 1550 1550 1690 1715 
Q 1831 1881 1968 2097 
Q 2106 2313 2186 2536 
Q 2266 2759 2266 3009 
Q 2266 3272 2169 3511 
Q 2072 3750 1880 3894 
Q 1688 4038 1416 4038 
Q 1138 4038 916 3870 
Q 694 3703 603 3438 
Q 628 3444 672 3444 
Q 816 3444 917 3347 
Q 1019 3250 1019 3097 
Q 1019 2950 917 2848 
Q 816 2747 672 2747 
Q 522 2747 420 2851 
Q 319 2956 319 3097 
Q 319 3338 409 3548 
Q 500 3759 670 3923 
Q 841 4088 1055 4175 
Q 1269 4263 1509 4263 
Q 1875 4263 2190 4108 
Q 2506 3953 2690 3670 
Q 2875 3388 2875 3009 
Q 2875 2731 2753 2481 
Q 2631 2231 2440 2026 
Q 2250 1822 1953 1562 
Q 1656 1303 1563 1216 
L 838 519 
L 1453 519 
Q 1906 519 2211 526 
Q 2516 534 2534 550 
Q 2609 631 2688 1141 
L 2875 1141 
L 2694 0 
L 319 0 
z
" transform="scale(0.015625)"/>
      <path id="Cmmi10-bc" d="M 647 109 
Q 647 144 672 213 
Q 850 584 1004 942 
Q 1159 1300 1282 1639 
Q 1406 1978 1509 2363 
L 1100 2363 
Q 866 2363 662 2216 
Q 459 2069 325 1844 
Q 313 1819 288 1819 
L 213 1819 
Q 153 1819 153 1881 
Q 153 1894 166 1919 
Q 375 2275 614 2517 
Q 853 2759 1153 2759 
L 3475 2759 
Q 3541 2759 3587 2715 
Q 3634 2672 3634 2597 
Q 3634 2503 3567 2433 
Q 3500 2363 3406 2363 
L 2591 2363 
Q 2488 1859 2478 1381 
Q 2478 766 2694 269 
Q 2713 231 2713 191 
Q 2713 122 2672 62 
Q 2631 3 2567 -34 
Q 2503 -72 2431 -72 
Q 2263 -72 2200 203 
Q 2138 478 2138 738 
Q 2138 1103 2200 1442 
Q 2263 1781 2400 2363 
L 1703 2363 
Q 1197 313 1094 103 
Q 1003 -72 844 -72 
Q 766 -72 706 -20 
Q 647 31 647 109 
z
" transform="scale(0.015625)"/>
      <path id="Cmsy10-a1" d="M 653 1472 
Q 600 1472 565 1512 
Q 531 1553 531 1600 
Q 531 1647 565 1687 
Q 600 1728 653 1728 
L 4325 1728 
Q 4375 1728 4408 1687 
Q 4441 1647 4441 1600 
Q 4441 1553 4408 1512 
Q 4375 1472 4325 1472 
L 653 1472 
z
" transform="scale(0.015625)"/>
      <path id="Cmmi10-b5" d="M 1031 -72 
Q 741 -72 566 140 
Q 391 353 323 653 
Q 256 953 256 1247 
L 256 1253 
Q 256 1572 317 1915 
Q 378 2259 493 2601 
Q 609 2944 744 3213 
Q 838 3400 986 3631 
Q 1134 3863 1317 4064 
Q 1500 4266 1711 4389 
Q 1922 4513 2138 4513 
L 2144 4513 
Q 2375 4513 2529 4384 
Q 2684 4256 2770 4056 
Q 2856 3856 2890 3628 
Q 2925 3400 2925 3194 
Q 2925 2709 2794 2204 
Q 2663 1700 2431 1228 
Q 2344 1050 2189 809 
Q 2034 569 1861 378 
Q 1688 188 1472 58 
Q 1256 -72 1038 -72 
L 1031 -72 
z
M 1044 97 
Q 1256 97 1451 323 
Q 1647 550 1794 873 
Q 1941 1197 2052 1536 
Q 2163 1875 2216 2113 
L 909 2113 
Q 809 1709 753 1417 
Q 697 1125 697 844 
Q 697 97 1044 97 
z
M 959 2338 
L 2272 2338 
Q 2341 2619 2381 2808 
Q 2422 2997 2450 3206 
Q 2478 3416 2478 3597 
Q 2478 4347 2138 4347 
Q 1731 4347 1436 3692 
Q 1141 3038 959 2338 
z
" transform="scale(0.015625)"/>
     </defs>
     <use xlink:href="#Cmr10-32" transform="translate(0 0.484375)"/>
     <use xlink:href="#Cmmi10-bc" transform="translate(50 0.484375)"/>
     <use xlink:href="#Cmsy10-a1" transform="translate(124.541016 0.484375)"/>
     <use xlink:href="#Cmmi10-b5" transform="translate(219.785156 0.484375)"/>
    </g>
   </g>
   <g id="text_4">
    <!-- $\theta$ -->
    <g transform="translate(184.832243 197.60568) scale(0.25 -0.25)">
     <use xlink:href="#Cmmi10-b5" transform="translate(0 0.484375)"/>
    </g>
   </g>
  </g>
 </g>
 <defs>
  <clipPath id="p1facbe748c">
   <rect x="7.2" y="7.2" width="324" height="324"/>
  </clipPath>
 </defs>
</svg>
