<?xml version="1.0" encoding="utf-8" standalone="no"?>
<!DOCTYPE svg PUBLIC "-//W3C//DTD SVG 1.1//EN"
  "http://www.w3.org/Graphics/SVG/1.1/DTD/svg11.dtd">
<svg xmlns:xlink="http://www.w3.org/1999/xlink" width="453.6pt" height="220.528199pt" viewBox="0 0 453.6 220.528199" xmlns="http://www.w3.org/2000/svg" version="1.1">
 <metadata>
  <rdf:RDF xmlns:dc="http://purl.org/dc/elements/1.1/" xmlns:cc="http://creativecommons.org/ns#" xmlns:rdf="http://www.w3.org/1999/02/22-rdf-syntax-ns#">
   <cc:Work>
    <dc:type rdf:resource="http://purl.org/dc/dcmitype/StillImage"/>
    <dc:date>2025-02-05T11:16:00.953573</dc:date>
    <dc:format>image/svg+xml</dc:format>
    <dc:creator>
     <cc:Agent>
      <dc:title>Matplotlib v3.6.2, https://matplotlib.org/</dc:title>
     </cc:Agent>
    </dc:creator>
   </cc:Work>
  </rdf:RDF>
 </metadata>
 <defs>
  <style type="text/css">*{stroke-linejoin: round; stroke-linecap: butt}</style>
 </defs>
 <g id="figure_1">
  <g id="patch_1">
   <path d="M 0 220.528199 
L 453.6 220.528199 
L 453.6 0 
L 0 0 
z
" style="fill: #ffffff"/>
  </g>
  <g id="axes_1">
   <g id="patch_2">
    <path d="M 7.2 213.328199 
L 446.4 213.328199 
L 446.4 7.2 
L 7.2 7.2 
z
" style="fill: #ffffff"/>
   </g>
   <g id="PathCollection_1">
    <path d="M 206.319644 65.498835 
C 207.045933 65.498835 207.742572 65.210278 208.256136 64.696714 
C 208.769699 64.18315 209.058257 63.486511 209.058257 62.760222 
C 209.058257 62.033934 208.769699 61.337294 208.256136 60.823731 
C 207.742572 60.310167 207.045933 60.02161 206.319644 60.02161 
C 205.593355 60.02161 204.896716 60.310167 204.383152 60.823731 
C 203.869589 61.337294 203.581031 62.033934 203.581031 62.760222 
C 203.581031 63.486511 203.869589 64.18315 204.383152 64.696714 
C 204.896716 65.210278 205.593355 65.498835 206.319644 65.498835 
z
" clip-path="url(#pd574c613e9)"/>
   </g>
   <g id="matplotlib.axis_1"/>
   <g id="matplotlib.axis_2"/>
   <g id="line2d_1">
    <path d="M 368.948264 209.364195 
L 383.351401 201.400271 
L 392.979909 195.829234 
L 401.018833 190.921403 
L 407.83088 186.489277 
L 413.760573 182.334086 
L 418.006472 179.117429 
L 422.273649 175.595048 
L 425.525356 172.633664 
L 428.631015 169.473148 
L 430.897525 166.858374 
L 433.000759 164.061482 
L 434.669662 161.41541 
L 435.822359 159.187023 
L 436.792276 156.795498 
L 437.418176 154.653561 
L 437.7783 152.733453 
L 437.953846 150.308889 
L 437.840222 148.144563 
L 437.448639 145.91138 
L 436.851583 143.898938 
L 435.894631 141.629689 
L 434.734539 139.52751 
L 433.348632 137.482127 
L 431.688386 135.41757 
L 429.426807 133.020972 
L 426.92107 130.727174 
L 423.744559 128.181642 
L 420.579985 125.927321 
L 416.393171 123.252701 
L 411.269949 120.325834 
L 406.761625 117.98423 
L 400.586305 115.045057 
L 393.78458 112.084232 
L 387.112427 109.398466 
L 379.65622 106.60017 
L 370.156564 103.282361 
L 360.726315 100.207955 
L 349.239703 96.697892 
L 336.302654 92.991005 
L 321.789142 89.078379 
L 305.57394 84.949358 
L 288.63503 80.850402 
L 266.979047 75.854419 
L 240.867689 70.096362 
L 207.167548 62.937831 
L 119.964024 44.572197 
L 98.827946 39.827582 
L 83.373133 36.165082 
L 69.188407 32.582567 
L 58.053585 29.55113 
L 48.707131 26.786546 
L 41.077965 24.3108 
L 34.406986 21.903521 
L 29.406208 19.87228 
L 25.45021 18.050363 
L 22.417935 16.450702 
L 19.815254 14.845607 
L 17.822847 13.361815 
L 16.266998 11.898095 
L 15.646154 11.164004 
L 15.646154 11.164004 
" clip-path="url(#pd574c613e9)" style="fill: none; stroke: #000000; stroke-width: 2; stroke-linecap: square"/>
   </g>
   <g id="patch_3">
    <path d="M 206.319644 62.760222 
Q 155.254786 52.066321 106.378519 41.83075 
" clip-path="url(#pd574c613e9)" style="fill: none; stroke: #ff0000; stroke-width: 2; stroke-linecap: round"/>
    <path d="M 115.14134 48.774306 
L 106.378519 41.83075 
L 117.191057 38.986627 
L 115.14134 48.774306 
z
" clip-path="url(#pd574c613e9)" style="fill: #ff0000; stroke: #ff0000; stroke-width: 2; stroke-linecap: round"/>
   </g>
   <g id="patch_4">
    <path d="M 206.319644 62.760222 
Q 195.625743 113.82508 185.390172 162.701347 
" clip-path="url(#pd574c613e9)" style="fill: none; stroke: #800080; stroke-width: 2; stroke-linecap: round"/>
    <path d="M 192.333728 153.938526 
L 185.390172 162.701347 
L 182.546048 151.88881 
L 192.333728 153.938526 
z
" clip-path="url(#pd574c613e9)" style="fill: #800080; stroke: #800080; stroke-width: 2; stroke-linecap: round"/>
   </g>
   <g id="patch_5">
    <path d="M 206.319644 62.760222 
Q 269.346945 75.959275 330.185654 88.699997 
" clip-path="url(#pd574c613e9)" style="fill: none; stroke: #ffa500; stroke-width: 2; stroke-linecap: round"/>
    <path d="M 321.422833 81.756441 
L 330.185654 88.699997 
L 319.373117 91.54412 
L 321.422833 81.756441 
z
" clip-path="url(#pd574c613e9)" style="fill: #ffa500; stroke: #ffa500; stroke-width: 2; stroke-linecap: round"/>
   </g>
   <g id="patch_6">
    <path d="M 206.319644 62.760222 
Q 202.518864 80.909474 199.176414 96.870133 
" clip-path="url(#pd574c613e9)" style="fill: none; stroke: #0000ff; stroke-width: 2; stroke-linecap: round"/>
    <path d="M 206.11997 88.107312 
L 199.176414 96.870133 
L 196.332291 86.057596 
L 206.11997 88.107312 
z
" clip-path="url(#pd574c613e9)" style="fill: #0000ff; stroke: #0000ff; stroke-width: 2; stroke-linecap: round"/>
   </g>
   <g id="patch_7">
    <path d="M 206.319644 62.760222 
Q 265.546165 94.108526 322.79638 124.410781 
" clip-path="url(#pd574c613e9)" style="fill: none; stroke: #008000; stroke-width: 2; stroke-linecap: round"/>
    <path d="M 316.29711 115.313557 
L 322.79638 124.410781 
L 311.619039 124.151863 
L 316.29711 115.313557 
z
" clip-path="url(#pd574c613e9)" style="fill: #008000; stroke: #008000; stroke-width: 2; stroke-linecap: round"/>
   </g>
  </g>
 </g>
 <defs>
  <clipPath id="pd574c613e9">
   <rect x="7.2" y="7.2" width="439.2" height="206.128199"/>
  </clipPath>
 </defs>
</svg>
