<?xml version="1.0" encoding="utf-8" standalone="no"?>
<!DOCTYPE svg PUBLIC "-//W3C//DTD SVG 1.1//EN"
  "http://www.w3.org/Graphics/SVG/1.1/DTD/svg11.dtd">
<svg xmlns:xlink="http://www.w3.org/1999/xlink" width="452.644161pt" height="225.137852pt" viewBox="0 0 452.644161 225.137852" xmlns="http://www.w3.org/2000/svg" version="1.1">
 <metadata>
  <rdf:RDF xmlns:dc="http://purl.org/dc/elements/1.1/" xmlns:cc="http://creativecommons.org/ns#" xmlns:rdf="http://www.w3.org/1999/02/22-rdf-syntax-ns#">
   <cc:Work>
    <dc:type rdf:resource="http://purl.org/dc/dcmitype/StillImage"/>
    <dc:date>2024-11-21T16:08:35.386985</dc:date>
    <dc:format>image/svg+xml</dc:format>
    <dc:creator>
     <cc:Agent>
      <dc:title>Matplotlib v3.8.0, https://matplotlib.org/</dc:title>
     </cc:Agent>
    </dc:creator>
   </cc:Work>
  </rdf:RDF>
 </metadata>
 <defs>
  <style type="text/css">*{stroke-linejoin: round; stroke-linecap: butt}</style>
 </defs>
 <g id="figure_1">
  <g id="patch_1">
   <path d="M 0 225.137852 
L 452.644161 225.137852 
L 452.644161 0 
L 0 0 
z
" style="fill: #ffffff"/>
  </g>
  <g id="axes_1">
   <g id="patch_2">
    <path d="M 10.944232 217.937852 
L 445.444161 217.937852 
L 445.444161 7.2 
L 10.944232 7.2 
z
" style="fill: #ffffff"/>
   </g>
   <g id="PathCollection_1">
    <path d="M 40.896684 133.425163 
C 41.834319 133.425163 42.733677 133.052637 43.396684 132.389629 
C 44.059692 131.726622 44.432218 130.827264 44.432218 129.889629 
C 44.432218 128.951995 44.059692 128.052637 43.396684 127.389629 
C 42.733677 126.726622 41.834319 126.354095 40.896684 126.354095 
C 39.95905 126.354095 39.059692 126.726622 38.396684 127.389629 
C 37.733677 128.052637 37.361151 128.951995 37.361151 129.889629 
C 37.361151 130.827264 37.733677 131.726622 38.396684 132.389629 
C 39.059692 133.052637 39.95905 133.425163 40.896684 133.425163 
z
" clip-path="url(#pae3a74afb2)"/>
   </g>
   <g id="PathCollection_2">
    <path d="M 37.275319 166.008814 
C 38.212954 166.008814 39.112311 165.636288 39.775319 164.97328 
C 40.438327 164.310273 40.810853 163.410915 40.810853 162.47328 
C 40.810853 161.535646 40.438327 160.636288 39.775319 159.97328 
C 39.112311 159.310273 38.212954 158.937747 37.275319 158.937747 
C 36.337685 158.937747 35.438327 159.310273 34.775319 159.97328 
C 34.112311 160.636288 33.739785 161.535646 33.739785 162.47328 
C 33.739785 163.410915 34.112311 164.310273 34.775319 164.97328 
C 35.438327 165.636288 36.337685 166.008814 37.275319 166.008814 
z
" clip-path="url(#pae3a74afb2)"/>
   </g>
   <g id="matplotlib.axis_1"/>
   <g id="matplotlib.axis_2"/>
   <g id="line2d_1">
    <path d="M 437.088394 71.691574 
L 433.071453 66.527167 
L 428.18613 60.970272 
L 423.961308 56.675982 
L 420.607231 53.547615 
L 417.027544 50.446374 
L 412.300373 46.680188 
L 408.623844 43.980035 
L 402.239452 39.706945 
L 396.215052 36.099431 
L 391.005577 33.272101 
L 384.957001 30.293165 
L 379.371549 27.804919 
L 373.157337 25.305989 
L 369.077806 23.808243 
L 362.915778 21.745193 
L 356.017617 19.700767 
L 352.976431 18.883031 
L 345.106294 16.989818 
L 339.276313 15.783728 
L 331.533342 14.424023 
L 322.87699 13.211678 
L 315.964312 12.463646 
L 306.798861 11.756904 
L 302.68894 11.541259 
L 296.026402 11.320014 
L 284.409118 11.300051 
L 279.002303 11.443751 
L 270.072224 11.886702 
L 264.001216 12.330711 
L 255.024228 13.194203 
L 247.18007 14.147106 
L 241.199214 14.996084 
L 228.57997 17.130496 
L 221.308922 18.570083 
L 212.224122 20.583603 
L 202.475144 23.010562 
L 193.069233 25.615773 
L 184.101678 28.344541 
L 174.578406 31.510318 
L 164.482345 35.177602 
L 157.993138 37.710076 
L 148.529636 41.660609 
L 141.897321 44.619925 
L 132.509633 49.094552 
L 126.039061 52.386784 
L 118.167972 56.639273 
L 109.965098 61.386911 
L 101.831017 66.450149 
L 96.263193 70.144988 
L 89.253416 75.097422 
L 84.091432 78.987581 
L 79.984864 82.250408 
L 76.501951 85.148913 
L 70.243946 90.707155 
L 64.942653 95.839117 
L 61.041254 99.924903 
L 57.660344 103.727806 
L 53.746822 108.511916 
L 50.486765 112.902836 
L 47.964556 116.636922 
L 45.072311 121.41923 
L 43.46 124.406838 
L 41.752939 127.931192 
L 40.283729 131.395403 
L 38.879039 135.305221 
L 37.968828 138.374723 
L 37.039447 142.397114 
L 36.554981 145.333182 
L 36.197978 148.836914 
L 36.091548 152.555695 
L 36.274413 156.240869 
L 36.799352 160.162699 
L 37.306778 162.607059 
L 38.285525 166.10494 
L 39.143094 168.521223 
L 40.221063 171.08073 
L 41.544508 173.75888 
L 43.044657 176.382271 
L 45.035869 179.4024 
L 47.689276 182.863407 
L 50.638286 186.184489 
L 53.910514 189.407067 
L 57.155313 192.243231 
L 61.015332 195.258383 
L 65.191981 198.174844 
L 69.682787 200.990404 
L 75.074057 204.017158 
L 79.957318 206.48526 
L 85.065048 208.834316 
L 92.260107 211.804432 
L 97.867282 213.885201 
L 97.867282 213.885201 
" clip-path="url(#pae3a74afb2)" style="fill: none; stroke: #000000; stroke-width: 2; stroke-linecap: square"/>
   </g>
   <g id="patch_3">
    <path d="M 193.248006 25.56382 
Q 192.272845 25.84978 193.443398 25.506523 
" clip-path="url(#pae3a74afb2)" style="fill: none; stroke: #000000; stroke-width: 2; stroke-linecap: round"/>
    <path d="M 204.446293 27.490536 
L 193.443398 25.506523 
L 201.632345 17.894615 
z
" clip-path="url(#pae3a74afb2)" style="stroke: #000000; stroke-width: 2; stroke-linecap: round"/>
   </g>
   <g id="text_1">
    <!-- $Q_0$ -->
    <g transform="translate(19.809025 117.43306) scale(0.2 -0.2)">
     <defs>
      <path id="Cmmi10-51" d="M 1947 -141 
Q 1466 -141 1094 79 
Q 722 300 520 692 
Q 319 1084 319 1563 
Q 319 2259 714 2950 
Q 1109 3641 1756 4077 
Q 2403 4513 3109 4513 
Q 3475 4513 3778 4381 
Q 4081 4250 4290 4017 
Q 4500 3784 4614 3471 
Q 4728 3159 4728 2791 
Q 4728 2366 4581 1936 
Q 4434 1506 4171 1136 
Q 3909 766 3559 484 
Q 3209 203 2809 38 
Q 2850 -256 2934 -425 
Q 3019 -594 3256 -594 
Q 3506 -594 3726 -412 
Q 3947 -231 4006 13 
Q 4019 72 4078 72 
Q 4147 72 4147 -13 
Q 4100 -219 4008 -430 
Q 3916 -641 3786 -823 
Q 3656 -1006 3478 -1123 
Q 3300 -1241 3084 -1241 
Q 2547 -1241 2547 -550 
Q 2547 -509 2562 -332 
Q 2578 -156 2578 -44 
Q 2269 -141 1947 -141 
z
M 1709 300 
Q 1709 44 1991 44 
Q 2275 44 2591 184 
L 2591 244 
Q 2591 503 2509 648 
Q 2428 794 2194 794 
Q 2078 794 1964 723 
Q 1850 653 1779 539 
Q 1709 425 1709 300 
z
M 1544 288 
Q 1544 456 1637 612 
Q 1731 769 1881 864 
Q 2031 959 2203 959 
Q 2481 959 2607 771 
Q 2734 584 2778 281 
Q 3188 525 3500 978 
Q 3813 1431 3977 1973 
Q 4141 2516 4141 3003 
Q 4141 3356 4023 3656 
Q 3906 3956 3664 4140 
Q 3422 4325 3066 4325 
Q 2722 4325 2403 4156 
Q 2084 3988 1813 3706 
Q 1550 3434 1342 3032 
Q 1134 2631 1021 2193 
Q 909 1756 909 1356 
Q 909 947 1068 612 
Q 1228 278 1569 128 
Q 1544 194 1544 288 
z
" transform="scale(0.015625)"/>
      <path id="Cmr10-30" d="M 1600 -141 
Q 816 -141 533 504 
Q 250 1150 250 2041 
Q 250 2597 351 3087 
Q 453 3578 754 3920 
Q 1056 4263 1600 4263 
Q 2022 4263 2290 4056 
Q 2559 3850 2700 3523 
Q 2841 3197 2892 2823 
Q 2944 2450 2944 2041 
Q 2944 1491 2842 1011 
Q 2741 531 2444 195 
Q 2147 -141 1600 -141 
z
M 1600 25 
Q 1956 25 2131 390 
Q 2306 756 2347 1200 
Q 2388 1644 2388 2144 
Q 2388 2625 2347 3031 
Q 2306 3438 2132 3767 
Q 1959 4097 1600 4097 
Q 1238 4097 1063 3765 
Q 888 3434 847 3029 
Q 806 2625 806 2144 
Q 806 1788 823 1472 
Q 841 1156 916 820 
Q 991 484 1158 254 
Q 1325 25 1600 25 
z
" transform="scale(0.015625)"/>
     </defs>
     <use xlink:href="#Cmmi10-51" transform="translate(0 0.484375)"/>
     <use xlink:href="#Cmr10-30" transform="translate(79.003906 -16.521875) scale(0.7)"/>
    </g>
   </g>
   <g id="text_2">
    <!-- $Q_1$ -->
    <g transform="translate(7.2 159.004371) scale(0.2 -0.2)">
     <defs>
      <path id="Cmr10-31" d="M 594 0 
L 594 225 
Q 1394 225 1394 428 
L 1394 3788 
Q 1063 3628 556 3628 
L 556 3853 
Q 1341 3853 1741 4263 
L 1831 4263 
Q 1853 4263 1873 4245 
Q 1894 4228 1894 4206 
L 1894 428 
Q 1894 225 2694 225 
L 2694 0 
L 594 0 
z
" transform="scale(0.015625)"/>
     </defs>
     <use xlink:href="#Cmmi10-51" transform="translate(0 0.484375)"/>
     <use xlink:href="#Cmr10-31" transform="translate(79.003906 -16.521875) scale(0.7)"/>
    </g>
   </g>
  </g>
 </g>
 <defs>
  <clipPath id="pae3a74afb2">
   <rect x="10.944232" y="7.2" width="434.499929" height="210.737852"/>
  </clipPath>
 </defs>
</svg>
