<?xml version="1.0" encoding="utf-8" standalone="no"?>
<!DOCTYPE svg PUBLIC "-//W3C//DTD SVG 1.1//EN"
  "http://www.w3.org/Graphics/SVG/1.1/DTD/svg11.dtd">
<svg xmlns:xlink="http://www.w3.org/1999/xlink" width="453.6pt" height="236.334116pt" viewBox="0 0 453.6 236.334116" xmlns="http://www.w3.org/2000/svg" version="1.1">
 <metadata>
  <rdf:RDF xmlns:dc="http://purl.org/dc/elements/1.1/" xmlns:cc="http://creativecommons.org/ns#" xmlns:rdf="http://www.w3.org/1999/02/22-rdf-syntax-ns#">
   <cc:Work>
    <dc:type rdf:resource="http://purl.org/dc/dcmitype/StillImage"/>
    <dc:date>2025-02-05T11:07:21.413559</dc:date>
    <dc:format>image/svg+xml</dc:format>
    <dc:creator>
     <cc:Agent>
      <dc:title>Matplotlib v3.6.2, https://matplotlib.org/</dc:title>
     </cc:Agent>
    </dc:creator>
   </cc:Work>
  </rdf:RDF>
 </metadata>
 <defs>
  <style type="text/css">*{stroke-linejoin: round; stroke-linecap: butt}</style>
 </defs>
 <g id="figure_1">
  <g id="patch_1">
   <path d="M 0 236.334116 
L 453.6 236.334116 
L 453.6 0 
L 0 0 
z
" style="fill: #ffffff"/>
  </g>
  <g id="axes_1">
   <g id="patch_2">
    <path d="M 7.2 229.134116 
L 446.4 229.134116 
L 446.4 7.2 
L 7.2 7.2 
z
" style="fill: #ffffff"/>
   </g>
   <g id="PathCollection_1">
    <path d="M 20.707408 139.145434 
C 21.433697 139.145434 22.130336 138.856877 22.6439 138.343313 
C 23.157464 137.82975 23.446021 137.13311 23.446021 136.406822 
C 23.446021 135.680533 23.157464 134.983894 22.6439 134.47033 
C 22.130336 133.956766 21.433697 133.668209 20.707408 133.668209 
C 19.98112 133.668209 19.28448 133.956766 18.770917 134.47033 
C 18.257353 134.983894 17.968796 135.680533 17.968796 136.406822 
C 17.968796 137.13311 18.257353 137.82975 18.770917 138.343313 
C 19.28448 138.856877 19.98112 139.145434 20.707408 139.145434 
z
" clip-path="url(#pbb2b8db82e)"/>
   </g>
   <g id="matplotlib.axis_1"/>
   <g id="matplotlib.axis_2"/>
   <g id="line2d_1">
    <path d="M 437.953846 75.11596 
L 435.064679 71.332909 
L 430.534482 65.963324 
L 428.488396 63.728751 
L 423.844096 59.027401 
L 419.710646 55.217978 
L 416.875024 52.781917 
L 411.217935 48.298631 
L 407.547068 45.628232 
L 402.786947 42.412843 
L 398.053857 39.465455 
L 392.099371 36.074232 
L 386.76656 33.307095 
L 383.278555 31.623567 
L 377.318853 28.960383 
L 369.486259 25.835908 
L 363.117944 23.582309 
L 355.277312 21.130135 
L 348.242551 19.209688 
L 340.146388 17.302252 
L 332.695717 15.813861 
L 325.338739 14.57955 
L 320.082116 13.833622 
L 313.833882 13.08793 
L 303.342644 12.164105 
L 292.448093 11.617197 
L 281.323446 11.468478 
L 274.81635 11.565216 
L 264.190598 12.004033 
L 252.907113 12.839422 
L 241.670595 14.037958 
L 234.671847 14.96538 
L 224.370471 16.579111 
L 215.80256 18.144702 
L 204.868819 20.435551 
L 196.540092 22.401005 
L 190.194609 24.026956 
L 180.296443 26.787195 
L 168.924535 30.300841 
L 160.314398 33.210755 
L 154.845971 35.173614 
L 143.506397 39.537729 
L 132.3416 44.240196 
L 122.516955 48.733326 
L 116.707922 51.556759 
L 107.962662 56.057814 
L 99.346459 60.810407 
L 90.631667 65.972352 
L 82.544447 71.12093 
L 75.285217 76.07629 
L 68.612395 80.950976 
L 62.905268 85.400289 
L 58.369604 89.148412 
L 52.754793 94.091658 
L 47.856556 98.728535 
L 42.966905 103.726153 
L 38.745547 108.409147 
L 34.886681 113.069838 
L 32.096345 116.727456 
L 28.629726 121.713559 
L 25.982486 125.965223 
L 23.643416 130.176231 
L 21.571558 134.427242 
L 19.644789 139.076452 
L 18.253179 143.154396 
L 17.210714 146.968385 
L 16.54006 150.137753 
L 15.957419 154.113431 
L 15.674079 158.040464 
L 15.679182 161.633969 
L 15.865009 164.433867 
L 16.366052 168.140307 
L 17.068257 171.444277 
L 18.082101 174.926345 
L 19.114669 177.734934 
L 20.496595 180.851352 
L 21.688256 183.159913 
L 23.375401 186.023506 
L 25.657781 189.370892 
L 28.128686 192.517398 
L 30.906116 195.629542 
L 34.085537 198.782962 
L 37.744059 202.002776 
L 40.397507 204.121458 
L 44.748214 207.279614 
L 49.875008 210.594515 
L 54.931694 213.519104 
L 60.267458 216.30233 
L 64.788646 218.455805 
L 71.463654 221.344517 
L 78.348086 224.01496 
L 80.705582 224.866152 
L 80.705582 224.866152 
" clip-path="url(#pbb2b8db82e)" style="fill: none; stroke: #000000; stroke-width: 2; stroke-linecap: square"/>
   </g>
   <g id="patch_3">
    <path d="M 181.155102 26.536849 
Q 180.128119 26.838006 181.246849 26.509945 
" clip-path="url(#pbb2b8db82e)" style="fill: none; stroke: #000000; stroke-width: 2; stroke-linecap: round"/>
    <path d="M 192.249744 28.493958 
L 181.246849 26.509945 
L 189.435796 18.898037 
L 192.249744 28.493958 
z
" clip-path="url(#pbb2b8db82e)" style="stroke: #000000; stroke-width: 2; stroke-linecap: round"/>
   </g>
   <g id="text_1">
    <!-- $Q$ -->
    <g transform="translate(31.637986 151.390861) scale(0.2 -0.2)">
     <defs>
      <path id="Cmmi10-51" d="M 1947 -141 
Q 1466 -141 1094 79 
Q 722 300 520 692 
Q 319 1084 319 1563 
Q 319 2259 714 2950 
Q 1109 3641 1756 4077 
Q 2403 4513 3109 4513 
Q 3475 4513 3778 4381 
Q 4081 4250 4290 4017 
Q 4500 3784 4614 3471 
Q 4728 3159 4728 2791 
Q 4728 2366 4581 1936 
Q 4434 1506 4171 1136 
Q 3909 766 3559 484 
Q 3209 203 2809 38 
Q 2850 -256 2934 -425 
Q 3019 -594 3256 -594 
Q 3506 -594 3726 -412 
Q 3947 -231 4006 13 
Q 4019 72 4078 72 
Q 4147 72 4147 -13 
Q 4100 -219 4008 -430 
Q 3916 -641 3786 -823 
Q 3656 -1006 3478 -1123 
Q 3300 -1241 3084 -1241 
Q 2547 -1241 2547 -550 
Q 2547 -509 2562 -332 
Q 2578 -156 2578 -44 
Q 2269 -141 1947 -141 
z
M 1709 300 
Q 1709 44 1991 44 
Q 2275 44 2591 184 
L 2591 244 
Q 2591 503 2509 648 
Q 2428 794 2194 794 
Q 2078 794 1964 723 
Q 1850 653 1779 539 
Q 1709 425 1709 300 
z
M 1544 288 
Q 1544 456 1637 612 
Q 1731 769 1881 864 
Q 2031 959 2203 959 
Q 2481 959 2607 771 
Q 2734 584 2778 281 
Q 3188 525 3500 978 
Q 3813 1431 3977 1973 
Q 4141 2516 4141 3003 
Q 4141 3356 4023 3656 
Q 3906 3956 3664 4140 
Q 3422 4325 3066 4325 
Q 2722 4325 2403 4156 
Q 2084 3988 1813 3706 
Q 1550 3434 1342 3032 
Q 1134 2631 1021 2193 
Q 909 1756 909 1356 
Q 909 947 1068 612 
Q 1228 278 1569 128 
Q 1544 194 1544 288 
z
" transform="scale(0.015625)"/>
     </defs>
     <use xlink:href="#Cmmi10-51" transform="translate(0 0.484375)"/>
    </g>
   </g>
  </g>
 </g>
 <defs>
  <clipPath id="pbb2b8db82e">
   <rect x="7.2" y="7.2" width="439.2" height="221.934116"/>
  </clipPath>
 </defs>
</svg>
