<?xml version="1.0" encoding="utf-8" standalone="no"?>
<!DOCTYPE svg PUBLIC "-//W3C//DTD SVG 1.1//EN"
  "http://www.w3.org/Graphics/SVG/1.1/DTD/svg11.dtd">
<svg xmlns:xlink="http://www.w3.org/1999/xlink" width="453.6pt" height="236.335139pt" viewBox="0 0 453.6 236.335139" xmlns="http://www.w3.org/2000/svg" version="1.1">
 <metadata>
  <rdf:RDF xmlns:dc="http://purl.org/dc/elements/1.1/" xmlns:cc="http://creativecommons.org/ns#" xmlns:rdf="http://www.w3.org/1999/02/22-rdf-syntax-ns#">
   <cc:Work>
    <dc:type rdf:resource="http://purl.org/dc/dcmitype/StillImage"/>
    <dc:date>2024-12-16T16:35:06.262962</dc:date>
    <dc:format>image/svg+xml</dc:format>
    <dc:creator>
     <cc:Agent>
      <dc:title>Matplotlib v3.6.2, https://matplotlib.org/</dc:title>
     </cc:Agent>
    </dc:creator>
   </cc:Work>
  </rdf:RDF>
 </metadata>
 <defs>
  <style type="text/css">*{stroke-linejoin: round; stroke-linecap: butt}</style>
 </defs>
 <g id="figure_1">
  <g id="patch_1">
   <path d="M 0 236.335139 
L 453.6 236.335139 
L 453.6 -0 
L 0 -0 
z
" style="fill: #ffffff"/>
  </g>
  <g id="axes_1">
   <g id="patch_2">
    <path d="M 7.2 229.135139 
L 446.4 229.135139 
L 446.4 7.2 
L 7.2 7.2 
z
" style="fill: #ffffff"/>
   </g>
   <g id="PathCollection_1">
    <path d="M 376.129948 31.996737 
C 377.067582 31.996737 377.96694 31.624211 378.629948 30.961203 
C 379.292955 30.298195 379.665481 29.398837 379.665481 28.461203 
C 379.665481 27.523568 379.292955 26.624211 378.629948 25.961203 
C 377.96694 25.298195 377.067582 24.925669 376.129948 24.925669 
C 375.192313 24.925669 374.292955 25.298195 373.629948 25.961203 
C 372.96694 26.624211 372.594414 27.523568 372.594414 28.461203 
C 372.594414 29.398837 372.96694 30.298195 373.629948 30.961203 
C 374.292955 31.624211 375.192313 31.996737 376.129948 31.996737 
z
" clip-path="url(#p327fd7ec5e)"/>
   </g>
   <g id="PathCollection_2">
    <path d="M 342.327352 21.32269 
C 343.264987 21.32269 344.164345 20.950164 344.827352 20.287156 
C 345.49036 19.624149 345.862886 18.724791 345.862886 17.787156 
C 345.862886 16.849522 345.49036 15.950164 344.827352 15.287156 
C 344.164345 14.624149 343.264987 14.251622 342.327352 14.251622 
C 341.389718 14.251622 340.49036 14.624149 339.827352 15.287156 
C 339.164345 15.950164 338.791818 16.849522 338.791818 17.787156 
C 338.791818 18.724791 339.164345 19.624149 339.827352 20.287156 
C 340.49036 20.950164 341.389718 21.32269 342.327352 21.32269 
z
" clip-path="url(#p327fd7ec5e)"/>
   </g>
   <g id="matplotlib.axis_1"/>
   <g id="matplotlib.axis_2"/>
   <g id="line2d_1">
    <path d="M 437.953846 75.117495 
L 434.830172 71.040619 
L 432.302648 67.987067 
L 428.280938 63.509658 
L 424.354475 59.522503 
L 419.445369 54.985814 
L 414.799186 51.082925 
L 410.530423 47.786571 
L 404.685486 43.665109 
L 401.637827 41.676951 
L 399.097439 40.096799 
L 393.557823 36.875774 
L 388.760787 34.315263 
L 381.872623 30.973267 
L 375.566377 28.227228 
L 367.797217 25.215778 
L 362.375875 23.337035 
L 355.266362 21.128587 
L 348.618086 19.307507 
L 342.897066 17.917044 
L 336.76112 16.596996 
L 327.449526 14.912241 
L 318.557075 13.639412 
L 313.035256 13.005061 
L 304.835467 12.272948 
L 295.701854 11.739705 
L 288.730561 11.524261 
L 279.334368 11.485687 
L 272.150738 11.64471 
L 261.607108 12.163973 
L 252.081163 12.917004 
L 240.831035 14.143775 
L 231.198276 15.478442 
L 219.581628 17.431138 
L 209.419743 19.444072 
L 198.891917 21.828583 
L 189.567295 24.195715 
L 182.916809 26.031692 
L 171.030189 29.624224 
L 161.981261 32.632339 
L 154.117784 35.443889 
L 142.94506 39.766426 
L 132.86873 44.01086 
L 123.95414 48.056494 
L 114.331884 52.751329 
L 105.351703 57.465533 
L 98.640756 61.216882 
L 89.229318 66.841497 
L 81.71738 71.671124 
L 76.000827 75.574926 
L 69.026523 80.641161 
L 63.046529 85.28929 
L 57.584899 89.820609 
L 52.030218 94.759771 
L 47.808223 98.778816 
L 43.944185 102.696733 
L 40.086801 106.881994 
L 35.656446 112.109611 
L 33.058984 115.437581 
L 30.054236 119.599677 
L 26.952532 124.35702 
L 25.037821 127.609262 
L 22.752741 131.935164 
L 20.519033 136.864034 
L 18.88173 141.214877 
L 17.747353 144.896595 
L 16.946373 148.127406 
L 16.415027 150.855673 
L 15.942353 154.267843 
L 15.665708 158.358953 
L 15.683212 161.701462 
L 15.854628 164.308981 
L 16.103706 166.461519 
L 16.837587 170.474005 
L 17.58092 173.324031 
L 18.494128 176.109336 
L 19.936464 179.654093 
L 21.394223 182.614351 
L 22.723575 184.962835 
L 24.627228 187.92063 
L 26.50082 190.491239 
L 29.381009 193.968057 
L 32.243333 197.002015 
L 35.800113 200.339537 
L 38.938391 202.976534 
L 42.406912 205.624645 
L 45.609752 207.864933 
L 48.410983 209.68741 
L 52.868841 212.363169 
L 56.33159 214.277393 
L 60.969244 216.648504 
L 67.252651 219.560306 
L 73.079549 221.998041 
L 80.706849 224.867156 
L 80.706849 224.867156 
" clip-path="url(#p327fd7ec5e)" style="fill: none; stroke: #000000; stroke-width: 2; stroke-linecap: square"/>
   </g>
   <g id="patch_3">
    <path d="M 181.156013 26.538556 
Q 180.129034 26.839712 181.247767 26.51165 
" clip-path="url(#p327fd7ec5e)" style="fill: none; stroke: #000000; stroke-width: 2; stroke-linecap: round"/>
    <path d="M 192.250662 28.495663 
L 181.247767 26.51165 
L 189.436715 18.899742 
L 192.250662 28.495663 
z
" clip-path="url(#p327fd7ec5e)" style="stroke: #000000; stroke-width: 2; stroke-linecap: round"/>
   </g>
   <g id="text_1">
    <!-- $P_0$ -->
    <g transform="translate(374.995203 52.910463) scale(0.2 -0.2)">
     <defs>
      <path id="Cmmi10-50" d="M 313 0 
Q 250 0 250 84 
Q 253 100 262 139 
Q 272 178 289 201 
Q 306 225 331 225 
Q 722 225 878 269 
Q 959 297 997 441 
L 1875 3956 
Q 1888 4019 1888 4044 
Q 1888 4113 1813 4122 
Q 1691 4147 1350 4147 
Q 1288 4147 1288 4231 
Q 1291 4247 1300 4286 
Q 1309 4325 1326 4348 
Q 1344 4372 1369 4372 
L 3578 4372 
Q 3881 4372 4165 4264 
Q 4450 4156 4631 3934 
Q 4813 3713 4813 3397 
Q 4813 2991 4527 2672 
Q 4241 2353 3814 2175 
Q 3388 1997 2988 1997 
L 1947 1997 
L 1556 416 
Q 1544 353 1544 325 
Q 1544 300 1551 283 
Q 1559 266 1573 261 
Q 1588 256 1619 250 
Q 1741 225 2081 225 
Q 2144 225 2144 141 
Q 2122 50 2109 25 
Q 2097 0 2034 0 
L 313 0 
z
M 1978 2188 
L 2875 2188 
Q 3497 2188 3822 2522 
Q 3988 2688 4092 3000 
Q 4197 3313 4197 3566 
Q 4197 3881 3956 4014 
Q 3716 4147 3359 4147 
L 2747 4147 
Q 2572 4147 2515 4117 
Q 2459 4088 2413 3928 
L 1978 2188 
z
" transform="scale(0.015625)"/>
      <path id="Cmr10-30" d="M 1600 -141 
Q 816 -141 533 504 
Q 250 1150 250 2041 
Q 250 2597 351 3087 
Q 453 3578 754 3920 
Q 1056 4263 1600 4263 
Q 2022 4263 2290 4056 
Q 2559 3850 2700 3523 
Q 2841 3197 2892 2823 
Q 2944 2450 2944 2041 
Q 2944 1491 2842 1011 
Q 2741 531 2444 195 
Q 2147 -141 1600 -141 
z
M 1600 25 
Q 1956 25 2131 390 
Q 2306 756 2347 1200 
Q 2388 1644 2388 2144 
Q 2388 2625 2347 3031 
Q 2306 3438 2132 3767 
Q 1959 4097 1600 4097 
Q 1238 4097 1063 3765 
Q 888 3434 847 3029 
Q 806 2625 806 2144 
Q 806 1788 823 1472 
Q 841 1156 916 820 
Q 991 484 1158 254 
Q 1325 25 1600 25 
z
" transform="scale(0.015625)"/>
     </defs>
     <use xlink:href="#Cmmi10-50" transform="translate(0 0.6875)"/>
     <use xlink:href="#Cmr10-30" transform="translate(64.208984 -16.31875) scale(0.7)"/>
    </g>
   </g>
   <g id="text_2">
    <!-- $P_1$ -->
    <g transform="translate(322.262097 42.236417) scale(0.2 -0.2)">
     <defs>
      <path id="Cmr10-31" d="M 594 0 
L 594 225 
Q 1394 225 1394 428 
L 1394 3788 
Q 1063 3628 556 3628 
L 556 3853 
Q 1341 3853 1741 4263 
L 1831 4263 
Q 1853 4263 1873 4245 
Q 1894 4228 1894 4206 
L 1894 428 
Q 1894 225 2694 225 
L 2694 0 
L 594 0 
z
" transform="scale(0.015625)"/>
     </defs>
     <use xlink:href="#Cmmi10-50" transform="translate(0 0.6875)"/>
     <use xlink:href="#Cmr10-31" transform="translate(64.208984 -16.31875) scale(0.7)"/>
    </g>
   </g>
  </g>
 </g>
 <defs>
  <clipPath id="p327fd7ec5e">
   <rect x="7.2" y="7.2" width="439.2" height="221.935139"/>
  </clipPath>
 </defs>
</svg>
