<?xml version="1.0" encoding="utf-8" standalone="no"?>
<!DOCTYPE svg PUBLIC "-//W3C//DTD SVG 1.1//EN"
  "http://www.w3.org/Graphics/SVG/1.1/DTD/svg11.dtd">
<svg xmlns:xlink="http://www.w3.org/1999/xlink" width="453.6pt" height="236.336898pt" viewBox="0 0 453.6 236.336898" xmlns="http://www.w3.org/2000/svg" version="1.1">
 <metadata>
  <rdf:RDF xmlns:dc="http://purl.org/dc/elements/1.1/" xmlns:cc="http://creativecommons.org/ns#" xmlns:rdf="http://www.w3.org/1999/02/22-rdf-syntax-ns#">
   <cc:Work>
    <dc:type rdf:resource="http://purl.org/dc/dcmitype/StillImage"/>
    <dc:date>2025-02-05T11:16:15.343121</dc:date>
    <dc:format>image/svg+xml</dc:format>
    <dc:creator>
     <cc:Agent>
      <dc:title>Matplotlib v3.6.2, https://matplotlib.org/</dc:title>
     </cc:Agent>
    </dc:creator>
   </cc:Work>
  </rdf:RDF>
 </metadata>
 <defs>
  <style type="text/css">*{stroke-linejoin: round; stroke-linecap: butt}</style>
 </defs>
 <g id="figure_1">
  <g id="patch_1">
   <path d="M 0 236.336898 
L 453.6 236.336898 
L 453.6 0 
L 0 0 
z
" style="fill: #ffffff"/>
  </g>
  <g id="axes_1">
   <g id="patch_2">
    <path d="M 7.2 229.136898 
L 446.4 229.136898 
L 446.4 7.2 
L 7.2 7.2 
z
" style="fill: #ffffff"/>
   </g>
   <g id="PathCollection_1">
    <path d="M 411.547869 51.287875 
C 412.274158 51.287875 412.970797 50.999317 413.484361 50.485754 
C 413.997925 49.97219 414.286482 49.275551 414.286482 48.549262 
C 414.286482 47.822973 413.997925 47.126334 413.484361 46.61277 
C 412.970797 46.099207 412.274158 45.810649 411.547869 45.810649 
C 410.821581 45.810649 410.124941 46.099207 409.611378 46.61277 
C 409.097814 47.126334 408.809257 47.822973 408.809257 48.549262 
C 408.809257 49.275551 409.097814 49.97219 409.611378 50.485754 
C 410.124941 50.999317 410.821581 51.287875 411.547869 51.287875 
z
" clip-path="url(#p15668c0f4b)"/>
   </g>
   <g id="matplotlib.axis_1"/>
   <g id="matplotlib.axis_2"/>
   <g id="line2d_1">
    <path d="M 437.953846 75.117858 
L 434.628787 70.790139 
L 431.651242 67.232093 
L 428.161316 63.383268 
L 423.502187 58.701626 
L 419.153876 54.730751 
L 415.11142 51.334761 
L 410.371165 47.668801 
L 405.270394 44.059041 
L 400.083449 40.702326 
L 395.365283 37.89453 
L 389.677403 34.789286 
L 382.671601 31.342092 
L 376.129811 28.461318 
L 370.580944 26.250202 
L 364.726391 24.130263 
L 358.334534 22.047506 
L 350.327081 19.754115 
L 342.618866 17.853466 
L 332.94214 15.86085 
L 323.225001 14.267946 
L 315.847261 13.313487 
L 306.95466 12.438579 
L 298.569663 11.875809 
L 290.259755 11.557481 
L 283.678224 11.468017 
L 274.683355 11.570095 
L 264.407401 11.993159 
L 256.875497 12.504486 
L 245.833778 13.553286 
L 238.837445 14.398219 
L 226.214108 16.270062 
L 215.916698 18.123861 
L 205.043823 20.397603 
L 193.944599 23.053854 
L 185.849956 25.205972 
L 175.446098 28.241769 
L 165.420286 31.45996 
L 157.234748 34.306165 
L 146.048811 38.525082 
L 140.197481 40.889336 
L 130.854211 44.899435 
L 121.039997 49.439992 
L 110.688307 54.622299 
L 104.926119 57.695977 
L 97.040553 62.140623 
L 89.127291 66.903285 
L 81.539812 71.787451 
L 74.601347 76.561504 
L 68.645268 80.926516 
L 63.286778 85.094282 
L 56.479233 90.7728 
L 51.768818 94.998772 
L 45.803549 100.777204 
L 42.03261 104.729907 
L 37.517612 109.847798 
L 34.055842 114.129911 
L 30.570044 118.853158 
L 28.1597 122.434788 
L 26.087238 125.78612 
L 23.114622 131.203729 
L 21.700835 134.140365 
L 19.987484 138.178563 
L 18.515139 142.314167 
L 17.591293 145.458513 
L 16.539243 150.131754 
L 15.880439 154.842276 
L 15.646154 159.129599 
L 15.753666 163.099188 
L 16.09192 166.405181 
L 16.627054 169.522807 
L 17.287543 172.298872 
L 18.343575 175.699448 
L 19.497355 178.665466 
L 21.596102 182.997823 
L 23.765087 186.638429 
L 25.933808 189.749547 
L 28.914199 193.442678 
L 31.685973 196.443834 
L 34.398283 199.078391 
L 38.063893 202.271384 
L 42.534659 205.721684 
L 45.979986 208.11666 
L 50.103024 210.737167 
L 55.700415 213.941717 
L 60.315357 216.329793 
L 66.770048 219.350855 
L 72.791325 221.885821 
L 76.545681 223.346744 
L 80.703599 224.86888 
L 80.703599 224.86888 
" clip-path="url(#p15668c0f4b)" style="fill: none; stroke: #000000; stroke-width: 2; stroke-linecap: square"/>
   </g>
   <g id="patch_3">
    <path d="M 181.153677 26.538477 
Q 180.126688 26.839635 181.245412 26.511576 
" clip-path="url(#p15668c0f4b)" style="fill: none; stroke: #000000; stroke-width: 2; stroke-linecap: round"/>
    <path d="M 192.248307 28.495589 
L 181.245412 26.511576 
L 189.434359 18.899668 
L 192.248307 28.495589 
z
" clip-path="url(#p15668c0f4b)" style="stroke: #000000; stroke-width: 2; stroke-linecap: round"/>
   </g>
   <g id="text_1">
    <!-- $P$ -->
    <g transform="translate(414.513211 35.137329) scale(0.2 -0.2)">
     <defs>
      <path id="Cmmi10-50" d="M 313 0 
Q 250 0 250 84 
Q 253 100 262 139 
Q 272 178 289 201 
Q 306 225 331 225 
Q 722 225 878 269 
Q 959 297 997 441 
L 1875 3956 
Q 1888 4019 1888 4044 
Q 1888 4113 1813 4122 
Q 1691 4147 1350 4147 
Q 1288 4147 1288 4231 
Q 1291 4247 1300 4286 
Q 1309 4325 1326 4348 
Q 1344 4372 1369 4372 
L 3578 4372 
Q 3881 4372 4165 4264 
Q 4450 4156 4631 3934 
Q 4813 3713 4813 3397 
Q 4813 2991 4527 2672 
Q 4241 2353 3814 2175 
Q 3388 1997 2988 1997 
L 1947 1997 
L 1556 416 
Q 1544 353 1544 325 
Q 1544 300 1551 283 
Q 1559 266 1573 261 
Q 1588 256 1619 250 
Q 1741 225 2081 225 
Q 2144 225 2144 141 
Q 2122 50 2109 25 
Q 2097 0 2034 0 
L 313 0 
z
M 1978 2188 
L 2875 2188 
Q 3497 2188 3822 2522 
Q 3988 2688 4092 3000 
Q 4197 3313 4197 3566 
Q 4197 3881 3956 4014 
Q 3716 4147 3359 4147 
L 2747 4147 
Q 2572 4147 2515 4117 
Q 2459 4088 2413 3928 
L 1978 2188 
z
" transform="scale(0.015625)"/>
     </defs>
     <use xlink:href="#Cmmi10-50" transform="translate(0 0.6875)"/>
    </g>
   </g>
  </g>
 </g>
 <defs>
  <clipPath id="p15668c0f4b">
   <rect x="7.2" y="7.2" width="439.2" height="221.936898"/>
  </clipPath>
 </defs>
</svg>
