<?xml version="1.0" encoding="utf-8" standalone="no"?>
<!DOCTYPE svg PUBLIC "-//W3C//DTD SVG 1.1//EN"
  "http://www.w3.org/Graphics/SVG/1.1/DTD/svg11.dtd">
<svg xmlns:xlink="http://www.w3.org/1999/xlink" width="453.6pt" height="236.336122pt" viewBox="0 0 453.6 236.336122" xmlns="http://www.w3.org/2000/svg" version="1.1">
 <metadata>
  <rdf:RDF xmlns:dc="http://purl.org/dc/elements/1.1/" xmlns:cc="http://creativecommons.org/ns#" xmlns:rdf="http://www.w3.org/1999/02/22-rdf-syntax-ns#">
   <cc:Work>
    <dc:type rdf:resource="http://purl.org/dc/dcmitype/StillImage"/>
    <dc:date>2024-08-29T09:21:46.434858</dc:date>
    <dc:format>image/svg+xml</dc:format>
    <dc:creator>
     <cc:Agent>
      <dc:title>Matplotlib v3.8.0, https://matplotlib.org/</dc:title>
     </cc:Agent>
    </dc:creator>
   </cc:Work>
  </rdf:RDF>
 </metadata>
 <defs>
  <style type="text/css">*{stroke-linejoin: round; stroke-linecap: butt}</style>
 </defs>
 <g id="figure_1">
  <g id="patch_1">
   <path d="M 0 236.336122 
L 453.6 236.336122 
L 453.6 -0 
L 0 -0 
z
" style="fill: #ffffff"/>
  </g>
  <g id="axes_1">
   <g id="patch_2">
    <path d="M 7.2 229.136122 
L 446.4 229.136122 
L 446.4 7.2 
L 7.2 7.2 
z
" style="fill: #ffffff"/>
   </g>
   <g id="PathCollection_1">
    <path d="M 411.548125 51.288821 
C 412.274414 51.288821 412.971053 51.000264 413.484617 50.4867 
C 413.99818 49.973136 414.286738 49.276497 414.286738 48.550208 
C 414.286738 47.82392 413.99818 47.12728 413.484617 46.613717 
C 412.971053 46.100153 412.274414 45.811596 411.548125 45.811596 
C 410.821836 45.811596 410.125197 46.100153 409.611633 46.613717 
C 409.09807 47.12728 408.809512 47.82392 408.809512 48.550208 
C 408.809512 49.276497 409.09807 49.973136 409.611633 50.4867 
C 410.125197 51.000264 410.821836 51.288821 411.548125 51.288821 
z
" clip-path="url(#pd7fdef8ebc)"/>
   </g>
   <g id="matplotlib.axis_1"/>
   <g id="matplotlib.axis_2"/>
   <g id="line2d_1">
    <path d="M 437.953846 75.118547 
L 435.578519 71.98594 
L 432.291325 67.974882 
L 427.322264 62.50469 
L 423.737921 58.927993 
L 419.299377 54.858773 
L 414.137821 50.556064 
L 408.896778 46.5924 
L 405.432626 44.169711 
L 401.56739 41.633272 
L 396.353443 38.46522 
L 391.752012 35.88917 
L 386.063619 32.9627 
L 381.162597 30.650763 
L 375.339692 28.134793 
L 367.571557 25.135116 
L 363.843556 23.829528 
L 357.809949 21.887751 
L 351.417553 20.047744 
L 344.850705 18.37518 
L 336.929038 16.631916 
L 330.484977 15.421762 
L 322.768572 14.203788 
L 314.600255 13.174139 
L 308.676062 12.586337 
L 303.052847 12.147035 
L 292.483617 11.621152 
L 281.99133 11.46896 
L 270.718136 11.696595 
L 264.345377 11.998078 
L 256.442336 12.540409 
L 247.276784 13.397787 
L 238.045678 14.504074 
L 231.334929 15.4588 
L 220.262661 17.30749 
L 208.799078 19.577317 
L 200.497862 21.446259 
L 190.368357 23.984017 
L 179.558978 27.006969 
L 172.662923 29.107967 
L 161.599814 32.76557 
L 151.657833 36.363206 
L 141.459111 40.372384 
L 133.612156 43.687199 
L 126.502613 46.872196 
L 120.000439 49.944062 
L 110.318424 54.817943 
L 101.725193 59.468465 
L 94.250388 63.78647 
L 89.802306 66.487236 
L 83.348581 70.595816 
L 75.992543 75.581937 
L 68.475639 81.058127 
L 61.471467 86.567307 
L 55.654066 91.497896 
L 50.60596 96.088998 
L 45.115326 101.483842 
L 41.192052 105.65286 
L 36.803445 110.707862 
L 32.910066 115.636707 
L 29.628538 120.222983 
L 26.148802 125.689169 
L 23.600317 130.264586 
L 21.713131 134.122422 
L 19.743838 138.821249 
L 18.429362 142.596265 
L 17.139867 147.276704 
L 16.412408 150.87354 
L 15.944334 154.252611 
L 15.672373 158.146621 
L 15.661069 160.996299 
L 15.829566 164.02853 
L 16.156659 166.831729 
L 16.676793 169.741347 
L 17.670639 173.625446 
L 18.502335 176.132311 
L 19.877879 179.524641 
L 21.685974 183.154755 
L 23.308618 185.916794 
L 25.813289 189.58162 
L 27.921521 192.268943 
L 29.792486 194.427766 
L 33.61656 198.341395 
L 36.761458 201.175482 
L 40.673344 204.333472 
L 44.229545 206.922239 
L 49.407711 210.309142 
L 53.292829 212.605626 
L 58.708505 215.519232 
L 63.645189 217.92861 
L 70.312257 220.870079 
L 75.78006 223.053656 
L 80.707057 224.86812 
L 80.707057 224.86812 
" clip-path="url(#pd7fdef8ebc)" style="fill: none; stroke: #000000; stroke-width: 2; stroke-linecap: square"/>
   </g>
   <g id="patch_3">
    <path d="M 181.156163 26.539636 
Q 180.129184 26.840792 181.247918 26.512729 
" clip-path="url(#pd7fdef8ebc)" style="fill: none; stroke: #000000; stroke-width: 2; stroke-linecap: round"/>
    <path d="M 192.250813 28.496742 
L 181.247918 26.512729 
L 189.436865 18.900821 
z
" clip-path="url(#pd7fdef8ebc)" style="stroke: #000000; stroke-width: 2; stroke-linecap: round"/>
   </g>
   <g id="text_1">
    <!-- $P$ -->
    <g transform="translate(414.513375 35.138459) scale(0.2 -0.2)">
     <defs>
      <path id="Cmmi10-50" d="M 313 0 
Q 250 0 250 84 
Q 253 100 262 139 
Q 272 178 289 201 
Q 306 225 331 225 
Q 722 225 878 269 
Q 959 297 997 441 
L 1875 3956 
Q 1888 4019 1888 4044 
Q 1888 4113 1813 4122 
Q 1691 4147 1350 4147 
Q 1288 4147 1288 4231 
Q 1291 4247 1300 4286 
Q 1309 4325 1326 4348 
Q 1344 4372 1369 4372 
L 3578 4372 
Q 3881 4372 4165 4264 
Q 4450 4156 4631 3934 
Q 4813 3713 4813 3397 
Q 4813 2991 4527 2672 
Q 4241 2353 3814 2175 
Q 3388 1997 2988 1997 
L 1947 1997 
L 1556 416 
Q 1544 353 1544 325 
Q 1544 300 1551 283 
Q 1559 266 1573 261 
Q 1588 256 1619 250 
Q 1741 225 2081 225 
Q 2144 225 2144 141 
Q 2122 50 2109 25 
Q 2097 0 2034 0 
L 313 0 
z
M 1978 2188 
L 2875 2188 
Q 3497 2188 3822 2522 
Q 3988 2688 4092 3000 
Q 4197 3313 4197 3566 
Q 4197 3881 3956 4014 
Q 3716 4147 3359 4147 
L 2747 4147 
Q 2572 4147 2515 4117 
Q 2459 4088 2413 3928 
L 1978 2188 
z
" transform="scale(0.015625)"/>
     </defs>
     <use xlink:href="#Cmmi10-50" transform="translate(0 0.6875)"/>
    </g>
   </g>
  </g>
 </g>
 <defs>
  <clipPath id="pd7fdef8ebc">
   <rect x="7.2" y="7.2" width="439.2" height="221.936122"/>
  </clipPath>
 </defs>
</svg>
