<?xml version="1.0" encoding="utf-8" standalone="no"?>
<!DOCTYPE svg PUBLIC "-//W3C//DTD SVG 1.1//EN"
  "http://www.w3.org/Graphics/SVG/1.1/DTD/svg11.dtd">
<svg xmlns:xlink="http://www.w3.org/1999/xlink" width="453.6pt" height="329.763837pt" viewBox="0 0 453.6 329.763837" xmlns="http://www.w3.org/2000/svg" version="1.1">
 <metadata>
  <rdf:RDF xmlns:dc="http://purl.org/dc/elements/1.1/" xmlns:cc="http://creativecommons.org/ns#" xmlns:rdf="http://www.w3.org/1999/02/22-rdf-syntax-ns#">
   <cc:Work>
    <dc:type rdf:resource="http://purl.org/dc/dcmitype/StillImage"/>
    <dc:date>2025-02-05T11:14:17.784033</dc:date>
    <dc:format>image/svg+xml</dc:format>
    <dc:creator>
     <cc:Agent>
      <dc:title>Matplotlib v3.6.2, https://matplotlib.org/</dc:title>
     </cc:Agent>
    </dc:creator>
   </cc:Work>
  </rdf:RDF>
 </metadata>
 <defs>
  <style type="text/css">*{stroke-linejoin: round; stroke-linecap: butt}</style>
 </defs>
 <g id="figure_1">
  <g id="patch_1">
   <path d="M 0 329.763837 
L 453.6 329.763837 
L 453.6 0 
L 0 0 
z
" style="fill: #ffffff"/>
  </g>
  <g id="axes_1">
   <g id="patch_2">
    <path d="M 7.2 322.563837 
L 446.4 322.563837 
L 446.4 7.2 
L 7.2 7.2 
z
" style="fill: #ffffff"/>
   </g>
   <g id="PathCollection_1">
    <path d="M 230.709964 134.534815 
C 231.436253 134.534815 232.132892 134.246257 232.646456 133.732694 
C 233.16002 133.21913 233.448577 132.522491 233.448577 131.796202 
C 233.448577 131.069913 233.16002 130.373274 232.646456 129.85971 
C 232.132892 129.346147 231.436253 129.057589 230.709964 129.057589 
C 229.983676 129.057589 229.287036 129.346147 228.773473 129.85971 
C 228.259909 130.373274 227.971352 131.069913 227.971352 131.796202 
C 227.971352 132.522491 228.259909 133.21913 228.773473 133.732694 
C 229.287036 134.246257 229.983676 134.534815 230.709964 134.534815 
z
" clip-path="url(#p5fa9288aa7)"/>
   </g>
   <g id="matplotlib.axis_1"/>
   <g id="matplotlib.axis_2"/>
   <g id="line2d_1">
    <path d="M 15.646154 316.499148 
L 15.734108 307.232481 
L 15.982543 300.165296 
L 16.453725 293.248167 
L 17.264481 285.995441 
L 17.945346 281.604653 
L 19.191792 275.400852 
L 20.788878 269.287151 
L 22.032577 265.350943 
L 23.976959 260.105283 
L 26.357281 254.687151 
L 28.312307 250.804984 
L 30.928751 246.183211 
L 33.396486 242.279033 
L 36.638333 237.657221 
L 39.8632 233.501842 
L 43.681963 229.023532 
L 47.843597 224.573288 
L 51.843677 220.633751 
L 55.588044 217.192432 
L 60.867 212.675098 
L 65.613179 208.892237 
L 72.103565 204.070395 
L 79.286419 199.123651 
L 86.58505 194.440691 
L 94.295728 189.804578 
L 103.200319 184.781659 
L 112.530003 179.836501 
L 123.137926 174.54235 
L 133.045372 169.86288 
L 143.779243 165.036964 
L 153.804704 160.725599 
L 168.30578 154.772676 
L 181.003533 149.792052 
L 194.1581 144.8232 
L 213.876675 137.673328 
L 233.738192 130.7572 
L 255.404278 123.453485 
L 289.150338 112.383516 
L 338.588864 96.223806 
L 358.443234 89.48848 
L 372.403579 84.548968 
L 384.478471 80.062001 
L 394.681134 76.041381 
L 403.780657 72.195061 
L 411.563547 68.616345 
L 417.493299 65.62187 
L 422.218771 62.985874 
L 426.168016 60.525248 
L 429.11184 58.456701 
L 432.053375 56.062771 
L 434.057034 54.107442 
L 435.500875 52.388776 
L 436.656435 50.621712 
L 437.419213 48.964968 
L 437.838095 47.403941 
L 437.953846 46.038903 
L 437.875804 44.981399 
L 437.537181 43.579384 
L 436.78546 41.938948 
L 435.967775 40.720751 
L 434.681725 39.259506 
L 432.834824 37.628371 
L 430.365813 35.890993 
L 427.741185 34.361308 
L 424.416774 32.713354 
L 419.940394 30.825174 
L 414.689228 28.929825 
L 408.79284 27.08121 
L 402.668325 25.384265 
L 394.334209 23.34046 
L 386.058437 21.536602 
L 376.325288 19.631599 
L 365.479426 17.72126 
L 351.798443 15.557458 
L 338.019299 13.594135 
L 335.573862 13.264689 
L 335.573862 13.264689 
" clip-path="url(#p5fa9288aa7)" style="fill: none; stroke: #000000; stroke-width: 2; stroke-linecap: square"/>
   </g>
   <g id="patch_3">
    <path d="M 230.709964 131.796202 
Q 307.325749 105.444335 381.827042 79.819743 
" clip-path="url(#p5fa9288aa7)" style="fill: none; stroke: #800080; stroke-width: 2; stroke-linecap: round"/>
    <path d="M 370.744516 78.344073 
L 381.827042 79.819743 
L 373.99699 87.800362 
L 370.744516 78.344073 
z
" clip-path="url(#p5fa9288aa7)" style="fill: #800080; stroke: #800080; stroke-width: 2; stroke-linecap: round"/>
   </g>
   <g id="patch_4">
    <path d="M 230.709964 131.796202 
Q 257.061832 208.411986 282.686424 282.91328 
" clip-path="url(#p5fa9288aa7)" style="fill: none; stroke: #ff0000; stroke-width: 2; stroke-linecap: round"/>
    <path d="M 284.162094 271.830753 
L 282.686424 282.91328 
L 274.705804 275.083228 
L 284.162094 271.830753 
z
" clip-path="url(#p5fa9288aa7)" style="fill: #ff0000; stroke: #ff0000; stroke-width: 2; stroke-linecap: round"/>
   </g>
   <g id="patch_5">
    <path d="M 230.709964 131.796202 
Q 276.336618 116.102993 319.84878 101.137059 
" clip-path="url(#p5fa9288aa7)" style="fill: none; stroke: #0000ff; stroke-width: 2; stroke-linecap: round"/>
    <path d="M 308.766254 99.661389 
L 319.84878 101.137059 
L 312.018728 109.117679 
L 308.766254 99.661389 
z
" clip-path="url(#p5fa9288aa7)" style="fill: #0000ff; stroke: #0000ff; stroke-width: 2; stroke-linecap: round"/>
   </g>
   <g id="patch_6">
    <path d="M 230.709964 131.796202 
Q 244.368579 171.507448 257.299919 209.104203 
" clip-path="url(#p5fa9288aa7)" style="fill: none; stroke: #ffa500; stroke-width: 2; stroke-linecap: round"/>
    <path d="M 258.775589 198.021677 
L 257.299919 209.104203 
L 249.319299 201.274151 
L 258.775589 198.021677 
z
" clip-path="url(#p5fa9288aa7)" style="fill: #ffa500; stroke: #ffa500; stroke-width: 2; stroke-linecap: round"/>
   </g>
   <g id="patch_7">
    <path d="M 230.709964 131.796202 
Q 289.995233 155.814239 347.208047 178.99267 
" clip-path="url(#p5fa9288aa7)" style="fill: none; stroke: #008000; stroke-width: 2; stroke-linecap: round"/>
    <path d="M 339.817171 170.603693 
L 347.208047 178.99267 
L 336.06234 179.871985 
L 339.817171 170.603693 
z
" clip-path="url(#p5fa9288aa7)" style="fill: #008000; stroke: #008000; stroke-width: 2; stroke-linecap: round"/>
   </g>
  </g>
 </g>
 <defs>
  <clipPath id="p5fa9288aa7">
   <rect x="7.2" y="7.2" width="439.2" height="315.363837"/>
  </clipPath>
 </defs>
</svg>
