<?xml version="1.0" encoding="utf-8" standalone="no"?>
<!DOCTYPE svg PUBLIC "-//W3C//DTD SVG 1.1//EN"
  "http://www.w3.org/Graphics/SVG/1.1/DTD/svg11.dtd">
<svg xmlns:xlink="http://www.w3.org/1999/xlink" width="271.144093pt" height="338.4pt" viewBox="0 0 271.144093 338.4" xmlns="http://www.w3.org/2000/svg" version="1.1">
 <metadata>
  <rdf:RDF xmlns:dc="http://purl.org/dc/elements/1.1/" xmlns:cc="http://creativecommons.org/ns#" xmlns:rdf="http://www.w3.org/1999/02/22-rdf-syntax-ns#">
   <cc:Work>
    <dc:type rdf:resource="http://purl.org/dc/dcmitype/StillImage"/>
    <dc:date>2025-02-05T13:27:35.352801</dc:date>
    <dc:format>image/svg+xml</dc:format>
    <dc:creator>
     <cc:Agent>
      <dc:title>Matplotlib v3.8.0, https://matplotlib.org/</dc:title>
     </cc:Agent>
    </dc:creator>
   </cc:Work>
  </rdf:RDF>
 </metadata>
 <defs>
  <style type="text/css">*{stroke-linejoin: round; stroke-linecap: butt}</style>
 </defs>
 <g id="figure_1">
  <g id="patch_1">
   <path d="M 0 338.4 
L 271.144093 338.4 
L 271.144093 0 
L 0 0 
z
" style="fill: #ffffff"/>
  </g>
  <g id="axes_1">
   <g id="patch_2">
    <path d="M 18.530508 331.2 
L 263.944093 331.2 
L 263.944093 7.2 
L 18.530508 7.2 
z
" style="fill: #ffffff"/>
   </g>
   <g id="PathCollection_1">
    <path d="M 124.068817 43.570065 
C 125.006451 43.570065 125.905809 43.197539 126.568817 42.534531 
C 127.231825 41.871523 127.604351 40.972165 127.604351 40.034531 
C 127.604351 39.096896 127.231825 38.197539 126.568817 37.534531 
C 125.905809 36.871523 125.006451 36.498997 124.068817 36.498997 
C 123.131182 36.498997 122.231825 36.871523 121.568817 37.534531 
C 120.905809 38.197539 120.533283 39.096896 120.533283 40.034531 
C 120.533283 40.972165 120.905809 41.871523 121.568817 42.534531 
C 122.231825 43.197539 123.131182 43.570065 124.068817 43.570065 
z
" clip-path="url(#p90dd8cb381)"/>
   </g>
   <g id="PathCollection_2">
    <path d="M 115.47757 120.870797 
C 116.415205 120.870797 117.314562 120.498271 117.97757 119.835263 
C 118.640578 119.172256 119.013104 118.272898 119.013104 117.335263 
C 119.013104 116.397629 118.640578 115.498271 117.97757 114.835263 
C 117.314562 114.172256 116.415205 113.799729 115.47757 113.799729 
C 114.539936 113.799729 113.640578 114.172256 112.97757 114.835263 
C 112.314562 115.498271 111.942036 116.397629 111.942036 117.335263 
C 111.942036 118.272898 112.314562 119.172256 112.97757 119.835263 
C 113.640578 120.498271 114.539936 120.870797 115.47757 120.870797 
z
" clip-path="url(#p90dd8cb381)"/>
   </g>
   <g id="matplotlib.axis_1"/>
   <g id="matplotlib.axis_2"/>
   <g id="line2d_1">
    <path d="M 137.800776 13.430769 
L 133.956116 19.972948 
L 130.449006 26.448293 
L 127.364258 32.664239 
L 124.856634 38.189448 
L 122.564943 43.733153 
L 120.573399 49.071087 
L 118.868306 54.178012 
L 117.353702 59.31492 
L 115.979936 64.723114 
L 114.819031 70.224806 
L 113.839454 76.161874 
L 113.284484 80.71386 
L 112.838047 86.357528 
L 112.675066 91.047898 
L 112.726869 96.44069 
L 113.002773 101.358755 
L 113.579004 106.874594 
L 114.203515 111.024317 
L 114.988866 115.13811 
L 116.326145 120.717882 
L 117.659703 125.280849 
L 119.491211 130.586143 
L 121.046716 134.51033 
L 123.172208 139.273507 
L 125.52023 143.948235 
L 128.231777 148.782019 
L 131.598272 154.154261 
L 134.020557 157.683665 
L 137.610801 162.504576 
L 141.495787 167.273033 
L 145.062788 171.316758 
L 148.812608 175.279864 
L 153.321684 179.715357 
L 158.049276 184.037709 
L 162.81055 188.101506 
L 167.944233 192.203051 
L 172.072395 195.316225 
L 178.535346 199.900054 
L 184.842081 204.073275 
L 190.688561 207.709992 
L 197.088593 211.463992 
L 204.558569 215.578383 
L 211.644184 219.243759 
L 219.220417 222.934224 
L 227.093413 226.543665 
L 235.353707 230.10747 
L 245.575637 234.232656 
L 255.362936 237.916286 
L 259.224601 239.303766 
L 259.224601 239.303766 
" clip-path="url(#p90dd8cb381)" style="fill: none; stroke: #000000; stroke-width: 2; stroke-linecap: square"/>
   </g>
   <g id="patch_3">
    <path d="M 124.068817 40.034531 
Q 82.767439 138.319938 42.332323 234.543891 
" clip-path="url(#p90dd8cb381)" style="fill: none; stroke: #0000ff; stroke-width: 2; stroke-linecap: round"/>
    <path d="M 50.815913 227.26181 
L 42.332323 234.543891 
L 41.596812 223.38777 
z
" clip-path="url(#p90dd8cb381)" style="fill: #0000ff; stroke: #0000ff; stroke-width: 2; stroke-linecap: round"/>
   </g>
   <g id="patch_4">
    <path d="M 115.47757 117.335263 
Q 139.723371 221.152247 163.460638 322.791757 
" clip-path="url(#p90dd8cb381)" style="fill: none; stroke: #0000ff; stroke-width: 2; stroke-linecap: round"/>
    <path d="M 166.055378 311.916679 
L 163.460638 322.791757 
L 156.31742 314.190918 
z
" clip-path="url(#p90dd8cb381)" style="fill: #0000ff; stroke: #0000ff; stroke-width: 2; stroke-linecap: round"/>
   </g>
   <g id="text_1">
    <!-- $\vec{r}_1(t_0)$ -->
    <g transform="translate(142.013066 45.234531) scale(0.2 -0.2)">
     <defs>
      <path id="Cmmi10-7e" d="M 1281 3809 
Q 1231 3809 1198 3846 
Q 1166 3884 1166 3938 
Q 1166 3984 1198 4023 
Q 1231 4063 1281 4063 
L 3547 4063 
Q 3378 4291 3378 4441 
Q 3378 4497 3417 4533 
Q 3456 4569 3506 4569 
Q 3613 4569 3634 4469 
Q 3697 4194 3938 4044 
Q 4000 4003 4000 3938 
Q 4000 3859 3938 3828 
Q 3575 3647 3353 3347 
Q 3328 3303 3256 3303 
Q 3209 3303 3168 3340 
Q 3128 3378 3128 3431 
Q 3128 3547 3438 3809 
L 1281 3809 
z
" transform="scale(0.015625)"/>
      <path id="Cmmi10-72" d="M 494 109 
Q 494 147 500 166 
L 978 2075 
Q 1025 2253 1025 2388 
Q 1025 2663 838 2663 
Q 638 2663 541 2423 
Q 444 2184 353 1819 
Q 353 1800 334 1789 
Q 316 1778 300 1778 
L 225 1778 
Q 203 1778 187 1801 
Q 172 1825 172 1844 
Q 241 2122 305 2315 
Q 369 2509 505 2668 
Q 641 2828 844 2828 
Q 1066 2828 1233 2700 
Q 1400 2572 1441 2363 
Q 1603 2575 1811 2701 
Q 2019 2828 2266 2828 
Q 2469 2828 2623 2709 
Q 2778 2591 2778 2388 
Q 2778 2225 2676 2104 
Q 2575 1984 2406 1984 
Q 2303 1984 2233 2048 
Q 2163 2113 2163 2216 
Q 2163 2356 2266 2467 
Q 2369 2578 2503 2578 
Q 2400 2663 2253 2663 
Q 1978 2663 1775 2467 
Q 1572 2272 1409 1972 
L 953 141 
Q 931 53 854 -9 
Q 778 -72 684 -72 
Q 606 -72 550 -22 
Q 494 28 494 109 
z
" transform="scale(0.015625)"/>
      <path id="Cmr10-31" d="M 594 0 
L 594 225 
Q 1394 225 1394 428 
L 1394 3788 
Q 1063 3628 556 3628 
L 556 3853 
Q 1341 3853 1741 4263 
L 1831 4263 
Q 1853 4263 1873 4245 
Q 1894 4228 1894 4206 
L 1894 428 
Q 1894 225 2694 225 
L 2694 0 
L 594 0 
z
" transform="scale(0.015625)"/>
      <path id="Cmr10-28" d="M 1984 -1588 
Q 1628 -1306 1370 -942 
Q 1113 -578 948 -165 
Q 784 247 703 697 
Q 622 1147 622 1600 
Q 622 2059 703 2509 
Q 784 2959 951 3375 
Q 1119 3791 1378 4153 
Q 1638 4516 1984 4788 
Q 1984 4800 2016 4800 
L 2075 4800 
Q 2094 4800 2109 4783 
Q 2125 4766 2125 4744 
Q 2125 4716 2113 4703 
Q 1800 4397 1592 4047 
Q 1384 3697 1257 3301 
Q 1131 2906 1075 2482 
Q 1019 2059 1019 1600 
Q 1019 -434 2106 -1491 
Q 2125 -1509 2125 -1544 
Q 2125 -1559 2108 -1579 
Q 2091 -1600 2075 -1600 
L 2016 -1600 
Q 1984 -1600 1984 -1588 
z
" transform="scale(0.015625)"/>
      <path id="Cmmi10-74" d="M 397 519 
Q 397 613 416 697 
L 878 2534 
L 206 2534 
Q 141 2534 141 2619 
Q 166 2759 225 2759 
L 934 2759 
L 1191 3803 
Q 1216 3888 1291 3947 
Q 1366 4006 1459 4006 
Q 1541 4006 1595 3957 
Q 1650 3909 1650 3828 
Q 1650 3809 1648 3798 
Q 1647 3788 1644 3775 
L 1388 2759 
L 2047 2759 
Q 2113 2759 2113 2675 
Q 2109 2659 2100 2621 
Q 2091 2584 2075 2559 
Q 2059 2534 2028 2534 
L 1331 2534 
L 872 684 
Q 825 503 825 372 
Q 825 97 1013 97 
Q 1294 97 1511 361 
Q 1728 625 1844 941 
Q 1869 978 1894 978 
L 1972 978 
Q 1997 978 2012 961 
Q 2028 944 2028 922 
Q 2028 909 2022 903 
Q 1881 516 1612 222 
Q 1344 -72 997 -72 
Q 744 -72 570 93 
Q 397 259 397 519 
z
" transform="scale(0.015625)"/>
      <path id="Cmr10-30" d="M 1600 -141 
Q 816 -141 533 504 
Q 250 1150 250 2041 
Q 250 2597 351 3087 
Q 453 3578 754 3920 
Q 1056 4263 1600 4263 
Q 2022 4263 2290 4056 
Q 2559 3850 2700 3523 
Q 2841 3197 2892 2823 
Q 2944 2450 2944 2041 
Q 2944 1491 2842 1011 
Q 2741 531 2444 195 
Q 2147 -141 1600 -141 
z
M 1600 25 
Q 1956 25 2131 390 
Q 2306 756 2347 1200 
Q 2388 1644 2388 2144 
Q 2388 2625 2347 3031 
Q 2306 3438 2132 3767 
Q 1959 4097 1600 4097 
Q 1238 4097 1063 3765 
Q 888 3434 847 3029 
Q 806 2625 806 2144 
Q 806 1788 823 1472 
Q 841 1156 916 820 
Q 991 484 1158 254 
Q 1325 25 1600 25 
z
" transform="scale(0.015625)"/>
      <path id="Cmr10-29" d="M 416 -1600 
Q 359 -1600 359 -1544 
Q 359 -1516 372 -1503 
Q 1466 -434 1466 1600 
Q 1466 3634 384 4691 
Q 359 4706 359 4744 
Q 359 4766 376 4783 
Q 394 4800 416 4800 
L 475 4800 
Q 494 4800 506 4788 
Q 966 4425 1272 3906 
Q 1578 3388 1720 2800 
Q 1863 2213 1863 1600 
Q 1863 1147 1786 708 
Q 1709 269 1542 -157 
Q 1375 -584 1119 -945 
Q 863 -1306 506 -1588 
Q 494 -1600 475 -1600 
L 416 -1600 
z
" transform="scale(0.015625)"/>
     </defs>
     <use xlink:href="#Cmmi10-7e" transform="translate(-11.939453 5.609375)"/>
     <use xlink:href="#Cmmi10-72" transform="translate(0 0.53125)"/>
     <use xlink:href="#Cmr10-31" transform="translate(49.581328 -16.475) scale(0.7)"/>
     <use xlink:href="#Cmr10-28" transform="translate(90.958672 0.53125)"/>
     <use xlink:href="#Cmmi10-74" transform="translate(129.777031 0.53125)"/>
     <use xlink:href="#Cmr10-30" transform="translate(165.861016 -16.475) scale(0.7)"/>
     <use xlink:href="#Cmr10-29" transform="translate(207.238359 0.53125)"/>
    </g>
   </g>
   <g id="text_2">
    <!-- $\vec{T}(t_0)$ -->
    <g style="fill: #0000ff" transform="translate(7.2 209.543542) scale(0.15 -0.15)">
     <defs>
      <path id="Cmmi10-54" d="M 294 84 
Q 297 100 308 140 
Q 319 181 336 203 
Q 353 225 384 225 
Q 934 225 1113 256 
Q 1284 300 1319 441 
L 2194 3956 
Q 2222 4034 2222 4097 
Q 2222 4147 1997 4147 
L 1625 4147 
Q 1197 4147 964 4015 
Q 731 3884 622 3668 
Q 513 3453 341 2963 
Q 319 2906 275 2906 
L 219 2906 
Q 153 2906 153 2988 
L 609 4313 
Q 622 4372 672 4372 
L 4453 4372 
Q 4519 4372 4519 4288 
L 4306 2963 
Q 4306 2944 4284 2925 
Q 4263 2906 4244 2906 
L 4184 2906 
Q 4122 2906 4122 2988 
Q 4191 3441 4191 3628 
Q 4191 3853 4097 3968 
Q 4003 4084 3853 4115 
Q 3703 4147 3463 4147 
L 3084 4147 
Q 2913 4147 2853 4115 
Q 2794 4084 2753 3928 
L 1875 416 
Q 1872 403 1870 390 
Q 1869 378 1863 359 
Q 1863 278 1959 256 
Q 2125 225 2669 225 
Q 2731 225 2731 141 
Q 2709 50 2696 25 
Q 2684 0 2625 0 
L 359 0 
Q 294 0 294 84 
z
" transform="scale(0.015625)"/>
     </defs>
     <use xlink:href="#Cmmi10-7e" transform="translate(-3.619141 29.609375)"/>
     <use xlink:href="#Cmmi10-54" transform="translate(0 0.40625)"/>
     <use xlink:href="#Cmr10-28" transform="translate(58.398438 0.40625)"/>
     <use xlink:href="#Cmmi10-74" transform="translate(97.216797 0.40625)"/>
     <use xlink:href="#Cmr10-30" transform="translate(133.300781 -16.6) scale(0.7)"/>
     <use xlink:href="#Cmr10-29" transform="translate(174.678125 0.40625)"/>
    </g>
   </g>
   <g id="text_3">
    <!-- $\vec{r}_1(t_0+\Delta h)$ -->
    <g transform="translate(140.105006 122.535263) scale(0.2 -0.2)">
     <defs>
      <path id="Cmr10-2b" d="M 481 1472 
Q 428 1472 393 1512 
Q 359 1553 359 1600 
Q 359 1647 393 1687 
Q 428 1728 481 1728 
L 2363 1728 
L 2363 3616 
Q 2363 3666 2400 3698 
Q 2438 3731 2491 3731 
Q 2538 3731 2578 3698 
Q 2619 3666 2619 3616 
L 2619 1728 
L 4500 1728 
Q 4547 1728 4581 1687 
Q 4616 1647 4616 1600 
Q 4616 1553 4581 1512 
Q 4547 1472 4500 1472 
L 2619 1472 
L 2619 -416 
Q 2619 -466 2578 -498 
Q 2538 -531 2491 -531 
Q 2438 -531 2400 -498 
Q 2363 -466 2363 -416 
L 2363 1472 
L 481 1472 
z
" transform="scale(0.015625)"/>
      <path id="Cmr10-a2" d="M 347 0 
Q 294 0 294 50 
Q 297 56 298 59 
Q 300 63 300 72 
L 2503 4513 
Q 2531 4581 2619 4581 
L 2706 4581 
Q 2794 4581 2822 4513 
L 5025 72 
Q 5028 66 5029 61 
Q 5031 56 5031 50 
Q 5031 0 4978 0 
L 347 0 
z
M 769 513 
L 4141 513 
L 2456 3909 
L 769 513 
z
" transform="scale(0.015625)"/>
      <path id="Cmmi10-68" d="M 341 116 
Q 341 153 347 172 
L 1275 3872 
Q 1300 3981 1306 4044 
Q 1306 4147 891 4147 
Q 825 4147 825 4231 
Q 828 4247 839 4287 
Q 850 4328 867 4350 
Q 884 4372 916 4372 
L 1778 4441 
L 1797 4441 
Q 1797 4434 1819 4423 
Q 1841 4413 1844 4409 
Q 1856 4378 1856 4359 
L 1356 2363 
Q 1750 2828 2291 2828 
Q 2516 2828 2680 2750 
Q 2844 2672 2936 2514 
Q 3028 2356 3028 2138 
Q 3028 1875 2911 1503 
Q 2794 1131 2619 672 
Q 2528 463 2528 288 
Q 2528 97 2675 97 
Q 2925 97 3092 364 
Q 3259 631 3328 941 
Q 3341 978 3378 978 
L 3456 978 
Q 3481 978 3497 961 
Q 3513 944 3513 922 
Q 3513 916 3506 903 
Q 3450 672 3339 448 
Q 3228 225 3059 76 
Q 2891 -72 2663 -72 
Q 2438 -72 2278 83 
Q 2119 238 2119 459 
Q 2119 578 2169 709 
Q 2350 1191 2470 1569 
Q 2591 1947 2591 2234 
Q 2591 2419 2519 2541 
Q 2447 2663 2278 2663 
Q 1934 2663 1678 2452 
Q 1422 2241 1234 1894 
L 800 147 
Q 775 50 703 -11 
Q 631 -72 538 -72 
Q 456 -72 398 -17 
Q 341 38 341 116 
z
" transform="scale(0.015625)"/>
     </defs>
     <use xlink:href="#Cmmi10-7e" transform="translate(-11.939453 5.609375)"/>
     <use xlink:href="#Cmmi10-72" transform="translate(0 0.53125)"/>
     <use xlink:href="#Cmr10-31" transform="translate(49.581328 -16.475) scale(0.7)"/>
     <use xlink:href="#Cmr10-28" transform="translate(90.958672 0.53125)"/>
     <use xlink:href="#Cmmi10-74" transform="translate(129.777031 0.53125)"/>
     <use xlink:href="#Cmr10-30" transform="translate(165.861016 -16.475) scale(0.7)"/>
     <use xlink:href="#Cmr10-2b" transform="translate(224.796953 0.53125)"/>
     <use xlink:href="#Cmr10-a2" transform="translate(320.041094 0.53125)"/>
     <use xlink:href="#Cmmi10-68" transform="translate(403.341875 0.53125)"/>
     <use xlink:href="#Cmr10-29" transform="translate(460.959062 0.53125)"/>
    </g>
   </g>
   <g id="text_4">
    <!-- $\vec{T}(t_0+\Delta h)$ -->
    <g style="fill: #0000ff" transform="translate(56.820865 296.06357) scale(0.15 -0.15)">
     <use xlink:href="#Cmmi10-7e" transform="translate(-3.619141 29.609375)"/>
     <use xlink:href="#Cmmi10-54" transform="translate(0 0.40625)"/>
     <use xlink:href="#Cmr10-28" transform="translate(58.398438 0.40625)"/>
     <use xlink:href="#Cmmi10-74" transform="translate(97.216797 0.40625)"/>
     <use xlink:href="#Cmr10-30" transform="translate(133.300781 -16.6) scale(0.7)"/>
     <use xlink:href="#Cmr10-2b" transform="translate(192.236719 0.40625)"/>
     <use xlink:href="#Cmr10-a2" transform="translate(287.480859 0.40625)"/>
     <use xlink:href="#Cmmi10-68" transform="translate(370.781641 0.40625)"/>
     <use xlink:href="#Cmr10-29" transform="translate(428.398828 0.40625)"/>
    </g>
   </g>
  </g>
 </g>
 <defs>
  <clipPath id="p90dd8cb381">
   <rect x="18.530508" y="7.2" width="245.413585" height="324"/>
  </clipPath>
 </defs>
</svg>
