<?xml version="1.0" encoding="utf-8" standalone="no"?>
<!DOCTYPE svg PUBLIC "-//W3C//DTD SVG 1.1//EN"
  "http://www.w3.org/Graphics/SVG/1.1/DTD/svg11.dtd">
<svg xmlns:xlink="http://www.w3.org/1999/xlink" width="453.6pt" height="236.334547pt" viewBox="0 0 453.6 236.334547" xmlns="http://www.w3.org/2000/svg" version="1.1">
 <metadata>
  <rdf:RDF xmlns:dc="http://purl.org/dc/elements/1.1/" xmlns:cc="http://creativecommons.org/ns#" xmlns:rdf="http://www.w3.org/1999/02/22-rdf-syntax-ns#">
   <cc:Work>
    <dc:type rdf:resource="http://purl.org/dc/dcmitype/StillImage"/>
    <dc:date>2024-08-29T09:20:08.228583</dc:date>
    <dc:format>image/svg+xml</dc:format>
    <dc:creator>
     <cc:Agent>
      <dc:title>Matplotlib v3.8.0, https://matplotlib.org/</dc:title>
     </cc:Agent>
    </dc:creator>
   </cc:Work>
  </rdf:RDF>
 </metadata>
 <defs>
  <style type="text/css">*{stroke-linejoin: round; stroke-linecap: butt}</style>
 </defs>
 <g id="figure_1">
  <g id="patch_1">
   <path d="M 0 236.334547 
L 453.6 236.334547 
L 453.6 0 
L 0 0 
z
" style="fill: #ffffff"/>
  </g>
  <g id="axes_1">
   <g id="patch_2">
    <path d="M 7.2 229.134547 
L 446.4 229.134547 
L 446.4 7.2 
L 7.2 7.2 
z
" style="fill: #ffffff"/>
   </g>
   <g id="PathCollection_1">
    <path d="M 411.548113 51.287193 
C 412.274401 51.287193 412.971041 50.998636 413.484604 50.485072 
C 413.998168 49.971509 414.286725 49.274869 414.286725 48.548581 
C 414.286725 47.822292 413.998168 47.125652 413.484604 46.612089 
C 412.971041 46.098525 412.274401 45.809968 411.548113 45.809968 
C 410.821824 45.809968 410.125185 46.098525 409.611621 46.612089 
C 409.098057 47.125652 408.8095 47.822292 408.8095 48.548581 
C 408.8095 49.274869 409.098057 49.971509 409.611621 50.485072 
C 410.125185 50.998636 410.821824 51.287193 411.548113 51.287193 
z
" clip-path="url(#pb7b7dacf35)"/>
   </g>
   <g id="matplotlib.axis_1"/>
   <g id="matplotlib.axis_2"/>
   <g id="line2d_1">
    <path d="M 437.953846 75.116931 
L 435.228513 71.540274 
L 431.708611 67.297201 
L 427.754437 62.953864 
L 423.385341 58.589291 
L 418.451588 54.120572 
L 413.442112 50.006114 
L 409.143631 46.769151 
L 405.782976 44.406475 
L 399.030177 40.055313 
L 394.030918 37.138866 
L 388.125667 33.990555 
L 381.474869 30.790981 
L 378.504303 29.47062 
L 370.148493 26.085616 
L 362.614344 23.41547 
L 354.945382 21.034827 
L 349.133846 19.440166 
L 341.942364 17.699686 
L 336.769754 16.598173 
L 328.811624 15.135061 
L 320.302181 13.863782 
L 311.620555 12.860544 
L 306.918808 12.435193 
L 296.521189 11.775205 
L 289.615832 11.542102 
L 279.14361 11.487269 
L 270.794618 11.692077 
L 260.096872 12.265041 
L 252.310824 12.895183 
L 241.765977 14.027553 
L 230.243563 15.62428 
L 222.78011 16.855753 
L 214.198072 18.461671 
L 204.592695 20.499017 
L 194.494139 22.914465 
L 181.478139 26.444626 
L 171.914086 29.342629 
L 161.073136 32.946995 
L 150.914407 36.642686 
L 141.318257 40.428399 
L 133.921 43.551127 
L 123.66642 48.191273 
L 113.675112 53.084324 
L 105.282003 57.502916 
L 97.790269 61.706603 
L 90.114708 66.292461 
L 83.651031 70.396234 
L 75.767752 75.738096 
L 70.821169 79.302632 
L 63.073041 85.267464 
L 57.788672 89.645575 
L 52.208798 94.594623 
L 46.422637 100.154709 
L 41.808037 104.976605 
L 37.874283 109.428935 
L 34.024416 114.174 
L 31.833773 117.089271 
L 29.041139 121.094238 
L 26.394909 125.27481 
L 24.945802 127.77263 
L 22.12348 133.237992 
L 20.277126 137.456852 
L 19.182226 140.34847 
L 18.417932 142.63025 
L 17.411021 146.164357 
L 16.525509 150.226739 
L 15.944261 154.249849 
L 15.669475 158.231169 
L 15.660846 160.99375 
L 15.890257 164.676199 
L 16.429536 168.486413 
L 17.150437 171.762565 
L 18.077473 174.908424 
L 18.870284 177.113002 
L 20.039358 179.879213 
L 21.78223 183.328419 
L 24.027102 187.030558 
L 26.755113 190.818539 
L 29.850613 194.490591 
L 32.964043 197.712411 
L 36.124087 200.623252 
L 39.102168 203.106818 
L 42.734425 205.861535 
L 46.55641 208.493568 
L 51.599532 211.626438 
L 56.486125 214.359203 
L 63.517544 217.867492 
L 70.145332 220.798884 
L 76.356161 223.271478 
L 80.706889 224.866575 
L 80.706889 224.866575 
" clip-path="url(#pb7b7dacf35)" style="fill: none; stroke: #000000; stroke-width: 2; stroke-linecap: square"/>
   </g>
   <g id="patch_3">
    <path d="M 181.156042 26.537998 
Q 180.129062 26.839154 181.247796 26.511091 
" clip-path="url(#pb7b7dacf35)" style="fill: none; stroke: #000000; stroke-width: 2; stroke-linecap: round"/>
    <path d="M 192.250691 28.495105 
L 181.247796 26.511091 
L 189.436743 18.899184 
z
" clip-path="url(#pb7b7dacf35)" style="stroke: #000000; stroke-width: 2; stroke-linecap: round"/>
   </g>
   <g id="patch_4">
    <path d="M 411.548113 48.548581 
Q 376.053409 39.083326 342.719273 30.194223 
" clip-path="url(#pb7b7dacf35)" style="fill: none; stroke: #ff0000; stroke-width: 2; stroke-linecap: round"/>
    <path d="M 351.093309 37.602025 
L 342.719273 30.194223 
L 353.669936 27.939675 
z
" clip-path="url(#pb7b7dacf35)" style="fill: #ff0000; stroke: #ff0000; stroke-width: 2; stroke-linecap: round"/>
   </g>
   <g id="text_1">
    <!-- $P$ -->
    <g transform="translate(414.513367 35.136822) scale(0.2 -0.2)">
     <defs>
      <path id="Cmmi10-50" d="M 313 0 
Q 250 0 250 84 
Q 253 100 262 139 
Q 272 178 289 201 
Q 306 225 331 225 
Q 722 225 878 269 
Q 959 297 997 441 
L 1875 3956 
Q 1888 4019 1888 4044 
Q 1888 4113 1813 4122 
Q 1691 4147 1350 4147 
Q 1288 4147 1288 4231 
Q 1291 4247 1300 4286 
Q 1309 4325 1326 4348 
Q 1344 4372 1369 4372 
L 3578 4372 
Q 3881 4372 4165 4264 
Q 4450 4156 4631 3934 
Q 4813 3713 4813 3397 
Q 4813 2991 4527 2672 
Q 4241 2353 3814 2175 
Q 3388 1997 2988 1997 
L 1947 1997 
L 1556 416 
Q 1544 353 1544 325 
Q 1544 300 1551 283 
Q 1559 266 1573 261 
Q 1588 256 1619 250 
Q 1741 225 2081 225 
Q 2144 225 2144 141 
Q 2122 50 2109 25 
Q 2097 0 2034 0 
L 313 0 
z
M 1978 2188 
L 2875 2188 
Q 3497 2188 3822 2522 
Q 3988 2688 4092 3000 
Q 4197 3313 4197 3566 
Q 4197 3881 3956 4014 
Q 3716 4147 3359 4147 
L 2747 4147 
Q 2572 4147 2515 4117 
Q 2459 4088 2413 3928 
L 1978 2188 
z
" transform="scale(0.015625)"/>
     </defs>
     <use xlink:href="#Cmmi10-50" transform="translate(0 0.6875)"/>
    </g>
   </g>
  </g>
 </g>
 <defs>
  <clipPath id="pb7b7dacf35">
   <rect x="7.2" y="7.2" width="439.2" height="221.934547"/>
  </clipPath>
 </defs>
</svg>
