<?xml version="1.0" encoding="utf-8" standalone="no"?>
<!DOCTYPE svg PUBLIC "-//W3C//DTD SVG 1.1//EN"
  "http://www.w3.org/Graphics/SVG/1.1/DTD/svg11.dtd">
<svg xmlns:xlink="http://www.w3.org/1999/xlink" width="452.644161pt" height="225.13545pt" viewBox="0 0 452.644161 225.13545" xmlns="http://www.w3.org/2000/svg" version="1.1">
 <metadata>
  <rdf:RDF xmlns:dc="http://purl.org/dc/elements/1.1/" xmlns:cc="http://creativecommons.org/ns#" xmlns:rdf="http://www.w3.org/1999/02/22-rdf-syntax-ns#">
   <cc:Work>
    <dc:type rdf:resource="http://purl.org/dc/dcmitype/StillImage"/>
    <dc:date>2025-01-29T09:03:43.362126</dc:date>
    <dc:format>image/svg+xml</dc:format>
    <dc:creator>
     <cc:Agent>
      <dc:title>Matplotlib v3.6.2, https://matplotlib.org/</dc:title>
     </cc:Agent>
    </dc:creator>
   </cc:Work>
  </rdf:RDF>
 </metadata>
 <defs>
  <style type="text/css">*{stroke-linejoin: round; stroke-linecap: butt}</style>
 </defs>
 <g id="figure_1">
  <g id="patch_1">
   <path d="M 0 225.13545 
L 452.644161 225.13545 
L 452.644161 -0 
L 0 -0 
z
" style="fill: #ffffff"/>
  </g>
  <g id="axes_1">
   <g id="patch_2">
    <path d="M 10.944232 217.93545 
L 445.444161 217.93545 
L 445.444161 7.2 
L 10.944232 7.2 
z
" style="fill: #ffffff"/>
   </g>
   <g id="PathCollection_1">
    <path d="M 40.896684 133.422807 
C 41.834319 133.422807 42.733677 133.050281 43.396684 132.387273 
C 44.059692 131.724266 44.432218 130.824908 44.432218 129.887273 
C 44.432218 128.949639 44.059692 128.050281 43.396684 127.387273 
C 42.733677 126.724266 41.834319 126.35174 40.896684 126.35174 
C 39.95905 126.35174 39.059692 126.724266 38.396684 127.387273 
C 37.733677 128.050281 37.361151 128.949639 37.361151 129.887273 
C 37.361151 130.824908 37.733677 131.724266 38.396684 132.387273 
C 39.059692 133.050281 39.95905 133.422807 40.896684 133.422807 
z
" clip-path="url(#p3b8bf47771)"/>
   </g>
   <g id="PathCollection_2">
    <path d="M 37.275319 166.006459 
C 38.212954 166.006459 39.112311 165.633932 39.775319 164.970925 
C 40.438327 164.307917 40.810853 163.408559 40.810853 162.470925 
C 40.810853 161.53329 40.438327 160.633932 39.775319 159.970925 
C 39.112311 159.307917 38.212954 158.935391 37.275319 158.935391 
C 36.337685 158.935391 35.438327 159.307917 34.775319 159.970925 
C 34.112311 160.633932 33.739785 161.53329 33.739785 162.470925 
C 33.739785 163.408559 34.112311 164.307917 34.775319 164.970925 
C 35.438327 165.633932 36.337685 166.006459 37.275319 166.006459 
z
" clip-path="url(#p3b8bf47771)"/>
   </g>
   <g id="matplotlib.axis_1"/>
   <g id="matplotlib.axis_2"/>
   <g id="line2d_1">
    <path d="M 437.088394 71.689219 
L 433.962068 67.618342 
L 430.277201 63.260822 
L 426.739948 59.449691 
L 422.997786 55.751244 
L 418.798895 51.949817 
L 414.205954 48.153966 
L 409.326358 44.479255 
L 404.335121 41.052904 
L 399.50602 38.020151 
L 393.454357 34.566989 
L 387.689669 31.598295 
L 380.502954 28.287376 
L 373.03475 25.257026 
L 365.626472 22.62178 
L 358.384224 20.369557 
L 352.219587 18.684814 
L 344.475448 16.849107 
L 336.628292 15.286033 
L 331.89805 14.47974 
L 321.995138 13.103263 
L 312.902686 12.18982 
L 305.006293 11.652945 
L 295.841216 11.313734 
L 286.049208 11.273045 
L 278.511028 11.459154 
L 267.041756 12.091708 
L 257.526546 12.926601 
L 251.076242 13.648535 
L 244.352265 14.533033 
L 234.552201 16.060243 
L 226.02846 17.615895 
L 216.797555 19.53777 
L 207.85041 21.635864 
L 201.07282 23.380109 
L 195.251864 24.985617 
L 186.957099 27.447054 
L 178.083474 30.310211 
L 168.279772 33.757521 
L 158.479777 37.51292 
L 151.872884 40.226873 
L 142.141463 44.505745 
L 132.147139 49.272008 
L 125.87093 52.472355 
L 117.707103 56.894811 
L 109.884006 61.433214 
L 102.400186 66.08103 
L 97.926924 69.017666 
L 92.55569 72.717573 
L 86.586226 77.077372 
L 79.968191 82.26163 
L 73.898229 87.400647 
L 69.746407 91.168449 
L 64.442945 96.344098 
L 59.04502 102.135096 
L 55.569901 106.223366 
L 51.699212 111.216903 
L 48.935224 115.156706 
L 46.274214 119.352173 
L 44.402811 122.62387 
L 42.956873 125.398872 
L 41.172254 129.240163 
L 39.944301 132.272049 
L 38.647495 136.031448 
L 37.65926 139.575143 
L 36.944817 142.897008 
L 36.515458 145.626521 
L 36.175627 149.188049 
L 36.089822 151.815507 
L 36.166516 154.773304 
L 36.51766 158.379315 
L 37.146332 161.901952 
L 38.122728 165.589206 
L 39.253546 168.801803 
L 40.206759 171.046992 
L 41.629704 173.91575 
L 43.382274 176.924382 
L 45.41318 179.926462 
L 48.461855 183.777085 
L 51.9474 187.521801 
L 55.012071 190.403008 
L 58.791477 193.56139 
L 62.415042 196.269507 
L 67.074008 199.388928 
L 71.862445 202.253913 
L 75.96799 204.484566 
L 79.837959 206.425316 
L 85.799892 209.152465 
L 92.258877 211.801599 
L 97.867282 213.882845 
L 97.867282 213.882845 
" clip-path="url(#p3b8bf47771)" style="fill: none; stroke: #000000; stroke-width: 2; stroke-linecap: square"/>
   </g>
   <g id="patch_3">
    <path d="M 193.248006 25.561464 
Q 192.272845 25.847424 193.443398 25.504167 
" clip-path="url(#p3b8bf47771)" style="fill: none; stroke: #000000; stroke-width: 2; stroke-linecap: round"/>
    <path d="M 204.446293 27.48818 
L 193.443398 25.504167 
L 201.632345 17.892259 
L 204.446293 27.48818 
z
" clip-path="url(#p3b8bf47771)" style="stroke: #000000; stroke-width: 2; stroke-linecap: round"/>
   </g>
   <g id="text_1">
    <!-- $Q_0$ -->
    <g transform="translate(19.809025 117.430704) scale(0.2 -0.2)">
     <defs>
      <path id="Cmmi10-51" d="M 1947 -141 
Q 1466 -141 1094 79 
Q 722 300 520 692 
Q 319 1084 319 1563 
Q 319 2259 714 2950 
Q 1109 3641 1756 4077 
Q 2403 4513 3109 4513 
Q 3475 4513 3778 4381 
Q 4081 4250 4290 4017 
Q 4500 3784 4614 3471 
Q 4728 3159 4728 2791 
Q 4728 2366 4581 1936 
Q 4434 1506 4171 1136 
Q 3909 766 3559 484 
Q 3209 203 2809 38 
Q 2850 -256 2934 -425 
Q 3019 -594 3256 -594 
Q 3506 -594 3726 -412 
Q 3947 -231 4006 13 
Q 4019 72 4078 72 
Q 4147 72 4147 -13 
Q 4100 -219 4008 -430 
Q 3916 -641 3786 -823 
Q 3656 -1006 3478 -1123 
Q 3300 -1241 3084 -1241 
Q 2547 -1241 2547 -550 
Q 2547 -509 2562 -332 
Q 2578 -156 2578 -44 
Q 2269 -141 1947 -141 
z
M 1709 300 
Q 1709 44 1991 44 
Q 2275 44 2591 184 
L 2591 244 
Q 2591 503 2509 648 
Q 2428 794 2194 794 
Q 2078 794 1964 723 
Q 1850 653 1779 539 
Q 1709 425 1709 300 
z
M 1544 288 
Q 1544 456 1637 612 
Q 1731 769 1881 864 
Q 2031 959 2203 959 
Q 2481 959 2607 771 
Q 2734 584 2778 281 
Q 3188 525 3500 978 
Q 3813 1431 3977 1973 
Q 4141 2516 4141 3003 
Q 4141 3356 4023 3656 
Q 3906 3956 3664 4140 
Q 3422 4325 3066 4325 
Q 2722 4325 2403 4156 
Q 2084 3988 1813 3706 
Q 1550 3434 1342 3032 
Q 1134 2631 1021 2193 
Q 909 1756 909 1356 
Q 909 947 1068 612 
Q 1228 278 1569 128 
Q 1544 194 1544 288 
z
" transform="scale(0.015625)"/>
      <path id="Cmr10-30" d="M 1600 -141 
Q 816 -141 533 504 
Q 250 1150 250 2041 
Q 250 2597 351 3087 
Q 453 3578 754 3920 
Q 1056 4263 1600 4263 
Q 2022 4263 2290 4056 
Q 2559 3850 2700 3523 
Q 2841 3197 2892 2823 
Q 2944 2450 2944 2041 
Q 2944 1491 2842 1011 
Q 2741 531 2444 195 
Q 2147 -141 1600 -141 
z
M 1600 25 
Q 1956 25 2131 390 
Q 2306 756 2347 1200 
Q 2388 1644 2388 2144 
Q 2388 2625 2347 3031 
Q 2306 3438 2132 3767 
Q 1959 4097 1600 4097 
Q 1238 4097 1063 3765 
Q 888 3434 847 3029 
Q 806 2625 806 2144 
Q 806 1788 823 1472 
Q 841 1156 916 820 
Q 991 484 1158 254 
Q 1325 25 1600 25 
z
" transform="scale(0.015625)"/>
     </defs>
     <use xlink:href="#Cmmi10-51" transform="translate(0 0.484375)"/>
     <use xlink:href="#Cmr10-30" transform="translate(79.003906 -16.521875) scale(0.7)"/>
    </g>
   </g>
   <g id="text_2">
    <!-- $Q_1$ -->
    <g transform="translate(7.2 159.002015) scale(0.2 -0.2)">
     <defs>
      <path id="Cmr10-31" d="M 594 0 
L 594 225 
Q 1394 225 1394 428 
L 1394 3788 
Q 1063 3628 556 3628 
L 556 3853 
Q 1341 3853 1741 4263 
L 1831 4263 
Q 1853 4263 1873 4245 
Q 1894 4228 1894 4206 
L 1894 428 
Q 1894 225 2694 225 
L 2694 0 
L 594 0 
z
" transform="scale(0.015625)"/>
     </defs>
     <use xlink:href="#Cmmi10-51" transform="translate(0 0.484375)"/>
     <use xlink:href="#Cmr10-31" transform="translate(79.003906 -16.521875) scale(0.7)"/>
    </g>
   </g>
  </g>
 </g>
 <defs>
  <clipPath id="p3b8bf47771">
   <rect x="10.944232" y="7.2" width="434.499929" height="210.73545"/>
  </clipPath>
 </defs>
</svg>
