<?xml version="1.0" encoding="utf-8" standalone="no"?>
<!DOCTYPE svg PUBLIC "-//W3C//DTD SVG 1.1//EN"
  "http://www.w3.org/Graphics/SVG/1.1/DTD/svg11.dtd">
<svg xmlns:xlink="http://www.w3.org/1999/xlink" width="453.6pt" height="236.322553pt" viewBox="0 0 453.6 236.322553" xmlns="http://www.w3.org/2000/svg" version="1.1">
 <metadata>
  <rdf:RDF xmlns:dc="http://purl.org/dc/elements/1.1/" xmlns:cc="http://creativecommons.org/ns#" xmlns:rdf="http://www.w3.org/1999/02/22-rdf-syntax-ns#">
   <cc:Work>
    <dc:type rdf:resource="http://purl.org/dc/dcmitype/StillImage"/>
    <dc:date>2024-11-20T07:37:53.983978</dc:date>
    <dc:format>image/svg+xml</dc:format>
    <dc:creator>
     <cc:Agent>
      <dc:title>Matplotlib v3.6.2, https://matplotlib.org/</dc:title>
     </cc:Agent>
    </dc:creator>
   </cc:Work>
  </rdf:RDF>
 </metadata>
 <defs>
  <style type="text/css">*{stroke-linejoin: round; stroke-linecap: butt}</style>
 </defs>
 <g id="figure_1">
  <g id="patch_1">
   <path d="M 0 236.322553 
L 453.6 236.322553 
L 453.6 0 
L 0 0 
z
" style="fill: #ffffff"/>
  </g>
  <g id="axes_1">
   <g id="patch_2">
    <path d="M 7.2 229.122553 
L 446.4 229.122553 
L 446.4 7.2 
L 7.2 7.2 
z
" style="fill: #ffffff"/>
   </g>
   <g id="PathCollection_1">
    <path d="M 411.548123 51.2755 
C 412.274412 51.2755 412.971051 50.986942 413.484615 50.473379 
C 413.998178 49.959815 414.286736 49.263176 414.286736 48.536887 
C 414.286736 47.810598 413.998178 47.113959 413.484615 46.600395 
C 412.971051 46.086832 412.274412 45.798274 411.548123 45.798274 
C 410.821835 45.798274 410.125195 46.086832 409.611631 46.600395 
C 409.098068 47.113959 408.80951 47.810598 408.80951 48.536887 
C 408.80951 49.263176 409.098068 49.959815 409.611631 50.473379 
C 410.125195 50.986942 410.821835 51.2755 411.548123 51.2755 
z
" clip-path="url(#p899144576c)"/>
   </g>
   <g id="matplotlib.axis_1"/>
   <g id="matplotlib.axis_2"/>
   <g id="line2d_1">
    <path d="M 437.953846 75.105227 
L 434.29471 70.364377 
L 430.730829 66.172833 
L 428.227043 63.440245 
L 423.325374 58.520505 
L 421.053517 56.409629 
L 416.796198 52.705389 
L 411.966373 48.854407 
L 408.504914 46.297536 
L 406.019564 44.556578 
L 401.17003 41.368584 
L 396.514859 38.545882 
L 391.662157 35.827467 
L 386.144716 32.989214 
L 380.977409 30.553667 
L 374.695056 27.857494 
L 369.675236 25.895944 
L 361.970812 23.191348 
L 355.263946 21.11563 
L 348.015017 19.141162 
L 343.011459 17.931058 
L 335.341099 16.303531 
L 328.771963 15.11676 
L 321.05578 13.952925 
L 313.069366 12.996381 
L 302.215414 12.077936 
L 296.249835 11.751329 
L 288.072029 11.500008 
L 279.043069 11.476765 
L 272.110623 11.633814 
L 264.247366 11.990345 
L 254.432898 12.694242 
L 248.45475 13.260718 
L 237.855733 14.516039 
L 229.253454 15.767106 
L 221.184333 17.127358 
L 210.683273 19.166133 
L 201.025161 21.308581 
L 191.352705 23.71162 
L 182.114296 26.249415 
L 173.696748 28.771005 
L 165.265526 31.500598 
L 157.893323 34.058482 
L 145.997693 38.534089 
L 136.911355 42.255108 
L 131.454892 44.621641 
L 121.260647 49.323117 
L 111.400524 54.241267 
L 104.272297 58.043067 
L 96.115989 62.670262 
L 88.527559 67.26708 
L 81.167777 72.025313 
L 75.94202 75.604057 
L 67.736544 81.606401 
L 60.685485 87.199925 
L 56.279851 90.9368 
L 50.727453 95.96131 
L 47.458748 99.111046 
L 42.755058 103.943187 
L 38.607536 108.560031 
L 34.49143 113.562911 
L 31.930769 116.944843 
L 29.749942 120.031348 
L 26.102039 125.754688 
L 23.999038 129.49386 
L 22.317689 132.818224 
L 20.207459 137.61911 
L 18.822478 141.378425 
L 17.725074 144.965909 
L 16.862597 148.504261 
L 16.215866 152.101388 
L 15.883823 154.835881 
L 15.669493 158.224354 
L 15.717942 162.431768 
L 15.977467 165.462395 
L 16.61961 169.453383 
L 17.284188 172.257879 
L 18.224793 175.332365 
L 19.213687 177.963481 
L 20.661349 181.173542 
L 21.864163 183.464002 
L 24.005318 186.985586 
L 25.727223 189.451847 
L 28.736142 193.21879 
L 30.554668 195.243296 
L 33.767002 198.470729 
L 36.892457 201.274043 
L 40.138444 203.909109 
L 43.658137 206.508832 
L 47.562301 209.1352 
L 50.96691 211.240312 
L 57.266033 214.759547 
L 60.778749 216.54264 
L 67.492833 219.653057 
L 74.124336 222.399006 
L 80.707031 224.854811 
L 80.707031 224.854811 
" clip-path="url(#p899144576c)" style="fill: none; stroke: #000000; stroke-width: 2; stroke-linecap: square"/>
   </g>
   <g id="patch_3">
    <path d="M 181.156144 26.526313 
Q 180.129165 26.827469 181.247899 26.499406 
" clip-path="url(#p899144576c)" style="fill: none; stroke: #000000; stroke-width: 2; stroke-linecap: round"/>
    <path d="M 192.250794 28.48342 
L 181.247899 26.499406 
L 189.436846 18.887499 
L 192.250794 28.48342 
z
" clip-path="url(#p899144576c)" style="stroke: #000000; stroke-width: 2; stroke-linecap: round"/>
   </g>
   <g id="patch_4">
    <path d="M 411.548123 48.536887 
Q 376.053434 39.071637 342.719312 30.182537 
" clip-path="url(#p899144576c)" style="fill: none; stroke: #ff0000; stroke-width: 2; stroke-linecap: round"/>
    <path d="M 351.093348 37.590339 
L 342.719312 30.182537 
L 353.669975 27.927989 
L 351.093348 37.590339 
z
" clip-path="url(#p899144576c)" style="fill: #ff0000; stroke: #ff0000; stroke-width: 2; stroke-linecap: round"/>
   </g>
   <g id="text_1">
    <!-- $P$ -->
    <g transform="translate(414.513374 35.125136) scale(0.2 -0.2)">
     <defs>
      <path id="Cmmi10-50" d="M 313 0 
Q 250 0 250 84 
Q 253 100 262 139 
Q 272 178 289 201 
Q 306 225 331 225 
Q 722 225 878 269 
Q 959 297 997 441 
L 1875 3956 
Q 1888 4019 1888 4044 
Q 1888 4113 1813 4122 
Q 1691 4147 1350 4147 
Q 1288 4147 1288 4231 
Q 1291 4247 1300 4286 
Q 1309 4325 1326 4348 
Q 1344 4372 1369 4372 
L 3578 4372 
Q 3881 4372 4165 4264 
Q 4450 4156 4631 3934 
Q 4813 3713 4813 3397 
Q 4813 2991 4527 2672 
Q 4241 2353 3814 2175 
Q 3388 1997 2988 1997 
L 1947 1997 
L 1556 416 
Q 1544 353 1544 325 
Q 1544 300 1551 283 
Q 1559 266 1573 261 
Q 1588 256 1619 250 
Q 1741 225 2081 225 
Q 2144 225 2144 141 
Q 2122 50 2109 25 
Q 2097 0 2034 0 
L 313 0 
z
M 1978 2188 
L 2875 2188 
Q 3497 2188 3822 2522 
Q 3988 2688 4092 3000 
Q 4197 3313 4197 3566 
Q 4197 3881 3956 4014 
Q 3716 4147 3359 4147 
L 2747 4147 
Q 2572 4147 2515 4117 
Q 2459 4088 2413 3928 
L 1978 2188 
z
" transform="scale(0.015625)"/>
     </defs>
     <use xlink:href="#Cmmi10-50" transform="translate(0 0.6875)"/>
    </g>
   </g>
  </g>
 </g>
 <defs>
  <clipPath id="p899144576c">
   <rect x="7.2" y="7.2" width="439.2" height="221.922553"/>
  </clipPath>
 </defs>
</svg>
