<?xml version="1.0" encoding="utf-8" standalone="no"?>
<!DOCTYPE svg PUBLIC "-//W3C//DTD SVG 1.1//EN"
  "http://www.w3.org/Graphics/SVG/1.1/DTD/svg11.dtd">
<svg xmlns:xlink="http://www.w3.org/1999/xlink" width="453.6pt" height="236.340032pt" viewBox="0 0 453.6 236.340032" xmlns="http://www.w3.org/2000/svg" version="1.1">
 <metadata>
  <rdf:RDF xmlns:dc="http://purl.org/dc/elements/1.1/" xmlns:cc="http://creativecommons.org/ns#" xmlns:rdf="http://www.w3.org/1999/02/22-rdf-syntax-ns#">
   <cc:Work>
    <dc:type rdf:resource="http://purl.org/dc/dcmitype/StillImage"/>
    <dc:date>2024-08-16T15:26:38.290394</dc:date>
    <dc:format>image/svg+xml</dc:format>
    <dc:creator>
     <cc:Agent>
      <dc:title>Matplotlib v3.8.0, https://matplotlib.org/</dc:title>
     </cc:Agent>
    </dc:creator>
   </cc:Work>
  </rdf:RDF>
 </metadata>
 <defs>
  <style type="text/css">*{stroke-linejoin: round; stroke-linecap: butt}</style>
 </defs>
 <g id="figure_1">
  <g id="patch_1">
   <path d="M 0 236.340032 
L 453.6 236.340032 
L 453.6 0 
L 0 0 
z
" style="fill: #ffffff"/>
  </g>
  <g id="axes_1">
   <g id="patch_2">
    <path d="M 7.2 229.140032 
L 446.4 229.140032 
L 446.4 7.2 
L 7.2 7.2 
z
" style="fill: #ffffff"/>
   </g>
   <g id="PathCollection_1">
    <path d="M 411.547637 51.289399 
C 412.273926 51.289399 412.970565 51.000842 413.484129 50.487278 
C 413.997693 49.973715 414.28625 49.277075 414.28625 48.550787 
C 414.28625 47.824498 413.997693 47.127858 413.484129 46.614295 
C 412.970565 46.100731 412.273926 45.812174 411.547637 45.812174 
C 410.821349 45.812174 410.124709 46.100731 409.611146 46.614295 
C 409.097582 47.127858 408.809025 47.824498 408.809025 48.550787 
C 408.809025 49.277075 409.097582 49.973715 409.611146 50.487278 
C 410.124709 51.000842 410.821349 51.289399 411.547637 51.289399 
z
" clip-path="url(#p75f0150f26)"/>
   </g>
   <g id="matplotlib.axis_1"/>
   <g id="matplotlib.axis_2"/>
   <g id="line2d_1">
    <path d="M 437.953846 75.119615 
L 434.25969 70.335667 
L 430.346537 65.757133 
L 427.117569 62.293752 
L 423.52963 58.729573 
L 418.265394 53.96305 
L 413.473143 50.032998 
L 410.861069 48.034786 
L 405.211979 44.021227 
L 401.156919 41.374513 
L 395.109068 37.749934 
L 390.171106 35.049075 
L 386.511646 33.184199 
L 380.275373 30.252414 
L 372.864514 27.137073 
L 364.686445 24.118045 
L 361.466 23.040261 
L 353.644005 20.664678 
L 347.935284 19.134702 
L 339.838753 17.238985 
L 331.39662 15.582373 
L 323.452957 14.30223 
L 315.359861 13.259201 
L 308.675224 12.586388 
L 299.927074 11.951443 
L 292.470362 11.620713 
L 283.111058 11.468078 
L 273.448251 11.60504 
L 263.113144 12.07017 
L 257.323472 12.470481 
L 246.043511 13.531131 
L 237.848588 14.529774 
L 231.377797 15.451692 
L 219.36277 17.471868 
L 209.472845 19.433075 
L 198.843201 21.840462 
L 189.610229 24.184288 
L 180.282359 26.793199 
L 172.667826 29.105103 
L 160.452275 33.164088 
L 154.369538 35.35051 
L 144.123047 39.291409 
L 137.206455 42.141432 
L 126.522088 46.861126 
L 118.061239 50.888536 
L 109.355864 55.320634 
L 102.237186 59.179598 
L 95.503215 63.041066 
L 87.386556 67.994721 
L 80.880349 72.227569 
L 73.881957 77.074422 
L 67.759741 81.598021 
L 62.180264 85.985496 
L 57.134125 90.204741 
L 51.619732 95.135807 
L 47.12944 99.444928 
L 43.84956 102.791133 
L 40.140026 106.816815 
L 35.599085 112.17463 
L 32.511537 116.161811 
L 28.961668 121.206181 
L 26.595737 124.932901 
L 24.798896 128.02609 
L 22.587835 132.259168 
L 21.054117 135.585455 
L 19.342097 139.885081 
L 17.980257 144.052433 
L 17.236807 146.839807 
L 16.283582 151.619011 
L 15.889367 154.714586 
L 15.696786 157.344819 
L 15.646154 160.662427 
L 15.759563 163.240874 
L 16.10343 166.51745 
L 16.802533 170.356296 
L 17.812301 174.114674 
L 18.889134 177.185542 
L 20.691989 181.267333 
L 22.067617 183.855764 
L 24.19771 187.30292 
L 27.110075 191.282916 
L 29.881827 194.5379 
L 33.200456 197.953445 
L 35.480346 200.066711 
L 39.308345 203.281402 
L 41.877529 205.246108 
L 45.939604 208.094966 
L 51.168806 211.381419 
L 55.734548 213.964958 
L 61.391202 216.86224 
L 67.420799 219.641587 
L 75.011109 222.764254 
L 80.70046 224.871954 
L 80.70046 224.871954 
" clip-path="url(#p75f0150f26)" style="fill: none; stroke: #000000; stroke-width: 2; stroke-linecap: square"/>
   </g>
   <g id="patch_3">
    <path d="M 181.15142 26.539808 
Q 180.124422 26.840969 181.243138 26.512912 
" clip-path="url(#p75f0150f26)" style="fill: none; stroke: #000000; stroke-width: 2; stroke-linecap: round"/>
    <path d="M 192.246032 28.496925 
L 181.243138 26.512912 
L 189.432085 18.901004 
z
" clip-path="url(#p75f0150f26)" style="stroke: #000000; stroke-width: 2; stroke-linecap: round"/>
   </g>
   <g id="text_1">
    <!-- $P$ -->
    <g transform="translate(414.513062 35.138687) scale(0.2 -0.2)">
     <defs>
      <path id="Cmmi10-50" d="M 313 0 
Q 250 0 250 84 
Q 253 100 262 139 
Q 272 178 289 201 
Q 306 225 331 225 
Q 722 225 878 269 
Q 959 297 997 441 
L 1875 3956 
Q 1888 4019 1888 4044 
Q 1888 4113 1813 4122 
Q 1691 4147 1350 4147 
Q 1288 4147 1288 4231 
Q 1291 4247 1300 4286 
Q 1309 4325 1326 4348 
Q 1344 4372 1369 4372 
L 3578 4372 
Q 3881 4372 4165 4264 
Q 4450 4156 4631 3934 
Q 4813 3713 4813 3397 
Q 4813 2991 4527 2672 
Q 4241 2353 3814 2175 
Q 3388 1997 2988 1997 
L 1947 1997 
L 1556 416 
Q 1544 353 1544 325 
Q 1544 300 1551 283 
Q 1559 266 1573 261 
Q 1588 256 1619 250 
Q 1741 225 2081 225 
Q 2144 225 2144 141 
Q 2122 50 2109 25 
Q 2097 0 2034 0 
L 313 0 
z
M 1978 2188 
L 2875 2188 
Q 3497 2188 3822 2522 
Q 3988 2688 4092 3000 
Q 4197 3313 4197 3566 
Q 4197 3881 3956 4014 
Q 3716 4147 3359 4147 
L 2747 4147 
Q 2572 4147 2515 4117 
Q 2459 4088 2413 3928 
L 1978 2188 
z
" transform="scale(0.015625)"/>
     </defs>
     <use xlink:href="#Cmmi10-50" transform="translate(0 0.6875)"/>
    </g>
   </g>
  </g>
 </g>
 <defs>
  <clipPath id="p75f0150f26">
   <rect x="7.2" y="7.2" width="439.2" height="221.940032"/>
  </clipPath>
 </defs>
</svg>
