<?xml version="1.0" encoding="utf-8" standalone="no"?>
<!DOCTYPE svg PUBLIC "-//W3C//DTD SVG 1.1//EN"
  "http://www.w3.org/Graphics/SVG/1.1/DTD/svg11.dtd">
<svg xmlns:xlink="http://www.w3.org/1999/xlink" width="452.644161pt" height="225.134328pt" viewBox="0 0 452.644161 225.134328" xmlns="http://www.w3.org/2000/svg" version="1.1">
 <metadata>
  <rdf:RDF xmlns:dc="http://purl.org/dc/elements/1.1/" xmlns:cc="http://creativecommons.org/ns#" xmlns:rdf="http://www.w3.org/1999/02/22-rdf-syntax-ns#">
   <cc:Work>
    <dc:type rdf:resource="http://purl.org/dc/dcmitype/StillImage"/>
    <dc:date>2025-02-05T11:15:54.792728</dc:date>
    <dc:format>image/svg+xml</dc:format>
    <dc:creator>
     <cc:Agent>
      <dc:title>Matplotlib v3.6.2, https://matplotlib.org/</dc:title>
     </cc:Agent>
    </dc:creator>
   </cc:Work>
  </rdf:RDF>
 </metadata>
 <defs>
  <style type="text/css">*{stroke-linejoin: round; stroke-linecap: butt}</style>
 </defs>
 <g id="figure_1">
  <g id="patch_1">
   <path d="M 0 225.134328 
L 452.644161 225.134328 
L 452.644161 0 
L 0 0 
z
" style="fill: #ffffff"/>
  </g>
  <g id="axes_1">
   <g id="patch_2">
    <path d="M 10.944232 217.934328 
L 445.444161 217.934328 
L 445.444161 7.2 
L 10.944232 7.2 
z
" style="fill: #ffffff"/>
   </g>
   <g id="PathCollection_1">
    <path d="M 40.896684 133.421707 
C 41.834319 133.421707 42.733677 133.04918 43.396684 132.386173 
C 44.059692 131.723165 44.432218 130.823807 44.432218 129.886173 
C 44.432218 128.948538 44.059692 128.04918 43.396684 127.386173 
C 42.733677 126.723165 41.834319 126.350639 40.896684 126.350639 
C 39.95905 126.350639 39.059692 126.723165 38.396684 127.386173 
C 37.733677 128.04918 37.361151 128.948538 37.361151 129.886173 
C 37.361151 130.823807 37.733677 131.723165 38.396684 132.386173 
C 39.059692 133.04918 39.95905 133.421707 40.896684 133.421707 
z
" clip-path="url(#p6ee76ef468)"/>
   </g>
   <g id="PathCollection_2">
    <path d="M 37.275319 166.005358 
C 38.212954 166.005358 39.112311 165.632832 39.775319 164.969824 
C 40.438327 164.306816 40.810853 163.407458 40.810853 162.469824 
C 40.810853 161.532189 40.438327 160.632832 39.775319 159.969824 
C 39.112311 159.306816 38.212954 158.93429 37.275319 158.93429 
C 36.337685 158.93429 35.438327 159.306816 34.775319 159.969824 
C 34.112311 160.632832 33.739785 161.532189 33.739785 162.469824 
C 33.739785 163.407458 34.112311 164.306816 34.775319 164.969824 
C 35.438327 165.632832 36.337685 166.005358 37.275319 166.005358 
z
" clip-path="url(#p6ee76ef468)"/>
   </g>
   <g id="matplotlib.axis_1"/>
   <g id="matplotlib.axis_2"/>
   <g id="line2d_1">
    <path d="M 437.088394 71.688118 
L 434.19756 67.911008 
L 431.086574 64.180444 
L 426.911443 59.625889 
L 423.718891 56.438587 
L 419.929233 52.938857 
L 415.953682 49.556111 
L 411.433247 46.022802 
L 409.072027 44.295808 
L 404.155089 40.933965 
L 398.97696 37.702343 
L 395.169561 35.507861 
L 389.26795 32.380853 
L 382.442525 29.139798 
L 374.437496 25.795311 
L 368.847217 23.723347 
L 363.060167 21.787449 
L 355.937768 19.675202 
L 349.585563 18.025296 
L 343.127579 16.558851 
L 334.696647 14.943662 
L 326.360017 13.658255 
L 320.892346 12.973956 
L 315.504691 12.41713 
L 304.876146 11.644924 
L 298.099753 11.368653 
L 288.120205 11.25357 
L 282.01559 11.348453 
L 275.408707 11.588081 
L 265.611851 12.198346 
L 257.836551 12.893954 
L 247.598523 14.088198 
L 239.690711 15.223347 
L 233.031694 16.321201 
L 225.701276 17.678702 
L 213.932349 20.183312 
L 203.979097 22.614643 
L 193.92883 25.36338 
L 186.731974 27.515631 
L 181.42879 29.201445 
L 171.069792 32.744414 
L 161.95259 36.144756 
L 154.793257 39.007606 
L 147.835255 41.959449 
L 139.124799 45.902242 
L 132.674066 49.009707 
L 122.571367 54.222081 
L 115.223918 58.300962 
L 106.048146 63.774744 
L 97.8002 69.101609 
L 93.059139 72.361121 
L 85.733976 77.72201 
L 79.235391 82.860012 
L 73.777053 87.506396 
L 69.076038 91.797614 
L 64.445186 96.340711 
L 59.933066 101.138553 
L 56.027797 105.664443 
L 52.869358 109.649188 
L 48.829252 115.314312 
L 46.585682 118.835124 
L 44.156216 123.078851 
L 42.370062 126.602163 
L 40.789482 130.142648 
L 39.197399 134.345621 
L 38.18443 137.589175 
L 37.324673 141.011122 
L 36.605455 144.969391 
L 36.231518 148.364749 
L 36.100463 151.031282 
L 36.121782 153.829473 
L 36.339154 156.903979 
L 36.934604 160.881718 
L 37.90308 164.85935 
L 39.288593 168.889354 
L 40.631773 171.953886 
L 41.75114 174.139239 
L 43.891009 177.7169 
L 45.492924 180.034999 
L 47.882315 183.092234 
L 50.214148 185.730812 
L 53.326342 188.857867 
L 57.043841 192.14733 
L 60.277577 194.704713 
L 64.953565 198.013243 
L 69.964002 201.153709 
L 74.442632 203.676714 
L 79.273759 206.150229 
L 84.915927 208.76531 
L 91.129052 211.357707 
L 97.867282 213.881745 
L 97.867282 213.881745 
" clip-path="url(#p6ee76ef468)" style="fill: none; stroke: #000000; stroke-width: 2; stroke-linecap: square"/>
   </g>
   <g id="patch_3">
    <path d="M 193.248006 25.560364 
Q 192.272845 25.846324 193.443398 25.503066 
" clip-path="url(#p6ee76ef468)" style="fill: none; stroke: #000000; stroke-width: 2; stroke-linecap: round"/>
    <path d="M 204.446293 27.487079 
L 193.443398 25.503066 
L 201.632345 17.891158 
L 204.446293 27.487079 
z
" clip-path="url(#p6ee76ef468)" style="stroke: #000000; stroke-width: 2; stroke-linecap: round"/>
   </g>
   <g id="text_1">
    <!-- $Q_0$ -->
    <g transform="translate(19.809025 117.429603) scale(0.2 -0.2)">
     <defs>
      <path id="Cmmi10-51" d="M 1947 -141 
Q 1466 -141 1094 79 
Q 722 300 520 692 
Q 319 1084 319 1563 
Q 319 2259 714 2950 
Q 1109 3641 1756 4077 
Q 2403 4513 3109 4513 
Q 3475 4513 3778 4381 
Q 4081 4250 4290 4017 
Q 4500 3784 4614 3471 
Q 4728 3159 4728 2791 
Q 4728 2366 4581 1936 
Q 4434 1506 4171 1136 
Q 3909 766 3559 484 
Q 3209 203 2809 38 
Q 2850 -256 2934 -425 
Q 3019 -594 3256 -594 
Q 3506 -594 3726 -412 
Q 3947 -231 4006 13 
Q 4019 72 4078 72 
Q 4147 72 4147 -13 
Q 4100 -219 4008 -430 
Q 3916 -641 3786 -823 
Q 3656 -1006 3478 -1123 
Q 3300 -1241 3084 -1241 
Q 2547 -1241 2547 -550 
Q 2547 -509 2562 -332 
Q 2578 -156 2578 -44 
Q 2269 -141 1947 -141 
z
M 1709 300 
Q 1709 44 1991 44 
Q 2275 44 2591 184 
L 2591 244 
Q 2591 503 2509 648 
Q 2428 794 2194 794 
Q 2078 794 1964 723 
Q 1850 653 1779 539 
Q 1709 425 1709 300 
z
M 1544 288 
Q 1544 456 1637 612 
Q 1731 769 1881 864 
Q 2031 959 2203 959 
Q 2481 959 2607 771 
Q 2734 584 2778 281 
Q 3188 525 3500 978 
Q 3813 1431 3977 1973 
Q 4141 2516 4141 3003 
Q 4141 3356 4023 3656 
Q 3906 3956 3664 4140 
Q 3422 4325 3066 4325 
Q 2722 4325 2403 4156 
Q 2084 3988 1813 3706 
Q 1550 3434 1342 3032 
Q 1134 2631 1021 2193 
Q 909 1756 909 1356 
Q 909 947 1068 612 
Q 1228 278 1569 128 
Q 1544 194 1544 288 
z
" transform="scale(0.015625)"/>
      <path id="Cmr10-30" d="M 1600 -141 
Q 816 -141 533 504 
Q 250 1150 250 2041 
Q 250 2597 351 3087 
Q 453 3578 754 3920 
Q 1056 4263 1600 4263 
Q 2022 4263 2290 4056 
Q 2559 3850 2700 3523 
Q 2841 3197 2892 2823 
Q 2944 2450 2944 2041 
Q 2944 1491 2842 1011 
Q 2741 531 2444 195 
Q 2147 -141 1600 -141 
z
M 1600 25 
Q 1956 25 2131 390 
Q 2306 756 2347 1200 
Q 2388 1644 2388 2144 
Q 2388 2625 2347 3031 
Q 2306 3438 2132 3767 
Q 1959 4097 1600 4097 
Q 1238 4097 1063 3765 
Q 888 3434 847 3029 
Q 806 2625 806 2144 
Q 806 1788 823 1472 
Q 841 1156 916 820 
Q 991 484 1158 254 
Q 1325 25 1600 25 
z
" transform="scale(0.015625)"/>
     </defs>
     <use xlink:href="#Cmmi10-51" transform="translate(0 0.484375)"/>
     <use xlink:href="#Cmr10-30" transform="translate(79.003906 -16.521875) scale(0.7)"/>
    </g>
   </g>
   <g id="text_2">
    <!-- $Q_1$ -->
    <g transform="translate(7.2 159.000914) scale(0.2 -0.2)">
     <defs>
      <path id="Cmr10-31" d="M 594 0 
L 594 225 
Q 1394 225 1394 428 
L 1394 3788 
Q 1063 3628 556 3628 
L 556 3853 
Q 1341 3853 1741 4263 
L 1831 4263 
Q 1853 4263 1873 4245 
Q 1894 4228 1894 4206 
L 1894 428 
Q 1894 225 2694 225 
L 2694 0 
L 594 0 
z
" transform="scale(0.015625)"/>
     </defs>
     <use xlink:href="#Cmmi10-51" transform="translate(0 0.484375)"/>
     <use xlink:href="#Cmr10-31" transform="translate(79.003906 -16.521875) scale(0.7)"/>
    </g>
   </g>
  </g>
 </g>
 <defs>
  <clipPath id="p6ee76ef468">
   <rect x="10.944232" y="7.2" width="434.499929" height="210.734328"/>
  </clipPath>
 </defs>
</svg>
