<?xml version="1.0" encoding="utf-8" standalone="no"?>
<!DOCTYPE svg PUBLIC "-//W3C//DTD SVG 1.1//EN"
  "http://www.w3.org/Graphics/SVG/1.1/DTD/svg11.dtd">
<svg xmlns:xlink="http://www.w3.org/1999/xlink" width="453.6pt" height="329.76498pt" viewBox="0 0 453.6 329.76498" xmlns="http://www.w3.org/2000/svg" version="1.1">
 <metadata>
  <rdf:RDF xmlns:dc="http://purl.org/dc/elements/1.1/" xmlns:cc="http://creativecommons.org/ns#" xmlns:rdf="http://www.w3.org/1999/02/22-rdf-syntax-ns#">
   <cc:Work>
    <dc:type rdf:resource="http://purl.org/dc/dcmitype/StillImage"/>
    <dc:date>2024-12-16T16:34:19.726306</dc:date>
    <dc:format>image/svg+xml</dc:format>
    <dc:creator>
     <cc:Agent>
      <dc:title>Matplotlib v3.6.2, https://matplotlib.org/</dc:title>
     </cc:Agent>
    </dc:creator>
   </cc:Work>
  </rdf:RDF>
 </metadata>
 <defs>
  <style type="text/css">*{stroke-linejoin: round; stroke-linecap: butt}</style>
 </defs>
 <g id="figure_1">
  <g id="patch_1">
   <path d="M 0 329.76498 
L 453.6 329.76498 
L 453.6 0 
L 0 0 
z
" style="fill: #ffffff"/>
  </g>
  <g id="axes_1">
   <g id="patch_2">
    <path d="M 7.2 322.56498 
L 446.4 322.56498 
L 446.4 7.2 
L 7.2 7.2 
z
" style="fill: #ffffff"/>
   </g>
   <g id="PathCollection_1">
    <path d="M 230.710744 134.535266 
C 231.437032 134.535266 232.133672 134.246709 232.647235 133.733145 
C 233.160799 133.219582 233.449357 132.522942 233.449357 131.796654 
C 233.449357 131.070365 233.160799 130.373726 232.647235 129.860162 
C 232.133672 129.346598 231.437032 129.058041 230.710744 129.058041 
C 229.984455 129.058041 229.287816 129.346598 228.774252 129.860162 
C 228.260688 130.373726 227.972131 131.070365 227.972131 131.796654 
C 227.972131 132.522942 228.260688 133.219582 228.774252 133.733145 
C 229.287816 134.246709 229.984455 134.535266 230.710744 134.535266 
z
" clip-path="url(#pf6e2d4db3f)"/>
   </g>
   <g id="matplotlib.axis_1"/>
   <g id="matplotlib.axis_2"/>
   <g id="line2d_1">
    <path d="M 15.646154 316.500269 
L 15.746751 306.678354 
L 16.070775 298.535273 
L 16.532419 292.378884 
L 17.297119 285.760931 
L 18.205927 280.153228 
L 19.408487 274.47805 
L 20.940213 268.777832 
L 22.003267 265.438608 
L 24.027472 259.981338 
L 25.942488 255.570721 
L 28.182495 251.050986 
L 30.679603 246.600741 
L 33.706621 241.815062 
L 36.720271 237.547599 
L 39.513149 233.935673 
L 43.329361 229.420683 
L 47.871839 224.545304 
L 51.50311 220.958797 
L 54.89909 217.810488 
L 58.796065 214.405818 
L 63.383666 210.640345 
L 69.140367 206.226839 
L 74.534792 202.355072 
L 80.139118 198.560803 
L 87.484165 193.885542 
L 94.345095 189.776636 
L 99.557802 186.798191 
L 109.305747 181.513092 
L 118.41066 176.863089 
L 127.579762 172.416119 
L 137.68167 167.750387 
L 147.309821 163.49933 
L 160.646457 157.879202 
L 175.543794 151.910319 
L 190.610385 146.146688 
L 208.550371 139.574203 
L 227.171162 133.017694 
L 249.143142 125.54388 
L 276.622307 116.465667 
L 348.499072 92.895479 
L 366.448833 86.6834 
L 380.427607 81.595706 
L 391.604501 77.282058 
L 399.456901 74.060705 
L 407.015397 70.747741 
L 413.685202 67.578088 
L 418.375846 65.150388 
L 423.132332 62.442627 
L 426.855945 60.064725 
L 429.833097 57.908117 
L 431.865122 56.231344 
L 434.013812 54.155678 
L 435.295682 52.659332 
L 436.501082 50.896436 
L 437.188201 49.549555 
L 437.700686 48.057489 
L 437.930966 46.678652 
L 437.936882 45.53604 
L 437.685663 44.06025 
L 437.080846 42.484996 
L 436.144199 40.955143 
L 435.049969 39.639066 
L 433.634787 38.286363 
L 431.587622 36.703247 
L 429.429819 35.315136 
L 426.661152 33.795865 
L 423.08747 32.118934 
L 419.174206 30.529748 
L 414.600507 28.899667 
L 409.520244 27.296121 
L 402.333239 25.296435 
L 395.207249 23.542438 
L 386.661803 21.661582 
L 377.131057 19.781587 
L 365.342211 17.698128 
L 350.601102 15.37887 
L 335.575021 13.264711 
L 335.575021 13.264711 
" clip-path="url(#pf6e2d4db3f)" style="fill: none; stroke: #000000; stroke-width: 2; stroke-linecap: square"/>
   </g>
   <g id="patch_3">
    <path d="M 230.710744 131.796654 
Q 307.326806 105.444691 381.828377 79.820003 
" clip-path="url(#pf6e2d4db3f)" style="fill: none; stroke: #800080; stroke-width: 2; stroke-linecap: round"/>
    <path d="M 370.74585 78.344333 
L 381.828377 79.820003 
L 373.998325 87.800622 
L 370.74585 78.344333 
z
" clip-path="url(#pf6e2d4db3f)" style="fill: #800080; stroke: #800080; stroke-width: 2; stroke-linecap: round"/>
   </g>
   <g id="patch_4">
    <path d="M 230.710744 131.796654 
Q 257.062707 208.412716 282.687394 282.914287 
" clip-path="url(#pf6e2d4db3f)" style="fill: none; stroke: #ff0000; stroke-width: 2; stroke-linecap: round"/>
    <path d="M 284.163064 271.83176 
L 282.687394 282.914287 
L 274.706775 275.084235 
L 284.163064 271.83176 
z
" clip-path="url(#pf6e2d4db3f)" style="fill: #ff0000; stroke: #ff0000; stroke-width: 2; stroke-linecap: round"/>
   </g>
   <g id="patch_5">
    <path d="M 230.710744 131.796654 
Q 276.337562 116.103388 319.84989 101.137397 
" clip-path="url(#pf6e2d4db3f)" style="fill: none; stroke: #0000ff; stroke-width: 2; stroke-linecap: round"/>
    <path d="M 308.767364 99.661727 
L 319.84989 101.137397 
L 312.019838 109.118016 
L 308.767364 99.661727 
z
" clip-path="url(#pf6e2d4db3f)" style="fill: #0000ff; stroke: #0000ff; stroke-width: 2; stroke-linecap: round"/>
   </g>
   <g id="patch_6">
    <path d="M 230.710744 131.796654 
Q 244.369408 171.508043 257.300797 209.104943 
" clip-path="url(#pf6e2d4db3f)" style="fill: none; stroke: #ffa500; stroke-width: 2; stroke-linecap: round"/>
    <path d="M 258.776467 198.022416 
L 257.300797 209.104943 
L 249.320178 201.27489 
L 258.776467 198.022416 
z
" clip-path="url(#pf6e2d4db3f)" style="fill: #ffa500; stroke: #ffa500; stroke-width: 2; stroke-linecap: round"/>
   </g>
   <g id="patch_7">
    <path d="M 230.710744 131.796654 
Q 289.996227 155.814778 347.209257 178.993296 
" clip-path="url(#pf6e2d4db3f)" style="fill: none; stroke: #008000; stroke-width: 2; stroke-linecap: round"/>
    <path d="M 339.81838 170.604318 
L 347.209257 178.993296 
L 336.063549 179.87261 
L 339.81838 170.604318 
z
" clip-path="url(#pf6e2d4db3f)" style="fill: #008000; stroke: #008000; stroke-width: 2; stroke-linecap: round"/>
   </g>
  </g>
 </g>
 <defs>
  <clipPath id="pf6e2d4db3f">
   <rect x="7.2" y="7.2" width="439.2" height="315.36498"/>
  </clipPath>
 </defs>
</svg>
