<?xml version="1.0" encoding="utf-8" standalone="no"?>
<!DOCTYPE svg PUBLIC "-//W3C//DTD SVG 1.1//EN"
  "http://www.w3.org/Graphics/SVG/1.1/DTD/svg11.dtd">
<svg xmlns:xlink="http://www.w3.org/1999/xlink" width="453.6pt" height="236.33576pt" viewBox="0 0 453.6 236.33576" xmlns="http://www.w3.org/2000/svg" version="1.1">
 <metadata>
  <rdf:RDF xmlns:dc="http://purl.org/dc/elements/1.1/" xmlns:cc="http://creativecommons.org/ns#" xmlns:rdf="http://www.w3.org/1999/02/22-rdf-syntax-ns#">
   <cc:Work>
    <dc:type rdf:resource="http://purl.org/dc/dcmitype/StillImage"/>
    <dc:date>2025-01-29T09:04:15.212517</dc:date>
    <dc:format>image/svg+xml</dc:format>
    <dc:creator>
     <cc:Agent>
      <dc:title>Matplotlib v3.6.2, https://matplotlib.org/</dc:title>
     </cc:Agent>
    </dc:creator>
   </cc:Work>
  </rdf:RDF>
 </metadata>
 <defs>
  <style type="text/css">*{stroke-linejoin: round; stroke-linecap: butt}</style>
 </defs>
 <g id="figure_1">
  <g id="patch_1">
   <path d="M 0 236.33576 
L 453.6 236.33576 
L 453.6 -0 
L 0 -0 
z
" style="fill: #ffffff"/>
  </g>
  <g id="axes_1">
   <g id="patch_2">
    <path d="M 7.2 229.13576 
L 446.4 229.13576 
L 446.4 7.2 
L 7.2 7.2 
z
" style="fill: #ffffff"/>
   </g>
   <g id="PathCollection_1">
    <path d="M 411.548125 51.288464 
C 412.274413 51.288464 412.971053 50.999907 413.484616 50.486343 
C 413.99818 49.972779 414.286737 49.27614 414.286737 48.549851 
C 414.286737 47.823563 413.99818 47.126923 413.484616 46.61336 
C 412.971053 46.099796 412.274413 45.811239 411.548125 45.811239 
C 410.821836 45.811239 410.125197 46.099796 409.611633 46.61336 
C 409.098069 47.126923 408.809512 47.823563 408.809512 48.549851 
C 408.809512 49.27614 409.098069 49.972779 409.611633 50.486343 
C 410.125197 50.999907 410.821836 51.288464 411.548125 51.288464 
z
" clip-path="url(#p8e40d0daf0)"/>
   </g>
   <g id="matplotlib.axis_1"/>
   <g id="matplotlib.axis_2"/>
   <g id="line2d_1">
    <path d="M 437.953846 75.11819 
L 434.297153 70.380347 
L 430.692482 66.1427 
L 426.942158 62.111482 
L 422.348215 57.613359 
L 417.359397 53.19079 
L 414.727619 51.02618 
L 410.556554 47.806675 
L 404.489849 43.535031 
L 400.256556 40.81007 
L 395.21806 37.810881 
L 390.783439 35.371038 
L 383.485436 31.723068 
L 381.253805 30.69176 
L 374.868521 27.941215 
L 368.222911 25.371517 
L 363.493306 23.710757 
L 357.980664 21.939531 
L 348.774614 19.348511 
L 342.795816 17.894563 
L 336.596556 16.564663 
L 329.970567 15.332515 
L 320.585359 13.902687 
L 317.089218 13.460113 
L 307.658488 12.49804 
L 300.014272 11.956032 
L 290.568453 11.566074 
L 281.683069 11.46952 
L 274.800482 11.568122 
L 267.137327 11.850544 
L 260.512237 12.237711 
L 249.707339 13.146465 
L 238.327546 14.466374 
L 229.213023 15.786441 
L 219.511387 17.444828 
L 209.884209 19.346638 
L 201.624703 21.181093 
L 190.542326 23.937676 
L 180.176162 26.825169 
L 170.244831 29.876601 
L 160.740957 33.064229 
L 150.389495 36.84357 
L 142.438439 39.97261 
L 133.232822 43.852338 
L 124.56279 47.772021 
L 118.141107 50.851184 
L 107.64541 56.230064 
L 97.530358 61.858473 
L 90.846158 65.843836 
L 85.27996 69.341197 
L 77.411778 74.592553 
L 72.293106 78.224852 
L 65.072245 83.68134 
L 58.563138 88.987771 
L 52.495924 94.332214 
L 48.23497 98.361809 
L 43.814417 102.833702 
L 39.486535 107.562569 
L 36.241565 111.390111 
L 33.108162 115.373421 
L 30.462134 119.012894 
L 28.492687 121.927557 
L 25.581473 126.657358 
L 23.494791 130.467647 
L 21.619122 134.328153 
L 20.098777 137.905445 
L 18.603667 142.05245 
L 17.403959 146.194164 
L 16.772894 148.947609 
L 16.078524 153.11224 
L 15.724424 156.957404 
L 15.662041 161.035129 
L 15.856103 164.322905 
L 16.322267 167.87836 
L 16.950727 170.958408 
L 18.206969 175.293199 
L 19.440017 178.52035 
L 21.310812 182.457367 
L 22.90195 185.258394 
L 24.067688 187.092779 
L 26.473294 190.455791 
L 28.689773 193.177895 
L 31.199257 195.936765 
L 34.38285 199.059641 
L 37.894934 202.12806 
L 41.068349 204.632827 
L 44.3535 207.007935 
L 47.722645 209.250916 
L 52.490402 212.146215 
L 56.43215 214.331548 
L 61.628033 216.969651 
L 67.612122 219.718081 
L 73.061632 221.99142 
L 80.707053 224.867765 
L 80.707053 224.867765 
" clip-path="url(#p8e40d0daf0)" style="fill: none; stroke: #000000; stroke-width: 2; stroke-linecap: square"/>
   </g>
   <g id="patch_3">
    <path d="M 181.156159 26.539279 
Q 180.12918 26.840434 181.247915 26.512372 
" clip-path="url(#p8e40d0daf0)" style="fill: none; stroke: #000000; stroke-width: 2; stroke-linecap: round"/>
    <path d="M 192.250809 28.496385 
L 181.247915 26.512372 
L 189.436862 18.900464 
L 192.250809 28.496385 
z
" clip-path="url(#p8e40d0daf0)" style="stroke: #000000; stroke-width: 2; stroke-linecap: round"/>
   </g>
   <g id="text_1">
    <!-- $P$ -->
    <g transform="translate(414.513375 35.138102) scale(0.2 -0.2)">
     <defs>
      <path id="Cmmi10-50" d="M 313 0 
Q 250 0 250 84 
Q 253 100 262 139 
Q 272 178 289 201 
Q 306 225 331 225 
Q 722 225 878 269 
Q 959 297 997 441 
L 1875 3956 
Q 1888 4019 1888 4044 
Q 1888 4113 1813 4122 
Q 1691 4147 1350 4147 
Q 1288 4147 1288 4231 
Q 1291 4247 1300 4286 
Q 1309 4325 1326 4348 
Q 1344 4372 1369 4372 
L 3578 4372 
Q 3881 4372 4165 4264 
Q 4450 4156 4631 3934 
Q 4813 3713 4813 3397 
Q 4813 2991 4527 2672 
Q 4241 2353 3814 2175 
Q 3388 1997 2988 1997 
L 1947 1997 
L 1556 416 
Q 1544 353 1544 325 
Q 1544 300 1551 283 
Q 1559 266 1573 261 
Q 1588 256 1619 250 
Q 1741 225 2081 225 
Q 2144 225 2144 141 
Q 2122 50 2109 25 
Q 2097 0 2034 0 
L 313 0 
z
M 1978 2188 
L 2875 2188 
Q 3497 2188 3822 2522 
Q 3988 2688 4092 3000 
Q 4197 3313 4197 3566 
Q 4197 3881 3956 4014 
Q 3716 4147 3359 4147 
L 2747 4147 
Q 2572 4147 2515 4117 
Q 2459 4088 2413 3928 
L 1978 2188 
z
" transform="scale(0.015625)"/>
     </defs>
     <use xlink:href="#Cmmi10-50" transform="translate(0 0.6875)"/>
    </g>
   </g>
  </g>
 </g>
 <defs>
  <clipPath id="p8e40d0daf0">
   <rect x="7.2" y="7.2" width="439.2" height="221.93576"/>
  </clipPath>
 </defs>
</svg>
