<?xml version="1.0" encoding="utf-8" standalone="no"?>
<!DOCTYPE svg PUBLIC "-//W3C//DTD SVG 1.1//EN"
  "http://www.w3.org/Graphics/SVG/1.1/DTD/svg11.dtd">
<svg xmlns:xlink="http://www.w3.org/1999/xlink" width="453.6pt" height="236.337421pt" viewBox="0 0 453.6 236.337421" xmlns="http://www.w3.org/2000/svg" version="1.1">
 <metadata>
  <rdf:RDF xmlns:dc="http://purl.org/dc/elements/1.1/" xmlns:cc="http://creativecommons.org/ns#" xmlns:rdf="http://www.w3.org/1999/02/22-rdf-syntax-ns#">
   <cc:Work>
    <dc:type rdf:resource="http://purl.org/dc/dcmitype/StillImage"/>
    <dc:date>2025-02-05T08:54:23.471311</dc:date>
    <dc:format>image/svg+xml</dc:format>
    <dc:creator>
     <cc:Agent>
      <dc:title>Matplotlib v3.6.2, https://matplotlib.org/</dc:title>
     </cc:Agent>
    </dc:creator>
   </cc:Work>
  </rdf:RDF>
 </metadata>
 <defs>
  <style type="text/css">*{stroke-linejoin: round; stroke-linecap: butt}</style>
 </defs>
 <g id="figure_1">
  <g id="patch_1">
   <path d="M 0 236.337421 
L 453.6 236.337421 
L 453.6 0 
L 0 0 
z
" style="fill: #ffffff"/>
  </g>
  <g id="axes_1">
   <g id="patch_2">
    <path d="M 7.2 229.137421 
L 446.4 229.137421 
L 446.4 7.2 
L 7.2 7.2 
z
" style="fill: #ffffff"/>
   </g>
   <g id="PathCollection_1">
    <path d="M 411.547972 51.28907 
C 412.27426 51.28907 412.9709 51.000513 413.484463 50.486949 
C 413.998027 49.973386 414.286584 49.276746 414.286584 48.550458 
C 414.286584 47.824169 413.998027 47.127529 413.484463 46.613966 
C 412.9709 46.100402 412.27426 45.811845 411.547972 45.811845 
C 410.821683 45.811845 410.125043 46.100402 409.61148 46.613966 
C 409.097916 47.127529 408.809359 47.824169 408.809359 48.550458 
C 408.809359 49.276746 409.097916 49.973386 409.61148 50.486949 
C 410.125043 51.000513 410.821683 51.28907 411.547972 51.28907 
z
" clip-path="url(#p4cfdb9f341)"/>
   </g>
   <g id="matplotlib.axis_1"/>
   <g id="matplotlib.axis_2"/>
   <g id="line2d_1">
    <path d="M 437.953846 75.11895 
L 435.212535 71.522124 
L 431.666341 67.250558 
L 427.070338 62.244334 
L 422.684006 57.928173 
L 417.21088 53.066441 
L 412.297288 49.121038 
L 406.835575 45.133488 
L 401.294577 41.460852 
L 396.719081 38.678803 
L 391.589648 35.802117 
L 385.913637 32.889473 
L 381.018467 30.585834 
L 375.673726 28.272973 
L 369.369296 25.795229 
L 363.426732 23.688938 
L 355.538646 21.209375 
L 346.920362 18.879577 
L 341.717519 17.651075 
L 334.009039 16.061319 
L 328.907554 15.152881 
L 322.861768 14.217193 
L 314.561587 13.169999 
L 306.302896 12.387178 
L 297.726424 11.834129 
L 290.563358 11.566358 
L 281.091328 11.472515 
L 273.129961 11.61471 
L 268.092063 11.805948 
L 256.925559 12.501926 
L 248.947607 13.22338 
L 241.327459 14.083061 
L 231.149548 15.486831 
L 220.55077 17.254934 
L 208.873501 19.561214 
L 199.187777 21.758285 
L 191.010921 23.814324 
L 182.78749 26.069438 
L 174.33332 28.586243 
L 165.894097 31.302905 
L 154.400522 35.340249 
L 146.824871 38.221446 
L 139.088936 41.351514 
L 129.407418 45.548867 
L 124.364435 47.864589 
L 114.785544 52.522427 
L 105.529383 57.36937 
L 95.353984 63.131145 
L 87.693724 67.803103 
L 81.948213 71.518015 
L 74.167956 76.872474 
L 66.845821 82.301264 
L 61.409614 86.616603 
L 56.509251 90.749019 
L 50.535141 96.154144 
L 45.660572 100.92498 
L 41.743452 105.046824 
L 38.03198 109.243092 
L 33.870827 114.372205 
L 30.455939 119.019394 
L 28.496514 121.91909 
L 25.963813 125.998835 
L 23.565634 130.327391 
L 21.30435 135.025326 
L 20.141196 137.79342 
L 18.668613 141.847645 
L 17.436946 146.056306 
L 16.756705 149.016176 
L 16.090934 152.998686 
L 15.692457 157.554175 
L 15.646154 160.275654 
L 15.844553 164.225369 
L 16.348946 168.049455 
L 17.203053 171.976119 
L 18.321557 175.632791 
L 19.584781 178.865981 
L 20.474862 180.811075 
L 22.464193 184.531425 
L 24.597275 187.882267 
L 26.610255 190.63776 
L 29.006378 193.547257 
L 32.063306 196.825586 
L 34.139194 198.836907 
L 37.940289 202.168921 
L 41.375228 204.866693 
L 45.965701 208.106709 
L 49.684494 210.481718 
L 53.175593 212.541502 
L 58.166034 215.243278 
L 63.345784 217.790733 
L 68.564621 220.132742 
L 75.15009 222.813666 
L 80.704981 224.869394 
L 80.704981 224.869394 
" clip-path="url(#p4cfdb9f341)" style="fill: none; stroke: #000000; stroke-width: 2; stroke-linecap: square"/>
   </g>
   <g id="patch_3">
    <path d="M 181.15467 26.539757 
Q 180.127685 26.840915 181.246413 26.512854 
" clip-path="url(#p4cfdb9f341)" style="fill: none; stroke: #000000; stroke-width: 2; stroke-linecap: round"/>
    <path d="M 192.249308 28.496867 
L 181.246413 26.512854 
L 189.435361 18.900946 
L 192.249308 28.496867 
z
" clip-path="url(#p4cfdb9f341)" style="stroke: #000000; stroke-width: 2; stroke-linecap: round"/>
   </g>
   <g id="text_1">
    <!-- $P$ -->
    <g transform="translate(414.513276 35.138598) scale(0.2 -0.2)">
     <defs>
      <path id="Cmmi10-50" d="M 313 0 
Q 250 0 250 84 
Q 253 100 262 139 
Q 272 178 289 201 
Q 306 225 331 225 
Q 722 225 878 269 
Q 959 297 997 441 
L 1875 3956 
Q 1888 4019 1888 4044 
Q 1888 4113 1813 4122 
Q 1691 4147 1350 4147 
Q 1288 4147 1288 4231 
Q 1291 4247 1300 4286 
Q 1309 4325 1326 4348 
Q 1344 4372 1369 4372 
L 3578 4372 
Q 3881 4372 4165 4264 
Q 4450 4156 4631 3934 
Q 4813 3713 4813 3397 
Q 4813 2991 4527 2672 
Q 4241 2353 3814 2175 
Q 3388 1997 2988 1997 
L 1947 1997 
L 1556 416 
Q 1544 353 1544 325 
Q 1544 300 1551 283 
Q 1559 266 1573 261 
Q 1588 256 1619 250 
Q 1741 225 2081 225 
Q 2144 225 2144 141 
Q 2122 50 2109 25 
Q 2097 0 2034 0 
L 313 0 
z
M 1978 2188 
L 2875 2188 
Q 3497 2188 3822 2522 
Q 3988 2688 4092 3000 
Q 4197 3313 4197 3566 
Q 4197 3881 3956 4014 
Q 3716 4147 3359 4147 
L 2747 4147 
Q 2572 4147 2515 4117 
Q 2459 4088 2413 3928 
L 1978 2188 
z
" transform="scale(0.015625)"/>
     </defs>
     <use xlink:href="#Cmmi10-50" transform="translate(0 0.6875)"/>
    </g>
   </g>
  </g>
 </g>
 <defs>
  <clipPath id="p4cfdb9f341">
   <rect x="7.2" y="7.2" width="439.2" height="221.937421"/>
  </clipPath>
 </defs>
</svg>
