<?xml version="1.0" encoding="utf-8" standalone="no"?>
<!DOCTYPE svg PUBLIC "-//W3C//DTD SVG 1.1//EN"
  "http://www.w3.org/Graphics/SVG/1.1/DTD/svg11.dtd">
<svg xmlns:xlink="http://www.w3.org/1999/xlink" width="453.6pt" height="236.336506pt" viewBox="0 0 453.6 236.336506" xmlns="http://www.w3.org/2000/svg" version="1.1">
 <metadata>
  <rdf:RDF xmlns:dc="http://purl.org/dc/elements/1.1/" xmlns:cc="http://creativecommons.org/ns#" xmlns:rdf="http://www.w3.org/1999/02/22-rdf-syntax-ns#">
   <cc:Work>
    <dc:type rdf:resource="http://purl.org/dc/dcmitype/StillImage"/>
    <dc:date>2024-08-29T09:19:31.034242</dc:date>
    <dc:format>image/svg+xml</dc:format>
    <dc:creator>
     <cc:Agent>
      <dc:title>Matplotlib v3.8.0, https://matplotlib.org/</dc:title>
     </cc:Agent>
    </dc:creator>
   </cc:Work>
  </rdf:RDF>
 </metadata>
 <defs>
  <style type="text/css">*{stroke-linejoin: round; stroke-linecap: butt}</style>
 </defs>
 <g id="figure_1">
  <g id="patch_1">
   <path d="M 0 236.336506 
L 453.6 236.336506 
L 453.6 -0 
L 0 -0 
z
" style="fill: #ffffff"/>
  </g>
  <g id="axes_1">
   <g id="patch_2">
    <path d="M 7.2 229.136506 
L 446.4 229.136506 
L 446.4 7.2 
L 7.2 7.2 
z
" style="fill: #ffffff"/>
   </g>
   <g id="PathCollection_1">
    <path d="M 20.708221 139.147951 
C 21.43451 139.147951 22.131149 138.859394 22.644713 138.34583 
C 23.158276 137.832266 23.446834 137.135627 23.446834 136.409338 
C 23.446834 135.68305 23.158276 134.98641 22.644713 134.472847 
C 22.131149 133.959283 21.43451 133.670726 20.708221 133.670726 
C 19.981933 133.670726 19.285293 133.959283 18.771729 134.472847 
C 18.258166 134.98641 17.969608 135.68305 17.969608 136.409338 
C 17.969608 137.135627 18.258166 137.832266 18.771729 138.34583 
C 19.285293 138.859394 19.981933 139.147951 20.708221 139.147951 
z
" clip-path="url(#p8b4bb7b6b4)"/>
   </g>
   <g id="matplotlib.axis_1"/>
   <g id="matplotlib.axis_2"/>
   <g id="line2d_1">
    <path d="M 437.953846 75.118596 
L 433.887346 69.878935 
L 430.548614 65.981779 
L 426.51428 61.673652 
L 422.611308 57.859648 
L 418.58341 54.235953 
L 413.099242 49.740127 
L 407.80084 45.809924 
L 404.051407 43.243929 
L 398.007062 39.440133 
L 393.902734 37.068868 
L 387.003125 33.427459 
L 383.218485 31.598078 
L 378.550963 29.492497 
L 371.783258 26.713018 
L 366.251133 24.663125 
L 357.876239 21.907965 
L 351.031004 19.943302 
L 344.125125 18.203281 
L 337.430681 16.73375 
L 329.626295 15.273966 
L 322.561915 14.174459 
L 316.764779 13.42175 
L 308.750913 12.592893 
L 301.521823 12.046863 
L 293.86798 11.668261 
L 286.596459 11.491476 
L 282.512198 11.46801 
L 271.928364 11.653173 
L 263.226724 12.063489 
L 253.531014 12.786289 
L 241.318921 14.084072 
L 234.042073 15.058377 
L 223.803428 16.679297 
L 212.969904 18.709541 
L 203.405057 20.769999 
L 193.853978 23.078536 
L 183.533363 25.857179 
L 173.738423 28.771121 
L 165.463805 31.447111 
L 154.536309 35.290396 
L 144.988495 38.94721 
L 135.128068 43.030429 
L 130.827058 44.913514 
L 121.995139 48.984725 
L 112.955014 53.453353 
L 107.441574 56.338995 
L 98.501196 61.297862 
L 90.225127 66.225633 
L 81.15811 72.044632 
L 75.035758 76.255872 
L 68.626928 80.943161 
L 63.749031 84.727851 
L 56.474939 90.779643 
L 50.247608 96.426738 
L 45.970078 100.611993 
L 41.869618 104.91059 
L 38.267289 108.968651 
L 34.139254 114.026737 
L 30.483448 118.981631 
L 27.869412 122.892665 
L 25.648406 126.540728 
L 22.916715 131.60448 
L 21.274028 135.096708 
L 19.289378 140.048005 
L 17.94681 144.189296 
L 16.980013 147.973146 
L 16.274054 151.722442 
L 15.929116 154.388047 
L 15.682977 157.821037 
L 15.663349 161.120603 
L 15.911434 164.890878 
L 16.389577 168.27111 
L 17.210052 171.996239 
L 18.172993 175.196745 
L 19.084322 177.659843 
L 20.619351 181.103652 
L 22.567344 184.703055 
L 24.878177 188.284456 
L 27.081674 191.23588 
L 30.119589 194.788062 
L 32.18602 196.946583 
L 36.165586 200.661937 
L 39.620606 203.519553 
L 42.196984 205.473116 
L 46.260714 208.300868 
L 51.463491 211.548663 
L 55.405272 213.77982 
L 61.244606 216.784609 
L 67.333629 219.597406 
L 73.499995 222.166784 
L 80.706278 224.868496 
L 80.706278 224.868496 
" clip-path="url(#p8b4bb7b6b4)" style="fill: none; stroke: #000000; stroke-width: 2; stroke-linecap: square"/>
   </g>
   <g id="patch_3">
    <path d="M 181.155602 26.53958 
Q 180.128621 26.840736 181.247353 26.512674 
" clip-path="url(#p8b4bb7b6b4)" style="fill: none; stroke: #000000; stroke-width: 2; stroke-linecap: round"/>
    <path d="M 192.250248 28.496688 
L 181.247353 26.512674 
L 189.436301 18.900767 
z
" clip-path="url(#p8b4bb7b6b4)" style="stroke: #000000; stroke-width: 2; stroke-linecap: round"/>
   </g>
   <g id="patch_4">
    <path d="M 20.708221 136.409338 
Q 52.259122 117.478798 81.892611 99.698704 
" clip-path="url(#p8b4bb7b6b4)" style="fill: none; stroke: #ff0000; stroke-width: 2; stroke-linecap: round"/>
    <path d="M 70.745203 100.556197 
L 81.892611 99.698704 
L 75.890161 109.131126 
z
" clip-path="url(#p8b4bb7b6b4)" style="fill: #ff0000; stroke: #ff0000; stroke-width: 2; stroke-linecap: round"/>
   </g>
   <g id="text_1">
    <!-- $Q$ -->
    <g transform="translate(31.638762 151.393359) scale(0.2 -0.2)">
     <defs>
      <path id="Cmmi10-51" d="M 1947 -141 
Q 1466 -141 1094 79 
Q 722 300 520 692 
Q 319 1084 319 1563 
Q 319 2259 714 2950 
Q 1109 3641 1756 4077 
Q 2403 4513 3109 4513 
Q 3475 4513 3778 4381 
Q 4081 4250 4290 4017 
Q 4500 3784 4614 3471 
Q 4728 3159 4728 2791 
Q 4728 2366 4581 1936 
Q 4434 1506 4171 1136 
Q 3909 766 3559 484 
Q 3209 203 2809 38 
Q 2850 -256 2934 -425 
Q 3019 -594 3256 -594 
Q 3506 -594 3726 -412 
Q 3947 -231 4006 13 
Q 4019 72 4078 72 
Q 4147 72 4147 -13 
Q 4100 -219 4008 -430 
Q 3916 -641 3786 -823 
Q 3656 -1006 3478 -1123 
Q 3300 -1241 3084 -1241 
Q 2547 -1241 2547 -550 
Q 2547 -509 2562 -332 
Q 2578 -156 2578 -44 
Q 2269 -141 1947 -141 
z
M 1709 300 
Q 1709 44 1991 44 
Q 2275 44 2591 184 
L 2591 244 
Q 2591 503 2509 648 
Q 2428 794 2194 794 
Q 2078 794 1964 723 
Q 1850 653 1779 539 
Q 1709 425 1709 300 
z
M 1544 288 
Q 1544 456 1637 612 
Q 1731 769 1881 864 
Q 2031 959 2203 959 
Q 2481 959 2607 771 
Q 2734 584 2778 281 
Q 3188 525 3500 978 
Q 3813 1431 3977 1973 
Q 4141 2516 4141 3003 
Q 4141 3356 4023 3656 
Q 3906 3956 3664 4140 
Q 3422 4325 3066 4325 
Q 2722 4325 2403 4156 
Q 2084 3988 1813 3706 
Q 1550 3434 1342 3032 
Q 1134 2631 1021 2193 
Q 909 1756 909 1356 
Q 909 947 1068 612 
Q 1228 278 1569 128 
Q 1544 194 1544 288 
z
" transform="scale(0.015625)"/>
     </defs>
     <use xlink:href="#Cmmi10-51" transform="translate(0 0.484375)"/>
    </g>
   </g>
  </g>
 </g>
 <defs>
  <clipPath id="p8b4bb7b6b4">
   <rect x="7.2" y="7.2" width="439.2" height="221.936506"/>
  </clipPath>
 </defs>
</svg>
