<?xml version="1.0" encoding="utf-8" standalone="no"?>
<!DOCTYPE svg PUBLIC "-//W3C//DTD SVG 1.1//EN"
  "http://www.w3.org/Graphics/SVG/1.1/DTD/svg11.dtd">
<svg xmlns:xlink="http://www.w3.org/1999/xlink" width="453.6pt" height="236.331627pt" viewBox="0 0 453.6 236.331627" xmlns="http://www.w3.org/2000/svg" version="1.1">
 <metadata>
  <rdf:RDF xmlns:dc="http://purl.org/dc/elements/1.1/" xmlns:cc="http://creativecommons.org/ns#" xmlns:rdf="http://www.w3.org/1999/02/22-rdf-syntax-ns#">
   <cc:Work>
    <dc:type rdf:resource="http://purl.org/dc/dcmitype/StillImage"/>
    <dc:date>2025-02-05T08:55:26.582306</dc:date>
    <dc:format>image/svg+xml</dc:format>
    <dc:creator>
     <cc:Agent>
      <dc:title>Matplotlib v3.6.2, https://matplotlib.org/</dc:title>
     </cc:Agent>
    </dc:creator>
   </cc:Work>
  </rdf:RDF>
 </metadata>
 <defs>
  <style type="text/css">*{stroke-linejoin: round; stroke-linecap: butt}</style>
 </defs>
 <g id="figure_1">
  <g id="patch_1">
   <path d="M 0 236.331627 
L 453.6 236.331627 
L 453.6 0 
L 0 0 
z
" style="fill: #ffffff"/>
  </g>
  <g id="axes_1">
   <g id="patch_2">
    <path d="M 7.2 229.131627 
L 446.4 229.131627 
L 446.4 7.2 
L 7.2 7.2 
z
" style="fill: #ffffff"/>
   </g>
   <g id="PathCollection_1">
    <path d="M 20.70743 139.142998 
C 21.433718 139.142998 22.130358 138.854441 22.643921 138.340877 
C 23.157485 137.827313 23.446042 137.130674 23.446042 136.404385 
C 23.446042 135.678097 23.157485 134.981457 22.643921 134.467894 
C 22.130358 133.95433 21.433718 133.665772 20.70743 133.665772 
C 19.981141 133.665772 19.284501 133.95433 18.770938 134.467894 
C 18.257374 134.981457 17.968817 135.678097 17.968817 136.404385 
C 17.968817 137.130674 18.257374 137.827313 18.770938 138.340877 
C 19.284501 138.854441 19.981141 139.142998 20.70743 139.142998 
z
" clip-path="url(#p20e6e67c94)"/>
   </g>
   <g id="matplotlib.axis_1"/>
   <g id="matplotlib.axis_2"/>
   <g id="line2d_1">
    <path d="M 437.953846 75.113527 
L 435.773744 72.230475 
L 432.748348 68.507107 
L 429.759653 65.101896 
L 425.724729 60.870785 
L 421.295514 56.638091 
L 416.601124 52.551224 
L 412.991364 49.651188 
L 410.497874 47.75842 
L 405.785087 44.404481 
L 399.027708 40.050365 
L 394.057521 37.150301 
L 388.074157 33.960952 
L 383.448106 31.70077 
L 376.719999 28.704475 
L 372.972799 27.174129 
L 366.821607 24.860623 
L 360.224264 22.634926 
L 354.119739 20.794089 
L 347.655998 19.058448 
L 341.582908 17.61563 
L 336.794963 16.599706 
L 328.418533 15.066246 
L 322.578682 14.171675 
L 312.807787 12.977269 
L 305.453486 12.315466 
L 297.727885 11.828875 
L 290.389381 11.556674 
L 280.911616 11.468215 
L 272.971474 11.614239 
L 263.427984 12.046217 
L 256.188186 12.555566 
L 245.992123 13.531903 
L 237.137475 14.620534 
L 228.066117 15.963889 
L 217.614566 17.794329 
L 211.460079 19.01283 
L 202.840239 20.894254 
L 192.298614 23.47304 
L 182.637222 26.107196 
L 174.677724 28.474539 
L 166.611137 31.058845 
L 158.21855 33.949949 
L 147.889072 37.80071 
L 136.467611 42.451448 
L 129.058404 45.701082 
L 121.076559 49.41909 
L 110.710302 54.607574 
L 103.512271 58.468863 
L 95.33245 63.138806 
L 88.703675 67.164367 
L 84.246569 70.00397 
L 75.870563 75.661519 
L 68.965379 80.682268 
L 62.466788 85.751556 
L 56.823613 90.471449 
L 53.655639 93.271225 
L 47.932091 98.652005 
L 42.091362 104.664164 
L 37.694508 109.636235 
L 33.829744 114.420927 
L 30.236739 119.329855 
L 26.807954 124.586863 
L 24.306022 128.927791 
L 22.038824 133.41143 
L 20.609452 136.638623 
L 18.909589 141.124993 
L 17.654609 145.226734 
L 16.719715 149.197618 
L 15.951727 154.163361 
L 15.679654 157.882634 
L 15.674478 161.500986 
L 15.95858 165.322789 
L 16.319285 167.8666 
L 17.094934 171.547869 
L 17.747299 173.878219 
L 18.916695 177.233255 
L 20.595958 181.052732 
L 21.666763 183.11819 
L 23.620848 186.406545 
L 25.992946 189.82063 
L 28.123021 192.508172 
L 30.794311 195.508927 
L 33.885848 198.593172 
L 37.344259 201.666465 
L 39.763935 203.627687 
L 43.571233 206.457417 
L 47.742844 209.260734 
L 51.29507 211.44485 
L 56.266444 214.239809 
L 59.749421 216.041761 
L 65.436598 218.748205 
L 70.242887 220.837329 
L 77.377162 223.652992 
L 80.7056 224.863711 
L 80.7056 224.863711 
" clip-path="url(#p20e6e67c94)" style="fill: none; stroke: #000000; stroke-width: 2; stroke-linecap: square"/>
   </g>
   <g id="patch_3">
    <path d="M 181.155115 26.534418 
Q 180.128132 26.835575 181.246862 26.507514 
" clip-path="url(#p20e6e67c94)" style="fill: none; stroke: #000000; stroke-width: 2; stroke-linecap: round"/>
    <path d="M 192.249757 28.491527 
L 181.246862 26.507514 
L 189.435809 18.895606 
L 192.249757 28.491527 
z
" clip-path="url(#p20e6e67c94)" style="stroke: #000000; stroke-width: 2; stroke-linecap: round"/>
   </g>
   <g id="text_1">
    <!-- $Q$ -->
    <g transform="translate(31.638006 151.388424) scale(0.2 -0.2)">
     <defs>
      <path id="Cmmi10-51" d="M 1947 -141 
Q 1466 -141 1094 79 
Q 722 300 520 692 
Q 319 1084 319 1563 
Q 319 2259 714 2950 
Q 1109 3641 1756 4077 
Q 2403 4513 3109 4513 
Q 3475 4513 3778 4381 
Q 4081 4250 4290 4017 
Q 4500 3784 4614 3471 
Q 4728 3159 4728 2791 
Q 4728 2366 4581 1936 
Q 4434 1506 4171 1136 
Q 3909 766 3559 484 
Q 3209 203 2809 38 
Q 2850 -256 2934 -425 
Q 3019 -594 3256 -594 
Q 3506 -594 3726 -412 
Q 3947 -231 4006 13 
Q 4019 72 4078 72 
Q 4147 72 4147 -13 
Q 4100 -219 4008 -430 
Q 3916 -641 3786 -823 
Q 3656 -1006 3478 -1123 
Q 3300 -1241 3084 -1241 
Q 2547 -1241 2547 -550 
Q 2547 -509 2562 -332 
Q 2578 -156 2578 -44 
Q 2269 -141 1947 -141 
z
M 1709 300 
Q 1709 44 1991 44 
Q 2275 44 2591 184 
L 2591 244 
Q 2591 503 2509 648 
Q 2428 794 2194 794 
Q 2078 794 1964 723 
Q 1850 653 1779 539 
Q 1709 425 1709 300 
z
M 1544 288 
Q 1544 456 1637 612 
Q 1731 769 1881 864 
Q 2031 959 2203 959 
Q 2481 959 2607 771 
Q 2734 584 2778 281 
Q 3188 525 3500 978 
Q 3813 1431 3977 1973 
Q 4141 2516 4141 3003 
Q 4141 3356 4023 3656 
Q 3906 3956 3664 4140 
Q 3422 4325 3066 4325 
Q 2722 4325 2403 4156 
Q 2084 3988 1813 3706 
Q 1550 3434 1342 3032 
Q 1134 2631 1021 2193 
Q 909 1756 909 1356 
Q 909 947 1068 612 
Q 1228 278 1569 128 
Q 1544 194 1544 288 
z
" transform="scale(0.015625)"/>
     </defs>
     <use xlink:href="#Cmmi10-51" transform="translate(0 0.484375)"/>
    </g>
   </g>
  </g>
 </g>
 <defs>
  <clipPath id="p20e6e67c94">
   <rect x="7.2" y="7.2" width="439.2" height="221.931627"/>
  </clipPath>
 </defs>
</svg>
