<?xml version="1.0" encoding="utf-8" standalone="no"?>
<!DOCTYPE svg PUBLIC "-//W3C//DTD SVG 1.1//EN"
  "http://www.w3.org/Graphics/SVG/1.1/DTD/svg11.dtd">
<svg xmlns:xlink="http://www.w3.org/1999/xlink" width="453.6pt" height="236.335837pt" viewBox="0 0 453.6 236.335837" xmlns="http://www.w3.org/2000/svg" version="1.1">
 <metadata>
  <rdf:RDF xmlns:dc="http://purl.org/dc/elements/1.1/" xmlns:cc="http://creativecommons.org/ns#" xmlns:rdf="http://www.w3.org/1999/02/22-rdf-syntax-ns#">
   <cc:Work>
    <dc:type rdf:resource="http://purl.org/dc/dcmitype/StillImage"/>
    <dc:date>2025-02-05T11:17:08.821347</dc:date>
    <dc:format>image/svg+xml</dc:format>
    <dc:creator>
     <cc:Agent>
      <dc:title>Matplotlib v3.6.2, https://matplotlib.org/</dc:title>
     </cc:Agent>
    </dc:creator>
   </cc:Work>
  </rdf:RDF>
 </metadata>
 <defs>
  <style type="text/css">*{stroke-linejoin: round; stroke-linecap: butt}</style>
 </defs>
 <g id="figure_1">
  <g id="patch_1">
   <path d="M 0 236.335837 
L 453.6 236.335837 
L 453.6 0 
L 0 0 
z
" style="fill: #ffffff"/>
  </g>
  <g id="axes_1">
   <g id="patch_2">
    <path d="M 7.2 229.135837 
L 446.4 229.135837 
L 446.4 7.2 
L 7.2 7.2 
z
" style="fill: #ffffff"/>
   </g>
   <g id="PathCollection_1">
    <path d="M 20.708487 139.147351 
C 21.434776 139.147351 22.131415 138.858793 22.644979 138.34523 
C 23.158543 137.831666 23.4471 137.135027 23.4471 136.408738 
C 23.4471 135.68245 23.158543 134.98581 22.644979 134.472247 
C 22.131415 133.958683 21.434776 133.670125 20.708487 133.670125 
C 19.982199 133.670125 19.285559 133.958683 18.771996 134.472247 
C 18.258432 134.98581 17.969875 135.68245 17.969875 136.408738 
C 17.969875 137.135027 18.258432 137.831666 18.771996 138.34523 
C 19.285559 138.858793 19.982199 139.147351 20.708487 139.147351 
z
" clip-path="url(#p4797704b52)"/>
   </g>
   <g id="matplotlib.axis_1"/>
   <g id="matplotlib.axis_2"/>
   <g id="line2d_1">
    <path d="M 437.953846 75.118035 
L 434.928903 71.164636 
L 431.340695 66.876485 
L 427.88055 63.087351 
L 423.95459 59.135879 
L 420.503321 55.925861 
L 415.630641 51.756544 
L 412.070333 48.946505 
L 406.945713 45.209248 
L 404.106043 43.279577 
L 398.345586 39.642501 
L 391.981496 36.012526 
L 386.908766 33.379908 
L 383.92275 31.929432 
L 377.568943 29.069108 
L 372.684602 27.064889 
L 365.931511 24.549921 
L 361.523899 23.057989 
L 354.03535 20.77463 
L 348.267428 19.218197 
L 341.71555 17.649873 
L 332.589447 15.796579 
L 322.322279 14.140187 
L 316.997006 13.448855 
L 307.519683 12.486102 
L 303.518138 12.178501 
L 295.942908 11.750561 
L 287.839354 11.508821 
L 281.696928 11.469219 
L 274.038687 11.587873 
L 263.389646 12.0532 
L 252.216358 12.904931 
L 243.071074 13.871239 
L 232.751953 15.246082 
L 224.027457 16.640224 
L 215.013504 18.301374 
L 204.784944 20.456745 
L 195.941343 22.552033 
L 185.509817 25.301557 
L 179.550985 27.008623 
L 168.1249 30.564341 
L 159.955424 33.339279 
L 150.160355 36.93057 
L 143.807481 39.419072 
L 136.937266 42.256683 
L 126.309515 46.960418 
L 117.711582 51.062272 
L 108.140798 55.965565 
L 101.933216 59.35122 
L 95.210923 63.215645 
L 88.496062 67.299264 
L 82.785983 70.964417 
L 74.82551 76.404522 
L 69.506189 80.281384 
L 63.5772 84.864544 
L 57.719117 89.70586 
L 53.191464 93.696807 
L 49.050451 97.570123 
L 43.561756 103.098748 
L 39.19699 107.892578 
L 35.566853 112.220912 
L 31.697749 117.276875 
L 29.265027 120.759839 
L 26.799346 124.607049 
L 23.99558 129.512099 
L 21.749159 134.042017 
L 20.1276 137.830984 
L 19.044026 140.742078 
L 17.830332 144.598234 
L 16.899342 148.342504 
L 16.203682 152.193416 
L 15.828084 155.461842 
L 15.646154 160.038734 
L 15.840519 164.159517 
L 16.311489 167.818388 
L 16.783281 170.2352 
L 17.792837 174.026259 
L 19.05665 177.589381 
L 20.368819 180.585293 
L 21.276896 182.394305 
L 23.134192 185.637762 
L 25.256399 188.817674 
L 27.705953 192.008047 
L 30.383713 195.073363 
L 33.039515 197.787425 
L 35.675229 200.230135 
L 39.443519 203.379242 
L 42.695685 205.835097 
L 46.731224 208.609759 
L 50.544402 211.000871 
L 54.46197 213.261207 
L 60.97084 216.650139 
L 65.545302 218.801067 
L 72.717581 221.854042 
L 78.780532 224.174732 
L 80.706506 224.86784 
L 80.706506 224.86784 
" clip-path="url(#p4797704b52)" style="fill: none; stroke: #000000; stroke-width: 2; stroke-linecap: square"/>
   </g>
   <g id="patch_3">
    <path d="M 181.155766 26.53905 
Q 180.128786 26.840206 181.247518 26.512144 
" clip-path="url(#p4797704b52)" style="fill: none; stroke: #000000; stroke-width: 2; stroke-linecap: round"/>
    <path d="M 192.250413 28.496157 
L 181.247518 26.512144 
L 189.436466 18.900236 
L 192.250413 28.496157 
z
" clip-path="url(#p4797704b52)" style="stroke: #000000; stroke-width: 2; stroke-linecap: round"/>
   </g>
   <g id="text_1">
    <!-- $Q$ -->
    <g transform="translate(31.639016 151.392753) scale(0.2 -0.2)">
     <defs>
      <path id="Cmmi10-51" d="M 1947 -141 
Q 1466 -141 1094 79 
Q 722 300 520 692 
Q 319 1084 319 1563 
Q 319 2259 714 2950 
Q 1109 3641 1756 4077 
Q 2403 4513 3109 4513 
Q 3475 4513 3778 4381 
Q 4081 4250 4290 4017 
Q 4500 3784 4614 3471 
Q 4728 3159 4728 2791 
Q 4728 2366 4581 1936 
Q 4434 1506 4171 1136 
Q 3909 766 3559 484 
Q 3209 203 2809 38 
Q 2850 -256 2934 -425 
Q 3019 -594 3256 -594 
Q 3506 -594 3726 -412 
Q 3947 -231 4006 13 
Q 4019 72 4078 72 
Q 4147 72 4147 -13 
Q 4100 -219 4008 -430 
Q 3916 -641 3786 -823 
Q 3656 -1006 3478 -1123 
Q 3300 -1241 3084 -1241 
Q 2547 -1241 2547 -550 
Q 2547 -509 2562 -332 
Q 2578 -156 2578 -44 
Q 2269 -141 1947 -141 
z
M 1709 300 
Q 1709 44 1991 44 
Q 2275 44 2591 184 
L 2591 244 
Q 2591 503 2509 648 
Q 2428 794 2194 794 
Q 2078 794 1964 723 
Q 1850 653 1779 539 
Q 1709 425 1709 300 
z
M 1544 288 
Q 1544 456 1637 612 
Q 1731 769 1881 864 
Q 2031 959 2203 959 
Q 2481 959 2607 771 
Q 2734 584 2778 281 
Q 3188 525 3500 978 
Q 3813 1431 3977 1973 
Q 4141 2516 4141 3003 
Q 4141 3356 4023 3656 
Q 3906 3956 3664 4140 
Q 3422 4325 3066 4325 
Q 2722 4325 2403 4156 
Q 2084 3988 1813 3706 
Q 1550 3434 1342 3032 
Q 1134 2631 1021 2193 
Q 909 1756 909 1356 
Q 909 947 1068 612 
Q 1228 278 1569 128 
Q 1544 194 1544 288 
z
" transform="scale(0.015625)"/>
     </defs>
     <use xlink:href="#Cmmi10-51" transform="translate(0 0.484375)"/>
    </g>
   </g>
  </g>
 </g>
 <defs>
  <clipPath id="p4797704b52">
   <rect x="7.2" y="7.2" width="439.2" height="221.935837"/>
  </clipPath>
 </defs>
</svg>
