<?xml version="1.0" encoding="utf-8" standalone="no"?>
<!DOCTYPE svg PUBLIC "-//W3C//DTD SVG 1.1//EN"
  "http://www.w3.org/Graphics/SVG/1.1/DTD/svg11.dtd">
<svg xmlns:xlink="http://www.w3.org/1999/xlink" width="453.6pt" height="236.332077pt" viewBox="0 0 453.6 236.332077" xmlns="http://www.w3.org/2000/svg" version="1.1">
 <metadata>
  <rdf:RDF xmlns:dc="http://purl.org/dc/elements/1.1/" xmlns:cc="http://creativecommons.org/ns#" xmlns:rdf="http://www.w3.org/1999/02/22-rdf-syntax-ns#">
   <cc:Work>
    <dc:type rdf:resource="http://purl.org/dc/dcmitype/StillImage"/>
    <dc:date>2025-02-05T13:29:10.634571</dc:date>
    <dc:format>image/svg+xml</dc:format>
    <dc:creator>
     <cc:Agent>
      <dc:title>Matplotlib v3.8.0, https://matplotlib.org/</dc:title>
     </cc:Agent>
    </dc:creator>
   </cc:Work>
  </rdf:RDF>
 </metadata>
 <defs>
  <style type="text/css">*{stroke-linejoin: round; stroke-linecap: butt}</style>
 </defs>
 <g id="figure_1">
  <g id="patch_1">
   <path d="M 0 236.332077 
L 453.6 236.332077 
L 453.6 0 
L 0 0 
z
" style="fill: #ffffff"/>
  </g>
  <g id="axes_1">
   <g id="patch_2">
    <path d="M 7.2 229.132077 
L 446.4 229.132077 
L 446.4 7.2 
L 7.2 7.2 
z
" style="fill: #ffffff"/>
   </g>
   <g id="PathCollection_1">
    <path d="M 411.548128 52.081795 
C 412.485763 52.081795 413.38512 51.709269 414.048128 51.046261 
C 414.711136 50.383253 415.083662 49.483896 415.083662 48.546261 
C 415.083662 47.608626 414.711136 46.709269 414.048128 46.046261 
C 413.38512 45.383253 412.485763 45.010727 411.548128 45.010727 
C 410.610493 45.010727 409.711136 45.383253 409.048128 46.046261 
C 408.38512 46.709269 408.012594 47.608626 408.012594 48.546261 
C 408.012594 49.483896 408.38512 50.383253 409.048128 51.046261 
C 409.711136 51.709269 410.610493 52.081795 411.548128 52.081795 
z
" clip-path="url(#pf44d4b463c)"/>
   </g>
   <g id="matplotlib.axis_1"/>
   <g id="matplotlib.axis_2"/>
   <g id="line2d_1">
    <path d="M 437.953846 75.114596 
L 433.860311 69.842021 
L 430.459133 65.877726 
L 426.141075 61.290818 
L 422.868466 58.097302 
L 417.737719 53.507457 
L 413.583646 50.114759 
L 409.203925 46.810507 
L 403.06152 42.589886 
L 398.582865 39.782001 
L 393.938716 37.084993 
L 391.785228 35.903124 
L 386.657531 33.25171 
L 380.017103 30.132669 
L 374.491847 27.784236 
L 366.594796 24.781004 
L 361.586126 23.074873 
L 357.696185 21.849148 
L 351.838627 20.158418 
L 344.610055 18.31395 
L 339.277298 17.114594 
L 332.499257 15.776729 
L 326.191841 14.709944 
L 320.094622 13.834096 
L 310.219541 12.723005 
L 302.364781 12.097082 
L 296.579351 11.775549 
L 287.930918 11.506999 
L 278.241297 11.496642 
L 271.790578 11.654037 
L 264.204878 12.00216 
L 253.151706 12.816334 
L 242.390847 13.949339 
L 233.621337 15.115451 
L 223.951558 16.649995 
L 214.681839 18.363485 
L 204.63564 20.487072 
L 194.284366 22.965354 
L 183.154166 25.961219 
L 172.736548 29.080882 
L 161.389213 32.834754 
L 149.841039 37.049419 
L 140.023358 40.959677 
L 133.731973 43.631095 
L 123.696175 48.175031 
L 118.215377 50.81111 
L 107.292149 56.415423 
L 99.700908 60.607788 
L 91.29405 65.566119 
L 84.087914 70.10919 
L 76.834275 74.989812 
L 70.199641 79.761024 
L 66.004556 82.94944 
L 58.837289 88.752371 
L 53.791899 93.15081 
L 48.019681 98.568743 
L 42.484365 104.2429 
L 40.095548 106.869541 
L 36.52789 111.037618 
L 33.27181 115.153761 
L 30.155708 119.450203 
L 27.22855 123.907941 
L 25.142376 127.421572 
L 23.463485 130.524744 
L 21.489279 134.611869 
L 19.952349 138.275272 
L 18.4409 142.555989 
L 17.199557 147.020767 
L 16.464296 150.568981 
L 16.015806 153.616328 
L 15.753483 156.470463 
L 15.646154 159.757913 
L 15.811017 163.80492 
L 16.074358 166.24128 
L 16.70748 169.881359 
L 17.622465 173.460477 
L 18.285151 175.516323 
L 19.49819 178.653545 
L 20.696251 181.253299 
L 22.569242 184.700401 
L 24.403748 187.590194 
L 26.86046 190.950368 
L 29.73937 194.364971 
L 32.469907 197.224361 
L 35.869323 200.397298 
L 38.695634 202.778151 
L 42.19246 205.46484 
L 46.034658 208.145944 
L 50.843538 211.176035 
L 56.420299 214.321594 
L 61.277352 216.795812 
L 67.809507 219.800395 
L 73.984015 222.353197 
L 80.707097 224.864153 
L 80.707097 224.864153 
" clip-path="url(#pf44d4b463c)" style="fill: none; stroke: #000000; stroke-width: 2; stroke-linecap: square"/>
   </g>
   <g id="patch_3">
    <path d="M 181.156191 26.535691 
Q 180.129213 26.836847 181.247947 26.508784 
" clip-path="url(#pf44d4b463c)" style="fill: none; stroke: #000000; stroke-width: 2; stroke-linecap: round"/>
    <path d="M 192.250842 28.492797 
L 181.247947 26.508784 
L 189.436894 18.896876 
z
" clip-path="url(#pf44d4b463c)" style="stroke: #000000; stroke-width: 2; stroke-linecap: round"/>
   </g>
   <g id="patch_4">
    <path d="M 411.548128 48.546261 
Q 376.053445 39.081012 342.71933 30.191915 
" clip-path="url(#pf44d4b463c)" style="fill: none; stroke: #ff0000; stroke-width: 2; stroke-linecap: round"/>
    <path d="M 351.093366 37.599716 
L 342.71933 30.191915 
L 353.669992 27.937367 
z
" clip-path="url(#pf44d4b463c)" style="fill: #ff0000; stroke: #ff0000; stroke-width: 2; stroke-linecap: round"/>
   </g>
   <g id="text_1">
    <!-- $P$ -->
    <g transform="translate(414.513377 35.134514) scale(0.2 -0.2)">
     <defs>
      <path id="Cmmi10-50" d="M 313 0 
Q 250 0 250 84 
Q 253 100 262 139 
Q 272 178 289 201 
Q 306 225 331 225 
Q 722 225 878 269 
Q 959 297 997 441 
L 1875 3956 
Q 1888 4019 1888 4044 
Q 1888 4113 1813 4122 
Q 1691 4147 1350 4147 
Q 1288 4147 1288 4231 
Q 1291 4247 1300 4286 
Q 1309 4325 1326 4348 
Q 1344 4372 1369 4372 
L 3578 4372 
Q 3881 4372 4165 4264 
Q 4450 4156 4631 3934 
Q 4813 3713 4813 3397 
Q 4813 2991 4527 2672 
Q 4241 2353 3814 2175 
Q 3388 1997 2988 1997 
L 1947 1997 
L 1556 416 
Q 1544 353 1544 325 
Q 1544 300 1551 283 
Q 1559 266 1573 261 
Q 1588 256 1619 250 
Q 1741 225 2081 225 
Q 2144 225 2144 141 
Q 2122 50 2109 25 
Q 2097 0 2034 0 
L 313 0 
z
M 1978 2188 
L 2875 2188 
Q 3497 2188 3822 2522 
Q 3988 2688 4092 3000 
Q 4197 3313 4197 3566 
Q 4197 3881 3956 4014 
Q 3716 4147 3359 4147 
L 2747 4147 
Q 2572 4147 2515 4117 
Q 2459 4088 2413 3928 
L 1978 2188 
z
" transform="scale(0.015625)"/>
     </defs>
     <use xlink:href="#Cmmi10-50" transform="translate(0 0.6875)"/>
    </g>
   </g>
  </g>
 </g>
 <defs>
  <clipPath id="pf44d4b463c">
   <rect x="7.2" y="7.2" width="439.2" height="221.932077"/>
  </clipPath>
 </defs>
</svg>
