<?xml version="1.0" encoding="utf-8" standalone="no"?>
<!DOCTYPE svg PUBLIC "-//W3C//DTD SVG 1.1//EN"
  "http://www.w3.org/Graphics/SVG/1.1/DTD/svg11.dtd">
<svg xmlns:xlink="http://www.w3.org/1999/xlink" width="453.6pt" height="329.765437pt" viewBox="0 0 453.6 329.765437" xmlns="http://www.w3.org/2000/svg" version="1.1">
 <metadata>
  <rdf:RDF xmlns:dc="http://purl.org/dc/elements/1.1/" xmlns:cc="http://creativecommons.org/ns#" xmlns:rdf="http://www.w3.org/1999/02/22-rdf-syntax-ns#">
   <cc:Work>
    <dc:type rdf:resource="http://purl.org/dc/dcmitype/StillImage"/>
    <dc:date>2024-12-04T07:50:37.618564</dc:date>
    <dc:format>image/svg+xml</dc:format>
    <dc:creator>
     <cc:Agent>
      <dc:title>Matplotlib v3.6.2, https://matplotlib.org/</dc:title>
     </cc:Agent>
    </dc:creator>
   </cc:Work>
  </rdf:RDF>
 </metadata>
 <defs>
  <style type="text/css">*{stroke-linejoin: round; stroke-linecap: butt}</style>
 </defs>
 <g id="figure_1">
  <g id="patch_1">
   <path d="M 0 329.765437 
L 453.6 329.765437 
L 453.6 0 
L 0 0 
z
" style="fill: #ffffff"/>
  </g>
  <g id="axes_1">
   <g id="patch_2">
    <path d="M 7.2 322.565437 
L 446.4 322.565437 
L 446.4 7.2 
L 7.2 7.2 
z
" style="fill: #ffffff"/>
   </g>
   <g id="PathCollection_1">
    <path d="M 230.711055 134.535447 
C 231.437344 134.535447 232.133983 134.246889 232.647547 133.733326 
C 233.16111 133.219762 233.449668 132.523122 233.449668 131.796834 
C 233.449668 131.070545 233.16111 130.373906 232.647547 129.860342 
C 232.133983 129.346779 231.437344 129.058221 230.711055 129.058221 
C 229.984766 129.058221 229.288127 129.346779 228.774563 129.860342 
C 228.261 130.373906 227.972442 131.070545 227.972442 131.796834 
C 227.972442 132.523122 228.261 133.219762 228.774563 133.733326 
C 229.288127 134.246889 229.984766 134.535447 230.711055 134.535447 
z
" clip-path="url(#pf51a47f1cd)"/>
   </g>
   <g id="matplotlib.axis_1"/>
   <g id="matplotlib.axis_2"/>
   <g id="line2d_1">
    <path d="M 15.646154 316.500717 
L 15.756877 306.264074 
L 16.062046 298.686871 
L 16.615481 291.513208 
L 17.308993 285.676405 
L 18.235453 279.99528 
L 19.341859 274.758702 
L 20.522475 270.211494 
L 21.648516 266.50941 
L 23.366568 261.657419 
L 24.921097 257.849049 
L 26.547998 254.290253 
L 29.006493 249.523245 
L 31.784575 244.786652 
L 33.571071 242.017994 
L 37.260205 236.826359 
L 41.125012 231.975637 
L 44.743142 227.851474 
L 48.053939 224.359773 
L 52.429963 220.081548 
L 55.734126 217.063694 
L 61.353766 212.277089 
L 66.42209 208.271738 
L 72.156983 204.033397 
L 78.482053 199.660899 
L 83.418541 196.435188 
L 90.759313 191.895896 
L 97.946437 187.706995 
L 106.49298 183.003383 
L 114.230722 178.966877 
L 124.704195 173.787796 
L 135.872082 168.570106 
L 144.364575 164.781416 
L 155.400222 160.056182 
L 169.250683 154.396154 
L 183.499779 148.836241 
L 198.35416 143.275052 
L 211.920488 138.369744 
L 230.723 131.792725 
L 252.656272 124.36979 
L 284.333463 113.951284 
L 339.984662 95.759166 
L 359.630144 89.077496 
L 375.04971 83.586774 
L 387.442833 78.920447 
L 396.115962 75.454916 
L 405.385087 71.484202 
L 411.60569 68.59729 
L 416.958825 65.905549 
L 422.360958 62.903509 
L 425.978779 60.651909 
L 429.342502 58.284857 
L 432.026778 56.088648 
L 434.045181 54.122721 
L 435.525311 52.359204 
L 436.53432 50.840597 
L 437.36463 49.117542 
L 437.8311 47.456309 
L 437.953846 45.883681 
L 437.863697 44.887387 
L 437.420779 43.252957 
L 436.647196 41.703772 
L 435.798701 40.501934 
L 434.59226 39.168504 
L 432.585884 37.43336 
L 430.941369 36.26306 
L 428.436841 34.74199 
L 424.81426 32.896493 
L 420.733044 31.137348 
L 416.120836 29.418809 
L 410.52548 27.598915 
L 403.6704 25.64863 
L 395.965219 23.719976 
L 388.308897 22.008014 
L 379.06605 20.147369 
L 368.011283 18.149711 
L 354.678192 15.993123 
L 339.790541 13.835908 
L 335.575484 13.26472 
L 335.575484 13.26472 
" clip-path="url(#pf51a47f1cd)" style="fill: none; stroke: #000000; stroke-width: 2; stroke-linecap: square"/>
   </g>
   <g id="patch_3">
    <path d="M 230.711055 131.796834 
Q 307.327228 105.444833 381.82891 79.820107 
" clip-path="url(#pf51a47f1cd)" style="fill: none; stroke: #800080; stroke-width: 2; stroke-linecap: round"/>
    <path d="M 370.746383 78.344437 
L 381.82891 79.820107 
L 373.998858 87.800727 
L 370.746383 78.344437 
z
" clip-path="url(#pf51a47f1cd)" style="fill: #800080; stroke: #800080; stroke-width: 2; stroke-linecap: round"/>
   </g>
   <g id="patch_4">
    <path d="M 230.711055 131.796834 
Q 257.063056 208.413007 282.687781 282.914689 
" clip-path="url(#pf51a47f1cd)" style="fill: none; stroke: #ff0000; stroke-width: 2; stroke-linecap: round"/>
    <path d="M 284.163452 271.832162 
L 282.687781 282.914689 
L 274.707162 275.084637 
L 284.163452 271.832162 
z
" clip-path="url(#pf51a47f1cd)" style="fill: #ff0000; stroke: #ff0000; stroke-width: 2; stroke-linecap: round"/>
   </g>
   <g id="patch_5">
    <path d="M 230.711055 131.796834 
Q 276.33794 116.103545 319.850334 101.137532 
" clip-path="url(#pf51a47f1cd)" style="fill: none; stroke: #0000ff; stroke-width: 2; stroke-linecap: round"/>
    <path d="M 308.767807 99.661862 
L 319.850334 101.137532 
L 312.020282 109.118151 
L 308.767807 99.661862 
z
" clip-path="url(#pf51a47f1cd)" style="fill: #0000ff; stroke: #0000ff; stroke-width: 2; stroke-linecap: round"/>
   </g>
   <g id="patch_6">
    <path d="M 230.711055 131.796834 
Q 244.369739 171.508281 257.301148 209.105238 
" clip-path="url(#pf51a47f1cd)" style="fill: none; stroke: #ffa500; stroke-width: 2; stroke-linecap: round"/>
    <path d="M 258.776818 198.022711 
L 257.301148 209.105238 
L 249.320528 201.275186 
L 258.776818 198.022711 
z
" clip-path="url(#pf51a47f1cd)" style="fill: #ffa500; stroke: #ffa500; stroke-width: 2; stroke-linecap: round"/>
   </g>
   <g id="patch_7">
    <path d="M 230.711055 131.796834 
Q 289.996624 155.814993 347.209739 178.993545 
" clip-path="url(#pf51a47f1cd)" style="fill: none; stroke: #008000; stroke-width: 2; stroke-linecap: round"/>
    <path d="M 339.818863 170.604568 
L 347.209739 178.993545 
L 336.064031 179.87286 
L 339.818863 170.604568 
z
" clip-path="url(#pf51a47f1cd)" style="fill: #008000; stroke: #008000; stroke-width: 2; stroke-linecap: round"/>
   </g>
  </g>
 </g>
 <defs>
  <clipPath id="pf51a47f1cd">
   <rect x="7.2" y="7.2" width="439.2" height="315.365437"/>
  </clipPath>
 </defs>
</svg>
