<?xml version="1.0" encoding="utf-8" standalone="no"?>
<!DOCTYPE svg PUBLIC "-//W3C//DTD SVG 1.1//EN"
  "http://www.w3.org/Graphics/SVG/1.1/DTD/svg11.dtd">
<svg xmlns:xlink="http://www.w3.org/1999/xlink" width="453.6pt" height="329.76453pt" viewBox="0 0 453.6 329.76453" xmlns="http://www.w3.org/2000/svg" version="1.1">
 <metadata>
  <rdf:RDF xmlns:dc="http://purl.org/dc/elements/1.1/" xmlns:cc="http://creativecommons.org/ns#" xmlns:rdf="http://www.w3.org/1999/02/22-rdf-syntax-ns#">
   <cc:Work>
    <dc:type rdf:resource="http://purl.org/dc/dcmitype/StillImage"/>
    <dc:date>2024-08-19T12:05:11.059211</dc:date>
    <dc:format>image/svg+xml</dc:format>
    <dc:creator>
     <cc:Agent>
      <dc:title>Matplotlib v3.8.0, https://matplotlib.org/</dc:title>
     </cc:Agent>
    </dc:creator>
   </cc:Work>
  </rdf:RDF>
 </metadata>
 <defs>
  <style type="text/css">*{stroke-linejoin: round; stroke-linecap: butt}</style>
 </defs>
 <g id="figure_1">
  <g id="patch_1">
   <path d="M 0 329.76453 
L 453.6 329.76453 
L 453.6 0 
L 0 0 
z
" style="fill: #ffffff"/>
  </g>
  <g id="axes_1">
   <g id="patch_2">
    <path d="M 7.2 322.56453 
L 446.4 322.56453 
L 446.4 7.2 
L 7.2 7.2 
z
" style="fill: #ffffff"/>
   </g>
   <g id="PathCollection_1">
    <path d="M 230.710437 134.535088 
C 231.436725 134.535088 232.133365 134.246531 232.646928 133.732967 
C 233.160492 133.219404 233.449049 132.522764 233.449049 131.796476 
C 233.449049 131.070187 233.160492 130.373548 232.646928 129.859984 
C 232.133365 129.34642 231.436725 129.057863 230.710437 129.057863 
C 229.984148 129.057863 229.287508 129.34642 228.773945 129.859984 
C 228.260381 130.373548 227.971824 131.070187 227.971824 131.796476 
C 227.971824 132.522764 228.260381 133.219404 228.773945 133.732967 
C 229.287508 134.246531 229.984148 134.535088 230.710437 134.535088 
z
" clip-path="url(#pe451303fc7)"/>
   </g>
   <g id="matplotlib.axis_1"/>
   <g id="matplotlib.axis_2"/>
   <g id="line2d_1">
    <path d="M 15.646154 316.499827 
L 15.749314 306.570624 
L 15.938232 301.089136 
L 16.393949 293.947193 
L 16.957493 288.380389 
L 17.611838 283.631004 
L 18.585077 278.203284 
L 19.57032 273.810277 
L 20.973583 268.6662 
L 22.347381 264.436862 
L 24.026464 259.983436 
L 25.952177 255.549454 
L 28.366112 250.704493 
L 30.97325 246.109859 
L 33.713427 241.804544 
L 36.395194 237.987527 
L 39.568599 233.866458 
L 42.819188 229.999462 
L 46.725081 225.731471 
L 51.063351 221.379942 
L 55.711172 217.083393 
L 61.217364 212.387993 
L 65.730809 208.801963 
L 71.981652 204.15818 
L 78.967935 199.335909 
L 86.923689 194.231289 
L 91.843281 191.24832 
L 99.298471 186.943363 
L 107.068975 182.695422 
L 116.147487 177.995343 
L 126.64172 172.860928 
L 137.508483 167.828206 
L 149.184526 162.691229 
L 162.035206 157.30962 
L 175.127222 152.073032 
L 189.688178 146.492253 
L 203.992244 141.217512 
L 219.901724 135.549034 
L 241.746948 128.032961 
L 269.015285 118.9571 
L 353.044289 91.347722 
L 369.88671 85.456695 
L 381.277589 81.276297 
L 392.137293 77.068892 
L 400.585583 73.58065 
L 408.605786 70.01604 
L 415.393347 66.716245 
L 420.606922 63.916891 
L 424.957054 61.312261 
L 427.823383 59.394019 
L 431.060042 56.92073 
L 433.095583 55.092154 
L 435.101043 52.904339 
L 436.14304 51.473839 
L 436.857783 50.246884 
L 437.602041 48.413966 
L 437.887684 47.083083 
L 437.945906 45.698185 
L 437.726165 44.217766 
L 437.288741 42.933243 
L 436.688765 41.773924 
L 436.017166 40.784616 
L 434.67536 39.252275 
L 433.063882 37.810359 
L 431.348353 36.538028 
L 428.980318 35.051755 
L 425.729904 33.333135 
L 421.533007 31.462027 
L 417.311198 29.840712 
L 412.250275 28.134737 
L 406.234073 26.348268 
L 398.662779 24.368829 
L 389.495442 22.26228 
L 379.2579 20.184216 
L 370.431729 18.569068 
L 357.903799 16.493268 
L 344.931798 14.55508 
L 335.574564 13.264702 
L 335.574564 13.264702 
" clip-path="url(#pe451303fc7)" style="fill: none; stroke: #000000; stroke-width: 2; stroke-linecap: square"/>
   </g>
   <g id="patch_3">
    <path d="M 230.710437 131.796476 
Q 307.326389 105.44455 381.827851 79.819901 
" clip-path="url(#pe451303fc7)" style="fill: none; stroke: #800080; stroke-width: 2; stroke-linecap: round"/>
    <path d="M 370.745324 78.34423 
L 381.827851 79.819901 
L 373.997799 87.80052 
z
" clip-path="url(#pe451303fc7)" style="fill: #800080; stroke: #800080; stroke-width: 2; stroke-linecap: round"/>
   </g>
   <g id="patch_4">
    <path d="M 230.710437 131.796476 
Q 257.062362 208.412428 282.687012 282.91389 
" clip-path="url(#pe451303fc7)" style="fill: none; stroke: #ff0000; stroke-width: 2; stroke-linecap: round"/>
    <path d="M 284.162682 271.831363 
L 282.687012 282.91389 
L 274.706392 275.083838 
z
" clip-path="url(#pe451303fc7)" style="fill: #ff0000; stroke: #ff0000; stroke-width: 2; stroke-linecap: round"/>
   </g>
   <g id="patch_5">
    <path d="M 230.710437 131.796476 
Q 276.33719 116.103232 319.849453 101.137264 
" clip-path="url(#pe451303fc7)" style="fill: none; stroke: #0000ff; stroke-width: 2; stroke-linecap: round"/>
    <path d="M 308.766926 99.661594 
L 319.849453 101.137264 
L 312.019401 109.117883 
z
" clip-path="url(#pe451303fc7)" style="fill: #0000ff; stroke: #0000ff; stroke-width: 2; stroke-linecap: round"/>
   </g>
   <g id="patch_6">
    <path d="M 230.710437 131.796476 
Q 244.369081 171.507809 257.300451 209.104651 
" clip-path="url(#pe451303fc7)" style="fill: none; stroke: #ffa500; stroke-width: 2; stroke-linecap: round"/>
    <path d="M 258.776121 198.022125 
L 257.300451 209.104651 
L 249.319831 201.274599 
z
" clip-path="url(#pe451303fc7)" style="fill: #ffa500; stroke: #ffa500; stroke-width: 2; stroke-linecap: round"/>
   </g>
   <g id="patch_7">
    <path d="M 230.710437 131.796476 
Q 289.995835 155.814565 347.20878 178.993049 
" clip-path="url(#pe451303fc7)" style="fill: none; stroke: #008000; stroke-width: 2; stroke-linecap: round"/>
    <path d="M 339.817903 170.604072 
L 347.20878 178.993049 
L 336.063072 179.872364 
z
" clip-path="url(#pe451303fc7)" style="fill: #008000; stroke: #008000; stroke-width: 2; stroke-linecap: round"/>
   </g>
  </g>
 </g>
 <defs>
  <clipPath id="pe451303fc7">
   <rect x="7.2" y="7.2" width="439.2" height="315.36453"/>
  </clipPath>
 </defs>
</svg>
