<?xml version="1.0" encoding="utf-8" standalone="no"?>
<!DOCTYPE svg PUBLIC "-//W3C//DTD SVG 1.1//EN"
  "http://www.w3.org/Graphics/SVG/1.1/DTD/svg11.dtd">
<svg xmlns:xlink="http://www.w3.org/1999/xlink" width="452.644161pt" height="225.134581pt" viewBox="0 0 452.644161 225.134581" xmlns="http://www.w3.org/2000/svg" version="1.1">
 <metadata>
  <rdf:RDF xmlns:dc="http://purl.org/dc/elements/1.1/" xmlns:cc="http://creativecommons.org/ns#" xmlns:rdf="http://www.w3.org/1999/02/22-rdf-syntax-ns#">
   <cc:Work>
    <dc:type rdf:resource="http://purl.org/dc/dcmitype/StillImage"/>
    <dc:date>2025-02-05T08:53:57.298770</dc:date>
    <dc:format>image/svg+xml</dc:format>
    <dc:creator>
     <cc:Agent>
      <dc:title>Matplotlib v3.6.2, https://matplotlib.org/</dc:title>
     </cc:Agent>
    </dc:creator>
   </cc:Work>
  </rdf:RDF>
 </metadata>
 <defs>
  <style type="text/css">*{stroke-linejoin: round; stroke-linecap: butt}</style>
 </defs>
 <g id="figure_1">
  <g id="patch_1">
   <path d="M 0 225.134581 
L 452.644161 225.134581 
L 452.644161 0 
L 0 0 
z
" style="fill: #ffffff"/>
  </g>
  <g id="axes_1">
   <g id="patch_2">
    <path d="M 10.944232 217.934581 
L 445.444161 217.934581 
L 445.444161 7.2 
L 10.944232 7.2 
z
" style="fill: #ffffff"/>
   </g>
   <g id="PathCollection_1">
    <path d="M 40.896684 133.421955 
C 41.834319 133.421955 42.733677 133.049429 43.396684 132.386421 
C 44.059692 131.723413 44.432218 130.824055 44.432218 129.886421 
C 44.432218 128.948786 44.059692 128.049429 43.396684 127.386421 
C 42.733677 126.723413 41.834319 126.350887 40.896684 126.350887 
C 39.95905 126.350887 39.059692 126.723413 38.396684 127.386421 
C 37.733677 128.049429 37.361151 128.948786 37.361151 129.886421 
C 37.361151 130.824055 37.733677 131.723413 38.396684 132.386421 
C 39.059692 133.049429 39.95905 133.421955 40.896684 133.421955 
z
" clip-path="url(#pc6b7496242)"/>
   </g>
   <g id="PathCollection_2">
    <path d="M 37.275319 166.005606 
C 38.212954 166.005606 39.112311 165.63308 39.775319 164.970072 
C 40.438327 164.307064 40.810853 163.407706 40.810853 162.470072 
C 40.810853 161.532437 40.438327 160.63308 39.775319 159.970072 
C 39.112311 159.307064 38.212954 158.934538 37.275319 158.934538 
C 36.337685 158.934538 35.438327 159.307064 34.775319 159.970072 
C 34.112311 160.63308 33.739785 161.532437 33.739785 162.470072 
C 33.739785 163.407706 34.112311 164.307064 34.775319 164.970072 
C 35.438327 165.63308 36.337685 166.005606 37.275319 166.005606 
z
" clip-path="url(#pc6b7496242)"/>
   </g>
   <g id="matplotlib.axis_1"/>
   <g id="matplotlib.axis_2"/>
   <g id="line2d_1">
    <path d="M 437.088394 71.688366 
L 433.95598 67.609921 
L 430.853124 63.913137 
L 427.251606 59.979963 
L 422.994066 55.746868 
L 419.200137 52.297765 
L 414.175176 48.128834 
L 411.183621 45.836801 
L 405.849814 42.058874 
L 400.076218 38.363962 
L 395.359985 35.614431 
L 389.420643 32.458053 
L 383.302106 29.527551 
L 375.505319 26.215179 
L 372.682251 25.122718 
L 366.427729 22.889242 
L 358.410936 20.376457 
L 351.564126 18.516761 
L 344.407219 16.833406 
L 341.025806 16.125546 
L 331.641229 14.437933 
L 322.321577 13.141303 
L 312.224894 12.133722 
L 303.098892 11.556814 
L 299.132827 11.400474 
L 291.098662 11.252588 
L 285.219216 11.283556 
L 277.694112 11.48955 
L 268.125402 12.013425 
L 260.596202 12.626208 
L 250.192909 13.756232 
L 242.638608 14.778943 
L 233.0011 16.326791 
L 223.063747 18.205442 
L 216.387661 19.627969 
L 207.966548 21.60629 
L 202.552066 22.98712 
L 190.445061 26.386122 
L 180.299274 29.571834 
L 173.923402 31.735195 
L 164.233507 35.268934 
L 155.401344 38.757924 
L 147.786201 41.981118 
L 140.520448 45.251587 
L 133.083987 48.807539 
L 126.252777 52.271988 
L 121.325871 54.895944 
L 111.292084 60.592389 
L 105.557746 64.080395 
L 98.820052 68.420393 
L 91.64164 73.366612 
L 85.260054 78.084012 
L 80.605979 81.743383 
L 75.088814 86.35932 
L 70.438255 90.52381 
L 65.368566 95.406943 
L 60.63617 100.36346 
L 57.259257 104.194461 
L 53.393108 108.965204 
L 49.75161 113.953468 
L 47.144104 117.928152 
L 44.173346 123.047205 
L 42.428649 126.479838 
L 40.664948 130.444345 
L 39.41841 133.709352 
L 38.340185 137.048219 
L 37.453804 140.436831 
L 36.853156 143.409072 
L 36.309575 147.451734 
L 36.103454 150.901963 
L 36.141 154.285161 
L 36.315753 156.674766 
L 36.680976 159.466005 
L 37.320958 162.663557 
L 38.173793 165.75168 
L 39.474471 169.351161 
L 41.134125 172.96837 
L 42.948012 176.220419 
L 45.272464 179.730781 
L 47.34868 182.444573 
L 50.12189 185.632013 
L 51.956138 187.529651 
L 55.595938 190.915928 
L 59.244187 193.914461 
L 62.319594 196.200761 
L 66.607841 199.091911 
L 70.137694 201.256436 
L 74.753184 203.843245 
L 79.921428 206.46475 
L 85.272288 208.921917 
L 90.604637 211.149587 
L 97.867282 213.881993 
L 97.867282 213.881993 
" clip-path="url(#pc6b7496242)" style="fill: none; stroke: #000000; stroke-width: 2; stroke-linecap: square"/>
   </g>
   <g id="patch_3">
    <path d="M 193.248006 25.560612 
Q 192.272845 25.846572 193.443398 25.503314 
" clip-path="url(#pc6b7496242)" style="fill: none; stroke: #000000; stroke-width: 2; stroke-linecap: round"/>
    <path d="M 204.446293 27.487327 
L 193.443398 25.503314 
L 201.632345 17.891406 
L 204.446293 27.487327 
z
" clip-path="url(#pc6b7496242)" style="stroke: #000000; stroke-width: 2; stroke-linecap: round"/>
   </g>
   <g id="text_1">
    <!-- $Q_0$ -->
    <g transform="translate(19.809025 117.429852) scale(0.2 -0.2)">
     <defs>
      <path id="Cmmi10-51" d="M 1947 -141 
Q 1466 -141 1094 79 
Q 722 300 520 692 
Q 319 1084 319 1563 
Q 319 2259 714 2950 
Q 1109 3641 1756 4077 
Q 2403 4513 3109 4513 
Q 3475 4513 3778 4381 
Q 4081 4250 4290 4017 
Q 4500 3784 4614 3471 
Q 4728 3159 4728 2791 
Q 4728 2366 4581 1936 
Q 4434 1506 4171 1136 
Q 3909 766 3559 484 
Q 3209 203 2809 38 
Q 2850 -256 2934 -425 
Q 3019 -594 3256 -594 
Q 3506 -594 3726 -412 
Q 3947 -231 4006 13 
Q 4019 72 4078 72 
Q 4147 72 4147 -13 
Q 4100 -219 4008 -430 
Q 3916 -641 3786 -823 
Q 3656 -1006 3478 -1123 
Q 3300 -1241 3084 -1241 
Q 2547 -1241 2547 -550 
Q 2547 -509 2562 -332 
Q 2578 -156 2578 -44 
Q 2269 -141 1947 -141 
z
M 1709 300 
Q 1709 44 1991 44 
Q 2275 44 2591 184 
L 2591 244 
Q 2591 503 2509 648 
Q 2428 794 2194 794 
Q 2078 794 1964 723 
Q 1850 653 1779 539 
Q 1709 425 1709 300 
z
M 1544 288 
Q 1544 456 1637 612 
Q 1731 769 1881 864 
Q 2031 959 2203 959 
Q 2481 959 2607 771 
Q 2734 584 2778 281 
Q 3188 525 3500 978 
Q 3813 1431 3977 1973 
Q 4141 2516 4141 3003 
Q 4141 3356 4023 3656 
Q 3906 3956 3664 4140 
Q 3422 4325 3066 4325 
Q 2722 4325 2403 4156 
Q 2084 3988 1813 3706 
Q 1550 3434 1342 3032 
Q 1134 2631 1021 2193 
Q 909 1756 909 1356 
Q 909 947 1068 612 
Q 1228 278 1569 128 
Q 1544 194 1544 288 
z
" transform="scale(0.015625)"/>
      <path id="Cmr10-30" d="M 1600 -141 
Q 816 -141 533 504 
Q 250 1150 250 2041 
Q 250 2597 351 3087 
Q 453 3578 754 3920 
Q 1056 4263 1600 4263 
Q 2022 4263 2290 4056 
Q 2559 3850 2700 3523 
Q 2841 3197 2892 2823 
Q 2944 2450 2944 2041 
Q 2944 1491 2842 1011 
Q 2741 531 2444 195 
Q 2147 -141 1600 -141 
z
M 1600 25 
Q 1956 25 2131 390 
Q 2306 756 2347 1200 
Q 2388 1644 2388 2144 
Q 2388 2625 2347 3031 
Q 2306 3438 2132 3767 
Q 1959 4097 1600 4097 
Q 1238 4097 1063 3765 
Q 888 3434 847 3029 
Q 806 2625 806 2144 
Q 806 1788 823 1472 
Q 841 1156 916 820 
Q 991 484 1158 254 
Q 1325 25 1600 25 
z
" transform="scale(0.015625)"/>
     </defs>
     <use xlink:href="#Cmmi10-51" transform="translate(0 0.484375)"/>
     <use xlink:href="#Cmr10-30" transform="translate(79.003906 -16.521875) scale(0.7)"/>
    </g>
   </g>
   <g id="text_2">
    <!-- $Q_1$ -->
    <g transform="translate(7.2 159.001162) scale(0.2 -0.2)">
     <defs>
      <path id="Cmr10-31" d="M 594 0 
L 594 225 
Q 1394 225 1394 428 
L 1394 3788 
Q 1063 3628 556 3628 
L 556 3853 
Q 1341 3853 1741 4263 
L 1831 4263 
Q 1853 4263 1873 4245 
Q 1894 4228 1894 4206 
L 1894 428 
Q 1894 225 2694 225 
L 2694 0 
L 594 0 
z
" transform="scale(0.015625)"/>
     </defs>
     <use xlink:href="#Cmmi10-51" transform="translate(0 0.484375)"/>
     <use xlink:href="#Cmr10-31" transform="translate(79.003906 -16.521875) scale(0.7)"/>
    </g>
   </g>
  </g>
 </g>
 <defs>
  <clipPath id="pc6b7496242">
   <rect x="10.944232" y="7.2" width="434.499929" height="210.734581"/>
  </clipPath>
 </defs>
</svg>
