<?xml version="1.0" encoding="utf-8" standalone="no"?>
<!DOCTYPE svg PUBLIC "-//W3C//DTD SVG 1.1//EN"
  "http://www.w3.org/Graphics/SVG/1.1/DTD/svg11.dtd">
<svg xmlns:xlink="http://www.w3.org/1999/xlink" width="453.6pt" height="236.335675pt" viewBox="0 0 453.6 236.335675" xmlns="http://www.w3.org/2000/svg" version="1.1">
 <metadata>
  <rdf:RDF xmlns:dc="http://purl.org/dc/elements/1.1/" xmlns:cc="http://creativecommons.org/ns#" xmlns:rdf="http://www.w3.org/1999/02/22-rdf-syntax-ns#">
   <cc:Work>
    <dc:type rdf:resource="http://purl.org/dc/dcmitype/StillImage"/>
    <dc:date>2024-11-22T13:15:13.536276</dc:date>
    <dc:format>image/svg+xml</dc:format>
    <dc:creator>
     <cc:Agent>
      <dc:title>Matplotlib v3.8.0, https://matplotlib.org/</dc:title>
     </cc:Agent>
    </dc:creator>
   </cc:Work>
  </rdf:RDF>
 </metadata>
 <defs>
  <style type="text/css">*{stroke-linejoin: round; stroke-linecap: butt}</style>
 </defs>
 <g id="figure_1">
  <g id="patch_1">
   <path d="M 0 236.335675 
L 453.6 236.335675 
L 453.6 0 
L 0 0 
z
" style="fill: #ffffff"/>
  </g>
  <g id="axes_1">
   <g id="patch_2">
    <path d="M 7.2 229.135675 
L 446.4 229.135675 
L 446.4 7.2 
L 7.2 7.2 
z
" style="fill: #ffffff"/>
   </g>
   <g id="PathCollection_1">
    <path d="M 376.129609 31.996186 
C 377.067243 31.996186 377.966601 31.62366 378.629609 30.960652 
C 379.292616 30.297644 379.665142 29.398287 379.665142 28.460652 
C 379.665142 27.523018 379.292616 26.62366 378.629609 25.960652 
C 377.966601 25.297644 377.067243 24.925118 376.129609 24.925118 
C 375.191974 24.925118 374.292616 25.297644 373.629609 25.960652 
C 372.966601 26.62366 372.594075 27.523018 372.594075 28.460652 
C 372.594075 29.398287 372.966601 30.297644 373.629609 30.960652 
C 374.292616 31.62366 375.191974 31.996186 376.129609 31.996186 
z
" clip-path="url(#p4c475e7c12)"/>
   </g>
   <g id="PathCollection_2">
    <path d="M 342.326828 21.322081 
C 343.264463 21.322081 344.16382 20.949555 344.826828 20.286547 
C 345.489836 19.623539 345.862362 18.724182 345.862362 17.786547 
C 345.862362 16.848913 345.489836 15.949555 344.826828 15.286547 
C 344.16382 14.623539 343.264463 14.251013 342.326828 14.251013 
C 341.389193 14.251013 340.489836 14.623539 339.826828 15.286547 
C 339.16382 15.949555 338.791294 16.848913 338.791294 17.786547 
C 338.791294 18.724182 339.16382 19.623539 339.826828 20.286547 
C 340.489836 20.949555 341.389193 21.322081 342.326828 21.322081 
z
" clip-path="url(#p4c475e7c12)"/>
   </g>
   <g id="matplotlib.axis_1"/>
   <g id="matplotlib.axis_2"/>
   <g id="line2d_1">
    <path d="M 437.953846 75.1172 
L 435.444675 71.81428 
L 431.959697 67.587566 
L 428.322379 63.553344 
L 424.376562 59.543677 
L 421.012089 56.383999 
L 416.127772 52.163227 
L 411.506542 48.517386 
L 406.48245 44.887011 
L 401.912886 41.851809 
L 397.149732 38.929892 
L 390.608835 35.277494 
L 384.791582 32.343281 
L 380.822773 30.495767 
L 375.441247 28.175163 
L 370.152131 26.087128 
L 362.804938 23.478964 
L 357.550271 21.807228 
L 350.007853 19.669048 
L 346.303493 18.725368 
L 338.280124 16.907281 
L 328.855446 15.142412 
L 319.567873 13.767696 
L 313.655233 13.069947 
L 306.946999 12.437482 
L 299.455162 11.923139 
L 289.942333 11.549472 
L 281.726669 11.467994 
L 272.20561 11.642216 
L 263.298433 12.057495 
L 254.011872 12.742258 
L 244.270937 13.729642 
L 233.868129 15.081738 
L 222.392223 16.923693 
L 214.308862 18.439353 
L 205.907128 20.204934 
L 194.920134 22.806524 
L 190.638237 23.910667 
L 178.229273 27.39944 
L 172.731019 29.084424 
L 165.741112 31.352281 
L 157.039181 34.376478 
L 145.817002 38.616543 
L 138.026272 41.794956 
L 126.805878 46.730306 
L 118.281474 50.780126 
L 107.595942 56.254316 
L 102.368072 59.106736 
L 93.051341 64.50181 
L 86.49987 68.557655 
L 81.422614 71.865752 
L 76.009789 75.566954 
L 69.843053 80.02754 
L 62.608906 85.639819 
L 56.631952 90.640622 
L 50.83923 95.866208 
L 47.353954 99.224463 
L 42.179102 104.57212 
L 37.827795 109.481571 
L 34.984966 112.94614 
L 30.851381 118.454906 
L 27.692152 123.167899 
L 25.171543 127.36849 
L 22.7554 131.925179 
L 20.683597 136.462981 
L 18.906381 141.13576 
L 17.929482 144.242645 
L 16.889797 148.377515 
L 16.225118 152.034042 
L 15.860443 155.071047 
L 15.646154 159.261396 
L 15.721409 162.552903 
L 16.066034 166.201646 
L 16.568603 169.226273 
L 17.269593 172.225523 
L 18.376487 175.787393 
L 19.736399 179.211815 
L 21.131859 182.120227 
L 22.603858 184.766373 
L 24.301935 187.446673 
L 26.579048 190.595861 
L 28.820041 193.331394 
L 31.433451 196.181916 
L 34.564051 199.228781 
L 37.243588 201.58635 
L 40.083977 203.8815 
L 44.063784 206.807876 
L 47.394356 209.04143 
L 51.269141 211.433908 
L 55.773005 213.979031 
L 61.59357 216.953943 
L 66.159469 219.07759 
L 73.103493 222.0089 
L 80.704891 224.867682 
L 80.704891 224.867682 
" clip-path="url(#p4c475e7c12)" style="fill: none; stroke: #000000; stroke-width: 2; stroke-linecap: square"/>
   </g>
   <g id="patch_3">
    <path d="M 181.154605 26.537995 
Q 180.12762 26.839153 181.246348 26.511092 
" clip-path="url(#p4c475e7c12)" style="fill: none; stroke: #000000; stroke-width: 2; stroke-linecap: round"/>
    <path d="M 192.249243 28.495105 
L 181.246348 26.511092 
L 189.435295 18.899184 
z
" clip-path="url(#p4c475e7c12)" style="stroke: #000000; stroke-width: 2; stroke-linecap: round"/>
   </g>
   <g id="text_1">
    <!-- $P_0$ -->
    <g transform="translate(374.994916 52.910016) scale(0.2 -0.2)">
     <defs>
      <path id="Cmmi10-50" d="M 313 0 
Q 250 0 250 84 
Q 253 100 262 139 
Q 272 178 289 201 
Q 306 225 331 225 
Q 722 225 878 269 
Q 959 297 997 441 
L 1875 3956 
Q 1888 4019 1888 4044 
Q 1888 4113 1813 4122 
Q 1691 4147 1350 4147 
Q 1288 4147 1288 4231 
Q 1291 4247 1300 4286 
Q 1309 4325 1326 4348 
Q 1344 4372 1369 4372 
L 3578 4372 
Q 3881 4372 4165 4264 
Q 4450 4156 4631 3934 
Q 4813 3713 4813 3397 
Q 4813 2991 4527 2672 
Q 4241 2353 3814 2175 
Q 3388 1997 2988 1997 
L 1947 1997 
L 1556 416 
Q 1544 353 1544 325 
Q 1544 300 1551 283 
Q 1559 266 1573 261 
Q 1588 256 1619 250 
Q 1741 225 2081 225 
Q 2144 225 2144 141 
Q 2122 50 2109 25 
Q 2097 0 2034 0 
L 313 0 
z
M 1978 2188 
L 2875 2188 
Q 3497 2188 3822 2522 
Q 3988 2688 4092 3000 
Q 4197 3313 4197 3566 
Q 4197 3881 3956 4014 
Q 3716 4147 3359 4147 
L 2747 4147 
Q 2572 4147 2515 4117 
Q 2459 4088 2413 3928 
L 1978 2188 
z
" transform="scale(0.015625)"/>
      <path id="Cmr10-30" d="M 1600 -141 
Q 816 -141 533 504 
Q 250 1150 250 2041 
Q 250 2597 351 3087 
Q 453 3578 754 3920 
Q 1056 4263 1600 4263 
Q 2022 4263 2290 4056 
Q 2559 3850 2700 3523 
Q 2841 3197 2892 2823 
Q 2944 2450 2944 2041 
Q 2944 1491 2842 1011 
Q 2741 531 2444 195 
Q 2147 -141 1600 -141 
z
M 1600 25 
Q 1956 25 2131 390 
Q 2306 756 2347 1200 
Q 2388 1644 2388 2144 
Q 2388 2625 2347 3031 
Q 2306 3438 2132 3767 
Q 1959 4097 1600 4097 
Q 1238 4097 1063 3765 
Q 888 3434 847 3029 
Q 806 2625 806 2144 
Q 806 1788 823 1472 
Q 841 1156 916 820 
Q 991 484 1158 254 
Q 1325 25 1600 25 
z
" transform="scale(0.015625)"/>
     </defs>
     <use xlink:href="#Cmmi10-50" transform="translate(0 0.6875)"/>
     <use xlink:href="#Cmr10-30" transform="translate(64.208984 -16.31875) scale(0.7)"/>
    </g>
   </g>
   <g id="text_2">
    <!-- $P_1$ -->
    <g transform="translate(322.261521 42.235911) scale(0.2 -0.2)">
     <defs>
      <path id="Cmr10-31" d="M 594 0 
L 594 225 
Q 1394 225 1394 428 
L 1394 3788 
Q 1063 3628 556 3628 
L 556 3853 
Q 1341 3853 1741 4263 
L 1831 4263 
Q 1853 4263 1873 4245 
Q 1894 4228 1894 4206 
L 1894 428 
Q 1894 225 2694 225 
L 2694 0 
L 594 0 
z
" transform="scale(0.015625)"/>
     </defs>
     <use xlink:href="#Cmmi10-50" transform="translate(0 0.6875)"/>
     <use xlink:href="#Cmr10-31" transform="translate(64.208984 -16.31875) scale(0.7)"/>
    </g>
   </g>
  </g>
 </g>
 <defs>
  <clipPath id="p4c475e7c12">
   <rect x="7.2" y="7.2" width="439.2" height="221.935675"/>
  </clipPath>
 </defs>
</svg>
