<?xml version="1.0" encoding="utf-8" standalone="no"?>
<!DOCTYPE svg PUBLIC "-//W3C//DTD SVG 1.1//EN"
  "http://www.w3.org/Graphics/SVG/1.1/DTD/svg11.dtd">
<svg xmlns:xlink="http://www.w3.org/1999/xlink" width="453.6pt" height="236.327397pt" viewBox="0 0 453.6 236.327397" xmlns="http://www.w3.org/2000/svg" version="1.1">
 <metadata>
  <rdf:RDF xmlns:dc="http://purl.org/dc/elements/1.1/" xmlns:cc="http://creativecommons.org/ns#" xmlns:rdf="http://www.w3.org/1999/02/22-rdf-syntax-ns#">
   <cc:Work>
    <dc:type rdf:resource="http://purl.org/dc/dcmitype/StillImage"/>
    <dc:date>2024-08-16T15:25:04.789615</dc:date>
    <dc:format>image/svg+xml</dc:format>
    <dc:creator>
     <cc:Agent>
      <dc:title>Matplotlib v3.8.0, https://matplotlib.org/</dc:title>
     </cc:Agent>
    </dc:creator>
   </cc:Work>
  </rdf:RDF>
 </metadata>
 <defs>
  <style type="text/css">*{stroke-linejoin: round; stroke-linecap: butt}</style>
 </defs>
 <g id="figure_1">
  <g id="patch_1">
   <path d="M 0 236.327397 
L 453.6 236.327397 
L 453.6 0 
L 0 0 
z
" style="fill: #ffffff"/>
  </g>
  <g id="axes_1">
   <g id="patch_2">
    <path d="M 7.2 229.127397 
L 446.4 229.127397 
L 446.4 7.2 
L 7.2 7.2 
z
" style="fill: #ffffff"/>
   </g>
   <g id="PathCollection_1">
    <path d="M 411.548108 51.280149 
C 412.274396 51.280149 412.971036 50.991592 413.484599 50.478028 
C 413.998163 49.964464 414.286721 49.267825 414.286721 48.541536 
C 414.286721 47.815248 413.998163 47.118608 413.484599 46.605045 
C 412.971036 46.091481 412.274396 45.802924 411.548108 45.802924 
C 410.821819 45.802924 410.12518 46.091481 409.611616 46.605045 
C 409.098053 47.118608 408.809495 47.815248 408.809495 48.541536 
C 408.809495 49.267825 409.098053 49.964464 409.611616 50.478028 
C 410.12518 50.991592 410.821819 51.280149 411.548108 51.280149 
z
" clip-path="url(#pd14a601910)"/>
   </g>
   <g id="matplotlib.axis_1"/>
   <g id="matplotlib.axis_2"/>
   <g id="line2d_1">
    <path d="M 437.953846 75.109892 
L 434.65204 70.811068 
L 430.816866 66.274334 
L 428.166672 63.380982 
L 423.484051 58.67637 
L 420.182259 55.630492 
L 416.332409 52.32483 
L 411.994063 48.880175 
L 406.849438 45.134111 
L 401.526519 41.598678 
L 395.457962 37.939733 
L 391.752259 35.880638 
L 386.950831 33.392722 
L 382.734921 31.363711 
L 375.299343 28.109519 
L 368.44046 25.442864 
L 363.211208 23.60759 
L 358.273918 22.021149 
L 350.239495 19.723197 
L 342.523123 17.824012 
L 336.533566 16.543723 
L 328.653653 15.101711 
L 322.192913 14.113965 
L 317.01732 13.443181 
L 309.474474 12.649295 
L 302.371268 12.092762 
L 295.233282 11.712503 
L 285.347387 11.469974 
L 278.891219 11.483224 
L 270.382012 11.700721 
L 259.470158 12.302138 
L 252.33529 12.885873 
L 245.056483 13.633092 
L 236.887557 14.651132 
L 225.307195 16.414476 
L 217.902521 17.73657 
L 208.979492 19.530077 
L 201.880608 21.113074 
L 194.170452 22.98948 
L 187.573891 24.725444 
L 175.552917 28.202224 
L 164.544516 31.748234 
L 156.526049 34.555356 
L 146.28261 38.426304 
L 137.051486 42.200232 
L 131.450035 44.628361 
L 119.401446 50.2262 
L 113.035431 53.403772 
L 104.666992 57.831392 
L 97.428944 61.908856 
L 88.955879 67.004123 
L 84.191123 70.037177 
L 76.144181 75.4668 
L 69.117052 80.565445 
L 62.854527 85.436072 
L 57.467714 89.913538 
L 51.966965 94.810551 
L 47.935689 98.646071 
L 43.797537 102.842878 
L 38.743991 108.406368 
L 34.782497 113.197217 
L 31.751323 117.19543 
L 28.554622 121.824123 
L 25.230774 127.260468 
L 22.676415 132.082596 
L 20.727415 136.356419 
L 19.039512 140.747935 
L 17.74279 144.90541 
L 16.768144 148.961273 
L 16.149153 152.572243 
L 15.84792 155.227947 
L 15.664312 158.400987 
L 15.70597 162.209937 
L 16.022951 165.843199 
L 16.376083 168.182581 
L 17.245999 172.120862 
L 18.416092 175.88462 
L 19.791172 179.322574 
L 21.366268 182.554281 
L 22.903531 185.253203 
L 25.406215 189.017102 
L 27.712208 192.006977 
L 29.632838 194.242394 
L 32.845062 197.589402 
L 36.228117 200.70697 
L 40.192791 203.956072 
L 45.477571 207.768362 
L 49.923104 210.616466 
L 53.919662 212.9506 
L 57.698998 214.990587 
L 63.952597 218.063277 
L 69.26971 220.423033 
L 73.932447 222.328427 
L 80.706824 224.859563 
L 80.706824 224.859563 
" clip-path="url(#pd14a601910)" style="fill: none; stroke: #000000; stroke-width: 2; stroke-linecap: square"/>
   </g>
   <g id="patch_3">
    <path d="M 181.155995 26.53095 
Q 180.129015 26.832105 181.247749 26.504043 
" clip-path="url(#pd14a601910)" style="fill: none; stroke: #000000; stroke-width: 2; stroke-linecap: round"/>
    <path d="M 192.250644 28.488056 
L 181.247749 26.504043 
L 189.436696 18.892135 
z
" clip-path="url(#pd14a601910)" style="stroke: #000000; stroke-width: 2; stroke-linecap: round"/>
   </g>
   <g id="patch_4">
    <path d="M 411.548108 48.541536 
Q 376.053398 39.07628 342.719255 30.187176 
" clip-path="url(#pd14a601910)" style="fill: none; stroke: #ff0000; stroke-width: 2; stroke-linecap: round"/>
    <path d="M 351.093292 37.594977 
L 342.719255 30.187176 
L 353.669918 27.932627 
z
" clip-path="url(#pd14a601910)" style="fill: #ff0000; stroke: #ff0000; stroke-width: 2; stroke-linecap: round"/>
   </g>
   <g id="text_1">
    <!-- $P$ -->
    <g transform="translate(414.513364 35.129774) scale(0.2 -0.2)">
     <defs>
      <path id="Cmmi10-50" d="M 313 0 
Q 250 0 250 84 
Q 253 100 262 139 
Q 272 178 289 201 
Q 306 225 331 225 
Q 722 225 878 269 
Q 959 297 997 441 
L 1875 3956 
Q 1888 4019 1888 4044 
Q 1888 4113 1813 4122 
Q 1691 4147 1350 4147 
Q 1288 4147 1288 4231 
Q 1291 4247 1300 4286 
Q 1309 4325 1326 4348 
Q 1344 4372 1369 4372 
L 3578 4372 
Q 3881 4372 4165 4264 
Q 4450 4156 4631 3934 
Q 4813 3713 4813 3397 
Q 4813 2991 4527 2672 
Q 4241 2353 3814 2175 
Q 3388 1997 2988 1997 
L 1947 1997 
L 1556 416 
Q 1544 353 1544 325 
Q 1544 300 1551 283 
Q 1559 266 1573 261 
Q 1588 256 1619 250 
Q 1741 225 2081 225 
Q 2144 225 2144 141 
Q 2122 50 2109 25 
Q 2097 0 2034 0 
L 313 0 
z
M 1978 2188 
L 2875 2188 
Q 3497 2188 3822 2522 
Q 3988 2688 4092 3000 
Q 4197 3313 4197 3566 
Q 4197 3881 3956 4014 
Q 3716 4147 3359 4147 
L 2747 4147 
Q 2572 4147 2515 4117 
Q 2459 4088 2413 3928 
L 1978 2188 
z
" transform="scale(0.015625)"/>
     </defs>
     <use xlink:href="#Cmmi10-50" transform="translate(0 0.6875)"/>
    </g>
   </g>
  </g>
 </g>
 <defs>
  <clipPath id="pd14a601910">
   <rect x="7.2" y="7.2" width="439.2" height="221.927397"/>
  </clipPath>
 </defs>
</svg>
