<?xml version="1.0" encoding="utf-8" standalone="no"?>
<!DOCTYPE svg PUBLIC "-//W3C//DTD SVG 1.1//EN"
  "http://www.w3.org/Graphics/SVG/1.1/DTD/svg11.dtd">
<svg xmlns:xlink="http://www.w3.org/1999/xlink" width="453.6pt" height="220.527994pt" viewBox="0 0 453.6 220.527994" xmlns="http://www.w3.org/2000/svg" version="1.1">
 <metadata>
  <rdf:RDF xmlns:dc="http://purl.org/dc/elements/1.1/" xmlns:cc="http://creativecommons.org/ns#" xmlns:rdf="http://www.w3.org/1999/02/22-rdf-syntax-ns#">
   <cc:Work>
    <dc:type rdf:resource="http://purl.org/dc/dcmitype/StillImage"/>
    <dc:date>2024-11-20T07:39:04.565395</dc:date>
    <dc:format>image/svg+xml</dc:format>
    <dc:creator>
     <cc:Agent>
      <dc:title>Matplotlib v3.6.2, https://matplotlib.org/</dc:title>
     </cc:Agent>
    </dc:creator>
   </cc:Work>
  </rdf:RDF>
 </metadata>
 <defs>
  <style type="text/css">*{stroke-linejoin: round; stroke-linecap: butt}</style>
 </defs>
 <g id="figure_1">
  <g id="patch_1">
   <path d="M 0 220.527994 
L 453.6 220.527994 
L 453.6 0 
L 0 0 
z
" style="fill: #ffffff"/>
  </g>
  <g id="axes_1">
   <g id="patch_2">
    <path d="M 7.2 213.327994 
L 446.4 213.327994 
L 446.4 7.2 
L 7.2 7.2 
z
" style="fill: #ffffff"/>
   </g>
   <g id="PathCollection_1">
    <path d="M 206.319455 65.49878 
C 207.045743 65.49878 207.742383 65.210222 208.255947 64.696659 
C 208.76951 64.183095 209.058068 63.486456 209.058068 62.760167 
C 209.058068 62.033879 208.76951 61.337239 208.255947 60.823676 
C 207.742383 60.310112 207.045743 60.021554 206.319455 60.021554 
C 205.593166 60.021554 204.896527 60.310112 204.382963 60.823676 
C 203.8694 61.337239 203.580842 62.033879 203.580842 62.760167 
C 203.580842 63.486456 203.8694 64.183095 204.382963 64.696659 
C 204.896527 65.210222 205.593166 65.49878 206.319455 65.49878 
z
" clip-path="url(#pf6fbf11caa)"/>
   </g>
   <g id="matplotlib.axis_1"/>
   <g id="matplotlib.axis_2"/>
   <g id="line2d_1">
    <path d="M 368.947914 209.363994 
L 382.589193 201.830388 
L 392.655106 196.021475 
L 401.040723 190.907195 
L 407.056355 187.0088 
L 413.120534 182.798961 
L 418.090336 179.050844 
L 422.173522 175.681384 
L 425.491621 172.66542 
L 428.181248 169.956125 
L 430.455949 167.393853 
L 432.423582 164.875158 
L 434.009977 162.522252 
L 435.510437 159.836259 
L 436.530725 157.512221 
L 437.302417 155.115875 
L 437.711223 153.180696 
L 437.939855 150.898583 
L 437.918792 149.049569 
L 437.630799 146.762626 
L 437.10051 144.647045 
L 436.279878 142.460445 
L 435.075013 140.09746 
L 433.600147 137.827282 
L 431.802931 135.550461 
L 429.953578 133.546631 
L 427.889117 131.577696 
L 425.449654 129.506365 
L 422.095889 126.977949 
L 418.811713 124.760871 
L 414.92892 122.382431 
L 410.146785 119.724489 
L 405.401834 117.312991 
L 399.68884 114.63946 
L 393.441269 111.94125 
L 385.511785 108.78124 
L 377.850811 105.950084 
L 368.713254 102.79891 
L 359.025239 99.673164 
L 348.690396 96.535604 
L 334.678705 92.541361 
L 320.060086 88.626942 
L 303.48781 84.433777 
L 283.769299 79.706477 
L 265.0116 75.411636 
L 240.822885 70.086661 
L 209.550266 63.437388 
L 119.681713 44.510288 
L 97.980212 39.631681 
L 80.921082 35.563395 
L 67.836134 32.22639 
L 56.863081 29.211901 
L 48.318189 26.665809 
L 40.204752 24.010738 
L 33.970715 21.735464 
L 28.823889 19.618312 
L 24.677442 17.663176 
L 21.588133 15.968209 
L 19.279993 14.47531 
L 17.544481 13.126259 
L 16.266899 11.897983 
L 15.646154 11.164 
L 15.646154 11.164 
" clip-path="url(#pf6fbf11caa)" style="fill: none; stroke: #000000; stroke-width: 2; stroke-linecap: square"/>
   </g>
   <g id="patch_3">
    <path d="M 206.319455 62.760167 
Q 155.254647 52.066276 106.378432 41.830716 
" clip-path="url(#pf6fbf11caa)" style="fill: none; stroke: #ff0000; stroke-width: 2; stroke-linecap: round"/>
    <path d="M 115.141252 48.774272 
L 106.378432 41.830716 
L 117.190969 38.986593 
L 115.141252 48.774272 
z
" clip-path="url(#pf6fbf11caa)" style="fill: #ff0000; stroke: #ff0000; stroke-width: 2; stroke-linecap: round"/>
   </g>
   <g id="patch_4">
    <path d="M 206.319455 62.760167 
Q 195.625564 113.824975 185.390004 162.701191 
" clip-path="url(#pf6fbf11caa)" style="fill: none; stroke: #800080; stroke-width: 2; stroke-linecap: round"/>
    <path d="M 192.33356 153.93837 
L 185.390004 162.701191 
L 182.54588 151.888653 
L 192.33356 153.93837 
z
" clip-path="url(#pf6fbf11caa)" style="fill: #800080; stroke: #800080; stroke-width: 2; stroke-linecap: round"/>
   </g>
   <g id="patch_5">
    <path d="M 206.319455 62.760167 
Q 269.346693 75.959207 330.18534 88.699916 
" clip-path="url(#pf6fbf11caa)" style="fill: none; stroke: #ffa500; stroke-width: 2; stroke-linecap: round"/>
    <path d="M 321.422519 81.75636 
L 330.18534 88.699916 
L 319.372803 91.544039 
L 321.422519 81.75636 
z
" clip-path="url(#pf6fbf11caa)" style="fill: #ffa500; stroke: #ffa500; stroke-width: 2; stroke-linecap: round"/>
   </g>
   <g id="patch_6">
    <path d="M 206.319455 62.760167 
Q 202.518678 80.9094 199.176232 96.870042 
" clip-path="url(#pf6fbf11caa)" style="fill: none; stroke: #0000ff; stroke-width: 2; stroke-linecap: round"/>
    <path d="M 206.119788 88.107221 
L 199.176232 96.870042 
L 196.332109 86.057505 
L 206.119788 88.107221 
z
" clip-path="url(#pf6fbf11caa)" style="fill: #0000ff; stroke: #0000ff; stroke-width: 2; stroke-linecap: round"/>
   </g>
   <g id="patch_7">
    <path d="M 206.319455 62.760167 
Q 265.545917 94.10844 322.796073 124.410664 
" clip-path="url(#pf6fbf11caa)" style="fill: none; stroke: #008000; stroke-width: 2; stroke-linecap: round"/>
    <path d="M 316.296803 115.31344 
L 322.796073 124.410664 
L 311.618732 124.151745 
L 316.296803 115.31344 
z
" clip-path="url(#pf6fbf11caa)" style="fill: #008000; stroke: #008000; stroke-width: 2; stroke-linecap: round"/>
   </g>
  </g>
 </g>
 <defs>
  <clipPath id="pf6fbf11caa">
   <rect x="7.2" y="7.2" width="439.2" height="206.127994"/>
  </clipPath>
 </defs>
</svg>
