<?xml version="1.0" encoding="utf-8" standalone="no"?>
<!DOCTYPE svg PUBLIC "-//W3C//DTD SVG 1.1//EN"
  "http://www.w3.org/Graphics/SVG/1.1/DTD/svg11.dtd">
<svg xmlns:xlink="http://www.w3.org/1999/xlink" width="453.6pt" height="236.331703pt" viewBox="0 0 453.6 236.331703" xmlns="http://www.w3.org/2000/svg" version="1.1">
 <metadata>
  <rdf:RDF xmlns:dc="http://purl.org/dc/elements/1.1/" xmlns:cc="http://creativecommons.org/ns#" xmlns:rdf="http://www.w3.org/1999/02/22-rdf-syntax-ns#">
   <cc:Work>
    <dc:type rdf:resource="http://purl.org/dc/dcmitype/StillImage"/>
    <dc:date>2024-08-29T09:22:46.942405</dc:date>
    <dc:format>image/svg+xml</dc:format>
    <dc:creator>
     <cc:Agent>
      <dc:title>Matplotlib v3.8.0, https://matplotlib.org/</dc:title>
     </cc:Agent>
    </dc:creator>
   </cc:Work>
  </rdf:RDF>
 </metadata>
 <defs>
  <style type="text/css">*{stroke-linejoin: round; stroke-linecap: butt}</style>
 </defs>
 <g id="figure_1">
  <g id="patch_1">
   <path d="M 0 236.331703 
L 453.6 236.331703 
L 453.6 0 
L 0 0 
z
" style="fill: #ffffff"/>
  </g>
  <g id="axes_1">
   <g id="patch_2">
    <path d="M 7.2 229.131703 
L 446.4 229.131703 
L 446.4 7.2 
L 7.2 7.2 
z
" style="fill: #ffffff"/>
   </g>
   <g id="PathCollection_1">
    <path d="M 20.707749 139.143141 
C 21.434038 139.143141 22.130677 138.854583 22.644241 138.34102 
C 23.157805 137.827456 23.446362 137.130817 23.446362 136.404528 
C 23.446362 135.678239 23.157805 134.9816 22.644241 134.468036 
C 22.130677 133.954473 21.434038 133.665915 20.707749 133.665915 
C 19.981461 133.665915 19.284821 133.954473 18.771258 134.468036 
C 18.257694 134.9816 17.969137 135.678239 17.969137 136.404528 
C 17.969137 137.130817 18.257694 137.827456 18.771258 138.34102 
C 19.284821 138.854583 19.981461 139.143141 20.707749 139.143141 
z
" clip-path="url(#p46a2a7ed55)"/>
   </g>
   <g id="matplotlib.axis_1"/>
   <g id="matplotlib.axis_2"/>
   <g id="line2d_1">
    <path d="M 437.953846 75.113717 
L 433.884041 69.87003 
L 430.612706 66.048697 
L 426.898835 62.06244 
L 422.821365 58.052055 
L 417.930716 53.67085 
L 412.954726 49.622941 
L 410.537183 47.787792 
L 404.601776 43.605293 
L 399.327768 40.233479 
L 393.146763 36.644542 
L 388.76649 34.314368 
L 381.524058 30.810123 
L 376.834844 28.753097 
L 372.963474 27.170645 
L 366.206718 24.642525 
L 360.401039 22.691498 
L 354.49843 20.902661 
L 348.782044 19.345845 
L 340.798622 17.442245 
L 336.166186 16.474204 
L 326.479411 14.753942 
L 318.878733 13.676071 
L 313.19345 13.017711 
L 305.841472 12.345695 
L 296.693769 11.779715 
L 287.097198 11.493119 
L 278.329154 11.494288 
L 270.587119 11.696493 
L 263.563262 12.038422 
L 252.691302 12.856849 
L 245.928567 13.539178 
L 237.080332 14.628534 
L 226.545343 16.211743 
L 216.849225 17.940457 
L 205.64041 20.260967 
L 196.577645 22.389562 
L 185.665765 25.25369 
L 175.906095 28.09773 
L 167.595534 30.73365 
L 157.176011 34.324077 
L 149.819317 37.056345 
L 140.72182 40.669799 
L 131.1651 44.758133 
L 121.955078 48.998758 
L 116.271916 51.771805 
L 108.588545 55.723146 
L 97.943145 61.614413 
L 88.65424 67.195619 
L 80.149781 72.716473 
L 72.302801 78.212456 
L 66.970698 82.200616 
L 60.113409 87.681394 
L 54.331447 92.664533 
L 49.407658 97.221779 
L 44.362045 102.255893 
L 40.183156 106.768746 
L 36.38973 111.203277 
L 33.153197 115.307742 
L 29.348212 120.630765 
L 26.54495 125.020544 
L 24.714406 128.18291 
L 22.819875 131.79349 
L 20.895541 135.961498 
L 19.200609 140.290277 
L 17.796744 144.71114 
L 17.07026 147.566317 
L 16.394748 150.965294 
L 15.810968 155.656857 
L 15.646154 159.388467 
L 15.723188 162.560107 
L 16.023491 165.860482 
L 16.520167 168.970508 
L 17.472617 172.950839 
L 18.350654 175.707189 
L 19.768374 179.277784 
L 20.882301 181.627242 
L 22.714862 184.946714 
L 24.451334 187.661824 
L 26.732255 190.787858 
L 28.928292 193.450988 
L 30.885113 195.604695 
L 34.202022 198.88898 
L 37.792934 202.040693 
L 42.085917 205.387264 
L 46.307393 208.327311 
L 49.447607 210.33012 
L 53.583632 212.76648 
L 58.60684 215.463567 
L 63.838192 218.014773 
L 67.746551 219.773181 
L 73.704945 222.243321 
L 80.705874 224.863786 
L 80.705874 224.863786 
" clip-path="url(#p46a2a7ed55)" style="fill: none; stroke: #000000; stroke-width: 2; stroke-linecap: square"/>
   </g>
   <g id="patch_3">
    <path d="M 181.155312 26.534645 
Q 180.12833 26.835802 181.247061 26.50774 
" clip-path="url(#p46a2a7ed55)" style="fill: none; stroke: #000000; stroke-width: 2; stroke-linecap: round"/>
    <path d="M 192.249955 28.491754 
L 181.247061 26.50774 
L 189.436008 18.895833 
z
" clip-path="url(#p46a2a7ed55)" style="stroke: #000000; stroke-width: 2; stroke-linecap: round"/>
   </g>
   <g id="text_1">
    <!-- $Q$ -->
    <g transform="translate(31.638311 151.388559) scale(0.2 -0.2)">
     <defs>
      <path id="Cmmi10-51" d="M 1947 -141 
Q 1466 -141 1094 79 
Q 722 300 520 692 
Q 319 1084 319 1563 
Q 319 2259 714 2950 
Q 1109 3641 1756 4077 
Q 2403 4513 3109 4513 
Q 3475 4513 3778 4381 
Q 4081 4250 4290 4017 
Q 4500 3784 4614 3471 
Q 4728 3159 4728 2791 
Q 4728 2366 4581 1936 
Q 4434 1506 4171 1136 
Q 3909 766 3559 484 
Q 3209 203 2809 38 
Q 2850 -256 2934 -425 
Q 3019 -594 3256 -594 
Q 3506 -594 3726 -412 
Q 3947 -231 4006 13 
Q 4019 72 4078 72 
Q 4147 72 4147 -13 
Q 4100 -219 4008 -430 
Q 3916 -641 3786 -823 
Q 3656 -1006 3478 -1123 
Q 3300 -1241 3084 -1241 
Q 2547 -1241 2547 -550 
Q 2547 -509 2562 -332 
Q 2578 -156 2578 -44 
Q 2269 -141 1947 -141 
z
M 1709 300 
Q 1709 44 1991 44 
Q 2275 44 2591 184 
L 2591 244 
Q 2591 503 2509 648 
Q 2428 794 2194 794 
Q 2078 794 1964 723 
Q 1850 653 1779 539 
Q 1709 425 1709 300 
z
M 1544 288 
Q 1544 456 1637 612 
Q 1731 769 1881 864 
Q 2031 959 2203 959 
Q 2481 959 2607 771 
Q 2734 584 2778 281 
Q 3188 525 3500 978 
Q 3813 1431 3977 1973 
Q 4141 2516 4141 3003 
Q 4141 3356 4023 3656 
Q 3906 3956 3664 4140 
Q 3422 4325 3066 4325 
Q 2722 4325 2403 4156 
Q 2084 3988 1813 3706 
Q 1550 3434 1342 3032 
Q 1134 2631 1021 2193 
Q 909 1756 909 1356 
Q 909 947 1068 612 
Q 1228 278 1569 128 
Q 1544 194 1544 288 
z
" transform="scale(0.015625)"/>
     </defs>
     <use xlink:href="#Cmmi10-51" transform="translate(0 0.484375)"/>
    </g>
   </g>
  </g>
 </g>
 <defs>
  <clipPath id="p46a2a7ed55">
   <rect x="7.2" y="7.2" width="439.2" height="221.931703"/>
  </clipPath>
 </defs>
</svg>
