<?xml version="1.0" encoding="utf-8" standalone="no"?>
<!DOCTYPE svg PUBLIC "-//W3C//DTD SVG 1.1//EN"
  "http://www.w3.org/Graphics/SVG/1.1/DTD/svg11.dtd">
<svg xmlns:xlink="http://www.w3.org/1999/xlink" width="453.6pt" height="236.335394pt" viewBox="0 0 453.6 236.335394" xmlns="http://www.w3.org/2000/svg" version="1.1">
 <metadata>
  <rdf:RDF xmlns:dc="http://purl.org/dc/elements/1.1/" xmlns:cc="http://creativecommons.org/ns#" xmlns:rdf="http://www.w3.org/1999/02/22-rdf-syntax-ns#">
   <cc:Work>
    <dc:type rdf:resource="http://purl.org/dc/dcmitype/StillImage"/>
    <dc:date>2024-08-19T12:06:28.387285</dc:date>
    <dc:format>image/svg+xml</dc:format>
    <dc:creator>
     <cc:Agent>
      <dc:title>Matplotlib v3.8.0, https://matplotlib.org/</dc:title>
     </cc:Agent>
    </dc:creator>
   </cc:Work>
  </rdf:RDF>
 </metadata>
 <defs>
  <style type="text/css">*{stroke-linejoin: round; stroke-linecap: butt}</style>
 </defs>
 <g id="figure_1">
  <g id="patch_1">
   <path d="M 0 236.335394 
L 453.6 236.335394 
L 453.6 0 
L 0 0 
z
" style="fill: #ffffff"/>
  </g>
  <g id="axes_1">
   <g id="patch_2">
    <path d="M 7.2 229.135394 
L 446.4 229.135394 
L 446.4 7.2 
L 7.2 7.2 
z
" style="fill: #ffffff"/>
   </g>
   <g id="PathCollection_1">
    <path d="M 20.708485 139.146916 
C 21.434773 139.146916 22.131413 138.858359 22.644977 138.344795 
C 23.15854 137.831232 23.447098 137.134592 23.447098 136.408303 
C 23.447098 135.682015 23.15854 134.985375 22.644977 134.471812 
C 22.131413 133.958248 21.434773 133.669691 20.708485 133.669691 
C 19.982196 133.669691 19.285557 133.958248 18.771993 134.471812 
C 18.25843 134.985375 17.969872 135.682015 17.969872 136.408303 
C 17.969872 137.134592 18.25843 137.831232 18.771993 138.344795 
C 19.285557 138.858359 19.982196 139.146916 20.708485 139.146916 
z
" clip-path="url(#p127fd372d8)"/>
   </g>
   <g id="matplotlib.axis_1"/>
   <g id="matplotlib.axis_2"/>
   <g id="line2d_1">
    <path d="M 437.953846 75.1176 
L 434.278969 70.357374 
L 430.62176 66.062735 
L 426.739672 61.902981 
L 423.007729 58.231708 
L 417.996624 53.730987 
L 412.675798 49.410932 
L 406.149095 44.657809 
L 401.246559 41.429221 
L 394.950516 37.657952 
L 388.681077 34.274486 
L 383.131187 31.556217 
L 377.356851 28.978244 
L 372.627485 27.041964 
L 367.416439 25.078133 
L 359.826164 22.512787 
L 353.816602 20.712043 
L 348.460997 19.267268 
L 342.707943 17.873827 
L 333.221736 15.912648 
L 326.620672 14.780143 
L 317.794925 13.54496 
L 309.33028 12.643846 
L 302.119514 12.083999 
L 291.852425 11.60073 
L 281.962147 11.467988 
L 275.320463 11.554803 
L 265.889207 11.912743 
L 256.198069 12.559034 
L 246.818143 13.445966 
L 237.652326 14.555477 
L 230.10368 15.646512 
L 219.137999 17.513101 
L 209.908192 19.340835 
L 202.709084 20.928804 
L 192.774625 23.354338 
L 185.230796 25.378828 
L 175.056385 28.362231 
L 167.053352 30.91669 
L 158.642359 33.803348 
L 147.264901 38.048472 
L 139.101055 41.345784 
L 130.244172 45.172744 
L 120.978325 49.47083 
L 110.764667 54.583801 
L 102.021302 59.301546 
L 95.951973 62.778592 
L 89.037744 66.960617 
L 81.078955 72.096706 
L 75.309366 76.06153 
L 69.13098 80.562439 
L 64.28466 84.301464 
L 59.544183 88.160633 
L 53.694799 93.240797 
L 48.53679 98.066767 
L 45.389777 101.201264 
L 41.044584 105.813926 
L 36.767663 110.749427 
L 33.610789 114.711302 
L 30.301914 119.241421 
L 27.410461 123.618346 
L 24.854135 127.936552 
L 22.783821 131.871585 
L 21.065702 135.571972 
L 19.37053 139.823109 
L 17.952729 144.16868 
L 16.896819 148.353771 
L 16.244992 151.913886 
L 15.807344 155.715378 
L 15.646154 159.507805 
L 15.721703 162.524115 
L 16.211396 167.19834 
L 16.791742 170.272746 
L 17.754248 173.901165 
L 18.524408 176.194068 
L 19.875417 179.519819 
L 21.364421 182.559312 
L 23.466299 186.166759 
L 25.496287 189.14968 
L 27.384373 191.612459 
L 29.26412 193.836794 
L 32.608081 197.364873 
L 36.901355 201.294688 
L 40.081375 203.877908 
L 43.906085 206.696131 
L 47.856474 209.336408 
L 52.589261 212.203144 
L 58.102245 215.207583 
L 63.171781 217.706247 
L 69.81719 220.662263 
L 74.886284 222.709013 
L 80.706504 224.867405 
L 80.706504 224.867405 
" clip-path="url(#p127fd372d8)" style="fill: none; stroke: #000000; stroke-width: 2; stroke-linecap: square"/>
   </g>
   <g id="patch_3">
    <path d="M 181.155765 26.538614 
Q 180.128784 26.83977 181.247517 26.511709 
" clip-path="url(#p127fd372d8)" style="fill: none; stroke: #000000; stroke-width: 2; stroke-linecap: round"/>
    <path d="M 192.250412 28.495722 
L 181.247517 26.511709 
L 189.436464 18.899801 
z
" clip-path="url(#p127fd372d8)" style="stroke: #000000; stroke-width: 2; stroke-linecap: round"/>
   </g>
   <g id="text_1">
    <!-- $Q$ -->
    <g transform="translate(31.639014 151.392318) scale(0.2 -0.2)">
     <defs>
      <path id="Cmmi10-51" d="M 1947 -141 
Q 1466 -141 1094 79 
Q 722 300 520 692 
Q 319 1084 319 1563 
Q 319 2259 714 2950 
Q 1109 3641 1756 4077 
Q 2403 4513 3109 4513 
Q 3475 4513 3778 4381 
Q 4081 4250 4290 4017 
Q 4500 3784 4614 3471 
Q 4728 3159 4728 2791 
Q 4728 2366 4581 1936 
Q 4434 1506 4171 1136 
Q 3909 766 3559 484 
Q 3209 203 2809 38 
Q 2850 -256 2934 -425 
Q 3019 -594 3256 -594 
Q 3506 -594 3726 -412 
Q 3947 -231 4006 13 
Q 4019 72 4078 72 
Q 4147 72 4147 -13 
Q 4100 -219 4008 -430 
Q 3916 -641 3786 -823 
Q 3656 -1006 3478 -1123 
Q 3300 -1241 3084 -1241 
Q 2547 -1241 2547 -550 
Q 2547 -509 2562 -332 
Q 2578 -156 2578 -44 
Q 2269 -141 1947 -141 
z
M 1709 300 
Q 1709 44 1991 44 
Q 2275 44 2591 184 
L 2591 244 
Q 2591 503 2509 648 
Q 2428 794 2194 794 
Q 2078 794 1964 723 
Q 1850 653 1779 539 
Q 1709 425 1709 300 
z
M 1544 288 
Q 1544 456 1637 612 
Q 1731 769 1881 864 
Q 2031 959 2203 959 
Q 2481 959 2607 771 
Q 2734 584 2778 281 
Q 3188 525 3500 978 
Q 3813 1431 3977 1973 
Q 4141 2516 4141 3003 
Q 4141 3356 4023 3656 
Q 3906 3956 3664 4140 
Q 3422 4325 3066 4325 
Q 2722 4325 2403 4156 
Q 2084 3988 1813 3706 
Q 1550 3434 1342 3032 
Q 1134 2631 1021 2193 
Q 909 1756 909 1356 
Q 909 947 1068 612 
Q 1228 278 1569 128 
Q 1544 194 1544 288 
z
" transform="scale(0.015625)"/>
     </defs>
     <use xlink:href="#Cmmi10-51" transform="translate(0 0.484375)"/>
    </g>
   </g>
  </g>
 </g>
 <defs>
  <clipPath id="p127fd372d8">
   <rect x="7.2" y="7.2" width="439.2" height="221.935394"/>
  </clipPath>
 </defs>
</svg>
