<?xml version="1.0" encoding="utf-8" standalone="no"?>
<!DOCTYPE svg PUBLIC "-//W3C//DTD SVG 1.1//EN"
  "http://www.w3.org/Graphics/SVG/1.1/DTD/svg11.dtd">
<svg xmlns:xlink="http://www.w3.org/1999/xlink" width="451.639693pt" height="338.4pt" viewBox="0 0 451.639693 338.4" xmlns="http://www.w3.org/2000/svg" version="1.1">
 <metadata>
  <rdf:RDF xmlns:dc="http://purl.org/dc/elements/1.1/" xmlns:cc="http://creativecommons.org/ns#" xmlns:rdf="http://www.w3.org/1999/02/22-rdf-syntax-ns#">
   <cc:Work>
    <dc:type rdf:resource="http://purl.org/dc/dcmitype/StillImage"/>
    <dc:date>2025-02-05T13:29:26.413434</dc:date>
    <dc:format>image/svg+xml</dc:format>
    <dc:creator>
     <cc:Agent>
      <dc:title>Matplotlib v3.8.0, https://matplotlib.org/</dc:title>
     </cc:Agent>
    </dc:creator>
   </cc:Work>
  </rdf:RDF>
 </metadata>
 <defs>
  <style type="text/css">*{stroke-linejoin: round; stroke-linecap: butt}</style>
 </defs>
 <g id="figure_1">
  <g id="patch_1">
   <path d="M 0 338.4 
L 451.639693 338.4 
L 451.639693 0 
L 0 0 
z
" style="fill: #ffffff"/>
  </g>
  <g id="axes_1">
   <g id="patch_2">
    <path d="M 64.18134 331.2 
L 439.551652 331.2 
L 439.551652 7.2 
L 64.18134 7.2 
z
" style="fill: #ffffff"/>
   </g>
   <g id="matplotlib.axis_1"/>
   <g id="matplotlib.axis_2"/>
   <g id="line2d_1">
    <path d="M 71.4 305.498077 
L 76.216759 290.876536 
L 82.179712 273.535395 
L 87.411437 259.004723 
L 92.643853 245.103582 
L 96.54129 235.154985 
L 102.582432 220.411138 
L 106.768993 210.670839 
L 112.557622 197.838721 
L 118.83907 184.737665 
L 123.946964 174.707338 
L 127.275674 168.467902 
L 132.992998 158.291912 
L 136.847096 151.813669 
L 142.262869 143.222968 
L 147.431372 135.575995 
L 152.204957 128.985328 
L 155.993918 124.072816 
L 160.518041 118.572283 
L 165.284256 113.202191 
L 169.555395 108.755571 
L 173.908621 104.574714 
L 178.071947 100.903937 
L 182.78858 97.127507 
L 185.74353 94.966081 
L 190.822915 91.614245 
L 195.482459 88.938605 
L 197.66985 87.812701 
L 202.897883 85.45448 
L 207.337925 83.815679 
L 210.74137 82.782746 
L 215.351827 81.688441 
L 217.601842 81.280397 
L 222.087284 80.71054 
L 226.893372 80.45544 
L 230.662117 80.508932 
L 234.590126 80.798532 
L 238.076854 81.253015 
L 242.513607 82.096093 
L 245.634909 82.864577 
L 249.210536 83.920572 
L 253.682996 85.501915 
L 258.0063 87.301555 
L 263.321867 89.873037 
L 267.147949 91.964734 
L 270.749811 94.115012 
L 274.757388 96.710912 
L 279.467492 100.031292 
L 284.991444 104.289213 
L 289.624387 108.156989 
L 295.408417 113.357103 
L 300.271255 118.04114 
L 304.878077 122.735688 
L 310.669794 128.984524 
L 316.976765 136.217458 
L 322.860762 143.35643 
L 329.437082 151.768591 
L 335.34398 159.702313 
L 341.206818 167.919274 
L 348.073357 177.962306 
L 356.010747 190.113862 
L 362.652198 200.709943 
L 370.593034 213.868556 
L 378.456996 227.400463 
L 387.1406 242.890536 
L 395.726933 258.739439 
L 403.622277 273.75113 
L 412.259567 290.622718 
L 420.959374 308.057282 
L 431.250398 329.204203 
L 432.332992 331.459615 
L 432.332992 331.459615 
" clip-path="url(#pd8683457ac)" style="fill: none; stroke: #000000; stroke-width: 3; stroke-linecap: square"/>
   </g>
   <g id="line2d_2">
    <path d="M 71.4 91.315385 
L 432.332992 195.161538 
L 432.332992 195.161538 
" clip-path="url(#pd8683457ac)" style="fill: none; stroke: #0000ff; stroke-width: 2; stroke-linecap: square"/>
   </g>
   <g id="line2d_3">
    <path d="M 342.099744 169.2 
L 161.633248 169.2 
" clip-path="url(#pd8683457ac)" style="fill: none; stroke: #008000; stroke-width: 2; stroke-linecap: square"/>
   </g>
   <g id="line2d_4">
    <path d="M 161.633248 169.2 
L 161.633248 117.276923 
" clip-path="url(#pd8683457ac)" style="fill: none; stroke: #ffa500; stroke-width: 2; stroke-linecap: square"/>
   </g>
   <g id="text_1">
    <!-- $P:(a,f(a))$ -->
    <g transform="translate(348.039693 163.815385) scale(0.2 -0.2)">
     <defs>
      <path id="Cmmi10-50" d="M 313 0 
Q 250 0 250 84 
Q 253 100 262 139 
Q 272 178 289 201 
Q 306 225 331 225 
Q 722 225 878 269 
Q 959 297 997 441 
L 1875 3956 
Q 1888 4019 1888 4044 
Q 1888 4113 1813 4122 
Q 1691 4147 1350 4147 
Q 1288 4147 1288 4231 
Q 1291 4247 1300 4286 
Q 1309 4325 1326 4348 
Q 1344 4372 1369 4372 
L 3578 4372 
Q 3881 4372 4165 4264 
Q 4450 4156 4631 3934 
Q 4813 3713 4813 3397 
Q 4813 2991 4527 2672 
Q 4241 2353 3814 2175 
Q 3388 1997 2988 1997 
L 1947 1997 
L 1556 416 
Q 1544 353 1544 325 
Q 1544 300 1551 283 
Q 1559 266 1573 261 
Q 1588 256 1619 250 
Q 1741 225 2081 225 
Q 2144 225 2144 141 
Q 2122 50 2109 25 
Q 2097 0 2034 0 
L 313 0 
z
M 1978 2188 
L 2875 2188 
Q 3497 2188 3822 2522 
Q 3988 2688 4092 3000 
Q 4197 3313 4197 3566 
Q 4197 3881 3956 4014 
Q 3716 4147 3359 4147 
L 2747 4147 
Q 2572 4147 2515 4117 
Q 2459 4088 2413 3928 
L 1978 2188 
z
" transform="scale(0.015625)"/>
      <path id="Cmr10-3a" d="M 538 353 
Q 538 497 644 600 
Q 750 703 891 703 
Q 978 703 1062 656 
Q 1147 609 1194 525 
Q 1241 441 1241 353 
Q 1241 213 1137 106 
Q 1034 0 891 0 
Q 750 0 644 106 
Q 538 213 538 353 
z
M 538 2406 
Q 538 2497 584 2578 
Q 631 2659 714 2709 
Q 797 2759 891 2759 
Q 981 2759 1064 2709 
Q 1147 2659 1194 2578 
Q 1241 2497 1241 2406 
Q 1241 2263 1139 2158 
Q 1038 2053 891 2053 
Q 747 2053 642 2158 
Q 538 2263 538 2406 
z
" transform="scale(0.015625)"/>
      <path id="Cmr10-28" d="M 1984 -1588 
Q 1628 -1306 1370 -942 
Q 1113 -578 948 -165 
Q 784 247 703 697 
Q 622 1147 622 1600 
Q 622 2059 703 2509 
Q 784 2959 951 3375 
Q 1119 3791 1378 4153 
Q 1638 4516 1984 4788 
Q 1984 4800 2016 4800 
L 2075 4800 
Q 2094 4800 2109 4783 
Q 2125 4766 2125 4744 
Q 2125 4716 2113 4703 
Q 1800 4397 1592 4047 
Q 1384 3697 1257 3301 
Q 1131 2906 1075 2482 
Q 1019 2059 1019 1600 
Q 1019 -434 2106 -1491 
Q 2125 -1509 2125 -1544 
Q 2125 -1559 2108 -1579 
Q 2091 -1600 2075 -1600 
L 2016 -1600 
Q 1984 -1600 1984 -1588 
z
" transform="scale(0.015625)"/>
      <path id="Cmmi10-61" d="M 1113 -72 
Q 709 -72 476 233 
Q 244 538 244 953 
Q 244 1363 456 1803 
Q 669 2244 1030 2536 
Q 1391 2828 1806 2828 
Q 1997 2828 2147 2725 
Q 2297 2622 2381 2444 
Q 2453 2700 2663 2700 
Q 2744 2700 2798 2651 
Q 2853 2603 2853 2522 
Q 2853 2503 2851 2493 
Q 2850 2484 2847 2472 
L 2400 684 
Q 2356 494 2356 372 
Q 2356 97 2541 97 
Q 2741 97 2845 351 
Q 2950 606 3022 941 
Q 3034 978 3072 978 
L 3150 978 
Q 3175 978 3190 956 
Q 3206 934 3206 916 
Q 3094 469 2961 198 
Q 2828 -72 2528 -72 
Q 2313 -72 2147 54 
Q 1981 181 1941 391 
Q 1528 -72 1113 -72 
z
M 1119 97 
Q 1350 97 1567 270 
Q 1784 444 1941 678 
Q 1947 684 1947 697 
L 2291 2088 
L 2297 2106 
Q 2259 2334 2132 2498 
Q 2006 2663 1791 2663 
Q 1575 2663 1389 2486 
Q 1203 2309 1075 2069 
Q 950 1813 836 1366 
Q 722 919 722 672 
Q 722 450 817 273 
Q 913 97 1119 97 
z
" transform="scale(0.015625)"/>
      <path id="Cmmi10-3b" d="M 634 -1153 
Q 634 -1125 659 -1100 
Q 891 -878 1019 -587 
Q 1147 -297 1147 25 
L 1147 103 
Q 1044 0 891 0 
Q 744 0 641 103 
Q 538 206 538 353 
Q 538 503 641 603 
Q 744 703 891 703 
Q 1119 703 1216 492 
Q 1313 281 1313 25 
Q 1313 -331 1170 -651 
Q 1028 -972 769 -1228 
Q 744 -1241 728 -1241 
Q 697 -1241 665 -1212 
Q 634 -1184 634 -1153 
z
" transform="scale(0.015625)"/>
      <path id="Cmmi10-66" d="M 622 -1056 
Q 741 -1147 909 -1147 
Q 1138 -1147 1281 -641 
Q 1341 -397 1606 966 
L 1900 2534 
L 1350 2534 
Q 1288 2534 1288 2619 
Q 1313 2759 1369 2759 
L 1941 2759 
L 2016 3175 
Q 2053 3369 2084 3508 
Q 2116 3647 2152 3765 
Q 2188 3884 2259 4031 
Q 2369 4241 2555 4377 
Q 2741 4513 2956 4513 
Q 3097 4513 3230 4461 
Q 3363 4409 3447 4306 
Q 3531 4203 3531 4063 
Q 3531 3900 3423 3779 
Q 3316 3659 3163 3659 
Q 3059 3659 2986 3723 
Q 2913 3788 2913 3891 
Q 2913 4031 3008 4136 
Q 3103 4241 3244 4256 
Q 3125 4347 2950 4347 
Q 2853 4347 2767 4256 
Q 2681 4166 2656 4063 
Q 2616 3900 2478 3181 
L 2400 2759 
L 3059 2759 
Q 3122 2759 3122 2675 
Q 3119 2659 3109 2620 
Q 3100 2581 3083 2557 
Q 3066 2534 3041 2534 
L 2356 2534 
L 2059 972 
Q 2003 631 1929 279 
Q 1856 -72 1723 -442 
Q 1591 -813 1384 -1063 
Q 1178 -1313 897 -1313 
Q 681 -1313 511 -1189 
Q 341 -1066 341 -863 
Q 341 -700 445 -579 
Q 550 -459 709 -459 
Q 816 -459 887 -523 
Q 959 -588 959 -691 
Q 959 -828 857 -942 
Q 756 -1056 622 -1056 
z
" transform="scale(0.015625)"/>
      <path id="Cmr10-29" d="M 416 -1600 
Q 359 -1600 359 -1544 
Q 359 -1516 372 -1503 
Q 1466 -434 1466 1600 
Q 1466 3634 384 4691 
Q 359 4706 359 4744 
Q 359 4766 376 4783 
Q 394 4800 416 4800 
L 475 4800 
Q 494 4800 506 4788 
Q 966 4425 1272 3906 
Q 1578 3388 1720 2800 
Q 1863 2213 1863 1600 
Q 1863 1147 1786 708 
Q 1709 269 1542 -157 
Q 1375 -584 1119 -945 
Q 863 -1306 506 -1588 
Q 494 -1600 475 -1600 
L 416 -1600 
z
" transform="scale(0.015625)"/>
     </defs>
     <use xlink:href="#Cmmi10-50"/>
     <use xlink:href="#Cmr10-3a" transform="translate(81.767578 0)"/>
     <use xlink:href="#Cmr10-28" transform="translate(127.011719 0)"/>
     <use xlink:href="#Cmmi10-61" transform="translate(165.830078 0)"/>
     <use xlink:href="#Cmmi10-3b" transform="translate(218.613281 0)"/>
     <use xlink:href="#Cmmi10-66" transform="translate(263.857422 0)"/>
     <use xlink:href="#Cmr10-28" transform="translate(312.734375 0)"/>
     <use xlink:href="#Cmmi10-61" transform="translate(351.552734 0)"/>
     <use xlink:href="#Cmr10-29" transform="translate(404.335938 0)"/>
     <use xlink:href="#Cmr10-29" transform="translate(443.154297 0)"/>
    </g>
   </g>
   <g id="text_2">
    <!-- $h$ -->
    <g style="fill: #008000" transform="translate(246.066496 195.487981) scale(0.2 -0.2)">
     <defs>
      <path id="Cmmi10-68" d="M 341 116 
Q 341 153 347 172 
L 1275 3872 
Q 1300 3981 1306 4044 
Q 1306 4147 891 4147 
Q 825 4147 825 4231 
Q 828 4247 839 4287 
Q 850 4328 867 4350 
Q 884 4372 916 4372 
L 1778 4441 
L 1797 4441 
Q 1797 4434 1819 4423 
Q 1841 4413 1844 4409 
Q 1856 4378 1856 4359 
L 1356 2363 
Q 1750 2828 2291 2828 
Q 2516 2828 2680 2750 
Q 2844 2672 2936 2514 
Q 3028 2356 3028 2138 
Q 3028 1875 2911 1503 
Q 2794 1131 2619 672 
Q 2528 463 2528 288 
Q 2528 97 2675 97 
Q 2925 97 3092 364 
Q 3259 631 3328 941 
Q 3341 978 3378 978 
L 3456 978 
Q 3481 978 3497 961 
Q 3513 944 3513 922 
Q 3513 916 3506 903 
Q 3450 672 3339 448 
Q 3228 225 3059 76 
Q 2891 -72 2663 -72 
Q 2438 -72 2278 83 
Q 2119 238 2119 459 
Q 2119 578 2169 709 
Q 2350 1191 2470 1569 
Q 2591 1947 2591 2234 
Q 2591 2419 2519 2541 
Q 2447 2663 2278 2663 
Q 1934 2663 1678 2452 
Q 1422 2241 1234 1894 
L 800 147 
Q 775 50 703 -11 
Q 631 -72 538 -72 
Q 456 -72 398 -17 
Q 341 38 341 116 
z
" transform="scale(0.015625)"/>
     </defs>
     <use xlink:href="#Cmmi10-68" transform="translate(0 0.609375)"/>
    </g>
   </g>
   <g id="text_3">
    <!-- $f(a)-f(a-h)$ -->
    <g style="fill: #ffa500" transform="translate(7.2 143.046154) scale(0.2 -0.2)">
     <defs>
      <path id="Cmsy10-a1" d="M 653 1472 
Q 600 1472 565 1512 
Q 531 1553 531 1600 
Q 531 1647 565 1687 
Q 600 1728 653 1728 
L 4325 1728 
Q 4375 1728 4408 1687 
Q 4441 1647 4441 1600 
Q 4441 1553 4408 1512 
Q 4375 1472 4325 1472 
L 653 1472 
z
" transform="scale(0.015625)"/>
     </defs>
     <use xlink:href="#Cmmi10-66"/>
     <use xlink:href="#Cmr10-28" transform="translate(48.876953 0)"/>
     <use xlink:href="#Cmmi10-61" transform="translate(87.695312 0)"/>
     <use xlink:href="#Cmr10-29" transform="translate(140.478516 0)"/>
     <use xlink:href="#Cmsy10-a1" transform="translate(196.855469 0)"/>
     <use xlink:href="#Cmmi10-66" transform="translate(292.099609 0)"/>
     <use xlink:href="#Cmr10-28" transform="translate(340.976562 0)"/>
     <use xlink:href="#Cmmi10-61" transform="translate(379.794922 0)"/>
     <use xlink:href="#Cmsy10-a1" transform="translate(450.136719 0)"/>
     <use xlink:href="#Cmmi10-68" transform="translate(545.380859 0)"/>
     <use xlink:href="#Cmr10-29" transform="translate(602.998047 0)"/>
    </g>
   </g>
   <g id="PathCollection_1">
    <path d="M 342.099744 172.735534 
C 343.037378 172.735534 343.936736 172.363008 344.599744 171.7 
C 345.262752 171.036992 345.635278 170.137635 345.635278 169.2 
C 345.635278 168.262365 345.262752 167.363008 344.599744 166.7 
C 343.936736 166.036992 343.037378 165.664466 342.099744 165.664466 
C 341.162109 165.664466 340.262752 166.036992 339.599744 166.7 
C 338.936736 167.363008 338.56421 168.262365 338.56421 169.2 
C 338.56421 170.137635 338.936736 171.036992 339.599744 171.7 
C 340.262752 172.363008 341.162109 172.735534 342.099744 172.735534 
z
" clip-path="url(#pd8683457ac)"/>
   </g>
   <g id="PathCollection_2">
    <path d="M 161.633248 120.812457 
C 162.570883 120.812457 163.47024 120.439931 164.133248 119.776923 
C 164.796256 119.113915 165.168782 118.214558 165.168782 117.276923 
C 165.168782 116.339289 164.796256 115.439931 164.133248 114.776923 
C 163.47024 114.113915 162.570883 113.741389 161.633248 113.741389 
C 160.695613 113.741389 159.796256 114.113915 159.133248 114.776923 
C 158.47024 115.439931 158.097714 116.339289 158.097714 117.276923 
C 158.097714 118.214558 158.47024 119.113915 159.133248 119.776923 
C 159.796256 120.439931 160.695613 120.812457 161.633248 120.812457 
z
" clip-path="url(#pd8683457ac)" style="fill: #0000ff"/>
   </g>
  </g>
 </g>
 <defs>
  <clipPath id="pd8683457ac">
   <rect x="64.18134" y="7.2" width="375.370311" height="324"/>
  </clipPath>
 </defs>
</svg>
