<?xml version="1.0" encoding="utf-8" standalone="no"?>
<!DOCTYPE svg PUBLIC "-//W3C//DTD SVG 1.1//EN"
  "http://www.w3.org/Graphics/SVG/1.1/DTD/svg11.dtd">
<svg xmlns:xlink="http://www.w3.org/1999/xlink" width="338.4pt" height="338.4pt" viewBox="0 0 338.4 338.4" xmlns="http://www.w3.org/2000/svg" version="1.1">
 <metadata>
  <rdf:RDF xmlns:dc="http://purl.org/dc/elements/1.1/" xmlns:cc="http://creativecommons.org/ns#" xmlns:rdf="http://www.w3.org/1999/02/22-rdf-syntax-ns#">
   <cc:Work>
    <dc:type rdf:resource="http://purl.org/dc/dcmitype/StillImage"/>
    <dc:date>2025-01-29T09:06:30.889807</dc:date>
    <dc:format>image/svg+xml</dc:format>
    <dc:creator>
     <cc:Agent>
      <dc:title>Matplotlib v3.6.2, https://matplotlib.org/</dc:title>
     </cc:Agent>
    </dc:creator>
   </cc:Work>
  </rdf:RDF>
 </metadata>
 <defs>
  <style type="text/css">*{stroke-linejoin: round; stroke-linecap: butt}</style>
 </defs>
 <g id="figure_1">
  <g id="patch_1">
   <path d="M -0 338.4 
L 338.4 338.4 
L 338.4 0 
L -0 0 
z
" style="fill: #ffffff"/>
  </g>
  <g id="axes_1">
   <g id="patch_2">
    <path d="M 7.2 331.2 
L 331.2 331.2 
L 331.2 7.2 
L 7.2 7.2 
z
" style="fill: #ffffff"/>
   </g>
   <g id="matplotlib.axis_1"/>
   <g id="matplotlib.axis_2"/>
   <g id="patch_3">
    <path d="M 117.276923 117.276923 
Q 221.123077 65.353846 320.969231 15.430769 
" clip-path="url(#p2de161682b)" style="fill: none; stroke: #000000; stroke-width: 4; stroke-linecap: round"/>
    <path d="M 309.788891 15.430769 
L 320.969231 15.430769 
L 314.261027 24.375041 
L 309.788891 15.430769 
z
" clip-path="url(#p2de161682b)" style="stroke: #000000; stroke-width: 4; stroke-linecap: round"/>
   </g>
   <g id="patch_4">
    <path d="M 117.276923 117.276923 
Q 65.353846 221.123077 15.430769 320.969231 
" clip-path="url(#p2de161682b)" style="fill: none; stroke: #000000; stroke-width: 4; stroke-linecap: round"/>
    <path d="M 24.375041 314.261027 
L 15.430769 320.969231 
L 15.430769 309.788891 
L 24.375041 314.261027 
z
" clip-path="url(#p2de161682b)" style="stroke: #000000; stroke-width: 4; stroke-linecap: round"/>
   </g>
   <g id="line2d_1">
    <path d="M 186.939041 82.445864 
L 184.944693 78.714167 
L 182.956299 75.417242 
L 181.033151 72.542633 
L 177.967373 68.464194 
L 176.112338 66.24353 
L 172.698195 62.554935 
L 168.724434 58.80328 
L 165.84403 56.389737 
L 162.527084 53.885786 
L 159.117122 51.585135 
L 155.734045 49.549062 
L 151.610672 47.368361 
L 147.362321 45.437643 
L 143.059495 43.783574 
L 139.942495 42.763265 
L 135.349168 41.518047 
L 130.810296 40.577111 
L 127.669867 40.088841 
L 122.775673 39.586659 
L 118.797794 39.407158 
L 114.458503 39.44332 
L 110.122034 39.721647 
L 106.449234 40.148624 
L 101.625369 40.981168 
L 96.788004 42.135606 
L 93.148429 43.224043 
L 90.538799 44.125805 
L 86.232274 45.846936 
L 81.691003 47.997376 
L 79.883013 48.956291 
L 75.601727 51.480332 
L 72.338789 53.664209 
L 68.5356 56.52911 
L 64.736661 59.783148 
L 61.566314 62.849528 
L 58.302736 66.403958 
L 55.790093 69.471244 
L 53.005826 73.285567 
L 50.260335 77.593297 
L 47.983807 81.717432 
L 46.208207 85.41392 
L 44.780065 88.81258 
L 43.468682 92.410141 
L 42.247754 96.381059 
L 41.099186 101.060704 
L 40.405487 104.755119 
L 39.806304 109.257167 
L 39.51014 112.994304 
L 39.392311 117.253409 
L 39.440608 120.019426 
L 39.719178 124.404999 
L 40.334127 129.352498 
L 41.108815 133.53831 
L 42.171024 137.895294 
L 43.347576 141.781311 
L 44.830501 145.86939 
L 46.865314 150.56684 
L 48.932136 154.626666 
L 50.942974 158.091387 
L 53.176805 161.517042 
L 54.88384 163.893621 
L 58.420347 168.28591 
L 61.386798 171.519962 
L 64.522712 174.574449 
L 67.144171 176.881625 
L 70.63411 179.650486 
L 74.616948 182.439334 
L 78.110537 184.59711 
L 82.445864 186.939041 
L 82.445864 186.939041 
" clip-path="url(#p2de161682b)" style="fill: none; stroke: #000000; stroke-linecap: square"/>
   </g>
   <g id="patch_5">
    <path d="M 79.007739 185.111154 
Q 80.726802 186.025097 80.471487 185.889359 
" clip-path="url(#p2de161682b)" style="fill: none; stroke: #000000; stroke-width: 2; stroke-linecap: round"/>
    <path d="M 73.988962 176.780194 
L 80.471487 185.889359 
L 69.29464 185.609879 
L 73.988962 176.780194 
z
" clip-path="url(#p2de161682b)" style="stroke: #000000; stroke-width: 2; stroke-linecap: round"/>
   </g>
   <g id="line2d_2">
    <path d="M 94.056217 163.718335 
L 97.562448 165.311758 
L 101.067866 166.605134 
L 104.653871 167.642233 
L 108.181478 168.397162 
L 111.662397 168.895554 
L 114.558555 169.128793 
L 117.931992 169.195868 
L 121.110226 169.058307 
L 124.588431 168.68264 
L 128.042804 168.071625 
L 131.381689 167.247529 
L 134.869396 166.128851 
L 138.114297 164.835411 
L 141.029094 163.448779 
L 143.952376 161.823821 
L 146.869278 159.941879 
L 149.749318 157.792963 
L 152.548019 155.38146 
L 154.553743 153.421696 
L 157.112629 150.580413 
L 159.391403 147.647575 
L 161.327721 144.763886 
L 163.232646 141.444617 
L 164.50642 138.849603 
L 165.843365 135.642834 
L 167.012945 132.187792 
L 167.878086 128.918581 
L 168.578099 125.289117 
L 169.00615 121.759444 
L 169.190911 118.248416 
L 169.132247 114.625257 
L 168.84739 111.235994 
L 168.332998 107.827951 
L 167.510107 104.137931 
L 166.725578 101.439107 
L 165.414578 97.814854 
L 163.975381 94.577585 
L 163.718335 94.056217 
L 163.718335 94.056217 
" clip-path="url(#p2de161682b)" style="fill: none; stroke: #000000; stroke-linecap: square"/>
   </g>
   <g id="patch_6">
    <path d="M 163.01479 94.976887 
Q 162.902148 94.748759 163.779494 96.525606 
" clip-path="url(#p2de161682b)" style="fill: none; stroke: #000000; stroke-width: 2; stroke-linecap: round"/>
    <path d="M 163.723593 107.705806 
L 163.779494 96.525606 
L 172.690113 103.278448 
L 163.723593 107.705806 
z
" clip-path="url(#p2de161682b)" style="stroke: #000000; stroke-width: 2; stroke-linecap: round"/>
   </g>
   <g id="text_1">
    <!-- $\vec{v}$ -->
    <g transform="translate(69.613462 269.559976) scale(0.25 -0.25)">
     <defs>
      <path id="Cmmi10-7e" d="M 1281 3809 
Q 1231 3809 1198 3846 
Q 1166 3884 1166 3938 
Q 1166 3984 1198 4023 
Q 1231 4063 1281 4063 
L 3547 4063 
Q 3378 4291 3378 4441 
Q 3378 4497 3417 4533 
Q 3456 4569 3506 4569 
Q 3613 4569 3634 4469 
Q 3697 4194 3938 4044 
Q 4000 4003 4000 3938 
Q 4000 3859 3938 3828 
Q 3575 3647 3353 3347 
Q 3328 3303 3256 3303 
Q 3209 3303 3168 3340 
Q 3128 3378 3128 3431 
Q 3128 3547 3438 3809 
L 1281 3809 
z
" transform="scale(0.015625)"/>
      <path id="Cmmi10-76" d="M 684 722 
Q 684 866 718 1037 
Q 753 1209 787 1320 
Q 822 1431 944 1753 
Q 1066 2075 1069 2088 
Q 1153 2322 1153 2472 
Q 1153 2663 1013 2663 
Q 759 2663 595 2402 
Q 431 2141 353 1819 
Q 341 1778 300 1778 
L 225 1778 
Q 172 1778 172 1838 
L 172 1856 
Q 275 2238 487 2533 
Q 700 2828 1025 2828 
Q 1253 2828 1411 2678 
Q 1569 2528 1569 2297 
Q 1569 2178 1516 2047 
Q 1391 1722 1319 1526 
Q 1247 1331 1186 1089 
Q 1125 847 1125 641 
Q 1125 400 1236 248 
Q 1347 97 1581 97 
Q 2025 97 2381 781 
Q 2494 1003 2594 1303 
Q 2694 1603 2694 1791 
Q 2694 1984 2631 2092 
Q 2569 2200 2469 2317 
Q 2369 2434 2369 2503 
Q 2369 2628 2472 2731 
Q 2575 2834 2700 2834 
Q 2853 2834 2920 2693 
Q 2988 2553 2988 2375 
Q 2988 2163 2927 1869 
Q 2866 1575 2758 1259 
Q 2650 944 2559 763 
Q 2138 -72 1575 -72 
Q 1172 -72 928 129 
Q 684 331 684 722 
z
" transform="scale(0.015625)"/>
     </defs>
     <use xlink:href="#Cmmi10-7e" transform="translate(-10.121582 5.609375)"/>
     <use xlink:href="#Cmmi10-76" transform="translate(0 0.4375)"/>
    </g>
   </g>
   <g id="text_2">
    <!-- $\vec{u}$ -->
    <g transform="translate(213.873077 103.40613) scale(0.25 -0.25)">
     <defs>
      <path id="Cmmi10-75" d="M 678 697 
Q 678 906 734 1126 
Q 791 1347 892 1617 
Q 994 1888 1069 2088 
Q 1153 2322 1153 2472 
Q 1153 2663 1013 2663 
Q 759 2663 595 2402 
Q 431 2141 353 1819 
Q 341 1778 300 1778 
L 225 1778 
Q 172 1778 172 1838 
L 172 1856 
Q 275 2238 487 2533 
Q 700 2828 1025 2828 
Q 1253 2828 1411 2678 
Q 1569 2528 1569 2297 
Q 1569 2178 1516 2047 
Q 1488 1969 1388 1706 
Q 1288 1444 1234 1272 
Q 1181 1100 1147 934 
Q 1113 769 1113 603 
Q 1113 391 1203 244 
Q 1294 97 1497 97 
Q 1906 97 2216 603 
Q 2222 628 2226 651 
Q 2231 675 2234 697 
L 2694 2553 
Q 2716 2638 2794 2698 
Q 2872 2759 2963 2759 
Q 3041 2759 3098 2709 
Q 3156 2659 3156 2578 
Q 3156 2541 3150 2528 
L 2688 684 
Q 2644 494 2644 372 
Q 2644 97 2828 97 
Q 3034 97 3136 351 
Q 3238 606 3309 941 
Q 3322 978 3359 978 
L 3438 978 
Q 3463 978 3478 956 
Q 3494 934 3494 916 
Q 3425 641 3361 444 
Q 3297 247 3159 87 
Q 3022 -72 2816 -72 
Q 2613 -72 2452 39 
Q 2291 150 2234 341 
Q 2088 153 1894 40 
Q 1700 -72 1484 -72 
Q 1116 -72 897 129 
Q 678 331 678 697 
z
" transform="scale(0.015625)"/>
     </defs>
     <use xlink:href="#Cmmi10-7e" transform="translate(-4.924316 5.609375)"/>
     <use xlink:href="#Cmmi10-75" transform="translate(0 0.53125)"/>
    </g>
   </g>
   <g id="text_3">
    <!-- $2\pi -\theta$ -->
    <g transform="translate(10.471603 50.745041) scale(0.25 -0.25)">
     <defs>
      <path id="Cmr10-32" d="M 319 0 
L 319 172 
Q 319 188 331 206 
L 1325 1306 
Q 1550 1550 1690 1715 
Q 1831 1881 1968 2097 
Q 2106 2313 2186 2536 
Q 2266 2759 2266 3009 
Q 2266 3272 2169 3511 
Q 2072 3750 1880 3894 
Q 1688 4038 1416 4038 
Q 1138 4038 916 3870 
Q 694 3703 603 3438 
Q 628 3444 672 3444 
Q 816 3444 917 3347 
Q 1019 3250 1019 3097 
Q 1019 2950 917 2848 
Q 816 2747 672 2747 
Q 522 2747 420 2851 
Q 319 2956 319 3097 
Q 319 3338 409 3548 
Q 500 3759 670 3923 
Q 841 4088 1055 4175 
Q 1269 4263 1509 4263 
Q 1875 4263 2190 4108 
Q 2506 3953 2690 3670 
Q 2875 3388 2875 3009 
Q 2875 2731 2753 2481 
Q 2631 2231 2440 2026 
Q 2250 1822 1953 1562 
Q 1656 1303 1563 1216 
L 838 519 
L 1453 519 
Q 1906 519 2211 526 
Q 2516 534 2534 550 
Q 2609 631 2688 1141 
L 2875 1141 
L 2694 0 
L 319 0 
z
" transform="scale(0.015625)"/>
      <path id="Cmmi10-bc" d="M 647 109 
Q 647 144 672 213 
Q 850 584 1004 942 
Q 1159 1300 1282 1639 
Q 1406 1978 1509 2363 
L 1100 2363 
Q 866 2363 662 2216 
Q 459 2069 325 1844 
Q 313 1819 288 1819 
L 213 1819 
Q 153 1819 153 1881 
Q 153 1894 166 1919 
Q 375 2275 614 2517 
Q 853 2759 1153 2759 
L 3475 2759 
Q 3541 2759 3587 2715 
Q 3634 2672 3634 2597 
Q 3634 2503 3567 2433 
Q 3500 2363 3406 2363 
L 2591 2363 
Q 2488 1859 2478 1381 
Q 2478 766 2694 269 
Q 2713 231 2713 191 
Q 2713 122 2672 62 
Q 2631 3 2567 -34 
Q 2503 -72 2431 -72 
Q 2263 -72 2200 203 
Q 2138 478 2138 738 
Q 2138 1103 2200 1442 
Q 2263 1781 2400 2363 
L 1703 2363 
Q 1197 313 1094 103 
Q 1003 -72 844 -72 
Q 766 -72 706 -20 
Q 647 31 647 109 
z
" transform="scale(0.015625)"/>
      <path id="Cmsy10-a1" d="M 653 1472 
Q 600 1472 565 1512 
Q 531 1553 531 1600 
Q 531 1647 565 1687 
Q 600 1728 653 1728 
L 4325 1728 
Q 4375 1728 4408 1687 
Q 4441 1647 4441 1600 
Q 4441 1553 4408 1512 
Q 4375 1472 4325 1472 
L 653 1472 
z
" transform="scale(0.015625)"/>
      <path id="Cmmi10-b5" d="M 1031 -72 
Q 741 -72 566 140 
Q 391 353 323 653 
Q 256 953 256 1247 
L 256 1253 
Q 256 1572 317 1915 
Q 378 2259 493 2601 
Q 609 2944 744 3213 
Q 838 3400 986 3631 
Q 1134 3863 1317 4064 
Q 1500 4266 1711 4389 
Q 1922 4513 2138 4513 
L 2144 4513 
Q 2375 4513 2529 4384 
Q 2684 4256 2770 4056 
Q 2856 3856 2890 3628 
Q 2925 3400 2925 3194 
Q 2925 2709 2794 2204 
Q 2663 1700 2431 1228 
Q 2344 1050 2189 809 
Q 2034 569 1861 378 
Q 1688 188 1472 58 
Q 1256 -72 1038 -72 
L 1031 -72 
z
M 1044 97 
Q 1256 97 1451 323 
Q 1647 550 1794 873 
Q 1941 1197 2052 1536 
Q 2163 1875 2216 2113 
L 909 2113 
Q 809 1709 753 1417 
Q 697 1125 697 844 
Q 697 97 1044 97 
z
M 959 2338 
L 2272 2338 
Q 2341 2619 2381 2808 
Q 2422 2997 2450 3206 
Q 2478 3416 2478 3597 
Q 2478 4347 2138 4347 
Q 1731 4347 1436 3692 
Q 1141 3038 959 2338 
z
" transform="scale(0.015625)"/>
     </defs>
     <use xlink:href="#Cmr10-32" transform="translate(0 0.484375)"/>
     <use xlink:href="#Cmmi10-bc" transform="translate(50 0.484375)"/>
     <use xlink:href="#Cmsy10-a1" transform="translate(124.541016 0.484375)"/>
     <use xlink:href="#Cmmi10-b5" transform="translate(219.785156 0.484375)"/>
    </g>
   </g>
   <g id="text_4">
    <!-- $\theta$ -->
    <g transform="translate(184.832243 197.60568) scale(0.25 -0.25)">
     <use xlink:href="#Cmmi10-b5" transform="translate(0 0.484375)"/>
    </g>
   </g>
  </g>
 </g>
 <defs>
  <clipPath id="p2de161682b">
   <rect x="7.2" y="7.2" width="324" height="324"/>
  </clipPath>
 </defs>
</svg>
