<?xml version="1.0" encoding="utf-8" standalone="no"?>
<!DOCTYPE svg PUBLIC "-//W3C//DTD SVG 1.1//EN"
  "http://www.w3.org/Graphics/SVG/1.1/DTD/svg11.dtd">
<svg xmlns:xlink="http://www.w3.org/1999/xlink" width="453.6pt" height="236.331422pt" viewBox="0 0 453.6 236.331422" xmlns="http://www.w3.org/2000/svg" version="1.1">
 <metadata>
  <rdf:RDF xmlns:dc="http://purl.org/dc/elements/1.1/" xmlns:cc="http://creativecommons.org/ns#" xmlns:rdf="http://www.w3.org/1999/02/22-rdf-syntax-ns#">
   <cc:Work>
    <dc:type rdf:resource="http://purl.org/dc/dcmitype/StillImage"/>
    <dc:date>2025-02-05T13:30:42.887218</dc:date>
    <dc:format>image/svg+xml</dc:format>
    <dc:creator>
     <cc:Agent>
      <dc:title>Matplotlib v3.8.0, https://matplotlib.org/</dc:title>
     </cc:Agent>
    </dc:creator>
   </cc:Work>
  </rdf:RDF>
 </metadata>
 <defs>
  <style type="text/css">*{stroke-linejoin: round; stroke-linecap: butt}</style>
 </defs>
 <g id="figure_1">
  <g id="patch_1">
   <path d="M 0 236.331422 
L 453.6 236.331422 
L 453.6 0 
L 0 0 
z
" style="fill: #ffffff"/>
  </g>
  <g id="axes_1">
   <g id="patch_2">
    <path d="M 7.2 229.131422 
L 446.4 229.131422 
L 446.4 7.2 
L 7.2 7.2 
z
" style="fill: #ffffff"/>
   </g>
   <g id="PathCollection_1">
    <path d="M 411.548127 52.081143 
C 412.485761 52.081143 413.385119 51.708617 414.048127 51.04561 
C 414.711134 50.382602 415.083661 49.483244 415.083661 48.54561 
C 415.083661 47.607975 414.711134 46.708617 414.048127 46.04561 
C 413.385119 45.382602 412.485761 45.010076 411.548127 45.010076 
C 410.610492 45.010076 409.711134 45.382602 409.048127 46.04561 
C 408.385119 46.708617 408.012593 47.607975 408.012593 48.54561 
C 408.012593 49.483244 408.385119 50.382602 409.048127 51.04561 
C 409.711134 51.708617 410.610492 52.081143 411.548127 52.081143 
z
" clip-path="url(#p6e0c47ba4a)"/>
   </g>
   <g id="matplotlib.axis_1"/>
   <g id="matplotlib.axis_2"/>
   <g id="line2d_1">
    <path d="M 437.953846 75.113946 
L 434.578746 70.724111 
L 432.191291 67.853517 
L 428.170255 63.388829 
L 423.041936 58.260394 
L 418.830163 54.444983 
L 414.010456 50.450547 
L 408.693795 46.441717 
L 405.020276 43.886396 
L 398.694411 39.848735 
L 391.389507 35.689818 
L 386.934473 33.388642 
L 380.581132 30.383972 
L 375.101795 28.032447 
L 369.177861 25.719141 
L 364.336407 23.992774 
L 356.362403 21.447444 
L 350.933002 19.912369 
L 345.673371 18.568508 
L 337.43301 16.72966 
L 332.431409 15.763704 
L 323.922604 14.365852 
L 319.370007 13.73919 
L 308.683506 12.582397 
L 301.07684 12.014784 
L 292.554768 11.618824 
L 284.446833 11.467912 
L 274.216656 11.579058 
L 265.55606 11.926787 
L 259.242505 12.32257 
L 250.511726 13.062905 
L 245.121634 13.629846 
L 234.64252 14.967915 
L 224.983237 16.473277 
L 214.610439 18.376945 
L 206.525512 20.065773 
L 195.809759 22.580928 
L 187.311586 24.801115 
L 179.98975 26.875623 
L 170.524306 29.782625 
L 162.363154 32.497058 
L 155.085686 35.084257 
L 144.120128 39.289756 
L 137.141724 42.166153 
L 127.983263 46.189617 
L 119.561867 50.152338 
L 112.280116 53.795631 
L 105.332138 57.472755 
L 96.566199 62.415425 
L 88.608867 67.224974 
L 84.066292 70.122599 
L 75.425132 75.976566 
L 68.599286 80.960016 
L 62.887737 85.413604 
L 58.668047 88.894738 
L 52.644816 94.191603 
L 48.152918 98.437729 
L 42.859295 103.840562 
L 38.539605 108.647674 
L 34.664617 113.351162 
L 31.81719 117.109324 
L 29.698628 120.115403 
L 26.935618 124.381404 
L 24.055499 129.396825 
L 21.92098 133.667494 
L 19.950235 138.280006 
L 18.475387 142.446703 
L 17.445984 146.025258 
L 16.508134 150.321173 
L 16.062646 153.233049 
L 15.684346 157.805274 
L 15.664805 161.134429 
L 15.857251 164.330626 
L 16.299566 167.738933 
L 17.023734 171.255229 
L 17.917095 174.41341 
L 18.987343 177.408836 
L 20.078658 179.961159 
L 21.770538 183.303816 
L 23.751753 186.606662 
L 25.755678 189.499058 
L 28.875536 193.388533 
L 31.593337 196.339857 
L 34.826373 199.462619 
L 38.055786 202.256366 
L 41.602925 205.029081 
L 46.340572 208.348145 
L 51.668071 211.663508 
L 56.734406 214.487925 
L 63.424889 217.820954 
L 68.28758 220.006754 
L 72.212306 221.64592 
L 78.543636 224.083536 
L 80.707079 224.86351 
L 80.707079 224.86351 
" clip-path="url(#p6e0c47ba4a)" style="fill: none; stroke: #000000; stroke-width: 2; stroke-linecap: square"/>
   </g>
   <g id="patch_3">
    <path d="M 181.156179 26.535038 
Q 180.1292 26.836194 181.247934 26.508132 
" clip-path="url(#p6e0c47ba4a)" style="fill: none; stroke: #000000; stroke-width: 2; stroke-linecap: round"/>
    <path d="M 192.250829 28.492145 
L 181.247934 26.508132 
L 189.436881 18.896224 
z
" clip-path="url(#p6e0c47ba4a)" style="stroke: #000000; stroke-width: 2; stroke-linecap: round"/>
   </g>
   <g id="text_1">
    <!-- $P$ -->
    <g transform="translate(414.513376 35.133861) scale(0.2 -0.2)">
     <defs>
      <path id="Cmmi10-50" d="M 313 0 
Q 250 0 250 84 
Q 253 100 262 139 
Q 272 178 289 201 
Q 306 225 331 225 
Q 722 225 878 269 
Q 959 297 997 441 
L 1875 3956 
Q 1888 4019 1888 4044 
Q 1888 4113 1813 4122 
Q 1691 4147 1350 4147 
Q 1288 4147 1288 4231 
Q 1291 4247 1300 4286 
Q 1309 4325 1326 4348 
Q 1344 4372 1369 4372 
L 3578 4372 
Q 3881 4372 4165 4264 
Q 4450 4156 4631 3934 
Q 4813 3713 4813 3397 
Q 4813 2991 4527 2672 
Q 4241 2353 3814 2175 
Q 3388 1997 2988 1997 
L 1947 1997 
L 1556 416 
Q 1544 353 1544 325 
Q 1544 300 1551 283 
Q 1559 266 1573 261 
Q 1588 256 1619 250 
Q 1741 225 2081 225 
Q 2144 225 2144 141 
Q 2122 50 2109 25 
Q 2097 0 2034 0 
L 313 0 
z
M 1978 2188 
L 2875 2188 
Q 3497 2188 3822 2522 
Q 3988 2688 4092 3000 
Q 4197 3313 4197 3566 
Q 4197 3881 3956 4014 
Q 3716 4147 3359 4147 
L 2747 4147 
Q 2572 4147 2515 4117 
Q 2459 4088 2413 3928 
L 1978 2188 
z
" transform="scale(0.015625)"/>
     </defs>
     <use xlink:href="#Cmmi10-50" transform="translate(0 0.6875)"/>
    </g>
   </g>
  </g>
 </g>
 <defs>
  <clipPath id="p6e0c47ba4a">
   <rect x="7.2" y="7.2" width="439.2" height="221.931422"/>
  </clipPath>
 </defs>
</svg>
