<?xml version="1.0" encoding="utf-8" standalone="no"?>
<!DOCTYPE svg PUBLIC "-//W3C//DTD SVG 1.1//EN"
  "http://www.w3.org/Graphics/SVG/1.1/DTD/svg11.dtd">
<svg xmlns:xlink="http://www.w3.org/1999/xlink" width="453.6pt" height="236.335546pt" viewBox="0 0 453.6 236.335546" xmlns="http://www.w3.org/2000/svg" version="1.1">
 <metadata>
  <rdf:RDF xmlns:dc="http://purl.org/dc/elements/1.1/" xmlns:cc="http://creativecommons.org/ns#" xmlns:rdf="http://www.w3.org/1999/02/22-rdf-syntax-ns#">
   <cc:Work>
    <dc:type rdf:resource="http://purl.org/dc/dcmitype/StillImage"/>
    <dc:date>2024-08-16T15:24:26.588820</dc:date>
    <dc:format>image/svg+xml</dc:format>
    <dc:creator>
     <cc:Agent>
      <dc:title>Matplotlib v3.8.0, https://matplotlib.org/</dc:title>
     </cc:Agent>
    </dc:creator>
   </cc:Work>
  </rdf:RDF>
 </metadata>
 <defs>
  <style type="text/css">*{stroke-linejoin: round; stroke-linecap: butt}</style>
 </defs>
 <g id="figure_1">
  <g id="patch_1">
   <path d="M 0 236.335546 
L 453.6 236.335546 
L 453.6 0 
L 0 0 
z
" style="fill: #ffffff"/>
  </g>
  <g id="axes_1">
   <g id="patch_2">
    <path d="M 7.2 229.135546 
L 446.4 229.135546 
L 446.4 7.2 
L 7.2 7.2 
z
" style="fill: #ffffff"/>
   </g>
   <g id="PathCollection_1">
    <path d="M 20.708786 139.14713 
C 21.435075 139.14713 22.131714 138.858572 22.645278 138.345009 
C 23.158841 137.831445 23.447399 137.134806 23.447399 136.408517 
C 23.447399 135.682228 23.158841 134.985589 22.645278 134.472025 
C 22.131714 133.958462 21.435075 133.669904 20.708786 133.669904 
C 19.982498 133.669904 19.285858 133.958462 18.772294 134.472025 
C 18.258731 134.985589 17.970173 135.682228 17.970173 136.408517 
C 17.970173 137.134806 18.258731 137.831445 18.772294 138.345009 
C 19.285858 138.858572 19.982498 139.14713 20.708786 139.14713 
z
" clip-path="url(#p4d05c6faa3)"/>
   </g>
   <g id="matplotlib.axis_1"/>
   <g id="matplotlib.axis_2"/>
   <g id="line2d_1">
    <path d="M 437.953846 75.117858 
L 433.93223 69.932893 
L 432.192848 67.859244 
L 427.607654 62.801187 
L 423.224697 58.437462 
L 419.03036 54.623013 
L 414.326413 50.705242 
L 410.283413 47.603952 
L 403.457505 42.851858 
L 397.203122 38.962086 
L 392.481956 36.284166 
L 389.108359 34.494445 
L 384.046073 31.987781 
L 375.853646 28.346578 
L 368.540816 25.487673 
L 362.262439 23.299928 
L 357.211004 21.705377 
L 351.031384 19.942708 
L 343.437173 18.041947 
L 335.994007 16.444321 
L 327.133738 14.861906 
L 319.434212 13.75133 
L 312.836234 12.984707 
L 305.564014 12.328459 
L 297.615215 11.82783 
L 293.085693 11.640147 
L 281.714248 11.469029 
L 274.634722 11.571936 
L 266.78225 11.86757 
L 255.431444 12.622278 
L 248.38373 13.280635 
L 241.051873 14.116573 
L 230.928788 15.519848 
L 221.753441 17.038087 
L 212.899015 18.723288 
L 202.066294 21.077851 
L 191.984312 23.559348 
L 181.388914 26.471345 
L 171.722878 29.404115 
L 165.604101 31.399522 
L 155.075004 35.091957 
L 144.258006 39.238297 
L 134.17385 43.442221 
L 125.903595 47.147888 
L 115.788695 52.017928 
L 110.260313 54.847485 
L 101.49343 59.597545 
L 92.579577 64.788111 
L 85.940506 68.916653 
L 79.182803 73.376438 
L 73.759483 77.165007 
L 68.065373 81.368415 
L 62.861414 85.438443 
L 56.732153 90.556028 
L 52.147469 94.651918 
L 47.533765 99.049335 
L 42.524107 104.203085 
L 38.546553 108.643132 
L 36.482283 111.095883 
L 32.106547 116.717151 
L 29.345711 120.640018 
L 26.655455 124.843714 
L 24.204187 129.12294 
L 22.772586 131.89514 
L 20.574888 136.729181 
L 19.007902 140.846881 
L 17.809452 144.673423 
L 16.9178 148.258301 
L 16.378097 151.075241 
L 15.899335 154.685837 
L 15.665468 158.36421 
L 15.67836 161.575548 
L 15.927731 165.037416 
L 16.375959 168.190279 
L 17.094749 171.545737 
L 17.964091 174.564403 
L 19.212757 177.974687 
L 19.9889 179.770144 
L 21.622394 183.038413 
L 23.645845 186.447296 
L 25.8105 189.57772 
L 28.113371 192.499006 
L 30.60968 195.315136 
L 33.268586 198.00829 
L 36.06036 200.568655 
L 39.768016 203.63378 
L 43.085555 206.115012 
L 48.191724 209.549415 
L 53.530977 212.740025 
L 58.498822 215.41158 
L 62.397362 217.339244 
L 67.860155 219.825952 
L 75.552043 222.965863 
L 80.706762 224.867555 
L 80.706762 224.867555 
" clip-path="url(#p4d05c6faa3)" style="fill: none; stroke: #000000; stroke-width: 2; stroke-linecap: square"/>
   </g>
   <g id="patch_3">
    <path d="M 181.15595 26.538907 
Q 180.12897 26.840063 181.247704 26.512001 
" clip-path="url(#p4d05c6faa3)" style="fill: none; stroke: #000000; stroke-width: 2; stroke-linecap: round"/>
    <path d="M 192.250598 28.496014 
L 181.247704 26.512001 
L 189.436651 18.900093 
z
" clip-path="url(#p4d05c6faa3)" style="stroke: #000000; stroke-width: 2; stroke-linecap: round"/>
   </g>
   <g id="patch_4">
    <path d="M 20.708786 136.408517 
Q 52.259645 117.478002 81.893091 99.697934 
" clip-path="url(#p4d05c6faa3)" style="fill: none; stroke: #ff0000; stroke-width: 2; stroke-linecap: round"/>
    <path d="M 70.745683 100.555427 
L 81.893091 99.697934 
L 75.89064 109.130356 
z
" clip-path="url(#p4d05c6faa3)" style="fill: #ff0000; stroke: #ff0000; stroke-width: 2; stroke-linecap: round"/>
   </g>
   <g id="text_1">
    <!-- $Q$ -->
    <g transform="translate(31.639301 151.392525) scale(0.2 -0.2)">
     <defs>
      <path id="Cmmi10-51" d="M 1947 -141 
Q 1466 -141 1094 79 
Q 722 300 520 692 
Q 319 1084 319 1563 
Q 319 2259 714 2950 
Q 1109 3641 1756 4077 
Q 2403 4513 3109 4513 
Q 3475 4513 3778 4381 
Q 4081 4250 4290 4017 
Q 4500 3784 4614 3471 
Q 4728 3159 4728 2791 
Q 4728 2366 4581 1936 
Q 4434 1506 4171 1136 
Q 3909 766 3559 484 
Q 3209 203 2809 38 
Q 2850 -256 2934 -425 
Q 3019 -594 3256 -594 
Q 3506 -594 3726 -412 
Q 3947 -231 4006 13 
Q 4019 72 4078 72 
Q 4147 72 4147 -13 
Q 4100 -219 4008 -430 
Q 3916 -641 3786 -823 
Q 3656 -1006 3478 -1123 
Q 3300 -1241 3084 -1241 
Q 2547 -1241 2547 -550 
Q 2547 -509 2562 -332 
Q 2578 -156 2578 -44 
Q 2269 -141 1947 -141 
z
M 1709 300 
Q 1709 44 1991 44 
Q 2275 44 2591 184 
L 2591 244 
Q 2591 503 2509 648 
Q 2428 794 2194 794 
Q 2078 794 1964 723 
Q 1850 653 1779 539 
Q 1709 425 1709 300 
z
M 1544 288 
Q 1544 456 1637 612 
Q 1731 769 1881 864 
Q 2031 959 2203 959 
Q 2481 959 2607 771 
Q 2734 584 2778 281 
Q 3188 525 3500 978 
Q 3813 1431 3977 1973 
Q 4141 2516 4141 3003 
Q 4141 3356 4023 3656 
Q 3906 3956 3664 4140 
Q 3422 4325 3066 4325 
Q 2722 4325 2403 4156 
Q 2084 3988 1813 3706 
Q 1550 3434 1342 3032 
Q 1134 2631 1021 2193 
Q 909 1756 909 1356 
Q 909 947 1068 612 
Q 1228 278 1569 128 
Q 1544 194 1544 288 
z
" transform="scale(0.015625)"/>
     </defs>
     <use xlink:href="#Cmmi10-51" transform="translate(0 0.484375)"/>
    </g>
   </g>
  </g>
 </g>
 <defs>
  <clipPath id="p4d05c6faa3">
   <rect x="7.2" y="7.2" width="439.2" height="221.935546"/>
  </clipPath>
 </defs>
</svg>
