<?xml version="1.0" encoding="utf-8" standalone="no"?>
<!DOCTYPE svg PUBLIC "-//W3C//DTD SVG 1.1//EN"
  "http://www.w3.org/Graphics/SVG/1.1/DTD/svg11.dtd">
<svg xmlns:xlink="http://www.w3.org/1999/xlink" width="453.6pt" height="236.336961pt" viewBox="0 0 453.6 236.336961" xmlns="http://www.w3.org/2000/svg" version="1.1">
 <metadata>
  <rdf:RDF xmlns:dc="http://purl.org/dc/elements/1.1/" xmlns:cc="http://creativecommons.org/ns#" xmlns:rdf="http://www.w3.org/1999/02/22-rdf-syntax-ns#">
   <cc:Work>
    <dc:type rdf:resource="http://purl.org/dc/dcmitype/StillImage"/>
    <dc:date>2024-11-20T07:39:20.459876</dc:date>
    <dc:format>image/svg+xml</dc:format>
    <dc:creator>
     <cc:Agent>
      <dc:title>Matplotlib v3.6.2, https://matplotlib.org/</dc:title>
     </cc:Agent>
    </dc:creator>
   </cc:Work>
  </rdf:RDF>
 </metadata>
 <defs>
  <style type="text/css">*{stroke-linejoin: round; stroke-linecap: butt}</style>
 </defs>
 <g id="figure_1">
  <g id="patch_1">
   <path d="M 0 236.336961 
L 453.6 236.336961 
L 453.6 0 
L 0 0 
z
" style="fill: #ffffff"/>
  </g>
  <g id="axes_1">
   <g id="patch_2">
    <path d="M 7.2 229.136961 
L 446.4 229.136961 
L 446.4 7.2 
L 7.2 7.2 
z
" style="fill: #ffffff"/>
   </g>
   <g id="PathCollection_1">
    <path d="M 411.547892 51.28809 
C 412.274181 51.28809 412.97082 50.999532 413.484384 50.485969 
C 413.997948 49.972405 414.286505 49.275766 414.286505 48.549477 
C 414.286505 47.823188 413.997948 47.126549 413.484384 46.612985 
C 412.97082 46.099422 412.274181 45.810864 411.547892 45.810864 
C 410.821604 45.810864 410.124964 46.099422 409.611401 46.612985 
C 409.097837 47.126549 408.809279 47.823188 408.809279 48.549477 
C 408.809279 49.275766 409.097837 49.972405 409.611401 50.485969 
C 410.124964 50.999532 410.821604 51.28809 411.547892 51.28809 
z
" clip-path="url(#pb1dff78bb7)"/>
   </g>
   <g id="matplotlib.axis_1"/>
   <g id="matplotlib.axis_2"/>
   <g id="line2d_1">
    <path d="M 437.953846 75.11805 
L 434.929932 71.165937 
L 432.023575 67.662508 
L 427.872326 63.07871 
L 423.379927 58.585231 
L 420.704545 56.106819 
L 417.214447 53.068526 
L 412.464139 49.24824 
L 408.161603 46.065235 
L 406.0302 44.576615 
L 400.516535 40.971581 
L 396.514691 38.558498 
L 389.548645 34.722505 
L 382.839587 31.42042 
L 377.393693 28.994231 
L 370.128923 26.079151 
L 363.887479 23.843701 
L 358.064644 21.964845 
L 351.953714 20.193077 
L 342.569171 17.842363 
L 335.302454 16.308486 
L 327.185954 14.87011 
L 319.743692 13.791236 
L 312.884797 12.989544 
L 306.318012 12.387325 
L 299.735498 11.939529 
L 289.551375 11.54129 
L 280.19917 11.477451 
L 271.792925 11.656792 
L 261.960622 12.141104 
L 257.133638 12.484453 
L 245.795736 13.557768 
L 236.704473 14.683541 
L 225.662279 16.362264 
L 219.980101 17.357738 
L 210.829758 19.147529 
L 202.485105 20.980154 
L 193.330311 23.211084 
L 184.862691 25.481252 
L 176.309219 27.978549 
L 166.337122 31.153837 
L 157.024832 34.38211 
L 146.784584 38.235894 
L 137.095244 42.188529 
L 129.330087 45.582286 
L 119.561952 50.154804 
L 114.841492 52.492737 
L 107.893627 56.095775 
L 98.599723 61.239291 
L 89.799121 66.486734 
L 84.269907 69.992217 
L 77.655924 74.421427 
L 70.262586 79.715301 
L 66.278598 82.737713 
L 61.103712 86.865679 
L 55.09481 91.987866 
L 49.607167 97.03319 
L 45.963382 100.61576 
L 40.948148 105.918016 
L 36.787508 110.722648 
L 33.557807 114.777428 
L 30.565098 118.86087 
L 28.080075 122.559159 
L 25.519461 126.75881 
L 23.213959 131.008577 
L 21.775557 133.978443 
L 20.272791 137.460601 
L 18.597921 142.059216 
L 17.415669 146.133999 
L 16.554799 150.04931 
L 15.943638 154.224614 
L 15.682465 157.762513 
L 15.680618 161.725295 
L 15.973015 165.46951 
L 16.324723 167.915308 
L 17.077894 171.493125 
L 18.013526 174.727321 
L 19.151102 177.832505 
L 20.308686 180.466086 
L 22.026845 183.774104 
L 24.35007 187.520836 
L 26.304649 190.241056 
L 28.958403 193.493133 
L 31.365489 196.114018 
L 34.829737 199.474152 
L 37.905252 202.140471 
L 42.205292 205.481439 
L 46.241768 208.290383 
L 51.212336 211.402127 
L 55.963118 214.083281 
L 61.341996 216.833622 
L 67.36918 219.614467 
L 73.053628 221.990661 
L 77.186257 223.587536 
L 80.703908 224.868943 
L 80.703908 224.868943 
" clip-path="url(#pb1dff78bb7)" style="fill: none; stroke: #000000; stroke-width: 2; stroke-linecap: square"/>
   </g>
   <g id="patch_3">
    <path d="M 181.153899 26.538711 
Q 180.126911 26.839869 181.245636 26.511809 
" clip-path="url(#pb1dff78bb7)" style="fill: none; stroke: #000000; stroke-width: 2; stroke-linecap: round"/>
    <path d="M 192.248531 28.495822 
L 181.245636 26.511809 
L 189.434583 18.899901 
L 192.248531 28.495822 
z
" clip-path="url(#pb1dff78bb7)" style="stroke: #000000; stroke-width: 2; stroke-linecap: round"/>
   </g>
   <g id="text_1">
    <!-- $P$ -->
    <g transform="translate(414.513225 35.137561) scale(0.2 -0.2)">
     <defs>
      <path id="Cmmi10-50" d="M 313 0 
Q 250 0 250 84 
Q 253 100 262 139 
Q 272 178 289 201 
Q 306 225 331 225 
Q 722 225 878 269 
Q 959 297 997 441 
L 1875 3956 
Q 1888 4019 1888 4044 
Q 1888 4113 1813 4122 
Q 1691 4147 1350 4147 
Q 1288 4147 1288 4231 
Q 1291 4247 1300 4286 
Q 1309 4325 1326 4348 
Q 1344 4372 1369 4372 
L 3578 4372 
Q 3881 4372 4165 4264 
Q 4450 4156 4631 3934 
Q 4813 3713 4813 3397 
Q 4813 2991 4527 2672 
Q 4241 2353 3814 2175 
Q 3388 1997 2988 1997 
L 1947 1997 
L 1556 416 
Q 1544 353 1544 325 
Q 1544 300 1551 283 
Q 1559 266 1573 261 
Q 1588 256 1619 250 
Q 1741 225 2081 225 
Q 2144 225 2144 141 
Q 2122 50 2109 25 
Q 2097 0 2034 0 
L 313 0 
z
M 1978 2188 
L 2875 2188 
Q 3497 2188 3822 2522 
Q 3988 2688 4092 3000 
Q 4197 3313 4197 3566 
Q 4197 3881 3956 4014 
Q 3716 4147 3359 4147 
L 2747 4147 
Q 2572 4147 2515 4117 
Q 2459 4088 2413 3928 
L 1978 2188 
z
" transform="scale(0.015625)"/>
     </defs>
     <use xlink:href="#Cmmi10-50" transform="translate(0 0.6875)"/>
    </g>
   </g>
  </g>
 </g>
 <defs>
  <clipPath id="pb1dff78bb7">
   <rect x="7.2" y="7.2" width="439.2" height="221.936961"/>
  </clipPath>
 </defs>
</svg>
