<?xml version="1.0" encoding="utf-8" standalone="no"?>
<!DOCTYPE svg PUBLIC "-//W3C//DTD SVG 1.1//EN"
  "http://www.w3.org/Graphics/SVG/1.1/DTD/svg11.dtd">
<svg xmlns:xlink="http://www.w3.org/1999/xlink" width="453.6pt" height="236.337279pt" viewBox="0 0 453.6 236.337279" xmlns="http://www.w3.org/2000/svg" version="1.1">
 <metadata>
  <rdf:RDF xmlns:dc="http://purl.org/dc/elements/1.1/" xmlns:cc="http://creativecommons.org/ns#" xmlns:rdf="http://www.w3.org/1999/02/22-rdf-syntax-ns#">
   <cc:Work>
    <dc:type rdf:resource="http://purl.org/dc/dcmitype/StillImage"/>
    <dc:date>2024-12-16T16:34:22.336231</dc:date>
    <dc:format>image/svg+xml</dc:format>
    <dc:creator>
     <cc:Agent>
      <dc:title>Matplotlib v3.6.2, https://matplotlib.org/</dc:title>
     </cc:Agent>
    </dc:creator>
   </cc:Work>
  </rdf:RDF>
 </metadata>
 <defs>
  <style type="text/css">*{stroke-linejoin: round; stroke-linecap: butt}</style>
 </defs>
 <g id="figure_1">
  <g id="patch_1">
   <path d="M 0 236.337279 
L 453.6 236.337279 
L 453.6 0 
L 0 0 
z
" style="fill: #ffffff"/>
  </g>
  <g id="axes_1">
   <g id="patch_2">
    <path d="M 7.2 229.137279 
L 446.4 229.137279 
L 446.4 7.2 
L 7.2 7.2 
z
" style="fill: #ffffff"/>
   </g>
   <g id="PathCollection_1">
    <path d="M 20.705342 139.148099 
C 21.431631 139.148099 22.128271 138.859541 22.641834 138.345978 
C 23.155398 137.832414 23.443955 137.135775 23.443955 136.409486 
C 23.443955 135.683197 23.155398 134.986558 22.641834 134.472994 
C 22.128271 133.959431 21.431631 133.670873 20.705342 133.670873 
C 19.979054 133.670873 19.282414 133.959431 18.768851 134.472994 
C 18.255287 134.986558 17.96673 135.683197 17.96673 136.409486 
C 17.96673 137.135775 18.255287 137.832414 18.768851 138.345978 
C 19.282414 138.859541 19.979054 139.148099 20.705342 139.148099 
z
" clip-path="url(#p217c88f0f3)"/>
   </g>
   <g id="matplotlib.axis_1"/>
   <g id="matplotlib.axis_2"/>
   <g id="line2d_1">
    <path d="M 437.953846 75.118321 
L 435.074258 71.347312 
L 430.819838 66.286106 
L 427.85459 63.060345 
L 423.099179 58.318908 
L 417.693379 53.473485 
L 412.518828 49.290591 
L 408.650759 46.415117 
L 402.309544 42.107017 
L 398.593792 39.792216 
L 393.857801 37.043424 
L 389.255757 34.570924 
L 381.358723 30.739369 
L 374.583759 27.825103 
L 369.98784 26.026228 
L 363.263443 23.633325 
L 356.887541 21.608304 
L 349.689125 19.586191 
L 346.184293 18.697142 
L 336.841107 16.613605 
L 328.994998 15.166756 
L 323.297106 14.278825 
L 312.89005 12.990348 
L 303.705135 12.191485 
L 296.35153 11.76845 
L 288.410782 11.518557 
L 277.919296 11.504544 
L 267.3839 11.838156 
L 257.519528 12.454735 
L 247.022937 13.424001 
L 239.066602 14.36887 
L 229.471704 15.745082 
L 222.379923 16.926693 
L 213.056088 18.691139 
L 201.164276 21.288011 
L 194.623063 22.882266 
L 186.660259 24.982851 
L 177.431258 27.63939 
L 167.543124 30.754743 
L 157.215121 34.31378 
L 146.352561 38.40591 
L 139.192031 41.307372 
L 131.312659 44.696289 
L 122.794693 48.603006 
L 116.321837 51.750451 
L 111.456753 54.223507 
L 103.775956 58.327237 
L 99.087169 60.959976 
L 89.169907 66.877364 
L 82.420241 71.204113 
L 75.48341 75.937508 
L 67.644239 81.687457 
L 63.078215 85.262195 
L 58.688211 88.87925 
L 51.813793 94.957789 
L 47.634554 98.947444 
L 43.102916 103.581826 
L 38.834239 108.306893 
L 35.824915 111.898066 
L 32.547654 116.116676 
L 28.692741 121.617143 
L 26.33955 125.363093 
L 23.655547 130.151695 
L 21.412951 134.777822 
L 20.233427 137.558541 
L 18.933874 141.052929 
L 17.7088 145.025133 
L 16.637196 149.612328 
L 16.096732 152.94354 
L 15.726897 156.846585 
L 15.650443 160.678461 
L 15.772867 163.368809 
L 16.146518 166.789195 
L 16.556358 169.17253 
L 17.458311 172.914319 
L 18.195936 175.273078 
L 19.194454 177.939662 
L 20.892019 181.656417 
L 22.871196 185.215109 
L 25.334671 188.932141 
L 28.077379 192.461456 
L 30.762459 195.482722 
L 33.912985 198.626021 
L 36.157048 200.657501 
L 40.161811 203.944221 
L 43.869077 206.673975 
L 48.451353 209.71688 
L 52.05291 211.896112 
L 57.082777 214.679407 
L 64.020765 218.106004 
L 69.732529 220.629623 
L 76.32418 223.263201 
L 80.703813 224.869254 
L 80.703813 224.869254 
" clip-path="url(#p217c88f0f3)" style="fill: none; stroke: #000000; stroke-width: 2; stroke-linecap: square"/>
   </g>
   <g id="patch_3">
    <path d="M 181.153831 26.53897 
Q 180.126842 26.840128 181.245567 26.512068 
" clip-path="url(#p217c88f0f3)" style="fill: none; stroke: #000000; stroke-width: 2; stroke-linecap: round"/>
    <path d="M 192.248462 28.496081 
L 181.245567 26.512068 
L 189.434515 18.90016 
L 192.248462 28.496081 
z
" clip-path="url(#p217c88f0f3)" style="stroke: #000000; stroke-width: 2; stroke-linecap: round"/>
   </g>
   <g id="patch_4">
    <path d="M 20.705342 136.409486 
Q 52.256461 117.478815 81.890168 99.698591 
" clip-path="url(#p217c88f0f3)" style="fill: none; stroke: #ff0000; stroke-width: 2; stroke-linecap: round"/>
    <path d="M 70.74276 100.556084 
L 81.890168 99.698591 
L 75.887717 109.131013 
L 70.74276 100.556084 
z
" clip-path="url(#p217c88f0f3)" style="fill: #ff0000; stroke: #ff0000; stroke-width: 2; stroke-linecap: round"/>
   </g>
   <g id="text_1">
    <!-- $Q$ -->
    <g transform="translate(31.636014 151.393572) scale(0.2 -0.2)">
     <defs>
      <path id="Cmmi10-51" d="M 1947 -141 
Q 1466 -141 1094 79 
Q 722 300 520 692 
Q 319 1084 319 1563 
Q 319 2259 714 2950 
Q 1109 3641 1756 4077 
Q 2403 4513 3109 4513 
Q 3475 4513 3778 4381 
Q 4081 4250 4290 4017 
Q 4500 3784 4614 3471 
Q 4728 3159 4728 2791 
Q 4728 2366 4581 1936 
Q 4434 1506 4171 1136 
Q 3909 766 3559 484 
Q 3209 203 2809 38 
Q 2850 -256 2934 -425 
Q 3019 -594 3256 -594 
Q 3506 -594 3726 -412 
Q 3947 -231 4006 13 
Q 4019 72 4078 72 
Q 4147 72 4147 -13 
Q 4100 -219 4008 -430 
Q 3916 -641 3786 -823 
Q 3656 -1006 3478 -1123 
Q 3300 -1241 3084 -1241 
Q 2547 -1241 2547 -550 
Q 2547 -509 2562 -332 
Q 2578 -156 2578 -44 
Q 2269 -141 1947 -141 
z
M 1709 300 
Q 1709 44 1991 44 
Q 2275 44 2591 184 
L 2591 244 
Q 2591 503 2509 648 
Q 2428 794 2194 794 
Q 2078 794 1964 723 
Q 1850 653 1779 539 
Q 1709 425 1709 300 
z
M 1544 288 
Q 1544 456 1637 612 
Q 1731 769 1881 864 
Q 2031 959 2203 959 
Q 2481 959 2607 771 
Q 2734 584 2778 281 
Q 3188 525 3500 978 
Q 3813 1431 3977 1973 
Q 4141 2516 4141 3003 
Q 4141 3356 4023 3656 
Q 3906 3956 3664 4140 
Q 3422 4325 3066 4325 
Q 2722 4325 2403 4156 
Q 2084 3988 1813 3706 
Q 1550 3434 1342 3032 
Q 1134 2631 1021 2193 
Q 909 1756 909 1356 
Q 909 947 1068 612 
Q 1228 278 1569 128 
Q 1544 194 1544 288 
z
" transform="scale(0.015625)"/>
     </defs>
     <use xlink:href="#Cmmi10-51" transform="translate(0 0.484375)"/>
    </g>
   </g>
  </g>
 </g>
 <defs>
  <clipPath id="p217c88f0f3">
   <rect x="7.2" y="7.2" width="439.2" height="221.937279"/>
  </clipPath>
 </defs>
</svg>
