<?xml version="1.0" encoding="utf-8" standalone="no"?>
<!DOCTYPE svg PUBLIC "-//W3C//DTD SVG 1.1//EN"
  "http://www.w3.org/Graphics/SVG/1.1/DTD/svg11.dtd">
<svg xmlns:xlink="http://www.w3.org/1999/xlink" width="453.6pt" height="236.330998pt" viewBox="0 0 453.6 236.330998" xmlns="http://www.w3.org/2000/svg" version="1.1">
 <metadata>
  <rdf:RDF xmlns:dc="http://purl.org/dc/elements/1.1/" xmlns:cc="http://creativecommons.org/ns#" xmlns:rdf="http://www.w3.org/1999/02/22-rdf-syntax-ns#">
   <cc:Work>
    <dc:type rdf:resource="http://purl.org/dc/dcmitype/StillImage"/>
    <dc:date>2025-02-05T12:07:49.931314</dc:date>
    <dc:format>image/svg+xml</dc:format>
    <dc:creator>
     <cc:Agent>
      <dc:title>Matplotlib v3.8.0, https://matplotlib.org/</dc:title>
     </cc:Agent>
    </dc:creator>
   </cc:Work>
  </rdf:RDF>
 </metadata>
 <defs>
  <style type="text/css">*{stroke-linejoin: round; stroke-linecap: butt}</style>
 </defs>
 <g id="figure_1">
  <g id="patch_1">
   <path d="M 0 236.330998 
L 453.6 236.330998 
L 453.6 0 
L 0 0 
z
" style="fill: #ffffff"/>
  </g>
  <g id="axes_1">
   <g id="patch_2">
    <path d="M 7.2 229.130998 
L 446.4 229.130998 
L 446.4 7.2 
L 7.2 7.2 
z
" style="fill: #ffffff"/>
   </g>
   <g id="PathCollection_1">
    <path d="M 411.5481 51.283631 
C 412.274389 51.283631 412.971029 50.995074 413.484592 50.48151 
C 413.998156 49.967947 414.286713 49.271307 414.286713 48.545019 
C 414.286713 47.81873 413.998156 47.12209 413.484592 46.608527 
C 412.971029 46.094963 412.274389 45.806406 411.5481 45.806406 
C 410.821812 45.806406 410.125172 46.094963 409.611609 46.608527 
C 409.098045 47.12209 408.809488 47.81873 408.809488 48.545019 
C 408.809488 49.271307 409.098045 49.967947 409.611609 50.48151 
C 410.125172 50.995074 410.821812 51.283631 411.5481 51.283631 
z
" clip-path="url(#p62e8de86f5)"/>
   </g>
   <g id="matplotlib.axis_1"/>
   <g id="matplotlib.axis_2"/>
   <g id="line2d_1">
    <path d="M 437.953846 75.113382 
L 433.837764 69.813374 
L 430.407804 65.819212 
L 426.382302 61.534111 
L 421.041622 56.406986 
L 416.798948 52.715833 
L 411.647632 48.620359 
L 406.617829 44.976877 
L 403.669816 42.986821 
L 398.034929 39.451593 
L 393.042808 36.586971 
L 386.59095 33.217494 
L 383.063094 31.520166 
L 378.555308 29.489193 
L 371.388274 26.555061 
L 367.230872 25.007132 
L 359.492695 22.403488 
L 352.684832 20.390272 
L 345.987246 18.644287 
L 339.489464 17.158538 
L 330.514016 15.42161 
L 322.023026 14.093749 
L 317.048629 13.450402 
L 306.910147 12.43091 
L 296.721524 11.780793 
L 288.056882 11.507851 
L 278.948696 11.485993 
L 268.491806 11.782728 
L 264.53214 11.98227 
L 252.642455 12.861159 
L 245.389888 13.599021 
L 235.940306 14.7848 
L 230.11888 15.639994 
L 219.216501 17.494402 
L 209.587761 19.404335 
L 201.238157 21.266629 
L 189.882793 24.107529 
L 177.943784 27.481634 
L 171.215293 29.561022 
L 160.621185 33.101168 
L 154.529897 35.287723 
L 148.15838 37.696437 
L 136.621683 42.386221 
L 127.933066 46.21174 
L 121.241863 49.340131 
L 111.659152 54.115328 
L 104.624554 57.858042 
L 98.35862 61.374951 
L 88.749507 67.136306 
L 81.479965 71.824946 
L 76.281995 75.373729 
L 69.407135 80.351102 
L 65.238798 83.545607 
L 59.02532 88.592273 
L 53.21424 93.671673 
L 48.234334 98.357293 
L 44.419521 102.19674 
L 39.535088 107.502092 
L 35.546377 112.241991 
L 31.886281 117.013477 
L 29.730687 120.067253 
L 26.995293 124.283167 
L 24.098167 129.315775 
L 22.126154 133.228402 
L 20.664317 136.509988 
L 18.843699 141.322638 
L 17.576347 145.523465 
L 16.560225 150.03267 
L 16.019911 153.577076 
L 15.702021 157.382889 
L 15.650567 160.465973 
L 15.768647 163.256856 
L 16.165539 166.889539 
L 16.627293 169.500777 
L 17.613039 173.429123 
L 18.807344 176.946553 
L 20.111733 180.033206 
L 22.101975 183.89524 
L 24.366931 187.53539 
L 26.953292 191.067745 
L 29.399409 193.984849 
L 32.411756 197.165975 
L 34.217516 198.901878 
L 37.491988 201.788704 
L 41.747289 205.13612 
L 46.087766 208.180457 
L 49.345373 210.265895 
L 54.574001 213.318349 
L 60.367819 216.348425 
L 66.444886 219.199443 
L 72.494092 221.759374 
L 78.517443 224.073649 
L 80.706724 224.863094 
L 80.706724 224.863094 
" clip-path="url(#p62e8de86f5)" style="fill: none; stroke: #000000; stroke-width: 2; stroke-linecap: square"/>
   </g>
   <g id="patch_3">
    <path d="M 181.155923 26.534426 
Q 180.128944 26.835581 181.247677 26.50752 
" clip-path="url(#p62e8de86f5)" style="fill: none; stroke: #000000; stroke-width: 2; stroke-linecap: round"/>
    <path d="M 192.250571 28.491533 
L 181.247677 26.50752 
L 189.436624 18.895612 
z
" clip-path="url(#p62e8de86f5)" style="stroke: #000000; stroke-width: 2; stroke-linecap: round"/>
   </g>
   <g id="text_1">
    <!-- $P$ -->
    <g transform="translate(414.513359 35.133251) scale(0.2 -0.2)">
     <defs>
      <path id="Cmmi10-50" d="M 313 0 
Q 250 0 250 84 
Q 253 100 262 139 
Q 272 178 289 201 
Q 306 225 331 225 
Q 722 225 878 269 
Q 959 297 997 441 
L 1875 3956 
Q 1888 4019 1888 4044 
Q 1888 4113 1813 4122 
Q 1691 4147 1350 4147 
Q 1288 4147 1288 4231 
Q 1291 4247 1300 4286 
Q 1309 4325 1326 4348 
Q 1344 4372 1369 4372 
L 3578 4372 
Q 3881 4372 4165 4264 
Q 4450 4156 4631 3934 
Q 4813 3713 4813 3397 
Q 4813 2991 4527 2672 
Q 4241 2353 3814 2175 
Q 3388 1997 2988 1997 
L 1947 1997 
L 1556 416 
Q 1544 353 1544 325 
Q 1544 300 1551 283 
Q 1559 266 1573 261 
Q 1588 256 1619 250 
Q 1741 225 2081 225 
Q 2144 225 2144 141 
Q 2122 50 2109 25 
Q 2097 0 2034 0 
L 313 0 
z
M 1978 2188 
L 2875 2188 
Q 3497 2188 3822 2522 
Q 3988 2688 4092 3000 
Q 4197 3313 4197 3566 
Q 4197 3881 3956 4014 
Q 3716 4147 3359 4147 
L 2747 4147 
Q 2572 4147 2515 4117 
Q 2459 4088 2413 3928 
L 1978 2188 
z
" transform="scale(0.015625)"/>
     </defs>
     <use xlink:href="#Cmmi10-50" transform="translate(0 0.6875)"/>
    </g>
   </g>
  </g>
 </g>
 <defs>
  <clipPath id="p62e8de86f5">
   <rect x="7.2" y="7.2" width="439.2" height="221.930998"/>
  </clipPath>
 </defs>
</svg>
