<?xml version="1.0" encoding="utf-8" standalone="no"?>
<!DOCTYPE svg PUBLIC "-//W3C//DTD SVG 1.1//EN"
  "http://www.w3.org/Graphics/SVG/1.1/DTD/svg11.dtd">
<svg xmlns:xlink="http://www.w3.org/1999/xlink" width="453.6pt" height="220.528284pt" viewBox="0 0 453.6 220.528284" xmlns="http://www.w3.org/2000/svg" version="1.1">
 <metadata>
  <rdf:RDF xmlns:dc="http://purl.org/dc/elements/1.1/" xmlns:cc="http://creativecommons.org/ns#" xmlns:rdf="http://www.w3.org/1999/02/22-rdf-syntax-ns#">
   <cc:Work>
    <dc:type rdf:resource="http://purl.org/dc/dcmitype/StillImage"/>
    <dc:date>2025-02-05T12:07:39.613866</dc:date>
    <dc:format>image/svg+xml</dc:format>
    <dc:creator>
     <cc:Agent>
      <dc:title>Matplotlib v3.8.0, https://matplotlib.org/</dc:title>
     </cc:Agent>
    </dc:creator>
   </cc:Work>
  </rdf:RDF>
 </metadata>
 <defs>
  <style type="text/css">*{stroke-linejoin: round; stroke-linecap: butt}</style>
 </defs>
 <g id="figure_1">
  <g id="patch_1">
   <path d="M 0 220.528284 
L 453.6 220.528284 
L 453.6 -0 
L 0 -0 
z
" style="fill: #ffffff"/>
  </g>
  <g id="axes_1">
   <g id="patch_2">
    <path d="M 7.2 213.328284 
L 446.4 213.328284 
L 446.4 7.2 
L 7.2 7.2 
z
" style="fill: #ffffff"/>
   </g>
   <g id="PathCollection_1">
    <path d="M 206.319723 65.498858 
C 207.046011 65.498858 207.742651 65.2103 208.256214 64.696737 
C 208.769778 64.183173 209.058335 63.486534 209.058335 62.760245 
C 209.058335 62.033957 208.769778 61.337317 208.256214 60.823754 
C 207.742651 60.31019 207.046011 60.021632 206.319723 60.021632 
C 205.593434 60.021632 204.896794 60.31019 204.383231 60.823754 
C 203.869667 61.337317 203.58111 62.033957 203.58111 62.760245 
C 203.58111 63.486534 203.869667 64.183173 204.383231 64.696737 
C 204.896794 65.2103 205.593434 65.498858 206.319723 65.498858 
z
" clip-path="url(#pa42a3b7dbf)"/>
   </g>
   <g id="matplotlib.axis_1"/>
   <g id="matplotlib.axis_2"/>
   <g id="line2d_1">
    <path d="M 368.94841 209.364278 
L 382.270697 202.010468 
L 391.661152 196.609265 
L 399.586291 191.818179 
L 406.373589 187.464026 
L 411.676207 183.833493 
L 416.467562 180.311714 
L 420.567793 177.045202 
L 424.458795 173.637918 
L 427.283035 170.894239 
L 430.00095 167.93249 
L 432.013854 165.430722 
L 433.600384 163.167631 
L 435.15279 160.536215 
L 436.323596 158.038194 
L 437.095092 155.85802 
L 437.596009 153.832009 
L 437.896979 151.636638 
L 437.941706 149.49818 
L 437.762096 147.539537 
L 437.366938 145.581533 
L 436.63608 143.319172 
L 435.584443 141.01773 
L 434.46465 139.097719 
L 433.15704 137.225866 
L 431.445867 135.140906 
L 429.345502 132.941291 
L 427.040153 130.829517 
L 423.9749 128.355453 
L 420.847627 126.109138 
L 416.690788 123.43329 
L 412.619494 121.066122 
L 407.813065 118.513731 
L 402.568858 115.959305 
L 396.235648 113.122323 
L 389.31893 110.265686 
L 381.007884 107.093486 
L 371.176414 103.627028 
L 360.621231 100.174747 
L 350.087178 96.949208 
L 336.480873 93.040547 
L 322.212746 89.189419 
L 305.875317 85.024116 
L 286.805273 80.418638 
L 266.929685 75.843294 
L 242.988143 70.555502 
L 214.916555 64.565345 
L 115.960433 43.691221 
L 96.715452 39.338486 
L 80.255765 35.399019 
L 66.746119 31.937131 
L 56.180817 29.01598 
L 46.854242 26.206628 
L 39.266872 23.683941 
L 32.961977 21.340869 
L 28.322358 19.396072 
L 24.693406 17.671308 
L 21.632432 15.994579 
L 19.087642 14.337841 
L 17.185008 12.807777 
L 15.919779 11.503512 
L 15.646154 11.164005 
L 15.646154 11.164005 
" clip-path="url(#pa42a3b7dbf)" style="fill: none; stroke: #000000; stroke-width: 2; stroke-linecap: square"/>
   </g>
   <g id="patch_3">
    <path d="M 206.319723 62.760245 
Q 155.254843 52.066339 106.378556 41.830764 
" clip-path="url(#pa42a3b7dbf)" style="fill: none; stroke: #ff0000; stroke-width: 2; stroke-linecap: round"/>
    <path d="M 115.141377 48.77432 
L 106.378556 41.830764 
L 117.191093 38.986641 
z
" clip-path="url(#pa42a3b7dbf)" style="fill: #ff0000; stroke: #ff0000; stroke-width: 2; stroke-linecap: round"/>
   </g>
   <g id="patch_4">
    <path d="M 206.319723 62.760245 
Q 195.625817 113.825124 185.390241 162.701412 
" clip-path="url(#pa42a3b7dbf)" style="fill: none; stroke: #800080; stroke-width: 2; stroke-linecap: round"/>
    <path d="M 192.333797 153.938591 
L 185.390241 162.701412 
L 182.546118 151.888875 
z
" clip-path="url(#pa42a3b7dbf)" style="fill: #800080; stroke: #800080; stroke-width: 2; stroke-linecap: round"/>
   </g>
   <g id="patch_5">
    <path d="M 206.319723 62.760245 
Q 269.347049 75.959303 330.185785 88.700031 
" clip-path="url(#pa42a3b7dbf)" style="fill: none; stroke: #ffa500; stroke-width: 2; stroke-linecap: round"/>
    <path d="M 321.422964 81.756475 
L 330.185785 88.700031 
L 319.373247 91.544154 
z
" clip-path="url(#pa42a3b7dbf)" style="fill: #ffa500; stroke: #ffa500; stroke-width: 2; stroke-linecap: round"/>
   </g>
   <g id="patch_6">
    <path d="M 206.319723 62.760245 
Q 202.518941 80.909504 199.176489 96.870171 
" clip-path="url(#pa42a3b7dbf)" style="fill: none; stroke: #0000ff; stroke-width: 2; stroke-linecap: round"/>
    <path d="M 206.120045 88.10735 
L 199.176489 96.870171 
L 196.332366 86.057634 
z
" clip-path="url(#pa42a3b7dbf)" style="fill: #0000ff; stroke: #0000ff; stroke-width: 2; stroke-linecap: round"/>
   </g>
   <g id="patch_7">
    <path d="M 206.319723 62.760245 
Q 265.546268 94.108562 322.796507 124.41083 
" clip-path="url(#pa42a3b7dbf)" style="fill: none; stroke: #008000; stroke-width: 2; stroke-linecap: round"/>
    <path d="M 316.297237 115.313606 
L 322.796507 124.41083 
L 311.619166 124.151911 
z
" clip-path="url(#pa42a3b7dbf)" style="fill: #008000; stroke: #008000; stroke-width: 2; stroke-linecap: round"/>
   </g>
  </g>
 </g>
 <defs>
  <clipPath id="pa42a3b7dbf">
   <rect x="7.2" y="7.2" width="439.2" height="206.128284"/>
  </clipPath>
 </defs>
</svg>
