<?xml version="1.0" encoding="utf-8" standalone="no"?>
<!DOCTYPE svg PUBLIC "-//W3C//DTD SVG 1.1//EN"
  "http://www.w3.org/Graphics/SVG/1.1/DTD/svg11.dtd">
<svg xmlns:xlink="http://www.w3.org/1999/xlink" width="453.6pt" height="236.339296pt" viewBox="0 0 453.6 236.339296" xmlns="http://www.w3.org/2000/svg" version="1.1">
 <metadata>
  <rdf:RDF xmlns:dc="http://purl.org/dc/elements/1.1/" xmlns:cc="http://creativecommons.org/ns#" xmlns:rdf="http://www.w3.org/1999/02/22-rdf-syntax-ns#">
   <cc:Work>
    <dc:type rdf:resource="http://purl.org/dc/dcmitype/StillImage"/>
    <dc:date>2024-08-19T12:03:48.571454</dc:date>
    <dc:format>image/svg+xml</dc:format>
    <dc:creator>
     <cc:Agent>
      <dc:title>Matplotlib v3.8.0, https://matplotlib.org/</dc:title>
     </cc:Agent>
    </dc:creator>
   </cc:Work>
  </rdf:RDF>
 </metadata>
 <defs>
  <style type="text/css">*{stroke-linejoin: round; stroke-linecap: butt}</style>
 </defs>
 <g id="figure_1">
  <g id="patch_1">
   <path d="M 0 236.339296 
L 453.6 236.339296 
L 453.6 0 
L 0 0 
z
" style="fill: #ffffff"/>
  </g>
  <g id="axes_1">
   <g id="patch_2">
    <path d="M 7.2 229.139296 
L 446.4 229.139296 
L 446.4 7.2 
L 7.2 7.2 
z
" style="fill: #ffffff"/>
   </g>
   <g id="PathCollection_1">
    <path d="M 411.547716 51.289205 
C 412.274005 51.289205 412.970644 51.000647 413.484208 50.487084 
C 413.997772 49.97352 414.286329 49.276881 414.286329 48.550592 
C 414.286329 47.824303 413.997772 47.127664 413.484208 46.6141 
C 412.970644 46.100537 412.274005 45.811979 411.547716 45.811979 
C 410.821428 45.811979 410.124788 46.100537 409.611225 46.6141 
C 409.097661 47.127664 408.809104 47.824303 408.809104 48.550592 
C 408.809104 49.276881 409.097661 49.97352 409.611225 50.487084 
C 410.124788 51.000647 410.821428 51.289205 411.547716 51.289205 
z
" clip-path="url(#p6bbfa187e9)"/>
   </g>
   <g id="matplotlib.axis_1"/>
   <g id="matplotlib.axis_2"/>
   <g id="line2d_1">
    <path d="M 437.953846 75.119341 
L 435.094109 71.373295 
L 431.199377 66.716776 
L 426.85492 62.022917 
L 422.801501 58.038952 
L 418.939012 54.544902 
L 414.019654 50.463134 
L 410.094565 47.465985 
L 404.762546 43.718454 
L 399.774343 40.512916 
L 395.148059 37.771914 
L 390.102237 35.012707 
L 383.671521 31.811654 
L 376.525543 28.628284 
L 368.642852 25.52633 
L 364.051948 23.900715 
L 358.577161 22.123672 
L 351.507381 20.072426 
L 345.402031 18.507728 
L 340.016446 17.277119 
L 330.014965 15.340657 
L 323.185308 14.263462 
L 313.256266 13.029343 
L 304.576206 12.254832 
L 298.00513 11.847915 
L 290.685659 11.5693 
L 283.169627 11.468063 
L 275.400605 11.553735 
L 264.593158 11.983738 
L 254.128462 12.733499 
L 244.990437 13.64878 
L 234.980592 14.923943 
L 224.088636 16.629694 
L 212.697381 18.76416 
L 204.891962 20.432522 
L 197.917032 22.065 
L 187.092619 24.864523 
L 178.339747 27.36743 
L 172.88506 29.036963 
L 160.500959 33.14718 
L 150.704979 36.722398 
L 143.804388 39.419477 
L 134.614179 43.25067 
L 125.992006 47.105954 
L 117.47576 51.177471 
L 109.683172 55.148728 
L 100.96509 59.893153 
L 93.105242 64.469465 
L 87.065124 68.198534 
L 80.082502 72.764527 
L 74.124039 76.901743 
L 69.422743 80.341423 
L 63.414208 84.992078 
L 57.984095 89.476399 
L 52.199156 94.600873 
L 46.735056 99.838605 
L 42.72301 103.985521 
L 38.513066 108.677218 
L 34.843007 113.123075 
L 31.819222 117.103918 
L 28.80733 121.440633 
L 25.988409 125.951192 
L 24.326635 128.8875 
L 22.595453 132.245665 
L 20.283313 137.429297 
L 18.609935 142.015483 
L 17.419687 146.10901 
L 16.429366 150.738158 
L 15.9932 153.758575 
L 15.738979 156.601277 
L 15.646154 160.587655 
L 15.83292 164.142877 
L 16.287176 167.710662 
L 16.921913 170.867271 
L 17.663564 173.625876 
L 18.86417 177.117394 
L 20.248016 180.345595 
L 21.556122 182.930697 
L 23.69137 186.530435 
L 25.484304 189.144424 
L 27.870668 192.217824 
L 30.472581 195.178023 
L 33.832996 198.554936 
L 37.089527 201.462731 
L 41.02356 204.606797 
L 44.393 207.042705 
L 48.804175 209.941465 
L 54.15182 213.09502 
L 57.551208 214.928056 
L 62.432727 217.362306 
L 68.548557 220.129171 
L 73.481601 222.164115 
L 80.701528 224.871232 
L 80.701528 224.871232 
" clip-path="url(#p6bbfa187e9)" style="fill: none; stroke: #000000; stroke-width: 2; stroke-linecap: square"/>
   </g>
   <g id="patch_3">
    <path d="M 181.152188 26.539679 
Q 180.125193 26.840839 181.243911 26.512782 
" clip-path="url(#p6bbfa187e9)" style="fill: none; stroke: #000000; stroke-width: 2; stroke-linecap: round"/>
    <path d="M 192.246806 28.496795 
L 181.243911 26.512782 
L 189.432859 18.900874 
z
" clip-path="url(#p6bbfa187e9)" style="stroke: #000000; stroke-width: 2; stroke-linecap: round"/>
   </g>
   <g id="patch_4">
    <path d="M 411.547716 48.550592 
Q 376.05248 39.085196 342.717811 30.195951 
" clip-path="url(#p6bbfa187e9)" style="fill: none; stroke: #ff0000; stroke-width: 2; stroke-linecap: round"/>
    <path d="M 351.091848 37.603752 
L 342.717811 30.195951 
L 353.668474 27.941402 
z
" clip-path="url(#p6bbfa187e9)" style="fill: #ff0000; stroke: #ff0000; stroke-width: 2; stroke-linecap: round"/>
   </g>
   <g id="text_1">
    <!-- $P$ -->
    <g transform="translate(414.513113 35.138549) scale(0.2 -0.2)">
     <defs>
      <path id="Cmmi10-50" d="M 313 0 
Q 250 0 250 84 
Q 253 100 262 139 
Q 272 178 289 201 
Q 306 225 331 225 
Q 722 225 878 269 
Q 959 297 997 441 
L 1875 3956 
Q 1888 4019 1888 4044 
Q 1888 4113 1813 4122 
Q 1691 4147 1350 4147 
Q 1288 4147 1288 4231 
Q 1291 4247 1300 4286 
Q 1309 4325 1326 4348 
Q 1344 4372 1369 4372 
L 3578 4372 
Q 3881 4372 4165 4264 
Q 4450 4156 4631 3934 
Q 4813 3713 4813 3397 
Q 4813 2991 4527 2672 
Q 4241 2353 3814 2175 
Q 3388 1997 2988 1997 
L 1947 1997 
L 1556 416 
Q 1544 353 1544 325 
Q 1544 300 1551 283 
Q 1559 266 1573 261 
Q 1588 256 1619 250 
Q 1741 225 2081 225 
Q 2144 225 2144 141 
Q 2122 50 2109 25 
Q 2097 0 2034 0 
L 313 0 
z
M 1978 2188 
L 2875 2188 
Q 3497 2188 3822 2522 
Q 3988 2688 4092 3000 
Q 4197 3313 4197 3566 
Q 4197 3881 3956 4014 
Q 3716 4147 3359 4147 
L 2747 4147 
Q 2572 4147 2515 4117 
Q 2459 4088 2413 3928 
L 1978 2188 
z
" transform="scale(0.015625)"/>
     </defs>
     <use xlink:href="#Cmmi10-50" transform="translate(0 0.6875)"/>
    </g>
   </g>
  </g>
 </g>
 <defs>
  <clipPath id="p6bbfa187e9">
   <rect x="7.2" y="7.2" width="439.2" height="221.939296"/>
  </clipPath>
 </defs>
</svg>
