<?xml version="1.0" encoding="utf-8" standalone="no"?>
<!DOCTYPE svg PUBLIC "-//W3C//DTD SVG 1.1//EN"
  "http://www.w3.org/Graphics/SVG/1.1/DTD/svg11.dtd">
<svg xmlns:xlink="http://www.w3.org/1999/xlink" width="453.6pt" height="236.32555pt" viewBox="0 0 453.6 236.32555" xmlns="http://www.w3.org/2000/svg" version="1.1">
 <metadata>
  <rdf:RDF xmlns:dc="http://purl.org/dc/elements/1.1/" xmlns:cc="http://creativecommons.org/ns#" xmlns:rdf="http://www.w3.org/1999/02/22-rdf-syntax-ns#">
   <cc:Work>
    <dc:type rdf:resource="http://purl.org/dc/dcmitype/StillImage"/>
    <dc:date>2025-02-05T08:52:36.737215</dc:date>
    <dc:format>image/svg+xml</dc:format>
    <dc:creator>
     <cc:Agent>
      <dc:title>Matplotlib v3.6.2, https://matplotlib.org/</dc:title>
     </cc:Agent>
    </dc:creator>
   </cc:Work>
  </rdf:RDF>
 </metadata>
 <defs>
  <style type="text/css">*{stroke-linejoin: round; stroke-linecap: butt}</style>
 </defs>
 <g id="figure_1">
  <g id="patch_1">
   <path d="M 0 236.32555 
L 453.6 236.32555 
L 453.6 0 
L 0 0 
z
" style="fill: #ffffff"/>
  </g>
  <g id="axes_1">
   <g id="patch_2">
    <path d="M 7.2 229.12555 
L 446.4 229.12555 
L 446.4 7.2 
L 7.2 7.2 
z
" style="fill: #ffffff"/>
   </g>
   <g id="PathCollection_1">
    <path d="M 411.547998 51.277606 
C 412.274287 51.277606 412.970926 50.989048 413.48449 50.475485 
C 413.998054 49.961921 414.286611 49.265282 414.286611 48.538993 
C 414.286611 47.812704 413.998054 47.116065 413.48449 46.602501 
C 412.970926 46.088938 412.274287 45.80038 411.547998 45.80038 
C 410.82171 45.80038 410.12507 46.088938 409.611507 46.602501 
C 409.097943 47.116065 408.809386 47.812704 408.809386 48.538993 
C 408.809386 49.265282 409.097943 49.961921 409.611507 50.475485 
C 410.12507 50.989048 410.82171 51.277606 411.547998 51.277606 
z
" clip-path="url(#p9430cf82b4)"/>
   </g>
   <g id="matplotlib.axis_1"/>
   <g id="matplotlib.axis_2"/>
   <g id="line2d_1">
    <path d="M 437.953846 75.107459 
L 434.308525 70.383618 
L 432.173706 67.826532 
L 427.037223 62.19868 
L 424.518218 59.671949 
L 420.419525 55.840128 
L 416.944137 52.831199 
L 411.54878 48.539584 
L 406.549178 44.923408 
L 402.140588 41.987746 
L 397.612667 39.193997 
L 392.215178 36.128541 
L 385.855477 32.849532 
L 379.555354 29.920899 
L 372.998434 27.178194 
L 367.251384 25.008487 
L 358.227045 22.004191 
L 350.939737 19.907537 
L 345.797903 18.592101 
L 337.154584 16.666307 
L 328.401177 15.057281 
L 319.614231 13.764017 
L 313.557855 13.049892 
L 302.549966 12.101898 
L 295.709632 11.729759 
L 285.408927 11.467799 
L 277.761888 11.496421 
L 269.885256 11.717584 
L 260.150677 12.251506 
L 249.104031 13.196059 
L 239.586475 14.291172 
L 232.388753 15.289033 
L 227.270171 16.086541 
L 215.456872 18.203538 
L 204.906788 20.418454 
L 194.184667 22.982963 
L 183.485941 25.859178 
L 172.810458 29.049885 
L 163.6415 32.051798 
L 154.67431 35.228101 
L 148.449314 37.577193 
L 141.16122 40.482659 
L 133.265478 43.826553 
L 124.459202 47.808912 
L 114.966555 52.419828 
L 106.610468 56.773403 
L 99.388561 60.777726 
L 90.41954 66.094148 
L 80.923115 72.190074 
L 75.598981 75.846294 
L 67.940035 81.452266 
L 61.308819 86.687976 
L 56.119227 91.077703 
L 51.262657 95.460607 
L 46.226437 100.341026 
L 41.625259 105.164695 
L 38.7176 108.432695 
L 34.768804 113.210173 
L 30.969168 118.279607 
L 27.795635 122.995834 
L 25.048763 127.576922 
L 22.607458 132.217678 
L 20.692086 136.434183 
L 18.9432 141.019799 
L 17.563286 145.560983 
L 16.895944 148.341575 
L 16.28816 151.613409 
L 15.877119 154.887923 
L 15.647264 159.197834 
L 15.681712 161.698992 
L 15.865698 164.435577 
L 16.32277 167.88292 
L 16.948362 170.946672 
L 17.796074 174.0308 
L 18.754384 176.806393 
L 20.440862 180.728137 
L 21.778383 183.315714 
L 23.419432 186.085189 
L 25.362167 188.956502 
L 27.313552 191.516453 
L 30.253479 194.923887 
L 33.408226 198.133986 
L 36.02678 200.530758 
L 39.774956 203.630557 
L 44.471144 207.080559 
L 48.711543 209.867653 
L 54.505198 213.275714 
L 57.830345 215.057799 
L 64.30358 218.224616 
L 71.118778 221.194632 
L 76.410515 223.283829 
L 80.705343 224.857751 
L 80.705343 224.857751 
" clip-path="url(#p9430cf82b4)" style="fill: none; stroke: #000000; stroke-width: 2; stroke-linecap: square"/>
   </g>
   <g id="patch_3">
    <path d="M 181.15493 26.528315 
Q 180.127946 26.829472 181.246676 26.501411 
" clip-path="url(#p9430cf82b4)" style="fill: none; stroke: #000000; stroke-width: 2; stroke-linecap: round"/>
    <path d="M 192.24957 28.485424 
L 181.246676 26.501411 
L 189.435623 18.889503 
L 192.24957 28.485424 
z
" clip-path="url(#p9430cf82b4)" style="stroke: #000000; stroke-width: 2; stroke-linecap: round"/>
   </g>
   <g id="patch_4">
    <path d="M 411.547998 48.538993 
Q 376.053141 39.073698 342.718852 30.184554 
" clip-path="url(#p9430cf82b4)" style="fill: none; stroke: #ff0000; stroke-width: 2; stroke-linecap: round"/>
    <path d="M 351.092888 37.592355 
L 342.718852 30.184554 
L 353.669514 27.930006 
L 351.092888 37.592355 
z
" clip-path="url(#p9430cf82b4)" style="fill: #ff0000; stroke: #ff0000; stroke-width: 2; stroke-linecap: round"/>
   </g>
   <g id="text_1">
    <!-- $P$ -->
    <g transform="translate(414.513293 35.127153) scale(0.2 -0.2)">
     <defs>
      <path id="Cmmi10-50" d="M 313 0 
Q 250 0 250 84 
Q 253 100 262 139 
Q 272 178 289 201 
Q 306 225 331 225 
Q 722 225 878 269 
Q 959 297 997 441 
L 1875 3956 
Q 1888 4019 1888 4044 
Q 1888 4113 1813 4122 
Q 1691 4147 1350 4147 
Q 1288 4147 1288 4231 
Q 1291 4247 1300 4286 
Q 1309 4325 1326 4348 
Q 1344 4372 1369 4372 
L 3578 4372 
Q 3881 4372 4165 4264 
Q 4450 4156 4631 3934 
Q 4813 3713 4813 3397 
Q 4813 2991 4527 2672 
Q 4241 2353 3814 2175 
Q 3388 1997 2988 1997 
L 1947 1997 
L 1556 416 
Q 1544 353 1544 325 
Q 1544 300 1551 283 
Q 1559 266 1573 261 
Q 1588 256 1619 250 
Q 1741 225 2081 225 
Q 2144 225 2144 141 
Q 2122 50 2109 25 
Q 2097 0 2034 0 
L 313 0 
z
M 1978 2188 
L 2875 2188 
Q 3497 2188 3822 2522 
Q 3988 2688 4092 3000 
Q 4197 3313 4197 3566 
Q 4197 3881 3956 4014 
Q 3716 4147 3359 4147 
L 2747 4147 
Q 2572 4147 2515 4117 
Q 2459 4088 2413 3928 
L 1978 2188 
z
" transform="scale(0.015625)"/>
     </defs>
     <use xlink:href="#Cmmi10-50" transform="translate(0 0.6875)"/>
    </g>
   </g>
  </g>
 </g>
 <defs>
  <clipPath id="p9430cf82b4">
   <rect x="7.2" y="7.2" width="439.2" height="221.92555"/>
  </clipPath>
 </defs>
</svg>
