<?xml version="1.0" encoding="utf-8" standalone="no"?>
<!DOCTYPE svg PUBLIC "-//W3C//DTD SVG 1.1//EN"
  "http://www.w3.org/Graphics/SVG/1.1/DTD/svg11.dtd">
<svg xmlns:xlink="http://www.w3.org/1999/xlink" width="453.6pt" height="329.764647pt" viewBox="0 0 453.6 329.764647" xmlns="http://www.w3.org/2000/svg" version="1.1">
 <metadata>
  <rdf:RDF xmlns:dc="http://purl.org/dc/elements/1.1/" xmlns:cc="http://creativecommons.org/ns#" xmlns:rdf="http://www.w3.org/1999/02/22-rdf-syntax-ns#">
   <cc:Work>
    <dc:type rdf:resource="http://purl.org/dc/dcmitype/StillImage"/>
    <dc:date>2025-02-05T12:02:56.747979</dc:date>
    <dc:format>image/svg+xml</dc:format>
    <dc:creator>
     <cc:Agent>
      <dc:title>Matplotlib v3.8.0, https://matplotlib.org/</dc:title>
     </cc:Agent>
    </dc:creator>
   </cc:Work>
  </rdf:RDF>
 </metadata>
 <defs>
  <style type="text/css">*{stroke-linejoin: round; stroke-linecap: butt}</style>
 </defs>
 <g id="figure_1">
  <g id="patch_1">
   <path d="M 0 329.764647 
L 453.6 329.764647 
L 453.6 0 
L 0 0 
z
" style="fill: #ffffff"/>
  </g>
  <g id="axes_1">
   <g id="patch_2">
    <path d="M 7.2 322.564647 
L 446.4 322.564647 
L 446.4 7.2 
L 7.2 7.2 
z
" style="fill: #ffffff"/>
   </g>
   <g id="PathCollection_1">
    <path d="M 230.710517 134.535135 
C 231.436805 134.535135 232.133445 134.246577 232.647008 133.733014 
C 233.160572 133.21945 233.44913 132.522811 233.44913 131.796522 
C 233.44913 131.070234 233.160572 130.373594 232.647008 129.86003 
C 232.133445 129.346467 231.436805 129.057909 230.710517 129.057909 
C 229.984228 129.057909 229.287589 129.346467 228.774025 129.86003 
C 228.260462 130.373594 227.971904 131.070234 227.971904 131.796522 
C 227.971904 132.522811 228.260462 133.21945 228.774025 133.733014 
C 229.287589 134.246577 229.984228 134.535135 230.710517 134.535135 
z
" clip-path="url(#p7b83252e25)"/>
   </g>
   <g id="matplotlib.axis_1"/>
   <g id="matplotlib.axis_2"/>
   <g id="line2d_1">
    <path d="M 15.646154 316.499943 
L 15.760351 306.126395 
L 16.0758 298.448832 
L 16.643871 291.227481 
L 17.407641 284.9848 
L 18.307312 279.614028 
L 19.530457 273.973068 
L 20.914177 268.864646 
L 22.466256 264.098929 
L 24.303638 259.306622 
L 26.295933 254.816945 
L 28.694724 250.093279 
L 30.61716 246.705575 
L 33.700951 241.823238 
L 36.337888 238.065707 
L 39.76461 233.62401 
L 42.910703 229.895154 
L 46.184952 226.30024 
L 50.082224 222.332718 
L 54.30885 218.344509 
L 59.601991 213.72622 
L 62.917509 211.011913 
L 69.44947 205.998278 
L 75.714866 201.53777 
L 82.144645 197.252713 
L 89.887704 192.419644 
L 98.069145 187.63687 
L 105.444288 183.565325 
L 115.15442 178.497079 
L 123.686529 174.277519 
L 133.630046 169.594395 
L 144.468813 164.735245 
L 157.264624 159.277274 
L 168.47579 154.70519 
L 185.012462 148.259195 
L 200.455163 142.504821 
L 215.969284 136.933017 
L 238.553745 129.11554 
L 262.255842 121.183308 
L 299.818853 108.919464 
L 338.98913 96.09088 
L 359.378742 89.164368 
L 374.113078 83.928354 
L 385.142496 79.808211 
L 396.587624 75.259805 
L 404.201441 72.010051 
L 410.658292 69.050978 
L 416.49048 66.149991 
L 421.332952 63.502403 
L 425.494762 60.967166 
L 429.085192 58.477567 
L 431.524201 56.527716 
L 433.525395 54.664649 
L 435.432616 52.48073 
L 436.397804 51.068799 
L 437.258638 49.381748 
L 437.683797 48.121412 
L 437.919955 46.79953 
L 437.912468 45.264629 
L 437.665933 43.990532 
L 437.261129 42.869716 
L 436.714417 41.816393 
L 435.744869 40.436207 
L 434.218277 38.810329 
L 432.220819 37.158934 
L 430.326428 35.865427 
L 428.120938 34.567301 
L 424.555771 32.776916 
L 420.760999 31.148877 
L 416.366072 29.504834 
L 411.76145 27.980816 
L 406.032559 26.292056 
L 398.226077 24.261988 
L 389.93298 22.35692 
L 380.591702 20.441352 
L 369.343979 18.379487 
L 357.346127 16.405882 
L 342.896651 14.267372 
L 335.574683 13.264705 
L 335.574683 13.264705 
" clip-path="url(#p7b83252e25)" style="fill: none; stroke: #000000; stroke-width: 2; stroke-linecap: square"/>
   </g>
   <g id="patch_3">
    <path d="M 230.710517 131.796522 
Q 307.326498 105.444587 381.827988 79.819927 
" clip-path="url(#p7b83252e25)" style="fill: none; stroke: #800080; stroke-width: 2; stroke-linecap: round"/>
    <path d="M 370.745462 78.344257 
L 381.827988 79.819927 
L 373.997936 87.800547 
z
" clip-path="url(#p7b83252e25)" style="fill: #800080; stroke: #800080; stroke-width: 2; stroke-linecap: round"/>
   </g>
   <g id="patch_4">
    <path d="M 230.710517 131.796522 
Q 257.062452 208.412503 282.687111 282.913994 
" clip-path="url(#p7b83252e25)" style="fill: none; stroke: #ff0000; stroke-width: 2; stroke-linecap: round"/>
    <path d="M 284.162782 271.831467 
L 282.687111 282.913994 
L 274.706492 275.083941 
z
" clip-path="url(#p7b83252e25)" style="fill: #ff0000; stroke: #ff0000; stroke-width: 2; stroke-linecap: round"/>
   </g>
   <g id="patch_5">
    <path d="M 230.710517 131.796522 
Q 276.337287 116.103273 319.849567 101.137299 
" clip-path="url(#p7b83252e25)" style="fill: none; stroke: #0000ff; stroke-width: 2; stroke-linecap: round"/>
    <path d="M 308.767041 99.661629 
L 319.849567 101.137299 
L 312.019515 109.117918 
z
" clip-path="url(#p7b83252e25)" style="fill: #0000ff; stroke: #0000ff; stroke-width: 2; stroke-linecap: round"/>
   </g>
   <g id="patch_6">
    <path d="M 230.710517 131.796522 
Q 244.369167 171.50787 257.300541 209.104727 
" clip-path="url(#p7b83252e25)" style="fill: none; stroke: #ffa500; stroke-width: 2; stroke-linecap: round"/>
    <path d="M 258.776211 198.022201 
L 257.300541 209.104727 
L 249.319922 201.274675 
z
" clip-path="url(#p7b83252e25)" style="fill: #ffa500; stroke: #ffa500; stroke-width: 2; stroke-linecap: round"/>
   </g>
   <g id="patch_7">
    <path d="M 230.710517 131.796522 
Q 289.995937 155.814621 347.208904 178.993113 
" clip-path="url(#p7b83252e25)" style="fill: none; stroke: #008000; stroke-width: 2; stroke-linecap: round"/>
    <path d="M 339.818028 170.604136 
L 347.208904 178.993113 
L 336.063197 179.872428 
z
" clip-path="url(#p7b83252e25)" style="fill: #008000; stroke: #008000; stroke-width: 2; stroke-linecap: round"/>
   </g>
  </g>
 </g>
 <defs>
  <clipPath id="p7b83252e25">
   <rect x="7.2" y="7.2" width="439.2" height="315.364647"/>
  </clipPath>
 </defs>
</svg>
