<?xml version="1.0" encoding="utf-8" standalone="no"?>
<!DOCTYPE svg PUBLIC "-//W3C//DTD SVG 1.1//EN"
  "http://www.w3.org/Graphics/SVG/1.1/DTD/svg11.dtd">
<svg xmlns:xlink="http://www.w3.org/1999/xlink" width="453.6pt" height="236.335982pt" viewBox="0 0 453.6 236.335982" xmlns="http://www.w3.org/2000/svg" version="1.1">
 <metadata>
  <rdf:RDF xmlns:dc="http://purl.org/dc/elements/1.1/" xmlns:cc="http://creativecommons.org/ns#" xmlns:rdf="http://www.w3.org/1999/02/22-rdf-syntax-ns#">
   <cc:Work>
    <dc:type rdf:resource="http://purl.org/dc/dcmitype/StillImage"/>
    <dc:date>2025-02-05T12:08:37.916310</dc:date>
    <dc:format>image/svg+xml</dc:format>
    <dc:creator>
     <cc:Agent>
      <dc:title>Matplotlib v3.8.0, https://matplotlib.org/</dc:title>
     </cc:Agent>
    </dc:creator>
   </cc:Work>
  </rdf:RDF>
 </metadata>
 <defs>
  <style type="text/css">*{stroke-linejoin: round; stroke-linecap: butt}</style>
 </defs>
 <g id="figure_1">
  <g id="patch_1">
   <path d="M 0 236.335982 
L 453.6 236.335982 
L 453.6 0 
L 0 0 
z
" style="fill: #ffffff"/>
  </g>
  <g id="axes_1">
   <g id="patch_2">
    <path d="M 7.2 229.135982 
L 446.4 229.135982 
L 446.4 7.2 
L 7.2 7.2 
z
" style="fill: #ffffff"/>
   </g>
   <g id="PathCollection_1">
    <path d="M 20.708643 139.147527 
C 21.434932 139.147527 22.131571 138.858969 22.645135 138.345406 
C 23.158699 137.831842 23.447256 137.135203 23.447256 136.408914 
C 23.447256 135.682625 23.158699 134.985986 22.645135 134.472422 
C 22.131571 133.958859 21.434932 133.670301 20.708643 133.670301 
C 19.982355 133.670301 19.285715 133.958859 18.772152 134.472422 
C 18.258588 134.985986 17.970031 135.682625 17.970031 136.408914 
C 17.970031 137.135203 18.258588 137.831842 18.772152 138.345406 
C 19.285715 138.858969 19.982355 139.147527 20.708643 139.147527 
z
" clip-path="url(#p7a4bd3f9b7)"/>
   </g>
   <g id="matplotlib.axis_1"/>
   <g id="matplotlib.axis_2"/>
   <g id="line2d_1">
    <path d="M 437.953846 75.118234 
L 434.499645 70.630376 
L 431.595656 67.168589 
L 428.634748 63.887313 
L 424.932355 60.088636 
L 422.371232 57.634858 
L 417.856194 53.611867 
L 412.917465 49.598565 
L 408.680536 46.436471 
L 402.754112 42.393873 
L 399.190881 40.154461 
L 392.925857 36.52751 
L 385.691887 32.780446 
L 379.215046 29.78199 
L 372.540886 27.008549 
L 365.411349 24.368096 
L 359.688701 22.470033 
L 351.52208 20.075764 
L 345.696075 18.578263 
L 339.297101 17.122394 
L 332.710065 15.818884 
L 323.927061 14.37074 
L 319.419141 13.749748 
L 311.273462 12.827631 
L 301.48688 12.044367 
L 294.249907 11.68211 
L 285.595768 11.480445 
L 275.798083 11.544605 
L 267.939196 11.812573 
L 259.588602 12.302008 
L 249.085282 13.209032 
L 242.373596 13.95495 
L 230.896835 15.525076 
L 223.516111 16.728705 
L 214.351826 18.432351 
L 204.915209 20.427728 
L 193.399164 23.194502 
L 183.64314 25.825819 
L 175.160492 28.330898 
L 164.894813 31.638231 
L 156.130445 34.70712 
L 148.443053 37.590935 
L 140.692034 40.686921 
L 134.137171 43.458452 
L 123.743089 48.156364 
L 112.661595 53.603602 
L 103.852484 58.286593 
L 97.218525 62.039282 
L 89.767783 66.508027 
L 82.64375 71.058413 
L 76.668871 75.108335 
L 68.735825 80.860831 
L 63.392204 85.012721 
L 58.554927 88.994415 
L 53.963566 92.999564 
L 49.462671 97.174323 
L 44.25301 102.374698 
L 40.084254 106.885355 
L 36.374811 111.226949 
L 32.76074 115.834955 
L 29.72711 120.07722 
L 27.277603 123.831955 
L 24.519152 128.543394 
L 22.837598 131.763942 
L 20.831077 136.119209 
L 19.550011 139.33554 
L 18.384506 142.736929 
L 17.439601 146.052517 
L 16.424238 150.800986 
L 15.953753 154.160493 
L 15.689795 157.66127 
L 15.671622 161.384049 
L 15.868677 164.461118 
L 16.136683 166.697443 
L 16.820453 170.400408 
L 17.474136 172.957313 
L 18.583088 176.354526 
L 19.684576 179.089763 
L 21.051317 181.961002 
L 23.047572 185.497367 
L 24.975872 188.42259 
L 27.397635 191.629279 
L 29.467297 194.066082 
L 32.391716 197.151033 
L 35.798337 200.338991 
L 39.883837 203.724768 
L 43.681975 206.539095 
L 48.345218 209.646917 
L 52.553565 212.183085 
L 58.208118 215.262695 
L 63.951418 218.071235 
L 69.967389 220.725863 
L 76.423795 223.298598 
L 80.706639 224.867982 
L 80.706639 224.867982 
" clip-path="url(#p7a4bd3f9b7)" style="fill: none; stroke: #000000; stroke-width: 2; stroke-linecap: square"/>
   </g>
   <g id="patch_3">
    <path d="M 181.155862 26.539267 
Q 180.128882 26.840423 181.247615 26.512361 
" clip-path="url(#p7a4bd3f9b7)" style="fill: none; stroke: #000000; stroke-width: 2; stroke-linecap: round"/>
    <path d="M 192.25051 28.496374 
L 181.247615 26.512361 
L 189.436563 18.900453 
z
" clip-path="url(#p7a4bd3f9b7)" style="stroke: #000000; stroke-width: 2; stroke-linecap: round"/>
   </g>
   <g id="text_1">
    <!-- $Q$ -->
    <g transform="translate(31.639165 151.392925) scale(0.2 -0.2)">
     <defs>
      <path id="Cmmi10-51" d="M 1947 -141 
Q 1466 -141 1094 79 
Q 722 300 520 692 
Q 319 1084 319 1563 
Q 319 2259 714 2950 
Q 1109 3641 1756 4077 
Q 2403 4513 3109 4513 
Q 3475 4513 3778 4381 
Q 4081 4250 4290 4017 
Q 4500 3784 4614 3471 
Q 4728 3159 4728 2791 
Q 4728 2366 4581 1936 
Q 4434 1506 4171 1136 
Q 3909 766 3559 484 
Q 3209 203 2809 38 
Q 2850 -256 2934 -425 
Q 3019 -594 3256 -594 
Q 3506 -594 3726 -412 
Q 3947 -231 4006 13 
Q 4019 72 4078 72 
Q 4147 72 4147 -13 
Q 4100 -219 4008 -430 
Q 3916 -641 3786 -823 
Q 3656 -1006 3478 -1123 
Q 3300 -1241 3084 -1241 
Q 2547 -1241 2547 -550 
Q 2547 -509 2562 -332 
Q 2578 -156 2578 -44 
Q 2269 -141 1947 -141 
z
M 1709 300 
Q 1709 44 1991 44 
Q 2275 44 2591 184 
L 2591 244 
Q 2591 503 2509 648 
Q 2428 794 2194 794 
Q 2078 794 1964 723 
Q 1850 653 1779 539 
Q 1709 425 1709 300 
z
M 1544 288 
Q 1544 456 1637 612 
Q 1731 769 1881 864 
Q 2031 959 2203 959 
Q 2481 959 2607 771 
Q 2734 584 2778 281 
Q 3188 525 3500 978 
Q 3813 1431 3977 1973 
Q 4141 2516 4141 3003 
Q 4141 3356 4023 3656 
Q 3906 3956 3664 4140 
Q 3422 4325 3066 4325 
Q 2722 4325 2403 4156 
Q 2084 3988 1813 3706 
Q 1550 3434 1342 3032 
Q 1134 2631 1021 2193 
Q 909 1756 909 1356 
Q 909 947 1068 612 
Q 1228 278 1569 128 
Q 1544 194 1544 288 
z
" transform="scale(0.015625)"/>
     </defs>
     <use xlink:href="#Cmmi10-51" transform="translate(0 0.484375)"/>
    </g>
   </g>
  </g>
 </g>
 <defs>
  <clipPath id="p7a4bd3f9b7">
   <rect x="7.2" y="7.2" width="439.2" height="221.935982"/>
  </clipPath>
 </defs>
</svg>
