<?xml version="1.0" encoding="utf-8" standalone="no"?>
<!DOCTYPE svg PUBLIC "-//W3C//DTD SVG 1.1//EN"
  "http://www.w3.org/Graphics/SVG/1.1/DTD/svg11.dtd">
<svg xmlns:xlink="http://www.w3.org/1999/xlink" width="452.644161pt" height="225.132178pt" viewBox="0 0 452.644161 225.132178" xmlns="http://www.w3.org/2000/svg" version="1.1">
 <metadata>
  <rdf:RDF xmlns:dc="http://purl.org/dc/elements/1.1/" xmlns:cc="http://creativecommons.org/ns#" xmlns:rdf="http://www.w3.org/1999/02/22-rdf-syntax-ns#">
   <cc:Work>
    <dc:type rdf:resource="http://purl.org/dc/dcmitype/StillImage"/>
    <dc:date>2025-02-05T13:30:23.618966</dc:date>
    <dc:format>image/svg+xml</dc:format>
    <dc:creator>
     <cc:Agent>
      <dc:title>Matplotlib v3.8.0, https://matplotlib.org/</dc:title>
     </cc:Agent>
    </dc:creator>
   </cc:Work>
  </rdf:RDF>
 </metadata>
 <defs>
  <style type="text/css">*{stroke-linejoin: round; stroke-linecap: butt}</style>
 </defs>
 <g id="figure_1">
  <g id="patch_1">
   <path d="M 0 225.132178 
L 452.644161 225.132178 
L 452.644161 -0 
L 0 -0 
z
" style="fill: #ffffff"/>
  </g>
  <g id="axes_1">
   <g id="patch_2">
    <path d="M 10.944232 217.932178 
L 445.444161 217.932178 
L 445.444161 7.2 
L 10.944232 7.2 
z
" style="fill: #ffffff"/>
   </g>
   <g id="PathCollection_1">
    <path d="M 40.896684 133.419598 
C 41.834319 133.419598 42.733677 133.047072 43.396684 132.384064 
C 44.059692 131.721056 44.432218 130.821698 44.432218 129.884064 
C 44.432218 128.946429 44.059692 128.047072 43.396684 127.384064 
C 42.733677 126.721056 41.834319 126.34853 40.896684 126.34853 
C 39.95905 126.34853 39.059692 126.721056 38.396684 127.384064 
C 37.733677 128.047072 37.361151 128.946429 37.361151 129.884064 
C 37.361151 130.821698 37.733677 131.721056 38.396684 132.384064 
C 39.059692 133.047072 39.95905 133.419598 40.896684 133.419598 
z
" clip-path="url(#pea8a007e52)"/>
   </g>
   <g id="PathCollection_2">
    <path d="M 37.275319 166.003249 
C 38.212954 166.003249 39.112311 165.630723 39.775319 164.967715 
C 40.438327 164.304707 40.810853 163.405349 40.810853 162.467715 
C 40.810853 161.53008 40.438327 160.630723 39.775319 159.967715 
C 39.112311 159.304707 38.212954 158.932181 37.275319 158.932181 
C 36.337685 158.932181 35.438327 159.304707 34.775319 159.967715 
C 34.112311 160.630723 33.739785 161.53008 33.739785 162.467715 
C 33.739785 163.405349 34.112311 164.304707 34.775319 164.967715 
C 35.438327 165.630723 36.337685 166.003249 37.275319 166.003249 
z
" clip-path="url(#pea8a007e52)"/>
   </g>
   <g id="matplotlib.axis_1"/>
   <g id="matplotlib.axis_2"/>
   <g id="line2d_1">
    <path d="M 437.088394 71.686009 
L 433.582478 67.145717 
L 430.523744 63.536033 
L 426.574782 59.276405 
L 422.631215 55.402262 
L 418.317955 51.532333 
L 414.051706 48.029221 
L 410.820095 45.56479 
L 406.539353 42.52415 
L 400.527473 38.636849 
L 397.623038 36.90305 
L 391.373824 33.458124 
L 386.078181 30.816614 
L 380.14762 28.130879 
L 375.418476 26.178401 
L 369.374676 23.908024 
L 361.326361 21.244498 
L 352.358394 18.717301 
L 343.826971 16.705688 
L 337.978825 15.531443 
L 328.546595 13.964463 
L 321.41887 13.032448 
L 314.575859 12.330498 
L 305.727534 11.689204 
L 298.761082 11.386323 
L 291.530827 11.252542 
L 281.590147 11.357523 
L 274.987337 11.606004 
L 264.967615 12.24684 
L 255.047467 13.186087 
L 246.932361 14.17461 
L 237.362957 15.590314 
L 227.172008 17.391751 
L 219.509743 18.944327 
L 208.659807 21.433299 
L 197.255533 24.418498 
L 187.624705 27.238113 
L 178.358258 30.214716 
L 168.219321 33.776514 
L 157.7645 37.796311 
L 149.178903 41.373953 
L 138.719496 46.090561 
L 128.20386 51.26004 
L 124.398674 53.244381 
L 114.713016 58.592148 
L 107.284159 63.008913 
L 101.760148 66.490387 
L 94.802486 71.142466 
L 89.056304 75.236405 
L 83.582553 79.377852 
L 77.925857 83.942907 
L 71.780023 89.291537 
L 65.99004 94.784213 
L 60.764699 100.220551 
L 56.740547 104.806206 
L 52.87271 109.642669 
L 50.299933 113.162618 
L 47.635673 117.144988 
L 44.624956 122.215241 
L 42.605871 126.109933 
L 40.90959 129.853372 
L 39.302724 134.037573 
L 37.944564 138.459811 
L 37.023249 142.475742 
L 36.481851 145.88548 
L 36.116429 150.452972 
L 36.13029 154.042167 
L 36.40731 157.513804 
L 36.913071 160.768836 
L 37.69871 164.135724 
L 38.713474 167.358658 
L 39.840604 170.21903 
L 41.201212 173.097113 
L 43.230225 176.677803 
L 44.967429 179.299954 
L 47.668556 182.83277 
L 50.307476 185.828487 
L 52.804563 188.358132 
L 55.99402 191.258079 
L 59.941308 194.447964 
L 63.692294 197.158514 
L 67.816859 199.850955 
L 71.938787 202.293959 
L 76.212477 204.608372 
L 81.99134 207.441548 
L 88.123538 210.136059 
L 93.7912 212.385902 
L 97.867282 213.879636 
L 97.867282 213.879636 
" clip-path="url(#pea8a007e52)" style="fill: none; stroke: #000000; stroke-width: 2; stroke-linecap: square"/>
   </g>
   <g id="patch_3">
    <path d="M 193.248006 25.558255 
Q 192.272845 25.844215 193.443398 25.500957 
" clip-path="url(#pea8a007e52)" style="fill: none; stroke: #000000; stroke-width: 2; stroke-linecap: round"/>
    <path d="M 204.446293 27.48497 
L 193.443398 25.500957 
L 201.632345 17.889049 
z
" clip-path="url(#pea8a007e52)" style="stroke: #000000; stroke-width: 2; stroke-linecap: round"/>
   </g>
   <g id="text_1">
    <!-- $Q_0$ -->
    <g transform="translate(19.809025 117.427495) scale(0.2 -0.2)">
     <defs>
      <path id="Cmmi10-51" d="M 1947 -141 
Q 1466 -141 1094 79 
Q 722 300 520 692 
Q 319 1084 319 1563 
Q 319 2259 714 2950 
Q 1109 3641 1756 4077 
Q 2403 4513 3109 4513 
Q 3475 4513 3778 4381 
Q 4081 4250 4290 4017 
Q 4500 3784 4614 3471 
Q 4728 3159 4728 2791 
Q 4728 2366 4581 1936 
Q 4434 1506 4171 1136 
Q 3909 766 3559 484 
Q 3209 203 2809 38 
Q 2850 -256 2934 -425 
Q 3019 -594 3256 -594 
Q 3506 -594 3726 -412 
Q 3947 -231 4006 13 
Q 4019 72 4078 72 
Q 4147 72 4147 -13 
Q 4100 -219 4008 -430 
Q 3916 -641 3786 -823 
Q 3656 -1006 3478 -1123 
Q 3300 -1241 3084 -1241 
Q 2547 -1241 2547 -550 
Q 2547 -509 2562 -332 
Q 2578 -156 2578 -44 
Q 2269 -141 1947 -141 
z
M 1709 300 
Q 1709 44 1991 44 
Q 2275 44 2591 184 
L 2591 244 
Q 2591 503 2509 648 
Q 2428 794 2194 794 
Q 2078 794 1964 723 
Q 1850 653 1779 539 
Q 1709 425 1709 300 
z
M 1544 288 
Q 1544 456 1637 612 
Q 1731 769 1881 864 
Q 2031 959 2203 959 
Q 2481 959 2607 771 
Q 2734 584 2778 281 
Q 3188 525 3500 978 
Q 3813 1431 3977 1973 
Q 4141 2516 4141 3003 
Q 4141 3356 4023 3656 
Q 3906 3956 3664 4140 
Q 3422 4325 3066 4325 
Q 2722 4325 2403 4156 
Q 2084 3988 1813 3706 
Q 1550 3434 1342 3032 
Q 1134 2631 1021 2193 
Q 909 1756 909 1356 
Q 909 947 1068 612 
Q 1228 278 1569 128 
Q 1544 194 1544 288 
z
" transform="scale(0.015625)"/>
      <path id="Cmr10-30" d="M 1600 -141 
Q 816 -141 533 504 
Q 250 1150 250 2041 
Q 250 2597 351 3087 
Q 453 3578 754 3920 
Q 1056 4263 1600 4263 
Q 2022 4263 2290 4056 
Q 2559 3850 2700 3523 
Q 2841 3197 2892 2823 
Q 2944 2450 2944 2041 
Q 2944 1491 2842 1011 
Q 2741 531 2444 195 
Q 2147 -141 1600 -141 
z
M 1600 25 
Q 1956 25 2131 390 
Q 2306 756 2347 1200 
Q 2388 1644 2388 2144 
Q 2388 2625 2347 3031 
Q 2306 3438 2132 3767 
Q 1959 4097 1600 4097 
Q 1238 4097 1063 3765 
Q 888 3434 847 3029 
Q 806 2625 806 2144 
Q 806 1788 823 1472 
Q 841 1156 916 820 
Q 991 484 1158 254 
Q 1325 25 1600 25 
z
" transform="scale(0.015625)"/>
     </defs>
     <use xlink:href="#Cmmi10-51" transform="translate(0 0.484375)"/>
     <use xlink:href="#Cmr10-30" transform="translate(79.003906 -16.521875) scale(0.7)"/>
    </g>
   </g>
   <g id="text_2">
    <!-- $Q_1$ -->
    <g transform="translate(7.2 158.998805) scale(0.2 -0.2)">
     <defs>
      <path id="Cmr10-31" d="M 594 0 
L 594 225 
Q 1394 225 1394 428 
L 1394 3788 
Q 1063 3628 556 3628 
L 556 3853 
Q 1341 3853 1741 4263 
L 1831 4263 
Q 1853 4263 1873 4245 
Q 1894 4228 1894 4206 
L 1894 428 
Q 1894 225 2694 225 
L 2694 0 
L 594 0 
z
" transform="scale(0.015625)"/>
     </defs>
     <use xlink:href="#Cmmi10-51" transform="translate(0 0.484375)"/>
     <use xlink:href="#Cmr10-31" transform="translate(79.003906 -16.521875) scale(0.7)"/>
    </g>
   </g>
  </g>
 </g>
 <defs>
  <clipPath id="pea8a007e52">
   <rect x="10.944232" y="7.2" width="434.499929" height="210.732178"/>
  </clipPath>
 </defs>
</svg>
