<?xml version="1.0" encoding="utf-8" standalone="no"?>
<!DOCTYPE svg PUBLIC "-//W3C//DTD SVG 1.1//EN"
  "http://www.w3.org/Graphics/SVG/1.1/DTD/svg11.dtd">
<svg xmlns:xlink="http://www.w3.org/1999/xlink" width="348.072571pt" height="338.0025pt" viewBox="0 0 348.072571 338.0025" xmlns="http://www.w3.org/2000/svg" version="1.1">
 <metadata>
  <rdf:RDF xmlns:dc="http://purl.org/dc/elements/1.1/" xmlns:cc="http://creativecommons.org/ns#" xmlns:rdf="http://www.w3.org/1999/02/22-rdf-syntax-ns#">
   <cc:Work>
    <dc:type rdf:resource="http://purl.org/dc/dcmitype/StillImage"/>
    <dc:date>2025-02-05T13:27:17.211100</dc:date>
    <dc:format>image/svg+xml</dc:format>
    <dc:creator>
     <cc:Agent>
      <dc:title>Matplotlib v3.8.0, https://matplotlib.org/</dc:title>
     </cc:Agent>
    </dc:creator>
   </cc:Work>
  </rdf:RDF>
 </metadata>
 <defs>
  <style type="text/css">*{stroke-linejoin: round; stroke-linecap: butt}</style>
 </defs>
 <g id="figure_1">
  <g id="patch_1">
   <path d="M -0 338.0025 
L 348.072571 338.0025 
L 348.072571 0 
L -0 0 
z
" style="fill: #ffffff"/>
  </g>
  <g id="axes_1">
   <g id="patch_2">
    <path d="M 7.2 330.8025 
L 327.732571 330.8025 
L 327.732571 23.4425 
L 7.2 23.4425 
z
" style="fill: #ffffff"/>
   </g>
   <g id="Quiver_1">
    <path d="M 34.473978 308.644884 
L 20.236766 308.644884 
L 20.877831 310.568079 
L 14.46718 308.003819 
L 20.877831 305.439558 
L 20.236766 307.362754 
L 34.473978 307.362754 
L 34.473978 308.644884 
" clip-path="url(#p71c6c163ba)" style="fill: #0000ff"/>
    <path d="M 34.473978 289.947553 
L 23.09488 289.947553 
L 23.735945 291.870748 
L 17.325294 289.306487 
L 23.735945 286.742227 
L 23.09488 288.665422 
L 34.473978 288.665422 
L 34.473978 289.947553 
" clip-path="url(#p71c6c163ba)" style="fill: #0000ff"/>
    <path d="M 34.473978 271.250221 
L 25.952994 271.250221 
L 26.594059 273.173417 
L 20.183408 270.609156 
L 26.594059 268.044896 
L 25.952994 269.968091 
L 34.473978 269.968091 
L 34.473978 271.250221 
" clip-path="url(#p71c6c163ba)" style="fill: #0000ff"/>
    <path d="M 34.473978 252.55289 
L 28.811108 252.55289 
L 29.452173 254.476086 
L 23.041522 251.911825 
L 29.452173 249.347564 
L 28.811108 251.27076 
L 34.473978 251.27076 
L 34.473978 252.55289 
" clip-path="url(#p71c6c163ba)" style="fill: #0000ff"/>
    <path d="M 34.473978 233.855559 
L 31.669222 233.855559 
L 32.310287 235.778754 
L 25.899636 233.214494 
L 32.310287 230.650233 
L 31.669222 232.573429 
L 34.473978 232.573429 
L 34.473978 233.855559 
" clip-path="url(#p71c6c163ba)" style="fill: #0000ff"/>
    <path d="M 34.473978 215.088785 
L 33.902355 215.088785 
L 34.473978 216.803654 
L 28.75775 214.517162 
L 34.473978 212.230671 
L 33.902355 213.94554 
L 34.473978 213.94554 
L 34.473978 215.088785 
" clip-path="url(#p71c6c163ba)" style="fill: #0000ff"/>
    <path d="M 34.473978 196.105643 
L 34.188167 196.105643 
L 34.473978 196.963077 
L 31.615864 195.819831 
L 34.473978 194.676586 
L 34.188167 195.53402 
L 34.473978 195.53402 
L 34.473978 196.105643 
" clip-path="url(#p71c6c163ba)" style="fill: #0000ff"/>
    <path d="M 35.115043 177.1225 
L 34.794511 176.567321 
L 34.153445 176.567321 
L 33.832913 177.1225 
L 34.153445 177.677679 
L 34.794511 177.677679 
L 35.115043 177.1225 
L 34.794511 176.567321 
" clip-path="url(#p71c6c163ba)" style="fill: #0000ff"/>
    <path d="M 34.473978 158.139357 
L 34.759789 158.139357 
L 34.473978 157.281923 
L 37.332092 158.425169 
L 34.473978 159.568414 
L 34.759789 158.71098 
L 34.473978 158.71098 
L 34.473978 158.139357 
" clip-path="url(#p71c6c163ba)" style="fill: #0000ff"/>
    <path d="M 34.473978 139.156215 
L 35.045601 139.156215 
L 34.473978 137.441346 
L 40.190206 139.727838 
L 34.473978 142.014329 
L 35.045601 140.29946 
L 34.473978 140.29946 
L 34.473978 139.156215 
" clip-path="url(#p71c6c163ba)" style="fill: #0000ff"/>
    <path d="M 34.473978 120.389441 
L 37.278734 120.389441 
L 36.637669 118.466246 
L 43.04832 121.030506 
L 36.637669 123.594767 
L 37.278734 121.671571 
L 34.473978 121.671571 
L 34.473978 120.389441 
" clip-path="url(#p71c6c163ba)" style="fill: #0000ff"/>
    <path d="M 34.473978 101.69211 
L 40.136848 101.69211 
L 39.495783 99.768914 
L 45.906434 102.333175 
L 39.495783 104.897436 
L 40.136848 102.97424 
L 34.473978 102.97424 
L 34.473978 101.69211 
" clip-path="url(#p71c6c163ba)" style="fill: #0000ff"/>
    <path d="M 34.473978 82.994779 
L 42.994962 82.994779 
L 42.353897 81.071583 
L 48.764548 83.635844 
L 42.353897 86.200104 
L 42.994962 84.276909 
L 34.473978 84.276909 
L 34.473978 82.994779 
" clip-path="url(#p71c6c163ba)" style="fill: #0000ff"/>
    <path d="M 34.473978 64.297447 
L 45.853076 64.297447 
L 45.212011 62.374252 
L 51.622662 64.938513 
L 45.212011 67.502773 
L 45.853076 65.579578 
L 34.473978 65.579578 
L 34.473978 64.297447 
" clip-path="url(#p71c6c163ba)" style="fill: #0000ff"/>
    <path d="M 34.473978 45.600116 
L 48.71119 45.600116 
L 48.070125 43.676921 
L 54.480776 46.241181 
L 48.070125 48.805442 
L 48.71119 46.882246 
L 34.473978 46.882246 
L 34.473978 45.600116 
" clip-path="url(#p71c6c163ba)" style="fill: #0000ff"/>
    <path d="M 53.323747 308.638701 
L 39.030892 306.639183 
L 39.399322 308.632648 
L 33.405767 305.20494 
L 40.109864 303.553588 
L 39.208528 305.369418 
L 53.501383 307.368936 
L 53.323747 308.638701 
" clip-path="url(#p71c6c163ba)" style="fill: #0000ff"/>
    <path d="M 53.309302 289.939181 
L 41.85486 288.069674 
L 42.177763 290.071018 
L 36.263881 286.507609 
L 43.003871 285.009469 
L 42.061387 286.804287 
L 53.515829 288.673794 
L 53.309302 289.939181 
" clip-path="url(#p71c6c163ba)" style="fill: #0000ff"/>
    <path d="M 53.28935 271.238269 
L 44.660793 269.548323 
L 44.920261 271.558876 
L 39.121995 267.810278 
L 45.90598 266.525975 
L 44.907223 268.290098 
L 53.53578 269.980044 
L 53.28935 271.238269 
" clip-path="url(#p71c6c163ba)" style="fill: #0000ff"/>
    <path d="M 53.260122 252.534501 
L 47.431753 251.107608 
L 47.597101 253.128079 
L 41.980109 249.112947 
L 48.816643 248.146669 
L 47.736638 249.862255 
L 53.565008 251.289149 
L 53.260122 252.534501 
" clip-path="url(#p71c6c163ba)" style="fill: #0000ff"/>
    <path d="M 53.213636 233.823913 
L 50.124065 232.8154 
L 50.136695 234.842587 
L 44.838223 230.415615 
L 51.728131 229.967234 
L 50.521924 231.596562 
L 53.611495 232.605075 
L 53.213636 233.823913 
" clip-path="url(#p71c6c163ba)" style="fill: #0000ff"/>
    <path d="M 53.132677 215.088785 
L 52.561054 214.808897 
L 52.293014 216.803654 
L 47.696337 211.718284 
L 54.532117 212.230671 
L 53.12083 213.665652 
L 53.692453 213.94554 
L 53.132677 215.088785 
" clip-path="url(#p71c6c163ba)" style="fill: #0000ff"/>
    <path d="M 53.132677 196.105643 
L 52.846866 195.825755 
L 52.293014 196.963077 
L 50.554451 193.020953 
L 54.532117 194.676586 
L 53.406642 195.254132 
L 53.692453 195.53402 
L 53.132677 196.105643 
" clip-path="url(#p71c6c163ba)" style="fill: #0000ff"/>
    <path d="M 53.132677 177.1225 
L 53.132677 176.842612 
L 52.293014 177.1225 
L 53.412565 174.323622 
L 54.532117 177.1225 
L 53.692453 176.842612 
L 53.692453 177.1225 
L 53.132677 177.1225 
" clip-path="url(#p71c6c163ba)" style="fill: #0000ff"/>
    <path d="M 53.132677 158.139357 
L 53.418489 157.85947 
L 52.293014 157.281923 
L 56.270679 155.62629 
L 54.532117 159.568414 
L 53.978264 158.431092 
L 53.692453 158.71098 
L 53.132677 158.139357 
" clip-path="url(#p71c6c163ba)" style="fill: #0000ff"/>
    <path d="M 53.132677 139.156215 
L 53.7043 138.876327 
L 52.293014 137.441346 
L 59.128793 136.928959 
L 54.532117 142.014329 
L 54.264076 140.019572 
L 53.692453 140.29946 
L 53.132677 139.156215 
" clip-path="url(#p71c6c163ba)" style="fill: #0000ff"/>
    <path d="M 53.213636 120.421087 
L 56.303206 119.412575 
L 55.096999 117.783247 
L 61.986907 118.231628 
L 56.688435 122.658599 
L 56.701065 120.631413 
L 53.611495 121.639925 
L 53.213636 120.421087 
" clip-path="url(#p71c6c163ba)" style="fill: #0000ff"/>
    <path d="M 53.260122 101.710499 
L 59.088492 100.283605 
L 58.008488 98.568019 
L 64.845021 99.534297 
L 59.22803 103.549429 
L 59.393378 101.528958 
L 53.565008 102.955851 
L 53.260122 101.710499 
" clip-path="url(#p71c6c163ba)" style="fill: #0000ff"/>
    <path d="M 53.28935 83.006731 
L 61.917907 81.316786 
L 60.91915 79.552663 
L 67.703135 80.836965 
L 61.904869 84.585564 
L 62.164337 82.575011 
L 53.53578 84.264956 
L 53.28935 83.006731 
" clip-path="url(#p71c6c163ba)" style="fill: #0000ff"/>
    <path d="M 53.309302 64.305819 
L 64.763744 62.436312 
L 63.82126 60.641494 
L 70.561249 62.139634 
L 64.647367 65.703043 
L 64.970271 63.701699 
L 53.515829 65.571206 
L 53.309302 64.305819 
" clip-path="url(#p71c6c163ba)" style="fill: #0000ff"/>
    <path d="M 53.323747 45.606299 
L 67.616602 43.60678 
L 66.715266 41.79095 
L 73.419364 43.442303 
L 67.425809 46.870011 
L 67.794238 44.876545 
L 53.501383 46.876064 
L 53.323747 45.606299 
" clip-path="url(#p71c6c163ba)" style="fill: #0000ff"/>
    <path d="M 72.194436 308.625433 
L 57.782167 304.991925 
L 57.933632 307.013485 
L 52.344354 302.959862 
L 59.187364 302.040569 
L 58.0956 303.748696 
L 72.507869 307.382204 
L 72.194436 308.625433 
" clip-path="url(#p71c6c163ba)" style="fill: #0000ff"/>
    <path d="M 72.170258 289.921501 
L 60.556696 286.505594 
L 60.629026 288.531529 
L 55.202468 284.26253 
L 62.076182 283.611421 
L 60.918485 285.275567 
L 72.532047 288.691474 
L 72.170258 289.921501 
" clip-path="url(#p71c6c163ba)" style="fill: #0000ff"/>
    <path d="M 72.137784 271.213671 
L 63.287851 268.090025 
L 63.252263 270.116939 
L 58.060582 265.565199 
L 64.959206 265.280817 
L 63.714587 266.880995 
L 72.56452 270.004641 
L 72.137784 271.213671 
" clip-path="url(#p71c6c163ba)" style="fill: #0000ff"/>
    <path d="M 72.092383 252.498343 
L 65.938585 249.78331 
L 65.748795 251.801632 
L 60.918696 246.867868 
L 67.81895 247.109491 
L 66.456124 248.610275 
L 72.609922 251.325307 
L 72.092383 252.498343 
" clip-path="url(#p71c6c163ba)" style="fill: #0000ff"/>
    <path d="M 72.026109 233.767043 
L 68.424713 231.64848 
L 68.002131 233.631173 
L 63.77681 228.170537 
L 70.602481 229.210776 
L 69.0748 230.543381 
L 72.676196 232.661944 
L 72.026109 233.767043 
" clip-path="url(#p71c6c163ba)" style="fill: #0000ff"/>
    <path d="M 71.926999 214.997848 
L 70.53694 213.77127 
L 69.745166 215.63748 
L 66.634924 209.473205 
L 73.138392 211.791996 
L 71.385247 212.809899 
L 72.775306 214.036477 
L 71.926999 214.997848 
" clip-path="url(#p71c6c163ba)" style="fill: #0000ff"/>
    <path d="M 71.846757 196.105643 
L 71.560945 195.601247 
L 70.333569 196.963077 
L 69.493038 190.775874 
L 74.368735 194.676586 
L 72.569737 195.029624 
L 72.855548 195.53402 
L 71.846757 196.105643 
" clip-path="url(#p71c6c163ba)" style="fill: #0000ff"/>
    <path d="M 71.846757 177.1225 
L 71.846757 176.618104 
L 70.333569 177.1225 
L 72.351152 172.078543 
L 74.368735 177.1225 
L 72.855548 176.618104 
L 72.855548 177.1225 
L 71.846757 177.1225 
" clip-path="url(#p71c6c163ba)" style="fill: #0000ff"/>
    <path d="M 71.846757 158.139357 
L 72.132568 157.634962 
L 70.333569 157.281923 
L 75.209266 153.381212 
L 74.368735 159.568414 
L 73.141359 158.206584 
L 72.855548 158.71098 
L 71.846757 158.139357 
" clip-path="url(#p71c6c163ba)" style="fill: #0000ff"/>
    <path d="M 71.926999 139.247152 
L 73.317058 138.020574 
L 71.563913 137.002671 
L 78.06738 134.68388 
L 74.957139 140.848155 
L 74.165364 138.981945 
L 72.775306 140.208523 
L 71.926999 139.247152 
" clip-path="url(#p71c6c163ba)" style="fill: #0000ff"/>
    <path d="M 72.026109 120.477957 
L 75.627504 118.359394 
L 74.099823 117.026788 
L 80.925494 115.986549 
L 76.700173 121.447185 
L 76.277592 119.464493 
L 72.676196 121.583056 
L 72.026109 120.477957 
" clip-path="url(#p71c6c163ba)" style="fill: #0000ff"/>
    <path d="M 72.092383 101.746657 
L 78.246181 99.031625 
L 76.883355 97.530841 
L 83.783608 97.289218 
L 78.95351 102.222982 
L 78.763719 100.20466 
L 72.609922 102.919693 
L 72.092383 101.746657 
" clip-path="url(#p71c6c163ba)" style="fill: #0000ff"/>
    <path d="M 72.137784 83.031329 
L 80.987718 79.907683 
L 79.743099 78.307505 
L 86.641723 78.591887 
L 81.450042 83.143627 
L 81.414453 81.116713 
L 72.56452 84.240359 
L 72.137784 83.031329 
" clip-path="url(#p71c6c163ba)" style="fill: #0000ff"/>
    <path d="M 72.170258 64.323499 
L 83.78382 60.907592 
L 82.626123 59.243446 
L 89.499837 59.894555 
L 84.073279 64.163554 
L 84.145609 62.137619 
L 72.532047 65.553526 
L 72.170258 64.323499 
" clip-path="url(#p71c6c163ba)" style="fill: #0000ff"/>
    <path d="M 72.194436 45.619567 
L 86.606705 41.986059 
L 85.514941 40.277932 
L 92.357951 41.197224 
L 86.768673 45.250847 
L 86.920138 43.229288 
L 72.507869 46.862796 
L 72.194436 45.619567 
" clip-path="url(#p71c6c163ba)" style="fill: #0000ff"/>
    <path d="M 91.097443 308.615363 
L 76.594545 304.055017 
L 76.6292 306.081946 
L 71.282941 301.712805 
L 78.167571 301.189591 
L 76.979138 302.831928 
L 91.482036 307.392274 
L 91.097443 308.615363 
" clip-path="url(#p71c6c163ba)" style="fill: #0000ff"/>
    <path d="M 91.068952 289.908332 
L 79.336873 285.604406 
L 79.276355 287.630729 
L 74.141055 283.015474 
L 81.042655 282.815969 
L 79.778448 284.400716 
L 91.510527 288.704642 
L 91.068952 289.908332 
" clip-path="url(#p71c6c163ba)" style="fill: #0000ff"/>
    <path d="M 91.031449 271.195885 
L 82.021437 267.229485 
L 81.833294 269.247962 
L 76.999169 264.318142 
L 83.899618 264.554132 
L 82.538018 266.056028 
L 91.54803 270.022428 
L 91.031449 271.195885 
" clip-path="url(#p71c6c163ba)" style="fill: #0000ff"/>
    <path d="M 90.980679 252.473471 
L 84.603035 248.964002 
L 84.237499 250.958001 
L 79.857283 245.620811 
L 86.709984 246.464834 
L 85.221156 247.840711 
L 91.5988 251.350179 
L 90.980679 252.473471 
" clip-path="url(#p71c6c163ba)" style="fill: #0000ff"/>
    <path d="M 90.910513 233.731361 
L 86.987975 230.853387 
L 86.367163 232.783215 
L 82.715397 226.92348 
L 89.400976 228.648277 
L 87.746429 229.819652 
L 91.668966 232.697627 
L 90.910513 233.731361 
" clip-path="url(#p71c6c163ba)" style="fill: #0000ff"/>
    <path d="M 90.815282 214.948271 
L 88.979029 212.927376 
L 87.986764 214.695159 
L 85.573511 208.226149 
L 91.782426 211.246292 
L 89.927944 212.06516 
L 91.764197 214.086054 
L 90.815282 214.948271 
" clip-path="url(#p71c6c163ba)" style="fill: #0000ff"/>
    <path d="M 90.706085 196.084995 
L 90.234448 195.046872 
L 88.748648 196.426018 
L 88.431625 189.528817 
L 93.417884 194.304706 
L 91.401757 194.516543 
L 91.873394 195.554667 
L 90.706085 196.084995 
" clip-path="url(#p71c6c163ba)" style="fill: #0000ff"/>
    <path d="M 90.660638 177.1225 
L 90.660638 176.493399 
L 88.773334 177.1225 
L 91.289739 170.831486 
L 93.806145 177.1225 
L 91.918841 176.493399 
L 91.918841 177.1225 
L 90.660638 177.1225 
" clip-path="url(#p71c6c163ba)" style="fill: #0000ff"/>
    <path d="M 90.706085 158.160005 
L 91.177722 157.121881 
L 89.161595 156.910043 
L 94.147853 152.134155 
L 93.83083 159.031356 
L 92.345031 157.652209 
L 91.873394 158.690333 
L 90.706085 158.160005 
" clip-path="url(#p71c6c163ba)" style="fill: #0000ff"/>
    <path d="M 90.815282 139.296729 
L 92.651535 137.275835 
L 90.797053 136.456967 
L 97.005968 133.436824 
L 94.592715 139.905834 
L 93.60045 138.138051 
L 91.764197 140.158946 
L 90.815282 139.296729 
" clip-path="url(#p71c6c163ba)" style="fill: #0000ff"/>
    <path d="M 90.910513 120.513639 
L 94.83305 117.635665 
L 93.178503 116.46429 
L 99.864082 114.739492 
L 96.212316 120.599227 
L 95.591503 118.669399 
L 91.668966 121.547373 
L 90.910513 120.513639 
" clip-path="url(#p71c6c163ba)" style="fill: #0000ff"/>
    <path d="M 90.980679 101.771529 
L 97.358322 98.262061 
L 95.869495 96.886184 
L 102.722196 96.042161 
L 98.34198 101.379351 
L 97.976444 99.385352 
L 91.5988 102.894821 
L 90.980679 101.771529 
" clip-path="url(#p71c6c163ba)" style="fill: #0000ff"/>
    <path d="M 91.031449 83.049115 
L 100.041461 79.082716 
L 98.679861 77.58082 
L 105.58031 77.34483 
L 100.746185 82.274649 
L 100.558042 80.256173 
L 91.54803 84.222572 
L 91.031449 83.049115 
" clip-path="url(#p71c6c163ba)" style="fill: #0000ff"/>
    <path d="M 91.068952 64.336668 
L 102.801031 60.032741 
L 101.536824 58.447994 
L 108.438424 58.647499 
L 103.303124 63.262754 
L 103.242606 61.236431 
L 91.510527 65.540358 
L 91.068952 64.336668 
" clip-path="url(#p71c6c163ba)" style="fill: #0000ff"/>
    <path d="M 91.097443 45.629637 
L 105.600341 41.06929 
L 104.411908 39.426953 
L 111.296538 39.950167 
L 105.950279 44.319309 
L 105.984934 42.292379 
L 91.482036 46.852726 
L 91.097443 45.629637 
" clip-path="url(#p71c6c163ba)" style="fill: #0000ff"/>
    <path d="M 110.035967 308.615343 
L 95.532888 304.053283 
L 95.567333 306.080216 
L 90.221528 301.710519 
L 97.106213 301.18802 
L 95.917608 302.830234 
L 110.420686 307.392294 
L 110.035967 308.615343 
" clip-path="url(#p71c6c163ba)" style="fill: #0000ff"/>
    <path d="M 110.007468 289.908306 
L 98.275155 285.60273 
L 98.2144 287.629046 
L 93.079642 283.013188 
L 99.981266 282.814493 
L 98.716872 284.399092 
L 110.449185 288.704668 
L 110.007468 289.908306 
" clip-path="url(#p71c6c163ba)" style="fill: #0000ff"/>
    <path d="M 109.969957 271.19585 
L 100.959634 267.227872 
L 100.771221 269.246324 
L 95.937756 264.315856 
L 102.838173 264.552771 
L 101.476372 266.054484 
L 110.486696 270.022462 
L 109.969957 271.19585 
" clip-path="url(#p71c6c163ba)" style="fill: #0000ff"/>
    <path d="M 109.91918 252.473423 
L 103.541109 248.962445 
L 103.175267 250.956387 
L 98.79587 245.618525 
L 105.648442 246.463599 
L 104.159403 247.839248 
L 110.537473 251.350227 
L 109.91918 252.473423 
" clip-path="url(#p71c6c163ba)" style="fill: #0000ff"/>
    <path d="M 109.84901 233.731295 
L 105.925881 230.851841 
L 105.304734 232.781561 
L 101.653984 226.921194 
L 108.339264 228.64715 
L 106.684514 229.818238 
L 110.607643 232.697692 
L 109.84901 233.731295 
" clip-path="url(#p71c6c163ba)" style="fill: #0000ff"/>
    <path d="M 109.753791 214.948185 
L 107.916766 212.925706 
L 106.924181 214.693309 
L 104.512098 208.223863 
L 110.720466 211.245129 
L 108.865837 212.063661 
L 110.702862 214.08614 
L 109.753791 214.948185 
" clip-path="url(#p71c6c163ba)" style="fill: #0000ff"/>
    <path d="M 109.644636 196.084915 
L 109.17228 195.044832 
L 107.686292 196.423776 
L 107.370212 189.526531 
L 112.355818 194.303102 
L 110.339661 194.514664 
L 110.812017 195.554747 
L 109.644636 196.084915 
" clip-path="url(#p71c6c163ba)" style="fill: #0000ff"/>
    <path d="M 109.598997 177.1225 
L 109.598997 176.49317 
L 107.711007 177.1225 
L 110.228327 170.8292 
L 112.745646 177.1225 
L 110.857657 176.49317 
L 110.857657 177.1225 
L 109.598997 177.1225 
" clip-path="url(#p71c6c163ba)" style="fill: #0000ff"/>
    <path d="M 109.644636 158.160085 
L 110.116992 157.120001 
L 108.100835 156.908439 
L 113.086441 152.131869 
L 112.770361 159.029113 
L 111.284373 157.65017 
L 110.812017 158.690253 
L 109.644636 158.160085 
" clip-path="url(#p71c6c163ba)" style="fill: #0000ff"/>
    <path d="M 109.753791 139.296815 
L 111.590816 137.274336 
L 109.736187 136.455804 
L 115.944555 133.434538 
L 113.532472 139.903984 
L 112.539887 138.136381 
L 110.702862 140.15886 
L 109.753791 139.296815 
" clip-path="url(#p71c6c163ba)" style="fill: #0000ff"/>
    <path d="M 109.84901 120.513705 
L 113.772139 117.63425 
L 112.117389 116.463162 
L 118.802669 114.737206 
L 115.151919 120.597574 
L 114.530772 118.667853 
L 110.607643 121.547308 
L 109.84901 120.513705 
" clip-path="url(#p71c6c163ba)" style="fill: #0000ff"/>
    <path d="M 109.91918 101.771577 
L 116.29725 98.260598 
L 114.808211 96.884949 
L 121.660783 96.039875 
L 117.281386 101.377737 
L 116.915544 99.383795 
L 110.537473 102.894773 
L 109.91918 101.771577 
" clip-path="url(#p71c6c163ba)" style="fill: #0000ff"/>
    <path d="M 109.969957 83.04915 
L 118.980281 79.081172 
L 117.61848 77.579459 
L 124.518897 77.342544 
L 119.685433 82.273011 
L 119.497019 80.25456 
L 110.486696 84.222538 
L 109.969957 83.04915 
" clip-path="url(#p71c6c163ba)" style="fill: #0000ff"/>
    <path d="M 110.007468 64.336694 
L 121.739781 60.031118 
L 120.475388 58.446519 
L 127.377011 58.645213 
L 122.242253 63.261071 
L 122.181498 61.234756 
L 110.449185 65.540332 
L 110.007468 64.336694 
" clip-path="url(#p71c6c163ba)" style="fill: #0000ff"/>
    <path d="M 110.035967 45.629657 
L 124.539045 41.067597 
L 123.35044 39.425383 
L 130.235125 39.947881 
L 124.88932 44.317579 
L 124.923765 42.290645 
L 110.420686 46.852706 
L 110.035967 45.629657 
" clip-path="url(#p71c6c163ba)" style="fill: #0000ff"/>
    <path d="M 129.01001 308.625386 
L 114.597316 304.987156 
L 114.748172 307.008761 
L 109.160115 302.953456 
L 116.003402 302.036224 
L 114.911124 303.744021 
L 129.323817 307.382252 
L 129.01001 308.625386 
" clip-path="url(#p71c6c163ba)" style="fill: #0000ff"/>
    <path d="M 128.985808 289.921439 
L 117.371686 286.501029 
L 117.443319 288.526989 
L 112.018229 284.256124 
L 118.892166 283.607378 
L 117.733897 285.271126 
L 129.34802 288.691536 
L 128.985808 289.921439 
" clip-path="url(#p71c6c163ba)" style="fill: #0000ff"/>
    <path d="M 128.953305 271.213586 
L 120.102606 268.085703 
L 120.06621 270.112602 
L 114.876343 265.558793 
L 121.77508 265.277161 
L 120.529823 266.876842 
L 129.380522 270.004726 
L 128.953305 271.213586 
" clip-path="url(#p71c6c163ba)" style="fill: #0000ff"/>
    <path d="M 128.907869 252.498221 
L 122.752979 249.779258 
L 122.562242 251.797491 
L 117.734457 246.861462 
L 124.634597 247.106321 
L 123.271068 248.606465 
L 129.425958 251.325429 
L 128.907869 252.498221 
" clip-path="url(#p71c6c163ba)" style="fill: #0000ff"/>
    <path d="M 128.841563 233.766863 
L 125.238544 231.644653 
L 124.814862 233.62711 
L 120.592572 228.164131 
L 127.417664 229.208157 
L 125.889244 230.539914 
L 129.492264 232.662125 
L 128.841563 233.766863 
" clip-path="url(#p71c6c163ba)" style="fill: #0000ff"/>
    <path d="M 128.742458 214.997581 
L 127.349994 213.767321 
L 126.557045 215.633031 
L 123.450686 209.466799 
L 129.952692 211.789685 
L 128.198906 212.806484 
L 129.59137 214.036744 
L 128.742458 214.997581 
" clip-path="url(#p71c6c163ba)" style="fill: #0000ff"/>
    <path d="M 128.661877 196.105643 
L 128.376066 195.600606 
L 127.146768 196.963077 
L 126.3088 190.769468 
L 131.187059 194.676586 
L 129.386139 195.028984 
L 129.67195 195.53402 
L 128.661877 196.105643 
" clip-path="url(#p71c6c163ba)" style="fill: #0000ff"/>
    <path d="M 128.661877 177.1225 
L 128.661877 176.617464 
L 127.146768 177.1225 
L 129.166914 172.072137 
L 131.187059 177.1225 
L 129.67195 176.617464 
L 129.67195 177.1225 
L 128.661877 177.1225 
" clip-path="url(#p71c6c163ba)" style="fill: #0000ff"/>
    <path d="M 128.661877 158.139357 
L 128.947689 157.634321 
L 127.146768 157.281923 
L 132.025028 153.374806 
L 131.187059 159.568414 
L 129.957761 158.205944 
L 129.67195 158.71098 
L 128.661877 158.139357 
" clip-path="url(#p71c6c163ba)" style="fill: #0000ff"/>
    <path d="M 128.742458 139.247419 
L 130.134921 138.017159 
L 128.381135 137.00036 
L 134.883142 134.677475 
L 131.776783 140.843706 
L 130.983833 138.977996 
L 129.59137 140.208256 
L 128.742458 139.247419 
" clip-path="url(#p71c6c163ba)" style="fill: #0000ff"/>
    <path d="M 128.841563 120.478137 
L 132.444583 118.355927 
L 130.916163 117.02417 
L 137.741256 115.980143 
L 133.518965 121.443123 
L 133.095284 119.460665 
L 129.492264 121.582875 
L 128.841563 120.478137 
" clip-path="url(#p71c6c163ba)" style="fill: #0000ff"/>
    <path d="M 128.907869 101.746779 
L 135.06276 99.027815 
L 133.69923 97.527671 
L 140.59937 97.282812 
L 135.771585 102.218841 
L 135.580848 100.200608 
L 129.425958 102.919571 
L 128.907869 101.746779 
" clip-path="url(#p71c6c163ba)" style="fill: #0000ff"/>
    <path d="M 128.953305 83.031414 
L 137.804004 79.90353 
L 136.558747 78.303848 
L 143.457484 78.585481 
L 138.267618 83.139289 
L 138.231221 81.11239 
L 129.380522 84.240274 
L 128.953305 83.031414 
" clip-path="url(#p71c6c163ba)" style="fill: #0000ff"/>
    <path d="M 128.985808 64.323561 
L 140.59993 60.903151 
L 139.441661 59.239403 
L 146.315598 59.88815 
L 140.890508 64.159014 
L 140.962142 62.133054 
L 129.34802 65.553464 
L 128.985808 64.323561 
" clip-path="url(#p71c6c163ba)" style="fill: #0000ff"/>
    <path d="M 129.01001 45.619614 
L 143.422704 41.981384 
L 142.330426 40.273586 
L 149.173712 41.190818 
L 143.585655 45.246124 
L 143.736511 43.224518 
L 129.323817 46.862748 
L 129.01001 45.619614 
" clip-path="url(#p71c6c163ba)" style="fill: #0000ff"/>
    <path d="M 148.016395 308.638661 
L 133.723177 306.632477 
L 134.090701 308.62611 
L 128.098702 305.195682 
L 134.803548 303.547372 
L 133.901388 305.362793 
L 148.194607 307.368976 
L 148.016395 308.638661 
" clip-path="url(#p71c6c163ba)" style="fill: #0000ff"/>
    <path d="M 148.001905 289.939127 
L 136.546973 288.063355 
L 136.868824 290.064869 
L 130.956816 286.498351 
L 137.697593 285.003755 
L 136.754165 286.798077 
L 148.209097 288.673848 
L 148.001905 289.939127 
" clip-path="url(#p71c6c163ba)" style="fill: #0000ff"/>
    <path d="M 147.981894 271.238192 
L 139.352644 269.54252 
L 139.610857 271.553234 
L 133.814931 267.80102 
L 140.599715 266.52095 
L 139.599858 268.284449 
L 148.229108 269.980121 
L 147.981894 271.238192 
" clip-path="url(#p71c6c163ba)" style="fill: #0000ff"/>
    <path d="M 147.952582 252.534385 
L 142.123163 251.102513 
L 142.286967 253.12311 
L 136.673045 249.103688 
L 143.510314 248.142633 
L 142.429 249.857394 
L 148.258419 251.289265 
L 147.952582 252.534385 
" clip-path="url(#p71c6c163ba)" style="fill: #0000ff"/>
    <path d="M 147.905977 233.823718 
L 144.814657 232.811297 
L 144.82531 234.838495 
L 139.531159 230.406357 
L 146.421501 229.964697 
L 145.213705 231.592847 
L 148.305025 232.605269 
L 147.905977 233.823718 
" clip-path="url(#p71c6c163ba)" style="fill: #0000ff"/>
    <path d="M 147.824687 215.088785 
L 147.253064 214.807972 
L 146.982246 216.803654 
L 142.389273 211.709026 
L 149.228755 212.230671 
L 147.814692 213.664726 
L 148.386314 213.94554 
L 147.824687 215.088785 
" clip-path="url(#p71c6c163ba)" style="fill: #0000ff"/>
    <path d="M 147.824687 196.105643 
L 147.538876 195.824829 
L 146.982246 196.963077 
L 145.247387 193.011695 
L 149.228755 194.676586 
L 148.100503 195.253206 
L 148.386314 195.53402 
L 147.824687 196.105643 
" clip-path="url(#p71c6c163ba)" style="fill: #0000ff"/>
    <path d="M 147.824687 177.1225 
L 147.824687 176.841686 
L 146.982246 177.1225 
L 148.105501 174.314363 
L 149.228755 177.1225 
L 148.386314 176.841686 
L 148.386314 177.1225 
L 147.824687 177.1225 
" clip-path="url(#p71c6c163ba)" style="fill: #0000ff"/>
    <path d="M 147.824687 158.139357 
L 148.110499 157.858544 
L 146.982246 157.281923 
L 150.963615 155.617032 
L 149.228755 159.568414 
L 148.672126 158.430167 
L 148.386314 158.71098 
L 147.824687 158.139357 
" clip-path="url(#p71c6c163ba)" style="fill: #0000ff"/>
    <path d="M 147.824687 139.156215 
L 148.39631 138.875401 
L 146.982246 137.441346 
L 153.821729 136.919701 
L 149.228755 142.014329 
L 148.957937 140.018647 
L 148.386314 140.29946 
L 147.824687 139.156215 
" clip-path="url(#p71c6c163ba)" style="fill: #0000ff"/>
    <path d="M 147.905977 120.421282 
L 150.997297 119.40886 
L 149.7895 117.78071 
L 156.679843 118.22237 
L 151.385692 122.654507 
L 151.396345 120.627309 
L 148.305025 121.639731 
L 147.905977 120.421282 
" clip-path="url(#p71c6c163ba)" style="fill: #0000ff"/>
    <path d="M 147.952582 101.710615 
L 153.782002 100.278744 
L 152.700687 98.563984 
L 159.537957 99.525038 
L 153.924034 103.544461 
L 154.087839 101.523863 
L 148.258419 102.955735 
L 147.952582 101.710615 
" clip-path="url(#p71c6c163ba)" style="fill: #0000ff"/>
    <path d="M 147.981894 83.006808 
L 156.611144 81.311137 
L 155.611286 79.547637 
L 162.396071 80.827707 
L 156.600144 84.579922 
L 156.858358 82.569208 
L 148.229108 84.264879 
L 147.981894 83.006808 
" clip-path="url(#p71c6c163ba)" style="fill: #0000ff"/>
    <path d="M 148.001905 64.305873 
L 159.456836 62.430102 
L 158.513409 60.63578 
L 165.254185 62.130376 
L 159.342178 65.696894 
L 159.664028 63.69538 
L 148.209097 65.571152 
L 148.001905 64.305873 
" clip-path="url(#p71c6c163ba)" style="fill: #0000ff"/>
    <path d="M 148.016395 45.606339 
L 162.309613 43.600156 
L 161.407453 41.784735 
L 168.112299 43.433045 
L 162.1203 46.863473 
L 162.487825 44.86984 
L 148.194607 46.876024 
L 148.016395 45.606339 
" clip-path="url(#p71c6c163ba)" style="fill: #0000ff"/>
    <path d="M 167.043759 308.644884 
L 152.806546 308.637569 
L 153.446623 310.561094 
L 147.03729 307.99354 
L 153.449258 305.432573 
L 152.807204 307.355439 
L 167.044417 307.362754 
L 167.043759 308.644884 
" clip-path="url(#p71c6c163ba)" style="fill: #0000ff"/>
    <path d="M 167.043704 289.947552 
L 155.664605 289.940732 
L 156.304517 291.864311 
L 149.895404 289.296209 
L 156.307591 286.735791 
L 155.665373 288.658602 
L 167.044472 288.665422 
L 167.043704 289.947552 
" clip-path="url(#p71c6c163ba)" style="fill: #0000ff"/>
    <path d="M 167.043627 271.250221 
L 158.522641 271.244092 
L 159.162323 273.167748 
L 152.753518 270.598878 
L 159.166012 268.039229 
L 158.523564 269.961962 
L 167.044549 269.968091 
L 167.043627 271.250221 
" clip-path="url(#p71c6c163ba)" style="fill: #0000ff"/>
    <path d="M 167.043512 252.55289 
L 161.380639 252.547798 
L 162.019975 254.471569 
L 155.611632 251.901546 
L 162.024586 249.34305 
L 161.381792 251.265669 
L 167.044664 251.27076 
L 167.043512 252.55289 
" clip-path="url(#p71c6c163ba)" style="fill: #0000ff"/>
    <path d="M 167.043319 233.855558 
L 164.238559 233.852196 
L 164.877319 235.776159 
L 158.469746 233.204215 
L 164.883467 230.647641 
L 164.240096 232.570067 
L 167.044856 232.573429 
L 167.043319 233.855558 
" clip-path="url(#p71c6c163ba)" style="fill: #0000ff"/>
    <path d="M 167.04306 215.088785 
L 166.471437 215.087757 
L 167.039976 216.803654 
L 161.32786 214.506884 
L 167.048199 212.230671 
L 166.473493 213.944512 
L 167.045116 213.94554 
L 167.04306 215.088785 
" clip-path="url(#p71c6c163ba)" style="fill: #0000ff"/>
    <path d="M 167.04306 196.105643 
L 166.757249 196.104615 
L 167.039976 196.963077 
L 164.185974 195.809553 
L 167.048199 194.676586 
L 166.759304 195.532992 
L 167.045116 195.53402 
L 167.04306 196.105643 
" clip-path="url(#p71c6c163ba)" style="fill: #0000ff"/>
    <path d="M 167.044088 176.481435 
L 166.488909 176.801967 
L 166.488909 177.443033 
L 167.044088 177.763565 
L 167.599267 177.443033 
L 167.599267 176.801967 
L 167.044088 176.481435 
L 166.488909 176.801967 
" clip-path="url(#p71c6c163ba)" style="fill: #0000ff"/>
    <path d="M 167.04306 158.139357 
L 167.328871 158.138329 
L 167.039976 157.281923 
L 169.902202 158.41489 
L 167.048199 159.568414 
L 167.330927 158.709952 
L 167.045116 158.71098 
L 167.04306 158.139357 
" clip-path="url(#p71c6c163ba)" style="fill: #0000ff"/>
    <path d="M 167.04306 139.156215 
L 167.614683 139.155187 
L 167.039976 137.441346 
L 172.760316 139.717559 
L 167.048199 142.014329 
L 167.616739 140.298432 
L 167.045116 140.29946 
L 167.04306 139.156215 
" clip-path="url(#p71c6c163ba)" style="fill: #0000ff"/>
    <path d="M 167.043319 120.389442 
L 169.848079 120.386079 
L 169.204709 118.463654 
L 175.61843 121.020228 
L 169.210857 123.592171 
L 169.849616 121.668209 
L 167.044856 121.671571 
L 167.043319 120.389442 
" clip-path="url(#p71c6c163ba)" style="fill: #0000ff"/>
    <path d="M 167.043512 101.69211 
L 172.706384 101.687019 
L 172.06359 99.764401 
L 178.476544 102.322896 
L 172.068201 104.89292 
L 172.707537 102.969149 
L 167.044664 102.97424 
L 167.043512 101.69211 
" clip-path="url(#p71c6c163ba)" style="fill: #0000ff"/>
    <path d="M 167.043627 82.994779 
L 175.564612 82.98865 
L 174.922164 81.065916 
L 181.334658 83.625565 
L 174.925853 86.194436 
L 175.565534 84.27078 
L 167.044549 84.276909 
L 167.043627 82.994779 
" clip-path="url(#p71c6c163ba)" style="fill: #0000ff"/>
    <path d="M 167.043704 64.297448 
L 178.422803 64.290627 
L 177.780585 62.367816 
L 184.192772 64.928234 
L 177.783659 67.496336 
L 178.423571 65.572757 
L 167.044472 65.579578 
L 167.043704 64.297448 
" clip-path="url(#p71c6c163ba)" style="fill: #0000ff"/>
    <path d="M 167.043759 45.600116 
L 181.280971 45.592802 
L 180.638918 43.669936 
L 187.050886 46.230903 
L 180.641553 48.798456 
L 181.28163 46.874932 
L 167.044417 46.882246 
L 167.043759 45.600116 
" clip-path="url(#p71c6c163ba)" style="fill: #0000ff"/>
    <path d="M 186.071204 308.638742 
L 171.778712 310.63159 
L 172.679223 312.44783 
L 165.975877 310.793432 
L 171.970988 307.368447 
L 171.601653 309.361745 
L 185.894146 307.368896 
L 186.071204 308.638742 
" clip-path="url(#p71c6c163ba)" style="fill: #0000ff"/>
    <path d="M 186.085605 289.939235 
L 174.631652 291.802474 
L 175.573191 293.597787 
L 168.833991 292.096101 
L 174.749747 288.535805 
L 174.425791 290.536979 
L 185.879745 288.67374 
L 186.085605 289.939235 
" clip-path="url(#p71c6c163ba)" style="fill: #0000ff"/>
    <path d="M 186.105497 271.238346 
L 177.477631 272.922562 
L 178.475286 274.687308 
L 171.692105 273.398769 
L 177.492711 269.653793 
L 177.231987 271.664183 
L 185.859853 269.979967 
L 186.105497 271.238346 
" clip-path="url(#p71c6c163ba)" style="fill: #0000ff"/>
    <path d="M 186.134642 252.534618 
L 180.307319 253.956532 
L 181.386011 255.672944 
L 174.550219 254.701438 
L 180.170279 250.690602 
L 180.003386 252.710947 
L 185.830709 251.289032 
L 186.134642 252.534618 
" clip-path="url(#p71c6c163ba)" style="fill: #0000ff"/>
    <path d="M 186.181009 233.824107 
L 183.093185 234.828713 
L 184.2978 236.459218 
L 177.408333 236.004107 
L 182.711127 231.582313 
L 182.696516 233.609487 
L 185.784341 232.604881 
L 186.181009 233.824107 
" clip-path="url(#p71c6c163ba)" style="fill: #0000ff"/>
    <path d="M 186.261636 215.088785 
L 185.690014 215.367747 
L 187.09852 216.803654 
L 180.266447 217.306776 
L 184.86683 212.230671 
L 185.132091 214.224501 
L 185.703714 213.94554 
L 186.261636 215.088785 
" clip-path="url(#p71c6c163ba)" style="fill: #0000ff"/>
    <path d="M 186.261636 196.105643 
L 185.975825 196.384604 
L 187.09852 196.963077 
L 183.124561 198.609444 
L 184.86683 194.676586 
L 185.417902 195.812981 
L 185.703714 195.53402 
L 186.261636 196.105643 
" clip-path="url(#p71c6c163ba)" style="fill: #0000ff"/>
    <path d="M 186.261636 177.1225 
L 186.261636 177.401461 
L 187.09852 177.1225 
L 185.982675 179.912113 
L 184.86683 177.1225 
L 185.703714 177.401461 
L 185.703714 177.1225 
L 186.261636 177.1225 
" clip-path="url(#p71c6c163ba)" style="fill: #0000ff"/>
    <path d="M 186.261636 158.139357 
L 186.547448 158.418319 
L 187.09852 157.281923 
L 188.840789 161.214782 
L 184.86683 159.568414 
L 185.989525 158.989941 
L 185.703714 158.71098 
L 186.261636 158.139357 
" clip-path="url(#p71c6c163ba)" style="fill: #0000ff"/>
    <path d="M 186.261636 139.156215 
L 186.833259 139.435176 
L 187.09852 137.441346 
L 191.698903 142.517451 
L 184.86683 142.014329 
L 186.275337 140.578422 
L 185.703714 140.29946 
L 186.261636 139.156215 
" clip-path="url(#p71c6c163ba)" style="fill: #0000ff"/>
    <path d="M 186.181009 120.420893 
L 189.268834 121.425499 
L 189.254223 119.398326 
L 194.557017 123.820119 
L 187.66755 124.27523 
L 188.872165 122.644725 
L 185.784341 121.640119 
L 186.181009 120.420893 
" clip-path="url(#p71c6c163ba)" style="fill: #0000ff"/>
    <path d="M 186.134642 101.710382 
L 191.961964 103.132297 
L 191.795071 101.111952 
L 197.415131 105.122788 
L 190.579339 106.094294 
L 191.658031 104.377882 
L 185.830709 102.955968 
L 186.134642 101.710382 
" clip-path="url(#p71c6c163ba)" style="fill: #0000ff"/>
    <path d="M 186.105497 83.006654 
L 194.733363 84.69087 
L 194.472639 82.68048 
L 200.273245 86.425457 
L 193.490064 87.713995 
L 194.487719 85.949249 
L 185.859853 84.265033 
L 186.105497 83.006654 
" clip-path="url(#p71c6c163ba)" style="fill: #0000ff"/>
    <path d="M 186.085605 64.305765 
L 197.539559 66.169004 
L 197.215603 64.16783 
L 203.131359 67.728126 
L 196.392159 69.229813 
L 197.333698 67.434499 
L 185.879745 65.57126 
L 186.085605 64.305765 
" clip-path="url(#p71c6c163ba)" style="fill: #0000ff"/>
    <path d="M 186.071204 45.606258 
L 200.363697 47.599107 
L 199.994362 45.605809 
L 205.989473 49.030794 
L 199.286127 50.685192 
L 200.186638 48.868953 
L 185.894146 46.876104 
L 186.071204 45.606258 
" clip-path="url(#p71c6c163ba)" style="fill: #0000ff"/>
    <path d="M 205.077791 308.62548 
L 190.665948 312.254258 
L 191.757196 313.962714 
L 184.914464 313.041357 
L 190.504964 308.98942 
L 190.352889 311.010934 
L 204.764733 307.382157 
L 205.077791 308.62548 
" clip-path="url(#p71c6c163ba)" style="fill: #0000ff"/>
    <path d="M 205.101945 289.921563 
L 193.488943 293.332959 
L 194.646067 294.997504 
L 187.772578 294.344026 
L 193.200606 290.076897 
L 193.127578 292.102807 
L 204.74058 288.691412 
L 205.101945 289.921563 
" clip-path="url(#p71c6c163ba)" style="fill: #0000ff"/>
    <path d="M 205.134389 271.213757 
L 196.285222 274.333157 
L 197.529202 275.933832 
L 190.630692 275.646695 
L 195.82419 271.097029 
L 195.858969 273.123957 
L 204.708136 270.004556 
L 205.134389 271.213757 
" clip-path="url(#p71c6c163ba)" style="fill: #0000ff"/>
    <path d="M 205.179756 252.498464 
L 199.027052 255.20956 
L 200.389173 256.710984 
L 193.488806 256.949363 
L 198.321223 252.01787 
L 198.510065 254.036281 
L 204.662769 251.325186 
L 205.179756 252.498464 
" clip-path="url(#p71c6c163ba)" style="fill: #0000ff"/>
    <path d="M 205.245998 233.767224 
L 201.646229 235.882136 
L 203.173169 237.21559 
L 196.34692 238.252032 
L 200.575278 232.793747 
L 200.996757 234.776675 
L 204.596526 232.661763 
L 205.245998 233.767224 
" clip-path="url(#p71c6c163ba)" style="fill: #0000ff"/>
    <path d="M 205.345112 214.998116 
L 203.957463 216.221008 
L 205.709965 217.240019 
L 199.205034 219.554701 
L 202.319169 213.392392 
L 203.109764 215.259102 
L 204.497413 214.036209 
L 205.345112 214.998116 
" clip-path="url(#p71c6c163ba)" style="fill: #0000ff"/>
    <path d="M 205.425016 196.105643 
L 205.139205 196.609396 
L 206.936278 196.963077 
L 202.063148 200.85737 
L 202.906247 194.676586 
L 204.131697 196.037774 
L 204.417508 195.53402 
L 205.425016 196.105643 
" clip-path="url(#p71c6c163ba)" style="fill: #0000ff"/>
    <path d="M 205.425016 177.1225 
L 205.425016 177.626254 
L 206.936278 177.1225 
L 204.921262 182.160038 
L 202.906247 177.1225 
L 204.417508 177.626254 
L 204.417508 177.1225 
L 205.425016 177.1225 
" clip-path="url(#p71c6c163ba)" style="fill: #0000ff"/>
    <path d="M 205.425016 158.139357 
L 205.710827 158.643111 
L 206.936278 157.281923 
L 207.779376 163.462707 
L 202.906247 159.568414 
L 204.70332 159.214734 
L 204.417508 158.71098 
L 205.425016 158.139357 
" clip-path="url(#p71c6c163ba)" style="fill: #0000ff"/>
    <path d="M 205.345112 139.246884 
L 206.73276 140.469777 
L 207.523355 138.603067 
L 210.63749 144.765376 
L 204.132559 142.450694 
L 205.885061 141.431683 
L 204.497413 140.208791 
L 205.345112 139.246884 
" clip-path="url(#p71c6c163ba)" style="fill: #0000ff"/>
    <path d="M 205.245998 120.477776 
L 208.845768 122.592687 
L 209.267246 120.60976 
L 213.495604 126.068045 
L 206.669356 125.031603 
L 208.196295 123.698148 
L 204.596526 121.583237 
L 205.245998 120.477776 
" clip-path="url(#p71c6c163ba)" style="fill: #0000ff"/>
    <path d="M 205.179756 101.746536 
L 211.332459 104.457631 
L 211.521301 102.43922 
L 216.353718 107.370713 
L 209.453352 107.132334 
L 210.815472 105.63091 
L 204.662769 102.919814 
L 205.179756 101.746536 
" clip-path="url(#p71c6c163ba)" style="fill: #0000ff"/>
    <path d="M 205.134389 83.031243 
L 213.983555 86.150644 
L 214.018334 84.123717 
L 219.211832 88.673382 
L 212.313323 88.96052 
L 213.557302 87.359845 
L 204.708136 84.240444 
L 205.134389 83.031243 
" clip-path="url(#p71c6c163ba)" style="fill: #0000ff"/>
    <path d="M 205.101945 64.323437 
L 216.714946 67.734832 
L 216.641918 65.708922 
L 222.069946 69.976051 
L 215.196458 70.629529 
L 216.353581 68.964984 
L 204.74058 65.553588 
L 205.101945 64.323437 
" clip-path="url(#p71c6c163ba)" style="fill: #0000ff"/>
    <path d="M 205.077791 45.61952 
L 219.489635 49.248297 
L 219.33756 47.226783 
L 224.928061 51.27872 
L 218.085328 52.200076 
L 219.176577 50.49162 
L 204.764733 46.862843 
L 205.077791 45.61952 
" clip-path="url(#p71c6c163ba)" style="fill: #0000ff"/>
    <path d="M 224.052082 308.615383 
L 209.549365 313.174004 
L 210.737626 314.816466 
L 203.853051 314.29253 
L 209.199768 309.923949 
L 209.1649 311.950875 
L 223.667617 307.392254 
L 224.052082 308.615383 
" clip-path="url(#p71c6c163ba)" style="fill: #0000ff"/>
    <path d="M 224.080566 289.908359 
L 212.348721 294.210624 
L 213.612741 295.795521 
L 206.711165 295.595199 
L 211.847011 290.980552 
L 211.907289 293.006882 
L 223.639133 288.704616 
L 224.080566 289.908359 
" clip-path="url(#p71c6c163ba)" style="fill: #0000ff"/>
    <path d="M 224.118061 271.19592 
L 215.108362 275.16073 
L 216.46976 276.662809 
L 209.569279 276.897868 
L 214.404069 271.968701 
L 214.59194 273.987203 
L 223.601638 270.022393 
L 224.118061 271.19592 
" clip-path="url(#p71c6c163ba)" style="fill: #0000ff"/>
    <path d="M 224.168823 252.473519 
L 217.791609 255.981466 
L 219.280224 257.357573 
L 212.427393 258.200537 
L 216.808434 252.864024 
L 217.173662 254.858079 
L 223.550876 251.350131 
L 224.168823 252.473519 
" clip-path="url(#p71c6c163ba)" style="fill: #0000ff"/>
    <path d="M 224.238986 233.731427 
L 220.317044 236.607911 
L 221.971386 237.779575 
L 215.285507 239.503206 
L 218.938295 233.644108 
L 219.558771 235.574045 
L 223.480713 232.69756 
L 224.238986 233.731427 
" clip-path="url(#p71c6c163ba)" style="fill: #0000ff"/>
    <path d="M 224.334228 214.948357 
L 222.498753 216.967656 
L 224.353085 217.786862 
L 218.143621 220.805874 
L 220.558052 214.337304 
L 221.549995 216.105267 
L 223.38547 214.085968 
L 224.334228 214.948357 
" clip-path="url(#p71c6c163ba)" style="fill: #0000ff"/>
    <path d="M 224.443467 196.085076 
L 223.972554 197.121227 
L 225.988652 197.333342 
L 221.001735 202.108543 
L 221.319709 195.211386 
L 222.805318 196.590737 
L 223.276231 195.554587 
L 224.443467 196.085076 
" clip-path="url(#p71c6c163ba)" style="fill: #0000ff"/>
    <path d="M 224.48872 177.1225 
L 224.48872 177.751371 
L 226.375334 177.1225 
L 223.859849 183.411212 
L 221.344365 177.1225 
L 223.230978 177.751371 
L 223.230978 177.1225 
L 224.48872 177.1225 
" clip-path="url(#p71c6c163ba)" style="fill: #0000ff"/>
    <path d="M 224.443467 158.159924 
L 224.91438 159.196075 
L 226.399989 157.816723 
L 226.717963 164.713881 
L 221.731046 159.93868 
L 223.747145 159.726564 
L 223.276231 158.690413 
L 224.443467 158.159924 
" clip-path="url(#p71c6c163ba)" style="fill: #0000ff"/>
    <path d="M 224.334228 139.296643 
L 226.169704 141.315942 
L 227.161647 139.547979 
L 229.576077 146.016549 
L 223.366613 142.997537 
L 225.220945 142.178332 
L 223.38547 140.159032 
L 224.334228 139.296643 
" clip-path="url(#p71c6c163ba)" style="fill: #0000ff"/>
    <path d="M 224.238986 120.513573 
L 228.160927 123.390057 
L 228.781403 121.460121 
L 232.434191 127.319218 
L 225.748312 125.595588 
L 227.402655 124.423924 
L 223.480713 121.54744 
L 224.238986 120.513573 
" clip-path="url(#p71c6c163ba)" style="fill: #0000ff"/>
    <path d="M 224.168823 101.771481 
L 230.546037 105.279429 
L 230.911264 103.285375 
L 235.292306 108.621887 
L 228.439474 107.778923 
L 229.928089 106.402816 
L 223.550876 102.894869 
L 224.168823 101.771481 
" clip-path="url(#p71c6c163ba)" style="fill: #0000ff"/>
    <path d="M 224.118061 83.04908 
L 233.127759 87.01389 
L 233.315629 84.995388 
L 238.15042 89.924556 
L 231.249939 89.689497 
L 232.611336 88.187417 
L 223.601638 84.222607 
L 224.118061 83.04908 
" clip-path="url(#p71c6c163ba)" style="fill: #0000ff"/>
    <path d="M 224.080566 64.336641 
L 235.81241 68.638907 
L 235.872688 66.612577 
L 241.008534 71.227224 
L 234.106957 71.427546 
L 235.370977 69.842649 
L 223.639133 65.540384 
L 224.080566 64.336641 
" clip-path="url(#p71c6c163ba)" style="fill: #0000ff"/>
    <path d="M 224.052082 45.629617 
L 238.554799 50.188238 
L 238.519931 48.161311 
L 243.866648 52.529893 
L 236.982072 53.053828 
L 238.170334 51.411367 
L 223.667617 46.852746 
L 224.052082 45.629617 
" clip-path="url(#p71c6c163ba)" style="fill: #0000ff"/>
    <path d="M 242.99086 308.615323 
L 228.487603 313.179085 
L 229.676376 314.821176 
L 222.791638 314.299389 
L 228.136992 309.929139 
L 228.102756 311.956076 
L 242.606013 307.392314 
L 242.99086 308.615323 
" clip-path="url(#p71c6c163ba)" style="fill: #0000ff"/>
    <path d="M 243.019365 289.908281 
L 231.28682 294.215495 
L 232.551399 295.799946 
L 225.649752 295.602057 
L 230.783971 290.9856 
L 230.844963 293.011908 
L 242.577508 288.704694 
L 243.019365 289.908281 
" clip-path="url(#p71c6c163ba)" style="fill: #0000ff"/>
    <path d="M 243.056884 271.195816 
L 234.04625 275.165362 
L 235.408252 276.666893 
L 228.507866 276.904726 
L 233.340674 271.973616 
L 233.529356 273.992042 
L 242.539989 270.022497 
L 243.056884 271.195816 
" clip-path="url(#p71c6c163ba)" style="fill: #0000ff"/>
    <path d="M 243.107669 252.473376 
L 236.729174 255.985855 
L 238.218423 257.361276 
L 231.36598 258.207395 
L 235.744564 252.868866 
L 236.11071 254.862752 
L 242.489204 251.350274 
L 243.107669 252.473376 
" clip-path="url(#p71c6c163ba)" style="fill: #0000ff"/>
    <path d="M 243.177841 233.73123 
L 239.254125 236.612154 
L 240.909077 237.782958 
L 234.224094 239.510064 
L 237.873836 233.649068 
L 238.495315 235.578682 
L 242.419031 232.697758 
L 243.177841 233.73123 
" clip-path="url(#p71c6c163ba)" style="fill: #0000ff"/>
    <path d="M 243.273049 214.9481 
L 241.435257 216.972153 
L 243.290034 217.790352 
L 237.082208 220.812733 
L 239.49313 214.342853 
L 240.486031 216.110278 
L 242.323823 214.086225 
L 243.273049 214.9481 
" clip-path="url(#p71c6c163ba)" style="fill: #0000ff"/>
    <path d="M 243.382163 196.084836 
L 242.909094 197.126866 
L 244.925279 197.338154 
L 239.940322 202.115401 
L 240.255465 195.218114 
L 241.741641 196.596856 
L 242.21471 195.554826 
L 243.382163 196.084836 
" clip-path="url(#p71c6c163ba)" style="fill: #0000ff"/>
    <path d="M 243.427993 177.1225 
L 243.427993 177.752057 
L 245.316664 177.1225 
L 242.798436 183.41807 
L 240.280208 177.1225 
L 242.168879 177.752057 
L 242.168879 177.1225 
L 243.427993 177.1225 
" clip-path="url(#p71c6c163ba)" style="fill: #0000ff"/>
    <path d="M 243.382163 158.160164 
L 243.855232 159.202193 
L 245.341407 157.823452 
L 245.65655 164.720739 
L 240.671594 159.943492 
L 242.687779 159.732203 
L 242.21471 158.690174 
L 243.382163 158.160164 
" clip-path="url(#p71c6c163ba)" style="fill: #0000ff"/>
    <path d="M 243.273049 139.2969 
L 245.110841 141.320953 
L 246.103743 139.553528 
L 248.514665 146.023408 
L 242.306839 143.001027 
L 244.161615 142.182828 
L 242.323823 140.158775 
L 243.273049 139.2969 
" clip-path="url(#p71c6c163ba)" style="fill: #0000ff"/>
    <path d="M 243.177841 120.51377 
L 247.101558 123.394694 
L 247.723037 121.465081 
L 251.372779 127.326076 
L 244.687796 125.59897 
L 246.342748 124.428167 
L 242.419031 121.547242 
L 243.177841 120.51377 
" clip-path="url(#p71c6c163ba)" style="fill: #0000ff"/>
    <path d="M 243.107669 101.771624 
L 249.486163 105.284102 
L 249.852309 103.290216 
L 254.230893 108.628745 
L 247.37845 107.782627 
L 248.867699 106.407205 
L 242.489204 102.894726 
L 243.107669 101.771624 
" clip-path="url(#p71c6c163ba)" style="fill: #0000ff"/>
    <path d="M 243.056884 83.049184 
L 252.067517 87.01873 
L 252.256198 85.000304 
L 257.089007 89.931414 
L 250.188621 89.693581 
L 251.550622 88.192049 
L 242.539989 84.222503 
L 243.056884 83.049184 
" clip-path="url(#p71c6c163ba)" style="fill: #0000ff"/>
    <path d="M 243.019365 64.336719 
L 254.75191 68.643934 
L 254.812902 66.617625 
L 259.947121 71.234083 
L 253.045474 71.431972 
L 254.310053 69.84752 
L 242.577508 65.540306 
L 243.019365 64.336719 
" clip-path="url(#p71c6c163ba)" style="fill: #0000ff"/>
    <path d="M 242.99086 45.629677 
L 257.494117 50.193439 
L 257.459881 48.166502 
L 262.805235 52.536751 
L 255.920496 53.058539 
L 257.10927 51.416448 
L 242.606013 46.852686 
L 242.99086 45.629677 
" clip-path="url(#p71c6c163ba)" style="fill: #0000ff"/>
    <path d="M 261.894114 308.625339 
L 247.480996 312.268282 
L 248.573787 313.975751 
L 241.730225 313.060575 
L 247.317064 309.003591 
L 247.166815 311.025242 
L 261.579933 307.382299 
L 261.894114 308.625339 
" clip-path="url(#p71c6c163ba)" style="fill: #0000ff"/>
    <path d="M 261.91834 289.921377 
L 250.303659 293.346281 
L 251.462499 295.009632 
L 244.588339 294.363244 
L 250.011964 290.090519 
L 249.941025 292.116503 
L 261.555707 288.691598 
L 261.91834 289.921377 
" clip-path="url(#p71c6c163ba)" style="fill: #0000ff"/>
    <path d="M 261.950873 271.213501 
L 253.099409 274.345615 
L 254.345301 275.944802 
L 247.446453 275.665912 
L 252.634508 271.11004 
L 252.671711 273.136925 
L 261.523174 270.004811 
L 261.950873 271.213501 
" clip-path="url(#p71c6c163ba)" style="fill: #0000ff"/>
    <path d="M 261.996342 252.4981 
L 255.840361 255.220988 
L 257.204592 256.720494 
L 250.304567 256.968581 
L 255.130042 252.030294 
L 255.321723 254.048438 
L 261.477705 251.32555 
L 261.996342 252.4981 
" clip-path="url(#p71c6c163ba)" style="fill: #0000ff"/>
    <path d="M 262.062679 233.766683 
L 258.458039 235.892536 
L 259.987195 237.223447 
L 253.162681 238.27125 
L 257.381948 232.805934 
L 257.806727 234.788157 
L 261.411368 232.662305 
L 262.062679 233.766683 
" clip-path="url(#p71c6c163ba)" style="fill: #0000ff"/>
    <path d="M 262.161781 214.997314 
L 260.766918 216.231254 
L 262.521342 217.246952 
L 256.020795 219.573919 
L 259.123283 213.405738 
L 259.917404 215.27095 
L 261.312266 214.037011 
L 262.161781 214.997314 
" clip-path="url(#p71c6c163ba)" style="fill: #0000ff"/>
    <path d="M 262.242699 196.105643 
L 261.956888 196.611318 
L 263.759726 196.963077 
L 258.878909 200.876587 
L 259.714321 194.676586 
L 260.945537 196.039695 
L 261.231348 195.53402 
L 262.242699 196.105643 
" clip-path="url(#p71c6c163ba)" style="fill: #0000ff"/>
    <path d="M 262.242699 177.1225 
L 262.242699 177.628176 
L 263.759726 177.1225 
L 261.737024 182.179256 
L 259.714321 177.1225 
L 261.231348 177.628176 
L 261.231348 177.1225 
L 262.242699 177.1225 
" clip-path="url(#p71c6c163ba)" style="fill: #0000ff"/>
    <path d="M 262.242699 158.139357 
L 262.528511 158.645033 
L 263.759726 157.281923 
L 264.595138 163.481925 
L 259.714321 159.568414 
L 261.517159 159.216656 
L 261.231348 158.71098 
L 262.242699 158.139357 
" clip-path="url(#p71c6c163ba)" style="fill: #0000ff"/>
    <path d="M 262.161781 139.247686 
L 263.556644 140.481625 
L 264.350764 138.616413 
L 267.453252 144.784594 
L 260.952705 142.457627 
L 262.707129 141.441929 
L 261.312266 140.207989 
L 262.161781 139.247686 
" clip-path="url(#p71c6c163ba)" style="fill: #0000ff"/>
    <path d="M 262.062679 120.478317 
L 265.66732 122.60417 
L 266.092099 120.621947 
L 270.311366 126.087262 
L 263.486852 125.039459 
L 265.016008 123.708548 
L 261.411368 121.582695 
L 262.062679 120.478317 
" clip-path="url(#p71c6c163ba)" style="fill: #0000ff"/>
    <path d="M 261.996342 101.7469 
L 268.152324 104.469788 
L 268.344005 102.451644 
L 273.16948 107.389931 
L 266.269455 107.141844 
L 267.633686 105.642338 
L 261.477705 102.91945 
L 261.996342 101.7469 
" clip-path="url(#p71c6c163ba)" style="fill: #0000ff"/>
    <path d="M 261.950873 83.031499 
L 270.802337 86.163613 
L 270.839539 84.136728 
L 276.027594 88.6926 
L 269.128746 88.971489 
L 270.374638 87.372303 
L 261.523174 84.240189 
L 261.950873 83.031499 
" clip-path="url(#p71c6c163ba)" style="fill: #0000ff"/>
    <path d="M 261.91834 64.323623 
L 273.533022 67.748528 
L 273.462083 65.722544 
L 278.885708 69.995269 
L 272.011549 70.641657 
L 273.170388 68.978307 
L 261.555707 65.553402 
L 261.91834 64.323623 
" clip-path="url(#p71c6c163ba)" style="fill: #0000ff"/>
    <path d="M 261.894114 45.619661 
L 276.307232 49.262604 
L 276.156983 47.240954 
L 281.743822 51.297937 
L 274.90026 52.213114 
L 275.993051 50.505644 
L 261.579933 46.862701 
L 261.894114 45.619661 
" clip-path="url(#p71c6c163ba)" style="fill: #0000ff"/>
    <path d="M 280.765004 308.63862 
L 266.471422 310.651464 
L 267.374405 312.466476 
L 260.668812 310.821206 
L 266.659255 307.388062 
L 266.292634 309.381861 
L 280.586217 307.369017 
L 280.765004 308.63862 
" clip-path="url(#p71c6c163ba)" style="fill: #0000ff"/>
    <path d="M 280.779539 289.939072 
L 269.324117 291.821104 
L 270.268487 293.614929 
L 263.526926 292.123875 
L 269.437059 288.554252 
L 269.11626 290.555934 
L 280.571682 288.673903 
L 280.779539 289.939072 
" clip-path="url(#p71c6c163ba)" style="fill: #0000ff"/>
    <path d="M 280.79961 271.238115 
L 272.169666 272.939509 
L 273.170622 274.702385 
L 266.38504 273.426544 
L 272.178628 269.670718 
L 271.921667 271.681592 
L 280.551611 269.980198 
L 280.79961 271.238115 
" clip-path="url(#p71c6c163ba)" style="fill: #0000ff"/>
    <path d="M 280.829004 252.534268 
L 274.998533 253.971115 
L 276.081156 255.68505 
L 269.243154 254.729213 
L 274.854009 250.705508 
L 274.691746 252.72623 
L 280.522217 251.289382 
L 280.829004 252.534268 
" clip-path="url(#p71c6c163ba)" style="fill: #0000ff"/>
    <path d="M 280.875728 233.823524 
L 277.782656 234.839856 
L 278.992038 236.466829 
L 272.101269 236.031881 
L 277.3911 231.594589 
L 277.382422 233.621796 
L 280.475493 232.605464 
L 280.875728 233.823524 
" clip-path="url(#p71c6c163ba)" style="fill: #0000ff"/>
    <path d="M 280.957349 215.088785 
L 280.385727 215.370524 
L 281.802566 216.803654 
L 274.959383 217.33455 
L 279.548656 212.230671 
L 279.822249 214.227278 
L 280.393872 213.94554 
L 280.957349 215.088785 
" clip-path="url(#p71c6c163ba)" style="fill: #0000ff"/>
    <path d="M 280.957349 196.105643 
L 280.671538 196.387381 
L 281.802566 196.963077 
L 277.817497 198.637219 
L 279.548656 194.676586 
L 280.10806 195.815759 
L 280.393872 195.53402 
L 280.957349 196.105643 
" clip-path="url(#p71c6c163ba)" style="fill: #0000ff"/>
    <path d="M 280.957349 177.1225 
L 280.957349 177.404239 
L 281.802566 177.1225 
L 280.675611 179.939888 
L 279.548656 177.1225 
L 280.393872 177.404239 
L 280.393872 177.1225 
L 280.957349 177.1225 
" clip-path="url(#p71c6c163ba)" style="fill: #0000ff"/>
    <path d="M 280.957349 158.139357 
L 281.243161 158.421096 
L 281.802566 157.281923 
L 283.533725 161.242557 
L 279.548656 159.568414 
L 280.679683 158.992719 
L 280.393872 158.71098 
L 280.957349 158.139357 
" clip-path="url(#p71c6c163ba)" style="fill: #0000ff"/>
    <path d="M 280.957349 139.156215 
L 281.528972 139.437953 
L 281.802566 137.441346 
L 286.391839 142.545225 
L 279.548656 142.014329 
L 280.965495 140.581199 
L 280.393872 140.29946 
L 280.957349 139.156215 
" clip-path="url(#p71c6c163ba)" style="fill: #0000ff"/>
    <path d="M 280.875728 120.421476 
L 283.9688 121.437809 
L 283.960121 119.410601 
L 289.249953 123.847894 
L 282.359183 124.282842 
L 283.568565 122.655869 
L 280.475493 121.639536 
L 280.875728 120.421476 
" clip-path="url(#p71c6c163ba)" style="fill: #0000ff"/>
    <path d="M 280.829004 101.710732 
L 286.659475 103.14758 
L 286.497213 101.126858 
L 292.108067 105.150563 
L 285.270066 106.1064 
L 286.352689 104.392466 
L 280.522217 102.955618 
L 280.829004 101.710732 
" clip-path="url(#p71c6c163ba)" style="fill: #0000ff"/>
    <path d="M 280.79961 83.006885 
L 289.429554 84.70828 
L 289.172594 82.697405 
L 294.966181 86.453232 
L 288.1806 87.729073 
L 289.181556 85.966197 
L 280.551611 84.264802 
L 280.79961 83.006885 
" clip-path="url(#p71c6c163ba)" style="fill: #0000ff"/>
    <path d="M 280.779539 64.305928 
L 292.234961 66.187959 
L 291.914162 64.186277 
L 297.824295 67.7559 
L 291.082734 69.246954 
L 292.027104 67.453129 
L 280.571682 65.571097 
L 280.779539 64.305928 
" clip-path="url(#p71c6c163ba)" style="fill: #0000ff"/>
    <path d="M 280.765004 45.60638 
L 295.058587 47.619224 
L 294.691966 45.625425 
L 300.682409 49.058569 
L 293.976816 50.703839 
L 294.879799 48.888827 
L 280.586217 46.875983 
L 280.765004 45.60638 
" clip-path="url(#p71c6c163ba)" style="fill: #0000ff"/>
    <path d="M 299.614857 308.644883 
L 285.377641 308.659512 
L 286.020682 310.582048 
L 279.607399 308.024376 
L 286.015413 305.45353 
L 285.376324 307.377383 
L 299.613539 307.362754 
L 299.614857 308.644883 
" clip-path="url(#p71c6c163ba)" style="fill: #0000ff"/>
    <path d="M 299.614966 289.947552 
L 288.235864 289.961193 
L 288.879234 291.883619 
L 282.465513 289.327045 
L 288.873086 286.755101 
L 288.234327 288.679064 
L 299.613429 288.665423 
L 299.614966 289.947552 
" clip-path="url(#p71c6c163ba)" style="fill: #0000ff"/>
    <path d="M 299.61512 271.250221 
L 291.09413 271.262478 
L 291.737961 273.18475 
L 285.323628 270.629714 
L 291.730584 268.056234 
L 291.092286 269.980349 
L 299.613276 269.968092 
L 299.61512 271.250221 
" clip-path="url(#p71c6c163ba)" style="fill: #0000ff"/>
    <path d="M 299.615351 252.552889 
L 293.952471 252.563072 
L 294.596994 254.485111 
L 288.181742 251.932382 
L 294.587772 249.356599 
L 293.950166 251.280944 
L 299.613045 251.270761 
L 299.615351 252.552889 
" clip-path="url(#p71c6c163ba)" style="fill: #0000ff"/>
    <path d="M 299.615735 233.855557 
L 296.810962 233.862282 
L 297.456637 235.783934 
L 291.039856 233.235051 
L 297.444341 230.655428 
L 296.807888 232.580155 
L 299.612661 232.57343 
L 299.615735 233.855557 
" clip-path="url(#p71c6c163ba)" style="fill: #0000ff"/>
    <path d="M 299.616254 215.088785 
L 299.044631 215.090841 
L 299.622421 216.803654 
L 293.89797 214.53772 
L 299.605975 212.230671 
L 299.040519 213.947595 
L 299.612142 213.94554 
L 299.616254 215.088785 
" clip-path="url(#p71c6c163ba)" style="fill: #0000ff"/>
    <path d="M 299.616254 196.105643 
L 299.330442 196.107698 
L 299.622421 196.963077 
L 296.756084 195.840389 
L 299.605975 194.676586 
L 299.326331 195.536076 
L 299.612142 195.53402 
L 299.616254 196.105643 
" clip-path="url(#p71c6c163ba)" style="fill: #0000ff"/>
    <path d="M 299.614198 177.763565 
L 300.169377 177.443033 
L 300.169377 176.801967 
L 299.614198 176.481435 
L 299.059019 176.801967 
L 299.059019 177.443033 
L 299.614198 177.763565 
L 300.169377 177.443033 
" clip-path="url(#p71c6c163ba)" style="fill: #0000ff"/>
    <path d="M 299.616254 158.139357 
L 299.902065 158.141413 
L 299.622421 157.281923 
L 302.472312 158.445726 
L 299.605975 159.568414 
L 299.897953 158.713036 
L 299.612142 158.71098 
L 299.616254 158.139357 
" clip-path="url(#p71c6c163ba)" style="fill: #0000ff"/>
    <path d="M 299.616254 139.156215 
L 300.187876 139.15827 
L 299.622421 137.441346 
L 305.330426 139.748395 
L 299.605975 142.014329 
L 300.183765 140.301516 
L 299.612142 140.29946 
L 299.616254 139.156215 
" clip-path="url(#p71c6c163ba)" style="fill: #0000ff"/>
    <path d="M 299.615735 120.389443 
L 302.420507 120.396168 
L 301.784055 118.471441 
L 308.18854 121.051064 
L 301.771759 123.599947 
L 302.417433 121.678294 
L 299.612661 121.67157 
L 299.615735 120.389443 
" clip-path="url(#p71c6c163ba)" style="fill: #0000ff"/>
    <path d="M 299.615351 101.692111 
L 305.27823 101.702294 
L 304.640624 99.777949 
L 311.046654 102.353732 
L 304.631402 104.906461 
L 305.275924 102.984422 
L 299.613045 102.974239 
L 299.615351 101.692111 
" clip-path="url(#p71c6c163ba)" style="fill: #0000ff"/>
    <path d="M 299.61512 82.994779 
L 308.13611 83.007037 
L 307.497812 81.082921 
L 313.904768 83.656401 
L 307.490435 86.211437 
L 308.134266 84.289166 
L 299.613276 84.276908 
L 299.61512 82.994779 
" clip-path="url(#p71c6c163ba)" style="fill: #0000ff"/>
    <path d="M 299.614966 64.297448 
L 310.994068 64.311089 
L 310.355309 62.387126 
L 316.762882 64.95907 
L 310.349161 67.515644 
L 310.992531 65.593218 
L 299.613429 65.579577 
L 299.614966 64.297448 
" clip-path="url(#p71c6c163ba)" style="fill: #0000ff"/>
    <path d="M 299.614857 45.600117 
L 313.852072 45.614745 
L 313.212983 43.690892 
L 319.620996 46.261739 
L 313.207713 48.819411 
L 313.850754 46.896875 
L 299.613539 46.882246 
L 299.614857 45.600117 
" clip-path="url(#p71c6c163ba)" style="fill: #0000ff"/>
   </g>
   <g id="matplotlib.axis_1">
    <g id="xtick_1">
     <g id="line2d_1">
      <defs>
       <path id="m8d746418fb" d="M 0 0 
L 0 3.5 
" style="stroke: #000000; stroke-width: 0.8"/>
      </defs>
      <g>
       <use xlink:href="#m8d746418fb" x="34.473978" y="177.1225" style="stroke: #000000; stroke-width: 0.8"/>
      </g>
     </g>
    </g>
    <g id="xtick_2">
     <g id="line2d_2">
      <g>
       <use xlink:href="#m8d746418fb" x="76.693758" y="177.1225" style="stroke: #000000; stroke-width: 0.8"/>
      </g>
     </g>
     <g id="text_1">
      <!-- 1 -->
      <g transform="translate(73.512508 191.720937) scale(0.1 -0.1)">
       <defs>
        <path id="DejaVuSans-31" d="M 794 531 
L 1825 531 
L 1825 4091 
L 703 3866 
L 703 4441 
L 1819 4666 
L 2450 4666 
L 2450 531 
L 3481 531 
L 3481 0 
L 794 0 
L 794 531 
z
" transform="scale(0.015625)"/>
       </defs>
       <use xlink:href="#DejaVuSans-31"/>
      </g>
     </g>
    </g>
    <g id="xtick_3">
     <g id="line2d_3">
      <g>
       <use xlink:href="#m8d746418fb" x="118.913538" y="177.1225" style="stroke: #000000; stroke-width: 0.8"/>
      </g>
     </g>
     <g id="text_2">
      <!-- 2 -->
      <g transform="translate(115.732288 191.720937) scale(0.1 -0.1)">
       <defs>
        <path id="DejaVuSans-32" d="M 1228 531 
L 3431 531 
L 3431 0 
L 469 0 
L 469 531 
Q 828 903 1448 1529 
Q 2069 2156 2228 2338 
Q 2531 2678 2651 2914 
Q 2772 3150 2772 3378 
Q 2772 3750 2511 3984 
Q 2250 4219 1831 4219 
Q 1534 4219 1204 4116 
Q 875 4013 500 3803 
L 500 4441 
Q 881 4594 1212 4672 
Q 1544 4750 1819 4750 
Q 2544 4750 2975 4387 
Q 3406 4025 3406 3419 
Q 3406 3131 3298 2873 
Q 3191 2616 2906 2266 
Q 2828 2175 2409 1742 
Q 1991 1309 1228 531 
z
" transform="scale(0.015625)"/>
       </defs>
       <use xlink:href="#DejaVuSans-32"/>
      </g>
     </g>
    </g>
    <g id="xtick_4">
     <g id="line2d_4">
      <g>
       <use xlink:href="#m8d746418fb" x="161.133319" y="177.1225" style="stroke: #000000; stroke-width: 0.8"/>
      </g>
     </g>
     <g id="text_3">
      <!-- 3 -->
      <g transform="translate(157.952069 191.720937) scale(0.1 -0.1)">
       <defs>
        <path id="DejaVuSans-33" d="M 2597 2516 
Q 3050 2419 3304 2112 
Q 3559 1806 3559 1356 
Q 3559 666 3084 287 
Q 2609 -91 1734 -91 
Q 1441 -91 1130 -33 
Q 819 25 488 141 
L 488 750 
Q 750 597 1062 519 
Q 1375 441 1716 441 
Q 2309 441 2620 675 
Q 2931 909 2931 1356 
Q 2931 1769 2642 2001 
Q 2353 2234 1838 2234 
L 1294 2234 
L 1294 2753 
L 1863 2753 
Q 2328 2753 2575 2939 
Q 2822 3125 2822 3475 
Q 2822 3834 2567 4026 
Q 2313 4219 1838 4219 
Q 1578 4219 1281 4162 
Q 984 4106 628 3988 
L 628 4550 
Q 988 4650 1302 4700 
Q 1616 4750 1894 4750 
Q 2613 4750 3031 4423 
Q 3450 4097 3450 3541 
Q 3450 3153 3228 2886 
Q 3006 2619 2597 2516 
z
" transform="scale(0.015625)"/>
       </defs>
       <use xlink:href="#DejaVuSans-33"/>
      </g>
     </g>
    </g>
    <g id="xtick_5">
     <g id="line2d_5">
      <g>
       <use xlink:href="#m8d746418fb" x="203.353099" y="177.1225" style="stroke: #000000; stroke-width: 0.8"/>
      </g>
     </g>
     <g id="text_4">
      <!-- 4 -->
      <g transform="translate(200.171849 191.720937) scale(0.1 -0.1)">
       <defs>
        <path id="DejaVuSans-34" d="M 2419 4116 
L 825 1625 
L 2419 1625 
L 2419 4116 
z
M 2253 4666 
L 3047 4666 
L 3047 1625 
L 3713 1625 
L 3713 1100 
L 3047 1100 
L 3047 0 
L 2419 0 
L 2419 1100 
L 313 1100 
L 313 1709 
L 2253 4666 
z
" transform="scale(0.015625)"/>
       </defs>
       <use xlink:href="#DejaVuSans-34"/>
      </g>
     </g>
    </g>
    <g id="xtick_6">
     <g id="line2d_6">
      <g>
       <use xlink:href="#m8d746418fb" x="245.572879" y="177.1225" style="stroke: #000000; stroke-width: 0.8"/>
      </g>
     </g>
     <g id="text_5">
      <!-- 5 -->
      <g transform="translate(242.391629 191.720937) scale(0.1 -0.1)">
       <defs>
        <path id="DejaVuSans-35" d="M 691 4666 
L 3169 4666 
L 3169 4134 
L 1269 4134 
L 1269 2991 
Q 1406 3038 1543 3061 
Q 1681 3084 1819 3084 
Q 2600 3084 3056 2656 
Q 3513 2228 3513 1497 
Q 3513 744 3044 326 
Q 2575 -91 1722 -91 
Q 1428 -91 1123 -41 
Q 819 9 494 109 
L 494 744 
Q 775 591 1075 516 
Q 1375 441 1709 441 
Q 2250 441 2565 725 
Q 2881 1009 2881 1497 
Q 2881 1984 2565 2268 
Q 2250 2553 1709 2553 
Q 1456 2553 1204 2497 
Q 953 2441 691 2322 
L 691 4666 
z
" transform="scale(0.015625)"/>
       </defs>
       <use xlink:href="#DejaVuSans-35"/>
      </g>
     </g>
    </g>
    <g id="xtick_7">
     <g id="line2d_7">
      <g>
       <use xlink:href="#m8d746418fb" x="287.792659" y="177.1225" style="stroke: #000000; stroke-width: 0.8"/>
      </g>
     </g>
     <g id="text_6">
      <!-- 6 -->
      <g transform="translate(284.611409 191.720937) scale(0.1 -0.1)">
       <defs>
        <path id="DejaVuSans-36" d="M 2113 2584 
Q 1688 2584 1439 2293 
Q 1191 2003 1191 1497 
Q 1191 994 1439 701 
Q 1688 409 2113 409 
Q 2538 409 2786 701 
Q 3034 994 3034 1497 
Q 3034 2003 2786 2293 
Q 2538 2584 2113 2584 
z
M 3366 4563 
L 3366 3988 
Q 3128 4100 2886 4159 
Q 2644 4219 2406 4219 
Q 1781 4219 1451 3797 
Q 1122 3375 1075 2522 
Q 1259 2794 1537 2939 
Q 1816 3084 2150 3084 
Q 2853 3084 3261 2657 
Q 3669 2231 3669 1497 
Q 3669 778 3244 343 
Q 2819 -91 2113 -91 
Q 1303 -91 875 529 
Q 447 1150 447 2328 
Q 447 3434 972 4092 
Q 1497 4750 2381 4750 
Q 2619 4750 2861 4703 
Q 3103 4656 3366 4563 
z
" transform="scale(0.015625)"/>
       </defs>
       <use xlink:href="#DejaVuSans-36"/>
      </g>
     </g>
    </g>
    <g id="xtick_8">
     <g id="line2d_8">
      <defs>
       <path id="m6813a55c30" d="M 0 0 
L 0 2 
" style="stroke: #000000; stroke-width: 0.6"/>
      </defs>
      <g>
       <use xlink:href="#m6813a55c30" x="9.14211" y="177.1225" style="stroke: #000000; stroke-width: 0.6"/>
      </g>
     </g>
    </g>
    <g id="xtick_9">
     <g id="line2d_9">
      <g>
       <use xlink:href="#m6813a55c30" x="17.586066" y="177.1225" style="stroke: #000000; stroke-width: 0.6"/>
      </g>
     </g>
    </g>
    <g id="xtick_10">
     <g id="line2d_10">
      <g>
       <use xlink:href="#m6813a55c30" x="26.030022" y="177.1225" style="stroke: #000000; stroke-width: 0.6"/>
      </g>
     </g>
    </g>
    <g id="xtick_11">
     <g id="line2d_11">
      <g>
       <use xlink:href="#m6813a55c30" x="42.917934" y="177.1225" style="stroke: #000000; stroke-width: 0.6"/>
      </g>
     </g>
    </g>
    <g id="xtick_12">
     <g id="line2d_12">
      <g>
       <use xlink:href="#m6813a55c30" x="51.36189" y="177.1225" style="stroke: #000000; stroke-width: 0.6"/>
      </g>
     </g>
    </g>
    <g id="xtick_13">
     <g id="line2d_13">
      <g>
       <use xlink:href="#m6813a55c30" x="59.805846" y="177.1225" style="stroke: #000000; stroke-width: 0.6"/>
      </g>
     </g>
    </g>
    <g id="xtick_14">
     <g id="line2d_14">
      <g>
       <use xlink:href="#m6813a55c30" x="68.249802" y="177.1225" style="stroke: #000000; stroke-width: 0.6"/>
      </g>
     </g>
    </g>
    <g id="xtick_15">
     <g id="line2d_15">
      <g>
       <use xlink:href="#m6813a55c30" x="85.137714" y="177.1225" style="stroke: #000000; stroke-width: 0.6"/>
      </g>
     </g>
    </g>
    <g id="xtick_16">
     <g id="line2d_16">
      <g>
       <use xlink:href="#m6813a55c30" x="93.58167" y="177.1225" style="stroke: #000000; stroke-width: 0.6"/>
      </g>
     </g>
    </g>
    <g id="xtick_17">
     <g id="line2d_17">
      <g>
       <use xlink:href="#m6813a55c30" x="102.025626" y="177.1225" style="stroke: #000000; stroke-width: 0.6"/>
      </g>
     </g>
    </g>
    <g id="xtick_18">
     <g id="line2d_18">
      <g>
       <use xlink:href="#m6813a55c30" x="110.469582" y="177.1225" style="stroke: #000000; stroke-width: 0.6"/>
      </g>
     </g>
    </g>
    <g id="xtick_19">
     <g id="line2d_19">
      <g>
       <use xlink:href="#m6813a55c30" x="127.357495" y="177.1225" style="stroke: #000000; stroke-width: 0.6"/>
      </g>
     </g>
    </g>
    <g id="xtick_20">
     <g id="line2d_20">
      <g>
       <use xlink:href="#m6813a55c30" x="135.801451" y="177.1225" style="stroke: #000000; stroke-width: 0.6"/>
      </g>
     </g>
    </g>
    <g id="xtick_21">
     <g id="line2d_21">
      <g>
       <use xlink:href="#m6813a55c30" x="144.245407" y="177.1225" style="stroke: #000000; stroke-width: 0.6"/>
      </g>
     </g>
    </g>
    <g id="xtick_22">
     <g id="line2d_22">
      <g>
       <use xlink:href="#m6813a55c30" x="152.689363" y="177.1225" style="stroke: #000000; stroke-width: 0.6"/>
      </g>
     </g>
    </g>
    <g id="xtick_23">
     <g id="line2d_23">
      <g>
       <use xlink:href="#m6813a55c30" x="169.577275" y="177.1225" style="stroke: #000000; stroke-width: 0.6"/>
      </g>
     </g>
    </g>
    <g id="xtick_24">
     <g id="line2d_24">
      <g>
       <use xlink:href="#m6813a55c30" x="178.021231" y="177.1225" style="stroke: #000000; stroke-width: 0.6"/>
      </g>
     </g>
    </g>
    <g id="xtick_25">
     <g id="line2d_25">
      <g>
       <use xlink:href="#m6813a55c30" x="186.465187" y="177.1225" style="stroke: #000000; stroke-width: 0.6"/>
      </g>
     </g>
    </g>
    <g id="xtick_26">
     <g id="line2d_26">
      <g>
       <use xlink:href="#m6813a55c30" x="194.909143" y="177.1225" style="stroke: #000000; stroke-width: 0.6"/>
      </g>
     </g>
    </g>
    <g id="xtick_27">
     <g id="line2d_27">
      <g>
       <use xlink:href="#m6813a55c30" x="211.797055" y="177.1225" style="stroke: #000000; stroke-width: 0.6"/>
      </g>
     </g>
    </g>
    <g id="xtick_28">
     <g id="line2d_28">
      <g>
       <use xlink:href="#m6813a55c30" x="220.241011" y="177.1225" style="stroke: #000000; stroke-width: 0.6"/>
      </g>
     </g>
    </g>
    <g id="xtick_29">
     <g id="line2d_29">
      <g>
       <use xlink:href="#m6813a55c30" x="228.684967" y="177.1225" style="stroke: #000000; stroke-width: 0.6"/>
      </g>
     </g>
    </g>
    <g id="xtick_30">
     <g id="line2d_30">
      <g>
       <use xlink:href="#m6813a55c30" x="237.128923" y="177.1225" style="stroke: #000000; stroke-width: 0.6"/>
      </g>
     </g>
    </g>
    <g id="xtick_31">
     <g id="line2d_31">
      <g>
       <use xlink:href="#m6813a55c30" x="254.016835" y="177.1225" style="stroke: #000000; stroke-width: 0.6"/>
      </g>
     </g>
    </g>
    <g id="xtick_32">
     <g id="line2d_32">
      <g>
       <use xlink:href="#m6813a55c30" x="262.460791" y="177.1225" style="stroke: #000000; stroke-width: 0.6"/>
      </g>
     </g>
    </g>
    <g id="xtick_33">
     <g id="line2d_33">
      <g>
       <use xlink:href="#m6813a55c30" x="270.904747" y="177.1225" style="stroke: #000000; stroke-width: 0.6"/>
      </g>
     </g>
    </g>
    <g id="xtick_34">
     <g id="line2d_34">
      <g>
       <use xlink:href="#m6813a55c30" x="279.348703" y="177.1225" style="stroke: #000000; stroke-width: 0.6"/>
      </g>
     </g>
    </g>
    <g id="xtick_35">
     <g id="line2d_35">
      <g>
       <use xlink:href="#m6813a55c30" x="296.236615" y="177.1225" style="stroke: #000000; stroke-width: 0.6"/>
      </g>
     </g>
    </g>
    <g id="xtick_36">
     <g id="line2d_36">
      <g>
       <use xlink:href="#m6813a55c30" x="304.680571" y="177.1225" style="stroke: #000000; stroke-width: 0.6"/>
      </g>
     </g>
    </g>
    <g id="xtick_37">
     <g id="line2d_37">
      <g>
       <use xlink:href="#m6813a55c30" x="313.124527" y="177.1225" style="stroke: #000000; stroke-width: 0.6"/>
      </g>
     </g>
    </g>
    <g id="xtick_38">
     <g id="line2d_38">
      <g>
       <use xlink:href="#m6813a55c30" x="321.568484" y="177.1225" style="stroke: #000000; stroke-width: 0.6"/>
      </g>
     </g>
    </g>
    <g id="text_7">
     <!-- $x$ -->
     <g transform="translate(335.732571 177.1225) scale(0.16 -0.16)">
      <defs>
       <path id="Cmmi10-78" d="M 500 184 
Q 613 97 819 97 
Q 1019 97 1172 289 
Q 1325 481 1381 709 
L 1672 1844 
Q 1741 2153 1741 2266 
Q 1741 2425 1652 2544 
Q 1563 2663 1403 2663 
Q 1200 2663 1022 2536 
Q 844 2409 722 2214 
Q 600 2019 550 1819 
Q 538 1778 500 1778 
L 422 1778 
Q 372 1778 372 1838 
L 372 1856 
Q 434 2094 584 2320 
Q 734 2547 951 2687 
Q 1169 2828 1416 2828 
Q 1650 2828 1839 2703 
Q 2028 2578 2106 2363 
Q 2216 2559 2386 2693 
Q 2556 2828 2759 2828 
Q 2897 2828 3040 2779 
Q 3184 2731 3275 2631 
Q 3366 2531 3366 2381 
Q 3366 2219 3261 2101 
Q 3156 1984 2994 1984 
Q 2891 1984 2822 2050 
Q 2753 2116 2753 2216 
Q 2753 2350 2845 2451 
Q 2938 2553 3066 2572 
Q 2950 2663 2747 2663 
Q 2541 2663 2389 2472 
Q 2238 2281 2175 2047 
L 1894 916 
Q 1825 659 1825 494 
Q 1825 331 1917 214 
Q 2009 97 2163 97 
Q 2463 97 2698 361 
Q 2934 625 3009 941 
Q 3022 978 3059 978 
L 3138 978 
Q 3163 978 3178 961 
Q 3194 944 3194 922 
Q 3194 916 3188 903 
Q 3097 522 2806 225 
Q 2516 -72 2150 -72 
Q 1916 -72 1727 54 
Q 1538 181 1459 397 
Q 1359 209 1182 68 
Q 1006 -72 806 -72 
Q 669 -72 523 -23 
Q 378 25 287 125 
Q 197 225 197 378 
Q 197 528 301 651 
Q 406 775 563 775 
Q 669 775 741 711 
Q 813 647 813 544 
Q 813 409 723 309 
Q 634 209 500 184 
z
" transform="scale(0.015625)"/>
      </defs>
      <use xlink:href="#Cmmi10-78" transform="translate(0 0.8125)"/>
     </g>
    </g>
   </g>
   <g id="matplotlib.axis_2">
    <g id="ytick_1">
     <g id="line2d_39">
      <defs>
       <path id="m46f43b7c0a" d="M 0 0 
L -3.5 0 
" style="stroke: #000000; stroke-width: 0.8"/>
      </defs>
      <g>
       <use xlink:href="#m46f43b7c0a" x="34.473978" y="303.781841" style="stroke: #000000; stroke-width: 0.8"/>
      </g>
     </g>
     <g id="text_8">
      <!-- 3 -->
      <g transform="translate(12.731791 307.581059) scale(0.1 -0.1)">
       <defs>
        <path id="DejaVuSans-2212" d="M 678 2272 
L 4684 2272 
L 4684 1741 
L 678 1741 
L 678 2272 
z
" transform="scale(0.015625)"/>
       </defs>
       <use xlink:href="#DejaVuSans-2212"/>
       <use xlink:href="#DejaVuSans-33" x="83.789062"/>
      </g>
     </g>
    </g>
    <g id="ytick_2">
     <g id="line2d_40">
      <g>
       <use xlink:href="#m46f43b7c0a" x="34.473978" y="261.56206" style="stroke: #000000; stroke-width: 0.8"/>
      </g>
     </g>
     <g id="text_9">
      <!-- 2 -->
      <g transform="translate(12.731791 265.361279) scale(0.1 -0.1)">
       <use xlink:href="#DejaVuSans-2212"/>
       <use xlink:href="#DejaVuSans-32" x="83.789062"/>
      </g>
     </g>
    </g>
    <g id="ytick_3">
     <g id="line2d_41">
      <g>
       <use xlink:href="#m46f43b7c0a" x="34.473978" y="219.34228" style="stroke: #000000; stroke-width: 0.8"/>
      </g>
     </g>
     <g id="text_10">
      <!-- 1 -->
      <g transform="translate(12.731791 223.141499) scale(0.1 -0.1)">
       <use xlink:href="#DejaVuSans-2212"/>
       <use xlink:href="#DejaVuSans-31" x="83.789062"/>
      </g>
     </g>
    </g>
    <g id="ytick_4">
     <g id="line2d_42">
      <g>
       <use xlink:href="#m46f43b7c0a" x="34.473978" y="177.1225" style="stroke: #000000; stroke-width: 0.8"/>
      </g>
     </g>
    </g>
    <g id="ytick_5">
     <g id="line2d_43">
      <g>
       <use xlink:href="#m46f43b7c0a" x="34.473978" y="134.90272" style="stroke: #000000; stroke-width: 0.8"/>
      </g>
     </g>
     <g id="text_11">
      <!-- 1 -->
      <g transform="translate(21.111478 138.701939) scale(0.1 -0.1)">
       <use xlink:href="#DejaVuSans-31"/>
      </g>
     </g>
    </g>
    <g id="ytick_6">
     <g id="line2d_44">
      <g>
       <use xlink:href="#m46f43b7c0a" x="34.473978" y="92.68294" style="stroke: #000000; stroke-width: 0.8"/>
      </g>
     </g>
     <g id="text_12">
      <!-- 2 -->
      <g transform="translate(21.111478 96.482158) scale(0.1 -0.1)">
       <use xlink:href="#DejaVuSans-32"/>
      </g>
     </g>
    </g>
    <g id="ytick_7">
     <g id="line2d_45">
      <g>
       <use xlink:href="#m46f43b7c0a" x="34.473978" y="50.463159" style="stroke: #000000; stroke-width: 0.8"/>
      </g>
     </g>
     <g id="text_13">
      <!-- 3 -->
      <g transform="translate(21.111478 54.262378) scale(0.1 -0.1)">
       <use xlink:href="#DejaVuSans-33"/>
      </g>
     </g>
    </g>
    <g id="ytick_8">
     <g id="line2d_46">
      <defs>
       <path id="mcdde2ede92" d="M 0 0 
L -2 0 
" style="stroke: #000000; stroke-width: 0.6"/>
      </defs>
      <g>
       <use xlink:href="#mcdde2ede92" x="34.473978" y="329.113709" style="stroke: #000000; stroke-width: 0.6"/>
      </g>
     </g>
    </g>
    <g id="ytick_9">
     <g id="line2d_47">
      <g>
       <use xlink:href="#mcdde2ede92" x="34.473978" y="320.669753" style="stroke: #000000; stroke-width: 0.6"/>
      </g>
     </g>
    </g>
    <g id="ytick_10">
     <g id="line2d_48">
      <g>
       <use xlink:href="#mcdde2ede92" x="34.473978" y="312.225797" style="stroke: #000000; stroke-width: 0.6"/>
      </g>
     </g>
    </g>
    <g id="ytick_11">
     <g id="line2d_49">
      <g>
       <use xlink:href="#mcdde2ede92" x="34.473978" y="295.337885" style="stroke: #000000; stroke-width: 0.6"/>
      </g>
     </g>
    </g>
    <g id="ytick_12">
     <g id="line2d_50">
      <g>
       <use xlink:href="#mcdde2ede92" x="34.473978" y="286.893929" style="stroke: #000000; stroke-width: 0.6"/>
      </g>
     </g>
    </g>
    <g id="ytick_13">
     <g id="line2d_51">
      <g>
       <use xlink:href="#mcdde2ede92" x="34.473978" y="278.449973" style="stroke: #000000; stroke-width: 0.6"/>
      </g>
     </g>
    </g>
    <g id="ytick_14">
     <g id="line2d_52">
      <g>
       <use xlink:href="#mcdde2ede92" x="34.473978" y="270.006016" style="stroke: #000000; stroke-width: 0.6"/>
      </g>
     </g>
    </g>
    <g id="ytick_15">
     <g id="line2d_53">
      <g>
       <use xlink:href="#mcdde2ede92" x="34.473978" y="253.118104" style="stroke: #000000; stroke-width: 0.6"/>
      </g>
     </g>
    </g>
    <g id="ytick_16">
     <g id="line2d_54">
      <g>
       <use xlink:href="#mcdde2ede92" x="34.473978" y="244.674148" style="stroke: #000000; stroke-width: 0.6"/>
      </g>
     </g>
    </g>
    <g id="ytick_17">
     <g id="line2d_55">
      <g>
       <use xlink:href="#mcdde2ede92" x="34.473978" y="236.230192" style="stroke: #000000; stroke-width: 0.6"/>
      </g>
     </g>
    </g>
    <g id="ytick_18">
     <g id="line2d_56">
      <g>
       <use xlink:href="#mcdde2ede92" x="34.473978" y="227.786236" style="stroke: #000000; stroke-width: 0.6"/>
      </g>
     </g>
    </g>
    <g id="ytick_19">
     <g id="line2d_57">
      <g>
       <use xlink:href="#mcdde2ede92" x="34.473978" y="210.898324" style="stroke: #000000; stroke-width: 0.6"/>
      </g>
     </g>
    </g>
    <g id="ytick_20">
     <g id="line2d_58">
      <g>
       <use xlink:href="#mcdde2ede92" x="34.473978" y="202.454368" style="stroke: #000000; stroke-width: 0.6"/>
      </g>
     </g>
    </g>
    <g id="ytick_21">
     <g id="line2d_59">
      <g>
       <use xlink:href="#mcdde2ede92" x="34.473978" y="194.010412" style="stroke: #000000; stroke-width: 0.6"/>
      </g>
     </g>
    </g>
    <g id="ytick_22">
     <g id="line2d_60">
      <g>
       <use xlink:href="#mcdde2ede92" x="34.473978" y="185.566456" style="stroke: #000000; stroke-width: 0.6"/>
      </g>
     </g>
    </g>
    <g id="ytick_23">
     <g id="line2d_61">
      <g>
       <use xlink:href="#mcdde2ede92" x="34.473978" y="168.678544" style="stroke: #000000; stroke-width: 0.6"/>
      </g>
     </g>
    </g>
    <g id="ytick_24">
     <g id="line2d_62">
      <g>
       <use xlink:href="#mcdde2ede92" x="34.473978" y="160.234588" style="stroke: #000000; stroke-width: 0.6"/>
      </g>
     </g>
    </g>
    <g id="ytick_25">
     <g id="line2d_63">
      <g>
       <use xlink:href="#mcdde2ede92" x="34.473978" y="151.790632" style="stroke: #000000; stroke-width: 0.6"/>
      </g>
     </g>
    </g>
    <g id="ytick_26">
     <g id="line2d_64">
      <g>
       <use xlink:href="#mcdde2ede92" x="34.473978" y="143.346676" style="stroke: #000000; stroke-width: 0.6"/>
      </g>
     </g>
    </g>
    <g id="ytick_27">
     <g id="line2d_65">
      <g>
       <use xlink:href="#mcdde2ede92" x="34.473978" y="126.458764" style="stroke: #000000; stroke-width: 0.6"/>
      </g>
     </g>
    </g>
    <g id="ytick_28">
     <g id="line2d_66">
      <g>
       <use xlink:href="#mcdde2ede92" x="34.473978" y="118.014808" style="stroke: #000000; stroke-width: 0.6"/>
      </g>
     </g>
    </g>
    <g id="ytick_29">
     <g id="line2d_67">
      <g>
       <use xlink:href="#mcdde2ede92" x="34.473978" y="109.570852" style="stroke: #000000; stroke-width: 0.6"/>
      </g>
     </g>
    </g>
    <g id="ytick_30">
     <g id="line2d_68">
      <g>
       <use xlink:href="#mcdde2ede92" x="34.473978" y="101.126896" style="stroke: #000000; stroke-width: 0.6"/>
      </g>
     </g>
    </g>
    <g id="ytick_31">
     <g id="line2d_69">
      <g>
       <use xlink:href="#mcdde2ede92" x="34.473978" y="84.238984" style="stroke: #000000; stroke-width: 0.6"/>
      </g>
     </g>
    </g>
    <g id="ytick_32">
     <g id="line2d_70">
      <g>
       <use xlink:href="#mcdde2ede92" x="34.473978" y="75.795027" style="stroke: #000000; stroke-width: 0.6"/>
      </g>
     </g>
    </g>
    <g id="ytick_33">
     <g id="line2d_71">
      <g>
       <use xlink:href="#mcdde2ede92" x="34.473978" y="67.351071" style="stroke: #000000; stroke-width: 0.6"/>
      </g>
     </g>
    </g>
    <g id="ytick_34">
     <g id="line2d_72">
      <g>
       <use xlink:href="#mcdde2ede92" x="34.473978" y="58.907115" style="stroke: #000000; stroke-width: 0.6"/>
      </g>
     </g>
    </g>
    <g id="ytick_35">
     <g id="line2d_73">
      <g>
       <use xlink:href="#mcdde2ede92" x="34.473978" y="42.019203" style="stroke: #000000; stroke-width: 0.6"/>
      </g>
     </g>
    </g>
    <g id="ytick_36">
     <g id="line2d_74">
      <g>
       <use xlink:href="#mcdde2ede92" x="34.473978" y="33.575247" style="stroke: #000000; stroke-width: 0.6"/>
      </g>
     </g>
    </g>
    <g id="ytick_37">
     <g id="line2d_75">
      <g>
       <use xlink:href="#mcdde2ede92" x="34.473978" y="25.131291" style="stroke: #000000; stroke-width: 0.6"/>
      </g>
     </g>
    </g>
    <g id="text_14">
     <!-- $y$ -->
     <g transform="translate(30.473978 12.0825) scale(0.16 -0.16)">
      <defs>
       <path id="Cmmi10-79" d="M 538 -916 
Q 672 -1147 1006 -1147 
Q 1309 -1147 1531 -934 
Q 1753 -722 1889 -420 
Q 2025 -119 2100 197 
Q 1816 -72 1484 -72 
Q 1231 -72 1053 15 
Q 875 103 776 276 
Q 678 450 678 697 
Q 678 906 734 1126 
Q 791 1347 892 1617 
Q 994 1888 1069 2088 
Q 1153 2322 1153 2472 
Q 1153 2663 1013 2663 
Q 759 2663 595 2402 
Q 431 2141 353 1819 
Q 341 1778 300 1778 
L 225 1778 
Q 172 1778 172 1838 
L 172 1856 
Q 275 2238 487 2533 
Q 700 2828 1025 2828 
Q 1253 2828 1411 2678 
Q 1569 2528 1569 2297 
Q 1569 2178 1516 2047 
Q 1488 1969 1388 1706 
Q 1288 1444 1234 1272 
Q 1181 1100 1147 934 
Q 1113 769 1113 603 
Q 1113 391 1203 244 
Q 1294 97 1491 97 
Q 1888 97 2203 581 
L 2688 2553 
Q 2709 2638 2787 2698 
Q 2866 2759 2956 2759 
Q 3034 2759 3092 2709 
Q 3150 2659 3150 2578 
Q 3150 2541 3144 2528 
L 2509 -19 
Q 2425 -347 2200 -647 
Q 1975 -947 1658 -1130 
Q 1341 -1313 997 -1313 
Q 831 -1313 668 -1248 
Q 506 -1184 406 -1056 
Q 306 -928 306 -756 
Q 306 -581 409 -453 
Q 513 -325 684 -325 
Q 788 -325 858 -389 
Q 928 -453 928 -556 
Q 928 -703 818 -812 
Q 709 -922 563 -922 
Q 556 -919 550 -917 
Q 544 -916 538 -916 
z
" transform="scale(0.015625)"/>
      </defs>
      <use xlink:href="#Cmmi10-79" transform="translate(0 0.8125)"/>
     </g>
    </g>
   </g>
   <g id="patch_3">
    <path d="M 34.473978 330.8025 
L 34.473978 23.4425 
" style="fill: none; stroke: #000000; stroke-width: 0.8; stroke-linejoin: miter; stroke-linecap: square"/>
   </g>
   <g id="patch_4">
    <path d="M 7.2 177.1225 
L 327.732571 177.1225 
" style="fill: none; stroke: #000000; stroke-width: 0.8; stroke-linejoin: miter; stroke-linecap: square"/>
   </g>
  </g>
 </g>
 <defs>
  <clipPath id="p71c6c163ba">
   <rect x="7.2" y="23.4425" width="320.532571" height="307.36"/>
  </clipPath>
 </defs>
</svg>
