<?xml version="1.0" encoding="utf-8" standalone="no"?>
<!DOCTYPE svg PUBLIC "-//W3C//DTD SVG 1.1//EN"
  "http://www.w3.org/Graphics/SVG/1.1/DTD/svg11.dtd">
<svg xmlns:xlink="http://www.w3.org/1999/xlink" width="225.628385pt" height="333.456324pt" viewBox="0 0 225.628385 333.456324" xmlns="http://www.w3.org/2000/svg" version="1.1">
 <metadata>
  <rdf:RDF xmlns:dc="http://purl.org/dc/elements/1.1/" xmlns:cc="http://creativecommons.org/ns#" xmlns:rdf="http://www.w3.org/1999/02/22-rdf-syntax-ns#">
   <cc:Work>
    <dc:type rdf:resource="http://purl.org/dc/dcmitype/StillImage"/>
    <dc:date>2024-12-16T16:39:23.239486</dc:date>
    <dc:format>image/svg+xml</dc:format>
    <dc:creator>
     <cc:Agent>
      <dc:title>Matplotlib v3.6.2, https://matplotlib.org/</dc:title>
     </cc:Agent>
    </dc:creator>
   </cc:Work>
  </rdf:RDF>
 </metadata>
 <defs>
  <style type="text/css">*{stroke-linejoin: round; stroke-linecap: butt}</style>
 </defs>
 <g id="figure_1">
  <g id="patch_1">
   <path d="M 0 333.456324 
L 225.628385 333.456324 
L 225.628385 0 
L 0 0 
z
" style="fill: #ffffff"/>
  </g>
  <g id="axes_1">
   <g id="patch_2">
    <path d="M 7.2 325.14945 
L 218.428385 325.14945 
L 218.428385 8.306874 
L 7.2 8.306874 
z
" style="fill: #ffffff"/>
   </g>
   <g id="PathCollection_1">
    <path d="M 11.262084 321.292392 
C 11.855096 321.292392 12.4239 321.056786 12.843223 320.637463 
C 13.262546 320.21814 13.498152 319.649336 13.498152 319.056324 
C 13.498152 318.463312 13.262546 317.894508 12.843223 317.475185 
C 12.4239 317.055862 11.855096 316.820256 11.262084 316.820256 
C 10.669072 316.820256 10.100268 317.055862 9.680945 317.475185 
C 9.261623 317.894508 9.026016 318.463312 9.026016 319.056324 
C 9.026016 319.649336 9.261623 320.21814 9.680945 320.637463 
C 10.100268 321.056786 10.669072 321.292392 11.262084 321.292392 
z
" clip-path="url(#pa7dbd7355c)"/>
   </g>
   <g id="PathCollection_2">
    <path d="M 127.321636 89.173288 
C 127.914648 89.173288 128.483452 88.937682 128.902775 88.518359 
C 129.322098 88.099036 129.557704 87.530232 129.557704 86.93722 
C 129.557704 86.344208 129.322098 85.775404 128.902775 85.356081 
C 128.483452 84.936758 127.914648 84.701152 127.321636 84.701152 
C 126.728624 84.701152 126.15982 84.936758 125.740497 85.356081 
C 125.321175 85.775404 125.085568 86.344208 125.085568 86.93722 
C 125.085568 87.530232 125.321175 88.099036 125.740497 88.518359 
C 126.15982 88.937682 126.728624 89.173288 127.321636 89.173288 
z
" clip-path="url(#pa7dbd7355c)"/>
   </g>
   <g id="PathCollection_3">
    <path d="M 214.3663 89.173288 
C 214.959312 89.173288 215.528116 88.937682 215.947439 88.518359 
C 216.366762 88.099036 216.602368 87.530232 216.602368 86.93722 
C 216.602368 86.344208 216.366762 85.775404 215.947439 85.356081 
C 215.528116 84.936758 214.959312 84.701152 214.3663 84.701152 
C 213.773288 84.701152 213.204484 84.936758 212.785161 85.356081 
C 212.365839 85.775404 212.130232 86.344208 212.130232 86.93722 
C 212.130232 87.530232 212.365839 88.099036 212.785161 88.518359 
C 213.204484 88.937682 213.773288 89.173288 214.3663 89.173288 
z
" clip-path="url(#pa7dbd7355c)"/>
   </g>
   <g id="PathCollection_4">
    <path d="M 214.3663 31.143512 
C 214.959312 31.143512 215.528116 30.907906 215.947439 30.488583 
C 216.366762 30.06926 216.602368 29.500456 216.602368 28.907444 
C 216.602368 28.314432 216.366762 27.745628 215.947439 27.326305 
C 215.528116 26.906982 214.959312 26.671376 214.3663 26.671376 
C 213.773288 26.671376 213.204484 26.906982 212.785161 27.326305 
C 212.365839 27.745628 212.130232 28.314432 212.130232 28.907444 
C 212.130232 29.500456 212.365839 30.06926 212.785161 30.488583 
C 213.204484 30.907906 213.773288 31.143512 214.3663 31.143512 
z
" clip-path="url(#pa7dbd7355c)"/>
   </g>
   <g id="matplotlib.axis_1"/>
   <g id="matplotlib.axis_2"/>
   <g id="line2d_1">
    <path d="M 11.262084 319.056324 
L 16.60478 298.177433 
L 21.754729 278.982972 
L 26.694691 261.430089 
L 31.600619 244.830526 
L 36.54154 228.950966 
L 41.151397 214.894118 
L 45.921926 201.118479 
L 50.21026 189.404691 
L 54.823154 177.511926 
L 59.520508 166.155052 
L 63.770118 156.535895 
L 67.755542 148.080306 
L 71.638555 140.368505 
L 75.325889 133.526366 
L 79.292121 126.689817 
L 82.597516 121.40654 
L 85.931599 116.458878 
L 89.37977 111.744919 
L 92.844471 107.421099 
L 96.293673 103.527573 
L 99.541595 100.236094 
L 102.6492 97.427165 
L 105.476496 95.16076 
L 108.229877 93.218397 
L 111.013244 91.520447 
L 113.695549 90.136789 
L 116.608092 88.91517 
L 119.265729 88.055571 
L 122.054988 87.415209 
L 124.221208 87.10287 
L 126.574335 86.946844 
L 127.321636 86.93722 
L 127.321636 86.93722 
" clip-path="url(#pa7dbd7355c)" style="fill: none; stroke: #000000; stroke-linecap: square"/>
   </g>
   <g id="patch_3">
    <path d="M 54.784416 177.608745 
Q 56.235161 174.054421 56.840902 172.570356 
" clip-path="url(#pa7dbd7355c)" style="fill: none; stroke: #000000; stroke-width: 2; stroke-linecap: round"/>
    <path d="M 48.432694 179.939347 
L 56.840902 172.570356 
L 57.69117 183.718317 
L 48.432694 179.939347 
z
" clip-path="url(#pa7dbd7355c)" style="stroke: #000000; stroke-width: 2; stroke-linecap: round"/>
   </g>
   <g id="line2d_2">
    <path d="M 127.321636 86.93722 
L 214.3663 86.93722 
L 214.3663 86.93722 
" clip-path="url(#pa7dbd7355c)" style="fill: none; stroke: #000000; stroke-linecap: square"/>
   </g>
   <g id="patch_4">
    <path d="M 170.843968 86.93722 
Q 178.09769 86.93722 183.115344 86.93722 
" clip-path="url(#pa7dbd7355c)" style="fill: none; stroke: #000000; stroke-width: 2; stroke-linecap: round"/>
    <path d="M 173.115344 81.93722 
L 183.115344 86.93722 
L 173.115344 91.93722 
L 173.115344 81.93722 
z
" clip-path="url(#pa7dbd7355c)" style="stroke: #000000; stroke-width: 2; stroke-linecap: round"/>
   </g>
   <g id="line2d_3">
    <path d="M 214.3663 86.93722 
L 214.3663 28.907444 
L 214.3663 28.907444 
" clip-path="url(#pa7dbd7355c)" style="fill: none; stroke: #000000; stroke-linecap: square"/>
   </g>
   <g id="patch_5">
    <path d="M 214.3663 69.528287 
Q 214.3663 60.823821 214.3663 54.355422 
" clip-path="url(#pa7dbd7355c)" style="fill: none; stroke: #000000; stroke-width: 2; stroke-linecap: round"/>
    <path d="M 209.3663 64.355422 
L 214.3663 54.355422 
L 219.3663 64.355422 
L 209.3663 64.355422 
z
" clip-path="url(#pa7dbd7355c)" style="stroke: #000000; stroke-width: 2; stroke-linecap: round"/>
   </g>
   <g id="text_1">
    <!-- $(x_0,y_0)$ -->
    <g transform="translate(26.517439 322.656324) scale(0.144 -0.144)">
     <defs>
      <path id="Cmr10-28" d="M 1984 -1588 
Q 1628 -1306 1370 -942 
Q 1113 -578 948 -165 
Q 784 247 703 697 
Q 622 1147 622 1600 
Q 622 2059 703 2509 
Q 784 2959 951 3375 
Q 1119 3791 1378 4153 
Q 1638 4516 1984 4788 
Q 1984 4800 2016 4800 
L 2075 4800 
Q 2094 4800 2109 4783 
Q 2125 4766 2125 4744 
Q 2125 4716 2113 4703 
Q 1800 4397 1592 4047 
Q 1384 3697 1257 3301 
Q 1131 2906 1075 2482 
Q 1019 2059 1019 1600 
Q 1019 -434 2106 -1491 
Q 2125 -1509 2125 -1544 
Q 2125 -1559 2108 -1579 
Q 2091 -1600 2075 -1600 
L 2016 -1600 
Q 1984 -1600 1984 -1588 
z
" transform="scale(0.015625)"/>
      <path id="Cmmi10-78" d="M 500 184 
Q 613 97 819 97 
Q 1019 97 1172 289 
Q 1325 481 1381 709 
L 1672 1844 
Q 1741 2153 1741 2266 
Q 1741 2425 1652 2544 
Q 1563 2663 1403 2663 
Q 1200 2663 1022 2536 
Q 844 2409 722 2214 
Q 600 2019 550 1819 
Q 538 1778 500 1778 
L 422 1778 
Q 372 1778 372 1838 
L 372 1856 
Q 434 2094 584 2320 
Q 734 2547 951 2687 
Q 1169 2828 1416 2828 
Q 1650 2828 1839 2703 
Q 2028 2578 2106 2363 
Q 2216 2559 2386 2693 
Q 2556 2828 2759 2828 
Q 2897 2828 3040 2779 
Q 3184 2731 3275 2631 
Q 3366 2531 3366 2381 
Q 3366 2219 3261 2101 
Q 3156 1984 2994 1984 
Q 2891 1984 2822 2050 
Q 2753 2116 2753 2216 
Q 2753 2350 2845 2451 
Q 2938 2553 3066 2572 
Q 2950 2663 2747 2663 
Q 2541 2663 2389 2472 
Q 2238 2281 2175 2047 
L 1894 916 
Q 1825 659 1825 494 
Q 1825 331 1917 214 
Q 2009 97 2163 97 
Q 2463 97 2698 361 
Q 2934 625 3009 941 
Q 3022 978 3059 978 
L 3138 978 
Q 3163 978 3178 961 
Q 3194 944 3194 922 
Q 3194 916 3188 903 
Q 3097 522 2806 225 
Q 2516 -72 2150 -72 
Q 1916 -72 1727 54 
Q 1538 181 1459 397 
Q 1359 209 1182 68 
Q 1006 -72 806 -72 
Q 669 -72 523 -23 
Q 378 25 287 125 
Q 197 225 197 378 
Q 197 528 301 651 
Q 406 775 563 775 
Q 669 775 741 711 
Q 813 647 813 544 
Q 813 409 723 309 
Q 634 209 500 184 
z
" transform="scale(0.015625)"/>
      <path id="Cmr10-30" d="M 1600 -141 
Q 816 -141 533 504 
Q 250 1150 250 2041 
Q 250 2597 351 3087 
Q 453 3578 754 3920 
Q 1056 4263 1600 4263 
Q 2022 4263 2290 4056 
Q 2559 3850 2700 3523 
Q 2841 3197 2892 2823 
Q 2944 2450 2944 2041 
Q 2944 1491 2842 1011 
Q 2741 531 2444 195 
Q 2147 -141 1600 -141 
z
M 1600 25 
Q 1956 25 2131 390 
Q 2306 756 2347 1200 
Q 2388 1644 2388 2144 
Q 2388 2625 2347 3031 
Q 2306 3438 2132 3767 
Q 1959 4097 1600 4097 
Q 1238 4097 1063 3765 
Q 888 3434 847 3029 
Q 806 2625 806 2144 
Q 806 1788 823 1472 
Q 841 1156 916 820 
Q 991 484 1158 254 
Q 1325 25 1600 25 
z
" transform="scale(0.015625)"/>
      <path id="Cmmi10-3b" d="M 634 -1153 
Q 634 -1125 659 -1100 
Q 891 -878 1019 -587 
Q 1147 -297 1147 25 
L 1147 103 
Q 1044 0 891 0 
Q 744 0 641 103 
Q 538 206 538 353 
Q 538 503 641 603 
Q 744 703 891 703 
Q 1119 703 1216 492 
Q 1313 281 1313 25 
Q 1313 -331 1170 -651 
Q 1028 -972 769 -1228 
Q 744 -1241 728 -1241 
Q 697 -1241 665 -1212 
Q 634 -1184 634 -1153 
z
" transform="scale(0.015625)"/>
      <path id="Cmmi10-79" d="M 538 -916 
Q 672 -1147 1006 -1147 
Q 1309 -1147 1531 -934 
Q 1753 -722 1889 -420 
Q 2025 -119 2100 197 
Q 1816 -72 1484 -72 
Q 1231 -72 1053 15 
Q 875 103 776 276 
Q 678 450 678 697 
Q 678 906 734 1126 
Q 791 1347 892 1617 
Q 994 1888 1069 2088 
Q 1153 2322 1153 2472 
Q 1153 2663 1013 2663 
Q 759 2663 595 2402 
Q 431 2141 353 1819 
Q 341 1778 300 1778 
L 225 1778 
Q 172 1778 172 1838 
L 172 1856 
Q 275 2238 487 2533 
Q 700 2828 1025 2828 
Q 1253 2828 1411 2678 
Q 1569 2528 1569 2297 
Q 1569 2178 1516 2047 
Q 1488 1969 1388 1706 
Q 1288 1444 1234 1272 
Q 1181 1100 1147 934 
Q 1113 769 1113 603 
Q 1113 391 1203 244 
Q 1294 97 1491 97 
Q 1888 97 2203 581 
L 2688 2553 
Q 2709 2638 2787 2698 
Q 2866 2759 2956 2759 
Q 3034 2759 3092 2709 
Q 3150 2659 3150 2578 
Q 3150 2541 3144 2528 
L 2509 -19 
Q 2425 -347 2200 -647 
Q 1975 -947 1658 -1130 
Q 1341 -1313 997 -1313 
Q 831 -1313 668 -1248 
Q 506 -1184 406 -1056 
Q 306 -928 306 -756 
Q 306 -581 409 -453 
Q 513 -325 684 -325 
Q 788 -325 858 -389 
Q 928 -453 928 -556 
Q 928 -703 818 -812 
Q 709 -922 563 -922 
Q 556 -919 550 -917 
Q 544 -916 538 -916 
z
" transform="scale(0.015625)"/>
      <path id="Cmr10-29" d="M 416 -1600 
Q 359 -1600 359 -1544 
Q 359 -1516 372 -1503 
Q 1466 -434 1466 1600 
Q 1466 3634 384 4691 
Q 359 4706 359 4744 
Q 359 4766 376 4783 
Q 394 4800 416 4800 
L 475 4800 
Q 494 4800 506 4788 
Q 966 4425 1272 3906 
Q 1578 3388 1720 2800 
Q 1863 2213 1863 1600 
Q 1863 1147 1786 708 
Q 1709 269 1542 -157 
Q 1375 -584 1119 -945 
Q 863 -1306 506 -1588 
Q 494 -1600 475 -1600 
L 416 -1600 
z
" transform="scale(0.015625)"/>
     </defs>
     <use xlink:href="#Cmr10-28"/>
     <use xlink:href="#Cmmi10-78" transform="translate(38.818359 0)"/>
     <use xlink:href="#Cmr10-30" transform="translate(95.898438 -17.00625) scale(0.7)"/>
     <use xlink:href="#Cmmi10-3b" transform="translate(137.275781 0)"/>
     <use xlink:href="#Cmmi10-79" transform="translate(182.519922 0)"/>
     <use xlink:href="#Cmr10-30" transform="translate(231.543359 -17.00625) scale(0.7)"/>
     <use xlink:href="#Cmr10-29" transform="translate(272.920703 0)"/>
    </g>
   </g>
   <g id="text_2">
    <!-- $(a,b)$ -->
    <g transform="translate(120.258103 105.044664) scale(0.144 -0.144)">
     <defs>
      <path id="Cmmi10-61" d="M 1113 -72 
Q 709 -72 476 233 
Q 244 538 244 953 
Q 244 1363 456 1803 
Q 669 2244 1030 2536 
Q 1391 2828 1806 2828 
Q 1997 2828 2147 2725 
Q 2297 2622 2381 2444 
Q 2453 2700 2663 2700 
Q 2744 2700 2798 2651 
Q 2853 2603 2853 2522 
Q 2853 2503 2851 2493 
Q 2850 2484 2847 2472 
L 2400 684 
Q 2356 494 2356 372 
Q 2356 97 2541 97 
Q 2741 97 2845 351 
Q 2950 606 3022 941 
Q 3034 978 3072 978 
L 3150 978 
Q 3175 978 3190 956 
Q 3206 934 3206 916 
Q 3094 469 2961 198 
Q 2828 -72 2528 -72 
Q 2313 -72 2147 54 
Q 1981 181 1941 391 
Q 1528 -72 1113 -72 
z
M 1119 97 
Q 1350 97 1567 270 
Q 1784 444 1941 678 
Q 1947 684 1947 697 
L 2291 2088 
L 2297 2106 
Q 2259 2334 2132 2498 
Q 2006 2663 1791 2663 
Q 1575 2663 1389 2486 
Q 1203 2309 1075 2069 
Q 950 1813 836 1366 
Q 722 919 722 672 
Q 722 450 817 273 
Q 913 97 1119 97 
z
" transform="scale(0.015625)"/>
      <path id="Cmmi10-62" d="M 1106 -72 
Q 719 -72 503 231 
Q 288 534 288 941 
Q 288 1000 317 1173 
Q 347 1347 347 1388 
L 966 3872 
Q 991 3981 997 4044 
Q 997 4147 581 4147 
Q 519 4147 519 4231 
Q 522 4247 533 4287 
Q 544 4328 561 4350 
Q 578 4372 609 4372 
L 1472 4441 
Q 1550 4441 1550 4359 
L 1075 2472 
Q 1438 2828 1806 2828 
Q 2078 2828 2273 2684 
Q 2469 2541 2566 2306 
Q 2663 2072 2663 1806 
Q 2663 1497 2542 1167 
Q 2422 838 2209 555 
Q 1997 272 1712 100 
Q 1428 -72 1106 -72 
z
M 1119 97 
Q 1338 97 1528 280 
Q 1719 463 1838 691 
Q 1966 947 2077 1386 
Q 2188 1825 2188 2088 
Q 2188 2316 2092 2489 
Q 1997 2663 1791 2663 
Q 1559 2663 1348 2492 
Q 1138 2322 978 2088 
L 800 1363 
Q 697 959 691 716 
Q 691 475 795 286 
Q 900 97 1119 97 
z
" transform="scale(0.015625)"/>
     </defs>
     <use xlink:href="#Cmr10-28"/>
     <use xlink:href="#Cmmi10-61" transform="translate(38.818359 0)"/>
     <use xlink:href="#Cmmi10-3b" transform="translate(91.601562 0)"/>
     <use xlink:href="#Cmmi10-62" transform="translate(136.845703 0)"/>
     <use xlink:href="#Cmr10-29" transform="translate(179.765625 0)"/>
    </g>
   </g>
   <g id="text_3">
    <!-- $(x,y)$ -->
    <g transform="translate(177.567879 18) scale(0.144 -0.144)">
     <use xlink:href="#Cmr10-28"/>
     <use xlink:href="#Cmmi10-78" transform="translate(38.818359 0)"/>
     <use xlink:href="#Cmmi10-3b" transform="translate(95.898438 0)"/>
     <use xlink:href="#Cmmi10-79" transform="translate(141.142578 0)"/>
     <use xlink:href="#Cmr10-29" transform="translate(190.166016 0)"/>
    </g>
   </g>
  </g>
 </g>
 <defs>
  <clipPath id="pa7dbd7355c">
   <rect x="7.2" y="8.306874" width="211.228385" height="316.842577"/>
  </clipPath>
 </defs>
</svg>
