<?xml version="1.0" encoding="utf-8" standalone="no"?>
<!DOCTYPE svg PUBLIC "-//W3C//DTD SVG 1.1//EN"
  "http://www.w3.org/Graphics/SVG/1.1/DTD/svg11.dtd">
<svg xmlns:xlink="http://www.w3.org/1999/xlink" width="211.617391pt" height="338.4pt" viewBox="0 0 211.617391 338.4" xmlns="http://www.w3.org/2000/svg" version="1.1">
 <metadata>
  <rdf:RDF xmlns:dc="http://purl.org/dc/elements/1.1/" xmlns:cc="http://creativecommons.org/ns#" xmlns:rdf="http://www.w3.org/1999/02/22-rdf-syntax-ns#">
   <cc:Work>
    <dc:type rdf:resource="http://purl.org/dc/dcmitype/StillImage"/>
    <dc:date>2024-12-04T08:27:18.312940</dc:date>
    <dc:format>image/svg+xml</dc:format>
    <dc:creator>
     <cc:Agent>
      <dc:title>Matplotlib v3.6.2, https://matplotlib.org/</dc:title>
     </cc:Agent>
    </dc:creator>
   </cc:Work>
  </rdf:RDF>
 </metadata>
 <defs>
  <style type="text/css">*{stroke-linejoin: round; stroke-linecap: butt}</style>
 </defs>
 <g id="figure_1">
  <g id="patch_1">
   <path d="M 0 338.4 
L 211.617391 338.4 
L 211.617391 0 
L 0 0 
z
" style="fill: #ffffff"/>
  </g>
  <g id="axes_1">
   <g id="patch_2">
    <path d="M 7.2 331.2 
L 204.417391 331.2 
L 204.417391 7.2 
L 7.2 7.2 
z
" style="fill: #ffffff"/>
   </g>
   <g id="PathCollection_1">
    <path d="M 10.992642 313.660148 
C 11.585654 313.660148 12.154458 313.424542 12.573781 313.005219 
C 12.993104 312.585896 13.22871 312.017092 13.22871 311.42408 
C 13.22871 310.831068 12.993104 310.262264 12.573781 309.842941 
C 12.154458 309.423619 11.585654 309.188012 10.992642 309.188012 
C 10.39963 309.188012 9.830826 309.423619 9.411503 309.842941 
C 8.99218 310.262264 8.756574 310.831068 8.756574 311.42408 
C 8.756574 312.017092 8.99218 312.585896 9.411503 313.005219 
C 9.830826 313.424542 10.39963 313.660148 10.992642 313.660148 
z
" clip-path="url(#pf89c766384)"/>
   </g>
   <g id="PathCollection_2">
    <path d="M 119.353846 96.93774 
C 119.946858 96.93774 120.515662 96.702134 120.934985 96.282811 
C 121.354308 95.863488 121.589914 95.294684 121.589914 94.701672 
C 121.589914 94.10866 121.354308 93.539856 120.934985 93.120533 
C 120.515662 92.70121 119.946858 92.465604 119.353846 92.465604 
C 118.760834 92.465604 118.19203 92.70121 117.772707 93.120533 
C 117.353384 93.539856 117.117778 94.10866 117.117778 94.701672 
C 117.117778 95.294684 117.353384 95.863488 117.772707 96.282811 
C 118.19203 96.702134 118.760834 96.93774 119.353846 96.93774 
z
" clip-path="url(#pf89c766384)"/>
   </g>
   <g id="PathCollection_3">
    <path d="M 119.353846 42.757138 
C 119.946858 42.757138 120.515662 42.521532 120.934985 42.102209 
C 121.354308 41.682886 121.589914 41.114082 121.589914 40.52107 
C 121.589914 39.928058 121.354308 39.359254 120.934985 38.939931 
C 120.515662 38.520608 119.946858 38.285002 119.353846 38.285002 
C 118.760834 38.285002 118.19203 38.520608 117.772707 38.939931 
C 117.353384 39.359254 117.117778 39.928058 117.117778 40.52107 
C 117.117778 41.114082 117.353384 41.682886 117.772707 42.102209 
C 118.19203 42.521532 118.760834 42.757138 119.353846 42.757138 
z
" clip-path="url(#pf89c766384)"/>
   </g>
   <g id="PathCollection_4">
    <path d="M 200.624749 42.757138 
C 201.217761 42.757138 201.786565 42.521532 202.205888 42.102209 
C 202.625211 41.682886 202.860817 41.114082 202.860817 40.52107 
C 202.860817 39.928058 202.625211 39.359254 202.205888 38.939931 
C 201.786565 38.520608 201.217761 38.285002 200.624749 38.285002 
C 200.031737 38.285002 199.462933 38.520608 199.04361 38.939931 
C 198.624287 39.359254 198.388681 39.928058 198.388681 40.52107 
C 198.388681 41.114082 198.624287 41.682886 199.04361 42.102209 
C 199.462933 42.521532 200.031737 42.757138 200.624749 42.757138 
z
" clip-path="url(#pf89c766384)"/>
   </g>
   <g id="matplotlib.axis_1"/>
   <g id="matplotlib.axis_2"/>
   <g id="line2d_1">
    <path d="M 10.992642 311.42408 
L 16.087272 291.524612 
L 20.916625 273.545874 
L 25.685411 256.63741 
L 29.954425 242.213074 
L 34.764214 226.767496 
L 38.978091 213.937374 
L 43.492412 200.919709 
L 47.96399 188.766916 
L 52.222538 177.879274 
L 55.946423 168.907221 
L 59.81386 160.131176 
L 63.781189 151.70215 
L 67.198154 144.908133 
L 70.73426 138.331017 
L 74.520735 131.799965 
L 77.803003 126.566814 
L 81.499467 121.149404 
L 84.749552 116.802888 
L 87.856716 113.012085 
L 90.381696 110.194034 
L 93.411999 107.122713 
L 96.161923 104.628939 
L 99.051997 102.308917 
L 101.940586 100.29817 
L 104.431241 98.811707 
L 106.766294 97.626085 
L 109.365704 96.542977 
L 112.265384 95.629058 
L 114.968551 95.056611 
L 117.700702 94.752113 
L 119.353846 94.701672 
L 119.353846 94.701672 
" clip-path="url(#pf89c766384)" style="fill: none; stroke: #000000; stroke-linecap: square"/>
   </g>
   <g id="patch_3">
    <path d="M 51.628094 179.358863 
Q 52.982609 176.040301 53.49212 174.791997 
" clip-path="url(#pf89c766384)" style="fill: none; stroke: #000000; stroke-width: 2; stroke-linecap: round"/>
    <path d="M 45.083912 182.160989 
L 53.49212 174.791997 
L 54.342389 185.939959 
L 45.083912 182.160989 
z
" clip-path="url(#pf89c766384)" style="stroke: #000000; stroke-width: 2; stroke-linecap: round"/>
   </g>
   <g id="line2d_2">
    <path d="M 119.353846 94.701672 
L 119.353846 40.52107 
L 119.353846 40.52107 
" clip-path="url(#pf89c766384)" style="fill: none; stroke: #000000; stroke-linecap: square"/>
   </g>
   <g id="patch_4">
    <path d="M 119.353846 81.156522 
Q 119.353846 74.383946 119.353846 69.847439 
" clip-path="url(#pf89c766384)" style="fill: none; stroke: #000000; stroke-width: 2; stroke-linecap: round"/>
    <path d="M 114.353846 79.847439 
L 119.353846 69.847439 
L 124.353846 79.847439 
L 114.353846 79.847439 
z
" clip-path="url(#pf89c766384)" style="stroke: #000000; stroke-width: 2; stroke-linecap: round"/>
   </g>
   <g id="line2d_3">
    <path d="M 119.353846 40.52107 
L 200.624749 40.52107 
L 200.624749 40.52107 
" clip-path="url(#pf89c766384)" style="fill: none; stroke: #000000; stroke-linecap: square"/>
   </g>
   <g id="patch_5">
    <path d="M 146.444147 40.52107 
Q 153.216722 40.52107 157.75323 40.52107 
" clip-path="url(#pf89c766384)" style="fill: none; stroke: #000000; stroke-width: 2; stroke-linecap: round"/>
    <path d="M 147.75323 35.52107 
L 157.75323 40.52107 
L 147.75323 45.52107 
L 147.75323 35.52107 
z
" clip-path="url(#pf89c766384)" style="stroke: #000000; stroke-width: 2; stroke-linecap: round"/>
   </g>
   <g id="text_1">
    <!-- $(x_0,y_0)$ -->
    <g transform="translate(23.746033 315.02408) scale(0.144 -0.144)">
     <defs>
      <path id="Cmr10-28" d="M 1984 -1588 
Q 1628 -1306 1370 -942 
Q 1113 -578 948 -165 
Q 784 247 703 697 
Q 622 1147 622 1600 
Q 622 2059 703 2509 
Q 784 2959 951 3375 
Q 1119 3791 1378 4153 
Q 1638 4516 1984 4788 
Q 1984 4800 2016 4800 
L 2075 4800 
Q 2094 4800 2109 4783 
Q 2125 4766 2125 4744 
Q 2125 4716 2113 4703 
Q 1800 4397 1592 4047 
Q 1384 3697 1257 3301 
Q 1131 2906 1075 2482 
Q 1019 2059 1019 1600 
Q 1019 -434 2106 -1491 
Q 2125 -1509 2125 -1544 
Q 2125 -1559 2108 -1579 
Q 2091 -1600 2075 -1600 
L 2016 -1600 
Q 1984 -1600 1984 -1588 
z
" transform="scale(0.015625)"/>
      <path id="Cmmi10-78" d="M 500 184 
Q 613 97 819 97 
Q 1019 97 1172 289 
Q 1325 481 1381 709 
L 1672 1844 
Q 1741 2153 1741 2266 
Q 1741 2425 1652 2544 
Q 1563 2663 1403 2663 
Q 1200 2663 1022 2536 
Q 844 2409 722 2214 
Q 600 2019 550 1819 
Q 538 1778 500 1778 
L 422 1778 
Q 372 1778 372 1838 
L 372 1856 
Q 434 2094 584 2320 
Q 734 2547 951 2687 
Q 1169 2828 1416 2828 
Q 1650 2828 1839 2703 
Q 2028 2578 2106 2363 
Q 2216 2559 2386 2693 
Q 2556 2828 2759 2828 
Q 2897 2828 3040 2779 
Q 3184 2731 3275 2631 
Q 3366 2531 3366 2381 
Q 3366 2219 3261 2101 
Q 3156 1984 2994 1984 
Q 2891 1984 2822 2050 
Q 2753 2116 2753 2216 
Q 2753 2350 2845 2451 
Q 2938 2553 3066 2572 
Q 2950 2663 2747 2663 
Q 2541 2663 2389 2472 
Q 2238 2281 2175 2047 
L 1894 916 
Q 1825 659 1825 494 
Q 1825 331 1917 214 
Q 2009 97 2163 97 
Q 2463 97 2698 361 
Q 2934 625 3009 941 
Q 3022 978 3059 978 
L 3138 978 
Q 3163 978 3178 961 
Q 3194 944 3194 922 
Q 3194 916 3188 903 
Q 3097 522 2806 225 
Q 2516 -72 2150 -72 
Q 1916 -72 1727 54 
Q 1538 181 1459 397 
Q 1359 209 1182 68 
Q 1006 -72 806 -72 
Q 669 -72 523 -23 
Q 378 25 287 125 
Q 197 225 197 378 
Q 197 528 301 651 
Q 406 775 563 775 
Q 669 775 741 711 
Q 813 647 813 544 
Q 813 409 723 309 
Q 634 209 500 184 
z
" transform="scale(0.015625)"/>
      <path id="Cmr10-30" d="M 1600 -141 
Q 816 -141 533 504 
Q 250 1150 250 2041 
Q 250 2597 351 3087 
Q 453 3578 754 3920 
Q 1056 4263 1600 4263 
Q 2022 4263 2290 4056 
Q 2559 3850 2700 3523 
Q 2841 3197 2892 2823 
Q 2944 2450 2944 2041 
Q 2944 1491 2842 1011 
Q 2741 531 2444 195 
Q 2147 -141 1600 -141 
z
M 1600 25 
Q 1956 25 2131 390 
Q 2306 756 2347 1200 
Q 2388 1644 2388 2144 
Q 2388 2625 2347 3031 
Q 2306 3438 2132 3767 
Q 1959 4097 1600 4097 
Q 1238 4097 1063 3765 
Q 888 3434 847 3029 
Q 806 2625 806 2144 
Q 806 1788 823 1472 
Q 841 1156 916 820 
Q 991 484 1158 254 
Q 1325 25 1600 25 
z
" transform="scale(0.015625)"/>
      <path id="Cmmi10-3b" d="M 634 -1153 
Q 634 -1125 659 -1100 
Q 891 -878 1019 -587 
Q 1147 -297 1147 25 
L 1147 103 
Q 1044 0 891 0 
Q 744 0 641 103 
Q 538 206 538 353 
Q 538 503 641 603 
Q 744 703 891 703 
Q 1119 703 1216 492 
Q 1313 281 1313 25 
Q 1313 -331 1170 -651 
Q 1028 -972 769 -1228 
Q 744 -1241 728 -1241 
Q 697 -1241 665 -1212 
Q 634 -1184 634 -1153 
z
" transform="scale(0.015625)"/>
      <path id="Cmmi10-79" d="M 538 -916 
Q 672 -1147 1006 -1147 
Q 1309 -1147 1531 -934 
Q 1753 -722 1889 -420 
Q 2025 -119 2100 197 
Q 1816 -72 1484 -72 
Q 1231 -72 1053 15 
Q 875 103 776 276 
Q 678 450 678 697 
Q 678 906 734 1126 
Q 791 1347 892 1617 
Q 994 1888 1069 2088 
Q 1153 2322 1153 2472 
Q 1153 2663 1013 2663 
Q 759 2663 595 2402 
Q 431 2141 353 1819 
Q 341 1778 300 1778 
L 225 1778 
Q 172 1778 172 1838 
L 172 1856 
Q 275 2238 487 2533 
Q 700 2828 1025 2828 
Q 1253 2828 1411 2678 
Q 1569 2528 1569 2297 
Q 1569 2178 1516 2047 
Q 1488 1969 1388 1706 
Q 1288 1444 1234 1272 
Q 1181 1100 1147 934 
Q 1113 769 1113 603 
Q 1113 391 1203 244 
Q 1294 97 1491 97 
Q 1888 97 2203 581 
L 2688 2553 
Q 2709 2638 2787 2698 
Q 2866 2759 2956 2759 
Q 3034 2759 3092 2709 
Q 3150 2659 3150 2578 
Q 3150 2541 3144 2528 
L 2509 -19 
Q 2425 -347 2200 -647 
Q 1975 -947 1658 -1130 
Q 1341 -1313 997 -1313 
Q 831 -1313 668 -1248 
Q 506 -1184 406 -1056 
Q 306 -928 306 -756 
Q 306 -581 409 -453 
Q 513 -325 684 -325 
Q 788 -325 858 -389 
Q 928 -453 928 -556 
Q 928 -703 818 -812 
Q 709 -922 563 -922 
Q 556 -919 550 -917 
Q 544 -916 538 -916 
z
" transform="scale(0.015625)"/>
      <path id="Cmr10-29" d="M 416 -1600 
Q 359 -1600 359 -1544 
Q 359 -1516 372 -1503 
Q 1466 -434 1466 1600 
Q 1466 3634 384 4691 
Q 359 4706 359 4744 
Q 359 4766 376 4783 
Q 394 4800 416 4800 
L 475 4800 
Q 494 4800 506 4788 
Q 966 4425 1272 3906 
Q 1578 3388 1720 2800 
Q 1863 2213 1863 1600 
Q 1863 1147 1786 708 
Q 1709 269 1542 -157 
Q 1375 -584 1119 -945 
Q 863 -1306 506 -1588 
Q 494 -1600 475 -1600 
L 416 -1600 
z
" transform="scale(0.015625)"/>
     </defs>
     <use xlink:href="#Cmr10-28"/>
     <use xlink:href="#Cmmi10-78" transform="translate(38.818359 0)"/>
     <use xlink:href="#Cmr10-30" transform="translate(95.898438 -17.00625) scale(0.7)"/>
     <use xlink:href="#Cmmi10-3b" transform="translate(137.275781 0)"/>
     <use xlink:href="#Cmmi10-79" transform="translate(182.519922 0)"/>
     <use xlink:href="#Cmr10-30" transform="translate(231.543359 -17.00625) scale(0.7)"/>
     <use xlink:href="#Cmr10-29" transform="translate(272.920703 0)"/>
    </g>
   </g>
   <g id="text_2">
    <!-- $(a,b)$ -->
    <g transform="translate(111.712936 111.846823) scale(0.144 -0.144)">
     <defs>
      <path id="Cmmi10-61" d="M 1113 -72 
Q 709 -72 476 233 
Q 244 538 244 953 
Q 244 1363 456 1803 
Q 669 2244 1030 2536 
Q 1391 2828 1806 2828 
Q 1997 2828 2147 2725 
Q 2297 2622 2381 2444 
Q 2453 2700 2663 2700 
Q 2744 2700 2798 2651 
Q 2853 2603 2853 2522 
Q 2853 2503 2851 2493 
Q 2850 2484 2847 2472 
L 2400 684 
Q 2356 494 2356 372 
Q 2356 97 2541 97 
Q 2741 97 2845 351 
Q 2950 606 3022 941 
Q 3034 978 3072 978 
L 3150 978 
Q 3175 978 3190 956 
Q 3206 934 3206 916 
Q 3094 469 2961 198 
Q 2828 -72 2528 -72 
Q 2313 -72 2147 54 
Q 1981 181 1941 391 
Q 1528 -72 1113 -72 
z
M 1119 97 
Q 1350 97 1567 270 
Q 1784 444 1941 678 
Q 1947 684 1947 697 
L 2291 2088 
L 2297 2106 
Q 2259 2334 2132 2498 
Q 2006 2663 1791 2663 
Q 1575 2663 1389 2486 
Q 1203 2309 1075 2069 
Q 950 1813 836 1366 
Q 722 919 722 672 
Q 722 450 817 273 
Q 913 97 1119 97 
z
" transform="scale(0.015625)"/>
      <path id="Cmmi10-62" d="M 1106 -72 
Q 719 -72 503 231 
Q 288 534 288 941 
Q 288 1000 317 1173 
Q 347 1347 347 1388 
L 966 3872 
Q 991 3981 997 4044 
Q 997 4147 581 4147 
Q 519 4147 519 4231 
Q 522 4247 533 4287 
Q 544 4328 561 4350 
Q 578 4372 609 4372 
L 1472 4441 
Q 1550 4441 1550 4359 
L 1075 2472 
Q 1438 2828 1806 2828 
Q 2078 2828 2273 2684 
Q 2469 2541 2566 2306 
Q 2663 2072 2663 1806 
Q 2663 1497 2542 1167 
Q 2422 838 2209 555 
Q 1997 272 1712 100 
Q 1428 -72 1106 -72 
z
M 1119 97 
Q 1338 97 1528 280 
Q 1719 463 1838 691 
Q 1966 947 2077 1386 
Q 2188 1825 2188 2088 
Q 2188 2316 2092 2489 
Q 1997 2663 1791 2663 
Q 1559 2663 1348 2492 
Q 1138 2322 978 2088 
L 800 1363 
Q 697 959 691 716 
Q 691 475 795 286 
Q 900 97 1119 97 
z
" transform="scale(0.015625)"/>
     </defs>
     <use xlink:href="#Cmr10-28"/>
     <use xlink:href="#Cmmi10-61" transform="translate(38.818359 0)"/>
     <use xlink:href="#Cmmi10-3b" transform="translate(91.601562 0)"/>
     <use xlink:href="#Cmmi10-62" transform="translate(136.845703 0)"/>
     <use xlink:href="#Cmr10-29" transform="translate(179.765625 0)"/>
    </g>
   </g>
   <g id="text_3">
    <!-- $(x,y)$ -->
    <g transform="translate(165.173538 30.57592) scale(0.144 -0.144)">
     <use xlink:href="#Cmr10-28"/>
     <use xlink:href="#Cmmi10-78" transform="translate(38.818359 0)"/>
     <use xlink:href="#Cmmi10-3b" transform="translate(95.898438 0)"/>
     <use xlink:href="#Cmmi10-79" transform="translate(141.142578 0)"/>
     <use xlink:href="#Cmr10-29" transform="translate(190.166016 0)"/>
    </g>
   </g>
   <g id="text_4">
    <!-- $C_y$ -->
    <g transform="translate(89.545605 75.837431) scale(0.144 -0.144)">
     <defs>
      <path id="Cmmi10-43" d="M 934 1381 
Q 934 997 1082 705 
Q 1231 413 1514 248 
Q 1797 84 2181 84 
Q 2584 84 2957 290 
Q 3331 497 3595 842 
Q 3859 1188 3956 1575 
Q 3969 1613 4006 1613 
L 4084 1613 
Q 4109 1613 4125 1595 
Q 4141 1578 4141 1556 
Q 4141 1550 4134 1538 
Q 4025 1094 3711 705 
Q 3397 316 2959 87 
Q 2522 -141 2059 -141 
Q 1559 -141 1162 84 
Q 766 309 545 709 
Q 325 1109 325 1613 
Q 325 2150 565 2676 
Q 806 3203 1212 3614 
Q 1619 4025 2139 4269 
Q 2659 4513 3194 4513 
Q 3406 4513 3600 4448 
Q 3794 4384 3959 4253 
Q 4125 4122 4231 3950 
L 4738 4500 
Q 4738 4513 4769 4513 
L 4806 4513 
Q 4831 4513 4847 4491 
Q 4863 4469 4863 4447 
L 4428 2719 
Q 4428 2675 4378 2675 
L 4263 2675 
Q 4213 2675 4213 2747 
Q 4238 2888 4238 3084 
Q 4238 3397 4131 3673 
Q 4025 3950 3801 4119 
Q 3578 4288 3256 4288 
Q 2734 4288 2300 4025 
Q 1866 3763 1564 3336 
Q 1263 2909 1098 2389 
Q 934 1869 934 1381 
z
" transform="scale(0.015625)"/>
     </defs>
     <use xlink:href="#Cmmi10-43" transform="translate(0 0.484375)"/>
     <use xlink:href="#Cmmi10-79" transform="translate(71.386719 -16.521875) scale(0.7)"/>
    </g>
   </g>
   <g id="text_5">
    <!-- $C_x$ -->
    <g transform="translate(151.493298 58.039721) scale(0.144 -0.144)">
     <use xlink:href="#Cmmi10-43" transform="translate(0 0.484375)"/>
     <use xlink:href="#Cmmi10-78" transform="translate(71.386719 -16.521875) scale(0.7)"/>
    </g>
   </g>
  </g>
 </g>
 <defs>
  <clipPath id="pf89c766384">
   <rect x="7.2" y="7.2" width="197.217391" height="324"/>
  </clipPath>
 </defs>
</svg>
