<?xml version="1.0" encoding="utf-8" standalone="no"?>
<!DOCTYPE svg PUBLIC "-//W3C//DTD SVG 1.1//EN"
  "http://www.w3.org/Graphics/SVG/1.1/DTD/svg11.dtd">
<svg xmlns:xlink="http://www.w3.org/1999/xlink" width="453.6pt" height="208.168706pt" viewBox="0 0 453.6 208.168706" xmlns="http://www.w3.org/2000/svg" version="1.1">
 <metadata>
  <rdf:RDF xmlns:dc="http://purl.org/dc/elements/1.1/" xmlns:cc="http://creativecommons.org/ns#" xmlns:rdf="http://www.w3.org/1999/02/22-rdf-syntax-ns#">
   <cc:Work>
    <dc:type rdf:resource="http://purl.org/dc/dcmitype/StillImage"/>
    <dc:date>2023-07-26T15:37:10.867659</dc:date>
    <dc:format>image/svg+xml</dc:format>
    <dc:creator>
     <cc:Agent>
      <dc:title>Matplotlib v3.6.2, https://matplotlib.org/</dc:title>
     </cc:Agent>
    </dc:creator>
   </cc:Work>
  </rdf:RDF>
 </metadata>
 <defs>
  <style type="text/css">*{stroke-linejoin: round; stroke-linecap: butt}</style>
 </defs>
 <g id="figure_1">
  <g id="patch_1">
   <path d="M 0 208.168706 
L 453.6 208.168706 
L 453.6 -0 
L 0 -0 
z
" style="fill: #ffffff"/>
  </g>
  <g id="axes_1">
   <g id="patch_2">
    <path d="M 7.2 196.242233 
L 446.4 196.242233 
L 446.4 7.2 
L 7.2 7.2 
z
" style="fill: #ffffff"/>
   </g>
   <g id="PathCollection_1">
    <path d="M 412.500414 64.169994 
C 413.438048 64.169994 414.337406 63.797467 415.000414 63.13446 
C 415.663422 62.471452 416.035948 61.572094 416.035948 60.63446 
C 416.035948 59.696825 415.663422 58.797467 415.000414 58.13446 
C 414.337406 57.471452 413.438048 57.098926 412.500414 57.098926 
C 411.562779 57.098926 410.663422 57.471452 410.000414 58.13446 
C 409.337406 58.797467 408.96488 59.696825 408.96488 60.63446 
C 408.96488 61.572094 409.337406 62.471452 410.000414 63.13446 
C 410.663422 63.797467 411.562779 64.169994 412.500414 64.169994 
z
" clip-path="url(#p8e4c0ad1a2)"/>
   </g>
   <g id="PathCollection_2">
    <path d="M 132.996758 181.331447 
C 133.934393 181.331447 134.833751 180.958921 135.496758 180.295913 
C 136.159766 179.632906 136.532292 178.733548 136.532292 177.795913 
C 136.532292 176.858279 136.159766 175.958921 135.496758 175.295913 
C 134.833751 174.632906 133.934393 174.260379 132.996758 174.260379 
C 132.059124 174.260379 131.159766 174.632906 130.496758 175.295913 
C 129.833751 175.958921 129.461224 176.858279 129.461224 177.795913 
C 129.461224 178.733548 129.833751 179.632906 130.496758 180.295913 
C 131.159766 180.958921 132.059124 181.331447 132.996758 181.331447 
z
" clip-path="url(#p8e4c0ad1a2)"/>
   </g>
   <g id="matplotlib.axis_1"/>
   <g id="matplotlib.axis_2"/>
   <g id="line2d_1">
    <path d="M 412.500414 60.63446 
L 409.224524 56.420338 
L 405.545594 52.209106 
L 403.60258 50.168705 
L 399.659647 46.355556 
L 396.535035 43.603358 
L 392.938857 40.688856 
L 388.589604 37.478688 
L 383.178699 33.899351 
L 378.667734 31.220329 
L 374.076218 28.74416 
L 369.111752 26.321765 
L 365.947281 24.90388 
L 358.868757 22.054873 
L 354.288413 20.42923 
L 347.67128 18.354984 
L 340.371237 16.411157 
L 334.360505 15.05964 
L 327.273809 13.733201 
L 320.249138 12.68437 
L 312.008575 11.768976 
L 305.061554 11.245728 
L 298.027944 10.935197 
L 290.81589 10.835527 
L 281.873495 11.006213 
L 273.207243 11.470103 
L 267.782566 11.905258 
L 259.180554 12.817972 
L 251.942274 13.793533 
L 244.876895 14.925848 
L 235.642211 16.671247 
L 226.408727 18.715762 
L 218.316888 20.754282 
L 210.777679 22.86315 
L 202.188824 25.516335 
L 193.319282 28.544083 
L 185.857514 31.326071 
L 177.10068 34.877684 
L 169.640548 38.16157 
L 161.931334 41.822315 
L 153.78802 46.009062 
L 147.258718 49.626455 
L 139.866062 54.034314 
L 133.81423 57.920231 
L 127.518574 62.266784 
L 123.198778 65.454574 
L 117.767091 69.739283 
L 112.509637 74.233942 
L 108.400091 78.036528 
L 104.233197 82.213125 
L 100.804983 85.951857 
L 97.531673 89.848208 
L 94.448189 93.902376 
L 92.525523 96.679761 
L 90.283904 100.246287 
L 87.77225 104.850119 
L 86.481984 107.5967 
L 85.164507 110.835028 
L 84.174303 113.739594 
L 83.134674 117.651929 
L 82.587282 120.560958 
L 82.181249 124.238818 
L 82.094646 127.053688 
L 82.206422 129.813429 
L 82.498859 132.424608 
L 82.984433 135.052417 
L 83.648461 137.605497 
L 84.715552 140.686535 
L 85.425693 142.36579 
L 86.751659 145.03544 
L 88.723779 148.302657 
L 90.657653 150.992423 
L 92.581141 153.327031 
L 94.797148 155.710117 
L 97.624685 158.395055 
L 100.59323 160.888571 
L 104.474821 163.767485 
L 109.096764 166.764555 
L 113.63388 169.354092 
L 118.851924 171.991673 
L 124.92121 174.691745 
L 130.694718 176.961021 
L 132.996758 177.795913 
L 132.996758 177.795913 
" clip-path="url(#p8e4c0ad1a2)" style="fill: none; stroke: #000000; stroke-width: 2; stroke-linecap: square"/>
   </g>
   <g id="patch_3">
    <path d="M 132.996758 177.795913 
Q 108.256309 166.898352 85.562207 156.902156 
" clip-path="url(#p8e4c0ad1a2)" style="fill: none; stroke: #0000ff; stroke-width: 2; stroke-linecap: round"/>
    <path d="M 92.698237 165.508961 
L 85.562207 156.902156 
L 96.729268 156.357415 
L 92.698237 165.508961 
z
" clip-path="url(#p8e4c0ad1a2)" style="fill: #0000ff; stroke: #0000ff; stroke-width: 2; stroke-linecap: round"/>
   </g>
   <g id="patch_4">
    <path d="M 110.582315 167.646814 
Q 82.106125 158.440769 55.757579 149.922568 
" clip-path="url(#p8e4c0ad1a2)" style="fill: none; stroke: #0000ff; stroke-width: 2; stroke-linecap: round"/>
    <path d="M 63.734627 157.756259 
L 55.757579 149.922568 
L 66.81076 148.241145 
L 63.734627 157.756259 
z
" clip-path="url(#p8e4c0ad1a2)" style="fill: #0000ff; stroke: #0000ff; stroke-width: 2; stroke-linecap: round"/>
   </g>
   <g id="patch_5">
    <path d="M 94.609381 155.51881 
Q 63.471035 148.334099 34.511511 141.652118 
" clip-path="url(#p8e4c0ad1a2)" style="fill: none; stroke: #0000ff; stroke-width: 2; stroke-linecap: round"/>
    <path d="M 43.131355 148.772391 
L 34.511511 141.652118 
L 45.379635 139.028406 
L 43.131355 148.772391 
z
" clip-path="url(#p8e4c0ad1a2)" style="fill: #0000ff; stroke: #0000ff; stroke-width: 2; stroke-linecap: round"/>
   </g>
   <g id="patch_6">
    <path d="M 85.152498 141.745484 
Q 52.438005 136.856328 21.935019 132.297679 
" clip-path="url(#p8e4c0ad1a2)" style="fill: none; stroke: #0000ff; stroke-width: 2; stroke-linecap: round"/>
    <path d="M 31.086142 138.720837 
L 21.935019 132.297679 
L 32.564219 128.830676 
L 31.086142 138.720837 
z
" clip-path="url(#p8e4c0ad1a2)" style="fill: #0000ff; stroke: #0000ff; stroke-width: 2; stroke-linecap: round"/>
   </g>
   <g id="patch_7">
    <path d="M 82.094479 126.720716 
Q 48.870316 124.335687 17.876483 122.110765 
" clip-path="url(#p8e4c0ad1a2)" style="fill: none; stroke: #0000ff; stroke-width: 2; stroke-linecap: round"/>
    <path d="M 27.492807 127.813948 
L 17.876483 122.110765 
L 28.208824 117.839615 
L 27.492807 127.813948 
z
" clip-path="url(#p8e4c0ad1a2)" style="fill: #0000ff; stroke: #0000ff; stroke-width: 2; stroke-linecap: round"/>
   </g>
   <g id="patch_8">
    <path d="M 85.145013 110.887463 
Q 52.429273 111.14131 21.949533 111.377808 
" clip-path="url(#p8e4c0ad1a2)" style="fill: none; stroke: #0000ff; stroke-width: 2; stroke-linecap: round"/>
    <path d="M 31.988027 116.300068 
L 21.949533 111.377808 
L 31.910438 106.300369 
L 31.988027 116.300068 
z
" clip-path="url(#p8e4c0ad1a2)" style="fill: #0000ff; stroke: #0000ff; stroke-width: 2; stroke-linecap: round"/>
   </g>
   <g id="patch_9">
    <path d="M 93.862811 94.724729 
Q 62.600037 97.672365 33.563458 100.410102 
" clip-path="url(#p8e4c0ad1a2)" style="fill: none; stroke: #0000ff; stroke-width: 2; stroke-linecap: round"/>
    <path d="M 43.98865 104.44933 
L 33.563458 100.410102 
L 43.049955 94.493484 
L 43.98865 104.44933 
z
" clip-path="url(#p8e4c0ad1a2)" style="fill: #0000ff; stroke: #0000ff; stroke-width: 2; stroke-linecap: round"/>
   </g>
   <g id="patch_10">
    <path d="M 107.680175 78.733062 
Q 78.720295 84.345976 51.955632 89.533419 
" clip-path="url(#p8e4c0ad1a2)" style="fill: none; stroke: #0000ff; stroke-width: 2; stroke-linecap: round"/>
    <path d="M 62.724318 92.539313 
L 51.955632 89.533419 
L 60.821558 82.722006 
L 62.724318 92.539313 
z
" clip-path="url(#p8e4c0ad1a2)" style="fill: #0000ff; stroke: #0000ff; stroke-width: 2; stroke-linecap: round"/>
   </g>
   <g id="patch_11">
    <path d="M 125.928882 63.419067 
Q 100.010453 71.584313 76.22476 79.07767 
" clip-path="url(#p8e4c0ad1a2)" style="fill: none; stroke: #0000ff; stroke-width: 2; stroke-linecap: round"/>
    <path d="M 87.265038 80.841833 
L 76.22476 79.07767 
L 84.260257 71.303945 
L 87.265038 80.841833 
z
" clip-path="url(#p8e4c0ad1a2)" style="fill: #0000ff; stroke: #0000ff; stroke-width: 2; stroke-linecap: round"/>
   </g>
   <g id="patch_12">
    <path d="M 147.866346 49.279369 
Q 125.604162 59.801231 105.363617 69.367598 
" clip-path="url(#p8e4c0ad1a2)" style="fill: none; stroke: #0000ff; stroke-width: 2; stroke-linecap: round"/>
    <path d="M 116.541219 69.615017 
L 105.363617 69.367598 
L 112.268113 60.573968 
L 116.541219 69.615017 
z
" clip-path="url(#p8e4c0ad1a2)" style="fill: #0000ff; stroke: #0000ff; stroke-width: 2; stroke-linecap: round"/>
   </g>
   <g id="patch_13">
    <path d="M 172.701152 36.784566 
Q 154.578101 49.388896 138.290794 60.716492 
" clip-path="url(#p8e4c0ad1a2)" style="fill: none; stroke: #0000ff; stroke-width: 2; stroke-linecap: round"/>
    <path d="M 149.355348 59.111612 
L 138.290794 60.716492 
L 143.645622 50.90192 
L 149.355348 59.111612 
z
" clip-path="url(#p8e4c0ad1a2)" style="fill: #0000ff; stroke: #0000ff; stroke-width: 2; stroke-linecap: round"/>
   </g>
   <g id="patch_14">
    <path d="M 199.617158 26.363674 
Q 185.980109 40.704819 173.88392 53.425547 
" clip-path="url(#p8e4c0ad1a2)" style="fill: none; stroke: #0000ff; stroke-width: 2; stroke-linecap: round"/>
    <path d="M 184.398218 49.624293 
L 173.88392 53.425547 
L 177.151495 42.733356 
L 184.398218 49.624293 
z
" clip-path="url(#p8e4c0ad1a2)" style="fill: #0000ff; stroke: #0000ff; stroke-width: 2; stroke-linecap: round"/>
   </g>
   <g id="patch_15">
    <path d="M 227.795575 18.38957 
Q 218.854929 34.059732 211.022399 47.787711 
" clip-path="url(#p8e4c0ad1a2)" style="fill: none; stroke: #0000ff; stroke-width: 2; stroke-linecap: round"/>
    <path d="M 220.320904 41.579828 
L 211.022399 47.787711 
L 211.635196 36.624178 
L 220.320904 41.579828 
z
" clip-path="url(#p8e4c0ad1a2)" style="fill: #0000ff; stroke: #0000ff; stroke-width: 2; stroke-linecap: round"/>
   </g>
   <g id="patch_16">
    <path d="M 256.434551 13.165941 
Q 252.267066 29.706708 248.645892 44.079171 
" clip-path="url(#p8e4c0ad1a2)" style="fill: none; stroke: #0000ff; stroke-width: 2; stroke-linecap: round"/>
    <path d="M 255.937539 35.603801 
L 248.645892 44.079171 
L 246.240584 33.160632 
L 255.937539 35.603801 
z
" clip-path="url(#p8e4c0ad1a2)" style="fill: #0000ff; stroke: #0000ff; stroke-width: 2; stroke-linecap: round"/>
   </g>
   <g id="patch_17">
    <path d="M 284.766003 10.916169 
Q 285.320428 27.831899 285.801603 42.51276 
" clip-path="url(#p8e4c0ad1a2)" style="fill: none; stroke: #0000ff; stroke-width: 2; stroke-linecap: round"/>
    <path d="M 290.471339 32.354336 
L 285.801603 42.51276 
L 280.476706 32.681917 
L 290.471339 32.354336 
z
" clip-path="url(#p8e4c0ad1a2)" style="fill: #0000ff; stroke: #0000ff; stroke-width: 2; stroke-linecap: round"/>
   </g>
   <g id="patch_18">
    <path d="M 312.069605 11.774558 
Q 317.17463 28.547223 321.628563 43.18071 
" clip-path="url(#p8e4c0ad1a2)" style="fill: none; stroke: #0000ff; stroke-width: 2; stroke-linecap: round"/>
    <path d="M 323.500135 32.158132 
L 321.628563 43.18071 
L 313.933444 35.069906 
L 323.500135 32.158132 
z
" clip-path="url(#p8e4c0ad1a2)" style="fill: #0000ff; stroke: #0000ff; stroke-width: 2; stroke-linecap: round"/>
   </g>
   <g id="patch_19">
    <path d="M 337.683957 15.780229 
Q 347.05804 31.885281 355.307273 46.057794 
" clip-path="url(#p8e4c0ad1a2)" style="fill: none; stroke: #0000ff; stroke-width: 2; stroke-linecap: round"/>
    <path d="M 354.598075 34.89997 
L 355.307273 46.057794 
L 345.955495 39.930458 
L 354.598075 34.89997 
z
" clip-path="url(#p8e4c0ad1a2)" style="fill: #0000ff; stroke: #0000ff; stroke-width: 2; stroke-linecap: round"/>
   </g>
   <g id="patch_20">
    <path d="M 361.015146 22.873926 
Q 374.277762 37.796696 386.054944 51.048092 
" clip-path="url(#p8e4c0ad1a2)" style="fill: none; stroke: #0000ff; stroke-width: 2; stroke-linecap: round"/>
    <path d="M 383.149188 40.251955 
L 386.054944 51.048092 
L 375.67458 46.895014 
L 383.149188 40.251955 
z
" clip-path="url(#p8e4c0ad1a2)" style="fill: #0000ff; stroke: #0000ff; stroke-width: 2; stroke-linecap: round"/>
   </g>
   <g id="patch_21">
    <path d="M 381.542981 32.897904 
Q 398.226902 46.15001 413.159893 58.011346 
" clip-path="url(#p8e4c0ad1a2)" style="fill: none; stroke: #0000ff; stroke-width: 2; stroke-linecap: round"/>
    <path d="M 408.439354 47.876431 
L 413.159893 58.011346 
L 402.219637 55.706828 
L 408.439354 47.876431 
z
" clip-path="url(#p8e4c0ad1a2)" style="fill: #0000ff; stroke: #0000ff; stroke-width: 2; stroke-linecap: round"/>
   </g>
   <g id="patch_22">
    <path d="M 398.825248 45.598941 
Q 418.389547 56.734208 436.010501 66.763396 
" clip-path="url(#p8e4c0ad1a2)" style="fill: none; stroke: #0000ff; stroke-width: 2; stroke-linecap: round"/>
    <path d="M 429.792868 57.471409 
L 436.010501 66.763396 
L 424.846331 66.162311 
L 429.792868 57.471409 
z
" clip-path="url(#p8e4c0ad1a2)" style="fill: #0000ff; stroke: #0000ff; stroke-width: 2; stroke-linecap: round"/>
   </g>
   <g id="text_1">
    <!-- $Q$ -->
    <g transform="translate(405.588414 80.213552) scale(0.1728 -0.1728)">
     <defs>
      <path id="Cmmi10-51" d="M 1947 -141 
Q 1466 -141 1094 79 
Q 722 300 520 692 
Q 319 1084 319 1563 
Q 319 2259 714 2950 
Q 1109 3641 1756 4077 
Q 2403 4513 3109 4513 
Q 3475 4513 3778 4381 
Q 4081 4250 4290 4017 
Q 4500 3784 4614 3471 
Q 4728 3159 4728 2791 
Q 4728 2366 4581 1936 
Q 4434 1506 4171 1136 
Q 3909 766 3559 484 
Q 3209 203 2809 38 
Q 2850 -256 2934 -425 
Q 3019 -594 3256 -594 
Q 3506 -594 3726 -412 
Q 3947 -231 4006 13 
Q 4019 72 4078 72 
Q 4147 72 4147 -13 
Q 4100 -219 4008 -430 
Q 3916 -641 3786 -823 
Q 3656 -1006 3478 -1123 
Q 3300 -1241 3084 -1241 
Q 2547 -1241 2547 -550 
Q 2547 -509 2562 -332 
Q 2578 -156 2578 -44 
Q 2269 -141 1947 -141 
z
M 1709 300 
Q 1709 44 1991 44 
Q 2275 44 2591 184 
L 2591 244 
Q 2591 503 2509 648 
Q 2428 794 2194 794 
Q 2078 794 1964 723 
Q 1850 653 1779 539 
Q 1709 425 1709 300 
z
M 1544 288 
Q 1544 456 1637 612 
Q 1731 769 1881 864 
Q 2031 959 2203 959 
Q 2481 959 2607 771 
Q 2734 584 2778 281 
Q 3188 525 3500 978 
Q 3813 1431 3977 1973 
Q 4141 2516 4141 3003 
Q 4141 3356 4023 3656 
Q 3906 3956 3664 4140 
Q 3422 4325 3066 4325 
Q 2722 4325 2403 4156 
Q 2084 3988 1813 3706 
Q 1550 3434 1342 3032 
Q 1134 2631 1021 2193 
Q 909 1756 909 1356 
Q 909 947 1068 612 
Q 1228 278 1569 128 
Q 1544 194 1544 288 
z
" transform="scale(0.015625)"/>
     </defs>
     <use xlink:href="#Cmmi10-51" transform="translate(0 0.484375)"/>
    </g>
   </g>
   <g id="text_2">
    <!-- $P$ -->
    <g transform="translate(127.380758 197.375006) scale(0.1728 -0.1728)">
     <defs>
      <path id="Cmmi10-50" d="M 313 0 
Q 250 0 250 84 
Q 253 100 262 139 
Q 272 178 289 201 
Q 306 225 331 225 
Q 722 225 878 269 
Q 959 297 997 441 
L 1875 3956 
Q 1888 4019 1888 4044 
Q 1888 4113 1813 4122 
Q 1691 4147 1350 4147 
Q 1288 4147 1288 4231 
Q 1291 4247 1300 4286 
Q 1309 4325 1326 4348 
Q 1344 4372 1369 4372 
L 3578 4372 
Q 3881 4372 4165 4264 
Q 4450 4156 4631 3934 
Q 4813 3713 4813 3397 
Q 4813 2991 4527 2672 
Q 4241 2353 3814 2175 
Q 3388 1997 2988 1997 
L 1947 1997 
L 1556 416 
Q 1544 353 1544 325 
Q 1544 300 1551 283 
Q 1559 266 1573 261 
Q 1588 256 1619 250 
Q 1741 225 2081 225 
Q 2144 225 2144 141 
Q 2122 50 2109 25 
Q 2097 0 2034 0 
L 313 0 
z
M 1978 2188 
L 2875 2188 
Q 3497 2188 3822 2522 
Q 3988 2688 4092 3000 
Q 4197 3313 4197 3566 
Q 4197 3881 3956 4014 
Q 3716 4147 3359 4147 
L 2747 4147 
Q 2572 4147 2515 4117 
Q 2459 4088 2413 3928 
L 1978 2188 
z
" transform="scale(0.015625)"/>
     </defs>
     <use xlink:href="#Cmmi10-50" transform="translate(0 0.6875)"/>
    </g>
   </g>
  </g>
 </g>
 <defs>
  <clipPath id="p8e4c0ad1a2">
   <rect x="7.2" y="7.2" width="439.2" height="189.042233"/>
  </clipPath>
 </defs>
</svg>
