<?xml version="1.0" encoding="utf-8" standalone="no"?>
<!DOCTYPE svg PUBLIC "-//W3C//DTD SVG 1.1//EN"
  "http://www.w3.org/Graphics/SVG/1.1/DTD/svg11.dtd">
<svg xmlns:xlink="http://www.w3.org/1999/xlink" width="452.367692pt" height="250.252115pt" viewBox="0 0 452.367692 250.252115" xmlns="http://www.w3.org/2000/svg" version="1.1">
 <metadata>
  <rdf:RDF xmlns:dc="http://purl.org/dc/elements/1.1/" xmlns:cc="http://creativecommons.org/ns#" xmlns:rdf="http://www.w3.org/1999/02/22-rdf-syntax-ns#">
   <cc:Work>
    <dc:type rdf:resource="http://purl.org/dc/dcmitype/StillImage"/>
    <dc:date>2024-12-16T16:35:01.487038</dc:date>
    <dc:format>image/svg+xml</dc:format>
    <dc:creator>
     <cc:Agent>
      <dc:title>Matplotlib v3.6.2, https://matplotlib.org/</dc:title>
     </cc:Agent>
    </dc:creator>
   </cc:Work>
  </rdf:RDF>
 </metadata>
 <defs>
  <style type="text/css">*{stroke-linejoin: round; stroke-linecap: butt}</style>
 </defs>
 <g id="figure_1">
  <g id="patch_1">
   <path d="M 0 250.252115 
L 452.367692 250.252115 
L 452.367692 0 
L 0 0 
z
" style="fill: #ffffff"/>
  </g>
  <g id="axes_1">
   <g id="patch_2">
    <path d="M 7.2 237.808774 
L 445.167692 237.808774 
L 445.167692 7.2 
L 7.2 7.2 
z
" style="fill: #ffffff"/>
   </g>
   <g id="PathCollection_1">
    <path d="M 77.716866 218.842015 
C 78.654501 218.842015 79.553858 218.469489 80.216866 217.806481 
C 80.879874 217.143473 81.2524 216.244116 81.2524 215.306481 
C 81.2524 214.368847 80.879874 213.469489 80.216866 212.806481 
C 79.553858 212.143473 78.654501 211.770947 77.716866 211.770947 
C 76.779231 211.770947 75.879874 212.143473 75.216866 212.806481 
C 74.553858 213.469489 74.181332 214.368847 74.181332 215.306481 
C 74.181332 216.244116 74.553858 217.143473 75.216866 217.806481 
C 75.879874 218.469489 76.779231 218.842015 77.716866 218.842015 
z
" clip-path="url(#pe8dd087a44)"/>
   </g>
   <g id="PathCollection_2">
    <path d="M 418.677728 75.919125 
C 419.615363 75.919125 420.51472 75.546599 421.177728 74.883591 
C 421.840736 74.220583 422.213262 73.321226 422.213262 72.383591 
C 422.213262 71.445957 421.840736 70.546599 421.177728 69.883591 
C 420.51472 69.220583 419.615363 68.848057 418.677728 68.848057 
C 417.740094 68.848057 416.840736 69.220583 416.177728 69.883591 
C 415.51472 70.546599 415.142194 71.445957 415.142194 72.383591 
C 415.142194 73.321226 415.51472 74.220583 416.177728 74.883591 
C 416.840736 75.546599 417.740094 75.919125 418.677728 75.919125 
z
" clip-path="url(#pe8dd087a44)"/>
   </g>
   <g id="matplotlib.axis_1"/>
   <g id="matplotlib.axis_2"/>
   <g id="line2d_1">
    <path d="M 418.677728 72.383591 
L 415.042531 67.683321 
L 411.373166 63.398893 
L 407.374327 59.160551 
L 402.898975 54.860158 
L 400.041413 52.324492 
L 396.381207 49.286438 
L 391.079869 45.255024 
L 385.546309 41.452627 
L 381.018089 38.61137 
L 376.99114 36.268041 
L 371.199419 33.171863 
L 364.794046 30.08772 
L 358.618678 27.418799 
L 352.384925 24.999723 
L 346.272962 22.873921 
L 342.05619 21.539491 
L 336.953616 20.060471 
L 329.878905 18.241328 
L 324.478746 17.023223 
L 315.976702 15.385417 
L 305.278004 13.778308 
L 299.481172 13.105578 
L 292.803631 12.494071 
L 282.281644 11.868957 
L 275.228624 11.671377 
L 270.338951 11.634784 
L 259.73712 11.828327 
L 250.235325 12.308793 
L 240.719956 13.071073 
L 230.000558 14.257581 
L 219.990973 15.672272 
L 211.030877 17.186068 
L 200.396757 19.283281 
L 192.554603 21.038313 
L 185.307138 22.817961 
L 174.265874 25.822771 
L 164.49867 28.780847 
L 157.605637 31.04165 
L 151.862937 33.037124 
L 143.01576 36.316012 
L 132.882295 40.388483 
L 126.094785 43.314701 
L 115.738536 48.105532 
L 106.933162 52.51119 
L 98.624143 56.974069 
L 91.502877 61.057611 
L 85.482494 64.714309 
L 79.237057 68.725831 
L 73.54329 72.597487 
L 67.682744 76.822417 
L 63.311687 80.151706 
L 57.236324 85.069299 
L 52.050681 89.577747 
L 46.816645 94.478308 
L 42.557889 98.781258 
L 38.647926 103.039465 
L 34.835913 107.546069 
L 32.143393 110.995343 
L 28.637249 115.919756 
L 25.926398 120.179045 
L 23.543455 124.387922 
L 21.64781 128.188105 
L 19.929971 132.161283 
L 18.350701 136.557423 
L 17.173905 140.724314 
L 16.498812 143.865186 
L 16.024436 146.901595 
L 15.743836 149.741722 
L 15.623928 153.623571 
L 15.763921 156.840229 
L 16.09374 159.809956 
L 16.691102 163.088979 
L 17.518146 166.279912 
L 18.444224 169.055645 
L 19.969166 172.702677 
L 21.789936 176.217053 
L 24.066459 179.858482 
L 25.733109 182.172167 
L 28.300607 185.326679 
L 31.659744 188.907934 
L 35.390901 192.363538 
L 39.152848 195.435491 
L 42.062328 197.58826 
L 46.350769 200.474809 
L 50.342496 202.907492 
L 54.569385 205.261664 
L 58.899688 207.4726 
L 63.857678 209.790684 
L 68.362177 211.725751 
L 75.433631 214.481883 
L 77.716866 215.306481 
L 77.716866 215.306481 
" clip-path="url(#pe8dd087a44)" style="fill: none; stroke: #000000; stroke-width: 2; stroke-linecap: square"/>
   </g>
   <g id="text_1">
    <!-- $P$ -->
    <g transform="translate(80.25062 238.89274) scale(0.2 -0.2)">
     <defs>
      <path id="Cmmi10-50" d="M 313 0 
Q 250 0 250 84 
Q 253 100 262 139 
Q 272 178 289 201 
Q 306 225 331 225 
Q 722 225 878 269 
Q 959 297 997 441 
L 1875 3956 
Q 1888 4019 1888 4044 
Q 1888 4113 1813 4122 
Q 1691 4147 1350 4147 
Q 1288 4147 1288 4231 
Q 1291 4247 1300 4286 
Q 1309 4325 1326 4348 
Q 1344 4372 1369 4372 
L 3578 4372 
Q 3881 4372 4165 4264 
Q 4450 4156 4631 3934 
Q 4813 3713 4813 3397 
Q 4813 2991 4527 2672 
Q 4241 2353 3814 2175 
Q 3388 1997 2988 1997 
L 1947 1997 
L 1556 416 
Q 1544 353 1544 325 
Q 1544 300 1551 283 
Q 1559 266 1573 261 
Q 1588 256 1619 250 
Q 1741 225 2081 225 
Q 2144 225 2144 141 
Q 2122 50 2109 25 
Q 2097 0 2034 0 
L 313 0 
z
M 1978 2188 
L 2875 2188 
Q 3497 2188 3822 2522 
Q 3988 2688 4092 3000 
Q 4197 3313 4197 3566 
Q 4197 3881 3956 4014 
Q 3716 4147 3359 4147 
L 2747 4147 
Q 2572 4147 2515 4117 
Q 2459 4088 2413 3928 
L 1978 2188 
z
" transform="scale(0.015625)"/>
     </defs>
     <use xlink:href="#Cmmi10-50" transform="translate(0 0.6875)"/>
    </g>
   </g>
   <g id="text_2">
    <!-- $Q$ -->
    <g transform="translate(428.745237 95.96985) scale(0.2 -0.2)">
     <defs>
      <path id="Cmmi10-51" d="M 1947 -141 
Q 1466 -141 1094 79 
Q 722 300 520 692 
Q 319 1084 319 1563 
Q 319 2259 714 2950 
Q 1109 3641 1756 4077 
Q 2403 4513 3109 4513 
Q 3475 4513 3778 4381 
Q 4081 4250 4290 4017 
Q 4500 3784 4614 3471 
Q 4728 3159 4728 2791 
Q 4728 2366 4581 1936 
Q 4434 1506 4171 1136 
Q 3909 766 3559 484 
Q 3209 203 2809 38 
Q 2850 -256 2934 -425 
Q 3019 -594 3256 -594 
Q 3506 -594 3726 -412 
Q 3947 -231 4006 13 
Q 4019 72 4078 72 
Q 4147 72 4147 -13 
Q 4100 -219 4008 -430 
Q 3916 -641 3786 -823 
Q 3656 -1006 3478 -1123 
Q 3300 -1241 3084 -1241 
Q 2547 -1241 2547 -550 
Q 2547 -509 2562 -332 
Q 2578 -156 2578 -44 
Q 2269 -141 1947 -141 
z
M 1709 300 
Q 1709 44 1991 44 
Q 2275 44 2591 184 
L 2591 244 
Q 2591 503 2509 648 
Q 2428 794 2194 794 
Q 2078 794 1964 723 
Q 1850 653 1779 539 
Q 1709 425 1709 300 
z
M 1544 288 
Q 1544 456 1637 612 
Q 1731 769 1881 864 
Q 2031 959 2203 959 
Q 2481 959 2607 771 
Q 2734 584 2778 281 
Q 3188 525 3500 978 
Q 3813 1431 3977 1973 
Q 4141 2516 4141 3003 
Q 4141 3356 4023 3656 
Q 3906 3956 3664 4140 
Q 3422 4325 3066 4325 
Q 2722 4325 2403 4156 
Q 2084 3988 1813 3706 
Q 1550 3434 1342 3032 
Q 1134 2631 1021 2193 
Q 909 1756 909 1356 
Q 909 947 1068 612 
Q 1228 278 1569 128 
Q 1544 194 1544 288 
z
" transform="scale(0.015625)"/>
     </defs>
     <use xlink:href="#Cmmi10-51" transform="translate(0 0.484375)"/>
    </g>
   </g>
  </g>
 </g>
 <defs>
  <clipPath id="pe8dd087a44">
   <rect x="7.2" y="7.2" width="437.967692" height="230.608774"/>
  </clipPath>
 </defs>
</svg>
