<?xml version="1.0" encoding="utf-8" standalone="no"?>
<!DOCTYPE svg PUBLIC "-//W3C//DTD SVG 1.1//EN"
  "http://www.w3.org/Graphics/SVG/1.1/DTD/svg11.dtd">
<svg xmlns:xlink="http://www.w3.org/1999/xlink" width="452.367692pt" height="250.25142pt" viewBox="0 0 452.367692 250.25142" xmlns="http://www.w3.org/2000/svg" version="1.1">
 <metadata>
  <rdf:RDF xmlns:dc="http://purl.org/dc/elements/1.1/" xmlns:cc="http://creativecommons.org/ns#" xmlns:rdf="http://www.w3.org/1999/02/22-rdf-syntax-ns#">
   <cc:Work>
    <dc:type rdf:resource="http://purl.org/dc/dcmitype/StillImage"/>
    <dc:date>2024-12-04T08:26:20.528400</dc:date>
    <dc:format>image/svg+xml</dc:format>
    <dc:creator>
     <cc:Agent>
      <dc:title>Matplotlib v3.6.2, https://matplotlib.org/</dc:title>
     </cc:Agent>
    </dc:creator>
   </cc:Work>
  </rdf:RDF>
 </metadata>
 <defs>
  <style type="text/css">*{stroke-linejoin: round; stroke-linecap: butt}</style>
 </defs>
 <g id="figure_1">
  <g id="patch_1">
   <path d="M 0 250.25142 
L 452.367692 250.25142 
L 452.367692 0 
L 0 0 
z
" style="fill: #ffffff"/>
  </g>
  <g id="axes_1">
   <g id="patch_2">
    <path d="M 7.2 237.808065 
L 445.167692 237.808065 
L 445.167692 7.2 
L 7.2 7.2 
z
" style="fill: #ffffff"/>
   </g>
   <g id="PathCollection_1">
    <path d="M 77.717198 218.841337 
C 78.654832 218.841337 79.55419 218.46881 80.217198 217.805803 
C 80.880206 217.142795 81.252732 216.243437 81.252732 215.305803 
C 81.252732 214.368168 80.880206 213.46881 80.217198 212.805803 
C 79.55419 212.142795 78.654832 211.770269 77.717198 211.770269 
C 76.779563 211.770269 75.880206 212.142795 75.217198 212.805803 
C 74.55419 213.46881 74.181664 214.368168 74.181664 215.305803 
C 74.181664 216.243437 74.55419 217.142795 75.217198 217.805803 
C 75.880206 218.46881 76.779563 218.841337 77.717198 218.841337 
z
" clip-path="url(#pb4579579e8)"/>
   </g>
   <g id="PathCollection_2">
    <path d="M 418.677745 75.918579 
C 419.615379 75.918579 420.514737 75.546052 421.177745 74.883045 
C 421.840753 74.220037 422.213279 73.320679 422.213279 72.383045 
C 422.213279 71.44541 421.840753 70.546052 421.177745 69.883045 
C 420.514737 69.220037 419.615379 68.847511 418.677745 68.847511 
C 417.74011 68.847511 416.840753 69.220037 416.177745 69.883045 
C 415.514737 70.546052 415.142211 71.44541 415.142211 72.383045 
C 415.142211 73.320679 415.514737 74.220037 416.177745 74.883045 
C 416.840753 75.546052 417.74011 75.918579 418.677745 75.918579 
z
" clip-path="url(#pb4579579e8)"/>
   </g>
   <g id="matplotlib.axis_1"/>
   <g id="matplotlib.axis_2"/>
   <g id="line2d_1">
    <path d="M 418.677745 72.383045 
L 415.652489 68.437124 
L 413.070094 65.328113 
L 409.824455 61.707967 
L 405.908002 57.703339 
L 400.990717 53.149527 
L 397.62869 50.296366 
L 392.440622 46.250691 
L 386.225699 41.898536 
L 380.284359 38.171483 
L 374.637064 34.971658 
L 368.518635 31.839248 
L 362.111175 28.892726 
L 356.777184 26.676007 
L 349.454298 23.950713 
L 342.865683 21.787082 
L 336.111557 19.829621 
L 328.029486 17.807504 
L 318.774284 15.887247 
L 311.115135 14.59415 
L 305.733888 13.836463 
L 297.336891 12.889967 
L 288.28143 12.17528 
L 282.449526 11.87529 
L 276.201764 11.687878 
L 267.4501 11.650423 
L 258.953959 11.856625 
L 250.080565 12.318483 
L 242.656911 12.893009 
L 234.89011 13.673348 
L 225.218897 14.896307 
L 218.041468 15.981376 
L 206.189871 18.099977 
L 195.946326 20.257091 
L 186.421319 22.53404 
L 174.952542 25.625041 
L 165.476781 28.471319 
L 155.76217 31.670595 
L 147.482356 34.628747 
L 137.80023 38.368354 
L 130.462673 41.412493 
L 121.867623 45.220919 
L 114.308753 48.799038 
L 105.805882 53.098295 
L 99.048283 56.73827 
L 92.706775 60.349123 
L 84.916856 65.067818 
L 78.529242 69.1952 
L 71.647971 73.935484 
L 64.850191 78.960996 
L 58.922511 83.667519 
L 53.461728 88.319257 
L 48.533488 92.827461 
L 44.976572 96.29882 
L 41.120769 100.308497 
L 36.786002 105.19127 
L 33.419917 109.328764 
L 29.83419 114.174674 
L 27.181447 118.148409 
L 24.677725 122.319306 
L 21.987222 127.470233 
L 20.079128 131.789842 
L 18.462488 136.212211 
L 17.637167 138.947669 
L 16.644836 143.108134 
L 16.044435 146.74816 
L 15.692083 150.581906 
L 15.64189 154.546355 
L 15.862065 157.924506 
L 16.417272 161.749109 
L 17.068508 164.662683 
L 18.147202 168.225634 
L 19.448092 171.548221 
L 21.200424 175.150832 
L 22.648719 177.668134 
L 24.472088 180.443559 
L 26.628098 183.320428 
L 29.646625 186.824368 
L 32.641431 189.862563 
L 34.987814 192.010905 
L 39.021756 195.333316 
L 43.165988 198.360517 
L 47.527335 201.21428 
L 52.6291 204.206115 
L 58.478519 207.2648 
L 63.250283 209.51701 
L 67.909362 211.537149 
L 74.968192 214.309281 
L 77.717198 215.305803 
L 77.717198 215.305803 
" clip-path="url(#pb4579579e8)" style="fill: none; stroke: #000000; stroke-width: 2; stroke-linecap: square"/>
   </g>
   <g id="text_1">
    <!-- $P$ -->
    <g transform="translate(80.250944 238.892045) scale(0.2 -0.2)">
     <defs>
      <path id="Cmmi10-50" d="M 313 0 
Q 250 0 250 84 
Q 253 100 262 139 
Q 272 178 289 201 
Q 306 225 331 225 
Q 722 225 878 269 
Q 959 297 997 441 
L 1875 3956 
Q 1888 4019 1888 4044 
Q 1888 4113 1813 4122 
Q 1691 4147 1350 4147 
Q 1288 4147 1288 4231 
Q 1291 4247 1300 4286 
Q 1309 4325 1326 4348 
Q 1344 4372 1369 4372 
L 3578 4372 
Q 3881 4372 4165 4264 
Q 4450 4156 4631 3934 
Q 4813 3713 4813 3397 
Q 4813 2991 4527 2672 
Q 4241 2353 3814 2175 
Q 3388 1997 2988 1997 
L 1947 1997 
L 1556 416 
Q 1544 353 1544 325 
Q 1544 300 1551 283 
Q 1559 266 1573 261 
Q 1588 256 1619 250 
Q 1741 225 2081 225 
Q 2144 225 2144 141 
Q 2122 50 2109 25 
Q 2097 0 2034 0 
L 313 0 
z
M 1978 2188 
L 2875 2188 
Q 3497 2188 3822 2522 
Q 3988 2688 4092 3000 
Q 4197 3313 4197 3566 
Q 4197 3881 3956 4014 
Q 3716 4147 3359 4147 
L 2747 4147 
Q 2572 4147 2515 4117 
Q 2459 4088 2413 3928 
L 1978 2188 
z
" transform="scale(0.015625)"/>
     </defs>
     <use xlink:href="#Cmmi10-50" transform="translate(0 0.6875)"/>
    </g>
   </g>
   <g id="text_2">
    <!-- $Q$ -->
    <g transform="translate(428.745237 95.969287) scale(0.2 -0.2)">
     <defs>
      <path id="Cmmi10-51" d="M 1947 -141 
Q 1466 -141 1094 79 
Q 722 300 520 692 
Q 319 1084 319 1563 
Q 319 2259 714 2950 
Q 1109 3641 1756 4077 
Q 2403 4513 3109 4513 
Q 3475 4513 3778 4381 
Q 4081 4250 4290 4017 
Q 4500 3784 4614 3471 
Q 4728 3159 4728 2791 
Q 4728 2366 4581 1936 
Q 4434 1506 4171 1136 
Q 3909 766 3559 484 
Q 3209 203 2809 38 
Q 2850 -256 2934 -425 
Q 3019 -594 3256 -594 
Q 3506 -594 3726 -412 
Q 3947 -231 4006 13 
Q 4019 72 4078 72 
Q 4147 72 4147 -13 
Q 4100 -219 4008 -430 
Q 3916 -641 3786 -823 
Q 3656 -1006 3478 -1123 
Q 3300 -1241 3084 -1241 
Q 2547 -1241 2547 -550 
Q 2547 -509 2562 -332 
Q 2578 -156 2578 -44 
Q 2269 -141 1947 -141 
z
M 1709 300 
Q 1709 44 1991 44 
Q 2275 44 2591 184 
L 2591 244 
Q 2591 503 2509 648 
Q 2428 794 2194 794 
Q 2078 794 1964 723 
Q 1850 653 1779 539 
Q 1709 425 1709 300 
z
M 1544 288 
Q 1544 456 1637 612 
Q 1731 769 1881 864 
Q 2031 959 2203 959 
Q 2481 959 2607 771 
Q 2734 584 2778 281 
Q 3188 525 3500 978 
Q 3813 1431 3977 1973 
Q 4141 2516 4141 3003 
Q 4141 3356 4023 3656 
Q 3906 3956 3664 4140 
Q 3422 4325 3066 4325 
Q 2722 4325 2403 4156 
Q 2084 3988 1813 3706 
Q 1550 3434 1342 3032 
Q 1134 2631 1021 2193 
Q 909 1756 909 1356 
Q 909 947 1068 612 
Q 1228 278 1569 128 
Q 1544 194 1544 288 
z
" transform="scale(0.015625)"/>
     </defs>
     <use xlink:href="#Cmmi10-51" transform="translate(0 0.484375)"/>
    </g>
   </g>
  </g>
 </g>
 <defs>
  <clipPath id="pb4579579e8">
   <rect x="7.2" y="7.2" width="437.967692" height="230.608065"/>
  </clipPath>
 </defs>
</svg>
