<?xml version="1.0" encoding="utf-8" standalone="no"?>
<!DOCTYPE svg PUBLIC "-//W3C//DTD SVG 1.1//EN"
  "http://www.w3.org/Graphics/SVG/1.1/DTD/svg11.dtd">
<svg xmlns:xlink="http://www.w3.org/1999/xlink" width="452.367692pt" height="250.254854pt" viewBox="0 0 452.367692 250.254854" xmlns="http://www.w3.org/2000/svg" version="1.1">
 <metadata>
  <rdf:RDF xmlns:dc="http://purl.org/dc/elements/1.1/" xmlns:cc="http://creativecommons.org/ns#" xmlns:rdf="http://www.w3.org/1999/02/22-rdf-syntax-ns#">
   <cc:Work>
    <dc:type rdf:resource="http://purl.org/dc/dcmitype/StillImage"/>
    <dc:date>2025-02-05T13:29:29.048232</dc:date>
    <dc:format>image/svg+xml</dc:format>
    <dc:creator>
     <cc:Agent>
      <dc:title>Matplotlib v3.8.0, https://matplotlib.org/</dc:title>
     </cc:Agent>
    </dc:creator>
   </cc:Work>
  </rdf:RDF>
 </metadata>
 <defs>
  <style type="text/css">*{stroke-linejoin: round; stroke-linecap: butt}</style>
 </defs>
 <g id="figure_1">
  <g id="patch_1">
   <path d="M 0 250.254854 
L 452.367692 250.254854 
L 452.367692 0 
L 0 0 
z
" style="fill: #ffffff"/>
  </g>
  <g id="axes_1">
   <g id="patch_2">
    <path d="M 7.2 237.811567 
L 445.167692 237.811567 
L 445.167692 7.2 
L 7.2 7.2 
z
" style="fill: #ffffff"/>
   </g>
   <g id="PathCollection_1">
    <path d="M 77.712568 218.844538 
C 78.650203 218.844538 79.54956 218.472012 80.212568 217.809004 
C 80.875576 217.145996 81.248102 216.246639 81.248102 215.309004 
C 81.248102 214.37137 80.875576 213.472012 80.212568 212.809004 
C 79.54956 212.145996 78.650203 211.77347 77.712568 211.77347 
C 76.774933 211.77347 75.875576 212.145996 75.212568 212.809004 
C 74.54956 213.472012 74.177034 214.37137 74.177034 215.309004 
C 74.177034 216.246639 74.54956 217.145996 75.212568 217.809004 
C 75.875576 218.472012 76.774933 218.844538 77.712568 218.844538 
z
" clip-path="url(#pa6816532d3)"/>
   </g>
   <g id="PathCollection_2">
    <path d="M 418.677512 75.919937 
C 419.615146 75.919937 420.514504 75.547411 421.177512 74.884403 
C 421.84052 74.221395 422.213046 73.322038 422.213046 72.384403 
C 422.213046 71.446768 421.84052 70.547411 421.177512 69.884403 
C 420.514504 69.221395 419.615146 68.848869 418.677512 68.848869 
C 417.739877 68.848869 416.84052 69.221395 416.177512 69.884403 
C 415.514504 70.547411 415.141978 71.446768 415.141978 72.384403 
C 415.141978 73.322038 415.514504 74.221395 416.177512 74.884403 
C 416.84052 75.547411 417.739877 75.919937 418.677512 75.919937 
z
" clip-path="url(#pa6816532d3)"/>
   </g>
   <g id="matplotlib.axis_1"/>
   <g id="matplotlib.axis_2"/>
   <g id="line2d_1">
    <path d="M 418.677512 72.384403 
L 415.311088 68.014947 
L 412.531561 64.708103 
L 408.889853 60.720058 
L 405.380678 57.192775 
L 402.207444 54.233421 
L 396.96804 49.7596 
L 392.007681 45.932401 
L 387.488486 42.744483 
L 382.391145 39.449741 
L 377.037652 36.294962 
L 370.563589 32.851099 
L 364.275277 29.853137 
L 357.904816 27.128888 
L 352.912957 25.195135 
L 347.596692 23.31523 
L 341.994772 21.521367 
L 333.149409 19.050379 
L 326.074451 17.368785 
L 318.979783 15.926454 
L 310.686471 14.530182 
L 304.886573 13.728926 
L 296.203918 12.784278 
L 290.4111 12.316424 
L 282.203519 11.865975 
L 277.02199 11.705353 
L 269.842279 11.635657 
L 260.462747 11.803432 
L 251.749788 12.21316 
L 243.160742 12.849054 
L 234.233985 13.74786 
L 223.645794 15.121485 
L 217.856404 16.01151 
L 207.241056 17.895778 
L 197.522388 19.905553 
L 191.734306 21.231628 
L 185.353989 22.805416 
L 176.20107 25.269671 
L 165.038072 28.60929 
L 154.874828 31.976875 
L 148.363242 34.303188 
L 136.854819 38.749566 
L 131.562024 40.943798 
L 121.312149 45.475535 
L 115.694237 48.125575 
L 109.015595 51.438819 
L 102.915305 54.628936 
L 98.149547 57.236893 
L 88.892324 62.617323 
L 84.096077 65.582933 
L 76.732028 70.400493 
L 69.592204 75.414921 
L 63.892067 79.697624 
L 59.773344 82.968925 
L 54.199025 87.668725 
L 48.314262 93.032624 
L 44.042829 97.241101 
L 39.155225 102.463814 
L 36.185008 105.900952 
L 32.538081 110.46861 
L 30.432686 113.322902 
L 26.936678 118.529469 
L 24.646963 122.366332 
L 22.675445 126.059123 
L 20.699646 130.292559 
L 19.079421 134.397642 
L 17.776562 138.435677 
L 16.805849 142.307367 
L 16.134038 146.054759 
L 15.797008 148.997057 
L 15.622456 152.446947 
L 15.755882 156.803485 
L 16.059578 159.606741 
L 16.542491 162.41545 
L 17.484974 166.18713 
L 18.651563 169.621183 
L 19.772994 172.291033 
L 21.492278 175.697973 
L 23.216749 178.584498 
L 25.414762 181.75745 
L 27.82883 184.786184 
L 29.952431 187.160725 
L 33.32678 190.516675 
L 37.188733 193.882727 
L 39.955607 196.052962 
L 44.510151 199.279308 
L 47.677715 201.313571 
L 52.266362 204.01 
L 58.841601 207.448801 
L 64.57112 210.111843 
L 70.205503 212.479766 
L 77.712568 215.309004 
L 77.712568 215.309004 
" clip-path="url(#pa6816532d3)" style="fill: none; stroke: #000000; stroke-width: 2; stroke-linecap: square"/>
   </g>
   <g id="text_1">
    <!-- $P$ -->
    <g transform="translate(80.24643 238.895479) scale(0.2 -0.2)">
     <defs>
      <path id="Cmmi10-50" d="M 313 0 
Q 250 0 250 84 
Q 253 100 262 139 
Q 272 178 289 201 
Q 306 225 331 225 
Q 722 225 878 269 
Q 959 297 997 441 
L 1875 3956 
Q 1888 4019 1888 4044 
Q 1888 4113 1813 4122 
Q 1691 4147 1350 4147 
Q 1288 4147 1288 4231 
Q 1291 4247 1300 4286 
Q 1309 4325 1326 4348 
Q 1344 4372 1369 4372 
L 3578 4372 
Q 3881 4372 4165 4264 
Q 4450 4156 4631 3934 
Q 4813 3713 4813 3397 
Q 4813 2991 4527 2672 
Q 4241 2353 3814 2175 
Q 3388 1997 2988 1997 
L 1947 1997 
L 1556 416 
Q 1544 353 1544 325 
Q 1544 300 1551 283 
Q 1559 266 1573 261 
Q 1588 256 1619 250 
Q 1741 225 2081 225 
Q 2144 225 2144 141 
Q 2122 50 2109 25 
Q 2097 0 2034 0 
L 313 0 
z
M 1978 2188 
L 2875 2188 
Q 3497 2188 3822 2522 
Q 3988 2688 4092 3000 
Q 4197 3313 4197 3566 
Q 4197 3881 3956 4014 
Q 3716 4147 3359 4147 
L 2747 4147 
Q 2572 4147 2515 4117 
Q 2459 4088 2413 3928 
L 1978 2188 
z
" transform="scale(0.015625)"/>
     </defs>
     <use xlink:href="#Cmmi10-50" transform="translate(0 0.6875)"/>
    </g>
   </g>
   <g id="text_2">
    <!-- $Q$ -->
    <g transform="translate(428.745237 95.970878) scale(0.2 -0.2)">
     <defs>
      <path id="Cmmi10-51" d="M 1947 -141 
Q 1466 -141 1094 79 
Q 722 300 520 692 
Q 319 1084 319 1563 
Q 319 2259 714 2950 
Q 1109 3641 1756 4077 
Q 2403 4513 3109 4513 
Q 3475 4513 3778 4381 
Q 4081 4250 4290 4017 
Q 4500 3784 4614 3471 
Q 4728 3159 4728 2791 
Q 4728 2366 4581 1936 
Q 4434 1506 4171 1136 
Q 3909 766 3559 484 
Q 3209 203 2809 38 
Q 2850 -256 2934 -425 
Q 3019 -594 3256 -594 
Q 3506 -594 3726 -412 
Q 3947 -231 4006 13 
Q 4019 72 4078 72 
Q 4147 72 4147 -13 
Q 4100 -219 4008 -430 
Q 3916 -641 3786 -823 
Q 3656 -1006 3478 -1123 
Q 3300 -1241 3084 -1241 
Q 2547 -1241 2547 -550 
Q 2547 -509 2562 -332 
Q 2578 -156 2578 -44 
Q 2269 -141 1947 -141 
z
M 1709 300 
Q 1709 44 1991 44 
Q 2275 44 2591 184 
L 2591 244 
Q 2591 503 2509 648 
Q 2428 794 2194 794 
Q 2078 794 1964 723 
Q 1850 653 1779 539 
Q 1709 425 1709 300 
z
M 1544 288 
Q 1544 456 1637 612 
Q 1731 769 1881 864 
Q 2031 959 2203 959 
Q 2481 959 2607 771 
Q 2734 584 2778 281 
Q 3188 525 3500 978 
Q 3813 1431 3977 1973 
Q 4141 2516 4141 3003 
Q 4141 3356 4023 3656 
Q 3906 3956 3664 4140 
Q 3422 4325 3066 4325 
Q 2722 4325 2403 4156 
Q 2084 3988 1813 3706 
Q 1550 3434 1342 3032 
Q 1134 2631 1021 2193 
Q 909 1756 909 1356 
Q 909 947 1068 612 
Q 1228 278 1569 128 
Q 1544 194 1544 288 
z
" transform="scale(0.015625)"/>
     </defs>
     <use xlink:href="#Cmmi10-51" transform="translate(0 0.484375)"/>
    </g>
   </g>
  </g>
 </g>
 <defs>
  <clipPath id="pa6816532d3">
   <rect x="7.2" y="7.2" width="437.967692" height="230.611567"/>
  </clipPath>
 </defs>
</svg>
