<?xml version="1.0" encoding="utf-8" standalone="no"?>
<!DOCTYPE svg PUBLIC "-//W3C//DTD SVG 1.1//EN"
  "http://www.w3.org/Graphics/SVG/1.1/DTD/svg11.dtd">
<svg xmlns:xlink="http://www.w3.org/1999/xlink" width="453.6pt" height="208.167905pt" viewBox="0 0 453.6 208.167905" xmlns="http://www.w3.org/2000/svg" version="1.1">
 <metadata>
  <rdf:RDF xmlns:dc="http://purl.org/dc/elements/1.1/" xmlns:cc="http://creativecommons.org/ns#" xmlns:rdf="http://www.w3.org/1999/02/22-rdf-syntax-ns#">
   <cc:Work>
    <dc:type rdf:resource="http://purl.org/dc/dcmitype/StillImage"/>
    <dc:date>2024-09-10T13:35:46.596781</dc:date>
    <dc:format>image/svg+xml</dc:format>
    <dc:creator>
     <cc:Agent>
      <dc:title>Matplotlib v3.8.0, https://matplotlib.org/</dc:title>
     </cc:Agent>
    </dc:creator>
   </cc:Work>
  </rdf:RDF>
 </metadata>
 <defs>
  <style type="text/css">*{stroke-linejoin: round; stroke-linecap: butt}</style>
 </defs>
 <g id="figure_1">
  <g id="patch_1">
   <path d="M 0 208.167905 
L 453.6 208.167905 
L 453.6 0 
L 0 0 
z
" style="fill: #ffffff"/>
  </g>
  <g id="axes_1">
   <g id="patch_2">
    <path d="M 7.2 196.241417 
L 446.4 196.241417 
L 446.4 7.2 
L 7.2 7.2 
z
" style="fill: #ffffff"/>
   </g>
   <g id="PathCollection_1">
    <path d="M 412.500414 64.169193 
C 413.438048 64.169193 414.337406 63.796666 415.000414 63.133659 
C 415.663422 62.470651 416.035948 61.571293 416.035948 60.633659 
C 416.035948 59.696024 415.663422 58.796666 415.000414 58.133659 
C 414.337406 57.470651 413.438048 57.098125 412.500414 57.098125 
C 411.562779 57.098125 410.663422 57.470651 410.000414 58.133659 
C 409.337406 58.796666 408.96488 59.696024 408.96488 60.633659 
C 408.96488 61.571293 409.337406 62.470651 410.000414 63.133659 
C 410.663422 63.796666 411.562779 64.169193 412.500414 64.169193 
z
" clip-path="url(#p672c6de711)"/>
   </g>
   <g id="PathCollection_2">
    <path d="M 132.996758 181.330646 
C 133.934393 181.330646 134.833751 180.95812 135.496758 180.295112 
C 136.159766 179.632105 136.532292 178.732747 136.532292 177.795112 
C 136.532292 176.857478 136.159766 175.95812 135.496758 175.295112 
C 134.833751 174.632105 133.934393 174.259578 132.996758 174.259578 
C 132.059124 174.259578 131.159766 174.632105 130.496758 175.295112 
C 129.833751 175.95812 129.461224 176.857478 129.461224 177.795112 
C 129.461224 178.732747 129.833751 179.632105 130.496758 180.295112 
C 131.159766 180.95812 132.059124 181.330646 132.996758 181.330646 
z
" clip-path="url(#p672c6de711)"/>
   </g>
   <g id="matplotlib.axis_1"/>
   <g id="matplotlib.axis_2"/>
   <g id="line2d_1">
    <path d="M 412.500414 60.633659 
L 410.281756 57.726415 
L 407.978288 54.937371 
L 405.361962 52.01044 
L 401.639617 48.218283 
L 397.672489 44.579233 
L 393.559237 41.173016 
L 388.487873 37.406552 
L 383.554058 34.133387 
L 378.530372 31.141921 
L 373.861174 28.633136 
L 367.175402 25.442221 
L 361.310164 22.988671 
L 356.490286 21.189645 
L 350.150615 19.095011 
L 345.011875 17.605926 
L 336.889705 15.601295 
L 329.727637 14.160221 
L 322.499331 12.991798 
L 315.189562 12.082616 
L 307.15495 11.379465 
L 298.004211 10.93371 
L 290.446874 10.835412 
L 284.913458 10.911662 
L 275.643379 11.309865 
L 267.283099 11.95003 
L 258.484963 12.902745 
L 250.449531 14.017214 
L 240.990071 15.623141 
L 234.365823 16.935246 
L 225.32955 18.97347 
L 216.39549 21.271626 
L 207.415991 23.868686 
L 200.810159 25.966722 
L 191.46767 29.213247 
L 182.698783 32.569875 
L 173.93568 36.240158 
L 166.603774 39.569272 
L 158.915421 43.332179 
L 150.871915 47.593726 
L 143.460597 51.846476 
L 138.174012 55.093334 
L 131.980845 59.151259 
L 125.752859 63.54731 
L 120.458451 67.574048 
L 114.567267 72.428833 
L 110.224849 76.312327 
L 106.579613 79.816425 
L 102.884513 83.646681 
L 99.635872 87.301662 
L 97.029895 90.478756 
L 93.480725 95.271228 
L 90.865264 99.280205 
L 88.657777 103.133174 
L 86.751067 106.994454 
L 85.216327 110.695607 
L 84.110136 113.947845 
L 83.30674 116.903613 
L 82.787478 119.370246 
L 82.350894 122.333578 
L 82.116448 125.541814 
L 82.128663 128.504426 
L 82.349905 131.297009 
L 82.933895 134.820891 
L 83.598065 137.43432 
L 84.509468 140.152781 
L 85.646658 142.846445 
L 86.962266 145.417301 
L 88.392305 147.796252 
L 90.396826 150.651471 
L 92.814486 153.591085 
L 94.648876 155.558398 
L 96.701613 157.555213 
L 99.261343 159.804775 
L 102.417463 162.28824 
L 105.793644 164.664444 
L 109.83571 167.207065 
L 114.669296 169.903239 
L 119.498612 172.295979 
L 123.158615 173.942874 
L 128.904071 176.28433 
L 132.996758 177.795112 
L 132.996758 177.795112 
" clip-path="url(#p672c6de711)" style="fill: none; stroke: #000000; stroke-width: 2; stroke-linecap: square"/>
   </g>
   <g id="patch_3">
    <path d="M 132.996758 177.795112 
Q 108.256309 166.897551 85.562207 156.901355 
" clip-path="url(#p672c6de711)" style="fill: none; stroke: #0000ff; stroke-width: 2; stroke-linecap: round"/>
    <path d="M 92.698237 165.508159 
L 85.562207 156.901355 
L 96.729268 156.356614 
z
" clip-path="url(#p672c6de711)" style="fill: #0000ff; stroke: #0000ff; stroke-width: 2; stroke-linecap: round"/>
   </g>
   <g id="patch_4">
    <path d="M 110.582315 167.646013 
Q 82.106125 158.439968 55.757579 149.921767 
" clip-path="url(#p672c6de711)" style="fill: none; stroke: #0000ff; stroke-width: 2; stroke-linecap: round"/>
    <path d="M 63.734627 157.755458 
L 55.757579 149.921767 
L 66.81076 148.240344 
z
" clip-path="url(#p672c6de711)" style="fill: #0000ff; stroke: #0000ff; stroke-width: 2; stroke-linecap: round"/>
   </g>
   <g id="patch_5">
    <path d="M 94.609381 155.518009 
Q 63.471035 148.333298 34.511511 141.651317 
" clip-path="url(#p672c6de711)" style="fill: none; stroke: #0000ff; stroke-width: 2; stroke-linecap: round"/>
    <path d="M 43.131355 148.771589 
L 34.511511 141.651317 
L 45.379635 139.027605 
z
" clip-path="url(#p672c6de711)" style="fill: #0000ff; stroke: #0000ff; stroke-width: 2; stroke-linecap: round"/>
   </g>
   <g id="patch_6">
    <path d="M 85.152498 141.744683 
Q 52.438005 136.855527 21.935019 132.296878 
" clip-path="url(#p672c6de711)" style="fill: none; stroke: #0000ff; stroke-width: 2; stroke-linecap: round"/>
    <path d="M 31.086142 138.720036 
L 21.935019 132.296878 
L 32.564219 128.829875 
z
" clip-path="url(#p672c6de711)" style="fill: #0000ff; stroke: #0000ff; stroke-width: 2; stroke-linecap: round"/>
   </g>
   <g id="patch_7">
    <path d="M 82.094479 126.719914 
Q 48.870316 124.334886 17.876483 122.109964 
" clip-path="url(#p672c6de711)" style="fill: none; stroke: #0000ff; stroke-width: 2; stroke-linecap: round"/>
    <path d="M 27.492807 127.813147 
L 17.876483 122.109964 
L 28.208824 117.838814 
z
" clip-path="url(#p672c6de711)" style="fill: #0000ff; stroke: #0000ff; stroke-width: 2; stroke-linecap: round"/>
   </g>
   <g id="patch_8">
    <path d="M 85.145013 110.886662 
Q 52.429273 111.140509 21.949533 111.377006 
" clip-path="url(#p672c6de711)" style="fill: none; stroke: #0000ff; stroke-width: 2; stroke-linecap: round"/>
    <path d="M 31.988027 116.299267 
L 21.949533 111.377006 
L 31.910438 106.299568 
z
" clip-path="url(#p672c6de711)" style="fill: #0000ff; stroke: #0000ff; stroke-width: 2; stroke-linecap: round"/>
   </g>
   <g id="patch_9">
    <path d="M 93.862811 94.723928 
Q 62.600037 97.671563 33.563458 100.409301 
" clip-path="url(#p672c6de711)" style="fill: none; stroke: #0000ff; stroke-width: 2; stroke-linecap: round"/>
    <path d="M 43.98865 104.448528 
L 33.563458 100.409301 
L 43.049955 94.492683 
z
" clip-path="url(#p672c6de711)" style="fill: #0000ff; stroke: #0000ff; stroke-width: 2; stroke-linecap: round"/>
   </g>
   <g id="patch_10">
    <path d="M 107.680175 78.732261 
Q 78.720295 84.345175 51.955632 89.532618 
" clip-path="url(#p672c6de711)" style="fill: none; stroke: #0000ff; stroke-width: 2; stroke-linecap: round"/>
    <path d="M 62.724318 92.538512 
L 51.955632 89.532618 
L 60.821558 82.721205 
z
" clip-path="url(#p672c6de711)" style="fill: #0000ff; stroke: #0000ff; stroke-width: 2; stroke-linecap: round"/>
   </g>
   <g id="patch_11">
    <path d="M 125.928882 63.418266 
Q 100.010453 71.583512 76.22476 79.076869 
" clip-path="url(#p672c6de711)" style="fill: none; stroke: #0000ff; stroke-width: 2; stroke-linecap: round"/>
    <path d="M 87.265038 80.841031 
L 76.22476 79.076869 
L 84.260257 71.303144 
z
" clip-path="url(#p672c6de711)" style="fill: #0000ff; stroke: #0000ff; stroke-width: 2; stroke-linecap: round"/>
   </g>
   <g id="patch_12">
    <path d="M 147.866346 49.278568 
Q 125.604162 59.80043 105.363617 69.366797 
" clip-path="url(#p672c6de711)" style="fill: none; stroke: #0000ff; stroke-width: 2; stroke-linecap: round"/>
    <path d="M 116.541219 69.614216 
L 105.363617 69.366797 
L 112.268113 60.573167 
z
" clip-path="url(#p672c6de711)" style="fill: #0000ff; stroke: #0000ff; stroke-width: 2; stroke-linecap: round"/>
   </g>
   <g id="patch_13">
    <path d="M 172.701152 36.783765 
Q 154.578101 49.388095 138.290794 60.715691 
" clip-path="url(#p672c6de711)" style="fill: none; stroke: #0000ff; stroke-width: 2; stroke-linecap: round"/>
    <path d="M 149.355348 59.11081 
L 138.290794 60.715691 
L 143.645622 50.901119 
z
" clip-path="url(#p672c6de711)" style="fill: #0000ff; stroke: #0000ff; stroke-width: 2; stroke-linecap: round"/>
   </g>
   <g id="patch_14">
    <path d="M 199.617158 26.362873 
Q 185.980109 40.704018 173.88392 53.424746 
" clip-path="url(#p672c6de711)" style="fill: none; stroke: #0000ff; stroke-width: 2; stroke-linecap: round"/>
    <path d="M 184.398218 49.623492 
L 173.88392 53.424746 
L 177.151495 42.732555 
z
" clip-path="url(#p672c6de711)" style="fill: #0000ff; stroke: #0000ff; stroke-width: 2; stroke-linecap: round"/>
   </g>
   <g id="patch_15">
    <path d="M 227.795575 18.388769 
Q 218.854929 34.058931 211.022399 47.78691 
" clip-path="url(#p672c6de711)" style="fill: none; stroke: #0000ff; stroke-width: 2; stroke-linecap: round"/>
    <path d="M 220.320904 41.579027 
L 211.022399 47.78691 
L 211.635196 36.623377 
z
" clip-path="url(#p672c6de711)" style="fill: #0000ff; stroke: #0000ff; stroke-width: 2; stroke-linecap: round"/>
   </g>
   <g id="patch_16">
    <path d="M 256.434551 13.16514 
Q 252.267066 29.705907 248.645892 44.07837 
" clip-path="url(#p672c6de711)" style="fill: none; stroke: #0000ff; stroke-width: 2; stroke-linecap: round"/>
    <path d="M 255.937539 35.603 
L 248.645892 44.07837 
L 246.240584 33.15983 
z
" clip-path="url(#p672c6de711)" style="fill: #0000ff; stroke: #0000ff; stroke-width: 2; stroke-linecap: round"/>
   </g>
   <g id="patch_17">
    <path d="M 284.766003 10.915368 
Q 285.320428 27.831097 285.801603 42.511959 
" clip-path="url(#p672c6de711)" style="fill: none; stroke: #0000ff; stroke-width: 2; stroke-linecap: round"/>
    <path d="M 290.471339 32.353535 
L 285.801603 42.511959 
L 280.476706 32.681116 
z
" clip-path="url(#p672c6de711)" style="fill: #0000ff; stroke: #0000ff; stroke-width: 2; stroke-linecap: round"/>
   </g>
   <g id="patch_18">
    <path d="M 312.069605 11.773757 
Q 317.17463 28.546422 321.628563 43.179909 
" clip-path="url(#p672c6de711)" style="fill: none; stroke: #0000ff; stroke-width: 2; stroke-linecap: round"/>
    <path d="M 323.500135 32.157331 
L 321.628563 43.179909 
L 313.933444 35.069105 
z
" clip-path="url(#p672c6de711)" style="fill: #0000ff; stroke: #0000ff; stroke-width: 2; stroke-linecap: round"/>
   </g>
   <g id="patch_19">
    <path d="M 337.683957 15.779428 
Q 347.05804 31.88448 355.307273 46.056993 
" clip-path="url(#p672c6de711)" style="fill: none; stroke: #0000ff; stroke-width: 2; stroke-linecap: round"/>
    <path d="M 354.598075 34.899169 
L 355.307273 46.056993 
L 345.955495 39.929657 
z
" clip-path="url(#p672c6de711)" style="fill: #0000ff; stroke: #0000ff; stroke-width: 2; stroke-linecap: round"/>
   </g>
   <g id="patch_20">
    <path d="M 361.015146 22.873125 
Q 374.277762 37.795895 386.054944 51.047291 
" clip-path="url(#p672c6de711)" style="fill: none; stroke: #0000ff; stroke-width: 2; stroke-linecap: round"/>
    <path d="M 383.149188 40.251154 
L 386.054944 51.047291 
L 375.67458 46.894213 
z
" clip-path="url(#p672c6de711)" style="fill: #0000ff; stroke: #0000ff; stroke-width: 2; stroke-linecap: round"/>
   </g>
   <g id="patch_21">
    <path d="M 381.542981 32.897103 
Q 398.226902 46.149209 413.159893 58.010545 
" clip-path="url(#p672c6de711)" style="fill: none; stroke: #0000ff; stroke-width: 2; stroke-linecap: round"/>
    <path d="M 408.439354 47.87563 
L 413.159893 58.010545 
L 402.219637 55.706027 
z
" clip-path="url(#p672c6de711)" style="fill: #0000ff; stroke: #0000ff; stroke-width: 2; stroke-linecap: round"/>
   </g>
   <g id="patch_22">
    <path d="M 398.825248 45.59814 
Q 418.389547 56.733407 436.010501 66.762595 
" clip-path="url(#p672c6de711)" style="fill: none; stroke: #0000ff; stroke-width: 2; stroke-linecap: round"/>
    <path d="M 429.792868 57.470608 
L 436.010501 66.762595 
L 424.846331 66.16151 
z
" clip-path="url(#p672c6de711)" style="fill: #0000ff; stroke: #0000ff; stroke-width: 2; stroke-linecap: round"/>
   </g>
   <g id="text_1">
    <!-- $Q$ -->
    <g transform="translate(405.588414 80.212751) scale(0.1728 -0.1728)">
     <defs>
      <path id="Cmmi10-51" d="M 1947 -141 
Q 1466 -141 1094 79 
Q 722 300 520 692 
Q 319 1084 319 1563 
Q 319 2259 714 2950 
Q 1109 3641 1756 4077 
Q 2403 4513 3109 4513 
Q 3475 4513 3778 4381 
Q 4081 4250 4290 4017 
Q 4500 3784 4614 3471 
Q 4728 3159 4728 2791 
Q 4728 2366 4581 1936 
Q 4434 1506 4171 1136 
Q 3909 766 3559 484 
Q 3209 203 2809 38 
Q 2850 -256 2934 -425 
Q 3019 -594 3256 -594 
Q 3506 -594 3726 -412 
Q 3947 -231 4006 13 
Q 4019 72 4078 72 
Q 4147 72 4147 -13 
Q 4100 -219 4008 -430 
Q 3916 -641 3786 -823 
Q 3656 -1006 3478 -1123 
Q 3300 -1241 3084 -1241 
Q 2547 -1241 2547 -550 
Q 2547 -509 2562 -332 
Q 2578 -156 2578 -44 
Q 2269 -141 1947 -141 
z
M 1709 300 
Q 1709 44 1991 44 
Q 2275 44 2591 184 
L 2591 244 
Q 2591 503 2509 648 
Q 2428 794 2194 794 
Q 2078 794 1964 723 
Q 1850 653 1779 539 
Q 1709 425 1709 300 
z
M 1544 288 
Q 1544 456 1637 612 
Q 1731 769 1881 864 
Q 2031 959 2203 959 
Q 2481 959 2607 771 
Q 2734 584 2778 281 
Q 3188 525 3500 978 
Q 3813 1431 3977 1973 
Q 4141 2516 4141 3003 
Q 4141 3356 4023 3656 
Q 3906 3956 3664 4140 
Q 3422 4325 3066 4325 
Q 2722 4325 2403 4156 
Q 2084 3988 1813 3706 
Q 1550 3434 1342 3032 
Q 1134 2631 1021 2193 
Q 909 1756 909 1356 
Q 909 947 1068 612 
Q 1228 278 1569 128 
Q 1544 194 1544 288 
z
" transform="scale(0.015625)"/>
     </defs>
     <use xlink:href="#Cmmi10-51" transform="translate(0 0.484375)"/>
    </g>
   </g>
   <g id="text_2">
    <!-- $P$ -->
    <g transform="translate(127.380758 197.374205) scale(0.1728 -0.1728)">
     <defs>
      <path id="Cmmi10-50" d="M 313 0 
Q 250 0 250 84 
Q 253 100 262 139 
Q 272 178 289 201 
Q 306 225 331 225 
Q 722 225 878 269 
Q 959 297 997 441 
L 1875 3956 
Q 1888 4019 1888 4044 
Q 1888 4113 1813 4122 
Q 1691 4147 1350 4147 
Q 1288 4147 1288 4231 
Q 1291 4247 1300 4286 
Q 1309 4325 1326 4348 
Q 1344 4372 1369 4372 
L 3578 4372 
Q 3881 4372 4165 4264 
Q 4450 4156 4631 3934 
Q 4813 3713 4813 3397 
Q 4813 2991 4527 2672 
Q 4241 2353 3814 2175 
Q 3388 1997 2988 1997 
L 1947 1997 
L 1556 416 
Q 1544 353 1544 325 
Q 1544 300 1551 283 
Q 1559 266 1573 261 
Q 1588 256 1619 250 
Q 1741 225 2081 225 
Q 2144 225 2144 141 
Q 2122 50 2109 25 
Q 2097 0 2034 0 
L 313 0 
z
M 1978 2188 
L 2875 2188 
Q 3497 2188 3822 2522 
Q 3988 2688 4092 3000 
Q 4197 3313 4197 3566 
Q 4197 3881 3956 4014 
Q 3716 4147 3359 4147 
L 2747 4147 
Q 2572 4147 2515 4117 
Q 2459 4088 2413 3928 
L 1978 2188 
z
" transform="scale(0.015625)"/>
     </defs>
     <use xlink:href="#Cmmi10-50" transform="translate(0 0.6875)"/>
    </g>
   </g>
  </g>
 </g>
 <defs>
  <clipPath id="p672c6de711">
   <rect x="7.2" y="7.2" width="439.2" height="189.041417"/>
  </clipPath>
 </defs>
</svg>
