<?xml version="1.0" encoding="utf-8" standalone="no"?>
<!DOCTYPE svg PUBLIC "-//W3C//DTD SVG 1.1//EN"
  "http://www.w3.org/Graphics/SVG/1.1/DTD/svg11.dtd">
<svg xmlns:xlink="http://www.w3.org/1999/xlink" width="452.907598pt" height="230.321724pt" viewBox="0 0 452.907598 230.321724" xmlns="http://www.w3.org/2000/svg" version="1.1">
 <metadata>
  <rdf:RDF xmlns:dc="http://purl.org/dc/elements/1.1/" xmlns:cc="http://creativecommons.org/ns#" xmlns:rdf="http://www.w3.org/1999/02/22-rdf-syntax-ns#">
   <cc:Work>
    <dc:type rdf:resource="http://purl.org/dc/dcmitype/StillImage"/>
    <dc:date>2023-07-26T20:48:33.293568</dc:date>
    <dc:format>image/svg+xml</dc:format>
    <dc:creator>
     <cc:Agent>
      <dc:title>Matplotlib v3.6.2, https://matplotlib.org/</dc:title>
     </cc:Agent>
    </dc:creator>
   </cc:Work>
  </rdf:RDF>
 </metadata>
 <defs>
  <style type="text/css">*{stroke-linejoin: round; stroke-linecap: butt}</style>
 </defs>
 <g id="figure_1">
  <g id="patch_1">
   <path d="M 0 230.321724 
L 452.907598 230.321724 
L 452.907598 0 
L 0 0 
z
" style="fill: #ffffff"/>
  </g>
  <g id="axes_1">
   <g id="patch_2">
    <path d="M 10.497348 215.020618 
L 417.53525 215.020618 
L 417.53525 7.2 
L 10.497348 7.2 
z
" style="fill: #ffffff"/>
   </g>
   <g id="PathCollection_1">
    <path d="M 86.155131 198.27736 
C 87.092766 198.27736 87.992123 197.904833 88.655131 197.241826 
C 89.318139 196.578818 89.690665 195.67946 89.690665 194.741826 
C 89.690665 193.804191 89.318139 192.904833 88.655131 192.241826 
C 87.992123 191.578818 87.092766 191.206292 86.155131 191.206292 
C 85.217497 191.206292 84.318139 191.578818 83.655131 192.241826 
C 82.992123 192.904833 82.619597 193.804191 82.619597 194.741826 
C 82.619597 195.67946 82.992123 196.578818 83.655131 197.241826 
C 84.318139 197.904833 85.217497 198.27736 86.155131 198.27736 
z
" clip-path="url(#p7f72703fa3)"/>
   </g>
   <g id="PathCollection_2">
    <path d="M 34.607242 160.903656 
C 35.544877 160.903656 36.444235 160.53113 37.107242 159.868122 
C 37.77025 159.205114 38.142776 158.305756 38.142776 157.368122 
C 38.142776 156.430487 37.77025 155.53113 37.107242 154.868122 
C 36.444235 154.205114 35.544877 153.832588 34.607242 153.832588 
C 33.669608 153.832588 32.77025 154.205114 32.107242 154.868122 
C 31.444235 155.53113 31.071709 156.430487 31.071709 157.368122 
C 31.071709 158.305756 31.444235 159.205114 32.107242 159.868122 
C 32.77025 160.53113 33.669608 160.903656 34.607242 160.903656 
z
" clip-path="url(#p7f72703fa3)"/>
   </g>
   <g id="PathCollection_3">
    <path d="M 39.793612 112.035511 
C 40.731247 112.035511 41.630605 111.662985 42.293612 110.999977 
C 42.95662 110.336969 43.329146 109.437612 43.329146 108.499977 
C 43.329146 107.562343 42.95662 106.662985 42.293612 105.999977 
C 41.630605 105.336969 40.731247 104.964443 39.793612 104.964443 
C 38.855978 104.964443 37.95662 105.336969 37.293612 105.999977 
C 36.630605 106.662985 36.258079 107.562343 36.258079 108.499977 
C 36.258079 109.437612 36.630605 110.336969 37.293612 110.999977 
C 37.95662 111.662985 38.855978 112.035511 39.793612 112.035511 
z
" clip-path="url(#p7f72703fa3)"/>
   </g>
   <g id="PathCollection_4">
    <path d="M 91.724475 63.463424 
C 92.662109 63.463424 93.561467 63.090898 94.224475 62.42789 
C 94.887483 61.764882 95.260009 60.865524 95.260009 59.92789 
C 95.260009 58.990255 94.887483 58.090898 94.224475 57.42789 
C 93.561467 56.764882 92.662109 56.392356 91.724475 56.392356 
C 90.78684 56.392356 89.887483 56.764882 89.224475 57.42789 
C 88.561467 58.090898 88.188941 58.990255 88.188941 59.92789 
C 88.188941 60.865524 88.561467 61.764882 89.224475 62.42789 
C 89.887483 63.090898 90.78684 63.463424 91.724475 63.463424 
z
" clip-path="url(#p7f72703fa3)"/>
   </g>
   <g id="PathCollection_5">
    <path d="M 261.725907 14.736445 
C 262.663542 14.736445 263.562899 14.363919 264.225907 13.700911 
C 264.888915 13.037904 265.261441 12.138546 265.261441 11.200911 
C 265.261441 10.263277 264.888915 9.363919 264.225907 8.700911 
C 263.562899 8.037904 262.663542 7.665378 261.725907 7.665378 
C 260.788272 7.665378 259.888915 8.037904 259.225907 8.700911 
C 258.562899 9.363919 258.190373 10.263277 258.190373 11.200911 
C 258.190373 12.138546 258.562899 13.037904 259.225907 13.700911 
C 259.888915 14.363919 260.788272 14.736445 261.725907 14.736445 
z
" clip-path="url(#p7f72703fa3)"/>
   </g>
   <g id="PathCollection_6">
    <path d="M 340.25026 29.347455 
C 341.187894 29.347455 342.087252 28.974929 342.75026 28.311921 
C 343.413267 27.648913 343.785794 26.749556 343.785794 25.811921 
C 343.785794 24.874286 343.413267 23.974929 342.75026 23.311921 
C 342.087252 22.648913 341.187894 22.276387 340.25026 22.276387 
C 339.312625 22.276387 338.413267 22.648913 337.75026 23.311921 
C 337.087252 23.974929 336.714726 24.874286 336.714726 25.811921 
C 336.714726 26.749556 337.087252 27.648913 337.75026 28.311921 
C 338.413267 28.974929 339.312625 29.347455 340.25026 29.347455 
z
" clip-path="url(#p7f72703fa3)"/>
   </g>
   <g id="PathCollection_7">
    <path d="M 393.425355 69.476804 
C 394.36299 69.476804 395.262348 69.104278 395.925355 68.44127 
C 396.588363 67.778262 396.960889 66.878905 396.960889 65.94127 
C 396.960889 65.003636 396.588363 64.104278 395.925355 63.44127 
C 395.262348 62.778262 394.36299 62.405736 393.425355 62.405736 
C 392.487721 62.405736 391.588363 62.778262 390.925355 63.44127 
C 390.262348 64.104278 389.889821 65.003636 389.889821 65.94127 
C 389.889821 66.878905 390.262348 67.778262 390.925355 68.44127 
C 391.588363 69.104278 392.487721 69.476804 393.425355 69.476804 
z
" clip-path="url(#p7f72703fa3)"/>
   </g>
   <g id="matplotlib.axis_1"/>
   <g id="matplotlib.axis_2"/>
   <g id="line2d_1">
    <path d="M 393.425355 65.94127 
L 390.090128 61.632879 
L 387.076365 58.105364 
L 384.312691 55.124853 
L 380.045805 50.925308 
L 377.349996 48.48897 
L 373.630605 45.366075 
L 369.924588 42.497897 
L 366.2605 39.873802 
L 361.461217 36.719207 
L 355.742017 33.329329 
L 350.126742 30.345211 
L 345.198633 27.976717 
L 339.098499 25.336799 
L 334.150025 23.411715 
L 329.959029 21.921253 
L 322.674865 19.613119 
L 317.223867 18.103594 
L 308.705569 16.08758 
L 303.237138 14.998849 
L 294.809914 13.613403 
L 286.612109 12.584639 
L 277.980731 11.819576 
L 270.115046 11.390628 
L 264.007579 11.225862 
L 258.892662 11.197102 
L 252.867548 11.287283 
L 242.512775 11.745867 
L 235.733804 12.247801 
L 226.396686 13.19302 
L 221.780292 13.76703 
L 211.015707 15.375077 
L 200.53108 17.299701 
L 193.40114 18.809144 
L 184.885133 20.8249 
L 177.943101 22.640477 
L 170.548486 24.746554 
L 161.65172 27.519788 
L 151.739064 30.925838 
L 142.958542 34.231725 
L 134.646184 37.623321 
L 125.350188 41.735826 
L 117.111291 45.682685 
L 108.746232 50.005393 
L 103.313031 52.998059 
L 96.729014 56.838238 
L 91.288578 60.204461 
L 86.892529 63.064694 
L 80.337662 67.588884 
L 74.665805 71.787778 
L 70.662111 74.934206 
L 65.582623 79.177976 
L 60.942465 83.343533 
L 56.868097 87.274844 
L 52.343354 92.011304 
L 48.376861 96.57178 
L 45.377173 100.350974 
L 41.907024 105.202534 
L 39.383382 109.178661 
L 37.297346 112.877338 
L 35.213702 117.132614 
L 33.523071 121.258341 
L 32.331997 124.816716 
L 31.313864 128.739847 
L 30.606892 132.726837 
L 30.257567 136.434943 
L 30.206885 139.730031 
L 30.464 143.512677 
L 31.111577 147.464415 
L 32.050545 151.037697 
L 33.005852 153.763284 
L 34.061282 156.235667 
L 35.297585 158.693056 
L 36.777076 161.224731 
L 38.553331 163.861678 
L 40.340659 166.198659 
L 42.968558 169.21899 
L 45.80288 172.06871 
L 48.15458 174.189605 
L 51.938446 177.244482 
L 56.010333 180.146613 
L 60.344662 182.894045 
L 63.283193 184.592706 
L 67.773027 186.974304 
L 73.065715 189.501535 
L 77.963552 191.613325 
L 84.041149 193.977972 
L 86.155131 194.741826 
L 86.155131 194.741826 
" clip-path="url(#p7f72703fa3)" style="fill: none; stroke: #000000; stroke-width: 2; stroke-linecap: square"/>
   </g>
   <g id="patch_3">
    <path d="M 172.552042 24.158242 
Q 173.436993 23.903869 172.172895 24.267225 
" clip-path="url(#p7f72703fa3)" style="fill: none; stroke: #000000; stroke-width: 2; stroke-linecap: round"/>
    <path d="M 161.180773 22.224375 
L 172.172895 24.267225 
L 163.943342 31.835213 
L 161.180773 22.224375 
z
" clip-path="url(#p7f72703fa3)" style="stroke: #000000; stroke-width: 2; stroke-linecap: round"/>
   </g>
   <g id="text_1">
    <!-- $P=\mathbf{r}_0$ -->
    <g transform="translate(61.046252 217.922506) scale(0.25 -0.25)">
     <defs>
      <path id="Cmmi10-50" d="M 313 0 
Q 250 0 250 84 
Q 253 100 262 139 
Q 272 178 289 201 
Q 306 225 331 225 
Q 722 225 878 269 
Q 959 297 997 441 
L 1875 3956 
Q 1888 4019 1888 4044 
Q 1888 4113 1813 4122 
Q 1691 4147 1350 4147 
Q 1288 4147 1288 4231 
Q 1291 4247 1300 4286 
Q 1309 4325 1326 4348 
Q 1344 4372 1369 4372 
L 3578 4372 
Q 3881 4372 4165 4264 
Q 4450 4156 4631 3934 
Q 4813 3713 4813 3397 
Q 4813 2991 4527 2672 
Q 4241 2353 3814 2175 
Q 3388 1997 2988 1997 
L 1947 1997 
L 1556 416 
Q 1544 353 1544 325 
Q 1544 300 1551 283 
Q 1559 266 1573 261 
Q 1588 256 1619 250 
Q 1741 225 2081 225 
Q 2144 225 2144 141 
Q 2122 50 2109 25 
Q 2097 0 2034 0 
L 313 0 
z
M 1978 2188 
L 2875 2188 
Q 3497 2188 3822 2522 
Q 3988 2688 4092 3000 
Q 4197 3313 4197 3566 
Q 4197 3881 3956 4014 
Q 3716 4147 3359 4147 
L 2747 4147 
Q 2572 4147 2515 4117 
Q 2459 4088 2413 3928 
L 1978 2188 
z
" transform="scale(0.015625)"/>
      <path id="Cmr10-3d" d="M 481 850 
Q 428 850 393 890 
Q 359 931 359 978 
Q 359 1031 393 1068 
Q 428 1106 481 1106 
L 4500 1106 
Q 4547 1106 4581 1068 
Q 4616 1031 4616 978 
Q 4616 931 4581 890 
Q 4547 850 4500 850 
L 481 850 
z
M 481 2094 
Q 428 2094 393 2131 
Q 359 2169 359 2222 
Q 359 2269 393 2309 
Q 428 2350 481 2350 
L 4500 2350 
Q 4547 2350 4581 2309 
Q 4616 2269 4616 2222 
Q 4616 2169 4581 2131 
Q 4547 2094 4500 2094 
L 481 2094 
z
" transform="scale(0.015625)"/>
      <path id="Cmb10-72" d="M 91 0 
L 91 325 
L 531 325 
L 531 2322 
Q 531 2503 91 2503 
L 91 2828 
L 1178 2881 
L 1178 2356 
Q 1269 2594 1436 2737 
Q 1603 2881 1838 2881 
Q 2006 2881 2173 2822 
Q 2341 2763 2450 2641 
Q 2559 2519 2559 2344 
Q 2559 2178 2443 2059 
Q 2328 1941 2156 1941 
Q 1984 1941 1868 2059 
Q 1753 2178 1753 2344 
Q 1753 2513 1856 2625 
L 1838 2625 
Q 1488 2625 1367 2248 
Q 1247 1872 1247 1416 
L 1247 325 
L 1806 325 
L 1806 0 
L 91 0 
z
" transform="scale(0.015625)"/>
      <path id="Cmr10-30" d="M 1600 -141 
Q 816 -141 533 504 
Q 250 1150 250 2041 
Q 250 2597 351 3087 
Q 453 3578 754 3920 
Q 1056 4263 1600 4263 
Q 2022 4263 2290 4056 
Q 2559 3850 2700 3523 
Q 2841 3197 2892 2823 
Q 2944 2450 2944 2041 
Q 2944 1491 2842 1011 
Q 2741 531 2444 195 
Q 2147 -141 1600 -141 
z
M 1600 25 
Q 1956 25 2131 390 
Q 2306 756 2347 1200 
Q 2388 1644 2388 2144 
Q 2388 2625 2347 3031 
Q 2306 3438 2132 3767 
Q 1959 4097 1600 4097 
Q 1238 4097 1063 3765 
Q 888 3434 847 3029 
Q 806 2625 806 2144 
Q 806 1788 823 1472 
Q 841 1156 916 820 
Q 991 484 1158 254 
Q 1325 25 1600 25 
z
" transform="scale(0.015625)"/>
     </defs>
     <use xlink:href="#Cmmi10-50" transform="translate(0 0.6875)"/>
     <use xlink:href="#Cmr10-3d" transform="translate(81.767578 0.6875)"/>
     <use xlink:href="#Cmb10-72" transform="translate(177.011719 0.6875)"/>
     <use xlink:href="#Cmr10-30" transform="translate(224.151641 -16.31875) scale(0.7)"/>
    </g>
   </g>
   <g id="text_2">
    <!-- $\mathbf{r}_1$ -->
    <g transform="translate(7.2 172.407681) scale(0.25 -0.25)">
     <defs>
      <path id="Cmr10-31" d="M 594 0 
L 594 225 
Q 1394 225 1394 428 
L 1394 3788 
Q 1063 3628 556 3628 
L 556 3853 
Q 1341 3853 1741 4263 
L 1831 4263 
Q 1853 4263 1873 4245 
Q 1894 4228 1894 4206 
L 1894 428 
Q 1894 225 2694 225 
L 2694 0 
L 594 0 
z
" transform="scale(0.015625)"/>
     </defs>
     <use xlink:href="#Cmb10-72" transform="translate(0 0.984375)"/>
     <use xlink:href="#Cmr10-31" transform="translate(47.139922 -16.021875) scale(0.7)"/>
    </g>
   </g>
   <g id="text_3">
    <!-- $\mathbf{r}_2$ -->
    <g transform="translate(44.950855 115.398415) scale(0.25 -0.25)">
     <defs>
      <path id="Cmr10-32" d="M 319 0 
L 319 172 
Q 319 188 331 206 
L 1325 1306 
Q 1550 1550 1690 1715 
Q 1831 1881 1968 2097 
Q 2106 2313 2186 2536 
Q 2266 2759 2266 3009 
Q 2266 3272 2169 3511 
Q 2072 3750 1880 3894 
Q 1688 4038 1416 4038 
Q 1138 4038 916 3870 
Q 694 3703 603 3438 
Q 628 3444 672 3444 
Q 816 3444 917 3347 
Q 1019 3250 1019 3097 
Q 1019 2950 917 2848 
Q 816 2747 672 2747 
Q 522 2747 420 2851 
Q 319 2956 319 3097 
Q 319 3338 409 3548 
Q 500 3759 670 3923 
Q 841 4088 1055 4175 
Q 1269 4263 1509 4263 
Q 1875 4263 2190 4108 
Q 2506 3953 2690 3670 
Q 2875 3388 2875 3009 
Q 2875 2731 2753 2481 
Q 2631 2231 2440 2026 
Q 2250 1822 1953 1562 
Q 1656 1303 1563 1216 
L 838 519 
L 1453 519 
Q 1906 519 2211 526 
Q 2516 534 2534 550 
Q 2609 631 2688 1141 
L 2875 1141 
L 2694 0 
L 319 0 
z
" transform="scale(0.015625)"/>
     </defs>
     <use xlink:href="#Cmb10-72" transform="translate(0 0.984375)"/>
     <use xlink:href="#Cmr10-32" transform="translate(47.139922 -16.021875) scale(0.7)"/>
    </g>
   </g>
   <g id="text_4">
    <!-- $\mathbf{r}_{n-2}$ -->
    <g transform="translate(235.475907 34.381591) scale(0.25 -0.25)">
     <defs>
      <path id="Cmmi10-6e" d="M 494 109 
Q 494 147 500 166 
L 978 2075 
Q 1025 2253 1025 2388 
Q 1025 2663 838 2663 
Q 638 2663 541 2423 
Q 444 2184 353 1819 
Q 353 1800 334 1789 
Q 316 1778 300 1778 
L 225 1778 
Q 203 1778 187 1801 
Q 172 1825 172 1844 
Q 241 2122 305 2315 
Q 369 2509 505 2668 
Q 641 2828 844 2828 
Q 1084 2828 1268 2676 
Q 1453 2525 1453 2291 
Q 1644 2541 1900 2684 
Q 2156 2828 2444 2828 
Q 2672 2828 2837 2750 
Q 3003 2672 3095 2514 
Q 3188 2356 3188 2138 
Q 3188 1875 3070 1503 
Q 2953 1131 2778 672 
Q 2688 463 2688 288 
Q 2688 97 2834 97 
Q 3084 97 3251 365 
Q 3419 634 3488 941 
Q 3500 978 3541 978 
L 3616 978 
Q 3641 978 3658 962 
Q 3675 947 3675 922 
Q 3675 916 3669 903 
Q 3581 541 3364 234 
Q 3147 -72 2822 -72 
Q 2597 -72 2437 83 
Q 2278 238 2278 459 
Q 2278 578 2328 709 
Q 2409 919 2514 1209 
Q 2619 1500 2686 1765 
Q 2753 2031 2753 2234 
Q 2753 2413 2679 2538 
Q 2606 2663 2431 2663 
Q 2197 2663 2000 2559 
Q 1803 2456 1656 2286 
Q 1509 2116 1388 1881 
L 953 141 
Q 931 53 854 -9 
Q 778 -72 684 -72 
Q 606 -72 550 -22 
Q 494 28 494 109 
z
" transform="scale(0.015625)"/>
      <path id="Cmsy10-a1" d="M 653 1472 
Q 600 1472 565 1512 
Q 531 1553 531 1600 
Q 531 1647 565 1687 
Q 600 1728 653 1728 
L 4325 1728 
Q 4375 1728 4408 1687 
Q 4441 1647 4441 1600 
Q 4441 1553 4408 1512 
Q 4375 1472 4325 1472 
L 653 1472 
z
" transform="scale(0.015625)"/>
     </defs>
     <use xlink:href="#Cmb10-72" transform="translate(0 0.984375)"/>
     <use xlink:href="#Cmmi10-6e" transform="translate(47.139922 -16.021875) scale(0.7)"/>
     <use xlink:href="#Cmsy10-a1" transform="translate(101.437773 -16.021875) scale(0.7)"/>
     <use xlink:href="#Cmr10-32" transform="translate(168.108672 -16.021875) scale(0.7)"/>
    </g>
   </g>
   <g id="text_5">
    <!-- $\mathbf{r}_{n-1}$ -->
    <g transform="translate(314.00026 48.992601) scale(0.25 -0.25)">
     <use xlink:href="#Cmb10-72" transform="translate(0 0.984375)"/>
     <use xlink:href="#Cmmi10-6e" transform="translate(47.139922 -16.021875) scale(0.7)"/>
     <use xlink:href="#Cmsy10-a1" transform="translate(101.437773 -16.021875) scale(0.7)"/>
     <use xlink:href="#Cmr10-31" transform="translate(168.108672 -16.021875) scale(0.7)"/>
    </g>
   </g>
   <g id="text_6">
    <!-- $Q=\mathbf{r}_{n}$ -->
    <g transform="translate(373.707598 89.12195) scale(0.25 -0.25)">
     <defs>
      <path id="Cmmi10-51" d="M 1947 -141 
Q 1466 -141 1094 79 
Q 722 300 520 692 
Q 319 1084 319 1563 
Q 319 2259 714 2950 
Q 1109 3641 1756 4077 
Q 2403 4513 3109 4513 
Q 3475 4513 3778 4381 
Q 4081 4250 4290 4017 
Q 4500 3784 4614 3471 
Q 4728 3159 4728 2791 
Q 4728 2366 4581 1936 
Q 4434 1506 4171 1136 
Q 3909 766 3559 484 
Q 3209 203 2809 38 
Q 2850 -256 2934 -425 
Q 3019 -594 3256 -594 
Q 3506 -594 3726 -412 
Q 3947 -231 4006 13 
Q 4019 72 4078 72 
Q 4147 72 4147 -13 
Q 4100 -219 4008 -430 
Q 3916 -641 3786 -823 
Q 3656 -1006 3478 -1123 
Q 3300 -1241 3084 -1241 
Q 2547 -1241 2547 -550 
Q 2547 -509 2562 -332 
Q 2578 -156 2578 -44 
Q 2269 -141 1947 -141 
z
M 1709 300 
Q 1709 44 1991 44 
Q 2275 44 2591 184 
L 2591 244 
Q 2591 503 2509 648 
Q 2428 794 2194 794 
Q 2078 794 1964 723 
Q 1850 653 1779 539 
Q 1709 425 1709 300 
z
M 1544 288 
Q 1544 456 1637 612 
Q 1731 769 1881 864 
Q 2031 959 2203 959 
Q 2481 959 2607 771 
Q 2734 584 2778 281 
Q 3188 525 3500 978 
Q 3813 1431 3977 1973 
Q 4141 2516 4141 3003 
Q 4141 3356 4023 3656 
Q 3906 3956 3664 4140 
Q 3422 4325 3066 4325 
Q 2722 4325 2403 4156 
Q 2084 3988 1813 3706 
Q 1550 3434 1342 3032 
Q 1134 2631 1021 2193 
Q 909 1756 909 1356 
Q 909 947 1068 612 
Q 1228 278 1569 128 
Q 1544 194 1544 288 
z
" transform="scale(0.015625)"/>
     </defs>
     <use xlink:href="#Cmmi10-51" transform="translate(0 0.484375)"/>
     <use xlink:href="#Cmr10-3d" transform="translate(96.5625 0.484375)"/>
     <use xlink:href="#Cmb10-72" transform="translate(191.806641 0.484375)"/>
     <use xlink:href="#Cmmi10-6e" transform="translate(238.946562 -16.521875) scale(0.7)"/>
    </g>
   </g>
  </g>
 </g>
 <defs>
  <clipPath id="p7f72703fa3">
   <rect x="10.497348" y="7.2" width="407.037902" height="207.820618"/>
  </clipPath>
 </defs>
</svg>
