<?xml version="1.0" encoding="utf-8" standalone="no"?>
<!DOCTYPE svg PUBLIC "-//W3C//DTD SVG 1.1//EN"
  "http://www.w3.org/Graphics/SVG/1.1/DTD/svg11.dtd">
<svg xmlns:xlink="http://www.w3.org/1999/xlink" width="453.6pt" height="208.16655pt" viewBox="0 0 453.6 208.16655" xmlns="http://www.w3.org/2000/svg" version="1.1">
 <metadata>
  <rdf:RDF xmlns:dc="http://purl.org/dc/elements/1.1/" xmlns:cc="http://creativecommons.org/ns#" xmlns:rdf="http://www.w3.org/1999/02/22-rdf-syntax-ns#">
   <cc:Work>
    <dc:type rdf:resource="http://purl.org/dc/dcmitype/StillImage"/>
    <dc:date>2025-02-05T12:02:17.257867</dc:date>
    <dc:format>image/svg+xml</dc:format>
    <dc:creator>
     <cc:Agent>
      <dc:title>Matplotlib v3.8.0, https://matplotlib.org/</dc:title>
     </cc:Agent>
    </dc:creator>
   </cc:Work>
  </rdf:RDF>
 </metadata>
 <defs>
  <style type="text/css">*{stroke-linejoin: round; stroke-linecap: butt}</style>
 </defs>
 <g id="figure_1">
  <g id="patch_1">
   <path d="M 0 208.16655 
L 453.6 208.16655 
L 453.6 0 
L 0 0 
z
" style="fill: #ffffff"/>
  </g>
  <g id="axes_1">
   <g id="patch_2">
    <path d="M 7.2 196.240035 
L 446.4 196.240035 
L 446.4 7.2 
L 7.2 7.2 
z
" style="fill: #ffffff"/>
   </g>
   <g id="PathCollection_1">
    <path d="M 412.500414 64.167837 
C 413.438048 64.167837 414.337406 63.795311 415.000414 63.132303 
C 415.663422 62.469296 416.035948 61.569938 416.035948 60.632303 
C 416.035948 59.694669 415.663422 58.795311 415.000414 58.132303 
C 414.337406 57.469296 413.438048 57.09677 412.500414 57.09677 
C 411.562779 57.09677 410.663422 57.469296 410.000414 58.132303 
C 409.337406 58.795311 408.96488 59.694669 408.96488 60.632303 
C 408.96488 61.569938 409.337406 62.469296 410.000414 63.132303 
C 410.663422 63.795311 411.562779 64.167837 412.500414 64.167837 
z
" clip-path="url(#p5c28a57552)"/>
   </g>
   <g id="PathCollection_2">
    <path d="M 132.996758 181.329291 
C 133.934393 181.329291 134.833751 180.956765 135.496758 180.293757 
C 136.159766 179.630749 136.532292 178.731392 136.532292 177.793757 
C 136.532292 176.856123 136.159766 175.956765 135.496758 175.293757 
C 134.833751 174.630749 133.934393 174.258223 132.996758 174.258223 
C 132.059124 174.258223 131.159766 174.630749 130.496758 175.293757 
C 129.833751 175.956765 129.461224 176.856123 129.461224 177.793757 
C 129.461224 178.731392 129.833751 179.630749 130.496758 180.293757 
C 131.159766 180.956765 132.059124 181.329291 132.996758 181.329291 
z
" clip-path="url(#p5c28a57552)"/>
   </g>
   <g id="matplotlib.axis_1"/>
   <g id="matplotlib.axis_2"/>
   <g id="line2d_1">
    <path d="M 412.500414 60.632303 
L 410.355928 57.818548 
L 407.075824 53.899403 
L 403.800633 50.369301 
L 399.747273 46.433817 
L 396.879095 43.893702 
L 394.489616 41.912522 
L 389.394099 38.046461 
L 384.519454 34.744878 
L 379.33279 31.597132 
L 374.581507 29.002954 
L 370.632934 27.03534 
L 367.305982 25.499011 
L 363.714388 23.956454 
L 356.159036 21.071409 
L 349.143431 18.787581 
L 341.714442 16.741015 
L 335.006796 15.192546 
L 328.04857 13.862599 
L 321.708801 12.879228 
L 314.279696 11.986405 
L 309.868646 11.582061 
L 301.287542 11.050187 
L 292.4566 10.83707 
L 284.927124 10.909968 
L 277.236504 11.216448 
L 268.761816 11.816434 
L 260.640767 12.64187 
L 252.520332 13.706578 
L 246.70312 14.614082 
L 237.5154 16.290828 
L 230.143735 17.850532 
L 223.280336 19.474286 
L 215.472208 21.523936 
L 205.331952 24.511876 
L 195.739151 27.686277 
L 188.424283 30.342157 
L 179.37665 33.921736 
L 170.076342 37.960765 
L 162.326179 41.625739 
L 156.422774 44.614438 
L 147.973891 49.216011 
L 141.128772 53.254086 
L 134.708392 57.326857 
L 129.723836 60.703974 
L 123.868674 64.946099 
L 118.316914 69.287971 
L 112.891524 73.892222 
L 108.659324 77.785921 
L 104.395872 82.040911 
L 101.108642 85.605672 
L 98.003618 89.261186 
L 94.966877 93.186942 
L 92.335859 96.964304 
L 89.761562 101.139452 
L 88.07879 104.24045 
L 86.325424 107.952539 
L 84.924704 111.489371 
L 83.794253 115.025609 
L 83.147773 117.590861 
L 82.521862 120.997463 
L 82.190789 124.095471 
L 82.108942 127.937897 
L 82.387569 131.606952 
L 82.842968 134.385374 
L 83.491124 137.061083 
L 84.509234 140.150808 
L 85.897701 143.372355 
L 87.558153 146.450252 
L 89.329831 149.188119 
L 91.366385 151.884253 
L 93.618484 154.475937 
L 95.859466 156.757865 
L 98.040501 158.760224 
L 101.126581 161.305303 
L 104.098098 163.501981 
L 108.188556 166.204941 
L 111.054861 167.91798 
L 114.896356 170.020625 
L 121.0529 173.010149 
L 127.093241 175.574508 
L 132.996758 177.793757 
L 132.996758 177.793757 
" clip-path="url(#p5c28a57552)" style="fill: none; stroke: #000000; stroke-width: 2; stroke-linecap: square"/>
   </g>
   <g id="patch_3">
    <path d="M 132.996758 177.793757 
Q 108.256309 166.896196 85.562207 156.9 
" clip-path="url(#p5c28a57552)" style="fill: none; stroke: #0000ff; stroke-width: 2; stroke-linecap: round"/>
    <path d="M 92.698237 165.506804 
L 85.562207 156.9 
L 96.729268 156.355259 
z
" clip-path="url(#p5c28a57552)" style="fill: #0000ff; stroke: #0000ff; stroke-width: 2; stroke-linecap: round"/>
   </g>
   <g id="patch_4">
    <path d="M 110.582315 167.644658 
Q 82.106125 158.438613 55.757579 149.920412 
" clip-path="url(#p5c28a57552)" style="fill: none; stroke: #0000ff; stroke-width: 2; stroke-linecap: round"/>
    <path d="M 63.734627 157.754103 
L 55.757579 149.920412 
L 66.81076 148.238989 
z
" clip-path="url(#p5c28a57552)" style="fill: #0000ff; stroke: #0000ff; stroke-width: 2; stroke-linecap: round"/>
   </g>
   <g id="patch_5">
    <path d="M 94.609381 155.516653 
Q 63.471035 148.331942 34.511511 141.649962 
" clip-path="url(#p5c28a57552)" style="fill: none; stroke: #0000ff; stroke-width: 2; stroke-linecap: round"/>
    <path d="M 43.131355 148.770234 
L 34.511511 141.649962 
L 45.379635 139.02625 
z
" clip-path="url(#p5c28a57552)" style="fill: #0000ff; stroke: #0000ff; stroke-width: 2; stroke-linecap: round"/>
   </g>
   <g id="patch_6">
    <path d="M 85.152498 141.743328 
Q 52.438005 136.854171 21.935019 132.295523 
" clip-path="url(#p5c28a57552)" style="fill: none; stroke: #0000ff; stroke-width: 2; stroke-linecap: round"/>
    <path d="M 31.086142 138.718681 
L 21.935019 132.295523 
L 32.564219 128.828519 
z
" clip-path="url(#p5c28a57552)" style="fill: #0000ff; stroke: #0000ff; stroke-width: 2; stroke-linecap: round"/>
   </g>
   <g id="patch_7">
    <path d="M 82.094479 126.718559 
Q 48.870316 124.333531 17.876483 122.108608 
" clip-path="url(#p5c28a57552)" style="fill: none; stroke: #0000ff; stroke-width: 2; stroke-linecap: round"/>
    <path d="M 27.492807 127.811792 
L 17.876483 122.108608 
L 28.208824 117.837459 
z
" clip-path="url(#p5c28a57552)" style="fill: #0000ff; stroke: #0000ff; stroke-width: 2; stroke-linecap: round"/>
   </g>
   <g id="patch_8">
    <path d="M 85.145013 110.885307 
Q 52.429273 111.139154 21.949533 111.375651 
" clip-path="url(#p5c28a57552)" style="fill: none; stroke: #0000ff; stroke-width: 2; stroke-linecap: round"/>
    <path d="M 31.988027 116.297912 
L 21.949533 111.375651 
L 31.910438 106.298213 
z
" clip-path="url(#p5c28a57552)" style="fill: #0000ff; stroke: #0000ff; stroke-width: 2; stroke-linecap: round"/>
   </g>
   <g id="patch_9">
    <path d="M 93.862811 94.722572 
Q 62.600037 97.670208 33.563458 100.407946 
" clip-path="url(#p5c28a57552)" style="fill: none; stroke: #0000ff; stroke-width: 2; stroke-linecap: round"/>
    <path d="M 43.98865 104.447173 
L 33.563458 100.407946 
L 43.049955 94.491328 
z
" clip-path="url(#p5c28a57552)" style="fill: #0000ff; stroke: #0000ff; stroke-width: 2; stroke-linecap: round"/>
   </g>
   <g id="patch_10">
    <path d="M 107.680175 78.730906 
Q 78.720295 84.34382 51.955632 89.531263 
" clip-path="url(#p5c28a57552)" style="fill: none; stroke: #0000ff; stroke-width: 2; stroke-linecap: round"/>
    <path d="M 62.724318 92.537157 
L 51.955632 89.531263 
L 60.821558 82.71985 
z
" clip-path="url(#p5c28a57552)" style="fill: #0000ff; stroke: #0000ff; stroke-width: 2; stroke-linecap: round"/>
   </g>
   <g id="patch_11">
    <path d="M 125.928882 63.41691 
Q 100.010453 71.582157 76.22476 79.075514 
" clip-path="url(#p5c28a57552)" style="fill: none; stroke: #0000ff; stroke-width: 2; stroke-linecap: round"/>
    <path d="M 87.265038 80.839676 
L 76.22476 79.075514 
L 84.260257 71.301789 
z
" clip-path="url(#p5c28a57552)" style="fill: #0000ff; stroke: #0000ff; stroke-width: 2; stroke-linecap: round"/>
   </g>
   <g id="patch_12">
    <path d="M 147.866346 49.277212 
Q 125.604162 59.799075 105.363617 69.365442 
" clip-path="url(#p5c28a57552)" style="fill: none; stroke: #0000ff; stroke-width: 2; stroke-linecap: round"/>
    <path d="M 116.541219 69.61286 
L 105.363617 69.365442 
L 112.268113 60.571812 
z
" clip-path="url(#p5c28a57552)" style="fill: #0000ff; stroke: #0000ff; stroke-width: 2; stroke-linecap: round"/>
   </g>
   <g id="patch_13">
    <path d="M 172.701152 36.78241 
Q 154.578101 49.38674 138.290794 60.714336 
" clip-path="url(#p5c28a57552)" style="fill: none; stroke: #0000ff; stroke-width: 2; stroke-linecap: round"/>
    <path d="M 149.355348 59.109455 
L 138.290794 60.714336 
L 143.645622 50.899764 
z
" clip-path="url(#p5c28a57552)" style="fill: #0000ff; stroke: #0000ff; stroke-width: 2; stroke-linecap: round"/>
   </g>
   <g id="patch_14">
    <path d="M 199.617158 26.361518 
Q 185.980109 40.702663 173.88392 53.423391 
" clip-path="url(#p5c28a57552)" style="fill: none; stroke: #0000ff; stroke-width: 2; stroke-linecap: round"/>
    <path d="M 184.398218 49.622136 
L 173.88392 53.423391 
L 177.151495 42.7312 
z
" clip-path="url(#p5c28a57552)" style="fill: #0000ff; stroke: #0000ff; stroke-width: 2; stroke-linecap: round"/>
   </g>
   <g id="patch_15">
    <path d="M 227.795575 18.387414 
Q 218.854929 34.057576 211.022399 47.785555 
" clip-path="url(#p5c28a57552)" style="fill: none; stroke: #0000ff; stroke-width: 2; stroke-linecap: round"/>
    <path d="M 220.320904 41.577672 
L 211.022399 47.785555 
L 211.635196 36.622022 
z
" clip-path="url(#p5c28a57552)" style="fill: #0000ff; stroke: #0000ff; stroke-width: 2; stroke-linecap: round"/>
   </g>
   <g id="patch_16">
    <path d="M 256.434551 13.163785 
Q 252.267066 29.704552 248.645892 44.077014 
" clip-path="url(#p5c28a57552)" style="fill: none; stroke: #0000ff; stroke-width: 2; stroke-linecap: round"/>
    <path d="M 255.937539 35.601645 
L 248.645892 44.077014 
L 246.240584 33.158475 
z
" clip-path="url(#p5c28a57552)" style="fill: #0000ff; stroke: #0000ff; stroke-width: 2; stroke-linecap: round"/>
   </g>
   <g id="patch_17">
    <path d="M 284.766003 10.914013 
Q 285.320428 27.829742 285.801603 42.510604 
" clip-path="url(#p5c28a57552)" style="fill: none; stroke: #0000ff; stroke-width: 2; stroke-linecap: round"/>
    <path d="M 290.471339 32.35218 
L 285.801603 42.510604 
L 280.476706 32.679761 
z
" clip-path="url(#p5c28a57552)" style="fill: #0000ff; stroke: #0000ff; stroke-width: 2; stroke-linecap: round"/>
   </g>
   <g id="patch_18">
    <path d="M 312.069605 11.772402 
Q 317.17463 28.545067 321.628563 43.178554 
" clip-path="url(#p5c28a57552)" style="fill: none; stroke: #0000ff; stroke-width: 2; stroke-linecap: round"/>
    <path d="M 323.500135 32.155976 
L 321.628563 43.178554 
L 313.933444 35.067749 
z
" clip-path="url(#p5c28a57552)" style="fill: #0000ff; stroke: #0000ff; stroke-width: 2; stroke-linecap: round"/>
   </g>
   <g id="patch_19">
    <path d="M 337.683957 15.778072 
Q 347.05804 31.883125 355.307273 46.055638 
" clip-path="url(#p5c28a57552)" style="fill: none; stroke: #0000ff; stroke-width: 2; stroke-linecap: round"/>
    <path d="M 354.598075 34.897814 
L 355.307273 46.055638 
L 345.955495 39.928302 
z
" clip-path="url(#p5c28a57552)" style="fill: #0000ff; stroke: #0000ff; stroke-width: 2; stroke-linecap: round"/>
   </g>
   <g id="patch_20">
    <path d="M 361.015146 22.87177 
Q 374.277762 37.794539 386.054944 51.045936 
" clip-path="url(#p5c28a57552)" style="fill: none; stroke: #0000ff; stroke-width: 2; stroke-linecap: round"/>
    <path d="M 383.149188 40.249799 
L 386.054944 51.045936 
L 375.67458 46.892858 
z
" clip-path="url(#p5c28a57552)" style="fill: #0000ff; stroke: #0000ff; stroke-width: 2; stroke-linecap: round"/>
   </g>
   <g id="patch_21">
    <path d="M 381.542981 32.895747 
Q 398.226902 46.147854 413.159893 58.00919 
" clip-path="url(#p5c28a57552)" style="fill: none; stroke: #0000ff; stroke-width: 2; stroke-linecap: round"/>
    <path d="M 408.439354 47.874274 
L 413.159893 58.00919 
L 402.219637 55.704672 
z
" clip-path="url(#p5c28a57552)" style="fill: #0000ff; stroke: #0000ff; stroke-width: 2; stroke-linecap: round"/>
   </g>
   <g id="patch_22">
    <path d="M 398.825248 45.596785 
Q 418.389547 56.732052 436.010501 66.76124 
" clip-path="url(#p5c28a57552)" style="fill: none; stroke: #0000ff; stroke-width: 2; stroke-linecap: round"/>
    <path d="M 429.792868 57.469253 
L 436.010501 66.76124 
L 424.846331 66.160155 
z
" clip-path="url(#p5c28a57552)" style="fill: #0000ff; stroke: #0000ff; stroke-width: 2; stroke-linecap: round"/>
   </g>
   <g id="text_1">
    <!-- $Q$ -->
    <g transform="translate(405.588414 80.211396) scale(0.1728 -0.1728)">
     <defs>
      <path id="Cmmi10-51" d="M 1947 -141 
Q 1466 -141 1094 79 
Q 722 300 520 692 
Q 319 1084 319 1563 
Q 319 2259 714 2950 
Q 1109 3641 1756 4077 
Q 2403 4513 3109 4513 
Q 3475 4513 3778 4381 
Q 4081 4250 4290 4017 
Q 4500 3784 4614 3471 
Q 4728 3159 4728 2791 
Q 4728 2366 4581 1936 
Q 4434 1506 4171 1136 
Q 3909 766 3559 484 
Q 3209 203 2809 38 
Q 2850 -256 2934 -425 
Q 3019 -594 3256 -594 
Q 3506 -594 3726 -412 
Q 3947 -231 4006 13 
Q 4019 72 4078 72 
Q 4147 72 4147 -13 
Q 4100 -219 4008 -430 
Q 3916 -641 3786 -823 
Q 3656 -1006 3478 -1123 
Q 3300 -1241 3084 -1241 
Q 2547 -1241 2547 -550 
Q 2547 -509 2562 -332 
Q 2578 -156 2578 -44 
Q 2269 -141 1947 -141 
z
M 1709 300 
Q 1709 44 1991 44 
Q 2275 44 2591 184 
L 2591 244 
Q 2591 503 2509 648 
Q 2428 794 2194 794 
Q 2078 794 1964 723 
Q 1850 653 1779 539 
Q 1709 425 1709 300 
z
M 1544 288 
Q 1544 456 1637 612 
Q 1731 769 1881 864 
Q 2031 959 2203 959 
Q 2481 959 2607 771 
Q 2734 584 2778 281 
Q 3188 525 3500 978 
Q 3813 1431 3977 1973 
Q 4141 2516 4141 3003 
Q 4141 3356 4023 3656 
Q 3906 3956 3664 4140 
Q 3422 4325 3066 4325 
Q 2722 4325 2403 4156 
Q 2084 3988 1813 3706 
Q 1550 3434 1342 3032 
Q 1134 2631 1021 2193 
Q 909 1756 909 1356 
Q 909 947 1068 612 
Q 1228 278 1569 128 
Q 1544 194 1544 288 
z
" transform="scale(0.015625)"/>
     </defs>
     <use xlink:href="#Cmmi10-51" transform="translate(0 0.484375)"/>
    </g>
   </g>
   <g id="text_2">
    <!-- $P$ -->
    <g transform="translate(127.380758 197.37285) scale(0.1728 -0.1728)">
     <defs>
      <path id="Cmmi10-50" d="M 313 0 
Q 250 0 250 84 
Q 253 100 262 139 
Q 272 178 289 201 
Q 306 225 331 225 
Q 722 225 878 269 
Q 959 297 997 441 
L 1875 3956 
Q 1888 4019 1888 4044 
Q 1888 4113 1813 4122 
Q 1691 4147 1350 4147 
Q 1288 4147 1288 4231 
Q 1291 4247 1300 4286 
Q 1309 4325 1326 4348 
Q 1344 4372 1369 4372 
L 3578 4372 
Q 3881 4372 4165 4264 
Q 4450 4156 4631 3934 
Q 4813 3713 4813 3397 
Q 4813 2991 4527 2672 
Q 4241 2353 3814 2175 
Q 3388 1997 2988 1997 
L 1947 1997 
L 1556 416 
Q 1544 353 1544 325 
Q 1544 300 1551 283 
Q 1559 266 1573 261 
Q 1588 256 1619 250 
Q 1741 225 2081 225 
Q 2144 225 2144 141 
Q 2122 50 2109 25 
Q 2097 0 2034 0 
L 313 0 
z
M 1978 2188 
L 2875 2188 
Q 3497 2188 3822 2522 
Q 3988 2688 4092 3000 
Q 4197 3313 4197 3566 
Q 4197 3881 3956 4014 
Q 3716 4147 3359 4147 
L 2747 4147 
Q 2572 4147 2515 4117 
Q 2459 4088 2413 3928 
L 1978 2188 
z
" transform="scale(0.015625)"/>
     </defs>
     <use xlink:href="#Cmmi10-50" transform="translate(0 0.6875)"/>
    </g>
   </g>
  </g>
 </g>
 <defs>
  <clipPath id="p5c28a57552">
   <rect x="7.2" y="7.2" width="439.2" height="189.040035"/>
  </clipPath>
 </defs>
</svg>
