<?xml version="1.0" encoding="utf-8" standalone="no"?>
<!DOCTYPE svg PUBLIC "-//W3C//DTD SVG 1.1//EN"
  "http://www.w3.org/Graphics/SVG/1.1/DTD/svg11.dtd">
<svg xmlns:xlink="http://www.w3.org/1999/xlink" width="453.6pt" height="208.168684pt" viewBox="0 0 453.6 208.168684" xmlns="http://www.w3.org/2000/svg" version="1.1">
 <metadata>
  <rdf:RDF xmlns:dc="http://purl.org/dc/elements/1.1/" xmlns:cc="http://creativecommons.org/ns#" xmlns:rdf="http://www.w3.org/1999/02/22-rdf-syntax-ns#">
   <cc:Work>
    <dc:type rdf:resource="http://purl.org/dc/dcmitype/StillImage"/>
    <dc:date>2024-12-04T07:49:40.022287</dc:date>
    <dc:format>image/svg+xml</dc:format>
    <dc:creator>
     <cc:Agent>
      <dc:title>Matplotlib v3.6.2, https://matplotlib.org/</dc:title>
     </cc:Agent>
    </dc:creator>
   </cc:Work>
  </rdf:RDF>
 </metadata>
 <defs>
  <style type="text/css">*{stroke-linejoin: round; stroke-linecap: butt}</style>
 </defs>
 <g id="figure_1">
  <g id="patch_1">
   <path d="M 0 208.168684 
L 453.6 208.168684 
L 453.6 0 
L 0 0 
z
" style="fill: #ffffff"/>
  </g>
  <g id="axes_1">
   <g id="patch_2">
    <path d="M 7.2 196.242211 
L 446.4 196.242211 
L 446.4 7.2 
L 7.2 7.2 
z
" style="fill: #ffffff"/>
   </g>
   <g id="PathCollection_1">
    <path d="M 412.500414 64.169971 
C 413.438048 64.169971 414.337406 63.797445 415.000414 63.134437 
C 415.663422 62.47143 416.035948 61.572072 416.035948 60.634437 
C 416.035948 59.696803 415.663422 58.797445 415.000414 58.134437 
C 414.337406 57.47143 413.438048 57.098903 412.500414 57.098903 
C 411.562779 57.098903 410.663422 57.47143 410.000414 58.134437 
C 409.337406 58.797445 408.96488 59.696803 408.96488 60.634437 
C 408.96488 61.572072 409.337406 62.47143 410.000414 63.134437 
C 410.663422 63.797445 411.562779 64.169971 412.500414 64.169971 
z
" clip-path="url(#p6c587f11a5)"/>
   </g>
   <g id="PathCollection_2">
    <path d="M 132.996758 181.331425 
C 133.934393 181.331425 134.833751 180.958899 135.496758 180.295891 
C 136.159766 179.632883 136.532292 178.733526 136.532292 177.795891 
C 136.532292 176.858257 136.159766 175.958899 135.496758 175.295891 
C 134.833751 174.632883 133.934393 174.260357 132.996758 174.260357 
C 132.059124 174.260357 131.159766 174.632883 130.496758 175.295891 
C 129.833751 175.958899 129.461224 176.858257 129.461224 177.795891 
C 129.461224 178.733526 129.833751 179.632883 130.496758 180.295891 
C 131.159766 180.958899 132.059124 181.331425 132.996758 181.331425 
z
" clip-path="url(#p6c587f11a5)"/>
   </g>
   <g id="matplotlib.axis_1"/>
   <g id="matplotlib.axis_2"/>
   <g id="line2d_1">
    <path d="M 412.500414 60.634437 
L 408.893584 56.02076 
L 406.494426 53.249126 
L 403.634637 50.201423 
L 399.8951 46.572036 
L 396.270197 43.379882 
L 392.497524 40.348139 
L 389.530924 38.146563 
L 384.545586 34.76378 
L 379.873685 31.911444 
L 375.111751 29.281914 
L 370.563585 27.004347 
L 364.694514 24.368044 
L 359.126623 22.151269 
L 354.134221 20.377273 
L 347.720375 18.369221 
L 343.218493 17.12839 
L 336.456358 15.506465 
L 328.590856 13.958741 
L 321.164579 12.806648 
L 316.043738 12.176068 
L 308.423834 11.471422 
L 303.148121 11.139827 
L 296.302308 10.891527 
L 290.898747 10.835427 
L 282.531126 10.982832 
L 274.957902 11.353231 
L 266.407586 12.032916 
L 258.561127 12.894068 
L 250.04945 14.079504 
L 240.857171 15.648729 
L 235.656716 16.668249 
L 226.70273 18.646024 
L 218.858743 20.610512 
L 210.367152 22.983824 
L 202.98737 25.258207 
L 194.26134 28.208284 
L 187.967023 30.517265 
L 182.540009 32.634288 
L 173.067369 36.622583 
L 169.316404 38.309865 
L 161.485402 42.042792 
L 154.024628 45.882461 
L 145.739425 50.504054 
L 139.505582 54.258411 
L 134.101262 57.729752 
L 126.857802 62.742874 
L 121.7931 66.532099 
L 116.135007 71.094745 
L 110.847215 75.738407 
L 107.565461 78.844936 
L 103.206179 83.301293 
L 100.11728 86.741157 
L 96.366763 91.329742 
L 93.088276 95.843319 
L 90.02533 100.685989 
L 87.970144 104.456181 
L 86.087555 108.510832 
L 84.994802 111.296953 
L 83.771665 115.108453 
L 82.900406 118.77366 
L 82.310583 122.708873 
L 82.097151 126.386243 
L 82.224282 130.03742 
L 82.508459 132.489175 
L 83.137933 135.7139 
L 83.816539 138.153361 
L 84.648355 140.515321 
L 86.002737 143.589343 
L 87.675952 146.649115 
L 89.543234 149.492374 
L 91.362397 151.881474 
L 92.658542 153.41526 
L 95.258602 156.172767 
L 98.280401 158.971422 
L 100.76606 161.025178 
L 104.350323 163.680783 
L 108.536542 166.42235 
L 112.413225 168.687189 
L 117.852316 171.511122 
L 122.182605 173.517221 
L 127.920365 175.903446 
L 132.996758 177.795891 
L 132.996758 177.795891 
" clip-path="url(#p6c587f11a5)" style="fill: none; stroke: #000000; stroke-width: 2; stroke-linecap: square"/>
   </g>
   <g id="patch_3">
    <path d="M 132.996758 177.795891 
Q 108.256309 166.89833 85.562207 156.902134 
" clip-path="url(#p6c587f11a5)" style="fill: none; stroke: #0000ff; stroke-width: 2; stroke-linecap: round"/>
    <path d="M 92.698237 165.508938 
L 85.562207 156.902134 
L 96.729268 156.357393 
L 92.698237 165.508938 
z
" clip-path="url(#p6c587f11a5)" style="fill: #0000ff; stroke: #0000ff; stroke-width: 2; stroke-linecap: round"/>
   </g>
   <g id="patch_4">
    <path d="M 110.582315 167.646791 
Q 82.106125 158.440747 55.757579 149.922546 
" clip-path="url(#p6c587f11a5)" style="fill: none; stroke: #0000ff; stroke-width: 2; stroke-linecap: round"/>
    <path d="M 63.734627 157.756237 
L 55.757579 149.922546 
L 66.81076 148.241123 
L 63.734627 157.756237 
z
" clip-path="url(#p6c587f11a5)" style="fill: #0000ff; stroke: #0000ff; stroke-width: 2; stroke-linecap: round"/>
   </g>
   <g id="patch_5">
    <path d="M 94.609381 155.518787 
Q 63.471035 148.334076 34.511511 141.652096 
" clip-path="url(#p6c587f11a5)" style="fill: none; stroke: #0000ff; stroke-width: 2; stroke-linecap: round"/>
    <path d="M 43.131355 148.772368 
L 34.511511 141.652096 
L 45.379635 139.028384 
L 43.131355 148.772368 
z
" clip-path="url(#p6c587f11a5)" style="fill: #0000ff; stroke: #0000ff; stroke-width: 2; stroke-linecap: round"/>
   </g>
   <g id="patch_6">
    <path d="M 85.152498 141.745462 
Q 52.438005 136.856305 21.935019 132.297657 
" clip-path="url(#p6c587f11a5)" style="fill: none; stroke: #0000ff; stroke-width: 2; stroke-linecap: round"/>
    <path d="M 31.086142 138.720815 
L 21.935019 132.297657 
L 32.564219 128.830653 
L 31.086142 138.720815 
z
" clip-path="url(#p6c587f11a5)" style="fill: #0000ff; stroke: #0000ff; stroke-width: 2; stroke-linecap: round"/>
   </g>
   <g id="patch_7">
    <path d="M 82.094479 126.720693 
Q 48.870316 124.335665 17.876483 122.110742 
" clip-path="url(#p6c587f11a5)" style="fill: none; stroke: #0000ff; stroke-width: 2; stroke-linecap: round"/>
    <path d="M 27.492807 127.813926 
L 17.876483 122.110742 
L 28.208824 117.839593 
L 27.492807 127.813926 
z
" clip-path="url(#p6c587f11a5)" style="fill: #0000ff; stroke: #0000ff; stroke-width: 2; stroke-linecap: round"/>
   </g>
   <g id="patch_8">
    <path d="M 85.145013 110.887441 
Q 52.429273 111.141288 21.949533 111.377785 
" clip-path="url(#p6c587f11a5)" style="fill: none; stroke: #0000ff; stroke-width: 2; stroke-linecap: round"/>
    <path d="M 31.988027 116.300045 
L 21.949533 111.377785 
L 31.910438 106.300346 
L 31.988027 116.300045 
z
" clip-path="url(#p6c587f11a5)" style="fill: #0000ff; stroke: #0000ff; stroke-width: 2; stroke-linecap: round"/>
   </g>
   <g id="patch_9">
    <path d="M 93.862811 94.724706 
Q 62.600037 97.672342 33.563458 100.41008 
" clip-path="url(#p6c587f11a5)" style="fill: none; stroke: #0000ff; stroke-width: 2; stroke-linecap: round"/>
    <path d="M 43.98865 104.449307 
L 33.563458 100.41008 
L 43.049955 94.493462 
L 43.98865 104.449307 
z
" clip-path="url(#p6c587f11a5)" style="fill: #0000ff; stroke: #0000ff; stroke-width: 2; stroke-linecap: round"/>
   </g>
   <g id="patch_10">
    <path d="M 107.680175 78.73304 
Q 78.720295 84.345953 51.955632 89.533397 
" clip-path="url(#p6c587f11a5)" style="fill: none; stroke: #0000ff; stroke-width: 2; stroke-linecap: round"/>
    <path d="M 62.724318 92.539291 
L 51.955632 89.533397 
L 60.821558 82.721984 
L 62.724318 92.539291 
z
" clip-path="url(#p6c587f11a5)" style="fill: #0000ff; stroke: #0000ff; stroke-width: 2; stroke-linecap: round"/>
   </g>
   <g id="patch_11">
    <path d="M 125.928882 63.419044 
Q 100.010453 71.584291 76.22476 79.077647 
" clip-path="url(#p6c587f11a5)" style="fill: none; stroke: #0000ff; stroke-width: 2; stroke-linecap: round"/>
    <path d="M 87.265038 80.84181 
L 76.22476 79.077647 
L 84.260257 71.303923 
L 87.265038 80.84181 
z
" clip-path="url(#p6c587f11a5)" style="fill: #0000ff; stroke: #0000ff; stroke-width: 2; stroke-linecap: round"/>
   </g>
   <g id="patch_12">
    <path d="M 147.866346 49.279346 
Q 125.604162 59.801209 105.363617 69.367576 
" clip-path="url(#p6c587f11a5)" style="fill: none; stroke: #0000ff; stroke-width: 2; stroke-linecap: round"/>
    <path d="M 116.541219 69.614994 
L 105.363617 69.367576 
L 112.268113 60.573946 
L 116.541219 69.614994 
z
" clip-path="url(#p6c587f11a5)" style="fill: #0000ff; stroke: #0000ff; stroke-width: 2; stroke-linecap: round"/>
   </g>
   <g id="patch_13">
    <path d="M 172.701152 36.784544 
Q 154.578101 49.388874 138.290794 60.71647 
" clip-path="url(#p6c587f11a5)" style="fill: none; stroke: #0000ff; stroke-width: 2; stroke-linecap: round"/>
    <path d="M 149.355348 59.111589 
L 138.290794 60.71647 
L 143.645622 50.901898 
L 149.355348 59.111589 
z
" clip-path="url(#p6c587f11a5)" style="fill: #0000ff; stroke: #0000ff; stroke-width: 2; stroke-linecap: round"/>
   </g>
   <g id="patch_14">
    <path d="M 199.617158 26.363652 
Q 185.980109 40.704797 173.88392 53.425525 
" clip-path="url(#p6c587f11a5)" style="fill: none; stroke: #0000ff; stroke-width: 2; stroke-linecap: round"/>
    <path d="M 184.398218 49.62427 
L 173.88392 53.425525 
L 177.151495 42.733334 
L 184.398218 49.62427 
z
" clip-path="url(#p6c587f11a5)" style="fill: #0000ff; stroke: #0000ff; stroke-width: 2; stroke-linecap: round"/>
   </g>
   <g id="patch_15">
    <path d="M 227.795575 18.389548 
Q 218.854929 34.05971 211.022399 47.787689 
" clip-path="url(#p6c587f11a5)" style="fill: none; stroke: #0000ff; stroke-width: 2; stroke-linecap: round"/>
    <path d="M 220.320904 41.579806 
L 211.022399 47.787689 
L 211.635196 36.624155 
L 220.320904 41.579806 
z
" clip-path="url(#p6c587f11a5)" style="fill: #0000ff; stroke: #0000ff; stroke-width: 2; stroke-linecap: round"/>
   </g>
   <g id="patch_16">
    <path d="M 256.434551 13.165919 
Q 252.267066 29.706686 248.645892 44.079148 
" clip-path="url(#p6c587f11a5)" style="fill: none; stroke: #0000ff; stroke-width: 2; stroke-linecap: round"/>
    <path d="M 255.937539 35.603779 
L 248.645892 44.079148 
L 246.240584 33.160609 
L 255.937539 35.603779 
z
" clip-path="url(#p6c587f11a5)" style="fill: #0000ff; stroke: #0000ff; stroke-width: 2; stroke-linecap: round"/>
   </g>
   <g id="patch_17">
    <path d="M 284.766003 10.916147 
Q 285.320428 27.831876 285.801603 42.512737 
" clip-path="url(#p6c587f11a5)" style="fill: none; stroke: #0000ff; stroke-width: 2; stroke-linecap: round"/>
    <path d="M 290.471339 32.354314 
L 285.801603 42.512737 
L 280.476706 32.681895 
L 290.471339 32.354314 
z
" clip-path="url(#p6c587f11a5)" style="fill: #0000ff; stroke: #0000ff; stroke-width: 2; stroke-linecap: round"/>
   </g>
   <g id="patch_18">
    <path d="M 312.069605 11.774536 
Q 317.17463 28.5472 321.628563 43.180688 
" clip-path="url(#p6c587f11a5)" style="fill: none; stroke: #0000ff; stroke-width: 2; stroke-linecap: round"/>
    <path d="M 323.500135 32.15811 
L 321.628563 43.180688 
L 313.933444 35.069883 
L 323.500135 32.15811 
z
" clip-path="url(#p6c587f11a5)" style="fill: #0000ff; stroke: #0000ff; stroke-width: 2; stroke-linecap: round"/>
   </g>
   <g id="patch_19">
    <path d="M 337.683957 15.780206 
Q 347.05804 31.885259 355.307273 46.057772 
" clip-path="url(#p6c587f11a5)" style="fill: none; stroke: #0000ff; stroke-width: 2; stroke-linecap: round"/>
    <path d="M 354.598075 34.899948 
L 355.307273 46.057772 
L 345.955495 39.930436 
L 354.598075 34.899948 
z
" clip-path="url(#p6c587f11a5)" style="fill: #0000ff; stroke: #0000ff; stroke-width: 2; stroke-linecap: round"/>
   </g>
   <g id="patch_20">
    <path d="M 361.015146 22.873904 
Q 374.277762 37.796673 386.054944 51.04807 
" clip-path="url(#p6c587f11a5)" style="fill: none; stroke: #0000ff; stroke-width: 2; stroke-linecap: round"/>
    <path d="M 383.149188 40.251932 
L 386.054944 51.04807 
L 375.67458 46.894992 
L 383.149188 40.251932 
z
" clip-path="url(#p6c587f11a5)" style="fill: #0000ff; stroke: #0000ff; stroke-width: 2; stroke-linecap: round"/>
   </g>
   <g id="patch_21">
    <path d="M 381.542981 32.897881 
Q 398.226902 46.149988 413.159893 58.011324 
" clip-path="url(#p6c587f11a5)" style="fill: none; stroke: #0000ff; stroke-width: 2; stroke-linecap: round"/>
    <path d="M 408.439354 47.876408 
L 413.159893 58.011324 
L 402.219637 55.706806 
L 408.439354 47.876408 
z
" clip-path="url(#p6c587f11a5)" style="fill: #0000ff; stroke: #0000ff; stroke-width: 2; stroke-linecap: round"/>
   </g>
   <g id="patch_22">
    <path d="M 398.825248 45.598919 
Q 418.389547 56.734186 436.010501 66.763374 
" clip-path="url(#p6c587f11a5)" style="fill: none; stroke: #0000ff; stroke-width: 2; stroke-linecap: round"/>
    <path d="M 429.792868 57.471386 
L 436.010501 66.763374 
L 424.846331 66.162288 
L 429.792868 57.471386 
z
" clip-path="url(#p6c587f11a5)" style="fill: #0000ff; stroke: #0000ff; stroke-width: 2; stroke-linecap: round"/>
   </g>
   <g id="text_1">
    <!-- $Q$ -->
    <g transform="translate(405.588414 80.21353) scale(0.1728 -0.1728)">
     <defs>
      <path id="Cmmi10-51" d="M 1947 -141 
Q 1466 -141 1094 79 
Q 722 300 520 692 
Q 319 1084 319 1563 
Q 319 2259 714 2950 
Q 1109 3641 1756 4077 
Q 2403 4513 3109 4513 
Q 3475 4513 3778 4381 
Q 4081 4250 4290 4017 
Q 4500 3784 4614 3471 
Q 4728 3159 4728 2791 
Q 4728 2366 4581 1936 
Q 4434 1506 4171 1136 
Q 3909 766 3559 484 
Q 3209 203 2809 38 
Q 2850 -256 2934 -425 
Q 3019 -594 3256 -594 
Q 3506 -594 3726 -412 
Q 3947 -231 4006 13 
Q 4019 72 4078 72 
Q 4147 72 4147 -13 
Q 4100 -219 4008 -430 
Q 3916 -641 3786 -823 
Q 3656 -1006 3478 -1123 
Q 3300 -1241 3084 -1241 
Q 2547 -1241 2547 -550 
Q 2547 -509 2562 -332 
Q 2578 -156 2578 -44 
Q 2269 -141 1947 -141 
z
M 1709 300 
Q 1709 44 1991 44 
Q 2275 44 2591 184 
L 2591 244 
Q 2591 503 2509 648 
Q 2428 794 2194 794 
Q 2078 794 1964 723 
Q 1850 653 1779 539 
Q 1709 425 1709 300 
z
M 1544 288 
Q 1544 456 1637 612 
Q 1731 769 1881 864 
Q 2031 959 2203 959 
Q 2481 959 2607 771 
Q 2734 584 2778 281 
Q 3188 525 3500 978 
Q 3813 1431 3977 1973 
Q 4141 2516 4141 3003 
Q 4141 3356 4023 3656 
Q 3906 3956 3664 4140 
Q 3422 4325 3066 4325 
Q 2722 4325 2403 4156 
Q 2084 3988 1813 3706 
Q 1550 3434 1342 3032 
Q 1134 2631 1021 2193 
Q 909 1756 909 1356 
Q 909 947 1068 612 
Q 1228 278 1569 128 
Q 1544 194 1544 288 
z
" transform="scale(0.015625)"/>
     </defs>
     <use xlink:href="#Cmmi10-51" transform="translate(0 0.484375)"/>
    </g>
   </g>
   <g id="text_2">
    <!-- $P$ -->
    <g transform="translate(127.380758 197.374984) scale(0.1728 -0.1728)">
     <defs>
      <path id="Cmmi10-50" d="M 313 0 
Q 250 0 250 84 
Q 253 100 262 139 
Q 272 178 289 201 
Q 306 225 331 225 
Q 722 225 878 269 
Q 959 297 997 441 
L 1875 3956 
Q 1888 4019 1888 4044 
Q 1888 4113 1813 4122 
Q 1691 4147 1350 4147 
Q 1288 4147 1288 4231 
Q 1291 4247 1300 4286 
Q 1309 4325 1326 4348 
Q 1344 4372 1369 4372 
L 3578 4372 
Q 3881 4372 4165 4264 
Q 4450 4156 4631 3934 
Q 4813 3713 4813 3397 
Q 4813 2991 4527 2672 
Q 4241 2353 3814 2175 
Q 3388 1997 2988 1997 
L 1947 1997 
L 1556 416 
Q 1544 353 1544 325 
Q 1544 300 1551 283 
Q 1559 266 1573 261 
Q 1588 256 1619 250 
Q 1741 225 2081 225 
Q 2144 225 2144 141 
Q 2122 50 2109 25 
Q 2097 0 2034 0 
L 313 0 
z
M 1978 2188 
L 2875 2188 
Q 3497 2188 3822 2522 
Q 3988 2688 4092 3000 
Q 4197 3313 4197 3566 
Q 4197 3881 3956 4014 
Q 3716 4147 3359 4147 
L 2747 4147 
Q 2572 4147 2515 4117 
Q 2459 4088 2413 3928 
L 1978 2188 
z
" transform="scale(0.015625)"/>
     </defs>
     <use xlink:href="#Cmmi10-50" transform="translate(0 0.6875)"/>
    </g>
   </g>
  </g>
 </g>
 <defs>
  <clipPath id="p6c587f11a5">
   <rect x="7.2" y="7.2" width="439.2" height="189.042211"/>
  </clipPath>
 </defs>
</svg>
