<?xml version="1.0" encoding="utf-8" standalone="no"?>
<!DOCTYPE svg PUBLIC "-//W3C//DTD SVG 1.1//EN"
  "http://www.w3.org/Graphics/SVG/1.1/DTD/svg11.dtd">
<svg xmlns:xlink="http://www.w3.org/1999/xlink" width="452.367692pt" height="250.245701pt" viewBox="0 0 452.367692 250.245701" xmlns="http://www.w3.org/2000/svg" version="1.1">
 <metadata>
  <rdf:RDF xmlns:dc="http://purl.org/dc/elements/1.1/" xmlns:cc="http://creativecommons.org/ns#" xmlns:rdf="http://www.w3.org/1999/02/22-rdf-syntax-ns#">
   <cc:Work>
    <dc:type rdf:resource="http://purl.org/dc/dcmitype/StillImage"/>
    <dc:date>2024-12-04T07:51:20.905602</dc:date>
    <dc:format>image/svg+xml</dc:format>
    <dc:creator>
     <cc:Agent>
      <dc:title>Matplotlib v3.6.2, https://matplotlib.org/</dc:title>
     </cc:Agent>
    </dc:creator>
   </cc:Work>
  </rdf:RDF>
 </metadata>
 <defs>
  <style type="text/css">*{stroke-linejoin: round; stroke-linecap: butt}</style>
 </defs>
 <g id="figure_1">
  <g id="patch_1">
   <path d="M 0 250.245701 
L 452.367692 250.245701 
L 452.367692 0 
L 0 0 
z
" style="fill: #ffffff"/>
  </g>
  <g id="axes_1">
   <g id="patch_2">
    <path d="M 7.2 237.802234 
L 445.167692 237.802234 
L 445.167692 7.2 
L 7.2 7.2 
z
" style="fill: #ffffff"/>
   </g>
   <g id="PathCollection_1">
    <path d="M 77.714887 218.835501 
C 78.652522 218.835501 79.55188 218.462975 80.214887 217.799968 
C 80.877895 217.13696 81.250421 216.237602 81.250421 215.299968 
C 81.250421 214.362333 80.877895 213.462975 80.214887 212.799968 
C 79.55188 212.13696 78.652522 211.764434 77.714887 211.764434 
C 76.777253 211.764434 75.877895 212.13696 75.214887 212.799968 
C 74.55188 213.462975 74.179353 214.362333 74.179353 215.299968 
C 74.179353 216.237602 74.55188 217.13696 75.214887 217.799968 
C 75.877895 218.462975 76.777253 218.835501 77.714887 218.835501 
z
" clip-path="url(#p184e1cee25)"/>
   </g>
   <g id="PathCollection_2">
    <path d="M 418.677629 75.911824 
C 419.615263 75.911824 420.514621 75.539297 421.177629 74.87629 
C 421.840636 74.213282 422.213162 73.313924 422.213162 72.37629 
C 422.213162 71.438655 421.840636 70.539297 421.177629 69.87629 
C 420.514621 69.213282 419.615263 68.840756 418.677629 68.840756 
C 417.739994 68.840756 416.840636 69.213282 416.177629 69.87629 
C 415.514621 70.539297 415.142095 71.438655 415.142095 72.37629 
C 415.142095 73.313924 415.514621 74.213282 416.177629 74.87629 
C 416.840636 75.539297 417.739994 75.911824 418.677629 75.911824 
z
" clip-path="url(#p184e1cee25)"/>
   </g>
   <g id="matplotlib.axis_1"/>
   <g id="matplotlib.axis_2"/>
   <g id="line2d_1">
    <path d="M 418.677629 72.37629 
L 414.937266 67.547251 
L 411.626894 63.674928 
L 408.261346 60.058751 
L 404.15192 56.01429 
L 400.315882 52.554292 
L 396.721725 49.552544 
L 391.703709 45.701313 
L 387.52076 42.758185 
L 381.998923 39.200298 
L 376.806156 36.156976 
L 370.482773 32.802413 
L 367.135884 31.168903 
L 361.247446 28.512933 
L 354.775097 25.888762 
L 350.6527 24.365975 
L 344.546217 22.307427 
L 337.560387 20.221379 
L 333.152576 19.043249 
L 325.058939 17.139815 
L 316.873189 15.535074 
L 309.299027 14.31785 
L 303.050816 13.496344 
L 293.854721 12.571442 
L 286.669837 12.072991 
L 277.210848 11.701819 
L 272.691961 11.634658 
L 261.770676 11.755129 
L 251.647427 12.211744 
L 241.426693 12.997231 
L 232.55575 13.935909 
L 224.056716 15.054482 
L 216.355743 16.250598 
L 210.309698 17.310168 
L 201.271513 19.090617 
L 191.401201 21.303476 
L 180.827519 23.986161 
L 173.998824 25.8919 
L 162.707209 29.346458 
L 155.428987 31.777829 
L 148.275734 34.328185 
L 138.628401 38.028589 
L 129.658411 41.749756 
L 120.794349 45.707731 
L 115.03669 48.436835 
L 105.680252 53.156112 
L 96.976884 57.888122 
L 91.659719 60.956445 
L 85.212948 64.874146 
L 78.534222 69.183574 
L 71.961229 73.704081 
L 65.501743 78.454518 
L 61.124943 81.871589 
L 55.769172 86.304434 
L 51.306032 90.242778 
L 46.184349 95.088425 
L 42.315261 99.026814 
L 38.994906 102.638326 
L 36.257449 105.809122 
L 33.653289 109.020541 
L 29.809363 114.199914 
L 27.140494 118.202354 
L 24.583359 122.475416 
L 22.240584 126.934059 
L 20.559486 130.618202 
L 19.645567 132.874621 
L 18.46159 136.200371 
L 17.384018 139.874579 
L 16.693098 142.849613 
L 16.112546 146.217028 
L 15.72754 149.939043 
L 15.625948 153.954555 
L 15.769878 156.937725 
L 16.237391 160.744322 
L 16.828238 163.694078 
L 17.932885 167.596774 
L 19.162957 170.880721 
L 20.73644 174.266262 
L 22.47141 177.37529 
L 24.436812 180.390938 
L 26.905461 183.66238 
L 28.856623 185.953002 
L 32.468674 189.693495 
L 35.73146 192.652223 
L 38.497809 194.92085 
L 43.162547 198.353946 
L 47.869174 201.421213 
L 53.551149 204.708025 
L 58.645818 207.342518 
L 64.074485 209.881731 
L 69.245849 212.082379 
L 75.27755 214.418629 
L 77.714887 215.299968 
L 77.714887 215.299968 
" clip-path="url(#p184e1cee25)" style="fill: none; stroke: #000000; stroke-width: 2; stroke-linecap: square"/>
   </g>
   <g id="text_1">
    <!-- $P$ -->
    <g transform="translate(80.248691 238.886326) scale(0.2 -0.2)">
     <defs>
      <path id="Cmmi10-50" d="M 313 0 
Q 250 0 250 84 
Q 253 100 262 139 
Q 272 178 289 201 
Q 306 225 331 225 
Q 722 225 878 269 
Q 959 297 997 441 
L 1875 3956 
Q 1888 4019 1888 4044 
Q 1888 4113 1813 4122 
Q 1691 4147 1350 4147 
Q 1288 4147 1288 4231 
Q 1291 4247 1300 4286 
Q 1309 4325 1326 4348 
Q 1344 4372 1369 4372 
L 3578 4372 
Q 3881 4372 4165 4264 
Q 4450 4156 4631 3934 
Q 4813 3713 4813 3397 
Q 4813 2991 4527 2672 
Q 4241 2353 3814 2175 
Q 3388 1997 2988 1997 
L 1947 1997 
L 1556 416 
Q 1544 353 1544 325 
Q 1544 300 1551 283 
Q 1559 266 1573 261 
Q 1588 256 1619 250 
Q 1741 225 2081 225 
Q 2144 225 2144 141 
Q 2122 50 2109 25 
Q 2097 0 2034 0 
L 313 0 
z
M 1978 2188 
L 2875 2188 
Q 3497 2188 3822 2522 
Q 3988 2688 4092 3000 
Q 4197 3313 4197 3566 
Q 4197 3881 3956 4014 
Q 3716 4147 3359 4147 
L 2747 4147 
Q 2572 4147 2515 4117 
Q 2459 4088 2413 3928 
L 1978 2188 
z
" transform="scale(0.015625)"/>
     </defs>
     <use xlink:href="#Cmmi10-50" transform="translate(0 0.6875)"/>
    </g>
   </g>
   <g id="text_2">
    <!-- $Q$ -->
    <g transform="translate(428.745237 95.962648) scale(0.2 -0.2)">
     <defs>
      <path id="Cmmi10-51" d="M 1947 -141 
Q 1466 -141 1094 79 
Q 722 300 520 692 
Q 319 1084 319 1563 
Q 319 2259 714 2950 
Q 1109 3641 1756 4077 
Q 2403 4513 3109 4513 
Q 3475 4513 3778 4381 
Q 4081 4250 4290 4017 
Q 4500 3784 4614 3471 
Q 4728 3159 4728 2791 
Q 4728 2366 4581 1936 
Q 4434 1506 4171 1136 
Q 3909 766 3559 484 
Q 3209 203 2809 38 
Q 2850 -256 2934 -425 
Q 3019 -594 3256 -594 
Q 3506 -594 3726 -412 
Q 3947 -231 4006 13 
Q 4019 72 4078 72 
Q 4147 72 4147 -13 
Q 4100 -219 4008 -430 
Q 3916 -641 3786 -823 
Q 3656 -1006 3478 -1123 
Q 3300 -1241 3084 -1241 
Q 2547 -1241 2547 -550 
Q 2547 -509 2562 -332 
Q 2578 -156 2578 -44 
Q 2269 -141 1947 -141 
z
M 1709 300 
Q 1709 44 1991 44 
Q 2275 44 2591 184 
L 2591 244 
Q 2591 503 2509 648 
Q 2428 794 2194 794 
Q 2078 794 1964 723 
Q 1850 653 1779 539 
Q 1709 425 1709 300 
z
M 1544 288 
Q 1544 456 1637 612 
Q 1731 769 1881 864 
Q 2031 959 2203 959 
Q 2481 959 2607 771 
Q 2734 584 2778 281 
Q 3188 525 3500 978 
Q 3813 1431 3977 1973 
Q 4141 2516 4141 3003 
Q 4141 3356 4023 3656 
Q 3906 3956 3664 4140 
Q 3422 4325 3066 4325 
Q 2722 4325 2403 4156 
Q 2084 3988 1813 3706 
Q 1550 3434 1342 3032 
Q 1134 2631 1021 2193 
Q 909 1756 909 1356 
Q 909 947 1068 612 
Q 1228 278 1569 128 
Q 1544 194 1544 288 
z
" transform="scale(0.015625)"/>
     </defs>
     <use xlink:href="#Cmmi10-51" transform="translate(0 0.484375)"/>
    </g>
   </g>
  </g>
 </g>
 <defs>
  <clipPath id="p184e1cee25">
   <rect x="7.2" y="7.2" width="437.967692" height="230.602234"/>
  </clipPath>
 </defs>
</svg>
