<?xml version="1.0" encoding="utf-8" standalone="no"?>
<!DOCTYPE svg PUBLIC "-//W3C//DTD SVG 1.1//EN"
  "http://www.w3.org/Graphics/SVG/1.1/DTD/svg11.dtd">
<svg xmlns:xlink="http://www.w3.org/1999/xlink" width="453.6pt" height="208.168012pt" viewBox="0 0 453.6 208.168012" xmlns="http://www.w3.org/2000/svg" version="1.1">
 <metadata>
  <rdf:RDF xmlns:dc="http://purl.org/dc/elements/1.1/" xmlns:cc="http://creativecommons.org/ns#" xmlns:rdf="http://www.w3.org/1999/02/22-rdf-syntax-ns#">
   <cc:Work>
    <dc:type rdf:resource="http://purl.org/dc/dcmitype/StillImage"/>
    <dc:date>2023-08-04T14:50:19.399374</dc:date>
    <dc:format>image/svg+xml</dc:format>
    <dc:creator>
     <cc:Agent>
      <dc:title>Matplotlib v3.6.2, https://matplotlib.org/</dc:title>
     </cc:Agent>
    </dc:creator>
   </cc:Work>
  </rdf:RDF>
 </metadata>
 <defs>
  <style type="text/css">*{stroke-linejoin: round; stroke-linecap: butt}</style>
 </defs>
 <g id="figure_1">
  <g id="patch_1">
   <path d="M 0 208.168012 
L 453.6 208.168012 
L 453.6 0 
L 0 0 
z
" style="fill: #ffffff"/>
  </g>
  <g id="axes_1">
   <g id="patch_2">
    <path d="M 7.2 196.241526 
L 446.4 196.241526 
L 446.4 7.2 
L 7.2 7.2 
z
" style="fill: #ffffff"/>
   </g>
   <g id="PathCollection_1">
    <path d="M 412.500414 64.1693 
C 413.438048 64.1693 414.337406 63.796774 415.000414 63.133766 
C 415.663422 62.470758 416.035948 61.571401 416.035948 60.633766 
C 416.035948 59.696131 415.663422 58.796774 415.000414 58.133766 
C 414.337406 57.470758 413.438048 57.098232 412.500414 57.098232 
C 411.562779 57.098232 410.663422 57.470758 410.000414 58.133766 
C 409.337406 58.796774 408.96488 59.696131 408.96488 60.633766 
C 408.96488 61.571401 409.337406 62.470758 410.000414 63.133766 
C 410.663422 63.796774 411.562779 64.1693 412.500414 64.1693 
z
" clip-path="url(#pa72348fbb9)"/>
   </g>
   <g id="PathCollection_2">
    <path d="M 132.996758 181.330754 
C 133.934393 181.330754 134.833751 180.958227 135.496758 180.29522 
C 136.159766 179.632212 136.532292 178.732854 136.532292 177.79522 
C 136.532292 176.857585 136.159766 175.958227 135.496758 175.29522 
C 134.833751 174.632212 133.934393 174.259686 132.996758 174.259686 
C 132.059124 174.259686 131.159766 174.632212 130.496758 175.29522 
C 129.833751 175.958227 129.461224 176.857585 129.461224 177.79522 
C 129.461224 178.732854 129.833751 179.632212 130.496758 180.29522 
C 131.159766 180.958227 132.059124 181.330754 132.996758 181.330754 
z
" clip-path="url(#pa72348fbb9)"/>
   </g>
   <g id="matplotlib.axis_1"/>
   <g id="matplotlib.axis_2"/>
   <g id="line2d_1">
    <path d="M 412.500414 60.633766 
L 409.487298 56.740077 
L 406.596 53.361589 
L 403.615308 50.181008 
L 400.802937 47.418861 
L 396.917233 43.927742 
L 393.149508 40.852033 
L 388.309145 37.281728 
L 384.392244 34.664847 
L 380.349705 32.188495 
L 376.160637 29.837993 
L 370.742141 27.089066 
L 366.865957 25.305171 
L 363.12994 23.717763 
L 357.03346 21.383249 
L 351.779911 19.605393 
L 345.166144 17.648157 
L 338.71399 16.016182 
L 332.454077 14.674516 
L 326.98055 13.683553 
L 318.478551 12.45904 
L 312.039259 11.771087 
L 304.238061 11.197479 
L 295.239264 10.870221 
L 288.116527 10.852626 
L 281.7986 11.008287 
L 272.670947 11.507521 
L 264.08864 12.263353 
L 255.476818 13.292989 
L 248.158035 14.37732 
L 238.392442 16.119417 
L 230.737182 17.719375 
L 224.639037 19.141137 
L 215.165144 21.610437 
L 207.692268 23.784539 
L 199.130554 26.526095 
L 190.663717 29.508399 
L 182.502248 32.648766 
L 177.364584 34.765268 
L 168.020744 38.906855 
L 161.072957 42.24694 
L 153.854827 45.972597 
L 149.211715 48.517985 
L 142.941081 52.157418 
L 138.229064 55.058644 
L 130.672091 60.047328 
L 125.095247 64.03215 
L 120.267281 67.725127 
L 114.726375 72.291941 
L 110.903612 75.685975 
L 106.53316 79.862826 
L 102.707009 83.83894 
L 99.511598 87.447872 
L 96.291316 91.42699 
L 94.7444 93.492635 
L 91.785948 97.811575 
L 89.861995 100.966579 
L 87.80746 104.778869 
L 86.278448 108.062636 
L 85.224509 110.673926 
L 83.903477 114.643855 
L 83.135781 117.646242 
L 82.50442 121.121319 
L 82.172769 124.37019 
L 82.106924 127.863392 
L 82.26226 130.466033 
L 82.553979 132.78474 
L 83.207789 135.997284 
L 83.777337 138.027547 
L 84.676086 140.585592 
L 85.894243 143.36669 
L 87.63524 146.580725 
L 89.020036 148.741534 
L 90.95908 151.377187 
L 93.234702 154.059325 
L 95.269727 156.183122 
L 97.806908 158.556119 
L 101.198902 161.362947 
L 105.044942 164.15941 
L 110.011431 167.311281 
L 113.649275 169.361679 
L 116.788666 170.986816 
L 122.484983 173.649619 
L 128.916262 176.28912 
L 132.996758 177.79522 
L 132.996758 177.79522 
" clip-path="url(#pa72348fbb9)" style="fill: none; stroke: #000000; stroke-width: 2; stroke-linecap: square"/>
   </g>
   <g id="patch_3">
    <path d="M 132.996758 177.79522 
Q 108.256309 166.897658 85.562207 156.901463 
" clip-path="url(#pa72348fbb9)" style="fill: none; stroke: #0000ff; stroke-width: 2; stroke-linecap: round"/>
    <path d="M 92.698237 165.508267 
L 85.562207 156.901463 
L 96.729268 156.356721 
L 92.698237 165.508267 
z
" clip-path="url(#pa72348fbb9)" style="fill: #0000ff; stroke: #0000ff; stroke-width: 2; stroke-linecap: round"/>
   </g>
   <g id="patch_4">
    <path d="M 110.582315 167.64612 
Q 82.106125 158.440075 55.757579 149.921875 
" clip-path="url(#pa72348fbb9)" style="fill: none; stroke: #0000ff; stroke-width: 2; stroke-linecap: round"/>
    <path d="M 63.734627 157.755566 
L 55.757579 149.921875 
L 66.81076 148.240451 
L 63.734627 157.755566 
z
" clip-path="url(#pa72348fbb9)" style="fill: #0000ff; stroke: #0000ff; stroke-width: 2; stroke-linecap: round"/>
   </g>
   <g id="patch_5">
    <path d="M 94.609381 155.518116 
Q 63.471035 148.333405 34.511511 141.651425 
" clip-path="url(#pa72348fbb9)" style="fill: none; stroke: #0000ff; stroke-width: 2; stroke-linecap: round"/>
    <path d="M 43.131355 148.771697 
L 34.511511 141.651425 
L 45.379635 139.027712 
L 43.131355 148.771697 
z
" clip-path="url(#pa72348fbb9)" style="fill: #0000ff; stroke: #0000ff; stroke-width: 2; stroke-linecap: round"/>
   </g>
   <g id="patch_6">
    <path d="M 85.152498 141.744791 
Q 52.438005 136.855634 21.935019 132.296985 
" clip-path="url(#pa72348fbb9)" style="fill: none; stroke: #0000ff; stroke-width: 2; stroke-linecap: round"/>
    <path d="M 31.086142 138.720143 
L 21.935019 132.296985 
L 32.564219 128.829982 
L 31.086142 138.720143 
z
" clip-path="url(#pa72348fbb9)" style="fill: #0000ff; stroke: #0000ff; stroke-width: 2; stroke-linecap: round"/>
   </g>
   <g id="patch_7">
    <path d="M 82.094479 126.720022 
Q 48.870316 124.334993 17.876483 122.110071 
" clip-path="url(#pa72348fbb9)" style="fill: none; stroke: #0000ff; stroke-width: 2; stroke-linecap: round"/>
    <path d="M 27.492807 127.813255 
L 17.876483 122.110071 
L 28.208824 117.838922 
L 27.492807 127.813255 
z
" clip-path="url(#pa72348fbb9)" style="fill: #0000ff; stroke: #0000ff; stroke-width: 2; stroke-linecap: round"/>
   </g>
   <g id="patch_8">
    <path d="M 85.145013 110.88677 
Q 52.429273 111.140617 21.949533 111.377114 
" clip-path="url(#pa72348fbb9)" style="fill: none; stroke: #0000ff; stroke-width: 2; stroke-linecap: round"/>
    <path d="M 31.988027 116.299374 
L 21.949533 111.377114 
L 31.910438 106.299675 
L 31.988027 116.299374 
z
" clip-path="url(#pa72348fbb9)" style="fill: #0000ff; stroke: #0000ff; stroke-width: 2; stroke-linecap: round"/>
   </g>
   <g id="patch_9">
    <path d="M 93.862811 94.724035 
Q 62.600037 97.671671 33.563458 100.409408 
" clip-path="url(#pa72348fbb9)" style="fill: none; stroke: #0000ff; stroke-width: 2; stroke-linecap: round"/>
    <path d="M 43.98865 104.448636 
L 33.563458 100.409408 
L 43.049955 94.492791 
L 43.98865 104.448636 
z
" clip-path="url(#pa72348fbb9)" style="fill: #0000ff; stroke: #0000ff; stroke-width: 2; stroke-linecap: round"/>
   </g>
   <g id="patch_10">
    <path d="M 107.680175 78.732368 
Q 78.720295 84.345282 51.955632 89.532726 
" clip-path="url(#pa72348fbb9)" style="fill: none; stroke: #0000ff; stroke-width: 2; stroke-linecap: round"/>
    <path d="M 62.724318 92.538619 
L 51.955632 89.532726 
L 60.821558 82.721313 
L 62.724318 92.538619 
z
" clip-path="url(#pa72348fbb9)" style="fill: #0000ff; stroke: #0000ff; stroke-width: 2; stroke-linecap: round"/>
   </g>
   <g id="patch_11">
    <path d="M 125.928882 63.418373 
Q 100.010453 71.583619 76.22476 79.076976 
" clip-path="url(#pa72348fbb9)" style="fill: none; stroke: #0000ff; stroke-width: 2; stroke-linecap: round"/>
    <path d="M 87.265038 80.841139 
L 76.22476 79.076976 
L 84.260257 71.303252 
L 87.265038 80.841139 
z
" clip-path="url(#pa72348fbb9)" style="fill: #0000ff; stroke: #0000ff; stroke-width: 2; stroke-linecap: round"/>
   </g>
   <g id="patch_12">
    <path d="M 147.866346 49.278675 
Q 125.604162 59.800537 105.363617 69.366904 
" clip-path="url(#pa72348fbb9)" style="fill: none; stroke: #0000ff; stroke-width: 2; stroke-linecap: round"/>
    <path d="M 116.541219 69.614323 
L 105.363617 69.366904 
L 112.268113 60.573274 
L 116.541219 69.614323 
z
" clip-path="url(#pa72348fbb9)" style="fill: #0000ff; stroke: #0000ff; stroke-width: 2; stroke-linecap: round"/>
   </g>
   <g id="patch_13">
    <path d="M 172.701152 36.783873 
Q 154.578101 49.388202 138.290794 60.715798 
" clip-path="url(#pa72348fbb9)" style="fill: none; stroke: #0000ff; stroke-width: 2; stroke-linecap: round"/>
    <path d="M 149.355348 59.110918 
L 138.290794 60.715798 
L 143.645622 50.901227 
L 149.355348 59.110918 
z
" clip-path="url(#pa72348fbb9)" style="fill: #0000ff; stroke: #0000ff; stroke-width: 2; stroke-linecap: round"/>
   </g>
   <g id="patch_14">
    <path d="M 199.617158 26.36298 
Q 185.980109 40.704125 173.88392 53.424854 
" clip-path="url(#pa72348fbb9)" style="fill: none; stroke: #0000ff; stroke-width: 2; stroke-linecap: round"/>
    <path d="M 184.398218 49.623599 
L 173.88392 53.424854 
L 177.151495 42.732662 
L 184.398218 49.623599 
z
" clip-path="url(#pa72348fbb9)" style="fill: #0000ff; stroke: #0000ff; stroke-width: 2; stroke-linecap: round"/>
   </g>
   <g id="patch_15">
    <path d="M 227.795575 18.388876 
Q 218.854929 34.059039 211.022399 47.787018 
" clip-path="url(#pa72348fbb9)" style="fill: none; stroke: #0000ff; stroke-width: 2; stroke-linecap: round"/>
    <path d="M 220.320904 41.579135 
L 211.022399 47.787018 
L 211.635196 36.623484 
L 220.320904 41.579135 
z
" clip-path="url(#pa72348fbb9)" style="fill: #0000ff; stroke: #0000ff; stroke-width: 2; stroke-linecap: round"/>
   </g>
   <g id="patch_16">
    <path d="M 256.434551 13.165248 
Q 252.267066 29.706015 248.645892 44.078477 
" clip-path="url(#pa72348fbb9)" style="fill: none; stroke: #0000ff; stroke-width: 2; stroke-linecap: round"/>
    <path d="M 255.937539 35.603108 
L 248.645892 44.078477 
L 246.240584 33.159938 
L 255.937539 35.603108 
z
" clip-path="url(#pa72348fbb9)" style="fill: #0000ff; stroke: #0000ff; stroke-width: 2; stroke-linecap: round"/>
   </g>
   <g id="patch_17">
    <path d="M 284.766003 10.915476 
Q 285.320428 27.831205 285.801603 42.512066 
" clip-path="url(#pa72348fbb9)" style="fill: none; stroke: #0000ff; stroke-width: 2; stroke-linecap: round"/>
    <path d="M 290.471339 32.353642 
L 285.801603 42.512066 
L 280.476706 32.681223 
L 290.471339 32.353642 
z
" clip-path="url(#pa72348fbb9)" style="fill: #0000ff; stroke: #0000ff; stroke-width: 2; stroke-linecap: round"/>
   </g>
   <g id="patch_18">
    <path d="M 312.069605 11.773865 
Q 317.17463 28.546529 321.628563 43.180016 
" clip-path="url(#pa72348fbb9)" style="fill: none; stroke: #0000ff; stroke-width: 2; stroke-linecap: round"/>
    <path d="M 323.500135 32.157439 
L 321.628563 43.180016 
L 313.933444 35.069212 
L 323.500135 32.157439 
z
" clip-path="url(#pa72348fbb9)" style="fill: #0000ff; stroke: #0000ff; stroke-width: 2; stroke-linecap: round"/>
   </g>
   <g id="patch_19">
    <path d="M 337.683957 15.779535 
Q 347.05804 31.884588 355.307273 46.0571 
" clip-path="url(#pa72348fbb9)" style="fill: none; stroke: #0000ff; stroke-width: 2; stroke-linecap: round"/>
    <path d="M 354.598075 34.899276 
L 355.307273 46.0571 
L 345.955495 39.929764 
L 354.598075 34.899276 
z
" clip-path="url(#pa72348fbb9)" style="fill: #0000ff; stroke: #0000ff; stroke-width: 2; stroke-linecap: round"/>
   </g>
   <g id="patch_20">
    <path d="M 361.015146 22.873232 
Q 374.277762 37.796002 386.054944 51.047398 
" clip-path="url(#pa72348fbb9)" style="fill: none; stroke: #0000ff; stroke-width: 2; stroke-linecap: round"/>
    <path d="M 383.149188 40.251261 
L 386.054944 51.047398 
L 375.67458 46.89432 
L 383.149188 40.251261 
z
" clip-path="url(#pa72348fbb9)" style="fill: #0000ff; stroke: #0000ff; stroke-width: 2; stroke-linecap: round"/>
   </g>
   <g id="patch_21">
    <path d="M 381.542981 32.89721 
Q 398.226902 46.149317 413.159893 58.010652 
" clip-path="url(#pa72348fbb9)" style="fill: none; stroke: #0000ff; stroke-width: 2; stroke-linecap: round"/>
    <path d="M 408.439354 47.875737 
L 413.159893 58.010652 
L 402.219637 55.706134 
L 408.439354 47.875737 
z
" clip-path="url(#pa72348fbb9)" style="fill: #0000ff; stroke: #0000ff; stroke-width: 2; stroke-linecap: round"/>
   </g>
   <g id="patch_22">
    <path d="M 398.825248 45.598247 
Q 418.389547 56.733514 436.010501 66.762702 
" clip-path="url(#pa72348fbb9)" style="fill: none; stroke: #0000ff; stroke-width: 2; stroke-linecap: round"/>
    <path d="M 429.792868 57.470715 
L 436.010501 66.762702 
L 424.846331 66.161617 
L 429.792868 57.470715 
z
" clip-path="url(#pa72348fbb9)" style="fill: #0000ff; stroke: #0000ff; stroke-width: 2; stroke-linecap: round"/>
   </g>
   <g id="text_1">
    <!-- $Q$ -->
    <g transform="translate(405.588414 80.212859) scale(0.1728 -0.1728)">
     <defs>
      <path id="Cmmi10-51" d="M 1947 -141 
Q 1466 -141 1094 79 
Q 722 300 520 692 
Q 319 1084 319 1563 
Q 319 2259 714 2950 
Q 1109 3641 1756 4077 
Q 2403 4513 3109 4513 
Q 3475 4513 3778 4381 
Q 4081 4250 4290 4017 
Q 4500 3784 4614 3471 
Q 4728 3159 4728 2791 
Q 4728 2366 4581 1936 
Q 4434 1506 4171 1136 
Q 3909 766 3559 484 
Q 3209 203 2809 38 
Q 2850 -256 2934 -425 
Q 3019 -594 3256 -594 
Q 3506 -594 3726 -412 
Q 3947 -231 4006 13 
Q 4019 72 4078 72 
Q 4147 72 4147 -13 
Q 4100 -219 4008 -430 
Q 3916 -641 3786 -823 
Q 3656 -1006 3478 -1123 
Q 3300 -1241 3084 -1241 
Q 2547 -1241 2547 -550 
Q 2547 -509 2562 -332 
Q 2578 -156 2578 -44 
Q 2269 -141 1947 -141 
z
M 1709 300 
Q 1709 44 1991 44 
Q 2275 44 2591 184 
L 2591 244 
Q 2591 503 2509 648 
Q 2428 794 2194 794 
Q 2078 794 1964 723 
Q 1850 653 1779 539 
Q 1709 425 1709 300 
z
M 1544 288 
Q 1544 456 1637 612 
Q 1731 769 1881 864 
Q 2031 959 2203 959 
Q 2481 959 2607 771 
Q 2734 584 2778 281 
Q 3188 525 3500 978 
Q 3813 1431 3977 1973 
Q 4141 2516 4141 3003 
Q 4141 3356 4023 3656 
Q 3906 3956 3664 4140 
Q 3422 4325 3066 4325 
Q 2722 4325 2403 4156 
Q 2084 3988 1813 3706 
Q 1550 3434 1342 3032 
Q 1134 2631 1021 2193 
Q 909 1756 909 1356 
Q 909 947 1068 612 
Q 1228 278 1569 128 
Q 1544 194 1544 288 
z
" transform="scale(0.015625)"/>
     </defs>
     <use xlink:href="#Cmmi10-51" transform="translate(0 0.484375)"/>
    </g>
   </g>
   <g id="text_2">
    <!-- $P$ -->
    <g transform="translate(127.380758 197.374312) scale(0.1728 -0.1728)">
     <defs>
      <path id="Cmmi10-50" d="M 313 0 
Q 250 0 250 84 
Q 253 100 262 139 
Q 272 178 289 201 
Q 306 225 331 225 
Q 722 225 878 269 
Q 959 297 997 441 
L 1875 3956 
Q 1888 4019 1888 4044 
Q 1888 4113 1813 4122 
Q 1691 4147 1350 4147 
Q 1288 4147 1288 4231 
Q 1291 4247 1300 4286 
Q 1309 4325 1326 4348 
Q 1344 4372 1369 4372 
L 3578 4372 
Q 3881 4372 4165 4264 
Q 4450 4156 4631 3934 
Q 4813 3713 4813 3397 
Q 4813 2991 4527 2672 
Q 4241 2353 3814 2175 
Q 3388 1997 2988 1997 
L 1947 1997 
L 1556 416 
Q 1544 353 1544 325 
Q 1544 300 1551 283 
Q 1559 266 1573 261 
Q 1588 256 1619 250 
Q 1741 225 2081 225 
Q 2144 225 2144 141 
Q 2122 50 2109 25 
Q 2097 0 2034 0 
L 313 0 
z
M 1978 2188 
L 2875 2188 
Q 3497 2188 3822 2522 
Q 3988 2688 4092 3000 
Q 4197 3313 4197 3566 
Q 4197 3881 3956 4014 
Q 3716 4147 3359 4147 
L 2747 4147 
Q 2572 4147 2515 4117 
Q 2459 4088 2413 3928 
L 1978 2188 
z
" transform="scale(0.015625)"/>
     </defs>
     <use xlink:href="#Cmmi10-50" transform="translate(0 0.6875)"/>
    </g>
   </g>
  </g>
 </g>
 <defs>
  <clipPath id="pa72348fbb9">
   <rect x="7.2" y="7.2" width="439.2" height="189.041526"/>
  </clipPath>
 </defs>
</svg>
