<?xml version="1.0" encoding="utf-8" standalone="no"?>
<!DOCTYPE svg PUBLIC "-//W3C//DTD SVG 1.1//EN"
  "http://www.w3.org/Graphics/SVG/1.1/DTD/svg11.dtd">
<svg xmlns:xlink="http://www.w3.org/1999/xlink" width="452.367692pt" height="250.249249pt" viewBox="0 0 452.367692 250.249249" xmlns="http://www.w3.org/2000/svg" version="1.1">
 <metadata>
  <rdf:RDF xmlns:dc="http://purl.org/dc/elements/1.1/" xmlns:cc="http://creativecommons.org/ns#" xmlns:rdf="http://www.w3.org/1999/02/22-rdf-syntax-ns#">
   <cc:Work>
    <dc:type rdf:resource="http://purl.org/dc/dcmitype/StillImage"/>
    <dc:date>2025-01-29T09:02:39.035249</dc:date>
    <dc:format>image/svg+xml</dc:format>
    <dc:creator>
     <cc:Agent>
      <dc:title>Matplotlib v3.6.2, https://matplotlib.org/</dc:title>
     </cc:Agent>
    </dc:creator>
   </cc:Work>
  </rdf:RDF>
 </metadata>
 <defs>
  <style type="text/css">*{stroke-linejoin: round; stroke-linecap: butt}</style>
 </defs>
 <g id="figure_1">
  <g id="patch_1">
   <path d="M 0 250.249249 
L 452.367692 250.249249 
L 452.367692 0 
L 0 0 
z
" style="fill: #ffffff"/>
  </g>
  <g id="axes_1">
   <g id="patch_2">
    <path d="M 7.2 237.805852 
L 445.167692 237.805852 
L 445.167692 7.2 
L 7.2 7.2 
z
" style="fill: #ffffff"/>
   </g>
   <g id="PathCollection_1">
    <path d="M 77.716783 218.839146 
C 78.654417 218.839146 79.553775 218.466619 80.216783 217.803612 
C 80.879791 217.140604 81.252317 216.241246 81.252317 215.303612 
C 81.252317 214.365977 80.879791 213.466619 80.216783 212.803612 
C 79.553775 212.140604 78.654417 211.768078 77.716783 211.768078 
C 76.779148 211.768078 75.879791 212.140604 75.216783 212.803612 
C 74.553775 213.466619 74.181249 214.365977 74.181249 215.303612 
C 74.181249 216.241246 74.553775 217.140604 75.216783 217.803612 
C 75.879791 218.466619 76.779148 218.839146 77.716783 218.839146 
z
" clip-path="url(#pa35e7b715b)"/>
   </g>
   <g id="PathCollection_2">
    <path d="M 418.677724 75.916222 
C 419.615358 75.916222 420.514716 75.543696 421.177724 74.880688 
C 421.840732 74.217681 422.213258 73.318323 422.213258 72.380688 
C 422.213258 71.443054 421.840732 70.543696 421.177724 69.880688 
C 420.514716 69.217681 419.615358 68.845155 418.677724 68.845155 
C 417.740089 68.845155 416.840732 69.217681 416.177724 69.880688 
C 415.514716 70.543696 415.14219 71.443054 415.14219 72.380688 
C 415.14219 73.318323 415.514716 74.217681 416.177724 74.880688 
C 416.840732 75.543696 417.740089 75.916222 418.677724 75.916222 
z
" clip-path="url(#pa35e7b715b)"/>
   </g>
   <g id="matplotlib.axis_1"/>
   <g id="matplotlib.axis_2"/>
   <g id="line2d_1">
    <path d="M 418.677724 72.380688 
L 415.07976 67.726099 
L 412.060555 64.167562 
L 408.096122 59.892983 
L 404.630307 56.470459 
L 400.545816 52.758241 
L 395.757945 48.787923 
L 392.285234 46.133286 
L 388.026672 43.106592 
L 382.672724 39.620303 
L 376.941852 36.237462 
L 370.625943 32.878832 
L 366.412354 30.832359 
L 360.240626 28.089593 
L 352.808078 25.152775 
L 347.82164 23.387695 
L 342.593182 21.700756 
L 335.913293 19.773559 
L 327.707862 17.731493 
L 321.616461 16.431633 
L 314.98258 15.212406 
L 308.012777 14.140151 
L 300.015415 13.159061 
L 290.45558 12.316407 
L 281.498923 11.835523 
L 272.998032 11.641721 
L 266.763797 11.655896 
L 259.138287 11.84724 
L 250.487502 12.289462 
L 240.93906 13.047494 
L 235.403568 13.613721 
L 223.651521 15.117974 
L 214.627998 16.547497 
L 206.038474 18.12719 
L 195.885971 20.268216 
L 185.393696 22.79288 
L 175.049893 25.594685 
L 167.617793 27.802272 
L 160.062506 30.216241 
L 151.009893 33.339428 
L 144.53769 35.731015 
L 133.812767 39.99704 
L 124.881598 43.852214 
L 115.769201 48.087795 
L 106.469666 52.749126 
L 97.744518 57.462112 
L 88.337433 62.952792 
L 80.930049 67.612203 
L 72.666781 73.210223 
L 67.038597 77.300019 
L 59.987328 82.794749 
L 54.857041 87.096073 
L 49.143761 92.24852 
L 45.518362 95.754149 
L 40.764116 100.691262 
L 37.454968 104.405038 
L 34.989576 107.353451 
L 30.936715 112.625217 
L 28.317846 116.395128 
L 25.288563 121.252884 
L 23.57345 124.328409 
L 21.69571 128.082533 
L 20.128107 131.665571 
L 18.477991 136.161011 
L 17.635042 138.951316 
L 16.717465 142.745837 
L 16.048907 146.707808 
L 15.774224 149.330207 
L 15.622456 152.921162 
L 15.772134 156.942092 
L 16.16534 160.285688 
L 16.761988 163.402474 
L 17.719097 166.932685 
L 18.901087 170.239592 
L 20.348897 173.492665 
L 22.29829 177.087033 
L 24.649006 180.692768 
L 27.243804 184.077176 
L 30.088952 187.295563 
L 33.242362 190.428428 
L 36.823835 193.573669 
L 40.257991 196.271058 
L 43.377405 198.504209 
L 47.922346 201.456385 
L 53.060158 204.442141 
L 56.420752 206.227161 
L 61.455679 208.691171 
L 68.090077 211.610249 
L 74.071776 213.972726 
L 77.716783 215.303612 
L 77.716783 215.303612 
" clip-path="url(#pa35e7b715b)" style="fill: none; stroke: #000000; stroke-width: 2; stroke-linecap: square"/>
   </g>
   <g id="text_1">
    <!-- $P$ -->
    <g transform="translate(80.250539 238.889874) scale(0.2 -0.2)">
     <defs>
      <path id="Cmmi10-50" d="M 313 0 
Q 250 0 250 84 
Q 253 100 262 139 
Q 272 178 289 201 
Q 306 225 331 225 
Q 722 225 878 269 
Q 959 297 997 441 
L 1875 3956 
Q 1888 4019 1888 4044 
Q 1888 4113 1813 4122 
Q 1691 4147 1350 4147 
Q 1288 4147 1288 4231 
Q 1291 4247 1300 4286 
Q 1309 4325 1326 4348 
Q 1344 4372 1369 4372 
L 3578 4372 
Q 3881 4372 4165 4264 
Q 4450 4156 4631 3934 
Q 4813 3713 4813 3397 
Q 4813 2991 4527 2672 
Q 4241 2353 3814 2175 
Q 3388 1997 2988 1997 
L 1947 1997 
L 1556 416 
Q 1544 353 1544 325 
Q 1544 300 1551 283 
Q 1559 266 1573 261 
Q 1588 256 1619 250 
Q 1741 225 2081 225 
Q 2144 225 2144 141 
Q 2122 50 2109 25 
Q 2097 0 2034 0 
L 313 0 
z
M 1978 2188 
L 2875 2188 
Q 3497 2188 3822 2522 
Q 3988 2688 4092 3000 
Q 4197 3313 4197 3566 
Q 4197 3881 3956 4014 
Q 3716 4147 3359 4147 
L 2747 4147 
Q 2572 4147 2515 4117 
Q 2459 4088 2413 3928 
L 1978 2188 
z
" transform="scale(0.015625)"/>
     </defs>
     <use xlink:href="#Cmmi10-50" transform="translate(0 0.6875)"/>
    </g>
   </g>
   <g id="text_2">
    <!-- $Q$ -->
    <g transform="translate(428.745237 95.966951) scale(0.2 -0.2)">
     <defs>
      <path id="Cmmi10-51" d="M 1947 -141 
Q 1466 -141 1094 79 
Q 722 300 520 692 
Q 319 1084 319 1563 
Q 319 2259 714 2950 
Q 1109 3641 1756 4077 
Q 2403 4513 3109 4513 
Q 3475 4513 3778 4381 
Q 4081 4250 4290 4017 
Q 4500 3784 4614 3471 
Q 4728 3159 4728 2791 
Q 4728 2366 4581 1936 
Q 4434 1506 4171 1136 
Q 3909 766 3559 484 
Q 3209 203 2809 38 
Q 2850 -256 2934 -425 
Q 3019 -594 3256 -594 
Q 3506 -594 3726 -412 
Q 3947 -231 4006 13 
Q 4019 72 4078 72 
Q 4147 72 4147 -13 
Q 4100 -219 4008 -430 
Q 3916 -641 3786 -823 
Q 3656 -1006 3478 -1123 
Q 3300 -1241 3084 -1241 
Q 2547 -1241 2547 -550 
Q 2547 -509 2562 -332 
Q 2578 -156 2578 -44 
Q 2269 -141 1947 -141 
z
M 1709 300 
Q 1709 44 1991 44 
Q 2275 44 2591 184 
L 2591 244 
Q 2591 503 2509 648 
Q 2428 794 2194 794 
Q 2078 794 1964 723 
Q 1850 653 1779 539 
Q 1709 425 1709 300 
z
M 1544 288 
Q 1544 456 1637 612 
Q 1731 769 1881 864 
Q 2031 959 2203 959 
Q 2481 959 2607 771 
Q 2734 584 2778 281 
Q 3188 525 3500 978 
Q 3813 1431 3977 1973 
Q 4141 2516 4141 3003 
Q 4141 3356 4023 3656 
Q 3906 3956 3664 4140 
Q 3422 4325 3066 4325 
Q 2722 4325 2403 4156 
Q 2084 3988 1813 3706 
Q 1550 3434 1342 3032 
Q 1134 2631 1021 2193 
Q 909 1756 909 1356 
Q 909 947 1068 612 
Q 1228 278 1569 128 
Q 1544 194 1544 288 
z
" transform="scale(0.015625)"/>
     </defs>
     <use xlink:href="#Cmmi10-51" transform="translate(0 0.484375)"/>
    </g>
   </g>
  </g>
 </g>
 <defs>
  <clipPath id="pa35e7b715b">
   <rect x="7.2" y="7.2" width="437.967692" height="230.605852"/>
  </clipPath>
 </defs>
</svg>
