<?xml version="1.0" encoding="utf-8" standalone="no"?>
<!DOCTYPE svg PUBLIC "-//W3C//DTD SVG 1.1//EN"
  "http://www.w3.org/Graphics/SVG/1.1/DTD/svg11.dtd">
<svg xmlns:xlink="http://www.w3.org/1999/xlink" width="453.6pt" height="208.168718pt" viewBox="0 0 453.6 208.168718" xmlns="http://www.w3.org/2000/svg" version="1.1">
 <metadata>
  <rdf:RDF xmlns:dc="http://purl.org/dc/elements/1.1/" xmlns:cc="http://creativecommons.org/ns#" xmlns:rdf="http://www.w3.org/1999/02/22-rdf-syntax-ns#">
   <cc:Work>
    <dc:type rdf:resource="http://purl.org/dc/dcmitype/StillImage"/>
    <dc:date>2025-01-29T09:00:45.877536</dc:date>
    <dc:format>image/svg+xml</dc:format>
    <dc:creator>
     <cc:Agent>
      <dc:title>Matplotlib v3.6.2, https://matplotlib.org/</dc:title>
     </cc:Agent>
    </dc:creator>
   </cc:Work>
  </rdf:RDF>
 </metadata>
 <defs>
  <style type="text/css">*{stroke-linejoin: round; stroke-linecap: butt}</style>
 </defs>
 <g id="figure_1">
  <g id="patch_1">
   <path d="M 0 208.168718 
L 453.6 208.168718 
L 453.6 0 
L 0 0 
z
" style="fill: #ffffff"/>
  </g>
  <g id="axes_1">
   <g id="patch_2">
    <path d="M 7.2 196.242246 
L 446.4 196.242246 
L 446.4 7.2 
L 7.2 7.2 
z
" style="fill: #ffffff"/>
   </g>
   <g id="PathCollection_1">
    <path d="M 412.500414 64.170006 
C 413.438048 64.170006 414.337406 63.797479 415.000414 63.134472 
C 415.663422 62.471464 416.035948 61.572106 416.035948 60.634472 
C 416.035948 59.696837 415.663422 58.797479 415.000414 58.134472 
C 414.337406 57.471464 413.438048 57.098938 412.500414 57.098938 
C 411.562779 57.098938 410.663422 57.471464 410.000414 58.134472 
C 409.337406 58.797479 408.96488 59.696837 408.96488 60.634472 
C 408.96488 61.572106 409.337406 62.471464 410.000414 63.134472 
C 410.663422 63.797479 411.562779 64.170006 412.500414 64.170006 
z
" clip-path="url(#pa59886c243)"/>
   </g>
   <g id="PathCollection_2">
    <path d="M 132.996758 181.331459 
C 133.934393 181.331459 134.833751 180.958933 135.496758 180.295925 
C 136.159766 179.632918 136.532292 178.73356 136.532292 177.795925 
C 136.532292 176.858291 136.159766 175.958933 135.496758 175.295925 
C 134.833751 174.632918 133.934393 174.260391 132.996758 174.260391 
C 132.059124 174.260391 131.159766 174.632918 130.496758 175.295925 
C 129.833751 175.958933 129.461224 176.858291 129.461224 177.795925 
C 129.461224 178.73356 129.833751 179.632918 130.496758 180.295925 
C 131.159766 180.958933 132.059124 181.331459 132.996758 181.331459 
z
" clip-path="url(#pa59886c243)"/>
   </g>
   <g id="matplotlib.axis_1"/>
   <g id="matplotlib.axis_2"/>
   <g id="line2d_1">
    <path d="M 412.500414 60.634472 
L 409.242953 56.442731 
L 406.696398 53.474468 
L 402.623061 49.182523 
L 398.872281 45.641167 
L 393.946652 41.480325 
L 390.335434 38.728855 
L 387.518068 36.735441 
L 382.386194 33.409757 
L 377.536081 30.587642 
L 372.112468 27.755814 
L 367.793056 25.719474 
L 362.640199 23.519506 
L 356.975302 21.363127 
L 350.197727 19.110315 
L 344.881813 17.571347 
L 340.185108 16.366046 
L 333.499111 14.883381 
L 330.107469 14.230193 
L 322.541829 12.998681 
L 315.407617 12.106753 
L 308.284117 11.461058 
L 300.436766 11.017365 
L 293.699883 10.849423 
L 285.214854 10.905167 
L 276.771003 11.244514 
L 267.020728 11.975151 
L 259.858922 12.736214 
L 251.053015 13.926319 
L 240.513777 15.713155 
L 231.648923 17.51874 
L 225.073992 19.036101 
L 215.118201 21.624173 
L 207.515963 23.838979 
L 198.876246 26.612401 
L 189.576581 29.912098 
L 181.41563 33.08793 
L 175.233737 35.676601 
L 166.843641 39.457272 
L 161.845372 41.864756 
L 154.223654 45.776259 
L 147.154526 49.686206 
L 140.787469 53.465499 
L 133.425426 58.179253 
L 127.714752 62.126208 
L 123.660745 65.104936 
L 117.108867 70.281906 
L 112.323666 74.400115 
L 107.572591 78.838008 
L 104.042677 82.413092 
L 100.493838 86.307211 
L 97.673278 89.671841 
L 95.49409 92.478029 
L 92.733212 96.368648 
L 90.768084 99.440218 
L 88.629917 103.186247 
L 86.875043 106.723709 
L 85.171765 110.815559 
L 84.438336 112.910199 
L 83.696914 115.379367 
L 82.796213 119.32324 
L 82.324483 122.576172 
L 82.098432 126.290955 
L 82.181449 129.46728 
L 82.397279 131.686006 
L 82.893216 134.630667 
L 83.497294 137.085111 
L 84.601492 140.394514 
L 85.873887 143.325355 
L 87.788224 146.834446 
L 89.752583 149.783874 
L 91.636154 152.215843 
L 93.694693 154.560089 
L 96.605403 157.466613 
L 99.831797 160.276127 
L 103.414222 163.017833 
L 107.995524 166.086775 
L 112.7492 168.872838 
L 115.900673 170.540239 
L 121.471381 173.200813 
L 126.779072 175.451102 
L 132.996758 177.795925 
L 132.996758 177.795925 
" clip-path="url(#pa59886c243)" style="fill: none; stroke: #000000; stroke-width: 2; stroke-linecap: square"/>
   </g>
   <g id="patch_3">
    <path d="M 132.996758 177.795925 
Q 108.256309 166.898364 85.562207 156.902168 
" clip-path="url(#pa59886c243)" style="fill: none; stroke: #0000ff; stroke-width: 2; stroke-linecap: round"/>
    <path d="M 92.698237 165.508973 
L 85.562207 156.902168 
L 96.729268 156.357427 
L 92.698237 165.508973 
z
" clip-path="url(#pa59886c243)" style="fill: #0000ff; stroke: #0000ff; stroke-width: 2; stroke-linecap: round"/>
   </g>
   <g id="patch_4">
    <path d="M 110.582315 167.646826 
Q 82.106125 158.440781 55.757579 149.92258 
" clip-path="url(#pa59886c243)" style="fill: none; stroke: #0000ff; stroke-width: 2; stroke-linecap: round"/>
    <path d="M 63.734627 157.756271 
L 55.757579 149.92258 
L 66.81076 148.241157 
L 63.734627 157.756271 
z
" clip-path="url(#pa59886c243)" style="fill: #0000ff; stroke: #0000ff; stroke-width: 2; stroke-linecap: round"/>
   </g>
   <g id="patch_5">
    <path d="M 94.609381 155.518822 
Q 63.471035 148.334111 34.511511 141.65213 
" clip-path="url(#pa59886c243)" style="fill: none; stroke: #0000ff; stroke-width: 2; stroke-linecap: round"/>
    <path d="M 43.131355 148.772403 
L 34.511511 141.65213 
L 45.379635 139.028418 
L 43.131355 148.772403 
z
" clip-path="url(#pa59886c243)" style="fill: #0000ff; stroke: #0000ff; stroke-width: 2; stroke-linecap: round"/>
   </g>
   <g id="patch_6">
    <path d="M 85.152498 141.745496 
Q 52.438005 136.85634 21.935019 132.297691 
" clip-path="url(#pa59886c243)" style="fill: none; stroke: #0000ff; stroke-width: 2; stroke-linecap: round"/>
    <path d="M 31.086142 138.720849 
L 21.935019 132.297691 
L 32.564219 128.830688 
L 31.086142 138.720849 
z
" clip-path="url(#pa59886c243)" style="fill: #0000ff; stroke: #0000ff; stroke-width: 2; stroke-linecap: round"/>
   </g>
   <g id="patch_7">
    <path d="M 82.094479 126.720728 
Q 48.870316 124.335699 17.876483 122.110777 
" clip-path="url(#pa59886c243)" style="fill: none; stroke: #0000ff; stroke-width: 2; stroke-linecap: round"/>
    <path d="M 27.492807 127.81396 
L 17.876483 122.110777 
L 28.208824 117.839627 
L 27.492807 127.81396 
z
" clip-path="url(#pa59886c243)" style="fill: #0000ff; stroke: #0000ff; stroke-width: 2; stroke-linecap: round"/>
   </g>
   <g id="patch_8">
    <path d="M 85.145013 110.887475 
Q 52.429273 111.141322 21.949533 111.377819 
" clip-path="url(#pa59886c243)" style="fill: none; stroke: #0000ff; stroke-width: 2; stroke-linecap: round"/>
    <path d="M 31.988027 116.30008 
L 21.949533 111.377819 
L 31.910438 106.300381 
L 31.988027 116.30008 
z
" clip-path="url(#pa59886c243)" style="fill: #0000ff; stroke: #0000ff; stroke-width: 2; stroke-linecap: round"/>
   </g>
   <g id="patch_9">
    <path d="M 93.862811 94.724741 
Q 62.600037 97.672377 33.563458 100.410114 
" clip-path="url(#pa59886c243)" style="fill: none; stroke: #0000ff; stroke-width: 2; stroke-linecap: round"/>
    <path d="M 43.98865 104.449342 
L 33.563458 100.410114 
L 43.049955 94.493496 
L 43.98865 104.449342 
z
" clip-path="url(#pa59886c243)" style="fill: #0000ff; stroke: #0000ff; stroke-width: 2; stroke-linecap: round"/>
   </g>
   <g id="patch_10">
    <path d="M 107.680175 78.733074 
Q 78.720295 84.345988 51.955632 89.533431 
" clip-path="url(#pa59886c243)" style="fill: none; stroke: #0000ff; stroke-width: 2; stroke-linecap: round"/>
    <path d="M 62.724318 92.539325 
L 51.955632 89.533431 
L 60.821558 82.722018 
L 62.724318 92.539325 
z
" clip-path="url(#pa59886c243)" style="fill: #0000ff; stroke: #0000ff; stroke-width: 2; stroke-linecap: round"/>
   </g>
   <g id="patch_11">
    <path d="M 125.928882 63.419079 
Q 100.010453 71.584325 76.22476 79.077682 
" clip-path="url(#pa59886c243)" style="fill: none; stroke: #0000ff; stroke-width: 2; stroke-linecap: round"/>
    <path d="M 87.265038 80.841845 
L 76.22476 79.077682 
L 84.260257 71.303957 
L 87.265038 80.841845 
z
" clip-path="url(#pa59886c243)" style="fill: #0000ff; stroke: #0000ff; stroke-width: 2; stroke-linecap: round"/>
   </g>
   <g id="patch_12">
    <path d="M 147.866346 49.279381 
Q 125.604162 59.801243 105.363617 69.36761 
" clip-path="url(#pa59886c243)" style="fill: none; stroke: #0000ff; stroke-width: 2; stroke-linecap: round"/>
    <path d="M 116.541219 69.615029 
L 105.363617 69.36761 
L 112.268113 60.57398 
L 116.541219 69.615029 
z
" clip-path="url(#pa59886c243)" style="fill: #0000ff; stroke: #0000ff; stroke-width: 2; stroke-linecap: round"/>
   </g>
   <g id="patch_13">
    <path d="M 172.701152 36.784578 
Q 154.578101 49.388908 138.290794 60.716504 
" clip-path="url(#pa59886c243)" style="fill: none; stroke: #0000ff; stroke-width: 2; stroke-linecap: round"/>
    <path d="M 149.355348 59.111623 
L 138.290794 60.716504 
L 143.645622 50.901932 
L 149.355348 59.111623 
z
" clip-path="url(#pa59886c243)" style="fill: #0000ff; stroke: #0000ff; stroke-width: 2; stroke-linecap: round"/>
   </g>
   <g id="patch_14">
    <path d="M 199.617158 26.363686 
Q 185.980109 40.704831 173.88392 53.425559 
" clip-path="url(#pa59886c243)" style="fill: none; stroke: #0000ff; stroke-width: 2; stroke-linecap: round"/>
    <path d="M 184.398218 49.624305 
L 173.88392 53.425559 
L 177.151495 42.733368 
L 184.398218 49.624305 
z
" clip-path="url(#pa59886c243)" style="fill: #0000ff; stroke: #0000ff; stroke-width: 2; stroke-linecap: round"/>
   </g>
   <g id="patch_15">
    <path d="M 227.795575 18.389582 
Q 218.854929 34.059744 211.022399 47.787723 
" clip-path="url(#pa59886c243)" style="fill: none; stroke: #0000ff; stroke-width: 2; stroke-linecap: round"/>
    <path d="M 220.320904 41.57984 
L 211.022399 47.787723 
L 211.635196 36.62419 
L 220.320904 41.57984 
z
" clip-path="url(#pa59886c243)" style="fill: #0000ff; stroke: #0000ff; stroke-width: 2; stroke-linecap: round"/>
   </g>
   <g id="patch_16">
    <path d="M 256.434551 13.165953 
Q 252.267066 29.70672 248.645892 44.079183 
" clip-path="url(#pa59886c243)" style="fill: none; stroke: #0000ff; stroke-width: 2; stroke-linecap: round"/>
    <path d="M 255.937539 35.603813 
L 248.645892 44.079183 
L 246.240584 33.160644 
L 255.937539 35.603813 
z
" clip-path="url(#pa59886c243)" style="fill: #0000ff; stroke: #0000ff; stroke-width: 2; stroke-linecap: round"/>
   </g>
   <g id="patch_17">
    <path d="M 284.766003 10.916181 
Q 285.320428 27.831911 285.801603 42.512772 
" clip-path="url(#pa59886c243)" style="fill: none; stroke: #0000ff; stroke-width: 2; stroke-linecap: round"/>
    <path d="M 290.471339 32.354348 
L 285.801603 42.512772 
L 280.476706 32.681929 
L 290.471339 32.354348 
z
" clip-path="url(#pa59886c243)" style="fill: #0000ff; stroke: #0000ff; stroke-width: 2; stroke-linecap: round"/>
   </g>
   <g id="patch_18">
    <path d="M 312.069605 11.77457 
Q 317.17463 28.547235 321.628563 43.180722 
" clip-path="url(#pa59886c243)" style="fill: none; stroke: #0000ff; stroke-width: 2; stroke-linecap: round"/>
    <path d="M 323.500135 32.158144 
L 321.628563 43.180722 
L 313.933444 35.069918 
L 323.500135 32.158144 
z
" clip-path="url(#pa59886c243)" style="fill: #0000ff; stroke: #0000ff; stroke-width: 2; stroke-linecap: round"/>
   </g>
   <g id="patch_19">
    <path d="M 337.683957 15.780241 
Q 347.05804 31.885293 355.307273 46.057806 
" clip-path="url(#pa59886c243)" style="fill: none; stroke: #0000ff; stroke-width: 2; stroke-linecap: round"/>
    <path d="M 354.598075 34.899982 
L 355.307273 46.057806 
L 345.955495 39.93047 
L 354.598075 34.899982 
z
" clip-path="url(#pa59886c243)" style="fill: #0000ff; stroke: #0000ff; stroke-width: 2; stroke-linecap: round"/>
   </g>
   <g id="patch_20">
    <path d="M 361.015146 22.873938 
Q 374.277762 37.796708 386.054944 51.048104 
" clip-path="url(#pa59886c243)" style="fill: none; stroke: #0000ff; stroke-width: 2; stroke-linecap: round"/>
    <path d="M 383.149188 40.251967 
L 386.054944 51.048104 
L 375.67458 46.895026 
L 383.149188 40.251967 
z
" clip-path="url(#pa59886c243)" style="fill: #0000ff; stroke: #0000ff; stroke-width: 2; stroke-linecap: round"/>
   </g>
   <g id="patch_21">
    <path d="M 381.542981 32.897916 
Q 398.226902 46.150022 413.159893 58.011358 
" clip-path="url(#pa59886c243)" style="fill: none; stroke: #0000ff; stroke-width: 2; stroke-linecap: round"/>
    <path d="M 408.439354 47.876443 
L 413.159893 58.011358 
L 402.219637 55.70684 
L 408.439354 47.876443 
z
" clip-path="url(#pa59886c243)" style="fill: #0000ff; stroke: #0000ff; stroke-width: 2; stroke-linecap: round"/>
   </g>
   <g id="patch_22">
    <path d="M 398.825248 45.598953 
Q 418.389547 56.73422 436.010501 66.763408 
" clip-path="url(#pa59886c243)" style="fill: none; stroke: #0000ff; stroke-width: 2; stroke-linecap: round"/>
    <path d="M 429.792868 57.471421 
L 436.010501 66.763408 
L 424.846331 66.162323 
L 429.792868 57.471421 
z
" clip-path="url(#pa59886c243)" style="fill: #0000ff; stroke: #0000ff; stroke-width: 2; stroke-linecap: round"/>
   </g>
   <g id="text_1">
    <!-- $Q$ -->
    <g transform="translate(405.588414 80.213564) scale(0.1728 -0.1728)">
     <defs>
      <path id="Cmmi10-51" d="M 1947 -141 
Q 1466 -141 1094 79 
Q 722 300 520 692 
Q 319 1084 319 1563 
Q 319 2259 714 2950 
Q 1109 3641 1756 4077 
Q 2403 4513 3109 4513 
Q 3475 4513 3778 4381 
Q 4081 4250 4290 4017 
Q 4500 3784 4614 3471 
Q 4728 3159 4728 2791 
Q 4728 2366 4581 1936 
Q 4434 1506 4171 1136 
Q 3909 766 3559 484 
Q 3209 203 2809 38 
Q 2850 -256 2934 -425 
Q 3019 -594 3256 -594 
Q 3506 -594 3726 -412 
Q 3947 -231 4006 13 
Q 4019 72 4078 72 
Q 4147 72 4147 -13 
Q 4100 -219 4008 -430 
Q 3916 -641 3786 -823 
Q 3656 -1006 3478 -1123 
Q 3300 -1241 3084 -1241 
Q 2547 -1241 2547 -550 
Q 2547 -509 2562 -332 
Q 2578 -156 2578 -44 
Q 2269 -141 1947 -141 
z
M 1709 300 
Q 1709 44 1991 44 
Q 2275 44 2591 184 
L 2591 244 
Q 2591 503 2509 648 
Q 2428 794 2194 794 
Q 2078 794 1964 723 
Q 1850 653 1779 539 
Q 1709 425 1709 300 
z
M 1544 288 
Q 1544 456 1637 612 
Q 1731 769 1881 864 
Q 2031 959 2203 959 
Q 2481 959 2607 771 
Q 2734 584 2778 281 
Q 3188 525 3500 978 
Q 3813 1431 3977 1973 
Q 4141 2516 4141 3003 
Q 4141 3356 4023 3656 
Q 3906 3956 3664 4140 
Q 3422 4325 3066 4325 
Q 2722 4325 2403 4156 
Q 2084 3988 1813 3706 
Q 1550 3434 1342 3032 
Q 1134 2631 1021 2193 
Q 909 1756 909 1356 
Q 909 947 1068 612 
Q 1228 278 1569 128 
Q 1544 194 1544 288 
z
" transform="scale(0.015625)"/>
     </defs>
     <use xlink:href="#Cmmi10-51" transform="translate(0 0.484375)"/>
    </g>
   </g>
   <g id="text_2">
    <!-- $P$ -->
    <g transform="translate(127.380758 197.375018) scale(0.1728 -0.1728)">
     <defs>
      <path id="Cmmi10-50" d="M 313 0 
Q 250 0 250 84 
Q 253 100 262 139 
Q 272 178 289 201 
Q 306 225 331 225 
Q 722 225 878 269 
Q 959 297 997 441 
L 1875 3956 
Q 1888 4019 1888 4044 
Q 1888 4113 1813 4122 
Q 1691 4147 1350 4147 
Q 1288 4147 1288 4231 
Q 1291 4247 1300 4286 
Q 1309 4325 1326 4348 
Q 1344 4372 1369 4372 
L 3578 4372 
Q 3881 4372 4165 4264 
Q 4450 4156 4631 3934 
Q 4813 3713 4813 3397 
Q 4813 2991 4527 2672 
Q 4241 2353 3814 2175 
Q 3388 1997 2988 1997 
L 1947 1997 
L 1556 416 
Q 1544 353 1544 325 
Q 1544 300 1551 283 
Q 1559 266 1573 261 
Q 1588 256 1619 250 
Q 1741 225 2081 225 
Q 2144 225 2144 141 
Q 2122 50 2109 25 
Q 2097 0 2034 0 
L 313 0 
z
M 1978 2188 
L 2875 2188 
Q 3497 2188 3822 2522 
Q 3988 2688 4092 3000 
Q 4197 3313 4197 3566 
Q 4197 3881 3956 4014 
Q 3716 4147 3359 4147 
L 2747 4147 
Q 2572 4147 2515 4117 
Q 2459 4088 2413 3928 
L 1978 2188 
z
" transform="scale(0.015625)"/>
     </defs>
     <use xlink:href="#Cmmi10-50" transform="translate(0 0.6875)"/>
    </g>
   </g>
  </g>
 </g>
 <defs>
  <clipPath id="pa59886c243">
   <rect x="7.2" y="7.2" width="439.2" height="189.042246"/>
  </clipPath>
 </defs>
</svg>
