<?xml version="1.0" encoding="utf-8" standalone="no"?>
<!DOCTYPE svg PUBLIC "-//W3C//DTD SVG 1.1//EN"
  "http://www.w3.org/Graphics/SVG/1.1/DTD/svg11.dtd">
<svg xmlns:xlink="http://www.w3.org/1999/xlink" width="451.001801pt" height="221.176101pt" viewBox="0 0 451.001801 221.176101" xmlns="http://www.w3.org/2000/svg" version="1.1">
 <metadata>
  <rdf:RDF xmlns:dc="http://purl.org/dc/elements/1.1/" xmlns:cc="http://creativecommons.org/ns#" xmlns:rdf="http://www.w3.org/1999/02/22-rdf-syntax-ns#">
   <cc:Work>
    <dc:type rdf:resource="http://purl.org/dc/dcmitype/StillImage"/>
    <dc:date>2025-02-05T12:02:46.976755</dc:date>
    <dc:format>image/svg+xml</dc:format>
    <dc:creator>
     <cc:Agent>
      <dc:title>Matplotlib v3.8.0, https://matplotlib.org/</dc:title>
     </cc:Agent>
    </dc:creator>
   </cc:Work>
  </rdf:RDF>
 </metadata>
 <defs>
  <style type="text/css">*{stroke-linejoin: round; stroke-linecap: butt}</style>
 </defs>
 <g id="figure_1">
  <g id="patch_1">
   <path d="M 0 221.176101 
L 451.001801 221.176101 
L 451.001801 0 
L 0 0 
z
" style="fill: #ffffff"/>
  </g>
  <g id="axes_1">
   <g id="patch_2">
    <path d="M 7.2 205.530061 
L 427.574046 205.530061 
L 427.574046 15.64604 
L 7.2 15.64604 
z
" style="fill: #ffffff"/>
   </g>
   <g id="PathCollection_1">
    <path d="M 119.310296 191.657614 
C 120.247931 191.657614 121.147289 191.285088 121.810296 190.62208 
C 122.473304 189.959073 122.84583 189.059715 122.84583 188.12208 
C 122.84583 187.184446 122.473304 186.285088 121.810296 185.62208 
C 121.147289 184.959073 120.247931 184.586546 119.310296 184.586546 
C 118.372662 184.586546 117.473304 184.959073 116.810296 185.62208 
C 116.147289 186.285088 115.774762 187.184446 115.774762 188.12208 
C 115.774762 189.059715 116.147289 189.959073 116.810296 190.62208 
C 117.473304 191.285088 118.372662 191.657614 119.310296 191.657614 
z
" clip-path="url(#p6d4129be8b)"/>
   </g>
   <g id="PathCollection_2">
    <path d="M 75.759075 160.081724 
C 76.696709 160.081724 77.596067 159.709198 78.259075 159.04619 
C 78.922082 158.383183 79.294608 157.483825 79.294608 156.54619 
C 79.294608 155.608556 78.922082 154.709198 78.259075 154.04619 
C 77.596067 153.383183 76.696709 153.010656 75.759075 153.010656 
C 74.82144 153.010656 73.922082 153.383183 73.259075 154.04619 
C 72.596067 154.709198 72.223541 155.608556 72.223541 156.54619 
C 72.223541 157.483825 72.596067 158.383183 73.259075 159.04619 
C 73.922082 159.709198 74.82144 160.081724 75.759075 160.081724 
z
" clip-path="url(#p6d4129be8b)"/>
   </g>
   <g id="PathCollection_3">
    <path d="M 80.140879 118.794535 
C 81.078513 118.794535 81.977871 118.422009 82.640879 117.759002 
C 83.303886 117.095994 83.676413 116.196636 83.676413 115.259002 
C 83.676413 114.321367 83.303886 113.422009 82.640879 112.759002 
C 81.977871 112.095994 81.078513 111.723468 80.140879 111.723468 
C 79.203244 111.723468 78.303886 112.095994 77.640879 112.759002 
C 76.977871 113.422009 76.605345 114.321367 76.605345 115.259002 
C 76.605345 116.196636 76.977871 117.095994 77.640879 117.759002 
C 78.303886 118.422009 79.203244 118.794535 80.140879 118.794535 
z
" clip-path="url(#p6d4129be8b)"/>
   </g>
   <g id="PathCollection_4">
    <path d="M 124.015663 77.757476 
C 124.953298 77.757476 125.852655 77.38495 126.515663 76.721943 
C 127.178671 76.058935 127.551197 75.159577 127.551197 74.221943 
C 127.551197 73.284308 127.178671 72.38495 126.515663 71.721943 
C 125.852655 71.058935 124.953298 70.686409 124.015663 70.686409 
C 123.078029 70.686409 122.178671 71.058935 121.515663 71.721943 
C 120.852655 72.38495 120.480129 73.284308 120.480129 74.221943 
C 120.480129 75.159577 120.852655 76.058935 121.515663 76.721943 
C 122.178671 77.38495 123.078029 77.757476 124.015663 77.757476 
z
" clip-path="url(#p6d4129be8b)"/>
   </g>
   <g id="PathCollection_5">
    <path d="M 267.644632 36.589555 
C 268.582266 36.589555 269.481624 36.217029 270.144632 35.554021 
C 270.807639 34.891013 271.180166 33.991655 271.180166 33.054021 
C 271.180166 32.116386 270.807639 31.217029 270.144632 30.554021 
C 269.481624 29.891013 268.582266 29.518487 267.644632 29.518487 
C 266.706997 29.518487 265.807639 29.891013 265.144632 30.554021 
C 264.481624 31.217029 264.109098 32.116386 264.109098 33.054021 
C 264.109098 33.991655 264.481624 34.891013 265.144632 35.554021 
C 265.807639 36.217029 266.706997 36.589555 267.644632 36.589555 
z
" clip-path="url(#p6d4129be8b)"/>
   </g>
   <g id="PathCollection_6">
    <path d="M 333.987436 48.933946 
C 334.925071 48.933946 335.824428 48.56142 336.487436 47.898412 
C 337.150444 47.235405 337.52297 46.336047 337.52297 45.398412 
C 337.52297 44.460778 337.150444 43.56142 336.487436 42.898412 
C 335.824428 42.235405 334.925071 41.862878 333.987436 41.862878 
C 333.049802 41.862878 332.150444 42.235405 331.487436 42.898412 
C 330.824428 43.56142 330.451902 44.460778 330.451902 45.398412 
C 330.451902 46.336047 330.824428 47.235405 331.487436 47.898412 
C 332.150444 48.56142 333.049802 48.933946 333.987436 48.933946 
z
" clip-path="url(#p6d4129be8b)"/>
   </g>
   <g id="PathCollection_7">
    <path d="M 378.913435 82.837996 
C 379.851069 82.837996 380.750427 82.46547 381.413435 81.802462 
C 382.076443 81.139454 382.448969 80.240097 382.448969 79.302462 
C 382.448969 78.364828 382.076443 77.46547 381.413435 76.802462 
C 380.750427 76.139454 379.851069 75.766928 378.913435 75.766928 
C 377.9758 75.766928 377.076443 76.139454 376.413435 76.802462 
C 375.750427 77.46547 375.377901 78.364828 375.377901 79.302462 
C 375.377901 80.240097 375.750427 81.139454 376.413435 81.802462 
C 377.076443 82.46547 377.9758 82.837996 378.913435 82.837996 
z
" clip-path="url(#p6d4129be8b)"/>
   </g>
   <g id="matplotlib.axis_1"/>
   <g id="matplotlib.axis_2"/>
   <g id="line2d_1">
    <path d="M 378.913435 79.302462 
L 376.095818 75.662697 
L 372.934039 71.999944 
L 369.286064 68.2188 
L 365.282951 64.51476 
L 361.028172 60.99778 
L 357.224539 58.162361 
L 352.323077 54.87497 
L 346.861726 51.62986 
L 341.915718 49.019955 
L 338.050818 47.173657 
L 334.536595 45.628901 
L 329.486241 43.614265 
L 323.0131 41.354759 
L 316.873657 39.515161 
L 312.084654 38.267983 
L 306.307965 36.966525 
L 302.409065 36.206218 
L 295.155308 35.029196 
L 287.032806 34.054548 
L 280.223284 33.498575 
L 272.815704 33.148373 
L 265.685695 33.049511 
L 258.727084 33.168501 
L 250.460568 33.575674 
L 244.616268 34.032229 
L 236.122487 34.937946 
L 228.188944 36.037544 
L 219.104157 37.592321 
L 211.826862 39.063277 
L 204.464203 40.755186 
L 197.824135 42.457531 
L 189.168109 44.931016 
L 182.635565 46.991834 
L 173.58131 50.132618 
L 165.137245 53.371737 
L 159.415197 55.745331 
L 152.747714 58.703394 
L 146.312858 61.766569 
L 140.785634 64.572737 
L 134.184304 68.154113 
L 127.673605 71.956084 
L 122.485494 75.199714 
L 117.328014 78.635876 
L 113.313913 81.474318 
L 107.829698 85.618745 
L 102.099499 90.338482 
L 99.148455 92.955413 
L 94.47238 97.420906 
L 90.151349 101.983271 
L 87.598423 104.933491 
L 84.73605 108.535458 
L 81.855755 112.578595 
L 80.316456 114.972955 
L 78.415405 118.24374 
L 76.550475 121.94096 
L 75.126605 125.289019 
L 73.944705 128.689001 
L 72.946728 132.496345 
L 72.475528 135.056414 
L 72.127008 138.171391 
L 72.033144 141.111041 
L 72.216385 144.450465 
L 72.732418 147.828858 
L 73.279836 150.111805 
L 74.123225 152.750063 
L 75.148876 155.264615 
L 76.330535 157.643837 
L 77.586309 159.794965 
L 79.743571 162.911203 
L 81.648531 165.253433 
L 84.286674 168.06585 
L 86.731057 170.345525 
L 89.201947 172.409064 
L 92.310748 174.736125 
L 95.644618 176.966829 
L 99.627129 179.345866 
L 104.49872 181.918938 
L 109.310068 184.16745 
L 114.727028 186.415902 
L 119.310296 188.12208 
L 119.310296 188.12208 
" clip-path="url(#p6d4129be8b)" style="fill: none; stroke: #000000; stroke-width: 2; stroke-linecap: square"/>
   </g>
   <g id="patch_3">
    <path d="M 119.310296 188.12208 
Q 96.331354 178.00042 75.39876 168.780125 
" clip-path="url(#p6d4129be8b)" style="fill: none; stroke: #0000ff; stroke-width: 2; stroke-linecap: round"/>
    <path d="M 82.53479 177.386929 
L 75.39876 168.780125 
L 86.565821 168.235384 
z
" clip-path="url(#p6d4129be8b)" style="fill: #0000ff; stroke: #0000ff; stroke-width: 2; stroke-linecap: round"/>
   </g>
   <g id="patch_4">
    <path d="M 119.310296 188.12208 
Q 97.534685 172.334135 77.569394 157.858724 
" clip-path="url(#p6d4129be8b)" style="fill: none; stroke: #ff0000; stroke-width: 2; stroke-linecap: round"/>
    <path d="M 82.730473 167.776549 
L 77.569394 157.858724 
L 88.600302 159.680556 
z
" clip-path="url(#p6d4129be8b)" style="fill: #ff0000; stroke: #ff0000; stroke-width: 2; stroke-linecap: round"/>
   </g>
   <g id="patch_5">
    <path d="M 75.759075 156.54619 
Q 45.521595 151.687178 17.491861 147.182939 
" clip-path="url(#p6d4129be8b)" style="fill: none; stroke: #0000ff; stroke-width: 2; stroke-linecap: round"/>
    <path d="M 26.571896 153.706201 
L 17.491861 147.182939 
L 28.158492 143.832868 
z
" clip-path="url(#p6d4129be8b)" style="fill: #0000ff; stroke: #0000ff; stroke-width: 2; stroke-linecap: round"/>
   </g>
   <g id="patch_6">
    <path d="M 75.759075 156.54619 
Q 77.949977 135.902596 79.90489 117.482582 
" clip-path="url(#p6d4129be8b)" style="fill: none; stroke: #ff0000; stroke-width: 2; stroke-linecap: round"/>
    <path d="M 73.877442 126.89905 
L 79.90489 117.482582 
L 83.821595 127.954421 
z
" clip-path="url(#p6d4129be8b)" style="fill: #ff0000; stroke: #ff0000; stroke-width: 2; stroke-linecap: round"/>
   </g>
   <g id="patch_7">
    <path d="M 80.140879 115.259002 
Q 50.6337 117.281187 23.357357 119.150489 
" clip-path="url(#p6d4129be8b)" style="fill: none; stroke: #0000ff; stroke-width: 2; stroke-linecap: round"/>
    <path d="M 33.675815 123.455073 
L 23.357357 119.150489 
L 32.992098 113.478474 
z
" clip-path="url(#p6d4129be8b)" style="fill: #0000ff; stroke: #0000ff; stroke-width: 2; stroke-linecap: round"/>
   </g>
   <g id="patch_8">
    <path d="M 80.140879 115.259002 
Q 102.078271 94.740472 122.382595 75.749388 
" clip-path="url(#p6d4129be8b)" style="fill: none; stroke: #ff0000; stroke-width: 2; stroke-linecap: round"/>
    <path d="M 111.663821 78.928677 
L 122.382595 75.749388 
L 118.494762 86.231981 
z
" clip-path="url(#p6d4129be8b)" style="fill: #ff0000; stroke: #ff0000; stroke-width: 2; stroke-linecap: round"/>
   </g>
   <g id="patch_9">
    <path d="M 124.015663 74.221943 
Q 101.820949 83.083638 81.702893 91.116185 
" clip-path="url(#p6d4129be8b)" style="fill: none; stroke: #0000ff; stroke-width: 2; stroke-linecap: round"/>
    <path d="M 92.844027 92.05167 
L 81.702893 91.116185 
L 89.135962 82.764568 
z
" clip-path="url(#p6d4129be8b)" style="fill: #0000ff; stroke: #0000ff; stroke-width: 2; stroke-linecap: round"/>
   </g>
   <g id="patch_10">
    <path d="M 124.015663 74.221943 
Q 195.830147 53.637982 265.495118 33.670129 
" clip-path="url(#p6d4129be8b)" style="fill: none; stroke: #ff0000; stroke-width: 2; stroke-linecap: round"/>
    <path d="M 254.504538 31.618991 
L 265.495118 33.670129 
L 257.259859 41.23191 
z
" clip-path="url(#p6d4129be8b)" style="fill: #ff0000; stroke: #ff0000; stroke-width: 2; stroke-linecap: round"/>
   </g>
   <g id="patch_11">
    <path d="M 267.644632 33.054021 
Q 269.388079 48.777037 270.88509 62.277606 
" clip-path="url(#p6d4129be8b)" style="fill: none; stroke: #0000ff; stroke-width: 2; stroke-linecap: round"/>
    <path d="M 274.752536 51.787474 
L 270.88509 62.277606 
L 264.813452 52.88957 
z
" clip-path="url(#p6d4129be8b)" style="fill: #0000ff; stroke: #0000ff; stroke-width: 2; stroke-linecap: round"/>
   </g>
   <g id="patch_12">
    <path d="M 267.644632 33.054021 
Q 300.816034 39.226217 331.7891 44.989368 
" clip-path="url(#p6d4129be8b)" style="fill: none; stroke: #ff0000; stroke-width: 2; stroke-linecap: round"/>
    <path d="M 322.872491 38.244438 
L 331.7891 44.989368 
L 321.04319 48.075698 
z
" clip-path="url(#p6d4129be8b)" style="fill: #ff0000; stroke: #ff0000; stroke-width: 2; stroke-linecap: round"/>
   </g>
   <g id="patch_13">
    <path d="M 333.987436 45.398412 
Q 346.788017 59.06403 358.059955 71.097701 
" clip-path="url(#p6d4129be8b)" style="fill: none; stroke: #0000ff; stroke-width: 2; stroke-linecap: round"/>
    <path d="M 354.872795 60.381264 
L 358.059955 71.097701 
L 347.57451 67.217567 
z
" clip-path="url(#p6d4129be8b)" style="fill: #0000ff; stroke: #0000ff; stroke-width: 2; stroke-linecap: round"/>
   </g>
   <g id="patch_14">
    <path d="M 333.987436 45.398412 
Q 356.450436 62.350437 377.128585 77.955499 
" clip-path="url(#p6d4129be8b)" style="fill: none; stroke: #ff0000; stroke-width: 2; stroke-linecap: round"/>
    <path d="M 372.158392 67.940651 
L 377.128585 77.955499 
L 366.13459 75.922744 
z
" clip-path="url(#p6d4129be8b)" style="fill: #ff0000; stroke: #ff0000; stroke-width: 2; stroke-linecap: round"/>
   </g>
   <g id="patch_15">
    <path d="M 378.913435 79.302462 
Q 399.201683 87.317404 417.410265 94.510768 
" clip-path="url(#p6d4129be8b)" style="fill: none; stroke: #0000ff; stroke-width: 2; stroke-linecap: round"/>
    <path d="M 409.946825 86.186282 
L 417.410265 94.510768 
L 406.272612 95.486828 
z
" clip-path="url(#p6d4129be8b)" style="fill: #0000ff; stroke: #0000ff; stroke-width: 2; stroke-linecap: round"/>
   </g>
   <g id="text_1">
    <!-- $P=\mathbf{r}_0$ -->
    <g transform="translate(92.938479 208.776882) scale(0.25 -0.25)">
     <defs>
      <path id="Cmmi10-50" d="M 313 0 
Q 250 0 250 84 
Q 253 100 262 139 
Q 272 178 289 201 
Q 306 225 331 225 
Q 722 225 878 269 
Q 959 297 997 441 
L 1875 3956 
Q 1888 4019 1888 4044 
Q 1888 4113 1813 4122 
Q 1691 4147 1350 4147 
Q 1288 4147 1288 4231 
Q 1291 4247 1300 4286 
Q 1309 4325 1326 4348 
Q 1344 4372 1369 4372 
L 3578 4372 
Q 3881 4372 4165 4264 
Q 4450 4156 4631 3934 
Q 4813 3713 4813 3397 
Q 4813 2991 4527 2672 
Q 4241 2353 3814 2175 
Q 3388 1997 2988 1997 
L 1947 1997 
L 1556 416 
Q 1544 353 1544 325 
Q 1544 300 1551 283 
Q 1559 266 1573 261 
Q 1588 256 1619 250 
Q 1741 225 2081 225 
Q 2144 225 2144 141 
Q 2122 50 2109 25 
Q 2097 0 2034 0 
L 313 0 
z
M 1978 2188 
L 2875 2188 
Q 3497 2188 3822 2522 
Q 3988 2688 4092 3000 
Q 4197 3313 4197 3566 
Q 4197 3881 3956 4014 
Q 3716 4147 3359 4147 
L 2747 4147 
Q 2572 4147 2515 4117 
Q 2459 4088 2413 3928 
L 1978 2188 
z
" transform="scale(0.015625)"/>
      <path id="Cmr10-3d" d="M 481 850 
Q 428 850 393 890 
Q 359 931 359 978 
Q 359 1031 393 1068 
Q 428 1106 481 1106 
L 4500 1106 
Q 4547 1106 4581 1068 
Q 4616 1031 4616 978 
Q 4616 931 4581 890 
Q 4547 850 4500 850 
L 481 850 
z
M 481 2094 
Q 428 2094 393 2131 
Q 359 2169 359 2222 
Q 359 2269 393 2309 
Q 428 2350 481 2350 
L 4500 2350 
Q 4547 2350 4581 2309 
Q 4616 2269 4616 2222 
Q 4616 2169 4581 2131 
Q 4547 2094 4500 2094 
L 481 2094 
z
" transform="scale(0.015625)"/>
      <path id="Cmb10-72" d="M 91 0 
L 91 325 
L 531 325 
L 531 2322 
Q 531 2503 91 2503 
L 91 2828 
L 1178 2881 
L 1178 2356 
Q 1269 2594 1436 2737 
Q 1603 2881 1838 2881 
Q 2006 2881 2173 2822 
Q 2341 2763 2450 2641 
Q 2559 2519 2559 2344 
Q 2559 2178 2443 2059 
Q 2328 1941 2156 1941 
Q 1984 1941 1868 2059 
Q 1753 2178 1753 2344 
Q 1753 2513 1856 2625 
L 1838 2625 
Q 1488 2625 1367 2248 
Q 1247 1872 1247 1416 
L 1247 325 
L 1806 325 
L 1806 0 
L 91 0 
z
" transform="scale(0.015625)"/>
      <path id="Cmr10-30" d="M 1600 -141 
Q 816 -141 533 504 
Q 250 1150 250 2041 
Q 250 2597 351 3087 
Q 453 3578 754 3920 
Q 1056 4263 1600 4263 
Q 2022 4263 2290 4056 
Q 2559 3850 2700 3523 
Q 2841 3197 2892 2823 
Q 2944 2450 2944 2041 
Q 2944 1491 2842 1011 
Q 2741 531 2444 195 
Q 2147 -141 1600 -141 
z
M 1600 25 
Q 1956 25 2131 390 
Q 2306 756 2347 1200 
Q 2388 1644 2388 2144 
Q 2388 2625 2347 3031 
Q 2306 3438 2132 3767 
Q 1959 4097 1600 4097 
Q 1238 4097 1063 3765 
Q 888 3434 847 3029 
Q 806 2625 806 2144 
Q 806 1788 823 1472 
Q 841 1156 916 820 
Q 991 484 1158 254 
Q 1325 25 1600 25 
z
" transform="scale(0.015625)"/>
     </defs>
     <use xlink:href="#Cmmi10-50" transform="translate(0 0.6875)"/>
     <use xlink:href="#Cmr10-3d" transform="translate(81.767578 0.6875)"/>
     <use xlink:href="#Cmb10-72" transform="translate(177.011719 0.6875)"/>
     <use xlink:href="#Cmr10-30" transform="translate(224.151641 -16.31875) scale(0.7)"/>
    </g>
   </g>
   <g id="text_2">
    <!-- $\mathbf{r}_1$ -->
    <g transform="translate(50.87771 170.32281) scale(0.25 -0.25)">
     <defs>
      <path id="Cmr10-31" d="M 594 0 
L 594 225 
Q 1394 225 1394 428 
L 1394 3788 
Q 1063 3628 556 3628 
L 556 3853 
Q 1341 3853 1741 4263 
L 1831 4263 
Q 1853 4263 1873 4245 
Q 1894 4228 1894 4206 
L 1894 428 
Q 1894 225 2694 225 
L 2694 0 
L 594 0 
z
" transform="scale(0.015625)"/>
     </defs>
     <use xlink:href="#Cmb10-72" transform="translate(0 0.984375)"/>
     <use xlink:href="#Cmr10-31" transform="translate(47.139922 -16.021875) scale(0.7)"/>
    </g>
   </g>
   <g id="text_3">
    <!-- $\mathbf{r}_2$ -->
    <g transform="translate(82.772243 122.157439) scale(0.25 -0.25)">
     <defs>
      <path id="Cmr10-32" d="M 319 0 
L 319 172 
Q 319 188 331 206 
L 1325 1306 
Q 1550 1550 1690 1715 
Q 1831 1881 1968 2097 
Q 2106 2313 2186 2536 
Q 2266 2759 2266 3009 
Q 2266 3272 2169 3511 
Q 2072 3750 1880 3894 
Q 1688 4038 1416 4038 
Q 1138 4038 916 3870 
Q 694 3703 603 3438 
Q 628 3444 672 3444 
Q 816 3444 917 3347 
Q 1019 3250 1019 3097 
Q 1019 2950 917 2848 
Q 816 2747 672 2747 
Q 522 2747 420 2851 
Q 319 2956 319 3097 
Q 319 3338 409 3548 
Q 500 3759 670 3923 
Q 841 4088 1055 4175 
Q 1269 4263 1509 4263 
Q 1875 4263 2190 4108 
Q 2506 3953 2690 3670 
Q 2875 3388 2875 3009 
Q 2875 2731 2753 2481 
Q 2631 2231 2440 2026 
Q 2250 1822 1953 1562 
Q 1656 1303 1563 1216 
L 838 519 
L 1453 519 
Q 1906 519 2211 526 
Q 2516 534 2534 550 
Q 2609 631 2688 1141 
L 2875 1141 
L 2694 0 
L 319 0 
z
" transform="scale(0.015625)"/>
     </defs>
     <use xlink:href="#Cmb10-72" transform="translate(0 0.984375)"/>
     <use xlink:href="#Cmr10-32" transform="translate(47.139922 -16.021875) scale(0.7)"/>
    </g>
   </g>
   <g id="text_4">
    <!-- $\mathbf{r}_{n-2}$ -->
    <g transform="translate(241.394632 26.196094) scale(0.25 -0.25)">
     <defs>
      <path id="Cmmi10-6e" d="M 494 109 
Q 494 147 500 166 
L 978 2075 
Q 1025 2253 1025 2388 
Q 1025 2663 838 2663 
Q 638 2663 541 2423 
Q 444 2184 353 1819 
Q 353 1800 334 1789 
Q 316 1778 300 1778 
L 225 1778 
Q 203 1778 187 1801 
Q 172 1825 172 1844 
Q 241 2122 305 2315 
Q 369 2509 505 2668 
Q 641 2828 844 2828 
Q 1084 2828 1268 2676 
Q 1453 2525 1453 2291 
Q 1644 2541 1900 2684 
Q 2156 2828 2444 2828 
Q 2672 2828 2837 2750 
Q 3003 2672 3095 2514 
Q 3188 2356 3188 2138 
Q 3188 1875 3070 1503 
Q 2953 1131 2778 672 
Q 2688 463 2688 288 
Q 2688 97 2834 97 
Q 3084 97 3251 365 
Q 3419 634 3488 941 
Q 3500 978 3541 978 
L 3616 978 
Q 3641 978 3658 962 
Q 3675 947 3675 922 
Q 3675 916 3669 903 
Q 3581 541 3364 234 
Q 3147 -72 2822 -72 
Q 2597 -72 2437 83 
Q 2278 238 2278 459 
Q 2278 578 2328 709 
Q 2409 919 2514 1209 
Q 2619 1500 2686 1765 
Q 2753 2031 2753 2234 
Q 2753 2413 2679 2538 
Q 2606 2663 2431 2663 
Q 2197 2663 2000 2559 
Q 1803 2456 1656 2286 
Q 1509 2116 1388 1881 
L 953 141 
Q 931 53 854 -9 
Q 778 -72 684 -72 
Q 606 -72 550 -22 
Q 494 28 494 109 
z
" transform="scale(0.015625)"/>
      <path id="Cmsy10-a1" d="M 653 1472 
Q 600 1472 565 1512 
Q 531 1553 531 1600 
Q 531 1647 565 1687 
Q 600 1728 653 1728 
L 4325 1728 
Q 4375 1728 4408 1687 
Q 4441 1647 4441 1600 
Q 4441 1553 4408 1512 
Q 4375 1472 4325 1472 
L 653 1472 
z
" transform="scale(0.015625)"/>
     </defs>
     <use xlink:href="#Cmb10-72" transform="translate(0 0.984375)"/>
     <use xlink:href="#Cmmi10-6e" transform="translate(47.139922 -16.021875) scale(0.7)"/>
     <use xlink:href="#Cmsy10-a1" transform="translate(101.437773 -16.021875) scale(0.7)"/>
     <use xlink:href="#Cmr10-32" transform="translate(168.108672 -16.021875) scale(0.7)"/>
    </g>
   </g>
   <g id="text_5">
    <!-- $\mathbf{r}_{n-1}$ -->
    <g transform="translate(321.493801 38.540485) scale(0.25 -0.25)">
     <use xlink:href="#Cmb10-72" transform="translate(0 0.984375)"/>
     <use xlink:href="#Cmmi10-6e" transform="translate(47.139922 -16.021875) scale(0.7)"/>
     <use xlink:href="#Cmsy10-a1" transform="translate(101.437773 -16.021875) scale(0.7)"/>
     <use xlink:href="#Cmr10-31" transform="translate(168.108672 -16.021875) scale(0.7)"/>
    </g>
   </g>
   <g id="text_6">
    <!-- $Q=\mathbf{r}_{n}$ -->
    <g transform="translate(371.801801 71.068899) scale(0.25 -0.25)">
     <defs>
      <path id="Cmmi10-51" d="M 1947 -141 
Q 1466 -141 1094 79 
Q 722 300 520 692 
Q 319 1084 319 1563 
Q 319 2259 714 2950 
Q 1109 3641 1756 4077 
Q 2403 4513 3109 4513 
Q 3475 4513 3778 4381 
Q 4081 4250 4290 4017 
Q 4500 3784 4614 3471 
Q 4728 3159 4728 2791 
Q 4728 2366 4581 1936 
Q 4434 1506 4171 1136 
Q 3909 766 3559 484 
Q 3209 203 2809 38 
Q 2850 -256 2934 -425 
Q 3019 -594 3256 -594 
Q 3506 -594 3726 -412 
Q 3947 -231 4006 13 
Q 4019 72 4078 72 
Q 4147 72 4147 -13 
Q 4100 -219 4008 -430 
Q 3916 -641 3786 -823 
Q 3656 -1006 3478 -1123 
Q 3300 -1241 3084 -1241 
Q 2547 -1241 2547 -550 
Q 2547 -509 2562 -332 
Q 2578 -156 2578 -44 
Q 2269 -141 1947 -141 
z
M 1709 300 
Q 1709 44 1991 44 
Q 2275 44 2591 184 
L 2591 244 
Q 2591 503 2509 648 
Q 2428 794 2194 794 
Q 2078 794 1964 723 
Q 1850 653 1779 539 
Q 1709 425 1709 300 
z
M 1544 288 
Q 1544 456 1637 612 
Q 1731 769 1881 864 
Q 2031 959 2203 959 
Q 2481 959 2607 771 
Q 2734 584 2778 281 
Q 3188 525 3500 978 
Q 3813 1431 3977 1973 
Q 4141 2516 4141 3003 
Q 4141 3356 4023 3656 
Q 3906 3956 3664 4140 
Q 3422 4325 3066 4325 
Q 2722 4325 2403 4156 
Q 2084 3988 1813 3706 
Q 1550 3434 1342 3032 
Q 1134 2631 1021 2193 
Q 909 1756 909 1356 
Q 909 947 1068 612 
Q 1228 278 1569 128 
Q 1544 194 1544 288 
z
" transform="scale(0.015625)"/>
     </defs>
     <use xlink:href="#Cmmi10-51" transform="translate(0 0.484375)"/>
     <use xlink:href="#Cmr10-3d" transform="translate(96.5625 0.484375)"/>
     <use xlink:href="#Cmb10-72" transform="translate(191.806641 0.484375)"/>
     <use xlink:href="#Cmmi10-6e" transform="translate(238.946562 -16.521875) scale(0.7)"/>
    </g>
   </g>
   <g id="text_7">
    <!-- $\Delta \mathbf{r}_i=\mathbf{r}_{i}-\mathbf{r}_{i-1}$ -->
    <g style="fill: #ff0000" transform="translate(113.280309 93.02146) scale(0.25 -0.25)">
     <defs>
      <path id="Cmr10-a2" d="M 347 0 
Q 294 0 294 50 
Q 297 56 298 59 
Q 300 63 300 72 
L 2503 4513 
Q 2531 4581 2619 4581 
L 2706 4581 
Q 2794 4581 2822 4513 
L 5025 72 
Q 5028 66 5029 61 
Q 5031 56 5031 50 
Q 5031 0 4978 0 
L 347 0 
z
M 769 513 
L 4141 513 
L 2456 3909 
L 769 513 
z
" transform="scale(0.015625)"/>
      <path id="Cmmi10-69" d="M 500 459 
Q 500 578 550 709 
L 1069 2088 
Q 1153 2322 1153 2472 
Q 1153 2663 1013 2663 
Q 759 2663 595 2402 
Q 431 2141 353 1819 
Q 341 1778 300 1778 
L 225 1778 
Q 172 1778 172 1838 
L 172 1856 
Q 275 2238 487 2533 
Q 700 2828 1025 2828 
Q 1253 2828 1411 2678 
Q 1569 2528 1569 2297 
Q 1569 2178 1516 2047 
L 997 672 
Q 909 459 909 288 
Q 909 97 1056 97 
Q 1306 97 1473 364 
Q 1641 631 1709 941 
Q 1722 978 1759 978 
L 1838 978 
Q 1863 978 1878 961 
Q 1894 944 1894 922 
Q 1894 916 1888 903 
Q 1800 541 1583 234 
Q 1366 -72 1044 -72 
Q 819 -72 659 83 
Q 500 238 500 459 
z
M 1222 3878 
Q 1222 4013 1334 4122 
Q 1447 4231 1581 4231 
Q 1691 4231 1761 4164 
Q 1831 4097 1831 3994 
Q 1831 3850 1717 3742 
Q 1603 3634 1466 3634 
Q 1363 3634 1292 3704 
Q 1222 3775 1222 3878 
z
" transform="scale(0.015625)"/>
     </defs>
     <use xlink:href="#Cmr10-a2" transform="translate(0 0.421875)"/>
     <use xlink:href="#Cmb10-72" transform="translate(83.300781 0.421875)"/>
     <use xlink:href="#Cmmi10-69" transform="translate(130.440703 -16.584375) scale(0.7)"/>
     <use xlink:href="#Cmr10-3d" transform="translate(178.47332 0.421875)"/>
     <use xlink:href="#Cmb10-72" transform="translate(273.717461 0.421875)"/>
     <use xlink:href="#Cmmi10-69" transform="translate(320.857383 -16.584375) scale(0.7)"/>
     <use xlink:href="#Cmsy10-a1" transform="translate(368.89 0.421875)"/>
     <use xlink:href="#Cmb10-72" transform="translate(464.134141 0.421875)"/>
     <use xlink:href="#Cmmi10-69" transform="translate(511.274063 -16.584375) scale(0.7)"/>
     <use xlink:href="#Cmsy10-a1" transform="translate(547.661758 -16.584375) scale(0.7)"/>
     <use xlink:href="#Cmr10-31" transform="translate(614.332656 -16.584375) scale(0.7)"/>
    </g>
   </g>
  </g>
 </g>
 <defs>
  <clipPath id="p6d4129be8b">
   <rect x="7.2" y="15.64604" width="420.374046" height="189.88402"/>
  </clipPath>
 </defs>
</svg>
