<?xml version="1.0" encoding="utf-8" standalone="no"?>
<!DOCTYPE svg PUBLIC "-//W3C//DTD SVG 1.1//EN"
  "http://www.w3.org/Graphics/SVG/1.1/DTD/svg11.dtd">
<svg xmlns:xlink="http://www.w3.org/1999/xlink" width="452.367692pt" height="250.243796pt" viewBox="0 0 452.367692 250.243796" xmlns="http://www.w3.org/2000/svg" version="1.1">
 <metadata>
  <rdf:RDF xmlns:dc="http://purl.org/dc/elements/1.1/" xmlns:cc="http://creativecommons.org/ns#" xmlns:rdf="http://www.w3.org/1999/02/22-rdf-syntax-ns#">
   <cc:Work>
    <dc:type rdf:resource="http://purl.org/dc/dcmitype/StillImage"/>
    <dc:date>2025-02-05T08:52:54.356531</dc:date>
    <dc:format>image/svg+xml</dc:format>
    <dc:creator>
     <cc:Agent>
      <dc:title>Matplotlib v3.6.2, https://matplotlib.org/</dc:title>
     </cc:Agent>
    </dc:creator>
   </cc:Work>
  </rdf:RDF>
 </metadata>
 <defs>
  <style type="text/css">*{stroke-linejoin: round; stroke-linecap: butt}</style>
 </defs>
 <g id="figure_1">
  <g id="patch_1">
   <path d="M 0 250.243796 
L 452.367692 250.243796 
L 452.367692 -0 
L 0 -0 
z
" style="fill: #ffffff"/>
  </g>
  <g id="axes_1">
   <g id="patch_2">
    <path d="M 7.2 237.800292 
L 445.167692 237.800292 
L 445.167692 7.2 
L 7.2 7.2 
z
" style="fill: #ffffff"/>
   </g>
   <g id="PathCollection_1">
    <path d="M 77.716409 218.833674 
C 78.654044 218.833674 79.553401 218.461147 80.216409 217.79814 
C 80.879417 217.135132 81.251943 216.235774 81.251943 215.29814 
C 81.251943 214.360505 80.879417 213.461147 80.216409 212.79814 
C 79.553401 212.135132 78.654044 211.762606 77.716409 211.762606 
C 76.778774 211.762606 75.879417 212.135132 75.216409 212.79814 
C 74.553401 213.461147 74.180875 214.360505 74.180875 215.29814 
C 74.180875 216.235774 74.553401 217.135132 75.216409 217.79814 
C 75.879417 218.461147 76.778774 218.833674 77.716409 218.833674 
z
" clip-path="url(#p7b8c5d3770)"/>
   </g>
   <g id="PathCollection_2">
    <path d="M 418.677705 75.910601 
C 419.61534 75.910601 420.514697 75.538075 421.177705 74.875068 
C 421.840713 74.21206 422.213239 73.312702 422.213239 72.375068 
C 422.213239 71.437433 421.840713 70.538075 421.177705 69.875068 
C 420.514697 69.21206 419.61534 68.839534 418.677705 68.839534 
C 417.740071 68.839534 416.840713 69.21206 416.177705 69.875068 
C 415.514697 70.538075 415.142171 71.437433 415.142171 72.375068 
C 415.142171 73.312702 415.514697 74.21206 416.177705 74.875068 
C 416.840713 75.538075 417.740071 75.910601 418.677705 75.910601 
z
" clip-path="url(#p7b8c5d3770)"/>
   </g>
   <g id="matplotlib.axis_1"/>
   <g id="matplotlib.axis_2"/>
   <g id="line2d_1">
    <path d="M 418.677705 72.375068 
L 416.002289 68.867719 
L 412.015236 64.110676 
L 409.954893 61.83992 
L 405.846526 57.63538 
L 401.64681 53.721779 
L 396.883182 49.681536 
L 391.766666 45.746132 
L 385.413212 41.35728 
L 380.738726 38.434902 
L 377.119875 36.331912 
L 369.396021 32.260508 
L 363.341619 29.425708 
L 356.38157 26.511619 
L 349.395527 23.922228 
L 341.802687 21.454011 
L 336.622869 19.960992 
L 331.098353 18.527867 
L 322.264243 16.555831 
L 316.261957 15.426465 
L 308.697667 14.230698 
L 299.329305 13.081171 
L 293.28147 12.523582 
L 284.501939 11.958798 
L 277.117033 11.698733 
L 268.308209 11.634621 
L 259.889661 11.814341 
L 253.027839 12.129489 
L 241.804431 12.96162 
L 235.792547 13.565225 
L 225.528912 14.844661 
L 216.641281 16.202342 
L 210.057379 17.35587 
L 201.016878 19.143396 
L 192.683092 20.999469 
L 182.081908 23.650202 
L 170.215648 27.006197 
L 165.573393 28.432684 
L 154.488362 32.103365 
L 146.715003 34.905648 
L 137.35289 38.540342 
L 128.587716 42.212163 
L 121.265829 45.4894 
L 113.568917 49.152914 
L 105.865581 53.058646 
L 96.943732 57.906472 
L 88.009761 63.146491 
L 83.873033 65.717144 
L 76.131575 70.801813 
L 70.331427 74.872032 
L 63.744245 79.80602 
L 58.504734 84.003376 
L 53.648702 88.145685 
L 50.140808 91.312565 
L 45.810311 95.458184 
L 40.590775 100.873593 
L 36.268521 105.796562 
L 33.223326 109.572553 
L 29.801983 114.211529 
L 27.367754 117.846765 
L 24.525295 122.580406 
L 22.386485 126.638607 
L 20.420683 130.950029 
L 19.242627 133.949807 
L 17.809706 138.325832 
L 16.902897 141.874194 
L 16.114089 146.217202 
L 15.858457 148.365568 
L 15.63417 152.06098 
L 15.679934 155.528694 
L 15.950456 158.721271 
L 16.321253 161.221604 
L 17.012758 164.440659 
L 17.72198 166.937697 
L 18.991253 170.458462 
L 20.572172 173.937602 
L 22.202707 176.921135 
L 24.220735 180.075741 
L 26.863835 183.607138 
L 29.085233 186.203843 
L 31.848547 189.086704 
L 34.965437 191.984304 
L 38.612789 195.007971 
L 42.54975 197.924476 
L 47.272436 201.048453 
L 51.355382 203.482914 
L 56.387545 206.204827 
L 61.889374 208.887437 
L 68.093671 211.606423 
L 75.388834 214.457229 
L 77.716409 215.29814 
L 77.716409 215.29814 
" clip-path="url(#p7b8c5d3770)" style="fill: none; stroke: #000000; stroke-width: 2; stroke-linecap: square"/>
   </g>
   <g id="text_1">
    <!-- $P$ -->
    <g transform="translate(80.250175 238.884421) scale(0.2 -0.2)">
     <defs>
      <path id="Cmmi10-50" d="M 313 0 
Q 250 0 250 84 
Q 253 100 262 139 
Q 272 178 289 201 
Q 306 225 331 225 
Q 722 225 878 269 
Q 959 297 997 441 
L 1875 3956 
Q 1888 4019 1888 4044 
Q 1888 4113 1813 4122 
Q 1691 4147 1350 4147 
Q 1288 4147 1288 4231 
Q 1291 4247 1300 4286 
Q 1309 4325 1326 4348 
Q 1344 4372 1369 4372 
L 3578 4372 
Q 3881 4372 4165 4264 
Q 4450 4156 4631 3934 
Q 4813 3713 4813 3397 
Q 4813 2991 4527 2672 
Q 4241 2353 3814 2175 
Q 3388 1997 2988 1997 
L 1947 1997 
L 1556 416 
Q 1544 353 1544 325 
Q 1544 300 1551 283 
Q 1559 266 1573 261 
Q 1588 256 1619 250 
Q 1741 225 2081 225 
Q 2144 225 2144 141 
Q 2122 50 2109 25 
Q 2097 0 2034 0 
L 313 0 
z
M 1978 2188 
L 2875 2188 
Q 3497 2188 3822 2522 
Q 3988 2688 4092 3000 
Q 4197 3313 4197 3566 
Q 4197 3881 3956 4014 
Q 3716 4147 3359 4147 
L 2747 4147 
Q 2572 4147 2515 4117 
Q 2459 4088 2413 3928 
L 1978 2188 
z
" transform="scale(0.015625)"/>
     </defs>
     <use xlink:href="#Cmmi10-50" transform="translate(0 0.6875)"/>
    </g>
   </g>
   <g id="text_2">
    <!-- $Q$ -->
    <g transform="translate(428.745237 95.961349) scale(0.2 -0.2)">
     <defs>
      <path id="Cmmi10-51" d="M 1947 -141 
Q 1466 -141 1094 79 
Q 722 300 520 692 
Q 319 1084 319 1563 
Q 319 2259 714 2950 
Q 1109 3641 1756 4077 
Q 2403 4513 3109 4513 
Q 3475 4513 3778 4381 
Q 4081 4250 4290 4017 
Q 4500 3784 4614 3471 
Q 4728 3159 4728 2791 
Q 4728 2366 4581 1936 
Q 4434 1506 4171 1136 
Q 3909 766 3559 484 
Q 3209 203 2809 38 
Q 2850 -256 2934 -425 
Q 3019 -594 3256 -594 
Q 3506 -594 3726 -412 
Q 3947 -231 4006 13 
Q 4019 72 4078 72 
Q 4147 72 4147 -13 
Q 4100 -219 4008 -430 
Q 3916 -641 3786 -823 
Q 3656 -1006 3478 -1123 
Q 3300 -1241 3084 -1241 
Q 2547 -1241 2547 -550 
Q 2547 -509 2562 -332 
Q 2578 -156 2578 -44 
Q 2269 -141 1947 -141 
z
M 1709 300 
Q 1709 44 1991 44 
Q 2275 44 2591 184 
L 2591 244 
Q 2591 503 2509 648 
Q 2428 794 2194 794 
Q 2078 794 1964 723 
Q 1850 653 1779 539 
Q 1709 425 1709 300 
z
M 1544 288 
Q 1544 456 1637 612 
Q 1731 769 1881 864 
Q 2031 959 2203 959 
Q 2481 959 2607 771 
Q 2734 584 2778 281 
Q 3188 525 3500 978 
Q 3813 1431 3977 1973 
Q 4141 2516 4141 3003 
Q 4141 3356 4023 3656 
Q 3906 3956 3664 4140 
Q 3422 4325 3066 4325 
Q 2722 4325 2403 4156 
Q 2084 3988 1813 3706 
Q 1550 3434 1342 3032 
Q 1134 2631 1021 2193 
Q 909 1756 909 1356 
Q 909 947 1068 612 
Q 1228 278 1569 128 
Q 1544 194 1544 288 
z
" transform="scale(0.015625)"/>
     </defs>
     <use xlink:href="#Cmmi10-51" transform="translate(0 0.484375)"/>
    </g>
   </g>
  </g>
 </g>
 <defs>
  <clipPath id="p7b8c5d3770">
   <rect x="7.2" y="7.2" width="437.967692" height="230.600292"/>
  </clipPath>
 </defs>
</svg>
