<?xml version="1.0" encoding="utf-8" standalone="no"?>
<!DOCTYPE svg PUBLIC "-//W3C//DTD SVG 1.1//EN"
  "http://www.w3.org/Graphics/SVG/1.1/DTD/svg11.dtd">
<svg xmlns:xlink="http://www.w3.org/1999/xlink" width="453.6pt" height="208.168752pt" viewBox="0 0 453.6 208.168752" xmlns="http://www.w3.org/2000/svg" version="1.1">
 <metadata>
  <rdf:RDF xmlns:dc="http://purl.org/dc/elements/1.1/" xmlns:cc="http://creativecommons.org/ns#" xmlns:rdf="http://www.w3.org/1999/02/22-rdf-syntax-ns#">
   <cc:Work>
    <dc:type rdf:resource="http://purl.org/dc/dcmitype/StillImage"/>
    <dc:date>2025-02-05T13:27:55.836285</dc:date>
    <dc:format>image/svg+xml</dc:format>
    <dc:creator>
     <cc:Agent>
      <dc:title>Matplotlib v3.8.0, https://matplotlib.org/</dc:title>
     </cc:Agent>
    </dc:creator>
   </cc:Work>
  </rdf:RDF>
 </metadata>
 <defs>
  <style type="text/css">*{stroke-linejoin: round; stroke-linecap: butt}</style>
 </defs>
 <g id="figure_1">
  <g id="patch_1">
   <path d="M 0 208.168752 
L 453.6 208.168752 
L 453.6 0 
L 0 0 
z
" style="fill: #ffffff"/>
  </g>
  <g id="axes_1">
   <g id="patch_2">
    <path d="M 7.2 196.242281 
L 446.4 196.242281 
L 446.4 7.2 
L 7.2 7.2 
z
" style="fill: #ffffff"/>
   </g>
   <g id="PathCollection_1">
    <path d="M 412.500414 64.17004 
C 413.438048 64.17004 414.337406 63.797514 415.000414 63.134506 
C 415.663422 62.471498 416.035948 61.57214 416.035948 60.634506 
C 416.035948 59.696871 415.663422 58.797514 415.000414 58.134506 
C 414.337406 57.471498 413.438048 57.098972 412.500414 57.098972 
C 411.562779 57.098972 410.663422 57.471498 410.000414 58.134506 
C 409.337406 58.797514 408.96488 59.696871 408.96488 60.634506 
C 408.96488 61.57214 409.337406 62.471498 410.000414 63.134506 
C 410.663422 63.797514 411.562779 64.17004 412.500414 64.17004 
z
" clip-path="url(#pfcf13ba78e)"/>
   </g>
   <g id="PathCollection_2">
    <path d="M 132.996758 181.331493 
C 133.934393 181.331493 134.833751 180.958967 135.496758 180.29596 
C 136.159766 179.632952 136.532292 178.733594 136.532292 177.79596 
C 136.532292 176.858325 136.159766 175.958967 135.496758 175.29596 
C 134.833751 174.632952 133.934393 174.260426 132.996758 174.260426 
C 132.059124 174.260426 131.159766 174.632952 130.496758 175.29596 
C 129.833751 175.958967 129.461224 176.858325 129.461224 177.79596 
C 129.461224 178.733594 129.833751 179.632952 130.496758 180.29596 
C 131.159766 180.958967 132.059124 181.331493 132.996758 181.331493 
z
" clip-path="url(#pfcf13ba78e)"/>
   </g>
   <g id="matplotlib.axis_1"/>
   <g id="matplotlib.axis_2"/>
   <g id="line2d_1">
    <path d="M 412.500414 60.634506 
L 409.833367 57.167206 
L 406.284357 53.016335 
L 402.424335 48.985762 
L 398.399051 45.218775 
L 395.617307 42.835278 
L 392.20487 40.124227 
L 387.047472 36.414636 
L 382.285451 33.34815 
L 376.077599 29.794207 
L 370.356476 26.905769 
L 365.057513 24.521918 
L 358.97669 22.095211 
L 353.943517 20.313354 
L 346.702273 18.076915 
L 340.646141 16.47824 
L 334.490296 15.086616 
L 330.701996 14.340076 
L 324.117264 13.230269 
L 316.329652 12.207945 
L 308.621649 11.486366 
L 299.651932 10.987896 
L 294.841903 10.864463 
L 285.992621 10.888009 
L 277.490928 11.204847 
L 270.028104 11.711847 
L 261.536876 12.541152 
L 251.322317 13.885847 
L 242.797125 15.292816 
L 234.013124 17.010272 
L 228.069443 18.326001 
L 220.199326 20.25942 
L 211.761718 22.576363 
L 202.049325 25.561713 
L 195.027272 27.937865 
L 186.122665 31.22348 
L 180.569491 33.432773 
L 171.427356 37.352597 
L 163.022016 41.28718 
L 156.769301 44.436253 
L 149.932388 48.115608 
L 142.700056 52.30296 
L 138.442321 54.924788 
L 131.079858 59.767397 
L 127.207863 62.490212 
L 120.557913 67.496511 
L 114.668558 72.342424 
L 110.963004 75.632261 
L 107.388338 79.018277 
L 102.941124 83.586416 
L 99.620286 87.320805 
L 97.202265 90.26159 
L 94.140923 94.331705 
L 91.966371 97.532359 
L 89.828615 101.025144 
L 88.173932 104.057104 
L 86.280567 108.058464 
L 84.740027 112.015417 
L 83.779849 115.079216 
L 83.105248 117.785631 
L 82.58669 120.564844 
L 82.21532 123.763476 
L 82.094427 126.735556 
L 82.217905 129.959409 
L 82.612329 133.143869 
L 83.15584 135.787712 
L 84.006189 138.738342 
L 85.37098 142.243917 
L 86.463646 144.496017 
L 87.751846 146.774671 
L 89.097187 148.854935 
L 91.729367 152.328387 
L 94.115981 155.007373 
L 96.382834 157.258321 
L 99.537913 160.035039 
L 102.641735 162.455199 
L 106.022673 164.817519 
L 110.191396 167.418131 
L 115.422026 170.295225 
L 119.12567 172.121416 
L 123.326267 174.01608 
L 128.275157 176.042036 
L 132.996758 177.79596 
L 132.996758 177.79596 
" clip-path="url(#pfcf13ba78e)" style="fill: none; stroke: #000000; stroke-width: 2; stroke-linecap: square"/>
   </g>
   <g id="patch_3">
    <path d="M 132.996758 177.79596 
Q 108.256309 166.898398 85.562207 156.902202 
" clip-path="url(#pfcf13ba78e)" style="fill: none; stroke: #0000ff; stroke-width: 2; stroke-linecap: round"/>
    <path d="M 92.698237 165.509007 
L 85.562207 156.902202 
L 96.729268 156.357461 
z
" clip-path="url(#pfcf13ba78e)" style="fill: #0000ff; stroke: #0000ff; stroke-width: 2; stroke-linecap: round"/>
   </g>
   <g id="patch_4">
    <path d="M 110.582315 167.64686 
Q 82.106125 158.440815 55.757579 149.922614 
" clip-path="url(#pfcf13ba78e)" style="fill: none; stroke: #0000ff; stroke-width: 2; stroke-linecap: round"/>
    <path d="M 63.734627 157.756305 
L 55.757579 149.922614 
L 66.81076 148.241191 
z
" clip-path="url(#pfcf13ba78e)" style="fill: #0000ff; stroke: #0000ff; stroke-width: 2; stroke-linecap: round"/>
   </g>
   <g id="patch_5">
    <path d="M 94.609381 155.518856 
Q 63.471035 148.334145 34.511511 141.652165 
" clip-path="url(#pfcf13ba78e)" style="fill: none; stroke: #0000ff; stroke-width: 2; stroke-linecap: round"/>
    <path d="M 43.131355 148.772437 
L 34.511511 141.652165 
L 45.379635 139.028452 
z
" clip-path="url(#pfcf13ba78e)" style="fill: #0000ff; stroke: #0000ff; stroke-width: 2; stroke-linecap: round"/>
   </g>
   <g id="patch_6">
    <path d="M 85.152498 141.745531 
Q 52.438005 136.856374 21.935019 132.297725 
" clip-path="url(#pfcf13ba78e)" style="fill: none; stroke: #0000ff; stroke-width: 2; stroke-linecap: round"/>
    <path d="M 31.086142 138.720883 
L 21.935019 132.297725 
L 32.564219 128.830722 
z
" clip-path="url(#pfcf13ba78e)" style="fill: #0000ff; stroke: #0000ff; stroke-width: 2; stroke-linecap: round"/>
   </g>
   <g id="patch_7">
    <path d="M 82.094479 126.720762 
Q 48.870316 124.335733 17.876483 122.110811 
" clip-path="url(#pfcf13ba78e)" style="fill: none; stroke: #0000ff; stroke-width: 2; stroke-linecap: round"/>
    <path d="M 27.492807 127.813995 
L 17.876483 122.110811 
L 28.208824 117.839661 
z
" clip-path="url(#pfcf13ba78e)" style="fill: #0000ff; stroke: #0000ff; stroke-width: 2; stroke-linecap: round"/>
   </g>
   <g id="patch_8">
    <path d="M 85.145013 110.88751 
Q 52.429273 111.141356 21.949533 111.377854 
" clip-path="url(#pfcf13ba78e)" style="fill: none; stroke: #0000ff; stroke-width: 2; stroke-linecap: round"/>
    <path d="M 31.988027 116.300114 
L 21.949533 111.377854 
L 31.910438 106.300415 
z
" clip-path="url(#pfcf13ba78e)" style="fill: #0000ff; stroke: #0000ff; stroke-width: 2; stroke-linecap: round"/>
   </g>
   <g id="patch_9">
    <path d="M 93.862811 94.724775 
Q 62.600037 97.672411 33.563458 100.410148 
" clip-path="url(#pfcf13ba78e)" style="fill: none; stroke: #0000ff; stroke-width: 2; stroke-linecap: round"/>
    <path d="M 43.98865 104.449376 
L 33.563458 100.410148 
L 43.049955 94.493531 
z
" clip-path="url(#pfcf13ba78e)" style="fill: #0000ff; stroke: #0000ff; stroke-width: 2; stroke-linecap: round"/>
   </g>
   <g id="patch_10">
    <path d="M 107.680175 78.733108 
Q 78.720295 84.346022 51.955632 89.533466 
" clip-path="url(#pfcf13ba78e)" style="fill: none; stroke: #0000ff; stroke-width: 2; stroke-linecap: round"/>
    <path d="M 62.724318 92.539359 
L 51.955632 89.533466 
L 60.821558 82.722053 
z
" clip-path="url(#pfcf13ba78e)" style="fill: #0000ff; stroke: #0000ff; stroke-width: 2; stroke-linecap: round"/>
   </g>
   <g id="patch_11">
    <path d="M 125.928882 63.419113 
Q 100.010453 71.584359 76.22476 79.077716 
" clip-path="url(#pfcf13ba78e)" style="fill: none; stroke: #0000ff; stroke-width: 2; stroke-linecap: round"/>
    <path d="M 87.265038 80.841879 
L 76.22476 79.077716 
L 84.260257 71.303992 
z
" clip-path="url(#pfcf13ba78e)" style="fill: #0000ff; stroke: #0000ff; stroke-width: 2; stroke-linecap: round"/>
   </g>
   <g id="patch_12">
    <path d="M 147.866346 49.279415 
Q 125.604162 59.801277 105.363617 69.367644 
" clip-path="url(#pfcf13ba78e)" style="fill: none; stroke: #0000ff; stroke-width: 2; stroke-linecap: round"/>
    <path d="M 116.541219 69.615063 
L 105.363617 69.367644 
L 112.268113 60.574014 
z
" clip-path="url(#pfcf13ba78e)" style="fill: #0000ff; stroke: #0000ff; stroke-width: 2; stroke-linecap: round"/>
   </g>
   <g id="patch_13">
    <path d="M 172.701152 36.784612 
Q 154.578101 49.388942 138.290794 60.716538 
" clip-path="url(#pfcf13ba78e)" style="fill: none; stroke: #0000ff; stroke-width: 2; stroke-linecap: round"/>
    <path d="M 149.355348 59.111658 
L 138.290794 60.716538 
L 143.645622 50.901967 
z
" clip-path="url(#pfcf13ba78e)" style="fill: #0000ff; stroke: #0000ff; stroke-width: 2; stroke-linecap: round"/>
   </g>
   <g id="patch_14">
    <path d="M 199.617158 26.36372 
Q 185.980109 40.704865 173.88392 53.425594 
" clip-path="url(#pfcf13ba78e)" style="fill: none; stroke: #0000ff; stroke-width: 2; stroke-linecap: round"/>
    <path d="M 184.398218 49.624339 
L 173.88392 53.425594 
L 177.151495 42.733402 
z
" clip-path="url(#pfcf13ba78e)" style="fill: #0000ff; stroke: #0000ff; stroke-width: 2; stroke-linecap: round"/>
   </g>
   <g id="patch_15">
    <path d="M 227.795575 18.389616 
Q 218.854929 34.059779 211.022399 47.787757 
" clip-path="url(#pfcf13ba78e)" style="fill: none; stroke: #0000ff; stroke-width: 2; stroke-linecap: round"/>
    <path d="M 220.320904 41.579874 
L 211.022399 47.787757 
L 211.635196 36.624224 
z
" clip-path="url(#pfcf13ba78e)" style="fill: #0000ff; stroke: #0000ff; stroke-width: 2; stroke-linecap: round"/>
   </g>
   <g id="patch_16">
    <path d="M 256.434551 13.165987 
Q 252.267066 29.706755 248.645892 44.079217 
" clip-path="url(#pfcf13ba78e)" style="fill: none; stroke: #0000ff; stroke-width: 2; stroke-linecap: round"/>
    <path d="M 255.937539 35.603848 
L 248.645892 44.079217 
L 246.240584 33.160678 
z
" clip-path="url(#pfcf13ba78e)" style="fill: #0000ff; stroke: #0000ff; stroke-width: 2; stroke-linecap: round"/>
   </g>
   <g id="patch_17">
    <path d="M 284.766003 10.916216 
Q 285.320428 27.831945 285.801603 42.512806 
" clip-path="url(#pfcf13ba78e)" style="fill: none; stroke: #0000ff; stroke-width: 2; stroke-linecap: round"/>
    <path d="M 290.471339 32.354382 
L 285.801603 42.512806 
L 280.476706 32.681963 
z
" clip-path="url(#pfcf13ba78e)" style="fill: #0000ff; stroke: #0000ff; stroke-width: 2; stroke-linecap: round"/>
   </g>
   <g id="patch_18">
    <path d="M 312.069605 11.774605 
Q 317.17463 28.547269 321.628563 43.180756 
" clip-path="url(#pfcf13ba78e)" style="fill: none; stroke: #0000ff; stroke-width: 2; stroke-linecap: round"/>
    <path d="M 323.500135 32.158178 
L 321.628563 43.180756 
L 313.933444 35.069952 
z
" clip-path="url(#pfcf13ba78e)" style="fill: #0000ff; stroke: #0000ff; stroke-width: 2; stroke-linecap: round"/>
   </g>
   <g id="patch_19">
    <path d="M 337.683957 15.780275 
Q 347.05804 31.885327 355.307273 46.05784 
" clip-path="url(#pfcf13ba78e)" style="fill: none; stroke: #0000ff; stroke-width: 2; stroke-linecap: round"/>
    <path d="M 354.598075 34.900016 
L 355.307273 46.05784 
L 345.955495 39.930504 
z
" clip-path="url(#pfcf13ba78e)" style="fill: #0000ff; stroke: #0000ff; stroke-width: 2; stroke-linecap: round"/>
   </g>
   <g id="patch_20">
    <path d="M 361.015146 22.873972 
Q 374.277762 37.796742 386.054944 51.048138 
" clip-path="url(#pfcf13ba78e)" style="fill: none; stroke: #0000ff; stroke-width: 2; stroke-linecap: round"/>
    <path d="M 383.149188 40.252001 
L 386.054944 51.048138 
L 375.67458 46.89506 
z
" clip-path="url(#pfcf13ba78e)" style="fill: #0000ff; stroke: #0000ff; stroke-width: 2; stroke-linecap: round"/>
   </g>
   <g id="patch_21">
    <path d="M 381.542981 32.89795 
Q 398.226902 46.150057 413.159893 58.011392 
" clip-path="url(#pfcf13ba78e)" style="fill: none; stroke: #0000ff; stroke-width: 2; stroke-linecap: round"/>
    <path d="M 408.439354 47.876477 
L 413.159893 58.011392 
L 402.219637 55.706874 
z
" clip-path="url(#pfcf13ba78e)" style="fill: #0000ff; stroke: #0000ff; stroke-width: 2; stroke-linecap: round"/>
   </g>
   <g id="patch_22">
    <path d="M 398.825248 45.598987 
Q 418.389547 56.734254 436.010501 66.763442 
" clip-path="url(#pfcf13ba78e)" style="fill: none; stroke: #0000ff; stroke-width: 2; stroke-linecap: round"/>
    <path d="M 429.792868 57.471455 
L 436.010501 66.763442 
L 424.846331 66.162357 
z
" clip-path="url(#pfcf13ba78e)" style="fill: #0000ff; stroke: #0000ff; stroke-width: 2; stroke-linecap: round"/>
   </g>
   <g id="text_1">
    <!-- $Q$ -->
    <g transform="translate(405.588414 80.213598) scale(0.1728 -0.1728)">
     <defs>
      <path id="Cmmi10-51" d="M 1947 -141 
Q 1466 -141 1094 79 
Q 722 300 520 692 
Q 319 1084 319 1563 
Q 319 2259 714 2950 
Q 1109 3641 1756 4077 
Q 2403 4513 3109 4513 
Q 3475 4513 3778 4381 
Q 4081 4250 4290 4017 
Q 4500 3784 4614 3471 
Q 4728 3159 4728 2791 
Q 4728 2366 4581 1936 
Q 4434 1506 4171 1136 
Q 3909 766 3559 484 
Q 3209 203 2809 38 
Q 2850 -256 2934 -425 
Q 3019 -594 3256 -594 
Q 3506 -594 3726 -412 
Q 3947 -231 4006 13 
Q 4019 72 4078 72 
Q 4147 72 4147 -13 
Q 4100 -219 4008 -430 
Q 3916 -641 3786 -823 
Q 3656 -1006 3478 -1123 
Q 3300 -1241 3084 -1241 
Q 2547 -1241 2547 -550 
Q 2547 -509 2562 -332 
Q 2578 -156 2578 -44 
Q 2269 -141 1947 -141 
z
M 1709 300 
Q 1709 44 1991 44 
Q 2275 44 2591 184 
L 2591 244 
Q 2591 503 2509 648 
Q 2428 794 2194 794 
Q 2078 794 1964 723 
Q 1850 653 1779 539 
Q 1709 425 1709 300 
z
M 1544 288 
Q 1544 456 1637 612 
Q 1731 769 1881 864 
Q 2031 959 2203 959 
Q 2481 959 2607 771 
Q 2734 584 2778 281 
Q 3188 525 3500 978 
Q 3813 1431 3977 1973 
Q 4141 2516 4141 3003 
Q 4141 3356 4023 3656 
Q 3906 3956 3664 4140 
Q 3422 4325 3066 4325 
Q 2722 4325 2403 4156 
Q 2084 3988 1813 3706 
Q 1550 3434 1342 3032 
Q 1134 2631 1021 2193 
Q 909 1756 909 1356 
Q 909 947 1068 612 
Q 1228 278 1569 128 
Q 1544 194 1544 288 
z
" transform="scale(0.015625)"/>
     </defs>
     <use xlink:href="#Cmmi10-51" transform="translate(0 0.484375)"/>
    </g>
   </g>
   <g id="text_2">
    <!-- $P$ -->
    <g transform="translate(127.380758 197.375052) scale(0.1728 -0.1728)">
     <defs>
      <path id="Cmmi10-50" d="M 313 0 
Q 250 0 250 84 
Q 253 100 262 139 
Q 272 178 289 201 
Q 306 225 331 225 
Q 722 225 878 269 
Q 959 297 997 441 
L 1875 3956 
Q 1888 4019 1888 4044 
Q 1888 4113 1813 4122 
Q 1691 4147 1350 4147 
Q 1288 4147 1288 4231 
Q 1291 4247 1300 4286 
Q 1309 4325 1326 4348 
Q 1344 4372 1369 4372 
L 3578 4372 
Q 3881 4372 4165 4264 
Q 4450 4156 4631 3934 
Q 4813 3713 4813 3397 
Q 4813 2991 4527 2672 
Q 4241 2353 3814 2175 
Q 3388 1997 2988 1997 
L 1947 1997 
L 1556 416 
Q 1544 353 1544 325 
Q 1544 300 1551 283 
Q 1559 266 1573 261 
Q 1588 256 1619 250 
Q 1741 225 2081 225 
Q 2144 225 2144 141 
Q 2122 50 2109 25 
Q 2097 0 2034 0 
L 313 0 
z
M 1978 2188 
L 2875 2188 
Q 3497 2188 3822 2522 
Q 3988 2688 4092 3000 
Q 4197 3313 4197 3566 
Q 4197 3881 3956 4014 
Q 3716 4147 3359 4147 
L 2747 4147 
Q 2572 4147 2515 4117 
Q 2459 4088 2413 3928 
L 1978 2188 
z
" transform="scale(0.015625)"/>
     </defs>
     <use xlink:href="#Cmmi10-50" transform="translate(0 0.6875)"/>
    </g>
   </g>
  </g>
 </g>
 <defs>
  <clipPath id="pfcf13ba78e">
   <rect x="7.2" y="7.2" width="439.2" height="189.042281"/>
  </clipPath>
 </defs>
</svg>
