<?xml version="1.0" encoding="utf-8" standalone="no"?>
<!DOCTYPE svg PUBLIC "-//W3C//DTD SVG 1.1//EN"
  "http://www.w3.org/Graphics/SVG/1.1/DTD/svg11.dtd">
<svg xmlns:xlink="http://www.w3.org/1999/xlink" width="453.6pt" height="208.167625pt" viewBox="0 0 453.6 208.167625" xmlns="http://www.w3.org/2000/svg" version="1.1">
 <metadata>
  <rdf:RDF xmlns:dc="http://purl.org/dc/elements/1.1/" xmlns:cc="http://creativecommons.org/ns#" xmlns:rdf="http://www.w3.org/1999/02/22-rdf-syntax-ns#">
   <cc:Work>
    <dc:type rdf:resource="http://purl.org/dc/dcmitype/StillImage"/>
    <dc:date>2025-02-05T11:13:27.981242</dc:date>
    <dc:format>image/svg+xml</dc:format>
    <dc:creator>
     <cc:Agent>
      <dc:title>Matplotlib v3.6.2, https://matplotlib.org/</dc:title>
     </cc:Agent>
    </dc:creator>
   </cc:Work>
  </rdf:RDF>
 </metadata>
 <defs>
  <style type="text/css">*{stroke-linejoin: round; stroke-linecap: butt}</style>
 </defs>
 <g id="figure_1">
  <g id="patch_1">
   <path d="M 0 208.167625 
L 453.6 208.167625 
L 453.6 -0 
L 0 -0 
z
" style="fill: #ffffff"/>
  </g>
  <g id="axes_1">
   <g id="patch_2">
    <path d="M 7.2 196.241132 
L 446.4 196.241132 
L 446.4 7.2 
L 7.2 7.2 
z
" style="fill: #ffffff"/>
   </g>
   <g id="PathCollection_1">
    <path d="M 412.500414 64.168913 
C 413.438048 64.168913 414.337406 63.796387 415.000414 63.133379 
C 415.663422 62.470371 416.035948 61.571014 416.035948 60.633379 
C 416.035948 59.695745 415.663422 58.796387 415.000414 58.133379 
C 414.337406 57.470371 413.438048 57.097845 412.500414 57.097845 
C 411.562779 57.097845 410.663422 57.470371 410.000414 58.133379 
C 409.337406 58.796387 408.96488 59.695745 408.96488 60.633379 
C 408.96488 61.571014 409.337406 62.470371 410.000414 63.133379 
C 410.663422 63.796387 411.562779 64.168913 412.500414 64.168913 
z
" clip-path="url(#pca62d04eb5)"/>
   </g>
   <g id="PathCollection_2">
    <path d="M 132.996758 181.330367 
C 133.934393 181.330367 134.833751 180.957841 135.496758 180.294833 
C 136.159766 179.631825 136.532292 178.732467 136.532292 177.794833 
C 136.532292 176.857198 136.159766 175.957841 135.496758 175.294833 
C 134.833751 174.631825 133.934393 174.259299 132.996758 174.259299 
C 132.059124 174.259299 131.159766 174.631825 130.496758 175.294833 
C 129.833751 175.957841 129.461224 176.857198 129.461224 177.794833 
C 129.461224 178.732467 129.833751 179.631825 130.496758 180.294833 
C 131.159766 180.957841 132.059124 181.330367 132.996758 181.330367 
z
" clip-path="url(#pca62d04eb5)"/>
   </g>
   <g id="matplotlib.axis_1"/>
   <g id="matplotlib.axis_2"/>
   <g id="line2d_1">
    <path d="M 412.500414 60.633379 
L 409.958165 57.321086 
L 406.548607 53.308371 
L 403.608207 50.17337 
L 400.096687 46.757408 
L 396.119234 43.252104 
L 392.383395 40.25955 
L 387.644995 36.821462 
L 382.841111 33.688686 
L 378.694977 31.234667 
L 374.111262 28.761088 
L 369.535008 26.51755 
L 363.454711 23.85046 
L 356.555168 21.212359 
L 349.520769 18.902498 
L 343.066292 17.087693 
L 334.551131 15.098145 
L 327.339563 13.74316 
L 320.165382 12.67231 
L 313.667994 11.925933 
L 305.201075 11.253004 
L 297.668909 10.923995 
L 290.349366 10.835406 
L 284.983231 10.909659 
L 275.411642 11.323783 
L 267.718721 11.909952 
L 258.433731 12.908837 
L 250.337036 14.034173 
L 240.97229 15.626177 
L 232.78221 17.271448 
L 223.27931 19.475616 
L 215.448339 21.53161 
L 206.721047 24.081571 
L 198.807476 26.634498 
L 190.610195 29.527744 
L 182.851191 32.50861 
L 174.885021 35.826402 
L 165.445182 40.117709 
L 159.175973 43.199577 
L 151.171652 47.428283 
L 144.208298 51.401871 
L 137.392989 55.589059 
L 130.809758 59.952029 
L 126.428452 63.05334 
L 120.300055 67.698829 
L 115.476221 71.650582 
L 111.928778 74.753606 
L 107.115298 79.285452 
L 104.201856 82.244879 
L 99.932462 86.954711 
L 97.117561 90.367447 
L 94.772776 93.453304 
L 92.077798 97.359546 
L 89.521621 101.56145 
L 87.783656 104.826161 
L 86.326681 107.950716 
L 84.931172 111.472401 
L 83.994024 114.334114 
L 83.042067 118.077995 
L 82.507152 121.101596 
L 82.16813 124.445048 
L 82.095194 127.144936 
L 82.249975 130.332749 
L 82.685014 133.561115 
L 83.09595 135.537297 
L 83.825936 138.182075 
L 84.863693 141.054597 
L 86.131532 143.847387 
L 87.758094 146.783833 
L 89.864478 149.936638 
L 91.739212 152.339104 
L 93.305107 154.136297 
L 95.492037 156.40184 
L 97.768726 158.521941 
L 100.98733 161.197791 
L 104.454023 163.751948 
L 107.647632 165.867126 
L 111.521086 168.185399 
L 115.490118 170.329131 
L 120.633593 172.820614 
L 124.50214 174.515308 
L 129.694908 176.585505 
L 132.996758 177.794833 
L 132.996758 177.794833 
" clip-path="url(#pca62d04eb5)" style="fill: none; stroke: #000000; stroke-width: 2; stroke-linecap: square"/>
   </g>
   <g id="patch_3">
    <path d="M 132.996758 177.794833 
Q 108.256309 166.897271 85.562207 156.901076 
" clip-path="url(#pca62d04eb5)" style="fill: none; stroke: #0000ff; stroke-width: 2; stroke-linecap: round"/>
    <path d="M 92.698237 165.50788 
L 85.562207 156.901076 
L 96.729268 156.356334 
L 92.698237 165.50788 
z
" clip-path="url(#pca62d04eb5)" style="fill: #0000ff; stroke: #0000ff; stroke-width: 2; stroke-linecap: round"/>
   </g>
   <g id="patch_4">
    <path d="M 110.582315 167.645733 
Q 82.106125 158.439688 55.757579 149.921488 
" clip-path="url(#pca62d04eb5)" style="fill: none; stroke: #0000ff; stroke-width: 2; stroke-linecap: round"/>
    <path d="M 63.734627 157.755179 
L 55.757579 149.921488 
L 66.81076 148.240064 
L 63.734627 157.755179 
z
" clip-path="url(#pca62d04eb5)" style="fill: #0000ff; stroke: #0000ff; stroke-width: 2; stroke-linecap: round"/>
   </g>
   <g id="patch_5">
    <path d="M 94.609381 155.517729 
Q 63.471035 148.333018 34.511511 141.651038 
" clip-path="url(#pca62d04eb5)" style="fill: none; stroke: #0000ff; stroke-width: 2; stroke-linecap: round"/>
    <path d="M 43.131355 148.77131 
L 34.511511 141.651038 
L 45.379635 139.027325 
L 43.131355 148.77131 
z
" clip-path="url(#pca62d04eb5)" style="fill: #0000ff; stroke: #0000ff; stroke-width: 2; stroke-linecap: round"/>
   </g>
   <g id="patch_6">
    <path d="M 85.152498 141.744404 
Q 52.438005 136.855247 21.935019 132.296598 
" clip-path="url(#pca62d04eb5)" style="fill: none; stroke: #0000ff; stroke-width: 2; stroke-linecap: round"/>
    <path d="M 31.086142 138.719756 
L 21.935019 132.296598 
L 32.564219 128.829595 
L 31.086142 138.719756 
z
" clip-path="url(#pca62d04eb5)" style="fill: #0000ff; stroke: #0000ff; stroke-width: 2; stroke-linecap: round"/>
   </g>
   <g id="patch_7">
    <path d="M 82.094479 126.719635 
Q 48.870316 124.334606 17.876483 122.109684 
" clip-path="url(#pca62d04eb5)" style="fill: none; stroke: #0000ff; stroke-width: 2; stroke-linecap: round"/>
    <path d="M 27.492807 127.812868 
L 17.876483 122.109684 
L 28.208824 117.838535 
L 27.492807 127.812868 
z
" clip-path="url(#pca62d04eb5)" style="fill: #0000ff; stroke: #0000ff; stroke-width: 2; stroke-linecap: round"/>
   </g>
   <g id="patch_8">
    <path d="M 85.145013 110.886383 
Q 52.429273 111.14023 21.949533 111.376727 
" clip-path="url(#pca62d04eb5)" style="fill: none; stroke: #0000ff; stroke-width: 2; stroke-linecap: round"/>
    <path d="M 31.988027 116.298987 
L 21.949533 111.376727 
L 31.910438 106.299288 
L 31.988027 116.298987 
z
" clip-path="url(#pca62d04eb5)" style="fill: #0000ff; stroke: #0000ff; stroke-width: 2; stroke-linecap: round"/>
   </g>
   <g id="patch_9">
    <path d="M 93.862811 94.723648 
Q 62.600037 97.671284 33.563458 100.409021 
" clip-path="url(#pca62d04eb5)" style="fill: none; stroke: #0000ff; stroke-width: 2; stroke-linecap: round"/>
    <path d="M 43.98865 104.448249 
L 33.563458 100.409021 
L 43.049955 94.492404 
L 43.98865 104.448249 
z
" clip-path="url(#pca62d04eb5)" style="fill: #0000ff; stroke: #0000ff; stroke-width: 2; stroke-linecap: round"/>
   </g>
   <g id="patch_10">
    <path d="M 107.680175 78.731982 
Q 78.720295 84.344895 51.955632 89.532339 
" clip-path="url(#pca62d04eb5)" style="fill: none; stroke: #0000ff; stroke-width: 2; stroke-linecap: round"/>
    <path d="M 62.724318 92.538232 
L 51.955632 89.532339 
L 60.821558 82.720926 
L 62.724318 92.538232 
z
" clip-path="url(#pca62d04eb5)" style="fill: #0000ff; stroke: #0000ff; stroke-width: 2; stroke-linecap: round"/>
   </g>
   <g id="patch_11">
    <path d="M 125.928882 63.417986 
Q 100.010453 71.583232 76.22476 79.076589 
" clip-path="url(#pca62d04eb5)" style="fill: none; stroke: #0000ff; stroke-width: 2; stroke-linecap: round"/>
    <path d="M 87.265038 80.840752 
L 76.22476 79.076589 
L 84.260257 71.302865 
L 87.265038 80.840752 
z
" clip-path="url(#pca62d04eb5)" style="fill: #0000ff; stroke: #0000ff; stroke-width: 2; stroke-linecap: round"/>
   </g>
   <g id="patch_12">
    <path d="M 147.866346 49.278288 
Q 125.604162 59.800151 105.363617 69.366518 
" clip-path="url(#pca62d04eb5)" style="fill: none; stroke: #0000ff; stroke-width: 2; stroke-linecap: round"/>
    <path d="M 116.541219 69.613936 
L 105.363617 69.366518 
L 112.268113 60.572887 
L 116.541219 69.613936 
z
" clip-path="url(#pca62d04eb5)" style="fill: #0000ff; stroke: #0000ff; stroke-width: 2; stroke-linecap: round"/>
   </g>
   <g id="patch_13">
    <path d="M 172.701152 36.783486 
Q 154.578101 49.387815 138.290794 60.715411 
" clip-path="url(#pca62d04eb5)" style="fill: none; stroke: #0000ff; stroke-width: 2; stroke-linecap: round"/>
    <path d="M 149.355348 59.110531 
L 138.290794 60.715411 
L 143.645622 50.90084 
L 149.355348 59.110531 
z
" clip-path="url(#pca62d04eb5)" style="fill: #0000ff; stroke: #0000ff; stroke-width: 2; stroke-linecap: round"/>
   </g>
   <g id="patch_14">
    <path d="M 199.617158 26.362593 
Q 185.980109 40.703738 173.88392 53.424467 
" clip-path="url(#pca62d04eb5)" style="fill: none; stroke: #0000ff; stroke-width: 2; stroke-linecap: round"/>
    <path d="M 184.398218 49.623212 
L 173.88392 53.424467 
L 177.151495 42.732276 
L 184.398218 49.623212 
z
" clip-path="url(#pca62d04eb5)" style="fill: #0000ff; stroke: #0000ff; stroke-width: 2; stroke-linecap: round"/>
   </g>
   <g id="patch_15">
    <path d="M 227.795575 18.388489 
Q 218.854929 34.058652 211.022399 47.786631 
" clip-path="url(#pca62d04eb5)" style="fill: none; stroke: #0000ff; stroke-width: 2; stroke-linecap: round"/>
    <path d="M 220.320904 41.578748 
L 211.022399 47.786631 
L 211.635196 36.623097 
L 220.320904 41.578748 
z
" clip-path="url(#pca62d04eb5)" style="fill: #0000ff; stroke: #0000ff; stroke-width: 2; stroke-linecap: round"/>
   </g>
   <g id="patch_16">
    <path d="M 256.434551 13.164861 
Q 252.267066 29.705628 248.645892 44.07809 
" clip-path="url(#pca62d04eb5)" style="fill: none; stroke: #0000ff; stroke-width: 2; stroke-linecap: round"/>
    <path d="M 255.937539 35.602721 
L 248.645892 44.07809 
L 246.240584 33.159551 
L 255.937539 35.602721 
z
" clip-path="url(#pca62d04eb5)" style="fill: #0000ff; stroke: #0000ff; stroke-width: 2; stroke-linecap: round"/>
   </g>
   <g id="patch_17">
    <path d="M 284.766003 10.915089 
Q 285.320428 27.830818 285.801603 42.511679 
" clip-path="url(#pca62d04eb5)" style="fill: none; stroke: #0000ff; stroke-width: 2; stroke-linecap: round"/>
    <path d="M 290.471339 32.353256 
L 285.801603 42.511679 
L 280.476706 32.680837 
L 290.471339 32.353256 
z
" clip-path="url(#pca62d04eb5)" style="fill: #0000ff; stroke: #0000ff; stroke-width: 2; stroke-linecap: round"/>
   </g>
   <g id="patch_18">
    <path d="M 312.069605 11.773478 
Q 317.17463 28.546142 321.628563 43.179629 
" clip-path="url(#pca62d04eb5)" style="fill: none; stroke: #0000ff; stroke-width: 2; stroke-linecap: round"/>
    <path d="M 323.500135 32.157052 
L 321.628563 43.179629 
L 313.933444 35.068825 
L 323.500135 32.157052 
z
" clip-path="url(#pca62d04eb5)" style="fill: #0000ff; stroke: #0000ff; stroke-width: 2; stroke-linecap: round"/>
   </g>
   <g id="patch_19">
    <path d="M 337.683957 15.779148 
Q 347.05804 31.884201 355.307273 46.056714 
" clip-path="url(#pca62d04eb5)" style="fill: none; stroke: #0000ff; stroke-width: 2; stroke-linecap: round"/>
    <path d="M 354.598075 34.89889 
L 355.307273 46.056714 
L 345.955495 39.929377 
L 354.598075 34.89889 
z
" clip-path="url(#pca62d04eb5)" style="fill: #0000ff; stroke: #0000ff; stroke-width: 2; stroke-linecap: round"/>
   </g>
   <g id="patch_20">
    <path d="M 361.015146 22.872845 
Q 374.277762 37.795615 386.054944 51.047012 
" clip-path="url(#pca62d04eb5)" style="fill: none; stroke: #0000ff; stroke-width: 2; stroke-linecap: round"/>
    <path d="M 383.149188 40.250874 
L 386.054944 51.047012 
L 375.67458 46.893934 
L 383.149188 40.250874 
z
" clip-path="url(#pca62d04eb5)" style="fill: #0000ff; stroke: #0000ff; stroke-width: 2; stroke-linecap: round"/>
   </g>
   <g id="patch_21">
    <path d="M 381.542981 32.896823 
Q 398.226902 46.14893 413.159893 58.010266 
" clip-path="url(#pca62d04eb5)" style="fill: none; stroke: #0000ff; stroke-width: 2; stroke-linecap: round"/>
    <path d="M 408.439354 47.87535 
L 413.159893 58.010266 
L 402.219637 55.705748 
L 408.439354 47.87535 
z
" clip-path="url(#pca62d04eb5)" style="fill: #0000ff; stroke: #0000ff; stroke-width: 2; stroke-linecap: round"/>
   </g>
   <g id="patch_22">
    <path d="M 398.825248 45.59786 
Q 418.389547 56.733128 436.010501 66.762316 
" clip-path="url(#pca62d04eb5)" style="fill: none; stroke: #0000ff; stroke-width: 2; stroke-linecap: round"/>
    <path d="M 429.792868 57.470328 
L 436.010501 66.762316 
L 424.846331 66.16123 
L 429.792868 57.470328 
z
" clip-path="url(#pca62d04eb5)" style="fill: #0000ff; stroke: #0000ff; stroke-width: 2; stroke-linecap: round"/>
   </g>
   <g id="text_1">
    <!-- $Q$ -->
    <g transform="translate(405.588414 80.212472) scale(0.1728 -0.1728)">
     <defs>
      <path id="Cmmi10-51" d="M 1947 -141 
Q 1466 -141 1094 79 
Q 722 300 520 692 
Q 319 1084 319 1563 
Q 319 2259 714 2950 
Q 1109 3641 1756 4077 
Q 2403 4513 3109 4513 
Q 3475 4513 3778 4381 
Q 4081 4250 4290 4017 
Q 4500 3784 4614 3471 
Q 4728 3159 4728 2791 
Q 4728 2366 4581 1936 
Q 4434 1506 4171 1136 
Q 3909 766 3559 484 
Q 3209 203 2809 38 
Q 2850 -256 2934 -425 
Q 3019 -594 3256 -594 
Q 3506 -594 3726 -412 
Q 3947 -231 4006 13 
Q 4019 72 4078 72 
Q 4147 72 4147 -13 
Q 4100 -219 4008 -430 
Q 3916 -641 3786 -823 
Q 3656 -1006 3478 -1123 
Q 3300 -1241 3084 -1241 
Q 2547 -1241 2547 -550 
Q 2547 -509 2562 -332 
Q 2578 -156 2578 -44 
Q 2269 -141 1947 -141 
z
M 1709 300 
Q 1709 44 1991 44 
Q 2275 44 2591 184 
L 2591 244 
Q 2591 503 2509 648 
Q 2428 794 2194 794 
Q 2078 794 1964 723 
Q 1850 653 1779 539 
Q 1709 425 1709 300 
z
M 1544 288 
Q 1544 456 1637 612 
Q 1731 769 1881 864 
Q 2031 959 2203 959 
Q 2481 959 2607 771 
Q 2734 584 2778 281 
Q 3188 525 3500 978 
Q 3813 1431 3977 1973 
Q 4141 2516 4141 3003 
Q 4141 3356 4023 3656 
Q 3906 3956 3664 4140 
Q 3422 4325 3066 4325 
Q 2722 4325 2403 4156 
Q 2084 3988 1813 3706 
Q 1550 3434 1342 3032 
Q 1134 2631 1021 2193 
Q 909 1756 909 1356 
Q 909 947 1068 612 
Q 1228 278 1569 128 
Q 1544 194 1544 288 
z
" transform="scale(0.015625)"/>
     </defs>
     <use xlink:href="#Cmmi10-51" transform="translate(0 0.484375)"/>
    </g>
   </g>
   <g id="text_2">
    <!-- $P$ -->
    <g transform="translate(127.380758 197.373925) scale(0.1728 -0.1728)">
     <defs>
      <path id="Cmmi10-50" d="M 313 0 
Q 250 0 250 84 
Q 253 100 262 139 
Q 272 178 289 201 
Q 306 225 331 225 
Q 722 225 878 269 
Q 959 297 997 441 
L 1875 3956 
Q 1888 4019 1888 4044 
Q 1888 4113 1813 4122 
Q 1691 4147 1350 4147 
Q 1288 4147 1288 4231 
Q 1291 4247 1300 4286 
Q 1309 4325 1326 4348 
Q 1344 4372 1369 4372 
L 3578 4372 
Q 3881 4372 4165 4264 
Q 4450 4156 4631 3934 
Q 4813 3713 4813 3397 
Q 4813 2991 4527 2672 
Q 4241 2353 3814 2175 
Q 3388 1997 2988 1997 
L 1947 1997 
L 1556 416 
Q 1544 353 1544 325 
Q 1544 300 1551 283 
Q 1559 266 1573 261 
Q 1588 256 1619 250 
Q 1741 225 2081 225 
Q 2144 225 2144 141 
Q 2122 50 2109 25 
Q 2097 0 2034 0 
L 313 0 
z
M 1978 2188 
L 2875 2188 
Q 3497 2188 3822 2522 
Q 3988 2688 4092 3000 
Q 4197 3313 4197 3566 
Q 4197 3881 3956 4014 
Q 3716 4147 3359 4147 
L 2747 4147 
Q 2572 4147 2515 4117 
Q 2459 4088 2413 3928 
L 1978 2188 
z
" transform="scale(0.015625)"/>
     </defs>
     <use xlink:href="#Cmmi10-50" transform="translate(0 0.6875)"/>
    </g>
   </g>
  </g>
 </g>
 <defs>
  <clipPath id="pca62d04eb5">
   <rect x="7.2" y="7.2" width="439.2" height="189.041132"/>
  </clipPath>
 </defs>
</svg>
