<?xml version="1.0" encoding="utf-8" standalone="no"?>
<!DOCTYPE svg PUBLIC "-//W3C//DTD SVG 1.1//EN"
  "http://www.w3.org/Graphics/SVG/1.1/DTD/svg11.dtd">
<svg xmlns:xlink="http://www.w3.org/1999/xlink" width="453.6pt" height="208.168688pt" viewBox="0 0 453.6 208.168688" xmlns="http://www.w3.org/2000/svg" version="1.1">
 <metadata>
  <rdf:RDF xmlns:dc="http://purl.org/dc/elements/1.1/" xmlns:cc="http://creativecommons.org/ns#" xmlns:rdf="http://www.w3.org/1999/02/22-rdf-syntax-ns#">
   <cc:Work>
    <dc:type rdf:resource="http://purl.org/dc/dcmitype/StillImage"/>
    <dc:date>2025-02-05T08:50:59.926640</dc:date>
    <dc:format>image/svg+xml</dc:format>
    <dc:creator>
     <cc:Agent>
      <dc:title>Matplotlib v3.6.2, https://matplotlib.org/</dc:title>
     </cc:Agent>
    </dc:creator>
   </cc:Work>
  </rdf:RDF>
 </metadata>
 <defs>
  <style type="text/css">*{stroke-linejoin: round; stroke-linecap: butt}</style>
 </defs>
 <g id="figure_1">
  <g id="patch_1">
   <path d="M 0 208.168688 
L 453.6 208.168688 
L 453.6 0 
L 0 0 
z
" style="fill: #ffffff"/>
  </g>
  <g id="axes_1">
   <g id="patch_2">
    <path d="M 7.2 196.242215 
L 446.4 196.242215 
L 446.4 7.2 
L 7.2 7.2 
z
" style="fill: #ffffff"/>
   </g>
   <g id="PathCollection_1">
    <path d="M 412.500414 64.169976 
C 413.438048 64.169976 414.337406 63.79745 415.000414 63.134442 
C 415.663422 62.471434 416.035948 61.572077 416.035948 60.634442 
C 416.035948 59.696807 415.663422 58.79745 415.000414 58.134442 
C 414.337406 57.471434 413.438048 57.098908 412.500414 57.098908 
C 411.562779 57.098908 410.663422 57.471434 410.000414 58.134442 
C 409.337406 58.79745 408.96488 59.696807 408.96488 60.634442 
C 408.96488 61.572077 409.337406 62.471434 410.000414 63.134442 
C 410.663422 63.79745 411.562779 64.169976 412.500414 64.169976 
z
" clip-path="url(#p87b096fc7d)"/>
   </g>
   <g id="PathCollection_2">
    <path d="M 132.996758 181.33143 
C 133.934393 181.33143 134.833751 180.958903 135.496758 180.295896 
C 136.159766 179.632888 136.532292 178.73353 136.532292 177.795896 
C 136.532292 176.858261 136.159766 175.958903 135.496758 175.295896 
C 134.833751 174.632888 133.934393 174.260362 132.996758 174.260362 
C 132.059124 174.260362 131.159766 174.632888 130.496758 175.295896 
C 129.833751 175.958903 129.461224 176.858261 129.461224 177.795896 
C 129.461224 178.73353 129.833751 179.632888 130.496758 180.295896 
C 131.159766 180.958903 132.059124 181.33143 132.996758 181.33143 
z
" clip-path="url(#p87b096fc7d)"/>
   </g>
   <g id="matplotlib.axis_1"/>
   <g id="matplotlib.axis_2"/>
   <g id="line2d_1">
    <path d="M 412.500414 60.634442 
L 409.949944 57.311918 
L 406.240951 52.968342 
L 402.999377 49.55816 
L 398.761138 45.541464 
L 396.037556 43.184802 
L 391.658802 39.71031 
L 388.041368 37.096163 
L 383.873422 34.335485 
L 378.715185 31.247173 
L 373.855189 28.630859 
L 367.99148 25.809014 
L 363.054322 23.687583 
L 356.602778 21.230314 
L 352.033751 19.687277 
L 345.586084 17.76429 
L 336.941497 15.61358 
L 330.429072 14.289342 
L 322.817498 13.038245 
L 317.930284 12.39331 
L 309.386247 11.545481 
L 300.919425 11.036801 
L 295.843823 10.88205 
L 287.104313 10.867559 
L 282.225193 10.993493 
L 273.876305 11.424059 
L 265.360363 12.134842 
L 256.041768 13.217914 
L 247.124477 14.546458 
L 237.329356 16.329984 
L 228.737922 18.171768 
L 220.731654 20.121682 
L 211.52134 22.646043 
L 204.268687 24.848996 
L 195.921437 27.624868 
L 188.229522 30.417869 
L 181.772445 32.943385 
L 174.136856 36.152991 
L 165.921251 39.892535 
L 158.397913 43.596811 
L 151.764224 47.104317 
L 146.885781 49.840564 
L 138.918734 54.625197 
L 133.946372 57.832453 
L 129.236588 61.047262 
L 122.89722 65.68398 
L 117.264177 70.153357 
L 111.795781 74.874636 
L 107.190704 79.212271 
L 102.861437 83.672399 
L 99.223269 87.78948 
L 95.853969 92.000265 
L 93.281377 95.561024 
L 91.21241 98.719 
L 88.985174 102.527499 
L 86.942235 106.577893 
L 85.604769 109.690261 
L 84.486189 112.764719 
L 83.36728 116.653715 
L 82.646049 120.190538 
L 82.318035 122.637216 
L 82.132124 125.136022 
L 82.150015 128.949482 
L 82.479193 132.289775 
L 82.934609 134.824985 
L 83.432925 136.854471 
L 84.554009 140.270785 
L 85.84629 143.268127 
L 87.488016 146.334104 
L 89.448896 149.359459 
L 91.205414 151.687057 
L 93.263668 154.091864 
L 96.379419 157.255044 
L 99.361156 159.888637 
L 101.90811 161.906989 
L 105.468958 164.447593 
L 109.918318 167.256852 
L 113.459868 169.260256 
L 117.177643 171.180492 
L 121.57107 173.245433 
L 126.756069 175.441847 
L 132.996758 177.795896 
L 132.996758 177.795896 
" clip-path="url(#p87b096fc7d)" style="fill: none; stroke: #000000; stroke-width: 2; stroke-linecap: square"/>
   </g>
   <g id="patch_3">
    <path d="M 132.996758 177.795896 
Q 108.256309 166.898334 85.562207 156.902139 
" clip-path="url(#p87b096fc7d)" style="fill: none; stroke: #0000ff; stroke-width: 2; stroke-linecap: round"/>
    <path d="M 92.698237 165.508943 
L 85.562207 156.902139 
L 96.729268 156.357397 
L 92.698237 165.508943 
z
" clip-path="url(#p87b096fc7d)" style="fill: #0000ff; stroke: #0000ff; stroke-width: 2; stroke-linecap: round"/>
   </g>
   <g id="patch_4">
    <path d="M 110.582315 167.646796 
Q 82.106125 158.440751 55.757579 149.922551 
" clip-path="url(#p87b096fc7d)" style="fill: none; stroke: #0000ff; stroke-width: 2; stroke-linecap: round"/>
    <path d="M 63.734627 157.756242 
L 55.757579 149.922551 
L 66.81076 148.241127 
L 63.734627 157.756242 
z
" clip-path="url(#p87b096fc7d)" style="fill: #0000ff; stroke: #0000ff; stroke-width: 2; stroke-linecap: round"/>
   </g>
   <g id="patch_5">
    <path d="M 94.609381 155.518792 
Q 63.471035 148.334081 34.511511 141.652101 
" clip-path="url(#p87b096fc7d)" style="fill: none; stroke: #0000ff; stroke-width: 2; stroke-linecap: round"/>
    <path d="M 43.131355 148.772373 
L 34.511511 141.652101 
L 45.379635 139.028388 
L 43.131355 148.772373 
z
" clip-path="url(#p87b096fc7d)" style="fill: #0000ff; stroke: #0000ff; stroke-width: 2; stroke-linecap: round"/>
   </g>
   <g id="patch_6">
    <path d="M 85.152498 141.745467 
Q 52.438005 136.85631 21.935019 132.297661 
" clip-path="url(#p87b096fc7d)" style="fill: none; stroke: #0000ff; stroke-width: 2; stroke-linecap: round"/>
    <path d="M 31.086142 138.720819 
L 21.935019 132.297661 
L 32.564219 128.830658 
L 31.086142 138.720819 
z
" clip-path="url(#p87b096fc7d)" style="fill: #0000ff; stroke: #0000ff; stroke-width: 2; stroke-linecap: round"/>
   </g>
   <g id="patch_7">
    <path d="M 82.094479 126.720698 
Q 48.870316 124.335669 17.876483 122.110747 
" clip-path="url(#p87b096fc7d)" style="fill: none; stroke: #0000ff; stroke-width: 2; stroke-linecap: round"/>
    <path d="M 27.492807 127.813931 
L 17.876483 122.110747 
L 28.208824 117.839598 
L 27.492807 127.813931 
z
" clip-path="url(#p87b096fc7d)" style="fill: #0000ff; stroke: #0000ff; stroke-width: 2; stroke-linecap: round"/>
   </g>
   <g id="patch_8">
    <path d="M 85.145013 110.887446 
Q 52.429273 111.141293 21.949533 111.37779 
" clip-path="url(#p87b096fc7d)" style="fill: none; stroke: #0000ff; stroke-width: 2; stroke-linecap: round"/>
    <path d="M 31.988027 116.30005 
L 21.949533 111.37779 
L 31.910438 106.300351 
L 31.988027 116.30005 
z
" clip-path="url(#p87b096fc7d)" style="fill: #0000ff; stroke: #0000ff; stroke-width: 2; stroke-linecap: round"/>
   </g>
   <g id="patch_9">
    <path d="M 93.862811 94.724711 
Q 62.600037 97.672347 33.563458 100.410084 
" clip-path="url(#p87b096fc7d)" style="fill: none; stroke: #0000ff; stroke-width: 2; stroke-linecap: round"/>
    <path d="M 43.98865 104.449312 
L 33.563458 100.410084 
L 43.049955 94.493467 
L 43.98865 104.449312 
z
" clip-path="url(#p87b096fc7d)" style="fill: #0000ff; stroke: #0000ff; stroke-width: 2; stroke-linecap: round"/>
   </g>
   <g id="patch_10">
    <path d="M 107.680175 78.733044 
Q 78.720295 84.345958 51.955632 89.533402 
" clip-path="url(#p87b096fc7d)" style="fill: none; stroke: #0000ff; stroke-width: 2; stroke-linecap: round"/>
    <path d="M 62.724318 92.539295 
L 51.955632 89.533402 
L 60.821558 82.721989 
L 62.724318 92.539295 
z
" clip-path="url(#p87b096fc7d)" style="fill: #0000ff; stroke: #0000ff; stroke-width: 2; stroke-linecap: round"/>
   </g>
   <g id="patch_11">
    <path d="M 125.928882 63.419049 
Q 100.010453 71.584295 76.22476 79.077652 
" clip-path="url(#p87b096fc7d)" style="fill: none; stroke: #0000ff; stroke-width: 2; stroke-linecap: round"/>
    <path d="M 87.265038 80.841815 
L 76.22476 79.077652 
L 84.260257 71.303928 
L 87.265038 80.841815 
z
" clip-path="url(#p87b096fc7d)" style="fill: #0000ff; stroke: #0000ff; stroke-width: 2; stroke-linecap: round"/>
   </g>
   <g id="patch_12">
    <path d="M 147.866346 49.279351 
Q 125.604162 59.801213 105.363617 69.36758 
" clip-path="url(#p87b096fc7d)" style="fill: none; stroke: #0000ff; stroke-width: 2; stroke-linecap: round"/>
    <path d="M 116.541219 69.614999 
L 105.363617 69.36758 
L 112.268113 60.57395 
L 116.541219 69.614999 
z
" clip-path="url(#p87b096fc7d)" style="fill: #0000ff; stroke: #0000ff; stroke-width: 2; stroke-linecap: round"/>
   </g>
   <g id="patch_13">
    <path d="M 172.701152 36.784549 
Q 154.578101 49.388878 138.290794 60.716474 
" clip-path="url(#p87b096fc7d)" style="fill: none; stroke: #0000ff; stroke-width: 2; stroke-linecap: round"/>
    <path d="M 149.355348 59.111594 
L 138.290794 60.716474 
L 143.645622 50.901903 
L 149.355348 59.111594 
z
" clip-path="url(#p87b096fc7d)" style="fill: #0000ff; stroke: #0000ff; stroke-width: 2; stroke-linecap: round"/>
   </g>
   <g id="patch_14">
    <path d="M 199.617158 26.363656 
Q 185.980109 40.704801 173.88392 53.42553 
" clip-path="url(#p87b096fc7d)" style="fill: none; stroke: #0000ff; stroke-width: 2; stroke-linecap: round"/>
    <path d="M 184.398218 49.624275 
L 173.88392 53.42553 
L 177.151495 42.733338 
L 184.398218 49.624275 
z
" clip-path="url(#p87b096fc7d)" style="fill: #0000ff; stroke: #0000ff; stroke-width: 2; stroke-linecap: round"/>
   </g>
   <g id="patch_15">
    <path d="M 227.795575 18.389552 
Q 218.854929 34.059715 211.022399 47.787694 
" clip-path="url(#p87b096fc7d)" style="fill: none; stroke: #0000ff; stroke-width: 2; stroke-linecap: round"/>
    <path d="M 220.320904 41.579811 
L 211.022399 47.787694 
L 211.635196 36.62416 
L 220.320904 41.579811 
z
" clip-path="url(#p87b096fc7d)" style="fill: #0000ff; stroke: #0000ff; stroke-width: 2; stroke-linecap: round"/>
   </g>
   <g id="patch_16">
    <path d="M 256.434551 13.165924 
Q 252.267066 29.706691 248.645892 44.079153 
" clip-path="url(#p87b096fc7d)" style="fill: none; stroke: #0000ff; stroke-width: 2; stroke-linecap: round"/>
    <path d="M 255.937539 35.603784 
L 248.645892 44.079153 
L 246.240584 33.160614 
L 255.937539 35.603784 
z
" clip-path="url(#p87b096fc7d)" style="fill: #0000ff; stroke: #0000ff; stroke-width: 2; stroke-linecap: round"/>
   </g>
   <g id="patch_17">
    <path d="M 284.766003 10.916152 
Q 285.320428 27.831881 285.801603 42.512742 
" clip-path="url(#p87b096fc7d)" style="fill: none; stroke: #0000ff; stroke-width: 2; stroke-linecap: round"/>
    <path d="M 290.471339 32.354318 
L 285.801603 42.512742 
L 280.476706 32.681899 
L 290.471339 32.354318 
z
" clip-path="url(#p87b096fc7d)" style="fill: #0000ff; stroke: #0000ff; stroke-width: 2; stroke-linecap: round"/>
   </g>
   <g id="patch_18">
    <path d="M 312.069605 11.774541 
Q 317.17463 28.547205 321.628563 43.180692 
" clip-path="url(#p87b096fc7d)" style="fill: none; stroke: #0000ff; stroke-width: 2; stroke-linecap: round"/>
    <path d="M 323.500135 32.158114 
L 321.628563 43.180692 
L 313.933444 35.069888 
L 323.500135 32.158114 
z
" clip-path="url(#p87b096fc7d)" style="fill: #0000ff; stroke: #0000ff; stroke-width: 2; stroke-linecap: round"/>
   </g>
   <g id="patch_19">
    <path d="M 337.683957 15.780211 
Q 347.05804 31.885264 355.307273 46.057776 
" clip-path="url(#p87b096fc7d)" style="fill: none; stroke: #0000ff; stroke-width: 2; stroke-linecap: round"/>
    <path d="M 354.598075 34.899952 
L 355.307273 46.057776 
L 345.955495 39.93044 
L 354.598075 34.899952 
z
" clip-path="url(#p87b096fc7d)" style="fill: #0000ff; stroke: #0000ff; stroke-width: 2; stroke-linecap: round"/>
   </g>
   <g id="patch_20">
    <path d="M 361.015146 22.873908 
Q 374.277762 37.796678 386.054944 51.048074 
" clip-path="url(#p87b096fc7d)" style="fill: none; stroke: #0000ff; stroke-width: 2; stroke-linecap: round"/>
    <path d="M 383.149188 40.251937 
L 386.054944 51.048074 
L 375.67458 46.894996 
L 383.149188 40.251937 
z
" clip-path="url(#p87b096fc7d)" style="fill: #0000ff; stroke: #0000ff; stroke-width: 2; stroke-linecap: round"/>
   </g>
   <g id="patch_21">
    <path d="M 381.542981 32.897886 
Q 398.226902 46.149993 413.159893 58.011328 
" clip-path="url(#p87b096fc7d)" style="fill: none; stroke: #0000ff; stroke-width: 2; stroke-linecap: round"/>
    <path d="M 408.439354 47.876413 
L 413.159893 58.011328 
L 402.219637 55.70681 
L 408.439354 47.876413 
z
" clip-path="url(#p87b096fc7d)" style="fill: #0000ff; stroke: #0000ff; stroke-width: 2; stroke-linecap: round"/>
   </g>
   <g id="patch_22">
    <path d="M 398.825248 45.598923 
Q 418.389547 56.73419 436.010501 66.763378 
" clip-path="url(#p87b096fc7d)" style="fill: none; stroke: #0000ff; stroke-width: 2; stroke-linecap: round"/>
    <path d="M 429.792868 57.471391 
L 436.010501 66.763378 
L 424.846331 66.162293 
L 429.792868 57.471391 
z
" clip-path="url(#p87b096fc7d)" style="fill: #0000ff; stroke: #0000ff; stroke-width: 2; stroke-linecap: round"/>
   </g>
   <g id="text_1">
    <!-- $Q$ -->
    <g transform="translate(405.588414 80.213535) scale(0.1728 -0.1728)">
     <defs>
      <path id="Cmmi10-51" d="M 1947 -141 
Q 1466 -141 1094 79 
Q 722 300 520 692 
Q 319 1084 319 1563 
Q 319 2259 714 2950 
Q 1109 3641 1756 4077 
Q 2403 4513 3109 4513 
Q 3475 4513 3778 4381 
Q 4081 4250 4290 4017 
Q 4500 3784 4614 3471 
Q 4728 3159 4728 2791 
Q 4728 2366 4581 1936 
Q 4434 1506 4171 1136 
Q 3909 766 3559 484 
Q 3209 203 2809 38 
Q 2850 -256 2934 -425 
Q 3019 -594 3256 -594 
Q 3506 -594 3726 -412 
Q 3947 -231 4006 13 
Q 4019 72 4078 72 
Q 4147 72 4147 -13 
Q 4100 -219 4008 -430 
Q 3916 -641 3786 -823 
Q 3656 -1006 3478 -1123 
Q 3300 -1241 3084 -1241 
Q 2547 -1241 2547 -550 
Q 2547 -509 2562 -332 
Q 2578 -156 2578 -44 
Q 2269 -141 1947 -141 
z
M 1709 300 
Q 1709 44 1991 44 
Q 2275 44 2591 184 
L 2591 244 
Q 2591 503 2509 648 
Q 2428 794 2194 794 
Q 2078 794 1964 723 
Q 1850 653 1779 539 
Q 1709 425 1709 300 
z
M 1544 288 
Q 1544 456 1637 612 
Q 1731 769 1881 864 
Q 2031 959 2203 959 
Q 2481 959 2607 771 
Q 2734 584 2778 281 
Q 3188 525 3500 978 
Q 3813 1431 3977 1973 
Q 4141 2516 4141 3003 
Q 4141 3356 4023 3656 
Q 3906 3956 3664 4140 
Q 3422 4325 3066 4325 
Q 2722 4325 2403 4156 
Q 2084 3988 1813 3706 
Q 1550 3434 1342 3032 
Q 1134 2631 1021 2193 
Q 909 1756 909 1356 
Q 909 947 1068 612 
Q 1228 278 1569 128 
Q 1544 194 1544 288 
z
" transform="scale(0.015625)"/>
     </defs>
     <use xlink:href="#Cmmi10-51" transform="translate(0 0.484375)"/>
    </g>
   </g>
   <g id="text_2">
    <!-- $P$ -->
    <g transform="translate(127.380758 197.374988) scale(0.1728 -0.1728)">
     <defs>
      <path id="Cmmi10-50" d="M 313 0 
Q 250 0 250 84 
Q 253 100 262 139 
Q 272 178 289 201 
Q 306 225 331 225 
Q 722 225 878 269 
Q 959 297 997 441 
L 1875 3956 
Q 1888 4019 1888 4044 
Q 1888 4113 1813 4122 
Q 1691 4147 1350 4147 
Q 1288 4147 1288 4231 
Q 1291 4247 1300 4286 
Q 1309 4325 1326 4348 
Q 1344 4372 1369 4372 
L 3578 4372 
Q 3881 4372 4165 4264 
Q 4450 4156 4631 3934 
Q 4813 3713 4813 3397 
Q 4813 2991 4527 2672 
Q 4241 2353 3814 2175 
Q 3388 1997 2988 1997 
L 1947 1997 
L 1556 416 
Q 1544 353 1544 325 
Q 1544 300 1551 283 
Q 1559 266 1573 261 
Q 1588 256 1619 250 
Q 1741 225 2081 225 
Q 2144 225 2144 141 
Q 2122 50 2109 25 
Q 2097 0 2034 0 
L 313 0 
z
M 1978 2188 
L 2875 2188 
Q 3497 2188 3822 2522 
Q 3988 2688 4092 3000 
Q 4197 3313 4197 3566 
Q 4197 3881 3956 4014 
Q 3716 4147 3359 4147 
L 2747 4147 
Q 2572 4147 2515 4117 
Q 2459 4088 2413 3928 
L 1978 2188 
z
" transform="scale(0.015625)"/>
     </defs>
     <use xlink:href="#Cmmi10-50" transform="translate(0 0.6875)"/>
    </g>
   </g>
  </g>
 </g>
 <defs>
  <clipPath id="p87b096fc7d">
   <rect x="7.2" y="7.2" width="439.2" height="189.042215"/>
  </clipPath>
 </defs>
</svg>
