<?xml version="1.0" encoding="utf-8" standalone="no"?>
<!DOCTYPE svg PUBLIC "-//W3C//DTD SVG 1.1//EN"
  "http://www.w3.org/Graphics/SVG/1.1/DTD/svg11.dtd">
<svg xmlns:xlink="http://www.w3.org/1999/xlink" width="453.6pt" height="208.168757pt" viewBox="0 0 453.6 208.168757" xmlns="http://www.w3.org/2000/svg" version="1.1">
 <metadata>
  <rdf:RDF xmlns:dc="http://purl.org/dc/elements/1.1/" xmlns:cc="http://creativecommons.org/ns#" xmlns:rdf="http://www.w3.org/1999/02/22-rdf-syntax-ns#">
   <cc:Work>
    <dc:type rdf:resource="http://purl.org/dc/dcmitype/StillImage"/>
    <dc:date>2024-11-20T07:36:32.556935</dc:date>
    <dc:format>image/svg+xml</dc:format>
    <dc:creator>
     <cc:Agent>
      <dc:title>Matplotlib v3.6.2, https://matplotlib.org/</dc:title>
     </cc:Agent>
    </dc:creator>
   </cc:Work>
  </rdf:RDF>
 </metadata>
 <defs>
  <style type="text/css">*{stroke-linejoin: round; stroke-linecap: butt}</style>
 </defs>
 <g id="figure_1">
  <g id="patch_1">
   <path d="M 0 208.168757 
L 453.6 208.168757 
L 453.6 0 
L 0 0 
z
" style="fill: #ffffff"/>
  </g>
  <g id="axes_1">
   <g id="patch_2">
    <path d="M 7.2 196.242285 
L 446.4 196.242285 
L 446.4 7.2 
L 7.2 7.2 
z
" style="fill: #ffffff"/>
   </g>
   <g id="PathCollection_1">
    <path d="M 412.500414 64.170045 
C 413.438048 64.170045 414.337406 63.797518 415.000414 63.134511 
C 415.663422 62.471503 416.035948 61.572145 416.035948 60.634511 
C 416.035948 59.696876 415.663422 58.797518 415.000414 58.134511 
C 414.337406 57.471503 413.438048 57.098977 412.500414 57.098977 
C 411.562779 57.098977 410.663422 57.471503 410.000414 58.134511 
C 409.337406 58.797518 408.96488 59.696876 408.96488 60.634511 
C 408.96488 61.572145 409.337406 62.471503 410.000414 63.134511 
C 410.663422 63.797518 411.562779 64.170045 412.500414 64.170045 
z
" clip-path="url(#pb08c87da57)"/>
   </g>
   <g id="PathCollection_2">
    <path d="M 132.996758 181.331498 
C 133.934393 181.331498 134.833751 180.958972 135.496758 180.295964 
C 136.159766 179.632957 136.532292 178.733599 136.532292 177.795964 
C 136.532292 176.85833 136.159766 175.958972 135.496758 175.295964 
C 134.833751 174.632957 133.934393 174.26043 132.996758 174.26043 
C 132.059124 174.26043 131.159766 174.632957 130.496758 175.295964 
C 129.833751 175.958972 129.461224 176.85833 129.461224 177.795964 
C 129.461224 178.733599 129.833751 179.632957 130.496758 180.295964 
C 131.159766 180.958972 132.059124 181.331498 132.996758 181.331498 
z
" clip-path="url(#pb08c87da57)"/>
   </g>
   <g id="matplotlib.axis_1"/>
   <g id="matplotlib.axis_2"/>
   <g id="line2d_1">
    <path d="M 412.500414 60.634511 
L 409.46285 56.710889 
L 406.712646 53.492694 
L 403.854038 50.426377 
L 400.864547 47.477867 
L 396.798424 43.827102 
L 393.264374 40.94248 
L 389.537079 38.151051 
L 383.767373 34.26855 
L 379.407824 31.642431 
L 373.412289 28.405502 
L 367.593501 25.629808 
L 362.085896 23.296832 
L 355.643494 20.893385 
L 350.409996 19.175838 
L 345.280225 17.680152 
L 337.746173 15.794392 
L 330.80914 14.360085 
L 325.428764 13.432873 
L 318.221709 12.428491 
L 312.430538 11.807982 
L 306.769841 11.354088 
L 300.560344 11.022292 
L 294.136722 10.854561 
L 287.44401 10.862384 
L 278.027579 11.17655 
L 271.504503 11.594894 
L 264.08917 12.264043 
L 256.001469 13.223349 
L 245.906687 14.749865 
L 236.836278 16.428751 
L 228.457963 18.236212 
L 224.298594 19.225112 
L 216.579616 21.222255 
L 206.747163 24.07466 
L 198.800292 26.638053 
L 189.795161 29.830738 
L 181.609257 33.009482 
L 172.923781 36.686088 
L 165.488548 40.098187 
L 159.287134 43.144361 
L 151.150099 47.441273 
L 144.300115 51.348685 
L 139.640748 54.174344 
L 133.252451 58.294904 
L 127.403011 62.349815 
L 120.573938 67.483896 
L 116.549697 70.747189 
L 112.463111 74.275513 
L 108.001278 78.421234 
L 105.204171 81.207107 
L 101.384028 85.298191 
L 97.822436 89.486925 
L 94.985285 93.16409 
L 92.660941 96.476622 
L 90.76595 99.443764 
L 88.37858 103.662592 
L 86.684755 107.141962 
L 85.163967 110.836529 
L 83.98863 114.353473 
L 83.098854 117.814926 
L 82.536039 120.901978 
L 82.203063 123.92581 
L 82.102837 126.043159 
L 82.149133 128.933107 
L 82.451686 132.09518 
L 82.975129 135.010514 
L 83.781535 138.041766 
L 84.510755 140.157037 
L 85.818781 143.210948 
L 87.446561 146.263847 
L 89.259964 149.090278 
L 91.390694 151.91638 
L 93.102571 153.914067 
L 96.385501 157.260835 
L 98.00975 158.735483 
L 101.79429 161.820764 
L 105.910498 164.743097 
L 110.663578 167.694113 
L 115.454357 170.311871 
L 119.852428 172.461893 
L 125.004278 174.726374 
L 130.486129 176.88356 
L 132.996758 177.795964 
L 132.996758 177.795964 
" clip-path="url(#pb08c87da57)" style="fill: none; stroke: #000000; stroke-width: 2; stroke-linecap: square"/>
   </g>
   <g id="patch_3">
    <path d="M 132.996758 177.795964 
Q 108.256309 166.898403 85.562207 156.902207 
" clip-path="url(#pb08c87da57)" style="fill: none; stroke: #0000ff; stroke-width: 2; stroke-linecap: round"/>
    <path d="M 92.698237 165.509012 
L 85.562207 156.902207 
L 96.729268 156.357466 
L 92.698237 165.509012 
z
" clip-path="url(#pb08c87da57)" style="fill: #0000ff; stroke: #0000ff; stroke-width: 2; stroke-linecap: round"/>
   </g>
   <g id="patch_4">
    <path d="M 110.582315 167.646865 
Q 82.106125 158.44082 55.757579 149.922619 
" clip-path="url(#pb08c87da57)" style="fill: none; stroke: #0000ff; stroke-width: 2; stroke-linecap: round"/>
    <path d="M 63.734627 157.75631 
L 55.757579 149.922619 
L 66.81076 148.241196 
L 63.734627 157.75631 
z
" clip-path="url(#pb08c87da57)" style="fill: #0000ff; stroke: #0000ff; stroke-width: 2; stroke-linecap: round"/>
   </g>
   <g id="patch_5">
    <path d="M 94.609381 155.518861 
Q 63.471035 148.33415 34.511511 141.652169 
" clip-path="url(#pb08c87da57)" style="fill: none; stroke: #0000ff; stroke-width: 2; stroke-linecap: round"/>
    <path d="M 43.131355 148.772442 
L 34.511511 141.652169 
L 45.379635 139.028457 
L 43.131355 148.772442 
z
" clip-path="url(#pb08c87da57)" style="fill: #0000ff; stroke: #0000ff; stroke-width: 2; stroke-linecap: round"/>
   </g>
   <g id="patch_6">
    <path d="M 85.152498 141.745535 
Q 52.438005 136.856379 21.935019 132.29773 
" clip-path="url(#pb08c87da57)" style="fill: none; stroke: #0000ff; stroke-width: 2; stroke-linecap: round"/>
    <path d="M 31.086142 138.720888 
L 21.935019 132.29773 
L 32.564219 128.830727 
L 31.086142 138.720888 
z
" clip-path="url(#pb08c87da57)" style="fill: #0000ff; stroke: #0000ff; stroke-width: 2; stroke-linecap: round"/>
   </g>
   <g id="patch_7">
    <path d="M 82.094479 126.720767 
Q 48.870316 124.335738 17.876483 122.110816 
" clip-path="url(#pb08c87da57)" style="fill: none; stroke: #0000ff; stroke-width: 2; stroke-linecap: round"/>
    <path d="M 27.492807 127.813999 
L 17.876483 122.110816 
L 28.208824 117.839666 
L 27.492807 127.813999 
z
" clip-path="url(#pb08c87da57)" style="fill: #0000ff; stroke: #0000ff; stroke-width: 2; stroke-linecap: round"/>
   </g>
   <g id="patch_8">
    <path d="M 85.145013 110.887514 
Q 52.429273 111.141361 21.949533 111.377859 
" clip-path="url(#pb08c87da57)" style="fill: none; stroke: #0000ff; stroke-width: 2; stroke-linecap: round"/>
    <path d="M 31.988027 116.300119 
L 21.949533 111.377859 
L 31.910438 106.30042 
L 31.988027 116.300119 
z
" clip-path="url(#pb08c87da57)" style="fill: #0000ff; stroke: #0000ff; stroke-width: 2; stroke-linecap: round"/>
   </g>
   <g id="patch_9">
    <path d="M 93.862811 94.72478 
Q 62.600037 97.672416 33.563458 100.410153 
" clip-path="url(#pb08c87da57)" style="fill: none; stroke: #0000ff; stroke-width: 2; stroke-linecap: round"/>
    <path d="M 43.98865 104.449381 
L 33.563458 100.410153 
L 43.049955 94.493535 
L 43.98865 104.449381 
z
" clip-path="url(#pb08c87da57)" style="fill: #0000ff; stroke: #0000ff; stroke-width: 2; stroke-linecap: round"/>
   </g>
   <g id="patch_10">
    <path d="M 107.680175 78.733113 
Q 78.720295 84.346027 51.955632 89.53347 
" clip-path="url(#pb08c87da57)" style="fill: none; stroke: #0000ff; stroke-width: 2; stroke-linecap: round"/>
    <path d="M 62.724318 92.539364 
L 51.955632 89.53347 
L 60.821558 82.722057 
L 62.724318 92.539364 
z
" clip-path="url(#pb08c87da57)" style="fill: #0000ff; stroke: #0000ff; stroke-width: 2; stroke-linecap: round"/>
   </g>
   <g id="patch_11">
    <path d="M 125.928882 63.419118 
Q 100.010453 71.584364 76.22476 79.077721 
" clip-path="url(#pb08c87da57)" style="fill: none; stroke: #0000ff; stroke-width: 2; stroke-linecap: round"/>
    <path d="M 87.265038 80.841884 
L 76.22476 79.077721 
L 84.260257 71.303996 
L 87.265038 80.841884 
z
" clip-path="url(#pb08c87da57)" style="fill: #0000ff; stroke: #0000ff; stroke-width: 2; stroke-linecap: round"/>
   </g>
   <g id="patch_12">
    <path d="M 147.866346 49.27942 
Q 125.604162 59.801282 105.363617 69.367649 
" clip-path="url(#pb08c87da57)" style="fill: none; stroke: #0000ff; stroke-width: 2; stroke-linecap: round"/>
    <path d="M 116.541219 69.615068 
L 105.363617 69.367649 
L 112.268113 60.574019 
L 116.541219 69.615068 
z
" clip-path="url(#pb08c87da57)" style="fill: #0000ff; stroke: #0000ff; stroke-width: 2; stroke-linecap: round"/>
   </g>
   <g id="patch_13">
    <path d="M 172.701152 36.784617 
Q 154.578101 49.388947 138.290794 60.716543 
" clip-path="url(#pb08c87da57)" style="fill: none; stroke: #0000ff; stroke-width: 2; stroke-linecap: round"/>
    <path d="M 149.355348 59.111663 
L 138.290794 60.716543 
L 143.645622 50.901971 
L 149.355348 59.111663 
z
" clip-path="url(#pb08c87da57)" style="fill: #0000ff; stroke: #0000ff; stroke-width: 2; stroke-linecap: round"/>
   </g>
   <g id="patch_14">
    <path d="M 199.617158 26.363725 
Q 185.980109 40.70487 173.88392 53.425598 
" clip-path="url(#pb08c87da57)" style="fill: none; stroke: #0000ff; stroke-width: 2; stroke-linecap: round"/>
    <path d="M 184.398218 49.624344 
L 173.88392 53.425598 
L 177.151495 42.733407 
L 184.398218 49.624344 
z
" clip-path="url(#pb08c87da57)" style="fill: #0000ff; stroke: #0000ff; stroke-width: 2; stroke-linecap: round"/>
   </g>
   <g id="patch_15">
    <path d="M 227.795575 18.389621 
Q 218.854929 34.059783 211.022399 47.787762 
" clip-path="url(#pb08c87da57)" style="fill: none; stroke: #0000ff; stroke-width: 2; stroke-linecap: round"/>
    <path d="M 220.320904 41.579879 
L 211.022399 47.787762 
L 211.635196 36.624229 
L 220.320904 41.579879 
z
" clip-path="url(#pb08c87da57)" style="fill: #0000ff; stroke: #0000ff; stroke-width: 2; stroke-linecap: round"/>
   </g>
   <g id="patch_16">
    <path d="M 256.434551 13.165992 
Q 252.267066 29.706759 248.645892 44.079222 
" clip-path="url(#pb08c87da57)" style="fill: none; stroke: #0000ff; stroke-width: 2; stroke-linecap: round"/>
    <path d="M 255.937539 35.603852 
L 248.645892 44.079222 
L 246.240584 33.160683 
L 255.937539 35.603852 
z
" clip-path="url(#pb08c87da57)" style="fill: #0000ff; stroke: #0000ff; stroke-width: 2; stroke-linecap: round"/>
   </g>
   <g id="patch_17">
    <path d="M 284.766003 10.91622 
Q 285.320428 27.83195 285.801603 42.512811 
" clip-path="url(#pb08c87da57)" style="fill: none; stroke: #0000ff; stroke-width: 2; stroke-linecap: round"/>
    <path d="M 290.471339 32.354387 
L 285.801603 42.512811 
L 280.476706 32.681968 
L 290.471339 32.354387 
z
" clip-path="url(#pb08c87da57)" style="fill: #0000ff; stroke: #0000ff; stroke-width: 2; stroke-linecap: round"/>
   </g>
   <g id="patch_18">
    <path d="M 312.069605 11.774609 
Q 317.17463 28.547274 321.628563 43.180761 
" clip-path="url(#pb08c87da57)" style="fill: none; stroke: #0000ff; stroke-width: 2; stroke-linecap: round"/>
    <path d="M 323.500135 32.158183 
L 321.628563 43.180761 
L 313.933444 35.069957 
L 323.500135 32.158183 
z
" clip-path="url(#pb08c87da57)" style="fill: #0000ff; stroke: #0000ff; stroke-width: 2; stroke-linecap: round"/>
   </g>
   <g id="patch_19">
    <path d="M 337.683957 15.78028 
Q 347.05804 31.885332 355.307273 46.057845 
" clip-path="url(#pb08c87da57)" style="fill: none; stroke: #0000ff; stroke-width: 2; stroke-linecap: round"/>
    <path d="M 354.598075 34.900021 
L 355.307273 46.057845 
L 345.955495 39.930509 
L 354.598075 34.900021 
z
" clip-path="url(#pb08c87da57)" style="fill: #0000ff; stroke: #0000ff; stroke-width: 2; stroke-linecap: round"/>
   </g>
   <g id="patch_20">
    <path d="M 361.015146 22.873977 
Q 374.277762 37.796747 386.054944 51.048143 
" clip-path="url(#pb08c87da57)" style="fill: none; stroke: #0000ff; stroke-width: 2; stroke-linecap: round"/>
    <path d="M 383.149188 40.252006 
L 386.054944 51.048143 
L 375.67458 46.895065 
L 383.149188 40.252006 
z
" clip-path="url(#pb08c87da57)" style="fill: #0000ff; stroke: #0000ff; stroke-width: 2; stroke-linecap: round"/>
   </g>
   <g id="patch_21">
    <path d="M 381.542981 32.897955 
Q 398.226902 46.150061 413.159893 58.011397 
" clip-path="url(#pb08c87da57)" style="fill: none; stroke: #0000ff; stroke-width: 2; stroke-linecap: round"/>
    <path d="M 408.439354 47.876482 
L 413.159893 58.011397 
L 402.219637 55.706879 
L 408.439354 47.876482 
z
" clip-path="url(#pb08c87da57)" style="fill: #0000ff; stroke: #0000ff; stroke-width: 2; stroke-linecap: round"/>
   </g>
   <g id="patch_22">
    <path d="M 398.825248 45.598992 
Q 418.389547 56.734259 436.010501 66.763447 
" clip-path="url(#pb08c87da57)" style="fill: none; stroke: #0000ff; stroke-width: 2; stroke-linecap: round"/>
    <path d="M 429.792868 57.47146 
L 436.010501 66.763447 
L 424.846331 66.162362 
L 429.792868 57.47146 
z
" clip-path="url(#pb08c87da57)" style="fill: #0000ff; stroke: #0000ff; stroke-width: 2; stroke-linecap: round"/>
   </g>
   <g id="text_1">
    <!-- $Q$ -->
    <g transform="translate(405.588414 80.213603) scale(0.1728 -0.1728)">
     <defs>
      <path id="Cmmi10-51" d="M 1947 -141 
Q 1466 -141 1094 79 
Q 722 300 520 692 
Q 319 1084 319 1563 
Q 319 2259 714 2950 
Q 1109 3641 1756 4077 
Q 2403 4513 3109 4513 
Q 3475 4513 3778 4381 
Q 4081 4250 4290 4017 
Q 4500 3784 4614 3471 
Q 4728 3159 4728 2791 
Q 4728 2366 4581 1936 
Q 4434 1506 4171 1136 
Q 3909 766 3559 484 
Q 3209 203 2809 38 
Q 2850 -256 2934 -425 
Q 3019 -594 3256 -594 
Q 3506 -594 3726 -412 
Q 3947 -231 4006 13 
Q 4019 72 4078 72 
Q 4147 72 4147 -13 
Q 4100 -219 4008 -430 
Q 3916 -641 3786 -823 
Q 3656 -1006 3478 -1123 
Q 3300 -1241 3084 -1241 
Q 2547 -1241 2547 -550 
Q 2547 -509 2562 -332 
Q 2578 -156 2578 -44 
Q 2269 -141 1947 -141 
z
M 1709 300 
Q 1709 44 1991 44 
Q 2275 44 2591 184 
L 2591 244 
Q 2591 503 2509 648 
Q 2428 794 2194 794 
Q 2078 794 1964 723 
Q 1850 653 1779 539 
Q 1709 425 1709 300 
z
M 1544 288 
Q 1544 456 1637 612 
Q 1731 769 1881 864 
Q 2031 959 2203 959 
Q 2481 959 2607 771 
Q 2734 584 2778 281 
Q 3188 525 3500 978 
Q 3813 1431 3977 1973 
Q 4141 2516 4141 3003 
Q 4141 3356 4023 3656 
Q 3906 3956 3664 4140 
Q 3422 4325 3066 4325 
Q 2722 4325 2403 4156 
Q 2084 3988 1813 3706 
Q 1550 3434 1342 3032 
Q 1134 2631 1021 2193 
Q 909 1756 909 1356 
Q 909 947 1068 612 
Q 1228 278 1569 128 
Q 1544 194 1544 288 
z
" transform="scale(0.015625)"/>
     </defs>
     <use xlink:href="#Cmmi10-51" transform="translate(0 0.484375)"/>
    </g>
   </g>
   <g id="text_2">
    <!-- $P$ -->
    <g transform="translate(127.380758 197.375057) scale(0.1728 -0.1728)">
     <defs>
      <path id="Cmmi10-50" d="M 313 0 
Q 250 0 250 84 
Q 253 100 262 139 
Q 272 178 289 201 
Q 306 225 331 225 
Q 722 225 878 269 
Q 959 297 997 441 
L 1875 3956 
Q 1888 4019 1888 4044 
Q 1888 4113 1813 4122 
Q 1691 4147 1350 4147 
Q 1288 4147 1288 4231 
Q 1291 4247 1300 4286 
Q 1309 4325 1326 4348 
Q 1344 4372 1369 4372 
L 3578 4372 
Q 3881 4372 4165 4264 
Q 4450 4156 4631 3934 
Q 4813 3713 4813 3397 
Q 4813 2991 4527 2672 
Q 4241 2353 3814 2175 
Q 3388 1997 2988 1997 
L 1947 1997 
L 1556 416 
Q 1544 353 1544 325 
Q 1544 300 1551 283 
Q 1559 266 1573 261 
Q 1588 256 1619 250 
Q 1741 225 2081 225 
Q 2144 225 2144 141 
Q 2122 50 2109 25 
Q 2097 0 2034 0 
L 313 0 
z
M 1978 2188 
L 2875 2188 
Q 3497 2188 3822 2522 
Q 3988 2688 4092 3000 
Q 4197 3313 4197 3566 
Q 4197 3881 3956 4014 
Q 3716 4147 3359 4147 
L 2747 4147 
Q 2572 4147 2515 4117 
Q 2459 4088 2413 3928 
L 1978 2188 
z
" transform="scale(0.015625)"/>
     </defs>
     <use xlink:href="#Cmmi10-50" transform="translate(0 0.6875)"/>
    </g>
   </g>
  </g>
 </g>
 <defs>
  <clipPath id="pb08c87da57">
   <rect x="7.2" y="7.2" width="439.2" height="189.042285"/>
  </clipPath>
 </defs>
</svg>
