<?xml version="1.0" encoding="utf-8" standalone="no"?>
<!DOCTYPE svg PUBLIC "-//W3C//DTD SVG 1.1//EN"
  "http://www.w3.org/Graphics/SVG/1.1/DTD/svg11.dtd">
<svg xmlns:xlink="http://www.w3.org/1999/xlink" width="451.929838pt" height="262.613516pt" viewBox="0 0 451.929838 262.613516" xmlns="http://www.w3.org/2000/svg" version="1.1">
 <metadata>
  <rdf:RDF xmlns:dc="http://purl.org/dc/elements/1.1/" xmlns:cc="http://creativecommons.org/ns#" xmlns:rdf="http://www.w3.org/1999/02/22-rdf-syntax-ns#">
   <cc:Work>
    <dc:type rdf:resource="http://purl.org/dc/dcmitype/StillImage"/>
    <dc:date>2025-02-05T13:31:08.846197</dc:date>
    <dc:format>image/svg+xml</dc:format>
    <dc:creator>
     <cc:Agent>
      <dc:title>Matplotlib v3.8.0, https://matplotlib.org/</dc:title>
     </cc:Agent>
    </dc:creator>
   </cc:Work>
  </rdf:RDF>
 </metadata>
 <defs>
  <style type="text/css">*{stroke-linejoin: round; stroke-linecap: butt}</style>
 </defs>
 <g id="figure_1">
  <g id="patch_1">
   <path d="M 0 262.613516 
L 451.929838 262.613516 
L 451.929838 0 
L 0 0 
z
" style="fill: #ffffff"/>
  </g>
  <g id="axes_1">
   <g id="patch_2">
    <path d="M 8.311403 250.312536 
L 423.718435 250.312536 
L 423.718435 12.30098 
L 8.311403 12.30098 
z
" style="fill: #ffffff"/>
   </g>
   <g id="PathCollection_1">
    <path d="M 85.52479 232.653902 
C 86.462425 232.653902 87.361783 232.281376 88.02479 231.618368 
C 88.687798 230.955361 89.060324 230.056003 89.060324 229.118368 
C 89.060324 228.180734 88.687798 227.281376 88.02479 226.618368 
C 87.361783 225.955361 86.462425 225.582835 85.52479 225.582835 
C 84.587156 225.582835 83.687798 225.955361 83.02479 226.618368 
C 82.361783 227.281376 81.989257 228.180734 81.989257 229.118368 
C 81.989257 230.056003 82.361783 230.955361 83.02479 231.618368 
C 83.687798 232.281376 84.587156 232.653902 85.52479 232.653902 
z
" clip-path="url(#peb339f35d3)"/>
   </g>
   <g id="PathCollection_2">
    <path d="M 32.917023 194.511756 
C 33.854657 194.511756 34.754015 194.139229 35.417023 193.476222 
C 36.08003 192.813214 36.452556 191.913856 36.452556 190.976222 
C 36.452556 190.038587 36.08003 189.139229 35.417023 188.476222 
C 34.754015 187.813214 33.854657 187.440688 32.917023 187.440688 
C 31.979388 187.440688 31.08003 187.813214 30.417023 188.476222 
C 29.754015 189.139229 29.381489 190.038587 29.381489 190.976222 
C 29.381489 191.913856 29.754015 192.813214 30.417023 193.476222 
C 31.08003 194.139229 31.979388 194.511756 32.917023 194.511756 
z
" clip-path="url(#peb339f35d3)"/>
   </g>
   <g id="PathCollection_3">
    <path d="M 38.21003 144.63883 
C 39.147664 144.63883 40.047022 144.266304 40.71003 143.603296 
C 41.373038 142.940289 41.745564 142.040931 41.745564 141.103296 
C 41.745564 140.165662 41.373038 139.266304 40.71003 138.603296 
C 40.047022 137.940289 39.147664 137.567762 38.21003 137.567762 
C 37.272395 137.567762 36.373038 137.940289 35.71003 138.603296 
C 35.047022 139.266304 34.674496 140.165662 34.674496 141.103296 
C 34.674496 142.040931 35.047022 142.940289 35.71003 143.603296 
C 36.373038 144.266304 37.272395 144.63883 38.21003 144.63883 
z
" clip-path="url(#peb339f35d3)"/>
   </g>
   <g id="PathCollection_4">
    <path d="M 91.208646 95.068049 
C 92.14628 95.068049 93.045638 94.695523 93.708646 94.032515 
C 94.371653 93.369508 94.74418 92.47015 94.74418 91.532515 
C 94.74418 90.594881 94.371653 89.695523 93.708646 89.032515 
C 93.045638 88.369508 92.14628 87.996982 91.208646 87.996982 
C 90.271011 87.996982 89.371653 88.369508 88.708646 89.032515 
C 88.045638 89.695523 87.673112 90.594881 87.673112 91.532515 
C 87.673112 92.47015 88.045638 93.369508 88.708646 94.032515 
C 89.371653 94.695523 90.271011 95.068049 91.208646 95.068049 
z
" clip-path="url(#peb339f35d3)"/>
   </g>
   <g id="PathCollection_5">
    <path d="M 264.705487 45.339193 
C 265.643122 45.339193 266.542479 44.966667 267.205487 44.303659 
C 267.868495 43.640651 268.241021 42.741293 268.241021 41.803659 
C 268.241021 40.866024 267.868495 39.966667 267.205487 39.303659 
C 266.542479 38.640651 265.643122 38.268125 264.705487 38.268125 
C 263.767853 38.268125 262.868495 38.640651 262.205487 39.303659 
C 261.542479 39.966667 261.169953 40.866024 261.169953 41.803659 
C 261.169953 42.741293 261.542479 43.640651 262.205487 44.303659 
C 262.868495 44.966667 263.767853 45.339193 264.705487 45.339193 
z
" clip-path="url(#peb339f35d3)"/>
   </g>
   <g id="PathCollection_6">
    <path d="M 344.844384 60.25062 
C 345.782018 60.25062 346.681376 59.878094 347.344384 59.215086 
C 348.007391 58.552078 348.379918 57.652721 348.379918 56.715086 
C 348.379918 55.777452 348.007391 54.878094 347.344384 54.215086 
C 346.681376 53.552078 345.782018 53.179552 344.844384 53.179552 
C 343.906749 53.179552 343.007391 53.552078 342.344384 54.215086 
C 341.681376 54.878094 341.30885 55.777452 341.30885 56.715086 
C 341.30885 57.652721 341.681376 58.552078 342.344384 59.215086 
C 343.007391 59.878094 343.906749 60.25062 344.844384 60.25062 
z
" clip-path="url(#peb339f35d3)"/>
   </g>
   <g id="PathCollection_7">
    <path d="M 399.112815 101.205071 
C 400.05045 101.205071 400.949808 100.832545 401.612815 100.169537 
C 402.275823 99.506529 402.648349 98.607172 402.648349 97.669537 
C 402.648349 96.731903 402.275823 95.832545 401.612815 95.169537 
C 400.949808 94.506529 400.05045 94.134003 399.112815 94.134003 
C 398.175181 94.134003 397.275823 94.506529 396.612815 95.169537 
C 395.949808 95.832545 395.577281 96.731903 395.577281 97.669537 
C 395.577281 98.607172 395.949808 99.506529 396.612815 100.169537 
C 397.275823 100.832545 398.175181 101.205071 399.112815 101.205071 
z
" clip-path="url(#peb339f35d3)"/>
   </g>
   <g id="matplotlib.axis_1"/>
   <g id="matplotlib.axis_2"/>
   <g id="line2d_1">
    <path d="M 399.112815 97.669537 
L 395.571905 93.105089 
L 391.313331 88.220472 
L 389.024642 85.820192 
L 385.113202 82.024279 
L 381.969098 79.217753 
L 376.881101 75.071379 
L 373.028913 72.215338 
L 366.500377 67.852223 
L 361.067269 64.619225 
L 357.428592 62.63255 
L 351.841243 59.833252 
L 346.383901 57.366595 
L 339.313185 54.5246 
L 333.648841 52.509811 
L 328.89949 50.985634 
L 322.358218 49.115484 
L 315.129726 47.335755 
L 307.714132 45.799886 
L 300.679106 44.595649 
L 292.790374 43.519364 
L 287.101981 42.913413 
L 276.789841 42.158138 
L 268.342525 41.852271 
L 260.696126 41.806418 
L 251.213783 42.041874 
L 243.118024 42.489977 
L 235.540017 43.109433 
L 226.168199 44.136403 
L 218.228138 45.227797 
L 208.307521 46.872227 
L 201.179733 48.244536 
L 191.878141 50.274402 
L 184.995971 51.950795 
L 175.023744 54.64534 
L 169.456185 56.288033 
L 159.628387 59.434501 
L 153.31689 61.625234 
L 144.018368 65.103564 
L 136.404579 68.183094 
L 128.526041 71.600486 
L 121.072141 75.062346 
L 113.245947 78.953099 
L 105.842824 82.894427 
L 97.887483 87.44029 
L 91.758803 91.18518 
L 84.353411 96.027818 
L 78.267004 100.303531 
L 72.765882 104.432859 
L 67.141794 108.957187 
L 61.445506 113.911406 
L 58.335165 116.8045 
L 53.114979 122.025039 
L 49.654218 125.794307 
L 46.544905 129.445747 
L 43.251314 133.660984 
L 40.982121 136.832216 
L 38.72929 140.263414 
L 36.084098 144.785172 
L 34.351194 148.162874 
L 32.338071 152.746529 
L 31.218222 155.798657 
L 29.882081 160.362011 
L 29.314681 162.922643 
L 28.732079 166.639152 
L 28.496831 169.278961 
L 28.42285 172.816073 
L 28.569549 175.640015 
L 28.920799 178.55589 
L 29.598909 181.958392 
L 30.446504 184.952316 
L 31.221842 187.140259 
L 32.333527 189.763732 
L 33.736349 192.53873 
L 35.581461 195.616177 
L 38.039189 199.067724 
L 40.903865 202.476914 
L 42.763892 204.437456 
L 46.28015 207.741336 
L 50.295014 211.025601 
L 53.587674 213.422938 
L 57.1681 215.78889 
L 61.794052 218.5428 
L 65.878298 220.73969 
L 71.579529 223.503535 
L 78.659345 226.531853 
L 85.52479 229.118368 
L 85.52479 229.118368 
" clip-path="url(#peb339f35d3)" style="fill: none; stroke: #000000; stroke-width: 2; stroke-linecap: square"/>
   </g>
   <g id="patch_3">
    <path d="M 91.208646 91.532515 
Q 177.957066 66.668087 262.555973 42.419767 
" clip-path="url(#peb339f35d3)" style="fill: none; stroke: #ff0000; stroke-width: 2; stroke-linecap: round"/>
    <path d="M 251.565394 40.368629 
L 262.555973 42.419767 
L 254.320715 49.981547 
z
" clip-path="url(#peb339f35d3)" style="fill: #ff0000; stroke: #ff0000; stroke-width: 2; stroke-linecap: round"/>
   </g>
   <g id="text_1">
    <!-- $P=\vec{r}_0$ -->
    <g transform="translate(67.033302 251.254141) scale(0.2 -0.2)">
     <defs>
      <path id="Cmmi10-50" d="M 313 0 
Q 250 0 250 84 
Q 253 100 262 139 
Q 272 178 289 201 
Q 306 225 331 225 
Q 722 225 878 269 
Q 959 297 997 441 
L 1875 3956 
Q 1888 4019 1888 4044 
Q 1888 4113 1813 4122 
Q 1691 4147 1350 4147 
Q 1288 4147 1288 4231 
Q 1291 4247 1300 4286 
Q 1309 4325 1326 4348 
Q 1344 4372 1369 4372 
L 3578 4372 
Q 3881 4372 4165 4264 
Q 4450 4156 4631 3934 
Q 4813 3713 4813 3397 
Q 4813 2991 4527 2672 
Q 4241 2353 3814 2175 
Q 3388 1997 2988 1997 
L 1947 1997 
L 1556 416 
Q 1544 353 1544 325 
Q 1544 300 1551 283 
Q 1559 266 1573 261 
Q 1588 256 1619 250 
Q 1741 225 2081 225 
Q 2144 225 2144 141 
Q 2122 50 2109 25 
Q 2097 0 2034 0 
L 313 0 
z
M 1978 2188 
L 2875 2188 
Q 3497 2188 3822 2522 
Q 3988 2688 4092 3000 
Q 4197 3313 4197 3566 
Q 4197 3881 3956 4014 
Q 3716 4147 3359 4147 
L 2747 4147 
Q 2572 4147 2515 4117 
Q 2459 4088 2413 3928 
L 1978 2188 
z
" transform="scale(0.015625)"/>
      <path id="Cmr10-3d" d="M 481 850 
Q 428 850 393 890 
Q 359 931 359 978 
Q 359 1031 393 1068 
Q 428 1106 481 1106 
L 4500 1106 
Q 4547 1106 4581 1068 
Q 4616 1031 4616 978 
Q 4616 931 4581 890 
Q 4547 850 4500 850 
L 481 850 
z
M 481 2094 
Q 428 2094 393 2131 
Q 359 2169 359 2222 
Q 359 2269 393 2309 
Q 428 2350 481 2350 
L 4500 2350 
Q 4547 2350 4581 2309 
Q 4616 2269 4616 2222 
Q 4616 2169 4581 2131 
Q 4547 2094 4500 2094 
L 481 2094 
z
" transform="scale(0.015625)"/>
      <path id="Cmmi10-7e" d="M 1281 3809 
Q 1231 3809 1198 3846 
Q 1166 3884 1166 3938 
Q 1166 3984 1198 4023 
Q 1231 4063 1281 4063 
L 3547 4063 
Q 3378 4291 3378 4441 
Q 3378 4497 3417 4533 
Q 3456 4569 3506 4569 
Q 3613 4569 3634 4469 
Q 3697 4194 3938 4044 
Q 4000 4003 4000 3938 
Q 4000 3859 3938 3828 
Q 3575 3647 3353 3347 
Q 3328 3303 3256 3303 
Q 3209 3303 3168 3340 
Q 3128 3378 3128 3431 
Q 3128 3547 3438 3809 
L 1281 3809 
z
" transform="scale(0.015625)"/>
      <path id="Cmmi10-72" d="M 494 109 
Q 494 147 500 166 
L 978 2075 
Q 1025 2253 1025 2388 
Q 1025 2663 838 2663 
Q 638 2663 541 2423 
Q 444 2184 353 1819 
Q 353 1800 334 1789 
Q 316 1778 300 1778 
L 225 1778 
Q 203 1778 187 1801 
Q 172 1825 172 1844 
Q 241 2122 305 2315 
Q 369 2509 505 2668 
Q 641 2828 844 2828 
Q 1066 2828 1233 2700 
Q 1400 2572 1441 2363 
Q 1603 2575 1811 2701 
Q 2019 2828 2266 2828 
Q 2469 2828 2623 2709 
Q 2778 2591 2778 2388 
Q 2778 2225 2676 2104 
Q 2575 1984 2406 1984 
Q 2303 1984 2233 2048 
Q 2163 2113 2163 2216 
Q 2163 2356 2266 2467 
Q 2369 2578 2503 2578 
Q 2400 2663 2253 2663 
Q 1978 2663 1775 2467 
Q 1572 2272 1409 1972 
L 953 141 
Q 931 53 854 -9 
Q 778 -72 684 -72 
Q 606 -72 550 -22 
Q 494 28 494 109 
z
" transform="scale(0.015625)"/>
      <path id="Cmr10-30" d="M 1600 -141 
Q 816 -141 533 504 
Q 250 1150 250 2041 
Q 250 2597 351 3087 
Q 453 3578 754 3920 
Q 1056 4263 1600 4263 
Q 2022 4263 2290 4056 
Q 2559 3850 2700 3523 
Q 2841 3197 2892 2823 
Q 2944 2450 2944 2041 
Q 2944 1491 2842 1011 
Q 2741 531 2444 195 
Q 2147 -141 1600 -141 
z
M 1600 25 
Q 1956 25 2131 390 
Q 2306 756 2347 1200 
Q 2388 1644 2388 2144 
Q 2388 2625 2347 3031 
Q 2306 3438 2132 3767 
Q 1959 4097 1600 4097 
Q 1238 4097 1063 3765 
Q 888 3434 847 3029 
Q 806 2625 806 2144 
Q 806 1788 823 1472 
Q 841 1156 916 820 
Q 991 484 1158 254 
Q 1325 25 1600 25 
z
" transform="scale(0.015625)"/>
     </defs>
     <use xlink:href="#Cmmi10-50" transform="translate(0 0.53125)"/>
     <use xlink:href="#Cmr10-3d" transform="translate(81.767578 0.53125)"/>
     <use xlink:href="#Cmmi10-7e" transform="translate(165.072266 5.609375)"/>
     <use xlink:href="#Cmmi10-72" transform="translate(177.011719 0.53125)"/>
     <use xlink:href="#Cmr10-30" transform="translate(226.593047 -16.475) scale(0.7)"/>
    </g>
   </g>
   <g id="text_2">
    <!-- $\Delta \vec{r}_i=\vec{r}_{i}-\vec{r}_{i-1}$ -->
    <g style="fill: #ff0000" transform="translate(119.201399 98.964426) scale(0.2 -0.2)">
     <defs>
      <path id="Cmr10-a2" d="M 347 0 
Q 294 0 294 50 
Q 297 56 298 59 
Q 300 63 300 72 
L 2503 4513 
Q 2531 4581 2619 4581 
L 2706 4581 
Q 2794 4581 2822 4513 
L 5025 72 
Q 5028 66 5029 61 
Q 5031 56 5031 50 
Q 5031 0 4978 0 
L 347 0 
z
M 769 513 
L 4141 513 
L 2456 3909 
L 769 513 
z
" transform="scale(0.015625)"/>
      <path id="Cmmi10-69" d="M 500 459 
Q 500 578 550 709 
L 1069 2088 
Q 1153 2322 1153 2472 
Q 1153 2663 1013 2663 
Q 759 2663 595 2402 
Q 431 2141 353 1819 
Q 341 1778 300 1778 
L 225 1778 
Q 172 1778 172 1838 
L 172 1856 
Q 275 2238 487 2533 
Q 700 2828 1025 2828 
Q 1253 2828 1411 2678 
Q 1569 2528 1569 2297 
Q 1569 2178 1516 2047 
L 997 672 
Q 909 459 909 288 
Q 909 97 1056 97 
Q 1306 97 1473 364 
Q 1641 631 1709 941 
Q 1722 978 1759 978 
L 1838 978 
Q 1863 978 1878 961 
Q 1894 944 1894 922 
Q 1894 916 1888 903 
Q 1800 541 1583 234 
Q 1366 -72 1044 -72 
Q 819 -72 659 83 
Q 500 238 500 459 
z
M 1222 3878 
Q 1222 4013 1334 4122 
Q 1447 4231 1581 4231 
Q 1691 4231 1761 4164 
Q 1831 4097 1831 3994 
Q 1831 3850 1717 3742 
Q 1603 3634 1466 3634 
Q 1363 3634 1292 3704 
Q 1222 3775 1222 3878 
z
" transform="scale(0.015625)"/>
      <path id="Cmsy10-a1" d="M 653 1472 
Q 600 1472 565 1512 
Q 531 1553 531 1600 
Q 531 1647 565 1687 
Q 600 1728 653 1728 
L 4325 1728 
Q 4375 1728 4408 1687 
Q 4441 1647 4441 1600 
Q 4441 1553 4408 1512 
Q 4375 1472 4325 1472 
L 653 1472 
z
" transform="scale(0.015625)"/>
      <path id="Cmr10-31" d="M 594 0 
L 594 225 
Q 1394 225 1394 428 
L 1394 3788 
Q 1063 3628 556 3628 
L 556 3853 
Q 1341 3853 1741 4263 
L 1831 4263 
Q 1853 4263 1873 4245 
Q 1894 4228 1894 4206 
L 1894 428 
Q 1894 225 2694 225 
L 2694 0 
L 594 0 
z
" transform="scale(0.015625)"/>
     </defs>
     <use xlink:href="#Cmr10-a2" transform="translate(0 0.53125)"/>
     <use xlink:href="#Cmmi10-7e" transform="translate(71.361328 5.609375)"/>
     <use xlink:href="#Cmmi10-72" transform="translate(83.300781 0.53125)"/>
     <use xlink:href="#Cmmi10-69" transform="translate(132.882109 -16.475) scale(0.7)"/>
     <use xlink:href="#Cmr10-3d" transform="translate(180.914727 0.53125)"/>
     <use xlink:href="#Cmmi10-7e" transform="translate(264.219414 5.609375)"/>
     <use xlink:href="#Cmmi10-72" transform="translate(276.158867 0.53125)"/>
     <use xlink:href="#Cmmi10-69" transform="translate(325.740195 -16.475) scale(0.7)"/>
     <use xlink:href="#Cmsy10-a1" transform="translate(373.772812 0.53125)"/>
     <use xlink:href="#Cmmi10-7e" transform="translate(457.0775 5.609375)"/>
     <use xlink:href="#Cmmi10-72" transform="translate(469.016953 0.53125)"/>
     <use xlink:href="#Cmmi10-69" transform="translate(518.598281 -16.475) scale(0.7)"/>
     <use xlink:href="#Cmsy10-a1" transform="translate(554.985977 -16.475) scale(0.7)"/>
     <use xlink:href="#Cmr10-31" transform="translate(621.656875 -16.475) scale(0.7)"/>
    </g>
   </g>
   <g id="text_3">
    <!-- $\vec{r}_1$ -->
    <g transform="translate(7.2 204.803483) scale(0.2 -0.2)">
     <use xlink:href="#Cmmi10-7e" transform="translate(-11.939453 5.609375)"/>
     <use xlink:href="#Cmmi10-72" transform="translate(0 0.53125)"/>
     <use xlink:href="#Cmr10-31" transform="translate(49.581328 -16.475) scale(0.7)"/>
    </g>
   </g>
   <g id="text_4">
    <!-- $\Delta \vec{r}_i=\vec{r}_{i}-\vec{r}_{i-1}$ -->
    <g style="fill: #ff0000" transform="translate(119.201399 98.964426) scale(0.2 -0.2)">
     <use xlink:href="#Cmr10-a2" transform="translate(0 0.53125)"/>
     <use xlink:href="#Cmmi10-7e" transform="translate(71.361328 5.609375)"/>
     <use xlink:href="#Cmmi10-72" transform="translate(83.300781 0.53125)"/>
     <use xlink:href="#Cmmi10-69" transform="translate(132.882109 -16.475) scale(0.7)"/>
     <use xlink:href="#Cmr10-3d" transform="translate(180.914727 0.53125)"/>
     <use xlink:href="#Cmmi10-7e" transform="translate(264.219414 5.609375)"/>
     <use xlink:href="#Cmmi10-72" transform="translate(276.158867 0.53125)"/>
     <use xlink:href="#Cmmi10-69" transform="translate(325.740195 -16.475) scale(0.7)"/>
     <use xlink:href="#Cmsy10-a1" transform="translate(373.772812 0.53125)"/>
     <use xlink:href="#Cmmi10-7e" transform="translate(457.0775 5.609375)"/>
     <use xlink:href="#Cmmi10-72" transform="translate(469.016953 0.53125)"/>
     <use xlink:href="#Cmmi10-69" transform="translate(518.598281 -16.475) scale(0.7)"/>
     <use xlink:href="#Cmsy10-a1" transform="translate(554.985977 -16.475) scale(0.7)"/>
     <use xlink:href="#Cmr10-31" transform="translate(621.656875 -16.475) scale(0.7)"/>
    </g>
   </g>
   <g id="text_5">
    <!-- $\vec{r}_2$ -->
    <g transform="translate(8.338752 138.313535) scale(0.2 -0.2)">
     <defs>
      <path id="Cmr10-32" d="M 319 0 
L 319 172 
Q 319 188 331 206 
L 1325 1306 
Q 1550 1550 1690 1715 
Q 1831 1881 1968 2097 
Q 2106 2313 2186 2536 
Q 2266 2759 2266 3009 
Q 2266 3272 2169 3511 
Q 2072 3750 1880 3894 
Q 1688 4038 1416 4038 
Q 1138 4038 916 3870 
Q 694 3703 603 3438 
Q 628 3444 672 3444 
Q 816 3444 917 3347 
Q 1019 3250 1019 3097 
Q 1019 2950 917 2848 
Q 816 2747 672 2747 
Q 522 2747 420 2851 
Q 319 2956 319 3097 
Q 319 3338 409 3548 
Q 500 3759 670 3923 
Q 841 4088 1055 4175 
Q 1269 4263 1509 4263 
Q 1875 4263 2190 4108 
Q 2506 3953 2690 3670 
Q 2875 3388 2875 3009 
Q 2875 2731 2753 2481 
Q 2631 2231 2440 2026 
Q 2250 1822 1953 1562 
Q 1656 1303 1563 1216 
L 838 519 
L 1453 519 
Q 1906 519 2211 526 
Q 2516 534 2534 550 
Q 2609 631 2688 1141 
L 2875 1141 
L 2694 0 
L 319 0 
z
" transform="scale(0.015625)"/>
     </defs>
     <use xlink:href="#Cmmi10-7e" transform="translate(-11.939453 5.609375)"/>
     <use xlink:href="#Cmmi10-72" transform="translate(0 0.53125)"/>
     <use xlink:href="#Cmr10-32" transform="translate(49.581328 -16.475) scale(0.7)"/>
    </g>
   </g>
   <g id="text_6">
    <!-- $\Delta \vec{r}_i=\vec{r}_{i}-\vec{r}_{i-1}$ -->
    <g style="fill: #ff0000" transform="translate(119.201399 98.964426) scale(0.2 -0.2)">
     <use xlink:href="#Cmr10-a2" transform="translate(0 0.53125)"/>
     <use xlink:href="#Cmmi10-7e" transform="translate(71.361328 5.609375)"/>
     <use xlink:href="#Cmmi10-72" transform="translate(83.300781 0.53125)"/>
     <use xlink:href="#Cmmi10-69" transform="translate(132.882109 -16.475) scale(0.7)"/>
     <use xlink:href="#Cmr10-3d" transform="translate(180.914727 0.53125)"/>
     <use xlink:href="#Cmmi10-7e" transform="translate(264.219414 5.609375)"/>
     <use xlink:href="#Cmmi10-72" transform="translate(276.158867 0.53125)"/>
     <use xlink:href="#Cmmi10-69" transform="translate(325.740195 -16.475) scale(0.7)"/>
     <use xlink:href="#Cmsy10-a1" transform="translate(373.772812 0.53125)"/>
     <use xlink:href="#Cmmi10-7e" transform="translate(457.0775 5.609375)"/>
     <use xlink:href="#Cmmi10-72" transform="translate(469.016953 0.53125)"/>
     <use xlink:href="#Cmmi10-69" transform="translate(518.598281 -16.475) scale(0.7)"/>
     <use xlink:href="#Cmsy10-a1" transform="translate(554.985977 -16.475) scale(0.7)"/>
     <use xlink:href="#Cmr10-31" transform="translate(621.656875 -16.475) scale(0.7)"/>
    </g>
   </g>
   <g id="text_7">
    <!-- $\Delta \vec{r}_i=\vec{r}_{i}-\vec{r}_{i-1}$ -->
    <g style="fill: #ff0000" transform="translate(119.201399 98.964426) scale(0.2 -0.2)">
     <use xlink:href="#Cmr10-a2" transform="translate(0 0.53125)"/>
     <use xlink:href="#Cmmi10-7e" transform="translate(71.361328 5.609375)"/>
     <use xlink:href="#Cmmi10-72" transform="translate(83.300781 0.53125)"/>
     <use xlink:href="#Cmmi10-69" transform="translate(132.882109 -16.475) scale(0.7)"/>
     <use xlink:href="#Cmr10-3d" transform="translate(180.914727 0.53125)"/>
     <use xlink:href="#Cmmi10-7e" transform="translate(264.219414 5.609375)"/>
     <use xlink:href="#Cmmi10-72" transform="translate(276.158867 0.53125)"/>
     <use xlink:href="#Cmmi10-69" transform="translate(325.740195 -16.475) scale(0.7)"/>
     <use xlink:href="#Cmsy10-a1" transform="translate(373.772812 0.53125)"/>
     <use xlink:href="#Cmmi10-7e" transform="translate(457.0775 5.609375)"/>
     <use xlink:href="#Cmmi10-72" transform="translate(469.016953 0.53125)"/>
     <use xlink:href="#Cmmi10-69" transform="translate(518.598281 -16.475) scale(0.7)"/>
     <use xlink:href="#Cmsy10-a1" transform="translate(554.985977 -16.475) scale(0.7)"/>
     <use xlink:href="#Cmr10-31" transform="translate(621.656875 -16.475) scale(0.7)"/>
    </g>
   </g>
   <g id="text_8">
    <!-- $\vec{r}_{n-2}$ -->
    <g transform="translate(243.505487 22.396875) scale(0.2 -0.2)">
     <defs>
      <path id="Cmmi10-6e" d="M 494 109 
Q 494 147 500 166 
L 978 2075 
Q 1025 2253 1025 2388 
Q 1025 2663 838 2663 
Q 638 2663 541 2423 
Q 444 2184 353 1819 
Q 353 1800 334 1789 
Q 316 1778 300 1778 
L 225 1778 
Q 203 1778 187 1801 
Q 172 1825 172 1844 
Q 241 2122 305 2315 
Q 369 2509 505 2668 
Q 641 2828 844 2828 
Q 1084 2828 1268 2676 
Q 1453 2525 1453 2291 
Q 1644 2541 1900 2684 
Q 2156 2828 2444 2828 
Q 2672 2828 2837 2750 
Q 3003 2672 3095 2514 
Q 3188 2356 3188 2138 
Q 3188 1875 3070 1503 
Q 2953 1131 2778 672 
Q 2688 463 2688 288 
Q 2688 97 2834 97 
Q 3084 97 3251 365 
Q 3419 634 3488 941 
Q 3500 978 3541 978 
L 3616 978 
Q 3641 978 3658 962 
Q 3675 947 3675 922 
Q 3675 916 3669 903 
Q 3581 541 3364 234 
Q 3147 -72 2822 -72 
Q 2597 -72 2437 83 
Q 2278 238 2278 459 
Q 2278 578 2328 709 
Q 2409 919 2514 1209 
Q 2619 1500 2686 1765 
Q 2753 2031 2753 2234 
Q 2753 2413 2679 2538 
Q 2606 2663 2431 2663 
Q 2197 2663 2000 2559 
Q 1803 2456 1656 2286 
Q 1509 2116 1388 1881 
L 953 141 
Q 931 53 854 -9 
Q 778 -72 684 -72 
Q 606 -72 550 -22 
Q 494 28 494 109 
z
" transform="scale(0.015625)"/>
     </defs>
     <use xlink:href="#Cmmi10-7e" transform="translate(-11.939453 5.609375)"/>
     <use xlink:href="#Cmmi10-72" transform="translate(0 0.53125)"/>
     <use xlink:href="#Cmmi10-6e" transform="translate(49.581328 -16.475) scale(0.7)"/>
     <use xlink:href="#Cmsy10-a1" transform="translate(103.87918 -16.475) scale(0.7)"/>
     <use xlink:href="#Cmr10-32" transform="translate(170.550078 -16.475) scale(0.7)"/>
    </g>
   </g>
   <g id="text_9">
    <!-- $\Delta \vec{r}_i=\vec{r}_{i}-\vec{r}_{i-1}$ -->
    <g style="fill: #ff0000" transform="translate(119.201399 98.964426) scale(0.2 -0.2)">
     <use xlink:href="#Cmr10-a2" transform="translate(0 0.53125)"/>
     <use xlink:href="#Cmmi10-7e" transform="translate(71.361328 5.609375)"/>
     <use xlink:href="#Cmmi10-72" transform="translate(83.300781 0.53125)"/>
     <use xlink:href="#Cmmi10-69" transform="translate(132.882109 -16.475) scale(0.7)"/>
     <use xlink:href="#Cmr10-3d" transform="translate(180.914727 0.53125)"/>
     <use xlink:href="#Cmmi10-7e" transform="translate(264.219414 5.609375)"/>
     <use xlink:href="#Cmmi10-72" transform="translate(276.158867 0.53125)"/>
     <use xlink:href="#Cmmi10-69" transform="translate(325.740195 -16.475) scale(0.7)"/>
     <use xlink:href="#Cmsy10-a1" transform="translate(373.772812 0.53125)"/>
     <use xlink:href="#Cmmi10-7e" transform="translate(457.0775 5.609375)"/>
     <use xlink:href="#Cmmi10-72" transform="translate(469.016953 0.53125)"/>
     <use xlink:href="#Cmmi10-69" transform="translate(518.598281 -16.475) scale(0.7)"/>
     <use xlink:href="#Cmsy10-a1" transform="translate(554.985977 -16.475) scale(0.7)"/>
     <use xlink:href="#Cmr10-31" transform="translate(621.656875 -16.475) scale(0.7)"/>
    </g>
   </g>
   <g id="text_10">
    <!-- $\vec{r}_{n-1}$ -->
    <g transform="translate(323.644384 37.308302) scale(0.2 -0.2)">
     <use xlink:href="#Cmmi10-7e" transform="translate(-11.939453 5.609375)"/>
     <use xlink:href="#Cmmi10-72" transform="translate(0 0.53125)"/>
     <use xlink:href="#Cmmi10-6e" transform="translate(49.581328 -16.475) scale(0.7)"/>
     <use xlink:href="#Cmsy10-a1" transform="translate(103.87918 -16.475) scale(0.7)"/>
     <use xlink:href="#Cmr10-31" transform="translate(170.550078 -16.475) scale(0.7)"/>
    </g>
   </g>
   <g id="text_11">
    <!-- $\Delta \vec{r}_i=\vec{r}_{i}-\vec{r}_{i-1}$ -->
    <g style="fill: #ff0000" transform="translate(119.201399 98.964426) scale(0.2 -0.2)">
     <use xlink:href="#Cmr10-a2" transform="translate(0 0.53125)"/>
     <use xlink:href="#Cmmi10-7e" transform="translate(71.361328 5.609375)"/>
     <use xlink:href="#Cmmi10-72" transform="translate(83.300781 0.53125)"/>
     <use xlink:href="#Cmmi10-69" transform="translate(132.882109 -16.475) scale(0.7)"/>
     <use xlink:href="#Cmr10-3d" transform="translate(180.914727 0.53125)"/>
     <use xlink:href="#Cmmi10-7e" transform="translate(264.219414 5.609375)"/>
     <use xlink:href="#Cmmi10-72" transform="translate(276.158867 0.53125)"/>
     <use xlink:href="#Cmmi10-69" transform="translate(325.740195 -16.475) scale(0.7)"/>
     <use xlink:href="#Cmsy10-a1" transform="translate(373.772812 0.53125)"/>
     <use xlink:href="#Cmmi10-7e" transform="translate(457.0775 5.609375)"/>
     <use xlink:href="#Cmmi10-72" transform="translate(469.016953 0.53125)"/>
     <use xlink:href="#Cmmi10-69" transform="translate(518.598281 -16.475) scale(0.7)"/>
     <use xlink:href="#Cmsy10-a1" transform="translate(554.985977 -16.475) scale(0.7)"/>
     <use xlink:href="#Cmr10-31" transform="translate(621.656875 -16.475) scale(0.7)"/>
    </g>
   </g>
   <g id="text_12">
    <!-- $Q=\vec{r}_{n}$ -->
    <g transform="translate(386.729838 119.827185) scale(0.2 -0.2)">
     <defs>
      <path id="Cmmi10-51" d="M 1947 -141 
Q 1466 -141 1094 79 
Q 722 300 520 692 
Q 319 1084 319 1563 
Q 319 2259 714 2950 
Q 1109 3641 1756 4077 
Q 2403 4513 3109 4513 
Q 3475 4513 3778 4381 
Q 4081 4250 4290 4017 
Q 4500 3784 4614 3471 
Q 4728 3159 4728 2791 
Q 4728 2366 4581 1936 
Q 4434 1506 4171 1136 
Q 3909 766 3559 484 
Q 3209 203 2809 38 
Q 2850 -256 2934 -425 
Q 3019 -594 3256 -594 
Q 3506 -594 3726 -412 
Q 3947 -231 4006 13 
Q 4019 72 4078 72 
Q 4147 72 4147 -13 
Q 4100 -219 4008 -430 
Q 3916 -641 3786 -823 
Q 3656 -1006 3478 -1123 
Q 3300 -1241 3084 -1241 
Q 2547 -1241 2547 -550 
Q 2547 -509 2562 -332 
Q 2578 -156 2578 -44 
Q 2269 -141 1947 -141 
z
M 1709 300 
Q 1709 44 1991 44 
Q 2275 44 2591 184 
L 2591 244 
Q 2591 503 2509 648 
Q 2428 794 2194 794 
Q 2078 794 1964 723 
Q 1850 653 1779 539 
Q 1709 425 1709 300 
z
M 1544 288 
Q 1544 456 1637 612 
Q 1731 769 1881 864 
Q 2031 959 2203 959 
Q 2481 959 2607 771 
Q 2734 584 2778 281 
Q 3188 525 3500 978 
Q 3813 1431 3977 1973 
Q 4141 2516 4141 3003 
Q 4141 3356 4023 3656 
Q 3906 3956 3664 4140 
Q 3422 4325 3066 4325 
Q 2722 4325 2403 4156 
Q 2084 3988 1813 3706 
Q 1550 3434 1342 3032 
Q 1134 2631 1021 2193 
Q 909 1756 909 1356 
Q 909 947 1068 612 
Q 1228 278 1569 128 
Q 1544 194 1544 288 
z
" transform="scale(0.015625)"/>
     </defs>
     <use xlink:href="#Cmmi10-51" transform="translate(0 0.53125)"/>
     <use xlink:href="#Cmr10-3d" transform="translate(96.5625 0.53125)"/>
     <use xlink:href="#Cmmi10-7e" transform="translate(179.867188 5.609375)"/>
     <use xlink:href="#Cmmi10-72" transform="translate(191.806641 0.53125)"/>
     <use xlink:href="#Cmmi10-6e" transform="translate(241.387969 -16.475) scale(0.7)"/>
    </g>
   </g>
   <g id="text_13">
    <!-- $\Delta \vec{r}_i=\vec{r}_{i}-\vec{r}_{i-1}$ -->
    <g style="fill: #ff0000" transform="translate(119.201399 98.964426) scale(0.2 -0.2)">
     <use xlink:href="#Cmr10-a2" transform="translate(0 0.53125)"/>
     <use xlink:href="#Cmmi10-7e" transform="translate(71.361328 5.609375)"/>
     <use xlink:href="#Cmmi10-72" transform="translate(83.300781 0.53125)"/>
     <use xlink:href="#Cmmi10-69" transform="translate(132.882109 -16.475) scale(0.7)"/>
     <use xlink:href="#Cmr10-3d" transform="translate(180.914727 0.53125)"/>
     <use xlink:href="#Cmmi10-7e" transform="translate(264.219414 5.609375)"/>
     <use xlink:href="#Cmmi10-72" transform="translate(276.158867 0.53125)"/>
     <use xlink:href="#Cmmi10-69" transform="translate(325.740195 -16.475) scale(0.7)"/>
     <use xlink:href="#Cmsy10-a1" transform="translate(373.772812 0.53125)"/>
     <use xlink:href="#Cmmi10-7e" transform="translate(457.0775 5.609375)"/>
     <use xlink:href="#Cmmi10-72" transform="translate(469.016953 0.53125)"/>
     <use xlink:href="#Cmmi10-69" transform="translate(518.598281 -16.475) scale(0.7)"/>
     <use xlink:href="#Cmsy10-a1" transform="translate(554.985977 -16.475) scale(0.7)"/>
     <use xlink:href="#Cmr10-31" transform="translate(621.656875 -16.475) scale(0.7)"/>
    </g>
   </g>
   <g id="patch_4">
    <path d="M 85.52479 229.118368 
Q 59.220906 210.047295 34.727342 192.288755 
" clip-path="url(#peb339f35d3)" style="fill: none; stroke: #0000ff; stroke-width: 2; stroke-linecap: round"/>
    <path d="M 39.888421 202.206581 
L 34.727342 192.288755 
L 45.75825 194.110587 
z
" clip-path="url(#peb339f35d3)" style="fill: #0000ff; stroke: #0000ff; stroke-width: 2; stroke-linecap: round"/>
   </g>
   <g id="patch_5">
    <path d="M 32.917023 190.976222 
Q 35.563526 166.039759 37.974042 143.326877 
" clip-path="url(#peb339f35d3)" style="fill: none; stroke: #0000ff; stroke-width: 2; stroke-linecap: round"/>
    <path d="M 31.946593 152.743344 
L 37.974042 143.326877 
L 41.890747 153.798716 
z
" clip-path="url(#peb339f35d3)" style="fill: #0000ff; stroke: #0000ff; stroke-width: 2; stroke-linecap: round"/>
   </g>
   <g id="patch_6">
    <path d="M 38.21003 141.103296 
Q 64.709338 116.317906 89.575577 93.05996 
" clip-path="url(#peb339f35d3)" style="fill: none; stroke: #0000ff; stroke-width: 2; stroke-linecap: round"/>
    <path d="M 78.856803 96.23925 
L 89.575577 93.05996 
L 85.687745 103.542554 
z
" clip-path="url(#peb339f35d3)" style="fill: #0000ff; stroke: #0000ff; stroke-width: 2; stroke-linecap: round"/>
   </g>
   <g id="patch_7">
    <path d="M 264.705487 41.803659 
Q 304.774935 49.259373 342.646047 56.306042 
" clip-path="url(#peb339f35d3)" style="fill: none; stroke: #0000ff; stroke-width: 2; stroke-linecap: round"/>
    <path d="M 333.729438 49.561112 
L 342.646047 56.306042 
L 331.900138 59.392372 
z
" clip-path="url(#peb339f35d3)" style="fill: #0000ff; stroke: #0000ff; stroke-width: 2; stroke-linecap: round"/>
   </g>
   <g id="patch_8">
    <path d="M 344.844384 56.715086 
Q 371.9786 77.192312 397.327965 96.322574 
" clip-path="url(#peb339f35d3)" style="fill: none; stroke: #0000ff; stroke-width: 2; stroke-linecap: round"/>
    <path d="M 392.357772 86.307726 
L 397.327965 96.322574 
L 386.333971 94.28982 
z
" clip-path="url(#peb339f35d3)" style="fill: #0000ff; stroke: #0000ff; stroke-width: 2; stroke-linecap: round"/>
   </g>
  </g>
 </g>
 <defs>
  <clipPath id="peb339f35d3">
   <rect x="8.311403" y="12.30098" width="415.407031" height="238.011557"/>
  </clipPath>
 </defs>
</svg>
