<?xml version="1.0" encoding="utf-8" standalone="no"?>
<!DOCTYPE svg PUBLIC "-//W3C//DTD SVG 1.1//EN"
  "http://www.w3.org/Graphics/SVG/1.1/DTD/svg11.dtd">
<svg xmlns:xlink="http://www.w3.org/1999/xlink" width="452.720923pt" height="221.677899pt" viewBox="0 0 452.720923 221.677899" xmlns="http://www.w3.org/2000/svg" version="1.1">
 <metadata>
  <rdf:RDF xmlns:dc="http://purl.org/dc/elements/1.1/" xmlns:cc="http://creativecommons.org/ns#" xmlns:rdf="http://www.w3.org/1999/02/22-rdf-syntax-ns#">
   <cc:Work>
    <dc:type rdf:resource="http://purl.org/dc/dcmitype/StillImage"/>
    <dc:date>2023-07-31T16:18:34.854127</dc:date>
    <dc:format>image/svg+xml</dc:format>
    <dc:creator>
     <cc:Agent>
      <dc:title>Matplotlib v3.6.2, https://matplotlib.org/</dc:title>
     </cc:Agent>
    </dc:creator>
   </cc:Work>
  </rdf:RDF>
 </metadata>
 <defs>
  <style type="text/css">*{stroke-linejoin: round; stroke-linecap: butt}</style>
 </defs>
 <g id="figure_1">
  <g id="patch_1">
   <path d="M 0 221.677899 
L 452.720923 221.677899 
L 452.720923 -0 
L 0 -0 
z
" style="fill: #ffffff"/>
  </g>
  <g id="axes_1">
   <g id="patch_2">
    <path d="M 19.423582 208.346093 
L 413.397341 208.346093 
L 413.397341 7.2 
L 19.423582 7.2 
z
" style="fill: #ffffff"/>
   </g>
   <g id="PathCollection_1">
    <path d="M 92.65308 192.253779 
C 93.590714 192.253779 94.490072 191.881253 95.15308 191.218245 
C 95.816087 190.555237 96.188614 189.65588 96.188614 188.718245 
C 96.188614 187.780611 95.816087 186.881253 95.15308 186.218245 
C 94.490072 185.555237 93.590714 185.182711 92.65308 185.182711 
C 91.715445 185.182711 90.816087 185.555237 90.15308 186.218245 
C 89.490072 186.881253 89.117546 187.780611 89.117546 188.718245 
C 89.117546 189.65588 89.490072 190.555237 90.15308 191.218245 
C 90.816087 191.881253 91.715445 192.253779 92.65308 192.253779 
z
" clip-path="url(#pb42c027f33)"/>
   </g>
   <g id="PathCollection_2">
    <path d="M 42.759653 156.079608 
C 43.697288 156.079608 44.596646 155.707082 45.259653 155.044074 
C 45.922661 154.381067 46.295187 153.481709 46.295187 152.544074 
C 46.295187 151.60644 45.922661 150.707082 45.259653 150.044074 
C 44.596646 149.381067 43.697288 149.00854 42.759653 149.00854 
C 41.822019 149.00854 40.922661 149.381067 40.259653 150.044074 
C 39.596646 150.707082 39.22412 151.60644 39.22412 152.544074 
C 39.22412 153.481709 39.596646 154.381067 40.259653 155.044074 
C 40.922661 155.707082 41.822019 156.079608 42.759653 156.079608 
z
" clip-path="url(#pb42c027f33)"/>
   </g>
   <g id="PathCollection_3">
    <path d="M 47.779564 108.779918 
C 48.717198 108.779918 49.616556 108.407392 50.279564 107.744384 
C 50.942571 107.081376 51.315097 106.182019 51.315097 105.244384 
C 51.315097 104.306749 50.942571 103.407392 50.279564 102.744384 
C 49.616556 102.081376 48.717198 101.70885 47.779564 101.70885 
C 46.841929 101.70885 45.942571 102.081376 45.279564 102.744384 
C 44.616556 103.407392 44.24403 104.306749 44.24403 105.244384 
C 44.24403 106.182019 44.616556 107.081376 45.279564 107.744384 
C 45.942571 108.407392 46.841929 108.779918 47.779564 108.779918 
z
" clip-path="url(#pb42c027f33)"/>
   </g>
   <g id="PathCollection_4">
    <path d="M 98.043672 61.766783 
C 98.981306 61.766783 99.880664 61.394257 100.543672 60.731249 
C 101.206679 60.068241 101.579206 59.168884 101.579206 58.231249 
C 101.579206 57.293614 101.206679 56.394257 100.543672 55.731249 
C 99.880664 55.068241 98.981306 54.695715 98.043672 54.695715 
C 97.106037 54.695715 96.206679 55.068241 95.543672 55.731249 
C 94.880664 56.394257 94.508138 57.293614 94.508138 58.231249 
C 94.508138 59.168884 94.880664 60.068241 95.543672 60.731249 
C 96.206679 61.394257 97.106037 61.766783 98.043672 61.766783 
z
" clip-path="url(#pb42c027f33)"/>
   </g>
   <g id="PathCollection_5">
    <path d="M 262.588799 14.603728 
C 263.526434 14.603728 264.425791 14.231202 265.088799 13.568194 
C 265.751807 12.905186 266.124333 12.005829 266.124333 11.068194 
C 266.124333 10.13056 265.751807 9.231202 265.088799 8.568194 
C 264.425791 7.905186 263.526434 7.53266 262.588799 7.53266 
C 261.651164 7.53266 260.751807 7.905186 260.088799 8.568194 
C 259.425791 9.231202 259.053265 10.13056 259.053265 11.068194 
C 259.053265 12.005829 259.425791 12.905186 260.088799 13.568194 
C 260.751807 14.231202 261.651164 14.603728 262.588799 14.603728 
z
" clip-path="url(#pb42c027f33)"/>
   </g>
   <g id="PathCollection_6">
    <path d="M 338.592862 28.745788 
C 339.530497 28.745788 340.429855 28.373262 341.092862 27.710254 
C 341.75587 27.047246 342.128396 26.147888 342.128396 25.210254 
C 342.128396 24.272619 341.75587 23.373262 341.092862 22.710254 
C 340.429855 22.047246 339.530497 21.67472 338.592862 21.67472 
C 337.655228 21.67472 336.75587 22.047246 336.092862 22.710254 
C 335.429855 23.373262 335.057328 24.272619 335.057328 25.210254 
C 335.057328 26.147888 335.429855 27.047246 336.092862 27.710254 
C 336.75587 28.373262 337.655228 28.745788 338.592862 28.745788 
z
" clip-path="url(#pb42c027f33)"/>
   </g>
   <g id="PathCollection_7">
    <path d="M 390.061269 67.58716 
C 390.998904 67.58716 391.898261 67.214634 392.561269 66.551626 
C 393.224277 65.888618 393.596803 64.98926 393.596803 64.051626 
C 393.596803 63.113991 393.224277 62.214634 392.561269 61.551626 
C 391.898261 60.888618 390.998904 60.516092 390.061269 60.516092 
C 389.123635 60.516092 388.224277 60.888618 387.561269 61.551626 
C 386.898261 62.214634 386.525735 63.113991 386.525735 64.051626 
C 386.525735 64.98926 386.898261 65.888618 387.561269 66.551626 
C 388.224277 67.214634 389.123635 67.58716 390.061269 67.58716 
z
" clip-path="url(#pb42c027f33)"/>
   </g>
   <g id="matplotlib.axis_1"/>
   <g id="matplotlib.axis_2"/>
   <g id="line2d_1">
    <path d="M 390.061269 64.051626 
L 386.402388 59.357925 
L 382.601274 55.02215 
L 380.125267 52.440487 
L 375.857333 48.365748 
L 372.159951 45.164627 
L 367.470653 41.476818 
L 363.659325 38.745762 
L 358.835859 35.588091 
L 354.554013 33.033415 
L 348.90366 29.979119 
L 342.267008 26.799787 
L 336.864649 24.50165 
L 333.200252 23.07774 
L 327.663721 21.117598 
L 322.49883 19.48234 
L 316.079409 17.690537 
L 310.032326 16.229441 
L 302.94717 14.777535 
L 297.398742 13.824245 
L 290.373387 12.834909 
L 282.684332 12.015449 
L 272.991387 11.3511 
L 267.936792 11.159676 
L 263.400141 11.074857 
L 254.361463 11.143034 
L 244.172261 11.584486 
L 235.775935 12.227901 
L 225.124779 13.396158 
L 216.308703 14.654078 
L 208.476656 15.989075 
L 197.272689 18.251357 
L 189.451988 20.075977 
L 181.100184 22.248565 
L 171.121557 25.151738 
L 164.825123 27.159158 
L 156.653507 29.972382 
L 147.217526 33.52333 
L 137.927217 37.352015 
L 130.034326 40.880175 
L 123.74314 43.885629 
L 118.545265 46.506487 
L 111.491196 50.27696 
L 104.902879 54.039627 
L 97.132346 58.810976 
L 90.98483 62.874467 
L 84.179106 67.71681 
L 77.734389 72.693798 
L 72.696922 76.901559 
L 68.142623 80.995106 
L 62.947229 86.078522 
L 59.13963 90.156089 
L 55.270069 94.697236 
L 52.749091 97.933642 
L 50.241131 101.438203 
L 47.953921 104.960133 
L 45.964641 108.368592 
L 44.163135 111.850021 
L 42.919377 114.5714 
L 41.405598 118.436619 
L 40.075528 122.749395 
L 39.273449 126.30206 
L 38.927396 128.406056 
L 38.554568 132.190623 
L 38.489837 134.58796 
L 38.655045 138.210328 
L 39.205322 142.118359 
L 39.838162 144.874068 
L 41.056097 148.654878 
L 42.529865 152.077284 
L 44.181218 155.159779 
L 45.431977 157.166486 
L 47.829051 160.489243 
L 49.761413 162.810555 
L 52.578851 165.790502 
L 55.750599 168.720623 
L 58.766538 171.19315 
L 61.405062 173.157959 
L 64.635228 175.357239 
L 69.732646 178.453999 
L 74.186215 180.85703 
L 79.52653 183.438434 
L 83.878431 185.339356 
L 88.236694 187.087033 
L 92.65308 188.718245 
L 92.65308 188.718245 
" clip-path="url(#pb42c027f33)" style="fill: none; stroke: #000000; stroke-width: 2; stroke-linecap: square"/>
   </g>
   <g id="patch_3">
    <path d="M 176.277027 23.60965 
Q 177.133575 23.363442 175.841074 23.734962 
" clip-path="url(#pb42c027f33)" style="fill: none; stroke: #000000; stroke-width: 2; stroke-linecap: round"/>
    <path d="M 164.848951 21.692112 
L 175.841074 23.734962 
L 167.61152 31.30295 
L 164.848951 21.692112 
z
" clip-path="url(#pb42c027f33)" style="stroke: #000000; stroke-width: 2; stroke-linecap: round"/>
   </g>
   <g id="text_1">
    <!-- $P=\mathbf{r}(t_0)$ -->
    <g transform="translate(63.032906 209.477899) scale(0.2 -0.2)">
     <defs>
      <path id="Cmmi10-50" d="M 313 0 
Q 250 0 250 84 
Q 253 100 262 139 
Q 272 178 289 201 
Q 306 225 331 225 
Q 722 225 878 269 
Q 959 297 997 441 
L 1875 3956 
Q 1888 4019 1888 4044 
Q 1888 4113 1813 4122 
Q 1691 4147 1350 4147 
Q 1288 4147 1288 4231 
Q 1291 4247 1300 4286 
Q 1309 4325 1326 4348 
Q 1344 4372 1369 4372 
L 3578 4372 
Q 3881 4372 4165 4264 
Q 4450 4156 4631 3934 
Q 4813 3713 4813 3397 
Q 4813 2991 4527 2672 
Q 4241 2353 3814 2175 
Q 3388 1997 2988 1997 
L 1947 1997 
L 1556 416 
Q 1544 353 1544 325 
Q 1544 300 1551 283 
Q 1559 266 1573 261 
Q 1588 256 1619 250 
Q 1741 225 2081 225 
Q 2144 225 2144 141 
Q 2122 50 2109 25 
Q 2097 0 2034 0 
L 313 0 
z
M 1978 2188 
L 2875 2188 
Q 3497 2188 3822 2522 
Q 3988 2688 4092 3000 
Q 4197 3313 4197 3566 
Q 4197 3881 3956 4014 
Q 3716 4147 3359 4147 
L 2747 4147 
Q 2572 4147 2515 4117 
Q 2459 4088 2413 3928 
L 1978 2188 
z
" transform="scale(0.015625)"/>
      <path id="Cmr10-3d" d="M 481 850 
Q 428 850 393 890 
Q 359 931 359 978 
Q 359 1031 393 1068 
Q 428 1106 481 1106 
L 4500 1106 
Q 4547 1106 4581 1068 
Q 4616 1031 4616 978 
Q 4616 931 4581 890 
Q 4547 850 4500 850 
L 481 850 
z
M 481 2094 
Q 428 2094 393 2131 
Q 359 2169 359 2222 
Q 359 2269 393 2309 
Q 428 2350 481 2350 
L 4500 2350 
Q 4547 2350 4581 2309 
Q 4616 2269 4616 2222 
Q 4616 2169 4581 2131 
Q 4547 2094 4500 2094 
L 481 2094 
z
" transform="scale(0.015625)"/>
      <path id="Cmb10-72" d="M 91 0 
L 91 325 
L 531 325 
L 531 2322 
Q 531 2503 91 2503 
L 91 2828 
L 1178 2881 
L 1178 2356 
Q 1269 2594 1436 2737 
Q 1603 2881 1838 2881 
Q 2006 2881 2173 2822 
Q 2341 2763 2450 2641 
Q 2559 2519 2559 2344 
Q 2559 2178 2443 2059 
Q 2328 1941 2156 1941 
Q 1984 1941 1868 2059 
Q 1753 2178 1753 2344 
Q 1753 2513 1856 2625 
L 1838 2625 
Q 1488 2625 1367 2248 
Q 1247 1872 1247 1416 
L 1247 325 
L 1806 325 
L 1806 0 
L 91 0 
z
" transform="scale(0.015625)"/>
      <path id="Cmr10-28" d="M 1984 -1588 
Q 1628 -1306 1370 -942 
Q 1113 -578 948 -165 
Q 784 247 703 697 
Q 622 1147 622 1600 
Q 622 2059 703 2509 
Q 784 2959 951 3375 
Q 1119 3791 1378 4153 
Q 1638 4516 1984 4788 
Q 1984 4800 2016 4800 
L 2075 4800 
Q 2094 4800 2109 4783 
Q 2125 4766 2125 4744 
Q 2125 4716 2113 4703 
Q 1800 4397 1592 4047 
Q 1384 3697 1257 3301 
Q 1131 2906 1075 2482 
Q 1019 2059 1019 1600 
Q 1019 -434 2106 -1491 
Q 2125 -1509 2125 -1544 
Q 2125 -1559 2108 -1579 
Q 2091 -1600 2075 -1600 
L 2016 -1600 
Q 1984 -1600 1984 -1588 
z
" transform="scale(0.015625)"/>
      <path id="Cmmi10-74" d="M 397 519 
Q 397 613 416 697 
L 878 2534 
L 206 2534 
Q 141 2534 141 2619 
Q 166 2759 225 2759 
L 934 2759 
L 1191 3803 
Q 1216 3888 1291 3947 
Q 1366 4006 1459 4006 
Q 1541 4006 1595 3957 
Q 1650 3909 1650 3828 
Q 1650 3809 1648 3798 
Q 1647 3788 1644 3775 
L 1388 2759 
L 2047 2759 
Q 2113 2759 2113 2675 
Q 2109 2659 2100 2621 
Q 2091 2584 2075 2559 
Q 2059 2534 2028 2534 
L 1331 2534 
L 872 684 
Q 825 503 825 372 
Q 825 97 1013 97 
Q 1294 97 1511 361 
Q 1728 625 1844 941 
Q 1869 978 1894 978 
L 1972 978 
Q 1997 978 2012 961 
Q 2028 944 2028 922 
Q 2028 909 2022 903 
Q 1881 516 1612 222 
Q 1344 -72 997 -72 
Q 744 -72 570 93 
Q 397 259 397 519 
z
" transform="scale(0.015625)"/>
      <path id="Cmr10-30" d="M 1600 -141 
Q 816 -141 533 504 
Q 250 1150 250 2041 
Q 250 2597 351 3087 
Q 453 3578 754 3920 
Q 1056 4263 1600 4263 
Q 2022 4263 2290 4056 
Q 2559 3850 2700 3523 
Q 2841 3197 2892 2823 
Q 2944 2450 2944 2041 
Q 2944 1491 2842 1011 
Q 2741 531 2444 195 
Q 2147 -141 1600 -141 
z
M 1600 25 
Q 1956 25 2131 390 
Q 2306 756 2347 1200 
Q 2388 1644 2388 2144 
Q 2388 2625 2347 3031 
Q 2306 3438 2132 3767 
Q 1959 4097 1600 4097 
Q 1238 4097 1063 3765 
Q 888 3434 847 3029 
Q 806 2625 806 2144 
Q 806 1788 823 1472 
Q 841 1156 916 820 
Q 991 484 1158 254 
Q 1325 25 1600 25 
z
" transform="scale(0.015625)"/>
      <path id="Cmr10-29" d="M 416 -1600 
Q 359 -1600 359 -1544 
Q 359 -1516 372 -1503 
Q 1466 -434 1466 1600 
Q 1466 3634 384 4691 
Q 359 4706 359 4744 
Q 359 4766 376 4783 
Q 394 4800 416 4800 
L 475 4800 
Q 494 4800 506 4788 
Q 966 4425 1272 3906 
Q 1578 3388 1720 2800 
Q 1863 2213 1863 1600 
Q 1863 1147 1786 708 
Q 1709 269 1542 -157 
Q 1375 -584 1119 -945 
Q 863 -1306 506 -1588 
Q 494 -1600 475 -1600 
L 416 -1600 
z
" transform="scale(0.015625)"/>
     </defs>
     <use xlink:href="#Cmmi10-50"/>
     <use xlink:href="#Cmr10-3d" transform="translate(81.767578 0)"/>
     <use xlink:href="#Cmb10-72" transform="translate(177.011719 0)"/>
     <use xlink:href="#Cmr10-28" transform="translate(219.6875 0)"/>
     <use xlink:href="#Cmmi10-74" transform="translate(258.505859 0)"/>
     <use xlink:href="#Cmr10-30" transform="translate(294.589844 -17.00625) scale(0.7)"/>
     <use xlink:href="#Cmr10-29" transform="translate(335.967188 0)"/>
    </g>
   </g>
   <g id="text_2">
    <!-- $\mathbf{r}(t_1)$ -->
    <g transform="translate(7.2 165.423901) scale(0.2 -0.2)">
     <defs>
      <path id="Cmr10-31" d="M 594 0 
L 594 225 
Q 1394 225 1394 428 
L 1394 3788 
Q 1063 3628 556 3628 
L 556 3853 
Q 1341 3853 1741 4263 
L 1831 4263 
Q 1853 4263 1873 4245 
Q 1894 4228 1894 4206 
L 1894 428 
Q 1894 225 2694 225 
L 2694 0 
L 594 0 
z
" transform="scale(0.015625)"/>
     </defs>
     <use xlink:href="#Cmb10-72"/>
     <use xlink:href="#Cmr10-28" transform="translate(42.675781 0)"/>
     <use xlink:href="#Cmmi10-74" transform="translate(81.494141 0)"/>
     <use xlink:href="#Cmr10-31" transform="translate(117.578125 -17.00625) scale(0.7)"/>
     <use xlink:href="#Cmr10-29" transform="translate(158.955469 0)"/>
    </g>
   </g>
   <g id="text_3">
    <!-- $\mathbf{r}(t_2)$ -->
    <g transform="translate(51.619044 110.244384) scale(0.2 -0.2)">
     <defs>
      <path id="Cmr10-32" d="M 319 0 
L 319 172 
Q 319 188 331 206 
L 1325 1306 
Q 1550 1550 1690 1715 
Q 1831 1881 1968 2097 
Q 2106 2313 2186 2536 
Q 2266 2759 2266 3009 
Q 2266 3272 2169 3511 
Q 2072 3750 1880 3894 
Q 1688 4038 1416 4038 
Q 1138 4038 916 3870 
Q 694 3703 603 3438 
Q 628 3444 672 3444 
Q 816 3444 917 3347 
Q 1019 3250 1019 3097 
Q 1019 2950 917 2848 
Q 816 2747 672 2747 
Q 522 2747 420 2851 
Q 319 2956 319 3097 
Q 319 3338 409 3548 
Q 500 3759 670 3923 
Q 841 4088 1055 4175 
Q 1269 4263 1509 4263 
Q 1875 4263 2190 4108 
Q 2506 3953 2690 3670 
Q 2875 3388 2875 3009 
Q 2875 2731 2753 2481 
Q 2631 2231 2440 2026 
Q 2250 1822 1953 1562 
Q 1656 1303 1563 1216 
L 838 519 
L 1453 519 
Q 1906 519 2211 526 
Q 2516 534 2534 550 
Q 2609 631 2688 1141 
L 2875 1141 
L 2694 0 
L 319 0 
z
" transform="scale(0.015625)"/>
     </defs>
     <use xlink:href="#Cmb10-72"/>
     <use xlink:href="#Cmr10-28" transform="translate(42.675781 0)"/>
     <use xlink:href="#Cmmi10-74" transform="translate(81.494141 0)"/>
     <use xlink:href="#Cmr10-32" transform="translate(117.578125 -17.00625) scale(0.7)"/>
     <use xlink:href="#Cmr10-29" transform="translate(158.955469 0)"/>
    </g>
   </g>
   <g id="text_4">
    <!-- $\cdots$ -->
    <g transform="translate(104.503325 47.990346) scale(0.2 -0.2)">
     <defs>
      <path id="STIXGeneral-Regular-22ef" d="M 5235 1619 
Q 5235 1453 5123 1331 
Q 5011 1210 4832 1210 
Q 4646 1210 4534 1322 
Q 4422 1434 4422 1619 
Q 4422 1792 4547 1907 
Q 4672 2022 4832 2022 
Q 4992 2022 5113 1907 
Q 5235 1792 5235 1619 
z
M 3366 1619 
Q 3366 1453 3254 1331 
Q 3142 1210 2963 1210 
Q 2778 1210 2666 1322 
Q 2554 1434 2554 1619 
Q 2554 1792 2678 1907 
Q 2803 2022 2963 2022 
Q 3123 2022 3244 1907 
Q 3366 1792 3366 1619 
z
M 1504 1619 
Q 1504 1453 1392 1331 
Q 1280 1210 1101 1210 
Q 915 1210 803 1322 
Q 691 1434 691 1619 
Q 691 1792 816 1907 
Q 941 2022 1101 2022 
Q 1261 2022 1382 1907 
Q 1504 1792 1504 1619 
z
" transform="scale(0.015625)"/>
     </defs>
     <use xlink:href="#STIXGeneral-Regular-22ef" transform="translate(0 0.40625)"/>
    </g>
   </g>
   <g id="text_5">
    <!-- $\mathbf{r}(t_{n-2})$ -->
    <g transform="translate(230.688799 31.827848) scale(0.2 -0.2)">
     <defs>
      <path id="Cmmi10-6e" d="M 494 109 
Q 494 147 500 166 
L 978 2075 
Q 1025 2253 1025 2388 
Q 1025 2663 838 2663 
Q 638 2663 541 2423 
Q 444 2184 353 1819 
Q 353 1800 334 1789 
Q 316 1778 300 1778 
L 225 1778 
Q 203 1778 187 1801 
Q 172 1825 172 1844 
Q 241 2122 305 2315 
Q 369 2509 505 2668 
Q 641 2828 844 2828 
Q 1084 2828 1268 2676 
Q 1453 2525 1453 2291 
Q 1644 2541 1900 2684 
Q 2156 2828 2444 2828 
Q 2672 2828 2837 2750 
Q 3003 2672 3095 2514 
Q 3188 2356 3188 2138 
Q 3188 1875 3070 1503 
Q 2953 1131 2778 672 
Q 2688 463 2688 288 
Q 2688 97 2834 97 
Q 3084 97 3251 365 
Q 3419 634 3488 941 
Q 3500 978 3541 978 
L 3616 978 
Q 3641 978 3658 962 
Q 3675 947 3675 922 
Q 3675 916 3669 903 
Q 3581 541 3364 234 
Q 3147 -72 2822 -72 
Q 2597 -72 2437 83 
Q 2278 238 2278 459 
Q 2278 578 2328 709 
Q 2409 919 2514 1209 
Q 2619 1500 2686 1765 
Q 2753 2031 2753 2234 
Q 2753 2413 2679 2538 
Q 2606 2663 2431 2663 
Q 2197 2663 2000 2559 
Q 1803 2456 1656 2286 
Q 1509 2116 1388 1881 
L 953 141 
Q 931 53 854 -9 
Q 778 -72 684 -72 
Q 606 -72 550 -22 
Q 494 28 494 109 
z
" transform="scale(0.015625)"/>
      <path id="Cmsy10-a1" d="M 653 1472 
Q 600 1472 565 1512 
Q 531 1553 531 1600 
Q 531 1647 565 1687 
Q 600 1728 653 1728 
L 4325 1728 
Q 4375 1728 4408 1687 
Q 4441 1647 4441 1600 
Q 4441 1553 4408 1512 
Q 4375 1472 4325 1472 
L 653 1472 
z
" transform="scale(0.015625)"/>
     </defs>
     <use xlink:href="#Cmb10-72"/>
     <use xlink:href="#Cmr10-28" transform="translate(42.675781 0)"/>
     <use xlink:href="#Cmmi10-74" transform="translate(81.494141 0)"/>
     <use xlink:href="#Cmmi10-6e" transform="translate(117.578125 -17.00625) scale(0.7)"/>
     <use xlink:href="#Cmsy10-a1" transform="translate(171.875977 -17.00625) scale(0.7)"/>
     <use xlink:href="#Cmr10-32" transform="translate(238.546875 -17.00625) scale(0.7)"/>
     <use xlink:href="#Cmr10-29" transform="translate(279.924219 0)"/>
    </g>
   </g>
   <g id="text_6">
    <!-- $\mathbf{r}(t_{n-1})$ -->
    <g transform="translate(298.813036 45.969907) scale(0.2 -0.2)">
     <use xlink:href="#Cmb10-72"/>
     <use xlink:href="#Cmr10-28" transform="translate(42.675781 0)"/>
     <use xlink:href="#Cmmi10-74" transform="translate(81.494141 0)"/>
     <use xlink:href="#Cmmi10-6e" transform="translate(117.578125 -17.00625) scale(0.7)"/>
     <use xlink:href="#Cmsy10-a1" transform="translate(171.875977 -17.00625) scale(0.7)"/>
     <use xlink:href="#Cmr10-31" transform="translate(238.546875 -17.00625) scale(0.7)"/>
     <use xlink:href="#Cmr10-29" transform="translate(279.924219 0)"/>
    </g>
   </g>
   <g id="text_7">
    <!-- $Q=\mathbf{r}(t_{n})$ -->
    <g transform="translate(366.120923 84.811279) scale(0.2 -0.2)">
     <defs>
      <path id="Cmmi10-51" d="M 1947 -141 
Q 1466 -141 1094 79 
Q 722 300 520 692 
Q 319 1084 319 1563 
Q 319 2259 714 2950 
Q 1109 3641 1756 4077 
Q 2403 4513 3109 4513 
Q 3475 4513 3778 4381 
Q 4081 4250 4290 4017 
Q 4500 3784 4614 3471 
Q 4728 3159 4728 2791 
Q 4728 2366 4581 1936 
Q 4434 1506 4171 1136 
Q 3909 766 3559 484 
Q 3209 203 2809 38 
Q 2850 -256 2934 -425 
Q 3019 -594 3256 -594 
Q 3506 -594 3726 -412 
Q 3947 -231 4006 13 
Q 4019 72 4078 72 
Q 4147 72 4147 -13 
Q 4100 -219 4008 -430 
Q 3916 -641 3786 -823 
Q 3656 -1006 3478 -1123 
Q 3300 -1241 3084 -1241 
Q 2547 -1241 2547 -550 
Q 2547 -509 2562 -332 
Q 2578 -156 2578 -44 
Q 2269 -141 1947 -141 
z
M 1709 300 
Q 1709 44 1991 44 
Q 2275 44 2591 184 
L 2591 244 
Q 2591 503 2509 648 
Q 2428 794 2194 794 
Q 2078 794 1964 723 
Q 1850 653 1779 539 
Q 1709 425 1709 300 
z
M 1544 288 
Q 1544 456 1637 612 
Q 1731 769 1881 864 
Q 2031 959 2203 959 
Q 2481 959 2607 771 
Q 2734 584 2778 281 
Q 3188 525 3500 978 
Q 3813 1431 3977 1973 
Q 4141 2516 4141 3003 
Q 4141 3356 4023 3656 
Q 3906 3956 3664 4140 
Q 3422 4325 3066 4325 
Q 2722 4325 2403 4156 
Q 2084 3988 1813 3706 
Q 1550 3434 1342 3032 
Q 1134 2631 1021 2193 
Q 909 1756 909 1356 
Q 909 947 1068 612 
Q 1228 278 1569 128 
Q 1544 194 1544 288 
z
" transform="scale(0.015625)"/>
     </defs>
     <use xlink:href="#Cmmi10-51"/>
     <use xlink:href="#Cmr10-3d" transform="translate(96.5625 0)"/>
     <use xlink:href="#Cmb10-72" transform="translate(191.806641 0)"/>
     <use xlink:href="#Cmr10-28" transform="translate(234.482422 0)"/>
     <use xlink:href="#Cmmi10-74" transform="translate(273.300781 0)"/>
     <use xlink:href="#Cmmi10-6e" transform="translate(309.384766 -17.00625) scale(0.7)"/>
     <use xlink:href="#Cmr10-29" transform="translate(357.768945 0)"/>
    </g>
   </g>
  </g>
 </g>
 <defs>
  <clipPath id="pb42c027f33">
   <rect x="19.423582" y="7.2" width="393.973759" height="201.146093"/>
  </clipPath>
 </defs>
</svg>
