<?xml version="1.0" encoding="utf-8" standalone="no"?>
<!DOCTYPE svg PUBLIC "-//W3C//DTD SVG 1.1//EN"
  "http://www.w3.org/Graphics/SVG/1.1/DTD/svg11.dtd">
<svg xmlns:xlink="http://www.w3.org/1999/xlink" width="392.669513pt" height="338.4pt" viewBox="0 0 392.669513 338.4" xmlns="http://www.w3.org/2000/svg" version="1.1">
 <metadata>
  <rdf:RDF xmlns:dc="http://purl.org/dc/elements/1.1/" xmlns:cc="http://creativecommons.org/ns#" xmlns:rdf="http://www.w3.org/1999/02/22-rdf-syntax-ns#">
   <cc:Work>
    <dc:type rdf:resource="http://purl.org/dc/dcmitype/StillImage"/>
    <dc:date>2023-07-26T20:48:24.900382</dc:date>
    <dc:format>image/svg+xml</dc:format>
    <dc:creator>
     <cc:Agent>
      <dc:title>Matplotlib v3.6.2, https://matplotlib.org/</dc:title>
     </cc:Agent>
    </dc:creator>
   </cc:Work>
  </rdf:RDF>
 </metadata>
 <defs>
  <style type="text/css">*{stroke-linejoin: round; stroke-linecap: butt}</style>
 </defs>
 <g id="figure_1">
  <g id="patch_1">
   <path d="M 0 338.4 
L 392.669513 338.4 
L 392.669513 0 
L 0 0 
z
" style="fill: #ffffff"/>
  </g>
  <g id="axes_1">
   <g id="patch_2">
    <path d="M 7.2 331.2 
L 385.469513 331.2 
L 385.469513 7.2 
L 7.2 7.2 
z
" style="fill: #ffffff"/>
   </g>
   <g id="PathCollection_1">
    <path d="M 378.1951 246.768202 
C 379.132734 246.768202 380.032092 246.395676 380.6951 245.732668 
C 381.358107 245.06966 381.730634 244.170302 381.730634 243.232668 
C 381.730634 242.295033 381.358107 241.395676 380.6951 240.732668 
C 380.032092 240.06966 379.132734 239.697134 378.1951 239.697134 
C 377.257465 239.697134 376.358107 240.06966 375.6951 240.732668 
C 375.032092 241.395676 374.659566 242.295033 374.659566 243.232668 
C 374.659566 244.170302 375.032092 245.06966 375.6951 245.732668 
C 376.358107 246.395676 377.257465 246.768202 378.1951 246.768202 
z
" clip-path="url(#p93d7467b5e)"/>
   </g>
   <g id="PathCollection_2">
    <path d="M 72.639346 323.813886 
C 73.576981 323.813886 74.476338 323.44136 75.139346 322.778352 
C 75.802354 322.115344 76.17488 321.215987 76.17488 320.278352 
C 76.17488 319.340717 75.802354 318.44136 75.139346 317.778352 
C 74.476338 317.115344 73.576981 316.742818 72.639346 316.742818 
C 71.701712 316.742818 70.802354 317.115344 70.139346 317.778352 
C 69.476338 318.44136 69.103812 319.340717 69.103812 320.278352 
C 69.103812 321.215987 69.476338 322.115344 70.139346 322.778352 
C 70.802354 323.44136 71.701712 323.813886 72.639346 323.813886 
z
" clip-path="url(#p93d7467b5e)"/>
   </g>
   <g id="matplotlib.axis_1"/>
   <g id="matplotlib.axis_2"/>
   <g id="line2d_1">
    <path d="M 378.1951 243.232668 
L 343.019219 199.759752 
L 319.525854 170.95315 
L 304.76014 153.1928 
L 292.453557 138.698066 
L 281.431211 126.015896 
L 269.300906 112.452057 
L 259.629102 101.979492 
L 249.90683 91.800237 
L 239.754148 81.586545 
L 233.584781 75.607866 
L 222.385802 65.237867 
L 214.136944 58.032409 
L 206.232145 51.502883 
L 204.523602 50.142598 
L 194.553663 42.58864 
L 185.393546 36.263376 
L 179.141788 32.311173 
L 175.513524 30.161078 
L 168.241535 26.185964 
L 163.869072 24.020592 
L 157.871804 21.340132 
L 154.998194 20.179363 
L 148.462383 17.851965 
L 143.096574 16.281342 
L 140.041147 15.530705 
L 135.649484 14.642215 
L 129.832675 13.826727 
L 127.590243 13.627039 
L 123.808376 13.44088 
L 118.314064 13.521469 
L 112.201546 14.128152 
L 107.454811 14.998975 
L 104.505118 15.725991 
L 98.609053 17.630909 
L 94.673562 19.25651 
L 90.068944 21.542629 
L 85.890116 23.998335 
L 81.913195 26.694378 
L 78.704938 29.140346 
L 75.935983 31.457127 
L 73.065382 34.070973 
L 67.861311 39.398793 
L 64.996087 42.680934 
L 60.197661 48.78643 
L 56.266987 54.410769 
L 53.370079 58.952909 
L 49.708782 65.226432 
L 46.759233 70.758853 
L 44.119299 76.113642 
L 40.449523 84.271309 
L 38.107786 89.969273 
L 36.190441 94.959474 
L 32.982841 104.059955 
L 30.001663 113.52426 
L 28.182088 119.882145 
L 25.830014 128.909176 
L 23.360545 139.640145 
L 21.74452 147.588864 
L 20.511393 154.315462 
L 19.008024 163.573438 
L 17.571946 174.026867 
L 16.548991 183.064551 
L 15.646493 193.128868 
L 15.076705 201.681879 
L 14.648508 211.569429 
L 14.505773 218.075159 
L 14.490949 226.383309 
L 14.715876 235.839343 
L 15.133652 244.006089 
L 15.698061 251.295494 
L 16.328478 257.443873 
L 17.446855 265.850998 
L 18.683458 273.099505 
L 20.084132 279.769729 
L 22.150555 287.707656 
L 23.78009 292.861702 
L 25.601365 297.778351 
L 27.476024 302.10781 
L 29.212743 305.580553 
L 29.925769 306.876726 
L 32.506465 311.023178 
L 33.529312 312.455718 
L 35.379994 314.780888 
L 36.739319 316.289053 
L 38.885998 318.361392 
L 41.27483 320.267408 
L 44.506617 322.255945 
L 46.276369 323.087733 
L 48.517382 323.904823 
L 50.092232 324.332029 
L 53.084343 324.835613 
L 55.433979 324.969231 
L 58.756539 324.799245 
L 60.929271 324.4776 
L 64.855861 323.50922 
L 68.1209 322.353935 
L 72.639346 320.278352 
L 72.639346 320.278352 
" clip-path="url(#p93d7467b5e)" style="fill: none; stroke: #000000; stroke-linecap: square"/>
   </g>
   <g id="patch_3">
    <path d="M 99.882556 17.166816 
Q 99.984949 17.130881 97.977435 17.835415 
" clip-path="url(#p93d7467b5e)" style="fill: none; stroke: #000000; stroke-width: 2; stroke-linecap: round"/>
    <path d="M 86.885907 16.428993 
L 97.977435 17.835415 
L 90.197381 25.864783 
L 86.885907 16.428993 
z
" clip-path="url(#p93d7467b5e)" style="stroke: #000000; stroke-width: 2; stroke-linecap: round"/>
   </g>
   <g id="text_1">
    <g clip-path="url(#p93d7467b5e)">
     <!-- $P$ -->
     <g transform="translate(361.143923 272.446548) scale(0.25 -0.25)">
      <defs>
       <path id="Cmmi10-50" d="M 313 0 
Q 250 0 250 84 
Q 253 100 262 139 
Q 272 178 289 201 
Q 306 225 331 225 
Q 722 225 878 269 
Q 959 297 997 441 
L 1875 3956 
Q 1888 4019 1888 4044 
Q 1888 4113 1813 4122 
Q 1691 4147 1350 4147 
Q 1288 4147 1288 4231 
Q 1291 4247 1300 4286 
Q 1309 4325 1326 4348 
Q 1344 4372 1369 4372 
L 3578 4372 
Q 3881 4372 4165 4264 
Q 4450 4156 4631 3934 
Q 4813 3713 4813 3397 
Q 4813 2991 4527 2672 
Q 4241 2353 3814 2175 
Q 3388 1997 2988 1997 
L 1947 1997 
L 1556 416 
Q 1544 353 1544 325 
Q 1544 300 1551 283 
Q 1559 266 1573 261 
Q 1588 256 1619 250 
Q 1741 225 2081 225 
Q 2144 225 2144 141 
Q 2122 50 2109 25 
Q 2097 0 2034 0 
L 313 0 
z
M 1978 2188 
L 2875 2188 
Q 3497 2188 3822 2522 
Q 3988 2688 4092 3000 
Q 4197 3313 4197 3566 
Q 4197 3881 3956 4014 
Q 3716 4147 3359 4147 
L 2747 4147 
Q 2572 4147 2515 4117 
Q 2459 4088 2413 3928 
L 1978 2188 
z
" transform="scale(0.015625)"/>
      </defs>
      <use xlink:href="#Cmmi10-50" transform="translate(0 0.6875)"/>
     </g>
    </g>
   </g>
   <g id="text_2">
    <g clip-path="url(#p93d7467b5e)">
     <!-- $Q$ -->
     <g transform="translate(84.954789 322.713701) scale(0.25 -0.25)">
      <defs>
       <path id="Cmmi10-51" d="M 1947 -141 
Q 1466 -141 1094 79 
Q 722 300 520 692 
Q 319 1084 319 1563 
Q 319 2259 714 2950 
Q 1109 3641 1756 4077 
Q 2403 4513 3109 4513 
Q 3475 4513 3778 4381 
Q 4081 4250 4290 4017 
Q 4500 3784 4614 3471 
Q 4728 3159 4728 2791 
Q 4728 2366 4581 1936 
Q 4434 1506 4171 1136 
Q 3909 766 3559 484 
Q 3209 203 2809 38 
Q 2850 -256 2934 -425 
Q 3019 -594 3256 -594 
Q 3506 -594 3726 -412 
Q 3947 -231 4006 13 
Q 4019 72 4078 72 
Q 4147 72 4147 -13 
Q 4100 -219 4008 -430 
Q 3916 -641 3786 -823 
Q 3656 -1006 3478 -1123 
Q 3300 -1241 3084 -1241 
Q 2547 -1241 2547 -550 
Q 2547 -509 2562 -332 
Q 2578 -156 2578 -44 
Q 2269 -141 1947 -141 
z
M 1709 300 
Q 1709 44 1991 44 
Q 2275 44 2591 184 
L 2591 244 
Q 2591 503 2509 648 
Q 2428 794 2194 794 
Q 2078 794 1964 723 
Q 1850 653 1779 539 
Q 1709 425 1709 300 
z
M 1544 288 
Q 1544 456 1637 612 
Q 1731 769 1881 864 
Q 2031 959 2203 959 
Q 2481 959 2607 771 
Q 2734 584 2778 281 
Q 3188 525 3500 978 
Q 3813 1431 3977 1973 
Q 4141 2516 4141 3003 
Q 4141 3356 4023 3656 
Q 3906 3956 3664 4140 
Q 3422 4325 3066 4325 
Q 2722 4325 2403 4156 
Q 2084 3988 1813 3706 
Q 1550 3434 1342 3032 
Q 1134 2631 1021 2193 
Q 909 1756 909 1356 
Q 909 947 1068 612 
Q 1228 278 1569 128 
Q 1544 194 1544 288 
z
" transform="scale(0.015625)"/>
      </defs>
      <use xlink:href="#Cmmi10-51" transform="translate(0 0.484375)"/>
     </g>
    </g>
   </g>
  </g>
 </g>
 <defs>
  <clipPath id="p93d7467b5e">
   <rect x="7.2" y="7.2" width="378.269513" height="324"/>
  </clipPath>
 </defs>
</svg>
