<?xml version="1.0" encoding="utf-8" standalone="no"?>
<!DOCTYPE svg PUBLIC "-//W3C//DTD SVG 1.1//EN"
  "http://www.w3.org/Graphics/SVG/1.1/DTD/svg11.dtd">
<svg xmlns:xlink="http://www.w3.org/1999/xlink" width="392.657427pt" height="338.4pt" viewBox="0 0 392.657427 338.4" xmlns="http://www.w3.org/2000/svg" version="1.1">
 <metadata>
  <rdf:RDF xmlns:dc="http://purl.org/dc/elements/1.1/" xmlns:cc="http://creativecommons.org/ns#" xmlns:rdf="http://www.w3.org/1999/02/22-rdf-syntax-ns#">
   <cc:Work>
    <dc:type rdf:resource="http://purl.org/dc/dcmitype/StillImage"/>
    <dc:date>2025-02-05T08:50:13.844285</dc:date>
    <dc:format>image/svg+xml</dc:format>
    <dc:creator>
     <cc:Agent>
      <dc:title>Matplotlib v3.6.2, https://matplotlib.org/</dc:title>
     </cc:Agent>
    </dc:creator>
   </cc:Work>
  </rdf:RDF>
 </metadata>
 <defs>
  <style type="text/css">*{stroke-linejoin: round; stroke-linecap: butt}</style>
 </defs>
 <g id="figure_1">
  <g id="patch_1">
   <path d="M 0 338.4 
L 392.657427 338.4 
L 392.657427 0 
L 0 0 
z
" style="fill: #ffffff"/>
  </g>
  <g id="axes_1">
   <g id="patch_2">
    <path d="M 7.2 331.2 
L 385.457427 331.2 
L 385.457427 7.2 
L 7.2 7.2 
z
" style="fill: #ffffff"/>
   </g>
   <g id="PathCollection_1">
    <path d="M 137.722314 100.666888 
C 138.659948 100.666888 139.559306 100.294362 140.222314 99.631354 
C 140.885322 98.968346 141.257848 98.068989 141.257848 97.131354 
C 141.257848 96.19372 140.885322 95.294362 140.222314 94.631354 
C 139.559306 93.968346 138.659948 93.59582 137.722314 93.59582 
C 136.784679 93.59582 135.885322 93.968346 135.222314 94.631354 
C 134.559306 95.294362 134.18678 96.19372 134.18678 97.131354 
C 134.18678 98.068989 134.559306 98.968346 135.222314 99.631354 
C 135.885322 100.294362 136.784679 100.666888 137.722314 100.666888 
z
" clip-path="url(#pdbd1a86250)"/>
   </g>
   <g id="matplotlib.axis_1"/>
   <g id="matplotlib.axis_2"/>
   <g id="line2d_1">
    <path d="M 378.183246 243.235163 
L 346.118994 203.607268 
L 324.789935 177.377943 
L 307.891638 156.946028 
L 295.56483 142.348289 
L 281.719332 126.359547 
L 269.799269 113.016228 
L 263.105582 105.721825 
L 251.755244 93.722217 
L 239.910272 81.755173 
L 232.474824 74.566375 
L 225.410759 67.989118 
L 222.126508 65.019983 
L 211.654989 55.955393 
L 205.004953 50.537717 
L 196.944785 44.352362 
L 190.571092 39.776356 
L 186.303279 36.876785 
L 179.655232 32.636856 
L 174.105193 29.368414 
L 166.288291 25.209409 
L 163.201382 23.717407 
L 159.22331 21.926027 
L 152.490232 19.245651 
L 151.46856 18.878983 
L 144.590707 16.698101 
L 141.371694 15.85558 
L 135.104465 14.558864 
L 130.13838 13.869597 
L 125.697541 13.520301 
L 120.520804 13.44803 
L 115.842383 13.709216 
L 110.527949 14.403818 
L 104.743904 15.671147 
L 101.370644 16.671093 
L 96.134556 18.627787 
L 93.482347 19.816228 
L 89.496208 21.866008 
L 85.121754 24.499834 
L 81.351899 27.112839 
L 77.635099 30.020592 
L 74.349562 32.88239 
L 70.189025 36.926248 
L 69.117231 38.048234 
L 65.591455 41.985218 
L 61.348111 47.257153 
L 57.805917 52.145236 
L 54.812155 56.654925 
L 51.869028 61.456913 
L 48.531225 67.388221 
L 45.413187 73.445952 
L 42.442826 79.737862 
L 40.112714 85.072506 
L 37.197897 92.305506 
L 34.195949 100.50512 
L 31.664071 108.120558 
L 30.036862 113.412493 
L 27.38657 122.830742 
L 25.449533 130.476063 
L 23.758114 137.815089 
L 22.200582 145.263011 
L 20.118884 156.612316 
L 18.730682 165.452525 
L 17.469054 174.868685 
L 16.320329 185.377172 
L 15.353937 197.18873 
L 14.846785 206.284338 
L 14.560136 214.979575 
L 14.48527 225.701527 
L 14.624191 233.124263 
L 15.0287 242.302364 
L 15.493535 248.921786 
L 16.377087 257.863047 
L 17.513312 266.284281 
L 18.219319 270.562702 
L 19.582006 277.525991 
L 21.453794 285.233455 
L 23.062271 290.691312 
L 25.359913 297.170888 
L 26.787902 300.595336 
L 28.978807 305.140161 
L 31.035249 308.759314 
L 32.591625 311.147198 
L 34.526623 313.749949 
L 36.643963 316.188807 
L 38.660026 318.160335 
L 40.16853 319.434319 
L 42.89065 321.341446 
L 44.726966 322.369074 
L 46.163505 323.039834 
L 49.309662 324.134317 
L 51.125292 324.550059 
L 53.460095 324.87171 
L 55.961872 324.969231 
L 59.825594 324.660513 
L 62.618281 324.11954 
L 64.464036 323.626545 
L 68.619426 322.150551 
L 72.637803 320.278248 
L 72.637803 320.278248 
" clip-path="url(#pdbd1a86250)" style="fill: none; stroke: #ffffff; stroke-linecap: square"/>
   </g>
   <g id="line2d_2">
    <path d="M 72.637803 320.278248 
L 77.706583 315.611922 
L 82.061104 311.315366 
L 86.668181 306.422335 
L 90.347961 302.206329 
L 94.328483 297.270346 
L 97.654423 292.780384 
L 101.294317 287.387558 
L 103.872834 283.187387 
L 106.798118 277.932498 
L 109.246081 273.018759 
L 110.983652 269.160072 
L 113.094595 263.926316 
L 114.96005 258.628209 
L 116.537177 253.450142 
L 118.048372 247.600072 
L 118.991626 243.292452 
L 120.035024 237.608886 
L 120.960383 231.225849 
L 121.662181 224.781005 
L 122.167177 218.283844 
L 122.57117 209.981982 
L 122.778068 201.187919 
L 122.845761 188.034213 
L 122.950773 169.272803 
L 123.217012 160.308327 
L 123.687845 152.119645 
L 124.267725 145.579694 
L 124.919575 140.109291 
L 125.820843 134.193045 
L 127.009551 128.003851 
L 128.138729 123.141909 
L 129.664284 117.570465 
L 131.570123 111.677488 
L 133.292779 107.052254 
L 135.232309 102.418341 
L 137.722314 97.131354 
L 137.722314 97.131354 
" clip-path="url(#pdbd1a86250)" style="fill: none; stroke: #000000; stroke-linecap: square"/>
   </g>
   <g id="patch_3">
    <path d="M 122.845854 186.390112 
Q 122.845862 185.943818 122.845832 187.733592 
" clip-path="url(#pdbd1a86250)" style="fill: none; stroke: #000000; stroke-width: 2; stroke-linecap: round"/>
    <path d="M 117.845665 197.733509 
L 122.845832 187.733592 
L 127.845665 197.733675 
L 117.845665 197.733509 
z
" clip-path="url(#pdbd1a86250)" style="stroke: #000000; stroke-width: 2; stroke-linecap: round"/>
   </g>
   <g id="text_1">
    <g clip-path="url(#pdbd1a86250)">
     <!-- $Q$ -->
     <g transform="translate(89.415431 318.250809) scale(0.25 -0.25)">
      <defs>
       <path id="Cmmi10-51" d="M 1947 -141 
Q 1466 -141 1094 79 
Q 722 300 520 692 
Q 319 1084 319 1563 
Q 319 2259 714 2950 
Q 1109 3641 1756 4077 
Q 2403 4513 3109 4513 
Q 3475 4513 3778 4381 
Q 4081 4250 4290 4017 
Q 4500 3784 4614 3471 
Q 4728 3159 4728 2791 
Q 4728 2366 4581 1936 
Q 4434 1506 4171 1136 
Q 3909 766 3559 484 
Q 3209 203 2809 38 
Q 2850 -256 2934 -425 
Q 3019 -594 3256 -594 
Q 3506 -594 3726 -412 
Q 3947 -231 4006 13 
Q 4019 72 4078 72 
Q 4147 72 4147 -13 
Q 4100 -219 4008 -430 
Q 3916 -641 3786 -823 
Q 3656 -1006 3478 -1123 
Q 3300 -1241 3084 -1241 
Q 2547 -1241 2547 -550 
Q 2547 -509 2562 -332 
Q 2578 -156 2578 -44 
Q 2269 -141 1947 -141 
z
M 1709 300 
Q 1709 44 1991 44 
Q 2275 44 2591 184 
L 2591 244 
Q 2591 503 2509 648 
Q 2428 794 2194 794 
Q 2078 794 1964 723 
Q 1850 653 1779 539 
Q 1709 425 1709 300 
z
M 1544 288 
Q 1544 456 1637 612 
Q 1731 769 1881 864 
Q 2031 959 2203 959 
Q 2481 959 2607 771 
Q 2734 584 2778 281 
Q 3188 525 3500 978 
Q 3813 1431 3977 1973 
Q 4141 2516 4141 3003 
Q 4141 3356 4023 3656 
Q 3906 3956 3664 4140 
Q 3422 4325 3066 4325 
Q 2722 4325 2403 4156 
Q 2084 3988 1813 3706 
Q 1550 3434 1342 3032 
Q 1134 2631 1021 2193 
Q 909 1756 909 1356 
Q 909 947 1068 612 
Q 1228 278 1569 128 
Q 1544 194 1544 288 
z
" transform="scale(0.015625)"/>
      </defs>
      <use xlink:href="#Cmmi10-51" transform="translate(0 0.484375)"/>
     </g>
    </g>
   </g>
   <g id="text_2">
    <g clip-path="url(#pdbd1a86250)">
     <!-- $R$ -->
     <g transform="translate(105.907625 117.418605) scale(0.25 -0.25)">
      <defs>
       <path id="Cmmi10-52" d="M 313 0 
Q 250 0 250 84 
Q 253 100 262 139 
Q 272 178 289 201 
Q 306 225 331 225 
Q 722 225 878 269 
Q 959 297 997 441 
L 1875 3956 
Q 1888 4019 1888 4044 
Q 1888 4113 1813 4122 
Q 1691 4147 1350 4147 
Q 1288 4147 1288 4231 
Q 1291 4247 1300 4286 
Q 1309 4325 1326 4348 
Q 1344 4372 1369 4372 
L 3309 4372 
Q 3541 4372 3791 4319 
Q 4041 4266 4250 4152 
Q 4459 4038 4593 3848 
Q 4728 3659 4728 3406 
Q 4728 3084 4515 2831 
Q 4303 2578 3978 2408 
Q 3653 2238 3347 2169 
Q 3597 2078 3756 1879 
Q 3916 1681 3916 1422 
Q 3916 1388 3914 1370 
Q 3913 1353 3909 1331 
L 3859 763 
Q 3853 638 3847 550 
Q 3841 463 3841 409 
Q 3841 234 3892 129 
Q 3944 25 4097 25 
Q 4297 25 4448 211 
Q 4600 397 4647 616 
Q 4675 672 4709 672 
L 4769 672 
Q 4831 672 4831 588 
Q 4784 403 4682 237 
Q 4581 72 4426 -34 
Q 4272 -141 4091 -141 
Q 3716 -141 3452 26 
Q 3188 194 3188 550 
Q 3188 684 3213 788 
L 3353 1356 
Q 3378 1434 3378 1538 
Q 3378 1803 3198 1954 
Q 3019 2106 2747 2106 
L 1959 2106 
L 1538 416 
Q 1522 363 1522 325 
Q 1522 259 1600 250 
Q 1722 225 2059 225 
Q 2125 225 2125 141 
Q 2103 50 2090 25 
Q 2078 0 2016 0 
L 313 0 
z
M 1997 2272 
L 2706 2272 
Q 3403 2272 3756 2625 
Q 3919 2788 4014 3039 
Q 4109 3291 4109 3541 
Q 4109 3778 3970 3912 
Q 3831 4047 3626 4097 
Q 3422 4147 3175 4147 
L 2747 4147 
Q 2572 4147 2515 4117 
Q 2459 4088 2413 3928 
L 1997 2272 
z
" transform="scale(0.015625)"/>
      </defs>
      <use xlink:href="#Cmmi10-52" transform="translate(0 0.6875)"/>
     </g>
    </g>
   </g>
   <g id="PathCollection_2">
    <path d="M 72.637803 323.813781 
C 73.575438 323.813781 74.474796 323.441255 75.137803 322.778248 
C 75.800811 322.11524 76.173337 321.215882 76.173337 320.278248 
C 76.173337 319.340613 75.800811 318.441255 75.137803 317.778248 
C 74.474796 317.11524 73.575438 316.742714 72.637803 316.742714 
C 71.700169 316.742714 70.800811 317.11524 70.137803 317.778248 
C 69.474796 318.441255 69.102269 319.340613 69.102269 320.278248 
C 69.102269 321.215882 69.474796 322.11524 70.137803 322.778248 
C 70.800811 323.441255 71.700169 323.813781 72.637803 323.813781 
z
" clip-path="url(#pdbd1a86250)"/>
   </g>
  </g>
 </g>
 <defs>
  <clipPath id="pdbd1a86250">
   <rect x="7.2" y="7.2" width="378.257427" height="324"/>
  </clipPath>
 </defs>
</svg>
