<?xml version="1.0" encoding="utf-8" standalone="no"?>
<!DOCTYPE svg PUBLIC "-//W3C//DTD SVG 1.1//EN"
  "http://www.w3.org/Graphics/SVG/1.1/DTD/svg11.dtd">
<svg xmlns:xlink="http://www.w3.org/1999/xlink" width="392.653915pt" height="338.4pt" viewBox="0 0 392.653915 338.4" xmlns="http://www.w3.org/2000/svg" version="1.1">
 <metadata>
  <rdf:RDF xmlns:dc="http://purl.org/dc/elements/1.1/" xmlns:cc="http://creativecommons.org/ns#" xmlns:rdf="http://www.w3.org/1999/02/22-rdf-syntax-ns#">
   <cc:Work>
    <dc:type rdf:resource="http://purl.org/dc/dcmitype/StillImage"/>
    <dc:date>2024-12-04T08:24:49.643664</dc:date>
    <dc:format>image/svg+xml</dc:format>
    <dc:creator>
     <cc:Agent>
      <dc:title>Matplotlib v3.6.2, https://matplotlib.org/</dc:title>
     </cc:Agent>
    </dc:creator>
   </cc:Work>
  </rdf:RDF>
 </metadata>
 <defs>
  <style type="text/css">*{stroke-linejoin: round; stroke-linecap: butt}</style>
 </defs>
 <g id="figure_1">
  <g id="patch_1">
   <path d="M 0 338.4 
L 392.653915 338.4 
L 392.653915 0 
L 0 0 
z
" style="fill: #ffffff"/>
  </g>
  <g id="axes_1">
   <g id="patch_2">
    <path d="M 7.2 331.2 
L 385.453915 331.2 
L 385.453915 7.2 
L 7.2 7.2 
z
" style="fill: #ffffff"/>
   </g>
   <g id="PathCollection_1">
    <path d="M 378.179801 246.769637 
C 379.117435 246.769637 380.016793 246.397111 380.679801 245.734103 
C 381.342809 245.071096 381.715335 244.171738 381.715335 243.234103 
C 381.715335 242.296469 381.342809 241.397111 380.679801 240.734103 
C 380.016793 240.071096 379.117435 239.698569 378.179801 239.698569 
C 377.242166 239.698569 376.342809 240.071096 375.679801 240.734103 
C 375.016793 241.397111 374.644267 242.296469 374.644267 243.234103 
C 374.644267 244.171738 375.016793 245.071096 375.679801 245.734103 
C 376.342809 246.397111 377.242166 246.769637 378.179801 246.769637 
z
" clip-path="url(#p6190d56492)"/>
   </g>
   <g id="PathCollection_2">
    <path d="M 137.719294 100.666087 
C 138.656928 100.666087 139.556286 100.293561 140.219294 99.630553 
C 140.882302 98.967545 141.254828 98.068187 141.254828 97.130553 
C 141.254828 96.192918 140.882302 95.293561 140.219294 94.630553 
C 139.556286 93.967545 138.656928 93.595019 137.719294 93.595019 
C 136.781659 93.595019 135.882302 93.967545 135.219294 94.630553 
C 134.556286 95.293561 134.18376 96.192918 134.18376 97.130553 
C 134.18376 98.068187 134.556286 98.967545 135.219294 99.630553 
C 135.882302 100.293561 136.781659 100.666087 137.719294 100.666087 
z
" clip-path="url(#p6190d56492)"/>
   </g>
   <g id="matplotlib.axis_1"/>
   <g id="matplotlib.axis_2"/>
   <g id="line2d_1">
    <path d="M 378.179801 243.234103 
L 338.361007 194.032777 
L 323.422038 175.712734 
L 309.022945 158.303287 
L 294.934086 141.612819 
L 286.009092 131.264356 
L 273.763044 117.408136 
L 261.485892 103.982785 
L 253.743769 95.791332 
L 244.159287 85.980568 
L 235.121506 77.097324 
L 227.626355 70.02665 
L 220.516819 63.588187 
L 212.651857 56.7928 
L 205.88168 51.237931 
L 201.40717 47.725264 
L 192.604329 41.206264 
L 184.740915 35.850851 
L 180.076086 32.896168 
L 171.622272 27.990678 
L 166.837155 25.484673 
L 161.235262 22.813974 
L 155.866567 20.533777 
L 151.562739 18.912747 
L 144.842358 16.769054 
L 140.436835 15.632997 
L 135.030558 14.546221 
L 130.586918 13.918801 
L 126.012493 13.53601 
L 121.778776 13.430769 
L 116.887702 13.622208 
L 115.396622 13.749958 
L 110.68313 14.376149 
L 105.645204 15.435757 
L 104.483602 15.739833 
L 101.205158 16.723657 
L 97.285717 18.15217 
L 92.523513 20.277759 
L 89.289365 21.978989 
L 86.301481 23.745983 
L 83.939295 25.281576 
L 79.224063 28.732901 
L 75.874695 31.515606 
L 71.067121 36.028451 
L 67.799987 39.470309 
L 65.086257 42.577248 
L 62.441683 45.835493 
L 59.08019 50.328223 
L 55.71615 55.249655 
L 53.832603 58.205665 
L 50.056345 64.604939 
L 46.602086 71.067177 
L 43.497884 77.433971 
L 39.625437 86.228744 
L 37.084506 92.592414 
L 34.781011 98.832282 
L 32.043264 106.924804 
L 29.261549 116.047385 
L 27.038829 124.139268 
L 25.201303 131.498197 
L 22.994154 141.360736 
L 21.516311 148.776257 
L 19.862504 158.135014 
L 18.299859 168.466152 
L 17.376147 175.610207 
L 16.310679 185.4473 
L 15.381624 196.737684 
L 14.874549 205.605532 
L 14.517447 217.1108 
L 14.49237 226.750855 
L 14.640967 233.760969 
L 15.085259 243.282141 
L 15.728687 251.658551 
L 16.420949 258.259606 
L 17.261485 264.626613 
L 18.55159 272.412168 
L 19.89635 278.959267 
L 21.443075 285.203181 
L 22.960598 290.379468 
L 23.908426 293.242311 
L 25.25068 296.897793 
L 26.995717 301.066224 
L 28.844706 304.888061 
L 29.956018 306.934515 
L 31.343774 309.258528 
L 34.095275 313.204886 
L 36.021767 315.515299 
L 37.387986 316.955688 
L 40.030832 319.325839 
L 41.603177 320.500103 
L 44.420949 322.211706 
L 46.269102 323.084747 
L 47.821477 323.677943 
L 50.737227 324.473141 
L 52.757745 324.798317 
L 55.705073 324.969231 
L 58.610725 324.813171 
L 61.065031 324.450054 
L 62.206031 324.213377 
L 66.416333 322.992046 
L 68.517699 322.190062 
L 72.634898 320.277052 
L 72.634898 320.277052 
" clip-path="url(#p6190d56492)" style="fill: none; stroke: #000000; stroke-linecap: square"/>
   </g>
   <g id="line2d_2">
    <path d="M 72.634898 320.277052 
L 78.223063 315.113193 
L 83.533315 309.789524 
L 87.005623 306.043543 
L 90.895683 301.547288 
L 94.351418 297.235641 
L 97.962361 292.33977 
L 100.850507 288.070438 
L 103.50693 283.799588 
L 106.214258 279.02286 
L 108.486537 274.595169 
L 110.989192 269.139163 
L 113.095235 263.915635 
L 114.775729 259.176658 
L 116.524986 253.481677 
L 117.739595 248.87282 
L 118.955841 243.452341 
L 120.063504 237.415976 
L 120.851237 232.050934 
L 121.487599 226.552028 
L 122.146462 218.558069 
L 122.557611 210.27966 
L 122.771529 201.440574 
L 122.842597 188.714735 
L 122.945744 169.383261 
L 123.250537 159.478615 
L 123.742537 151.353305 
L 124.421748 144.128698 
L 125.174464 138.264377 
L 126.032407 132.966336 
L 127.32195 126.564474 
L 128.516554 121.659132 
L 130.191063 115.831492 
L 131.859159 110.852125 
L 133.962074 105.384775 
L 135.97814 100.758305 
L 137.719294 97.130553 
L 137.719294 97.130553 
" clip-path="url(#p6190d56492)" style="fill: none; stroke: #000000; stroke-linecap: square"/>
   </g>
   <g id="patch_3">
    <path d="M 100.081919 17.104413 
Q 99.97953 17.140346 101.987048 16.435811 
" clip-path="url(#p6190d56492)" style="fill: none; stroke: #000000; stroke-width: 2; stroke-linecap: round"/>
    <path d="M 113.078575 17.842233 
L 101.987048 16.435811 
L 109.767102 8.406443 
L 113.078575 17.842233 
z
" clip-path="url(#p6190d56492)" style="stroke: #000000; stroke-width: 2; stroke-linecap: round"/>
   </g>
   <g id="patch_4">
    <path d="M 122.842861 186.389152 
Q 122.842868 185.942859 122.842838 187.732634 
" clip-path="url(#p6190d56492)" style="fill: none; stroke: #000000; stroke-width: 2; stroke-linecap: round"/>
    <path d="M 117.842672 197.732551 
L 122.842838 187.732634 
L 127.842672 197.732718 
L 117.842672 197.732551 
z
" clip-path="url(#p6190d56492)" style="stroke: #000000; stroke-width: 2; stroke-linecap: round"/>
   </g>
   <g id="text_1">
    <g clip-path="url(#p6190d56492)">
     <!-- $P$ -->
     <g transform="translate(361.128941 272.447191) scale(0.25 -0.25)">
      <defs>
       <path id="Cmmi10-50" d="M 313 0 
Q 250 0 250 84 
Q 253 100 262 139 
Q 272 178 289 201 
Q 306 225 331 225 
Q 722 225 878 269 
Q 959 297 997 441 
L 1875 3956 
Q 1888 4019 1888 4044 
Q 1888 4113 1813 4122 
Q 1691 4147 1350 4147 
Q 1288 4147 1288 4231 
Q 1291 4247 1300 4286 
Q 1309 4325 1326 4348 
Q 1344 4372 1369 4372 
L 3578 4372 
Q 3881 4372 4165 4264 
Q 4450 4156 4631 3934 
Q 4813 3713 4813 3397 
Q 4813 2991 4527 2672 
Q 4241 2353 3814 2175 
Q 3388 1997 2988 1997 
L 1947 1997 
L 1556 416 
Q 1544 353 1544 325 
Q 1544 300 1551 283 
Q 1559 266 1573 261 
Q 1588 256 1619 250 
Q 1741 225 2081 225 
Q 2144 225 2144 141 
Q 2122 50 2109 25 
Q 2097 0 2034 0 
L 313 0 
z
M 1978 2188 
L 2875 2188 
Q 3497 2188 3822 2522 
Q 3988 2688 4092 3000 
Q 4197 3313 4197 3566 
Q 4197 3881 3956 4014 
Q 3716 4147 3359 4147 
L 2747 4147 
Q 2572 4147 2515 4117 
Q 2459 4088 2413 3928 
L 1978 2188 
z
" transform="scale(0.015625)"/>
      </defs>
      <use xlink:href="#Cmmi10-50" transform="translate(0 0.6875)"/>
     </g>
    </g>
   </g>
   <g id="text_2">
    <g clip-path="url(#p6190d56492)">
     <!-- $R$ -->
     <g transform="translate(150.533944 81.71434) scale(0.25 -0.25)">
      <defs>
       <path id="Cmmi10-52" d="M 313 0 
Q 250 0 250 84 
Q 253 100 262 139 
Q 272 178 289 201 
Q 306 225 331 225 
Q 722 225 878 269 
Q 959 297 997 441 
L 1875 3956 
Q 1888 4019 1888 4044 
Q 1888 4113 1813 4122 
Q 1691 4147 1350 4147 
Q 1288 4147 1288 4231 
Q 1291 4247 1300 4286 
Q 1309 4325 1326 4348 
Q 1344 4372 1369 4372 
L 3309 4372 
Q 3541 4372 3791 4319 
Q 4041 4266 4250 4152 
Q 4459 4038 4593 3848 
Q 4728 3659 4728 3406 
Q 4728 3084 4515 2831 
Q 4303 2578 3978 2408 
Q 3653 2238 3347 2169 
Q 3597 2078 3756 1879 
Q 3916 1681 3916 1422 
Q 3916 1388 3914 1370 
Q 3913 1353 3909 1331 
L 3859 763 
Q 3853 638 3847 550 
Q 3841 463 3841 409 
Q 3841 234 3892 129 
Q 3944 25 4097 25 
Q 4297 25 4448 211 
Q 4600 397 4647 616 
Q 4675 672 4709 672 
L 4769 672 
Q 4831 672 4831 588 
Q 4784 403 4682 237 
Q 4581 72 4426 -34 
Q 4272 -141 4091 -141 
Q 3716 -141 3452 26 
Q 3188 194 3188 550 
Q 3188 684 3213 788 
L 3353 1356 
Q 3378 1434 3378 1538 
Q 3378 1803 3198 1954 
Q 3019 2106 2747 2106 
L 1959 2106 
L 1538 416 
Q 1522 363 1522 325 
Q 1522 259 1600 250 
Q 1722 225 2059 225 
Q 2125 225 2125 141 
Q 2103 50 2090 25 
Q 2078 0 2016 0 
L 313 0 
z
M 1997 2272 
L 2706 2272 
Q 3403 2272 3756 2625 
Q 3919 2788 4014 3039 
Q 4109 3291 4109 3541 
Q 4109 3778 3970 3912 
Q 3831 4047 3626 4097 
Q 3422 4147 3175 4147 
L 2747 4147 
Q 2572 4147 2515 4117 
Q 2459 4088 2413 3928 
L 1997 2272 
z
" transform="scale(0.015625)"/>
      </defs>
      <use xlink:href="#Cmmi10-52" transform="translate(0 0.6875)"/>
     </g>
    </g>
   </g>
  </g>
 </g>
 <defs>
  <clipPath id="p6190d56492">
   <rect x="7.2" y="7.2" width="378.253915" height="324"/>
  </clipPath>
 </defs>
</svg>
