<?xml version="1.0" encoding="utf-8" standalone="no"?>
<!DOCTYPE svg PUBLIC "-//W3C//DTD SVG 1.1//EN"
  "http://www.w3.org/Graphics/SVG/1.1/DTD/svg11.dtd">
<svg xmlns:xlink="http://www.w3.org/1999/xlink" width="392.671867pt" height="338.4pt" viewBox="0 0 392.671867 338.4" xmlns="http://www.w3.org/2000/svg" version="1.1">
 <metadata>
  <rdf:RDF xmlns:dc="http://purl.org/dc/elements/1.1/" xmlns:cc="http://creativecommons.org/ns#" xmlns:rdf="http://www.w3.org/1999/02/22-rdf-syntax-ns#">
   <cc:Work>
    <dc:type rdf:resource="http://purl.org/dc/dcmitype/StillImage"/>
    <dc:date>2024-08-29T09:20:45.033216</dc:date>
    <dc:format>image/svg+xml</dc:format>
    <dc:creator>
     <cc:Agent>
      <dc:title>Matplotlib v3.8.0, https://matplotlib.org/</dc:title>
     </cc:Agent>
    </dc:creator>
   </cc:Work>
  </rdf:RDF>
 </metadata>
 <defs>
  <style type="text/css">*{stroke-linejoin: round; stroke-linecap: butt}</style>
 </defs>
 <g id="figure_1">
  <g id="patch_1">
   <path d="M 0 338.4 
L 392.671867 338.4 
L 392.671867 0 
L 0 0 
z
" style="fill: #ffffff"/>
  </g>
  <g id="axes_1">
   <g id="patch_2">
    <path d="M 7.2 331.2 
L 385.471867 331.2 
L 385.471867 7.2 
L 7.2 7.2 
z
" style="fill: #ffffff"/>
   </g>
   <g id="PathCollection_1">
    <path d="M 378.197408 246.780658 
C 379.135043 246.780658 380.034401 246.408132 380.697408 245.745124 
C 381.360416 245.082116 381.732942 244.182759 381.732942 243.245124 
C 381.732942 242.30749 381.360416 241.408132 380.697408 240.745124 
C 380.034401 240.082116 379.135043 239.70959 378.197408 239.70959 
C 377.259774 239.70959 376.360416 240.082116 375.697408 240.745124 
C 375.034401 241.408132 374.661874 242.30749 374.661874 243.245124 
C 374.661874 244.182759 375.034401 245.082116 375.697408 245.745124 
C 376.360416 246.408132 377.259774 246.780658 378.197408 246.780658 
z
" clip-path="url(#p4128839e5c)"/>
   </g>
   <g id="PathCollection_2">
    <path d="M 72.63873 323.82708 
C 73.576365 323.82708 74.475722 323.454554 75.13873 322.791546 
C 75.801738 322.128538 76.174264 321.22918 76.174264 320.291546 
C 76.174264 319.353911 75.801738 318.454554 75.13873 317.791546 
C 74.475722 317.128538 73.576365 316.756012 72.63873 316.756012 
C 71.701095 316.756012 70.801738 317.128538 70.13873 317.791546 
C 69.475722 318.454554 69.103196 319.353911 69.103196 320.291546 
C 69.103196 321.22918 69.475722 322.128538 70.13873 322.791546 
C 70.801738 323.454554 71.701095 323.82708 72.63873 323.82708 
z
" clip-path="url(#p4128839e5c)"/>
   </g>
   <g id="matplotlib.axis_1"/>
   <g id="matplotlib.axis_2"/>
   <g id="line2d_1">
    <path d="M 378.197408 243.245124 
L 312.66284 162.664686 
L 295.770471 142.582427 
L 284.029527 128.98675 
L 272.866977 116.402583 
L 262.889217 105.482736 
L 252.000875 93.971114 
L 240.745446 82.573704 
L 232.553391 74.636147 
L 224.001911 66.703894 
L 215.90211 59.551707 
L 209.619805 54.264453 
L 202.462342 48.536599 
L 195.397109 43.211618 
L 188.755357 38.523245 
L 181.216104 33.598564 
L 175.262211 30.026381 
L 168.82664 26.499012 
L 167.65482 25.895594 
L 159.603748 22.089156 
L 156.484914 20.779937 
L 149.562921 18.222918 
L 147.589921 17.585481 
L 143.581391 16.420455 
L 139.544802 15.42917 
L 135.059698 14.550728 
L 128.732269 13.730837 
L 124.864798 13.483775 
L 119.402663 13.481732 
L 115.565179 13.735071 
L 113.085739 14.015561 
L 107.287134 15.046615 
L 105.486308 15.478106 
L 101.44809 16.646749 
L 96.851953 18.330617 
L 94.103947 19.526518 
L 89.597157 21.811356 
L 84.813128 24.702968 
L 81.162117 27.254727 
L 77.285076 30.313827 
L 73.360046 33.802273 
L 69.562045 37.580356 
L 65.795276 41.74899 
L 62.582393 45.662582 
L 59.656265 49.535885 
L 55.013638 56.342028 
L 51.761982 61.641005 
L 48.572364 67.313887 
L 45.998614 72.269905 
L 43.549305 77.332761 
L 40.886333 83.261827 
L 38.015577 90.210876 
L 35.154974 97.796598 
L 31.893042 107.403756 
L 29.028354 116.871712 
L 26.617864 125.77913 
L 24.662914 133.803527 
L 22.880937 141.917005 
L 21.287156 150.013382 
L 19.331702 161.465151 
L 17.731991 172.75868 
L 16.627135 182.306604 
L 15.639013 193.222728 
L 15.225468 199.157146 
L 14.685698 210.386742 
L 14.479999 220.590405 
L 14.519883 228.680534 
L 14.839843 238.783329 
L 15.379326 247.511786 
L 16.200743 256.331311 
L 17.28719 264.804631 
L 18.335077 271.232839 
L 19.992529 279.388896 
L 21.533466 285.542298 
L 22.758338 289.742449 
L 24.922468 296.052208 
L 26.93884 300.949218 
L 28.948662 305.097245 
L 31.52628 309.55733 
L 33.647729 312.62896 
L 35.25363 314.646698 
L 37.720343 317.295132 
L 39.968889 319.288684 
L 42.075232 320.833782 
L 44.716442 322.377271 
L 47.433395 323.554837 
L 49.921935 324.30486 
L 52.104854 324.726751 
L 54.835647 324.969231 
L 58.100935 324.877616 
L 59.372378 324.737492 
L 62.172329 324.236392 
L 66.185078 323.088578 
L 70.347539 321.410276 
L 72.63873 320.291546 
L 72.63873 320.291546 
" clip-path="url(#p4128839e5c)" style="fill: none; stroke: #000000; stroke-linecap: square"/>
   </g>
   <g id="patch_3">
    <path d="M 99.882201 17.177108 
Q 99.984594 17.141173 97.977081 17.845706 
" clip-path="url(#p4128839e5c)" style="fill: none; stroke: #000000; stroke-width: 2; stroke-linecap: round"/>
    <path d="M 86.885554 16.439284 
L 97.977081 17.845706 
L 90.197027 25.875075 
z
" clip-path="url(#p4128839e5c)" style="stroke: #000000; stroke-width: 2; stroke-linecap: round"/>
   </g>
   <g id="text_1">
    <g clip-path="url(#p4128839e5c)">
     <!-- $P$ -->
     <g transform="translate(361.146146 272.459218) scale(0.25 -0.25)">
      <defs>
       <path id="Cmmi10-50" d="M 313 0 
Q 250 0 250 84 
Q 253 100 262 139 
Q 272 178 289 201 
Q 306 225 331 225 
Q 722 225 878 269 
Q 959 297 997 441 
L 1875 3956 
Q 1888 4019 1888 4044 
Q 1888 4113 1813 4122 
Q 1691 4147 1350 4147 
Q 1288 4147 1288 4231 
Q 1291 4247 1300 4286 
Q 1309 4325 1326 4348 
Q 1344 4372 1369 4372 
L 3578 4372 
Q 3881 4372 4165 4264 
Q 4450 4156 4631 3934 
Q 4813 3713 4813 3397 
Q 4813 2991 4527 2672 
Q 4241 2353 3814 2175 
Q 3388 1997 2988 1997 
L 1947 1997 
L 1556 416 
Q 1544 353 1544 325 
Q 1544 300 1551 283 
Q 1559 266 1573 261 
Q 1588 256 1619 250 
Q 1741 225 2081 225 
Q 2144 225 2144 141 
Q 2122 50 2109 25 
Q 2097 0 2034 0 
L 313 0 
z
M 1978 2188 
L 2875 2188 
Q 3497 2188 3822 2522 
Q 3988 2688 4092 3000 
Q 4197 3313 4197 3566 
Q 4197 3881 3956 4014 
Q 3716 4147 3359 4147 
L 2747 4147 
Q 2572 4147 2515 4117 
Q 2459 4088 2413 3928 
L 1978 2188 
z
" transform="scale(0.015625)"/>
      </defs>
      <use xlink:href="#Cmmi10-50" transform="translate(0 0.6875)"/>
     </g>
    </g>
   </g>
   <g id="text_2">
    <g clip-path="url(#p4128839e5c)">
     <!-- $Q$ -->
     <g transform="translate(84.954386 322.726852) scale(0.25 -0.25)">
      <defs>
       <path id="Cmmi10-51" d="M 1947 -141 
Q 1466 -141 1094 79 
Q 722 300 520 692 
Q 319 1084 319 1563 
Q 319 2259 714 2950 
Q 1109 3641 1756 4077 
Q 2403 4513 3109 4513 
Q 3475 4513 3778 4381 
Q 4081 4250 4290 4017 
Q 4500 3784 4614 3471 
Q 4728 3159 4728 2791 
Q 4728 2366 4581 1936 
Q 4434 1506 4171 1136 
Q 3909 766 3559 484 
Q 3209 203 2809 38 
Q 2850 -256 2934 -425 
Q 3019 -594 3256 -594 
Q 3506 -594 3726 -412 
Q 3947 -231 4006 13 
Q 4019 72 4078 72 
Q 4147 72 4147 -13 
Q 4100 -219 4008 -430 
Q 3916 -641 3786 -823 
Q 3656 -1006 3478 -1123 
Q 3300 -1241 3084 -1241 
Q 2547 -1241 2547 -550 
Q 2547 -509 2562 -332 
Q 2578 -156 2578 -44 
Q 2269 -141 1947 -141 
z
M 1709 300 
Q 1709 44 1991 44 
Q 2275 44 2591 184 
L 2591 244 
Q 2591 503 2509 648 
Q 2428 794 2194 794 
Q 2078 794 1964 723 
Q 1850 653 1779 539 
Q 1709 425 1709 300 
z
M 1544 288 
Q 1544 456 1637 612 
Q 1731 769 1881 864 
Q 2031 959 2203 959 
Q 2481 959 2607 771 
Q 2734 584 2778 281 
Q 3188 525 3500 978 
Q 3813 1431 3977 1973 
Q 4141 2516 4141 3003 
Q 4141 3356 4023 3656 
Q 3906 3956 3664 4140 
Q 3422 4325 3066 4325 
Q 2722 4325 2403 4156 
Q 2084 3988 1813 3706 
Q 1550 3434 1342 3032 
Q 1134 2631 1021 2193 
Q 909 1756 909 1356 
Q 909 947 1068 612 
Q 1228 278 1569 128 
Q 1544 194 1544 288 
z
" transform="scale(0.015625)"/>
      </defs>
      <use xlink:href="#Cmmi10-51" transform="translate(0 0.484375)"/>
     </g>
    </g>
   </g>
  </g>
 </g>
 <defs>
  <clipPath id="p4128839e5c">
   <rect x="7.2" y="7.2" width="378.271867" height="324"/>
  </clipPath>
 </defs>
</svg>
