<?xml version="1.0" encoding="utf-8" standalone="no"?>
<!DOCTYPE svg PUBLIC "-//W3C//DTD SVG 1.1//EN"
  "http://www.w3.org/Graphics/SVG/1.1/DTD/svg11.dtd">
<svg xmlns:xlink="http://www.w3.org/1999/xlink" width="392.661683pt" height="338.4pt" viewBox="0 0 392.661683 338.4" xmlns="http://www.w3.org/2000/svg" version="1.1">
 <metadata>
  <rdf:RDF xmlns:dc="http://purl.org/dc/elements/1.1/" xmlns:cc="http://creativecommons.org/ns#" xmlns:rdf="http://www.w3.org/1999/02/22-rdf-syntax-ns#">
   <cc:Work>
    <dc:type rdf:resource="http://purl.org/dc/dcmitype/StillImage"/>
    <dc:date>2025-02-05T11:15:26.506582</dc:date>
    <dc:format>image/svg+xml</dc:format>
    <dc:creator>
     <cc:Agent>
      <dc:title>Matplotlib v3.6.2, https://matplotlib.org/</dc:title>
     </cc:Agent>
    </dc:creator>
   </cc:Work>
  </rdf:RDF>
 </metadata>
 <defs>
  <style type="text/css">*{stroke-linejoin: round; stroke-linecap: butt}</style>
 </defs>
 <g id="figure_1">
  <g id="patch_1">
   <path d="M 0 338.4 
L 392.661683 338.4 
L 392.661683 0 
L 0 0 
z
" style="fill: #ffffff"/>
  </g>
  <g id="axes_1">
   <g id="patch_2">
    <path d="M 7.2 331.2 
L 385.461683 331.2 
L 385.461683 7.2 
L 7.2 7.2 
z
" style="fill: #ffffff"/>
   </g>
   <g id="PathCollection_1">
    <path d="M 378.18742 246.769932 
C 379.125054 246.769932 380.024412 246.397406 380.68742 245.734398 
C 381.350427 245.07139 381.722953 244.172032 381.722953 243.234398 
C 381.722953 242.296763 381.350427 241.397406 380.68742 240.734398 
C 380.024412 240.07139 379.125054 239.698864 378.18742 239.698864 
C 377.249785 239.698864 376.350427 240.07139 375.68742 240.734398 
C 375.024412 241.397406 374.651886 242.296763 374.651886 243.234398 
C 374.651886 244.172032 375.024412 245.07139 375.68742 245.734398 
C 376.350427 246.397406 377.249785 246.769932 378.18742 246.769932 
z
" clip-path="url(#pb417198e41)"/>
   </g>
   <g id="PathCollection_2">
    <path d="M 72.638497 323.813893 
C 73.576132 323.813893 74.47549 323.441367 75.138497 322.77836 
C 75.801505 322.115352 76.174031 321.215994 76.174031 320.27836 
C 76.174031 319.340725 75.801505 318.441367 75.138497 317.77836 
C 74.47549 317.115352 73.576132 316.742826 72.638497 316.742826 
C 71.700863 316.742826 70.801505 317.115352 70.138497 317.77836 
C 69.47549 318.441367 69.102963 319.340725 69.102963 320.27836 
C 69.102963 321.215994 69.47549 322.115352 70.138497 322.77836 
C 70.801505 323.441367 71.700863 323.813893 72.638497 323.813893 
z
" clip-path="url(#pb417198e41)"/>
   </g>
   <g id="matplotlib.axis_1"/>
   <g id="matplotlib.axis_2"/>
   <g id="line2d_1">
    <path d="M 378.18742 243.234398 
L 346.62118 204.222244 
L 323.40546 175.683526 
L 306.290393 155.027406 
L 291.776022 137.920505 
L 280.856825 125.374434 
L 270.366193 113.635421 
L 261.512359 104.003107 
L 251.304343 93.250537 
L 239.906066 81.745871 
L 231.215334 73.370083 
L 221.360121 64.330604 
L 212.300667 56.491055 
L 206.980306 52.113486 
L 199.590918 46.330615 
L 192.535739 41.151555 
L 183.879911 35.287005 
L 180.667965 33.255983 
L 173.54067 29.046088 
L 167.770658 25.95258 
L 161.522136 22.938869 
L 156.810153 20.909572 
L 151.653357 18.940618 
L 144.763157 16.742741 
L 139.512169 15.418993 
L 135.277069 14.584698 
L 129.208787 13.771682 
L 122.81047 13.430969 
L 118.747543 13.506289 
L 115.672161 13.721514 
L 110.127235 14.470875 
L 107.677081 14.956547 
L 103.641148 15.973236 
L 100.858911 16.83726 
L 97.004621 18.264457 
L 92.860768 20.111847 
L 90.002092 21.585008 
L 85.97069 23.953316 
L 82.446175 26.317739 
L 79.076928 28.8496 
L 74.433933 32.802827 
L 71.076047 36.020642 
L 69.398213 37.748396 
L 65.058023 42.612623 
L 61.592091 46.93506 
L 57.882952 52.031724 
L 53.967287 57.99252 
L 51.065049 62.834516 
L 49.816906 65.037163 
L 46.036702 72.189892 
L 42.954803 78.612507 
L 40.771177 83.525162 
L 37.60065 91.264251 
L 34.810275 98.757055 
L 32.599642 105.222595 
L 29.593349 114.913946 
L 27.613564 121.978907 
L 25.631524 129.724472 
L 23.320509 139.832302 
L 21.505931 148.845695 
L 19.824225 158.385114 
L 18.221325 169.057775 
L 17.144707 177.595607 
L 16.22397 186.389151 
L 15.523593 194.771052 
L 14.886848 205.400685 
L 14.559685 215.000974 
L 14.474263 223.095117 
L 14.581813 231.575163 
L 14.934438 240.620489 
L 15.358699 247.209552 
L 15.971309 254.1376 
L 16.85149 261.669026 
L 17.721947 267.607621 
L 18.763643 273.518097 
L 20.084763 279.771961 
L 21.901153 286.842421 
L 23.45838 291.90669 
L 25.343992 297.129812 
L 27.612812 302.398876 
L 29.22582 305.605077 
L 31.005183 308.709991 
L 32.124153 310.458835 
L 33.667779 312.641413 
L 36.311894 315.83217 
L 38.420667 317.942667 
L 40.592337 319.763186 
L 41.936832 320.727479 
L 44.069807 322.023846 
L 45.705198 322.838009 
L 47.461361 323.551453 
L 49.201203 324.104704 
L 50.745939 324.475611 
L 52.615288 324.782076 
L 55.442849 324.969231 
L 58.229166 324.85274 
L 60.819157 324.497513 
L 64.012689 323.757016 
L 67.01403 322.779107 
L 71.144767 321.02282 
L 72.638497 320.27836 
L 72.638497 320.27836 
" clip-path="url(#pb417198e41)" style="fill: none; stroke: #000000; stroke-linecap: square"/>
   </g>
   <g id="patch_3">
    <path d="M 99.881098 17.1736 
Q 99.983489 17.137666 97.975972 17.8422 
" clip-path="url(#pb417198e41)" style="fill: none; stroke: #000000; stroke-width: 2; stroke-linecap: round"/>
    <path d="M 86.884445 16.435778 
L 97.975972 17.8422 
L 90.195918 25.871569 
L 86.884445 16.435778 
z
" clip-path="url(#pb417198e41)" style="stroke: #000000; stroke-width: 2; stroke-linecap: round"/>
   </g>
   <g id="text_1">
    <g clip-path="url(#pb417198e41)">
     <!-- $P$ -->
     <g transform="translate(361.136442 272.447779) scale(0.25 -0.25)">
      <defs>
       <path id="Cmmi10-50" d="M 313 0 
Q 250 0 250 84 
Q 253 100 262 139 
Q 272 178 289 201 
Q 306 225 331 225 
Q 722 225 878 269 
Q 959 297 997 441 
L 1875 3956 
Q 1888 4019 1888 4044 
Q 1888 4113 1813 4122 
Q 1691 4147 1350 4147 
Q 1288 4147 1288 4231 
Q 1291 4247 1300 4286 
Q 1309 4325 1326 4348 
Q 1344 4372 1369 4372 
L 3578 4372 
Q 3881 4372 4165 4264 
Q 4450 4156 4631 3934 
Q 4813 3713 4813 3397 
Q 4813 2991 4527 2672 
Q 4241 2353 3814 2175 
Q 3388 1997 2988 1997 
L 1947 1997 
L 1556 416 
Q 1544 353 1544 325 
Q 1544 300 1551 283 
Q 1559 266 1573 261 
Q 1588 256 1619 250 
Q 1741 225 2081 225 
Q 2144 225 2144 141 
Q 2122 50 2109 25 
Q 2097 0 2034 0 
L 313 0 
z
M 1978 2188 
L 2875 2188 
Q 3497 2188 3822 2522 
Q 3988 2688 4092 3000 
Q 4197 3313 4197 3566 
Q 4197 3881 3956 4014 
Q 3716 4147 3359 4147 
L 2747 4147 
Q 2572 4147 2515 4117 
Q 2459 4088 2413 3928 
L 1978 2188 
z
" transform="scale(0.015625)"/>
      </defs>
      <use xlink:href="#Cmmi10-50" transform="translate(0 0.6875)"/>
     </g>
    </g>
   </g>
   <g id="text_2">
    <g clip-path="url(#pb417198e41)">
     <!-- $Q$ -->
     <g transform="translate(84.953441 322.713808) scale(0.25 -0.25)">
      <defs>
       <path id="Cmmi10-51" d="M 1947 -141 
Q 1466 -141 1094 79 
Q 722 300 520 692 
Q 319 1084 319 1563 
Q 319 2259 714 2950 
Q 1109 3641 1756 4077 
Q 2403 4513 3109 4513 
Q 3475 4513 3778 4381 
Q 4081 4250 4290 4017 
Q 4500 3784 4614 3471 
Q 4728 3159 4728 2791 
Q 4728 2366 4581 1936 
Q 4434 1506 4171 1136 
Q 3909 766 3559 484 
Q 3209 203 2809 38 
Q 2850 -256 2934 -425 
Q 3019 -594 3256 -594 
Q 3506 -594 3726 -412 
Q 3947 -231 4006 13 
Q 4019 72 4078 72 
Q 4147 72 4147 -13 
Q 4100 -219 4008 -430 
Q 3916 -641 3786 -823 
Q 3656 -1006 3478 -1123 
Q 3300 -1241 3084 -1241 
Q 2547 -1241 2547 -550 
Q 2547 -509 2562 -332 
Q 2578 -156 2578 -44 
Q 2269 -141 1947 -141 
z
M 1709 300 
Q 1709 44 1991 44 
Q 2275 44 2591 184 
L 2591 244 
Q 2591 503 2509 648 
Q 2428 794 2194 794 
Q 2078 794 1964 723 
Q 1850 653 1779 539 
Q 1709 425 1709 300 
z
M 1544 288 
Q 1544 456 1637 612 
Q 1731 769 1881 864 
Q 2031 959 2203 959 
Q 2481 959 2607 771 
Q 2734 584 2778 281 
Q 3188 525 3500 978 
Q 3813 1431 3977 1973 
Q 4141 2516 4141 3003 
Q 4141 3356 4023 3656 
Q 3906 3956 3664 4140 
Q 3422 4325 3066 4325 
Q 2722 4325 2403 4156 
Q 2084 3988 1813 3706 
Q 1550 3434 1342 3032 
Q 1134 2631 1021 2193 
Q 909 1756 909 1356 
Q 909 947 1068 612 
Q 1228 278 1569 128 
Q 1544 194 1544 288 
z
" transform="scale(0.015625)"/>
      </defs>
      <use xlink:href="#Cmmi10-51" transform="translate(0 0.484375)"/>
     </g>
    </g>
   </g>
  </g>
 </g>
 <defs>
  <clipPath id="pb417198e41">
   <rect x="7.2" y="7.2" width="378.261683" height="324"/>
  </clipPath>
 </defs>
</svg>
