<?xml version="1.0" encoding="utf-8" standalone="no"?>
<!DOCTYPE svg PUBLIC "-//W3C//DTD SVG 1.1//EN"
  "http://www.w3.org/Graphics/SVG/1.1/DTD/svg11.dtd">
<svg xmlns:xlink="http://www.w3.org/1999/xlink" width="392.653055pt" height="338.4pt" viewBox="0 0 392.653055 338.4" xmlns="http://www.w3.org/2000/svg" version="1.1">
 <metadata>
  <rdf:RDF xmlns:dc="http://purl.org/dc/elements/1.1/" xmlns:cc="http://creativecommons.org/ns#" xmlns:rdf="http://www.w3.org/1999/02/22-rdf-syntax-ns#">
   <cc:Work>
    <dc:type rdf:resource="http://purl.org/dc/dcmitype/StillImage"/>
    <dc:date>2023-07-26T15:39:24.812962</dc:date>
    <dc:format>image/svg+xml</dc:format>
    <dc:creator>
     <cc:Agent>
      <dc:title>Matplotlib v3.6.2, https://matplotlib.org/</dc:title>
     </cc:Agent>
    </dc:creator>
   </cc:Work>
  </rdf:RDF>
 </metadata>
 <defs>
  <style type="text/css">*{stroke-linejoin: round; stroke-linecap: butt}</style>
 </defs>
 <g id="figure_1">
  <g id="patch_1">
   <path d="M 0 338.4 
L 392.653055 338.4 
L 392.653055 0 
L 0 0 
z
" style="fill: #ffffff"/>
  </g>
  <g id="axes_1">
   <g id="patch_2">
    <path d="M 7.2 331.2 
L 385.453055 331.2 
L 385.453055 7.2 
L 7.2 7.2 
z
" style="fill: #ffffff"/>
   </g>
   <g id="PathCollection_1">
    <path d="M 378.178958 246.771052 
C 379.116592 246.771052 380.01595 246.398525 380.678958 245.735518 
C 381.341965 245.07251 381.714491 244.173152 381.714491 243.235518 
C 381.714491 242.297883 381.341965 241.398525 380.678958 240.735518 
C 380.01595 240.07251 379.116592 239.699984 378.178958 239.699984 
C 377.241323 239.699984 376.341965 240.07251 375.678958 240.735518 
C 375.01595 241.398525 374.643424 242.297883 374.643424 243.235518 
C 374.643424 244.173152 375.01595 245.07251 375.678958 245.735518 
C 376.341965 246.398525 377.241323 246.771052 378.178958 246.771052 
z
" clip-path="url(#p9f7e22d28a)"/>
   </g>
   <g id="PathCollection_2">
    <path d="M 72.633056 323.814252 
C 73.57069 323.814252 74.470048 323.441725 75.133056 322.778718 
C 75.796064 322.11571 76.16859 321.216352 76.16859 320.278718 
C 76.16859 319.341083 75.796064 318.441725 75.133056 317.778718 
C 74.470048 317.11571 73.57069 316.743184 72.633056 316.743184 
C 71.695421 316.743184 70.796064 317.11571 70.133056 317.778718 
C 69.470048 318.441725 69.097522 319.341083 69.097522 320.278718 
C 69.097522 321.216352 69.470048 322.11571 70.133056 322.778718 
C 70.796064 323.441725 71.695421 323.814252 72.633056 323.814252 
z
" clip-path="url(#p9f7e22d28a)"/>
   </g>
   <g id="matplotlib.axis_1"/>
   <g id="matplotlib.axis_2"/>
   <g id="line2d_1">
    <path d="M 378.178958 243.235518 
L 347.302791 205.076707 
L 325.651693 178.435668 
L 309.287887 158.623166 
L 292.898355 139.237997 
L 280.576821 125.067677 
L 268.127854 111.185687 
L 259.681643 102.056021 
L 251.3532 93.311085 
L 243.203141 85.025432 
L 233.715116 75.751509 
L 225.665949 68.226457 
L 217.113311 60.605943 
L 211.278074 55.644906 
L 202.556514 48.617003 
L 197.462971 44.740355 
L 193.261389 41.676021 
L 186.594795 37.073603 
L 180.034241 32.872084 
L 173.925347 29.269411 
L 167.530649 25.83676 
L 161.10095 22.754927 
L 156.806804 20.914082 
L 150.455075 18.527572 
L 144.653338 16.716961 
L 138.199396 15.142251 
L 135.115875 14.5616 
L 129.912499 13.846133 
L 124.609184 13.47476 
L 120.019947 13.46074 
L 115.742293 13.717898 
L 109.838484 14.525392 
L 105.238692 15.539787 
L 100.740976 16.878343 
L 97.830447 17.936699 
L 94.365108 19.403327 
L 89.524325 21.847809 
L 87.788141 22.842424 
L 84.271343 25.057626 
L 79.6914 28.366323 
L 77.592939 30.051647 
L 74.763114 32.502286 
L 70.593545 36.506745 
L 66.482088 40.948754 
L 62.744693 45.448577 
L 58.816636 50.696079 
L 55.425207 55.694411 
L 51.890598 61.412288 
L 48.222323 67.956244 
L 45.146037 73.980425 
L 42.697652 79.166152 
L 40.417496 84.34214 
L 36.94598 92.950174 
L 34.033116 100.960569 
L 31.493793 108.643672 
L 29.252301 116.07357 
L 27.137216 123.757052 
L 25.040025 132.170386 
L 22.622727 143.1458 
L 21.308689 149.872954 
L 19.718346 159.006435 
L 18.282496 168.578451 
L 17.175697 177.287805 
L 16.049838 188.238185 
L 15.422648 196.11573 
L 14.821668 206.749459 
L 14.532642 216.110142 
L 14.489441 226.66928 
L 14.646265 233.991307 
L 14.978838 241.520704 
L 15.654651 250.864442 
L 16.367476 257.822386 
L 17.610571 266.939507 
L 18.406175 271.634306 
L 19.688342 278.036035 
L 20.970985 283.425003 
L 22.818816 289.936622 
L 24.314956 294.402774 
L 26.282881 299.441931 
L 28.155253 303.533063 
L 30.669079 308.164063 
L 32.556408 311.103632 
L 35.098804 314.455119 
L 37.378476 316.949803 
L 38.325911 317.860474 
L 39.989282 319.295755 
L 43.017596 321.422289 
L 45.700018 322.83834 
L 48.65798 323.949663 
L 50.876618 324.503362 
L 53.88781 324.906785 
L 55.408706 324.969231 
L 58.676013 324.807653 
L 62.639161 324.113887 
L 65.501261 323.303395 
L 69.510203 321.770164 
L 72.633056 320.278718 
L 72.633056 320.278718 
" clip-path="url(#p9f7e22d28a)" style="fill: none; stroke: #000000; stroke-linecap: square"/>
   </g>
   <g id="patch_3">
    <path d="M 99.875387 17.176954 
Q 99.977777 17.141021 97.97026 17.845556 
" clip-path="url(#p9f7e22d28a)" style="fill: none; stroke: #000000; stroke-width: 2; stroke-linecap: round"/>
    <path d="M 86.878732 16.439134 
L 97.97026 17.845556 
L 90.190206 25.874924 
L 86.878732 16.439134 
z
" clip-path="url(#p9f7e22d28a)" style="stroke: #000000; stroke-width: 2; stroke-linecap: round"/>
   </g>
   <g id="text_1">
    <g clip-path="url(#p9f7e22d28a)">
     <!-- $P$ -->
     <g transform="translate(361.128068 272.448678) scale(0.25 -0.25)">
      <defs>
       <path id="Cmmi10-50" d="M 313 0 
Q 250 0 250 84 
Q 253 100 262 139 
Q 272 178 289 201 
Q 306 225 331 225 
Q 722 225 878 269 
Q 959 297 997 441 
L 1875 3956 
Q 1888 4019 1888 4044 
Q 1888 4113 1813 4122 
Q 1691 4147 1350 4147 
Q 1288 4147 1288 4231 
Q 1291 4247 1300 4286 
Q 1309 4325 1326 4348 
Q 1344 4372 1369 4372 
L 3578 4372 
Q 3881 4372 4165 4264 
Q 4450 4156 4631 3934 
Q 4813 3713 4813 3397 
Q 4813 2991 4527 2672 
Q 4241 2353 3814 2175 
Q 3388 1997 2988 1997 
L 1947 1997 
L 1556 416 
Q 1544 353 1544 325 
Q 1544 300 1551 283 
Q 1559 266 1573 261 
Q 1588 256 1619 250 
Q 1741 225 2081 225 
Q 2144 225 2144 141 
Q 2122 50 2109 25 
Q 2097 0 2034 0 
L 313 0 
z
M 1978 2188 
L 2875 2188 
Q 3497 2188 3822 2522 
Q 3988 2688 4092 3000 
Q 4197 3313 4197 3566 
Q 4197 3881 3956 4014 
Q 3716 4147 3359 4147 
L 2747 4147 
Q 2572 4147 2515 4117 
Q 2459 4088 2413 3928 
L 1978 2188 
z
" transform="scale(0.015625)"/>
      </defs>
      <use xlink:href="#Cmmi10-50" transform="translate(0 0.6875)"/>
     </g>
    </g>
   </g>
   <g id="text_2">
    <g clip-path="url(#p9f7e22d28a)">
     <!-- $Q$ -->
     <g transform="translate(84.947779 322.714211) scale(0.25 -0.25)">
      <defs>
       <path id="Cmmi10-51" d="M 1947 -141 
Q 1466 -141 1094 79 
Q 722 300 520 692 
Q 319 1084 319 1563 
Q 319 2259 714 2950 
Q 1109 3641 1756 4077 
Q 2403 4513 3109 4513 
Q 3475 4513 3778 4381 
Q 4081 4250 4290 4017 
Q 4500 3784 4614 3471 
Q 4728 3159 4728 2791 
Q 4728 2366 4581 1936 
Q 4434 1506 4171 1136 
Q 3909 766 3559 484 
Q 3209 203 2809 38 
Q 2850 -256 2934 -425 
Q 3019 -594 3256 -594 
Q 3506 -594 3726 -412 
Q 3947 -231 4006 13 
Q 4019 72 4078 72 
Q 4147 72 4147 -13 
Q 4100 -219 4008 -430 
Q 3916 -641 3786 -823 
Q 3656 -1006 3478 -1123 
Q 3300 -1241 3084 -1241 
Q 2547 -1241 2547 -550 
Q 2547 -509 2562 -332 
Q 2578 -156 2578 -44 
Q 2269 -141 1947 -141 
z
M 1709 300 
Q 1709 44 1991 44 
Q 2275 44 2591 184 
L 2591 244 
Q 2591 503 2509 648 
Q 2428 794 2194 794 
Q 2078 794 1964 723 
Q 1850 653 1779 539 
Q 1709 425 1709 300 
z
M 1544 288 
Q 1544 456 1637 612 
Q 1731 769 1881 864 
Q 2031 959 2203 959 
Q 2481 959 2607 771 
Q 2734 584 2778 281 
Q 3188 525 3500 978 
Q 3813 1431 3977 1973 
Q 4141 2516 4141 3003 
Q 4141 3356 4023 3656 
Q 3906 3956 3664 4140 
Q 3422 4325 3066 4325 
Q 2722 4325 2403 4156 
Q 2084 3988 1813 3706 
Q 1550 3434 1342 3032 
Q 1134 2631 1021 2193 
Q 909 1756 909 1356 
Q 909 947 1068 612 
Q 1228 278 1569 128 
Q 1544 194 1544 288 
z
" transform="scale(0.015625)"/>
      </defs>
      <use xlink:href="#Cmmi10-51" transform="translate(0 0.484375)"/>
     </g>
    </g>
   </g>
  </g>
 </g>
 <defs>
  <clipPath id="p9f7e22d28a">
   <rect x="7.2" y="7.2" width="378.253055" height="324"/>
  </clipPath>
 </defs>
</svg>
