<?xml version="1.0" encoding="utf-8" standalone="no"?>
<!DOCTYPE svg PUBLIC "-//W3C//DTD SVG 1.1//EN"
  "http://www.w3.org/Graphics/SVG/1.1/DTD/svg11.dtd">
<svg xmlns:xlink="http://www.w3.org/1999/xlink" width="392.660739pt" height="338.4pt" viewBox="0 0 392.660739 338.4" xmlns="http://www.w3.org/2000/svg" version="1.1">
 <metadata>
  <rdf:RDF xmlns:dc="http://purl.org/dc/elements/1.1/" xmlns:cc="http://creativecommons.org/ns#" xmlns:rdf="http://www.w3.org/1999/02/22-rdf-syntax-ns#">
   <cc:Work>
    <dc:type rdf:resource="http://purl.org/dc/dcmitype/StillImage"/>
    <dc:date>2023-08-04T09:02:17.786182</dc:date>
    <dc:format>image/svg+xml</dc:format>
    <dc:creator>
     <cc:Agent>
      <dc:title>Matplotlib v3.6.2, https://matplotlib.org/</dc:title>
     </cc:Agent>
    </dc:creator>
   </cc:Work>
  </rdf:RDF>
 </metadata>
 <defs>
  <style type="text/css">*{stroke-linejoin: round; stroke-linecap: butt}</style>
 </defs>
 <g id="figure_1">
  <g id="patch_1">
   <path d="M 0 338.4 
L 392.660739 338.4 
L 392.660739 0 
L 0 0 
z
" style="fill: #ffffff"/>
  </g>
  <g id="axes_1">
   <g id="patch_2">
    <path d="M 7.2 331.2 
L 385.460739 331.2 
L 385.460739 7.2 
L 7.2 7.2 
z
" style="fill: #ffffff"/>
   </g>
   <g id="PathCollection_1">
    <path d="M 378.186494 246.771624 
C 379.124128 246.771624 380.023486 246.399098 380.686494 245.73609 
C 381.349501 245.073082 381.722028 244.173724 381.722028 243.23609 
C 381.722028 242.298455 381.349501 241.399098 380.686494 240.73609 
C 380.023486 240.073082 379.124128 239.700556 378.186494 239.700556 
C 377.248859 239.700556 376.349501 240.073082 375.686494 240.73609 
C 375.023486 241.399098 374.65096 242.298455 374.65096 243.23609 
C 374.65096 244.173724 375.023486 245.073082 375.686494 245.73609 
C 376.349501 246.399098 377.248859 246.771624 378.186494 246.771624 
z
" clip-path="url(#p4967638444)"/>
   </g>
   <g id="PathCollection_2">
    <path d="M 137.7214 100.665286 
C 138.659034 100.665286 139.558392 100.29276 140.2214 99.629752 
C 140.884408 98.966745 141.256934 98.067387 141.256934 97.129752 
C 141.256934 96.192118 140.884408 95.29276 140.2214 94.629752 
C 139.558392 93.966745 138.659034 93.594218 137.7214 93.594218 
C 136.783765 93.594218 135.884408 93.966745 135.2214 94.629752 
C 134.558392 95.29276 134.185866 96.192118 134.185866 97.129752 
C 134.185866 98.067387 134.558392 98.966745 135.2214 99.629752 
C 135.884408 100.29276 136.783765 100.665286 137.7214 100.665286 
z
" clip-path="url(#p4967638444)"/>
   </g>
   <g id="matplotlib.axis_1"/>
   <g id="matplotlib.axis_2"/>
   <g id="line2d_1">
    <path d="M 378.186494 243.23609 
L 345.945352 203.38951 
L 325.040381 177.680582 
L 309.187228 158.494048 
L 295.281873 142.013958 
L 282.310185 127.028863 
L 270.303558 113.569003 
L 261.548927 104.044932 
L 251.766187 93.730789 
L 242.562219 84.378673 
L 232.786126 74.859334 
L 224.382013 67.050203 
L 218.670732 61.956741 
L 210.924989 55.344747 
L 204.275799 49.957991 
L 194.820187 42.79253 
L 188.610745 38.425096 
L 187.7471 37.83995 
L 180.736771 33.300386 
L 177.434259 31.295901 
L 173.066378 28.782555 
L 169.056951 26.618502 
L 163.392808 23.804722 
L 158.236689 21.502523 
L 152.503853 19.247903 
L 148.031827 17.723029 
L 142.461925 16.125044 
L 137.824886 15.061881 
L 132.355873 14.13639 
L 127.35905 13.617701 
L 122.752686 13.430769 
L 118.959837 13.496757 
L 113.671249 13.937307 
L 112.091512 14.150851 
L 108.926539 14.696566 
L 104.842887 15.64137 
L 100.662979 16.902759 
L 97.627315 18.014626 
L 94.475168 19.351617 
L 90.862587 21.122992 
L 87.853866 22.80243 
L 83.212707 25.777895 
L 80.584021 27.681669 
L 75.875513 31.513649 
L 72.386201 34.725611 
L 69.762969 37.363382 
L 66.771525 40.619467 
L 63.219521 44.851778 
L 60.218883 48.759683 
L 57.527743 52.543434 
L 55.06009 56.261561 
L 51.601662 61.906055 
L 48.040097 68.301022 
L 45.500532 73.261835 
L 41.821396 81.116814 
L 38.443907 89.124057 
L 35.294115 97.399972 
L 33.392317 102.837593 
L 30.30875 112.493878 
L 28.385287 119.142479 
L 25.648803 129.642284 
L 22.98037 141.426185 
L 20.918318 152.011618 
L 19.52428 160.225423 
L 17.920028 171.285753 
L 16.819957 180.469331 
L 15.876838 190.250391 
L 15.239454 198.902266 
L 14.704934 209.777741 
L 14.474245 221.395745 
L 14.584013 231.784757 
L 14.81036 238.170208 
L 15.37823 247.507618 
L 16.113649 255.533906 
L 17.24013 264.484101 
L 18.237062 270.68161 
L 19.926339 279.095129 
L 21.162632 284.155887 
L 22.470811 288.798299 
L 24.221805 294.138193 
L 26.032337 298.842678 
L 28.016381 303.2475 
L 30.391503 307.693395 
L 32.061383 310.371154 
L 33.525325 312.456591 
L 36.093944 315.598523 
L 38.774778 318.267636 
L 41.570123 320.480376 
L 42.971731 321.394872 
L 44.480767 322.246256 
L 46.736772 323.279874 
L 48.481091 323.896673 
L 50.591105 324.446127 
L 53.78679 324.901064 
L 56.14014 324.969231 
L 59.775019 324.669944 
L 62.977053 324.033695 
L 66.550889 322.948169 
L 69.943856 321.581086 
L 72.635763 320.280508 
L 72.635763 320.280508 
" clip-path="url(#p4967638444)" style="fill: none; stroke: #000000; stroke-linecap: square"/>
   </g>
   <g id="line2d_2">
    <path d="M 72.635763 320.280508 
L 77.936957 315.392024 
L 82.824718 310.530953 
L 87.350754 305.662652 
L 91.033251 301.386316 
L 95.108519 296.249681 
L 98.357362 291.780945 
L 101.694855 286.757206 
L 104.684905 281.785174 
L 106.686891 278.142291 
L 109.429793 272.625342 
L 111.050164 269.003245 
L 113.272648 263.44918 
L 114.790559 259.139344 
L 116.622542 253.142821 
L 118.04751 247.599405 
L 119.289886 241.779573 
L 120.242609 236.308667 
L 121.135918 229.779431 
L 121.846401 222.66224 
L 122.347908 215.133743 
L 122.670251 206.668358 
L 122.818828 197.121812 
L 123.124402 162.654636 
L 123.526916 154.440344 
L 124.109397 147.14182 
L 124.78627 141.113332 
L 125.787643 134.380385 
L 126.956893 128.24478 
L 128.085523 123.349074 
L 129.255172 118.970424 
L 130.717962 114.189387 
L 132.236679 109.81712 
L 134.442567 104.238539 
L 136.52286 99.594252 
L 137.7214 97.129752 
L 137.7214 97.129752 
" clip-path="url(#p4967638444)" style="fill: none; stroke: #000000; stroke-linecap: square"/>
   </g>
   <g id="patch_3">
    <path d="M 100.083307 17.102086 
Q 99.980916 17.13802 101.988432 16.433486 
" clip-path="url(#p4967638444)" style="fill: none; stroke: #000000; stroke-width: 2; stroke-linecap: round"/>
    <path d="M 113.079959 17.839908 
L 101.988432 16.433486 
L 109.768486 8.404117 
L 113.079959 17.839908 
z
" clip-path="url(#p4967638444)" style="stroke: #000000; stroke-width: 2; stroke-linecap: round"/>
   </g>
   <g id="patch_4">
    <path d="M 122.844683 186.390054 
Q 122.84469 185.943753 122.84466 187.733519 
" clip-path="url(#p4967638444)" style="fill: none; stroke: #000000; stroke-width: 2; stroke-linecap: round"/>
    <path d="M 117.844494 197.733436 
L 122.84466 187.733519 
L 127.844494 197.733603 
L 117.844494 197.733436 
z
" clip-path="url(#p4967638444)" style="stroke: #000000; stroke-width: 2; stroke-linecap: round"/>
   </g>
   <g id="text_1">
    <g clip-path="url(#p4967638444)">
     <!-- $P$ -->
     <g transform="translate(361.135463 272.449603) scale(0.25 -0.25)">
      <defs>
       <path id="Cmmi10-50" d="M 313 0 
Q 250 0 250 84 
Q 253 100 262 139 
Q 272 178 289 201 
Q 306 225 331 225 
Q 722 225 878 269 
Q 959 297 997 441 
L 1875 3956 
Q 1888 4019 1888 4044 
Q 1888 4113 1813 4122 
Q 1691 4147 1350 4147 
Q 1288 4147 1288 4231 
Q 1291 4247 1300 4286 
Q 1309 4325 1326 4348 
Q 1344 4372 1369 4372 
L 3578 4372 
Q 3881 4372 4165 4264 
Q 4450 4156 4631 3934 
Q 4813 3713 4813 3397 
Q 4813 2991 4527 2672 
Q 4241 2353 3814 2175 
Q 3388 1997 2988 1997 
L 1947 1997 
L 1556 416 
Q 1544 353 1544 325 
Q 1544 300 1551 283 
Q 1559 266 1573 261 
Q 1588 256 1619 250 
Q 1741 225 2081 225 
Q 2144 225 2144 141 
Q 2122 50 2109 25 
Q 2097 0 2034 0 
L 313 0 
z
M 1978 2188 
L 2875 2188 
Q 3497 2188 3822 2522 
Q 3988 2688 4092 3000 
Q 4197 3313 4197 3566 
Q 4197 3881 3956 4014 
Q 3716 4147 3359 4147 
L 2747 4147 
Q 2572 4147 2515 4117 
Q 2459 4088 2413 3928 
L 1978 2188 
z
" transform="scale(0.015625)"/>
      </defs>
      <use xlink:href="#Cmmi10-50" transform="translate(0 0.6875)"/>
     </g>
    </g>
   </g>
   <g id="text_2">
    <g clip-path="url(#p4967638444)">
     <!-- $R$ -->
     <g transform="translate(150.536475 81.713114) scale(0.25 -0.25)">
      <defs>
       <path id="Cmmi10-52" d="M 313 0 
Q 250 0 250 84 
Q 253 100 262 139 
Q 272 178 289 201 
Q 306 225 331 225 
Q 722 225 878 269 
Q 959 297 997 441 
L 1875 3956 
Q 1888 4019 1888 4044 
Q 1888 4113 1813 4122 
Q 1691 4147 1350 4147 
Q 1288 4147 1288 4231 
Q 1291 4247 1300 4286 
Q 1309 4325 1326 4348 
Q 1344 4372 1369 4372 
L 3309 4372 
Q 3541 4372 3791 4319 
Q 4041 4266 4250 4152 
Q 4459 4038 4593 3848 
Q 4728 3659 4728 3406 
Q 4728 3084 4515 2831 
Q 4303 2578 3978 2408 
Q 3653 2238 3347 2169 
Q 3597 2078 3756 1879 
Q 3916 1681 3916 1422 
Q 3916 1388 3914 1370 
Q 3913 1353 3909 1331 
L 3859 763 
Q 3853 638 3847 550 
Q 3841 463 3841 409 
Q 3841 234 3892 129 
Q 3944 25 4097 25 
Q 4297 25 4448 211 
Q 4600 397 4647 616 
Q 4675 672 4709 672 
L 4769 672 
Q 4831 672 4831 588 
Q 4784 403 4682 237 
Q 4581 72 4426 -34 
Q 4272 -141 4091 -141 
Q 3716 -141 3452 26 
Q 3188 194 3188 550 
Q 3188 684 3213 788 
L 3353 1356 
Q 3378 1434 3378 1538 
Q 3378 1803 3198 1954 
Q 3019 2106 2747 2106 
L 1959 2106 
L 1538 416 
Q 1522 363 1522 325 
Q 1522 259 1600 250 
Q 1722 225 2059 225 
Q 2125 225 2125 141 
Q 2103 50 2090 25 
Q 2078 0 2016 0 
L 313 0 
z
M 1997 2272 
L 2706 2272 
Q 3403 2272 3756 2625 
Q 3919 2788 4014 3039 
Q 4109 3291 4109 3541 
Q 4109 3778 3970 3912 
Q 3831 4047 3626 4097 
Q 3422 4147 3175 4147 
L 2747 4147 
Q 2572 4147 2515 4117 
Q 2459 4088 2413 3928 
L 1997 2272 
z
" transform="scale(0.015625)"/>
      </defs>
      <use xlink:href="#Cmmi10-52" transform="translate(0 0.6875)"/>
     </g>
    </g>
   </g>
  </g>
 </g>
 <defs>
  <clipPath id="p4967638444">
   <rect x="7.2" y="7.2" width="378.260739" height="324"/>
  </clipPath>
 </defs>
</svg>
