<?xml version="1.0" encoding="utf-8" standalone="no"?>
<!DOCTYPE svg PUBLIC "-//W3C//DTD SVG 1.1//EN"
  "http://www.w3.org/Graphics/SVG/1.1/DTD/svg11.dtd">
<svg xmlns:xlink="http://www.w3.org/1999/xlink" width="392.660677pt" height="338.4pt" viewBox="0 0 392.660677 338.4" xmlns="http://www.w3.org/2000/svg" version="1.1">
 <metadata>
  <rdf:RDF xmlns:dc="http://purl.org/dc/elements/1.1/" xmlns:cc="http://creativecommons.org/ns#" xmlns:rdf="http://www.w3.org/1999/02/22-rdf-syntax-ns#">
   <cc:Work>
    <dc:type rdf:resource="http://purl.org/dc/dcmitype/StillImage"/>
    <dc:date>2025-02-05T11:13:43.597614</dc:date>
    <dc:format>image/svg+xml</dc:format>
    <dc:creator>
     <cc:Agent>
      <dc:title>Matplotlib v3.6.2, https://matplotlib.org/</dc:title>
     </cc:Agent>
    </dc:creator>
   </cc:Work>
  </rdf:RDF>
 </metadata>
 <defs>
  <style type="text/css">*{stroke-linejoin: round; stroke-linecap: butt}</style>
 </defs>
 <g id="figure_1">
  <g id="patch_1">
   <path d="M 0 338.4 
L 392.660677 338.4 
L 392.660677 0 
L 0 0 
z
" style="fill: #ffffff"/>
  </g>
  <g id="axes_1">
   <g id="patch_2">
    <path d="M 7.2 331.2 
L 385.460677 331.2 
L 385.460677 7.2 
L 7.2 7.2 
z
" style="fill: #ffffff"/>
   </g>
   <g id="PathCollection_1">
    <path d="M 378.186433 246.775317 
C 379.124067 246.775317 380.023425 246.402791 380.686433 245.739783 
C 381.349441 245.076776 381.721967 244.177418 381.721967 243.239783 
C 381.721967 242.302149 381.349441 241.402791 380.686433 240.739783 
C 380.023425 240.076776 379.124067 239.704249 378.186433 239.704249 
C 377.248798 239.704249 376.349441 240.076776 375.686433 240.739783 
C 375.023425 241.402791 374.650899 242.302149 374.650899 243.239783 
C 374.650899 244.177418 375.023425 245.076776 375.686433 245.739783 
C 376.349441 246.402791 377.248798 246.775317 378.186433 246.775317 
z
" clip-path="url(#p44d3a332ea)"/>
   </g>
   <g id="PathCollection_2">
    <path d="M 137.720638 100.668554 
C 138.658272 100.668554 139.55763 100.296028 140.220638 99.63302 
C 140.883646 98.970012 141.256172 98.070654 141.256172 97.13302 
C 141.256172 96.195385 140.883646 95.296028 140.220638 94.63302 
C 139.55763 93.970012 138.658272 93.597486 137.720638 93.597486 
C 136.783003 93.597486 135.883646 93.970012 135.220638 94.63302 
C 134.55763 95.296028 134.185104 96.195385 134.185104 97.13302 
C 134.185104 98.070654 134.55763 98.970012 135.220638 99.63302 
C 135.883646 100.296028 136.783003 100.668554 137.720638 100.668554 
z
" clip-path="url(#p44d3a332ea)"/>
   </g>
   <g id="matplotlib.axis_1"/>
   <g id="matplotlib.axis_2"/>
   <g id="line2d_1">
    <path d="M 378.186433 243.239783 
L 339.810069 195.816816 
L 318.377451 169.57757 
L 304.300711 152.663594 
L 293.682526 140.148038 
L 281.222199 125.795565 
L 270.78271 114.101414 
L 262.135494 104.67845 
L 254.173501 96.238359 
L 245.086125 86.910871 
L 235.262695 77.231844 
L 228.369151 70.71353 
L 220.271586 63.369921 
L 213.228103 57.277529 
L 205.412452 50.862706 
L 200.492065 47.022284 
L 192.442173 41.090678 
L 187.138515 37.434467 
L 182.41161 34.353764 
L 176.728384 30.882428 
L 173.630394 29.101525 
L 168.928002 26.554645 
L 163.389459 23.806523 
L 157.454346 21.178905 
L 154.0162 19.81389 
L 150.027485 18.38081 
L 143.884357 16.503716 
L 137.82739 15.065569 
L 132.27521 14.128622 
L 127.045148 13.599004 
L 122.01431 13.430769 
L 118.949123 13.50022 
L 115.886059 13.705081 
L 112.489766 14.096281 
L 108.321352 14.822059 
L 105.653454 15.43451 
L 102.487326 16.317374 
L 97.429073 18.09584 
L 93.189909 19.954566 
L 92.463217 20.308476 
L 87.283752 23.144822 
L 83.259223 25.748087 
L 80.271635 27.921207 
L 76.100983 31.319552 
L 71.250946 35.845087 
L 67.644695 39.642868 
L 63.488397 44.51875 
L 59.334994 49.974152 
L 55.172395 56.088532 
L 51.568387 61.964399 
L 47.795485 68.764916 
L 44.114272 76.124865 
L 41.567936 81.690559 
L 38.859394 88.094238 
L 36.218911 94.88135 
L 33.378793 102.877706 
L 30.630414 111.432171 
L 27.738957 121.502114 
L 25.60126 129.836265 
L 23.978505 136.80305 
L 22.252973 144.982371 
L 20.668706 153.406111 
L 19.195611 162.323398 
L 18.128151 169.717461 
L 16.642761 182.127452 
L 15.590127 193.825093 
L 15.020235 202.65333 
L 14.611876 212.708387 
L 14.474244 221.150661 
L 14.577811 231.588304 
L 14.981055 241.552301 
L 15.504869 249.114794 
L 16.429163 258.346197 
L 17.460293 265.970784 
L 18.674601 273.079621 
L 20.06777 279.722074 
L 21.543058 285.580991 
L 23.120313 290.890371 
L 24.366471 294.548779 
L 26.316613 299.524469 
L 27.970633 303.159683 
L 30.288571 307.52274 
L 32.363613 310.82623 
L 33.215122 312.039114 
L 36.234941 315.758651 
L 37.576367 317.150417 
L 39.652669 319.026199 
L 41.682067 320.562618 
L 44.536454 322.279603 
L 47.320291 323.507567 
L 49.123829 324.090398 
L 52.370869 324.757174 
L 55.082296 324.969231 
L 56.799318 324.954216 
L 59.520351 324.70983 
L 62.617258 324.125277 
L 66.040379 323.129799 
L 70.333328 321.407877 
L 72.634811 320.284426 
L 72.634811 320.284426 
" clip-path="url(#p44d3a332ea)" style="fill: none; stroke: #000000; stroke-linecap: square"/>
   </g>
   <g id="line2d_2">
    <path d="M 72.634811 320.284426 
L 77.525784 315.787553 
L 82.654466 310.709683 
L 87.270062 305.755827 
L 90.891856 301.559227 
L 94.950658 296.460392 
L 98.490995 291.591454 
L 101.59535 286.916813 
L 104.312742 282.434766 
L 106.896175 277.746594 
L 109.132108 273.260551 
L 111.332186 268.341239 
L 112.781012 264.748101 
L 114.799206 259.114542 
L 116.648422 253.050911 
L 117.995158 247.821509 
L 119.069078 242.903083 
L 120.018753 237.699724 
L 120.919137 231.539057 
L 121.59177 225.511047 
L 122.185133 217.972394 
L 122.578413 209.718809 
L 122.790528 200.056176 
L 122.843972 184.742789 
L 122.952468 169.078658 
L 123.213373 160.350438 
L 123.706414 151.846128 
L 124.319821 145.071699 
L 125.170521 138.302251 
L 126.031215 132.982321 
L 127.138905 127.398997 
L 128.083995 123.355378 
L 129.831924 117.00701 
L 131.211959 112.710894 
L 132.578136 108.901419 
L 134.682131 103.678247 
L 136.695943 99.231349 
L 137.720638 97.13302 
L 137.720638 97.13302 
" clip-path="url(#p44d3a332ea)" style="fill: none; stroke: #000000; stroke-linecap: square"/>
   </g>
   <g id="patch_3">
    <path d="M 100.082435 17.10512 
Q 99.980044 17.141054 101.98756 16.43652 
" clip-path="url(#p44d3a332ea)" style="fill: none; stroke: #000000; stroke-width: 2; stroke-linecap: round"/>
    <path d="M 113.079087 17.842942 
L 101.98756 16.43652 
L 109.767613 8.407151 
L 113.079087 17.842942 
z
" clip-path="url(#p44d3a332ea)" style="stroke: #000000; stroke-width: 2; stroke-linecap: round"/>
   </g>
   <g id="patch_4">
    <path d="M 122.843877 186.393582 
Q 122.843885 185.947279 122.843855 187.737045 
" clip-path="url(#p44d3a332ea)" style="fill: none; stroke: #000000; stroke-width: 2; stroke-linecap: round"/>
    <path d="M 117.843688 197.736961 
L 122.843855 187.737045 
L 127.843688 197.737128 
L 117.843688 197.736961 
z
" clip-path="url(#p44d3a332ea)" style="stroke: #000000; stroke-width: 2; stroke-linecap: round"/>
   </g>
   <g id="text_1">
    <g clip-path="url(#p44d3a332ea)">
     <!-- $P$ -->
     <g transform="translate(361.135377 272.453361) scale(0.25 -0.25)">
      <defs>
       <path id="Cmmi10-50" d="M 313 0 
Q 250 0 250 84 
Q 253 100 262 139 
Q 272 178 289 201 
Q 306 225 331 225 
Q 722 225 878 269 
Q 959 297 997 441 
L 1875 3956 
Q 1888 4019 1888 4044 
Q 1888 4113 1813 4122 
Q 1691 4147 1350 4147 
Q 1288 4147 1288 4231 
Q 1291 4247 1300 4286 
Q 1309 4325 1326 4348 
Q 1344 4372 1369 4372 
L 3578 4372 
Q 3881 4372 4165 4264 
Q 4450 4156 4631 3934 
Q 4813 3713 4813 3397 
Q 4813 2991 4527 2672 
Q 4241 2353 3814 2175 
Q 3388 1997 2988 1997 
L 1947 1997 
L 1556 416 
Q 1544 353 1544 325 
Q 1544 300 1551 283 
Q 1559 266 1573 261 
Q 1588 256 1619 250 
Q 1741 225 2081 225 
Q 2144 225 2144 141 
Q 2122 50 2109 25 
Q 2097 0 2034 0 
L 313 0 
z
M 1978 2188 
L 2875 2188 
Q 3497 2188 3822 2522 
Q 3988 2688 4092 3000 
Q 4197 3313 4197 3566 
Q 4197 3881 3956 4014 
Q 3716 4147 3359 4147 
L 2747 4147 
Q 2572 4147 2515 4117 
Q 2459 4088 2413 3928 
L 1978 2188 
z
" transform="scale(0.015625)"/>
      </defs>
      <use xlink:href="#Cmmi10-50" transform="translate(0 0.6875)"/>
     </g>
    </g>
   </g>
   <g id="text_2">
    <g clip-path="url(#p44d3a332ea)">
     <!-- $R$ -->
     <g transform="translate(150.535778 81.716317) scale(0.25 -0.25)">
      <defs>
       <path id="Cmmi10-52" d="M 313 0 
Q 250 0 250 84 
Q 253 100 262 139 
Q 272 178 289 201 
Q 306 225 331 225 
Q 722 225 878 269 
Q 959 297 997 441 
L 1875 3956 
Q 1888 4019 1888 4044 
Q 1888 4113 1813 4122 
Q 1691 4147 1350 4147 
Q 1288 4147 1288 4231 
Q 1291 4247 1300 4286 
Q 1309 4325 1326 4348 
Q 1344 4372 1369 4372 
L 3309 4372 
Q 3541 4372 3791 4319 
Q 4041 4266 4250 4152 
Q 4459 4038 4593 3848 
Q 4728 3659 4728 3406 
Q 4728 3084 4515 2831 
Q 4303 2578 3978 2408 
Q 3653 2238 3347 2169 
Q 3597 2078 3756 1879 
Q 3916 1681 3916 1422 
Q 3916 1388 3914 1370 
Q 3913 1353 3909 1331 
L 3859 763 
Q 3853 638 3847 550 
Q 3841 463 3841 409 
Q 3841 234 3892 129 
Q 3944 25 4097 25 
Q 4297 25 4448 211 
Q 4600 397 4647 616 
Q 4675 672 4709 672 
L 4769 672 
Q 4831 672 4831 588 
Q 4784 403 4682 237 
Q 4581 72 4426 -34 
Q 4272 -141 4091 -141 
Q 3716 -141 3452 26 
Q 3188 194 3188 550 
Q 3188 684 3213 788 
L 3353 1356 
Q 3378 1434 3378 1538 
Q 3378 1803 3198 1954 
Q 3019 2106 2747 2106 
L 1959 2106 
L 1538 416 
Q 1522 363 1522 325 
Q 1522 259 1600 250 
Q 1722 225 2059 225 
Q 2125 225 2125 141 
Q 2103 50 2090 25 
Q 2078 0 2016 0 
L 313 0 
z
M 1997 2272 
L 2706 2272 
Q 3403 2272 3756 2625 
Q 3919 2788 4014 3039 
Q 4109 3291 4109 3541 
Q 4109 3778 3970 3912 
Q 3831 4047 3626 4097 
Q 3422 4147 3175 4147 
L 2747 4147 
Q 2572 4147 2515 4117 
Q 2459 4088 2413 3928 
L 1997 2272 
z
" transform="scale(0.015625)"/>
      </defs>
      <use xlink:href="#Cmmi10-52" transform="translate(0 0.6875)"/>
     </g>
    </g>
   </g>
  </g>
 </g>
 <defs>
  <clipPath id="p44d3a332ea">
   <rect x="7.2" y="7.2" width="378.260677" height="324"/>
  </clipPath>
 </defs>
</svg>
