<?xml version="1.0" encoding="utf-8" standalone="no"?>
<!DOCTYPE svg PUBLIC "-//W3C//DTD SVG 1.1//EN"
  "http://www.w3.org/Graphics/SVG/1.1/DTD/svg11.dtd">
<svg xmlns:xlink="http://www.w3.org/1999/xlink" width="392.675774pt" height="338.4pt" viewBox="0 0 392.675774 338.4" xmlns="http://www.w3.org/2000/svg" version="1.1">
 <metadata>
  <rdf:RDF xmlns:dc="http://purl.org/dc/elements/1.1/" xmlns:cc="http://creativecommons.org/ns#" xmlns:rdf="http://www.w3.org/1999/02/22-rdf-syntax-ns#">
   <cc:Work>
    <dc:type rdf:resource="http://purl.org/dc/dcmitype/StillImage"/>
    <dc:date>2024-12-16T16:35:29.932396</dc:date>
    <dc:format>image/svg+xml</dc:format>
    <dc:creator>
     <cc:Agent>
      <dc:title>Matplotlib v3.6.2, https://matplotlib.org/</dc:title>
     </cc:Agent>
    </dc:creator>
   </cc:Work>
  </rdf:RDF>
 </metadata>
 <defs>
  <style type="text/css">*{stroke-linejoin: round; stroke-linecap: butt}</style>
 </defs>
 <g id="figure_1">
  <g id="patch_1">
   <path d="M 0 338.4 
L 392.675774 338.4 
L 392.675774 0 
L 0 0 
z
" style="fill: #ffffff"/>
  </g>
  <g id="axes_1">
   <g id="patch_2">
    <path d="M 7.2 331.2 
L 385.475774 331.2 
L 385.475774 7.2 
L 7.2 7.2 
z
" style="fill: #ffffff"/>
   </g>
   <g id="PathCollection_1">
    <path d="M 378.20124 246.772471 
C 379.138875 246.772471 380.038232 246.399945 380.70124 245.736937 
C 381.364248 245.07393 381.736774 244.174572 381.736774 243.236937 
C 381.736774 242.299303 381.364248 241.399945 380.70124 240.736937 
C 380.038232 240.07393 379.138875 239.701404 378.20124 239.701404 
C 377.263606 239.701404 376.364248 240.07393 375.70124 240.736937 
C 375.038232 241.399945 374.665706 242.299303 374.665706 243.236937 
C 374.665706 244.174572 375.038232 245.07393 375.70124 245.736937 
C 376.364248 246.399945 377.263606 246.772471 378.20124 246.772471 
z
" clip-path="url(#p87d12f237d)"/>
   </g>
   <g id="PathCollection_2">
    <path d="M 72.640929 323.819305 
C 73.578563 323.819305 74.477921 323.446779 75.140929 322.783771 
C 75.803937 322.120763 76.176463 321.221405 76.176463 320.283771 
C 76.176463 319.346136 75.803937 318.446779 75.140929 317.783771 
C 74.477921 317.120763 73.578563 316.748237 72.640929 316.748237 
C 71.703294 316.748237 70.803937 317.120763 70.140929 317.783771 
C 69.477921 318.446779 69.105395 319.346136 69.105395 320.283771 
C 69.105395 321.221405 69.477921 322.120763 70.140929 322.783771 
C 70.803937 323.446779 71.703294 323.819305 72.640929 323.819305 
z
" clip-path="url(#p87d12f237d)"/>
   </g>
   <g id="matplotlib.axis_1"/>
   <g id="matplotlib.axis_2"/>
   <g id="line2d_1">
    <path d="M 378.20124 243.236937 
L 342.402054 198.994319 
L 320.015088 171.54401 
L 305.277254 153.805495 
L 291.863561 138.008586 
L 282.527798 127.260511 
L 270.446325 113.710697 
L 258.130029 100.383744 
L 251.132178 93.060239 
L 240.680946 82.49788 
L 230.168055 72.373991 
L 220.937472 63.943311 
L 213.855276 57.79164 
L 208.543511 53.370955 
L 200.007433 46.636789 
L 192.52603 41.134781 
L 185.550157 36.365319 
L 177.465414 31.303581 
L 168.951489 26.553262 
L 167.355845 25.732882 
L 159.916099 22.214945 
L 152.812279 19.35176 
L 147.473296 17.538905 
L 141.062066 15.769889 
L 139.38535 15.383892 
L 135.537505 14.622989 
L 132.31034 14.122942 
L 129.204235 13.7648 
L 124.04384 13.447616 
L 120.935882 13.430769 
L 117.58835 13.565338 
L 113.387008 13.967369 
L 108.275734 14.823688 
L 106.945406 15.115483 
L 101.787905 16.528794 
L 97.380141 18.108809 
L 92.416862 20.325533 
L 87.814985 22.822657 
L 83.642833 25.479555 
L 80.823719 27.499422 
L 75.796173 31.581883 
L 72.858417 34.270739 
L 70.499389 36.602452 
L 67.602274 39.687855 
L 63.084383 45.021778 
L 61.471469 47.090794 
L 57.238722 52.968052 
L 53.654054 58.495454 
L 50.21596 64.323457 
L 47.202671 69.901891 
L 45.315525 73.641579 
L 42.057928 80.591221 
L 39.688274 86.083092 
L 36.540916 94.028721 
L 34.49818 99.639696 
L 31.504775 108.622739 
L 28.532341 118.625286 
L 25.684807 129.507254 
L 23.406577 139.432453 
L 21.639823 148.142437 
L 19.926605 157.765327 
L 18.32465 168.309858 
L 16.90149 179.753727 
L 15.918483 189.79914 
L 15.347695 197.286377 
L 14.750569 208.625923 
L 14.522518 216.989236 
L 14.485456 225.688514 
L 14.616409 232.849762 
L 15.055554 242.749076 
L 15.66275 250.898924 
L 16.44727 258.458188 
L 17.286334 264.777806 
L 18.52878 272.275897 
L 19.617513 277.69055 
L 21.446488 285.208 
L 22.978637 290.430482 
L 23.982364 293.450333 
L 25.916705 298.556981 
L 27.755816 302.702913 
L 29.401818 305.934661 
L 31.833262 310.021932 
L 33.954031 313.02272 
L 34.546807 313.778752 
L 37.213918 316.782997 
L 39.640074 319.0108 
L 41.530678 320.453174 
L 43.613953 321.774464 
L 46.433051 323.158192 
L 47.30578 323.49967 
L 49.256636 324.125057 
L 51.816771 324.67499 
L 54.558647 324.950524 
L 57.741163 324.899348 
L 60.860272 324.495983 
L 64.133854 323.728824 
L 66.614995 322.930415 
L 68.57087 322.177407 
L 72.640929 320.283771 
L 72.640929 320.283771 
" clip-path="url(#p87d12f237d)" style="fill: none; stroke: #000000; stroke-linecap: square"/>
   </g>
   <g id="patch_3">
    <path d="M 99.884545 17.167713 
Q 99.986939 17.131778 97.979427 17.836311 
" clip-path="url(#p87d12f237d)" style="fill: none; stroke: #000000; stroke-width: 2; stroke-linecap: round"/>
    <path d="M 86.8879 16.429889 
L 97.979427 17.836311 
L 90.199373 25.86568 
L 86.8879 16.429889 
z
" clip-path="url(#p87d12f237d)" style="stroke: #000000; stroke-width: 2; stroke-linecap: round"/>
   </g>
   <g id="text_1">
    <g clip-path="url(#p87d12f237d)">
     <!-- $P$ -->
     <g transform="translate(361.14993 272.45115) scale(0.25 -0.25)">
      <defs>
       <path id="Cmmi10-50" d="M 313 0 
Q 250 0 250 84 
Q 253 100 262 139 
Q 272 178 289 201 
Q 306 225 331 225 
Q 722 225 878 269 
Q 959 297 997 441 
L 1875 3956 
Q 1888 4019 1888 4044 
Q 1888 4113 1813 4122 
Q 1691 4147 1350 4147 
Q 1288 4147 1288 4231 
Q 1291 4247 1300 4286 
Q 1309 4325 1326 4348 
Q 1344 4372 1369 4372 
L 3578 4372 
Q 3881 4372 4165 4264 
Q 4450 4156 4631 3934 
Q 4813 3713 4813 3397 
Q 4813 2991 4527 2672 
Q 4241 2353 3814 2175 
Q 3388 1997 2988 1997 
L 1947 1997 
L 1556 416 
Q 1544 353 1544 325 
Q 1544 300 1551 283 
Q 1559 266 1573 261 
Q 1588 256 1619 250 
Q 1741 225 2081 225 
Q 2144 225 2144 141 
Q 2122 50 2109 25 
Q 2097 0 2034 0 
L 313 0 
z
M 1978 2188 
L 2875 2188 
Q 3497 2188 3822 2522 
Q 3988 2688 4092 3000 
Q 4197 3313 4197 3566 
Q 4197 3881 3956 4014 
Q 3716 4147 3359 4147 
L 2747 4147 
Q 2572 4147 2515 4117 
Q 2459 4088 2413 3928 
L 1978 2188 
z
" transform="scale(0.015625)"/>
      </defs>
      <use xlink:href="#Cmmi10-50" transform="translate(0 0.6875)"/>
     </g>
    </g>
   </g>
   <g id="text_2">
    <g clip-path="url(#p87d12f237d)">
     <!-- $Q$ -->
     <g transform="translate(84.956704 322.719053) scale(0.25 -0.25)">
      <defs>
       <path id="Cmmi10-51" d="M 1947 -141 
Q 1466 -141 1094 79 
Q 722 300 520 692 
Q 319 1084 319 1563 
Q 319 2259 714 2950 
Q 1109 3641 1756 4077 
Q 2403 4513 3109 4513 
Q 3475 4513 3778 4381 
Q 4081 4250 4290 4017 
Q 4500 3784 4614 3471 
Q 4728 3159 4728 2791 
Q 4728 2366 4581 1936 
Q 4434 1506 4171 1136 
Q 3909 766 3559 484 
Q 3209 203 2809 38 
Q 2850 -256 2934 -425 
Q 3019 -594 3256 -594 
Q 3506 -594 3726 -412 
Q 3947 -231 4006 13 
Q 4019 72 4078 72 
Q 4147 72 4147 -13 
Q 4100 -219 4008 -430 
Q 3916 -641 3786 -823 
Q 3656 -1006 3478 -1123 
Q 3300 -1241 3084 -1241 
Q 2547 -1241 2547 -550 
Q 2547 -509 2562 -332 
Q 2578 -156 2578 -44 
Q 2269 -141 1947 -141 
z
M 1709 300 
Q 1709 44 1991 44 
Q 2275 44 2591 184 
L 2591 244 
Q 2591 503 2509 648 
Q 2428 794 2194 794 
Q 2078 794 1964 723 
Q 1850 653 1779 539 
Q 1709 425 1709 300 
z
M 1544 288 
Q 1544 456 1637 612 
Q 1731 769 1881 864 
Q 2031 959 2203 959 
Q 2481 959 2607 771 
Q 2734 584 2778 281 
Q 3188 525 3500 978 
Q 3813 1431 3977 1973 
Q 4141 2516 4141 3003 
Q 4141 3356 4023 3656 
Q 3906 3956 3664 4140 
Q 3422 4325 3066 4325 
Q 2722 4325 2403 4156 
Q 2084 3988 1813 3706 
Q 1550 3434 1342 3032 
Q 1134 2631 1021 2193 
Q 909 1756 909 1356 
Q 909 947 1068 612 
Q 1228 278 1569 128 
Q 1544 194 1544 288 
z
" transform="scale(0.015625)"/>
      </defs>
      <use xlink:href="#Cmmi10-51" transform="translate(0 0.484375)"/>
     </g>
    </g>
   </g>
  </g>
 </g>
 <defs>
  <clipPath id="p87d12f237d">
   <rect x="7.2" y="7.2" width="378.275774" height="324"/>
  </clipPath>
 </defs>
</svg>
