<?xml version="1.0" encoding="utf-8" standalone="no"?>
<!DOCTYPE svg PUBLIC "-//W3C//DTD SVG 1.1//EN"
  "http://www.w3.org/Graphics/SVG/1.1/DTD/svg11.dtd">
<svg xmlns:xlink="http://www.w3.org/1999/xlink" width="392.659443pt" height="338.4pt" viewBox="0 0 392.659443 338.4" xmlns="http://www.w3.org/2000/svg" version="1.1">
 <metadata>
  <rdf:RDF xmlns:dc="http://purl.org/dc/elements/1.1/" xmlns:cc="http://creativecommons.org/ns#" xmlns:rdf="http://www.w3.org/1999/02/22-rdf-syntax-ns#">
   <cc:Work>
    <dc:type rdf:resource="http://purl.org/dc/dcmitype/StillImage"/>
    <dc:date>2023-08-04T14:51:05.503784</dc:date>
    <dc:format>image/svg+xml</dc:format>
    <dc:creator>
     <cc:Agent>
      <dc:title>Matplotlib v3.6.2, https://matplotlib.org/</dc:title>
     </cc:Agent>
    </dc:creator>
   </cc:Work>
  </rdf:RDF>
 </metadata>
 <defs>
  <style type="text/css">*{stroke-linejoin: round; stroke-linecap: butt}</style>
 </defs>
 <g id="figure_1">
  <g id="patch_1">
   <path d="M 0 338.4 
L 392.659443 338.4 
L 392.659443 0 
L 0 0 
z
" style="fill: #ffffff"/>
  </g>
  <g id="axes_1">
   <g id="patch_2">
    <path d="M 7.2 331.2 
L 385.459443 331.2 
L 385.459443 7.2 
L 7.2 7.2 
z
" style="fill: #ffffff"/>
   </g>
   <g id="PathCollection_1">
    <path d="M 378.185223 246.772647 
C 379.122858 246.772647 380.022215 246.400121 380.685223 245.737113 
C 381.348231 245.074105 381.720757 244.174747 381.720757 243.237113 
C 381.720757 242.299478 381.348231 241.400121 380.685223 240.737113 
C 380.022215 240.074105 379.122858 239.701579 378.185223 239.701579 
C 377.247589 239.701579 376.348231 240.074105 375.685223 240.737113 
C 375.022215 241.400121 374.649689 242.299478 374.649689 243.237113 
C 374.649689 244.174747 375.022215 245.074105 375.685223 245.737113 
C 376.348231 246.400121 377.247589 246.772647 378.185223 246.772647 
z
" clip-path="url(#p99bf6acfaa)"/>
   </g>
   <g id="PathCollection_2">
    <path d="M 72.636913 323.816454 
C 73.574547 323.816454 74.473905 323.443928 75.136913 322.78092 
C 75.799921 322.117913 76.172447 321.218555 76.172447 320.28092 
C 76.172447 319.343286 75.799921 318.443928 75.136913 317.78092 
C 74.473905 317.117913 73.574547 316.745386 72.636913 316.745386 
C 71.699278 316.745386 70.799921 317.117913 70.136913 317.78092 
C 69.473905 318.443928 69.101379 319.343286 69.101379 320.28092 
C 69.101379 321.218555 69.473905 322.117913 70.136913 322.78092 
C 70.799921 323.443928 71.699278 323.816454 72.636913 323.816454 
z
" clip-path="url(#p99bf6acfaa)"/>
   </g>
   <g id="matplotlib.axis_1"/>
   <g id="matplotlib.axis_2"/>
   <g id="line2d_1">
    <path d="M 378.185223 243.237113 
L 312.63893 162.642615 
L 298.49285 145.787338 
L 285.260557 130.402186 
L 274.047012 117.721337 
L 265.140421 107.92277 
L 254.905774 97.003327 
L 245.018126 86.841173 
L 240.82625 82.658433 
L 231.321466 73.475007 
L 226.204197 68.714858 
L 221.513154 64.471768 
L 212.300114 56.495243 
L 203.719846 49.52273 
L 196.032228 43.679537 
L 190.088353 39.441516 
L 182.970729 34.708181 
L 180.767685 33.322068 
L 171.629246 27.993387 
L 170.503043 27.385435 
L 164.163584 24.172968 
L 160.19342 22.348896 
L 152.870625 19.38482 
L 151.746178 18.977447 
L 145.346908 16.912713 
L 140.743115 15.704655 
L 136.341634 14.777748 
L 129.459893 13.799425 
L 124.432212 13.468476 
L 119.418342 13.480793 
L 115.65851 13.725801 
L 112.3742 14.112756 
L 109.09815 14.665872 
L 104.438289 15.753278 
L 100.187225 17.069045 
L 94.938135 19.14653 
L 89.91674 21.633846 
L 85.540553 24.228967 
L 83.051123 25.893733 
L 78.122737 29.618854 
L 74.425418 32.812282 
L 70.366665 36.742626 
L 67.562064 39.736393 
L 63.448332 44.570719 
L 59.197853 50.167456 
L 55.410832 55.722438 
L 52.339592 60.661695 
L 48.690506 67.090899 
L 45.632978 72.999386 
L 43.207501 78.063897 
L 40.287548 84.656767 
L 37.142444 92.447042 
L 34.048371 100.92724 
L 31.635584 108.207017 
L 30.136377 113.075386 
L 27.353875 122.949816 
L 25.166976 131.650364 
L 23.073799 140.990493 
L 21.000507 151.568098 
L 19.449126 160.711327 
L 18.351508 168.105979 
L 16.911283 179.65109 
L 16.308947 185.482092 
L 15.384311 196.720983 
L 14.781672 207.791409 
L 14.524479 216.766269 
L 14.488991 226.291657 
L 14.695224 235.317154 
L 15.004353 241.910725 
L 15.682659 251.14085 
L 16.6518 260.141176 
L 17.569769 266.659258 
L 18.872256 274.0882 
L 20.243357 280.460051 
L 21.837846 286.627125 
L 23.337749 291.548323 
L 25.164903 296.676547 
L 27.247711 301.620926 
L 28.939609 305.070511 
L 29.89767 306.832335 
L 31.500821 309.507802 
L 33.316816 312.171941 
L 35.420443 314.832592 
L 37.740882 317.305162 
L 39.815938 319.154758 
L 41.997635 320.771892 
L 44.619887 322.317792 
L 46.013907 322.978397 
L 49.108696 324.081957 
L 51.769921 324.665032 
L 53.36816 324.866188 
L 56.163795 324.969231 
L 58.984019 324.775317 
L 62.383544 324.177165 
L 64.071022 323.742651 
L 66.87783 322.831088 
L 70.389988 321.379303 
L 72.636913 320.28092 
L 72.636913 320.28092 
" clip-path="url(#p99bf6acfaa)" style="fill: none; stroke: #000000; stroke-linecap: square"/>
   </g>
   <g id="patch_3">
    <path d="M 99.879459 17.176768 
Q 99.981849 17.140834 97.974333 17.845368 
" clip-path="url(#p99bf6acfaa)" style="fill: none; stroke: #000000; stroke-width: 2; stroke-linecap: round"/>
    <path d="M 86.882806 16.438946 
L 97.974333 17.845368 
L 90.194279 25.874737 
L 86.882806 16.438946 
z
" clip-path="url(#p99bf6acfaa)" style="stroke: #000000; stroke-width: 2; stroke-linecap: round"/>
   </g>
   <g id="text_1">
    <g clip-path="url(#p99bf6acfaa)">
     <!-- $P$ -->
     <g transform="translate(361.134264 272.450449) scale(0.25 -0.25)">
      <defs>
       <path id="Cmmi10-50" d="M 313 0 
Q 250 0 250 84 
Q 253 100 262 139 
Q 272 178 289 201 
Q 306 225 331 225 
Q 722 225 878 269 
Q 959 297 997 441 
L 1875 3956 
Q 1888 4019 1888 4044 
Q 1888 4113 1813 4122 
Q 1691 4147 1350 4147 
Q 1288 4147 1288 4231 
Q 1291 4247 1300 4286 
Q 1309 4325 1326 4348 
Q 1344 4372 1369 4372 
L 3578 4372 
Q 3881 4372 4165 4264 
Q 4450 4156 4631 3934 
Q 4813 3713 4813 3397 
Q 4813 2991 4527 2672 
Q 4241 2353 3814 2175 
Q 3388 1997 2988 1997 
L 1947 1997 
L 1556 416 
Q 1544 353 1544 325 
Q 1544 300 1551 283 
Q 1559 266 1573 261 
Q 1588 256 1619 250 
Q 1741 225 2081 225 
Q 2144 225 2144 141 
Q 2122 50 2109 25 
Q 2097 0 2034 0 
L 313 0 
z
M 1978 2188 
L 2875 2188 
Q 3497 2188 3822 2522 
Q 3988 2688 4092 3000 
Q 4197 3313 4197 3566 
Q 4197 3881 3956 4014 
Q 3716 4147 3359 4147 
L 2747 4147 
Q 2572 4147 2515 4117 
Q 2459 4088 2413 3928 
L 1978 2188 
z
" transform="scale(0.015625)"/>
      </defs>
      <use xlink:href="#Cmmi10-50" transform="translate(0 0.6875)"/>
     </g>
    </g>
   </g>
   <g id="text_2">
    <g clip-path="url(#p99bf6acfaa)">
     <!-- $Q$ -->
     <g transform="translate(84.951812 322.716378) scale(0.25 -0.25)">
      <defs>
       <path id="Cmmi10-51" d="M 1947 -141 
Q 1466 -141 1094 79 
Q 722 300 520 692 
Q 319 1084 319 1563 
Q 319 2259 714 2950 
Q 1109 3641 1756 4077 
Q 2403 4513 3109 4513 
Q 3475 4513 3778 4381 
Q 4081 4250 4290 4017 
Q 4500 3784 4614 3471 
Q 4728 3159 4728 2791 
Q 4728 2366 4581 1936 
Q 4434 1506 4171 1136 
Q 3909 766 3559 484 
Q 3209 203 2809 38 
Q 2850 -256 2934 -425 
Q 3019 -594 3256 -594 
Q 3506 -594 3726 -412 
Q 3947 -231 4006 13 
Q 4019 72 4078 72 
Q 4147 72 4147 -13 
Q 4100 -219 4008 -430 
Q 3916 -641 3786 -823 
Q 3656 -1006 3478 -1123 
Q 3300 -1241 3084 -1241 
Q 2547 -1241 2547 -550 
Q 2547 -509 2562 -332 
Q 2578 -156 2578 -44 
Q 2269 -141 1947 -141 
z
M 1709 300 
Q 1709 44 1991 44 
Q 2275 44 2591 184 
L 2591 244 
Q 2591 503 2509 648 
Q 2428 794 2194 794 
Q 2078 794 1964 723 
Q 1850 653 1779 539 
Q 1709 425 1709 300 
z
M 1544 288 
Q 1544 456 1637 612 
Q 1731 769 1881 864 
Q 2031 959 2203 959 
Q 2481 959 2607 771 
Q 2734 584 2778 281 
Q 3188 525 3500 978 
Q 3813 1431 3977 1973 
Q 4141 2516 4141 3003 
Q 4141 3356 4023 3656 
Q 3906 3956 3664 4140 
Q 3422 4325 3066 4325 
Q 2722 4325 2403 4156 
Q 2084 3988 1813 3706 
Q 1550 3434 1342 3032 
Q 1134 2631 1021 2193 
Q 909 1756 909 1356 
Q 909 947 1068 612 
Q 1228 278 1569 128 
Q 1544 194 1544 288 
z
" transform="scale(0.015625)"/>
      </defs>
      <use xlink:href="#Cmmi10-51" transform="translate(0 0.484375)"/>
     </g>
    </g>
   </g>
  </g>
 </g>
 <defs>
  <clipPath id="p99bf6acfaa">
   <rect x="7.2" y="7.2" width="378.259443" height="324"/>
  </clipPath>
 </defs>
</svg>
