<?xml version="1.0" encoding="utf-8" standalone="no"?>
<!DOCTYPE svg PUBLIC "-//W3C//DTD SVG 1.1//EN"
  "http://www.w3.org/Graphics/SVG/1.1/DTD/svg11.dtd">
<svg xmlns:xlink="http://www.w3.org/1999/xlink" width="392.673035pt" height="338.4pt" viewBox="0 0 392.673035 338.4" xmlns="http://www.w3.org/2000/svg" version="1.1">
 <metadata>
  <rdf:RDF xmlns:dc="http://purl.org/dc/elements/1.1/" xmlns:cc="http://creativecommons.org/ns#" xmlns:rdf="http://www.w3.org/1999/02/22-rdf-syntax-ns#">
   <cc:Work>
    <dc:type rdf:resource="http://purl.org/dc/dcmitype/StillImage"/>
    <dc:date>2024-08-19T12:01:37.032689</dc:date>
    <dc:format>image/svg+xml</dc:format>
    <dc:creator>
     <cc:Agent>
      <dc:title>Matplotlib v3.8.0, https://matplotlib.org/</dc:title>
     </cc:Agent>
    </dc:creator>
   </cc:Work>
  </rdf:RDF>
 </metadata>
 <defs>
  <style type="text/css">*{stroke-linejoin: round; stroke-linecap: butt}</style>
 </defs>
 <g id="figure_1">
  <g id="patch_1">
   <path d="M 0 338.4 
L 392.673035 338.4 
L 392.673035 0 
L 0 0 
z
" style="fill: #ffffff"/>
  </g>
  <g id="axes_1">
   <g id="patch_2">
    <path d="M 7.2 331.2 
L 385.473035 331.2 
L 385.473035 7.2 
L 7.2 7.2 
z
" style="fill: #ffffff"/>
   </g>
   <g id="PathCollection_1">
    <path d="M 137.726193 100.66219 
C 138.663828 100.66219 139.563185 100.289664 140.226193 99.626656 
C 140.889201 98.963648 141.261727 98.06429 141.261727 97.126656 
C 141.261727 96.189021 140.889201 95.289664 140.226193 94.626656 
C 139.563185 93.963648 138.663828 93.591122 137.726193 93.591122 
C 136.788559 93.591122 135.889201 93.963648 135.226193 94.626656 
C 134.563185 95.289664 134.190659 96.189021 134.190659 97.126656 
C 134.190659 98.06429 134.563185 98.963648 135.226193 99.626656 
C 135.889201 100.289664 136.788559 100.66219 137.726193 100.66219 
z
" clip-path="url(#p251699e721)"/>
   </g>
   <g id="matplotlib.axis_1"/>
   <g id="matplotlib.axis_2"/>
   <g id="line2d_1">
    <path d="M 378.198553 243.237409 
L 348.210985 206.177658 
L 328.623177 182.04761 
L 312.744829 162.754302 
L 300.411053 148.034903 
L 287.224104 132.643016 
L 276.417685 120.356846 
L 266.219588 109.081332 
L 257.238639 99.44367 
L 246.792468 88.620772 
L 236.224424 78.144861 
L 227.037869 69.467857 
L 217.968608 61.332596 
L 211.224298 55.583464 
L 204.321466 49.984143 
L 196.414079 43.948306 
L 193.759394 42.017415 
L 188.658622 38.448515 
L 182.376496 34.319157 
L 175.881779 30.375778 
L 170.812558 27.540576 
L 163.584541 23.88723 
L 157.921797 21.362556 
L 151.880861 19.015615 
L 147.462733 17.5371 
L 144.531551 16.671876 
L 139.249218 15.355245 
L 133.005 14.220785 
L 127.501785 13.622084 
L 123.2121 13.430769 
L 120.254095 13.445825 
L 115.458959 13.736502 
L 109.971558 14.493857 
L 105.548965 15.453505 
L 103.052296 16.139937 
L 99.520905 17.297085 
L 94.365561 19.397693 
L 91.230318 20.927012 
L 87.020557 23.298257 
L 85.029781 24.552463 
L 82.083834 26.572507 
L 77.805004 29.873148 
L 76.24227 31.192375 
L 72.923242 34.207352 
L 70.142012 36.967886 
L 66.206478 41.263717 
L 62.676455 45.534299 
L 59.154949 50.221835 
L 54.917968 56.482556 
L 51.742586 61.665162 
L 49.620317 65.386246 
L 45.531913 73.198587 
L 42.269664 80.114727 
L 39.818381 85.766356 
L 36.645222 93.746911 
L 33.677348 102.001249 
L 31.493406 108.652138 
L 29.349645 115.744919 
L 26.992714 124.318914 
L 25.076721 132.026156 
L 23.067826 141.014236 
L 21.191577 150.51957 
L 19.563409 159.986381 
L 18.444329 167.437313 
L 17.078446 178.156563 
L 16.220095 186.410651 
L 15.521964 194.767615 
L 14.993801 203.192342 
L 14.570628 214.42142 
L 14.47714 224.770959 
L 14.656311 234.212354 
L 15.022578 242.233605 
L 15.387071 247.609671 
L 16.127037 255.649984 
L 17.248398 264.534855 
L 18.150676 270.184398 
L 19.658615 277.889836 
L 21.141507 284.073134 
L 22.397455 288.552651 
L 23.500899 292.044368 
L 25.631352 297.861987 
L 26.887679 300.828034 
L 29.123851 305.422089 
L 30.977502 308.672512 
L 32.439976 310.933764 
L 34.872044 314.182422 
L 37.165044 316.736146 
L 40.337311 319.573281 
L 42.762883 321.268835 
L 44.790851 322.407599 
L 46.397072 323.144607 
L 47.939866 323.724608 
L 49.747851 324.254664 
L 51.343126 324.596121 
L 54.256598 324.935711 
L 55.091592 324.969231 
L 58.708931 324.810248 
L 61.856071 324.298394 
L 64.703776 323.561117 
L 66.491346 322.973981 
L 70.273647 321.436668 
L 72.638589 320.284154 
L 72.638589 320.284154 
" clip-path="url(#p251699e721)" style="fill: none; stroke: #ffffff; stroke-linecap: square"/>
   </g>
   <g id="line2d_2">
    <path d="M 72.638589 320.284154 
L 77.004121 316.285451 
L 81.950603 311.434826 
L 85.947269 307.221225 
L 89.957917 302.674802 
L 93.993737 297.70966 
L 97.62698 292.826382 
L 100.874187 288.047283 
L 104.12092 282.771676 
L 106.997159 277.560969 
L 109.032119 273.479668 
L 110.979834 269.178493 
L 113.175681 263.721251 
L 115.056779 258.343221 
L 116.800433 252.51727 
L 117.993866 247.845888 
L 119.328812 241.60008 
L 120.242811 236.33575 
L 121.127369 229.888756 
L 121.880621 222.297044 
L 122.331176 215.534794 
L 122.621657 208.541458 
L 122.804408 199.26235 
L 122.850282 182.47449 
L 122.950674 169.451609 
L 123.253368 159.551817 
L 123.682494 152.234134 
L 124.336422 144.960426 
L 125.173551 138.312055 
L 126.1564 132.315159 
L 127.145767 127.386156 
L 128.574324 121.461846 
L 129.719514 117.393125 
L 131.100915 113.048258 
L 133.1104 107.521824 
L 135.051455 102.833171 
L 137.388533 97.80715 
L 137.726193 97.126656 
L 137.726193 97.126656 
" clip-path="url(#p251699e721)" style="fill: none; stroke: #000000; stroke-linecap: square"/>
   </g>
   <g id="patch_3">
    <path d="M 122.849027 186.389655 
Q 122.849034 185.94334 122.849004 187.733093 
" clip-path="url(#p251699e721)" style="fill: none; stroke: #000000; stroke-width: 2; stroke-linecap: round"/>
    <path d="M 117.848837 197.73301 
L 122.849004 187.733093 
L 127.848837 197.733177 
z
" clip-path="url(#p251699e721)" style="stroke: #000000; stroke-width: 2; stroke-linecap: round"/>
   </g>
   <g id="text_1">
    <g clip-path="url(#p251699e721)">
     <!-- $Q$ -->
     <g transform="translate(89.417489 318.256292) scale(0.25 -0.25)">
      <defs>
       <path id="Cmmi10-51" d="M 1947 -141 
Q 1466 -141 1094 79 
Q 722 300 520 692 
Q 319 1084 319 1563 
Q 319 2259 714 2950 
Q 1109 3641 1756 4077 
Q 2403 4513 3109 4513 
Q 3475 4513 3778 4381 
Q 4081 4250 4290 4017 
Q 4500 3784 4614 3471 
Q 4728 3159 4728 2791 
Q 4728 2366 4581 1936 
Q 4434 1506 4171 1136 
Q 3909 766 3559 484 
Q 3209 203 2809 38 
Q 2850 -256 2934 -425 
Q 3019 -594 3256 -594 
Q 3506 -594 3726 -412 
Q 3947 -231 4006 13 
Q 4019 72 4078 72 
Q 4147 72 4147 -13 
Q 4100 -219 4008 -430 
Q 3916 -641 3786 -823 
Q 3656 -1006 3478 -1123 
Q 3300 -1241 3084 -1241 
Q 2547 -1241 2547 -550 
Q 2547 -509 2562 -332 
Q 2578 -156 2578 -44 
Q 2269 -141 1947 -141 
z
M 1709 300 
Q 1709 44 1991 44 
Q 2275 44 2591 184 
L 2591 244 
Q 2591 503 2509 648 
Q 2428 794 2194 794 
Q 2078 794 1964 723 
Q 1850 653 1779 539 
Q 1709 425 1709 300 
z
M 1544 288 
Q 1544 456 1637 612 
Q 1731 769 1881 864 
Q 2031 959 2203 959 
Q 2481 959 2607 771 
Q 2734 584 2778 281 
Q 3188 525 3500 978 
Q 3813 1431 3977 1973 
Q 4141 2516 4141 3003 
Q 4141 3356 4023 3656 
Q 3906 3956 3664 4140 
Q 3422 4325 3066 4325 
Q 2722 4325 2403 4156 
Q 2084 3988 1813 3706 
Q 1550 3434 1342 3032 
Q 1134 2631 1021 2193 
Q 909 1756 909 1356 
Q 909 947 1068 612 
Q 1228 278 1569 128 
Q 1544 194 1544 288 
z
" transform="scale(0.015625)"/>
      </defs>
      <use xlink:href="#Cmmi10-51" transform="translate(0 0.484375)"/>
     </g>
    </g>
   </g>
   <g id="text_2">
    <g clip-path="url(#p251699e721)">
     <!-- $R$ -->
     <g transform="translate(105.910443 117.414543) scale(0.25 -0.25)">
      <defs>
       <path id="Cmmi10-52" d="M 313 0 
Q 250 0 250 84 
Q 253 100 262 139 
Q 272 178 289 201 
Q 306 225 331 225 
Q 722 225 878 269 
Q 959 297 997 441 
L 1875 3956 
Q 1888 4019 1888 4044 
Q 1888 4113 1813 4122 
Q 1691 4147 1350 4147 
Q 1288 4147 1288 4231 
Q 1291 4247 1300 4286 
Q 1309 4325 1326 4348 
Q 1344 4372 1369 4372 
L 3309 4372 
Q 3541 4372 3791 4319 
Q 4041 4266 4250 4152 
Q 4459 4038 4593 3848 
Q 4728 3659 4728 3406 
Q 4728 3084 4515 2831 
Q 4303 2578 3978 2408 
Q 3653 2238 3347 2169 
Q 3597 2078 3756 1879 
Q 3916 1681 3916 1422 
Q 3916 1388 3914 1370 
Q 3913 1353 3909 1331 
L 3859 763 
Q 3853 638 3847 550 
Q 3841 463 3841 409 
Q 3841 234 3892 129 
Q 3944 25 4097 25 
Q 4297 25 4448 211 
Q 4600 397 4647 616 
Q 4675 672 4709 672 
L 4769 672 
Q 4831 672 4831 588 
Q 4784 403 4682 237 
Q 4581 72 4426 -34 
Q 4272 -141 4091 -141 
Q 3716 -141 3452 26 
Q 3188 194 3188 550 
Q 3188 684 3213 788 
L 3353 1356 
Q 3378 1434 3378 1538 
Q 3378 1803 3198 1954 
Q 3019 2106 2747 2106 
L 1959 2106 
L 1538 416 
Q 1522 363 1522 325 
Q 1522 259 1600 250 
Q 1722 225 2059 225 
Q 2125 225 2125 141 
Q 2103 50 2090 25 
Q 2078 0 2016 0 
L 313 0 
z
M 1997 2272 
L 2706 2272 
Q 3403 2272 3756 2625 
Q 3919 2788 4014 3039 
Q 4109 3291 4109 3541 
Q 4109 3778 3970 3912 
Q 3831 4047 3626 4097 
Q 3422 4147 3175 4147 
L 2747 4147 
Q 2572 4147 2515 4117 
Q 2459 4088 2413 3928 
L 1997 2272 
z
" transform="scale(0.015625)"/>
      </defs>
      <use xlink:href="#Cmmi10-52" transform="translate(0 0.6875)"/>
     </g>
    </g>
   </g>
   <g id="PathCollection_2">
    <path d="M 72.638589 323.819688 
C 73.576224 323.819688 74.475582 323.447162 75.138589 322.784154 
C 75.801597 322.121147 76.174123 321.221789 76.174123 320.284154 
C 76.174123 319.34652 75.801597 318.447162 75.138589 317.784154 
C 74.475582 317.121147 73.576224 316.748621 72.638589 316.748621 
C 71.700955 316.748621 70.801597 317.121147 70.138589 317.784154 
C 69.475582 318.447162 69.103055 319.34652 69.103055 320.284154 
C 69.103055 321.221789 69.475582 322.121147 70.138589 322.784154 
C 70.801597 323.447162 71.700955 323.819688 72.638589 323.819688 
z
" clip-path="url(#p251699e721)"/>
   </g>
  </g>
 </g>
 <defs>
  <clipPath id="p251699e721">
   <rect x="7.2" y="7.2" width="378.273035" height="324"/>
  </clipPath>
 </defs>
</svg>
