<?xml version="1.0" encoding="utf-8" standalone="no"?>
<!DOCTYPE svg PUBLIC "-//W3C//DTD SVG 1.1//EN"
  "http://www.w3.org/Graphics/SVG/1.1/DTD/svg11.dtd">
<svg xmlns:xlink="http://www.w3.org/1999/xlink" width="392.695578pt" height="338.4pt" viewBox="0 0 392.695578 338.4" xmlns="http://www.w3.org/2000/svg" version="1.1">
 <metadata>
  <rdf:RDF xmlns:dc="http://purl.org/dc/elements/1.1/" xmlns:cc="http://creativecommons.org/ns#" xmlns:rdf="http://www.w3.org/1999/02/22-rdf-syntax-ns#">
   <cc:Work>
    <dc:type rdf:resource="http://purl.org/dc/dcmitype/StillImage"/>
    <dc:date>2024-09-10T13:36:07.350847</dc:date>
    <dc:format>image/svg+xml</dc:format>
    <dc:creator>
     <cc:Agent>
      <dc:title>Matplotlib v3.8.0, https://matplotlib.org/</dc:title>
     </cc:Agent>
    </dc:creator>
   </cc:Work>
  </rdf:RDF>
 </metadata>
 <defs>
  <style type="text/css">*{stroke-linejoin: round; stroke-linecap: butt}</style>
 </defs>
 <g id="figure_1">
  <g id="patch_1">
   <path d="M 0 338.4 
L 392.695578 338.4 
L 392.695578 0 
L 0 0 
z
" style="fill: #ffffff"/>
  </g>
  <g id="axes_1">
   <g id="patch_2">
    <path d="M 7.2 331.2 
L 385.495578 331.2 
L 385.495578 7.2 
L 7.2 7.2 
z
" style="fill: #ffffff"/>
   </g>
   <g id="PathCollection_1">
    <path d="M 378.220663 246.779328 
C 379.158298 246.779328 380.057656 246.406801 380.720663 245.743794 
C 381.383671 245.080786 381.756197 244.181428 381.756197 243.243794 
C 381.756197 242.306159 381.383671 241.406801 380.720663 240.743794 
C 380.057656 240.080786 379.158298 239.70826 378.220663 239.70826 
C 377.283029 239.70826 376.383671 240.080786 375.720663 240.743794 
C 375.057656 241.406801 374.685129 242.306159 374.685129 243.243794 
C 374.685129 244.181428 375.057656 245.080786 375.720663 245.743794 
C 376.383671 246.406801 377.283029 246.779328 378.220663 246.779328 
z
" clip-path="url(#p6f8d6b22cc)"/>
   </g>
   <g id="PathCollection_2">
    <path d="M 137.732198 100.65879 
C 138.669833 100.65879 139.56919 100.286264 140.232198 99.623256 
C 140.895206 98.960248 141.267732 98.06089 141.267732 97.123256 
C 141.267732 96.185621 140.895206 95.286264 140.232198 94.623256 
C 139.56919 93.960248 138.669833 93.587722 137.732198 93.587722 
C 136.794564 93.587722 135.895206 93.960248 135.232198 94.623256 
C 134.56919 95.286264 134.196664 96.185621 134.196664 97.123256 
C 134.196664 98.06089 134.56919 98.960248 135.232198 99.623256 
C 135.895206 100.286264 136.794564 100.65879 137.732198 100.65879 
z
" clip-path="url(#p6f8d6b22cc)"/>
   </g>
   <g id="matplotlib.axis_1"/>
   <g id="matplotlib.axis_2"/>
   <g id="line2d_1">
    <path d="M 378.220663 243.243794 
L 311.00368 160.639907 
L 297.483494 144.564203 
L 287.901325 133.403928 
L 275.214217 118.990287 
L 264.475533 107.168861 
L 255.477342 97.570523 
L 247.183981 89.000848 
L 237.478818 79.344714 
L 232.907572 74.947083 
L 222.312253 65.15706 
L 213.73702 57.678736 
L 206.079209 51.366658 
L 198.485613 45.47454 
L 194.727766 42.701877 
L 186.633405 37.070935 
L 179.666615 32.619353 
L 171.748472 28.034956 
L 167.76599 25.931291 
L 162.526033 23.380317 
L 156.255436 20.667211 
L 151.545951 18.885261 
L 147.404053 17.508064 
L 142.266268 16.057962 
L 138.175706 15.116849 
L 131.764866 14.042549 
L 126.573615 13.550459 
L 124.202867 13.443712 
L 118.384487 13.510535 
L 114.170761 13.864167 
L 111.776143 14.184825 
L 106.441144 15.225949 
L 101.848197 16.501932 
L 96.102995 18.626212 
L 93.619595 19.736677 
L 89.688026 21.745583 
L 84.99862 24.56615 
L 80.67858 27.601044 
L 76.258934 31.17179 
L 71.584954 35.502273 
L 67.766327 39.498704 
L 63.955112 43.934045 
L 60.451315 48.438745 
L 56.712815 53.737838 
L 53.039417 59.489403 
L 50.072493 64.569907 
L 45.726701 72.800401 
L 42.869622 78.787798 
L 40.656515 83.781401 
L 37.90807 90.468738 
L 35.298075 97.38488 
L 32.233131 106.333014 
L 30.183196 112.908121 
L 27.831857 121.155588 
L 25.903559 128.601257 
L 23.627079 138.395931 
L 21.549334 148.597394 
L 19.922773 157.764552 
L 18.149158 169.561359 
L 16.793897 180.703048 
L 16.003481 188.771801 
L 15.156606 200.240625 
L 14.688347 210.227504 
L 14.474915 221.007953 
L 14.543661 230.100247 
L 14.830516 238.639083 
L 15.357085 247.253051 
L 16.131144 255.715237 
L 16.759155 261.008121 
L 18.112293 269.982889 
L 19.517433 277.255949 
L 21.068549 283.809781 
L 22.826394 289.969464 
L 24.58673 295.159986 
L 26.34957 299.608584 
L 28.070118 303.370643 
L 30.144116 307.280466 
L 32.494082 311.025175 
L 33.28024 312.136847 
L 35.864667 315.356389 
L 38.470489 318.007027 
L 40.283315 319.543009 
L 43.033618 321.446783 
L 44.345993 322.190076 
L 47.151669 323.455248 
L 49.298507 324.149252 
L 51.078277 324.559118 
L 53.952621 324.928474 
L 57.103698 324.951968 
L 59.223285 324.761368 
L 62.026978 324.273293 
L 64.541894 323.621756 
L 68.079596 322.388143 
L 70.186083 321.488895 
L 72.640235 320.2957 
L 72.640235 320.2957 
" clip-path="url(#p6f8d6b22cc)" style="fill: none; stroke: #000000; stroke-linecap: square"/>
   </g>
   <g id="line2d_2">
    <path d="M 72.640235 320.2957 
L 77.042374 316.262422 
L 81.807739 311.593517 
L 84.807649 308.465883 
L 89.197003 303.578323 
L 92.709234 299.351431 
L 96.139117 294.893649 
L 99.289651 290.448799 
L 102.822815 284.964164 
L 105.782272 279.848892 
L 108.53451 274.529653 
L 110.644363 269.96898 
L 112.617962 265.198711 
L 114.411237 260.298215 
L 116.081464 255.062488 
L 117.40551 250.25932 
L 118.525645 245.542895 
L 119.622298 240.053733 
L 120.638965 233.705175 
L 121.383239 227.668616 
L 122.029687 220.424246 
L 122.469766 212.779596 
L 122.743872 203.791447 
L 122.851428 191.387935 
L 122.988184 167.812225 
L 123.269247 159.3148 
L 123.783424 150.97212 
L 124.375339 144.648681 
L 125.166486 138.395875 
L 126.1231 132.52492 
L 127.125033 127.504174 
L 128.529975 121.648654 
L 130.048234 116.325545 
L 131.93156 110.678743 
L 133.511435 106.519011 
L 135.35342 102.159608 
L 137.732198 97.123256 
L 137.732198 97.123256 
" clip-path="url(#p6f8d6b22cc)" style="fill: none; stroke: #000000; stroke-linecap: square"/>
   </g>
   <g id="patch_3">
    <path d="M 100.090447 17.087811 
Q 99.988046 17.123749 101.995552 16.419218 
" clip-path="url(#p6f8d6b22cc)" style="fill: none; stroke: #000000; stroke-width: 2; stroke-linecap: round"/>
    <path d="M 113.087079 17.82564 
L 101.995552 16.419218 
L 109.775606 8.38985 
z
" clip-path="url(#p6f8d6b22cc)" style="stroke: #000000; stroke-width: 2; stroke-linecap: round"/>
   </g>
   <g id="patch_4">
    <path d="M 122.854035 186.392233 
Q 122.854043 185.945888 122.854013 187.735612 
" clip-path="url(#p6f8d6b22cc)" style="fill: none; stroke: #000000; stroke-width: 2; stroke-linecap: round"/>
    <path d="M 117.853846 197.735528 
L 122.854013 187.735612 
L 127.853846 197.735695 
z
" clip-path="url(#p6f8d6b22cc)" style="stroke: #000000; stroke-width: 2; stroke-linecap: round"/>
   </g>
   <g id="text_1">
    <g clip-path="url(#p6f8d6b22cc)">
     <!-- $P$ -->
     <g transform="translate(361.168766 272.459476) scale(0.25 -0.25)">
      <defs>
       <path id="Cmmi10-50" d="M 313 0 
Q 250 0 250 84 
Q 253 100 262 139 
Q 272 178 289 201 
Q 306 225 331 225 
Q 722 225 878 269 
Q 959 297 997 441 
L 1875 3956 
Q 1888 4019 1888 4044 
Q 1888 4113 1813 4122 
Q 1691 4147 1350 4147 
Q 1288 4147 1288 4231 
Q 1291 4247 1300 4286 
Q 1309 4325 1326 4348 
Q 1344 4372 1369 4372 
L 3578 4372 
Q 3881 4372 4165 4264 
Q 4450 4156 4631 3934 
Q 4813 3713 4813 3397 
Q 4813 2991 4527 2672 
Q 4241 2353 3814 2175 
Q 3388 1997 2988 1997 
L 1947 1997 
L 1556 416 
Q 1544 353 1544 325 
Q 1544 300 1551 283 
Q 1559 266 1573 261 
Q 1588 256 1619 250 
Q 1741 225 2081 225 
Q 2144 225 2144 141 
Q 2122 50 2109 25 
Q 2097 0 2034 0 
L 313 0 
z
M 1978 2188 
L 2875 2188 
Q 3497 2188 3822 2522 
Q 3988 2688 4092 3000 
Q 4197 3313 4197 3566 
Q 4197 3881 3956 4014 
Q 3716 4147 3359 4147 
L 2747 4147 
Q 2572 4147 2515 4117 
Q 2459 4088 2413 3928 
L 1978 2188 
z
" transform="scale(0.015625)"/>
      </defs>
      <use xlink:href="#Cmmi10-50" transform="translate(0 0.6875)"/>
     </g>
    </g>
   </g>
   <g id="text_2">
    <g clip-path="url(#p6f8d6b22cc)">
     <!-- $R$ -->
     <g transform="translate(150.549443 81.704449) scale(0.25 -0.25)">
      <defs>
       <path id="Cmmi10-52" d="M 313 0 
Q 250 0 250 84 
Q 253 100 262 139 
Q 272 178 289 201 
Q 306 225 331 225 
Q 722 225 878 269 
Q 959 297 997 441 
L 1875 3956 
Q 1888 4019 1888 4044 
Q 1888 4113 1813 4122 
Q 1691 4147 1350 4147 
Q 1288 4147 1288 4231 
Q 1291 4247 1300 4286 
Q 1309 4325 1326 4348 
Q 1344 4372 1369 4372 
L 3309 4372 
Q 3541 4372 3791 4319 
Q 4041 4266 4250 4152 
Q 4459 4038 4593 3848 
Q 4728 3659 4728 3406 
Q 4728 3084 4515 2831 
Q 4303 2578 3978 2408 
Q 3653 2238 3347 2169 
Q 3597 2078 3756 1879 
Q 3916 1681 3916 1422 
Q 3916 1388 3914 1370 
Q 3913 1353 3909 1331 
L 3859 763 
Q 3853 638 3847 550 
Q 3841 463 3841 409 
Q 3841 234 3892 129 
Q 3944 25 4097 25 
Q 4297 25 4448 211 
Q 4600 397 4647 616 
Q 4675 672 4709 672 
L 4769 672 
Q 4831 672 4831 588 
Q 4784 403 4682 237 
Q 4581 72 4426 -34 
Q 4272 -141 4091 -141 
Q 3716 -141 3452 26 
Q 3188 194 3188 550 
Q 3188 684 3213 788 
L 3353 1356 
Q 3378 1434 3378 1538 
Q 3378 1803 3198 1954 
Q 3019 2106 2747 2106 
L 1959 2106 
L 1538 416 
Q 1522 363 1522 325 
Q 1522 259 1600 250 
Q 1722 225 2059 225 
Q 2125 225 2125 141 
Q 2103 50 2090 25 
Q 2078 0 2016 0 
L 313 0 
z
M 1997 2272 
L 2706 2272 
Q 3403 2272 3756 2625 
Q 3919 2788 4014 3039 
Q 4109 3291 4109 3541 
Q 4109 3778 3970 3912 
Q 3831 4047 3626 4097 
Q 3422 4147 3175 4147 
L 2747 4147 
Q 2572 4147 2515 4117 
Q 2459 4088 2413 3928 
L 1997 2272 
z
" transform="scale(0.015625)"/>
      </defs>
      <use xlink:href="#Cmmi10-52" transform="translate(0 0.6875)"/>
     </g>
    </g>
   </g>
  </g>
 </g>
 <defs>
  <clipPath id="p6f8d6b22cc">
   <rect x="7.2" y="7.2" width="378.295578" height="324"/>
  </clipPath>
 </defs>
</svg>
