<?xml version="1.0" encoding="utf-8" standalone="no"?>
<!DOCTYPE svg PUBLIC "-//W3C//DTD SVG 1.1//EN"
  "http://www.w3.org/Graphics/SVG/1.1/DTD/svg11.dtd">
<svg xmlns:xlink="http://www.w3.org/1999/xlink" width="392.672805pt" height="338.4pt" viewBox="0 0 392.672805 338.4" xmlns="http://www.w3.org/2000/svg" version="1.1">
 <metadata>
  <rdf:RDF xmlns:dc="http://purl.org/dc/elements/1.1/" xmlns:cc="http://creativecommons.org/ns#" xmlns:rdf="http://www.w3.org/1999/02/22-rdf-syntax-ns#">
   <cc:Work>
    <dc:type rdf:resource="http://purl.org/dc/dcmitype/StillImage"/>
    <dc:date>2023-08-04T09:01:58.155079</dc:date>
    <dc:format>image/svg+xml</dc:format>
    <dc:creator>
     <cc:Agent>
      <dc:title>Matplotlib v3.6.2, https://matplotlib.org/</dc:title>
     </cc:Agent>
    </dc:creator>
   </cc:Work>
  </rdf:RDF>
 </metadata>
 <defs>
  <style type="text/css">*{stroke-linejoin: round; stroke-linecap: butt}</style>
 </defs>
 <g id="figure_1">
  <g id="patch_1">
   <path d="M 0 338.4 
L 392.672805 338.4 
L 392.672805 0 
L 0 0 
z
" style="fill: #ffffff"/>
  </g>
  <g id="axes_1">
   <g id="patch_2">
    <path d="M 7.2 331.2 
L 385.472805 331.2 
L 385.472805 7.2 
L 7.2 7.2 
z
" style="fill: #ffffff"/>
   </g>
   <g id="PathCollection_1">
    <path d="M 137.727375 100.661045 
C 138.665009 100.661045 139.564367 100.288519 140.227375 99.625511 
C 140.890383 98.962503 141.262909 98.063146 141.262909 97.125511 
C 141.262909 96.187876 140.890383 95.288519 140.227375 94.625511 
C 139.564367 93.962503 138.665009 93.589977 137.727375 93.589977 
C 136.78974 93.589977 135.890383 93.962503 135.227375 94.625511 
C 134.564367 95.288519 134.191841 96.187876 134.191841 97.125511 
C 134.191841 98.063146 134.564367 98.962503 135.227375 99.625511 
C 135.890383 100.288519 136.78974 100.661045 137.727375 100.661045 
z
" clip-path="url(#p9c5b0f340e)"/>
   </g>
   <g id="matplotlib.axis_1"/>
   <g id="matplotlib.axis_2"/>
   <g id="line2d_1">
    <path d="M 378.198328 243.235409 
L 342.736604 199.40949 
L 322.650741 174.751696 
L 306.287618 155.012017 
L 294.188867 140.720967 
L 281.625333 126.235496 
L 271.029543 114.356307 
L 257.696219 99.925911 
L 250.71609 92.632511 
L 244.378382 86.182211 
L 236.455145 78.366487 
L 229.130279 71.405365 
L 219.642066 62.798186 
L 211.707059 55.984525 
L 204.31809 49.979983 
L 198.156998 45.241143 
L 189.392294 38.948767 
L 183.906827 35.295838 
L 181.035198 33.475665 
L 172.816365 28.633855 
L 169.311911 26.742444 
L 161.942091 23.122416 
L 156.666851 20.843817 
L 151.85436 19.005056 
L 146.520767 17.247799 
L 139.900304 15.49932 
L 136.359074 14.770908 
L 129.567677 13.80053 
L 126.627785 13.562366 
L 123.254862 13.430769 
L 117.430365 13.575702 
L 113.456859 13.958442 
L 108.768666 14.722792 
L 103.993258 15.868382 
L 101.124221 16.743948 
L 97.431897 18.087849 
L 94.474319 19.348103 
L 91.246492 20.918671 
L 87.86248 22.794103 
L 83.61006 25.501381 
L 79.605375 28.430275 
L 75.050907 32.241318 
L 72.673002 34.447515 
L 69.079478 38.082412 
L 64.987317 42.693421 
L 62.678152 45.53336 
L 59.680857 49.494632 
L 55.286924 55.910298 
L 51.341253 62.354406 
L 48.457966 67.520016 
L 45.155067 73.967306 
L 42.270574 80.115525 
L 39.208096 87.243245 
L 35.951736 95.605881 
L 33.319337 103.059659 
L 30.953165 110.387791 
L 28.334069 119.335303 
L 25.742567 129.268708 
L 23.886253 137.231302 
L 21.776776 147.425435 
L 20.712014 153.179128 
L 19.233877 162.096037 
L 17.531537 174.358079 
L 16.740121 181.23792 
L 15.975536 189.132581 
L 15.167581 200.12026 
L 14.732782 209.087661 
L 14.514385 217.488521 
L 14.503156 227.42826 
L 14.6359 233.512545 
L 15.08557 243.244111 
L 15.814205 252.543429 
L 16.738889 260.811174 
L 17.355997 265.248829 
L 18.761995 273.511337 
L 19.980395 279.319379 
L 21.237977 284.429815 
L 22.729636 289.635211 
L 24.292261 294.327063 
L 26.626884 300.230659 
L 28.330805 303.878114 
L 30.161199 307.291881 
L 32.552086 311.09203 
L 34.773967 314.058124 
L 36.372518 315.900544 
L 39.132089 318.579274 
L 42.28267 320.959504 
L 44.067989 322.025824 
L 46.60587 323.227098 
L 48.46778 323.89264 
L 51.050024 324.539138 
L 53.649393 324.89131 
L 56.793446 324.952037 
L 58.859205 324.791139 
L 62.645629 324.117081 
L 64.601106 323.590006 
L 67.895583 322.446964 
L 70.073892 321.525715 
L 72.640152 320.281704 
L 72.640152 320.281704 
" clip-path="url(#p9c5b0f340e)" style="fill: none; stroke: #ffffff; stroke-linecap: square"/>
   </g>
   <g id="line2d_2">
    <path d="M 72.640152 320.281704 
L 77.921594 315.412135 
L 82.687862 310.678043 
L 87.088705 305.961591 
L 91.201635 301.189644 
L 94.908077 296.520784 
L 98.1705 292.056005 
L 100.985731 287.874887 
L 103.997593 282.982897 
L 106.737775 278.055941 
L 109.324968 272.860678 
L 111.529916 267.88031 
L 113.521704 262.78946 
L 115.240583 257.774987 
L 116.749579 252.704751 
L 118.105437 247.375013 
L 119.216878 242.18378 
L 120.398704 235.32593 
L 121.334914 228.075279 
L 121.903466 222.026557 
L 122.397563 214.256267 
L 122.699091 205.723276 
L 122.839167 194.49091 
L 123.038401 165.592754 
L 123.39377 156.769955 
L 123.894917 149.562425 
L 124.51624 143.363412 
L 125.422275 136.661754 
L 126.5178 130.41825 
L 127.683061 125.026632 
L 128.827631 120.521337 
L 130.437894 115.070206 
L 131.933814 110.661512 
L 134.102262 105.060157 
L 136.088815 100.530895 
L 137.727375 97.125511 
L 137.727375 97.125511 
" clip-path="url(#p9c5b0f340e)" style="fill: none; stroke: #000000; stroke-linecap: square"/>
   </g>
   <g id="patch_3">
    <path d="M 122.850295 186.387988 
Q 122.850303 185.941676 122.850273 187.731431 
" clip-path="url(#p9c5b0f340e)" style="fill: none; stroke: #000000; stroke-width: 2; stroke-linecap: round"/>
    <path d="M 117.850106 197.731348 
L 122.850273 187.731431 
L 127.850106 197.731515 
L 117.850106 197.731348 
z
" clip-path="url(#p9c5b0f340e)" style="stroke: #000000; stroke-width: 2; stroke-linecap: round"/>
   </g>
   <g id="text_1">
    <g clip-path="url(#p9c5b0f340e)">
     <!-- $Q$ -->
     <g transform="translate(89.418895 318.253893) scale(0.25 -0.25)">
      <defs>
       <path id="Cmmi10-51" d="M 1947 -141 
Q 1466 -141 1094 79 
Q 722 300 520 692 
Q 319 1084 319 1563 
Q 319 2259 714 2950 
Q 1109 3641 1756 4077 
Q 2403 4513 3109 4513 
Q 3475 4513 3778 4381 
Q 4081 4250 4290 4017 
Q 4500 3784 4614 3471 
Q 4728 3159 4728 2791 
Q 4728 2366 4581 1936 
Q 4434 1506 4171 1136 
Q 3909 766 3559 484 
Q 3209 203 2809 38 
Q 2850 -256 2934 -425 
Q 3019 -594 3256 -594 
Q 3506 -594 3726 -412 
Q 3947 -231 4006 13 
Q 4019 72 4078 72 
Q 4147 72 4147 -13 
Q 4100 -219 4008 -430 
Q 3916 -641 3786 -823 
Q 3656 -1006 3478 -1123 
Q 3300 -1241 3084 -1241 
Q 2547 -1241 2547 -550 
Q 2547 -509 2562 -332 
Q 2578 -156 2578 -44 
Q 2269 -141 1947 -141 
z
M 1709 300 
Q 1709 44 1991 44 
Q 2275 44 2591 184 
L 2591 244 
Q 2591 503 2509 648 
Q 2428 794 2194 794 
Q 2078 794 1964 723 
Q 1850 653 1779 539 
Q 1709 425 1709 300 
z
M 1544 288 
Q 1544 456 1637 612 
Q 1731 769 1881 864 
Q 2031 959 2203 959 
Q 2481 959 2607 771 
Q 2734 584 2778 281 
Q 3188 525 3500 978 
Q 3813 1431 3977 1973 
Q 4141 2516 4141 3003 
Q 4141 3356 4023 3656 
Q 3906 3956 3664 4140 
Q 3422 4325 3066 4325 
Q 2722 4325 2403 4156 
Q 2084 3988 1813 3706 
Q 1550 3434 1342 3032 
Q 1134 2631 1021 2193 
Q 909 1756 909 1356 
Q 909 947 1068 612 
Q 1228 278 1569 128 
Q 1544 194 1544 288 
z
" transform="scale(0.015625)"/>
      </defs>
      <use xlink:href="#Cmmi10-51" transform="translate(0 0.484375)"/>
     </g>
    </g>
   </g>
   <g id="text_2">
    <g clip-path="url(#p9c5b0f340e)">
     <!-- $R$ -->
     <g transform="translate(105.911755 117.41332) scale(0.25 -0.25)">
      <defs>
       <path id="Cmmi10-52" d="M 313 0 
Q 250 0 250 84 
Q 253 100 262 139 
Q 272 178 289 201 
Q 306 225 331 225 
Q 722 225 878 269 
Q 959 297 997 441 
L 1875 3956 
Q 1888 4019 1888 4044 
Q 1888 4113 1813 4122 
Q 1691 4147 1350 4147 
Q 1288 4147 1288 4231 
Q 1291 4247 1300 4286 
Q 1309 4325 1326 4348 
Q 1344 4372 1369 4372 
L 3309 4372 
Q 3541 4372 3791 4319 
Q 4041 4266 4250 4152 
Q 4459 4038 4593 3848 
Q 4728 3659 4728 3406 
Q 4728 3084 4515 2831 
Q 4303 2578 3978 2408 
Q 3653 2238 3347 2169 
Q 3597 2078 3756 1879 
Q 3916 1681 3916 1422 
Q 3916 1388 3914 1370 
Q 3913 1353 3909 1331 
L 3859 763 
Q 3853 638 3847 550 
Q 3841 463 3841 409 
Q 3841 234 3892 129 
Q 3944 25 4097 25 
Q 4297 25 4448 211 
Q 4600 397 4647 616 
Q 4675 672 4709 672 
L 4769 672 
Q 4831 672 4831 588 
Q 4784 403 4682 237 
Q 4581 72 4426 -34 
Q 4272 -141 4091 -141 
Q 3716 -141 3452 26 
Q 3188 194 3188 550 
Q 3188 684 3213 788 
L 3353 1356 
Q 3378 1434 3378 1538 
Q 3378 1803 3198 1954 
Q 3019 2106 2747 2106 
L 1959 2106 
L 1538 416 
Q 1522 363 1522 325 
Q 1522 259 1600 250 
Q 1722 225 2059 225 
Q 2125 225 2125 141 
Q 2103 50 2090 25 
Q 2078 0 2016 0 
L 313 0 
z
M 1997 2272 
L 2706 2272 
Q 3403 2272 3756 2625 
Q 3919 2788 4014 3039 
Q 4109 3291 4109 3541 
Q 4109 3778 3970 3912 
Q 3831 4047 3626 4097 
Q 3422 4147 3175 4147 
L 2747 4147 
Q 2572 4147 2515 4117 
Q 2459 4088 2413 3928 
L 1997 2272 
z
" transform="scale(0.015625)"/>
      </defs>
      <use xlink:href="#Cmmi10-52" transform="translate(0 0.6875)"/>
     </g>
    </g>
   </g>
   <g id="PathCollection_2">
    <path d="M 72.640152 323.817238 
C 73.577786 323.817238 74.477144 323.444711 75.140152 322.781704 
C 75.80316 322.118696 76.175686 321.219338 76.175686 320.281704 
C 76.175686 319.344069 75.80316 318.444711 75.140152 317.781704 
C 74.477144 317.118696 73.577786 316.74617 72.640152 316.74617 
C 71.702517 316.74617 70.80316 317.118696 70.140152 317.781704 
C 69.477144 318.444711 69.104618 319.344069 69.104618 320.281704 
C 69.104618 321.219338 69.477144 322.118696 70.140152 322.781704 
C 70.80316 323.444711 71.702517 323.817238 72.640152 323.817238 
z
" clip-path="url(#p9c5b0f340e)"/>
   </g>
  </g>
 </g>
 <defs>
  <clipPath id="p9c5b0f340e">
   <rect x="7.2" y="7.2" width="378.272805" height="324"/>
  </clipPath>
 </defs>
</svg>
