<?xml version="1.0" encoding="utf-8" standalone="no"?>
<!DOCTYPE svg PUBLIC "-//W3C//DTD SVG 1.1//EN"
  "http://www.w3.org/Graphics/SVG/1.1/DTD/svg11.dtd">
<svg xmlns:xlink="http://www.w3.org/1999/xlink" width="392.657728pt" height="338.4pt" viewBox="0 0 392.657728 338.4" xmlns="http://www.w3.org/2000/svg" version="1.1">
 <metadata>
  <rdf:RDF xmlns:dc="http://purl.org/dc/elements/1.1/" xmlns:cc="http://creativecommons.org/ns#" xmlns:rdf="http://www.w3.org/1999/02/22-rdf-syntax-ns#">
   <cc:Work>
    <dc:type rdf:resource="http://purl.org/dc/dcmitype/StillImage"/>
    <dc:date>2024-12-04T08:23:51.675139</dc:date>
    <dc:format>image/svg+xml</dc:format>
    <dc:creator>
     <cc:Agent>
      <dc:title>Matplotlib v3.6.2, https://matplotlib.org/</dc:title>
     </cc:Agent>
    </dc:creator>
   </cc:Work>
  </rdf:RDF>
 </metadata>
 <defs>
  <style type="text/css">*{stroke-linejoin: round; stroke-linecap: butt}</style>
 </defs>
 <g id="figure_1">
  <g id="patch_1">
   <path d="M 0 338.4 
L 392.657728 338.4 
L 392.657728 0 
L 0 0 
z
" style="fill: #ffffff"/>
  </g>
  <g id="axes_1">
   <g id="patch_2">
    <path d="M 7.2 331.2 
L 385.457728 331.2 
L 385.457728 7.2 
L 7.2 7.2 
z
" style="fill: #ffffff"/>
   </g>
   <g id="PathCollection_1">
    <path d="M 137.722393 100.665528 
C 138.660027 100.665528 139.559385 100.293002 140.222393 99.629994 
C 140.8854 98.966986 141.257926 98.067629 141.257926 97.129994 
C 141.257926 96.192359 140.8854 95.293002 140.222393 94.629994 
C 139.559385 93.966986 138.660027 93.59446 137.722393 93.59446 
C 136.784758 93.59446 135.8854 93.966986 135.222393 94.629994 
C 134.559385 95.293002 134.186859 96.192359 134.186859 97.129994 
C 134.186859 98.067629 134.559385 98.966986 135.222393 99.629994 
C 135.8854 100.293002 136.784758 100.665528 137.722393 100.665528 
z
" clip-path="url(#p7597191592)"/>
   </g>
   <g id="matplotlib.axis_1"/>
   <g id="matplotlib.axis_2"/>
   <g id="line2d_1">
    <path d="M 378.183541 243.233934 
L 346.217749 203.727769 
L 323.397444 175.678027 
L 308.212902 157.328774 
L 292.626774 138.914664 
L 280.355963 124.810588 
L 267.456924 110.444867 
L 259.309019 101.652658 
L 249.404793 91.298592 
L 243.538009 85.354099 
L 235.420155 77.380942 
L 228.121441 70.481234 
L 219.562531 62.741314 
L 212.029155 56.266768 
L 203.529096 49.371627 
L 197.841367 45.017369 
L 194.624138 42.651515 
L 184.777437 35.871829 
L 178.251398 31.784765 
L 172.965331 28.727445 
L 166.590116 25.358488 
L 160.292634 22.391284 
L 154.130481 19.855276 
L 146.783301 17.336538 
L 141.423525 15.866763 
L 138.777302 15.261212 
L 131.932672 14.081581 
L 125.61211 13.514698 
L 121.635265 13.430769 
L 116.998173 13.613497 
L 112.891833 14.039639 
L 109.768152 14.53773 
L 105.314442 15.52001 
L 101.586164 16.599824 
L 96.423706 18.505009 
L 92.70459 20.189499 
L 88.233383 22.582561 
L 83.853641 25.340878 
L 81.338517 27.121303 
L 78.178465 29.572748 
L 76.285339 31.16078 
L 73.195174 33.954656 
L 68.560636 38.642975 
L 65.652807 41.911985 
L 62.815487 45.363584 
L 59.581317 49.635694 
L 56.102951 54.664605 
L 53.345037 58.999606 
L 49.199501 66.15547 
L 45.622799 73.020481 
L 42.544753 79.511454 
L 39.993551 85.354133 
L 37.652028 91.132954 
L 34.453063 99.768276 
L 32.607612 105.198563 
L 29.920565 113.80256 
L 27.925399 120.825038 
L 25.536019 130.117251 
L 23.692316 138.113751 
L 21.50202 148.866193 
L 19.780889 158.64992 
L 18.837412 164.723468 
L 17.311544 176.172588 
L 16.136027 187.336837 
L 15.362416 197.061092 
L 14.850611 206.196074 
L 14.582088 214.015573 
L 14.484789 225.643025 
L 14.704614 235.531217 
L 15.1119 243.66196 
L 15.705709 251.376904 
L 16.485627 258.778458 
L 17.770902 267.910478 
L 18.829105 273.856449 
L 20.061122 279.669238 
L 21.62856 285.870359 
L 23.091165 290.780457 
L 25.143598 296.614355 
L 27.070553 301.225808 
L 28.707535 304.617665 
L 30.929772 308.585972 
L 33.314896 312.163846 
L 34.813455 314.103028 
L 36.209001 315.71893 
L 37.870969 317.425723 
L 39.439174 318.837654 
L 41.510065 320.433182 
L 43.010826 321.413651 
L 45.956003 322.948709 
L 48.45644 323.884763 
L 49.876926 324.279265 
L 52.289847 324.738287 
L 53.848685 324.901986 
L 57.323568 324.920478 
L 58.729904 324.800658 
L 60.690794 324.519036 
L 64.099973 323.730852 
L 67.891297 322.443106 
L 70.257233 321.436748 
L 72.637824 320.277088 
L 72.637824 320.277088 
" clip-path="url(#p7597191592)" style="fill: none; stroke: #ffffff; stroke-linecap: square"/>
   </g>
   <g id="line2d_2">
    <path d="M 72.637824 320.277088 
L 77.666913 315.648626 
L 82.250858 311.120186 
L 86.855722 306.213429 
L 90.881034 301.568446 
L 94.419317 297.151367 
L 98.172312 292.045145 
L 100.776021 288.189669 
L 104.082812 282.827859 
L 106.812432 277.904172 
L 109.317899 272.86491 
L 111.601092 267.697248 
L 113.636371 262.461855 
L 115.213233 257.845657 
L 116.86166 252.279114 
L 118.23579 246.791428 
L 119.548164 240.40918 
L 120.570599 234.123301 
L 121.427589 227.165372 
L 121.980378 220.97591 
L 122.459805 212.816361 
L 122.73372 203.893299 
L 122.84274 191.725566 
L 122.978408 167.887181 
L 123.293274 158.632088 
L 123.7521 151.268708 
L 124.383116 144.503591 
L 125.231292 137.896847 
L 126.356722 131.229368 
L 127.43295 126.087286 
L 128.770094 120.719816 
L 130.49284 114.887615 
L 132.480895 109.16202 
L 134.628994 103.803273 
L 136.939489 98.724102 
L 137.722393 97.129994 
L 137.722393 97.129994 
" clip-path="url(#p7597191592)" style="fill: none; stroke: #000000; stroke-linecap: square"/>
   </g>
   <g id="patch_3">
    <path d="M 122.84592 186.388832 
Q 122.845927 185.942537 122.845897 187.732311 
" clip-path="url(#p7597191592)" style="fill: none; stroke: #000000; stroke-width: 2; stroke-linecap: round"/>
    <path d="M 117.845731 197.732228 
L 122.845897 187.732311 
L 127.845731 197.732394 
L 117.845731 197.732228 
z
" clip-path="url(#p7597191592)" style="stroke: #000000; stroke-width: 2; stroke-linecap: round"/>
   </g>
   <g id="text_1">
    <g clip-path="url(#p7597191592)">
     <!-- $Q$ -->
     <g transform="translate(89.415475 318.249642) scale(0.25 -0.25)">
      <defs>
       <path id="Cmmi10-51" d="M 1947 -141 
Q 1466 -141 1094 79 
Q 722 300 520 692 
Q 319 1084 319 1563 
Q 319 2259 714 2950 
Q 1109 3641 1756 4077 
Q 2403 4513 3109 4513 
Q 3475 4513 3778 4381 
Q 4081 4250 4290 4017 
Q 4500 3784 4614 3471 
Q 4728 3159 4728 2791 
Q 4728 2366 4581 1936 
Q 4434 1506 4171 1136 
Q 3909 766 3559 484 
Q 3209 203 2809 38 
Q 2850 -256 2934 -425 
Q 3019 -594 3256 -594 
Q 3506 -594 3726 -412 
Q 3947 -231 4006 13 
Q 4019 72 4078 72 
Q 4147 72 4147 -13 
Q 4100 -219 4008 -430 
Q 3916 -641 3786 -823 
Q 3656 -1006 3478 -1123 
Q 3300 -1241 3084 -1241 
Q 2547 -1241 2547 -550 
Q 2547 -509 2562 -332 
Q 2578 -156 2578 -44 
Q 2269 -141 1947 -141 
z
M 1709 300 
Q 1709 44 1991 44 
Q 2275 44 2591 184 
L 2591 244 
Q 2591 503 2509 648 
Q 2428 794 2194 794 
Q 2078 794 1964 723 
Q 1850 653 1779 539 
Q 1709 425 1709 300 
z
M 1544 288 
Q 1544 456 1637 612 
Q 1731 769 1881 864 
Q 2031 959 2203 959 
Q 2481 959 2607 771 
Q 2734 584 2778 281 
Q 3188 525 3500 978 
Q 3813 1431 3977 1973 
Q 4141 2516 4141 3003 
Q 4141 3356 4023 3656 
Q 3906 3956 3664 4140 
Q 3422 4325 3066 4325 
Q 2722 4325 2403 4156 
Q 2084 3988 1813 3706 
Q 1550 3434 1342 3032 
Q 1134 2631 1021 2193 
Q 909 1756 909 1356 
Q 909 947 1068 612 
Q 1228 278 1569 128 
Q 1544 194 1544 288 
z
" transform="scale(0.015625)"/>
      </defs>
      <use xlink:href="#Cmmi10-51" transform="translate(0 0.484375)"/>
     </g>
    </g>
   </g>
   <g id="text_2">
    <g clip-path="url(#p7597191592)">
     <!-- $R$ -->
     <g transform="translate(105.907683 117.417257) scale(0.25 -0.25)">
      <defs>
       <path id="Cmmi10-52" d="M 313 0 
Q 250 0 250 84 
Q 253 100 262 139 
Q 272 178 289 201 
Q 306 225 331 225 
Q 722 225 878 269 
Q 959 297 997 441 
L 1875 3956 
Q 1888 4019 1888 4044 
Q 1888 4113 1813 4122 
Q 1691 4147 1350 4147 
Q 1288 4147 1288 4231 
Q 1291 4247 1300 4286 
Q 1309 4325 1326 4348 
Q 1344 4372 1369 4372 
L 3309 4372 
Q 3541 4372 3791 4319 
Q 4041 4266 4250 4152 
Q 4459 4038 4593 3848 
Q 4728 3659 4728 3406 
Q 4728 3084 4515 2831 
Q 4303 2578 3978 2408 
Q 3653 2238 3347 2169 
Q 3597 2078 3756 1879 
Q 3916 1681 3916 1422 
Q 3916 1388 3914 1370 
Q 3913 1353 3909 1331 
L 3859 763 
Q 3853 638 3847 550 
Q 3841 463 3841 409 
Q 3841 234 3892 129 
Q 3944 25 4097 25 
Q 4297 25 4448 211 
Q 4600 397 4647 616 
Q 4675 672 4709 672 
L 4769 672 
Q 4831 672 4831 588 
Q 4784 403 4682 237 
Q 4581 72 4426 -34 
Q 4272 -141 4091 -141 
Q 3716 -141 3452 26 
Q 3188 194 3188 550 
Q 3188 684 3213 788 
L 3353 1356 
Q 3378 1434 3378 1538 
Q 3378 1803 3198 1954 
Q 3019 2106 2747 2106 
L 1959 2106 
L 1538 416 
Q 1522 363 1522 325 
Q 1522 259 1600 250 
Q 1722 225 2059 225 
Q 2125 225 2125 141 
Q 2103 50 2090 25 
Q 2078 0 2016 0 
L 313 0 
z
M 1997 2272 
L 2706 2272 
Q 3403 2272 3756 2625 
Q 3919 2788 4014 3039 
Q 4109 3291 4109 3541 
Q 4109 3778 3970 3912 
Q 3831 4047 3626 4097 
Q 3422 4147 3175 4147 
L 2747 4147 
Q 2572 4147 2515 4117 
Q 2459 4088 2413 3928 
L 1997 2272 
z
" transform="scale(0.015625)"/>
      </defs>
      <use xlink:href="#Cmmi10-52" transform="translate(0 0.6875)"/>
     </g>
    </g>
   </g>
   <g id="PathCollection_2">
    <path d="M 72.637824 323.812622 
C 73.575458 323.812622 74.474816 323.440096 75.137824 322.777088 
C 75.800831 322.11408 76.173357 321.214722 76.173357 320.277088 
C 76.173357 319.339453 75.800831 318.440096 75.137824 317.777088 
C 74.474816 317.11408 73.575458 316.741554 72.637824 316.741554 
C 71.700189 316.741554 70.800831 317.11408 70.137824 317.777088 
C 69.474816 318.440096 69.10229 319.339453 69.10229 320.277088 
C 69.10229 321.214722 69.474816 322.11408 70.137824 322.777088 
C 70.800831 323.440096 71.700189 323.812622 72.637824 323.812622 
z
" clip-path="url(#p7597191592)"/>
   </g>
  </g>
 </g>
 <defs>
  <clipPath id="p7597191592">
   <rect x="7.2" y="7.2" width="378.257728" height="324"/>
  </clipPath>
 </defs>
</svg>
