<?xml version="1.0" encoding="utf-8" standalone="no"?>
<!DOCTYPE svg PUBLIC "-//W3C//DTD SVG 1.1//EN"
  "http://www.w3.org/Graphics/SVG/1.1/DTD/svg11.dtd">
<svg xmlns:xlink="http://www.w3.org/1999/xlink" width="392.69308pt" height="338.4pt" viewBox="0 0 392.69308 338.4" xmlns="http://www.w3.org/2000/svg" version="1.1">
 <metadata>
  <rdf:RDF xmlns:dc="http://purl.org/dc/elements/1.1/" xmlns:cc="http://creativecommons.org/ns#" xmlns:rdf="http://www.w3.org/1999/02/22-rdf-syntax-ns#">
   <cc:Work>
    <dc:type rdf:resource="http://purl.org/dc/dcmitype/StillImage"/>
    <dc:date>2024-11-20T07:41:22.531855</dc:date>
    <dc:format>image/svg+xml</dc:format>
    <dc:creator>
     <cc:Agent>
      <dc:title>Matplotlib v3.6.2, https://matplotlib.org/</dc:title>
     </cc:Agent>
    </dc:creator>
   </cc:Work>
  </rdf:RDF>
 </metadata>
 <defs>
  <style type="text/css">*{stroke-linejoin: round; stroke-linecap: butt}</style>
 </defs>
 <g id="figure_1">
  <g id="patch_1">
   <path d="M 0 338.4 
L 392.69308 338.4 
L 392.69308 0 
L 0 0 
z
" style="fill: #ffffff"/>
  </g>
  <g id="axes_1">
   <g id="patch_2">
    <path d="M 7.2 331.2 
L 385.49308 331.2 
L 385.49308 7.2 
L 7.2 7.2 
z
" style="fill: #ffffff"/>
   </g>
   <g id="PathCollection_1">
    <path d="M 378.218213 246.762995 
C 379.155848 246.762995 380.055205 246.390469 380.718213 245.727461 
C 381.381221 245.064453 381.753747 244.165096 381.753747 243.227461 
C 381.753747 242.289826 381.381221 241.390469 380.718213 240.727461 
C 380.055205 240.064453 379.155848 239.691927 378.218213 239.691927 
C 377.280578 239.691927 376.381221 240.064453 375.718213 240.727461 
C 375.055205 241.390469 374.682679 242.289826 374.682679 243.227461 
C 374.682679 244.165096 375.055205 245.064453 375.718213 245.727461 
C 376.381221 246.390469 377.280578 246.762995 378.218213 246.762995 
z
" clip-path="url(#p2a49764e4f)"/>
   </g>
   <g id="PathCollection_2">
    <path d="M 72.643964 323.813343 
C 73.581599 323.813343 74.480957 323.440817 75.143964 322.777809 
C 75.806972 322.114801 76.179498 321.215443 76.179498 320.277809 
C 76.179498 319.340174 75.806972 318.440817 75.143964 317.777809 
C 74.480957 317.114801 73.581599 316.742275 72.643964 316.742275 
C 71.70633 316.742275 70.806972 317.114801 70.143964 317.777809 
C 69.480957 318.440817 69.10843 319.340174 69.10843 320.277809 
C 69.10843 321.215443 69.480957 322.114801 70.143964 322.777809 
C 70.806972 323.440817 71.70633 323.813343 72.643964 323.813343 
z
" clip-path="url(#p2a49764e4f)"/>
   </g>
   <g id="matplotlib.axis_1"/>
   <g id="matplotlib.axis_2"/>
   <g id="line2d_1">
    <path d="M 378.218213 243.227461 
L 346.064426 203.488876 
L 323.101105 175.268102 
L 309.074992 158.31278 
L 297.612066 144.701996 
L 285.080463 130.147768 
L 278.245808 122.379702 
L 271.014884 114.309643 
L 259.763306 102.091789 
L 252.244564 94.183568 
L 240.515012 82.306673 
L 230.116181 72.298525 
L 225.578602 68.099392 
L 216.272264 59.832661 
L 208.640207 53.424215 
L 200.979742 47.354687 
L 194.710342 42.676059 
L 184.657346 35.756959 
L 179.511536 32.511583 
L 176.815643 30.895777 
L 170.462028 27.327316 
L 164.330591 24.217573 
L 159.11989 21.846742 
L 152.479593 19.207976 
L 147.912737 17.654904 
L 142.023355 15.984378 
L 138.367443 15.144389 
L 134.879931 14.489834 
L 129.088175 13.73334 
L 124.866064 13.454152 
L 120.055829 13.430769 
L 115.831806 13.681755 
L 111.103427 14.279734 
L 109.662924 14.531159 
L 105.778636 15.376826 
L 101.816788 16.501168 
L 99.754983 17.195307 
L 96.677018 18.37598 
L 92.750524 20.143651 
L 88.504178 22.403057 
L 84.696452 24.75484 
L 80.794981 27.504223 
L 77.273086 30.299941 
L 73.783719 33.382475 
L 71.135368 35.942296 
L 66.650239 40.741879 
L 63.170998 44.897944 
L 58.302501 51.412696 
L 55.914802 54.933155 
L 52.32667 60.667136 
L 48.753731 66.958617 
L 45.96002 72.328345 
L 43.079315 78.327754 
L 40.393815 84.393592 
L 37.675606 91.059289 
L 34.86094 98.602302 
L 31.685097 108.041137 
L 29.345395 115.755274 
L 27.853769 121.078003 
L 25.725492 129.329947 
L 23.207289 140.354459 
L 21.332308 149.762466 
L 19.892466 157.962507 
L 18.601079 166.341005 
L 17.119164 177.812387 
L 16.073526 188.02379 
L 15.19675 199.640453 
L 14.747988 208.692961 
L 14.503414 218.337132 
L 14.523417 228.738126 
L 14.791572 237.655876 
L 15.287716 246.234528 
L 16.031405 254.709479 
L 16.685089 260.377556 
L 17.683682 267.358157 
L 18.624928 272.77945 
L 19.75584 278.309936 
L 21.221937 284.359256 
L 22.801402 289.856942 
L 24.321569 294.399987 
L 26.080211 298.942131 
L 28.123356 303.452092 
L 30.26504 307.464293 
L 32.264804 310.663911 
L 33.716688 312.702333 
L 36.110726 315.608058 
L 38.656295 318.153678 
L 41.27531 320.26526 
L 42.921798 321.35815 
L 45.496583 322.740564 
L 47.225426 323.463348 
L 50.218479 324.360229 
L 53.120379 324.838723 
L 55.463193 324.969231 
L 57.432842 324.91516 
L 60.757109 324.509268 
L 63.533612 323.889416 
L 66.220388 323.064465 
L 70.471906 321.341672 
L 72.643964 320.277809 
L 72.643964 320.277809 
" clip-path="url(#p2a49764e4f)" style="fill: none; stroke: #000000; stroke-linecap: square"/>
   </g>
   <g id="patch_3">
    <path d="M 100.093621 17.076052 
Q 99.991222 17.111988 101.99873 16.407457 
" clip-path="url(#p2a49764e4f)" style="fill: none; stroke: #000000; stroke-width: 2; stroke-linecap: round"/>
    <path d="M 113.090257 17.813879 
L 101.99873 16.407457 
L 109.778784 8.378089 
L 113.090257 17.813879 
z
" clip-path="url(#p2a49764e4f)" style="stroke: #000000; stroke-width: 2; stroke-linecap: round"/>
   </g>
   <g id="text_1">
    <g clip-path="url(#p2a49764e4f)">
     <!-- $P$ -->
     <g transform="translate(361.166496 272.442692) scale(0.25 -0.25)">
      <defs>
       <path id="Cmmi10-50" d="M 313 0 
Q 250 0 250 84 
Q 253 100 262 139 
Q 272 178 289 201 
Q 306 225 331 225 
Q 722 225 878 269 
Q 959 297 997 441 
L 1875 3956 
Q 1888 4019 1888 4044 
Q 1888 4113 1813 4122 
Q 1691 4147 1350 4147 
Q 1288 4147 1288 4231 
Q 1291 4247 1300 4286 
Q 1309 4325 1326 4348 
Q 1344 4372 1369 4372 
L 3578 4372 
Q 3881 4372 4165 4264 
Q 4450 4156 4631 3934 
Q 4813 3713 4813 3397 
Q 4813 2991 4527 2672 
Q 4241 2353 3814 2175 
Q 3388 1997 2988 1997 
L 1947 1997 
L 1556 416 
Q 1544 353 1544 325 
Q 1544 300 1551 283 
Q 1559 266 1573 261 
Q 1588 256 1619 250 
Q 1741 225 2081 225 
Q 2144 225 2144 141 
Q 2122 50 2109 25 
Q 2097 0 2034 0 
L 313 0 
z
M 1978 2188 
L 2875 2188 
Q 3497 2188 3822 2522 
Q 3988 2688 4092 3000 
Q 4197 3313 4197 3566 
Q 4197 3881 3956 4014 
Q 3716 4147 3359 4147 
L 2747 4147 
Q 2572 4147 2515 4117 
Q 2459 4088 2413 3928 
L 1978 2188 
z
" transform="scale(0.015625)"/>
      </defs>
      <use xlink:href="#Cmmi10-50" transform="translate(0 0.6875)"/>
     </g>
    </g>
   </g>
   <g id="text_2">
    <g clip-path="url(#p2a49764e4f)">
     <!-- $Q$ -->
     <g transform="translate(84.960757 322.712888) scale(0.25 -0.25)">
      <defs>
       <path id="Cmmi10-51" d="M 1947 -141 
Q 1466 -141 1094 79 
Q 722 300 520 692 
Q 319 1084 319 1563 
Q 319 2259 714 2950 
Q 1109 3641 1756 4077 
Q 2403 4513 3109 4513 
Q 3475 4513 3778 4381 
Q 4081 4250 4290 4017 
Q 4500 3784 4614 3471 
Q 4728 3159 4728 2791 
Q 4728 2366 4581 1936 
Q 4434 1506 4171 1136 
Q 3909 766 3559 484 
Q 3209 203 2809 38 
Q 2850 -256 2934 -425 
Q 3019 -594 3256 -594 
Q 3506 -594 3726 -412 
Q 3947 -231 4006 13 
Q 4019 72 4078 72 
Q 4147 72 4147 -13 
Q 4100 -219 4008 -430 
Q 3916 -641 3786 -823 
Q 3656 -1006 3478 -1123 
Q 3300 -1241 3084 -1241 
Q 2547 -1241 2547 -550 
Q 2547 -509 2562 -332 
Q 2578 -156 2578 -44 
Q 2269 -141 1947 -141 
z
M 1709 300 
Q 1709 44 1991 44 
Q 2275 44 2591 184 
L 2591 244 
Q 2591 503 2509 648 
Q 2428 794 2194 794 
Q 2078 794 1964 723 
Q 1850 653 1779 539 
Q 1709 425 1709 300 
z
M 1544 288 
Q 1544 456 1637 612 
Q 1731 769 1881 864 
Q 2031 959 2203 959 
Q 2481 959 2607 771 
Q 2734 584 2778 281 
Q 3188 525 3500 978 
Q 3813 1431 3977 1973 
Q 4141 2516 4141 3003 
Q 4141 3356 4023 3656 
Q 3906 3956 3664 4140 
Q 3422 4325 3066 4325 
Q 2722 4325 2403 4156 
Q 2084 3988 1813 3706 
Q 1550 3434 1342 3032 
Q 1134 2631 1021 2193 
Q 909 1756 909 1356 
Q 909 947 1068 612 
Q 1228 278 1569 128 
Q 1544 194 1544 288 
z
" transform="scale(0.015625)"/>
      </defs>
      <use xlink:href="#Cmmi10-51" transform="translate(0 0.484375)"/>
     </g>
    </g>
   </g>
  </g>
 </g>
 <defs>
  <clipPath id="p2a49764e4f">
   <rect x="7.2" y="7.2" width="378.29308" height="324"/>
  </clipPath>
 </defs>
</svg>
