<?xml version="1.0" encoding="utf-8" standalone="no"?>
<!DOCTYPE svg PUBLIC "-//W3C//DTD SVG 1.1//EN"
  "http://www.w3.org/Graphics/SVG/1.1/DTD/svg11.dtd">
<svg xmlns:xlink="http://www.w3.org/1999/xlink" width="392.689134pt" height="338.4pt" viewBox="0 0 392.689134 338.4" xmlns="http://www.w3.org/2000/svg" version="1.1">
 <metadata>
  <rdf:RDF xmlns:dc="http://purl.org/dc/elements/1.1/" xmlns:cc="http://creativecommons.org/ns#" xmlns:rdf="http://www.w3.org/1999/02/22-rdf-syntax-ns#">
   <cc:Work>
    <dc:type rdf:resource="http://purl.org/dc/dcmitype/StillImage"/>
    <dc:date>2024-12-04T07:51:50.810180</dc:date>
    <dc:format>image/svg+xml</dc:format>
    <dc:creator>
     <cc:Agent>
      <dc:title>Matplotlib v3.6.2, https://matplotlib.org/</dc:title>
     </cc:Agent>
    </dc:creator>
   </cc:Work>
  </rdf:RDF>
 </metadata>
 <defs>
  <style type="text/css">*{stroke-linejoin: round; stroke-linecap: butt}</style>
 </defs>
 <g id="figure_1">
  <g id="patch_1">
   <path d="M 0 338.4 
L 392.689134 338.4 
L 392.689134 0 
L 0 0 
z
" style="fill: #ffffff"/>
  </g>
  <g id="axes_1">
   <g id="patch_2">
    <path d="M 7.2 331.2 
L 385.489134 331.2 
L 385.489134 7.2 
L 7.2 7.2 
z
" style="fill: #ffffff"/>
   </g>
   <g id="PathCollection_1">
    <path d="M 378.214343 246.762726 
C 379.151978 246.762726 380.051335 246.3902 380.714343 245.727192 
C 381.377351 245.064184 381.749877 244.164826 381.749877 243.227192 
C 381.749877 242.289557 381.377351 241.3902 380.714343 240.727192 
C 380.051335 240.064184 379.151978 239.691658 378.214343 239.691658 
C 377.276709 239.691658 376.377351 240.064184 375.714343 240.727192 
C 375.051335 241.3902 374.678809 242.289557 374.678809 243.227192 
C 374.678809 244.164826 375.051335 245.064184 375.714343 245.727192 
C 376.377351 246.3902 377.276709 246.762726 378.214343 246.762726 
z
" clip-path="url(#pe4bd9d3007)"/>
   </g>
   <g id="PathCollection_2">
    <path d="M 72.642944 323.812355 
C 73.580579 323.812355 74.479937 323.439829 75.142944 322.776821 
C 75.805952 322.113813 76.178478 321.214456 76.178478 320.276821 
C 76.178478 319.339186 75.805952 318.439829 75.142944 317.776821 
C 74.479937 317.113813 73.580579 316.741287 72.642944 316.741287 
C 71.70531 316.741287 70.805952 317.113813 70.142944 317.776821 
C 69.479937 318.439829 69.10741 319.339186 69.10741 320.276821 
C 69.10741 321.214456 69.479937 322.113813 70.142944 322.776821 
C 70.805952 323.439829 71.70531 323.812355 72.642944 323.812355 
z
" clip-path="url(#pe4bd9d3007)"/>
   </g>
   <g id="matplotlib.axis_1"/>
   <g id="matplotlib.axis_2"/>
   <g id="line2d_1">
    <path d="M 378.214343 243.227192 
L 346.836981 204.44859 
L 323.698692 176.000889 
L 306.44877 155.176883 
L 294.002798 140.476504 
L 284.572858 129.570666 
L 273.691772 117.282581 
L 266.32484 109.168098 
L 254.937446 96.994791 
L 244.743737 86.524105 
L 233.551443 75.550698 
L 224.450219 67.075452 
L 215.066733 58.800897 
L 207.621883 52.599232 
L 198.376022 45.382306 
L 197.4808 44.713623 
L 188.595491 38.381735 
L 181.957995 34.031512 
L 175.976183 30.407674 
L 168.333449 26.212364 
L 163.709407 23.924213 
L 158.156606 21.439423 
L 152.521365 19.225649 
L 148.670188 17.899643 
L 145.341923 16.880934 
L 137.775903 15.025321 
L 132.55243 14.137345 
L 128.461495 13.679071 
L 124.093225 13.430769 
L 118.599053 13.489784 
L 115.93036 13.674655 
L 111.538708 14.211881 
L 107.37632 15.000478 
L 105.32117 15.494421 
L 99.945509 17.129346 
L 94.832155 19.170451 
L 91.125131 20.965853 
L 88.775912 22.248357 
L 85.096985 24.493424 
L 80.52439 27.709127 
L 77.255324 30.315652 
L 74.913214 32.35016 
L 71.361728 35.716453 
L 66.490221 40.924969 
L 63.637452 44.318004 
L 61.551858 46.970766 
L 57.736188 52.227625 
L 54.22462 57.565296 
L 50.863533 63.169594 
L 47.719568 68.897666 
L 45.750787 72.747454 
L 43.018821 78.458811 
L 40.730881 83.6048 
L 37.412563 91.734475 
L 34.352954 100.040507 
L 31.211732 109.543932 
L 29.477981 115.297183 
L 27.276158 123.234305 
L 25.184822 131.56729 
L 23.254675 140.12974 
L 21.655241 148.049363 
L 20.395219 154.980351 
L 18.514692 166.943031 
L 17.217635 176.959646 
L 16.19555 186.684862 
L 15.267661 198.49749 
L 14.811325 207.099981 
L 14.509636 217.829339 
L 14.490758 226.293872 
L 14.737446 236.371513 
L 15.120199 243.781125 
L 15.631069 250.532001 
L 16.43969 258.385423 
L 17.596138 266.807642 
L 18.375378 271.428903 
L 19.576376 277.491987 
L 21.068285 283.774689 
L 22.813324 289.896248 
L 24.878723 295.914815 
L 25.799686 298.262976 
L 27.130216 301.352597 
L 28.90542 304.994742 
L 31.406534 309.349729 
L 33.41642 312.298893 
L 35.062306 314.400984 
L 37.928551 317.478262 
L 40.057133 319.342382 
L 42.656707 321.193131 
L 44.493607 322.246636 
L 47.707621 323.636608 
L 49.531771 324.19139 
L 51.511411 324.617745 
L 54.04176 324.915221 
L 55.810116 324.969231 
L 58.339996 324.841401 
L 60.897632 324.482651 
L 64.03241 323.75125 
L 66.004472 323.137244 
L 68.621538 322.150394 
L 72.642944 320.276821 
L 72.642944 320.276821 
" clip-path="url(#pe4bd9d3007)" style="fill: none; stroke: #000000; stroke-linecap: square"/>
   </g>
   <g id="patch_3">
    <path d="M 99.887549 17.149764 
Q 99.989947 17.113828 97.982438 17.81836 
" clip-path="url(#pe4bd9d3007)" style="fill: none; stroke: #000000; stroke-width: 2; stroke-linecap: round"/>
    <path d="M 86.890911 16.411938 
L 97.982438 17.81836 
L 90.202384 25.847728 
L 86.890911 16.411938 
z
" clip-path="url(#pe4bd9d3007)" style="stroke: #000000; stroke-width: 2; stroke-linecap: round"/>
   </g>
   <g id="text_1">
    <g clip-path="url(#pe4bd9d3007)">
     <!-- $P$ -->
     <g transform="translate(361.162709 272.442214) scale(0.25 -0.25)">
      <defs>
       <path id="Cmmi10-50" d="M 313 0 
Q 250 0 250 84 
Q 253 100 262 139 
Q 272 178 289 201 
Q 306 225 331 225 
Q 722 225 878 269 
Q 959 297 997 441 
L 1875 3956 
Q 1888 4019 1888 4044 
Q 1888 4113 1813 4122 
Q 1691 4147 1350 4147 
Q 1288 4147 1288 4231 
Q 1291 4247 1300 4286 
Q 1309 4325 1326 4348 
Q 1344 4372 1369 4372 
L 3578 4372 
Q 3881 4372 4165 4264 
Q 4450 4156 4631 3934 
Q 4813 3713 4813 3397 
Q 4813 2991 4527 2672 
Q 4241 2353 3814 2175 
Q 3388 1997 2988 1997 
L 1947 1997 
L 1556 416 
Q 1544 353 1544 325 
Q 1544 300 1551 283 
Q 1559 266 1573 261 
Q 1588 256 1619 250 
Q 1741 225 2081 225 
Q 2144 225 2144 141 
Q 2122 50 2109 25 
Q 2097 0 2034 0 
L 313 0 
z
M 1978 2188 
L 2875 2188 
Q 3497 2188 3822 2522 
Q 3988 2688 4092 3000 
Q 4197 3313 4197 3566 
Q 4197 3881 3956 4014 
Q 3716 4147 3359 4147 
L 2747 4147 
Q 2572 4147 2515 4117 
Q 2459 4088 2413 3928 
L 1978 2188 
z
" transform="scale(0.015625)"/>
      </defs>
      <use xlink:href="#Cmmi10-50" transform="translate(0 0.6875)"/>
     </g>
    </g>
   </g>
   <g id="text_2">
    <g clip-path="url(#pe4bd9d3007)">
     <!-- $Q$ -->
     <g transform="translate(84.959529 322.711942) scale(0.25 -0.25)">
      <defs>
       <path id="Cmmi10-51" d="M 1947 -141 
Q 1466 -141 1094 79 
Q 722 300 520 692 
Q 319 1084 319 1563 
Q 319 2259 714 2950 
Q 1109 3641 1756 4077 
Q 2403 4513 3109 4513 
Q 3475 4513 3778 4381 
Q 4081 4250 4290 4017 
Q 4500 3784 4614 3471 
Q 4728 3159 4728 2791 
Q 4728 2366 4581 1936 
Q 4434 1506 4171 1136 
Q 3909 766 3559 484 
Q 3209 203 2809 38 
Q 2850 -256 2934 -425 
Q 3019 -594 3256 -594 
Q 3506 -594 3726 -412 
Q 3947 -231 4006 13 
Q 4019 72 4078 72 
Q 4147 72 4147 -13 
Q 4100 -219 4008 -430 
Q 3916 -641 3786 -823 
Q 3656 -1006 3478 -1123 
Q 3300 -1241 3084 -1241 
Q 2547 -1241 2547 -550 
Q 2547 -509 2562 -332 
Q 2578 -156 2578 -44 
Q 2269 -141 1947 -141 
z
M 1709 300 
Q 1709 44 1991 44 
Q 2275 44 2591 184 
L 2591 244 
Q 2591 503 2509 648 
Q 2428 794 2194 794 
Q 2078 794 1964 723 
Q 1850 653 1779 539 
Q 1709 425 1709 300 
z
M 1544 288 
Q 1544 456 1637 612 
Q 1731 769 1881 864 
Q 2031 959 2203 959 
Q 2481 959 2607 771 
Q 2734 584 2778 281 
Q 3188 525 3500 978 
Q 3813 1431 3977 1973 
Q 4141 2516 4141 3003 
Q 4141 3356 4023 3656 
Q 3906 3956 3664 4140 
Q 3422 4325 3066 4325 
Q 2722 4325 2403 4156 
Q 2084 3988 1813 3706 
Q 1550 3434 1342 3032 
Q 1134 2631 1021 2193 
Q 909 1756 909 1356 
Q 909 947 1068 612 
Q 1228 278 1569 128 
Q 1544 194 1544 288 
z
" transform="scale(0.015625)"/>
      </defs>
      <use xlink:href="#Cmmi10-51" transform="translate(0 0.484375)"/>
     </g>
    </g>
   </g>
  </g>
 </g>
 <defs>
  <clipPath id="pe4bd9d3007">
   <rect x="7.2" y="7.2" width="378.289134" height="324"/>
  </clipPath>
 </defs>
</svg>
