<?xml version="1.0" encoding="utf-8" standalone="no"?>
<!DOCTYPE svg PUBLIC "-//W3C//DTD SVG 1.1//EN"
  "http://www.w3.org/Graphics/SVG/1.1/DTD/svg11.dtd">
<svg xmlns:xlink="http://www.w3.org/1999/xlink" width="392.655398pt" height="338.4pt" viewBox="0 0 392.655398 338.4" xmlns="http://www.w3.org/2000/svg" version="1.1">
 <metadata>
  <rdf:RDF xmlns:dc="http://purl.org/dc/elements/1.1/" xmlns:cc="http://creativecommons.org/ns#" xmlns:rdf="http://www.w3.org/1999/02/22-rdf-syntax-ns#">
   <cc:Work>
    <dc:type rdf:resource="http://purl.org/dc/dcmitype/StillImage"/>
    <dc:date>2024-12-04T07:48:56.549229</dc:date>
    <dc:format>image/svg+xml</dc:format>
    <dc:creator>
     <cc:Agent>
      <dc:title>Matplotlib v3.6.2, https://matplotlib.org/</dc:title>
     </cc:Agent>
    </dc:creator>
   </cc:Work>
  </rdf:RDF>
 </metadata>
 <defs>
  <style type="text/css">*{stroke-linejoin: round; stroke-linecap: butt}</style>
 </defs>
 <g id="figure_1">
  <g id="patch_1">
   <path d="M 0 338.4 
L 392.655398 338.4 
L 392.655398 0 
L 0 0 
z
" style="fill: #ffffff"/>
  </g>
  <g id="axes_1">
   <g id="patch_2">
    <path d="M 7.2 331.2 
L 385.455398 331.2 
L 385.455398 7.2 
L 7.2 7.2 
z
" style="fill: #ffffff"/>
   </g>
   <g id="PathCollection_1">
    <path d="M 137.719895 100.666179 
C 138.65753 100.666179 139.556888 100.293653 140.219895 99.630645 
C 140.882903 98.967637 141.255429 98.06828 141.255429 97.130645 
C 141.255429 96.19301 140.882903 95.293653 140.219895 94.630645 
C 139.556888 93.967637 138.65753 93.595111 137.719895 93.595111 
C 136.782261 93.595111 135.882903 93.967637 135.219895 94.630645 
C 134.556888 95.293653 134.184361 96.19301 134.184361 97.130645 
C 134.184361 98.06828 134.556888 98.967637 135.219895 99.630645 
C 135.882903 100.293653 136.782261 100.666179 137.719895 100.666179 
z
" clip-path="url(#p29fddf9ea1)"/>
   </g>
   <g id="matplotlib.axis_1"/>
   <g id="matplotlib.axis_2"/>
   <g id="line2d_1">
    <path d="M 378.181256 243.234714 
L 341.951228 198.460175 
L 319.491428 170.930245 
L 304.900209 153.378156 
L 290.410195 136.34215 
L 280.715091 125.221049 
L 268.00316 111.045791 
L 258.496535 100.792212 
L 247.890862 89.75369 
L 238.942243 80.805965 
L 233.811013 75.840108 
L 225.830897 68.374407 
L 216.888726 60.408524 
L 209.736195 54.365223 
L 204.590346 50.210166 
L 200.862324 47.305754 
L 191.56332 40.47051 
L 187.75469 37.848419 
L 179.905622 32.790855 
L 173.404243 28.974348 
L 167.813806 25.979149 
L 161.651818 23.00202 
L 160.843231 22.63757 
L 153.437059 19.595096 
L 146.614437 17.286719 
L 141.934914 15.994288 
L 137.862323 15.071931 
L 132.41279 14.146504 
L 130.5877 13.918621 
L 126.443265 13.560094 
L 120.399985 13.449883 
L 117.971356 13.549824 
L 112.423313 14.104816 
L 110.284802 14.444835 
L 106.229049 15.291453 
L 101.02603 16.782825 
L 100.337639 17.015703 
L 95.040904 19.099351 
L 91.032841 21.035263 
L 86.992576 23.320227 
L 81.653607 26.888853 
L 77.656196 30.0002 
L 75.136662 32.167879 
L 71.067861 36.027948 
L 66.924236 40.447915 
L 65.094894 42.567293 
L 60.263641 48.700274 
L 56.797958 53.618706 
L 52.44943 60.474402 
L 48.906372 66.68868 
L 45.438439 73.388741 
L 42.408306 79.807756 
L 39.438046 86.681617 
L 36.635063 93.773502 
L 33.671708 102.01702 
L 30.361767 112.319179 
L 27.87745 120.992534 
L 25.081521 132.00344 
L 23.045603 141.116831 
L 20.944933 151.866066 
L 19.420317 160.884485 
L 18.038354 170.393614 
L 16.81155 180.549957 
L 15.86977 190.338301 
L 15.279472 198.27943 
L 14.827396 206.666798 
L 14.559394 214.89161 
L 14.477462 224.946616 
L 14.652365 234.110392 
L 15.096776 243.464419 
L 15.685993 251.188803 
L 16.687167 260.427183 
L 17.583152 266.750117 
L 18.491921 272.089815 
L 19.756181 278.332646 
L 20.927297 283.245385 
L 22.514034 288.938191 
L 23.993953 293.488698 
L 25.766181 298.192955 
L 26.889241 300.828959 
L 29.078747 305.334093 
L 31.205173 309.037716 
L 33.930635 312.991705 
L 36.235774 315.75192 
L 38.509776 318.026376 
L 39.782345 319.125488 
L 41.501855 320.430084 
L 43.666777 321.80107 
L 46.676445 323.253197 
L 47.733335 323.648339 
L 50.366517 324.394836 
L 51.960565 324.69192 
L 55.925257 324.969231 
L 57.02181 324.937655 
L 59.615812 324.690084 
L 62.427206 324.16366 
L 65.988412 323.141159 
L 68.467847 322.211534 
L 72.635269 320.277936 
L 72.635269 320.277936 
" clip-path="url(#p29fddf9ea1)" style="fill: none; stroke: #ffffff; stroke-linecap: square"/>
   </g>
   <g id="line2d_2">
    <path d="M 72.635269 320.277936 
L 77.792787 315.526877 
L 81.884908 311.492115 
L 86.135799 307.005174 
L 90.099734 302.497157 
L 94.371266 297.211279 
L 98.207953 291.991452 
L 101.443337 287.149965 
L 104.395127 282.286219 
L 106.641349 278.224564 
L 109.221788 273.064676 
L 111.209363 268.62552 
L 112.986398 264.205144 
L 114.891386 258.829383 
L 116.279662 254.341539 
L 117.818645 248.551335 
L 119.075316 242.864884 
L 120.220728 236.439091 
L 121.093949 230.120235 
L 121.720416 224.112936 
L 122.248652 216.910506 
L 122.613236 208.631362 
L 122.809629 198.121538 
L 122.847617 180.530636 
L 122.989268 167.285356 
L 123.294085 158.564286 
L 123.794037 150.704353 
L 124.427366 144.083822 
L 125.073458 138.973776 
L 125.959265 133.381255 
L 127.174197 127.232428 
L 128.467397 121.84897 
L 129.770448 117.206353 
L 131.526369 111.794956 
L 133.477682 106.580155 
L 135.834154 101.073754 
L 137.719895 97.130645 
L 137.719895 97.130645 
" clip-path="url(#p29fddf9ea1)" style="fill: none; stroke: #000000; stroke-linecap: square"/>
   </g>
   <g id="patch_3">
    <path d="M 122.843409 186.389561 
Q 122.843417 185.943267 122.843387 187.73304 
" clip-path="url(#p29fddf9ea1)" style="fill: none; stroke: #000000; stroke-width: 2; stroke-linecap: round"/>
    <path d="M 117.84322 197.732957 
L 122.843387 187.73304 
L 127.84322 197.733123 
L 117.84322 197.732957 
z
" clip-path="url(#p29fddf9ea1)" style="stroke: #000000; stroke-width: 2; stroke-linecap: round"/>
   </g>
   <g id="text_1">
    <g clip-path="url(#p29fddf9ea1)">
     <!-- $Q$ -->
     <g transform="translate(89.412944 318.250482) scale(0.25 -0.25)">
      <defs>
       <path id="Cmmi10-51" d="M 1947 -141 
Q 1466 -141 1094 79 
Q 722 300 520 692 
Q 319 1084 319 1563 
Q 319 2259 714 2950 
Q 1109 3641 1756 4077 
Q 2403 4513 3109 4513 
Q 3475 4513 3778 4381 
Q 4081 4250 4290 4017 
Q 4500 3784 4614 3471 
Q 4728 3159 4728 2791 
Q 4728 2366 4581 1936 
Q 4434 1506 4171 1136 
Q 3909 766 3559 484 
Q 3209 203 2809 38 
Q 2850 -256 2934 -425 
Q 3019 -594 3256 -594 
Q 3506 -594 3726 -412 
Q 3947 -231 4006 13 
Q 4019 72 4078 72 
Q 4147 72 4147 -13 
Q 4100 -219 4008 -430 
Q 3916 -641 3786 -823 
Q 3656 -1006 3478 -1123 
Q 3300 -1241 3084 -1241 
Q 2547 -1241 2547 -550 
Q 2547 -509 2562 -332 
Q 2578 -156 2578 -44 
Q 2269 -141 1947 -141 
z
M 1709 300 
Q 1709 44 1991 44 
Q 2275 44 2591 184 
L 2591 244 
Q 2591 503 2509 648 
Q 2428 794 2194 794 
Q 2078 794 1964 723 
Q 1850 653 1779 539 
Q 1709 425 1709 300 
z
M 1544 288 
Q 1544 456 1637 612 
Q 1731 769 1881 864 
Q 2031 959 2203 959 
Q 2481 959 2607 771 
Q 2734 584 2778 281 
Q 3188 525 3500 978 
Q 3813 1431 3977 1973 
Q 4141 2516 4141 3003 
Q 4141 3356 4023 3656 
Q 3906 3956 3664 4140 
Q 3422 4325 3066 4325 
Q 2722 4325 2403 4156 
Q 2084 3988 1813 3706 
Q 1550 3434 1342 3032 
Q 1134 2631 1021 2193 
Q 909 1756 909 1356 
Q 909 947 1068 612 
Q 1228 278 1569 128 
Q 1544 194 1544 288 
z
" transform="scale(0.015625)"/>
      </defs>
      <use xlink:href="#Cmmi10-51" transform="translate(0 0.484375)"/>
     </g>
    </g>
   </g>
   <g id="text_2">
    <g clip-path="url(#p29fddf9ea1)">
     <!-- $R$ -->
     <g transform="translate(105.905166 117.41792) scale(0.25 -0.25)">
      <defs>
       <path id="Cmmi10-52" d="M 313 0 
Q 250 0 250 84 
Q 253 100 262 139 
Q 272 178 289 201 
Q 306 225 331 225 
Q 722 225 878 269 
Q 959 297 997 441 
L 1875 3956 
Q 1888 4019 1888 4044 
Q 1888 4113 1813 4122 
Q 1691 4147 1350 4147 
Q 1288 4147 1288 4231 
Q 1291 4247 1300 4286 
Q 1309 4325 1326 4348 
Q 1344 4372 1369 4372 
L 3309 4372 
Q 3541 4372 3791 4319 
Q 4041 4266 4250 4152 
Q 4459 4038 4593 3848 
Q 4728 3659 4728 3406 
Q 4728 3084 4515 2831 
Q 4303 2578 3978 2408 
Q 3653 2238 3347 2169 
Q 3597 2078 3756 1879 
Q 3916 1681 3916 1422 
Q 3916 1388 3914 1370 
Q 3913 1353 3909 1331 
L 3859 763 
Q 3853 638 3847 550 
Q 3841 463 3841 409 
Q 3841 234 3892 129 
Q 3944 25 4097 25 
Q 4297 25 4448 211 
Q 4600 397 4647 616 
Q 4675 672 4709 672 
L 4769 672 
Q 4831 672 4831 588 
Q 4784 403 4682 237 
Q 4581 72 4426 -34 
Q 4272 -141 4091 -141 
Q 3716 -141 3452 26 
Q 3188 194 3188 550 
Q 3188 684 3213 788 
L 3353 1356 
Q 3378 1434 3378 1538 
Q 3378 1803 3198 1954 
Q 3019 2106 2747 2106 
L 1959 2106 
L 1538 416 
Q 1522 363 1522 325 
Q 1522 259 1600 250 
Q 1722 225 2059 225 
Q 2125 225 2125 141 
Q 2103 50 2090 25 
Q 2078 0 2016 0 
L 313 0 
z
M 1997 2272 
L 2706 2272 
Q 3403 2272 3756 2625 
Q 3919 2788 4014 3039 
Q 4109 3291 4109 3541 
Q 4109 3778 3970 3912 
Q 3831 4047 3626 4097 
Q 3422 4147 3175 4147 
L 2747 4147 
Q 2572 4147 2515 4117 
Q 2459 4088 2413 3928 
L 1997 2272 
z
" transform="scale(0.015625)"/>
      </defs>
      <use xlink:href="#Cmmi10-52" transform="translate(0 0.6875)"/>
     </g>
    </g>
   </g>
   <g id="PathCollection_2">
    <path d="M 72.635269 323.81347 
C 73.572903 323.81347 74.472261 323.440943 75.135269 322.777936 
C 75.798277 322.114928 76.170803 321.21557 76.170803 320.277936 
C 76.170803 319.340301 75.798277 318.440943 75.135269 317.777936 
C 74.472261 317.114928 73.572903 316.742402 72.635269 316.742402 
C 71.697634 316.742402 70.798277 317.114928 70.135269 317.777936 
C 69.472261 318.440943 69.099735 319.340301 69.099735 320.277936 
C 69.099735 321.21557 69.472261 322.114928 70.135269 322.777936 
C 70.798277 323.440943 71.697634 323.81347 72.635269 323.81347 
z
" clip-path="url(#p29fddf9ea1)"/>
   </g>
  </g>
 </g>
 <defs>
  <clipPath id="p29fddf9ea1">
   <rect x="7.2" y="7.2" width="378.255398" height="324"/>
  </clipPath>
 </defs>
</svg>
