<?xml version="1.0" encoding="utf-8" standalone="no"?>
<!DOCTYPE svg PUBLIC "-//W3C//DTD SVG 1.1//EN"
  "http://www.w3.org/Graphics/SVG/1.1/DTD/svg11.dtd">
<svg xmlns:xlink="http://www.w3.org/1999/xlink" width="392.688063pt" height="338.4pt" viewBox="0 0 392.688063 338.4" xmlns="http://www.w3.org/2000/svg" version="1.1">
 <metadata>
  <rdf:RDF xmlns:dc="http://purl.org/dc/elements/1.1/" xmlns:cc="http://creativecommons.org/ns#" xmlns:rdf="http://www.w3.org/1999/02/22-rdf-syntax-ns#">
   <cc:Work>
    <dc:type rdf:resource="http://purl.org/dc/dcmitype/StillImage"/>
    <dc:date>2023-08-04T14:50:26.399142</dc:date>
    <dc:format>image/svg+xml</dc:format>
    <dc:creator>
     <cc:Agent>
      <dc:title>Matplotlib v3.6.2, https://matplotlib.org/</dc:title>
     </cc:Agent>
    </dc:creator>
   </cc:Work>
  </rdf:RDF>
 </metadata>
 <defs>
  <style type="text/css">*{stroke-linejoin: round; stroke-linecap: butt}</style>
 </defs>
 <g id="figure_1">
  <g id="patch_1">
   <path d="M 0 338.4 
L 392.688063 338.4 
L 392.688063 0 
L 0 0 
z
" style="fill: #ffffff"/>
  </g>
  <g id="axes_1">
   <g id="patch_2">
    <path d="M 7.2 331.2 
L 385.488063 331.2 
L 385.488063 7.2 
L 7.2 7.2 
z
" style="fill: #ffffff"/>
   </g>
   <g id="PathCollection_1">
    <path d="M 378.213293 246.779605 
C 379.150927 246.779605 380.050285 246.407079 380.713293 245.744071 
C 381.376301 245.081063 381.748827 244.181705 381.748827 243.244071 
C 381.748827 242.306436 381.376301 241.407079 380.713293 240.744071 
C 380.050285 240.081063 379.150927 239.708537 378.213293 239.708537 
C 377.275658 239.708537 376.376301 240.081063 375.713293 240.744071 
C 375.050285 241.407079 374.677759 242.306436 374.677759 243.244071 
C 374.677759 244.181705 375.050285 245.081063 375.713293 245.744071 
C 376.376301 246.407079 377.275658 246.779605 378.213293 246.779605 
z
" clip-path="url(#p0624b68efb)"/>
   </g>
   <g id="PathCollection_2">
    <path d="M 137.731556 100.663155 
C 138.669191 100.663155 139.568549 100.290629 140.231556 99.627621 
C 140.894564 98.964614 141.26709 98.065256 141.26709 97.127621 
C 141.26709 96.189987 140.894564 95.290629 140.231556 94.627621 
C 139.568549 93.964614 138.669191 93.592087 137.731556 93.592087 
C 136.793922 93.592087 135.894564 93.964614 135.231556 94.627621 
C 134.568549 95.290629 134.196022 96.189987 134.196022 97.127621 
C 134.196022 98.065256 134.568549 98.964614 135.231556 99.627621 
C 135.894564 100.290629 136.793922 100.663155 137.731556 100.663155 
z
" clip-path="url(#p0624b68efb)"/>
   </g>
   <g id="matplotlib.axis_1"/>
   <g id="matplotlib.axis_2"/>
   <g id="line2d_1">
    <path d="M 378.213293 243.244071 
L 343.497516 200.33944 
L 324.33432 176.794205 
L 309.87023 159.288567 
L 296.392029 143.291395 
L 286.077349 131.31371 
L 278.233831 122.388423 
L 266.310864 109.170877 
L 259.016885 101.31905 
L 252.136139 94.092995 
L 242.705594 84.501185 
L 235.711101 77.640427 
L 226.228777 68.715905 
L 219.331844 62.518681 
L 209.875655 54.458835 
L 201.530266 47.799066 
L 193.11085 41.546669 
L 185.627039 36.412073 
L 180.801905 33.326101 
L 177.420766 31.273548 
L 170.374196 27.30046 
L 163.608213 23.893517 
L 158.041096 21.407995 
L 154.854112 20.120471 
L 147.432556 17.523793 
L 144.521693 16.665384 
L 138.722873 15.238261 
L 135.413839 14.599457 
L 130.975549 13.952141 
L 125.781741 13.513122 
L 123.35649 13.430769 
L 118.776033 13.497656 
L 113.291373 13.978345 
L 110.213467 14.449047 
L 104.969472 15.602196 
L 102.693839 16.246345 
L 97.703416 17.979969 
L 94.297744 19.428326 
L 89.393389 21.915787 
L 84.691073 24.774949 
L 80.881194 27.455927 
L 78.35956 29.420745 
L 73.953998 33.240397 
L 69.843188 37.279177 
L 67.269511 40.058263 
L 62.976066 45.157699 
L 59.953012 49.122503 
L 56.819479 53.587156 
L 53.585807 58.605707 
L 50.502634 63.816148 
L 46.709331 70.86009 
L 43.133182 78.223799 
L 39.683894 86.092969 
L 36.560895 93.97486 
L 33.412749 102.784157 
L 31.247128 109.442102 
L 28.174083 119.915114 
L 25.856312 128.806187 
L 23.589956 138.581344 
L 21.883151 146.874948 
L 20.401988 154.948558 
L 18.77787 165.124721 
L 17.74847 172.627965 
L 16.516394 183.384612 
L 15.482964 195.318347 
L 14.865294 205.845893 
L 14.531817 216.349255 
L 14.477911 224.816921 
L 14.624156 233.178355 
L 15.066258 242.960414 
L 15.537984 249.483497 
L 16.488424 258.823245 
L 17.413691 265.650548 
L 18.497319 272.122441 
L 20.090909 279.815407 
L 21.348803 284.859897 
L 22.696751 289.542701 
L 25.012905 296.289719 
L 27.309261 301.76394 
L 29.158688 305.494484 
L 30.730547 308.272648 
L 32.226658 310.626696 
L 33.568945 312.524075 
L 36.392693 315.934674 
L 38.717217 318.226449 
L 41.249941 320.264731 
L 43.873228 321.930932 
L 45.404222 322.714555 
L 48.070488 323.777387 
L 51.142975 324.568992 
L 52.495266 324.782528 
L 54.555323 324.960611 
L 56.666591 324.969231 
L 59.604846 324.70859 
L 61.700424 324.341711 
L 64.414478 323.65785 
L 67.886516 322.463158 
L 72.641415 320.293821 
L 72.641415 320.293821 
" clip-path="url(#p0624b68efb)" style="fill: none; stroke: #000000; stroke-linecap: square"/>
   </g>
   <g id="line2d_2">
    <path d="M 72.641415 320.293821 
L 77.505955 315.822111 
L 81.641341 311.761775 
L 86.278121 306.871854 
L 90.579964 301.950215 
L 93.983025 297.736922 
L 97.491659 293.030315 
L 100.63653 288.426864 
L 102.930372 284.787081 
L 106.005298 279.43985 
L 108.420599 274.762504 
L 110.90691 269.365375 
L 112.806916 264.710605 
L 114.591504 259.768256 
L 116.192929 254.683491 
L 117.520287 249.807457 
L 118.794537 244.291463 
L 119.923978 238.328715 
L 120.742848 232.953013 
L 121.540414 226.141428 
L 122.158559 218.547226 
L 122.587467 209.746039 
L 122.805682 199.596098 
L 122.854174 183.800987 
L 122.947344 169.918784 
L 123.194152 161.053632 
L 123.590551 153.613699 
L 124.16323 146.686917 
L 124.934281 140.060444 
L 125.908398 133.732557 
L 127.034685 127.924281 
L 128.566367 121.512801 
L 130.084912 116.209121 
L 131.375938 112.258744 
L 133.273211 107.121409 
L 135.461019 101.921538 
L 137.731556 97.127621 
L 137.731556 97.127621 
" clip-path="url(#p0624b68efb)" style="fill: none; stroke: #000000; stroke-linecap: square"/>
   </g>
   <g id="patch_3">
    <path d="M 100.090859 17.094416 
Q 99.988461 17.130352 101.995969 16.425821 
" clip-path="url(#p0624b68efb)" style="fill: none; stroke: #000000; stroke-width: 2; stroke-linecap: round"/>
    <path d="M 113.087496 17.832243 
L 101.995969 16.425821 
L 109.776023 8.396452 
L 113.087496 17.832243 
z
" clip-path="url(#p0624b68efb)" style="stroke: #000000; stroke-width: 2; stroke-linecap: round"/>
   </g>
   <g id="patch_4">
    <path d="M 122.85381 186.394101 
Q 122.853817 185.947769 122.853787 187.737504 
" clip-path="url(#p0624b68efb)" style="fill: none; stroke: #000000; stroke-width: 2; stroke-linecap: round"/>
    <path d="M 117.853621 197.737421 
L 122.853787 187.737504 
L 127.853621 197.737588 
L 117.853621 197.737421 
z
" clip-path="url(#p0624b68efb)" style="stroke: #000000; stroke-width: 2; stroke-linecap: round"/>
   </g>
   <g id="text_1">
    <g clip-path="url(#p0624b68efb)">
     <!-- $P$ -->
     <g transform="translate(361.161645 272.459128) scale(0.25 -0.25)">
      <defs>
       <path id="Cmmi10-50" d="M 313 0 
Q 250 0 250 84 
Q 253 100 262 139 
Q 272 178 289 201 
Q 306 225 331 225 
Q 722 225 878 269 
Q 959 297 997 441 
L 1875 3956 
Q 1888 4019 1888 4044 
Q 1888 4113 1813 4122 
Q 1691 4147 1350 4147 
Q 1288 4147 1288 4231 
Q 1291 4247 1300 4286 
Q 1309 4325 1326 4348 
Q 1344 4372 1369 4372 
L 3578 4372 
Q 3881 4372 4165 4264 
Q 4450 4156 4631 3934 
Q 4813 3713 4813 3397 
Q 4813 2991 4527 2672 
Q 4241 2353 3814 2175 
Q 3388 1997 2988 1997 
L 1947 1997 
L 1556 416 
Q 1544 353 1544 325 
Q 1544 300 1551 283 
Q 1559 266 1573 261 
Q 1588 256 1619 250 
Q 1741 225 2081 225 
Q 2144 225 2144 141 
Q 2122 50 2109 25 
Q 2097 0 2034 0 
L 313 0 
z
M 1978 2188 
L 2875 2188 
Q 3497 2188 3822 2522 
Q 3988 2688 4092 3000 
Q 4197 3313 4197 3566 
Q 4197 3881 3956 4014 
Q 3716 4147 3359 4147 
L 2747 4147 
Q 2572 4147 2515 4117 
Q 2459 4088 2413 3928 
L 1978 2188 
z
" transform="scale(0.015625)"/>
      </defs>
      <use xlink:href="#Cmmi10-50" transform="translate(0 0.6875)"/>
     </g>
    </g>
   </g>
   <g id="text_2">
    <g clip-path="url(#p0624b68efb)">
     <!-- $R$ -->
     <g transform="translate(150.548176 81.709439) scale(0.25 -0.25)">
      <defs>
       <path id="Cmmi10-52" d="M 313 0 
Q 250 0 250 84 
Q 253 100 262 139 
Q 272 178 289 201 
Q 306 225 331 225 
Q 722 225 878 269 
Q 959 297 997 441 
L 1875 3956 
Q 1888 4019 1888 4044 
Q 1888 4113 1813 4122 
Q 1691 4147 1350 4147 
Q 1288 4147 1288 4231 
Q 1291 4247 1300 4286 
Q 1309 4325 1326 4348 
Q 1344 4372 1369 4372 
L 3309 4372 
Q 3541 4372 3791 4319 
Q 4041 4266 4250 4152 
Q 4459 4038 4593 3848 
Q 4728 3659 4728 3406 
Q 4728 3084 4515 2831 
Q 4303 2578 3978 2408 
Q 3653 2238 3347 2169 
Q 3597 2078 3756 1879 
Q 3916 1681 3916 1422 
Q 3916 1388 3914 1370 
Q 3913 1353 3909 1331 
L 3859 763 
Q 3853 638 3847 550 
Q 3841 463 3841 409 
Q 3841 234 3892 129 
Q 3944 25 4097 25 
Q 4297 25 4448 211 
Q 4600 397 4647 616 
Q 4675 672 4709 672 
L 4769 672 
Q 4831 672 4831 588 
Q 4784 403 4682 237 
Q 4581 72 4426 -34 
Q 4272 -141 4091 -141 
Q 3716 -141 3452 26 
Q 3188 194 3188 550 
Q 3188 684 3213 788 
L 3353 1356 
Q 3378 1434 3378 1538 
Q 3378 1803 3198 1954 
Q 3019 2106 2747 2106 
L 1959 2106 
L 1538 416 
Q 1522 363 1522 325 
Q 1522 259 1600 250 
Q 1722 225 2059 225 
Q 2125 225 2125 141 
Q 2103 50 2090 25 
Q 2078 0 2016 0 
L 313 0 
z
M 1997 2272 
L 2706 2272 
Q 3403 2272 3756 2625 
Q 3919 2788 4014 3039 
Q 4109 3291 4109 3541 
Q 4109 3778 3970 3912 
Q 3831 4047 3626 4097 
Q 3422 4147 3175 4147 
L 2747 4147 
Q 2572 4147 2515 4117 
Q 2459 4088 2413 3928 
L 1997 2272 
z
" transform="scale(0.015625)"/>
      </defs>
      <use xlink:href="#Cmmi10-52" transform="translate(0 0.6875)"/>
     </g>
    </g>
   </g>
  </g>
 </g>
 <defs>
  <clipPath id="p0624b68efb">
   <rect x="7.2" y="7.2" width="378.288063" height="324"/>
  </clipPath>
 </defs>
</svg>
