<?xml version="1.0" encoding="utf-8" standalone="no"?>
<!DOCTYPE svg PUBLIC "-//W3C//DTD SVG 1.1//EN"
  "http://www.w3.org/Graphics/SVG/1.1/DTD/svg11.dtd">
<svg xmlns:xlink="http://www.w3.org/1999/xlink" width="392.657599pt" height="338.4pt" viewBox="0 0 392.657599 338.4" xmlns="http://www.w3.org/2000/svg" version="1.1">
 <metadata>
  <rdf:RDF xmlns:dc="http://purl.org/dc/elements/1.1/" xmlns:cc="http://creativecommons.org/ns#" xmlns:rdf="http://www.w3.org/1999/02/22-rdf-syntax-ns#">
   <cc:Work>
    <dc:type rdf:resource="http://purl.org/dc/dcmitype/StillImage"/>
    <dc:date>2025-02-05T13:32:44.144185</dc:date>
    <dc:format>image/svg+xml</dc:format>
    <dc:creator>
     <cc:Agent>
      <dc:title>Matplotlib v3.8.0, https://matplotlib.org/</dc:title>
     </cc:Agent>
    </dc:creator>
   </cc:Work>
  </rdf:RDF>
 </metadata>
 <defs>
  <style type="text/css">*{stroke-linejoin: round; stroke-linecap: butt}</style>
 </defs>
 <g id="figure_1">
  <g id="patch_1">
   <path d="M 0 338.4 
L 392.657599 338.4 
L 392.657599 0 
L 0 0 
z
" style="fill: #ffffff"/>
  </g>
  <g id="axes_1">
   <g id="patch_2">
    <path d="M 7.2 331.2 
L 385.457599 331.2 
L 385.457599 7.2 
L 7.2 7.2 
z
" style="fill: #ffffff"/>
   </g>
   <g id="PathCollection_1">
    <path d="M 378.183415 246.771964 
C 379.121049 246.771964 380.020407 246.399438 380.683415 245.73643 
C 381.346422 245.073423 381.718949 244.174065 381.718949 243.23643 
C 381.718949 242.298796 381.346422 241.399438 380.683415 240.73643 
C 380.020407 240.073423 379.121049 239.700896 378.183415 239.700896 
C 377.24578 239.700896 376.346422 240.073423 375.683415 240.73643 
C 375.020407 241.399438 374.647881 242.298796 374.647881 243.23643 
C 374.647881 244.174065 375.020407 245.073423 375.683415 245.73643 
C 376.346422 246.399438 377.24578 246.771964 378.183415 246.771964 
z
" clip-path="url(#p30e455f55a)"/>
   </g>
   <g id="PathCollection_2">
    <path d="M 72.636162 323.815505 
C 73.573796 323.815505 74.473154 323.442979 75.136162 322.779971 
C 75.799169 322.116963 76.171695 321.217606 76.171695 320.279971 
C 76.171695 319.342337 75.799169 318.442979 75.136162 317.779971 
C 74.473154 317.116963 73.573796 316.744437 72.636162 316.744437 
C 71.698527 316.744437 70.799169 317.116963 70.136162 317.779971 
C 69.473154 318.442979 69.100628 319.342337 69.100628 320.279971 
C 69.100628 321.217606 69.473154 322.116963 70.136162 322.779971 
C 70.799169 323.442979 71.698527 323.815505 72.636162 323.815505 
z
" clip-path="url(#p30e455f55a)"/>
   </g>
   <g id="matplotlib.axis_1"/>
   <g id="matplotlib.axis_2"/>
   <g id="line2d_1">
    <path d="M 378.183415 243.23643 
L 314.849061 165.308806 
L 298.387303 145.664495 
L 286.108037 131.376126 
L 273.516102 117.131479 
L 263.605242 106.262013 
L 252.022042 93.999548 
L 242.026868 83.84964 
L 234.087199 76.103716 
L 224.20255 66.891002 
L 215.890728 59.546909 
L 208.060547 52.993759 
L 198.707957 45.669079 
L 190.939325 40.033549 
L 186.59285 37.069907 
L 180.81996 33.355257 
L 171.60333 27.979931 
L 166.7205 25.425778 
L 160.989519 22.703283 
L 156.770531 20.897811 
L 151.854876 19.016717 
L 147.445226 17.541788 
L 141.230514 15.821534 
L 134.706806 14.492532 
L 133.098939 14.243599 
L 126.368248 13.556381 
L 120.871802 13.441038 
L 119.05145 13.495701 
L 115.741332 13.718185 
L 111.847759 14.19019 
L 107.583471 14.979767 
L 103.106066 16.131399 
L 99.42929 17.337226 
L 95.821488 18.760283 
L 91.90307 20.58888 
L 88.464902 22.448876 
L 84.082786 25.186268 
L 80.71074 27.589154 
L 76.014882 31.395185 
L 72.598972 34.523331 
L 68.118908 39.122365 
L 65.672815 41.888083 
L 61.419763 47.160869 
L 58.19943 51.576612 
L 55.743984 55.209698 
L 51.868354 61.45525 
L 48.174312 68.05211 
L 44.438282 75.448454 
L 41.111297 82.736734 
L 39.156443 87.369036 
L 35.872555 95.819484 
L 33.712695 101.900424 
L 31.413848 108.907141 
L 28.782735 117.729002 
L 26.090018 127.85959 
L 24.166411 135.970885 
L 21.784365 147.379268 
L 20.254745 155.799831 
L 18.66989 165.858323 
L 17.595074 173.833653 
L 16.629007 182.277619 
L 15.567011 194.158924 
L 15.080418 201.592277 
L 14.599954 213.229981 
L 14.474185 221.695592 
L 14.547412 230.167372 
L 14.823268 238.42925 
L 15.12088 243.835942 
L 15.845987 252.895475 
L 16.623875 259.922719 
L 17.758526 267.848735 
L 18.727135 273.340324 
L 20.252274 280.499434 
L 21.585962 285.725636 
L 23.233764 291.230882 
L 24.669802 295.368966 
L 26.257366 299.376117 
L 28.007401 303.226892 
L 29.217843 305.595797 
L 31.906101 310.1344 
L 33.94411 313.010349 
L 34.932798 314.253226 
L 37.09259 316.659245 
L 38.359773 317.890254 
L 40.436933 319.647251 
L 42.575615 321.147829 
L 44.301987 322.151377 
L 46.377146 323.132567 
L 49.411523 324.16388 
L 51.163324 324.559256 
L 54.503844 324.9442 
L 56.855611 324.947399 
L 59.704619 324.679633 
L 62.969927 324.035023 
L 64.164364 323.714903 
L 66.482586 322.972019 
L 69.611869 321.728197 
L 72.636162 320.279971 
L 72.636162 320.279971 
" clip-path="url(#p30e455f55a)" style="fill: none; stroke: #000000; stroke-linecap: square"/>
   </g>
   <g id="patch_3">
    <path d="M 100.083393 17.105 
Q 99.981003 17.140934 101.98852 16.436399 
" clip-path="url(#p30e455f55a)" style="fill: none; stroke: #000000; stroke-width: 2; stroke-linecap: round"/>
    <path d="M 113.080048 17.842821 
L 101.98852 16.436399 
L 109.768574 8.40703 
z
" clip-path="url(#p30e455f55a)" style="stroke: #000000; stroke-width: 2; stroke-linecap: round"/>
   </g>
   <g id="text_1">
    <g clip-path="url(#p30e455f55a)">
     <!-- $P$ -->
     <g transform="translate(361.132486 272.449689) scale(0.25 -0.25)">
      <defs>
       <path id="Cmmi10-50" d="M 313 0 
Q 250 0 250 84 
Q 253 100 262 139 
Q 272 178 289 201 
Q 306 225 331 225 
Q 722 225 878 269 
Q 959 297 997 441 
L 1875 3956 
Q 1888 4019 1888 4044 
Q 1888 4113 1813 4122 
Q 1691 4147 1350 4147 
Q 1288 4147 1288 4231 
Q 1291 4247 1300 4286 
Q 1309 4325 1326 4348 
Q 1344 4372 1369 4372 
L 3578 4372 
Q 3881 4372 4165 4264 
Q 4450 4156 4631 3934 
Q 4813 3713 4813 3397 
Q 4813 2991 4527 2672 
Q 4241 2353 3814 2175 
Q 3388 1997 2988 1997 
L 1947 1997 
L 1556 416 
Q 1544 353 1544 325 
Q 1544 300 1551 283 
Q 1559 266 1573 261 
Q 1588 256 1619 250 
Q 1741 225 2081 225 
Q 2144 225 2144 141 
Q 2122 50 2109 25 
Q 2097 0 2034 0 
L 313 0 
z
M 1978 2188 
L 2875 2188 
Q 3497 2188 3822 2522 
Q 3988 2688 4092 3000 
Q 4197 3313 4197 3566 
Q 4197 3881 3956 4014 
Q 3716 4147 3359 4147 
L 2747 4147 
Q 2572 4147 2515 4117 
Q 2459 4088 2413 3928 
L 1978 2188 
z
" transform="scale(0.015625)"/>
      </defs>
      <use xlink:href="#Cmmi10-50" transform="translate(0 0.6875)"/>
     </g>
    </g>
   </g>
   <g id="text_2">
    <g clip-path="url(#p30e455f55a)">
     <!-- $Q$ -->
     <g transform="translate(84.950983 322.715444) scale(0.25 -0.25)">
      <defs>
       <path id="Cmmi10-51" d="M 1947 -141 
Q 1466 -141 1094 79 
Q 722 300 520 692 
Q 319 1084 319 1563 
Q 319 2259 714 2950 
Q 1109 3641 1756 4077 
Q 2403 4513 3109 4513 
Q 3475 4513 3778 4381 
Q 4081 4250 4290 4017 
Q 4500 3784 4614 3471 
Q 4728 3159 4728 2791 
Q 4728 2366 4581 1936 
Q 4434 1506 4171 1136 
Q 3909 766 3559 484 
Q 3209 203 2809 38 
Q 2850 -256 2934 -425 
Q 3019 -594 3256 -594 
Q 3506 -594 3726 -412 
Q 3947 -231 4006 13 
Q 4019 72 4078 72 
Q 4147 72 4147 -13 
Q 4100 -219 4008 -430 
Q 3916 -641 3786 -823 
Q 3656 -1006 3478 -1123 
Q 3300 -1241 3084 -1241 
Q 2547 -1241 2547 -550 
Q 2547 -509 2562 -332 
Q 2578 -156 2578 -44 
Q 2269 -141 1947 -141 
z
M 1709 300 
Q 1709 44 1991 44 
Q 2275 44 2591 184 
L 2591 244 
Q 2591 503 2509 648 
Q 2428 794 2194 794 
Q 2078 794 1964 723 
Q 1850 653 1779 539 
Q 1709 425 1709 300 
z
M 1544 288 
Q 1544 456 1637 612 
Q 1731 769 1881 864 
Q 2031 959 2203 959 
Q 2481 959 2607 771 
Q 2734 584 2778 281 
Q 3188 525 3500 978 
Q 3813 1431 3977 1973 
Q 4141 2516 4141 3003 
Q 4141 3356 4023 3656 
Q 3906 3956 3664 4140 
Q 3422 4325 3066 4325 
Q 2722 4325 2403 4156 
Q 2084 3988 1813 3706 
Q 1550 3434 1342 3032 
Q 1134 2631 1021 2193 
Q 909 1756 909 1356 
Q 909 947 1068 612 
Q 1228 278 1569 128 
Q 1544 194 1544 288 
z
" transform="scale(0.015625)"/>
      </defs>
      <use xlink:href="#Cmmi10-51" transform="translate(0 0.484375)"/>
     </g>
    </g>
   </g>
  </g>
 </g>
 <defs>
  <clipPath id="p30e455f55a">
   <rect x="7.2" y="7.2" width="378.257599" height="324"/>
  </clipPath>
 </defs>
</svg>
