<?xml version="1.0" encoding="utf-8" standalone="no"?>
<!DOCTYPE svg PUBLIC "-//W3C//DTD SVG 1.1//EN"
  "http://www.w3.org/Graphics/SVG/1.1/DTD/svg11.dtd">
<svg xmlns:xlink="http://www.w3.org/1999/xlink" width="392.660296pt" height="338.4pt" viewBox="0 0 392.660296 338.4" xmlns="http://www.w3.org/2000/svg" version="1.1">
 <metadata>
  <rdf:RDF xmlns:dc="http://purl.org/dc/elements/1.1/" xmlns:cc="http://creativecommons.org/ns#" xmlns:rdf="http://www.w3.org/1999/02/22-rdf-syntax-ns#">
   <cc:Work>
    <dc:type rdf:resource="http://purl.org/dc/dcmitype/StillImage"/>
    <dc:date>2025-02-05T08:51:15.232763</dc:date>
    <dc:format>image/svg+xml</dc:format>
    <dc:creator>
     <cc:Agent>
      <dc:title>Matplotlib v3.6.2, https://matplotlib.org/</dc:title>
     </cc:Agent>
    </dc:creator>
   </cc:Work>
  </rdf:RDF>
 </metadata>
 <defs>
  <style type="text/css">*{stroke-linejoin: round; stroke-linecap: butt}</style>
 </defs>
 <g id="figure_1">
  <g id="patch_1">
   <path d="M 0 338.4 
L 392.660296 338.4 
L 392.660296 0 
L 0 0 
z
" style="fill: #ffffff"/>
  </g>
  <g id="axes_1">
   <g id="patch_2">
    <path d="M 7.2 331.2 
L 385.460296 331.2 
L 385.460296 7.2 
L 7.2 7.2 
z
" style="fill: #ffffff"/>
   </g>
   <g id="PathCollection_1">
    <path d="M 378.18606 246.770315 
C 379.123694 246.770315 380.023052 246.397789 380.68606 245.734781 
C 381.349067 245.071773 381.721593 244.172416 381.721593 243.234781 
C 381.721593 242.297146 381.349067 241.397789 380.68606 240.734781 
C 380.023052 240.071773 379.123694 239.699247 378.18606 239.699247 
C 377.248425 239.699247 376.349067 240.071773 375.68606 240.734781 
C 375.023052 241.397789 374.650526 242.297146 374.650526 243.234781 
C 374.650526 244.172416 375.023052 245.071773 375.68606 245.734781 
C 376.349067 246.397789 377.248425 246.770315 378.18606 246.770315 
z
" clip-path="url(#pa73c30f496)"/>
   </g>
   <g id="PathCollection_2">
    <path d="M 137.722722 100.665045 
C 138.660357 100.665045 139.559714 100.292518 140.222722 99.629511 
C 140.88573 98.966503 141.258256 98.067145 141.258256 97.129511 
C 141.258256 96.191876 140.88573 95.292518 140.222722 94.629511 
C 139.559714 93.966503 138.660357 93.593977 137.722722 93.593977 
C 136.785088 93.593977 135.88573 93.966503 135.222722 94.629511 
C 134.559714 95.292518 134.187188 96.191876 134.187188 97.129511 
C 134.187188 98.067145 134.559714 98.966503 135.222722 99.629511 
C 135.88573 100.292518 136.785088 100.665045 137.722722 100.665045 
z
" clip-path="url(#pa73c30f496)"/>
   </g>
   <g id="matplotlib.axis_1"/>
   <g id="matplotlib.axis_2"/>
   <g id="line2d_1">
    <path d="M 378.18606 243.234781 
L 311.251027 160.969849 
L 296.682532 143.655297 
L 283.059046 127.881446 
L 272.853347 116.390034 
L 261.756819 104.267264 
L 252.299404 94.282673 
L 244.418394 86.234808 
L 234.715755 76.701787 
L 228.975707 71.273192 
L 221.079386 64.082341 
L 212.316518 56.505944 
L 208.060971 52.990093 
L 200.071622 46.697412 
L 191.705358 40.566447 
L 184.090164 35.424141 
L 176.233624 30.588826 
L 173.952729 29.279283 
L 169.049781 26.61446 
L 162.490343 23.38335 
L 157.164587 21.055824 
L 151.47345 18.877893 
L 146.100666 17.130335 
L 140.5629 15.659624 
L 134.616139 14.474797 
L 129.977924 13.849797 
L 125.001421 13.486529 
L 121.469904 13.430769 
L 118.916276 13.499139 
L 114.410839 13.851046 
L 109.129841 14.657359 
L 104.930653 15.618895 
L 100.443877 16.978278 
L 99.211418 17.414287 
L 94.754329 19.226567 
L 88.910973 22.191901 
L 86.13426 23.850463 
L 82.039923 26.608643 
L 80.828548 27.499223 
L 76.010735 31.39751 
L 73.512213 33.654866 
L 69.840143 37.285026 
L 66.146892 41.336476 
L 62.844403 45.325647 
L 59.176806 50.195236 
L 55.189309 56.063734 
L 52.325098 60.68461 
L 50.324642 64.131099 
L 48.041335 68.302386 
L 44.905315 74.480864 
L 42.106403 80.482142 
L 38.039817 90.144273 
L 35.015401 98.18022 
L 32.524053 105.450768 
L 30.514116 111.821189 
L 28.127878 120.081691 
L 26.148594 127.62789 
L 23.783739 137.693775 
L 22.094518 145.793581 
L 20.321262 155.415823 
L 18.757447 165.262707 
L 17.255641 176.638229 
L 16.515489 183.393179 
L 15.483734 195.309238 
L 14.997439 203.143223 
L 14.62027 212.522081 
L 14.474236 222.093581 
L 14.58688 231.808611 
L 14.935427 240.655439 
L 15.404606 247.81859 
L 16.068257 255.084034 
L 16.951425 262.418522 
L 17.855421 268.432638 
L 19.270462 276.059418 
L 20.428059 281.229408 
L 22.290993 288.18809 
L 24.049058 293.641381 
L 25.785664 298.23664 
L 27.729657 302.647096 
L 29.972782 306.961696 
L 32.292597 310.711142 
L 34.698338 313.964038 
L 36.849006 316.405218 
L 39.358845 318.771768 
L 41.092639 320.136851 
L 42.542062 321.124402 
L 44.872406 322.442824 
L 46.979382 323.372216 
L 49.066708 324.067686 
L 52.301173 324.741492 
L 55.416778 324.969231 
L 57.297978 324.923569 
L 59.721211 324.676122 
L 62.295141 324.19535 
L 66.243911 323.054867 
L 69.919393 321.590984 
L 72.637561 320.278636 
L 72.637561 320.278636 
" clip-path="url(#pa73c30f496)" style="fill: none; stroke: #000000; stroke-linecap: square"/>
   </g>
   <g id="line2d_2">
    <path d="M 72.637561 320.278636 
L 77.332702 315.967875 
L 82.365538 311.003905 
L 86.719006 306.366236 
L 90.741658 301.736871 
L 94.654357 296.846501 
L 98.175729 292.041516 
L 101.038678 287.785453 
L 103.595509 283.656864 
L 106.291735 278.885562 
L 108.535916 274.501301 
L 111.138849 268.797726 
L 112.963723 264.271899 
L 114.602948 259.702875 
L 116.336385 254.154585 
L 117.809856 248.598633 
L 118.990471 243.29884 
L 120.139622 236.966515 
L 120.984849 231.032494 
L 121.655532 224.854861 
L 122.179903 218.086627 
L 122.542174 210.790668 
L 122.778514 201.173547 
L 122.845993 188.181519 
L 122.955962 169.007741 
L 123.23618 159.871615 
L 123.690026 152.092413 
L 124.340322 144.897814 
L 124.912334 140.1639 
L 126.023583 133.033444 
L 127.030549 127.905735 
L 128.430269 122.000949 
L 129.848634 116.955191 
L 131.410247 112.135989 
L 133.511397 106.501813 
L 135.686187 101.404013 
L 137.722722 97.129511 
L 137.722722 97.129511 
" clip-path="url(#pa73c30f496)" style="fill: none; stroke: #000000; stroke-linecap: square"/>
   </g>
   <g id="patch_3">
    <path d="M 100.084905 17.102429 
Q 99.982514 17.138362 101.990031 16.433828 
" clip-path="url(#pa73c30f496)" style="fill: none; stroke: #000000; stroke-width: 2; stroke-linecap: round"/>
    <path d="M 113.081558 17.84025 
L 101.990031 16.433828 
L 109.770085 8.40446 
L 113.081558 17.84025 
z
" clip-path="url(#pa73c30f496)" style="stroke: #000000; stroke-width: 2; stroke-linecap: round"/>
   </g>
   <g id="patch_4">
    <path d="M 122.846114 186.389161 
Q 122.846121 185.942863 122.846092 187.732632 
" clip-path="url(#pa73c30f496)" style="fill: none; stroke: #000000; stroke-width: 2; stroke-linecap: round"/>
    <path d="M 117.845925 197.732549 
L 122.846092 187.732632 
L 127.845925 197.732716 
L 117.845925 197.732549 
z
" clip-path="url(#pa73c30f496)" style="stroke: #000000; stroke-width: 2; stroke-linecap: round"/>
   </g>
   <g id="text_1">
    <g clip-path="url(#pa73c30f496)">
     <!-- $P$ -->
     <g transform="translate(361.135095 272.448131) scale(0.25 -0.25)">
      <defs>
       <path id="Cmmi10-50" d="M 313 0 
Q 250 0 250 84 
Q 253 100 262 139 
Q 272 178 289 201 
Q 306 225 331 225 
Q 722 225 878 269 
Q 959 297 997 441 
L 1875 3956 
Q 1888 4019 1888 4044 
Q 1888 4113 1813 4122 
Q 1691 4147 1350 4147 
Q 1288 4147 1288 4231 
Q 1291 4247 1300 4286 
Q 1309 4325 1326 4348 
Q 1344 4372 1369 4372 
L 3578 4372 
Q 3881 4372 4165 4264 
Q 4450 4156 4631 3934 
Q 4813 3713 4813 3397 
Q 4813 2991 4527 2672 
Q 4241 2353 3814 2175 
Q 3388 1997 2988 1997 
L 1947 1997 
L 1556 416 
Q 1544 353 1544 325 
Q 1544 300 1551 283 
Q 1559 266 1573 261 
Q 1588 256 1619 250 
Q 1741 225 2081 225 
Q 2144 225 2144 141 
Q 2122 50 2109 25 
Q 2097 0 2034 0 
L 313 0 
z
M 1978 2188 
L 2875 2188 
Q 3497 2188 3822 2522 
Q 3988 2688 4092 3000 
Q 4197 3313 4197 3566 
Q 4197 3881 3956 4014 
Q 3716 4147 3359 4147 
L 2747 4147 
Q 2572 4147 2515 4117 
Q 2459 4088 2413 3928 
L 1978 2188 
z
" transform="scale(0.015625)"/>
      </defs>
      <use xlink:href="#Cmmi10-50" transform="translate(0 0.6875)"/>
     </g>
    </g>
   </g>
   <g id="text_2">
    <g clip-path="url(#pa73c30f496)">
     <!-- $R$ -->
     <g transform="translate(150.537635 81.713036) scale(0.25 -0.25)">
      <defs>
       <path id="Cmmi10-52" d="M 313 0 
Q 250 0 250 84 
Q 253 100 262 139 
Q 272 178 289 201 
Q 306 225 331 225 
Q 722 225 878 269 
Q 959 297 997 441 
L 1875 3956 
Q 1888 4019 1888 4044 
Q 1888 4113 1813 4122 
Q 1691 4147 1350 4147 
Q 1288 4147 1288 4231 
Q 1291 4247 1300 4286 
Q 1309 4325 1326 4348 
Q 1344 4372 1369 4372 
L 3309 4372 
Q 3541 4372 3791 4319 
Q 4041 4266 4250 4152 
Q 4459 4038 4593 3848 
Q 4728 3659 4728 3406 
Q 4728 3084 4515 2831 
Q 4303 2578 3978 2408 
Q 3653 2238 3347 2169 
Q 3597 2078 3756 1879 
Q 3916 1681 3916 1422 
Q 3916 1388 3914 1370 
Q 3913 1353 3909 1331 
L 3859 763 
Q 3853 638 3847 550 
Q 3841 463 3841 409 
Q 3841 234 3892 129 
Q 3944 25 4097 25 
Q 4297 25 4448 211 
Q 4600 397 4647 616 
Q 4675 672 4709 672 
L 4769 672 
Q 4831 672 4831 588 
Q 4784 403 4682 237 
Q 4581 72 4426 -34 
Q 4272 -141 4091 -141 
Q 3716 -141 3452 26 
Q 3188 194 3188 550 
Q 3188 684 3213 788 
L 3353 1356 
Q 3378 1434 3378 1538 
Q 3378 1803 3198 1954 
Q 3019 2106 2747 2106 
L 1959 2106 
L 1538 416 
Q 1522 363 1522 325 
Q 1522 259 1600 250 
Q 1722 225 2059 225 
Q 2125 225 2125 141 
Q 2103 50 2090 25 
Q 2078 0 2016 0 
L 313 0 
z
M 1997 2272 
L 2706 2272 
Q 3403 2272 3756 2625 
Q 3919 2788 4014 3039 
Q 4109 3291 4109 3541 
Q 4109 3778 3970 3912 
Q 3831 4047 3626 4097 
Q 3422 4147 3175 4147 
L 2747 4147 
Q 2572 4147 2515 4117 
Q 2459 4088 2413 3928 
L 1997 2272 
z
" transform="scale(0.015625)"/>
      </defs>
      <use xlink:href="#Cmmi10-52" transform="translate(0 0.6875)"/>
     </g>
    </g>
   </g>
  </g>
 </g>
 <defs>
  <clipPath id="pa73c30f496">
   <rect x="7.2" y="7.2" width="378.260296" height="324"/>
  </clipPath>
 </defs>
</svg>
