<?xml version="1.0" encoding="utf-8" standalone="no"?>
<!DOCTYPE svg PUBLIC "-//W3C//DTD SVG 1.1//EN"
  "http://www.w3.org/Graphics/SVG/1.1/DTD/svg11.dtd">
<svg xmlns:xlink="http://www.w3.org/1999/xlink" width="392.664194pt" height="338.4pt" viewBox="0 0 392.664194 338.4" xmlns="http://www.w3.org/2000/svg" version="1.1">
 <metadata>
  <rdf:RDF xmlns:dc="http://purl.org/dc/elements/1.1/" xmlns:cc="http://creativecommons.org/ns#" xmlns:rdf="http://www.w3.org/1999/02/22-rdf-syntax-ns#">
   <cc:Work>
    <dc:type rdf:resource="http://purl.org/dc/dcmitype/StillImage"/>
    <dc:date>2024-08-14T11:56:41.537947</dc:date>
    <dc:format>image/svg+xml</dc:format>
    <dc:creator>
     <cc:Agent>
      <dc:title>Matplotlib v3.8.0, https://matplotlib.org/</dc:title>
     </cc:Agent>
    </dc:creator>
   </cc:Work>
  </rdf:RDF>
 </metadata>
 <defs>
  <style type="text/css">*{stroke-linejoin: round; stroke-linecap: butt}</style>
 </defs>
 <g id="figure_1">
  <g id="patch_1">
   <path d="M 0 338.4 
L 392.664194 338.4 
L 392.664194 0 
L 0 0 
z
" style="fill: #ffffff"/>
  </g>
  <g id="axes_1">
   <g id="patch_2">
    <path d="M 7.2 331.2 
L 385.464194 331.2 
L 385.464194 7.2 
L 7.2 7.2 
z
" style="fill: #ffffff"/>
   </g>
   <g id="PathCollection_1">
    <path d="M 378.189883 246.774005 
C 379.127518 246.774005 380.026875 246.401479 380.689883 245.738472 
C 381.352891 245.075464 381.725417 244.176106 381.725417 243.238472 
C 381.725417 242.300837 381.352891 241.401479 380.689883 240.738472 
C 380.026875 240.075464 379.127518 239.702938 378.189883 239.702938 
C 377.252249 239.702938 376.352891 240.075464 375.689883 240.738472 
C 375.026875 241.401479 374.654349 242.300837 374.654349 243.238472 
C 374.654349 244.176106 375.026875 245.075464 375.689883 245.738472 
C 376.352891 246.401479 377.252249 246.774005 378.189883 246.774005 
z
" clip-path="url(#p462e964318)"/>
   </g>
   <g id="PathCollection_2">
    <path d="M 137.721652 100.665762 
C 138.659287 100.665762 139.558644 100.293236 140.221652 99.630228 
C 140.88466 98.96722 141.257186 98.067863 141.257186 97.130228 
C 141.257186 96.192593 140.88466 95.293236 140.221652 94.630228 
C 139.558644 93.96722 138.659287 93.594694 137.721652 93.594694 
C 136.784018 93.594694 135.88466 93.96722 135.221652 94.630228 
C 134.558644 95.293236 134.186118 96.192593 134.186118 97.130228 
C 134.186118 98.067863 134.558644 98.96722 135.221652 99.630228 
C 135.88466 100.293236 136.784018 100.665762 137.721652 100.665762 
z
" clip-path="url(#p462e964318)"/>
   </g>
   <g id="matplotlib.axis_1"/>
   <g id="matplotlib.axis_2"/>
   <g id="line2d_1">
    <path d="M 378.189883 243.238472 
L 345.651131 203.023988 
L 321.610155 173.498364 
L 306.820408 155.661138 
L 293.229878 139.614563 
L 279.628311 123.984003 
L 269.517016 112.701283 
L 258.925849 101.242406 
L 250.976122 92.912736 
L 242.805914 84.62028 
L 235.781152 77.726575 
L 228.585835 70.909932 
L 221.003824 64.014637 
L 213.472129 57.47909 
L 205.54123 50.960706 
L 199.111274 45.968712 
L 193.561666 41.884042 
L 190.534465 39.747377 
L 182.659142 34.506447 
L 176.038879 30.47485 
L 169.977078 27.10196 
L 166.617093 25.37005 
L 160.208528 22.352242 
L 153.479443 19.607494 
L 148.469057 17.86211 
L 142.280844 16.078226 
L 139.187109 15.347643 
L 132.238579 14.119938 
L 127.454846 13.623983 
L 122.816542 13.430769 
L 118.659094 13.510143 
L 112.862288 14.041222 
L 110.845299 14.346127 
L 107.830318 14.922478 
L 102.046915 16.450549 
L 99.648138 17.255064 
L 94.664251 19.265353 
L 90.250556 21.448571 
L 86.405382 23.679049 
L 81.881367 26.720915 
L 77.990702 29.722377 
L 74.150243 33.059731 
L 71.609145 35.485535 
L 68.334025 38.883852 
L 65.59867 41.970622 
L 61.521407 47.02322 
L 57.584843 52.45902 
L 54.146765 57.700045 
L 50.641874 63.567005 
L 47.232289 69.839259 
L 44.850641 74.587665 
L 41.874683 80.994941 
L 38.504665 88.970301 
L 36.036582 95.368985 
L 32.824709 104.529796 
L 30.769247 110.975326 
L 28.17171 119.911434 
L 26.146838 127.622896 
L 24.266898 135.515453 
L 22.949635 141.568207 
L 20.603295 153.77389 
L 19.084408 163.047856 
L 17.722643 172.803909 
L 16.531469 183.203366 
L 15.923696 189.685612 
L 15.253878 198.654626 
L 14.788474 207.552015 
L 14.518668 216.938993 
L 14.479052 225.464892 
L 14.612547 232.880433 
L 14.915403 240.348194 
L 15.649276 250.801912 
L 16.559902 259.428996 
L 17.269126 264.694121 
L 18.336649 271.250494 
L 19.459927 276.981695 
L 21.427125 285.155101 
L 23.283836 291.39453 
L 24.917869 296.040501 
L 27.131475 301.375108 
L 29.032615 305.254974 
L 30.942447 308.619563 
L 32.558313 311.109922 
L 34.437228 313.648168 
L 36.454936 315.996611 
L 38.242117 317.786807 
L 40.861017 319.973899 
L 41.08108 320.135897 
L 44.230555 322.1182 
L 47.563342 323.594951 
L 49.222974 324.117346 
L 52.286521 324.745215 
L 53.898522 324.912745 
L 56.314722 324.969231 
L 58.337687 324.847774 
L 60.486303 324.560874 
L 64.895142 323.5014 
L 66.638414 322.92008 
L 69.088745 321.958158 
L 72.635166 320.283894 
L 72.635166 320.283894 
" clip-path="url(#p462e964318)" style="fill: none; stroke: #000000; stroke-linecap: square"/>
   </g>
   <g id="line2d_2">
    <path d="M 72.635166 320.283894 
L 77.287797 316.013467 
L 82.213647 311.162391 
L 86.200014 306.940689 
L 90.937043 301.504839 
L 94.761312 296.708871 
L 97.992411 292.30458 
L 101.223185 287.500445 
L 103.999609 282.972946 
L 106.091429 279.258389 
L 108.849137 273.854549 
L 111.009597 269.100347 
L 113.305347 263.363799 
L 114.80681 259.09283 
L 116.27843 254.353813 
L 117.824893 248.53437 
L 119.139814 242.550731 
L 120.190538 236.641896 
L 121.019863 230.742791 
L 121.744845 223.855364 
L 122.296514 216.095578 
L 122.653184 207.313189 
L 122.817752 197.278216 
L 123.124462 162.65604 
L 123.514656 154.635165 
L 124.100371 147.237318 
L 124.757678 141.338392 
L 125.630901 135.322175 
L 126.776687 129.108274 
L 127.869582 124.228421 
L 129.3979 118.474982 
L 131.198201 112.751449 
L 132.768737 108.398756 
L 134.610202 103.845685 
L 136.986455 98.625531 
L 137.721652 97.130228 
L 137.721652 97.130228 
" clip-path="url(#p462e964318)" style="fill: none; stroke: #000000; stroke-linecap: square"/>
   </g>
   <g id="patch_3">
    <path d="M 100.083069 17.101517 
Q 99.980676 17.137452 101.98819 16.432918 
" clip-path="url(#p462e964318)" style="fill: none; stroke: #000000; stroke-width: 2; stroke-linecap: round"/>
    <path d="M 113.079718 17.83934 
L 101.98819 16.432918 
L 109.768244 8.40355 
z
" clip-path="url(#p462e964318)" style="stroke: #000000; stroke-width: 2; stroke-linecap: round"/>
   </g>
   <g id="patch_4">
    <path d="M 122.844741 186.391695 
Q 122.844749 185.945387 122.844719 187.735148 
" clip-path="url(#p462e964318)" style="fill: none; stroke: #000000; stroke-width: 2; stroke-linecap: round"/>
    <path d="M 117.844552 197.735065 
L 122.844719 187.735148 
L 127.844552 197.735231 
z
" clip-path="url(#p462e964318)" style="stroke: #000000; stroke-width: 2; stroke-linecap: round"/>
   </g>
   <g id="text_1">
    <g clip-path="url(#p462e964318)">
     <!-- $P$ -->
     <g transform="translate(361.138736 272.452276) scale(0.25 -0.25)">
      <defs>
       <path id="Cmmi10-50" d="M 313 0 
Q 250 0 250 84 
Q 253 100 262 139 
Q 272 178 289 201 
Q 306 225 331 225 
Q 722 225 878 269 
Q 959 297 997 441 
L 1875 3956 
Q 1888 4019 1888 4044 
Q 1888 4113 1813 4122 
Q 1691 4147 1350 4147 
Q 1288 4147 1288 4231 
Q 1291 4247 1300 4286 
Q 1309 4325 1326 4348 
Q 1344 4372 1369 4372 
L 3578 4372 
Q 3881 4372 4165 4264 
Q 4450 4156 4631 3934 
Q 4813 3713 4813 3397 
Q 4813 2991 4527 2672 
Q 4241 2353 3814 2175 
Q 3388 1997 2988 1997 
L 1947 1997 
L 1556 416 
Q 1544 353 1544 325 
Q 1544 300 1551 283 
Q 1559 266 1573 261 
Q 1588 256 1619 250 
Q 1741 225 2081 225 
Q 2144 225 2144 141 
Q 2122 50 2109 25 
Q 2097 0 2034 0 
L 313 0 
z
M 1978 2188 
L 2875 2188 
Q 3497 2188 3822 2522 
Q 3988 2688 4092 3000 
Q 4197 3313 4197 3566 
Q 4197 3881 3956 4014 
Q 3716 4147 3359 4147 
L 2747 4147 
Q 2572 4147 2515 4117 
Q 2459 4088 2413 3928 
L 1978 2188 
z
" transform="scale(0.015625)"/>
      </defs>
      <use xlink:href="#Cmmi10-50" transform="translate(0 0.6875)"/>
     </g>
    </g>
   </g>
   <g id="text_2">
    <g clip-path="url(#p462e964318)">
     <!-- $R$ -->
     <g transform="translate(150.537019 81.713299) scale(0.25 -0.25)">
      <defs>
       <path id="Cmmi10-52" d="M 313 0 
Q 250 0 250 84 
Q 253 100 262 139 
Q 272 178 289 201 
Q 306 225 331 225 
Q 722 225 878 269 
Q 959 297 997 441 
L 1875 3956 
Q 1888 4019 1888 4044 
Q 1888 4113 1813 4122 
Q 1691 4147 1350 4147 
Q 1288 4147 1288 4231 
Q 1291 4247 1300 4286 
Q 1309 4325 1326 4348 
Q 1344 4372 1369 4372 
L 3309 4372 
Q 3541 4372 3791 4319 
Q 4041 4266 4250 4152 
Q 4459 4038 4593 3848 
Q 4728 3659 4728 3406 
Q 4728 3084 4515 2831 
Q 4303 2578 3978 2408 
Q 3653 2238 3347 2169 
Q 3597 2078 3756 1879 
Q 3916 1681 3916 1422 
Q 3916 1388 3914 1370 
Q 3913 1353 3909 1331 
L 3859 763 
Q 3853 638 3847 550 
Q 3841 463 3841 409 
Q 3841 234 3892 129 
Q 3944 25 4097 25 
Q 4297 25 4448 211 
Q 4600 397 4647 616 
Q 4675 672 4709 672 
L 4769 672 
Q 4831 672 4831 588 
Q 4784 403 4682 237 
Q 4581 72 4426 -34 
Q 4272 -141 4091 -141 
Q 3716 -141 3452 26 
Q 3188 194 3188 550 
Q 3188 684 3213 788 
L 3353 1356 
Q 3378 1434 3378 1538 
Q 3378 1803 3198 1954 
Q 3019 2106 2747 2106 
L 1959 2106 
L 1538 416 
Q 1522 363 1522 325 
Q 1522 259 1600 250 
Q 1722 225 2059 225 
Q 2125 225 2125 141 
Q 2103 50 2090 25 
Q 2078 0 2016 0 
L 313 0 
z
M 1997 2272 
L 2706 2272 
Q 3403 2272 3756 2625 
Q 3919 2788 4014 3039 
Q 4109 3291 4109 3541 
Q 4109 3778 3970 3912 
Q 3831 4047 3626 4097 
Q 3422 4147 3175 4147 
L 2747 4147 
Q 2572 4147 2515 4117 
Q 2459 4088 2413 3928 
L 1997 2272 
z
" transform="scale(0.015625)"/>
      </defs>
      <use xlink:href="#Cmmi10-52" transform="translate(0 0.6875)"/>
     </g>
    </g>
   </g>
  </g>
 </g>
 <defs>
  <clipPath id="p462e964318">
   <rect x="7.2" y="7.2" width="378.264194" height="324"/>
  </clipPath>
 </defs>
</svg>
