<?xml version="1.0" encoding="utf-8" standalone="no"?>
<!DOCTYPE svg PUBLIC "-//W3C//DTD SVG 1.1//EN"
  "http://www.w3.org/Graphics/SVG/1.1/DTD/svg11.dtd">
<svg xmlns:xlink="http://www.w3.org/1999/xlink" width="392.658162pt" height="338.4pt" viewBox="0 0 392.658162 338.4" xmlns="http://www.w3.org/2000/svg" version="1.1">
 <metadata>
  <rdf:RDF xmlns:dc="http://purl.org/dc/elements/1.1/" xmlns:cc="http://creativecommons.org/ns#" xmlns:rdf="http://www.w3.org/1999/02/22-rdf-syntax-ns#">
   <cc:Work>
    <dc:type rdf:resource="http://purl.org/dc/dcmitype/StillImage"/>
    <dc:date>2024-12-16T16:32:45.904997</dc:date>
    <dc:format>image/svg+xml</dc:format>
    <dc:creator>
     <cc:Agent>
      <dc:title>Matplotlib v3.6.2, https://matplotlib.org/</dc:title>
     </cc:Agent>
    </dc:creator>
   </cc:Work>
  </rdf:RDF>
 </metadata>
 <defs>
  <style type="text/css">*{stroke-linejoin: round; stroke-linecap: butt}</style>
 </defs>
 <g id="figure_1">
  <g id="patch_1">
   <path d="M 0 338.4 
L 392.658162 338.4 
L 392.658162 0 
L 0 0 
z
" style="fill: #ffffff"/>
  </g>
  <g id="axes_1">
   <g id="patch_2">
    <path d="M 7.2 331.2 
L 385.458162 331.2 
L 385.458162 7.2 
L 7.2 7.2 
z
" style="fill: #ffffff"/>
   </g>
   <g id="PathCollection_1">
    <path d="M 137.721002 100.665224 
C 138.658637 100.665224 139.557995 100.292697 140.221002 99.62969 
C 140.88401 98.966682 141.256536 98.067324 141.256536 97.12969 
C 141.256536 96.192055 140.88401 95.292697 140.221002 94.62969 
C 139.557995 93.966682 138.658637 93.594156 137.721002 93.594156 
C 136.783368 93.594156 135.88401 93.966682 135.221002 94.62969 
C 134.557995 95.292697 134.185469 96.192055 134.185469 97.12969 
C 134.185469 98.067324 134.557995 98.966682 135.221002 99.62969 
C 135.88401 100.292697 136.783368 100.665224 137.721002 100.665224 
z
" clip-path="url(#pa3204e227a)"/>
   </g>
   <g id="matplotlib.axis_1"/>
   <g id="matplotlib.axis_2"/>
   <g id="line2d_1">
    <path d="M 378.183966 243.234733 
L 348.20576 206.186563 
L 323.190895 175.426581 
L 308.309213 157.4443 
L 295.102585 141.805716 
L 282.910274 127.714145 
L 272.193656 115.66028 
L 262.338032 104.893967 
L 251.547865 93.50628 
L 240.404339 82.240681 
L 229.342702 71.617293 
L 222.550053 65.398224 
L 214.744934 58.562907 
L 207.829972 52.804163 
L 200.693561 47.173979 
L 192.840129 41.3708 
L 186.806248 37.209863 
L 180.299708 33.031051 
L 173.978503 29.295124 
L 167.85339 25.997293 
L 160.904988 22.66317 
L 154.295612 19.917911 
L 147.320159 17.500718 
L 144.215364 16.591875 
L 138.494723 15.200735 
L 136.477454 14.800944 
L 132.518006 14.159263 
L 129.521619 13.803486 
L 126.219027 13.545555 
L 122.674193 13.430769 
L 117.817155 13.557598 
L 115.840898 13.706846 
L 109.626513 14.562754 
L 105.405539 15.495277 
L 101.934896 16.487105 
L 99.410459 17.341704 
L 95.942192 18.706375 
L 93.66546 19.72665 
L 88.737929 22.289783 
L 87.097954 23.255228 
L 82.319505 26.407155 
L 79.410357 28.585717 
L 75.292965 32.027804 
L 71.456417 35.638689 
L 67.415113 39.896553 
L 63.927386 43.975977 
L 60.557326 48.303669 
L 56.104506 54.658588 
L 53.455776 58.815381 
L 49.024556 66.471319 
L 45.472049 73.320509 
L 43.061819 78.375247 
L 39.58659 86.323001 
L 36.993846 92.829993 
L 33.867324 101.446805 
L 31.437183 108.829892 
L 28.927202 117.216225 
L 26.006587 128.191319 
L 23.706243 138.039861 
L 21.70052 147.811431 
L 20.139245 156.476701 
L 18.611635 166.257812 
L 17.330379 175.995667 
L 16.433519 184.195417 
L 15.525004 194.719675 
L 14.831543 206.577587 
L 14.52197 216.859495 
L 14.478053 224.998708 
L 14.670786 234.650644 
L 14.992769 241.72206 
L 15.530272 249.393711 
L 16.409341 258.158015 
L 17.568302 266.653353 
L 18.879761 274.128835 
L 20.059398 279.672717 
L 21.323737 284.759237 
L 22.618914 289.281658 
L 24.306747 294.372367 
L 26.203738 299.248534 
L 28.40664 304.03208 
L 30.442063 307.776662 
L 32.174281 310.537552 
L 34.069704 313.172371 
L 36.888166 316.447426 
L 38.294956 317.829101 
L 39.878232 319.203733 
L 42.707373 321.229422 
L 45.403021 322.700019 
L 47.758175 323.657326 
L 50.169146 324.3506 
L 52.831578 324.808261 
L 55.98581 324.969231 
L 58.832404 324.790383 
L 60.783681 324.50355 
L 64.230744 323.694276 
L 66.259145 323.048843 
L 69.102975 321.946995 
L 72.635942 320.278468 
L 72.635942 320.278468 
" clip-path="url(#pa3204e227a)" style="fill: none; stroke: #ffffff; stroke-linecap: square"/>
   </g>
   <g id="line2d_2">
    <path d="M 72.635942 320.278468 
L 77.256808 316.038158 
L 81.748666 311.631893 
L 86.95276 306.104942 
L 91.407421 300.931819 
L 94.783591 296.675164 
L 98.356071 291.78094 
L 101.355558 287.289211 
L 103.625545 283.603329 
L 106.396691 278.68644 
L 108.887201 273.770741 
L 111.019126 269.073689 
L 112.85393 264.554797 
L 114.875371 258.881 
L 116.683957 252.920265 
L 117.985282 247.860599 
L 119.029811 243.096197 
L 120.208191 236.524965 
L 121.079229 230.250725 
L 121.738139 223.924644 
L 122.269024 216.575393 
L 122.607932 208.832585 
L 122.801392 199.106472 
L 122.844821 183.707124 
L 122.956156 168.908673 
L 123.222538 160.145184 
L 123.69529 151.998447 
L 124.330161 144.976384 
L 125.059907 139.076618 
L 126.022047 133.032635 
L 127.270459 126.801231 
L 128.868517 120.352686 
L 130.293259 115.510405 
L 132.050552 110.325195 
L 134.002538 105.289902 
L 136.063063 100.576994 
L 137.721002 97.12969 
L 137.721002 97.12969 
" clip-path="url(#pa3204e227a)" style="fill: none; stroke: #000000; stroke-linecap: square"/>
   </g>
   <g id="patch_3">
    <path d="M 122.844417 186.389201 
Q 122.844425 185.942904 122.844395 187.732674 
" clip-path="url(#pa3204e227a)" style="fill: none; stroke: #000000; stroke-width: 2; stroke-linecap: round"/>
    <path d="M 117.844228 197.732591 
L 122.844395 187.732674 
L 127.844228 197.732757 
L 117.844228 197.732591 
z
" clip-path="url(#pa3204e227a)" style="stroke: #000000; stroke-width: 2; stroke-linecap: round"/>
   </g>
   <g id="text_1">
    <g clip-path="url(#pa3204e227a)">
     <!-- $Q$ -->
     <g transform="translate(89.413795 318.250955) scale(0.25 -0.25)">
      <defs>
       <path id="Cmmi10-51" d="M 1947 -141 
Q 1466 -141 1094 79 
Q 722 300 520 692 
Q 319 1084 319 1563 
Q 319 2259 714 2950 
Q 1109 3641 1756 4077 
Q 2403 4513 3109 4513 
Q 3475 4513 3778 4381 
Q 4081 4250 4290 4017 
Q 4500 3784 4614 3471 
Q 4728 3159 4728 2791 
Q 4728 2366 4581 1936 
Q 4434 1506 4171 1136 
Q 3909 766 3559 484 
Q 3209 203 2809 38 
Q 2850 -256 2934 -425 
Q 3019 -594 3256 -594 
Q 3506 -594 3726 -412 
Q 3947 -231 4006 13 
Q 4019 72 4078 72 
Q 4147 72 4147 -13 
Q 4100 -219 4008 -430 
Q 3916 -641 3786 -823 
Q 3656 -1006 3478 -1123 
Q 3300 -1241 3084 -1241 
Q 2547 -1241 2547 -550 
Q 2547 -509 2562 -332 
Q 2578 -156 2578 -44 
Q 2269 -141 1947 -141 
z
M 1709 300 
Q 1709 44 1991 44 
Q 2275 44 2591 184 
L 2591 244 
Q 2591 503 2509 648 
Q 2428 794 2194 794 
Q 2078 794 1964 723 
Q 1850 653 1779 539 
Q 1709 425 1709 300 
z
M 1544 288 
Q 1544 456 1637 612 
Q 1731 769 1881 864 
Q 2031 959 2203 959 
Q 2481 959 2607 771 
Q 2734 584 2778 281 
Q 3188 525 3500 978 
Q 3813 1431 3977 1973 
Q 4141 2516 4141 3003 
Q 4141 3356 4023 3656 
Q 3906 3956 3664 4140 
Q 3422 4325 3066 4325 
Q 2722 4325 2403 4156 
Q 2084 3988 1813 3706 
Q 1550 3434 1342 3032 
Q 1134 2631 1021 2193 
Q 909 1756 909 1356 
Q 909 947 1068 612 
Q 1228 278 1569 128 
Q 1544 194 1544 288 
z
" transform="scale(0.015625)"/>
      </defs>
      <use xlink:href="#Cmmi10-51" transform="translate(0 0.484375)"/>
     </g>
    </g>
   </g>
   <g id="text_2">
    <g clip-path="url(#pa3204e227a)">
     <!-- $R$ -->
     <g transform="translate(105.906125 117.417054) scale(0.25 -0.25)">
      <defs>
       <path id="Cmmi10-52" d="M 313 0 
Q 250 0 250 84 
Q 253 100 262 139 
Q 272 178 289 201 
Q 306 225 331 225 
Q 722 225 878 269 
Q 959 297 997 441 
L 1875 3956 
Q 1888 4019 1888 4044 
Q 1888 4113 1813 4122 
Q 1691 4147 1350 4147 
Q 1288 4147 1288 4231 
Q 1291 4247 1300 4286 
Q 1309 4325 1326 4348 
Q 1344 4372 1369 4372 
L 3309 4372 
Q 3541 4372 3791 4319 
Q 4041 4266 4250 4152 
Q 4459 4038 4593 3848 
Q 4728 3659 4728 3406 
Q 4728 3084 4515 2831 
Q 4303 2578 3978 2408 
Q 3653 2238 3347 2169 
Q 3597 2078 3756 1879 
Q 3916 1681 3916 1422 
Q 3916 1388 3914 1370 
Q 3913 1353 3909 1331 
L 3859 763 
Q 3853 638 3847 550 
Q 3841 463 3841 409 
Q 3841 234 3892 129 
Q 3944 25 4097 25 
Q 4297 25 4448 211 
Q 4600 397 4647 616 
Q 4675 672 4709 672 
L 4769 672 
Q 4831 672 4831 588 
Q 4784 403 4682 237 
Q 4581 72 4426 -34 
Q 4272 -141 4091 -141 
Q 3716 -141 3452 26 
Q 3188 194 3188 550 
Q 3188 684 3213 788 
L 3353 1356 
Q 3378 1434 3378 1538 
Q 3378 1803 3198 1954 
Q 3019 2106 2747 2106 
L 1959 2106 
L 1538 416 
Q 1522 363 1522 325 
Q 1522 259 1600 250 
Q 1722 225 2059 225 
Q 2125 225 2125 141 
Q 2103 50 2090 25 
Q 2078 0 2016 0 
L 313 0 
z
M 1997 2272 
L 2706 2272 
Q 3403 2272 3756 2625 
Q 3919 2788 4014 3039 
Q 4109 3291 4109 3541 
Q 4109 3778 3970 3912 
Q 3831 4047 3626 4097 
Q 3422 4147 3175 4147 
L 2747 4147 
Q 2572 4147 2515 4117 
Q 2459 4088 2413 3928 
L 1997 2272 
z
" transform="scale(0.015625)"/>
      </defs>
      <use xlink:href="#Cmmi10-52" transform="translate(0 0.6875)"/>
     </g>
    </g>
   </g>
   <g id="PathCollection_2">
    <path d="M 72.635942 323.814002 
C 73.573577 323.814002 74.472934 323.441476 75.135942 322.778468 
C 75.79895 322.115461 76.171476 321.216103 76.171476 320.278468 
C 76.171476 319.340834 75.79895 318.441476 75.135942 317.778468 
C 74.472934 317.115461 73.573577 316.742935 72.635942 316.742935 
C 71.698307 316.742935 70.79895 317.115461 70.135942 317.778468 
C 69.472934 318.441476 69.100408 319.340834 69.100408 320.278468 
C 69.100408 321.216103 69.472934 322.115461 70.135942 322.778468 
C 70.79895 323.441476 71.698307 323.814002 72.635942 323.814002 
z
" clip-path="url(#pa3204e227a)"/>
   </g>
  </g>
 </g>
 <defs>
  <clipPath id="pa3204e227a">
   <rect x="7.2" y="7.2" width="378.258162" height="324"/>
  </clipPath>
 </defs>
</svg>
