<?xml version="1.0" encoding="utf-8" standalone="no"?>
<!DOCTYPE svg PUBLIC "-//W3C//DTD SVG 1.1//EN"
  "http://www.w3.org/Graphics/SVG/1.1/DTD/svg11.dtd">
<svg xmlns:xlink="http://www.w3.org/1999/xlink" width="392.677802pt" height="338.4pt" viewBox="0 0 392.677802 338.4" xmlns="http://www.w3.org/2000/svg" version="1.1">
 <metadata>
  <rdf:RDF xmlns:dc="http://purl.org/dc/elements/1.1/" xmlns:cc="http://creativecommons.org/ns#" xmlns:rdf="http://www.w3.org/1999/02/22-rdf-syntax-ns#">
   <cc:Work>
    <dc:type rdf:resource="http://purl.org/dc/dcmitype/StillImage"/>
    <dc:date>2024-08-19T12:07:42.359053</dc:date>
    <dc:format>image/svg+xml</dc:format>
    <dc:creator>
     <cc:Agent>
      <dc:title>Matplotlib v3.8.0, https://matplotlib.org/</dc:title>
     </cc:Agent>
    </dc:creator>
   </cc:Work>
  </rdf:RDF>
 </metadata>
 <defs>
  <style type="text/css">*{stroke-linejoin: round; stroke-linecap: butt}</style>
 </defs>
 <g id="figure_1">
  <g id="patch_1">
   <path d="M 0 338.4 
L 392.677802 338.4 
L 392.677802 0 
L 0 0 
z
" style="fill: #ffffff"/>
  </g>
  <g id="axes_1">
   <g id="patch_2">
    <path d="M 7.2 331.2 
L 385.477802 331.2 
L 385.477802 7.2 
L 7.2 7.2 
z
" style="fill: #ffffff"/>
   </g>
   <g id="PathCollection_1">
    <path d="M 378.203229 246.783836 
C 379.140863 246.783836 380.040221 246.411309 380.703229 245.748302 
C 381.366237 245.085294 381.738763 244.185936 381.738763 243.248302 
C 381.738763 242.310667 381.366237 241.411309 380.703229 240.748302 
C 380.040221 240.085294 379.140863 239.712768 378.203229 239.712768 
C 377.265594 239.712768 376.366237 240.085294 375.703229 240.748302 
C 375.040221 241.411309 374.667695 242.310667 374.667695 243.248302 
C 374.667695 244.185936 375.040221 245.085294 375.703229 245.748302 
C 376.366237 246.411309 377.265594 246.783836 378.203229 246.783836 
z
" clip-path="url(#p1b3f8a18d1)"/>
   </g>
   <g id="PathCollection_2">
    <path d="M 72.639996 323.831406 
C 73.577631 323.831406 74.476989 323.45888 75.139996 322.795872 
C 75.803004 322.132864 76.17553 321.233506 76.17553 320.295872 
C 76.17553 319.358237 75.803004 318.45888 75.139996 317.795872 
C 74.476989 317.132864 73.577631 316.760338 72.639996 316.760338 
C 71.702362 316.760338 70.803004 317.132864 70.139996 317.795872 
C 69.476989 318.45888 69.104462 319.358237 69.104462 320.295872 
C 69.104462 321.233506 69.476989 322.132864 70.139996 322.795872 
C 70.803004 323.45888 71.702362 323.831406 72.639996 323.831406 
z
" clip-path="url(#p1b3f8a18d1)"/>
   </g>
   <g id="matplotlib.axis_1"/>
   <g id="matplotlib.axis_2"/>
   <g id="line2d_1">
    <path d="M 378.203229 243.248302 
L 346.766727 204.39657 
L 323.192546 175.418649 
L 307.013029 155.885007 
L 293.153015 139.519078 
L 281.359616 125.94079 
L 274.557475 118.281248 
L 261.846357 104.357801 
L 251.733545 93.691123 
L 242.387093 84.198847 
L 236.498101 78.415768 
L 228.400518 70.734304 
L 221.941727 64.847684 
L 214.012347 57.934172 
L 206.259153 51.532333 
L 200.861554 47.298519 
L 191.670769 40.540122 
L 187.016555 37.347159 
L 178.350464 31.841568 
L 174.372784 29.516218 
L 170.328672 27.288745 
L 164.459053 24.311467 
L 157.967191 21.389116 
L 153.081237 19.460232 
L 147.342019 17.507415 
L 144.170537 16.579724 
L 137.529597 15.004189 
L 132.937578 14.219278 
L 130.164669 13.871615 
L 126.126306 13.542157 
L 121.905171 13.430769 
L 118.605119 13.516525 
L 112.734063 14.062978 
L 110.52618 14.404695 
L 104.490691 15.740362 
L 100.034668 17.123921 
L 95.603629 18.856393 
L 94.230801 19.468665 
L 89.913304 21.638236 
L 85.083481 24.527033 
L 80.327697 27.882976 
L 76.414341 31.053903 
L 73.957951 33.245565 
L 69.03309 38.141066 
L 65.279661 42.35571 
L 61.797321 46.67363 
L 58.107103 51.715199 
L 57.01104 53.311475 
L 53.492383 58.765313 
L 49.903467 64.888296 
L 46.505052 71.268654 
L 43.380538 77.697406 
L 40.206535 84.855035 
L 36.857506 93.199368 
L 34.029542 100.98934 
L 31.628099 108.238633 
L 28.864914 117.449477 
L 26.386181 126.692714 
L 24.296581 135.406629 
L 22.483523 143.856761 
L 20.489619 154.450297 
L 19.188814 162.393616 
L 17.709461 172.941322 
L 16.435286 184.200913 
L 15.853467 190.561371 
L 15.020068 202.719527 
L 14.604989 213.079882 
L 14.474573 221.834599 
L 14.542132 229.881266 
L 14.827309 238.510557 
L 15.124895 243.897567 
L 15.960637 254.058096 
L 16.60378 259.767292 
L 17.723013 267.635961 
L 19.145144 275.465463 
L 20.710099 282.394585 
L 22.163761 287.771565 
L 23.473446 291.970652 
L 25.092808 296.501308 
L 27.160261 301.44194 
L 28.715253 304.651208 
L 31.0243 308.758829 
L 33.355332 312.237552 
L 34.591899 313.848525 
L 37.130665 316.711796 
L 38.676171 318.192157 
L 40.323744 319.573585 
L 42.611693 321.185156 
L 45.175348 322.608058 
L 47.410047 323.550415 
L 49.73762 324.263569 
L 52.877448 324.83076 
L 54.634435 324.965994 
L 56.834424 324.964573 
L 59.098047 324.777001 
L 62.916862 324.065148 
L 66.243501 323.073117 
L 70.241524 321.463699 
L 72.639996 320.295872 
L 72.639996 320.295872 
" clip-path="url(#p1b3f8a18d1)" style="fill: none; stroke: #000000; stroke-linecap: square"/>
   </g>
   <g id="patch_3">
    <path d="M 100.088664 17.105045 
Q 99.986268 17.140981 101.99378 16.436448 
" clip-path="url(#p1b3f8a18d1)" style="fill: none; stroke: #000000; stroke-width: 2; stroke-linecap: round"/>
    <path d="M 113.085307 17.84287 
L 101.99378 16.436448 
L 109.773834 8.40708 
z
" clip-path="url(#p1b3f8a18d1)" style="stroke: #000000; stroke-width: 2; stroke-linecap: round"/>
   </g>
   <g id="text_1">
    <g clip-path="url(#p1b3f8a18d1)">
     <!-- $P$ -->
     <g transform="translate(361.151833 272.462728) scale(0.25 -0.25)">
      <defs>
       <path id="Cmmi10-50" d="M 313 0 
Q 250 0 250 84 
Q 253 100 262 139 
Q 272 178 289 201 
Q 306 225 331 225 
Q 722 225 878 269 
Q 959 297 997 441 
L 1875 3956 
Q 1888 4019 1888 4044 
Q 1888 4113 1813 4122 
Q 1691 4147 1350 4147 
Q 1288 4147 1288 4231 
Q 1291 4247 1300 4286 
Q 1309 4325 1326 4348 
Q 1344 4372 1369 4372 
L 3578 4372 
Q 3881 4372 4165 4264 
Q 4450 4156 4631 3934 
Q 4813 3713 4813 3397 
Q 4813 2991 4527 2672 
Q 4241 2353 3814 2175 
Q 3388 1997 2988 1997 
L 1947 1997 
L 1556 416 
Q 1544 353 1544 325 
Q 1544 300 1551 283 
Q 1559 266 1573 261 
Q 1588 256 1619 250 
Q 1741 225 2081 225 
Q 2144 225 2144 141 
Q 2122 50 2109 25 
Q 2097 0 2034 0 
L 313 0 
z
M 1978 2188 
L 2875 2188 
Q 3497 2188 3822 2522 
Q 3988 2688 4092 3000 
Q 4197 3313 4197 3566 
Q 4197 3881 3956 4014 
Q 3716 4147 3359 4147 
L 2747 4147 
Q 2572 4147 2515 4117 
Q 2459 4088 2413 3928 
L 1978 2188 
z
" transform="scale(0.015625)"/>
      </defs>
      <use xlink:href="#Cmmi10-50" transform="translate(0 0.6875)"/>
     </g>
    </g>
   </g>
   <g id="text_2">
    <g clip-path="url(#p1b3f8a18d1)">
     <!-- $Q$ -->
     <g transform="translate(84.955985 322.731112) scale(0.25 -0.25)">
      <defs>
       <path id="Cmmi10-51" d="M 1947 -141 
Q 1466 -141 1094 79 
Q 722 300 520 692 
Q 319 1084 319 1563 
Q 319 2259 714 2950 
Q 1109 3641 1756 4077 
Q 2403 4513 3109 4513 
Q 3475 4513 3778 4381 
Q 4081 4250 4290 4017 
Q 4500 3784 4614 3471 
Q 4728 3159 4728 2791 
Q 4728 2366 4581 1936 
Q 4434 1506 4171 1136 
Q 3909 766 3559 484 
Q 3209 203 2809 38 
Q 2850 -256 2934 -425 
Q 3019 -594 3256 -594 
Q 3506 -594 3726 -412 
Q 3947 -231 4006 13 
Q 4019 72 4078 72 
Q 4147 72 4147 -13 
Q 4100 -219 4008 -430 
Q 3916 -641 3786 -823 
Q 3656 -1006 3478 -1123 
Q 3300 -1241 3084 -1241 
Q 2547 -1241 2547 -550 
Q 2547 -509 2562 -332 
Q 2578 -156 2578 -44 
Q 2269 -141 1947 -141 
z
M 1709 300 
Q 1709 44 1991 44 
Q 2275 44 2591 184 
L 2591 244 
Q 2591 503 2509 648 
Q 2428 794 2194 794 
Q 2078 794 1964 723 
Q 1850 653 1779 539 
Q 1709 425 1709 300 
z
M 1544 288 
Q 1544 456 1637 612 
Q 1731 769 1881 864 
Q 2031 959 2203 959 
Q 2481 959 2607 771 
Q 2734 584 2778 281 
Q 3188 525 3500 978 
Q 3813 1431 3977 1973 
Q 4141 2516 4141 3003 
Q 4141 3356 4023 3656 
Q 3906 3956 3664 4140 
Q 3422 4325 3066 4325 
Q 2722 4325 2403 4156 
Q 2084 3988 1813 3706 
Q 1550 3434 1342 3032 
Q 1134 2631 1021 2193 
Q 909 1756 909 1356 
Q 909 947 1068 612 
Q 1228 278 1569 128 
Q 1544 194 1544 288 
z
" transform="scale(0.015625)"/>
      </defs>
      <use xlink:href="#Cmmi10-51" transform="translate(0 0.484375)"/>
     </g>
    </g>
   </g>
  </g>
 </g>
 <defs>
  <clipPath id="p1b3f8a18d1">
   <rect x="7.2" y="7.2" width="378.277802" height="324"/>
  </clipPath>
 </defs>
</svg>
