<?xml version="1.0" encoding="utf-8" standalone="no"?>
<!DOCTYPE svg PUBLIC "-//W3C//DTD SVG 1.1//EN"
  "http://www.w3.org/Graphics/SVG/1.1/DTD/svg11.dtd">
<svg xmlns:xlink="http://www.w3.org/1999/xlink" width="392.671709pt" height="338.4pt" viewBox="0 0 392.671709 338.4" xmlns="http://www.w3.org/2000/svg" version="1.1">
 <metadata>
  <rdf:RDF xmlns:dc="http://purl.org/dc/elements/1.1/" xmlns:cc="http://creativecommons.org/ns#" xmlns:rdf="http://www.w3.org/1999/02/22-rdf-syntax-ns#">
   <cc:Work>
    <dc:type rdf:resource="http://purl.org/dc/dcmitype/StillImage"/>
    <dc:date>2024-09-10T13:42:25.376930</dc:date>
    <dc:format>image/svg+xml</dc:format>
    <dc:creator>
     <cc:Agent>
      <dc:title>Matplotlib v3.8.0, https://matplotlib.org/</dc:title>
     </cc:Agent>
    </dc:creator>
   </cc:Work>
  </rdf:RDF>
 </metadata>
 <defs>
  <style type="text/css">*{stroke-linejoin: round; stroke-linecap: butt}</style>
 </defs>
 <g id="figure_1">
  <g id="patch_1">
   <path d="M 0 338.4 
L 392.671709 338.4 
L 392.671709 0 
L 0 0 
z
" style="fill: #ffffff"/>
  </g>
  <g id="axes_1">
   <g id="patch_2">
    <path d="M 7.2 331.2 
L 385.471709 331.2 
L 385.471709 7.2 
L 7.2 7.2 
z
" style="fill: #ffffff"/>
   </g>
   <g id="PathCollection_1">
    <path d="M 378.197253 246.779363 
C 379.134887 246.779363 380.034245 246.406837 380.697253 245.74383 
C 381.36026 245.080822 381.732787 244.181464 381.732787 243.24383 
C 381.732787 242.306195 381.36026 241.406837 380.697253 240.74383 
C 380.034245 240.080822 379.134887 239.708296 378.197253 239.708296 
C 377.259618 239.708296 376.36026 240.080822 375.697253 240.74383 
C 375.034245 241.406837 374.661719 242.306195 374.661719 243.24383 
C 374.661719 244.181464 375.034245 245.080822 375.697253 245.74383 
C 376.36026 246.406837 377.259618 246.779363 378.197253 246.779363 
z
" clip-path="url(#pc6f432269d)"/>
   </g>
   <g id="PathCollection_2">
    <path d="M 72.63927 323.82561 
C 73.576905 323.82561 74.476262 323.453084 75.13927 322.790076 
C 75.802278 322.127068 76.174804 321.22771 76.174804 320.290076 
C 76.174804 319.352441 75.802278 318.453084 75.13927 317.790076 
C 74.476262 317.127068 73.576905 316.754542 72.63927 316.754542 
C 71.701635 316.754542 70.802278 317.127068 70.13927 317.790076 
C 69.476262 318.453084 69.103736 319.352441 69.103736 320.290076 
C 69.103736 321.22771 69.476262 322.127068 70.13927 322.790076 
C 70.802278 323.453084 71.701635 323.82561 72.63927 323.82561 
z
" clip-path="url(#pc6f432269d)"/>
   </g>
   <g id="matplotlib.axis_1"/>
   <g id="matplotlib.axis_2"/>
   <g id="line2d_1">
    <path d="M 378.197253 243.24383 
L 348.580721 206.643062 
L 325.106696 177.756124 
L 306.785238 155.615675 
L 293.909748 140.404631 
L 284.774776 129.838318 
L 272.872647 116.40778 
L 261.620022 104.117064 
L 250.965882 92.899716 
L 240.432417 82.263554 
L 231.743634 73.868006 
L 224.901242 67.519137 
L 216.999889 60.498377 
L 210.713703 55.167015 
L 203.015348 48.966422 
L 195.348276 43.174971 
L 194.110551 42.277792 
L 184.943492 35.977858 
L 178.220094 31.763975 
L 172.944426 28.714061 
L 166.941511 25.53333 
L 164.379925 24.273857 
L 156.740183 20.882577 
L 154.249523 19.899818 
L 148.611087 17.909311 
L 142.962741 16.255632 
L 142.211193 16.062274 
L 136.046478 14.722506 
L 130.466323 13.904374 
L 125.560098 13.512714 
L 121.760364 13.430769 
L 115.630775 13.728182 
L 110.393029 14.426979 
L 106.464974 15.236226 
L 101.045065 16.778429 
L 97.980918 17.880363 
L 94.796549 19.210795 
L 90.120043 21.524466 
L 85.996556 23.940664 
L 83.553038 25.548392 
L 79.9869 28.142569 
L 76.203051 31.234658 
L 72.175027 34.936903 
L 71.552238 35.549122 
L 66.359196 41.096672 
L 61.950228 46.473555 
L 58.587353 51.028577 
L 54.892097 56.53189 
L 51.893494 61.417646 
L 48.096842 68.203236 
L 44.791014 74.722124 
L 42.048721 80.616756 
L 38.660073 88.597024 
L 36.00337 95.472458 
L 33.475257 102.6048 
L 30.506177 111.853639 
L 28.572444 118.485067 
L 25.876134 128.730731 
L 23.475393 139.114859 
L 21.95497 146.511264 
L 20.510503 154.328463 
L 19.174379 162.485864 
L 17.556924 174.154624 
L 16.347133 185.097643 
L 15.444159 195.871943 
L 14.813687 207.035374 
L 14.548581 215.496656 
L 14.474456 223.827071 
L 14.644586 233.824789 
L 14.959223 241.105283 
L 15.433683 248.198661 
L 16.099814 255.39203 
L 17.299706 264.883703 
L 18.540991 272.355087 
L 19.686988 278.020801 
L 21.509661 285.451428 
L 23.127354 290.906641 
L 24.926341 296.059307 
L 26.943053 300.955759 
L 29.400416 305.940942 
L 32.008767 310.297316 
L 33.246496 312.082802 
L 35.689522 315.150595 
L 37.783558 317.35434 
L 39.851012 319.191365 
L 42.556492 321.14454 
L 44.865235 322.450333 
L 47.06842 323.417518 
L 50.154987 324.358465 
L 52.922213 324.829941 
L 54.245483 324.940924 
L 57.771389 324.903217 
L 60.646703 324.540117 
L 64.063521 323.754631 
L 67.876704 322.462413 
L 70.178881 321.486101 
L 72.63927 320.290076 
L 72.63927 320.290076 
" clip-path="url(#pc6f432269d)" style="fill: none; stroke: #000000; stroke-linecap: square"/>
   </g>
   <g id="patch_3">
    <path d="M 100.087466 17.104458 
Q 99.985072 17.140393 101.992586 16.43586 
" clip-path="url(#pc6f432269d)" style="fill: none; stroke: #000000; stroke-width: 2; stroke-linecap: round"/>
    <path d="M 113.084113 17.842282 
L 101.992586 16.43586 
L 109.772639 8.406491 
z
" clip-path="url(#pc6f432269d)" style="stroke: #000000; stroke-width: 2; stroke-linecap: round"/>
   </g>
   <g id="text_1">
    <g clip-path="url(#pc6f432269d)">
     <!-- $P$ -->
     <g transform="translate(361.146011 272.457872) scale(0.25 -0.25)">
      <defs>
       <path id="Cmmi10-50" d="M 313 0 
Q 250 0 250 84 
Q 253 100 262 139 
Q 272 178 289 201 
Q 306 225 331 225 
Q 722 225 878 269 
Q 959 297 997 441 
L 1875 3956 
Q 1888 4019 1888 4044 
Q 1888 4113 1813 4122 
Q 1691 4147 1350 4147 
Q 1288 4147 1288 4231 
Q 1291 4247 1300 4286 
Q 1309 4325 1326 4348 
Q 1344 4372 1369 4372 
L 3578 4372 
Q 3881 4372 4165 4264 
Q 4450 4156 4631 3934 
Q 4813 3713 4813 3397 
Q 4813 2991 4527 2672 
Q 4241 2353 3814 2175 
Q 3388 1997 2988 1997 
L 1947 1997 
L 1556 416 
Q 1544 353 1544 325 
Q 1544 300 1551 283 
Q 1559 266 1573 261 
Q 1588 256 1619 250 
Q 1741 225 2081 225 
Q 2144 225 2144 141 
Q 2122 50 2109 25 
Q 2097 0 2034 0 
L 313 0 
z
M 1978 2188 
L 2875 2188 
Q 3497 2188 3822 2522 
Q 3988 2688 4092 3000 
Q 4197 3313 4197 3566 
Q 4197 3881 3956 4014 
Q 3716 4147 3359 4147 
L 2747 4147 
Q 2572 4147 2515 4117 
Q 2459 4088 2413 3928 
L 1978 2188 
z
" transform="scale(0.015625)"/>
      </defs>
      <use xlink:href="#Cmmi10-50" transform="translate(0 0.6875)"/>
     </g>
    </g>
   </g>
   <g id="text_2">
    <g clip-path="url(#pc6f432269d)">
     <!-- $Q$ -->
     <g transform="translate(84.954875 322.725392) scale(0.25 -0.25)">
      <defs>
       <path id="Cmmi10-51" d="M 1947 -141 
Q 1466 -141 1094 79 
Q 722 300 520 692 
Q 319 1084 319 1563 
Q 319 2259 714 2950 
Q 1109 3641 1756 4077 
Q 2403 4513 3109 4513 
Q 3475 4513 3778 4381 
Q 4081 4250 4290 4017 
Q 4500 3784 4614 3471 
Q 4728 3159 4728 2791 
Q 4728 2366 4581 1936 
Q 4434 1506 4171 1136 
Q 3909 766 3559 484 
Q 3209 203 2809 38 
Q 2850 -256 2934 -425 
Q 3019 -594 3256 -594 
Q 3506 -594 3726 -412 
Q 3947 -231 4006 13 
Q 4019 72 4078 72 
Q 4147 72 4147 -13 
Q 4100 -219 4008 -430 
Q 3916 -641 3786 -823 
Q 3656 -1006 3478 -1123 
Q 3300 -1241 3084 -1241 
Q 2547 -1241 2547 -550 
Q 2547 -509 2562 -332 
Q 2578 -156 2578 -44 
Q 2269 -141 1947 -141 
z
M 1709 300 
Q 1709 44 1991 44 
Q 2275 44 2591 184 
L 2591 244 
Q 2591 503 2509 648 
Q 2428 794 2194 794 
Q 2078 794 1964 723 
Q 1850 653 1779 539 
Q 1709 425 1709 300 
z
M 1544 288 
Q 1544 456 1637 612 
Q 1731 769 1881 864 
Q 2031 959 2203 959 
Q 2481 959 2607 771 
Q 2734 584 2778 281 
Q 3188 525 3500 978 
Q 3813 1431 3977 1973 
Q 4141 2516 4141 3003 
Q 4141 3356 4023 3656 
Q 3906 3956 3664 4140 
Q 3422 4325 3066 4325 
Q 2722 4325 2403 4156 
Q 2084 3988 1813 3706 
Q 1550 3434 1342 3032 
Q 1134 2631 1021 2193 
Q 909 1756 909 1356 
Q 909 947 1068 612 
Q 1228 278 1569 128 
Q 1544 194 1544 288 
z
" transform="scale(0.015625)"/>
      </defs>
      <use xlink:href="#Cmmi10-51" transform="translate(0 0.484375)"/>
     </g>
    </g>
   </g>
  </g>
 </g>
 <defs>
  <clipPath id="pc6f432269d">
   <rect x="7.2" y="7.2" width="378.271709" height="324"/>
  </clipPath>
 </defs>
</svg>
