<?xml version="1.0" encoding="utf-8" standalone="no"?>
<!DOCTYPE svg PUBLIC "-//W3C//DTD SVG 1.1//EN"
  "http://www.w3.org/Graphics/SVG/1.1/DTD/svg11.dtd">
<svg xmlns:xlink="http://www.w3.org/1999/xlink" width="392.6839pt" height="338.4pt" viewBox="0 0 392.6839 338.4" xmlns="http://www.w3.org/2000/svg" version="1.1">
 <metadata>
  <rdf:RDF xmlns:dc="http://purl.org/dc/elements/1.1/" xmlns:cc="http://creativecommons.org/ns#" xmlns:rdf="http://www.w3.org/1999/02/22-rdf-syntax-ns#">
   <cc:Work>
    <dc:type rdf:resource="http://purl.org/dc/dcmitype/StillImage"/>
    <dc:date>2024-12-04T08:30:07.422260</dc:date>
    <dc:format>image/svg+xml</dc:format>
    <dc:creator>
     <cc:Agent>
      <dc:title>Matplotlib v3.6.2, https://matplotlib.org/</dc:title>
     </cc:Agent>
    </dc:creator>
   </cc:Work>
  </rdf:RDF>
 </metadata>
 <defs>
  <style type="text/css">*{stroke-linejoin: round; stroke-linecap: butt}</style>
 </defs>
 <g id="figure_1">
  <g id="patch_1">
   <path d="M 0 338.4 
L 392.6839 338.4 
L 392.6839 0 
L 0 0 
z
" style="fill: #ffffff"/>
  </g>
  <g id="axes_1">
   <g id="patch_2">
    <path d="M 7.2 331.2 
L 385.4839 331.2 
L 385.4839 7.2 
L 7.2 7.2 
z
" style="fill: #ffffff"/>
   </g>
   <g id="PathCollection_1">
    <path d="M 378.20921 246.763289 
C 379.146844 246.763289 380.046202 246.390763 380.70921 245.727755 
C 381.372218 245.064747 381.744744 244.165389 381.744744 243.227755 
C 381.744744 242.29012 381.372218 241.390763 380.70921 240.727755 
C 380.046202 240.064747 379.146844 239.692221 378.20921 239.692221 
C 377.271575 239.692221 376.372218 240.064747 375.70921 240.727755 
C 375.046202 241.390763 374.673676 242.29012 374.673676 243.227755 
C 374.673676 244.165389 375.046202 245.064747 375.70921 245.727755 
C 376.372218 246.390763 377.271575 246.763289 378.20921 246.763289 
z
" clip-path="url(#pb8279e83dd)"/>
   </g>
   <g id="PathCollection_2">
    <path d="M 72.640154 323.812327 
C 73.577789 323.812327 74.477146 323.439801 75.140154 322.776793 
C 75.803162 322.113786 76.175688 321.214428 76.175688 320.276793 
C 76.175688 319.339159 75.803162 318.439801 75.140154 317.776793 
C 74.477146 317.113786 73.577789 316.741259 72.640154 316.741259 
C 71.70252 316.741259 70.803162 317.113786 70.140154 317.776793 
C 69.477146 318.439801 69.10462 319.339159 69.10462 320.276793 
C 69.10462 321.214428 69.477146 322.113786 70.140154 322.776793 
C 70.803162 323.439801 71.70252 323.812327 72.640154 323.812327 
z
" clip-path="url(#pb8279e83dd)"/>
   </g>
   <g id="matplotlib.axis_1"/>
   <g id="matplotlib.axis_2"/>
   <g id="line2d_1">
    <path d="M 378.20921 243.227755 
L 311.151785 160.81563 
L 296.599288 143.52312 
L 284.31843 129.286029 
L 272.245889 115.682532 
L 261.680687 104.152743 
L 252.599862 94.562265 
L 244.463265 86.248078 
L 237.426987 79.2904 
L 229.661813 71.882545 
L 222.779724 65.572217 
L 214.994093 58.744083 
L 207.423564 52.443782 
L 198.620371 45.570671 
L 194.350494 42.423701 
L 190.176896 39.471826 
L 184.351482 35.565799 
L 175.73344 30.271057 
L 170.949764 27.595928 
L 167.256351 25.666095 
L 160.902881 22.635464 
L 157.98297 21.370207 
L 152.495269 19.219664 
L 147.530544 17.540672 
L 141.803416 15.934888 
L 136.326743 14.748738 
L 132.364194 14.114362 
L 128.505452 13.685454 
L 124.003625 13.430769 
L 118.562421 13.493783 
L 113.76989 13.903994 
L 110.138443 14.447895 
L 106.989024 15.089789 
L 101.913191 16.473353 
L 99.857867 17.161481 
L 94.692228 19.234233 
L 90.071444 21.527557 
L 85.519065 24.22115 
L 82.957971 25.937424 
L 79.753636 28.299881 
L 78.321616 29.436103 
L 75.44044 31.879337 
L 70.318223 36.772148 
L 67.60441 39.66946 
L 63.710515 44.226495 
L 61.285376 47.319127 
L 58.497542 51.133455 
L 55.06686 56.236667 
L 51.264871 62.470669 
L 47.168751 69.950331 
L 44.027261 76.294601 
L 41.969791 80.771042 
L 38.104982 89.963011 
L 36.001256 95.455542 
L 32.842555 104.468154 
L 30.611245 111.485164 
L 28.407593 119.052694 
L 26.380753 126.68853 
L 24.098595 136.258866 
L 22.397364 144.256814 
L 20.445918 154.674763 
L 18.862906 164.526823 
L 17.574062 173.989149 
L 16.557294 182.959771 
L 15.897793 190.003051 
L 15.106133 201.125257 
L 14.671131 210.791755 
L 14.47469 221.500462 
L 14.544752 230.036622 
L 14.805521 238.034086 
L 15.114082 243.722613 
L 15.676577 251.071357 
L 16.441099 258.417596 
L 17.660521 267.230695 
L 18.749056 273.447405 
L 20.102777 279.853344 
L 21.798088 286.480557 
L 23.463771 291.92426 
L 25.585811 297.740115 
L 26.743817 300.495248 
L 28.459927 304.132672 
L 30.24855 307.440382 
L 31.89043 310.10497 
L 34.212577 313.351899 
L 35.746288 315.202301 
L 38.11003 317.652778 
L 39.808099 319.143333 
L 41.992651 320.763683 
L 43.85452 321.90404 
L 45.472511 322.729877 
L 48.186197 323.798588 
L 48.708137 323.961505 
L 51.742509 324.656513 
L 53.766178 324.895815 
L 57.31505 324.921118 
L 58.621308 324.812589 
L 62.576286 324.128749 
L 64.417341 323.639603 
L 68.501521 322.198616 
L 69.722571 321.677942 
L 72.640154 320.276793 
L 72.640154 320.276793 
" clip-path="url(#pb8279e83dd)" style="fill: none; stroke: #000000; stroke-linecap: square"/>
   </g>
   <g id="patch_3">
    <path d="M 100.089345 17.080189 
Q 99.986947 17.116125 101.994457 16.411593 
" clip-path="url(#pb8279e83dd)" style="fill: none; stroke: #000000; stroke-width: 2; stroke-linecap: round"/>
    <path d="M 113.085984 17.818015 
L 101.994457 16.411593 
L 109.774511 8.382224 
L 113.085984 17.818015 
z
" clip-path="url(#pb8279e83dd)" style="stroke: #000000; stroke-width: 2; stroke-linecap: round"/>
   </g>
   <g id="text_1">
    <g clip-path="url(#pb8279e83dd)">
     <!-- $P$ -->
     <g transform="translate(361.157644 272.442606) scale(0.25 -0.25)">
      <defs>
       <path id="Cmmi10-50" d="M 313 0 
Q 250 0 250 84 
Q 253 100 262 139 
Q 272 178 289 201 
Q 306 225 331 225 
Q 722 225 878 269 
Q 959 297 997 441 
L 1875 3956 
Q 1888 4019 1888 4044 
Q 1888 4113 1813 4122 
Q 1691 4147 1350 4147 
Q 1288 4147 1288 4231 
Q 1291 4247 1300 4286 
Q 1309 4325 1326 4348 
Q 1344 4372 1369 4372 
L 3578 4372 
Q 3881 4372 4165 4264 
Q 4450 4156 4631 3934 
Q 4813 3713 4813 3397 
Q 4813 2991 4527 2672 
Q 4241 2353 3814 2175 
Q 3388 1997 2988 1997 
L 1947 1997 
L 1556 416 
Q 1544 353 1544 325 
Q 1544 300 1551 283 
Q 1559 266 1573 261 
Q 1588 256 1619 250 
Q 1741 225 2081 225 
Q 2144 225 2144 141 
Q 2122 50 2109 25 
Q 2097 0 2034 0 
L 313 0 
z
M 1978 2188 
L 2875 2188 
Q 3497 2188 3822 2522 
Q 3988 2688 4092 3000 
Q 4197 3313 4197 3566 
Q 4197 3881 3956 4014 
Q 3716 4147 3359 4147 
L 2747 4147 
Q 2572 4147 2515 4117 
Q 2459 4088 2413 3928 
L 1978 2188 
z
" transform="scale(0.015625)"/>
      </defs>
      <use xlink:href="#Cmmi10-50" transform="translate(0 0.6875)"/>
     </g>
    </g>
   </g>
   <g id="text_2">
    <g clip-path="url(#pb8279e83dd)">
     <!-- $Q$ -->
     <g transform="translate(84.956568 322.711948) scale(0.25 -0.25)">
      <defs>
       <path id="Cmmi10-51" d="M 1947 -141 
Q 1466 -141 1094 79 
Q 722 300 520 692 
Q 319 1084 319 1563 
Q 319 2259 714 2950 
Q 1109 3641 1756 4077 
Q 2403 4513 3109 4513 
Q 3475 4513 3778 4381 
Q 4081 4250 4290 4017 
Q 4500 3784 4614 3471 
Q 4728 3159 4728 2791 
Q 4728 2366 4581 1936 
Q 4434 1506 4171 1136 
Q 3909 766 3559 484 
Q 3209 203 2809 38 
Q 2850 -256 2934 -425 
Q 3019 -594 3256 -594 
Q 3506 -594 3726 -412 
Q 3947 -231 4006 13 
Q 4019 72 4078 72 
Q 4147 72 4147 -13 
Q 4100 -219 4008 -430 
Q 3916 -641 3786 -823 
Q 3656 -1006 3478 -1123 
Q 3300 -1241 3084 -1241 
Q 2547 -1241 2547 -550 
Q 2547 -509 2562 -332 
Q 2578 -156 2578 -44 
Q 2269 -141 1947 -141 
z
M 1709 300 
Q 1709 44 1991 44 
Q 2275 44 2591 184 
L 2591 244 
Q 2591 503 2509 648 
Q 2428 794 2194 794 
Q 2078 794 1964 723 
Q 1850 653 1779 539 
Q 1709 425 1709 300 
z
M 1544 288 
Q 1544 456 1637 612 
Q 1731 769 1881 864 
Q 2031 959 2203 959 
Q 2481 959 2607 771 
Q 2734 584 2778 281 
Q 3188 525 3500 978 
Q 3813 1431 3977 1973 
Q 4141 2516 4141 3003 
Q 4141 3356 4023 3656 
Q 3906 3956 3664 4140 
Q 3422 4325 3066 4325 
Q 2722 4325 2403 4156 
Q 2084 3988 1813 3706 
Q 1550 3434 1342 3032 
Q 1134 2631 1021 2193 
Q 909 1756 909 1356 
Q 909 947 1068 612 
Q 1228 278 1569 128 
Q 1544 194 1544 288 
z
" transform="scale(0.015625)"/>
      </defs>
      <use xlink:href="#Cmmi10-51" transform="translate(0 0.484375)"/>
     </g>
    </g>
   </g>
  </g>
 </g>
 <defs>
  <clipPath id="pb8279e83dd">
   <rect x="7.2" y="7.2" width="378.2839" height="324"/>
  </clipPath>
 </defs>
</svg>
