<?xml version="1.0" encoding="utf-8" standalone="no"?>
<!DOCTYPE svg PUBLIC "-//W3C//DTD SVG 1.1//EN"
  "http://www.w3.org/Graphics/SVG/1.1/DTD/svg11.dtd">
<svg xmlns:xlink="http://www.w3.org/1999/xlink" width="392.66816pt" height="338.4pt" viewBox="0 0 392.66816 338.4" xmlns="http://www.w3.org/2000/svg" version="1.1">
 <metadata>
  <rdf:RDF xmlns:dc="http://purl.org/dc/elements/1.1/" xmlns:cc="http://creativecommons.org/ns#" xmlns:rdf="http://www.w3.org/1999/02/22-rdf-syntax-ns#">
   <cc:Work>
    <dc:type rdf:resource="http://purl.org/dc/dcmitype/StillImage"/>
    <dc:date>2024-11-20T07:38:27.448183</dc:date>
    <dc:format>image/svg+xml</dc:format>
    <dc:creator>
     <cc:Agent>
      <dc:title>Matplotlib v3.6.2, https://matplotlib.org/</dc:title>
     </cc:Agent>
    </dc:creator>
   </cc:Work>
  </rdf:RDF>
 </metadata>
 <defs>
  <style type="text/css">*{stroke-linejoin: round; stroke-linecap: butt}</style>
 </defs>
 <g id="figure_1">
  <g id="patch_1">
   <path d="M 0 338.4 
L 392.66816 338.4 
L 392.66816 0 
L 0 0 
z
" style="fill: #ffffff"/>
  </g>
  <g id="axes_1">
   <g id="patch_2">
    <path d="M 7.2 331.2 
L 385.46816 331.2 
L 385.46816 7.2 
L 7.2 7.2 
z
" style="fill: #ffffff"/>
   </g>
   <g id="PathCollection_1">
    <path d="M 378.193772 246.776036 
C 379.131406 246.776036 380.030764 246.40351 380.693772 245.740502 
C 381.35678 245.077494 381.729306 244.178137 381.729306 243.240502 
C 381.729306 242.302867 381.35678 241.40351 380.693772 240.740502 
C 380.030764 240.077494 379.131406 239.704968 378.193772 239.704968 
C 377.256137 239.704968 376.35678 240.077494 375.693772 240.740502 
C 375.030764 241.40351 374.658238 242.302867 374.658238 243.240502 
C 374.658238 244.178137 375.030764 245.077494 375.693772 245.740502 
C 376.35678 246.40351 377.256137 246.776036 378.193772 246.776036 
z
" clip-path="url(#pafcc0b471a)"/>
   </g>
   <g id="PathCollection_2">
    <path d="M 72.637483 323.821855 
C 73.575117 323.821855 74.474475 323.449329 75.137483 322.786321 
C 75.80049 322.123314 76.173017 321.223956 76.173017 320.286321 
C 76.173017 319.348687 75.80049 318.449329 75.137483 317.786321 
C 74.474475 317.123314 73.575117 316.750787 72.637483 316.750787 
C 71.699848 316.750787 70.80049 317.123314 70.137483 317.786321 
C 69.474475 318.449329 69.101949 319.348687 69.101949 320.286321 
C 69.101949 321.223956 69.474475 322.123314 70.137483 322.786321 
C 70.80049 323.449329 71.699848 323.821855 72.637483 323.821855 
z
" clip-path="url(#pafcc0b471a)"/>
   </g>
   <g id="matplotlib.axis_1"/>
   <g id="matplotlib.axis_2"/>
   <g id="line2d_1">
    <path d="M 378.193772 243.240502 
L 345.615245 202.976853 
L 321.835239 173.769537 
L 308.270299 157.391708 
L 292.128173 138.328709 
L 281.460051 126.057992 
L 268.365551 111.434528 
L 257.643021 99.879624 
L 250.612324 92.535459 
L 240.045026 81.881925 
L 233.313472 75.358171 
L 224.499295 67.153796 
L 218.635664 61.923306 
L 211.265716 55.625609 
L 201.907885 48.105264 
L 195.868484 43.55484 
L 191.091485 40.134511 
L 183.527632 35.060327 
L 177.130367 31.114317 
L 169.676131 26.942188 
L 161.899801 23.111012 
L 156.683903 20.858508 
L 151.943916 19.044727 
L 148.42099 17.846646 
L 142.452105 16.122047 
L 139.536512 15.424879 
L 134.434189 14.444884 
L 128.956788 13.748553 
L 126.45931 13.558852 
L 122.729683 13.430769 
L 118.160392 13.53724 
L 114.763871 13.812519 
L 111.889197 14.181608 
L 107.248394 15.05215 
L 104.727219 15.673088 
L 101.765566 16.541245 
L 96.665459 18.403748 
L 92.390847 20.343088 
L 88.950463 22.169782 
L 85.200901 24.44611 
L 82.026391 26.618714 
L 79.846342 28.247498 
L 76.613745 30.877753 
L 72.355026 34.75809 
L 68.714129 38.47662 
L 65.570348 42.007486 
L 61.576539 46.955081 
L 57.829068 52.109084 
L 55.441407 55.673968 
L 51.872238 61.448555 
L 49.381472 65.822426 
L 46.178336 71.906766 
L 42.625178 79.332244 
L 39.559074 86.392403 
L 36.324501 94.602756 
L 34.082279 100.827782 
L 31.550456 108.474208 
L 28.934441 117.194397 
L 26.566253 125.97375 
L 24.03125 136.574221 
L 22.388719 144.313779 
L 20.326837 155.378582 
L 18.587861 166.427686 
L 17.405751 175.373228 
L 16.509663 183.440028 
L 15.650114 193.064409 
L 14.962998 203.787689 
L 14.571411 214.373303 
L 14.474388 221.530179 
L 14.532108 229.416902 
L 14.77478 237.352605 
L 15.342939 247.038592 
L 16.095583 255.362723 
L 17.277086 264.736658 
L 18.787133 273.658795 
L 19.694217 278.056983 
L 21.534468 285.544101 
L 23.026975 290.594269 
L 25.05869 296.407112 
L 26.763332 300.551535 
L 28.342589 303.911173 
L 30.520566 307.916598 
L 31.925303 310.169487 
L 32.892128 311.587043 
L 34.785204 314.079523 
L 37.564065 317.138066 
L 39.792041 319.140857 
L 42.574362 321.153138 
L 45.301194 322.659522 
L 46.970102 323.376684 
L 49.061413 324.074165 
L 50.657826 324.465768 
L 52.290043 324.747845 
L 55.007622 324.969231 
L 57.029738 324.945891 
L 60.759162 324.516132 
L 62.758567 324.093804 
L 67.17608 322.726531 
L 69.99222 321.565949 
L 72.637483 320.286321 
L 72.637483 320.286321 
" clip-path="url(#pafcc0b471a)" style="fill: none; stroke: #000000; stroke-linecap: square"/>
   </g>
   <g id="patch_3">
    <path d="M 99.88074 17.174254 
Q 99.983133 17.138319 97.975619 17.842852 
" clip-path="url(#pafcc0b471a)" style="fill: none; stroke: #000000; stroke-width: 2; stroke-linecap: round"/>
    <path d="M 86.884092 16.43643 
L 97.975619 17.842852 
L 90.195565 25.872221 
L 86.884092 16.43643 
z
" clip-path="url(#pafcc0b471a)" style="stroke: #000000; stroke-width: 2; stroke-linecap: round"/>
   </g>
   <g id="text_1">
    <g clip-path="url(#pafcc0b471a)">
     <!-- $P$ -->
     <g transform="translate(361.142579 272.454421) scale(0.25 -0.25)">
      <defs>
       <path id="Cmmi10-50" d="M 313 0 
Q 250 0 250 84 
Q 253 100 262 139 
Q 272 178 289 201 
Q 306 225 331 225 
Q 722 225 878 269 
Q 959 297 997 441 
L 1875 3956 
Q 1888 4019 1888 4044 
Q 1888 4113 1813 4122 
Q 1691 4147 1350 4147 
Q 1288 4147 1288 4231 
Q 1291 4247 1300 4286 
Q 1309 4325 1326 4348 
Q 1344 4372 1369 4372 
L 3578 4372 
Q 3881 4372 4165 4264 
Q 4450 4156 4631 3934 
Q 4813 3713 4813 3397 
Q 4813 2991 4527 2672 
Q 4241 2353 3814 2175 
Q 3388 1997 2988 1997 
L 1947 1997 
L 1556 416 
Q 1544 353 1544 325 
Q 1544 300 1551 283 
Q 1559 266 1573 261 
Q 1588 256 1619 250 
Q 1741 225 2081 225 
Q 2144 225 2144 141 
Q 2122 50 2109 25 
Q 2097 0 2034 0 
L 313 0 
z
M 1978 2188 
L 2875 2188 
Q 3497 2188 3822 2522 
Q 3988 2688 4092 3000 
Q 4197 3313 4197 3566 
Q 4197 3881 3956 4014 
Q 3716 4147 3359 4147 
L 2747 4147 
Q 2572 4147 2515 4117 
Q 2459 4088 2413 3928 
L 1978 2188 
z
" transform="scale(0.015625)"/>
      </defs>
      <use xlink:href="#Cmmi10-50" transform="translate(0 0.6875)"/>
     </g>
    </g>
   </g>
   <g id="text_2">
    <g clip-path="url(#pafcc0b471a)">
     <!-- $Q$ -->
     <g transform="translate(84.952964 322.721663) scale(0.25 -0.25)">
      <defs>
       <path id="Cmmi10-51" d="M 1947 -141 
Q 1466 -141 1094 79 
Q 722 300 520 692 
Q 319 1084 319 1563 
Q 319 2259 714 2950 
Q 1109 3641 1756 4077 
Q 2403 4513 3109 4513 
Q 3475 4513 3778 4381 
Q 4081 4250 4290 4017 
Q 4500 3784 4614 3471 
Q 4728 3159 4728 2791 
Q 4728 2366 4581 1936 
Q 4434 1506 4171 1136 
Q 3909 766 3559 484 
Q 3209 203 2809 38 
Q 2850 -256 2934 -425 
Q 3019 -594 3256 -594 
Q 3506 -594 3726 -412 
Q 3947 -231 4006 13 
Q 4019 72 4078 72 
Q 4147 72 4147 -13 
Q 4100 -219 4008 -430 
Q 3916 -641 3786 -823 
Q 3656 -1006 3478 -1123 
Q 3300 -1241 3084 -1241 
Q 2547 -1241 2547 -550 
Q 2547 -509 2562 -332 
Q 2578 -156 2578 -44 
Q 2269 -141 1947 -141 
z
M 1709 300 
Q 1709 44 1991 44 
Q 2275 44 2591 184 
L 2591 244 
Q 2591 503 2509 648 
Q 2428 794 2194 794 
Q 2078 794 1964 723 
Q 1850 653 1779 539 
Q 1709 425 1709 300 
z
M 1544 288 
Q 1544 456 1637 612 
Q 1731 769 1881 864 
Q 2031 959 2203 959 
Q 2481 959 2607 771 
Q 2734 584 2778 281 
Q 3188 525 3500 978 
Q 3813 1431 3977 1973 
Q 4141 2516 4141 3003 
Q 4141 3356 4023 3656 
Q 3906 3956 3664 4140 
Q 3422 4325 3066 4325 
Q 2722 4325 2403 4156 
Q 2084 3988 1813 3706 
Q 1550 3434 1342 3032 
Q 1134 2631 1021 2193 
Q 909 1756 909 1356 
Q 909 947 1068 612 
Q 1228 278 1569 128 
Q 1544 194 1544 288 
z
" transform="scale(0.015625)"/>
      </defs>
      <use xlink:href="#Cmmi10-51" transform="translate(0 0.484375)"/>
     </g>
    </g>
   </g>
  </g>
 </g>
 <defs>
  <clipPath id="pafcc0b471a">
   <rect x="7.2" y="7.2" width="378.26816" height="324"/>
  </clipPath>
 </defs>
</svg>
