<?xml version="1.0" encoding="utf-8" standalone="no"?>
<!DOCTYPE svg PUBLIC "-//W3C//DTD SVG 1.1//EN"
  "http://www.w3.org/Graphics/SVG/1.1/DTD/svg11.dtd">
<svg xmlns:xlink="http://www.w3.org/1999/xlink" width="392.657205pt" height="338.4pt" viewBox="0 0 392.657205 338.4" xmlns="http://www.w3.org/2000/svg" version="1.1">
 <metadata>
  <rdf:RDF xmlns:dc="http://purl.org/dc/elements/1.1/" xmlns:cc="http://creativecommons.org/ns#" xmlns:rdf="http://www.w3.org/1999/02/22-rdf-syntax-ns#">
   <cc:Work>
    <dc:type rdf:resource="http://purl.org/dc/dcmitype/StillImage"/>
    <dc:date>2025-02-05T13:28:08.429849</dc:date>
    <dc:format>image/svg+xml</dc:format>
    <dc:creator>
     <cc:Agent>
      <dc:title>Matplotlib v3.8.0, https://matplotlib.org/</dc:title>
     </cc:Agent>
    </dc:creator>
   </cc:Work>
  </rdf:RDF>
 </metadata>
 <defs>
  <style type="text/css">*{stroke-linejoin: round; stroke-linecap: butt}</style>
 </defs>
 <g id="figure_1">
  <g id="patch_1">
   <path d="M 0 338.4 
L 392.657205 338.4 
L 392.657205 0 
L 0 0 
z
" style="fill: #ffffff"/>
  </g>
  <g id="axes_1">
   <g id="patch_2">
    <path d="M 7.2 331.2 
L 385.457205 331.2 
L 385.457205 7.2 
L 7.2 7.2 
z
" style="fill: #ffffff"/>
   </g>
   <g id="PathCollection_1">
    <path d="M 378.183028 246.773256 
C 379.120662 246.773256 380.02002 246.40073 380.683028 245.737722 
C 381.346035 245.074714 381.718561 244.175357 381.718561 243.237722 
C 381.718561 242.300087 381.346035 241.40073 380.683028 240.737722 
C 380.02002 240.074714 379.120662 239.702188 378.183028 239.702188 
C 377.245393 239.702188 376.346035 240.074714 375.683028 240.737722 
C 375.02002 241.40073 374.647494 242.300087 374.647494 243.237722 
C 374.647494 244.175357 375.02002 245.074714 375.683028 245.737722 
C 376.346035 246.40073 377.245393 246.773256 378.183028 246.773256 
z
" clip-path="url(#p7c9c20b818)"/>
   </g>
   <g id="PathCollection_2">
    <path d="M 137.719429 100.667827 
C 138.657064 100.667827 139.556421 100.295301 140.219429 99.632293 
C 140.882437 98.969285 141.254963 98.069928 141.254963 97.132293 
C 141.254963 96.194659 140.882437 95.295301 140.219429 94.632293 
C 139.556421 93.969285 138.657064 93.596759 137.719429 93.596759 
C 136.781795 93.596759 135.882437 93.969285 135.219429 94.632293 
C 134.556421 95.295301 134.183895 96.194659 134.183895 97.132293 
C 134.183895 98.069928 134.556421 98.969285 135.219429 99.632293 
C 135.882437 100.295301 136.781795 100.667827 137.719429 100.667827 
z
" clip-path="url(#p7c9c20b818)"/>
   </g>
   <g id="matplotlib.axis_1"/>
   <g id="matplotlib.axis_2"/>
   <g id="line2d_1">
    <path d="M 378.183028 243.237722 
L 343.778014 200.71698 
L 320.599804 172.277377 
L 303.131286 151.275918 
L 290.008098 135.877034 
L 276.31662 120.26155 
L 265.859005 108.706533 
L 255.699835 97.839409 
L 248.522412 90.3993 
L 240.983691 82.816852 
L 233.730491 75.764228 
L 222.876329 65.695077 
L 213.797457 57.760568 
L 205.204586 50.698441 
L 200.093952 46.719603 
L 190.77513 39.920251 
L 182.390095 34.341008 
L 175.786582 30.333335 
L 170.679384 27.481509 
L 165.988628 25.062161 
L 160.520921 22.495096 
L 157.733265 21.295331 
L 153.188485 19.503519 
L 149.991381 18.369034 
L 145.638334 16.998127 
L 139.379456 15.393976 
L 132.136753 14.110289 
L 128.782041 13.735866 
L 125.423843 13.507453 
L 121.810532 13.431304 
L 116.313141 13.668172 
L 112.874474 14.043002 
L 107.908028 14.909069 
L 105.062521 15.586041 
L 99.595161 17.277072 
L 95.251652 19.006865 
L 90.887585 21.111959 
L 87.732866 22.876 
L 84.45751 24.934399 
L 79.516908 28.503385 
L 74.680984 32.57779 
L 71.379091 35.716372 
L 68.880041 38.297522 
L 64.80704 42.910357 
L 61.145859 47.51934 
L 57.433371 52.681814 
L 54.101363 57.774391 
L 50.057718 64.602046 
L 47.516488 69.295233 
L 44.272569 75.791014 
L 40.985155 83.022969 
L 38.638838 88.638159 
L 35.118642 97.885685 
L 31.981697 107.114277 
L 29.768512 114.305888 
L 27.968642 120.653869 
L 25.50103 130.24732 
L 24.014227 136.640911 
L 21.72475 147.678141 
L 20.16063 156.341725 
L 18.564233 166.578115 
L 17.176082 177.291315 
L 16.078115 187.931379 
L 15.539236 194.503398 
L 14.86044 205.886364 
L 14.520119 216.859559 
L 14.477545 225.224279 
L 14.669441 234.669672 
L 14.938316 240.776136 
L 15.459128 248.552951 
L 16.305421 257.281009 
L 17.397052 265.552518 
L 18.738959 273.415206 
L 19.990098 279.382102 
L 21.014182 283.59258 
L 22.664898 289.440683 
L 24.233911 294.177041 
L 26.469954 299.88011 
L 28.103259 303.428801 
L 29.782233 306.632534 
L 31.98146 310.253737 
L 33.515962 312.446958 
L 34.632584 313.890045 
L 36.166605 315.681303 
L 38.755642 318.252951 
L 41.357067 320.332557 
L 42.748244 321.259252 
L 45.700866 322.841291 
L 48.211063 323.812689 
L 51.00651 324.531617 
L 53.674615 324.893589 
L 56.801032 324.951319 
L 60.656057 324.529108 
L 63.450623 323.912623 
L 66.644574 322.91528 
L 71.009341 321.088784 
L 72.634197 320.281661 
L 72.634197 320.281661 
" clip-path="url(#p7c9c20b818)" style="fill: none; stroke: #000000; stroke-linecap: square"/>
   </g>
   <g id="line2d_2">
    <path d="M 72.634197 320.281661 
L 77.965247 315.364581 
L 82.443007 310.923931 
L 86.91008 306.153634 
L 91.120406 301.280443 
L 94.462257 297.095478 
L 97.964996 292.339746 
L 101.207775 287.52049 
L 104.098246 282.799934 
L 106.821163 277.885459 
L 109.578933 272.302152 
L 111.670037 267.526952 
L 113.766048 262.098176 
L 115.547707 256.779919 
L 117.015687 251.700903 
L 118.318394 246.418335 
L 119.483424 240.747176 
L 120.427765 235.084564 
L 121.182742 229.36504 
L 121.822473 222.929189 
L 122.28968 216.183739 
L 122.643492 207.591868 
L 122.809415 198.07871 
L 123.171231 161.352082 
L 123.570773 153.743909 
L 124.15183 146.690849 
L 124.861052 140.527294 
L 125.855611 133.974343 
L 126.93722 128.331001 
L 128.248263 122.698066 
L 129.614334 117.730042 
L 131.461104 111.9826 
L 133.133309 107.451565 
L 135.097284 102.718952 
L 137.10838 98.371517 
L 137.719429 97.132293 
L 137.719429 97.132293 
" clip-path="url(#p7c9c20b818)" style="fill: none; stroke: #000000; stroke-linecap: square"/>
   </g>
   <g id="patch_3">
    <path d="M 100.081571 17.105124 
Q 99.97918 17.141058 101.986697 16.436524 
" clip-path="url(#p7c9c20b818)" style="fill: none; stroke: #000000; stroke-width: 2; stroke-linecap: round"/>
    <path d="M 113.078224 17.842946 
L 101.986697 16.436524 
L 109.76675 8.407155 
z
" clip-path="url(#p7c9c20b818)" style="stroke: #000000; stroke-width: 2; stroke-linecap: round"/>
   </g>
   <g id="patch_4">
    <path d="M 122.842805 186.39204 
Q 122.842812 185.945741 122.842782 187.735511 
" clip-path="url(#p7c9c20b818)" style="fill: none; stroke: #000000; stroke-width: 2; stroke-linecap: round"/>
    <path d="M 117.842616 197.735427 
L 122.842782 187.735511 
L 127.842616 197.735594 
z
" clip-path="url(#p7c9c20b818)" style="stroke: #000000; stroke-width: 2; stroke-linecap: round"/>
   </g>
   <g id="text_1">
    <g clip-path="url(#p7c9c20b818)">
     <!-- $P$ -->
     <g transform="translate(361.132053 272.451096) scale(0.25 -0.25)">
      <defs>
       <path id="Cmmi10-50" d="M 313 0 
Q 250 0 250 84 
Q 253 100 262 139 
Q 272 178 289 201 
Q 306 225 331 225 
Q 722 225 878 269 
Q 959 297 997 441 
L 1875 3956 
Q 1888 4019 1888 4044 
Q 1888 4113 1813 4122 
Q 1691 4147 1350 4147 
Q 1288 4147 1288 4231 
Q 1291 4247 1300 4286 
Q 1309 4325 1326 4348 
Q 1344 4372 1369 4372 
L 3578 4372 
Q 3881 4372 4165 4264 
Q 4450 4156 4631 3934 
Q 4813 3713 4813 3397 
Q 4813 2991 4527 2672 
Q 4241 2353 3814 2175 
Q 3388 1997 2988 1997 
L 1947 1997 
L 1556 416 
Q 1544 353 1544 325 
Q 1544 300 1551 283 
Q 1559 266 1573 261 
Q 1588 256 1619 250 
Q 1741 225 2081 225 
Q 2144 225 2144 141 
Q 2122 50 2109 25 
Q 2097 0 2034 0 
L 313 0 
z
M 1978 2188 
L 2875 2188 
Q 3497 2188 3822 2522 
Q 3988 2688 4092 3000 
Q 4197 3313 4197 3566 
Q 4197 3881 3956 4014 
Q 3716 4147 3359 4147 
L 2747 4147 
Q 2572 4147 2515 4117 
Q 2459 4088 2413 3928 
L 1978 2188 
z
" transform="scale(0.015625)"/>
      </defs>
      <use xlink:href="#Cmmi10-50" transform="translate(0 0.6875)"/>
     </g>
    </g>
   </g>
   <g id="text_2">
    <g clip-path="url(#p7c9c20b818)">
     <!-- $R$ -->
     <g transform="translate(150.534366 81.715794) scale(0.25 -0.25)">
      <defs>
       <path id="Cmmi10-52" d="M 313 0 
Q 250 0 250 84 
Q 253 100 262 139 
Q 272 178 289 201 
Q 306 225 331 225 
Q 722 225 878 269 
Q 959 297 997 441 
L 1875 3956 
Q 1888 4019 1888 4044 
Q 1888 4113 1813 4122 
Q 1691 4147 1350 4147 
Q 1288 4147 1288 4231 
Q 1291 4247 1300 4286 
Q 1309 4325 1326 4348 
Q 1344 4372 1369 4372 
L 3309 4372 
Q 3541 4372 3791 4319 
Q 4041 4266 4250 4152 
Q 4459 4038 4593 3848 
Q 4728 3659 4728 3406 
Q 4728 3084 4515 2831 
Q 4303 2578 3978 2408 
Q 3653 2238 3347 2169 
Q 3597 2078 3756 1879 
Q 3916 1681 3916 1422 
Q 3916 1388 3914 1370 
Q 3913 1353 3909 1331 
L 3859 763 
Q 3853 638 3847 550 
Q 3841 463 3841 409 
Q 3841 234 3892 129 
Q 3944 25 4097 25 
Q 4297 25 4448 211 
Q 4600 397 4647 616 
Q 4675 672 4709 672 
L 4769 672 
Q 4831 672 4831 588 
Q 4784 403 4682 237 
Q 4581 72 4426 -34 
Q 4272 -141 4091 -141 
Q 3716 -141 3452 26 
Q 3188 194 3188 550 
Q 3188 684 3213 788 
L 3353 1356 
Q 3378 1434 3378 1538 
Q 3378 1803 3198 1954 
Q 3019 2106 2747 2106 
L 1959 2106 
L 1538 416 
Q 1522 363 1522 325 
Q 1522 259 1600 250 
Q 1722 225 2059 225 
Q 2125 225 2125 141 
Q 2103 50 2090 25 
Q 2078 0 2016 0 
L 313 0 
z
M 1997 2272 
L 2706 2272 
Q 3403 2272 3756 2625 
Q 3919 2788 4014 3039 
Q 4109 3291 4109 3541 
Q 4109 3778 3970 3912 
Q 3831 4047 3626 4097 
Q 3422 4147 3175 4147 
L 2747 4147 
Q 2572 4147 2515 4117 
Q 2459 4088 2413 3928 
L 1997 2272 
z
" transform="scale(0.015625)"/>
      </defs>
      <use xlink:href="#Cmmi10-52" transform="translate(0 0.6875)"/>
     </g>
    </g>
   </g>
  </g>
 </g>
 <defs>
  <clipPath id="p7c9c20b818">
   <rect x="7.2" y="7.2" width="378.257205" height="324"/>
  </clipPath>
 </defs>
</svg>
