<?xml version="1.0" encoding="utf-8" standalone="no"?>
<!DOCTYPE svg PUBLIC "-//W3C//DTD SVG 1.1//EN"
  "http://www.w3.org/Graphics/SVG/1.1/DTD/svg11.dtd">
<svg xmlns:xlink="http://www.w3.org/1999/xlink" width="392.669854pt" height="338.4pt" viewBox="0 0 392.669854 338.4" xmlns="http://www.w3.org/2000/svg" version="1.1">
 <metadata>
  <rdf:RDF xmlns:dc="http://purl.org/dc/elements/1.1/" xmlns:cc="http://creativecommons.org/ns#" xmlns:rdf="http://www.w3.org/1999/02/22-rdf-syntax-ns#">
   <cc:Work>
    <dc:type rdf:resource="http://purl.org/dc/dcmitype/StillImage"/>
    <dc:date>2024-08-29T09:18:46.519736</dc:date>
    <dc:format>image/svg+xml</dc:format>
    <dc:creator>
     <cc:Agent>
      <dc:title>Matplotlib v3.8.0, https://matplotlib.org/</dc:title>
     </cc:Agent>
    </dc:creator>
   </cc:Work>
  </rdf:RDF>
 </metadata>
 <defs>
  <style type="text/css">*{stroke-linejoin: round; stroke-linecap: butt}</style>
 </defs>
 <g id="figure_1">
  <g id="patch_1">
   <path d="M 0 338.4 
L 392.669854 338.4 
L 392.669854 0 
L 0 0 
z
" style="fill: #ffffff"/>
  </g>
  <g id="axes_1">
   <g id="patch_2">
    <path d="M 7.2 331.2 
L 385.469854 331.2 
L 385.469854 7.2 
L 7.2 7.2 
z
" style="fill: #ffffff"/>
   </g>
   <g id="PathCollection_1">
    <path d="M 378.195433 246.769212 
C 379.133068 246.769212 380.032426 246.396686 380.695433 245.733678 
C 381.358441 245.07067 381.730967 244.171313 381.730967 243.233678 
C 381.730967 242.296044 381.358441 241.396686 380.695433 240.733678 
C 380.032426 240.07067 379.133068 239.698144 378.195433 239.698144 
C 377.257799 239.698144 376.358441 240.07067 375.695433 240.733678 
C 375.032426 241.396686 374.659899 242.296044 374.659899 243.233678 
C 374.659899 244.171313 375.032426 245.07067 375.695433 245.733678 
C 376.358441 246.396686 377.257799 246.769212 378.195433 246.769212 
z
" clip-path="url(#p9a5bfff192)"/>
   </g>
   <g id="PathCollection_2">
    <path d="M 137.726442 100.660507 
C 138.664077 100.660507 139.563435 100.287981 140.226442 99.624973 
C 140.88945 98.961965 141.261976 98.062607 141.261976 97.124973 
C 141.261976 96.187338 140.88945 95.287981 140.226442 94.624973 
C 139.563435 93.961965 138.664077 93.589439 137.726442 93.589439 
C 136.788808 93.589439 135.88945 93.961965 135.226442 94.624973 
C 134.563435 95.287981 134.190908 96.187338 134.190908 97.124973 
C 134.190908 98.062607 134.563435 98.961965 135.226442 99.624973 
C 135.88945 100.287981 136.788808 100.660507 137.726442 100.660507 
z
" clip-path="url(#p9a5bfff192)"/>
   </g>
   <g id="matplotlib.axis_1"/>
   <g id="matplotlib.axis_2"/>
   <g id="line2d_1">
    <path d="M 378.195433 243.233678 
L 347.919628 205.817397 
L 324.166756 176.601242 
L 306.704544 155.511369 
L 294.21649 140.754928 
L 285.688527 130.877767 
L 273.313282 116.889462 
L 261.873818 104.381379 
L 250.702913 92.620336 
L 242.495301 84.300314 
L 237.248179 79.137048 
L 227.219569 69.634976 
L 217.633954 61.040678 
L 210.408771 54.906118 
L 205.094706 50.595977 
L 196.869579 44.284033 
L 190.718272 39.866337 
L 184.358007 35.588474 
L 179.737362 32.675182 
L 172.264745 28.329784 
L 167.095903 25.602746 
L 159.871914 22.196787 
L 154.858447 20.125924 
L 151.231103 18.784696 
L 143.849532 16.483536 
L 138.610815 15.217285 
L 132.98068 14.216728 
L 127.099386 13.593132 
L 123.245017 13.430769 
L 117.73551 13.55612 
L 113.614551 13.938754 
L 109.364935 14.60619 
L 104.316086 15.778769 
L 102.190642 16.401547 
L 96.337664 18.534503 
L 91.606093 20.73314 
L 89.282486 21.977652 
L 86.705075 23.491135 
L 81.903019 26.703097 
L 80.020538 28.108475 
L 77.274182 30.314411 
L 73.900469 33.289092 
L 69.778192 37.345862 
L 66.472364 40.958991 
L 61.632476 46.878575 
L 58.903714 50.574416 
L 55.90322 54.963577 
L 53.865225 58.152966 
L 50.528005 63.76972 
L 46.86955 70.545516 
L 45.315406 73.639576 
L 41.977132 80.769723 
L 38.942459 87.892702 
L 35.477112 96.899808 
L 32.926998 104.229942 
L 30.295508 112.544313 
L 27.914803 120.861454 
L 25.624863 129.749446 
L 23.305603 139.899772 
L 21.65863 148.040021 
L 19.62222 159.628461 
L 18.276322 168.65497 
L 17.004666 178.821901 
L 16.193001 186.718508 
L 15.285074 198.23139 
L 14.804983 207.254365 
L 14.552186 215.354823 
L 14.491509 226.398707 
L 14.723315 236.023394 
L 14.998222 241.775124 
L 15.648372 250.737278 
L 16.219459 256.474833 
L 17.045351 263.093317 
L 18.193296 270.413299 
L 19.469568 277.001522 
L 21.272237 284.556731 
L 22.277903 288.140436 
L 23.645336 292.464954 
L 25.809855 298.293473 
L 27.355639 301.849185 
L 28.725104 304.652552 
L 30.664748 308.148116 
L 32.664161 311.251718 
L 34.914474 314.227154 
L 35.791149 315.254597 
L 37.647139 317.210282 
L 39.38529 318.793653 
L 41.06285 320.114775 
L 44.056578 322.017328 
L 46.779362 323.294245 
L 49.336937 324.142599 
L 52.1806 324.725227 
L 55.051273 324.963329 
L 56.840515 324.947679 
L 60.625568 324.533147 
L 64.955959 323.479484 
L 66.868143 322.834095 
L 71.239571 320.978832 
L 72.63975 320.279345 
L 72.63975 320.279345 
" clip-path="url(#p9a5bfff192)" style="fill: none; stroke: #000000; stroke-linecap: square"/>
   </g>
   <g id="line2d_2">
    <path d="M 72.63975 320.279345 
L 77.192663 316.103424 
L 81.594822 311.792733 
L 85.723828 307.461047 
L 89.110279 303.661772 
L 92.996599 298.974033 
L 96.549381 294.317794 
L 99.911154 289.507918 
L 103.041938 284.585082 
L 106.089027 279.266812 
L 108.545636 274.487207 
L 110.993158 269.144862 
L 112.843255 264.594656 
L 114.471701 260.098526 
L 116.255689 254.443673 
L 117.465967 249.99535 
L 118.8771 243.86597 
L 119.841273 238.778538 
L 120.793557 232.535826 
L 121.55293 225.962025 
L 122.075688 219.706562 
L 122.503786 211.858532 
L 122.765494 202.280837 
L 122.848268 190.260379 
L 122.95542 169.213913 
L 123.223834 160.2298 
L 123.721141 151.717626 
L 124.318456 145.129639 
L 125.143724 138.519275 
L 126.127099 132.475397 
L 127.232051 126.993502 
L 128.496896 121.755283 
L 130.18579 115.865501 
L 131.927608 110.675651 
L 133.503614 106.525979 
L 135.564353 101.677379 
L 137.726442 97.124973 
L 137.726442 97.124973 
" clip-path="url(#p9a5bfff192)" style="fill: none; stroke: #000000; stroke-linecap: square"/>
   </g>
   <g id="patch_3">
    <path d="M 100.08774 17.096009 
Q 99.985347 17.131944 101.992861 16.42741 
" clip-path="url(#p9a5bfff192)" style="fill: none; stroke: #000000; stroke-width: 2; stroke-linecap: round"/>
    <path d="M 113.084388 17.833832 
L 101.992861 16.42741 
L 109.772915 8.398042 
z
" clip-path="url(#p9a5bfff192)" style="stroke: #000000; stroke-width: 2; stroke-linecap: round"/>
   </g>
   <g id="patch_4">
    <path d="M 122.849484 186.386722 
Q 122.849492 185.940413 122.849462 187.730172 
" clip-path="url(#p9a5bfff192)" style="fill: none; stroke: #000000; stroke-width: 2; stroke-linecap: round"/>
    <path d="M 117.849295 197.730089 
L 122.849462 187.730172 
L 127.849295 197.730255 
z
" clip-path="url(#p9a5bfff192)" style="stroke: #000000; stroke-width: 2; stroke-linecap: round"/>
   </g>
   <g id="text_1">
    <g clip-path="url(#p9a5bfff192)">
     <!-- $P$ -->
     <g transform="translate(361.144258 272.447553) scale(0.25 -0.25)">
      <defs>
       <path id="Cmmi10-50" d="M 313 0 
Q 250 0 250 84 
Q 253 100 262 139 
Q 272 178 289 201 
Q 306 225 331 225 
Q 722 225 878 269 
Q 959 297 997 441 
L 1875 3956 
Q 1888 4019 1888 4044 
Q 1888 4113 1813 4122 
Q 1691 4147 1350 4147 
Q 1288 4147 1288 4231 
Q 1291 4247 1300 4286 
Q 1309 4325 1326 4348 
Q 1344 4372 1369 4372 
L 3578 4372 
Q 3881 4372 4165 4264 
Q 4450 4156 4631 3934 
Q 4813 3713 4813 3397 
Q 4813 2991 4527 2672 
Q 4241 2353 3814 2175 
Q 3388 1997 2988 1997 
L 1947 1997 
L 1556 416 
Q 1544 353 1544 325 
Q 1544 300 1551 283 
Q 1559 266 1573 261 
Q 1588 256 1619 250 
Q 1741 225 2081 225 
Q 2144 225 2144 141 
Q 2122 50 2109 25 
Q 2097 0 2034 0 
L 313 0 
z
M 1978 2188 
L 2875 2188 
Q 3497 2188 3822 2522 
Q 3988 2688 4092 3000 
Q 4197 3313 4197 3566 
Q 4197 3881 3956 4014 
Q 3716 4147 3359 4147 
L 2747 4147 
Q 2572 4147 2515 4117 
Q 2459 4088 2413 3928 
L 1978 2188 
z
" transform="scale(0.015625)"/>
      </defs>
      <use xlink:href="#Cmmi10-50" transform="translate(0 0.6875)"/>
     </g>
    </g>
   </g>
   <g id="text_2">
    <g clip-path="url(#p9a5bfff192)">
     <!-- $R$ -->
     <g transform="translate(150.541879 81.707973) scale(0.25 -0.25)">
      <defs>
       <path id="Cmmi10-52" d="M 313 0 
Q 250 0 250 84 
Q 253 100 262 139 
Q 272 178 289 201 
Q 306 225 331 225 
Q 722 225 878 269 
Q 959 297 997 441 
L 1875 3956 
Q 1888 4019 1888 4044 
Q 1888 4113 1813 4122 
Q 1691 4147 1350 4147 
Q 1288 4147 1288 4231 
Q 1291 4247 1300 4286 
Q 1309 4325 1326 4348 
Q 1344 4372 1369 4372 
L 3309 4372 
Q 3541 4372 3791 4319 
Q 4041 4266 4250 4152 
Q 4459 4038 4593 3848 
Q 4728 3659 4728 3406 
Q 4728 3084 4515 2831 
Q 4303 2578 3978 2408 
Q 3653 2238 3347 2169 
Q 3597 2078 3756 1879 
Q 3916 1681 3916 1422 
Q 3916 1388 3914 1370 
Q 3913 1353 3909 1331 
L 3859 763 
Q 3853 638 3847 550 
Q 3841 463 3841 409 
Q 3841 234 3892 129 
Q 3944 25 4097 25 
Q 4297 25 4448 211 
Q 4600 397 4647 616 
Q 4675 672 4709 672 
L 4769 672 
Q 4831 672 4831 588 
Q 4784 403 4682 237 
Q 4581 72 4426 -34 
Q 4272 -141 4091 -141 
Q 3716 -141 3452 26 
Q 3188 194 3188 550 
Q 3188 684 3213 788 
L 3353 1356 
Q 3378 1434 3378 1538 
Q 3378 1803 3198 1954 
Q 3019 2106 2747 2106 
L 1959 2106 
L 1538 416 
Q 1522 363 1522 325 
Q 1522 259 1600 250 
Q 1722 225 2059 225 
Q 2125 225 2125 141 
Q 2103 50 2090 25 
Q 2078 0 2016 0 
L 313 0 
z
M 1997 2272 
L 2706 2272 
Q 3403 2272 3756 2625 
Q 3919 2788 4014 3039 
Q 4109 3291 4109 3541 
Q 4109 3778 3970 3912 
Q 3831 4047 3626 4097 
Q 3422 4147 3175 4147 
L 2747 4147 
Q 2572 4147 2515 4117 
Q 2459 4088 2413 3928 
L 1997 2272 
z
" transform="scale(0.015625)"/>
      </defs>
      <use xlink:href="#Cmmi10-52" transform="translate(0 0.6875)"/>
     </g>
    </g>
   </g>
  </g>
 </g>
 <defs>
  <clipPath id="p9a5bfff192">
   <rect x="7.2" y="7.2" width="378.269854" height="324"/>
  </clipPath>
 </defs>
</svg>
