<?xml version="1.0" encoding="utf-8" standalone="no"?>
<!DOCTYPE svg PUBLIC "-//W3C//DTD SVG 1.1//EN"
  "http://www.w3.org/Graphics/SVG/1.1/DTD/svg11.dtd">
<svg xmlns:xlink="http://www.w3.org/1999/xlink" width="392.67052pt" height="338.4pt" viewBox="0 0 392.67052 338.4" xmlns="http://www.w3.org/2000/svg" version="1.1">
 <metadata>
  <rdf:RDF xmlns:dc="http://purl.org/dc/elements/1.1/" xmlns:cc="http://creativecommons.org/ns#" xmlns:rdf="http://www.w3.org/1999/02/22-rdf-syntax-ns#">
   <cc:Work>
    <dc:type rdf:resource="http://purl.org/dc/dcmitype/StillImage"/>
    <dc:date>2025-02-05T08:56:49.525287</dc:date>
    <dc:format>image/svg+xml</dc:format>
    <dc:creator>
     <cc:Agent>
      <dc:title>Matplotlib v3.6.2, https://matplotlib.org/</dc:title>
     </cc:Agent>
    </dc:creator>
   </cc:Work>
  </rdf:RDF>
 </metadata>
 <defs>
  <style type="text/css">*{stroke-linejoin: round; stroke-linecap: butt}</style>
 </defs>
 <g id="figure_1">
  <g id="patch_1">
   <path d="M 0 338.4 
L 392.67052 338.4 
L 392.67052 0 
L 0 0 
z
" style="fill: #ffffff"/>
  </g>
  <g id="axes_1">
   <g id="patch_2">
    <path d="M 7.2 331.2 
L 385.47052 331.2 
L 385.47052 7.2 
L 7.2 7.2 
z
" style="fill: #ffffff"/>
   </g>
   <g id="PathCollection_1">
    <path d="M 378.196087 246.767097 
C 379.133722 246.767097 380.033079 246.394571 380.696087 245.731563 
C 381.359095 245.068556 381.731621 244.169198 381.731621 243.231563 
C 381.731621 242.293929 381.359095 241.394571 380.696087 240.731563 
C 380.033079 240.068556 379.133722 239.69603 378.196087 239.69603 
C 377.258453 239.69603 376.359095 240.068556 375.696087 240.731563 
C 375.033079 241.394571 374.660553 242.293929 374.660553 243.231563 
C 374.660553 244.169198 375.033079 245.068556 375.696087 245.731563 
C 376.359095 246.394571 377.258453 246.767097 378.196087 246.767097 
z
" clip-path="url(#p5b58cdb978)"/>
   </g>
   <g id="PathCollection_2">
    <path d="M 72.639673 323.812948 
C 73.577308 323.812948 74.476665 323.440422 75.139673 322.777414 
C 75.802681 322.114406 76.175207 321.215049 76.175207 320.277414 
C 76.175207 319.33978 75.802681 318.440422 75.139673 317.777414 
C 74.476665 317.114406 73.577308 316.74188 72.639673 316.74188 
C 71.702039 316.74188 70.802681 317.114406 70.139673 317.777414 
C 69.476665 318.440422 69.104139 319.33978 69.104139 320.277414 
C 69.104139 321.215049 69.476665 322.114406 70.139673 322.777414 
C 70.802681 323.440422 71.702039 323.812948 72.639673 323.812948 
z
" clip-path="url(#p5b58cdb978)"/>
   </g>
   <g id="matplotlib.axis_1"/>
   <g id="matplotlib.axis_2"/>
   <g id="line2d_1">
    <path d="M 378.196087 243.231563 
L 351.588912 210.354671 
L 326.486679 179.430988 
L 308.974297 158.222882 
L 295.651937 142.431549 
L 282.606985 127.351305 
L 271.061546 114.39036 
L 263.476569 106.104133 
L 252.240543 94.207521 
L 240.788628 82.604304 
L 230.02536 72.240148 
L 219.683252 62.832857 
L 214.900785 58.681229 
L 207.041367 52.151608 
L 200.132012 46.73098 
L 194.328552 42.423956 
L 185.988141 36.65314 
L 179.333728 32.426007 
L 173.354829 28.931839 
L 167.783328 25.949098 
L 163.889085 24.028278 
L 156.663874 20.840436 
L 150.990711 18.697909 
L 145.395083 16.913701 
L 139.349661 15.374027 
L 133.875741 14.347332 
L 130.584803 13.906594 
L 126.215295 13.535576 
L 123.401569 13.430769 
L 117.955029 13.540147 
L 112.555331 14.076011 
L 110.622685 14.376323 
L 105.070097 15.573893 
L 102.85113 16.196938 
L 97.651911 17.997941 
L 94.912748 19.147848 
L 91.928857 20.566373 
L 89.055913 22.102352 
L 85.409385 24.303831 
L 80.411632 27.806812 
L 75.372346 31.95171 
L 70.755782 36.337355 
L 69.695955 37.429054 
L 65.43389 42.161347 
L 61.381391 47.204689 
L 58.500325 51.141407 
L 54.761113 56.726632 
L 51.498104 62.081484 
L 48.353609 67.711298 
L 45.905399 72.446181 
L 42.664086 79.242512 
L 40.102469 85.089184 
L 37.928363 90.422502 
L 34.861968 98.606104 
L 32.251841 106.281922 
L 29.753537 114.362368 
L 27.948971 120.732857 
L 25.665957 129.577804 
L 23.831842 137.473364 
L 22.073683 145.897614 
L 20.219133 156.012941 
L 18.626692 166.163484 
L 17.312754 176.156974 
L 16.242823 186.182455 
L 15.408285 196.383628 
L 14.876876 205.607488 
L 14.549963 215.450904 
L 14.474433 223.472625 
L 14.633562 233.43753 
L 14.956608 241.032519 
L 15.520176 249.243602 
L 16.159339 255.926803 
L 17.239268 264.454278 
L 18.413174 271.643681 
L 20.075442 279.730168 
L 21.419895 285.106087 
L 22.722163 289.607564 
L 24.240902 294.179764 
L 25.203766 296.768891 
L 27.493122 302.142887 
L 28.896776 304.981701 
L 30.070614 307.130143 
L 32.236636 310.625153 
L 34.617228 313.860996 
L 36.98492 316.543547 
L 40.043693 319.333617 
L 43.284486 321.577329 
L 44.237933 322.113349 
L 46.692425 323.25777 
L 49.822499 324.266103 
L 51.783182 324.663406 
L 54.690014 324.949687 
L 55.879816 324.969231 
L 59.474106 324.709839 
L 60.791535 324.501812 
L 63.474447 323.903547 
L 66.748338 322.875651 
L 70.538342 321.308525 
L 72.639673 320.277414 
L 72.639673 320.277414 
" clip-path="url(#p5b58cdb978)" style="fill: none; stroke: #000000; stroke-linecap: square"/>
   </g>
   <g id="patch_3">
    <path d="M 100.087728 17.093353 
Q 99.985335 17.129288 101.992849 16.424755 
" clip-path="url(#p5b58cdb978)" style="fill: none; stroke: #000000; stroke-width: 2; stroke-linecap: round"/>
    <path d="M 113.084376 17.831177 
L 101.992849 16.424755 
L 109.772903 8.395386 
L 113.084376 17.831177 
z
" clip-path="url(#p5b58cdb978)" style="stroke: #000000; stroke-width: 2; stroke-linecap: round"/>
   </g>
   <g id="text_1">
    <g clip-path="url(#p5b58cdb978)">
     <!-- $P$ -->
     <g transform="translate(361.144891 272.445491) scale(0.25 -0.25)">
      <defs>
       <path id="Cmmi10-50" d="M 313 0 
Q 250 0 250 84 
Q 253 100 262 139 
Q 272 178 289 201 
Q 306 225 331 225 
Q 722 225 878 269 
Q 959 297 997 441 
L 1875 3956 
Q 1888 4019 1888 4044 
Q 1888 4113 1813 4122 
Q 1691 4147 1350 4147 
Q 1288 4147 1288 4231 
Q 1291 4247 1300 4286 
Q 1309 4325 1326 4348 
Q 1344 4372 1369 4372 
L 3578 4372 
Q 3881 4372 4165 4264 
Q 4450 4156 4631 3934 
Q 4813 3713 4813 3397 
Q 4813 2991 4527 2672 
Q 4241 2353 3814 2175 
Q 3388 1997 2988 1997 
L 1947 1997 
L 1556 416 
Q 1544 353 1544 325 
Q 1544 300 1551 283 
Q 1559 266 1573 261 
Q 1588 256 1619 250 
Q 1741 225 2081 225 
Q 2144 225 2144 141 
Q 2122 50 2109 25 
Q 2097 0 2034 0 
L 313 0 
z
M 1978 2188 
L 2875 2188 
Q 3497 2188 3822 2522 
Q 3988 2688 4092 3000 
Q 4197 3313 4197 3566 
Q 4197 3881 3956 4014 
Q 3716 4147 3359 4147 
L 2747 4147 
Q 2572 4147 2515 4117 
Q 2459 4088 2413 3928 
L 1978 2188 
z
" transform="scale(0.015625)"/>
      </defs>
      <use xlink:href="#Cmmi10-50" transform="translate(0 0.6875)"/>
     </g>
    </g>
   </g>
   <g id="text_2">
    <g clip-path="url(#p5b58cdb978)">
     <!-- $Q$ -->
     <g transform="translate(84.955164 322.712754) scale(0.25 -0.25)">
      <defs>
       <path id="Cmmi10-51" d="M 1947 -141 
Q 1466 -141 1094 79 
Q 722 300 520 692 
Q 319 1084 319 1563 
Q 319 2259 714 2950 
Q 1109 3641 1756 4077 
Q 2403 4513 3109 4513 
Q 3475 4513 3778 4381 
Q 4081 4250 4290 4017 
Q 4500 3784 4614 3471 
Q 4728 3159 4728 2791 
Q 4728 2366 4581 1936 
Q 4434 1506 4171 1136 
Q 3909 766 3559 484 
Q 3209 203 2809 38 
Q 2850 -256 2934 -425 
Q 3019 -594 3256 -594 
Q 3506 -594 3726 -412 
Q 3947 -231 4006 13 
Q 4019 72 4078 72 
Q 4147 72 4147 -13 
Q 4100 -219 4008 -430 
Q 3916 -641 3786 -823 
Q 3656 -1006 3478 -1123 
Q 3300 -1241 3084 -1241 
Q 2547 -1241 2547 -550 
Q 2547 -509 2562 -332 
Q 2578 -156 2578 -44 
Q 2269 -141 1947 -141 
z
M 1709 300 
Q 1709 44 1991 44 
Q 2275 44 2591 184 
L 2591 244 
Q 2591 503 2509 648 
Q 2428 794 2194 794 
Q 2078 794 1964 723 
Q 1850 653 1779 539 
Q 1709 425 1709 300 
z
M 1544 288 
Q 1544 456 1637 612 
Q 1731 769 1881 864 
Q 2031 959 2203 959 
Q 2481 959 2607 771 
Q 2734 584 2778 281 
Q 3188 525 3500 978 
Q 3813 1431 3977 1973 
Q 4141 2516 4141 3003 
Q 4141 3356 4023 3656 
Q 3906 3956 3664 4140 
Q 3422 4325 3066 4325 
Q 2722 4325 2403 4156 
Q 2084 3988 1813 3706 
Q 1550 3434 1342 3032 
Q 1134 2631 1021 2193 
Q 909 1756 909 1356 
Q 909 947 1068 612 
Q 1228 278 1569 128 
Q 1544 194 1544 288 
z
" transform="scale(0.015625)"/>
      </defs>
      <use xlink:href="#Cmmi10-51" transform="translate(0 0.484375)"/>
     </g>
    </g>
   </g>
  </g>
 </g>
 <defs>
  <clipPath id="p5b58cdb978">
   <rect x="7.2" y="7.2" width="378.27052" height="324"/>
  </clipPath>
 </defs>
</svg>
