<?xml version="1.0" encoding="utf-8" standalone="no"?>
<!DOCTYPE svg PUBLIC "-//W3C//DTD SVG 1.1//EN"
  "http://www.w3.org/Graphics/SVG/1.1/DTD/svg11.dtd">
<svg xmlns:xlink="http://www.w3.org/1999/xlink" width="392.702066pt" height="338.4pt" viewBox="0 0 392.702066 338.4" xmlns="http://www.w3.org/2000/svg" version="1.1">
 <metadata>
  <rdf:RDF xmlns:dc="http://purl.org/dc/elements/1.1/" xmlns:cc="http://creativecommons.org/ns#" xmlns:rdf="http://www.w3.org/1999/02/22-rdf-syntax-ns#">
   <cc:Work>
    <dc:type rdf:resource="http://purl.org/dc/dcmitype/StillImage"/>
    <dc:date>2024-08-16T15:23:44.661010</dc:date>
    <dc:format>image/svg+xml</dc:format>
    <dc:creator>
     <cc:Agent>
      <dc:title>Matplotlib v3.8.0, https://matplotlib.org/</dc:title>
     </cc:Agent>
    </dc:creator>
   </cc:Work>
  </rdf:RDF>
 </metadata>
 <defs>
  <style type="text/css">*{stroke-linejoin: round; stroke-linecap: butt}</style>
 </defs>
 <g id="figure_1">
  <g id="patch_1">
   <path d="M 0 338.4 
L 392.702066 338.4 
L 392.702066 0 
L 0 0 
z
" style="fill: #ffffff"/>
  </g>
  <g id="axes_1">
   <g id="patch_2">
    <path d="M 7.2 331.2 
L 385.502066 331.2 
L 385.502066 7.2 
L 7.2 7.2 
z
" style="fill: #ffffff"/>
   </g>
   <g id="PathCollection_1">
    <path d="M 378.227026 246.764037 
C 379.164661 246.764037 380.064018 246.391511 380.727026 245.728503 
C 381.390034 245.065496 381.76256 244.166138 381.76256 243.228503 
C 381.76256 242.290869 381.390034 241.391511 380.727026 240.728503 
C 380.064018 240.065496 379.164661 239.69297 378.227026 239.69297 
C 377.289392 239.69297 376.390034 240.065496 375.727026 240.728503 
C 375.064018 241.391511 374.691492 242.290869 374.691492 243.228503 
C 374.691492 244.166138 375.064018 245.065496 375.727026 245.728503 
C 376.390034 246.391511 377.289392 246.764037 378.227026 246.764037 
z
" clip-path="url(#p0849be70b9)"/>
   </g>
   <g id="PathCollection_2">
    <path d="M 137.73638 100.642174 
C 138.674014 100.642174 139.573372 100.269648 140.23638 99.60664 
C 140.899388 98.943633 141.271914 98.044275 141.271914 97.10664 
C 141.271914 96.169006 140.899388 95.269648 140.23638 94.60664 
C 139.573372 93.943633 138.674014 93.571107 137.73638 93.571107 
C 136.798745 93.571107 135.899388 93.943633 135.23638 94.60664 
C 134.573372 95.269648 134.200846 96.169006 134.200846 97.10664 
C 134.200846 98.044275 134.573372 98.943633 135.23638 99.60664 
C 135.899388 100.269648 136.798745 100.642174 137.73638 100.642174 
z
" clip-path="url(#p0849be70b9)"/>
   </g>
   <g id="matplotlib.axis_1"/>
   <g id="matplotlib.axis_2"/>
   <g id="line2d_1">
    <path d="M 378.227026 243.228503 
L 347.915781 205.76839 
L 322.321911 174.309361 
L 307.693208 156.649453 
L 293.468103 139.838712 
L 280.411203 124.817548 
L 267.074315 109.972469 
L 257.050587 99.204836 
L 249.678001 91.526465 
L 242.939448 84.704272 
L 234.539323 76.483662 
L 226.889725 69.293678 
L 218.367288 61.643716 
L 212.04304 56.230684 
L 204.356895 49.976472 
L 197.846406 44.975439 
L 189.278017 38.837658 
L 184.426963 35.600164 
L 178.607034 31.955938 
L 172.830783 28.610784 
L 168.233763 26.151574 
L 161.18049 22.747064 
L 156.252777 20.647085 
L 151.561245 18.871829 
L 148.285778 17.767265 
L 143.45281 16.348322 
L 138.778022 15.224957 
L 132.852758 14.171346 
L 129.965127 13.814775 
L 124.354579 13.430769 
L 118.948267 13.465852 
L 113.479216 13.930824 
L 110.793839 14.32549 
L 107.651166 14.932729 
L 101.95193 16.452947 
L 98.202605 17.763488 
L 94.293036 19.408096 
L 89.870557 21.630055 
L 85.251809 24.386692 
L 81.354028 27.083137 
L 78.103401 29.607796 
L 73.956216 33.217273 
L 70.481109 36.60003 
L 66.785629 40.582792 
L 63.431918 44.567115 
L 60.028949 48.998791 
L 58.536899 51.073733 
L 55.02548 56.297686 
L 51.833838 61.493422 
L 48.436055 67.542722 
L 44.606077 75.08058 
L 42.30386 80.023964 
L 38.287818 89.501827 
L 35.268312 97.459643 
L 32.759497 104.718842 
L 29.903103 113.84277 
L 27.652435 121.815714 
L 25.334548 130.933942 
L 23.099265 140.855347 
L 21.460278 149.06907 
L 19.941005 157.657147 
L 18.244537 168.868388 
L 17.228964 176.851001 
L 16.13604 187.314273 
L 15.392283 196.596167 
L 14.811959 207.052839 
L 14.506458 217.962171 
L 14.504195 227.582063 
L 14.762255 237.014375 
L 15.216174 245.248311 
L 16.056555 254.969194 
L 16.650383 260.119133 
L 17.564706 266.616863 
L 18.796951 273.691989 
L 20.301924 280.699168 
L 21.660817 285.987525 
L 23.063866 290.695827 
L 24.452605 294.769611 
L 25.943429 298.618956 
L 27.216025 301.546106 
L 28.776482 304.752125 
L 30.979259 308.668073 
L 32.992193 311.717971 
L 34.902378 314.212881 
L 35.844265 315.315088 
L 38.788327 318.276111 
L 40.885199 319.984815 
L 43.839672 321.898854 
L 45.903775 322.928843 
L 47.360871 323.517127 
L 49.502203 324.188107 
L 52.242127 324.735752 
L 55.221505 324.969231 
L 58.486604 324.83141 
L 60.823772 324.500624 
L 62.321832 324.193325 
L 66.254962 323.05574 
L 69.796161 321.651249 
L 72.643827 320.281108 
L 72.643827 320.281108 
" clip-path="url(#p0849be70b9)" style="fill: none; stroke: #000000; stroke-linecap: square"/>
   </g>
   <g id="line2d_2">
    <path d="M 72.643827 320.281108 
L 78.288668 315.06275 
L 81.693815 311.698301 
L 86.653444 306.448356 
L 90.626382 301.885072 
L 93.984375 297.725754 
L 97.342145 293.23038 
L 100.232086 289.033605 
L 103.248381 284.252621 
L 106.10319 279.251812 
L 108.381377 274.835692 
L 111.002393 269.138053 
L 113.098996 263.939761 
L 114.901917 258.834704 
L 116.349043 254.144589 
L 117.852532 248.463905 
L 119.135204 242.629515 
L 120.045136 237.612271 
L 121.019892 230.837872 
L 121.688166 224.621158 
L 122.250275 217.121481 
L 122.635531 208.371747 
L 122.82945 197.480235 
L 123.197422 161.060231 
L 123.591295 153.647621 
L 124.148695 146.859295 
L 125.033169 139.349608 
L 125.965008 133.414509 
L 127.1854 127.230296 
L 128.580147 121.457549 
L 130.228 115.74343 
L 131.89957 110.762803 
L 133.708413 106.023616 
L 136.069453 100.573379 
L 137.73638 97.10664 
L 137.73638 97.10664 
" clip-path="url(#p0849be70b9)" style="fill: none; stroke: #000000; stroke-linecap: square"/>
   </g>
   <g id="patch_3">
    <path d="M 100.094288 17.07047 
Q 99.991886 17.106408 101.999391 16.401878 
" clip-path="url(#p0849be70b9)" style="fill: none; stroke: #000000; stroke-width: 2; stroke-linecap: round"/>
    <path d="M 113.090918 17.808299 
L 101.999391 16.401878 
L 109.779445 8.372509 
z
" clip-path="url(#p0849be70b9)" style="stroke: #000000; stroke-width: 2; stroke-linecap: round"/>
   </g>
   <g id="patch_4">
    <path d="M 122.858082 186.376428 
Q 122.858089 185.930079 122.85806 187.719798 
" clip-path="url(#p0849be70b9)" style="fill: none; stroke: #000000; stroke-width: 2; stroke-linecap: round"/>
    <path d="M 117.857893 197.719714 
L 122.85806 187.719798 
L 127.857893 197.719881 
z
" clip-path="url(#p0849be70b9)" style="stroke: #000000; stroke-width: 2; stroke-linecap: round"/>
   </g>
   <g id="text_1">
    <g clip-path="url(#p0849be70b9)">
     <!-- $P$ -->
     <g transform="translate(361.175047 272.444388) scale(0.25 -0.25)">
      <defs>
       <path id="Cmmi10-50" d="M 313 0 
Q 250 0 250 84 
Q 253 100 262 139 
Q 272 178 289 201 
Q 306 225 331 225 
Q 722 225 878 269 
Q 959 297 997 441 
L 1875 3956 
Q 1888 4019 1888 4044 
Q 1888 4113 1813 4122 
Q 1691 4147 1350 4147 
Q 1288 4147 1288 4231 
Q 1291 4247 1300 4286 
Q 1309 4325 1326 4348 
Q 1344 4372 1369 4372 
L 3578 4372 
Q 3881 4372 4165 4264 
Q 4450 4156 4631 3934 
Q 4813 3713 4813 3397 
Q 4813 2991 4527 2672 
Q 4241 2353 3814 2175 
Q 3388 1997 2988 1997 
L 1947 1997 
L 1556 416 
Q 1544 353 1544 325 
Q 1544 300 1551 283 
Q 1559 266 1573 261 
Q 1588 256 1619 250 
Q 1741 225 2081 225 
Q 2144 225 2144 141 
Q 2122 50 2109 25 
Q 2097 0 2034 0 
L 313 0 
z
M 1978 2188 
L 2875 2188 
Q 3497 2188 3822 2522 
Q 3988 2688 4092 3000 
Q 4197 3313 4197 3566 
Q 4197 3881 3956 4014 
Q 3716 4147 3359 4147 
L 2747 4147 
Q 2572 4147 2515 4117 
Q 2459 4088 2413 3928 
L 1978 2188 
z
" transform="scale(0.015625)"/>
      </defs>
      <use xlink:href="#Cmmi10-50" transform="translate(0 0.6875)"/>
     </g>
    </g>
   </g>
   <g id="text_2">
    <g clip-path="url(#p0849be70b9)">
     <!-- $R$ -->
     <g transform="translate(150.553827 81.687631) scale(0.25 -0.25)">
      <defs>
       <path id="Cmmi10-52" d="M 313 0 
Q 250 0 250 84 
Q 253 100 262 139 
Q 272 178 289 201 
Q 306 225 331 225 
Q 722 225 878 269 
Q 959 297 997 441 
L 1875 3956 
Q 1888 4019 1888 4044 
Q 1888 4113 1813 4122 
Q 1691 4147 1350 4147 
Q 1288 4147 1288 4231 
Q 1291 4247 1300 4286 
Q 1309 4325 1326 4348 
Q 1344 4372 1369 4372 
L 3309 4372 
Q 3541 4372 3791 4319 
Q 4041 4266 4250 4152 
Q 4459 4038 4593 3848 
Q 4728 3659 4728 3406 
Q 4728 3084 4515 2831 
Q 4303 2578 3978 2408 
Q 3653 2238 3347 2169 
Q 3597 2078 3756 1879 
Q 3916 1681 3916 1422 
Q 3916 1388 3914 1370 
Q 3913 1353 3909 1331 
L 3859 763 
Q 3853 638 3847 550 
Q 3841 463 3841 409 
Q 3841 234 3892 129 
Q 3944 25 4097 25 
Q 4297 25 4448 211 
Q 4600 397 4647 616 
Q 4675 672 4709 672 
L 4769 672 
Q 4831 672 4831 588 
Q 4784 403 4682 237 
Q 4581 72 4426 -34 
Q 4272 -141 4091 -141 
Q 3716 -141 3452 26 
Q 3188 194 3188 550 
Q 3188 684 3213 788 
L 3353 1356 
Q 3378 1434 3378 1538 
Q 3378 1803 3198 1954 
Q 3019 2106 2747 2106 
L 1959 2106 
L 1538 416 
Q 1522 363 1522 325 
Q 1522 259 1600 250 
Q 1722 225 2059 225 
Q 2125 225 2125 141 
Q 2103 50 2090 25 
Q 2078 0 2016 0 
L 313 0 
z
M 1997 2272 
L 2706 2272 
Q 3403 2272 3756 2625 
Q 3919 2788 4014 3039 
Q 4109 3291 4109 3541 
Q 4109 3778 3970 3912 
Q 3831 4047 3626 4097 
Q 3422 4147 3175 4147 
L 2747 4147 
Q 2572 4147 2515 4117 
Q 2459 4088 2413 3928 
L 1997 2272 
z
" transform="scale(0.015625)"/>
      </defs>
      <use xlink:href="#Cmmi10-52" transform="translate(0 0.6875)"/>
     </g>
    </g>
   </g>
  </g>
 </g>
 <defs>
  <clipPath id="p0849be70b9">
   <rect x="7.2" y="7.2" width="378.302066" height="324"/>
  </clipPath>
 </defs>
</svg>
