<?xml version="1.0" encoding="utf-8" standalone="no"?>
<!DOCTYPE svg PUBLIC "-//W3C//DTD SVG 1.1//EN"
  "http://www.w3.org/Graphics/SVG/1.1/DTD/svg11.dtd">
<svg xmlns:xlink="http://www.w3.org/1999/xlink" width="392.675137pt" height="338.4pt" viewBox="0 0 392.675137 338.4" xmlns="http://www.w3.org/2000/svg" version="1.1">
 <metadata>
  <rdf:RDF xmlns:dc="http://purl.org/dc/elements/1.1/" xmlns:cc="http://creativecommons.org/ns#" xmlns:rdf="http://www.w3.org/1999/02/22-rdf-syntax-ns#">
   <cc:Work>
    <dc:type rdf:resource="http://purl.org/dc/dcmitype/StillImage"/>
    <dc:date>2024-08-16T15:28:52.194869</dc:date>
    <dc:format>image/svg+xml</dc:format>
    <dc:creator>
     <cc:Agent>
      <dc:title>Matplotlib v3.8.0, https://matplotlib.org/</dc:title>
     </cc:Agent>
    </dc:creator>
   </cc:Work>
  </rdf:RDF>
 </metadata>
 <defs>
  <style type="text/css">*{stroke-linejoin: round; stroke-linecap: butt}</style>
 </defs>
 <g id="figure_1">
  <g id="patch_1">
   <path d="M 0 338.4 
L 392.675137 338.4 
L 392.675137 0 
L 0 0 
z
" style="fill: #ffffff"/>
  </g>
  <g id="axes_1">
   <g id="patch_2">
    <path d="M 7.2 331.2 
L 385.475137 331.2 
L 385.475137 7.2 
L 7.2 7.2 
z
" style="fill: #ffffff"/>
   </g>
   <g id="PathCollection_1">
    <path d="M 378.200615 246.773656 
C 379.13825 246.773656 380.037607 246.401129 380.700615 245.738122 
C 381.363623 245.075114 381.736149 244.175756 381.736149 243.238122 
C 381.736149 242.300487 381.363623 241.401129 380.700615 240.738122 
C 380.037607 240.075114 379.13825 239.702588 378.200615 239.702588 
C 377.26298 239.702588 376.363623 240.075114 375.700615 240.738122 
C 375.037607 241.401129 374.665081 242.300487 374.665081 243.238122 
C 374.665081 244.175756 375.037607 245.075114 375.700615 245.738122 
C 376.363623 246.401129 377.26298 246.773656 378.200615 246.773656 
z
" clip-path="url(#p68e4ddb080)"/>
   </g>
   <g id="PathCollection_2">
    <path d="M 72.64015 323.820528 
C 73.577784 323.820528 74.477142 323.448002 75.14015 322.784994 
C 75.803158 322.121986 76.175684 321.222629 76.175684 320.284994 
C 76.175684 319.347359 75.803158 318.448002 75.14015 317.784994 
C 74.477142 317.121986 73.577784 316.74946 72.64015 316.74946 
C 71.702515 316.74946 70.803158 317.121986 70.14015 317.784994 
C 69.477142 318.448002 69.104616 319.347359 69.104616 320.284994 
C 69.104616 321.222629 69.477142 322.121986 70.14015 322.784994 
C 70.803158 323.448002 71.702515 323.820528 72.64015 323.820528 
z
" clip-path="url(#p68e4ddb080)"/>
   </g>
   <g id="matplotlib.axis_1"/>
   <g id="matplotlib.axis_2"/>
   <g id="line2d_1">
    <path d="M 378.200615 243.238122 
L 347.015242 204.696929 
L 323.388493 175.650458 
L 309.04414 158.307656 
L 296.626128 143.575189 
L 284.17791 129.145696 
L 272.072735 115.510771 
L 262.577513 105.13654 
L 251.969987 93.928676 
L 244.67746 86.482994 
L 233.553581 75.577827 
L 224.179799 66.854894 
L 215.506408 59.201784 
L 207.489571 52.516001 
L 200.410591 46.945787 
L 197.549384 44.788095 
L 190.273182 39.556896 
L 183.706841 35.167612 
L 176.967442 31.010439 
L 170.078122 27.147555 
L 163.452927 23.824658 
L 155.920404 20.544129 
L 149.96695 18.349606 
L 145.273813 16.881926 
L 139.720131 15.459596 
L 135.360138 14.593388 
L 131.00114 13.95819 
L 126.829278 13.576031 
L 123.191833 13.430769 
L 118.626859 13.507338 
L 115.205581 13.761798 
L 110.784641 14.352588 
L 107.71999 14.942948 
L 105.1058 15.568335 
L 99.832837 17.18678 
L 94.433337 19.367859 
L 92.269632 20.399371 
L 88.511739 22.416712 
L 84.302869 25.033861 
L 80.361786 27.848856 
L 78.290231 29.477822 
L 75.416044 31.91718 
L 71.416407 35.677579 
L 68.972336 38.197718 
L 64.510194 43.2668 
L 60.78634 47.997351 
L 56.482994 54.089409 
L 53.019698 59.530136 
L 50.364747 64.059503 
L 46.575102 71.1231 
L 43.966089 76.440617 
L 41.666389 81.471231 
L 38.257749 89.595547 
L 35.708999 96.266326 
L 32.720078 104.85593 
L 30.387752 112.239835 
L 28.499571 118.740851 
L 26.066138 127.959983 
L 23.766963 137.772337 
L 21.746124 147.584603 
L 20.461196 154.60801 
L 18.985741 163.725732 
L 17.501152 174.603487 
L 16.405693 184.497111 
L 15.444546 195.866241 
L 14.897076 205.173023 
L 14.567392 214.628562 
L 14.474522 223.678821 
L 14.610317 232.666275 
L 15.006073 241.925155 
L 15.685986 251.168318 
L 16.307579 257.267477 
L 17.155194 263.879993 
L 18.48612 272.050531 
L 19.549799 277.382764 
L 21.180543 284.216864 
L 22.327795 288.315088 
L 23.714909 292.676591 
L 25.145192 296.625163 
L 27.451286 302.060977 
L 29.739238 306.550608 
L 31.870366 310.081106 
L 33.576018 312.524775 
L 36.300351 315.825775 
L 37.808712 317.372952 
L 39.822326 319.16242 
L 42.493257 321.098805 
L 44.947406 322.485745 
L 45.775009 322.875922 
L 48.860885 324.014593 
L 50.355364 324.398761 
L 52.482317 324.771926 
L 55.058495 324.969231 
L 57.262001 324.932326 
L 60.922863 324.485603 
L 64.00063 323.767548 
L 67.156823 322.733393 
L 71.127473 321.038537 
L 72.64015 320.284994 
L 72.64015 320.284994 
" clip-path="url(#p68e4ddb080)" style="fill: none; stroke: #000000; stroke-linecap: square"/>
   </g>
   <g id="patch_3">
    <path d="M 100.088569 17.096913 
Q 99.986174 17.132849 101.993687 16.428316 
" clip-path="url(#p68e4ddb080)" style="fill: none; stroke: #000000; stroke-width: 2; stroke-linecap: round"/>
    <path d="M 113.085214 17.834738 
L 101.993687 16.428316 
L 109.773741 8.398947 
z
" clip-path="url(#p68e4ddb080)" style="stroke: #000000; stroke-width: 2; stroke-linecap: round"/>
   </g>
   <g id="text_1">
    <g clip-path="url(#p68e4ddb080)">
     <!-- $P$ -->
     <g transform="translate(361.1493 272.452346) scale(0.25 -0.25)">
      <defs>
       <path id="Cmmi10-50" d="M 313 0 
Q 250 0 250 84 
Q 253 100 262 139 
Q 272 178 289 201 
Q 306 225 331 225 
Q 722 225 878 269 
Q 959 297 997 441 
L 1875 3956 
Q 1888 4019 1888 4044 
Q 1888 4113 1813 4122 
Q 1691 4147 1350 4147 
Q 1288 4147 1288 4231 
Q 1291 4247 1300 4286 
Q 1309 4325 1326 4348 
Q 1344 4372 1369 4372 
L 3578 4372 
Q 3881 4372 4165 4264 
Q 4450 4156 4631 3934 
Q 4813 3713 4813 3397 
Q 4813 2991 4527 2672 
Q 4241 2353 3814 2175 
Q 3388 1997 2988 1997 
L 1947 1997 
L 1556 416 
Q 1544 353 1544 325 
Q 1544 300 1551 283 
Q 1559 266 1573 261 
Q 1588 256 1619 250 
Q 1741 225 2081 225 
Q 2144 225 2144 141 
Q 2122 50 2109 25 
Q 2097 0 2034 0 
L 313 0 
z
M 1978 2188 
L 2875 2188 
Q 3497 2188 3822 2522 
Q 3988 2688 4092 3000 
Q 4197 3313 4197 3566 
Q 4197 3881 3956 4014 
Q 3716 4147 3359 4147 
L 2747 4147 
Q 2572 4147 2515 4117 
Q 2459 4088 2413 3928 
L 1978 2188 
z
" transform="scale(0.015625)"/>
      </defs>
      <use xlink:href="#Cmmi10-50" transform="translate(0 0.6875)"/>
     </g>
    </g>
   </g>
   <g id="text_2">
    <g clip-path="url(#p68e4ddb080)">
     <!-- $Q$ -->
     <g transform="translate(84.955936 322.720274) scale(0.25 -0.25)">
      <defs>
       <path id="Cmmi10-51" d="M 1947 -141 
Q 1466 -141 1094 79 
Q 722 300 520 692 
Q 319 1084 319 1563 
Q 319 2259 714 2950 
Q 1109 3641 1756 4077 
Q 2403 4513 3109 4513 
Q 3475 4513 3778 4381 
Q 4081 4250 4290 4017 
Q 4500 3784 4614 3471 
Q 4728 3159 4728 2791 
Q 4728 2366 4581 1936 
Q 4434 1506 4171 1136 
Q 3909 766 3559 484 
Q 3209 203 2809 38 
Q 2850 -256 2934 -425 
Q 3019 -594 3256 -594 
Q 3506 -594 3726 -412 
Q 3947 -231 4006 13 
Q 4019 72 4078 72 
Q 4147 72 4147 -13 
Q 4100 -219 4008 -430 
Q 3916 -641 3786 -823 
Q 3656 -1006 3478 -1123 
Q 3300 -1241 3084 -1241 
Q 2547 -1241 2547 -550 
Q 2547 -509 2562 -332 
Q 2578 -156 2578 -44 
Q 2269 -141 1947 -141 
z
M 1709 300 
Q 1709 44 1991 44 
Q 2275 44 2591 184 
L 2591 244 
Q 2591 503 2509 648 
Q 2428 794 2194 794 
Q 2078 794 1964 723 
Q 1850 653 1779 539 
Q 1709 425 1709 300 
z
M 1544 288 
Q 1544 456 1637 612 
Q 1731 769 1881 864 
Q 2031 959 2203 959 
Q 2481 959 2607 771 
Q 2734 584 2778 281 
Q 3188 525 3500 978 
Q 3813 1431 3977 1973 
Q 4141 2516 4141 3003 
Q 4141 3356 4023 3656 
Q 3906 3956 3664 4140 
Q 3422 4325 3066 4325 
Q 2722 4325 2403 4156 
Q 2084 3988 1813 3706 
Q 1550 3434 1342 3032 
Q 1134 2631 1021 2193 
Q 909 1756 909 1356 
Q 909 947 1068 612 
Q 1228 278 1569 128 
Q 1544 194 1544 288 
z
" transform="scale(0.015625)"/>
      </defs>
      <use xlink:href="#Cmmi10-51" transform="translate(0 0.484375)"/>
     </g>
    </g>
   </g>
  </g>
 </g>
 <defs>
  <clipPath id="p68e4ddb080">
   <rect x="7.2" y="7.2" width="378.275137" height="324"/>
  </clipPath>
 </defs>
</svg>
