<?xml version="1.0" encoding="utf-8" standalone="no"?>
<!DOCTYPE svg PUBLIC "-//W3C//DTD SVG 1.1//EN"
  "http://www.w3.org/Graphics/SVG/1.1/DTD/svg11.dtd">
<svg xmlns:xlink="http://www.w3.org/1999/xlink" width="392.694985pt" height="338.4pt" viewBox="0 0 392.694985 338.4" xmlns="http://www.w3.org/2000/svg" version="1.1">
 <metadata>
  <rdf:RDF xmlns:dc="http://purl.org/dc/elements/1.1/" xmlns:cc="http://creativecommons.org/ns#" xmlns:rdf="http://www.w3.org/1999/02/22-rdf-syntax-ns#">
   <cc:Work>
    <dc:type rdf:resource="http://purl.org/dc/dcmitype/StillImage"/>
    <dc:date>2024-08-16T15:25:38.767915</dc:date>
    <dc:format>image/svg+xml</dc:format>
    <dc:creator>
     <cc:Agent>
      <dc:title>Matplotlib v3.8.0, https://matplotlib.org/</dc:title>
     </cc:Agent>
    </dc:creator>
   </cc:Work>
  </rdf:RDF>
 </metadata>
 <defs>
  <style type="text/css">*{stroke-linejoin: round; stroke-linecap: butt}</style>
 </defs>
 <g id="figure_1">
  <g id="patch_1">
   <path d="M 0 338.4 
L 392.694985 338.4 
L 392.694985 0 
L 0 0 
z
" style="fill: #ffffff"/>
  </g>
  <g id="axes_1">
   <g id="patch_2">
    <path d="M 7.2 331.2 
L 385.494985 331.2 
L 385.494985 7.2 
L 7.2 7.2 
z
" style="fill: #ffffff"/>
   </g>
   <g id="PathCollection_1">
    <path d="M 378.220081 246.762125 
C 379.157716 246.762125 380.057074 246.389598 380.720081 245.726591 
C 381.383089 245.063583 381.755615 244.164225 381.755615 243.226591 
C 381.755615 242.288956 381.383089 241.389598 380.720081 240.726591 
C 380.057074 240.063583 379.157716 239.691057 378.220081 239.691057 
C 377.282447 239.691057 376.383089 240.063583 375.720081 240.726591 
C 375.057074 241.389598 374.684548 242.288956 374.684548 243.226591 
C 374.684548 244.164225 375.057074 245.063583 375.720081 245.726591 
C 376.383089 246.389598 377.282447 246.762125 378.220081 246.762125 
z
" clip-path="url(#p3dc6c58085)"/>
   </g>
   <g id="PathCollection_2">
    <path d="M 72.643938 323.81295 
C 73.581572 323.81295 74.48093 323.440424 75.143938 322.777416 
C 75.806946 322.114408 76.179472 321.215051 76.179472 320.277416 
C 76.179472 319.339782 75.806946 318.440424 75.143938 317.777416 
C 74.48093 317.114408 73.581572 316.741882 72.643938 316.741882 
C 71.706303 316.741882 70.806946 317.114408 70.143938 317.777416 
C 69.48093 318.440424 69.108404 319.339782 69.108404 320.277416 
C 69.108404 321.215051 69.48093 322.114408 70.143938 322.777416 
C 70.806946 323.440424 71.706303 323.81295 72.643938 323.81295 
z
" clip-path="url(#p3dc6c58085)"/>
   </g>
   <g id="matplotlib.axis_1"/>
   <g id="matplotlib.axis_2"/>
   <g id="line2d_1">
    <path d="M 378.220081 243.226591 
L 341.606754 197.978899 
L 321.05941 172.779832 
L 305.264037 153.756826 
L 293.571001 139.965063 
L 280.823111 125.290668 
L 269.26924 112.382972 
L 260.726384 103.11723 
L 251.442783 93.350391 
L 241.582956 83.360383 
L 233.085559 75.10019 
L 223.788003 66.469213 
L 218.737307 61.972689 
L 211.022287 55.384119 
L 202.124626 48.235007 
L 195.213893 43.039202 
L 189.855201 39.239147 
L 182.766279 34.537559 
L 176.696047 30.822923 
L 172.856912 28.62955 
L 164.951273 24.514419 
L 164.233327 24.168499 
L 157.390849 21.11503 
L 151.645924 18.905752 
L 146.009011 17.070722 
L 144.540636 16.649042 
L 139.355225 15.353679 
L 136.264297 14.729827 
L 132.047093 14.064827 
L 126.407225 13.526352 
L 124.241343 13.430769 
L 119.748161 13.43803 
L 115.748138 13.687107 
L 112.109325 14.121362 
L 107.416332 14.987755 
L 104.343578 15.750637 
L 99.848356 17.159995 
L 95.057185 19.066711 
L 90.977382 21.039762 
L 87.939176 22.729893 
L 83.688883 25.428911 
L 79.697098 28.3407 
L 74.971948 32.294426 
L 71.228374 35.846861 
L 67.35652 39.943433 
L 63.625753 44.329836 
L 60.446422 48.436086 
L 57.356074 52.778974 
L 53.920079 58.050036 
L 50.051974 64.59896 
L 46.371128 71.509288 
L 43.02841 78.435966 
L 40.393401 84.392178 
L 37.495882 91.51799 
L 34.78033 98.826478 
L 32.541752 105.384513 
L 29.525823 115.131463 
L 27.802305 121.265204 
L 25.394634 130.68965 
L 23.224354 140.271077 
L 21.938942 146.578875 
L 20.070256 156.88956 
L 18.651329 165.988049 
L 17.364039 175.724628 
L 16.192758 186.714636 
L 15.556717 194.314548 
L 14.964759 203.789937 
L 14.577224 214.22348 
L 14.481748 225.159238 
L 14.605848 232.465985 
L 15.010964 241.983886 
L 15.601085 250.186333 
L 16.175524 256.065584 
L 17.14372 263.782511 
L 17.959558 269.043445 
L 19.276728 276.076936 
L 20.435915 281.250352 
L 21.854738 286.671775 
L 23.861091 293.091064 
L 25.16103 296.653885 
L 26.849667 300.728341 
L 28.975445 305.128089 
L 30.969528 308.646998 
L 32.485383 310.988131 
L 34.193877 313.324726 
L 36.66795 316.210285 
L 38.125769 317.665341 
L 40.323709 319.553062 
L 42.860338 321.320141 
L 44.189595 322.086264 
L 46.559067 323.203059 
L 48.345485 323.849398 
L 51.054788 324.535531 
L 53.73812 324.894126 
L 57.3311 324.921092 
L 60.032766 324.629554 
L 63.188966 323.979157 
L 66.523581 322.957735 
L 69.761819 321.662853 
L 72.643938 320.277416 
L 72.643938 320.277416 
" clip-path="url(#p3dc6c58085)" style="fill: none; stroke: #000000; stroke-linecap: square"/>
   </g>
   <g id="patch_3">
    <path d="M 99.888966 17.145653 
Q 99.991365 17.109716 97.983858 17.814247 
" clip-path="url(#p3dc6c58085)" style="fill: none; stroke: #000000; stroke-width: 2; stroke-linecap: round"/>
    <path d="M 86.892331 16.407825 
L 97.983858 17.814247 
L 90.203804 25.843616 
z
" clip-path="url(#p3dc6c58085)" style="stroke: #000000; stroke-width: 2; stroke-linecap: round"/>
   </g>
   <g id="text_1">
    <g clip-path="url(#p3dc6c58085)">
     <!-- $P$ -->
     <g transform="translate(361.168309 272.44196) scale(0.25 -0.25)">
      <defs>
       <path id="Cmmi10-50" d="M 313 0 
Q 250 0 250 84 
Q 253 100 262 139 
Q 272 178 289 201 
Q 306 225 331 225 
Q 722 225 878 269 
Q 959 297 997 441 
L 1875 3956 
Q 1888 4019 1888 4044 
Q 1888 4113 1813 4122 
Q 1691 4147 1350 4147 
Q 1288 4147 1288 4231 
Q 1291 4247 1300 4286 
Q 1309 4325 1326 4348 
Q 1344 4372 1369 4372 
L 3578 4372 
Q 3881 4372 4165 4264 
Q 4450 4156 4631 3934 
Q 4813 3713 4813 3397 
Q 4813 2991 4527 2672 
Q 4241 2353 3814 2175 
Q 3388 1997 2988 1997 
L 1947 1997 
L 1556 416 
Q 1544 353 1544 325 
Q 1544 300 1551 283 
Q 1559 266 1573 261 
Q 1588 256 1619 250 
Q 1741 225 2081 225 
Q 2144 225 2144 141 
Q 2122 50 2109 25 
Q 2097 0 2034 0 
L 313 0 
z
M 1978 2188 
L 2875 2188 
Q 3497 2188 3822 2522 
Q 3988 2688 4092 3000 
Q 4197 3313 4197 3566 
Q 4197 3881 3956 4014 
Q 3716 4147 3359 4147 
L 2747 4147 
Q 2572 4147 2515 4117 
Q 2459 4088 2413 3928 
L 1978 2188 
z
" transform="scale(0.015625)"/>
      </defs>
      <use xlink:href="#Cmmi10-50" transform="translate(0 0.6875)"/>
     </g>
    </g>
   </g>
   <g id="text_2">
    <g clip-path="url(#p3dc6c58085)">
     <!-- $Q$ -->
     <g transform="translate(84.960869 322.712467) scale(0.25 -0.25)">
      <defs>
       <path id="Cmmi10-51" d="M 1947 -141 
Q 1466 -141 1094 79 
Q 722 300 520 692 
Q 319 1084 319 1563 
Q 319 2259 714 2950 
Q 1109 3641 1756 4077 
Q 2403 4513 3109 4513 
Q 3475 4513 3778 4381 
Q 4081 4250 4290 4017 
Q 4500 3784 4614 3471 
Q 4728 3159 4728 2791 
Q 4728 2366 4581 1936 
Q 4434 1506 4171 1136 
Q 3909 766 3559 484 
Q 3209 203 2809 38 
Q 2850 -256 2934 -425 
Q 3019 -594 3256 -594 
Q 3506 -594 3726 -412 
Q 3947 -231 4006 13 
Q 4019 72 4078 72 
Q 4147 72 4147 -13 
Q 4100 -219 4008 -430 
Q 3916 -641 3786 -823 
Q 3656 -1006 3478 -1123 
Q 3300 -1241 3084 -1241 
Q 2547 -1241 2547 -550 
Q 2547 -509 2562 -332 
Q 2578 -156 2578 -44 
Q 2269 -141 1947 -141 
z
M 1709 300 
Q 1709 44 1991 44 
Q 2275 44 2591 184 
L 2591 244 
Q 2591 503 2509 648 
Q 2428 794 2194 794 
Q 2078 794 1964 723 
Q 1850 653 1779 539 
Q 1709 425 1709 300 
z
M 1544 288 
Q 1544 456 1637 612 
Q 1731 769 1881 864 
Q 2031 959 2203 959 
Q 2481 959 2607 771 
Q 2734 584 2778 281 
Q 3188 525 3500 978 
Q 3813 1431 3977 1973 
Q 4141 2516 4141 3003 
Q 4141 3356 4023 3656 
Q 3906 3956 3664 4140 
Q 3422 4325 3066 4325 
Q 2722 4325 2403 4156 
Q 2084 3988 1813 3706 
Q 1550 3434 1342 3032 
Q 1134 2631 1021 2193 
Q 909 1756 909 1356 
Q 909 947 1068 612 
Q 1228 278 1569 128 
Q 1544 194 1544 288 
z
" transform="scale(0.015625)"/>
      </defs>
      <use xlink:href="#Cmmi10-51" transform="translate(0 0.484375)"/>
     </g>
    </g>
   </g>
  </g>
 </g>
 <defs>
  <clipPath id="p3dc6c58085">
   <rect x="7.2" y="7.2" width="378.294985" height="324"/>
  </clipPath>
 </defs>
</svg>
