<?xml version="1.0" encoding="utf-8" standalone="no"?>
<!DOCTYPE svg PUBLIC "-//W3C//DTD SVG 1.1//EN"
  "http://www.w3.org/Graphics/SVG/1.1/DTD/svg11.dtd">
<svg xmlns:xlink="http://www.w3.org/1999/xlink" width="392.693619pt" height="338.4pt" viewBox="0 0 392.693619 338.4" xmlns="http://www.w3.org/2000/svg" version="1.1">
 <metadata>
  <rdf:RDF xmlns:dc="http://purl.org/dc/elements/1.1/" xmlns:cc="http://creativecommons.org/ns#" xmlns:rdf="http://www.w3.org/1999/02/22-rdf-syntax-ns#">
   <cc:Work>
    <dc:type rdf:resource="http://purl.org/dc/dcmitype/StillImage"/>
    <dc:date>2024-08-14T12:00:01.528581</dc:date>
    <dc:format>image/svg+xml</dc:format>
    <dc:creator>
     <cc:Agent>
      <dc:title>Matplotlib v3.8.0, https://matplotlib.org/</dc:title>
     </cc:Agent>
    </dc:creator>
   </cc:Work>
  </rdf:RDF>
 </metadata>
 <defs>
  <style type="text/css">*{stroke-linejoin: round; stroke-linecap: butt}</style>
 </defs>
 <g id="figure_1">
  <g id="patch_1">
   <path d="M 0 338.4 
L 392.693619 338.4 
L 392.693619 0 
L 0 0 
z
" style="fill: #ffffff"/>
  </g>
  <g id="axes_1">
   <g id="patch_2">
    <path d="M 7.2 331.2 
L 385.493619 331.2 
L 385.493619 7.2 
L 7.2 7.2 
z
" style="fill: #ffffff"/>
   </g>
   <g id="PathCollection_1">
    <path d="M 378.218742 246.77308 
C 379.156376 246.77308 380.055734 246.400554 380.718742 245.737546 
C 381.381749 245.074538 381.754275 244.17518 381.754275 243.237546 
C 381.754275 242.299911 381.381749 241.400554 380.718742 240.737546 
C 380.055734 240.074538 379.156376 239.702012 378.218742 239.702012 
C 377.281107 239.702012 376.381749 240.074538 375.718742 240.737546 
C 375.055734 241.400554 374.683208 242.299911 374.683208 243.237546 
C 374.683208 244.17518 375.055734 245.074538 375.718742 245.737546 
C 376.381749 246.400554 377.281107 246.77308 378.218742 246.77308 
z
" clip-path="url(#pf78ad7905d)"/>
   </g>
   <g id="PathCollection_2">
    <path d="M 72.644001 323.823551 
C 73.581636 323.823551 74.480993 323.451025 75.144001 322.788018 
C 75.807009 322.12501 76.179535 321.225652 76.179535 320.288018 
C 76.179535 319.350383 75.807009 318.451025 75.144001 317.788018 
C 74.480993 317.12501 73.581636 316.752484 72.644001 316.752484 
C 71.706366 316.752484 70.807009 317.12501 70.144001 317.788018 
C 69.480993 318.451025 69.108467 319.350383 69.108467 320.288018 
C 69.108467 321.225652 69.480993 322.12501 70.144001 322.788018 
C 70.807009 323.451025 71.706366 323.823551 72.644001 323.823551 
z
" clip-path="url(#pf78ad7905d)"/>
   </g>
   <g id="matplotlib.axis_1"/>
   <g id="matplotlib.axis_2"/>
   <g id="line2d_1">
    <path d="M 378.218742 243.237546 
L 343.814322 200.717536 
L 324.169512 176.579997 
L 306.378613 155.098242 
L 292.100455 138.264162 
L 280.892039 125.381369 
L 270.040542 113.244196 
L 258.728533 101.00014 
L 246.653938 88.458886 
L 238.699642 80.532074 
L 228.722449 71.007003 
L 221.707231 64.612097 
L 213.964768 57.868127 
L 206.489655 51.692071 
L 198.274986 45.312932 
L 194.289612 42.381391 
L 187.414565 37.589836 
L 184.371148 35.580637 
L 176.097622 30.485094 
L 169.828427 27.000086 
L 163.197002 23.689708 
L 156.048428 20.581194 
L 151.767311 18.961048 
L 145.925854 17.058282 
L 140.546299 15.636086 
L 133.947227 14.349416 
L 129.936413 13.827302 
L 124.320056 13.445148 
L 118.322503 13.512023 
L 112.839212 14.029965 
L 109.235007 14.621976 
L 103.865521 15.895691 
L 102.253734 16.373537 
L 98.940279 17.500522 
L 95.680923 18.805898 
L 91.269913 20.899125 
L 86.98869 23.310867 
L 83.136303 25.821618 
L 80.050424 28.079567 
L 76.17561 31.24477 
L 71.861009 35.23114 
L 69.251461 37.894768 
L 64.583495 43.172665 
L 61.784484 46.67683 
L 58.917374 50.551849 
L 54.922892 56.473086 
L 52.328892 60.673208 
L 48.767488 66.942991 
L 46.180664 71.898613 
L 43.684641 77.035304 
L 41.076581 82.814823 
L 37.996629 90.251957 
L 34.879949 98.558727 
L 31.648582 108.165953 
L 28.629185 118.277819 
L 26.6829 125.522909 
L 23.96533 136.876727 
L 21.85849 147.005432 
L 20.145654 156.454509 
L 18.604769 166.324905 
L 17.547867 174.231424 
L 16.542707 183.138785 
L 15.500929 195.090728 
L 14.837341 206.513064 
L 14.56946 214.585419 
L 14.482096 225.17304 
L 14.704006 235.499485 
L 15.272964 246.040443 
L 15.995612 254.37297 
L 16.794039 261.232179 
L 18.263047 270.809615 
L 19.779577 278.427265 
L 21.655631 285.970973 
L 23.490016 292.005074 
L 24.689709 295.418966 
L 26.570858 300.104182 
L 28.095573 303.405807 
L 30.213914 307.386223 
L 32.903883 311.599005 
L 35.339344 314.739861 
L 37.792097 317.357648 
L 40.089502 319.378831 
L 42.815295 321.3028 
L 45.918322 322.941701 
L 47.149835 323.445218 
L 50.188125 324.363476 
L 53.410279 324.87705 
L 56.502178 324.968935 
L 58.536878 324.83311 
L 61.040511 324.46755 
L 64.643857 323.584708 
L 68.25226 322.312755 
L 72.644001 320.288018 
L 72.644001 320.288018 
" clip-path="url(#pf78ad7905d)" style="fill: none; stroke: #000000; stroke-linecap: square"/>
   </g>
   <g id="patch_3">
    <path d="M 99.888904 17.157646 
Q 99.991303 17.121709 97.983795 17.82624 
" clip-path="url(#pf78ad7905d)" style="fill: none; stroke: #000000; stroke-width: 2; stroke-linecap: round"/>
    <path d="M 86.892268 16.419819 
L 97.983795 17.82624 
L 90.203741 25.855609 
z
" clip-path="url(#pf78ad7905d)" style="stroke: #000000; stroke-width: 2; stroke-linecap: round"/>
   </g>
   <g id="text_1">
    <g clip-path="url(#pf78ad7905d)">
     <!-- $P$ -->
     <g transform="translate(361.16701 272.452812) scale(0.25 -0.25)">
      <defs>
       <path id="Cmmi10-50" d="M 313 0 
Q 250 0 250 84 
Q 253 100 262 139 
Q 272 178 289 201 
Q 306 225 331 225 
Q 722 225 878 269 
Q 959 297 997 441 
L 1875 3956 
Q 1888 4019 1888 4044 
Q 1888 4113 1813 4122 
Q 1691 4147 1350 4147 
Q 1288 4147 1288 4231 
Q 1291 4247 1300 4286 
Q 1309 4325 1326 4348 
Q 1344 4372 1369 4372 
L 3578 4372 
Q 3881 4372 4165 4264 
Q 4450 4156 4631 3934 
Q 4813 3713 4813 3397 
Q 4813 2991 4527 2672 
Q 4241 2353 3814 2175 
Q 3388 1997 2988 1997 
L 1947 1997 
L 1556 416 
Q 1544 353 1544 325 
Q 1544 300 1551 283 
Q 1559 266 1573 261 
Q 1588 256 1619 250 
Q 1741 225 2081 225 
Q 2144 225 2144 141 
Q 2122 50 2109 25 
Q 2097 0 2034 0 
L 313 0 
z
M 1978 2188 
L 2875 2188 
Q 3497 2188 3822 2522 
Q 3988 2688 4092 3000 
Q 4197 3313 4197 3566 
Q 4197 3881 3956 4014 
Q 3716 4147 3359 4147 
L 2747 4147 
Q 2572 4147 2515 4117 
Q 2459 4088 2413 3928 
L 1978 2188 
z
" transform="scale(0.015625)"/>
      </defs>
      <use xlink:href="#Cmmi10-50" transform="translate(0 0.6875)"/>
     </g>
    </g>
   </g>
   <g id="text_2">
    <g clip-path="url(#pf78ad7905d)">
     <!-- $Q$ -->
     <g transform="translate(84.96083 322.723089) scale(0.25 -0.25)">
      <defs>
       <path id="Cmmi10-51" d="M 1947 -141 
Q 1466 -141 1094 79 
Q 722 300 520 692 
Q 319 1084 319 1563 
Q 319 2259 714 2950 
Q 1109 3641 1756 4077 
Q 2403 4513 3109 4513 
Q 3475 4513 3778 4381 
Q 4081 4250 4290 4017 
Q 4500 3784 4614 3471 
Q 4728 3159 4728 2791 
Q 4728 2366 4581 1936 
Q 4434 1506 4171 1136 
Q 3909 766 3559 484 
Q 3209 203 2809 38 
Q 2850 -256 2934 -425 
Q 3019 -594 3256 -594 
Q 3506 -594 3726 -412 
Q 3947 -231 4006 13 
Q 4019 72 4078 72 
Q 4147 72 4147 -13 
Q 4100 -219 4008 -430 
Q 3916 -641 3786 -823 
Q 3656 -1006 3478 -1123 
Q 3300 -1241 3084 -1241 
Q 2547 -1241 2547 -550 
Q 2547 -509 2562 -332 
Q 2578 -156 2578 -44 
Q 2269 -141 1947 -141 
z
M 1709 300 
Q 1709 44 1991 44 
Q 2275 44 2591 184 
L 2591 244 
Q 2591 503 2509 648 
Q 2428 794 2194 794 
Q 2078 794 1964 723 
Q 1850 653 1779 539 
Q 1709 425 1709 300 
z
M 1544 288 
Q 1544 456 1637 612 
Q 1731 769 1881 864 
Q 2031 959 2203 959 
Q 2481 959 2607 771 
Q 2734 584 2778 281 
Q 3188 525 3500 978 
Q 3813 1431 3977 1973 
Q 4141 2516 4141 3003 
Q 4141 3356 4023 3656 
Q 3906 3956 3664 4140 
Q 3422 4325 3066 4325 
Q 2722 4325 2403 4156 
Q 2084 3988 1813 3706 
Q 1550 3434 1342 3032 
Q 1134 2631 1021 2193 
Q 909 1756 909 1356 
Q 909 947 1068 612 
Q 1228 278 1569 128 
Q 1544 194 1544 288 
z
" transform="scale(0.015625)"/>
      </defs>
      <use xlink:href="#Cmmi10-51" transform="translate(0 0.484375)"/>
     </g>
    </g>
   </g>
  </g>
 </g>
 <defs>
  <clipPath id="pf78ad7905d">
   <rect x="7.2" y="7.2" width="378.293619" height="324"/>
  </clipPath>
 </defs>
</svg>
