<?xml version="1.0" encoding="utf-8" standalone="no"?>
<!DOCTYPE svg PUBLIC "-//W3C//DTD SVG 1.1//EN"
  "http://www.w3.org/Graphics/SVG/1.1/DTD/svg11.dtd">
<svg xmlns:xlink="http://www.w3.org/1999/xlink" width="392.702889pt" height="338.4pt" viewBox="0 0 392.702889 338.4" xmlns="http://www.w3.org/2000/svg" version="1.1">
 <metadata>
  <rdf:RDF xmlns:dc="http://purl.org/dc/elements/1.1/" xmlns:cc="http://creativecommons.org/ns#" xmlns:rdf="http://www.w3.org/1999/02/22-rdf-syntax-ns#">
   <cc:Work>
    <dc:type rdf:resource="http://purl.org/dc/dcmitype/StillImage"/>
    <dc:date>2023-07-31T16:17:53.944106</dc:date>
    <dc:format>image/svg+xml</dc:format>
    <dc:creator>
     <cc:Agent>
      <dc:title>Matplotlib v3.6.2, https://matplotlib.org/</dc:title>
     </cc:Agent>
    </dc:creator>
   </cc:Work>
  </rdf:RDF>
 </metadata>
 <defs>
  <style type="text/css">*{stroke-linejoin: round; stroke-linecap: butt}</style>
 </defs>
 <g id="figure_1">
  <g id="patch_1">
   <path d="M 0 338.4 
L 392.702889 338.4 
L 392.702889 0 
L 0 0 
z
" style="fill: #ffffff"/>
  </g>
  <g id="axes_1">
   <g id="patch_2">
    <path d="M 7.2 331.2 
L 385.502889 331.2 
L 385.502889 7.2 
L 7.2 7.2 
z
" style="fill: #ffffff"/>
   </g>
   <g id="PathCollection_1">
    <path d="M 137.73764 100.646074 
C 138.675274 100.646074 139.574632 100.273548 140.23764 99.61054 
C 140.900647 98.947532 141.273173 98.048174 141.273173 97.11054 
C 141.273173 96.172905 140.900647 95.273548 140.23764 94.61054 
C 139.574632 93.947532 138.675274 93.575006 137.73764 93.575006 
C 136.800005 93.575006 135.900647 93.947532 135.23764 94.61054 
C 134.574632 95.273548 134.202106 96.172905 134.202106 97.11054 
C 134.202106 98.048174 134.574632 98.947532 135.23764 99.61054 
C 135.900647 100.273548 136.800005 100.646074 137.73764 100.646074 
z
" clip-path="url(#pf267f322cf)"/>
   </g>
   <g id="matplotlib.axis_1"/>
   <g id="matplotlib.axis_2"/>
   <g id="line2d_1">
    <path d="M 378.227833 243.232128 
L 350.046032 208.406501 
L 323.786554 176.09647 
L 306.7167 155.48544 
L 295.237287 141.908964 
L 282.07308 126.707254 
L 272.52582 115.976295 
L 260.950734 103.354218 
L 251.769517 93.685533 
L 240.36627 82.154414 
L 230.224199 72.394541 
L 225.582905 68.098223 
L 214.95241 58.694917 
L 208.370284 53.199436 
L 201.021361 47.382276 
L 196.904687 44.278773 
L 190.305367 39.549018 
L 186.435009 36.92199 
L 178.178997 31.701905 
L 172.299667 28.320663 
L 167.74386 25.903877 
L 160.754697 22.559856 
L 156.898667 20.912373 
L 151.889305 18.992257 
L 148.154617 17.729057 
L 141.063271 15.746534 
L 135.103356 14.525271 
L 133.501717 14.269749 
L 129.024835 13.725538 
L 124.298358 13.433065 
L 118.906568 13.471846 
L 113.929162 13.879831 
L 110.417078 14.394202 
L 107.775434 14.910012 
L 102.86526 16.176228 
L 98.664185 17.592878 
L 95.343606 18.942066 
L 92.102045 20.464261 
L 87.866753 22.774366 
L 83.570292 25.511981 
L 82.479873 26.273125 
L 79.392337 28.580812 
L 74.884485 32.375315 
L 74.057885 33.12864 
L 70.931627 36.147621 
L 68.667178 38.509044 
L 63.777824 44.144801 
L 61.38654 47.187679 
L 57.795091 52.142715 
L 54.259448 57.510487 
L 50.777586 63.32059 
L 48.180301 68.027953 
L 45.365373 73.527661 
L 41.754646 81.260443 
L 38.972894 87.808792 
L 35.588185 96.586484 
L 32.239429 106.315384 
L 29.747562 114.378489 
L 27.27058 123.258217 
L 24.882491 132.850578 
L 23.067519 141.016813 
L 21.593109 148.378795 
L 19.698258 159.152682 
L 18.304171 168.449812 
L 16.982083 179.020785 
L 15.790105 191.32775 
L 15.250519 198.772995 
L 14.750249 208.628328 
L 14.494715 219.065764 
L 14.520254 228.571406 
L 14.654153 234.070026 
L 15.147113 244.200428 
L 15.719894 251.525987 
L 16.441421 258.403812 
L 17.235138 264.422892 
L 18.426086 271.712739 
L 20.025792 279.513714 
L 21.428832 285.139064 
L 22.91049 290.21143 
L 24.339355 294.455771 
L 26.209487 299.256394 
L 28.225965 303.666109 
L 30.335811 307.592263 
L 32.414833 310.891365 
L 34.324023 313.497054 
L 35.769762 315.232647 
L 37.638538 317.204522 
L 40.399513 319.618723 
L 42.959205 321.387562 
L 44.537171 322.276434 
L 47.060371 323.407736 
L 49.788383 324.264277 
L 50.178137 324.357704 
L 52.921981 324.82431 
L 54.348179 324.94123 
L 57.707825 324.903217 
L 59.781226 324.67476 
L 62.76783 324.091818 
L 66.167077 323.090113 
L 67.950386 322.430264 
L 70.635155 321.273247 
L 72.645209 320.284588 
L 72.645209 320.284588 
" clip-path="url(#pf267f322cf)" style="fill: none; stroke: #ffffff; stroke-linecap: square"/>
   </g>
   <g id="line2d_2">
    <path d="M 72.645209 320.284588 
L 78.175086 315.17678 
L 82.354552 311.029054 
L 86.180303 306.97414 
L 90.635974 301.878738 
L 94.121267 297.554758 
L 96.999743 293.711599 
L 100.449749 288.708917 
L 103.59919 283.67123 
L 106.588045 278.353192 
L 108.646857 274.297895 
L 110.746101 269.736757 
L 112.974766 264.27451 
L 114.709748 259.42093 
L 116.430958 253.86726 
L 117.696019 249.11326 
L 118.970388 243.457647 
L 119.838681 238.847398 
L 120.869118 232.035211 
L 121.61999 225.367268 
L 122.093875 219.582367 
L 122.54991 210.930316 
L 122.783234 201.763425 
L 122.859177 188.475271 
L 122.955938 169.728227 
L 123.243492 159.99604 
L 123.705058 152.056808 
L 124.282889 145.550668 
L 125.068064 139.112427 
L 126.17991 132.231326 
L 127.439571 126.103702 
L 128.798151 120.651922 
L 130.332914 115.41774 
L 132.067795 110.304101 
L 134.15516 104.942539 
L 136.117323 100.476492 
L 137.73764 97.11054 
L 137.73764 97.11054 
" clip-path="url(#pf267f322cf)" style="fill: none; stroke: #000000; stroke-linecap: square"/>
   </g>
   <g id="patch_3">
    <path d="M 122.85937 186.380159 
Q 122.859377 185.933811 122.859347 187.723531 
" clip-path="url(#pf267f322cf)" style="fill: none; stroke: #000000; stroke-width: 2; stroke-linecap: round"/>
    <path d="M 117.859181 197.723447 
L 122.859347 187.723531 
L 127.859181 197.723614 
L 117.859181 197.723447 
z
" clip-path="url(#pf267f322cf)" style="stroke: #000000; stroke-width: 2; stroke-linecap: round"/>
   </g>
   <g id="text_1">
    <g clip-path="url(#pf267f322cf)">
     <!-- $Q$ -->
     <g transform="translate(89.426095 318.256063) scale(0.25 -0.25)">
      <defs>
       <path id="Cmmi10-51" d="M 1947 -141 
Q 1466 -141 1094 79 
Q 722 300 520 692 
Q 319 1084 319 1563 
Q 319 2259 714 2950 
Q 1109 3641 1756 4077 
Q 2403 4513 3109 4513 
Q 3475 4513 3778 4381 
Q 4081 4250 4290 4017 
Q 4500 3784 4614 3471 
Q 4728 3159 4728 2791 
Q 4728 2366 4581 1936 
Q 4434 1506 4171 1136 
Q 3909 766 3559 484 
Q 3209 203 2809 38 
Q 2850 -256 2934 -425 
Q 3019 -594 3256 -594 
Q 3506 -594 3726 -412 
Q 3947 -231 4006 13 
Q 4019 72 4078 72 
Q 4147 72 4147 -13 
Q 4100 -219 4008 -430 
Q 3916 -641 3786 -823 
Q 3656 -1006 3478 -1123 
Q 3300 -1241 3084 -1241 
Q 2547 -1241 2547 -550 
Q 2547 -509 2562 -332 
Q 2578 -156 2578 -44 
Q 2269 -141 1947 -141 
z
M 1709 300 
Q 1709 44 1991 44 
Q 2275 44 2591 184 
L 2591 244 
Q 2591 503 2509 648 
Q 2428 794 2194 794 
Q 2078 794 1964 723 
Q 1850 653 1779 539 
Q 1709 425 1709 300 
z
M 1544 288 
Q 1544 456 1637 612 
Q 1731 769 1881 864 
Q 2031 959 2203 959 
Q 2481 959 2607 771 
Q 2734 584 2778 281 
Q 3188 525 3500 978 
Q 3813 1431 3977 1973 
Q 4141 2516 4141 3003 
Q 4141 3356 4023 3656 
Q 3906 3956 3664 4140 
Q 3422 4325 3066 4325 
Q 2722 4325 2403 4156 
Q 2084 3988 1813 3706 
Q 1550 3434 1342 3032 
Q 1134 2631 1021 2193 
Q 909 1756 909 1356 
Q 909 947 1068 612 
Q 1228 278 1569 128 
Q 1544 194 1544 288 
z
" transform="scale(0.015625)"/>
      </defs>
      <use xlink:href="#Cmmi10-51" transform="translate(0 0.484375)"/>
     </g>
    </g>
   </g>
   <g id="text_2">
    <g clip-path="url(#pf267f322cf)">
     <!-- $R$ -->
     <g transform="translate(105.920235 117.39942) scale(0.25 -0.25)">
      <defs>
       <path id="Cmmi10-52" d="M 313 0 
Q 250 0 250 84 
Q 253 100 262 139 
Q 272 178 289 201 
Q 306 225 331 225 
Q 722 225 878 269 
Q 959 297 997 441 
L 1875 3956 
Q 1888 4019 1888 4044 
Q 1888 4113 1813 4122 
Q 1691 4147 1350 4147 
Q 1288 4147 1288 4231 
Q 1291 4247 1300 4286 
Q 1309 4325 1326 4348 
Q 1344 4372 1369 4372 
L 3309 4372 
Q 3541 4372 3791 4319 
Q 4041 4266 4250 4152 
Q 4459 4038 4593 3848 
Q 4728 3659 4728 3406 
Q 4728 3084 4515 2831 
Q 4303 2578 3978 2408 
Q 3653 2238 3347 2169 
Q 3597 2078 3756 1879 
Q 3916 1681 3916 1422 
Q 3916 1388 3914 1370 
Q 3913 1353 3909 1331 
L 3859 763 
Q 3853 638 3847 550 
Q 3841 463 3841 409 
Q 3841 234 3892 129 
Q 3944 25 4097 25 
Q 4297 25 4448 211 
Q 4600 397 4647 616 
Q 4675 672 4709 672 
L 4769 672 
Q 4831 672 4831 588 
Q 4784 403 4682 237 
Q 4581 72 4426 -34 
Q 4272 -141 4091 -141 
Q 3716 -141 3452 26 
Q 3188 194 3188 550 
Q 3188 684 3213 788 
L 3353 1356 
Q 3378 1434 3378 1538 
Q 3378 1803 3198 1954 
Q 3019 2106 2747 2106 
L 1959 2106 
L 1538 416 
Q 1522 363 1522 325 
Q 1522 259 1600 250 
Q 1722 225 2059 225 
Q 2125 225 2125 141 
Q 2103 50 2090 25 
Q 2078 0 2016 0 
L 313 0 
z
M 1997 2272 
L 2706 2272 
Q 3403 2272 3756 2625 
Q 3919 2788 4014 3039 
Q 4109 3291 4109 3541 
Q 4109 3778 3970 3912 
Q 3831 4047 3626 4097 
Q 3422 4147 3175 4147 
L 2747 4147 
Q 2572 4147 2515 4117 
Q 2459 4088 2413 3928 
L 1997 2272 
z
" transform="scale(0.015625)"/>
      </defs>
      <use xlink:href="#Cmmi10-52" transform="translate(0 0.6875)"/>
     </g>
    </g>
   </g>
   <g id="PathCollection_2">
    <path d="M 72.645209 323.820122 
C 73.582843 323.820122 74.482201 323.447595 75.145209 322.784588 
C 75.808217 322.12158 76.180743 321.222222 76.180743 320.284588 
C 76.180743 319.346953 75.808217 318.447595 75.145209 317.784588 
C 74.482201 317.12158 73.582843 316.749054 72.645209 316.749054 
C 71.707574 316.749054 70.808217 317.12158 70.145209 317.784588 
C 69.482201 318.447595 69.109675 319.346953 69.109675 320.284588 
C 69.109675 321.222222 69.482201 322.12158 70.145209 322.784588 
C 70.808217 323.447595 71.707574 323.820122 72.645209 323.820122 
z
" clip-path="url(#pf267f322cf)"/>
   </g>
  </g>
 </g>
 <defs>
  <clipPath id="pf267f322cf">
   <rect x="7.2" y="7.2" width="378.302889" height="324"/>
  </clipPath>
 </defs>
</svg>
