<?xml version="1.0" encoding="utf-8" standalone="no"?>
<!DOCTYPE svg PUBLIC "-//W3C//DTD SVG 1.1//EN"
  "http://www.w3.org/Graphics/SVG/1.1/DTD/svg11.dtd">
<svg xmlns:xlink="http://www.w3.org/1999/xlink" width="392.660438pt" height="338.4pt" viewBox="0 0 392.660438 338.4" xmlns="http://www.w3.org/2000/svg" version="1.1">
 <metadata>
  <rdf:RDF xmlns:dc="http://purl.org/dc/elements/1.1/" xmlns:cc="http://creativecommons.org/ns#" xmlns:rdf="http://www.w3.org/1999/02/22-rdf-syntax-ns#">
   <cc:Work>
    <dc:type rdf:resource="http://purl.org/dc/dcmitype/StillImage"/>
    <dc:date>2025-01-29T09:00:02.361924</dc:date>
    <dc:format>image/svg+xml</dc:format>
    <dc:creator>
     <cc:Agent>
      <dc:title>Matplotlib v3.6.2, https://matplotlib.org/</dc:title>
     </cc:Agent>
    </dc:creator>
   </cc:Work>
  </rdf:RDF>
 </metadata>
 <defs>
  <style type="text/css">*{stroke-linejoin: round; stroke-linecap: butt}</style>
 </defs>
 <g id="figure_1">
  <g id="patch_1">
   <path d="M 0 338.4 
L 392.660438 338.4 
L 392.660438 0 
L 0 0 
z
" style="fill: #ffffff"/>
  </g>
  <g id="axes_1">
   <g id="patch_2">
    <path d="M 7.2 331.2 
L 385.460438 331.2 
L 385.460438 7.2 
L 7.2 7.2 
z
" style="fill: #ffffff"/>
   </g>
   <g id="PathCollection_1">
    <path d="M 137.72314 100.667593 
C 138.660775 100.667593 139.560133 100.295067 140.22314 99.632059 
C 140.886148 98.969051 141.258674 98.069693 141.258674 97.132059 
C 141.258674 96.194424 140.886148 95.295067 140.22314 94.632059 
C 139.560133 93.969051 138.660775 93.596525 137.72314 93.596525 
C 136.785506 93.596525 135.886148 93.969051 135.22314 94.632059 
C 134.560133 95.295067 134.187606 96.194424 134.187606 97.132059 
C 134.187606 98.069693 134.560133 98.969051 135.22314 99.632059 
C 135.886148 100.295067 136.785506 100.667593 137.72314 100.667593 
z
" clip-path="url(#pa3d92e22ef)"/>
   </g>
   <g id="matplotlib.axis_1"/>
   <g id="matplotlib.axis_2"/>
   <g id="line2d_1">
    <path d="M 378.186199 243.23716 
L 351.413003 210.154778 
L 327.605535 180.816923 
L 311.14609 160.845967 
L 295.694541 142.498761 
L 286.001133 131.250859 
L 273.325636 116.917193 
L 261.995025 104.5253 
L 252.221048 94.203651 
L 244.280366 86.098474 
L 235.879874 77.82471 
L 225.946461 68.477859 
L 217.034481 60.532649 
L 211.311179 55.667735 
L 202.796082 48.799151 
L 195.996972 43.65303 
L 190.031641 39.401717 
L 184.35626 35.598832 
L 178.788561 32.109255 
L 171.774583 28.072214 
L 165.768508 24.951605 
L 159.45385 22.025319 
L 154.733129 20.08778 
L 147.095431 17.433081 
L 142.043371 16.021484 
L 135.932754 14.703284 
L 129.305319 13.784368 
L 125.920058 13.531537 
L 122.009061 13.430769 
L 117.114044 13.606578 
L 115.609953 13.730606 
L 110.160511 14.468193 
L 105.468198 15.482148 
L 100.616869 16.922075 
L 96.450602 18.495415 
L 92.662042 20.211989 
L 88.851449 22.228626 
L 85.069522 24.534114 
L 80.789835 27.531254 
L 77.045004 30.514282 
L 73.709604 33.473496 
L 69.800576 37.329385 
L 66.849456 40.536593 
L 62.85094 45.320637 
L 59.811815 49.320611 
L 55.774406 55.166201 
L 51.971016 61.284545 
L 49.270871 66.027198 
L 45.691799 72.883336 
L 42.773578 79.010645 
L 40.192077 84.885094 
L 38.051344 90.119036 
L 35.307057 97.373692 
L 32.287963 106.178362 
L 29.42687 115.487186 
L 26.953737 124.477631 
L 24.75505 133.406472 
L 22.98977 141.39618 
L 20.832716 152.504629 
L 19.042064 163.354477 
L 17.575012 174.009069 
L 16.653147 182.063244 
L 15.681943 192.680706 
L 15.058827 202.012071 
L 14.636604 211.976298 
L 14.474239 222.407981 
L 14.599059 232.250665 
L 14.931335 240.570531 
L 15.624384 250.471468 
L 16.435531 258.364365 
L 17.455697 265.912426 
L 18.457106 271.889968 
L 20.071152 279.717049 
L 21.631662 285.885772 
L 23.160827 291.001148 
L 24.331057 294.436685 
L 25.982158 298.715922 
L 27.696788 302.579269 
L 29.079581 305.333875 
L 31.935735 310.177697 
L 33.355726 312.223544 
L 35.030901 314.370291 
L 37.102319 316.668301 
L 40.190164 319.454113 
L 42.614964 321.17252 
L 44.232739 322.114489 
L 47.263883 323.481889 
L 50.077278 324.331161 
L 52.4412 324.762486 
L 55.257445 324.969231 
L 57.585601 324.907392 
L 61.339492 324.401479 
L 63.998484 323.763451 
L 67.280951 322.682007 
L 70.181646 321.475138 
L 72.638054 320.280926 
L 72.638054 320.280926 
" clip-path="url(#pa3d92e22ef)" style="fill: none; stroke: #ffffff; stroke-linecap: square"/>
   </g>
   <g id="line2d_2">
    <path d="M 72.638054 320.280926 
L 78.064399 315.272492 
L 81.747629 311.63755 
L 86.67627 306.416359 
L 89.872896 302.770946 
L 94.034989 297.652478 
L 97.400972 293.139087 
L 100.358447 288.831976 
L 103.460216 283.887298 
L 105.877275 279.6543 
L 108.644079 274.282016 
L 110.789761 269.612188 
L 112.769239 264.783003 
L 114.363768 260.408858 
L 115.99474 255.323776 
L 117.598479 249.461205 
L 118.865013 243.91402 
L 119.846802 238.733375 
L 120.820481 232.315451 
L 121.50143 226.454327 
L 122.11952 219.025652 
L 122.500911 211.861526 
L 122.755234 202.734691 
L 122.845742 189.771583 
L 122.957446 168.955098 
L 123.267221 159.197923 
L 123.731593 151.546497 
L 124.404214 144.321055 
L 125.267061 137.662405 
L 126.293127 131.570279 
L 127.43091 126.10144 
L 128.717467 120.919615 
L 130.493535 114.889808 
L 132.189194 109.953459 
L 133.929204 105.475531 
L 136.41333 99.832558 
L 137.72314 97.132059 
L 137.72314 97.132059 
" clip-path="url(#pa3d92e22ef)" style="fill: none; stroke: #000000; stroke-linecap: square"/>
   </g>
   <g id="patch_3">
    <path d="M 122.846549 186.391605 
Q 122.846557 185.945308 122.846527 187.735078 
" clip-path="url(#pa3d92e22ef)" style="fill: none; stroke: #000000; stroke-width: 2; stroke-linecap: round"/>
    <path d="M 117.84636 197.734995 
L 122.846527 187.735078 
L 127.84636 197.735161 
L 117.84636 197.734995 
z
" clip-path="url(#pa3d92e22ef)" style="stroke: #000000; stroke-width: 2; stroke-linecap: round"/>
   </g>
   <g id="text_1">
    <g clip-path="url(#pa3d92e22ef)">
     <!-- $Q$ -->
     <g transform="translate(89.415918 318.253408) scale(0.25 -0.25)">
      <defs>
       <path id="Cmmi10-51" d="M 1947 -141 
Q 1466 -141 1094 79 
Q 722 300 520 692 
Q 319 1084 319 1563 
Q 319 2259 714 2950 
Q 1109 3641 1756 4077 
Q 2403 4513 3109 4513 
Q 3475 4513 3778 4381 
Q 4081 4250 4290 4017 
Q 4500 3784 4614 3471 
Q 4728 3159 4728 2791 
Q 4728 2366 4581 1936 
Q 4434 1506 4171 1136 
Q 3909 766 3559 484 
Q 3209 203 2809 38 
Q 2850 -256 2934 -425 
Q 3019 -594 3256 -594 
Q 3506 -594 3726 -412 
Q 3947 -231 4006 13 
Q 4019 72 4078 72 
Q 4147 72 4147 -13 
Q 4100 -219 4008 -430 
Q 3916 -641 3786 -823 
Q 3656 -1006 3478 -1123 
Q 3300 -1241 3084 -1241 
Q 2547 -1241 2547 -550 
Q 2547 -509 2562 -332 
Q 2578 -156 2578 -44 
Q 2269 -141 1947 -141 
z
M 1709 300 
Q 1709 44 1991 44 
Q 2275 44 2591 184 
L 2591 244 
Q 2591 503 2509 648 
Q 2428 794 2194 794 
Q 2078 794 1964 723 
Q 1850 653 1779 539 
Q 1709 425 1709 300 
z
M 1544 288 
Q 1544 456 1637 612 
Q 1731 769 1881 864 
Q 2031 959 2203 959 
Q 2481 959 2607 771 
Q 2734 584 2778 281 
Q 3188 525 3500 978 
Q 3813 1431 3977 1973 
Q 4141 2516 4141 3003 
Q 4141 3356 4023 3656 
Q 3906 3956 3664 4140 
Q 3422 4325 3066 4325 
Q 2722 4325 2403 4156 
Q 2084 3988 1813 3706 
Q 1550 3434 1342 3032 
Q 1134 2631 1021 2193 
Q 909 1756 909 1356 
Q 909 947 1068 612 
Q 1228 278 1569 128 
Q 1544 194 1544 288 
z
" transform="scale(0.015625)"/>
      </defs>
      <use xlink:href="#Cmmi10-51" transform="translate(0 0.484375)"/>
     </g>
    </g>
   </g>
   <g id="text_2">
    <g clip-path="url(#pa3d92e22ef)">
     <!-- $R$ -->
     <g transform="translate(105.908254 117.419428) scale(0.25 -0.25)">
      <defs>
       <path id="Cmmi10-52" d="M 313 0 
Q 250 0 250 84 
Q 253 100 262 139 
Q 272 178 289 201 
Q 306 225 331 225 
Q 722 225 878 269 
Q 959 297 997 441 
L 1875 3956 
Q 1888 4019 1888 4044 
Q 1888 4113 1813 4122 
Q 1691 4147 1350 4147 
Q 1288 4147 1288 4231 
Q 1291 4247 1300 4286 
Q 1309 4325 1326 4348 
Q 1344 4372 1369 4372 
L 3309 4372 
Q 3541 4372 3791 4319 
Q 4041 4266 4250 4152 
Q 4459 4038 4593 3848 
Q 4728 3659 4728 3406 
Q 4728 3084 4515 2831 
Q 4303 2578 3978 2408 
Q 3653 2238 3347 2169 
Q 3597 2078 3756 1879 
Q 3916 1681 3916 1422 
Q 3916 1388 3914 1370 
Q 3913 1353 3909 1331 
L 3859 763 
Q 3853 638 3847 550 
Q 3841 463 3841 409 
Q 3841 234 3892 129 
Q 3944 25 4097 25 
Q 4297 25 4448 211 
Q 4600 397 4647 616 
Q 4675 672 4709 672 
L 4769 672 
Q 4831 672 4831 588 
Q 4784 403 4682 237 
Q 4581 72 4426 -34 
Q 4272 -141 4091 -141 
Q 3716 -141 3452 26 
Q 3188 194 3188 550 
Q 3188 684 3213 788 
L 3353 1356 
Q 3378 1434 3378 1538 
Q 3378 1803 3198 1954 
Q 3019 2106 2747 2106 
L 1959 2106 
L 1538 416 
Q 1522 363 1522 325 
Q 1522 259 1600 250 
Q 1722 225 2059 225 
Q 2125 225 2125 141 
Q 2103 50 2090 25 
Q 2078 0 2016 0 
L 313 0 
z
M 1997 2272 
L 2706 2272 
Q 3403 2272 3756 2625 
Q 3919 2788 4014 3039 
Q 4109 3291 4109 3541 
Q 4109 3778 3970 3912 
Q 3831 4047 3626 4097 
Q 3422 4147 3175 4147 
L 2747 4147 
Q 2572 4147 2515 4117 
Q 2459 4088 2413 3928 
L 1997 2272 
z
" transform="scale(0.015625)"/>
      </defs>
      <use xlink:href="#Cmmi10-52" transform="translate(0 0.6875)"/>
     </g>
    </g>
   </g>
   <g id="PathCollection_2">
    <path d="M 72.638054 323.816459 
C 73.575689 323.816459 74.475047 323.443933 75.138054 322.780926 
C 75.801062 322.117918 76.173588 321.21856 76.173588 320.280926 
C 76.173588 319.343291 75.801062 318.443933 75.138054 317.780926 
C 74.475047 317.117918 73.575689 316.745392 72.638054 316.745392 
C 71.70042 316.745392 70.801062 317.117918 70.138054 317.780926 
C 69.475047 318.443933 69.10252 319.343291 69.10252 320.280926 
C 69.10252 321.21856 69.475047 322.117918 70.138054 322.780926 
C 70.801062 323.443933 71.70042 323.816459 72.638054 323.816459 
z
" clip-path="url(#pa3d92e22ef)"/>
   </g>
  </g>
 </g>
 <defs>
  <clipPath id="pa3d92e22ef">
   <rect x="7.2" y="7.2" width="378.260438" height="324"/>
  </clipPath>
 </defs>
</svg>
