<?xml version="1.0" encoding="utf-8" standalone="no"?>
<!DOCTYPE svg PUBLIC "-//W3C//DTD SVG 1.1//EN"
  "http://www.w3.org/Graphics/SVG/1.1/DTD/svg11.dtd">
<svg xmlns:xlink="http://www.w3.org/1999/xlink" width="392.670851pt" height="338.4pt" viewBox="0 0 392.670851 338.4" xmlns="http://www.w3.org/2000/svg" version="1.1">
 <metadata>
  <rdf:RDF xmlns:dc="http://purl.org/dc/elements/1.1/" xmlns:cc="http://creativecommons.org/ns#" xmlns:rdf="http://www.w3.org/1999/02/22-rdf-syntax-ns#">
   <cc:Work>
    <dc:type rdf:resource="http://purl.org/dc/dcmitype/StillImage"/>
    <dc:date>2023-07-26T15:37:30.735806</dc:date>
    <dc:format>image/svg+xml</dc:format>
    <dc:creator>
     <cc:Agent>
      <dc:title>Matplotlib v3.6.2, https://matplotlib.org/</dc:title>
     </cc:Agent>
    </dc:creator>
   </cc:Work>
  </rdf:RDF>
 </metadata>
 <defs>
  <style type="text/css">*{stroke-linejoin: round; stroke-linecap: butt}</style>
 </defs>
 <g id="figure_1">
  <g id="patch_1">
   <path d="M 0 338.4 
L 392.670851 338.4 
L 392.670851 0 
L 0 0 
z
" style="fill: #ffffff"/>
  </g>
  <g id="axes_1">
   <g id="patch_2">
    <path d="M 7.2 331.2 
L 385.470851 331.2 
L 385.470851 7.2 
L 7.2 7.2 
z
" style="fill: #ffffff"/>
   </g>
   <g id="PathCollection_1">
    <path d="M 378.196411 246.766317 
C 379.134046 246.766317 380.033404 246.393791 380.696411 245.730783 
C 381.359419 245.067775 381.731945 244.168417 381.731945 243.230783 
C 381.731945 242.293148 381.359419 241.393791 380.696411 240.730783 
C 380.033404 240.067775 379.134046 239.695249 378.196411 239.695249 
C 377.258777 239.695249 376.359419 240.067775 375.696411 240.730783 
C 375.033404 241.393791 374.660878 242.293148 374.660878 243.230783 
C 374.660878 244.168417 375.033404 245.067775 375.696411 245.730783 
C 376.359419 246.393791 377.258777 246.766317 378.196411 246.766317 
z
" clip-path="url(#pb354dcc6e1)"/>
   </g>
   <g id="PathCollection_2">
    <path d="M 72.638061 323.812656 
C 73.575695 323.812656 74.475053 323.44013 75.138061 322.777122 
C 75.801068 322.114114 76.173595 321.214757 76.173595 320.277122 
C 76.173595 319.339487 75.801068 318.44013 75.138061 317.777122 
C 74.475053 317.114114 73.575695 316.741588 72.638061 316.741588 
C 71.700426 316.741588 70.801068 317.114114 70.138061 317.777122 
C 69.475053 318.44013 69.102527 319.339487 69.102527 320.277122 
C 69.102527 321.214757 69.475053 322.114114 70.138061 322.777122 
C 70.801068 323.44013 71.700426 323.812656 72.638061 323.812656 
z
" clip-path="url(#pb354dcc6e1)"/>
   </g>
   <g id="matplotlib.axis_1"/>
   <g id="matplotlib.axis_2"/>
   <g id="line2d_1">
    <path d="M 378.196411 243.230783 
L 352.271381 211.198237 
L 328.136159 181.447377 
L 313.522594 163.687249 
L 298.701327 146.013304 
L 285.316399 130.446846 
L 278.708133 122.929361 
L 270.671244 113.958111 
L 261.93832 104.446581 
L 252.135717 94.097587 
L 241.882891 83.687159 
L 233.621559 75.639579 
L 223.846349 66.54973 
L 217.573345 60.983835 
L 210.60453 55.064095 
L 206.943147 52.071025 
L 201.547344 47.814588 
L 195.903174 43.568167 
L 189.91416 39.304667 
L 186.500911 36.991589 
L 178.036534 31.641336 
L 172.434854 28.419171 
L 165.030526 24.575289 
L 159.606086 22.0764 
L 156.805041 20.896132 
L 151.11919 18.740966 
L 144.44566 16.642771 
L 138.514995 15.192427 
L 133.736032 14.323832 
L 129.780159 13.817553 
L 124.259369 13.44914 
L 118.735728 13.496194 
L 113.672676 13.926515 
L 110.33544 14.423515 
L 105.945067 15.348761 
L 103.69735 15.946698 
L 100.196026 17.05294 
L 95.532654 18.872221 
L 93.389342 19.847123 
L 89.11814 22.064232 
L 84.944442 24.602337 
L 80.457945 27.76832 
L 76.116807 31.295039 
L 72.434846 34.670253 
L 69.088451 38.065897 
L 65.049044 42.6127 
L 61.043154 47.646944 
L 56.654332 53.824183 
L 53.075397 59.429282 
L 50.024604 64.65425 
L 47.165203 69.963963 
L 43.493048 77.43775 
L 41.063736 82.836465 
L 38.103228 89.973603 
L 34.735873 98.954002 
L 31.401644 108.936719 
L 28.941816 117.158898 
L 26.056466 127.985173 
L 23.806197 137.5795 
L 22.194866 145.273828 
L 20.556726 154.043509 
L 18.808741 164.898117 
L 17.382018 175.561242 
L 16.34025 185.142314 
L 15.647553 193.089942 
L 14.92632 204.520079 
L 14.569354 214.460718 
L 14.474439 224.213577 
L 14.606841 232.595678 
L 15.00369 241.905794 
L 15.395764 247.718314 
L 16.26452 256.895014 
L 17.143993 263.805985 
L 18.301749 271.035804 
L 19.578682 277.516872 
L 21.035017 283.658689 
L 22.643217 289.357132 
L 23.936376 293.318915 
L 25.812977 298.303844 
L 27.538933 302.244197 
L 29.10293 305.376323 
L 30.254859 307.453095 
L 32.150149 310.498716 
L 33.947113 313.01051 
L 35.958659 315.44307 
L 38.308379 317.839221 
L 40.407898 319.621361 
L 42.227574 320.920302 
L 44.36153 322.179628 
L 45.47919 322.733757 
L 47.190661 323.451212 
L 49.422715 324.163865 
L 51.928351 324.686082 
L 54.20237 324.925549 
L 55.830338 324.969231 
L 58.861222 324.786088 
L 62.631942 324.115274 
L 66.692295 322.894996 
L 69.991882 321.557162 
L 72.638061 320.277122 
L 72.638061 320.277122 
" clip-path="url(#pb354dcc6e1)" style="fill: none; stroke: #000000; stroke-linecap: square"/>
   </g>
   <g id="patch_3">
    <path d="M 100.08629 17.091139 
Q 99.983896 17.127074 101.991409 16.422541 
" clip-path="url(#pb354dcc6e1)" style="fill: none; stroke: #000000; stroke-width: 2; stroke-linecap: round"/>
    <path d="M 113.082936 17.828963 
L 101.991409 16.422541 
L 109.771463 8.393172 
L 113.082936 17.828963 
z
" clip-path="url(#pb354dcc6e1)" style="stroke: #000000; stroke-width: 2; stroke-linecap: round"/>
   </g>
   <g id="text_1">
    <g clip-path="url(#pb354dcc6e1)">
     <!-- $P$ -->
     <g transform="translate(361.145159 272.444852) scale(0.25 -0.25)">
      <defs>
       <path id="Cmmi10-50" d="M 313 0 
Q 250 0 250 84 
Q 253 100 262 139 
Q 272 178 289 201 
Q 306 225 331 225 
Q 722 225 878 269 
Q 959 297 997 441 
L 1875 3956 
Q 1888 4019 1888 4044 
Q 1888 4113 1813 4122 
Q 1691 4147 1350 4147 
Q 1288 4147 1288 4231 
Q 1291 4247 1300 4286 
Q 1309 4325 1326 4348 
Q 1344 4372 1369 4372 
L 3578 4372 
Q 3881 4372 4165 4264 
Q 4450 4156 4631 3934 
Q 4813 3713 4813 3397 
Q 4813 2991 4527 2672 
Q 4241 2353 3814 2175 
Q 3388 1997 2988 1997 
L 1947 1997 
L 1556 416 
Q 1544 353 1544 325 
Q 1544 300 1551 283 
Q 1559 266 1573 261 
Q 1588 256 1619 250 
Q 1741 225 2081 225 
Q 2144 225 2144 141 
Q 2122 50 2109 25 
Q 2097 0 2034 0 
L 313 0 
z
M 1978 2188 
L 2875 2188 
Q 3497 2188 3822 2522 
Q 3988 2688 4092 3000 
Q 4197 3313 4197 3566 
Q 4197 3881 3956 4014 
Q 3716 4147 3359 4147 
L 2747 4147 
Q 2572 4147 2515 4117 
Q 2459 4088 2413 3928 
L 1978 2188 
z
" transform="scale(0.015625)"/>
      </defs>
      <use xlink:href="#Cmmi10-50" transform="translate(0 0.6875)"/>
     </g>
    </g>
   </g>
   <g id="text_2">
    <g clip-path="url(#pb354dcc6e1)">
     <!-- $Q$ -->
     <g transform="translate(84.953693 322.712433) scale(0.25 -0.25)">
      <defs>
       <path id="Cmmi10-51" d="M 1947 -141 
Q 1466 -141 1094 79 
Q 722 300 520 692 
Q 319 1084 319 1563 
Q 319 2259 714 2950 
Q 1109 3641 1756 4077 
Q 2403 4513 3109 4513 
Q 3475 4513 3778 4381 
Q 4081 4250 4290 4017 
Q 4500 3784 4614 3471 
Q 4728 3159 4728 2791 
Q 4728 2366 4581 1936 
Q 4434 1506 4171 1136 
Q 3909 766 3559 484 
Q 3209 203 2809 38 
Q 2850 -256 2934 -425 
Q 3019 -594 3256 -594 
Q 3506 -594 3726 -412 
Q 3947 -231 4006 13 
Q 4019 72 4078 72 
Q 4147 72 4147 -13 
Q 4100 -219 4008 -430 
Q 3916 -641 3786 -823 
Q 3656 -1006 3478 -1123 
Q 3300 -1241 3084 -1241 
Q 2547 -1241 2547 -550 
Q 2547 -509 2562 -332 
Q 2578 -156 2578 -44 
Q 2269 -141 1947 -141 
z
M 1709 300 
Q 1709 44 1991 44 
Q 2275 44 2591 184 
L 2591 244 
Q 2591 503 2509 648 
Q 2428 794 2194 794 
Q 2078 794 1964 723 
Q 1850 653 1779 539 
Q 1709 425 1709 300 
z
M 1544 288 
Q 1544 456 1637 612 
Q 1731 769 1881 864 
Q 2031 959 2203 959 
Q 2481 959 2607 771 
Q 2734 584 2778 281 
Q 3188 525 3500 978 
Q 3813 1431 3977 1973 
Q 4141 2516 4141 3003 
Q 4141 3356 4023 3656 
Q 3906 3956 3664 4140 
Q 3422 4325 3066 4325 
Q 2722 4325 2403 4156 
Q 2084 3988 1813 3706 
Q 1550 3434 1342 3032 
Q 1134 2631 1021 2193 
Q 909 1756 909 1356 
Q 909 947 1068 612 
Q 1228 278 1569 128 
Q 1544 194 1544 288 
z
" transform="scale(0.015625)"/>
      </defs>
      <use xlink:href="#Cmmi10-51" transform="translate(0 0.484375)"/>
     </g>
    </g>
   </g>
  </g>
 </g>
 <defs>
  <clipPath id="pb354dcc6e1">
   <rect x="7.2" y="7.2" width="378.270851" height="324"/>
  </clipPath>
 </defs>
</svg>
