<?xml version="1.0" encoding="utf-8" standalone="no"?>
<!DOCTYPE svg PUBLIC "-//W3C//DTD SVG 1.1//EN"
  "http://www.w3.org/Graphics/SVG/1.1/DTD/svg11.dtd">
<svg xmlns:xlink="http://www.w3.org/1999/xlink" width="392.66281pt" height="338.4pt" viewBox="0 0 392.66281 338.4" xmlns="http://www.w3.org/2000/svg" version="1.1">
 <metadata>
  <rdf:RDF xmlns:dc="http://purl.org/dc/elements/1.1/" xmlns:cc="http://creativecommons.org/ns#" xmlns:rdf="http://www.w3.org/1999/02/22-rdf-syntax-ns#">
   <cc:Work>
    <dc:type rdf:resource="http://purl.org/dc/dcmitype/StillImage"/>
    <dc:date>2024-11-20T07:36:46.309419</dc:date>
    <dc:format>image/svg+xml</dc:format>
    <dc:creator>
     <cc:Agent>
      <dc:title>Matplotlib v3.6.2, https://matplotlib.org/</dc:title>
     </cc:Agent>
    </dc:creator>
   </cc:Work>
  </rdf:RDF>
 </metadata>
 <defs>
  <style type="text/css">*{stroke-linejoin: round; stroke-linecap: butt}</style>
 </defs>
 <g id="figure_1">
  <g id="patch_1">
   <path d="M 0 338.4 
L 392.66281 338.4 
L 392.66281 0 
L 0 0 
z
" style="fill: #ffffff"/>
  </g>
  <g id="axes_1">
   <g id="patch_2">
    <path d="M 7.2 331.2 
L 385.46281 331.2 
L 385.46281 7.2 
L 7.2 7.2 
z
" style="fill: #ffffff"/>
   </g>
   <g id="PathCollection_1">
    <path d="M 378.188526 246.774612 
C 379.12616 246.774612 380.025518 246.402086 380.688526 245.739078 
C 381.351533 245.07607 381.72406 244.176713 381.72406 243.239078 
C 381.72406 242.301443 381.351533 241.402086 380.688526 240.739078 
C 380.025518 240.07607 379.12616 239.703544 378.188526 239.703544 
C 377.250891 239.703544 376.351533 240.07607 375.688526 240.739078 
C 375.025518 241.402086 374.652992 242.301443 374.652992 243.239078 
C 374.652992 244.176713 375.025518 245.07607 375.688526 245.739078 
C 376.351533 246.402086 377.250891 246.774612 378.188526 246.774612 
z
" clip-path="url(#pa26c5d969d)"/>
   </g>
   <g id="PathCollection_2">
    <path d="M 137.723413 100.668263 
C 138.661048 100.668263 139.560405 100.295737 140.223413 99.632729 
C 140.886421 98.969721 141.258947 98.070364 141.258947 97.132729 
C 141.258947 96.195095 140.886421 95.295737 140.223413 94.632729 
C 139.560405 93.969721 138.661048 93.597195 137.723413 93.597195 
C 136.785779 93.597195 135.886421 93.969721 135.223413 94.632729 
C 134.560405 95.295737 134.187879 96.195095 134.187879 97.132729 
C 134.187879 98.070364 134.560405 98.969721 135.223413 99.632729 
C 135.886421 100.295737 136.785779 100.668263 137.723413 100.668263 
z
" clip-path="url(#pa26c5d969d)"/>
   </g>
   <g id="matplotlib.axis_1"/>
   <g id="matplotlib.axis_2"/>
   <g id="line2d_1">
    <path d="M 378.188526 243.239078 
L 316.441694 167.230009 
L 298.828503 146.180842 
L 287.531862 133.010919 
L 275.013052 118.797546 
L 266.214092 109.088305 
L 258.021867 100.285213 
L 246.827932 88.669244 
L 237.975319 79.857559 
L 228.770391 71.083836 
L 218.444047 61.759515 
L 208.948566 53.716152 
L 203.883544 49.650327 
L 196.059936 43.698891 
L 194.539094 42.590374 
L 186.97253 37.321519 
L 183.094877 34.786612 
L 176.433537 30.707827 
L 170.580471 27.426238 
L 167.704025 25.922022 
L 160.036427 22.279348 
L 154.312197 19.925628 
L 149.808045 18.305786 
L 145.560706 16.974302 
L 139.307008 15.377074 
L 133.541217 14.308571 
L 129.579888 13.811373 
L 124.738111 13.479057 
L 119.697775 13.47096 
L 118.036567 13.546992 
L 112.982178 14.02895 
L 110.10185 14.478629 
L 104.896827 15.630573 
L 101.934899 16.490084 
L 97.348832 18.128921 
L 91.548633 20.770392 
L 89.768359 21.715892 
L 86.727162 23.485145 
L 82.332545 26.401619 
L 80.449535 27.787985 
L 77.771451 29.908114 
L 72.706736 34.42159 
L 68.110396 39.133679 
L 64.632816 43.12378 
L 61.351607 47.252762 
L 58.98681 50.463865 
L 54.642723 56.921288 
L 52.015979 61.208071 
L 47.80333 68.75557 
L 44.970052 74.350773 
L 42.033456 80.648268 
L 39.270876 87.093993 
L 37.317804 91.994224 
L 34.382213 99.971111 
L 31.549881 108.480312 
L 29.718156 114.488789 
L 26.99289 124.325629 
L 24.834602 133.063249 
L 22.778402 142.40971 
L 21.185249 150.562322 
L 19.799035 158.536869 
L 18.149016 169.585717 
L 17.1885 177.213263 
L 15.946478 189.461011 
L 15.280783 198.287682 
L 14.710692 209.674555 
L 14.495789 218.84955 
L 14.525322 228.964076 
L 14.771132 237.234319 
L 15.293201 246.346147 
L 16.070802 255.114552 
L 17.127637 263.69116 
L 18.234671 270.659715 
L 19.711435 278.127493 
L 21.121519 283.994446 
L 22.397114 288.549492 
L 24.667234 295.362414 
L 26.394959 299.699749 
L 28.4961 304.211338 
L 30.078811 307.152758 
L 32.520556 311.050312 
L 34.90237 314.218394 
L 36.777054 316.334915 
L 38.485128 318.00764 
L 41.77195 320.621329 
L 43.961095 321.970001 
L 45.974424 322.963463 
L 48.549131 323.920054 
L 51.265149 324.581325 
L 53.640645 324.892441 
L 56.634667 324.959626 
L 58.841086 324.794663 
L 62.694065 324.106638 
L 66.612662 322.929836 
L 70.221559 321.459415 
L 72.637771 320.283502 
L 72.637771 320.283502 
" clip-path="url(#pa26c5d969d)" style="fill: none; stroke: #000000; stroke-linecap: square"/>
   </g>
   <g id="line2d_2">
    <path d="M 72.637771 320.283502 
L 77.642695 315.678085 
L 82.767489 310.595168 
L 86.960309 306.103632 
L 91.322565 301.042066 
L 94.823884 296.629832 
L 98.169865 292.055111 
L 101.312631 287.364352 
L 103.54248 283.751429 
L 106.292885 278.888834 
L 108.788128 273.986097 
L 110.73138 269.748536 
L 112.902416 264.438401 
L 114.666494 259.519967 
L 116.308661 254.256875 
L 117.720689 248.970178 
L 119.052026 243.001406 
L 120.140439 236.96917 
L 121.052865 230.490786 
L 121.773225 223.553919 
L 122.300918 216.052343 
L 122.652551 207.408096 
L 122.818853 197.39296 
L 123.123786 162.732202 
L 123.561066 153.949325 
L 124.155961 146.689242 
L 124.947219 139.913134 
L 125.988604 133.236842 
L 127.072505 127.717196 
L 128.432124 121.999614 
L 129.836821 116.999716 
L 131.664447 111.413637 
L 133.455765 106.6459 
L 135.593495 101.613757 
L 137.723413 97.132729 
L 137.723413 97.132729 
" clip-path="url(#pa26c5d969d)" style="fill: none; stroke: #000000; stroke-linecap: square"/>
   </g>
   <g id="patch_3">
    <path d="M 100.085318 17.105056 
Q 99.982926 17.14099 101.990442 16.436456 
" clip-path="url(#pa26c5d969d)" style="fill: none; stroke: #000000; stroke-width: 2; stroke-linecap: round"/>
    <path d="M 113.081969 17.842878 
L 101.990442 16.436456 
L 109.770496 8.407088 
L 113.081969 17.842878 
z
" clip-path="url(#pa26c5d969d)" style="stroke: #000000; stroke-width: 2; stroke-linecap: round"/>
   </g>
   <g id="patch_4">
    <path d="M 122.846695 186.393038 
Q 122.846702 185.946737 122.846673 187.736503 
" clip-path="url(#pa26c5d969d)" style="fill: none; stroke: #000000; stroke-width: 2; stroke-linecap: round"/>
    <path d="M 117.846506 197.73642 
L 122.846673 187.736503 
L 127.846506 197.736586 
L 117.846506 197.73642 
z
" clip-path="url(#pa26c5d969d)" style="stroke: #000000; stroke-width: 2; stroke-linecap: round"/>
   </g>
   <g id="text_1">
    <g clip-path="url(#pa26c5d969d)">
     <!-- $P$ -->
     <g transform="translate(361.137495 272.452593) scale(0.25 -0.25)">
      <defs>
       <path id="Cmmi10-50" d="M 313 0 
Q 250 0 250 84 
Q 253 100 262 139 
Q 272 178 289 201 
Q 306 225 331 225 
Q 722 225 878 269 
Q 959 297 997 441 
L 1875 3956 
Q 1888 4019 1888 4044 
Q 1888 4113 1813 4122 
Q 1691 4147 1350 4147 
Q 1288 4147 1288 4231 
Q 1291 4247 1300 4286 
Q 1309 4325 1326 4348 
Q 1344 4372 1369 4372 
L 3578 4372 
Q 3881 4372 4165 4264 
Q 4450 4156 4631 3934 
Q 4813 3713 4813 3397 
Q 4813 2991 4527 2672 
Q 4241 2353 3814 2175 
Q 3388 1997 2988 1997 
L 1947 1997 
L 1556 416 
Q 1544 353 1544 325 
Q 1544 300 1551 283 
Q 1559 266 1573 261 
Q 1588 256 1619 250 
Q 1741 225 2081 225 
Q 2144 225 2144 141 
Q 2122 50 2109 25 
Q 2097 0 2034 0 
L 313 0 
z
M 1978 2188 
L 2875 2188 
Q 3497 2188 3822 2522 
Q 3988 2688 4092 3000 
Q 4197 3313 4197 3566 
Q 4197 3881 3956 4014 
Q 3716 4147 3359 4147 
L 2747 4147 
Q 2572 4147 2515 4117 
Q 2459 4088 2413 3928 
L 1978 2188 
z
" transform="scale(0.015625)"/>
      </defs>
      <use xlink:href="#Cmmi10-50" transform="translate(0 0.6875)"/>
     </g>
    </g>
   </g>
   <g id="text_2">
    <g clip-path="url(#pa26c5d969d)">
     <!-- $R$ -->
     <g transform="translate(150.53849 81.716089) scale(0.25 -0.25)">
      <defs>
       <path id="Cmmi10-52" d="M 313 0 
Q 250 0 250 84 
Q 253 100 262 139 
Q 272 178 289 201 
Q 306 225 331 225 
Q 722 225 878 269 
Q 959 297 997 441 
L 1875 3956 
Q 1888 4019 1888 4044 
Q 1888 4113 1813 4122 
Q 1691 4147 1350 4147 
Q 1288 4147 1288 4231 
Q 1291 4247 1300 4286 
Q 1309 4325 1326 4348 
Q 1344 4372 1369 4372 
L 3309 4372 
Q 3541 4372 3791 4319 
Q 4041 4266 4250 4152 
Q 4459 4038 4593 3848 
Q 4728 3659 4728 3406 
Q 4728 3084 4515 2831 
Q 4303 2578 3978 2408 
Q 3653 2238 3347 2169 
Q 3597 2078 3756 1879 
Q 3916 1681 3916 1422 
Q 3916 1388 3914 1370 
Q 3913 1353 3909 1331 
L 3859 763 
Q 3853 638 3847 550 
Q 3841 463 3841 409 
Q 3841 234 3892 129 
Q 3944 25 4097 25 
Q 4297 25 4448 211 
Q 4600 397 4647 616 
Q 4675 672 4709 672 
L 4769 672 
Q 4831 672 4831 588 
Q 4784 403 4682 237 
Q 4581 72 4426 -34 
Q 4272 -141 4091 -141 
Q 3716 -141 3452 26 
Q 3188 194 3188 550 
Q 3188 684 3213 788 
L 3353 1356 
Q 3378 1434 3378 1538 
Q 3378 1803 3198 1954 
Q 3019 2106 2747 2106 
L 1959 2106 
L 1538 416 
Q 1522 363 1522 325 
Q 1522 259 1600 250 
Q 1722 225 2059 225 
Q 2125 225 2125 141 
Q 2103 50 2090 25 
Q 2078 0 2016 0 
L 313 0 
z
M 1997 2272 
L 2706 2272 
Q 3403 2272 3756 2625 
Q 3919 2788 4014 3039 
Q 4109 3291 4109 3541 
Q 4109 3778 3970 3912 
Q 3831 4047 3626 4097 
Q 3422 4147 3175 4147 
L 2747 4147 
Q 2572 4147 2515 4117 
Q 2459 4088 2413 3928 
L 1997 2272 
z
" transform="scale(0.015625)"/>
      </defs>
      <use xlink:href="#Cmmi10-52" transform="translate(0 0.6875)"/>
     </g>
    </g>
   </g>
  </g>
 </g>
 <defs>
  <clipPath id="pa26c5d969d">
   <rect x="7.2" y="7.2" width="378.26281" height="324"/>
  </clipPath>
 </defs>
</svg>
