<?xml version="1.0" encoding="utf-8" standalone="no"?>
<!DOCTYPE svg PUBLIC "-//W3C//DTD SVG 1.1//EN"
  "http://www.w3.org/Graphics/SVG/1.1/DTD/svg11.dtd">
<svg xmlns:xlink="http://www.w3.org/1999/xlink" width="392.677297pt" height="338.4pt" viewBox="0 0 392.677297 338.4" xmlns="http://www.w3.org/2000/svg" version="1.1">
 <metadata>
  <rdf:RDF xmlns:dc="http://purl.org/dc/elements/1.1/" xmlns:cc="http://creativecommons.org/ns#" xmlns:rdf="http://www.w3.org/1999/02/22-rdf-syntax-ns#">
   <cc:Work>
    <dc:type rdf:resource="http://purl.org/dc/dcmitype/StillImage"/>
    <dc:date>2024-08-19T12:04:25.717283</dc:date>
    <dc:format>image/svg+xml</dc:format>
    <dc:creator>
     <cc:Agent>
      <dc:title>Matplotlib v3.8.0, https://matplotlib.org/</dc:title>
     </cc:Agent>
    </dc:creator>
   </cc:Work>
  </rdf:RDF>
 </metadata>
 <defs>
  <style type="text/css">*{stroke-linejoin: round; stroke-linecap: butt}</style>
 </defs>
 <g id="figure_1">
  <g id="patch_1">
   <path d="M 0 338.4 
L 392.677297 338.4 
L 392.677297 0 
L 0 0 
z
" style="fill: #ffffff"/>
  </g>
  <g id="axes_1">
   <g id="patch_2">
    <path d="M 7.2 331.2 
L 385.477297 331.2 
L 385.477297 7.2 
L 7.2 7.2 
z
" style="fill: #ffffff"/>
   </g>
   <g id="PathCollection_1">
    <path d="M 378.202733 246.779559 
C 379.140368 246.779559 380.039725 246.407032 380.702733 245.744025 
C 381.365741 245.081017 381.738267 244.181659 381.738267 243.244025 
C 381.738267 242.30639 381.365741 241.407032 380.702733 240.744025 
C 380.039725 240.081017 379.140368 239.708491 378.202733 239.708491 
C 377.265099 239.708491 376.365741 240.081017 375.702733 240.744025 
C 375.039725 241.407032 374.667199 242.30639 374.667199 243.244025 
C 374.667199 244.181659 375.039725 245.081017 375.702733 245.744025 
C 376.365741 246.407032 377.265099 246.779559 378.202733 246.779559 
z
" clip-path="url(#p7a7fe0afd3)"/>
   </g>
   <g id="PathCollection_2">
    <path d="M 72.641243 323.826689 
C 73.578878 323.826689 74.478235 323.454163 75.141243 322.791155 
C 75.804251 322.128148 76.176777 321.22879 76.176777 320.291155 
C 76.176777 319.353521 75.804251 318.454163 75.141243 317.791155 
C 74.478235 317.128148 73.578878 316.755621 72.641243 316.755621 
C 71.703608 316.755621 70.804251 317.128148 70.141243 317.791155 
C 69.478235 318.454163 69.105709 319.353521 69.105709 320.291155 
C 69.105709 321.22879 69.478235 322.128148 70.141243 322.791155 
C 70.804251 323.454163 71.703608 323.826689 72.641243 323.826689 
z
" clip-path="url(#p7a7fe0afd3)"/>
   </g>
   <g id="matplotlib.axis_1"/>
   <g id="matplotlib.axis_2"/>
   <g id="line2d_1">
    <path d="M 378.202733 243.244025 
L 348.429935 206.449947 
L 323.804149 176.160475 
L 307.406767 156.351769 
L 293.649585 140.094663 
L 281.941843 126.598902 
L 270.095119 113.328911 
L 259.804415 102.169306 
L 248.152444 90.006829 
L 240.35899 82.185622 
L 231.415964 73.553203 
L 221.943589 64.845735 
L 211.618089 55.914639 
L 208.380249 53.243478 
L 200.188938 46.780749 
L 193.611071 41.914268 
L 187.180634 37.453491 
L 179.02418 32.244827 
L 173.519957 29.031418 
L 166.023929 25.071492 
L 163.128883 23.676918 
L 156.70131 20.863212 
L 151.460795 18.870637 
L 145.203964 16.866649 
L 141.76684 15.947864 
L 134.781113 14.50042 
L 129.159035 13.766651 
L 125.251379 13.496157 
L 120.984158 13.436208 
L 118.054269 13.54314 
L 112.335539 14.116194 
L 106.957771 15.118946 
L 105.558033 15.457399 
L 100.244381 17.048295 
L 97.067845 18.240717 
L 92.503527 20.289099 
L 89.883645 21.652071 
L 84.821197 24.696281 
L 80.650573 27.63613 
L 76.047467 31.369122 
L 73.17745 33.973974 
L 69.28594 37.870898 
L 65.424606 42.183104 
L 62.290374 46.035714 
L 58.479579 51.18204 
L 54.516205 57.123766 
L 51.897162 61.412476 
L 49.183733 66.189249 
L 45.84667 72.575684 
L 42.735312 79.0983 
L 39.686416 86.094486 
L 37.670025 91.093258 
L 35.442062 97.005971 
L 32.657896 105.05284 
L 29.834432 114.101218 
L 27.219585 123.468589 
L 25.345034 130.916998 
L 23.083094 140.959281 
L 21.259621 150.17075 
L 19.869685 158.117815 
L 18.525569 166.886165 
L 17.043261 178.493087 
L 15.805612 191.153562 
L 15.071224 201.805377 
L 14.657338 211.320462 
L 14.485488 220.09347 
L 14.534211 229.384273 
L 14.869642 239.358549 
L 15.322403 246.729441 
L 15.985038 254.27849 
L 16.92258 262.206373 
L 18.067534 269.696039 
L 18.923527 274.347293 
L 20.135223 279.998137 
L 21.633836 285.898883 
L 23.392954 291.7184 
L 24.308831 294.38088 
L 26.215584 299.280648 
L 28.711962 304.637286 
L 30.960501 308.647675 
L 33.078287 311.848703 
L 35.283212 314.678586 
L 37.943425 317.507442 
L 38.731764 318.235993 
L 41.958999 320.75421 
L 44.259585 322.138093 
L 46.833368 323.327022 
L 47.149435 323.448692 
L 49.397262 324.170381 
L 51.800112 324.679717 
L 54.631365 324.961066 
L 57.858447 324.897728 
L 61.409973 324.398405 
L 65.426125 323.342923 
L 68.090863 322.379492 
L 72.641243 320.291155 
L 72.641243 320.291155 
" clip-path="url(#p7a7fe0afd3)" style="fill: none; stroke: #000000; stroke-linecap: square"/>
   </g>
   <g id="patch_3">
    <path d="M 99.884964 17.173928 
Q 99.987359 17.137993 97.979847 17.842526 
" clip-path="url(#p7a7fe0afd3)" style="fill: none; stroke: #000000; stroke-width: 2; stroke-linecap: round"/>
    <path d="M 86.88832 16.436104 
L 97.979847 17.842526 
L 90.199793 25.871894 
z
" clip-path="url(#p7a7fe0afd3)" style="stroke: #000000; stroke-width: 2; stroke-linecap: round"/>
   </g>
   <g id="text_1">
    <g clip-path="url(#p7a7fe0afd3)">
     <!-- $P$ -->
     <g transform="translate(361.151389 272.458323) scale(0.25 -0.25)">
      <defs>
       <path id="Cmmi10-50" d="M 313 0 
Q 250 0 250 84 
Q 253 100 262 139 
Q 272 178 289 201 
Q 306 225 331 225 
Q 722 225 878 269 
Q 959 297 997 441 
L 1875 3956 
Q 1888 4019 1888 4044 
Q 1888 4113 1813 4122 
Q 1691 4147 1350 4147 
Q 1288 4147 1288 4231 
Q 1291 4247 1300 4286 
Q 1309 4325 1326 4348 
Q 1344 4372 1369 4372 
L 3578 4372 
Q 3881 4372 4165 4264 
Q 4450 4156 4631 3934 
Q 4813 3713 4813 3397 
Q 4813 2991 4527 2672 
Q 4241 2353 3814 2175 
Q 3388 1997 2988 1997 
L 1947 1997 
L 1556 416 
Q 1544 353 1544 325 
Q 1544 300 1551 283 
Q 1559 266 1573 261 
Q 1588 256 1619 250 
Q 1741 225 2081 225 
Q 2144 225 2144 141 
Q 2122 50 2109 25 
Q 2097 0 2034 0 
L 313 0 
z
M 1978 2188 
L 2875 2188 
Q 3497 2188 3822 2522 
Q 3988 2688 4092 3000 
Q 4197 3313 4197 3566 
Q 4197 3881 3956 4014 
Q 3716 4147 3359 4147 
L 2747 4147 
Q 2572 4147 2515 4117 
Q 2459 4088 2413 3928 
L 1978 2188 
z
" transform="scale(0.015625)"/>
      </defs>
      <use xlink:href="#Cmmi10-50" transform="translate(0 0.6875)"/>
     </g>
    </g>
   </g>
   <g id="text_2">
    <g clip-path="url(#p7a7fe0afd3)">
     <!-- $Q$ -->
     <g transform="translate(84.957104 322.726421) scale(0.25 -0.25)">
      <defs>
       <path id="Cmmi10-51" d="M 1947 -141 
Q 1466 -141 1094 79 
Q 722 300 520 692 
Q 319 1084 319 1563 
Q 319 2259 714 2950 
Q 1109 3641 1756 4077 
Q 2403 4513 3109 4513 
Q 3475 4513 3778 4381 
Q 4081 4250 4290 4017 
Q 4500 3784 4614 3471 
Q 4728 3159 4728 2791 
Q 4728 2366 4581 1936 
Q 4434 1506 4171 1136 
Q 3909 766 3559 484 
Q 3209 203 2809 38 
Q 2850 -256 2934 -425 
Q 3019 -594 3256 -594 
Q 3506 -594 3726 -412 
Q 3947 -231 4006 13 
Q 4019 72 4078 72 
Q 4147 72 4147 -13 
Q 4100 -219 4008 -430 
Q 3916 -641 3786 -823 
Q 3656 -1006 3478 -1123 
Q 3300 -1241 3084 -1241 
Q 2547 -1241 2547 -550 
Q 2547 -509 2562 -332 
Q 2578 -156 2578 -44 
Q 2269 -141 1947 -141 
z
M 1709 300 
Q 1709 44 1991 44 
Q 2275 44 2591 184 
L 2591 244 
Q 2591 503 2509 648 
Q 2428 794 2194 794 
Q 2078 794 1964 723 
Q 1850 653 1779 539 
Q 1709 425 1709 300 
z
M 1544 288 
Q 1544 456 1637 612 
Q 1731 769 1881 864 
Q 2031 959 2203 959 
Q 2481 959 2607 771 
Q 2734 584 2778 281 
Q 3188 525 3500 978 
Q 3813 1431 3977 1973 
Q 4141 2516 4141 3003 
Q 4141 3356 4023 3656 
Q 3906 3956 3664 4140 
Q 3422 4325 3066 4325 
Q 2722 4325 2403 4156 
Q 2084 3988 1813 3706 
Q 1550 3434 1342 3032 
Q 1134 2631 1021 2193 
Q 909 1756 909 1356 
Q 909 947 1068 612 
Q 1228 278 1569 128 
Q 1544 194 1544 288 
z
" transform="scale(0.015625)"/>
      </defs>
      <use xlink:href="#Cmmi10-51" transform="translate(0 0.484375)"/>
     </g>
    </g>
   </g>
  </g>
 </g>
 <defs>
  <clipPath id="p7a7fe0afd3">
   <rect x="7.2" y="7.2" width="378.277297" height="324"/>
  </clipPath>
 </defs>
</svg>
