<?xml version="1.0" encoding="utf-8" standalone="no"?>
<!DOCTYPE svg PUBLIC "-//W3C//DTD SVG 1.1//EN"
  "http://www.w3.org/Graphics/SVG/1.1/DTD/svg11.dtd">
<svg xmlns:xlink="http://www.w3.org/1999/xlink" width="392.68794pt" height="338.4pt" viewBox="0 0 392.68794 338.4" xmlns="http://www.w3.org/2000/svg" version="1.1">
 <metadata>
  <rdf:RDF xmlns:dc="http://purl.org/dc/elements/1.1/" xmlns:cc="http://creativecommons.org/ns#" xmlns:rdf="http://www.w3.org/1999/02/22-rdf-syntax-ns#">
   <cc:Work>
    <dc:type rdf:resource="http://purl.org/dc/dcmitype/StillImage"/>
    <dc:date>2023-08-04T14:52:21.359964</dc:date>
    <dc:format>image/svg+xml</dc:format>
    <dc:creator>
     <cc:Agent>
      <dc:title>Matplotlib v3.6.2, https://matplotlib.org/</dc:title>
     </cc:Agent>
    </dc:creator>
   </cc:Work>
  </rdf:RDF>
 </metadata>
 <defs>
  <style type="text/css">*{stroke-linejoin: round; stroke-linecap: butt}</style>
 </defs>
 <g id="figure_1">
  <g id="patch_1">
   <path d="M 0 338.4 
L 392.68794 338.4 
L 392.68794 0 
L 0 0 
z
" style="fill: #ffffff"/>
  </g>
  <g id="axes_1">
   <g id="patch_2">
    <path d="M 7.2 331.2 
L 385.48794 331.2 
L 385.48794 7.2 
L 7.2 7.2 
z
" style="fill: #ffffff"/>
   </g>
   <g id="PathCollection_1">
    <path d="M 378.213172 246.766086 
C 379.150806 246.766086 380.050164 246.39356 380.713172 245.730553 
C 381.376179 245.067545 381.748706 244.168187 381.748706 243.230553 
C 381.748706 242.292918 381.376179 241.39356 380.713172 240.730553 
C 380.050164 240.067545 379.150806 239.695019 378.213172 239.695019 
C 377.275537 239.695019 376.376179 240.067545 375.713172 240.730553 
C 375.050164 241.39356 374.677638 242.292918 374.677638 243.230553 
C 374.677638 244.168187 375.050164 245.067545 375.713172 245.730553 
C 376.376179 246.39356 377.275537 246.766086 378.213172 246.766086 
z
" clip-path="url(#pf118e91b05)"/>
   </g>
   <g id="PathCollection_2">
    <path d="M 72.642537 323.815523 
C 73.580171 323.815523 74.479529 323.442997 75.142537 322.779989 
C 75.805544 322.116981 76.178071 321.217624 76.178071 320.279989 
C 76.178071 319.342355 75.805544 318.442997 75.142537 317.779989 
C 74.479529 317.116981 73.580171 316.744455 72.642537 316.744455 
C 71.704902 316.744455 70.805544 317.116981 70.142537 317.779989 
C 69.479529 318.442997 69.107003 319.342355 69.107003 320.279989 
C 69.107003 321.217624 69.479529 322.116981 70.142537 322.779989 
C 70.805544 323.442997 71.704902 323.815523 72.642537 323.815523 
z
" clip-path="url(#pf118e91b05)"/>
   </g>
   <g id="matplotlib.axis_1"/>
   <g id="matplotlib.axis_2"/>
   <g id="line2d_1">
    <path d="M 378.213172 243.230553 
L 351.392603 210.089542 
L 324.764142 177.305277 
L 308.538649 157.679623 
L 294.098326 140.592819 
L 280.316661 124.728489 
L 269.972486 113.168515 
L 258.753507 101.025799 
L 249.167172 91.019621 
L 244.615812 86.400072 
L 233.624324 75.624801 
L 226.458848 68.913765 
L 217.307382 60.736212 
L 209.795095 54.379241 
L 200.609543 47.078686 
L 197.213018 44.519059 
L 188.280988 38.172423 
L 182.841014 34.595 
L 176.757958 30.869019 
L 170.45903 27.33274 
L 166.203946 25.138712 
L 161.318054 22.822384 
L 156.822053 20.890694 
L 151.562269 18.885073 
L 144.124623 16.542695 
L 140.055442 15.519284 
L 134.617816 14.452722 
L 130.262996 13.858541 
L 123.944086 13.430769 
L 119.014714 13.474267 
L 114.910648 13.777075 
L 112.560758 14.064236 
L 107.064671 15.074672 
L 101.987136 16.452424 
L 96.883798 18.296174 
L 94.001798 19.552623 
L 89.828746 21.663032 
L 85.426431 24.283886 
L 81.652674 26.873757 
L 79.608542 28.416272 
L 77.075864 30.470048 
L 73.023955 34.101082 
L 69.139763 38.007487 
L 65.224016 42.401715 
L 61.215907 47.415592 
L 57.757712 52.199737 
L 53.990438 57.94274 
L 50.767143 63.341164 
L 47.048681 70.188885 
L 43.482371 77.460838 
L 41.153969 82.629593 
L 38.000349 90.235068 
L 35.477144 96.892094 
L 32.717596 104.854477 
L 30.305189 112.504996 
L 28.006669 120.517497 
L 26.005953 128.193829 
L 23.965237 136.867937 
L 22.185339 145.329963 
L 20.346881 155.262933 
L 18.819345 164.838419 
L 17.494333 174.653635 
L 16.313724 185.437322 
L 15.491515 195.205039 
L 14.964164 203.799231 
L 14.57916 214.131172 
L 14.474768 223.571187 
L 14.600431 232.28604 
L 14.89108 239.783293 
L 15.46397 248.553396 
L 16.214176 256.424427 
L 16.994166 262.720976 
L 17.848559 268.382503 
L 19.291916 276.155529 
L 20.779183 282.64845 
L 21.910543 286.873129 
L 23.771579 292.834731 
L 25.011017 296.267587 
L 27.606038 302.38312 
L 28.7684 304.735035 
L 30.091416 307.166929 
L 32.195562 310.564713 
L 34.341755 313.516677 
L 34.904102 314.213786 
L 37.549953 317.114334 
L 39.813109 319.148806 
L 42.454221 321.067966 
L 44.483894 322.244922 
L 47.862687 323.693357 
L 49.51678 324.190729 
L 51.588702 324.634065 
L 54.452221 324.941865 
L 57.500889 324.912777 
L 60.489297 324.557828 
L 62.289039 324.199345 
L 65.369773 323.350377 
L 69.362459 321.839862 
L 72.642537 320.279989 
L 72.642537 320.279989 
" clip-path="url(#pf118e91b05)" style="fill: none; stroke: #000000; stroke-linecap: square"/>
   </g>
   <g id="patch_3">
    <path d="M 100.091869 17.081818 
Q 99.989471 17.117754 101.99698 16.413222 
" clip-path="url(#pf118e91b05)" style="fill: none; stroke: #000000; stroke-width: 2; stroke-linecap: round"/>
    <path d="M 113.088508 17.819644 
L 101.99698 16.413222 
L 109.777034 8.383854 
L 113.088508 17.819644 
z
" clip-path="url(#pf118e91b05)" style="stroke: #000000; stroke-width: 2; stroke-linecap: round"/>
   </g>
   <g id="text_1">
    <g clip-path="url(#pf118e91b05)">
     <!-- $P$ -->
     <g transform="translate(361.16156 272.445519) scale(0.25 -0.25)">
      <defs>
       <path id="Cmmi10-50" d="M 313 0 
Q 250 0 250 84 
Q 253 100 262 139 
Q 272 178 289 201 
Q 306 225 331 225 
Q 722 225 878 269 
Q 959 297 997 441 
L 1875 3956 
Q 1888 4019 1888 4044 
Q 1888 4113 1813 4122 
Q 1691 4147 1350 4147 
Q 1288 4147 1288 4231 
Q 1291 4247 1300 4286 
Q 1309 4325 1326 4348 
Q 1344 4372 1369 4372 
L 3578 4372 
Q 3881 4372 4165 4264 
Q 4450 4156 4631 3934 
Q 4813 3713 4813 3397 
Q 4813 2991 4527 2672 
Q 4241 2353 3814 2175 
Q 3388 1997 2988 1997 
L 1947 1997 
L 1556 416 
Q 1544 353 1544 325 
Q 1544 300 1551 283 
Q 1559 266 1573 261 
Q 1588 256 1619 250 
Q 1741 225 2081 225 
Q 2144 225 2144 141 
Q 2122 50 2109 25 
Q 2097 0 2034 0 
L 313 0 
z
M 1978 2188 
L 2875 2188 
Q 3497 2188 3822 2522 
Q 3988 2688 4092 3000 
Q 4197 3313 4197 3566 
Q 4197 3881 3956 4014 
Q 3716 4147 3359 4147 
L 2747 4147 
Q 2572 4147 2515 4117 
Q 2459 4088 2413 3928 
L 1978 2188 
z
" transform="scale(0.015625)"/>
      </defs>
      <use xlink:href="#Cmmi10-50" transform="translate(0 0.6875)"/>
     </g>
    </g>
   </g>
   <g id="text_2">
    <g clip-path="url(#pf118e91b05)">
     <!-- $Q$ -->
     <g transform="translate(84.959066 322.715121) scale(0.25 -0.25)">
      <defs>
       <path id="Cmmi10-51" d="M 1947 -141 
Q 1466 -141 1094 79 
Q 722 300 520 692 
Q 319 1084 319 1563 
Q 319 2259 714 2950 
Q 1109 3641 1756 4077 
Q 2403 4513 3109 4513 
Q 3475 4513 3778 4381 
Q 4081 4250 4290 4017 
Q 4500 3784 4614 3471 
Q 4728 3159 4728 2791 
Q 4728 2366 4581 1936 
Q 4434 1506 4171 1136 
Q 3909 766 3559 484 
Q 3209 203 2809 38 
Q 2850 -256 2934 -425 
Q 3019 -594 3256 -594 
Q 3506 -594 3726 -412 
Q 3947 -231 4006 13 
Q 4019 72 4078 72 
Q 4147 72 4147 -13 
Q 4100 -219 4008 -430 
Q 3916 -641 3786 -823 
Q 3656 -1006 3478 -1123 
Q 3300 -1241 3084 -1241 
Q 2547 -1241 2547 -550 
Q 2547 -509 2562 -332 
Q 2578 -156 2578 -44 
Q 2269 -141 1947 -141 
z
M 1709 300 
Q 1709 44 1991 44 
Q 2275 44 2591 184 
L 2591 244 
Q 2591 503 2509 648 
Q 2428 794 2194 794 
Q 2078 794 1964 723 
Q 1850 653 1779 539 
Q 1709 425 1709 300 
z
M 1544 288 
Q 1544 456 1637 612 
Q 1731 769 1881 864 
Q 2031 959 2203 959 
Q 2481 959 2607 771 
Q 2734 584 2778 281 
Q 3188 525 3500 978 
Q 3813 1431 3977 1973 
Q 4141 2516 4141 3003 
Q 4141 3356 4023 3656 
Q 3906 3956 3664 4140 
Q 3422 4325 3066 4325 
Q 2722 4325 2403 4156 
Q 2084 3988 1813 3706 
Q 1550 3434 1342 3032 
Q 1134 2631 1021 2193 
Q 909 1756 909 1356 
Q 909 947 1068 612 
Q 1228 278 1569 128 
Q 1544 194 1544 288 
z
" transform="scale(0.015625)"/>
      </defs>
      <use xlink:href="#Cmmi10-51" transform="translate(0 0.484375)"/>
     </g>
    </g>
   </g>
  </g>
 </g>
 <defs>
  <clipPath id="pf118e91b05">
   <rect x="7.2" y="7.2" width="378.28794" height="324"/>
  </clipPath>
 </defs>
</svg>
