<?xml version="1.0" encoding="utf-8" standalone="no"?>
<!DOCTYPE svg PUBLIC "-//W3C//DTD SVG 1.1//EN"
  "http://www.w3.org/Graphics/SVG/1.1/DTD/svg11.dtd">
<svg xmlns:xlink="http://www.w3.org/1999/xlink" width="392.65524pt" height="338.4pt" viewBox="0 0 392.65524 338.4" xmlns="http://www.w3.org/2000/svg" version="1.1">
 <metadata>
  <rdf:RDF xmlns:dc="http://purl.org/dc/elements/1.1/" xmlns:cc="http://creativecommons.org/ns#" xmlns:rdf="http://www.w3.org/1999/02/22-rdf-syntax-ns#">
   <cc:Work>
    <dc:type rdf:resource="http://purl.org/dc/dcmitype/StillImage"/>
    <dc:date>2025-02-05T13:29:53.716028</dc:date>
    <dc:format>image/svg+xml</dc:format>
    <dc:creator>
     <cc:Agent>
      <dc:title>Matplotlib v3.8.0, https://matplotlib.org/</dc:title>
     </cc:Agent>
    </dc:creator>
   </cc:Work>
  </rdf:RDF>
 </metadata>
 <defs>
  <style type="text/css">*{stroke-linejoin: round; stroke-linecap: butt}</style>
 </defs>
 <g id="figure_1">
  <g id="patch_1">
   <path d="M 0 338.4 
L 392.65524 338.4 
L 392.65524 0 
L 0 0 
z
" style="fill: #ffffff"/>
  </g>
  <g id="axes_1">
   <g id="patch_2">
    <path d="M 7.2 331.2 
L 385.45524 331.2 
L 385.45524 7.2 
L 7.2 7.2 
z
" style="fill: #ffffff"/>
   </g>
   <g id="PathCollection_1">
    <path d="M 378.1811 246.771279 
C 379.118735 246.771279 380.018093 246.398753 380.6811 245.735745 
C 381.344108 245.072738 381.716634 244.17338 381.716634 243.235745 
C 381.716634 242.298111 381.344108 241.398753 380.6811 240.735745 
C 380.018093 240.072738 379.118735 239.700211 378.1811 239.700211 
C 377.243466 239.700211 376.344108 240.072738 375.6811 240.735745 
C 375.018093 241.398753 374.645566 242.298111 374.645566 243.235745 
C 374.645566 244.17338 375.018093 245.072738 375.6811 245.735745 
C 376.344108 246.398753 377.243466 246.771279 378.1811 246.771279 
z
" clip-path="url(#p3c2c5420a1)"/>
   </g>
   <g id="PathCollection_2">
    <path d="M 72.634898 323.814555 
C 73.572532 323.814555 74.47189 323.442029 75.134898 322.779021 
C 75.797905 322.116014 76.170432 321.216656 76.170432 320.279021 
C 76.170432 319.341387 75.797905 318.442029 75.134898 317.779021 
C 74.47189 317.116014 73.572532 316.743487 72.634898 316.743487 
C 71.697263 316.743487 70.797905 317.116014 70.134898 317.779021 
C 69.47189 318.442029 69.099364 319.341387 69.099364 320.279021 
C 69.099364 321.216656 69.47189 322.116014 70.134898 322.779021 
C 70.797905 323.442029 71.697263 323.814555 72.634898 323.814555 
z
" clip-path="url(#p3c2c5420a1)"/>
   </g>
   <g id="matplotlib.axis_1"/>
   <g id="matplotlib.axis_2"/>
   <g id="line2d_1">
    <path d="M 378.1811 243.235745 
L 347.363792 205.149726 
L 322.731501 174.87141 
L 306.893211 155.755906 
L 292.277845 138.513036 
L 279.736885 124.114239 
L 269.701994 112.912065 
L 258.880544 101.201281 
L 252.335343 94.326208 
L 244.895503 86.720653 
L 237.028699 78.940677 
L 229.745306 71.997314 
L 220.410097 63.493947 
L 213.41388 57.43582 
L 204.754711 50.341411 
L 194.820139 42.797063 
L 191.013719 40.086665 
L 186.759817 37.182281 
L 177.99783 31.635954 
L 172.952574 28.723359 
L 165.602168 24.871587 
L 162.435859 23.362328 
L 155.381733 20.342351 
L 149.864328 18.326098 
L 145.492031 16.955566 
L 140.073074 15.549687 
L 134.203473 14.411519 
L 129.645728 13.81847 
L 124.831796 13.482752 
L 120.514292 13.448123 
L 115.398965 13.750414 
L 111.608277 14.226742 
L 107.504768 14.9969 
L 104.053604 15.858941 
L 101.522996 16.620732 
L 98.723095 17.596298 
L 96.132928 18.627296 
L 92.114427 20.481884 
L 88.325689 22.528714 
L 84.752903 24.73927 
L 80.855017 27.479934 
L 77.686625 29.975596 
L 73.929625 33.266139 
L 70.05448 37.062293 
L 67.429602 39.881505 
L 64.223344 43.615469 
L 61.461557 47.104422 
L 59.448292 49.81693 
L 55.098954 56.202559 
L 52.03687 61.167805 
L 49.953484 64.789321 
L 46.811869 70.657467 
L 42.866998 78.799524 
L 39.802527 85.804422 
L 36.377535 94.457578 
L 33.351388 102.959555 
L 30.441919 112.053576 
L 28.127531 120.076365 
L 25.354978 130.856373 
L 23.097767 140.868193 
L 21.355224 149.633205 
L 19.34916 161.336647 
L 18.255841 168.78522 
L 16.964106 179.159921 
L 16.290808 185.653275 
L 15.406552 196.373057 
L 14.869457 205.712751 
L 14.508452 217.693019 
L 14.487443 226.297199 
L 14.624571 233.239541 
L 15.087265 243.319965 
L 15.798424 252.409295 
L 16.702117 260.54853 
L 17.762735 267.880562 
L 19.003996 274.7616 
L 20.697126 282.336664 
L 21.761745 286.361189 
L 23.24946 291.281647 
L 24.849897 295.853412 
L 26.586706 300.144536 
L 28.775829 304.757646 
L 31.071325 308.823522 
L 32.837496 311.504462 
L 35.31619 314.710797 
L 35.806586 315.276099 
L 37.781713 317.344543 
L 40.608477 319.778661 
L 42.907509 321.354393 
L 45.706457 322.840738 
L 47.229463 323.468284 
L 50.745732 324.476891 
L 53.004129 324.828053 
L 55.384534 324.969231 
L 58.802588 324.794175 
L 62.380216 324.175559 
L 64.736299 323.544978 
L 67.183378 322.715524 
L 70.618094 321.270821 
L 72.634898 320.279021 
L 72.634898 320.279021 
" clip-path="url(#p3c2c5420a1)" style="fill: none; stroke: #000000; stroke-linecap: square"/>
   </g>
   <g id="patch_3">
    <path d="M 99.877256 17.176959 
Q 99.979646 17.141026 97.972128 17.84556 
" clip-path="url(#p3c2c5420a1)" style="fill: none; stroke: #000000; stroke-width: 2; stroke-linecap: round"/>
    <path d="M 86.880601 16.439138 
L 97.972128 17.84556 
L 90.192074 25.874929 
z
" clip-path="url(#p3c2c5420a1)" style="stroke: #000000; stroke-width: 2; stroke-linecap: round"/>
   </g>
   <g id="text_1">
    <g clip-path="url(#p3c2c5420a1)">
     <!-- $P$ -->
     <g transform="translate(361.130202 272.448928) scale(0.25 -0.25)">
      <defs>
       <path id="Cmmi10-50" d="M 313 0 
Q 250 0 250 84 
Q 253 100 262 139 
Q 272 178 289 201 
Q 306 225 331 225 
Q 722 225 878 269 
Q 959 297 997 441 
L 1875 3956 
Q 1888 4019 1888 4044 
Q 1888 4113 1813 4122 
Q 1691 4147 1350 4147 
Q 1288 4147 1288 4231 
Q 1291 4247 1300 4286 
Q 1309 4325 1326 4348 
Q 1344 4372 1369 4372 
L 3578 4372 
Q 3881 4372 4165 4264 
Q 4450 4156 4631 3934 
Q 4813 3713 4813 3397 
Q 4813 2991 4527 2672 
Q 4241 2353 3814 2175 
Q 3388 1997 2988 1997 
L 1947 1997 
L 1556 416 
Q 1544 353 1544 325 
Q 1544 300 1551 283 
Q 1559 266 1573 261 
Q 1588 256 1619 250 
Q 1741 225 2081 225 
Q 2144 225 2144 141 
Q 2122 50 2109 25 
Q 2097 0 2034 0 
L 313 0 
z
M 1978 2188 
L 2875 2188 
Q 3497 2188 3822 2522 
Q 3988 2688 4092 3000 
Q 4197 3313 4197 3566 
Q 4197 3881 3956 4014 
Q 3716 4147 3359 4147 
L 2747 4147 
Q 2572 4147 2515 4117 
Q 2459 4088 2413 3928 
L 1978 2188 
z
" transform="scale(0.015625)"/>
      </defs>
      <use xlink:href="#Cmmi10-50" transform="translate(0 0.6875)"/>
     </g>
    </g>
   </g>
   <g id="text_2">
    <g clip-path="url(#p3c2c5420a1)">
     <!-- $Q$ -->
     <g transform="translate(84.949642 322.71451) scale(0.25 -0.25)">
      <defs>
       <path id="Cmmi10-51" d="M 1947 -141 
Q 1466 -141 1094 79 
Q 722 300 520 692 
Q 319 1084 319 1563 
Q 319 2259 714 2950 
Q 1109 3641 1756 4077 
Q 2403 4513 3109 4513 
Q 3475 4513 3778 4381 
Q 4081 4250 4290 4017 
Q 4500 3784 4614 3471 
Q 4728 3159 4728 2791 
Q 4728 2366 4581 1936 
Q 4434 1506 4171 1136 
Q 3909 766 3559 484 
Q 3209 203 2809 38 
Q 2850 -256 2934 -425 
Q 3019 -594 3256 -594 
Q 3506 -594 3726 -412 
Q 3947 -231 4006 13 
Q 4019 72 4078 72 
Q 4147 72 4147 -13 
Q 4100 -219 4008 -430 
Q 3916 -641 3786 -823 
Q 3656 -1006 3478 -1123 
Q 3300 -1241 3084 -1241 
Q 2547 -1241 2547 -550 
Q 2547 -509 2562 -332 
Q 2578 -156 2578 -44 
Q 2269 -141 1947 -141 
z
M 1709 300 
Q 1709 44 1991 44 
Q 2275 44 2591 184 
L 2591 244 
Q 2591 503 2509 648 
Q 2428 794 2194 794 
Q 2078 794 1964 723 
Q 1850 653 1779 539 
Q 1709 425 1709 300 
z
M 1544 288 
Q 1544 456 1637 612 
Q 1731 769 1881 864 
Q 2031 959 2203 959 
Q 2481 959 2607 771 
Q 2734 584 2778 281 
Q 3188 525 3500 978 
Q 3813 1431 3977 1973 
Q 4141 2516 4141 3003 
Q 4141 3356 4023 3656 
Q 3906 3956 3664 4140 
Q 3422 4325 3066 4325 
Q 2722 4325 2403 4156 
Q 2084 3988 1813 3706 
Q 1550 3434 1342 3032 
Q 1134 2631 1021 2193 
Q 909 1756 909 1356 
Q 909 947 1068 612 
Q 1228 278 1569 128 
Q 1544 194 1544 288 
z
" transform="scale(0.015625)"/>
      </defs>
      <use xlink:href="#Cmmi10-51" transform="translate(0 0.484375)"/>
     </g>
    </g>
   </g>
  </g>
 </g>
 <defs>
  <clipPath id="p3c2c5420a1">
   <rect x="7.2" y="7.2" width="378.25524" height="324"/>
  </clipPath>
 </defs>
</svg>
