<?xml version="1.0" encoding="utf-8" standalone="no"?>
<!DOCTYPE svg PUBLIC "-//W3C//DTD SVG 1.1//EN"
  "http://www.w3.org/Graphics/SVG/1.1/DTD/svg11.dtd">
<svg xmlns:xlink="http://www.w3.org/1999/xlink" width="392.662678pt" height="338.4pt" viewBox="0 0 392.662678 338.4" xmlns="http://www.w3.org/2000/svg" version="1.1">
 <metadata>
  <rdf:RDF xmlns:dc="http://purl.org/dc/elements/1.1/" xmlns:cc="http://creativecommons.org/ns#" xmlns:rdf="http://www.w3.org/1999/02/22-rdf-syntax-ns#">
   <cc:Work>
    <dc:type rdf:resource="http://purl.org/dc/dcmitype/StillImage"/>
    <dc:date>2025-02-05T12:09:27.291169</dc:date>
    <dc:format>image/svg+xml</dc:format>
    <dc:creator>
     <cc:Agent>
      <dc:title>Matplotlib v3.8.0, https://matplotlib.org/</dc:title>
     </cc:Agent>
    </dc:creator>
   </cc:Work>
  </rdf:RDF>
 </metadata>
 <defs>
  <style type="text/css">*{stroke-linejoin: round; stroke-linecap: butt}</style>
 </defs>
 <g id="figure_1">
  <g id="patch_1">
   <path d="M 0 338.4 
L 392.662678 338.4 
L 392.662678 0 
L 0 0 
z
" style="fill: #ffffff"/>
  </g>
  <g id="axes_1">
   <g id="patch_2">
    <path d="M 7.2 331.2 
L 385.462678 331.2 
L 385.462678 7.2 
L 7.2 7.2 
z
" style="fill: #ffffff"/>
   </g>
   <g id="PathCollection_1">
    <path d="M 378.188396 246.771133 
C 379.12603 246.771133 380.025388 246.398607 380.688396 245.735599 
C 381.351403 245.072591 381.723929 244.173233 381.723929 243.235599 
C 381.723929 242.297964 381.351403 241.398607 380.688396 240.735599 
C 380.025388 240.072591 379.12603 239.700065 378.188396 239.700065 
C 377.250761 239.700065 376.351403 240.072591 375.688396 240.735599 
C 375.025388 241.398607 374.652862 242.297964 374.652862 243.235599 
C 374.652862 244.173233 375.025388 245.072591 375.688396 245.735599 
C 376.351403 246.398607 377.250761 246.771133 378.188396 246.771133 
z
" clip-path="url(#p7d41820f9c)"/>
   </g>
   <g id="PathCollection_2">
    <path d="M 72.636413 323.815866 
C 73.574048 323.815866 74.473406 323.44334 75.136413 322.780332 
C 75.799421 322.117325 76.171947 321.217967 76.171947 320.280332 
C 76.171947 319.342698 75.799421 318.44334 75.136413 317.780332 
C 74.473406 317.117325 73.574048 316.744798 72.636413 316.744798 
C 71.698779 316.744798 70.799421 317.117325 70.136413 317.780332 
C 69.473406 318.44334 69.100879 319.342698 69.100879 320.280332 
C 69.100879 321.217967 69.473406 322.117325 70.136413 322.780332 
C 70.799421 323.44334 71.698779 323.815866 72.636413 323.815866 
z
" clip-path="url(#p7d41820f9c)"/>
   </g>
   <g id="matplotlib.axis_1"/>
   <g id="matplotlib.axis_2"/>
   <g id="line2d_1">
    <path d="M 378.188396 243.235599 
L 343.448469 200.30114 
L 322.34373 174.390141 
L 306.514537 155.294903 
L 292.666518 138.956873 
L 280.026616 124.433584 
L 270.08778 113.328533 
L 259.842216 102.216938 
L 252.282688 94.263518 
L 243.051433 84.8641 
L 233.640592 75.670832 
L 224.781845 67.411051 
L 216.730676 60.265601 
L 212.121001 56.34032 
L 202.080874 48.239292 
L 195.566836 43.334058 
L 187.503104 37.673556 
L 182.24527 34.242976 
L 177.39137 31.268452 
L 172.928103 28.703653 
L 167.16401 25.643962 
L 161.168563 22.778722 
L 153.346836 19.556883 
L 148.564189 17.891752 
L 145.639373 16.993108 
L 141.297633 15.833126 
L 135.453823 14.614386 
L 132.734721 14.187111 
L 127.407533 13.619686 
L 121.288299 13.430769 
L 115.92777 13.697053 
L 111.828222 14.188901 
L 109.212392 14.639431 
L 106.516519 15.219378 
L 102.518239 16.303964 
L 97.385605 18.109357 
L 93.032552 20.026645 
L 88.508529 22.419763 
L 85.218669 24.431969 
L 81.100896 27.293526 
L 79.89653 28.205934 
L 75.220704 32.090706 
L 71.681197 35.414497 
L 69.02868 38.136937 
L 66.165974 41.311565 
L 61.698737 46.79229 
L 59.514228 49.723691 
L 56.901845 53.462923 
L 53.24045 59.165353 
L 50.426461 63.94741 
L 47.799341 68.756194 
L 45.405093 73.455177 
L 42.246213 80.166233 
L 39.290787 87.037835 
L 36.443832 94.280133 
L 33.385056 102.859438 
L 30.208784 112.827122 
L 27.305318 123.126239 
L 24.803565 133.185634 
L 22.575713 143.385638 
L 20.78438 152.759384 
L 19.62389 159.604218 
L 17.939775 171.137865 
L 16.803339 180.62598 
L 15.877976 190.241144 
L 15.081099 201.56729 
L 14.616718 212.584875 
L 14.474282 221.488168 
L 14.53193 229.416069 
L 14.88884 239.795611 
L 15.387755 247.625421 
L 16.347399 257.630325 
L 16.983937 262.67026 
L 17.978975 269.184655 
L 19.361979 276.507436 
L 20.755931 282.5703 
L 22.344333 288.374729 
L 23.943103 293.343893 
L 25.526506 297.599333 
L 27.665658 302.51759 
L 29.999084 307.01242 
L 32.049967 310.353024 
L 33.227544 312.049989 
L 35.905801 315.388169 
L 37.703098 317.268724 
L 40.555127 319.738596 
L 42.51956 321.112743 
L 45.501988 322.748 
L 47.765213 323.661616 
L 49.420499 324.166715 
L 51.064715 324.541117 
L 52.971209 324.825766 
L 55.287479 324.969231 
L 57.569798 324.907824 
L 59.34012 324.730163 
L 62.281347 324.199951 
L 66.003991 323.138658 
L 69.8548 321.621046 
L 72.636413 320.280332 
L 72.636413 320.280332 
" clip-path="url(#p7d41820f9c)" style="fill: none; stroke: #000000; stroke-linecap: square"/>
   </g>
   <g id="patch_3">
    <path d="M 100.08407 17.100669 
Q 99.981678 17.136603 101.989194 16.432069 
" clip-path="url(#p7d41820f9c)" style="fill: none; stroke: #000000; stroke-width: 2; stroke-linecap: round"/>
    <path d="M 113.080721 17.838491 
L 101.989194 16.432069 
L 109.769248 8.4027 
z
" clip-path="url(#p7d41820f9c)" style="stroke: #000000; stroke-width: 2; stroke-linecap: round"/>
   </g>
   <g id="text_1">
    <g clip-path="url(#p7d41820f9c)">
     <!-- $P$ -->
     <g transform="translate(361.137329 272.449203) scale(0.25 -0.25)">
      <defs>
       <path id="Cmmi10-50" d="M 313 0 
Q 250 0 250 84 
Q 253 100 262 139 
Q 272 178 289 201 
Q 306 225 331 225 
Q 722 225 878 269 
Q 959 297 997 441 
L 1875 3956 
Q 1888 4019 1888 4044 
Q 1888 4113 1813 4122 
Q 1691 4147 1350 4147 
Q 1288 4147 1288 4231 
Q 1291 4247 1300 4286 
Q 1309 4325 1326 4348 
Q 1344 4372 1369 4372 
L 3578 4372 
Q 3881 4372 4165 4264 
Q 4450 4156 4631 3934 
Q 4813 3713 4813 3397 
Q 4813 2991 4527 2672 
Q 4241 2353 3814 2175 
Q 3388 1997 2988 1997 
L 1947 1997 
L 1556 416 
Q 1544 353 1544 325 
Q 1544 300 1551 283 
Q 1559 266 1573 261 
Q 1588 256 1619 250 
Q 1741 225 2081 225 
Q 2144 225 2144 141 
Q 2122 50 2109 25 
Q 2097 0 2034 0 
L 313 0 
z
M 1978 2188 
L 2875 2188 
Q 3497 2188 3822 2522 
Q 3988 2688 4092 3000 
Q 4197 3313 4197 3566 
Q 4197 3881 3956 4014 
Q 3716 4147 3359 4147 
L 2747 4147 
Q 2572 4147 2515 4117 
Q 2459 4088 2413 3928 
L 1978 2188 
z
" transform="scale(0.015625)"/>
      </defs>
      <use xlink:href="#Cmmi10-50" transform="translate(0 0.6875)"/>
     </g>
    </g>
   </g>
   <g id="text_2">
    <g clip-path="url(#p7d41820f9c)">
     <!-- $Q$ -->
     <g transform="translate(84.95158 322.715736) scale(0.25 -0.25)">
      <defs>
       <path id="Cmmi10-51" d="M 1947 -141 
Q 1466 -141 1094 79 
Q 722 300 520 692 
Q 319 1084 319 1563 
Q 319 2259 714 2950 
Q 1109 3641 1756 4077 
Q 2403 4513 3109 4513 
Q 3475 4513 3778 4381 
Q 4081 4250 4290 4017 
Q 4500 3784 4614 3471 
Q 4728 3159 4728 2791 
Q 4728 2366 4581 1936 
Q 4434 1506 4171 1136 
Q 3909 766 3559 484 
Q 3209 203 2809 38 
Q 2850 -256 2934 -425 
Q 3019 -594 3256 -594 
Q 3506 -594 3726 -412 
Q 3947 -231 4006 13 
Q 4019 72 4078 72 
Q 4147 72 4147 -13 
Q 4100 -219 4008 -430 
Q 3916 -641 3786 -823 
Q 3656 -1006 3478 -1123 
Q 3300 -1241 3084 -1241 
Q 2547 -1241 2547 -550 
Q 2547 -509 2562 -332 
Q 2578 -156 2578 -44 
Q 2269 -141 1947 -141 
z
M 1709 300 
Q 1709 44 1991 44 
Q 2275 44 2591 184 
L 2591 244 
Q 2591 503 2509 648 
Q 2428 794 2194 794 
Q 2078 794 1964 723 
Q 1850 653 1779 539 
Q 1709 425 1709 300 
z
M 1544 288 
Q 1544 456 1637 612 
Q 1731 769 1881 864 
Q 2031 959 2203 959 
Q 2481 959 2607 771 
Q 2734 584 2778 281 
Q 3188 525 3500 978 
Q 3813 1431 3977 1973 
Q 4141 2516 4141 3003 
Q 4141 3356 4023 3656 
Q 3906 3956 3664 4140 
Q 3422 4325 3066 4325 
Q 2722 4325 2403 4156 
Q 2084 3988 1813 3706 
Q 1550 3434 1342 3032 
Q 1134 2631 1021 2193 
Q 909 1756 909 1356 
Q 909 947 1068 612 
Q 1228 278 1569 128 
Q 1544 194 1544 288 
z
" transform="scale(0.015625)"/>
      </defs>
      <use xlink:href="#Cmmi10-51" transform="translate(0 0.484375)"/>
     </g>
    </g>
   </g>
  </g>
 </g>
 <defs>
  <clipPath id="p7d41820f9c">
   <rect x="7.2" y="7.2" width="378.262678" height="324"/>
  </clipPath>
 </defs>
</svg>
