<?xml version="1.0" encoding="utf-8" standalone="no"?>
<!DOCTYPE svg PUBLIC "-//W3C//DTD SVG 1.1//EN"
  "http://www.w3.org/Graphics/SVG/1.1/DTD/svg11.dtd">
<svg xmlns:xlink="http://www.w3.org/1999/xlink" width="453.6pt" height="267.380562pt" viewBox="0 0 453.6 267.380562" xmlns="http://www.w3.org/2000/svg" version="1.1">
 <metadata>
  <rdf:RDF xmlns:dc="http://purl.org/dc/elements/1.1/" xmlns:cc="http://creativecommons.org/ns#" xmlns:rdf="http://www.w3.org/1999/02/22-rdf-syntax-ns#">
   <cc:Work>
    <dc:type rdf:resource="http://purl.org/dc/dcmitype/StillImage"/>
    <dc:date>2025-02-05T13:31:14.135077</dc:date>
    <dc:format>image/svg+xml</dc:format>
    <dc:creator>
     <cc:Agent>
      <dc:title>Matplotlib v3.8.0, https://matplotlib.org/</dc:title>
     </cc:Agent>
    </dc:creator>
   </cc:Work>
  </rdf:RDF>
 </metadata>
 <defs>
  <style type="text/css">*{stroke-linejoin: round; stroke-linecap: butt}</style>
 </defs>
 <g id="figure_1">
  <g id="patch_1">
   <path d="M 0 267.380562 
L 453.6 267.380562 
L 453.6 0 
L 0 0 
z
" style="fill: #ffffff"/>
  </g>
  <g id="axes_1">
   <g id="patch_2">
    <path d="M 7.2 260.180562 
L 446.4 260.180562 
L 446.4 7.2 
L 7.2 7.2 
z
" style="fill: #ffffff"/>
   </g>
   <g id="PathCollection_1">
    <path d="M 149.978991 105.124958 
C 150.817637 105.124958 151.622047 104.791761 152.215059 104.198749 
C 152.808071 103.605736 153.141268 102.801327 153.141268 101.962681 
C 153.141268 101.124035 152.808071 100.319625 152.215059 99.726613 
C 151.622047 99.133601 150.817637 98.800403 149.978991 98.800403 
C 149.140345 98.800403 148.335935 99.133601 147.742923 99.726613 
C 147.149911 100.319625 146.816713 101.124035 146.816713 101.962681 
C 146.816713 102.801327 147.149911 103.605736 147.742923 104.198749 
C 148.335935 104.791761 149.140345 105.124958 149.978991 105.124958 
z
" clip-path="url(#p628974425a)"/>
   </g>
   <g id="PathCollection_2">
    <path d="M 437.953846 258.477829 
C 438.792492 258.477829 439.596902 258.144632 440.189914 257.551619 
C 440.782926 256.958607 441.116124 256.154197 441.116124 255.315551 
C 441.116124 254.476906 440.782926 253.672496 440.189914 253.079483 
C 439.596902 252.486471 438.792492 252.153274 437.953846 252.153274 
C 437.1152 252.153274 436.31079 252.486471 435.717778 253.079483 
C 435.124766 253.672496 434.791568 254.476906 434.791568 255.315551 
C 434.791568 256.154197 435.124766 256.958607 435.717778 257.551619 
C 436.31079 258.144632 437.1152 258.477829 437.953846 258.477829 
z
" clip-path="url(#p628974425a)"/>
   </g>
   <g id="PathCollection_3">
    <path d="M 285.922258 15.227288 
C 286.760904 15.227288 287.565314 14.894091 288.158326 14.301079 
C 288.751338 13.708067 289.084536 12.903657 289.084536 12.065011 
C 289.084536 11.226365 288.751338 10.421955 288.158326 9.828943 
C 287.565314 9.235931 286.760904 8.902733 285.922258 8.902733 
C 285.083612 8.902733 284.279202 9.235931 283.68619 9.828943 
C 283.093178 10.421955 282.759981 11.226365 282.759981 12.065011 
C 282.759981 12.903657 283.093178 13.708067 283.68619 14.301079 
C 284.279202 14.894091 285.083612 15.227288 285.922258 15.227288 
z
" clip-path="url(#p628974425a)"/>
   </g>
   <g id="matplotlib.axis_1"/>
   <g id="matplotlib.axis_2"/>
   <g id="line2d_1">
    <path d="M 437.953846 255.315551 
L 425.71531 246.112962 
L 406.183155 231.841324 
L 389.773473 220.255572 
L 372.79731 208.669442 
L 353.583693 196.061084 
L 337.327861 185.825441 
L 326.385562 179.164899 
L 309.159471 169.064552 
L 299.078931 163.378283 
L 289.516063 158.141293 
L 272.615459 149.271037 
L 258.530478 142.267041 
L 247.183525 136.891028 
L 235.146112 131.456963 
L 220.280588 125.143282 
L 209.295313 120.771145 
L 199.867298 117.225862 
L 189.249121 113.470901 
L 178.321766 109.88062 
L 165.780123 106.119508 
L 154.081195 102.976941 
L 145.788328 100.975271 
L 134.512352 98.572395 
L 126.498329 97.101023 
L 117.308082 95.671554 
L 107.936293 94.517234 
L 99.973373 93.795792 
L 94.305712 93.438264 
L 87.955751 93.202871 
L 81.659439 93.154523 
L 75.509133 93.300276 
L 69.233191 93.664427 
L 62.153708 94.366611 
L 57.456309 95.024109 
L 50.839738 96.24856 
L 45.853506 97.43885 
L 40.498848 99.025726 
L 36.503334 100.462887 
L 32.583484 102.135799 
L 28.908854 104.007844 
L 25.867116 105.856242 
L 24.072196 107.118824 
L 21.810412 108.964261 
L 20.53511 110.179332 
L 18.972563 111.931016 
L 17.698628 113.713692 
L 16.770789 115.410997 
L 16.050008 117.336739 
L 15.780564 118.538963 
L 15.660267 120.735329 
L 15.78578 121.807158 
L 16.210885 123.388082 
L 16.931122 124.931338 
L 18.085341 126.577215 
L 19.506157 128.030962 
L 21.191361 129.33859 
L 23.272496 130.58437 
L 25.306135 131.541141 
L 26.897942 132.158211 
L 30.865422 133.324507 
L 32.630243 133.708978 
L 36.49641 134.326455 
L 40.825345 134.719093 
L 46.05101 134.857369 
L 50.725542 134.724541 
L 55.71909 134.356019 
L 63.223112 133.425753 
L 71.330884 131.985704 
L 76.520135 130.856554 
L 84.877463 128.735131 
L 89.267063 127.483279 
L 96.442796 125.249101 
L 103.249143 122.928835 
L 112.510149 119.480853 
L 120.92164 116.078998 
L 128.286982 112.902834 
L 137.17902 108.837006 
L 148.545972 103.292733 
L 160.550466 97.041174 
L 173.161331 90.062663 
L 185.100381 83.089924 
L 195.961592 76.45313 
L 200.13888 73.828811 
L 211.757485 66.326937 
L 223.151176 58.690018 
L 236.561389 49.360204 
L 251.824337 38.310775 
L 262.695634 30.171644 
L 279.689616 17.017421 
L 285.922258 12.065011 
L 285.922258 12.065011 
" clip-path="url(#p628974425a)" style="fill: none; stroke: #1e88e5; stroke-width: 2; stroke-linecap: square"/>
   </g>
   <g id="patch_3">
    <path d="M 222.575763 126.088702 
Q 221.985374 125.844831 223.461678 126.454645 
" clip-path="url(#p628974425a)" style="fill: none; stroke: #1e88e5; stroke-width: 2; stroke-linecap: round"/>
    <path d="M 230.795313 134.893708 
L 223.461678 126.454645 
L 234.61311 125.651175 
z
" clip-path="url(#p628974425a)" style="fill: #1e88e5; stroke: #1e88e5; stroke-width: 2; stroke-linecap: round"/>
   </g>
   <g id="patch_4">
    <path d="M 53.651777 95.682384 
Q 53.399235 95.730639 55.343027 95.359225 
" clip-path="url(#p628974425a)" style="fill: none; stroke: #1e88e5; stroke-width: 2; stroke-linecap: round"/>
    <path d="M 66.103734 98.39356 
L 55.343027 95.359225 
L 64.226919 88.571261 
z
" clip-path="url(#p628974425a)" style="fill: #1e88e5; stroke: #1e88e5; stroke-width: 2; stroke-linecap: round"/>
   </g>
   <g id="patch_5">
    <path d="M 210.920008 66.877466 
Q 211.495194 66.499165 210.202165 67.349592 
" clip-path="url(#p628974425a)" style="fill: none; stroke: #1e88e5; stroke-width: 2; stroke-linecap: round"/>
    <path d="M 199.099734 68.667174 
L 210.202165 67.349592 
L 204.594772 77.022086 
z
" clip-path="url(#p628974425a)" style="fill: #1e88e5; stroke: #1e88e5; stroke-width: 2; stroke-linecap: round"/>
   </g>
   <g id="text_1">
    <g clip-path="url(#p628974425a)">
     <!-- $C_1$ -->
     <g style="fill: #1e88e5" transform="translate(220.566583 166.236869) scale(0.2 -0.2)">
      <defs>
       <path id="Cmmi10-43" d="M 934 1381 
Q 934 997 1082 705 
Q 1231 413 1514 248 
Q 1797 84 2181 84 
Q 2584 84 2957 290 
Q 3331 497 3595 842 
Q 3859 1188 3956 1575 
Q 3969 1613 4006 1613 
L 4084 1613 
Q 4109 1613 4125 1595 
Q 4141 1578 4141 1556 
Q 4141 1550 4134 1538 
Q 4025 1094 3711 705 
Q 3397 316 2959 87 
Q 2522 -141 2059 -141 
Q 1559 -141 1162 84 
Q 766 309 545 709 
Q 325 1109 325 1613 
Q 325 2150 565 2676 
Q 806 3203 1212 3614 
Q 1619 4025 2139 4269 
Q 2659 4513 3194 4513 
Q 3406 4513 3600 4448 
Q 3794 4384 3959 4253 
Q 4125 4122 4231 3950 
L 4738 4500 
Q 4738 4513 4769 4513 
L 4806 4513 
Q 4831 4513 4847 4491 
Q 4863 4469 4863 4447 
L 4428 2719 
Q 4428 2675 4378 2675 
L 4263 2675 
Q 4213 2675 4213 2747 
Q 4238 2888 4238 3084 
Q 4238 3397 4131 3673 
Q 4025 3950 3801 4119 
Q 3578 4288 3256 4288 
Q 2734 4288 2300 4025 
Q 1866 3763 1564 3336 
Q 1263 2909 1098 2389 
Q 934 1869 934 1381 
z
" transform="scale(0.015625)"/>
       <path id="Cmr10-31" d="M 594 0 
L 594 225 
Q 1394 225 1394 428 
L 1394 3788 
Q 1063 3628 556 3628 
L 556 3853 
Q 1341 3853 1741 4263 
L 1831 4263 
Q 1853 4263 1873 4245 
Q 1894 4228 1894 4206 
L 1894 428 
Q 1894 225 2694 225 
L 2694 0 
L 594 0 
z
" transform="scale(0.015625)"/>
      </defs>
      <use xlink:href="#Cmmi10-43" transform="translate(0 0.484375)"/>
      <use xlink:href="#Cmr10-31" transform="translate(71.386719 -16.521875) scale(0.7)"/>
     </g>
    </g>
   </g>
   <g id="text_2">
    <g clip-path="url(#p628974425a)">
     <!-- $C_2$ -->
     <g style="fill: #1e88e5" transform="translate(71.913474 115.559673) scale(0.2 -0.2)">
      <defs>
       <path id="Cmr10-32" d="M 319 0 
L 319 172 
Q 319 188 331 206 
L 1325 1306 
Q 1550 1550 1690 1715 
Q 1831 1881 1968 2097 
Q 2106 2313 2186 2536 
Q 2266 2759 2266 3009 
Q 2266 3272 2169 3511 
Q 2072 3750 1880 3894 
Q 1688 4038 1416 4038 
Q 1138 4038 916 3870 
Q 694 3703 603 3438 
Q 628 3444 672 3444 
Q 816 3444 917 3347 
Q 1019 3250 1019 3097 
Q 1019 2950 917 2848 
Q 816 2747 672 2747 
Q 522 2747 420 2851 
Q 319 2956 319 3097 
Q 319 3338 409 3548 
Q 500 3759 670 3923 
Q 841 4088 1055 4175 
Q 1269 4263 1509 4263 
Q 1875 4263 2190 4108 
Q 2506 3953 2690 3670 
Q 2875 3388 2875 3009 
Q 2875 2731 2753 2481 
Q 2631 2231 2440 2026 
Q 2250 1822 1953 1562 
Q 1656 1303 1563 1216 
L 838 519 
L 1453 519 
Q 1906 519 2211 526 
Q 2516 534 2534 550 
Q 2609 631 2688 1141 
L 2875 1141 
L 2694 0 
L 319 0 
z
" transform="scale(0.015625)"/>
      </defs>
      <use xlink:href="#Cmmi10-43" transform="translate(0 0.484375)"/>
      <use xlink:href="#Cmr10-32" transform="translate(71.386719 -16.521875) scale(0.7)"/>
     </g>
    </g>
   </g>
   <g id="text_3">
    <g clip-path="url(#p628974425a)">
     <!-- $C_3$ -->
     <g style="fill: #1e88e5" transform="translate(193.538745 47.990078) scale(0.2 -0.2)">
      <defs>
       <path id="Cmr10-33" d="M 609 494 
Q 759 275 1012 169 
Q 1266 63 1556 63 
Q 1928 63 2084 380 
Q 2241 697 2241 1100 
Q 2241 1281 2208 1462 
Q 2175 1644 2097 1800 
Q 2019 1956 1883 2050 
Q 1747 2144 1550 2144 
L 1125 2144 
Q 1069 2144 1069 2203 
L 1069 2259 
Q 1069 2309 1125 2309 
L 1478 2338 
Q 1703 2338 1851 2506 
Q 2000 2675 2069 2917 
Q 2138 3159 2138 3378 
Q 2138 3684 1994 3881 
Q 1850 4078 1556 4078 
Q 1313 4078 1091 3986 
Q 869 3894 738 3706 
Q 750 3709 759 3711 
Q 769 3713 781 3713 
Q 925 3713 1022 3613 
Q 1119 3513 1119 3372 
Q 1119 3234 1022 3134 
Q 925 3034 781 3034 
Q 641 3034 541 3134 
Q 441 3234 441 3372 
Q 441 3647 606 3850 
Q 772 4053 1033 4158 
Q 1294 4263 1556 4263 
Q 1750 4263 1965 4205 
Q 2181 4147 2356 4039 
Q 2531 3931 2642 3762 
Q 2753 3594 2753 3378 
Q 2753 3109 2633 2881 
Q 2513 2653 2303 2487 
Q 2094 2322 1844 2241 
Q 2122 2188 2372 2031 
Q 2622 1875 2773 1631 
Q 2925 1388 2925 1106 
Q 2925 753 2731 467 
Q 2538 181 2222 20 
Q 1906 -141 1556 -141 
Q 1256 -141 954 -26 
Q 653 88 461 316 
Q 269 544 269 863 
Q 269 1022 375 1128 
Q 481 1234 641 1234 
Q 744 1234 830 1186 
Q 916 1138 964 1050 
Q 1013 963 1013 863 
Q 1013 706 903 600 
Q 794 494 641 494 
L 609 494 
z
" transform="scale(0.015625)"/>
      </defs>
      <use xlink:href="#Cmmi10-43" transform="translate(0 0.484375)"/>
      <use xlink:href="#Cmr10-33" transform="translate(71.386719 -16.521875) scale(0.7)"/>
     </g>
    </g>
   </g>
  </g>
 </g>
 <defs>
  <clipPath id="p628974425a">
   <rect x="7.2" y="7.2" width="439.2" height="252.980562"/>
  </clipPath>
 </defs>
</svg>
