<?xml version="1.0" encoding="utf-8" standalone="no"?>
<!DOCTYPE svg PUBLIC "-//W3C//DTD SVG 1.1//EN"
  "http://www.w3.org/Graphics/SVG/1.1/DTD/svg11.dtd">
<svg xmlns:xlink="http://www.w3.org/1999/xlink" width="453.6pt" height="267.381264pt" viewBox="0 0 453.6 267.381264" xmlns="http://www.w3.org/2000/svg" version="1.1">
 <metadata>
  <rdf:RDF xmlns:dc="http://purl.org/dc/elements/1.1/" xmlns:cc="http://creativecommons.org/ns#" xmlns:rdf="http://www.w3.org/1999/02/22-rdf-syntax-ns#">
   <cc:Work>
    <dc:type rdf:resource="http://purl.org/dc/dcmitype/StillImage"/>
    <dc:date>2024-08-19T12:05:47.942647</dc:date>
    <dc:format>image/svg+xml</dc:format>
    <dc:creator>
     <cc:Agent>
      <dc:title>Matplotlib v3.8.0, https://matplotlib.org/</dc:title>
     </cc:Agent>
    </dc:creator>
   </cc:Work>
  </rdf:RDF>
 </metadata>
 <defs>
  <style type="text/css">*{stroke-linejoin: round; stroke-linecap: butt}</style>
 </defs>
 <g id="figure_1">
  <g id="patch_1">
   <path d="M 0 267.381264 
L 453.6 267.381264 
L 453.6 0 
L 0 0 
z
" style="fill: #ffffff"/>
  </g>
  <g id="axes_1">
   <g id="patch_2">
    <path d="M 7.2 260.181264 
L 446.4 260.181264 
L 446.4 7.2 
L 7.2 7.2 
z
" style="fill: #ffffff"/>
   </g>
   <g id="PathCollection_1">
    <path d="M 149.978192 105.125221 
C 150.816837 105.125221 151.621247 104.792024 152.21426 104.199012 
C 152.807272 103.605999 153.140469 102.80159 153.140469 101.962944 
C 153.140469 101.124298 152.807272 100.319888 152.21426 99.726876 
C 151.621247 99.133864 150.816837 98.800666 149.978192 98.800666 
C 149.139546 98.800666 148.335136 99.133864 147.742124 99.726876 
C 147.149111 100.319888 146.815914 101.124298 146.815914 101.962944 
C 146.815914 102.80159 147.149111 103.605999 147.742124 104.199012 
C 148.335136 104.792024 149.139546 105.125221 149.978192 105.125221 
z
" clip-path="url(#p8e68237a94)"/>
   </g>
   <g id="PathCollection_2">
    <path d="M 437.953846 258.478518 
C 438.792492 258.478518 439.596902 258.14532 440.189914 257.552308 
C 440.782926 256.959296 441.116124 256.154886 441.116124 255.31624 
C 441.116124 254.477594 440.782926 253.673184 440.189914 253.080172 
C 439.596902 252.48716 438.792492 252.153962 437.953846 252.153962 
C 437.1152 252.153962 436.31079 252.48716 435.717778 253.080172 
C 435.124766 253.673184 434.791568 254.477594 434.791568 255.31624 
C 434.791568 256.154886 435.124766 256.959296 435.717778 257.552308 
C 436.31079 258.14532 437.1152 258.478518 437.953846 258.478518 
z
" clip-path="url(#p8e68237a94)"/>
   </g>
   <g id="PathCollection_3">
    <path d="M 285.921836 15.227302 
C 286.760482 15.227302 287.564892 14.894104 288.157904 14.301092 
C 288.750916 13.70808 289.084114 12.90367 289.084114 12.065024 
C 289.084114 11.226378 288.750916 10.421968 288.157904 9.828956 
C 287.564892 9.235944 286.760482 8.902747 285.921836 8.902747 
C 285.08319 8.902747 284.278781 9.235944 283.685768 9.828956 
C 283.092756 10.421968 282.759559 11.226378 282.759559 12.065024 
C 282.759559 12.90367 283.092756 13.70808 283.685768 14.301092 
C 284.278781 14.894104 285.08319 15.227302 285.921836 15.227302 
z
" clip-path="url(#p8e68237a94)"/>
   </g>
   <g id="matplotlib.axis_1"/>
   <g id="matplotlib.axis_2"/>
   <g id="line2d_1">
    <path d="M 437.953846 255.31624 
L 423.708676 244.623757 
L 409.991096 234.583748 
L 391.983959 221.79503 
L 377.849948 212.075385 
L 368.080463 205.524569 
L 352.16896 195.155037 
L 339.149656 186.953119 
L 323.10197 177.203572 
L 310.035647 169.567358 
L 296.804242 162.119215 
L 283.250405 154.795304 
L 266.061967 145.968013 
L 253.981733 140.083491 
L 237.096304 132.318738 
L 231.439132 129.841387 
L 219.430275 124.796369 
L 215.22845 123.101428 
L 204.1826 118.824933 
L 190.660262 113.955593 
L 184.650786 111.926019 
L 173.822365 108.486578 
L 163.254664 105.410981 
L 153.171453 102.748456 
L 145.328277 100.870369 
L 137.566093 99.186076 
L 131.485277 97.993229 
L 124.05327 96.69353 
L 114.467075 95.288583 
L 104.881321 94.211548 
L 96.024532 93.532725 
L 88.857114 93.225468 
L 82.260413 93.151008 
L 74.530008 93.342421 
L 67.296787 93.824405 
L 60.150585 94.627172 
L 53.097919 95.78837 
L 48.191744 96.84926 
L 43.683022 98.039979 
L 38.786354 99.612099 
L 33.904185 101.538883 
L 30.239132 103.290224 
L 27.358215 104.909804 
L 24.262567 106.976982 
L 21.751306 109.01656 
L 20.348502 110.37016 
L 18.893556 112.028895 
L 17.357905 114.279267 
L 16.727128 115.503375 
L 16.172291 116.928189 
L 15.695719 119.160614 
L 15.648988 120.523255 
L 15.84999 122.141956 
L 16.389561 123.844879 
L 17.140565 125.282992 
L 18.294219 126.821817 
L 19.73519 128.231304 
L 21.101746 129.278166 
L 22.75135 130.302759 
L 23.750143 130.829731 
L 26.610651 132.054947 
L 28.720486 132.752845 
L 32.353876 133.654019 
L 34.259319 134.004473 
L 37.152894 134.405071 
L 42.22488 134.789512 
L 46.783681 134.851758 
L 51.009162 134.709864 
L 57.329584 134.192622 
L 63.389766 133.400651 
L 69.852013 132.279145 
L 76.779205 130.796361 
L 82.507076 129.372859 
L 90.832919 127.015199 
L 97.662 124.847459 
L 105.847563 121.994247 
L 114.509556 118.694754 
L 120.224932 116.370021 
L 128.034733 113.014456 
L 139.383568 107.791328 
L 147.058589 104.039365 
L 157.332714 98.755187 
L 169.687175 92.025568 
L 181.321873 85.333783 
L 189.871271 80.20808 
L 196.194514 76.307608 
L 210.123007 67.399746 
L 223.98562 58.119833 
L 237.802052 48.478626 
L 249.893287 39.73311 
L 263.521389 29.544192 
L 276.949167 19.173154 
L 285.921836 12.065024 
L 285.921836 12.065024 
" clip-path="url(#p8e68237a94)" style="fill: none; stroke: #1e88e5; stroke-width: 2; stroke-linecap: square"/>
   </g>
   <g id="patch_3">
    <path d="M 222.575166 126.089032 
Q 221.984775 125.84516 223.461077 126.454974 
" clip-path="url(#p8e68237a94)" style="fill: none; stroke: #1e88e5; stroke-width: 2; stroke-linecap: round"/>
    <path d="M 230.794712 134.894037 
L 223.461077 126.454974 
L 234.612509 125.651503 
z
" clip-path="url(#p8e68237a94)" style="fill: #1e88e5; stroke: #1e88e5; stroke-width: 2; stroke-linecap: round"/>
   </g>
   <g id="patch_4">
    <path d="M 53.65071 95.68263 
Q 53.398168 95.730885 55.341959 95.359471 
" clip-path="url(#p8e68237a94)" style="fill: none; stroke: #1e88e5; stroke-width: 2; stroke-linecap: round"/>
    <path d="M 66.102666 98.393806 
L 55.341959 95.359471 
L 64.225851 88.571507 
z
" clip-path="url(#p8e68237a94)" style="fill: #1e88e5; stroke: #1e88e5; stroke-width: 2; stroke-linecap: round"/>
   </g>
   <g id="patch_5">
    <path d="M 210.919378 66.877632 
Q 211.494566 66.49933 210.201538 67.349756 
" clip-path="url(#p8e68237a94)" style="fill: none; stroke: #1e88e5; stroke-width: 2; stroke-linecap: round"/>
    <path d="M 199.099107 68.667337 
L 210.201538 67.349756 
L 204.594145 77.02225 
z
" clip-path="url(#p8e68237a94)" style="fill: #1e88e5; stroke: #1e88e5; stroke-width: 2; stroke-linecap: round"/>
   </g>
   <g id="text_1">
    <g clip-path="url(#p8e68237a94)">
     <!-- $C_1$ -->
     <g style="fill: #1e88e5" transform="translate(220.566011 166.237295) scale(0.2 -0.2)">
      <defs>
       <path id="Cmmi10-43" d="M 934 1381 
Q 934 997 1082 705 
Q 1231 413 1514 248 
Q 1797 84 2181 84 
Q 2584 84 2957 290 
Q 3331 497 3595 842 
Q 3859 1188 3956 1575 
Q 3969 1613 4006 1613 
L 4084 1613 
Q 4109 1613 4125 1595 
Q 4141 1578 4141 1556 
Q 4141 1550 4134 1538 
Q 4025 1094 3711 705 
Q 3397 316 2959 87 
Q 2522 -141 2059 -141 
Q 1559 -141 1162 84 
Q 766 309 545 709 
Q 325 1109 325 1613 
Q 325 2150 565 2676 
Q 806 3203 1212 3614 
Q 1619 4025 2139 4269 
Q 2659 4513 3194 4513 
Q 3406 4513 3600 4448 
Q 3794 4384 3959 4253 
Q 4125 4122 4231 3950 
L 4738 4500 
Q 4738 4513 4769 4513 
L 4806 4513 
Q 4831 4513 4847 4491 
Q 4863 4469 4863 4447 
L 4428 2719 
Q 4428 2675 4378 2675 
L 4263 2675 
Q 4213 2675 4213 2747 
Q 4238 2888 4238 3084 
Q 4238 3397 4131 3673 
Q 4025 3950 3801 4119 
Q 3578 4288 3256 4288 
Q 2734 4288 2300 4025 
Q 1866 3763 1564 3336 
Q 1263 2909 1098 2389 
Q 934 1869 934 1381 
z
" transform="scale(0.015625)"/>
       <path id="Cmr10-31" d="M 594 0 
L 594 225 
Q 1394 225 1394 428 
L 1394 3788 
Q 1063 3628 556 3628 
L 556 3853 
Q 1341 3853 1741 4263 
L 1831 4263 
Q 1853 4263 1873 4245 
Q 1894 4228 1894 4206 
L 1894 428 
Q 1894 225 2694 225 
L 2694 0 
L 594 0 
z
" transform="scale(0.015625)"/>
      </defs>
      <use xlink:href="#Cmmi10-43" transform="translate(0 0.484375)"/>
      <use xlink:href="#Cmr10-31" transform="translate(71.386719 -16.521875) scale(0.7)"/>
     </g>
    </g>
   </g>
   <g id="text_2">
    <g clip-path="url(#p8e68237a94)">
     <!-- $C_2$ -->
     <g style="fill: #1e88e5" transform="translate(71.91249 115.559958) scale(0.2 -0.2)">
      <defs>
       <path id="Cmr10-32" d="M 319 0 
L 319 172 
Q 319 188 331 206 
L 1325 1306 
Q 1550 1550 1690 1715 
Q 1831 1881 1968 2097 
Q 2106 2313 2186 2536 
Q 2266 2759 2266 3009 
Q 2266 3272 2169 3511 
Q 2072 3750 1880 3894 
Q 1688 4038 1416 4038 
Q 1138 4038 916 3870 
Q 694 3703 603 3438 
Q 628 3444 672 3444 
Q 816 3444 917 3347 
Q 1019 3250 1019 3097 
Q 1019 2950 917 2848 
Q 816 2747 672 2747 
Q 522 2747 420 2851 
Q 319 2956 319 3097 
Q 319 3338 409 3548 
Q 500 3759 670 3923 
Q 841 4088 1055 4175 
Q 1269 4263 1509 4263 
Q 1875 4263 2190 4108 
Q 2506 3953 2690 3670 
Q 2875 3388 2875 3009 
Q 2875 2731 2753 2481 
Q 2631 2231 2440 2026 
Q 2250 1822 1953 1562 
Q 1656 1303 1563 1216 
L 838 519 
L 1453 519 
Q 1906 519 2211 526 
Q 2516 534 2534 550 
Q 2609 631 2688 1141 
L 2875 1141 
L 2694 0 
L 319 0 
z
" transform="scale(0.015625)"/>
      </defs>
      <use xlink:href="#Cmmi10-43" transform="translate(0 0.484375)"/>
      <use xlink:href="#Cmr10-32" transform="translate(71.386719 -16.521875) scale(0.7)"/>
     </g>
    </g>
   </g>
   <g id="text_3">
    <g clip-path="url(#p8e68237a94)">
     <!-- $C_3$ -->
     <g style="fill: #1e88e5" transform="translate(193.538098 47.990176) scale(0.2 -0.2)">
      <defs>
       <path id="Cmr10-33" d="M 609 494 
Q 759 275 1012 169 
Q 1266 63 1556 63 
Q 1928 63 2084 380 
Q 2241 697 2241 1100 
Q 2241 1281 2208 1462 
Q 2175 1644 2097 1800 
Q 2019 1956 1883 2050 
Q 1747 2144 1550 2144 
L 1125 2144 
Q 1069 2144 1069 2203 
L 1069 2259 
Q 1069 2309 1125 2309 
L 1478 2338 
Q 1703 2338 1851 2506 
Q 2000 2675 2069 2917 
Q 2138 3159 2138 3378 
Q 2138 3684 1994 3881 
Q 1850 4078 1556 4078 
Q 1313 4078 1091 3986 
Q 869 3894 738 3706 
Q 750 3709 759 3711 
Q 769 3713 781 3713 
Q 925 3713 1022 3613 
Q 1119 3513 1119 3372 
Q 1119 3234 1022 3134 
Q 925 3034 781 3034 
Q 641 3034 541 3134 
Q 441 3234 441 3372 
Q 441 3647 606 3850 
Q 772 4053 1033 4158 
Q 1294 4263 1556 4263 
Q 1750 4263 1965 4205 
Q 2181 4147 2356 4039 
Q 2531 3931 2642 3762 
Q 2753 3594 2753 3378 
Q 2753 3109 2633 2881 
Q 2513 2653 2303 2487 
Q 2094 2322 1844 2241 
Q 2122 2188 2372 2031 
Q 2622 1875 2773 1631 
Q 2925 1388 2925 1106 
Q 2925 753 2731 467 
Q 2538 181 2222 20 
Q 1906 -141 1556 -141 
Q 1256 -141 954 -26 
Q 653 88 461 316 
Q 269 544 269 863 
Q 269 1022 375 1128 
Q 481 1234 641 1234 
Q 744 1234 830 1186 
Q 916 1138 964 1050 
Q 1013 963 1013 863 
Q 1013 706 903 600 
Q 794 494 641 494 
L 609 494 
z
" transform="scale(0.015625)"/>
      </defs>
      <use xlink:href="#Cmmi10-43" transform="translate(0 0.484375)"/>
      <use xlink:href="#Cmr10-33" transform="translate(71.386719 -16.521875) scale(0.7)"/>
     </g>
    </g>
   </g>
  </g>
 </g>
 <defs>
  <clipPath id="p8e68237a94">
   <rect x="7.2" y="7.2" width="439.2" height="252.981264"/>
  </clipPath>
 </defs>
</svg>
