<?xml version="1.0" encoding="utf-8" standalone="no"?>
<!DOCTYPE svg PUBLIC "-//W3C//DTD SVG 1.1//EN"
  "http://www.w3.org/Graphics/SVG/1.1/DTD/svg11.dtd">
<svg xmlns:xlink="http://www.w3.org/1999/xlink" width="453.6pt" height="267.38372pt" viewBox="0 0 453.6 267.38372" xmlns="http://www.w3.org/2000/svg" version="1.1">
 <metadata>
  <rdf:RDF xmlns:dc="http://purl.org/dc/elements/1.1/" xmlns:cc="http://creativecommons.org/ns#" xmlns:rdf="http://www.w3.org/1999/02/22-rdf-syntax-ns#">
   <cc:Work>
    <dc:type rdf:resource="http://purl.org/dc/dcmitype/StillImage"/>
    <dc:date>2024-12-04T07:53:23.023240</dc:date>
    <dc:format>image/svg+xml</dc:format>
    <dc:creator>
     <cc:Agent>
      <dc:title>Matplotlib v3.6.2, https://matplotlib.org/</dc:title>
     </cc:Agent>
    </dc:creator>
   </cc:Work>
  </rdf:RDF>
 </metadata>
 <defs>
  <style type="text/css">*{stroke-linejoin: round; stroke-linecap: butt}</style>
 </defs>
 <g id="figure_1">
  <g id="patch_1">
   <path d="M 0 267.38372 
L 453.6 267.38372 
L 453.6 0 
L 0 0 
z
" style="fill: #ffffff"/>
  </g>
  <g id="axes_1">
   <g id="patch_2">
    <path d="M 7.2 260.18372 
L 446.4 260.18372 
L 446.4 7.2 
L 7.2 7.2 
z
" style="fill: #ffffff"/>
   </g>
   <g id="PathCollection_1">
    <path d="M 149.975397 105.126141 
C 150.814043 105.126141 151.618453 104.792943 152.211465 104.199931 
C 152.804477 103.606919 153.137674 102.802509 153.137674 101.963863 
C 153.137674 101.125218 152.804477 100.320808 152.211465 99.727795 
C 151.618453 99.134783 150.814043 98.801586 149.975397 98.801586 
C 149.136751 98.801586 148.332341 99.134783 147.739329 99.727795 
C 147.146317 100.320808 146.813119 101.125218 146.813119 101.963863 
C 146.813119 102.802509 147.146317 103.606919 147.739329 104.199931 
C 148.332341 104.792943 149.136751 105.126141 149.975397 105.126141 
z
" clip-path="url(#p1eadcde71a)"/>
   </g>
   <g id="PathCollection_2">
    <path d="M 437.953846 258.480926 
C 438.792492 258.480926 439.596902 258.147728 440.189914 257.554716 
C 440.782926 256.961704 441.116124 256.157294 441.116124 255.318648 
C 441.116124 254.480002 440.782926 253.675592 440.189914 253.08258 
C 439.596902 252.489568 438.792492 252.15637 437.953846 252.15637 
C 437.1152 252.15637 436.31079 252.489568 435.717778 253.08258 
C 435.124766 253.675592 434.791568 254.480002 434.791568 255.318648 
C 434.791568 256.157294 435.124766 256.961704 435.717778 257.554716 
C 436.31079 258.147728 437.1152 258.480926 437.953846 258.480926 
z
" clip-path="url(#p1eadcde71a)"/>
   </g>
   <g id="PathCollection_3">
    <path d="M 285.920361 15.227349 
C 286.759007 15.227349 287.563417 14.894152 288.156429 14.30114 
C 288.749441 13.708127 289.082638 12.903717 289.082638 12.065072 
C 289.082638 11.226426 288.749441 10.422016 288.156429 9.829004 
C 287.563417 9.235991 286.759007 8.902794 285.920361 8.902794 
C 285.081715 8.902794 284.277305 9.235991 283.684293 9.829004 
C 283.091281 10.422016 282.758083 11.226426 282.758083 12.065072 
C 282.758083 12.903717 283.091281 13.708127 283.684293 14.30114 
C 284.277305 14.894152 285.081715 15.227349 285.920361 15.227349 
z
" clip-path="url(#p1eadcde71a)"/>
   </g>
   <g id="matplotlib.axis_1"/>
   <g id="matplotlib.axis_2"/>
   <g id="line2d_1">
    <path d="M 437.953846 255.318648 
L 426.203756 246.479535 
L 416.424968 239.263491 
L 397.091184 225.378894 
L 382.096269 214.968002 
L 365.237471 203.646707 
L 358.55523 199.274207 
L 344.071468 190.025752 
L 327.024831 179.551839 
L 308.324249 168.58998 
L 293.543895 160.331098 
L 277.655053 151.866543 
L 270.777449 148.33952 
L 256.245671 141.167894 
L 247.740461 137.151944 
L 241.10485 134.114409 
L 225.606554 127.356357 
L 215.113452 123.057548 
L 202.619228 118.242981 
L 191.438107 114.22631 
L 182.978638 111.378238 
L 172.769586 108.16926 
L 164.794532 105.843028 
L 156.768249 103.668492 
L 147.650257 101.409856 
L 137.608337 99.19625 
L 131.036266 97.911127 
L 122.638535 96.467879 
L 111.271815 94.893069 
L 104.340841 94.162286 
L 97.264659 93.609503 
L 91.753386 93.323271 
L 85.385821 93.161173 
L 76.8012 93.253915 
L 71.412792 93.512721 
L 67.663562 93.792866 
L 59.740237 94.684451 
L 54.381732 95.547014 
L 50.002175 96.431254 
L 43.617043 98.058884 
L 39.023587 99.527863 
L 34.570841 101.250232 
L 32.351569 102.243177 
L 28.96268 103.976223 
L 26.320797 105.557377 
L 23.809592 107.314193 
L 22.36476 108.476855 
L 20.483396 110.228028 
L 19.567555 111.216648 
L 17.863949 113.44879 
L 16.548598 115.902495 
L 15.958425 117.661707 
L 15.659216 119.545777 
L 15.646154 120.557547 
L 15.844263 122.135462 
L 16.233065 123.463801 
L 16.567608 124.250422 
L 17.569907 125.925783 
L 18.964024 127.532319 
L 20.75348 129.03556 
L 21.588314 129.607303 
L 24.003874 130.957444 
L 26.532195 132.028696 
L 29.249364 132.908061 
L 32.802864 133.745393 
L 35.877469 134.248407 
L 41.341316 134.749755 
L 45.619955 134.85973 
L 49.207749 134.793092 
L 53.990818 134.509239 
L 59.799957 133.903097 
L 65.848609 133.006309 
L 70.791065 132.094919 
L 77.95013 130.519663 
L 85.355912 128.603405 
L 88.594946 127.681015 
L 98.690169 124.503954 
L 107.611882 121.344765 
L 112.717594 119.399782 
L 122.096688 115.584024 
L 128.066898 112.999919 
L 136.660636 109.080241 
L 146.69965 104.218166 
L 158.26878 98.25882 
L 168.630995 92.615701 
L 178.309833 87.097391 
L 187.225184 81.81217 
L 196.060259 76.390578 
L 210.58712 67.094765 
L 226.161393 56.626153 
L 238.592543 47.914543 
L 250.183935 39.51841 
L 263.348042 29.67488 
L 275.521571 20.289967 
L 285.920361 12.065072 
L 285.920361 12.065072 
" clip-path="url(#p1eadcde71a)" style="fill: none; stroke: #1e88e5; stroke-width: 2; stroke-linecap: square"/>
   </g>
   <g id="patch_3">
    <path d="M 222.573075 126.090186 
Q 221.982679 125.846311 223.458975 126.456123 
" clip-path="url(#p1eadcde71a)" style="fill: none; stroke: #1e88e5; stroke-width: 2; stroke-linecap: round"/>
    <path d="M 230.792611 134.895186 
L 223.458975 126.456123 
L 234.610407 125.652652 
L 230.792611 134.895186 
z
" clip-path="url(#p1eadcde71a)" style="fill: #1e88e5; stroke: #1e88e5; stroke-width: 2; stroke-linecap: round"/>
   </g>
   <g id="patch_4">
    <path d="M 53.64698 95.683488 
Q 53.394436 95.731744 55.338224 95.360331 
" clip-path="url(#p1eadcde71a)" style="fill: none; stroke: #1e88e5; stroke-width: 2; stroke-linecap: round"/>
    <path d="M 66.098931 98.394666 
L 55.338224 95.360331 
L 64.222116 88.572366 
L 66.098931 98.394666 
z
" clip-path="url(#p1eadcde71a)" style="fill: #1e88e5; stroke: #1e88e5; stroke-width: 2; stroke-linecap: round"/>
   </g>
   <g id="patch_5">
    <path d="M 210.917175 66.878211 
Q 211.492368 66.499905 210.199346 67.350328 
" clip-path="url(#p1eadcde71a)" style="fill: none; stroke: #1e88e5; stroke-width: 2; stroke-linecap: round"/>
    <path d="M 199.096915 68.667909 
L 210.199346 67.350328 
L 204.591953 77.022821 
L 199.096915 68.667909 
z
" clip-path="url(#p1eadcde71a)" style="fill: #1e88e5; stroke: #1e88e5; stroke-width: 2; stroke-linecap: round"/>
   </g>
   <g id="text_1">
    <g clip-path="url(#p1eadcde71a)">
     <!-- $C_1$ -->
     <g style="fill: #1e88e5" transform="translate(220.56401 166.238785) scale(0.2 -0.2)">
      <defs>
       <path id="Cmmi10-43" d="M 934 1381 
Q 934 997 1082 705 
Q 1231 413 1514 248 
Q 1797 84 2181 84 
Q 2584 84 2957 290 
Q 3331 497 3595 842 
Q 3859 1188 3956 1575 
Q 3969 1613 4006 1613 
L 4084 1613 
Q 4109 1613 4125 1595 
Q 4141 1578 4141 1556 
Q 4141 1550 4134 1538 
Q 4025 1094 3711 705 
Q 3397 316 2959 87 
Q 2522 -141 2059 -141 
Q 1559 -141 1162 84 
Q 766 309 545 709 
Q 325 1109 325 1613 
Q 325 2150 565 2676 
Q 806 3203 1212 3614 
Q 1619 4025 2139 4269 
Q 2659 4513 3194 4513 
Q 3406 4513 3600 4448 
Q 3794 4384 3959 4253 
Q 4125 4122 4231 3950 
L 4738 4500 
Q 4738 4513 4769 4513 
L 4806 4513 
Q 4831 4513 4847 4491 
Q 4863 4469 4863 4447 
L 4428 2719 
Q 4428 2675 4378 2675 
L 4263 2675 
Q 4213 2675 4213 2747 
Q 4238 2888 4238 3084 
Q 4238 3397 4131 3673 
Q 4025 3950 3801 4119 
Q 3578 4288 3256 4288 
Q 2734 4288 2300 4025 
Q 1866 3763 1564 3336 
Q 1263 2909 1098 2389 
Q 934 1869 934 1381 
z
" transform="scale(0.015625)"/>
       <path id="Cmr10-31" d="M 594 0 
L 594 225 
Q 1394 225 1394 428 
L 1394 3788 
Q 1063 3628 556 3628 
L 556 3853 
Q 1341 3853 1741 4263 
L 1831 4263 
Q 1853 4263 1873 4245 
Q 1894 4228 1894 4206 
L 1894 428 
Q 1894 225 2694 225 
L 2694 0 
L 594 0 
z
" transform="scale(0.015625)"/>
      </defs>
      <use xlink:href="#Cmmi10-43" transform="translate(0 0.484375)"/>
      <use xlink:href="#Cmr10-31" transform="translate(71.386719 -16.521875) scale(0.7)"/>
     </g>
    </g>
   </g>
   <g id="text_2">
    <g clip-path="url(#p1eadcde71a)">
     <!-- $C_2$ -->
     <g style="fill: #1e88e5" transform="translate(71.909047 115.560957) scale(0.2 -0.2)">
      <defs>
       <path id="Cmr10-32" d="M 319 0 
L 319 172 
Q 319 188 331 206 
L 1325 1306 
Q 1550 1550 1690 1715 
Q 1831 1881 1968 2097 
Q 2106 2313 2186 2536 
Q 2266 2759 2266 3009 
Q 2266 3272 2169 3511 
Q 2072 3750 1880 3894 
Q 1688 4038 1416 4038 
Q 1138 4038 916 3870 
Q 694 3703 603 3438 
Q 628 3444 672 3444 
Q 816 3444 917 3347 
Q 1019 3250 1019 3097 
Q 1019 2950 917 2848 
Q 816 2747 672 2747 
Q 522 2747 420 2851 
Q 319 2956 319 3097 
Q 319 3338 409 3548 
Q 500 3759 670 3923 
Q 841 4088 1055 4175 
Q 1269 4263 1509 4263 
Q 1875 4263 2190 4108 
Q 2506 3953 2690 3670 
Q 2875 3388 2875 3009 
Q 2875 2731 2753 2481 
Q 2631 2231 2440 2026 
Q 2250 1822 1953 1562 
Q 1656 1303 1563 1216 
L 838 519 
L 1453 519 
Q 1906 519 2211 526 
Q 2516 534 2534 550 
Q 2609 631 2688 1141 
L 2875 1141 
L 2694 0 
L 319 0 
z
" transform="scale(0.015625)"/>
      </defs>
      <use xlink:href="#Cmmi10-43" transform="translate(0 0.484375)"/>
      <use xlink:href="#Cmr10-32" transform="translate(71.386719 -16.521875) scale(0.7)"/>
     </g>
    </g>
   </g>
   <g id="text_3">
    <g clip-path="url(#p1eadcde71a)">
     <!-- $C_3$ -->
     <g style="fill: #1e88e5" transform="translate(193.535835 47.990519) scale(0.2 -0.2)">
      <defs>
       <path id="Cmr10-33" d="M 609 494 
Q 759 275 1012 169 
Q 1266 63 1556 63 
Q 1928 63 2084 380 
Q 2241 697 2241 1100 
Q 2241 1281 2208 1462 
Q 2175 1644 2097 1800 
Q 2019 1956 1883 2050 
Q 1747 2144 1550 2144 
L 1125 2144 
Q 1069 2144 1069 2203 
L 1069 2259 
Q 1069 2309 1125 2309 
L 1478 2338 
Q 1703 2338 1851 2506 
Q 2000 2675 2069 2917 
Q 2138 3159 2138 3378 
Q 2138 3684 1994 3881 
Q 1850 4078 1556 4078 
Q 1313 4078 1091 3986 
Q 869 3894 738 3706 
Q 750 3709 759 3711 
Q 769 3713 781 3713 
Q 925 3713 1022 3613 
Q 1119 3513 1119 3372 
Q 1119 3234 1022 3134 
Q 925 3034 781 3034 
Q 641 3034 541 3134 
Q 441 3234 441 3372 
Q 441 3647 606 3850 
Q 772 4053 1033 4158 
Q 1294 4263 1556 4263 
Q 1750 4263 1965 4205 
Q 2181 4147 2356 4039 
Q 2531 3931 2642 3762 
Q 2753 3594 2753 3378 
Q 2753 3109 2633 2881 
Q 2513 2653 2303 2487 
Q 2094 2322 1844 2241 
Q 2122 2188 2372 2031 
Q 2622 1875 2773 1631 
Q 2925 1388 2925 1106 
Q 2925 753 2731 467 
Q 2538 181 2222 20 
Q 1906 -141 1556 -141 
Q 1256 -141 954 -26 
Q 653 88 461 316 
Q 269 544 269 863 
Q 269 1022 375 1128 
Q 481 1234 641 1234 
Q 744 1234 830 1186 
Q 916 1138 964 1050 
Q 1013 963 1013 863 
Q 1013 706 903 600 
Q 794 494 641 494 
L 609 494 
z
" transform="scale(0.015625)"/>
      </defs>
      <use xlink:href="#Cmmi10-43" transform="translate(0 0.484375)"/>
      <use xlink:href="#Cmr10-33" transform="translate(71.386719 -16.521875) scale(0.7)"/>
     </g>
    </g>
   </g>
  </g>
 </g>
 <defs>
  <clipPath id="p1eadcde71a">
   <rect x="7.2" y="7.2" width="439.2" height="252.98372"/>
  </clipPath>
 </defs>
</svg>
