<?xml version="1.0" encoding="utf-8" standalone="no"?>
<!DOCTYPE svg PUBLIC "-//W3C//DTD SVG 1.1//EN"
  "http://www.w3.org/Graphics/SVG/1.1/DTD/svg11.dtd">
<svg xmlns:xlink="http://www.w3.org/1999/xlink" width="452.907598pt" height="230.32077pt" viewBox="0 0 452.907598 230.32077" xmlns="http://www.w3.org/2000/svg" version="1.1">
 <metadata>
  <rdf:RDF xmlns:dc="http://purl.org/dc/elements/1.1/" xmlns:cc="http://creativecommons.org/ns#" xmlns:rdf="http://www.w3.org/1999/02/22-rdf-syntax-ns#">
   <cc:Work>
    <dc:type rdf:resource="http://purl.org/dc/dcmitype/StillImage"/>
    <dc:date>2025-02-05T13:30:04.364766</dc:date>
    <dc:format>image/svg+xml</dc:format>
    <dc:creator>
     <cc:Agent>
      <dc:title>Matplotlib v3.8.0, https://matplotlib.org/</dc:title>
     </cc:Agent>
    </dc:creator>
   </cc:Work>
  </rdf:RDF>
 </metadata>
 <defs>
  <style type="text/css">*{stroke-linejoin: round; stroke-linecap: butt}</style>
 </defs>
 <g id="figure_1">
  <g id="patch_1">
   <path d="M 0 230.32077 
L 452.907598 230.32077 
L 452.907598 0 
L 0 0 
z
" style="fill: #ffffff"/>
  </g>
  <g id="axes_1">
   <g id="patch_2">
    <path d="M 10.497348 215.019646 
L 417.53525 215.019646 
L 417.53525 7.2 
L 10.497348 7.2 
z
" style="fill: #ffffff"/>
   </g>
   <g id="PathCollection_1">
    <path d="M 86.155131 198.276405 
C 87.092766 198.276405 87.992123 197.903879 88.655131 197.240871 
C 89.318139 196.577864 89.690665 195.678506 89.690665 194.740871 
C 89.690665 193.803237 89.318139 192.903879 88.655131 192.240871 
C 87.992123 191.577864 87.092766 191.205338 86.155131 191.205338 
C 85.217497 191.205338 84.318139 191.577864 83.655131 192.240871 
C 82.992123 192.903879 82.619597 193.803237 82.619597 194.740871 
C 82.619597 195.678506 82.992123 196.577864 83.655131 197.240871 
C 84.318139 197.903879 85.217497 198.276405 86.155131 198.276405 
z
" clip-path="url(#p86726dd04f)"/>
   </g>
   <g id="PathCollection_2">
    <path d="M 34.607242 160.902702 
C 35.544877 160.902702 36.444235 160.530175 37.107242 159.867168 
C 37.77025 159.20416 38.142776 158.304802 38.142776 157.367168 
C 38.142776 156.429533 37.77025 155.530175 37.107242 154.867168 
C 36.444235 154.20416 35.544877 153.831634 34.607242 153.831634 
C 33.669608 153.831634 32.77025 154.20416 32.107242 154.867168 
C 31.444235 155.530175 31.071709 156.429533 31.071709 157.367168 
C 31.071709 158.304802 31.444235 159.20416 32.107242 159.867168 
C 32.77025 160.530175 33.669608 160.902702 34.607242 160.902702 
z
" clip-path="url(#p86726dd04f)"/>
   </g>
   <g id="PathCollection_3">
    <path d="M 39.793612 112.034557 
C 40.731247 112.034557 41.630605 111.662031 42.293612 110.999023 
C 42.95662 110.336015 43.329146 109.436658 43.329146 108.499023 
C 43.329146 107.561388 42.95662 106.662031 42.293612 105.999023 
C 41.630605 105.336015 40.731247 104.963489 39.793612 104.963489 
C 38.855978 104.963489 37.95662 105.336015 37.293612 105.999023 
C 36.630605 106.662031 36.258079 107.561388 36.258079 108.499023 
C 36.258079 109.436658 36.630605 110.336015 37.293612 110.999023 
C 37.95662 111.662031 38.855978 112.034557 39.793612 112.034557 
z
" clip-path="url(#p86726dd04f)"/>
   </g>
   <g id="PathCollection_4">
    <path d="M 91.724475 63.46247 
C 92.662109 63.46247 93.561467 63.089943 94.224475 62.426936 
C 94.887483 61.763928 95.260009 60.86457 95.260009 59.926936 
C 95.260009 58.989301 94.887483 58.089943 94.224475 57.426936 
C 93.561467 56.763928 92.662109 56.391402 91.724475 56.391402 
C 90.78684 56.391402 89.887483 56.763928 89.224475 57.426936 
C 88.561467 58.089943 88.188941 58.989301 88.188941 59.926936 
C 88.188941 60.86457 88.561467 61.763928 89.224475 62.426936 
C 89.887483 63.089943 90.78684 63.46247 91.724475 63.46247 
z
" clip-path="url(#p86726dd04f)"/>
   </g>
   <g id="PathCollection_5">
    <path d="M 261.725907 14.735491 
C 262.663542 14.735491 263.562899 14.362965 264.225907 13.699957 
C 264.888915 13.036949 265.261441 12.137592 265.261441 11.199957 
C 265.261441 10.262323 264.888915 9.362965 264.225907 8.699957 
C 263.562899 8.036949 262.663542 7.664423 261.725907 7.664423 
C 260.788272 7.664423 259.888915 8.036949 259.225907 8.699957 
C 258.562899 9.362965 258.190373 10.262323 258.190373 11.199957 
C 258.190373 12.137592 258.562899 13.036949 259.225907 13.699957 
C 259.888915 14.362965 260.788272 14.735491 261.725907 14.735491 
z
" clip-path="url(#p86726dd04f)"/>
   </g>
   <g id="PathCollection_6">
    <path d="M 340.25026 29.346501 
C 341.187894 29.346501 342.087252 28.973975 342.75026 28.310967 
C 343.413267 27.647959 343.785794 26.748601 343.785794 25.810967 
C 343.785794 24.873332 343.413267 23.973975 342.75026 23.310967 
C 342.087252 22.647959 341.187894 22.275433 340.25026 22.275433 
C 339.312625 22.275433 338.413267 22.647959 337.75026 23.310967 
C 337.087252 23.973975 336.714726 24.873332 336.714726 25.810967 
C 336.714726 26.748601 337.087252 27.647959 337.75026 28.310967 
C 338.413267 28.973975 339.312625 29.346501 340.25026 29.346501 
z
" clip-path="url(#p86726dd04f)"/>
   </g>
   <g id="PathCollection_7">
    <path d="M 393.425355 69.47585 
C 394.36299 69.47585 395.262348 69.103324 395.925355 68.440316 
C 396.588363 67.777308 396.960889 66.87795 396.960889 65.940316 
C 396.960889 65.002681 396.588363 64.103324 395.925355 63.440316 
C 395.262348 62.777308 394.36299 62.404782 393.425355 62.404782 
C 392.487721 62.404782 391.588363 62.777308 390.925355 63.440316 
C 390.262348 64.103324 389.889821 65.002681 389.889821 65.940316 
C 389.889821 66.87795 390.262348 67.777308 390.925355 68.440316 
C 391.588363 69.103324 392.487721 69.47585 393.425355 69.47585 
z
" clip-path="url(#p86726dd04f)"/>
   </g>
   <g id="matplotlib.axis_1"/>
   <g id="matplotlib.axis_2"/>
   <g id="line2d_1">
    <path d="M 393.425355 65.940316 
L 390.683399 62.364804 
L 387.119294 58.15252 
L 384.090066 54.893303 
L 381.9622 52.754912 
L 378.250708 49.284902 
L 373.170261 44.99626 
L 370.099466 42.627253 
L 365.595401 39.417322 
L 362.1137 37.129625 
L 356.324571 33.656734 
L 350.852516 30.712203 
L 346.324773 28.497605 
L 340.960339 26.109167 
L 334.412992 23.50846 
L 326.934365 20.919772 
L 319.449446 18.697415 
L 310.788713 16.542686 
L 302.493083 14.861573 
L 294.843471 13.617291 
L 287.673446 12.699888 
L 280.500943 12.009434 
L 272.475242 11.492331 
L 264.989829 11.241724 
L 258.798941 11.196532 
L 253.352725 11.274182 
L 244.098799 11.650276 
L 235.434493 12.272615 
L 226.997811 13.12248 
L 217.860137 14.308212 
L 211.251059 15.334963 
L 201.854295 17.036466 
L 194.345206 18.599007 
L 184.456863 20.931457 
L 176.592231 23.010945 
L 168.312195 25.417881 
L 158.527355 28.555906 
L 149.561524 31.718951 
L 140.479245 35.215111 
L 134.225965 37.800836 
L 125.184889 41.811192 
L 116.545272 45.96389 
L 108.773643 49.989723 
L 103.665528 52.798268 
L 95.722932 57.446074 
L 88.994593 61.679659 
L 81.453757 66.79407 
L 77.486372 69.663197 
L 71.224552 74.481303 
L 65.483738 79.262731 
L 60.256631 83.985005 
L 57.257887 86.885258 
L 52.687707 91.634002 
L 48.19316 96.7932 
L 44.480086 101.548544 
L 41.841038 105.30004 
L 39.988618 108.181225 
L 37.846476 111.857836 
L 35.992368 115.45822 
L 34.413732 118.984772 
L 33.313894 121.83176 
L 32.286599 124.968205 
L 31.300589 128.799611 
L 30.872975 130.991842 
L 30.353518 135.036795 
L 30.196 138.88615 
L 30.251706 140.938545 
L 30.631467 144.799794 
L 31.132421 147.559924 
L 32.043719 151.014825 
L 33.259134 154.396662 
L 34.318314 156.778239 
L 35.654879 159.338242 
L 37.452343 162.270096 
L 39.327357 164.906162 
L 41.740566 167.85951 
L 43.916267 170.211781 
L 46.550126 172.762977 
L 49.248284 175.112905 
L 52.174784 177.421913 
L 55.038635 179.484245 
L 60.209343 182.811892 
L 65.043571 185.554312 
L 69.329748 187.745798 
L 74.478841 190.130628 
L 80.291427 192.54925 
L 86.155131 194.740871 
L 86.155131 194.740871 
" clip-path="url(#p86726dd04f)" style="fill: none; stroke: #000000; stroke-width: 2; stroke-linecap: square"/>
   </g>
   <g id="patch_3">
    <path d="M 86.155131 194.740871 
Q 60.381187 176.05402 36.417562 158.679701 
" clip-path="url(#p86726dd04f)" style="fill: none; stroke: #1e88e5; stroke-width: 2; stroke-linecap: round"/>
    <path d="M 41.578641 168.597527 
L 36.417562 158.679701 
L 47.44847 160.501533 
z
" clip-path="url(#p86726dd04f)" style="fill: #1e88e5; stroke: #1e88e5; stroke-width: 2; stroke-linecap: round"/>
   </g>
   <g id="patch_4">
    <path d="M 34.607242 157.367168 
Q 37.200427 132.933095 39.557624 110.722603 
" clip-path="url(#p86726dd04f)" style="fill: none; stroke: #1e88e5; stroke-width: 2; stroke-linecap: round"/>
    <path d="M 33.530176 120.139071 
L 39.557624 110.722603 
L 43.474329 121.194443 
z
" clip-path="url(#p86726dd04f)" style="fill: #1e88e5; stroke: #1e88e5; stroke-width: 2; stroke-linecap: round"/>
   </g>
   <g id="patch_5">
    <path d="M 39.793612 108.499023 
Q 65.759044 84.212979 90.091407 61.454381 
" clip-path="url(#p86726dd04f)" style="fill: none; stroke: #1e88e5; stroke-width: 2; stroke-linecap: round"/>
    <path d="M 79.372633 64.633671 
L 90.091407 61.454381 
L 86.203574 71.936974 
z
" clip-path="url(#p86726dd04f)" style="fill: #1e88e5; stroke: #1e88e5; stroke-width: 2; stroke-linecap: round"/>
   </g>
   <g id="patch_6">
    <path d="M 91.724475 59.926936 
Q 176.725191 35.563446 259.576393 11.816066 
" clip-path="url(#p86726dd04f)" style="fill: none; stroke: #d81b60; stroke-width: 2; stroke-linecap: round"/>
    <path d="M 248.585814 9.764927 
L 259.576393 11.816066 
L 251.341135 19.377846 
z
" clip-path="url(#p86726dd04f)" style="fill: #d81b60; stroke: #d81b60; stroke-width: 2; stroke-linecap: round"/>
   </g>
   <g id="patch_7">
    <path d="M 261.725907 11.199957 
Q 300.988083 18.505462 338.051923 25.401923 
" clip-path="url(#p86726dd04f)" style="fill: none; stroke: #1e88e5; stroke-width: 2; stroke-linecap: round"/>
    <path d="M 329.135314 18.656993 
L 338.051923 25.401923 
L 327.306014 28.488252 
z
" clip-path="url(#p86726dd04f)" style="fill: #1e88e5; stroke: #1e88e5; stroke-width: 2; stroke-linecap: round"/>
   </g>
   <g id="patch_8">
    <path d="M 340.25026 25.810967 
Q 366.837807 45.875641 391.640505 64.593353 
" clip-path="url(#p86726dd04f)" style="fill: none; stroke: #1e88e5; stroke-width: 2; stroke-linecap: round"/>
    <path d="M 386.670312 54.578505 
L 391.640505 64.593353 
L 380.646511 62.560598 
z
" clip-path="url(#p86726dd04f)" style="fill: #1e88e5; stroke: #1e88e5; stroke-width: 2; stroke-linecap: round"/>
   </g>
   <g id="text_1">
    <!-- $P=\mathbf{r}_0$ -->
    <g transform="translate(61.046252 217.921551) scale(0.25 -0.25)">
     <defs>
      <path id="Cmmi10-50" d="M 313 0 
Q 250 0 250 84 
Q 253 100 262 139 
Q 272 178 289 201 
Q 306 225 331 225 
Q 722 225 878 269 
Q 959 297 997 441 
L 1875 3956 
Q 1888 4019 1888 4044 
Q 1888 4113 1813 4122 
Q 1691 4147 1350 4147 
Q 1288 4147 1288 4231 
Q 1291 4247 1300 4286 
Q 1309 4325 1326 4348 
Q 1344 4372 1369 4372 
L 3578 4372 
Q 3881 4372 4165 4264 
Q 4450 4156 4631 3934 
Q 4813 3713 4813 3397 
Q 4813 2991 4527 2672 
Q 4241 2353 3814 2175 
Q 3388 1997 2988 1997 
L 1947 1997 
L 1556 416 
Q 1544 353 1544 325 
Q 1544 300 1551 283 
Q 1559 266 1573 261 
Q 1588 256 1619 250 
Q 1741 225 2081 225 
Q 2144 225 2144 141 
Q 2122 50 2109 25 
Q 2097 0 2034 0 
L 313 0 
z
M 1978 2188 
L 2875 2188 
Q 3497 2188 3822 2522 
Q 3988 2688 4092 3000 
Q 4197 3313 4197 3566 
Q 4197 3881 3956 4014 
Q 3716 4147 3359 4147 
L 2747 4147 
Q 2572 4147 2515 4117 
Q 2459 4088 2413 3928 
L 1978 2188 
z
" transform="scale(0.015625)"/>
      <path id="Cmr10-3d" d="M 481 850 
Q 428 850 393 890 
Q 359 931 359 978 
Q 359 1031 393 1068 
Q 428 1106 481 1106 
L 4500 1106 
Q 4547 1106 4581 1068 
Q 4616 1031 4616 978 
Q 4616 931 4581 890 
Q 4547 850 4500 850 
L 481 850 
z
M 481 2094 
Q 428 2094 393 2131 
Q 359 2169 359 2222 
Q 359 2269 393 2309 
Q 428 2350 481 2350 
L 4500 2350 
Q 4547 2350 4581 2309 
Q 4616 2269 4616 2222 
Q 4616 2169 4581 2131 
Q 4547 2094 4500 2094 
L 481 2094 
z
" transform="scale(0.015625)"/>
      <path id="Cmb10-72" d="M 91 0 
L 91 325 
L 531 325 
L 531 2322 
Q 531 2503 91 2503 
L 91 2828 
L 1178 2881 
L 1178 2356 
Q 1269 2594 1436 2737 
Q 1603 2881 1838 2881 
Q 2006 2881 2173 2822 
Q 2341 2763 2450 2641 
Q 2559 2519 2559 2344 
Q 2559 2178 2443 2059 
Q 2328 1941 2156 1941 
Q 1984 1941 1868 2059 
Q 1753 2178 1753 2344 
Q 1753 2513 1856 2625 
L 1838 2625 
Q 1488 2625 1367 2248 
Q 1247 1872 1247 1416 
L 1247 325 
L 1806 325 
L 1806 0 
L 91 0 
z
" transform="scale(0.015625)"/>
      <path id="Cmr10-30" d="M 1600 -141 
Q 816 -141 533 504 
Q 250 1150 250 2041 
Q 250 2597 351 3087 
Q 453 3578 754 3920 
Q 1056 4263 1600 4263 
Q 2022 4263 2290 4056 
Q 2559 3850 2700 3523 
Q 2841 3197 2892 2823 
Q 2944 2450 2944 2041 
Q 2944 1491 2842 1011 
Q 2741 531 2444 195 
Q 2147 -141 1600 -141 
z
M 1600 25 
Q 1956 25 2131 390 
Q 2306 756 2347 1200 
Q 2388 1644 2388 2144 
Q 2388 2625 2347 3031 
Q 2306 3438 2132 3767 
Q 1959 4097 1600 4097 
Q 1238 4097 1063 3765 
Q 888 3434 847 3029 
Q 806 2625 806 2144 
Q 806 1788 823 1472 
Q 841 1156 916 820 
Q 991 484 1158 254 
Q 1325 25 1600 25 
z
" transform="scale(0.015625)"/>
     </defs>
     <use xlink:href="#Cmmi10-50" transform="translate(0 0.6875)"/>
     <use xlink:href="#Cmr10-3d" transform="translate(81.767578 0.6875)"/>
     <use xlink:href="#Cmb10-72" transform="translate(177.011719 0.6875)"/>
     <use xlink:href="#Cmr10-30" transform="translate(224.151641 -16.31875) scale(0.7)"/>
    </g>
   </g>
   <g id="text_2">
    <!-- $\mathbf{r}_1$ -->
    <g transform="translate(7.2 172.406726) scale(0.25 -0.25)">
     <defs>
      <path id="Cmr10-31" d="M 594 0 
L 594 225 
Q 1394 225 1394 428 
L 1394 3788 
Q 1063 3628 556 3628 
L 556 3853 
Q 1341 3853 1741 4263 
L 1831 4263 
Q 1853 4263 1873 4245 
Q 1894 4228 1894 4206 
L 1894 428 
Q 1894 225 2694 225 
L 2694 0 
L 594 0 
z
" transform="scale(0.015625)"/>
     </defs>
     <use xlink:href="#Cmb10-72" transform="translate(0 0.984375)"/>
     <use xlink:href="#Cmr10-31" transform="translate(47.139922 -16.021875) scale(0.7)"/>
    </g>
   </g>
   <g id="text_3">
    <!-- $\mathbf{r}_2$ -->
    <g transform="translate(44.950855 115.39746) scale(0.25 -0.25)">
     <defs>
      <path id="Cmr10-32" d="M 319 0 
L 319 172 
Q 319 188 331 206 
L 1325 1306 
Q 1550 1550 1690 1715 
Q 1831 1881 1968 2097 
Q 2106 2313 2186 2536 
Q 2266 2759 2266 3009 
Q 2266 3272 2169 3511 
Q 2072 3750 1880 3894 
Q 1688 4038 1416 4038 
Q 1138 4038 916 3870 
Q 694 3703 603 3438 
Q 628 3444 672 3444 
Q 816 3444 917 3347 
Q 1019 3250 1019 3097 
Q 1019 2950 917 2848 
Q 816 2747 672 2747 
Q 522 2747 420 2851 
Q 319 2956 319 3097 
Q 319 3338 409 3548 
Q 500 3759 670 3923 
Q 841 4088 1055 4175 
Q 1269 4263 1509 4263 
Q 1875 4263 2190 4108 
Q 2506 3953 2690 3670 
Q 2875 3388 2875 3009 
Q 2875 2731 2753 2481 
Q 2631 2231 2440 2026 
Q 2250 1822 1953 1562 
Q 1656 1303 1563 1216 
L 838 519 
L 1453 519 
Q 1906 519 2211 526 
Q 2516 534 2534 550 
Q 2609 631 2688 1141 
L 2875 1141 
L 2694 0 
L 319 0 
z
" transform="scale(0.015625)"/>
     </defs>
     <use xlink:href="#Cmb10-72" transform="translate(0 0.984375)"/>
     <use xlink:href="#Cmr10-32" transform="translate(47.139922 -16.021875) scale(0.7)"/>
    </g>
   </g>
   <g id="text_4">
    <!-- $\mathbf{r}_{n-2}$ -->
    <g transform="translate(235.475907 34.380637) scale(0.25 -0.25)">
     <defs>
      <path id="Cmmi10-6e" d="M 494 109 
Q 494 147 500 166 
L 978 2075 
Q 1025 2253 1025 2388 
Q 1025 2663 838 2663 
Q 638 2663 541 2423 
Q 444 2184 353 1819 
Q 353 1800 334 1789 
Q 316 1778 300 1778 
L 225 1778 
Q 203 1778 187 1801 
Q 172 1825 172 1844 
Q 241 2122 305 2315 
Q 369 2509 505 2668 
Q 641 2828 844 2828 
Q 1084 2828 1268 2676 
Q 1453 2525 1453 2291 
Q 1644 2541 1900 2684 
Q 2156 2828 2444 2828 
Q 2672 2828 2837 2750 
Q 3003 2672 3095 2514 
Q 3188 2356 3188 2138 
Q 3188 1875 3070 1503 
Q 2953 1131 2778 672 
Q 2688 463 2688 288 
Q 2688 97 2834 97 
Q 3084 97 3251 365 
Q 3419 634 3488 941 
Q 3500 978 3541 978 
L 3616 978 
Q 3641 978 3658 962 
Q 3675 947 3675 922 
Q 3675 916 3669 903 
Q 3581 541 3364 234 
Q 3147 -72 2822 -72 
Q 2597 -72 2437 83 
Q 2278 238 2278 459 
Q 2278 578 2328 709 
Q 2409 919 2514 1209 
Q 2619 1500 2686 1765 
Q 2753 2031 2753 2234 
Q 2753 2413 2679 2538 
Q 2606 2663 2431 2663 
Q 2197 2663 2000 2559 
Q 1803 2456 1656 2286 
Q 1509 2116 1388 1881 
L 953 141 
Q 931 53 854 -9 
Q 778 -72 684 -72 
Q 606 -72 550 -22 
Q 494 28 494 109 
z
" transform="scale(0.015625)"/>
      <path id="Cmsy10-a1" d="M 653 1472 
Q 600 1472 565 1512 
Q 531 1553 531 1600 
Q 531 1647 565 1687 
Q 600 1728 653 1728 
L 4325 1728 
Q 4375 1728 4408 1687 
Q 4441 1647 4441 1600 
Q 4441 1553 4408 1512 
Q 4375 1472 4325 1472 
L 653 1472 
z
" transform="scale(0.015625)"/>
     </defs>
     <use xlink:href="#Cmb10-72" transform="translate(0 0.984375)"/>
     <use xlink:href="#Cmmi10-6e" transform="translate(47.139922 -16.021875) scale(0.7)"/>
     <use xlink:href="#Cmsy10-a1" transform="translate(101.437773 -16.021875) scale(0.7)"/>
     <use xlink:href="#Cmr10-32" transform="translate(168.108672 -16.021875) scale(0.7)"/>
    </g>
   </g>
   <g id="text_5">
    <!-- $\mathbf{r}_{n-1}$ -->
    <g transform="translate(314.00026 48.991647) scale(0.25 -0.25)">
     <use xlink:href="#Cmb10-72" transform="translate(0 0.984375)"/>
     <use xlink:href="#Cmmi10-6e" transform="translate(47.139922 -16.021875) scale(0.7)"/>
     <use xlink:href="#Cmsy10-a1" transform="translate(101.437773 -16.021875) scale(0.7)"/>
     <use xlink:href="#Cmr10-31" transform="translate(168.108672 -16.021875) scale(0.7)"/>
    </g>
   </g>
   <g id="text_6">
    <!-- $Q=\mathbf{r}_{n}$ -->
    <g transform="translate(373.707598 89.120996) scale(0.25 -0.25)">
     <defs>
      <path id="Cmmi10-51" d="M 1947 -141 
Q 1466 -141 1094 79 
Q 722 300 520 692 
Q 319 1084 319 1563 
Q 319 2259 714 2950 
Q 1109 3641 1756 4077 
Q 2403 4513 3109 4513 
Q 3475 4513 3778 4381 
Q 4081 4250 4290 4017 
Q 4500 3784 4614 3471 
Q 4728 3159 4728 2791 
Q 4728 2366 4581 1936 
Q 4434 1506 4171 1136 
Q 3909 766 3559 484 
Q 3209 203 2809 38 
Q 2850 -256 2934 -425 
Q 3019 -594 3256 -594 
Q 3506 -594 3726 -412 
Q 3947 -231 4006 13 
Q 4019 72 4078 72 
Q 4147 72 4147 -13 
Q 4100 -219 4008 -430 
Q 3916 -641 3786 -823 
Q 3656 -1006 3478 -1123 
Q 3300 -1241 3084 -1241 
Q 2547 -1241 2547 -550 
Q 2547 -509 2562 -332 
Q 2578 -156 2578 -44 
Q 2269 -141 1947 -141 
z
M 1709 300 
Q 1709 44 1991 44 
Q 2275 44 2591 184 
L 2591 244 
Q 2591 503 2509 648 
Q 2428 794 2194 794 
Q 2078 794 1964 723 
Q 1850 653 1779 539 
Q 1709 425 1709 300 
z
M 1544 288 
Q 1544 456 1637 612 
Q 1731 769 1881 864 
Q 2031 959 2203 959 
Q 2481 959 2607 771 
Q 2734 584 2778 281 
Q 3188 525 3500 978 
Q 3813 1431 3977 1973 
Q 4141 2516 4141 3003 
Q 4141 3356 4023 3656 
Q 3906 3956 3664 4140 
Q 3422 4325 3066 4325 
Q 2722 4325 2403 4156 
Q 2084 3988 1813 3706 
Q 1550 3434 1342 3032 
Q 1134 2631 1021 2193 
Q 909 1756 909 1356 
Q 909 947 1068 612 
Q 1228 278 1569 128 
Q 1544 194 1544 288 
z
" transform="scale(0.015625)"/>
     </defs>
     <use xlink:href="#Cmmi10-51" transform="translate(0 0.484375)"/>
     <use xlink:href="#Cmr10-3d" transform="translate(96.5625 0.484375)"/>
     <use xlink:href="#Cmb10-72" transform="translate(191.806641 0.484375)"/>
     <use xlink:href="#Cmmi10-6e" transform="translate(238.946562 -16.521875) scale(0.7)"/>
    </g>
   </g>
   <g id="text_7">
    <!-- $\Delta \mathbf{r}_i=\mathbf{r}_{i+1}-\mathbf{r}_i$ -->
    <g style="fill: #d81b60" transform="translate(85.933272 72.219769) scale(0.25 -0.25)">
     <defs>
      <path id="Cmr10-a2" d="M 347 0 
Q 294 0 294 50 
Q 297 56 298 59 
Q 300 63 300 72 
L 2503 4513 
Q 2531 4581 2619 4581 
L 2706 4581 
Q 2794 4581 2822 4513 
L 5025 72 
Q 5028 66 5029 61 
Q 5031 56 5031 50 
Q 5031 0 4978 0 
L 347 0 
z
M 769 513 
L 4141 513 
L 2456 3909 
L 769 513 
z
" transform="scale(0.015625)"/>
      <path id="Cmmi10-69" d="M 500 459 
Q 500 578 550 709 
L 1069 2088 
Q 1153 2322 1153 2472 
Q 1153 2663 1013 2663 
Q 759 2663 595 2402 
Q 431 2141 353 1819 
Q 341 1778 300 1778 
L 225 1778 
Q 172 1778 172 1838 
L 172 1856 
Q 275 2238 487 2533 
Q 700 2828 1025 2828 
Q 1253 2828 1411 2678 
Q 1569 2528 1569 2297 
Q 1569 2178 1516 2047 
L 997 672 
Q 909 459 909 288 
Q 909 97 1056 97 
Q 1306 97 1473 364 
Q 1641 631 1709 941 
Q 1722 978 1759 978 
L 1838 978 
Q 1863 978 1878 961 
Q 1894 944 1894 922 
Q 1894 916 1888 903 
Q 1800 541 1583 234 
Q 1366 -72 1044 -72 
Q 819 -72 659 83 
Q 500 238 500 459 
z
M 1222 3878 
Q 1222 4013 1334 4122 
Q 1447 4231 1581 4231 
Q 1691 4231 1761 4164 
Q 1831 4097 1831 3994 
Q 1831 3850 1717 3742 
Q 1603 3634 1466 3634 
Q 1363 3634 1292 3704 
Q 1222 3775 1222 3878 
z
" transform="scale(0.015625)"/>
      <path id="Cmr10-2b" d="M 481 1472 
Q 428 1472 393 1512 
Q 359 1553 359 1600 
Q 359 1647 393 1687 
Q 428 1728 481 1728 
L 2363 1728 
L 2363 3616 
Q 2363 3666 2400 3698 
Q 2438 3731 2491 3731 
Q 2538 3731 2578 3698 
Q 2619 3666 2619 3616 
L 2619 1728 
L 4500 1728 
Q 4547 1728 4581 1687 
Q 4616 1647 4616 1600 
Q 4616 1553 4581 1512 
Q 4547 1472 4500 1472 
L 2619 1472 
L 2619 -416 
Q 2619 -466 2578 -498 
Q 2538 -531 2491 -531 
Q 2438 -531 2400 -498 
Q 2363 -466 2363 -416 
L 2363 1472 
L 481 1472 
z
" transform="scale(0.015625)"/>
     </defs>
     <use xlink:href="#Cmr10-a2" transform="translate(0 0.421875)"/>
     <use xlink:href="#Cmb10-72" transform="translate(83.300781 0.421875)"/>
     <use xlink:href="#Cmmi10-69" transform="translate(130.440703 -16.584375) scale(0.7)"/>
     <use xlink:href="#Cmr10-3d" transform="translate(178.47332 0.421875)"/>
     <use xlink:href="#Cmb10-72" transform="translate(273.717461 0.421875)"/>
     <use xlink:href="#Cmmi10-69" transform="translate(320.857383 -16.584375) scale(0.7)"/>
     <use xlink:href="#Cmr10-2b" transform="translate(357.245078 -16.584375) scale(0.7)"/>
     <use xlink:href="#Cmr10-31" transform="translate(423.915977 -16.584375) scale(0.7)"/>
     <use xlink:href="#Cmsy10-a1" transform="translate(482.851914 0.421875)"/>
     <use xlink:href="#Cmb10-72" transform="translate(578.096055 0.421875)"/>
     <use xlink:href="#Cmmi10-69" transform="translate(625.235977 -16.584375) scale(0.7)"/>
    </g>
   </g>
  </g>
 </g>
 <defs>
  <clipPath id="p86726dd04f">
   <rect x="10.497348" y="7.2" width="407.037902" height="207.819646"/>
  </clipPath>
 </defs>
</svg>
