<?xml version="1.0" encoding="utf-8" standalone="no"?>
<!DOCTYPE svg PUBLIC "-//W3C//DTD SVG 1.1//EN"
  "http://www.w3.org/Graphics/SVG/1.1/DTD/svg11.dtd">
<svg xmlns:xlink="http://www.w3.org/1999/xlink" width="453.6pt" height="267.38418pt" viewBox="0 0 453.6 267.38418" xmlns="http://www.w3.org/2000/svg" version="1.1">
 <metadata>
  <rdf:RDF xmlns:dc="http://purl.org/dc/elements/1.1/" xmlns:cc="http://creativecommons.org/ns#" xmlns:rdf="http://www.w3.org/1999/02/22-rdf-syntax-ns#">
   <cc:Work>
    <dc:type rdf:resource="http://purl.org/dc/dcmitype/StillImage"/>
    <dc:date>2025-02-05T11:16:38.223918</dc:date>
    <dc:format>image/svg+xml</dc:format>
    <dc:creator>
     <cc:Agent>
      <dc:title>Matplotlib v3.6.2, https://matplotlib.org/</dc:title>
     </cc:Agent>
    </dc:creator>
   </cc:Work>
  </rdf:RDF>
 </metadata>
 <defs>
  <style type="text/css">*{stroke-linejoin: round; stroke-linecap: butt}</style>
 </defs>
 <g id="figure_1">
  <g id="patch_1">
   <path d="M 0 267.38418 
L 453.6 267.38418 
L 453.6 0 
L 0 0 
z
" style="fill: #ffffff"/>
  </g>
  <g id="axes_1">
   <g id="patch_2">
    <path d="M 7.2 260.18418 
L 446.4 260.18418 
L 446.4 7.2 
L 7.2 7.2 
z
" style="fill: #ffffff"/>
   </g>
   <g id="PathCollection_1">
    <path d="M 149.974873 105.126313 
C 150.813519 105.126313 151.617929 104.793116 152.210941 104.200104 
C 152.803953 103.607092 153.13715 102.802682 153.13715 101.964036 
C 153.13715 101.12539 152.803953 100.32098 152.210941 99.727968 
C 151.617929 99.134956 150.813519 98.801758 149.974873 98.801758 
C 149.136227 98.801758 148.331817 99.134956 147.738805 99.727968 
C 147.145793 100.32098 146.812595 101.12539 146.812595 101.964036 
C 146.812595 102.802682 147.145793 103.607092 147.738805 104.200104 
C 148.331817 104.793116 149.136227 105.126313 149.974873 105.126313 
z
" clip-path="url(#p16e67d14ad)"/>
   </g>
   <g id="PathCollection_2">
    <path d="M 437.953846 258.481377 
C 438.792492 258.481377 439.596902 258.14818 440.189914 257.555167 
C 440.782926 256.962155 441.116124 256.157745 441.116124 255.3191 
C 441.116124 254.480454 440.782926 253.676044 440.189914 253.083032 
C 439.596902 252.490019 438.792492 252.156822 437.953846 252.156822 
C 437.1152 252.156822 436.31079 252.490019 435.717778 253.083032 
C 435.124766 253.676044 434.791568 254.480454 434.791568 255.3191 
C 434.791568 256.157745 435.124766 256.962155 435.717778 257.555167 
C 436.31079 258.14818 437.1152 258.481377 437.953846 258.481377 
z
" clip-path="url(#p16e67d14ad)"/>
   </g>
   <g id="PathCollection_3">
    <path d="M 285.920084 15.227358 
C 286.75873 15.227358 287.56314 14.894161 288.156152 14.301148 
C 288.749164 13.708136 289.082362 12.903726 289.082362 12.06508 
C 289.082362 11.226435 288.749164 10.422025 288.156152 9.829012 
C 287.56314 9.236 286.75873 8.902803 285.920084 8.902803 
C 285.081438 8.902803 284.277028 9.236 283.684016 9.829012 
C 283.091004 10.422025 282.757807 11.226435 282.757807 12.06508 
C 282.757807 12.903726 283.091004 13.708136 283.684016 14.301148 
C 284.277028 14.894161 285.081438 15.227358 285.920084 15.227358 
z
" clip-path="url(#p16e67d14ad)"/>
   </g>
   <g id="matplotlib.axis_1"/>
   <g id="matplotlib.axis_2"/>
   <g id="line2d_1">
    <path d="M 437.953846 255.3191 
L 423.241257 244.280336 
L 408.201472 233.295589 
L 396.247129 224.784931 
L 378.055087 212.217247 
L 365.242361 203.650376 
L 354.0063 196.335997 
L 345.732466 191.070709 
L 328.664921 180.540293 
L 317.128613 173.681211 
L 301.381372 164.665537 
L 283.975656 155.181851 
L 271.262111 148.58572 
L 265.490004 145.685945 
L 248.650145 137.575342 
L 235.11713 131.447274 
L 224.670373 126.963966 
L 213.801119 122.536474 
L 200.60087 117.497511 
L 194.01462 115.127143 
L 183.698075 111.614233 
L 171.331615 107.738236 
L 164.731928 105.825731 
L 152.409979 102.560488 
L 141.509862 100.021453 
L 134.908334 98.652472 
L 125.206419 96.885092 
L 119.537862 95.994076 
L 110.06065 94.75261 
L 102.35158 93.986799 
L 94.020764 93.425356 
L 88.621844 93.220371 
L 81.125587 93.160554 
L 74.261977 93.355631 
L 67.186651 93.834818 
L 60.767521 94.544309 
L 54.608678 95.505822 
L 49.834293 96.468667 
L 44.546745 97.794028 
L 38.975416 99.544715 
L 35.631956 100.809125 
L 32.325315 102.255365 
L 29.358428 103.758123 
L 26.192533 105.640118 
L 23.340282 107.677235 
L 20.94153 109.770659 
L 19.440068 111.362902 
L 17.886403 113.413548 
L 17.171385 114.60604 
L 16.483241 116.059512 
L 15.929133 117.778092 
L 15.649652 119.699979 
L 15.686278 121.136045 
L 15.802602 121.933367 
L 16.273293 123.571591 
L 16.859749 124.817389 
L 18.21989 126.743762 
L 19.578485 128.10163 
L 20.851271 129.106807 
L 22.764195 130.314024 
L 24.983118 131.40728 
L 27.734082 132.447999 
L 31.041204 133.369247 
L 35.309446 134.169212 
L 37.967003 134.494194 
L 41.456957 134.755987 
L 46.876415 134.852005 
L 52.003263 134.652693 
L 57.144979 134.213424 
L 63.183344 133.432757 
L 68.977013 132.447114 
L 75.347374 131.125554 
L 82.07375 129.486768 
L 88.829828 127.612257 
L 95.112937 125.68018 
L 103.315548 122.905236 
L 110.983177 120.071251 
L 118.247795 117.186815 
L 129.129085 112.527965 
L 138.981846 107.982462 
L 150.190894 102.458862 
L 161.865086 96.332068 
L 172.55077 90.408891 
L 182.535864 84.615654 
L 196.359708 76.203543 
L 205.047978 70.693844 
L 217.312746 62.636039 
L 230.192123 53.835159 
L 242.665815 44.993447 
L 257.190654 34.319004 
L 271.848932 23.149118 
L 285.920084 12.06508 
L 285.920084 12.06508 
" clip-path="url(#p16e67d14ad)" style="fill: none; stroke: #1e88e5; stroke-width: 2; stroke-linecap: square"/>
   </g>
   <g id="patch_3">
    <path d="M 222.572683 126.090402 
Q 221.982286 125.846527 223.458581 126.456338 
" clip-path="url(#p16e67d14ad)" style="fill: none; stroke: #1e88e5; stroke-width: 2; stroke-linecap: round"/>
    <path d="M 230.792217 134.895402 
L 223.458581 126.456338 
L 234.610013 125.652868 
L 230.792217 134.895402 
z
" clip-path="url(#p16e67d14ad)" style="fill: #1e88e5; stroke: #1e88e5; stroke-width: 2; stroke-linecap: round"/>
   </g>
   <g id="patch_4">
    <path d="M 53.646281 95.683649 
Q 53.393736 95.731905 55.337524 95.360492 
" clip-path="url(#p16e67d14ad)" style="fill: none; stroke: #1e88e5; stroke-width: 2; stroke-linecap: round"/>
    <path d="M 66.098231 98.394827 
L 55.337524 95.360492 
L 64.221416 88.572527 
L 66.098231 98.394827 
z
" clip-path="url(#p16e67d14ad)" style="fill: #1e88e5; stroke: #1e88e5; stroke-width: 2; stroke-linecap: round"/>
   </g>
   <g id="patch_5">
    <path d="M 210.916762 66.878319 
Q 211.491956 66.500013 210.198935 67.350435 
" clip-path="url(#p16e67d14ad)" style="fill: none; stroke: #1e88e5; stroke-width: 2; stroke-linecap: round"/>
    <path d="M 199.096504 68.668016 
L 210.198935 67.350435 
L 204.591542 77.022929 
L 199.096504 68.668016 
z
" clip-path="url(#p16e67d14ad)" style="fill: #1e88e5; stroke: #1e88e5; stroke-width: 2; stroke-linecap: round"/>
   </g>
   <g id="text_1">
    <g clip-path="url(#p16e67d14ad)">
     <!-- $C_1$ -->
     <g style="fill: #1e88e5" transform="translate(220.563635 166.239064) scale(0.2 -0.2)">
      <defs>
       <path id="Cmmi10-43" d="M 934 1381 
Q 934 997 1082 705 
Q 1231 413 1514 248 
Q 1797 84 2181 84 
Q 2584 84 2957 290 
Q 3331 497 3595 842 
Q 3859 1188 3956 1575 
Q 3969 1613 4006 1613 
L 4084 1613 
Q 4109 1613 4125 1595 
Q 4141 1578 4141 1556 
Q 4141 1550 4134 1538 
Q 4025 1094 3711 705 
Q 3397 316 2959 87 
Q 2522 -141 2059 -141 
Q 1559 -141 1162 84 
Q 766 309 545 709 
Q 325 1109 325 1613 
Q 325 2150 565 2676 
Q 806 3203 1212 3614 
Q 1619 4025 2139 4269 
Q 2659 4513 3194 4513 
Q 3406 4513 3600 4448 
Q 3794 4384 3959 4253 
Q 4125 4122 4231 3950 
L 4738 4500 
Q 4738 4513 4769 4513 
L 4806 4513 
Q 4831 4513 4847 4491 
Q 4863 4469 4863 4447 
L 4428 2719 
Q 4428 2675 4378 2675 
L 4263 2675 
Q 4213 2675 4213 2747 
Q 4238 2888 4238 3084 
Q 4238 3397 4131 3673 
Q 4025 3950 3801 4119 
Q 3578 4288 3256 4288 
Q 2734 4288 2300 4025 
Q 1866 3763 1564 3336 
Q 1263 2909 1098 2389 
Q 934 1869 934 1381 
z
" transform="scale(0.015625)"/>
       <path id="Cmr10-31" d="M 594 0 
L 594 225 
Q 1394 225 1394 428 
L 1394 3788 
Q 1063 3628 556 3628 
L 556 3853 
Q 1341 3853 1741 4263 
L 1831 4263 
Q 1853 4263 1873 4245 
Q 1894 4228 1894 4206 
L 1894 428 
Q 1894 225 2694 225 
L 2694 0 
L 594 0 
z
" transform="scale(0.015625)"/>
      </defs>
      <use xlink:href="#Cmmi10-43" transform="translate(0 0.484375)"/>
      <use xlink:href="#Cmr10-31" transform="translate(71.386719 -16.521875) scale(0.7)"/>
     </g>
    </g>
   </g>
   <g id="text_2">
    <g clip-path="url(#p16e67d14ad)">
     <!-- $C_2$ -->
     <g style="fill: #1e88e5" transform="translate(71.908402 115.561144) scale(0.2 -0.2)">
      <defs>
       <path id="Cmr10-32" d="M 319 0 
L 319 172 
Q 319 188 331 206 
L 1325 1306 
Q 1550 1550 1690 1715 
Q 1831 1881 1968 2097 
Q 2106 2313 2186 2536 
Q 2266 2759 2266 3009 
Q 2266 3272 2169 3511 
Q 2072 3750 1880 3894 
Q 1688 4038 1416 4038 
Q 1138 4038 916 3870 
Q 694 3703 603 3438 
Q 628 3444 672 3444 
Q 816 3444 917 3347 
Q 1019 3250 1019 3097 
Q 1019 2950 917 2848 
Q 816 2747 672 2747 
Q 522 2747 420 2851 
Q 319 2956 319 3097 
Q 319 3338 409 3548 
Q 500 3759 670 3923 
Q 841 4088 1055 4175 
Q 1269 4263 1509 4263 
Q 1875 4263 2190 4108 
Q 2506 3953 2690 3670 
Q 2875 3388 2875 3009 
Q 2875 2731 2753 2481 
Q 2631 2231 2440 2026 
Q 2250 1822 1953 1562 
Q 1656 1303 1563 1216 
L 838 519 
L 1453 519 
Q 1906 519 2211 526 
Q 2516 534 2534 550 
Q 2609 631 2688 1141 
L 2875 1141 
L 2694 0 
L 319 0 
z
" transform="scale(0.015625)"/>
      </defs>
      <use xlink:href="#Cmmi10-43" transform="translate(0 0.484375)"/>
      <use xlink:href="#Cmr10-32" transform="translate(71.386719 -16.521875) scale(0.7)"/>
     </g>
    </g>
   </g>
   <g id="text_3">
    <g clip-path="url(#p16e67d14ad)">
     <!-- $C_3$ -->
     <g style="fill: #1e88e5" transform="translate(193.535411 47.990583) scale(0.2 -0.2)">
      <defs>
       <path id="Cmr10-33" d="M 609 494 
Q 759 275 1012 169 
Q 1266 63 1556 63 
Q 1928 63 2084 380 
Q 2241 697 2241 1100 
Q 2241 1281 2208 1462 
Q 2175 1644 2097 1800 
Q 2019 1956 1883 2050 
Q 1747 2144 1550 2144 
L 1125 2144 
Q 1069 2144 1069 2203 
L 1069 2259 
Q 1069 2309 1125 2309 
L 1478 2338 
Q 1703 2338 1851 2506 
Q 2000 2675 2069 2917 
Q 2138 3159 2138 3378 
Q 2138 3684 1994 3881 
Q 1850 4078 1556 4078 
Q 1313 4078 1091 3986 
Q 869 3894 738 3706 
Q 750 3709 759 3711 
Q 769 3713 781 3713 
Q 925 3713 1022 3613 
Q 1119 3513 1119 3372 
Q 1119 3234 1022 3134 
Q 925 3034 781 3034 
Q 641 3034 541 3134 
Q 441 3234 441 3372 
Q 441 3647 606 3850 
Q 772 4053 1033 4158 
Q 1294 4263 1556 4263 
Q 1750 4263 1965 4205 
Q 2181 4147 2356 4039 
Q 2531 3931 2642 3762 
Q 2753 3594 2753 3378 
Q 2753 3109 2633 2881 
Q 2513 2653 2303 2487 
Q 2094 2322 1844 2241 
Q 2122 2188 2372 2031 
Q 2622 1875 2773 1631 
Q 2925 1388 2925 1106 
Q 2925 753 2731 467 
Q 2538 181 2222 20 
Q 1906 -141 1556 -141 
Q 1256 -141 954 -26 
Q 653 88 461 316 
Q 269 544 269 863 
Q 269 1022 375 1128 
Q 481 1234 641 1234 
Q 744 1234 830 1186 
Q 916 1138 964 1050 
Q 1013 963 1013 863 
Q 1013 706 903 600 
Q 794 494 641 494 
L 609 494 
z
" transform="scale(0.015625)"/>
      </defs>
      <use xlink:href="#Cmmi10-43" transform="translate(0 0.484375)"/>
      <use xlink:href="#Cmr10-33" transform="translate(71.386719 -16.521875) scale(0.7)"/>
     </g>
    </g>
   </g>
  </g>
 </g>
 <defs>
  <clipPath id="p16e67d14ad">
   <rect x="7.2" y="7.2" width="439.2" height="252.98418"/>
  </clipPath>
 </defs>
</svg>
