<?xml version="1.0" encoding="utf-8" standalone="no"?>
<!DOCTYPE svg PUBLIC "-//W3C//DTD SVG 1.1//EN"
  "http://www.w3.org/Graphics/SVG/1.1/DTD/svg11.dtd">
<svg xmlns:xlink="http://www.w3.org/1999/xlink" width="452.907598pt" height="230.317443pt" viewBox="0 0 452.907598 230.317443" xmlns="http://www.w3.org/2000/svg" version="1.1">
 <metadata>
  <rdf:RDF xmlns:dc="http://purl.org/dc/elements/1.1/" xmlns:cc="http://creativecommons.org/ns#" xmlns:rdf="http://www.w3.org/1999/02/22-rdf-syntax-ns#">
   <cc:Work>
    <dc:type rdf:resource="http://purl.org/dc/dcmitype/StillImage"/>
    <dc:date>2024-12-16T16:35:39.997159</dc:date>
    <dc:format>image/svg+xml</dc:format>
    <dc:creator>
     <cc:Agent>
      <dc:title>Matplotlib v3.6.2, https://matplotlib.org/</dc:title>
     </cc:Agent>
    </dc:creator>
   </cc:Work>
  </rdf:RDF>
 </metadata>
 <defs>
  <style type="text/css">*{stroke-linejoin: round; stroke-linecap: butt}</style>
 </defs>
 <g id="figure_1">
  <g id="patch_1">
   <path d="M 0 230.317443 
L 452.907598 230.317443 
L 452.907598 0 
L 0 0 
z
" style="fill: #ffffff"/>
  </g>
  <g id="axes_1">
   <g id="patch_2">
    <path d="M 10.497348 215.016253 
L 417.53525 215.016253 
L 417.53525 7.2 
L 10.497348 7.2 
z
" style="fill: #ffffff"/>
   </g>
   <g id="PathCollection_1">
    <path d="M 86.155131 198.273078 
C 87.092766 198.273078 87.992123 197.900552 88.655131 197.237544 
C 89.318139 196.574536 89.690665 195.675179 89.690665 194.737544 
C 89.690665 193.79991 89.318139 192.900552 88.655131 192.237544 
C 87.992123 191.574536 87.092766 191.20201 86.155131 191.20201 
C 85.217497 191.20201 84.318139 191.574536 83.655131 192.237544 
C 82.992123 192.900552 82.619597 193.79991 82.619597 194.737544 
C 82.619597 195.675179 82.992123 196.574536 83.655131 197.237544 
C 84.318139 197.900552 85.217497 198.273078 86.155131 198.273078 
z
" clip-path="url(#p234fdb3367)"/>
   </g>
   <g id="PathCollection_2">
    <path d="M 34.607242 160.899374 
C 35.544877 160.899374 36.444235 160.526848 37.107242 159.86384 
C 37.77025 159.200833 38.142776 158.301475 38.142776 157.36384 
C 38.142776 156.426206 37.77025 155.526848 37.107242 154.86384 
C 36.444235 154.200833 35.544877 153.828306 34.607242 153.828306 
C 33.669608 153.828306 32.77025 154.200833 32.107242 154.86384 
C 31.444235 155.526848 31.071709 156.426206 31.071709 157.36384 
C 31.071709 158.301475 31.444235 159.200833 32.107242 159.86384 
C 32.77025 160.526848 33.669608 160.899374 34.607242 160.899374 
z
" clip-path="url(#p234fdb3367)"/>
   </g>
   <g id="PathCollection_3">
    <path d="M 39.793612 112.03123 
C 40.731247 112.03123 41.630605 111.658703 42.293612 110.995696 
C 42.95662 110.332688 43.329146 109.43333 43.329146 108.495696 
C 43.329146 107.558061 42.95662 106.658703 42.293612 105.995696 
C 41.630605 105.332688 40.731247 104.960162 39.793612 104.960162 
C 38.855978 104.960162 37.95662 105.332688 37.293612 105.995696 
C 36.630605 106.658703 36.258079 107.558061 36.258079 108.495696 
C 36.258079 109.43333 36.630605 110.332688 37.293612 110.995696 
C 37.95662 111.658703 38.855978 112.03123 39.793612 112.03123 
z
" clip-path="url(#p234fdb3367)"/>
   </g>
   <g id="PathCollection_4">
    <path d="M 91.724475 63.459142 
C 92.662109 63.459142 93.561467 63.086616 94.224475 62.423608 
C 94.887483 61.760601 95.260009 60.861243 95.260009 59.923608 
C 95.260009 58.985974 94.887483 58.086616 94.224475 57.423608 
C 93.561467 56.760601 92.662109 56.388074 91.724475 56.388074 
C 90.78684 56.388074 89.887483 56.760601 89.224475 57.423608 
C 88.561467 58.086616 88.188941 58.985974 88.188941 59.923608 
C 88.188941 60.861243 88.561467 61.760601 89.224475 62.423608 
C 89.887483 63.086616 90.78684 63.459142 91.724475 63.459142 
z
" clip-path="url(#p234fdb3367)"/>
   </g>
   <g id="PathCollection_5">
    <path d="M 261.725907 14.732164 
C 262.663542 14.732164 263.562899 14.359638 264.225907 13.69663 
C 264.888915 13.033622 265.261441 12.134264 265.261441 11.19663 
C 265.261441 10.258995 264.888915 9.359638 264.225907 8.69663 
C 263.562899 8.033622 262.663542 7.661096 261.725907 7.661096 
C 260.788272 7.661096 259.888915 8.033622 259.225907 8.69663 
C 258.562899 9.359638 258.190373 10.258995 258.190373 11.19663 
C 258.190373 12.134264 258.562899 13.033622 259.225907 13.69663 
C 259.888915 14.359638 260.788272 14.732164 261.725907 14.732164 
z
" clip-path="url(#p234fdb3367)"/>
   </g>
   <g id="PathCollection_6">
    <path d="M 340.25026 29.343173 
C 341.187894 29.343173 342.087252 28.970647 342.75026 28.307639 
C 343.413267 27.644632 343.785794 26.745274 343.785794 25.807639 
C 343.785794 24.870005 343.413267 23.970647 342.75026 23.307639 
C 342.087252 22.644632 341.187894 22.272106 340.25026 22.272106 
C 339.312625 22.272106 338.413267 22.644632 337.75026 23.307639 
C 337.087252 23.970647 336.714726 24.870005 336.714726 25.807639 
C 336.714726 26.745274 337.087252 27.644632 337.75026 28.307639 
C 338.413267 28.970647 339.312625 29.343173 340.25026 29.343173 
z
" clip-path="url(#p234fdb3367)"/>
   </g>
   <g id="PathCollection_7">
    <path d="M 393.425355 69.472522 
C 394.36299 69.472522 395.262348 69.099996 395.925355 68.436989 
C 396.588363 67.773981 396.960889 66.874623 396.960889 65.936989 
C 396.960889 64.999354 396.588363 64.099996 395.925355 63.436989 
C 395.262348 62.773981 394.36299 62.401455 393.425355 62.401455 
C 392.487721 62.401455 391.588363 62.773981 390.925355 63.436989 
C 390.262348 64.099996 389.889821 64.999354 389.889821 65.936989 
C 389.889821 66.874623 390.262348 67.773981 390.925355 68.436989 
C 391.588363 69.099996 392.487721 69.472522 393.425355 69.472522 
z
" clip-path="url(#p234fdb3367)"/>
   </g>
   <g id="matplotlib.axis_1"/>
   <g id="matplotlib.axis_2"/>
   <g id="line2d_1">
    <path d="M 393.425355 65.936989 
L 389.796821 61.271206 
L 387.126747 58.157551 
L 383.279344 54.061455 
L 380.442413 51.292853 
L 376.789076 47.996748 
L 373.330221 45.120684 
L 368.454055 41.416518 
L 363.692562 38.144006 
L 359.580033 35.558008 
L 355.675202 33.287621 
L 351.061031 30.815529 
L 347.038455 28.830822 
L 341.57384 26.36677 
L 335.619352 23.959828 
L 331.768435 22.545281 
L 326.782205 20.867719 
L 319.923032 18.824446 
L 311.811824 16.771939 
L 302.319865 14.826908 
L 295.112967 13.653045 
L 285.784235 12.493144 
L 279.673529 11.940545 
L 270.390417 11.39719 
L 261.90256 11.197861 
L 253.271598 11.272826 
L 242.734928 11.727805 
L 236.030907 12.218241 
L 228.606196 12.93884 
L 220.229367 13.97125 
L 212.199176 15.175686 
L 205.754644 16.292573 
L 196.172404 18.198898 
L 187.463707 20.185749 
L 180.954933 21.829392 
L 169.625697 25.017681 
L 162.109884 27.366213 
L 154.449974 29.956307 
L 145.764674 33.140669 
L 137.055104 36.609153 
L 127.759996 40.631822 
L 119.783219 44.365911 
L 115.688736 46.390324 
L 108.879048 49.929841 
L 104.421519 52.370734 
L 97.636017 56.290265 
L 90.121019 60.94711 
L 84.034782 64.992678 
L 76.849518 70.133025 
L 72.399956 73.544209 
L 67.095993 77.87733 
L 61.845153 82.504746 
L 56.992309 87.146413 
L 53.167359 91.11114 
L 49.091607 95.712444 
L 45.472288 100.221627 
L 42.743235 103.972603 
L 40.548214 107.282193 
L 38.894163 110.002769 
L 36.374198 114.673307 
L 34.839869 117.975401 
L 33.220871 122.089742 
L 32.084952 125.662018 
L 31.015019 130.20069 
L 30.448382 134.037477 
L 30.20487 137.863587 
L 30.276088 141.366209 
L 30.566984 144.337122 
L 31.189115 147.813442 
L 32.0788 151.123691 
L 33.203393 154.256262 
L 34.539074 157.226877 
L 36.422791 160.646565 
L 38.317923 163.528144 
L 40.134139 165.937667 
L 43.203472 169.465227 
L 45.983857 172.234748 
L 49.647137 175.437809 
L 53.169096 178.154858 
L 56.192338 180.264225 
L 60.887894 183.212997 
L 64.577334 185.299823 
L 69.498767 187.824814 
L 72.919976 189.431266 
L 79.508736 192.235422 
L 86.155131 194.737544 
L 86.155131 194.737544 
" clip-path="url(#p234fdb3367)" style="fill: none; stroke: #000000; stroke-width: 2; stroke-linecap: square"/>
   </g>
   <g id="patch_3">
    <path d="M 86.155131 194.737544 
Q 60.381187 176.050692 36.417562 158.676374 
" clip-path="url(#p234fdb3367)" style="fill: none; stroke: #1e88e5; stroke-width: 2; stroke-linecap: round"/>
    <path d="M 41.578641 168.594199 
L 36.417562 158.676374 
L 47.44847 160.498206 
L 41.578641 168.594199 
z
" clip-path="url(#p234fdb3367)" style="fill: #1e88e5; stroke: #1e88e5; stroke-width: 2; stroke-linecap: round"/>
   </g>
   <g id="patch_4">
    <path d="M 34.607242 157.36384 
Q 37.200427 132.929768 39.557624 110.719276 
" clip-path="url(#p234fdb3367)" style="fill: none; stroke: #1e88e5; stroke-width: 2; stroke-linecap: round"/>
    <path d="M 33.530176 120.135744 
L 39.557624 110.719276 
L 43.474329 121.191115 
L 33.530176 120.135744 
z
" clip-path="url(#p234fdb3367)" style="fill: #1e88e5; stroke: #1e88e5; stroke-width: 2; stroke-linecap: round"/>
   </g>
   <g id="patch_5">
    <path d="M 39.793612 108.495696 
Q 65.759044 84.209652 90.091407 61.451053 
" clip-path="url(#p234fdb3367)" style="fill: none; stroke: #1e88e5; stroke-width: 2; stroke-linecap: round"/>
    <path d="M 79.372633 64.630343 
L 90.091407 61.451053 
L 86.203574 71.933646 
L 79.372633 64.630343 
z
" clip-path="url(#p234fdb3367)" style="fill: #1e88e5; stroke: #1e88e5; stroke-width: 2; stroke-linecap: round"/>
   </g>
   <g id="patch_6">
    <path d="M 91.724475 59.923608 
Q 176.725191 35.560119 259.576393 11.812738 
" clip-path="url(#p234fdb3367)" style="fill: none; stroke: #d81b60; stroke-width: 2; stroke-linecap: round"/>
    <path d="M 248.585814 9.7616 
L 259.576393 11.812738 
L 251.341135 19.374519 
L 248.585814 9.7616 
z
" clip-path="url(#p234fdb3367)" style="fill: #d81b60; stroke: #d81b60; stroke-width: 2; stroke-linecap: round"/>
   </g>
   <g id="patch_7">
    <path d="M 261.725907 11.19663 
Q 300.988083 18.502135 338.051923 25.398595 
" clip-path="url(#p234fdb3367)" style="fill: none; stroke: #1e88e5; stroke-width: 2; stroke-linecap: round"/>
    <path d="M 329.135314 18.653665 
L 338.051923 25.398595 
L 327.306014 28.484925 
L 329.135314 18.653665 
z
" clip-path="url(#p234fdb3367)" style="fill: #1e88e5; stroke: #1e88e5; stroke-width: 2; stroke-linecap: round"/>
   </g>
   <g id="patch_8">
    <path d="M 340.25026 25.807639 
Q 366.837807 45.872314 391.640505 64.590026 
" clip-path="url(#p234fdb3367)" style="fill: none; stroke: #1e88e5; stroke-width: 2; stroke-linecap: round"/>
    <path d="M 386.670312 54.575177 
L 391.640505 64.590026 
L 380.646511 62.557271 
L 386.670312 54.575177 
z
" clip-path="url(#p234fdb3367)" style="fill: #1e88e5; stroke: #1e88e5; stroke-width: 2; stroke-linecap: round"/>
   </g>
   <g id="text_1">
    <!-- $P=\mathbf{r}_0$ -->
    <g transform="translate(61.046252 217.918224) scale(0.25 -0.25)">
     <defs>
      <path id="Cmmi10-50" d="M 313 0 
Q 250 0 250 84 
Q 253 100 262 139 
Q 272 178 289 201 
Q 306 225 331 225 
Q 722 225 878 269 
Q 959 297 997 441 
L 1875 3956 
Q 1888 4019 1888 4044 
Q 1888 4113 1813 4122 
Q 1691 4147 1350 4147 
Q 1288 4147 1288 4231 
Q 1291 4247 1300 4286 
Q 1309 4325 1326 4348 
Q 1344 4372 1369 4372 
L 3578 4372 
Q 3881 4372 4165 4264 
Q 4450 4156 4631 3934 
Q 4813 3713 4813 3397 
Q 4813 2991 4527 2672 
Q 4241 2353 3814 2175 
Q 3388 1997 2988 1997 
L 1947 1997 
L 1556 416 
Q 1544 353 1544 325 
Q 1544 300 1551 283 
Q 1559 266 1573 261 
Q 1588 256 1619 250 
Q 1741 225 2081 225 
Q 2144 225 2144 141 
Q 2122 50 2109 25 
Q 2097 0 2034 0 
L 313 0 
z
M 1978 2188 
L 2875 2188 
Q 3497 2188 3822 2522 
Q 3988 2688 4092 3000 
Q 4197 3313 4197 3566 
Q 4197 3881 3956 4014 
Q 3716 4147 3359 4147 
L 2747 4147 
Q 2572 4147 2515 4117 
Q 2459 4088 2413 3928 
L 1978 2188 
z
" transform="scale(0.015625)"/>
      <path id="Cmr10-3d" d="M 481 850 
Q 428 850 393 890 
Q 359 931 359 978 
Q 359 1031 393 1068 
Q 428 1106 481 1106 
L 4500 1106 
Q 4547 1106 4581 1068 
Q 4616 1031 4616 978 
Q 4616 931 4581 890 
Q 4547 850 4500 850 
L 481 850 
z
M 481 2094 
Q 428 2094 393 2131 
Q 359 2169 359 2222 
Q 359 2269 393 2309 
Q 428 2350 481 2350 
L 4500 2350 
Q 4547 2350 4581 2309 
Q 4616 2269 4616 2222 
Q 4616 2169 4581 2131 
Q 4547 2094 4500 2094 
L 481 2094 
z
" transform="scale(0.015625)"/>
      <path id="Cmb10-72" d="M 91 0 
L 91 325 
L 531 325 
L 531 2322 
Q 531 2503 91 2503 
L 91 2828 
L 1178 2881 
L 1178 2356 
Q 1269 2594 1436 2737 
Q 1603 2881 1838 2881 
Q 2006 2881 2173 2822 
Q 2341 2763 2450 2641 
Q 2559 2519 2559 2344 
Q 2559 2178 2443 2059 
Q 2328 1941 2156 1941 
Q 1984 1941 1868 2059 
Q 1753 2178 1753 2344 
Q 1753 2513 1856 2625 
L 1838 2625 
Q 1488 2625 1367 2248 
Q 1247 1872 1247 1416 
L 1247 325 
L 1806 325 
L 1806 0 
L 91 0 
z
" transform="scale(0.015625)"/>
      <path id="Cmr10-30" d="M 1600 -141 
Q 816 -141 533 504 
Q 250 1150 250 2041 
Q 250 2597 351 3087 
Q 453 3578 754 3920 
Q 1056 4263 1600 4263 
Q 2022 4263 2290 4056 
Q 2559 3850 2700 3523 
Q 2841 3197 2892 2823 
Q 2944 2450 2944 2041 
Q 2944 1491 2842 1011 
Q 2741 531 2444 195 
Q 2147 -141 1600 -141 
z
M 1600 25 
Q 1956 25 2131 390 
Q 2306 756 2347 1200 
Q 2388 1644 2388 2144 
Q 2388 2625 2347 3031 
Q 2306 3438 2132 3767 
Q 1959 4097 1600 4097 
Q 1238 4097 1063 3765 
Q 888 3434 847 3029 
Q 806 2625 806 2144 
Q 806 1788 823 1472 
Q 841 1156 916 820 
Q 991 484 1158 254 
Q 1325 25 1600 25 
z
" transform="scale(0.015625)"/>
     </defs>
     <use xlink:href="#Cmmi10-50" transform="translate(0 0.6875)"/>
     <use xlink:href="#Cmr10-3d" transform="translate(81.767578 0.6875)"/>
     <use xlink:href="#Cmb10-72" transform="translate(177.011719 0.6875)"/>
     <use xlink:href="#Cmr10-30" transform="translate(224.151641 -16.31875) scale(0.7)"/>
    </g>
   </g>
   <g id="text_2">
    <!-- $\mathbf{r}_1$ -->
    <g transform="translate(7.2 172.403399) scale(0.25 -0.25)">
     <defs>
      <path id="Cmr10-31" d="M 594 0 
L 594 225 
Q 1394 225 1394 428 
L 1394 3788 
Q 1063 3628 556 3628 
L 556 3853 
Q 1341 3853 1741 4263 
L 1831 4263 
Q 1853 4263 1873 4245 
Q 1894 4228 1894 4206 
L 1894 428 
Q 1894 225 2694 225 
L 2694 0 
L 594 0 
z
" transform="scale(0.015625)"/>
     </defs>
     <use xlink:href="#Cmb10-72" transform="translate(0 0.984375)"/>
     <use xlink:href="#Cmr10-31" transform="translate(47.139922 -16.021875) scale(0.7)"/>
    </g>
   </g>
   <g id="text_3">
    <!-- $\mathbf{r}_2$ -->
    <g transform="translate(44.950855 115.394133) scale(0.25 -0.25)">
     <defs>
      <path id="Cmr10-32" d="M 319 0 
L 319 172 
Q 319 188 331 206 
L 1325 1306 
Q 1550 1550 1690 1715 
Q 1831 1881 1968 2097 
Q 2106 2313 2186 2536 
Q 2266 2759 2266 3009 
Q 2266 3272 2169 3511 
Q 2072 3750 1880 3894 
Q 1688 4038 1416 4038 
Q 1138 4038 916 3870 
Q 694 3703 603 3438 
Q 628 3444 672 3444 
Q 816 3444 917 3347 
Q 1019 3250 1019 3097 
Q 1019 2950 917 2848 
Q 816 2747 672 2747 
Q 522 2747 420 2851 
Q 319 2956 319 3097 
Q 319 3338 409 3548 
Q 500 3759 670 3923 
Q 841 4088 1055 4175 
Q 1269 4263 1509 4263 
Q 1875 4263 2190 4108 
Q 2506 3953 2690 3670 
Q 2875 3388 2875 3009 
Q 2875 2731 2753 2481 
Q 2631 2231 2440 2026 
Q 2250 1822 1953 1562 
Q 1656 1303 1563 1216 
L 838 519 
L 1453 519 
Q 1906 519 2211 526 
Q 2516 534 2534 550 
Q 2609 631 2688 1141 
L 2875 1141 
L 2694 0 
L 319 0 
z
" transform="scale(0.015625)"/>
     </defs>
     <use xlink:href="#Cmb10-72" transform="translate(0 0.984375)"/>
     <use xlink:href="#Cmr10-32" transform="translate(47.139922 -16.021875) scale(0.7)"/>
    </g>
   </g>
   <g id="text_4">
    <!-- $\mathbf{r}_{n-2}$ -->
    <g transform="translate(235.475907 34.37731) scale(0.25 -0.25)">
     <defs>
      <path id="Cmmi10-6e" d="M 494 109 
Q 494 147 500 166 
L 978 2075 
Q 1025 2253 1025 2388 
Q 1025 2663 838 2663 
Q 638 2663 541 2423 
Q 444 2184 353 1819 
Q 353 1800 334 1789 
Q 316 1778 300 1778 
L 225 1778 
Q 203 1778 187 1801 
Q 172 1825 172 1844 
Q 241 2122 305 2315 
Q 369 2509 505 2668 
Q 641 2828 844 2828 
Q 1084 2828 1268 2676 
Q 1453 2525 1453 2291 
Q 1644 2541 1900 2684 
Q 2156 2828 2444 2828 
Q 2672 2828 2837 2750 
Q 3003 2672 3095 2514 
Q 3188 2356 3188 2138 
Q 3188 1875 3070 1503 
Q 2953 1131 2778 672 
Q 2688 463 2688 288 
Q 2688 97 2834 97 
Q 3084 97 3251 365 
Q 3419 634 3488 941 
Q 3500 978 3541 978 
L 3616 978 
Q 3641 978 3658 962 
Q 3675 947 3675 922 
Q 3675 916 3669 903 
Q 3581 541 3364 234 
Q 3147 -72 2822 -72 
Q 2597 -72 2437 83 
Q 2278 238 2278 459 
Q 2278 578 2328 709 
Q 2409 919 2514 1209 
Q 2619 1500 2686 1765 
Q 2753 2031 2753 2234 
Q 2753 2413 2679 2538 
Q 2606 2663 2431 2663 
Q 2197 2663 2000 2559 
Q 1803 2456 1656 2286 
Q 1509 2116 1388 1881 
L 953 141 
Q 931 53 854 -9 
Q 778 -72 684 -72 
Q 606 -72 550 -22 
Q 494 28 494 109 
z
" transform="scale(0.015625)"/>
      <path id="Cmsy10-a1" d="M 653 1472 
Q 600 1472 565 1512 
Q 531 1553 531 1600 
Q 531 1647 565 1687 
Q 600 1728 653 1728 
L 4325 1728 
Q 4375 1728 4408 1687 
Q 4441 1647 4441 1600 
Q 4441 1553 4408 1512 
Q 4375 1472 4325 1472 
L 653 1472 
z
" transform="scale(0.015625)"/>
     </defs>
     <use xlink:href="#Cmb10-72" transform="translate(0 0.984375)"/>
     <use xlink:href="#Cmmi10-6e" transform="translate(47.139922 -16.021875) scale(0.7)"/>
     <use xlink:href="#Cmsy10-a1" transform="translate(101.437773 -16.021875) scale(0.7)"/>
     <use xlink:href="#Cmr10-32" transform="translate(168.108672 -16.021875) scale(0.7)"/>
    </g>
   </g>
   <g id="text_5">
    <!-- $\mathbf{r}_{n-1}$ -->
    <g transform="translate(314.00026 48.988319) scale(0.25 -0.25)">
     <use xlink:href="#Cmb10-72" transform="translate(0 0.984375)"/>
     <use xlink:href="#Cmmi10-6e" transform="translate(47.139922 -16.021875) scale(0.7)"/>
     <use xlink:href="#Cmsy10-a1" transform="translate(101.437773 -16.021875) scale(0.7)"/>
     <use xlink:href="#Cmr10-31" transform="translate(168.108672 -16.021875) scale(0.7)"/>
    </g>
   </g>
   <g id="text_6">
    <!-- $Q=\mathbf{r}_{n}$ -->
    <g transform="translate(373.707598 89.117668) scale(0.25 -0.25)">
     <defs>
      <path id="Cmmi10-51" d="M 1947 -141 
Q 1466 -141 1094 79 
Q 722 300 520 692 
Q 319 1084 319 1563 
Q 319 2259 714 2950 
Q 1109 3641 1756 4077 
Q 2403 4513 3109 4513 
Q 3475 4513 3778 4381 
Q 4081 4250 4290 4017 
Q 4500 3784 4614 3471 
Q 4728 3159 4728 2791 
Q 4728 2366 4581 1936 
Q 4434 1506 4171 1136 
Q 3909 766 3559 484 
Q 3209 203 2809 38 
Q 2850 -256 2934 -425 
Q 3019 -594 3256 -594 
Q 3506 -594 3726 -412 
Q 3947 -231 4006 13 
Q 4019 72 4078 72 
Q 4147 72 4147 -13 
Q 4100 -219 4008 -430 
Q 3916 -641 3786 -823 
Q 3656 -1006 3478 -1123 
Q 3300 -1241 3084 -1241 
Q 2547 -1241 2547 -550 
Q 2547 -509 2562 -332 
Q 2578 -156 2578 -44 
Q 2269 -141 1947 -141 
z
M 1709 300 
Q 1709 44 1991 44 
Q 2275 44 2591 184 
L 2591 244 
Q 2591 503 2509 648 
Q 2428 794 2194 794 
Q 2078 794 1964 723 
Q 1850 653 1779 539 
Q 1709 425 1709 300 
z
M 1544 288 
Q 1544 456 1637 612 
Q 1731 769 1881 864 
Q 2031 959 2203 959 
Q 2481 959 2607 771 
Q 2734 584 2778 281 
Q 3188 525 3500 978 
Q 3813 1431 3977 1973 
Q 4141 2516 4141 3003 
Q 4141 3356 4023 3656 
Q 3906 3956 3664 4140 
Q 3422 4325 3066 4325 
Q 2722 4325 2403 4156 
Q 2084 3988 1813 3706 
Q 1550 3434 1342 3032 
Q 1134 2631 1021 2193 
Q 909 1756 909 1356 
Q 909 947 1068 612 
Q 1228 278 1569 128 
Q 1544 194 1544 288 
z
" transform="scale(0.015625)"/>
     </defs>
     <use xlink:href="#Cmmi10-51" transform="translate(0 0.484375)"/>
     <use xlink:href="#Cmr10-3d" transform="translate(96.5625 0.484375)"/>
     <use xlink:href="#Cmb10-72" transform="translate(191.806641 0.484375)"/>
     <use xlink:href="#Cmmi10-6e" transform="translate(238.946562 -16.521875) scale(0.7)"/>
    </g>
   </g>
   <g id="text_7">
    <!-- $\Delta \mathbf{r}_i=\mathbf{r}_{i+1}-\mathbf{r}_i$ -->
    <g style="fill: #d81b60" transform="translate(85.933272 72.216442) scale(0.25 -0.25)">
     <defs>
      <path id="Cmr10-a2" d="M 347 0 
Q 294 0 294 50 
Q 297 56 298 59 
Q 300 63 300 72 
L 2503 4513 
Q 2531 4581 2619 4581 
L 2706 4581 
Q 2794 4581 2822 4513 
L 5025 72 
Q 5028 66 5029 61 
Q 5031 56 5031 50 
Q 5031 0 4978 0 
L 347 0 
z
M 769 513 
L 4141 513 
L 2456 3909 
L 769 513 
z
" transform="scale(0.015625)"/>
      <path id="Cmmi10-69" d="M 500 459 
Q 500 578 550 709 
L 1069 2088 
Q 1153 2322 1153 2472 
Q 1153 2663 1013 2663 
Q 759 2663 595 2402 
Q 431 2141 353 1819 
Q 341 1778 300 1778 
L 225 1778 
Q 172 1778 172 1838 
L 172 1856 
Q 275 2238 487 2533 
Q 700 2828 1025 2828 
Q 1253 2828 1411 2678 
Q 1569 2528 1569 2297 
Q 1569 2178 1516 2047 
L 997 672 
Q 909 459 909 288 
Q 909 97 1056 97 
Q 1306 97 1473 364 
Q 1641 631 1709 941 
Q 1722 978 1759 978 
L 1838 978 
Q 1863 978 1878 961 
Q 1894 944 1894 922 
Q 1894 916 1888 903 
Q 1800 541 1583 234 
Q 1366 -72 1044 -72 
Q 819 -72 659 83 
Q 500 238 500 459 
z
M 1222 3878 
Q 1222 4013 1334 4122 
Q 1447 4231 1581 4231 
Q 1691 4231 1761 4164 
Q 1831 4097 1831 3994 
Q 1831 3850 1717 3742 
Q 1603 3634 1466 3634 
Q 1363 3634 1292 3704 
Q 1222 3775 1222 3878 
z
" transform="scale(0.015625)"/>
      <path id="Cmr10-2b" d="M 481 1472 
Q 428 1472 393 1512 
Q 359 1553 359 1600 
Q 359 1647 393 1687 
Q 428 1728 481 1728 
L 2363 1728 
L 2363 3616 
Q 2363 3666 2400 3698 
Q 2438 3731 2491 3731 
Q 2538 3731 2578 3698 
Q 2619 3666 2619 3616 
L 2619 1728 
L 4500 1728 
Q 4547 1728 4581 1687 
Q 4616 1647 4616 1600 
Q 4616 1553 4581 1512 
Q 4547 1472 4500 1472 
L 2619 1472 
L 2619 -416 
Q 2619 -466 2578 -498 
Q 2538 -531 2491 -531 
Q 2438 -531 2400 -498 
Q 2363 -466 2363 -416 
L 2363 1472 
L 481 1472 
z
" transform="scale(0.015625)"/>
     </defs>
     <use xlink:href="#Cmr10-a2" transform="translate(0 0.421875)"/>
     <use xlink:href="#Cmb10-72" transform="translate(83.300781 0.421875)"/>
     <use xlink:href="#Cmmi10-69" transform="translate(130.440703 -16.584375) scale(0.7)"/>
     <use xlink:href="#Cmr10-3d" transform="translate(178.47332 0.421875)"/>
     <use xlink:href="#Cmb10-72" transform="translate(273.717461 0.421875)"/>
     <use xlink:href="#Cmmi10-69" transform="translate(320.857383 -16.584375) scale(0.7)"/>
     <use xlink:href="#Cmr10-2b" transform="translate(357.245078 -16.584375) scale(0.7)"/>
     <use xlink:href="#Cmr10-31" transform="translate(423.915977 -16.584375) scale(0.7)"/>
     <use xlink:href="#Cmsy10-a1" transform="translate(482.851914 0.421875)"/>
     <use xlink:href="#Cmb10-72" transform="translate(578.096055 0.421875)"/>
     <use xlink:href="#Cmmi10-69" transform="translate(625.235977 -16.584375) scale(0.7)"/>
    </g>
   </g>
  </g>
 </g>
 <defs>
  <clipPath id="p234fdb3367">
   <rect x="10.497348" y="7.2" width="407.037902" height="207.816253"/>
  </clipPath>
 </defs>
</svg>
