<?xml version="1.0" encoding="utf-8" standalone="no"?>
<!DOCTYPE svg PUBLIC "-//W3C//DTD SVG 1.1//EN"
  "http://www.w3.org/Graphics/SVG/1.1/DTD/svg11.dtd">
<svg xmlns:xlink="http://www.w3.org/1999/xlink" width="453.6pt" height="267.379608pt" viewBox="0 0 453.6 267.379608" xmlns="http://www.w3.org/2000/svg" version="1.1">
 <metadata>
  <rdf:RDF xmlns:dc="http://purl.org/dc/elements/1.1/" xmlns:cc="http://creativecommons.org/ns#" xmlns:rdf="http://www.w3.org/1999/02/22-rdf-syntax-ns#">
   <cc:Work>
    <dc:type rdf:resource="http://purl.org/dc/dcmitype/StillImage"/>
    <dc:date>2025-01-29T09:04:46.110038</dc:date>
    <dc:format>image/svg+xml</dc:format>
    <dc:creator>
     <cc:Agent>
      <dc:title>Matplotlib v3.6.2, https://matplotlib.org/</dc:title>
     </cc:Agent>
    </dc:creator>
   </cc:Work>
  </rdf:RDF>
 </metadata>
 <defs>
  <style type="text/css">*{stroke-linejoin: round; stroke-linecap: butt}</style>
 </defs>
 <g id="figure_1">
  <g id="patch_1">
   <path d="M 0 267.379608 
L 453.6 267.379608 
L 453.6 0 
L 0 0 
z
" style="fill: #ffffff"/>
  </g>
  <g id="axes_1">
   <g id="patch_2">
    <path d="M 7.2 260.179608 
L 446.4 260.179608 
L 446.4 7.2 
L 7.2 7.2 
z
" style="fill: #ffffff"/>
   </g>
   <g id="PathCollection_1">
    <path d="M 149.980077 105.124601 
C 150.818723 105.124601 151.623133 104.791403 152.216145 104.198391 
C 152.809157 103.605379 153.142355 102.800969 153.142355 101.962323 
C 153.142355 101.123677 152.809157 100.319267 152.216145 99.726255 
C 151.623133 99.133243 150.818723 98.800046 149.980077 98.800046 
C 149.141431 98.800046 148.337021 99.133243 147.744009 99.726255 
C 147.150997 100.319267 146.817799 101.123677 146.817799 101.962323 
C 146.817799 102.800969 147.150997 103.605379 147.744009 104.198391 
C 148.337021 104.791403 149.141431 105.124601 149.980077 105.124601 
z
" clip-path="url(#pbf495aa5bb)"/>
   </g>
   <g id="PathCollection_2">
    <path d="M 437.953846 258.476893 
C 438.792492 258.476893 439.596902 258.143696 440.189914 257.550684 
C 440.782926 256.957672 441.116124 256.153262 441.116124 255.314616 
C 441.116124 254.47597 440.782926 253.67156 440.189914 253.078548 
C 439.596902 252.485536 438.792492 252.152338 437.953846 252.152338 
C 437.1152 252.152338 436.31079 252.485536 435.717778 253.078548 
C 435.124766 253.67156 434.791568 254.47597 434.791568 255.314616 
C 434.791568 256.153262 435.124766 256.957672 435.717778 257.550684 
C 436.31079 258.143696 437.1152 258.476893 437.953846 258.476893 
z
" clip-path="url(#pbf495aa5bb)"/>
   </g>
   <g id="PathCollection_3">
    <path d="M 285.922832 15.22727 
C 286.761477 15.22727 287.565887 14.894073 288.1589 14.30106 
C 288.751912 13.708048 289.085109 12.903638 289.085109 12.064992 
C 289.085109 11.226347 288.751912 10.421937 288.1589 9.828924 
C 287.565887 9.235912 286.761477 8.902715 285.922832 8.902715 
C 285.084186 8.902715 284.279776 9.235912 283.686764 9.828924 
C 283.093751 10.421937 282.760554 11.226347 282.760554 12.064992 
C 282.760554 12.903638 283.093751 13.708048 283.686764 14.30106 
C 284.279776 14.894073 285.084186 15.22727 285.922832 15.22727 
z
" clip-path="url(#pbf495aa5bb)"/>
   </g>
   <g id="matplotlib.axis_1"/>
   <g id="matplotlib.axis_2"/>
   <g id="line2d_1">
    <path d="M 437.953846 255.314616 
L 423.37931 244.378098 
L 405.734191 231.518445 
L 391.386709 221.376977 
L 382.184303 215.024197 
L 364.889718 203.41356 
L 350.338509 193.984757 
L 335.471471 184.681403 
L 326.704223 179.355311 
L 319.346851 174.979314 
L 304.156052 166.220284 
L 295.3799 161.333329 
L 278.668269 152.389517 
L 270.984647 148.440874 
L 258.107731 142.061593 
L 246.605128 136.622692 
L 233.712544 130.827913 
L 220.255034 125.132036 
L 206.054255 119.529691 
L 195.834571 115.768825 
L 184.392988 111.83962 
L 171.729328 107.853763 
L 164.478981 105.751488 
L 157.277646 103.79864 
L 148.183195 101.532843 
L 135.674257 98.801804 
L 126.963776 97.180339 
L 118.920036 95.901081 
L 112.816052 95.07814 
L 104.372511 94.163294 
L 96.834784 93.580768 
L 90.961979 93.291444 
L 85.722507 93.163542 
L 81.922908 93.152341 
L 72.945887 93.42125 
L 67.406905 93.814333 
L 62.305911 94.347832 
L 55.096535 95.418292 
L 50.026875 96.425721 
L 43.694514 98.036804 
L 39.631262 99.317792 
L 34.637106 101.223338 
L 31.764108 102.525127 
L 28.491805 104.243643 
L 26.807228 105.250743 
L 23.985003 107.184967 
L 21.733138 109.034714 
L 20.227403 110.498975 
L 18.928474 111.987729 
L 17.408845 114.195141 
L 16.582448 115.836798 
L 16.17508 116.927384 
L 15.701419 119.13195 
L 15.647159 120.355733 
L 15.862975 122.188234 
L 16.038791 122.864941 
L 16.540193 124.176024 
L 17.429018 125.715707 
L 18.740183 127.298989 
L 20.461256 128.811697 
L 22.209221 129.98704 
L 23.957984 130.929901 
L 26.726426 132.095436 
L 29.107287 132.863867 
L 31.650084 133.503517 
L 34.642759 134.06499 
L 38.987083 134.585965 
L 42.744753 134.808164 
L 47.042867 134.847473 
L 52.470383 134.62032 
L 57.042171 134.222774 
L 63.028021 133.454856 
L 70.746945 132.102876 
L 77.174954 130.703292 
L 86.308401 128.336935 
L 92.619764 126.467496 
L 99.489938 124.233674 
L 108.788943 120.905114 
L 116.84131 117.76019 
L 127.604287 113.204812 
L 136.597957 109.110298 
L 147.280292 103.928772 
L 154.296789 100.347289 
L 166.136965 94.000451 
L 180.300779 85.934821 
L 192.654713 78.502936 
L 200.703583 73.471365 
L 214.645794 64.417133 
L 226.415475 56.452771 
L 239.773807 47.072453 
L 254.302026 36.475546 
L 269.308457 25.114955 
L 279.143967 17.448197 
L 285.922832 12.064992 
L 285.922832 12.064992 
" clip-path="url(#pbf495aa5bb)" style="fill: none; stroke: #1e88e5; stroke-width: 2; stroke-linecap: square"/>
   </g>
   <g id="patch_3">
    <path d="M 222.576576 126.088253 
Q 221.986188 125.844383 223.462495 126.454198 
" clip-path="url(#pbf495aa5bb)" style="fill: none; stroke: #1e88e5; stroke-width: 2; stroke-linecap: round"/>
    <path d="M 230.79613 134.893262 
L 223.462495 126.454198 
L 234.613927 125.650728 
L 230.79613 134.893262 
z
" clip-path="url(#pbf495aa5bb)" style="fill: #1e88e5; stroke: #1e88e5; stroke-width: 2; stroke-linecap: round"/>
   </g>
   <g id="patch_4">
    <path d="M 53.653226 95.68205 
Q 53.400686 95.730305 55.344478 95.358891 
" clip-path="url(#pbf495aa5bb)" style="fill: none; stroke: #1e88e5; stroke-width: 2; stroke-linecap: round"/>
    <path d="M 66.105185 98.393226 
L 55.344478 95.358891 
L 64.22837 88.570927 
L 66.105185 98.393226 
z
" clip-path="url(#pbf495aa5bb)" style="fill: #1e88e5; stroke: #1e88e5; stroke-width: 2; stroke-linecap: round"/>
   </g>
   <g id="patch_5">
    <path d="M 210.920864 66.877241 
Q 211.496048 66.498942 210.203017 67.34937 
" clip-path="url(#pbf495aa5bb)" style="fill: none; stroke: #1e88e5; stroke-width: 2; stroke-linecap: round"/>
    <path d="M 199.100586 68.666952 
L 210.203017 67.34937 
L 204.595624 77.021864 
L 199.100586 68.666952 
z
" clip-path="url(#pbf495aa5bb)" style="fill: #1e88e5; stroke: #1e88e5; stroke-width: 2; stroke-linecap: round"/>
   </g>
   <g id="text_1">
    <g clip-path="url(#pbf495aa5bb)">
     <!-- $C_1$ -->
     <g style="fill: #1e88e5" transform="translate(220.56736 166.23629) scale(0.2 -0.2)">
      <defs>
       <path id="Cmmi10-43" d="M 934 1381 
Q 934 997 1082 705 
Q 1231 413 1514 248 
Q 1797 84 2181 84 
Q 2584 84 2957 290 
Q 3331 497 3595 842 
Q 3859 1188 3956 1575 
Q 3969 1613 4006 1613 
L 4084 1613 
Q 4109 1613 4125 1595 
Q 4141 1578 4141 1556 
Q 4141 1550 4134 1538 
Q 4025 1094 3711 705 
Q 3397 316 2959 87 
Q 2522 -141 2059 -141 
Q 1559 -141 1162 84 
Q 766 309 545 709 
Q 325 1109 325 1613 
Q 325 2150 565 2676 
Q 806 3203 1212 3614 
Q 1619 4025 2139 4269 
Q 2659 4513 3194 4513 
Q 3406 4513 3600 4448 
Q 3794 4384 3959 4253 
Q 4125 4122 4231 3950 
L 4738 4500 
Q 4738 4513 4769 4513 
L 4806 4513 
Q 4831 4513 4847 4491 
Q 4863 4469 4863 4447 
L 4428 2719 
Q 4428 2675 4378 2675 
L 4263 2675 
Q 4213 2675 4213 2747 
Q 4238 2888 4238 3084 
Q 4238 3397 4131 3673 
Q 4025 3950 3801 4119 
Q 3578 4288 3256 4288 
Q 2734 4288 2300 4025 
Q 1866 3763 1564 3336 
Q 1263 2909 1098 2389 
Q 934 1869 934 1381 
z
" transform="scale(0.015625)"/>
       <path id="Cmr10-31" d="M 594 0 
L 594 225 
Q 1394 225 1394 428 
L 1394 3788 
Q 1063 3628 556 3628 
L 556 3853 
Q 1341 3853 1741 4263 
L 1831 4263 
Q 1853 4263 1873 4245 
Q 1894 4228 1894 4206 
L 1894 428 
Q 1894 225 2694 225 
L 2694 0 
L 594 0 
z
" transform="scale(0.015625)"/>
      </defs>
      <use xlink:href="#Cmmi10-43" transform="translate(0 0.484375)"/>
      <use xlink:href="#Cmr10-31" transform="translate(71.386719 -16.521875) scale(0.7)"/>
     </g>
    </g>
   </g>
   <g id="text_2">
    <g clip-path="url(#pbf495aa5bb)">
     <!-- $C_2$ -->
     <g style="fill: #1e88e5" transform="translate(71.914812 115.559285) scale(0.2 -0.2)">
      <defs>
       <path id="Cmr10-32" d="M 319 0 
L 319 172 
Q 319 188 331 206 
L 1325 1306 
Q 1550 1550 1690 1715 
Q 1831 1881 1968 2097 
Q 2106 2313 2186 2536 
Q 2266 2759 2266 3009 
Q 2266 3272 2169 3511 
Q 2072 3750 1880 3894 
Q 1688 4038 1416 4038 
Q 1138 4038 916 3870 
Q 694 3703 603 3438 
Q 628 3444 672 3444 
Q 816 3444 917 3347 
Q 1019 3250 1019 3097 
Q 1019 2950 917 2848 
Q 816 2747 672 2747 
Q 522 2747 420 2851 
Q 319 2956 319 3097 
Q 319 3338 409 3548 
Q 500 3759 670 3923 
Q 841 4088 1055 4175 
Q 1269 4263 1509 4263 
Q 1875 4263 2190 4108 
Q 2506 3953 2690 3670 
Q 2875 3388 2875 3009 
Q 2875 2731 2753 2481 
Q 2631 2231 2440 2026 
Q 2250 1822 1953 1562 
Q 1656 1303 1563 1216 
L 838 519 
L 1453 519 
Q 1906 519 2211 526 
Q 2516 534 2534 550 
Q 2609 631 2688 1141 
L 2875 1141 
L 2694 0 
L 319 0 
z
" transform="scale(0.015625)"/>
      </defs>
      <use xlink:href="#Cmmi10-43" transform="translate(0 0.484375)"/>
      <use xlink:href="#Cmr10-32" transform="translate(71.386719 -16.521875) scale(0.7)"/>
     </g>
    </g>
   </g>
   <g id="text_3">
    <g clip-path="url(#pbf495aa5bb)">
     <!-- $C_3$ -->
     <g style="fill: #1e88e5" transform="translate(193.539624 47.989945) scale(0.2 -0.2)">
      <defs>
       <path id="Cmr10-33" d="M 609 494 
Q 759 275 1012 169 
Q 1266 63 1556 63 
Q 1928 63 2084 380 
Q 2241 697 2241 1100 
Q 2241 1281 2208 1462 
Q 2175 1644 2097 1800 
Q 2019 1956 1883 2050 
Q 1747 2144 1550 2144 
L 1125 2144 
Q 1069 2144 1069 2203 
L 1069 2259 
Q 1069 2309 1125 2309 
L 1478 2338 
Q 1703 2338 1851 2506 
Q 2000 2675 2069 2917 
Q 2138 3159 2138 3378 
Q 2138 3684 1994 3881 
Q 1850 4078 1556 4078 
Q 1313 4078 1091 3986 
Q 869 3894 738 3706 
Q 750 3709 759 3711 
Q 769 3713 781 3713 
Q 925 3713 1022 3613 
Q 1119 3513 1119 3372 
Q 1119 3234 1022 3134 
Q 925 3034 781 3034 
Q 641 3034 541 3134 
Q 441 3234 441 3372 
Q 441 3647 606 3850 
Q 772 4053 1033 4158 
Q 1294 4263 1556 4263 
Q 1750 4263 1965 4205 
Q 2181 4147 2356 4039 
Q 2531 3931 2642 3762 
Q 2753 3594 2753 3378 
Q 2753 3109 2633 2881 
Q 2513 2653 2303 2487 
Q 2094 2322 1844 2241 
Q 2122 2188 2372 2031 
Q 2622 1875 2773 1631 
Q 2925 1388 2925 1106 
Q 2925 753 2731 467 
Q 2538 181 2222 20 
Q 1906 -141 1556 -141 
Q 1256 -141 954 -26 
Q 653 88 461 316 
Q 269 544 269 863 
Q 269 1022 375 1128 
Q 481 1234 641 1234 
Q 744 1234 830 1186 
Q 916 1138 964 1050 
Q 1013 963 1013 863 
Q 1013 706 903 600 
Q 794 494 641 494 
L 609 494 
z
" transform="scale(0.015625)"/>
      </defs>
      <use xlink:href="#Cmmi10-43" transform="translate(0 0.484375)"/>
      <use xlink:href="#Cmr10-33" transform="translate(71.386719 -16.521875) scale(0.7)"/>
     </g>
    </g>
   </g>
  </g>
 </g>
 <defs>
  <clipPath id="pbf495aa5bb">
   <rect x="7.2" y="7.2" width="439.2" height="252.979608"/>
  </clipPath>
 </defs>
</svg>
