<?xml version="1.0" encoding="utf-8" standalone="no"?>
<!DOCTYPE svg PUBLIC "-//W3C//DTD SVG 1.1//EN"
  "http://www.w3.org/Graphics/SVG/1.1/DTD/svg11.dtd">
<svg xmlns:xlink="http://www.w3.org/1999/xlink" width="453.6pt" height="267.379202pt" viewBox="0 0 453.6 267.379202" xmlns="http://www.w3.org/2000/svg" version="1.1">
 <metadata>
  <rdf:RDF xmlns:dc="http://purl.org/dc/elements/1.1/" xmlns:cc="http://creativecommons.org/ns#" xmlns:rdf="http://www.w3.org/1999/02/22-rdf-syntax-ns#">
   <cc:Work>
    <dc:type rdf:resource="http://purl.org/dc/dcmitype/StillImage"/>
    <dc:date>2025-02-05T08:54:53.136038</dc:date>
    <dc:format>image/svg+xml</dc:format>
    <dc:creator>
     <cc:Agent>
      <dc:title>Matplotlib v3.6.2, https://matplotlib.org/</dc:title>
     </cc:Agent>
    </dc:creator>
   </cc:Work>
  </rdf:RDF>
 </metadata>
 <defs>
  <style type="text/css">*{stroke-linejoin: round; stroke-linecap: butt}</style>
 </defs>
 <g id="figure_1">
  <g id="patch_1">
   <path d="M 0 267.379202 
L 453.6 267.379202 
L 453.6 0 
L 0 0 
z
" style="fill: #ffffff"/>
  </g>
  <g id="axes_1">
   <g id="patch_2">
    <path d="M 7.2 260.179202 
L 446.4 260.179202 
L 446.4 7.2 
L 7.2 7.2 
z
" style="fill: #ffffff"/>
   </g>
   <g id="PathCollection_1">
    <path d="M 149.98054 105.124449 
C 150.819185 105.124449 151.623595 104.791251 152.216608 104.198239 
C 152.80962 103.605227 153.142817 102.800817 153.142817 101.962171 
C 153.142817 101.123525 152.80962 100.319115 152.216608 99.726103 
C 151.623595 99.133091 150.819185 98.799893 149.98054 98.799893 
C 149.141894 98.799893 148.337484 99.133091 147.744472 99.726103 
C 147.151459 100.319115 146.818262 101.123525 146.818262 101.962171 
C 146.818262 102.800817 147.151459 103.605227 147.744472 104.198239 
C 148.337484 104.791251 149.141894 105.124449 149.98054 105.124449 
z
" clip-path="url(#p495e734205)"/>
   </g>
   <g id="PathCollection_2">
    <path d="M 437.953846 258.476495 
C 438.792492 258.476495 439.596902 258.143297 440.189914 257.550285 
C 440.782926 256.957273 441.116124 256.152863 441.116124 255.314217 
C 441.116124 254.475571 440.782926 253.671161 440.189914 253.078149 
C 439.596902 252.485137 438.792492 252.151939 437.953846 252.151939 
C 437.1152 252.151939 436.31079 252.485137 435.717778 253.078149 
C 435.124766 253.671161 434.791568 254.475571 434.791568 255.314217 
C 434.791568 256.152863 435.124766 256.957273 435.717778 257.550285 
C 436.31079 258.143297 437.1152 258.476495 437.953846 258.476495 
z
" clip-path="url(#p495e734205)"/>
   </g>
   <g id="PathCollection_3">
    <path d="M 285.923076 15.227262 
C 286.761722 15.227262 287.566132 14.894065 288.159144 14.301053 
C 288.752156 13.70804 289.085354 12.90363 289.085354 12.064985 
C 289.085354 11.226339 288.752156 10.421929 288.159144 9.828917 
C 287.566132 9.235905 286.761722 8.902707 285.923076 8.902707 
C 285.08443 8.902707 284.28002 9.235905 283.687008 9.828917 
C 283.093996 10.421929 282.760798 11.226339 282.760798 12.064985 
C 282.760798 12.90363 283.093996 13.70804 283.687008 14.301053 
C 284.28002 14.894065 285.08443 15.227262 285.923076 15.227262 
z
" clip-path="url(#p495e734205)"/>
   </g>
   <g id="matplotlib.axis_1"/>
   <g id="matplotlib.axis_2"/>
   <g id="line2d_1">
    <path d="M 437.953846 255.314217 
L 423.720192 244.63027 
L 407.666238 232.905459 
L 390.874096 221.019557 
L 373.110113 208.877868 
L 360.077385 200.260059 
L 346.645764 191.642061 
L 334.194267 183.897644 
L 319.761666 175.223359 
L 305.696862 167.091133 
L 291.647326 159.293772 
L 283.315351 154.827774 
L 270.313882 148.100792 
L 264.23816 145.060599 
L 253.086855 139.656553 
L 236.006275 131.834725 
L 224.339889 126.821629 
L 220.600345 125.273227 
L 209.630957 120.899843 
L 197.391609 116.326451 
L 189.637645 113.602712 
L 179.545635 110.267523 
L 169.950609 107.32534 
L 160.871327 104.755744 
L 151.624241 102.362968 
L 142.597203 100.256277 
L 132.852511 98.250263 
L 125.690499 96.96333 
L 116.827883 95.604056 
L 108.938425 94.624663 
L 100.792198 93.857814 
L 94.13617 93.429105 
L 86.805229 93.179357 
L 82.033578 93.151525 
L 74.713526 93.333582 
L 68.659285 93.709062 
L 61.50985 94.446987 
L 55.710953 95.311257 
L 48.330056 96.816199 
L 42.467403 98.40127 
L 38.122413 99.851475 
L 34.870111 101.125112 
L 32.400183 102.22203 
L 28.439822 104.273561 
L 25.921663 105.821056 
L 23.520121 107.540829 
L 22.018426 108.781197 
L 19.956244 110.789786 
L 19.01632 111.878905 
L 17.744512 113.644003 
L 16.828862 115.292048 
L 16.076427 117.251818 
L 15.683776 119.320593 
L 15.646154 120.183168 
L 15.85421 122.144642 
L 16.385034 123.825067 
L 17.170014 125.323403 
L 17.539075 125.870578 
L 18.507831 127.053392 
L 20.165832 128.581657 
L 21.653689 129.64244 
L 23.6575 130.780649 
L 25.792054 131.73884 
L 28.803661 132.775426 
L 32.473029 133.676468 
L 36.757267 134.357414 
L 40.316738 134.686342 
L 43.735771 134.836037 
L 47.872533 134.831398 
L 52.150719 134.641246 
L 58.727748 134.033358 
L 63.434872 133.393209 
L 70.459417 132.159836 
L 75.678987 131.049601 
L 83.814587 129.024314 
L 88.93932 127.579752 
L 97.870538 124.7781 
L 105.926861 121.965367 
L 114.771123 118.591001 
L 120.175169 116.390938 
L 132.425876 111.041195 
L 144.107387 105.50273 
L 156.541642 99.172814 
L 167.357366 93.325462 
L 175.654038 88.635955 
L 189.079004 80.69093 
L 198.862872 74.635046 
L 205.258143 70.560203 
L 215.479934 63.862342 
L 228.36111 55.108913 
L 237.686624 48.561572 
L 252.954577 37.475424 
L 262.413015 30.386593 
L 273.935593 21.52971 
L 285.923076 12.064985 
L 285.923076 12.064985 
" clip-path="url(#p495e734205)" style="fill: none; stroke: #1e88e5; stroke-width: 2; stroke-linecap: square"/>
   </g>
   <g id="patch_3">
    <path d="M 222.576922 126.088062 
Q 221.986535 125.844193 223.462843 126.454008 
" clip-path="url(#p495e734205)" style="fill: none; stroke: #1e88e5; stroke-width: 2; stroke-linecap: round"/>
    <path d="M 230.796478 134.893072 
L 223.462843 126.454008 
L 234.614275 125.650538 
L 230.796478 134.893072 
z
" clip-path="url(#p495e734205)" style="fill: #1e88e5; stroke: #1e88e5; stroke-width: 2; stroke-linecap: round"/>
   </g>
   <g id="patch_4">
    <path d="M 53.653844 95.681908 
Q 53.401304 95.730163 55.345096 95.358749 
" clip-path="url(#p495e734205)" style="fill: none; stroke: #1e88e5; stroke-width: 2; stroke-linecap: round"/>
    <path d="M 66.105803 98.393084 
L 55.345096 95.358749 
L 64.228989 88.570784 
L 66.105803 98.393084 
z
" clip-path="url(#p495e734205)" style="fill: #1e88e5; stroke: #1e88e5; stroke-width: 2; stroke-linecap: round"/>
   </g>
   <g id="patch_5">
    <path d="M 210.921229 66.877145 
Q 211.496412 66.498846 210.20338 67.349275 
" clip-path="url(#p495e734205)" style="fill: none; stroke: #1e88e5; stroke-width: 2; stroke-linecap: round"/>
    <path d="M 199.100949 68.666857 
L 210.20338 67.349275 
L 204.595987 77.021769 
L 199.100949 68.666857 
z
" clip-path="url(#p495e734205)" style="fill: #1e88e5; stroke: #1e88e5; stroke-width: 2; stroke-linecap: round"/>
   </g>
   <g id="text_1">
    <g clip-path="url(#p495e734205)">
     <!-- $C_1$ -->
     <g style="fill: #1e88e5" transform="translate(220.567691 166.236043) scale(0.2 -0.2)">
      <defs>
       <path id="Cmmi10-43" d="M 934 1381 
Q 934 997 1082 705 
Q 1231 413 1514 248 
Q 1797 84 2181 84 
Q 2584 84 2957 290 
Q 3331 497 3595 842 
Q 3859 1188 3956 1575 
Q 3969 1613 4006 1613 
L 4084 1613 
Q 4109 1613 4125 1595 
Q 4141 1578 4141 1556 
Q 4141 1550 4134 1538 
Q 4025 1094 3711 705 
Q 3397 316 2959 87 
Q 2522 -141 2059 -141 
Q 1559 -141 1162 84 
Q 766 309 545 709 
Q 325 1109 325 1613 
Q 325 2150 565 2676 
Q 806 3203 1212 3614 
Q 1619 4025 2139 4269 
Q 2659 4513 3194 4513 
Q 3406 4513 3600 4448 
Q 3794 4384 3959 4253 
Q 4125 4122 4231 3950 
L 4738 4500 
Q 4738 4513 4769 4513 
L 4806 4513 
Q 4831 4513 4847 4491 
Q 4863 4469 4863 4447 
L 4428 2719 
Q 4428 2675 4378 2675 
L 4263 2675 
Q 4213 2675 4213 2747 
Q 4238 2888 4238 3084 
Q 4238 3397 4131 3673 
Q 4025 3950 3801 4119 
Q 3578 4288 3256 4288 
Q 2734 4288 2300 4025 
Q 1866 3763 1564 3336 
Q 1263 2909 1098 2389 
Q 934 1869 934 1381 
z
" transform="scale(0.015625)"/>
       <path id="Cmr10-31" d="M 594 0 
L 594 225 
Q 1394 225 1394 428 
L 1394 3788 
Q 1063 3628 556 3628 
L 556 3853 
Q 1341 3853 1741 4263 
L 1831 4263 
Q 1853 4263 1873 4245 
Q 1894 4228 1894 4206 
L 1894 428 
Q 1894 225 2694 225 
L 2694 0 
L 594 0 
z
" transform="scale(0.015625)"/>
      </defs>
      <use xlink:href="#Cmmi10-43" transform="translate(0 0.484375)"/>
      <use xlink:href="#Cmr10-31" transform="translate(71.386719 -16.521875) scale(0.7)"/>
     </g>
    </g>
   </g>
   <g id="text_2">
    <g clip-path="url(#p495e734205)">
     <!-- $C_2$ -->
     <g style="fill: #1e88e5" transform="translate(71.915382 115.55912) scale(0.2 -0.2)">
      <defs>
       <path id="Cmr10-32" d="M 319 0 
L 319 172 
Q 319 188 331 206 
L 1325 1306 
Q 1550 1550 1690 1715 
Q 1831 1881 1968 2097 
Q 2106 2313 2186 2536 
Q 2266 2759 2266 3009 
Q 2266 3272 2169 3511 
Q 2072 3750 1880 3894 
Q 1688 4038 1416 4038 
Q 1138 4038 916 3870 
Q 694 3703 603 3438 
Q 628 3444 672 3444 
Q 816 3444 917 3347 
Q 1019 3250 1019 3097 
Q 1019 2950 917 2848 
Q 816 2747 672 2747 
Q 522 2747 420 2851 
Q 319 2956 319 3097 
Q 319 3338 409 3548 
Q 500 3759 670 3923 
Q 841 4088 1055 4175 
Q 1269 4263 1509 4263 
Q 1875 4263 2190 4108 
Q 2506 3953 2690 3670 
Q 2875 3388 2875 3009 
Q 2875 2731 2753 2481 
Q 2631 2231 2440 2026 
Q 2250 1822 1953 1562 
Q 1656 1303 1563 1216 
L 838 519 
L 1453 519 
Q 1906 519 2211 526 
Q 2516 534 2534 550 
Q 2609 631 2688 1141 
L 2875 1141 
L 2694 0 
L 319 0 
z
" transform="scale(0.015625)"/>
      </defs>
      <use xlink:href="#Cmmi10-43" transform="translate(0 0.484375)"/>
      <use xlink:href="#Cmr10-32" transform="translate(71.386719 -16.521875) scale(0.7)"/>
     </g>
    </g>
   </g>
   <g id="text_3">
    <g clip-path="url(#p495e734205)">
     <!-- $C_3$ -->
     <g style="fill: #1e88e5" transform="translate(193.539998 47.989889) scale(0.2 -0.2)">
      <defs>
       <path id="Cmr10-33" d="M 609 494 
Q 759 275 1012 169 
Q 1266 63 1556 63 
Q 1928 63 2084 380 
Q 2241 697 2241 1100 
Q 2241 1281 2208 1462 
Q 2175 1644 2097 1800 
Q 2019 1956 1883 2050 
Q 1747 2144 1550 2144 
L 1125 2144 
Q 1069 2144 1069 2203 
L 1069 2259 
Q 1069 2309 1125 2309 
L 1478 2338 
Q 1703 2338 1851 2506 
Q 2000 2675 2069 2917 
Q 2138 3159 2138 3378 
Q 2138 3684 1994 3881 
Q 1850 4078 1556 4078 
Q 1313 4078 1091 3986 
Q 869 3894 738 3706 
Q 750 3709 759 3711 
Q 769 3713 781 3713 
Q 925 3713 1022 3613 
Q 1119 3513 1119 3372 
Q 1119 3234 1022 3134 
Q 925 3034 781 3034 
Q 641 3034 541 3134 
Q 441 3234 441 3372 
Q 441 3647 606 3850 
Q 772 4053 1033 4158 
Q 1294 4263 1556 4263 
Q 1750 4263 1965 4205 
Q 2181 4147 2356 4039 
Q 2531 3931 2642 3762 
Q 2753 3594 2753 3378 
Q 2753 3109 2633 2881 
Q 2513 2653 2303 2487 
Q 2094 2322 1844 2241 
Q 2122 2188 2372 2031 
Q 2622 1875 2773 1631 
Q 2925 1388 2925 1106 
Q 2925 753 2731 467 
Q 2538 181 2222 20 
Q 1906 -141 1556 -141 
Q 1256 -141 954 -26 
Q 653 88 461 316 
Q 269 544 269 863 
Q 269 1022 375 1128 
Q 481 1234 641 1234 
Q 744 1234 830 1186 
Q 916 1138 964 1050 
Q 1013 963 1013 863 
Q 1013 706 903 600 
Q 794 494 641 494 
L 609 494 
z
" transform="scale(0.015625)"/>
      </defs>
      <use xlink:href="#Cmmi10-43" transform="translate(0 0.484375)"/>
      <use xlink:href="#Cmr10-33" transform="translate(71.386719 -16.521875) scale(0.7)"/>
     </g>
    </g>
   </g>
  </g>
 </g>
 <defs>
  <clipPath id="p495e734205">
   <rect x="7.2" y="7.2" width="439.2" height="252.979202"/>
  </clipPath>
 </defs>
</svg>
