<?xml version="1.0" encoding="utf-8" standalone="no"?>
<!DOCTYPE svg PUBLIC "-//W3C//DTD SVG 1.1//EN"
  "http://www.w3.org/Graphics/SVG/1.1/DTD/svg11.dtd">
<svg xmlns:xlink="http://www.w3.org/1999/xlink" width="453.6pt" height="267.39554pt" viewBox="0 0 453.6 267.39554" xmlns="http://www.w3.org/2000/svg" version="1.1">
 <metadata>
  <rdf:RDF xmlns:dc="http://purl.org/dc/elements/1.1/" xmlns:cc="http://creativecommons.org/ns#" xmlns:rdf="http://www.w3.org/1999/02/22-rdf-syntax-ns#">
   <cc:Work>
    <dc:type rdf:resource="http://purl.org/dc/dcmitype/StillImage"/>
    <dc:date>2023-08-01T13:01:12.411870</dc:date>
    <dc:format>image/svg+xml</dc:format>
    <dc:creator>
     <cc:Agent>
      <dc:title>Matplotlib v3.6.2, https://matplotlib.org/</dc:title>
     </cc:Agent>
    </dc:creator>
   </cc:Work>
  </rdf:RDF>
 </metadata>
 <defs>
  <style type="text/css">*{stroke-linejoin: round; stroke-linecap: butt}</style>
 </defs>
 <g id="figure_1">
  <g id="patch_1">
   <path d="M 0 267.39554 
L 453.6 267.39554 
L 453.6 0 
L 0 0 
z
" style="fill: #ffffff"/>
  </g>
  <g id="axes_1">
   <g id="patch_2">
    <path d="M 7.2 260.19554 
L 446.4 260.19554 
L 446.4 7.2 
L 7.2 7.2 
z
" style="fill: #ffffff"/>
   </g>
   <g id="PathCollection_1">
    <path d="M 149.961941 105.130569 
C 150.800587 105.130569 151.604997 104.797371 152.198009 104.204359 
C 152.791021 103.611347 153.124218 102.806937 153.124218 101.968291 
C 153.124218 101.129645 152.791021 100.325235 152.198009 99.732223 
C 151.604997 99.139211 150.800587 98.806014 149.961941 98.806014 
C 149.123295 98.806014 148.318885 99.139211 147.725873 99.732223 
C 147.132861 100.325235 146.799663 101.129645 146.799663 101.968291 
C 146.799663 102.806937 147.132861 103.611347 147.725873 104.204359 
C 148.318885 104.797371 149.123295 105.130569 149.961941 105.130569 
z
" clip-path="url(#p38408819f4)"/>
   </g>
   <g id="PathCollection_2">
    <path d="M 437.953846 258.492519 
C 438.792492 258.492519 439.596902 258.159322 440.189914 257.56631 
C 440.782926 256.973297 441.116124 256.168887 441.116124 255.330242 
C 441.116124 254.491596 440.782926 253.687186 440.189914 253.094174 
C 439.596902 252.501161 438.792492 252.167964 437.953846 252.167964 
C 437.1152 252.167964 436.31079 252.501161 435.717778 253.094174 
C 435.124766 253.687186 434.791568 254.491596 434.791568 255.330242 
C 434.791568 256.168887 435.124766 256.973297 435.717778 257.56631 
C 436.31079 258.159322 437.1152 258.492519 437.953846 258.492519 
z
" clip-path="url(#p38408819f4)"/>
   </g>
   <g id="PathCollection_3">
    <path d="M 285.913257 15.227577 
C 286.751903 15.227577 287.556313 14.894379 288.149325 14.301367 
C 288.742337 13.708355 289.075535 12.903945 289.075535 12.065299 
C 289.075535 11.226653 288.742337 10.422243 288.149325 9.829231 
C 287.556313 9.236219 286.751903 8.903021 285.913257 8.903021 
C 285.074611 8.903021 284.270201 9.236219 283.677189 9.829231 
C 283.084177 10.422243 282.750979 11.226653 282.750979 12.065299 
C 282.750979 12.903945 283.084177 13.708355 283.677189 14.301367 
C 284.270201 14.894379 285.074611 15.227577 285.913257 15.227577 
z
" clip-path="url(#p38408819f4)"/>
   </g>
   <g id="matplotlib.axis_1"/>
   <g id="matplotlib.axis_2"/>
   <g id="line2d_1">
    <path d="M 437.953846 255.330242 
L 425.707939 246.122164 
L 417.939204 240.384058 
L 397.100746 225.397175 
L 389.064054 219.777779 
L 375.014825 210.17394 
L 365.725579 203.9801 
L 351.360024 194.65163 
L 335.404735 184.65555 
L 323.207832 177.280009 
L 310.250708 169.704114 
L 295.576832 161.456216 
L 283.532877 154.957667 
L 273.498038 149.73525 
L 258.805035 142.413252 
L 245.789925 136.26044 
L 236.01822 131.853804 
L 220.484083 125.238931 
L 208.036056 120.298307 
L 193.3418 114.899217 
L 185.187094 112.114353 
L 177.581648 109.658714 
L 166.152114 106.235788 
L 154.606984 103.120243 
L 148.129111 101.530311 
L 140.20021 99.746502 
L 128.134438 97.3934 
L 118.066618 95.786627 
L 109.003585 94.639805 
L 100.66338 93.85507 
L 94.50948 93.45493 
L 85.889673 93.171346 
L 78.546655 93.207989 
L 71.677332 93.499119 
L 65.668735 93.979946 
L 62.926521 94.276273 
L 57.936125 94.951086 
L 52.647192 95.877274 
L 48.638151 96.743045 
L 42.258296 98.463282 
L 38.070765 99.86689 
L 33.995521 101.494304 
L 30.328257 103.237369 
L 27.245094 104.970075 
L 24.706369 106.643786 
L 23.436175 107.591889 
L 20.669895 110.02465 
L 19.020721 111.846812 
L 17.659963 113.741989 
L 16.678681 115.563775 
L 16.047788 117.263723 
L 15.745077 118.610216 
L 15.64639 119.452321 
L 15.671164 121.178196 
L 16.049227 122.992578 
L 16.509098 124.17364 
L 17.527561 125.899972 
L 17.853254 126.330171 
L 19.375839 127.943676 
L 19.866058 128.368015 
L 21.557086 129.605403 
L 23.487417 130.715894 
L 26.636839 132.080096 
L 29.078291 132.870853 
L 32.114955 133.616576 
L 34.665976 134.080614 
L 38.386822 134.542478 
L 41.94818 134.785886 
L 46.537038 134.861404 
L 48.798281 134.812751 
L 54.341827 134.484823 
L 59.518779 133.942186 
L 66.443377 132.907646 
L 71.067116 132.04199 
L 76.943596 130.760105 
L 85.230162 128.63933 
L 88.624821 127.673134 
L 96.395304 125.265003 
L 102.220807 123.291296 
L 109.082523 120.793959 
L 118.005404 117.285125 
L 127.567342 113.219162 
L 134.269706 110.19207 
L 145.19267 104.964609 
L 154.79573 100.083966 
L 162.990281 95.719512 
L 173.668778 89.769357 
L 185.864283 82.627627 
L 198.226357 75.030283 
L 206.185832 69.956014 
L 217.360583 62.599835 
L 231.129758 53.176836 
L 244.327784 43.787763 
L 257.898114 33.784078 
L 269.524159 24.941604 
L 279.698277 17.003773 
L 285.913257 12.065299 
L 285.913257 12.065299 
" clip-path="url(#p38408819f4)" style="fill: none; stroke: #1e88e5; stroke-width: 2; stroke-linecap: square"/>
   </g>
   <g id="patch_3">
    <path d="M 222.563011 126.095741 
Q 221.972587 125.851855 223.448856 126.461655 
" clip-path="url(#p38408819f4)" style="fill: none; stroke: #1e88e5; stroke-width: 2; stroke-linecap: round"/>
    <path d="M 230.782492 134.900719 
L 223.448856 126.461655 
L 234.600288 125.658185 
L 230.782492 134.900719 
z
" clip-path="url(#p38408819f4)" style="fill: #1e88e5; stroke: #1e88e5; stroke-width: 2; stroke-linecap: round"/>
   </g>
   <g id="patch_4">
    <path d="M 53.629023 95.687623 
Q 53.376467 95.735881 55.320244 95.36447 
" clip-path="url(#p38408819f4)" style="fill: none; stroke: #1e88e5; stroke-width: 2; stroke-linecap: round"/>
    <path d="M 66.080951 98.398805 
L 55.320244 95.36447 
L 64.204136 88.576505 
L 66.080951 98.398805 
z
" clip-path="url(#p38408819f4)" style="fill: #1e88e5; stroke: #1e88e5; stroke-width: 2; stroke-linecap: round"/>
   </g>
   <g id="patch_5">
    <path d="M 210.906566 66.880999 
Q 211.481787 66.502676 210.188792 67.353081 
" clip-path="url(#p38408819f4)" style="fill: none; stroke: #1e88e5; stroke-width: 2; stroke-linecap: round"/>
    <path d="M 199.08636 68.670662 
L 210.188792 67.353081 
L 204.581398 77.025575 
L 199.08636 68.670662 
z
" clip-path="url(#p38408819f4)" style="fill: #1e88e5; stroke: #1e88e5; stroke-width: 2; stroke-linecap: round"/>
   </g>
   <g id="text_1">
    <g clip-path="url(#p38408819f4)">
     <!-- $C_1$ -->
     <g style="fill: #1e88e5" transform="translate(220.554381 166.245958) scale(0.2 -0.2)">
      <defs>
       <path id="Cmmi10-43" d="M 934 1381 
Q 934 997 1082 705 
Q 1231 413 1514 248 
Q 1797 84 2181 84 
Q 2584 84 2957 290 
Q 3331 497 3595 842 
Q 3859 1188 3956 1575 
Q 3969 1613 4006 1613 
L 4084 1613 
Q 4109 1613 4125 1595 
Q 4141 1578 4141 1556 
Q 4141 1550 4134 1538 
Q 4025 1094 3711 705 
Q 3397 316 2959 87 
Q 2522 -141 2059 -141 
Q 1559 -141 1162 84 
Q 766 309 545 709 
Q 325 1109 325 1613 
Q 325 2150 565 2676 
Q 806 3203 1212 3614 
Q 1619 4025 2139 4269 
Q 2659 4513 3194 4513 
Q 3406 4513 3600 4448 
Q 3794 4384 3959 4253 
Q 4125 4122 4231 3950 
L 4738 4500 
Q 4738 4513 4769 4513 
L 4806 4513 
Q 4831 4513 4847 4491 
Q 4863 4469 4863 4447 
L 4428 2719 
Q 4428 2675 4378 2675 
L 4263 2675 
Q 4213 2675 4213 2747 
Q 4238 2888 4238 3084 
Q 4238 3397 4131 3673 
Q 4025 3950 3801 4119 
Q 3578 4288 3256 4288 
Q 2734 4288 2300 4025 
Q 1866 3763 1564 3336 
Q 1263 2909 1098 2389 
Q 934 1869 934 1381 
z
" transform="scale(0.015625)"/>
       <path id="Cmr10-31" d="M 594 0 
L 594 225 
Q 1394 225 1394 428 
L 1394 3788 
Q 1063 3628 556 3628 
L 556 3853 
Q 1341 3853 1741 4263 
L 1831 4263 
Q 1853 4263 1873 4245 
Q 1894 4228 1894 4206 
L 1894 428 
Q 1894 225 2694 225 
L 2694 0 
L 594 0 
z
" transform="scale(0.015625)"/>
      </defs>
      <use xlink:href="#Cmmi10-43" transform="translate(0 0.484375)"/>
      <use xlink:href="#Cmr10-31" transform="translate(71.386719 -16.521875) scale(0.7)"/>
     </g>
    </g>
   </g>
   <g id="text_2">
    <g clip-path="url(#p38408819f4)">
     <!-- $C_2$ -->
     <g style="fill: #1e88e5" transform="translate(71.892471 115.565762) scale(0.2 -0.2)">
      <defs>
       <path id="Cmr10-32" d="M 319 0 
L 319 172 
Q 319 188 331 206 
L 1325 1306 
Q 1550 1550 1690 1715 
Q 1831 1881 1968 2097 
Q 2106 2313 2186 2536 
Q 2266 2759 2266 3009 
Q 2266 3272 2169 3511 
Q 2072 3750 1880 3894 
Q 1688 4038 1416 4038 
Q 1138 4038 916 3870 
Q 694 3703 603 3438 
Q 628 3444 672 3444 
Q 816 3444 917 3347 
Q 1019 3250 1019 3097 
Q 1019 2950 917 2848 
Q 816 2747 672 2747 
Q 522 2747 420 2851 
Q 319 2956 319 3097 
Q 319 3338 409 3548 
Q 500 3759 670 3923 
Q 841 4088 1055 4175 
Q 1269 4263 1509 4263 
Q 1875 4263 2190 4108 
Q 2506 3953 2690 3670 
Q 2875 3388 2875 3009 
Q 2875 2731 2753 2481 
Q 2631 2231 2440 2026 
Q 2250 1822 1953 1562 
Q 1656 1303 1563 1216 
L 838 519 
L 1453 519 
Q 1906 519 2211 526 
Q 2516 534 2534 550 
Q 2609 631 2688 1141 
L 2875 1141 
L 2694 0 
L 319 0 
z
" transform="scale(0.015625)"/>
      </defs>
      <use xlink:href="#Cmmi10-43" transform="translate(0 0.484375)"/>
      <use xlink:href="#Cmr10-32" transform="translate(71.386719 -16.521875) scale(0.7)"/>
     </g>
    </g>
   </g>
   <g id="text_3">
    <g clip-path="url(#p38408819f4)">
     <!-- $C_3$ -->
     <g style="fill: #1e88e5" transform="translate(193.524943 47.992167) scale(0.2 -0.2)">
      <defs>
       <path id="Cmr10-33" d="M 609 494 
Q 759 275 1012 169 
Q 1266 63 1556 63 
Q 1928 63 2084 380 
Q 2241 697 2241 1100 
Q 2241 1281 2208 1462 
Q 2175 1644 2097 1800 
Q 2019 1956 1883 2050 
Q 1747 2144 1550 2144 
L 1125 2144 
Q 1069 2144 1069 2203 
L 1069 2259 
Q 1069 2309 1125 2309 
L 1478 2338 
Q 1703 2338 1851 2506 
Q 2000 2675 2069 2917 
Q 2138 3159 2138 3378 
Q 2138 3684 1994 3881 
Q 1850 4078 1556 4078 
Q 1313 4078 1091 3986 
Q 869 3894 738 3706 
Q 750 3709 759 3711 
Q 769 3713 781 3713 
Q 925 3713 1022 3613 
Q 1119 3513 1119 3372 
Q 1119 3234 1022 3134 
Q 925 3034 781 3034 
Q 641 3034 541 3134 
Q 441 3234 441 3372 
Q 441 3647 606 3850 
Q 772 4053 1033 4158 
Q 1294 4263 1556 4263 
Q 1750 4263 1965 4205 
Q 2181 4147 2356 4039 
Q 2531 3931 2642 3762 
Q 2753 3594 2753 3378 
Q 2753 3109 2633 2881 
Q 2513 2653 2303 2487 
Q 2094 2322 1844 2241 
Q 2122 2188 2372 2031 
Q 2622 1875 2773 1631 
Q 2925 1388 2925 1106 
Q 2925 753 2731 467 
Q 2538 181 2222 20 
Q 1906 -141 1556 -141 
Q 1256 -141 954 -26 
Q 653 88 461 316 
Q 269 544 269 863 
Q 269 1022 375 1128 
Q 481 1234 641 1234 
Q 744 1234 830 1186 
Q 916 1138 964 1050 
Q 1013 963 1013 863 
Q 1013 706 903 600 
Q 794 494 641 494 
L 609 494 
z
" transform="scale(0.015625)"/>
      </defs>
      <use xlink:href="#Cmmi10-43" transform="translate(0 0.484375)"/>
      <use xlink:href="#Cmr10-33" transform="translate(71.386719 -16.521875) scale(0.7)"/>
     </g>
    </g>
   </g>
  </g>
 </g>
 <defs>
  <clipPath id="p38408819f4">
   <rect x="7.2" y="7.2" width="439.2" height="252.99554"/>
  </clipPath>
 </defs>
</svg>
