<?xml version="1.0" encoding="utf-8" standalone="no"?>
<!DOCTYPE svg PUBLIC "-//W3C//DTD SVG 1.1//EN"
  "http://www.w3.org/Graphics/SVG/1.1/DTD/svg11.dtd">
<svg xmlns:xlink="http://www.w3.org/1999/xlink" width="453.6pt" height="267.388095pt" viewBox="0 0 453.6 267.388095" xmlns="http://www.w3.org/2000/svg" version="1.1">
 <metadata>
  <rdf:RDF xmlns:dc="http://purl.org/dc/elements/1.1/" xmlns:cc="http://creativecommons.org/ns#" xmlns:rdf="http://www.w3.org/1999/02/22-rdf-syntax-ns#">
   <cc:Work>
    <dc:type rdf:resource="http://purl.org/dc/dcmitype/StillImage"/>
    <dc:date>2024-12-04T08:28:21.727127</dc:date>
    <dc:format>image/svg+xml</dc:format>
    <dc:creator>
     <cc:Agent>
      <dc:title>Matplotlib v3.6.2, https://matplotlib.org/</dc:title>
     </cc:Agent>
    </dc:creator>
   </cc:Work>
  </rdf:RDF>
 </metadata>
 <defs>
  <style type="text/css">*{stroke-linejoin: round; stroke-linecap: butt}</style>
 </defs>
 <g id="figure_1">
  <g id="patch_1">
   <path d="M 0 267.388095 
L 453.6 267.388095 
L 453.6 0 
L 0 0 
z
" style="fill: #ffffff"/>
  </g>
  <g id="axes_1">
   <g id="patch_2">
    <path d="M 7.2 260.188095 
L 446.4 260.188095 
L 446.4 7.2 
L 7.2 7.2 
z
" style="fill: #ffffff"/>
   </g>
   <g id="PathCollection_1">
    <path d="M 149.970416 105.12778 
C 150.809061 105.12778 151.613471 104.794583 152.206484 104.20157 
C 152.799496 103.608558 153.132693 102.804148 153.132693 101.965502 
C 153.132693 101.126857 152.799496 100.322447 152.206484 99.729435 
C 151.613471 99.136422 150.809061 98.803225 149.970416 98.803225 
C 149.13177 98.803225 148.32736 99.136422 147.734348 99.729435 
C 147.141335 100.322447 146.808138 101.126857 146.808138 101.965502 
C 146.808138 102.804148 147.141335 103.608558 147.734348 104.20157 
C 148.32736 104.794583 149.13177 105.12778 149.970416 105.12778 
z
" clip-path="url(#pc25b1436a6)"/>
   </g>
   <g id="PathCollection_2">
    <path d="M 437.953846 258.485217 
C 438.792492 258.485217 439.596902 258.15202 440.189914 257.559008 
C 440.782926 256.965996 441.116124 256.161586 441.116124 255.32294 
C 441.116124 254.484294 440.782926 253.679884 440.189914 253.086872 
C 439.596902 252.49386 438.792492 252.160662 437.953846 252.160662 
C 437.1152 252.160662 436.31079 252.49386 435.717778 253.086872 
C 435.124766 253.679884 434.791568 254.484294 434.791568 255.32294 
C 434.791568 256.161586 435.124766 256.965996 435.717778 257.559008 
C 436.31079 258.15202 437.1152 258.485217 437.953846 258.485217 
z
" clip-path="url(#pc25b1436a6)"/>
   </g>
   <g id="PathCollection_3">
    <path d="M 285.917731 15.227433 
C 286.756377 15.227433 287.560787 14.894236 288.153799 14.301224 
C 288.746811 13.708211 289.080009 12.903802 289.080009 12.065156 
C 289.080009 11.22651 288.746811 10.4221 288.153799 9.829088 
C 287.560787 9.236076 286.756377 8.902878 285.917731 8.902878 
C 285.079085 8.902878 284.274675 9.236076 283.681663 9.829088 
C 283.088651 10.4221 282.755453 11.22651 282.755453 12.065156 
C 282.755453 12.903802 283.088651 13.708211 283.681663 14.301224 
C 284.274675 14.894236 285.079085 15.227433 285.917731 15.227433 
z
" clip-path="url(#pc25b1436a6)"/>
   </g>
   <g id="matplotlib.axis_1"/>
   <g id="matplotlib.axis_2"/>
   <g id="line2d_1">
    <path d="M 437.953846 255.32294 
L 421.621168 243.086225 
L 410.645429 235.063553 
L 395.351112 224.158834 
L 381.063225 214.266743 
L 361.810636 201.400348 
L 351.599419 194.797416 
L 339.134303 186.950107 
L 323.936341 177.706939 
L 307.606407 168.18456 
L 294.150342 160.666776 
L 282.312556 154.306409 
L 270.22929 148.06594 
L 258.60392 142.309231 
L 245.081782 135.928486 
L 235.574274 131.651751 
L 222.512896 126.068857 
L 210.995103 121.436939 
L 198.674948 116.797326 
L 187.174345 112.773124 
L 178.669573 109.995989 
L 166.392078 106.299058 
L 156.791955 103.677596 
L 147.139091 101.292916 
L 136.110167 98.894263 
L 126.904975 97.175027 
L 124.05828 96.698142 
L 111.747202 94.951955 
L 105.036213 94.229405 
L 98.034733 93.661668 
L 89.01639 93.232387 
L 81.754304 93.156293 
L 75.299866 93.310914 
L 70.996149 93.540739 
L 63.611285 94.196205 
L 60.139535 94.629649 
L 53.640585 95.684971 
L 48.68675 96.731681 
L 43.821724 97.999312 
L 39.494942 99.363114 
L 35.491461 100.865243 
L 32.004513 102.406124 
L 28.930195 103.99204 
L 26.570778 105.394526 
L 24.392869 106.875912 
L 22.061177 108.734473 
L 20.413342 110.294259 
L 18.533036 112.485091 
L 17.813447 113.517113 
L 16.8184 115.286751 
L 16.076748 117.20396 
L 15.772127 118.517469 
L 15.650301 119.573021 
L 15.69435 121.271609 
L 15.83632 122.134445 
L 16.399144 123.897155 
L 17.200903 125.399219 
L 18.24337 126.780039 
L 19.587567 128.117085 
L 20.562403 128.902398 
L 22.623661 130.240506 
L 25.156382 131.486605 
L 27.96295 132.526109 
L 29.423469 132.960737 
L 32.740156 133.736734 
L 36.552552 134.338678 
L 39.232393 134.611808 
L 42.999403 134.821224 
L 49.41396 134.787212 
L 54.95942 134.428683 
L 59.226102 133.976056 
L 64.770589 133.185591 
L 68.247365 132.583957 
L 77.224387 130.692928 
L 83.177458 129.19606 
L 92.957264 126.362867 
L 98.466163 124.579237 
L 107.393203 121.425757 
L 115.663189 118.234224 
L 122.227596 115.528187 
L 132.730878 110.900601 
L 143.078606 106.005213 
L 154.084907 100.455622 
L 162.796528 95.826551 
L 175.05911 88.975517 
L 184.644784 83.360068 
L 195.138495 76.963171 
L 208.263576 68.611129 
L 221.321509 59.931847 
L 231.348149 53.027174 
L 244.061487 43.983614 
L 255.735731 35.404497 
L 271.10566 23.723129 
L 285.917731 12.065156 
L 285.917731 12.065156 
" clip-path="url(#pc25b1436a6)" style="fill: none; stroke: #1e88e5; stroke-width: 2; stroke-linecap: square"/>
   </g>
   <g id="patch_3">
    <path d="M 222.56935 126.092242 
Q 221.978943 125.848364 223.455229 126.458171 
" clip-path="url(#pc25b1436a6)" style="fill: none; stroke: #1e88e5; stroke-width: 2; stroke-linecap: round"/>
    <path d="M 230.788865 134.897234 
L 223.455229 126.458171 
L 234.606661 125.6547 
L 230.788865 134.897234 
z
" clip-path="url(#pc25b1436a6)" style="fill: #1e88e5; stroke: #1e88e5; stroke-width: 2; stroke-linecap: round"/>
   </g>
   <g id="patch_4">
    <path d="M 53.640333 95.685019 
Q 53.387784 95.733275 55.331568 95.361863 
" clip-path="url(#pc25b1436a6)" style="fill: none; stroke: #1e88e5; stroke-width: 2; stroke-linecap: round"/>
    <path d="M 66.092275 98.396198 
L 55.331568 95.361863 
L 64.21546 88.573898 
L 66.092275 98.396198 
z
" clip-path="url(#pc25b1436a6)" style="fill: #1e88e5; stroke: #1e88e5; stroke-width: 2; stroke-linecap: round"/>
   </g>
   <g id="patch_5">
    <path d="M 210.913248 66.879243 
Q 211.488451 66.500931 210.195439 67.351347 
" clip-path="url(#pc25b1436a6)" style="fill: none; stroke: #1e88e5; stroke-width: 2; stroke-linecap: round"/>
    <path d="M 199.093008 68.668928 
L 210.195439 67.351347 
L 204.588046 77.023841 
L 199.093008 68.668928 
z
" clip-path="url(#pc25b1436a6)" style="fill: #1e88e5; stroke: #1e88e5; stroke-width: 2; stroke-linecap: round"/>
   </g>
   <g id="text_1">
    <g clip-path="url(#pc25b1436a6)">
     <!-- $C_1$ -->
     <g style="fill: #1e88e5" transform="translate(220.560446 166.24144) scale(0.2 -0.2)">
      <defs>
       <path id="Cmmi10-43" d="M 934 1381 
Q 934 997 1082 705 
Q 1231 413 1514 248 
Q 1797 84 2181 84 
Q 2584 84 2957 290 
Q 3331 497 3595 842 
Q 3859 1188 3956 1575 
Q 3969 1613 4006 1613 
L 4084 1613 
Q 4109 1613 4125 1595 
Q 4141 1578 4141 1556 
Q 4141 1550 4134 1538 
Q 4025 1094 3711 705 
Q 3397 316 2959 87 
Q 2522 -141 2059 -141 
Q 1559 -141 1162 84 
Q 766 309 545 709 
Q 325 1109 325 1613 
Q 325 2150 565 2676 
Q 806 3203 1212 3614 
Q 1619 4025 2139 4269 
Q 2659 4513 3194 4513 
Q 3406 4513 3600 4448 
Q 3794 4384 3959 4253 
Q 4125 4122 4231 3950 
L 4738 4500 
Q 4738 4513 4769 4513 
L 4806 4513 
Q 4831 4513 4847 4491 
Q 4863 4469 4863 4447 
L 4428 2719 
Q 4428 2675 4378 2675 
L 4263 2675 
Q 4213 2675 4213 2747 
Q 4238 2888 4238 3084 
Q 4238 3397 4131 3673 
Q 4025 3950 3801 4119 
Q 3578 4288 3256 4288 
Q 2734 4288 2300 4025 
Q 1866 3763 1564 3336 
Q 1263 2909 1098 2389 
Q 934 1869 934 1381 
z
" transform="scale(0.015625)"/>
       <path id="Cmr10-31" d="M 594 0 
L 594 225 
Q 1394 225 1394 428 
L 1394 3788 
Q 1063 3628 556 3628 
L 556 3853 
Q 1341 3853 1741 4263 
L 1831 4263 
Q 1853 4263 1873 4245 
Q 1894 4228 1894 4206 
L 1894 428 
Q 1894 225 2694 225 
L 2694 0 
L 594 0 
z
" transform="scale(0.015625)"/>
      </defs>
      <use xlink:href="#Cmmi10-43" transform="translate(0 0.484375)"/>
      <use xlink:href="#Cmr10-31" transform="translate(71.386719 -16.521875) scale(0.7)"/>
     </g>
    </g>
   </g>
   <g id="text_2">
    <g clip-path="url(#pc25b1436a6)">
     <!-- $C_2$ -->
     <g style="fill: #1e88e5" transform="translate(71.902911 115.562735) scale(0.2 -0.2)">
      <defs>
       <path id="Cmr10-32" d="M 319 0 
L 319 172 
Q 319 188 331 206 
L 1325 1306 
Q 1550 1550 1690 1715 
Q 1831 1881 1968 2097 
Q 2106 2313 2186 2536 
Q 2266 2759 2266 3009 
Q 2266 3272 2169 3511 
Q 2072 3750 1880 3894 
Q 1688 4038 1416 4038 
Q 1138 4038 916 3870 
Q 694 3703 603 3438 
Q 628 3444 672 3444 
Q 816 3444 917 3347 
Q 1019 3250 1019 3097 
Q 1019 2950 917 2848 
Q 816 2747 672 2747 
Q 522 2747 420 2851 
Q 319 2956 319 3097 
Q 319 3338 409 3548 
Q 500 3759 670 3923 
Q 841 4088 1055 4175 
Q 1269 4263 1509 4263 
Q 1875 4263 2190 4108 
Q 2506 3953 2690 3670 
Q 2875 3388 2875 3009 
Q 2875 2731 2753 2481 
Q 2631 2231 2440 2026 
Q 2250 1822 1953 1562 
Q 1656 1303 1563 1216 
L 838 519 
L 1453 519 
Q 1906 519 2211 526 
Q 2516 534 2534 550 
Q 2609 631 2688 1141 
L 2875 1141 
L 2694 0 
L 319 0 
z
" transform="scale(0.015625)"/>
      </defs>
      <use xlink:href="#Cmmi10-43" transform="translate(0 0.484375)"/>
      <use xlink:href="#Cmr10-32" transform="translate(71.386719 -16.521875) scale(0.7)"/>
     </g>
    </g>
   </g>
   <g id="text_3">
    <g clip-path="url(#pc25b1436a6)">
     <!-- $C_3$ -->
     <g style="fill: #1e88e5" transform="translate(193.531803 47.991129) scale(0.2 -0.2)">
      <defs>
       <path id="Cmr10-33" d="M 609 494 
Q 759 275 1012 169 
Q 1266 63 1556 63 
Q 1928 63 2084 380 
Q 2241 697 2241 1100 
Q 2241 1281 2208 1462 
Q 2175 1644 2097 1800 
Q 2019 1956 1883 2050 
Q 1747 2144 1550 2144 
L 1125 2144 
Q 1069 2144 1069 2203 
L 1069 2259 
Q 1069 2309 1125 2309 
L 1478 2338 
Q 1703 2338 1851 2506 
Q 2000 2675 2069 2917 
Q 2138 3159 2138 3378 
Q 2138 3684 1994 3881 
Q 1850 4078 1556 4078 
Q 1313 4078 1091 3986 
Q 869 3894 738 3706 
Q 750 3709 759 3711 
Q 769 3713 781 3713 
Q 925 3713 1022 3613 
Q 1119 3513 1119 3372 
Q 1119 3234 1022 3134 
Q 925 3034 781 3034 
Q 641 3034 541 3134 
Q 441 3234 441 3372 
Q 441 3647 606 3850 
Q 772 4053 1033 4158 
Q 1294 4263 1556 4263 
Q 1750 4263 1965 4205 
Q 2181 4147 2356 4039 
Q 2531 3931 2642 3762 
Q 2753 3594 2753 3378 
Q 2753 3109 2633 2881 
Q 2513 2653 2303 2487 
Q 2094 2322 1844 2241 
Q 2122 2188 2372 2031 
Q 2622 1875 2773 1631 
Q 2925 1388 2925 1106 
Q 2925 753 2731 467 
Q 2538 181 2222 20 
Q 1906 -141 1556 -141 
Q 1256 -141 954 -26 
Q 653 88 461 316 
Q 269 544 269 863 
Q 269 1022 375 1128 
Q 481 1234 641 1234 
Q 744 1234 830 1186 
Q 916 1138 964 1050 
Q 1013 963 1013 863 
Q 1013 706 903 600 
Q 794 494 641 494 
L 609 494 
z
" transform="scale(0.015625)"/>
      </defs>
      <use xlink:href="#Cmmi10-43" transform="translate(0 0.484375)"/>
      <use xlink:href="#Cmr10-33" transform="translate(71.386719 -16.521875) scale(0.7)"/>
     </g>
    </g>
   </g>
  </g>
 </g>
 <defs>
  <clipPath id="pc25b1436a6">
   <rect x="7.2" y="7.2" width="439.2" height="252.988095"/>
  </clipPath>
 </defs>
</svg>
