<?xml version="1.0" encoding="utf-8" standalone="no"?>
<!DOCTYPE svg PUBLIC "-//W3C//DTD SVG 1.1//EN"
  "http://www.w3.org/Graphics/SVG/1.1/DTD/svg11.dtd">
<svg xmlns:xlink="http://www.w3.org/1999/xlink" width="453.6pt" height="267.391166pt" viewBox="0 0 453.6 267.391166" xmlns="http://www.w3.org/2000/svg" version="1.1">
 <metadata>
  <rdf:RDF xmlns:dc="http://purl.org/dc/elements/1.1/" xmlns:cc="http://creativecommons.org/ns#" xmlns:rdf="http://www.w3.org/1999/02/22-rdf-syntax-ns#">
   <cc:Work>
    <dc:type rdf:resource="http://purl.org/dc/dcmitype/StillImage"/>
    <dc:date>2024-08-29T09:22:06.850195</dc:date>
    <dc:format>image/svg+xml</dc:format>
    <dc:creator>
     <cc:Agent>
      <dc:title>Matplotlib v3.8.0, https://matplotlib.org/</dc:title>
     </cc:Agent>
    </dc:creator>
   </cc:Work>
  </rdf:RDF>
 </metadata>
 <defs>
  <style type="text/css">*{stroke-linejoin: round; stroke-linecap: butt}</style>
 </defs>
 <g id="figure_1">
  <g id="patch_1">
   <path d="M 0 267.391166 
L 453.6 267.391166 
L 453.6 0 
L 0 0 
z
" style="fill: #ffffff"/>
  </g>
  <g id="axes_1">
   <g id="patch_2">
    <path d="M 7.2 260.191166 
L 446.4 260.191166 
L 446.4 7.2 
L 7.2 7.2 
z
" style="fill: #ffffff"/>
   </g>
   <g id="PathCollection_1">
    <path d="M 149.966921 105.12893 
C 150.805567 105.12893 151.609977 104.795733 152.202989 104.20272 
C 152.796001 103.609708 153.129198 102.805298 153.129198 101.966653 
C 153.129198 101.128007 152.796001 100.323597 152.202989 99.730585 
C 151.609977 99.137572 150.805567 98.804375 149.966921 98.804375 
C 149.128275 98.804375 148.323865 99.137572 147.730853 99.730585 
C 147.137841 100.323597 146.804643 101.128007 146.804643 101.966653 
C 146.804643 102.805298 147.137841 103.609708 147.730853 104.20272 
C 148.323865 104.795733 149.128275 105.12893 149.966921 105.12893 
z
" clip-path="url(#pf812e85fee)"/>
   </g>
   <g id="PathCollection_2">
    <path d="M 437.953846 258.488229 
C 438.792492 258.488229 439.596902 258.155031 440.189914 257.562019 
C 440.782926 256.969007 441.116124 256.164597 441.116124 255.325951 
C 441.116124 254.487305 440.782926 253.682895 440.189914 253.089883 
C 439.596902 252.496871 438.792492 252.163673 437.953846 252.163673 
C 437.1152 252.163673 436.31079 252.496871 435.717778 253.089883 
C 435.124766 253.682895 434.791568 254.487305 434.791568 255.325951 
C 434.791568 256.164597 435.124766 256.969007 435.717778 257.562019 
C 436.31079 258.155031 437.1152 258.488229 437.953846 258.488229 
z
" clip-path="url(#pf812e85fee)"/>
   </g>
   <g id="PathCollection_3">
    <path d="M 285.915886 15.227492 
C 286.754532 15.227492 287.558942 14.894295 288.151954 14.301283 
C 288.744966 13.708271 289.078164 12.903861 289.078164 12.065215 
C 289.078164 11.226569 288.744966 10.422159 288.151954 9.829147 
C 287.558942 9.236135 286.754532 8.902937 285.915886 8.902937 
C 285.07724 8.902937 284.27283 9.236135 283.679818 9.829147 
C 283.086806 10.422159 282.753608 11.226569 282.753608 12.065215 
C 282.753608 12.903861 283.086806 13.708271 283.679818 14.301283 
C 284.27283 14.894295 285.07724 15.227492 285.915886 15.227492 
z
" clip-path="url(#pf812e85fee)"/>
   </g>
   <g id="matplotlib.axis_1"/>
   <g id="matplotlib.axis_2"/>
   <g id="line2d_1">
    <path d="M 437.953846 255.325951 
L 419.286678 241.369227 
L 409.443674 234.198069 
L 400.205719 227.588106 
L 387.169383 218.461962 
L 368.519642 205.825656 
L 355.025033 196.998138 
L 340.273649 187.660443 
L 323.332702 177.350208 
L 313.790483 171.74277 
L 295.404282 161.357347 
L 283.379149 154.872365 
L 271.030146 148.474268 
L 255.843487 140.981441 
L 246.135058 136.415695 
L 233.636842 130.804574 
L 222.242349 125.959404 
L 212.323884 121.959493 
L 200.85471 117.59627 
L 189.873492 113.69258 
L 176.324219 109.263037 
L 168.267132 106.841275 
L 159.442069 104.378972 
L 148.791579 101.684699 
L 141.407801 100.003636 
L 132.176563 98.128893 
L 126.445286 97.097963 
L 119.030276 95.923319 
L 109.453777 94.687581 
L 103.466187 94.08655 
L 94.363773 93.445593 
L 86.236359 93.174588 
L 79.959211 93.178392 
L 75.663765 93.297149 
L 69.304859 93.661406 
L 62.477417 94.328951 
L 57.237961 95.059863 
L 51.92541 96.021956 
L 47.651258 96.980197 
L 43.714706 98.029902 
L 38.955919 99.55025 
L 34.273804 101.375079 
L 30.684428 103.056325 
L 27.454862 104.845405 
L 24.261488 106.969754 
L 21.682591 109.06784 
L 20.087969 110.631352 
L 19.072004 111.790924 
L 17.423957 114.141293 
L 16.739294 115.445335 
L 16.135933 116.994798 
L 15.702905 118.957178 
L 15.646154 119.55891 
L 15.65976 120.97981 
L 15.818379 122.074767 
L 16.221793 123.470267 
L 17.113891 125.271273 
L 17.96675 126.460107 
L 19.194996 127.768743 
L 21.14947 129.327007 
L 22.55366 130.205023 
L 24.564674 131.229749 
L 26.84225 132.149696 
L 29.543963 132.996694 
L 32.818391 133.75444 
L 37.28791 134.426988 
L 42.168202 134.792809 
L 47.087759 134.852355 
L 53.455895 134.554081 
L 58.000134 134.121724 
L 64.178138 133.281053 
L 70.961455 132.06234 
L 77.904974 130.531575 
L 85.713833 128.504594 
L 96.325345 125.28774 
L 106.253854 121.845487 
L 113.636846 119.039002 
L 123.797757 114.858909 
L 132.373614 111.063359 
L 142.444983 106.313612 
L 152.997397 101.018433 
L 163.148318 95.634645 
L 176.232897 88.299054 
L 189.379811 80.50433 
L 194.861343 77.1344 
L 205.389332 70.471574 
L 218.953514 61.531297 
L 231.283584 53.071091 
L 247.792417 41.268713 
L 262.212098 30.533697 
L 277.480506 18.751675 
L 285.915886 12.065215 
L 285.915886 12.065215 
" clip-path="url(#pf812e85fee)" style="fill: none; stroke: #1e88e5; stroke-width: 2; stroke-linecap: square"/>
   </g>
   <g id="patch_3">
    <path d="M 222.566736 126.093685 
Q 221.976322 125.849804 223.452601 126.459608 
" clip-path="url(#pf812e85fee)" style="fill: none; stroke: #1e88e5; stroke-width: 2; stroke-linecap: round"/>
    <path d="M 230.786237 134.898671 
L 223.452601 126.459608 
L 234.604033 125.656137 
z
" clip-path="url(#pf812e85fee)" style="fill: #1e88e5; stroke: #1e88e5; stroke-width: 2; stroke-linecap: round"/>
   </g>
   <g id="patch_4">
    <path d="M 53.635669 95.686093 
Q 53.383117 95.73435 55.326898 95.362938 
" clip-path="url(#pf812e85fee)" style="fill: none; stroke: #1e88e5; stroke-width: 2; stroke-linecap: round"/>
    <path d="M 66.087605 98.397273 
L 55.326898 95.362938 
L 64.21079 88.574973 
z
" clip-path="url(#pf812e85fee)" style="fill: #1e88e5; stroke: #1e88e5; stroke-width: 2; stroke-linecap: round"/>
   </g>
   <g id="patch_5">
    <path d="M 210.910492 66.879967 
Q 211.485703 66.501651 210.192698 67.352062 
" clip-path="url(#pf812e85fee)" style="fill: none; stroke: #1e88e5; stroke-width: 2; stroke-linecap: round"/>
    <path d="M 199.090267 68.669643 
L 210.192698 67.352062 
L 204.585304 77.024556 
z
" clip-path="url(#pf812e85fee)" style="fill: #1e88e5; stroke: #1e88e5; stroke-width: 2; stroke-linecap: round"/>
   </g>
   <g id="text_1">
    <g clip-path="url(#pf812e85fee)">
     <!-- $C_1$ -->
     <g style="fill: #1e88e5" transform="translate(220.557945 166.243303) scale(0.2 -0.2)">
      <defs>
       <path id="Cmmi10-43" d="M 934 1381 
Q 934 997 1082 705 
Q 1231 413 1514 248 
Q 1797 84 2181 84 
Q 2584 84 2957 290 
Q 3331 497 3595 842 
Q 3859 1188 3956 1575 
Q 3969 1613 4006 1613 
L 4084 1613 
Q 4109 1613 4125 1595 
Q 4141 1578 4141 1556 
Q 4141 1550 4134 1538 
Q 4025 1094 3711 705 
Q 3397 316 2959 87 
Q 2522 -141 2059 -141 
Q 1559 -141 1162 84 
Q 766 309 545 709 
Q 325 1109 325 1613 
Q 325 2150 565 2676 
Q 806 3203 1212 3614 
Q 1619 4025 2139 4269 
Q 2659 4513 3194 4513 
Q 3406 4513 3600 4448 
Q 3794 4384 3959 4253 
Q 4125 4122 4231 3950 
L 4738 4500 
Q 4738 4513 4769 4513 
L 4806 4513 
Q 4831 4513 4847 4491 
Q 4863 4469 4863 4447 
L 4428 2719 
Q 4428 2675 4378 2675 
L 4263 2675 
Q 4213 2675 4213 2747 
Q 4238 2888 4238 3084 
Q 4238 3397 4131 3673 
Q 4025 3950 3801 4119 
Q 3578 4288 3256 4288 
Q 2734 4288 2300 4025 
Q 1866 3763 1564 3336 
Q 1263 2909 1098 2389 
Q 934 1869 934 1381 
z
" transform="scale(0.015625)"/>
       <path id="Cmr10-31" d="M 594 0 
L 594 225 
Q 1394 225 1394 428 
L 1394 3788 
Q 1063 3628 556 3628 
L 556 3853 
Q 1341 3853 1741 4263 
L 1831 4263 
Q 1853 4263 1873 4245 
Q 1894 4228 1894 4206 
L 1894 428 
Q 1894 225 2694 225 
L 2694 0 
L 594 0 
z
" transform="scale(0.015625)"/>
      </defs>
      <use xlink:href="#Cmmi10-43" transform="translate(0 0.484375)"/>
      <use xlink:href="#Cmr10-31" transform="translate(71.386719 -16.521875) scale(0.7)"/>
     </g>
    </g>
   </g>
   <g id="text_2">
    <g clip-path="url(#pf812e85fee)">
     <!-- $C_2$ -->
     <g style="fill: #1e88e5" transform="translate(71.898606 115.563983) scale(0.2 -0.2)">
      <defs>
       <path id="Cmr10-32" d="M 319 0 
L 319 172 
Q 319 188 331 206 
L 1325 1306 
Q 1550 1550 1690 1715 
Q 1831 1881 1968 2097 
Q 2106 2313 2186 2536 
Q 2266 2759 2266 3009 
Q 2266 3272 2169 3511 
Q 2072 3750 1880 3894 
Q 1688 4038 1416 4038 
Q 1138 4038 916 3870 
Q 694 3703 603 3438 
Q 628 3444 672 3444 
Q 816 3444 917 3347 
Q 1019 3250 1019 3097 
Q 1019 2950 917 2848 
Q 816 2747 672 2747 
Q 522 2747 420 2851 
Q 319 2956 319 3097 
Q 319 3338 409 3548 
Q 500 3759 670 3923 
Q 841 4088 1055 4175 
Q 1269 4263 1509 4263 
Q 1875 4263 2190 4108 
Q 2506 3953 2690 3670 
Q 2875 3388 2875 3009 
Q 2875 2731 2753 2481 
Q 2631 2231 2440 2026 
Q 2250 1822 1953 1562 
Q 1656 1303 1563 1216 
L 838 519 
L 1453 519 
Q 1906 519 2211 526 
Q 2516 534 2534 550 
Q 2609 631 2688 1141 
L 2875 1141 
L 2694 0 
L 319 0 
z
" transform="scale(0.015625)"/>
      </defs>
      <use xlink:href="#Cmmi10-43" transform="translate(0 0.484375)"/>
      <use xlink:href="#Cmr10-32" transform="translate(71.386719 -16.521875) scale(0.7)"/>
     </g>
    </g>
   </g>
   <g id="text_3">
    <g clip-path="url(#pf812e85fee)">
     <!-- $C_3$ -->
     <g style="fill: #1e88e5" transform="translate(193.528974 47.991557) scale(0.2 -0.2)">
      <defs>
       <path id="Cmr10-33" d="M 609 494 
Q 759 275 1012 169 
Q 1266 63 1556 63 
Q 1928 63 2084 380 
Q 2241 697 2241 1100 
Q 2241 1281 2208 1462 
Q 2175 1644 2097 1800 
Q 2019 1956 1883 2050 
Q 1747 2144 1550 2144 
L 1125 2144 
Q 1069 2144 1069 2203 
L 1069 2259 
Q 1069 2309 1125 2309 
L 1478 2338 
Q 1703 2338 1851 2506 
Q 2000 2675 2069 2917 
Q 2138 3159 2138 3378 
Q 2138 3684 1994 3881 
Q 1850 4078 1556 4078 
Q 1313 4078 1091 3986 
Q 869 3894 738 3706 
Q 750 3709 759 3711 
Q 769 3713 781 3713 
Q 925 3713 1022 3613 
Q 1119 3513 1119 3372 
Q 1119 3234 1022 3134 
Q 925 3034 781 3034 
Q 641 3034 541 3134 
Q 441 3234 441 3372 
Q 441 3647 606 3850 
Q 772 4053 1033 4158 
Q 1294 4263 1556 4263 
Q 1750 4263 1965 4205 
Q 2181 4147 2356 4039 
Q 2531 3931 2642 3762 
Q 2753 3594 2753 3378 
Q 2753 3109 2633 2881 
Q 2513 2653 2303 2487 
Q 2094 2322 1844 2241 
Q 2122 2188 2372 2031 
Q 2622 1875 2773 1631 
Q 2925 1388 2925 1106 
Q 2925 753 2731 467 
Q 2538 181 2222 20 
Q 1906 -141 1556 -141 
Q 1256 -141 954 -26 
Q 653 88 461 316 
Q 269 544 269 863 
Q 269 1022 375 1128 
Q 481 1234 641 1234 
Q 744 1234 830 1186 
Q 916 1138 964 1050 
Q 1013 963 1013 863 
Q 1013 706 903 600 
Q 794 494 641 494 
L 609 494 
z
" transform="scale(0.015625)"/>
      </defs>
      <use xlink:href="#Cmmi10-43" transform="translate(0 0.484375)"/>
      <use xlink:href="#Cmr10-33" transform="translate(71.386719 -16.521875) scale(0.7)"/>
     </g>
    </g>
   </g>
  </g>
 </g>
 <defs>
  <clipPath id="pf812e85fee">
   <rect x="7.2" y="7.2" width="439.2" height="252.991166"/>
  </clipPath>
 </defs>
</svg>
