<?xml version="1.0" encoding="utf-8" standalone="no"?>
<!DOCTYPE svg PUBLIC "-//W3C//DTD SVG 1.1//EN"
  "http://www.w3.org/Graphics/SVG/1.1/DTD/svg11.dtd">
<svg xmlns:xlink="http://www.w3.org/1999/xlink" width="453.6pt" height="267.379565pt" viewBox="0 0 453.6 267.379565" xmlns="http://www.w3.org/2000/svg" version="1.1">
 <metadata>
  <rdf:RDF xmlns:dc="http://purl.org/dc/elements/1.1/" xmlns:cc="http://creativecommons.org/ns#" xmlns:rdf="http://www.w3.org/1999/02/22-rdf-syntax-ns#">
   <cc:Work>
    <dc:type rdf:resource="http://purl.org/dc/dcmitype/StillImage"/>
    <dc:date>2024-12-16T16:36:59.916238</dc:date>
    <dc:format>image/svg+xml</dc:format>
    <dc:creator>
     <cc:Agent>
      <dc:title>Matplotlib v3.6.2, https://matplotlib.org/</dc:title>
     </cc:Agent>
    </dc:creator>
   </cc:Work>
  </rdf:RDF>
 </metadata>
 <defs>
  <style type="text/css">*{stroke-linejoin: round; stroke-linecap: butt}</style>
 </defs>
 <g id="figure_1">
  <g id="patch_1">
   <path d="M 0 267.379565 
L 453.6 267.379565 
L 453.6 0 
L 0 0 
z
" style="fill: #ffffff"/>
  </g>
  <g id="axes_1">
   <g id="patch_2">
    <path d="M 7.2 260.179565 
L 446.4 260.179565 
L 446.4 7.2 
L 7.2 7.2 
z
" style="fill: #ffffff"/>
   </g>
   <g id="PathCollection_1">
    <path d="M 149.980126 105.124585 
C 150.818772 105.124585 151.623182 104.791387 152.216194 104.198375 
C 152.809206 103.605363 153.142404 102.800953 153.142404 101.962307 
C 153.142404 101.123661 152.809206 100.319251 152.216194 99.726239 
C 151.623182 99.133227 150.818772 98.800029 149.980126 98.800029 
C 149.14148 98.800029 148.33707 99.133227 147.744058 99.726239 
C 147.151046 100.319251 146.817849 101.123661 146.817849 101.962307 
C 146.817849 102.800953 147.151046 103.605363 147.744058 104.198375 
C 148.33707 104.791387 149.14148 105.124585 149.980126 105.124585 
z
" clip-path="url(#p06efe85939)"/>
   </g>
   <g id="PathCollection_2">
    <path d="M 437.953846 258.476851 
C 438.792492 258.476851 439.596902 258.143653 440.189914 257.550641 
C 440.782926 256.957629 441.116124 256.153219 441.116124 255.314573 
C 441.116124 254.475927 440.782926 253.671517 440.189914 253.078505 
C 439.596902 252.485493 438.792492 252.152296 437.953846 252.152296 
C 437.1152 252.152296 436.31079 252.485493 435.717778 253.078505 
C 435.124766 253.671517 434.791568 254.475927 434.791568 255.314573 
C 434.791568 256.153219 435.124766 256.957629 435.717778 257.550641 
C 436.31079 258.143653 437.1152 258.476851 437.953846 258.476851 
z
" clip-path="url(#p06efe85939)"/>
   </g>
   <g id="PathCollection_3">
    <path d="M 285.922858 15.227269 
C 286.761503 15.227269 287.565913 14.894072 288.158926 14.30106 
C 288.751938 13.708047 289.085135 12.903637 289.085135 12.064992 
C 289.085135 11.226346 288.751938 10.421936 288.158926 9.828924 
C 287.565913 9.235911 286.761503 8.902714 285.922858 8.902714 
C 285.084212 8.902714 284.279802 9.235911 283.68679 9.828924 
C 283.093778 10.421936 282.76058 11.226346 282.76058 12.064992 
C 282.76058 12.903637 283.093778 13.708047 283.68679 14.30106 
C 284.279802 14.894072 285.084212 15.227269 285.922858 15.227269 
z
" clip-path="url(#p06efe85939)"/>
   </g>
   <g id="matplotlib.axis_1"/>
   <g id="matplotlib.axis_2"/>
   <g id="line2d_1">
    <path d="M 437.953846 255.314573 
L 419.448439 241.476805 
L 407.441226 232.743969 
L 389.830131 220.293955 
L 382.23127 215.056273 
L 363.892635 202.75741 
L 346.849608 191.771168 
L 331.394699 182.189763 
L 321.208709 176.078514 
L 302.656098 165.375896 
L 292.151729 159.568288 
L 282.841978 154.577971 
L 270.490661 148.190571 
L 255.564449 140.837604 
L 241.991131 134.511649 
L 226.342667 127.663001 
L 215.70034 123.288555 
L 208.975697 120.646988 
L 196.151174 115.881797 
L 184.439547 111.854957 
L 174.563593 108.711657 
L 162.986815 105.335587 
L 153.148278 102.741533 
L 144.677225 100.721248 
L 137.988418 99.272081 
L 129.900504 97.70025 
L 120.302928 96.105526 
L 109.674993 94.706678 
L 100.567356 93.84051 
L 91.148977 93.298312 
L 83.742976 93.148872 
L 76.862956 93.250664 
L 73.214883 93.40677 
L 65.638375 93.979805 
L 58.697387 94.834264 
L 53.180494 95.77231 
L 47.604507 96.991961 
L 44.038052 97.938055 
L 40.8206 98.92027 
L 36.780326 100.35546 
L 32.785177 102.042682 
L 29.513583 103.67619 
L 25.679592 105.98206 
L 23.012337 107.943267 
L 20.903958 109.812854 
L 18.914515 112.005338 
L 17.520715 114.005843 
L 16.880668 115.183525 
L 16.05877 117.31127 
L 15.707179 119.079803 
L 15.662491 120.744293 
L 15.981628 122.666324 
L 16.219131 123.405612 
L 16.935313 124.935283 
L 18.049383 126.531637 
L 19.560072 128.076602 
L 21.19201 129.33743 
L 23.251066 130.571737 
L 24.635581 131.247601 
L 26.140105 131.875932 
L 29.6115 133.004204 
L 32.960397 133.772369 
L 37.130091 134.401315 
L 41.478084 134.754365 
L 45.67405 134.857647 
L 49.972566 134.760178 
L 53.872679 134.517128 
L 58.05922 134.111175 
L 63.328716 133.409474 
L 68.307219 132.570998 
L 74.117063 131.398175 
L 82.603491 129.347271 
L 92.417156 126.530297 
L 101.189227 123.650868 
L 106.923921 121.59953 
L 117.412093 117.528489 
L 124.923959 114.375343 
L 133.650394 110.480001 
L 141.256824 106.891776 
L 152.070406 101.498574 
L 158.021721 98.390851 
L 166.059828 94.043003 
L 176.235833 88.300566 
L 188.586396 80.989908 
L 194.642848 77.273754 
L 205.942429 70.118741 
L 222.131245 59.385052 
L 233.172083 51.752671 
L 244.276386 43.83153 
L 256.761584 34.641998 
L 271.858879 23.143464 
L 285.922858 12.064992 
L 285.922858 12.064992 
" clip-path="url(#p06efe85939)" style="fill: none; stroke: #1e88e5; stroke-width: 2; stroke-linecap: square"/>
   </g>
   <g id="patch_3">
    <path d="M 222.576612 126.088233 
Q 221.986225 125.844363 223.462532 126.454178 
" clip-path="url(#p06efe85939)" style="fill: none; stroke: #1e88e5; stroke-width: 2; stroke-linecap: round"/>
    <path d="M 230.796167 134.893242 
L 223.462532 126.454178 
L 234.613964 125.650708 
L 230.796167 134.893242 
z
" clip-path="url(#p06efe85939)" style="fill: #1e88e5; stroke: #1e88e5; stroke-width: 2; stroke-linecap: round"/>
   </g>
   <g id="patch_4">
    <path d="M 53.653292 95.682035 
Q 53.400751 95.73029 55.344544 95.358876 
" clip-path="url(#p06efe85939)" style="fill: none; stroke: #1e88e5; stroke-width: 2; stroke-linecap: round"/>
    <path d="M 66.105251 98.393211 
L 55.344544 95.358876 
L 64.228436 88.570912 
L 66.105251 98.393211 
z
" clip-path="url(#p06efe85939)" style="fill: #1e88e5; stroke: #1e88e5; stroke-width: 2; stroke-linecap: round"/>
   </g>
   <g id="patch_5">
    <path d="M 210.920903 66.877231 
Q 211.496087 66.498931 210.203056 67.34936 
" clip-path="url(#p06efe85939)" style="fill: none; stroke: #1e88e5; stroke-width: 2; stroke-linecap: round"/>
    <path d="M 199.100625 68.666941 
L 210.203056 67.34936 
L 204.595662 77.021854 
L 199.100625 68.666941 
z
" clip-path="url(#p06efe85939)" style="fill: #1e88e5; stroke: #1e88e5; stroke-width: 2; stroke-linecap: round"/>
   </g>
   <g id="text_1">
    <g clip-path="url(#p06efe85939)">
     <!-- $C_1$ -->
     <g style="fill: #1e88e5" transform="translate(220.567395 166.236264) scale(0.2 -0.2)">
      <defs>
       <path id="Cmmi10-43" d="M 934 1381 
Q 934 997 1082 705 
Q 1231 413 1514 248 
Q 1797 84 2181 84 
Q 2584 84 2957 290 
Q 3331 497 3595 842 
Q 3859 1188 3956 1575 
Q 3969 1613 4006 1613 
L 4084 1613 
Q 4109 1613 4125 1595 
Q 4141 1578 4141 1556 
Q 4141 1550 4134 1538 
Q 4025 1094 3711 705 
Q 3397 316 2959 87 
Q 2522 -141 2059 -141 
Q 1559 -141 1162 84 
Q 766 309 545 709 
Q 325 1109 325 1613 
Q 325 2150 565 2676 
Q 806 3203 1212 3614 
Q 1619 4025 2139 4269 
Q 2659 4513 3194 4513 
Q 3406 4513 3600 4448 
Q 3794 4384 3959 4253 
Q 4125 4122 4231 3950 
L 4738 4500 
Q 4738 4513 4769 4513 
L 4806 4513 
Q 4831 4513 4847 4491 
Q 4863 4469 4863 4447 
L 4428 2719 
Q 4428 2675 4378 2675 
L 4263 2675 
Q 4213 2675 4213 2747 
Q 4238 2888 4238 3084 
Q 4238 3397 4131 3673 
Q 4025 3950 3801 4119 
Q 3578 4288 3256 4288 
Q 2734 4288 2300 4025 
Q 1866 3763 1564 3336 
Q 1263 2909 1098 2389 
Q 934 1869 934 1381 
z
" transform="scale(0.015625)"/>
       <path id="Cmr10-31" d="M 594 0 
L 594 225 
Q 1394 225 1394 428 
L 1394 3788 
Q 1063 3628 556 3628 
L 556 3853 
Q 1341 3853 1741 4263 
L 1831 4263 
Q 1853 4263 1873 4245 
Q 1894 4228 1894 4206 
L 1894 428 
Q 1894 225 2694 225 
L 2694 0 
L 594 0 
z
" transform="scale(0.015625)"/>
      </defs>
      <use xlink:href="#Cmmi10-43" transform="translate(0 0.484375)"/>
      <use xlink:href="#Cmr10-31" transform="translate(71.386719 -16.521875) scale(0.7)"/>
     </g>
    </g>
   </g>
   <g id="text_2">
    <g clip-path="url(#p06efe85939)">
     <!-- $C_2$ -->
     <g style="fill: #1e88e5" transform="translate(71.914873 115.559268) scale(0.2 -0.2)">
      <defs>
       <path id="Cmr10-32" d="M 319 0 
L 319 172 
Q 319 188 331 206 
L 1325 1306 
Q 1550 1550 1690 1715 
Q 1831 1881 1968 2097 
Q 2106 2313 2186 2536 
Q 2266 2759 2266 3009 
Q 2266 3272 2169 3511 
Q 2072 3750 1880 3894 
Q 1688 4038 1416 4038 
Q 1138 4038 916 3870 
Q 694 3703 603 3438 
Q 628 3444 672 3444 
Q 816 3444 917 3347 
Q 1019 3250 1019 3097 
Q 1019 2950 917 2848 
Q 816 2747 672 2747 
Q 522 2747 420 2851 
Q 319 2956 319 3097 
Q 319 3338 409 3548 
Q 500 3759 670 3923 
Q 841 4088 1055 4175 
Q 1269 4263 1509 4263 
Q 1875 4263 2190 4108 
Q 2506 3953 2690 3670 
Q 2875 3388 2875 3009 
Q 2875 2731 2753 2481 
Q 2631 2231 2440 2026 
Q 2250 1822 1953 1562 
Q 1656 1303 1563 1216 
L 838 519 
L 1453 519 
Q 1906 519 2211 526 
Q 2516 534 2534 550 
Q 2609 631 2688 1141 
L 2875 1141 
L 2694 0 
L 319 0 
z
" transform="scale(0.015625)"/>
      </defs>
      <use xlink:href="#Cmmi10-43" transform="translate(0 0.484375)"/>
      <use xlink:href="#Cmr10-32" transform="translate(71.386719 -16.521875) scale(0.7)"/>
     </g>
    </g>
   </g>
   <g id="text_3">
    <g clip-path="url(#p06efe85939)">
     <!-- $C_3$ -->
     <g style="fill: #1e88e5" transform="translate(193.539664 47.989939) scale(0.2 -0.2)">
      <defs>
       <path id="Cmr10-33" d="M 609 494 
Q 759 275 1012 169 
Q 1266 63 1556 63 
Q 1928 63 2084 380 
Q 2241 697 2241 1100 
Q 2241 1281 2208 1462 
Q 2175 1644 2097 1800 
Q 2019 1956 1883 2050 
Q 1747 2144 1550 2144 
L 1125 2144 
Q 1069 2144 1069 2203 
L 1069 2259 
Q 1069 2309 1125 2309 
L 1478 2338 
Q 1703 2338 1851 2506 
Q 2000 2675 2069 2917 
Q 2138 3159 2138 3378 
Q 2138 3684 1994 3881 
Q 1850 4078 1556 4078 
Q 1313 4078 1091 3986 
Q 869 3894 738 3706 
Q 750 3709 759 3711 
Q 769 3713 781 3713 
Q 925 3713 1022 3613 
Q 1119 3513 1119 3372 
Q 1119 3234 1022 3134 
Q 925 3034 781 3034 
Q 641 3034 541 3134 
Q 441 3234 441 3372 
Q 441 3647 606 3850 
Q 772 4053 1033 4158 
Q 1294 4263 1556 4263 
Q 1750 4263 1965 4205 
Q 2181 4147 2356 4039 
Q 2531 3931 2642 3762 
Q 2753 3594 2753 3378 
Q 2753 3109 2633 2881 
Q 2513 2653 2303 2487 
Q 2094 2322 1844 2241 
Q 2122 2188 2372 2031 
Q 2622 1875 2773 1631 
Q 2925 1388 2925 1106 
Q 2925 753 2731 467 
Q 2538 181 2222 20 
Q 1906 -141 1556 -141 
Q 1256 -141 954 -26 
Q 653 88 461 316 
Q 269 544 269 863 
Q 269 1022 375 1128 
Q 481 1234 641 1234 
Q 744 1234 830 1186 
Q 916 1138 964 1050 
Q 1013 963 1013 863 
Q 1013 706 903 600 
Q 794 494 641 494 
L 609 494 
z
" transform="scale(0.015625)"/>
      </defs>
      <use xlink:href="#Cmmi10-43" transform="translate(0 0.484375)"/>
      <use xlink:href="#Cmr10-33" transform="translate(71.386719 -16.521875) scale(0.7)"/>
     </g>
    </g>
   </g>
  </g>
 </g>
 <defs>
  <clipPath id="p06efe85939">
   <rect x="7.2" y="7.2" width="439.2" height="252.979565"/>
  </clipPath>
 </defs>
</svg>
