<?xml version="1.0" encoding="utf-8" standalone="no"?>
<!DOCTYPE svg PUBLIC "-//W3C//DTD SVG 1.1//EN"
  "http://www.w3.org/Graphics/SVG/1.1/DTD/svg11.dtd">
<svg xmlns:xlink="http://www.w3.org/1999/xlink" width="453.6pt" height="267.387712pt" viewBox="0 0 453.6 267.387712" xmlns="http://www.w3.org/2000/svg" version="1.1">
 <metadata>
  <rdf:RDF xmlns:dc="http://purl.org/dc/elements/1.1/" xmlns:cc="http://creativecommons.org/ns#" xmlns:rdf="http://www.w3.org/1999/02/22-rdf-syntax-ns#">
   <cc:Work>
    <dc:type rdf:resource="http://purl.org/dc/dcmitype/StillImage"/>
    <dc:date>2023-08-04T14:51:37.376876</dc:date>
    <dc:format>image/svg+xml</dc:format>
    <dc:creator>
     <cc:Agent>
      <dc:title>Matplotlib v3.6.2, https://matplotlib.org/</dc:title>
     </cc:Agent>
    </dc:creator>
   </cc:Work>
  </rdf:RDF>
 </metadata>
 <defs>
  <style type="text/css">*{stroke-linejoin: round; stroke-linecap: butt}</style>
 </defs>
 <g id="figure_1">
  <g id="patch_1">
   <path d="M 0 267.387712 
L 453.6 267.387712 
L 453.6 0 
L 0 0 
z
" style="fill: #ffffff"/>
  </g>
  <g id="axes_1">
   <g id="patch_2">
    <path d="M 7.2 260.187712 
L 446.4 260.187712 
L 446.4 7.2 
L 7.2 7.2 
z
" style="fill: #ffffff"/>
   </g>
   <g id="PathCollection_1">
    <path d="M 149.970852 105.127636 
C 150.809498 105.127636 151.613908 104.794439 152.20692 104.201427 
C 152.799932 103.608415 153.13313 102.804005 153.13313 101.965359 
C 153.13313 101.126713 152.799932 100.322303 152.20692 99.729291 
C 151.613908 99.136279 150.809498 98.803081 149.970852 98.803081 
C 149.132206 98.803081 148.327797 99.136279 147.734784 99.729291 
C 147.141772 100.322303 146.808575 101.126713 146.808575 101.965359 
C 146.808575 102.804005 147.141772 103.608415 147.734784 104.201427 
C 148.327797 104.794439 149.132206 105.127636 149.970852 105.127636 
z
" clip-path="url(#p2d1f5391ef)"/>
   </g>
   <g id="PathCollection_2">
    <path d="M 437.953846 258.484841 
C 438.792492 258.484841 439.596902 258.151644 440.189914 257.558631 
C 440.782926 256.965619 441.116124 256.161209 441.116124 255.322563 
C 441.116124 254.483918 440.782926 253.679508 440.189914 253.086496 
C 439.596902 252.493483 438.792492 252.160286 437.953846 252.160286 
C 437.1152 252.160286 436.31079 252.493483 435.717778 253.086496 
C 435.124766 253.679508 434.791568 254.483918 434.791568 255.322563 
C 434.791568 256.161209 435.124766 256.965619 435.717778 257.558631 
C 436.31079 258.151644 437.1152 258.484841 437.953846 258.484841 
z
" clip-path="url(#p2d1f5391ef)"/>
   </g>
   <g id="PathCollection_3">
    <path d="M 285.917962 15.227426 
C 286.756607 15.227426 287.561017 14.894228 288.15403 14.301216 
C 288.747042 13.708204 289.080239 12.903794 289.080239 12.065148 
C 289.080239 11.226502 288.747042 10.422092 288.15403 9.82908 
C 287.561017 9.236068 286.756607 8.902871 285.917962 8.902871 
C 285.079316 8.902871 284.274906 9.236068 283.681894 9.82908 
C 283.088882 10.422092 282.755684 11.226502 282.755684 12.065148 
C 282.755684 12.903794 283.088882 13.708204 283.681894 14.301216 
C 284.274906 14.894228 285.079316 15.227426 285.917962 15.227426 
z
" clip-path="url(#p2d1f5391ef)"/>
   </g>
   <g id="matplotlib.axis_1"/>
   <g id="matplotlib.axis_2"/>
   <g id="line2d_1">
    <path d="M 437.953846 255.322563 
L 419.843394 241.775355 
L 407.032141 232.457871 
L 390.601533 220.838168 
L 376.656156 211.273754 
L 364.53303 203.186507 
L 354.206584 196.468125 
L 339.641576 187.264456 
L 322.871462 177.072557 
L 309.90368 169.497654 
L 300.203464 164.010852 
L 283.778945 155.080838 
L 272.467895 149.202198 
L 264.528679 145.211979 
L 252.637333 139.45096 
L 238.503291 132.950169 
L 228.353865 128.522606 
L 215.088062 123.050656 
L 201.260744 117.743118 
L 192.820733 114.710688 
L 181.163539 110.79214 
L 171.119692 107.677615 
L 163.510731 105.486565 
L 154.099206 102.986233 
L 147.871183 101.464405 
L 137.934841 99.26597 
L 129.381843 97.611119 
L 124.18159 96.718034 
L 114.845064 95.341269 
L 104.426587 94.172067 
L 96.614973 93.570705 
L 88.453945 93.217428 
L 81.065002 93.162342 
L 76.0847 93.280141 
L 69.912265 93.615541 
L 63.692576 94.186995 
L 58.289134 94.896346 
L 54.971719 95.441056 
L 48.715562 96.724922 
L 43.482009 98.097819 
L 39.724277 99.284585 
L 35.642976 100.80368 
L 32.303024 102.264529 
L 27.919813 104.570461 
L 24.972621 106.461308 
L 23.118585 107.850215 
L 20.942265 109.765712 
L 19.126935 111.729488 
L 18.039677 113.176972 
L 17.259184 114.437425 
L 16.488756 116.032939 
L 15.813538 118.289621 
L 15.658149 119.466506 
L 15.695104 121.272407 
L 16.091185 123.079212 
L 16.621011 124.375836 
L 17.484344 125.817667 
L 18.706657 127.28215 
L 19.83622 128.328634 
L 21.660397 129.659832 
L 24.012499 130.966724 
L 26.503369 132.022389 
L 29.603493 133.00965 
L 33.045669 133.795118 
L 37.156593 134.409892 
L 41.094867 134.738814 
L 45.878202 134.861504 
L 48.940763 134.804405 
L 53.529578 134.547106 
L 61.036684 133.741805 
L 66.511526 132.893959 
L 71.498736 131.95301 
L 80.161712 129.977082 
L 87.264138 128.066278 
L 94.265892 125.950893 
L 100.69806 123.820539 
L 109.04225 120.80946 
L 117.645646 117.432696 
L 126.676737 113.611567 
L 135.941565 109.416371 
L 145.947615 104.591826 
L 157.267912 98.787978 
L 167.160106 93.432692 
L 175.874653 88.506568 
L 187.472955 81.661379 
L 196.810703 75.920548 
L 207.985937 68.791857 
L 217.855594 62.270716 
L 226.166144 56.621363 
L 241.875685 45.561131 
L 254.137567 36.594312 
L 267.713919 26.33804 
L 279.172653 17.421904 
L 285.917962 12.065148 
L 285.917962 12.065148 
" clip-path="url(#p2d1f5391ef)" style="fill: none; stroke: #1e88e5; stroke-width: 2; stroke-linecap: square"/>
   </g>
   <g id="patch_3">
    <path d="M 222.569676 126.092062 
Q 221.97927 125.848184 223.455558 126.457991 
" clip-path="url(#p2d1f5391ef)" style="fill: none; stroke: #1e88e5; stroke-width: 2; stroke-linecap: round"/>
    <path d="M 230.789193 134.897055 
L 223.455558 126.457991 
L 234.60699 125.654521 
L 230.789193 134.897055 
z
" clip-path="url(#p2d1f5391ef)" style="fill: #1e88e5; stroke: #1e88e5; stroke-width: 2; stroke-linecap: round"/>
   </g>
   <g id="patch_4">
    <path d="M 53.640916 95.684885 
Q 53.388367 95.733141 55.332152 95.361729 
" clip-path="url(#p2d1f5391ef)" style="fill: none; stroke: #1e88e5; stroke-width: 2; stroke-linecap: round"/>
    <path d="M 66.092859 98.396064 
L 55.332152 95.361729 
L 64.216044 88.573764 
L 66.092859 98.396064 
z
" clip-path="url(#p2d1f5391ef)" style="fill: #1e88e5; stroke: #1e88e5; stroke-width: 2; stroke-linecap: round"/>
   </g>
   <g id="patch_5">
    <path d="M 210.913592 66.879153 
Q 211.488794 66.500841 210.195782 67.351257 
" clip-path="url(#p2d1f5391ef)" style="fill: none; stroke: #1e88e5; stroke-width: 2; stroke-linecap: round"/>
    <path d="M 199.09335 68.668839 
L 210.195782 67.351257 
L 204.588388 77.023751 
L 199.09335 68.668839 
z
" clip-path="url(#p2d1f5391ef)" style="fill: #1e88e5; stroke: #1e88e5; stroke-width: 2; stroke-linecap: round"/>
   </g>
   <g id="text_1">
    <g clip-path="url(#p2d1f5391ef)">
     <!-- $C_1$ -->
     <g style="fill: #1e88e5" transform="translate(220.560758 166.241208) scale(0.2 -0.2)">
      <defs>
       <path id="Cmmi10-43" d="M 934 1381 
Q 934 997 1082 705 
Q 1231 413 1514 248 
Q 1797 84 2181 84 
Q 2584 84 2957 290 
Q 3331 497 3595 842 
Q 3859 1188 3956 1575 
Q 3969 1613 4006 1613 
L 4084 1613 
Q 4109 1613 4125 1595 
Q 4141 1578 4141 1556 
Q 4141 1550 4134 1538 
Q 4025 1094 3711 705 
Q 3397 316 2959 87 
Q 2522 -141 2059 -141 
Q 1559 -141 1162 84 
Q 766 309 545 709 
Q 325 1109 325 1613 
Q 325 2150 565 2676 
Q 806 3203 1212 3614 
Q 1619 4025 2139 4269 
Q 2659 4513 3194 4513 
Q 3406 4513 3600 4448 
Q 3794 4384 3959 4253 
Q 4125 4122 4231 3950 
L 4738 4500 
Q 4738 4513 4769 4513 
L 4806 4513 
Q 4831 4513 4847 4491 
Q 4863 4469 4863 4447 
L 4428 2719 
Q 4428 2675 4378 2675 
L 4263 2675 
Q 4213 2675 4213 2747 
Q 4238 2888 4238 3084 
Q 4238 3397 4131 3673 
Q 4025 3950 3801 4119 
Q 3578 4288 3256 4288 
Q 2734 4288 2300 4025 
Q 1866 3763 1564 3336 
Q 1263 2909 1098 2389 
Q 934 1869 934 1381 
z
" transform="scale(0.015625)"/>
       <path id="Cmr10-31" d="M 594 0 
L 594 225 
Q 1394 225 1394 428 
L 1394 3788 
Q 1063 3628 556 3628 
L 556 3853 
Q 1341 3853 1741 4263 
L 1831 4263 
Q 1853 4263 1873 4245 
Q 1894 4228 1894 4206 
L 1894 428 
Q 1894 225 2694 225 
L 2694 0 
L 594 0 
z
" transform="scale(0.015625)"/>
      </defs>
      <use xlink:href="#Cmmi10-43" transform="translate(0 0.484375)"/>
      <use xlink:href="#Cmr10-31" transform="translate(71.386719 -16.521875) scale(0.7)"/>
     </g>
    </g>
   </g>
   <g id="text_2">
    <g clip-path="url(#p2d1f5391ef)">
     <!-- $C_2$ -->
     <g style="fill: #1e88e5" transform="translate(71.903449 115.562579) scale(0.2 -0.2)">
      <defs>
       <path id="Cmr10-32" d="M 319 0 
L 319 172 
Q 319 188 331 206 
L 1325 1306 
Q 1550 1550 1690 1715 
Q 1831 1881 1968 2097 
Q 2106 2313 2186 2536 
Q 2266 2759 2266 3009 
Q 2266 3272 2169 3511 
Q 2072 3750 1880 3894 
Q 1688 4038 1416 4038 
Q 1138 4038 916 3870 
Q 694 3703 603 3438 
Q 628 3444 672 3444 
Q 816 3444 917 3347 
Q 1019 3250 1019 3097 
Q 1019 2950 917 2848 
Q 816 2747 672 2747 
Q 522 2747 420 2851 
Q 319 2956 319 3097 
Q 319 3338 409 3548 
Q 500 3759 670 3923 
Q 841 4088 1055 4175 
Q 1269 4263 1509 4263 
Q 1875 4263 2190 4108 
Q 2506 3953 2690 3670 
Q 2875 3388 2875 3009 
Q 2875 2731 2753 2481 
Q 2631 2231 2440 2026 
Q 2250 1822 1953 1562 
Q 1656 1303 1563 1216 
L 838 519 
L 1453 519 
Q 1906 519 2211 526 
Q 2516 534 2534 550 
Q 2609 631 2688 1141 
L 2875 1141 
L 2694 0 
L 319 0 
z
" transform="scale(0.015625)"/>
      </defs>
      <use xlink:href="#Cmmi10-43" transform="translate(0 0.484375)"/>
      <use xlink:href="#Cmr10-32" transform="translate(71.386719 -16.521875) scale(0.7)"/>
     </g>
    </g>
   </g>
   <g id="text_3">
    <g clip-path="url(#p2d1f5391ef)">
     <!-- $C_3$ -->
     <g style="fill: #1e88e5" transform="translate(193.532157 47.991075) scale(0.2 -0.2)">
      <defs>
       <path id="Cmr10-33" d="M 609 494 
Q 759 275 1012 169 
Q 1266 63 1556 63 
Q 1928 63 2084 380 
Q 2241 697 2241 1100 
Q 2241 1281 2208 1462 
Q 2175 1644 2097 1800 
Q 2019 1956 1883 2050 
Q 1747 2144 1550 2144 
L 1125 2144 
Q 1069 2144 1069 2203 
L 1069 2259 
Q 1069 2309 1125 2309 
L 1478 2338 
Q 1703 2338 1851 2506 
Q 2000 2675 2069 2917 
Q 2138 3159 2138 3378 
Q 2138 3684 1994 3881 
Q 1850 4078 1556 4078 
Q 1313 4078 1091 3986 
Q 869 3894 738 3706 
Q 750 3709 759 3711 
Q 769 3713 781 3713 
Q 925 3713 1022 3613 
Q 1119 3513 1119 3372 
Q 1119 3234 1022 3134 
Q 925 3034 781 3034 
Q 641 3034 541 3134 
Q 441 3234 441 3372 
Q 441 3647 606 3850 
Q 772 4053 1033 4158 
Q 1294 4263 1556 4263 
Q 1750 4263 1965 4205 
Q 2181 4147 2356 4039 
Q 2531 3931 2642 3762 
Q 2753 3594 2753 3378 
Q 2753 3109 2633 2881 
Q 2513 2653 2303 2487 
Q 2094 2322 1844 2241 
Q 2122 2188 2372 2031 
Q 2622 1875 2773 1631 
Q 2925 1388 2925 1106 
Q 2925 753 2731 467 
Q 2538 181 2222 20 
Q 1906 -141 1556 -141 
Q 1256 -141 954 -26 
Q 653 88 461 316 
Q 269 544 269 863 
Q 269 1022 375 1128 
Q 481 1234 641 1234 
Q 744 1234 830 1186 
Q 916 1138 964 1050 
Q 1013 963 1013 863 
Q 1013 706 903 600 
Q 794 494 641 494 
L 609 494 
z
" transform="scale(0.015625)"/>
      </defs>
      <use xlink:href="#Cmmi10-43" transform="translate(0 0.484375)"/>
      <use xlink:href="#Cmr10-33" transform="translate(71.386719 -16.521875) scale(0.7)"/>
     </g>
    </g>
   </g>
  </g>
 </g>
 <defs>
  <clipPath id="p2d1f5391ef">
   <rect x="7.2" y="7.2" width="439.2" height="252.987712"/>
  </clipPath>
 </defs>
</svg>
