<?xml version="1.0" encoding="utf-8" standalone="no"?>
<!DOCTYPE svg PUBLIC "-//W3C//DTD SVG 1.1//EN"
  "http://www.w3.org/Graphics/SVG/1.1/DTD/svg11.dtd">
<svg xmlns:xlink="http://www.w3.org/1999/xlink" width="453.6pt" height="267.386415pt" viewBox="0 0 453.6 267.386415" xmlns="http://www.w3.org/2000/svg" version="1.1">
 <metadata>
  <rdf:RDF xmlns:dc="http://purl.org/dc/elements/1.1/" xmlns:cc="http://creativecommons.org/ns#" xmlns:rdf="http://www.w3.org/1999/02/22-rdf-syntax-ns#">
   <cc:Work>
    <dc:type rdf:resource="http://purl.org/dc/dcmitype/StillImage"/>
    <dc:date>2025-02-05T12:08:10.962400</dc:date>
    <dc:format>image/svg+xml</dc:format>
    <dc:creator>
     <cc:Agent>
      <dc:title>Matplotlib v3.8.0, https://matplotlib.org/</dc:title>
     </cc:Agent>
    </dc:creator>
   </cc:Work>
  </rdf:RDF>
 </metadata>
 <defs>
  <style type="text/css">*{stroke-linejoin: round; stroke-linecap: butt}</style>
 </defs>
 <g id="figure_1">
  <g id="patch_1">
   <path d="M 0 267.386415 
L 453.6 267.386415 
L 453.6 0 
L 0 0 
z
" style="fill: #ffffff"/>
  </g>
  <g id="axes_1">
   <g id="patch_2">
    <path d="M 7.2 260.186415 
L 446.4 260.186415 
L 446.4 7.2 
L 7.2 7.2 
z
" style="fill: #ffffff"/>
   </g>
   <g id="PathCollection_1">
    <path d="M 149.972328 105.127151 
C 150.810974 105.127151 151.615384 104.793953 152.208396 104.200941 
C 152.801408 103.607929 153.134606 102.803519 153.134606 101.964873 
C 153.134606 101.126227 152.801408 100.321817 152.208396 99.728805 
C 151.615384 99.135793 150.810974 98.802595 149.972328 98.802595 
C 149.133682 98.802595 148.329272 99.135793 147.73626 99.728805 
C 147.143248 100.321817 146.81005 101.126227 146.81005 101.964873 
C 146.81005 102.803519 147.143248 103.607929 147.73626 104.200941 
C 148.329272 104.793953 149.133682 105.127151 149.972328 105.127151 
z
" clip-path="url(#p30cc41e52f)"/>
   </g>
   <g id="PathCollection_2">
    <path d="M 437.953846 258.48357 
C 438.792492 258.48357 439.596902 258.150372 440.189914 257.55736 
C 440.782926 256.964348 441.116124 256.159938 441.116124 255.321292 
C 441.116124 254.482646 440.782926 253.678236 440.189914 253.085224 
C 439.596902 252.492212 438.792492 252.159014 437.953846 252.159014 
C 437.1152 252.159014 436.31079 252.492212 435.717778 253.085224 
C 435.124766 253.678236 434.791568 254.482646 434.791568 255.321292 
C 434.791568 256.159938 435.124766 256.964348 435.717778 257.55736 
C 436.31079 258.150372 437.1152 258.48357 437.953846 258.48357 
z
" clip-path="url(#p30cc41e52f)"/>
   </g>
   <g id="PathCollection_3">
    <path d="M 285.918741 15.227401 
C 286.757387 15.227401 287.561797 14.894204 288.154809 14.301191 
C 288.747821 13.708179 289.081018 12.903769 289.081018 12.065123 
C 289.081018 11.226478 288.747821 10.422068 288.154809 9.829055 
C 287.561797 9.236043 286.757387 8.902846 285.918741 8.902846 
C 285.080095 8.902846 284.275685 9.236043 283.682673 9.829055 
C 283.089661 10.422068 282.756463 11.226478 282.756463 12.065123 
C 282.756463 12.903769 283.089661 13.708179 283.682673 14.301191 
C 284.275685 14.894204 285.080095 15.227401 285.918741 15.227401 
z
" clip-path="url(#p30cc41e52f)"/>
   </g>
   <g id="matplotlib.axis_1"/>
   <g id="matplotlib.axis_2"/>
   <g id="line2d_1">
    <path d="M 437.953846 255.321292 
L 425.679821 246.092304 
L 417.053998 239.72644 
L 399.414203 227.022597 
L 386.295102 217.853844 
L 368.226269 205.6263 
L 353.421186 195.9624 
L 337.239185 185.776284 
L 326.36589 179.158621 
L 312.171755 170.801668 
L 301.305782 164.625311 
L 286.938181 156.761525 
L 271.641166 148.780243 
L 264.579044 145.235785 
L 253.702909 139.955351 
L 242.511454 134.753511 
L 229.605318 129.056332 
L 219.640436 124.886324 
L 208.992446 120.658911 
L 197.64213 116.422317 
L 189.288657 113.488827 
L 177.321014 109.570404 
L 166.424312 106.307092 
L 159.320065 104.343143 
L 151.742209 102.396748 
L 144.110128 100.597612 
L 133.809825 98.438828 
L 125.454641 96.927805 
L 115.117248 95.376463 
L 105.346122 94.258224 
L 98.363703 93.683175 
L 90.090877 93.264065 
L 82.279946 93.152634 
L 75.590823 93.298675 
L 68.581514 93.716928 
L 64.803204 94.066316 
L 58.436414 94.874011 
L 53.326409 95.744643 
L 47.410824 97.03961 
L 44.307009 97.861161 
L 38.900489 99.570703 
L 34.95485 101.087466 
L 31.94643 102.434595 
L 28.417155 104.282619 
L 26.819546 105.238734 
L 24.14262 107.061538 
L 22.21857 108.599496 
L 21.346748 109.381761 
L 19.670725 111.095638 
L 17.817163 113.514975 
L 17.279799 114.403933 
L 16.475693 116.06994 
L 15.887644 117.941826 
L 15.646154 119.696264 
L 15.731161 121.530838 
L 16.031803 122.88255 
L 16.635147 124.399377 
L 16.997375 125.064389 
L 18.155823 126.674733 
L 19.398813 127.946431 
L 20.944979 129.177094 
L 22.974439 130.432947 
L 24.848308 131.350926 
L 27.04968 132.218173 
L 29.979869 133.108617 
L 32.979105 133.781454 
L 37.036084 134.395221 
L 39.357686 134.620847 
L 44.227097 134.849411 
L 47.252717 134.84739 
L 51.121094 134.705908 
L 57.841086 134.13807 
L 62.896422 133.47641 
L 68.642698 132.510314 
L 73.695239 131.491186 
L 79.378066 130.172289 
L 86.396078 128.312815 
L 96.491627 125.23328 
L 104.410125 122.514408 
L 114.058822 118.872877 
L 122.280291 115.506039 
L 132.412377 111.04634 
L 141.958079 106.551055 
L 149.488178 102.815274 
L 158.119731 98.337315 
L 168.379652 92.755181 
L 178.177575 87.1736 
L 190.323057 79.930848 
L 203.627682 71.60521 
L 212.035924 66.141488 
L 224.470465 57.786084 
L 235.159075 50.35036 
L 244.604325 43.59114 
L 257.727014 33.91627 
L 265.946866 27.692633 
L 281.819607 15.329877 
L 285.918741 12.065123 
L 285.918741 12.065123 
" clip-path="url(#p30cc41e52f)" style="fill: none; stroke: #1e88e5; stroke-width: 2; stroke-linecap: square"/>
   </g>
   <g id="patch_3">
    <path d="M 222.57078 126.091452 
Q 221.980377 125.847576 223.456668 126.457384 
" clip-path="url(#p30cc41e52f)" style="fill: none; stroke: #1e88e5; stroke-width: 2; stroke-linecap: round"/>
    <path d="M 230.790303 134.896448 
L 223.456668 126.457384 
L 234.6081 125.653914 
z
" clip-path="url(#p30cc41e52f)" style="fill: #1e88e5; stroke: #1e88e5; stroke-width: 2; stroke-linecap: round"/>
   </g>
   <g id="patch_4">
    <path d="M 53.642885 95.684431 
Q 53.390338 95.732687 55.334124 95.361275 
" clip-path="url(#p30cc41e52f)" style="fill: none; stroke: #1e88e5; stroke-width: 2; stroke-linecap: round"/>
    <path d="M 66.094831 98.39561 
L 55.334124 95.361275 
L 64.218016 88.57331 
z
" clip-path="url(#p30cc41e52f)" style="fill: #1e88e5; stroke: #1e88e5; stroke-width: 2; stroke-linecap: round"/>
   </g>
   <g id="patch_5">
    <path d="M 210.914755 66.878847 
Q 211.489955 66.500537 210.196939 67.350955 
" clip-path="url(#p30cc41e52f)" style="fill: none; stroke: #1e88e5; stroke-width: 2; stroke-linecap: round"/>
    <path d="M 199.094508 68.668537 
L 210.196939 67.350955 
L 204.589546 77.023449 
z
" clip-path="url(#p30cc41e52f)" style="fill: #1e88e5; stroke: #1e88e5; stroke-width: 2; stroke-linecap: round"/>
   </g>
   <g id="text_1">
    <g clip-path="url(#p30cc41e52f)">
     <!-- $C_1$ -->
     <g style="fill: #1e88e5" transform="translate(220.561814 166.240421) scale(0.2 -0.2)">
      <defs>
       <path id="Cmmi10-43" d="M 934 1381 
Q 934 997 1082 705 
Q 1231 413 1514 248 
Q 1797 84 2181 84 
Q 2584 84 2957 290 
Q 3331 497 3595 842 
Q 3859 1188 3956 1575 
Q 3969 1613 4006 1613 
L 4084 1613 
Q 4109 1613 4125 1595 
Q 4141 1578 4141 1556 
Q 4141 1550 4134 1538 
Q 4025 1094 3711 705 
Q 3397 316 2959 87 
Q 2522 -141 2059 -141 
Q 1559 -141 1162 84 
Q 766 309 545 709 
Q 325 1109 325 1613 
Q 325 2150 565 2676 
Q 806 3203 1212 3614 
Q 1619 4025 2139 4269 
Q 2659 4513 3194 4513 
Q 3406 4513 3600 4448 
Q 3794 4384 3959 4253 
Q 4125 4122 4231 3950 
L 4738 4500 
Q 4738 4513 4769 4513 
L 4806 4513 
Q 4831 4513 4847 4491 
Q 4863 4469 4863 4447 
L 4428 2719 
Q 4428 2675 4378 2675 
L 4263 2675 
Q 4213 2675 4213 2747 
Q 4238 2888 4238 3084 
Q 4238 3397 4131 3673 
Q 4025 3950 3801 4119 
Q 3578 4288 3256 4288 
Q 2734 4288 2300 4025 
Q 1866 3763 1564 3336 
Q 1263 2909 1098 2389 
Q 934 1869 934 1381 
z
" transform="scale(0.015625)"/>
       <path id="Cmr10-31" d="M 594 0 
L 594 225 
Q 1394 225 1394 428 
L 1394 3788 
Q 1063 3628 556 3628 
L 556 3853 
Q 1341 3853 1741 4263 
L 1831 4263 
Q 1853 4263 1873 4245 
Q 1894 4228 1894 4206 
L 1894 428 
Q 1894 225 2694 225 
L 2694 0 
L 594 0 
z
" transform="scale(0.015625)"/>
      </defs>
      <use xlink:href="#Cmmi10-43" transform="translate(0 0.484375)"/>
      <use xlink:href="#Cmr10-31" transform="translate(71.386719 -16.521875) scale(0.7)"/>
     </g>
    </g>
   </g>
   <g id="text_2">
    <g clip-path="url(#p30cc41e52f)">
     <!-- $C_2$ -->
     <g style="fill: #1e88e5" transform="translate(71.905267 115.562052) scale(0.2 -0.2)">
      <defs>
       <path id="Cmr10-32" d="M 319 0 
L 319 172 
Q 319 188 331 206 
L 1325 1306 
Q 1550 1550 1690 1715 
Q 1831 1881 1968 2097 
Q 2106 2313 2186 2536 
Q 2266 2759 2266 3009 
Q 2266 3272 2169 3511 
Q 2072 3750 1880 3894 
Q 1688 4038 1416 4038 
Q 1138 4038 916 3870 
Q 694 3703 603 3438 
Q 628 3444 672 3444 
Q 816 3444 917 3347 
Q 1019 3250 1019 3097 
Q 1019 2950 917 2848 
Q 816 2747 672 2747 
Q 522 2747 420 2851 
Q 319 2956 319 3097 
Q 319 3338 409 3548 
Q 500 3759 670 3923 
Q 841 4088 1055 4175 
Q 1269 4263 1509 4263 
Q 1875 4263 2190 4108 
Q 2506 3953 2690 3670 
Q 2875 3388 2875 3009 
Q 2875 2731 2753 2481 
Q 2631 2231 2440 2026 
Q 2250 1822 1953 1562 
Q 1656 1303 1563 1216 
L 838 519 
L 1453 519 
Q 1906 519 2211 526 
Q 2516 534 2534 550 
Q 2609 631 2688 1141 
L 2875 1141 
L 2694 0 
L 319 0 
z
" transform="scale(0.015625)"/>
      </defs>
      <use xlink:href="#Cmmi10-43" transform="translate(0 0.484375)"/>
      <use xlink:href="#Cmr10-32" transform="translate(71.386719 -16.521875) scale(0.7)"/>
     </g>
    </g>
   </g>
   <g id="text_3">
    <g clip-path="url(#p30cc41e52f)">
     <!-- $C_3$ -->
     <g style="fill: #1e88e5" transform="translate(193.533351 47.990894) scale(0.2 -0.2)">
      <defs>
       <path id="Cmr10-33" d="M 609 494 
Q 759 275 1012 169 
Q 1266 63 1556 63 
Q 1928 63 2084 380 
Q 2241 697 2241 1100 
Q 2241 1281 2208 1462 
Q 2175 1644 2097 1800 
Q 2019 1956 1883 2050 
Q 1747 2144 1550 2144 
L 1125 2144 
Q 1069 2144 1069 2203 
L 1069 2259 
Q 1069 2309 1125 2309 
L 1478 2338 
Q 1703 2338 1851 2506 
Q 2000 2675 2069 2917 
Q 2138 3159 2138 3378 
Q 2138 3684 1994 3881 
Q 1850 4078 1556 4078 
Q 1313 4078 1091 3986 
Q 869 3894 738 3706 
Q 750 3709 759 3711 
Q 769 3713 781 3713 
Q 925 3713 1022 3613 
Q 1119 3513 1119 3372 
Q 1119 3234 1022 3134 
Q 925 3034 781 3034 
Q 641 3034 541 3134 
Q 441 3234 441 3372 
Q 441 3647 606 3850 
Q 772 4053 1033 4158 
Q 1294 4263 1556 4263 
Q 1750 4263 1965 4205 
Q 2181 4147 2356 4039 
Q 2531 3931 2642 3762 
Q 2753 3594 2753 3378 
Q 2753 3109 2633 2881 
Q 2513 2653 2303 2487 
Q 2094 2322 1844 2241 
Q 2122 2188 2372 2031 
Q 2622 1875 2773 1631 
Q 2925 1388 2925 1106 
Q 2925 753 2731 467 
Q 2538 181 2222 20 
Q 1906 -141 1556 -141 
Q 1256 -141 954 -26 
Q 653 88 461 316 
Q 269 544 269 863 
Q 269 1022 375 1128 
Q 481 1234 641 1234 
Q 744 1234 830 1186 
Q 916 1138 964 1050 
Q 1013 963 1013 863 
Q 1013 706 903 600 
Q 794 494 641 494 
L 609 494 
z
" transform="scale(0.015625)"/>
      </defs>
      <use xlink:href="#Cmmi10-43" transform="translate(0 0.484375)"/>
      <use xlink:href="#Cmr10-33" transform="translate(71.386719 -16.521875) scale(0.7)"/>
     </g>
    </g>
   </g>
  </g>
 </g>
 <defs>
  <clipPath id="p30cc41e52f">
   <rect x="7.2" y="7.2" width="439.2" height="252.986415"/>
  </clipPath>
 </defs>
</svg>
