<?xml version="1.0" encoding="utf-8" standalone="no"?>
<!DOCTYPE svg PUBLIC "-//W3C//DTD SVG 1.1//EN"
  "http://www.w3.org/Graphics/SVG/1.1/DTD/svg11.dtd">
<svg xmlns:xlink="http://www.w3.org/1999/xlink" width="453.6pt" height="267.379869pt" viewBox="0 0 453.6 267.379869" xmlns="http://www.w3.org/2000/svg" version="1.1">
 <metadata>
  <rdf:RDF xmlns:dc="http://purl.org/dc/elements/1.1/" xmlns:cc="http://creativecommons.org/ns#" xmlns:rdf="http://www.w3.org/1999/02/22-rdf-syntax-ns#">
   <cc:Work>
    <dc:type rdf:resource="http://purl.org/dc/dcmitype/StillImage"/>
    <dc:date>2024-09-10T13:40:00.459737</dc:date>
    <dc:format>image/svg+xml</dc:format>
    <dc:creator>
     <cc:Agent>
      <dc:title>Matplotlib v3.8.0, https://matplotlib.org/</dc:title>
     </cc:Agent>
    </dc:creator>
   </cc:Work>
  </rdf:RDF>
 </metadata>
 <defs>
  <style type="text/css">*{stroke-linejoin: round; stroke-linecap: butt}</style>
 </defs>
 <g id="figure_1">
  <g id="patch_1">
   <path d="M 0 267.379869 
L 453.6 267.379869 
L 453.6 0 
L 0 0 
z
" style="fill: #ffffff"/>
  </g>
  <g id="axes_1">
   <g id="patch_2">
    <path d="M 7.2 260.179869 
L 446.4 260.179869 
L 446.4 7.2 
L 7.2 7.2 
z
" style="fill: #ffffff"/>
   </g>
   <g id="PathCollection_1">
    <path d="M 149.97978 105.124699 
C 150.818426 105.124699 151.622836 104.791501 152.215848 104.198489 
C 152.80886 103.605477 153.142058 102.801067 153.142058 101.962421 
C 153.142058 101.123775 152.80886 100.319365 152.215848 99.726353 
C 151.622836 99.133341 150.818426 98.800143 149.97978 98.800143 
C 149.141134 98.800143 148.336724 99.133341 147.743712 99.726353 
C 147.1507 100.319365 146.817502 101.123775 146.817502 101.962421 
C 146.817502 102.801067 147.1507 103.605477 147.743712 104.198489 
C 148.336724 104.791501 149.141134 105.124699 149.97978 105.124699 
z
" clip-path="url(#p52580bd714)"/>
   </g>
   <g id="PathCollection_2">
    <path d="M 437.953846 258.477149 
C 438.792492 258.477149 439.596902 258.143952 440.189914 257.55094 
C 440.782926 256.957927 441.116124 256.153517 441.116124 255.314872 
C 441.116124 254.476226 440.782926 253.671816 440.189914 253.078804 
C 439.596902 252.485792 438.792492 252.152594 437.953846 252.152594 
C 437.1152 252.152594 436.31079 252.485792 435.717778 253.078804 
C 435.124766 253.671816 434.791568 254.476226 434.791568 255.314872 
C 434.791568 256.153517 435.124766 256.957927 435.717778 257.55094 
C 436.31079 258.143952 437.1152 258.477149 437.953846 258.477149 
z
" clip-path="url(#p52580bd714)"/>
   </g>
   <g id="PathCollection_3">
    <path d="M 285.922675 15.227275 
C 286.761321 15.227275 287.565731 14.894078 288.158743 14.301065 
C 288.751755 13.708053 289.084952 12.903643 289.084952 12.064997 
C 289.084952 11.226352 288.751755 10.421942 288.158743 9.82893 
C 287.565731 9.235917 286.761321 8.90272 285.922675 8.90272 
C 285.084029 8.90272 284.279619 9.235917 283.686607 9.82893 
C 283.093595 10.421942 282.760397 11.226352 282.760397 12.064997 
C 282.760397 12.903643 283.093595 13.708053 283.686607 14.301065 
C 284.279619 14.894078 285.084029 15.227275 285.922675 15.227275 
z
" clip-path="url(#p52580bd714)"/>
   </g>
   <g id="matplotlib.axis_1"/>
   <g id="matplotlib.axis_2"/>
   <g id="line2d_1">
    <path d="M 437.953846 255.314872 
L 420.587393 242.315595 
L 409.61882 234.313466 
L 390.985075 221.097471 
L 375.016885 210.160129 
L 357.176901 198.376827 
L 340.512525 187.798241 
L 325.418839 178.584841 
L 314.11649 171.921361 
L 301.679465 164.828423 
L 285.614592 156.048842 
L 270.220057 148.053933 
L 257.428455 141.733744 
L 246.795121 136.71072 
L 236.416947 132.01671 
L 225.313595 127.230069 
L 213.129706 122.267633 
L 204.353687 118.888056 
L 191.942318 114.398397 
L 181.430262 110.872422 
L 173.962915 108.528382 
L 165.734646 106.106111 
L 155.981657 103.462059 
L 147.452915 101.36107 
L 138.480997 99.374461 
L 129.39465 97.6089 
L 122.096428 96.38055 
L 112.35882 95.021964 
L 104.208537 94.148329 
L 95.418539 93.497502 
L 86.911907 93.181473 
L 79.312271 93.18652 
L 72.723939 93.433568 
L 65.722461 93.97154 
L 60.517556 94.577091 
L 54.174886 95.584701 
L 48.578497 96.757237 
L 43.159922 98.193267 
L 38.884362 99.577657 
L 34.591761 101.242515 
L 30.893474 102.955274 
L 28.171461 104.427842 
L 25.017619 106.435658 
L 23.271649 107.735354 
L 20.589979 110.124581 
L 19.133423 111.734144 
L 18.390049 112.694091 
L 17.181504 114.598776 
L 16.349199 116.4225 
L 15.843374 118.200041 
L 15.646154 120.029383 
L 15.713307 121.311856 
L 16.067924 122.961674 
L 16.607525 124.318108 
L 17.646566 126.019649 
L 17.856542 126.294048 
L 19.78807 128.27353 
L 21.803063 129.73838 
L 24.097047 130.997389 
L 26.834177 132.134637 
L 30.084775 133.129876 
L 33.280228 133.832619 
L 35.925148 134.252069 
L 40.552849 134.702012 
L 43.358667 134.827118 
L 47.270823 134.84395 
L 51.654572 134.67243 
L 57.429068 134.181366 
L 61.717417 133.645349 
L 68.908215 132.459122 
L 73.928612 131.439356 
L 80.050463 130.003988 
L 88.881686 127.59673 
L 97.676172 124.842728 
L 105.896824 121.976312 
L 113.792751 118.978301 
L 122.672924 115.340135 
L 133.665452 110.473028 
L 143.904009 105.602503 
L 148.421224 103.355742 
L 158.395071 98.192621 
L 167.865483 93.04309 
L 180.657493 85.725229 
L 193.383523 78.053304 
L 202.937349 72.049157 
L 217.710949 62.370645 
L 232.375802 52.311234 
L 243.918116 44.090724 
L 256.198104 35.062931 
L 267.318835 26.644724 
L 278.492549 17.961153 
L 285.922675 12.064997 
L 285.922675 12.064997 
" clip-path="url(#p52580bd714)" style="fill: none; stroke: #1e88e5; stroke-width: 2; stroke-linecap: square"/>
   </g>
   <g id="patch_3">
    <path d="M 222.576353 126.088376 
Q 221.985966 125.844506 223.462271 126.454321 
" clip-path="url(#p52580bd714)" style="fill: none; stroke: #1e88e5; stroke-width: 2; stroke-linecap: round"/>
    <path d="M 230.795907 134.893384 
L 223.462271 126.454321 
L 234.613703 125.65085 
z
" clip-path="url(#p52580bd714)" style="fill: #1e88e5; stroke: #1e88e5; stroke-width: 2; stroke-linecap: round"/>
   </g>
   <g id="patch_4">
    <path d="M 53.65283 95.682142 
Q 53.400289 95.730396 55.344081 95.358983 
" clip-path="url(#p52580bd714)" style="fill: none; stroke: #1e88e5; stroke-width: 2; stroke-linecap: round"/>
    <path d="M 66.104788 98.393318 
L 55.344081 95.358983 
L 64.227973 88.571018 
z
" clip-path="url(#p52580bd714)" style="fill: #1e88e5; stroke: #1e88e5; stroke-width: 2; stroke-linecap: round"/>
   </g>
   <g id="patch_5">
    <path d="M 210.92063 66.877302 
Q 211.495815 66.499003 210.202784 67.349431 
" clip-path="url(#p52580bd714)" style="fill: none; stroke: #1e88e5; stroke-width: 2; stroke-linecap: round"/>
    <path d="M 199.100353 68.667012 
L 210.202784 67.349431 
L 204.595391 77.021925 
z
" clip-path="url(#p52580bd714)" style="fill: #1e88e5; stroke: #1e88e5; stroke-width: 2; stroke-linecap: round"/>
   </g>
   <g id="text_1">
    <g clip-path="url(#p52580bd714)">
     <!-- $C_1$ -->
     <g style="fill: #1e88e5" transform="translate(220.567147 166.236448) scale(0.2 -0.2)">
      <defs>
       <path id="Cmmi10-43" d="M 934 1381 
Q 934 997 1082 705 
Q 1231 413 1514 248 
Q 1797 84 2181 84 
Q 2584 84 2957 290 
Q 3331 497 3595 842 
Q 3859 1188 3956 1575 
Q 3969 1613 4006 1613 
L 4084 1613 
Q 4109 1613 4125 1595 
Q 4141 1578 4141 1556 
Q 4141 1550 4134 1538 
Q 4025 1094 3711 705 
Q 3397 316 2959 87 
Q 2522 -141 2059 -141 
Q 1559 -141 1162 84 
Q 766 309 545 709 
Q 325 1109 325 1613 
Q 325 2150 565 2676 
Q 806 3203 1212 3614 
Q 1619 4025 2139 4269 
Q 2659 4513 3194 4513 
Q 3406 4513 3600 4448 
Q 3794 4384 3959 4253 
Q 4125 4122 4231 3950 
L 4738 4500 
Q 4738 4513 4769 4513 
L 4806 4513 
Q 4831 4513 4847 4491 
Q 4863 4469 4863 4447 
L 4428 2719 
Q 4428 2675 4378 2675 
L 4263 2675 
Q 4213 2675 4213 2747 
Q 4238 2888 4238 3084 
Q 4238 3397 4131 3673 
Q 4025 3950 3801 4119 
Q 3578 4288 3256 4288 
Q 2734 4288 2300 4025 
Q 1866 3763 1564 3336 
Q 1263 2909 1098 2389 
Q 934 1869 934 1381 
z
" transform="scale(0.015625)"/>
       <path id="Cmr10-31" d="M 594 0 
L 594 225 
Q 1394 225 1394 428 
L 1394 3788 
Q 1063 3628 556 3628 
L 556 3853 
Q 1341 3853 1741 4263 
L 1831 4263 
Q 1853 4263 1873 4245 
Q 1894 4228 1894 4206 
L 1894 428 
Q 1894 225 2694 225 
L 2694 0 
L 594 0 
z
" transform="scale(0.015625)"/>
      </defs>
      <use xlink:href="#Cmmi10-43" transform="translate(0 0.484375)"/>
      <use xlink:href="#Cmr10-31" transform="translate(71.386719 -16.521875) scale(0.7)"/>
     </g>
    </g>
   </g>
   <g id="text_2">
    <g clip-path="url(#p52580bd714)">
     <!-- $C_2$ -->
     <g style="fill: #1e88e5" transform="translate(71.914446 115.559391) scale(0.2 -0.2)">
      <defs>
       <path id="Cmr10-32" d="M 319 0 
L 319 172 
Q 319 188 331 206 
L 1325 1306 
Q 1550 1550 1690 1715 
Q 1831 1881 1968 2097 
Q 2106 2313 2186 2536 
Q 2266 2759 2266 3009 
Q 2266 3272 2169 3511 
Q 2072 3750 1880 3894 
Q 1688 4038 1416 4038 
Q 1138 4038 916 3870 
Q 694 3703 603 3438 
Q 628 3444 672 3444 
Q 816 3444 917 3347 
Q 1019 3250 1019 3097 
Q 1019 2950 917 2848 
Q 816 2747 672 2747 
Q 522 2747 420 2851 
Q 319 2956 319 3097 
Q 319 3338 409 3548 
Q 500 3759 670 3923 
Q 841 4088 1055 4175 
Q 1269 4263 1509 4263 
Q 1875 4263 2190 4108 
Q 2506 3953 2690 3670 
Q 2875 3388 2875 3009 
Q 2875 2731 2753 2481 
Q 2631 2231 2440 2026 
Q 2250 1822 1953 1562 
Q 1656 1303 1563 1216 
L 838 519 
L 1453 519 
Q 1906 519 2211 526 
Q 2516 534 2534 550 
Q 2609 631 2688 1141 
L 2875 1141 
L 2694 0 
L 319 0 
z
" transform="scale(0.015625)"/>
      </defs>
      <use xlink:href="#Cmmi10-43" transform="translate(0 0.484375)"/>
      <use xlink:href="#Cmr10-32" transform="translate(71.386719 -16.521875) scale(0.7)"/>
     </g>
    </g>
   </g>
   <g id="text_3">
    <g clip-path="url(#p52580bd714)">
     <!-- $C_3$ -->
     <g style="fill: #1e88e5" transform="translate(193.539383 47.989982) scale(0.2 -0.2)">
      <defs>
       <path id="Cmr10-33" d="M 609 494 
Q 759 275 1012 169 
Q 1266 63 1556 63 
Q 1928 63 2084 380 
Q 2241 697 2241 1100 
Q 2241 1281 2208 1462 
Q 2175 1644 2097 1800 
Q 2019 1956 1883 2050 
Q 1747 2144 1550 2144 
L 1125 2144 
Q 1069 2144 1069 2203 
L 1069 2259 
Q 1069 2309 1125 2309 
L 1478 2338 
Q 1703 2338 1851 2506 
Q 2000 2675 2069 2917 
Q 2138 3159 2138 3378 
Q 2138 3684 1994 3881 
Q 1850 4078 1556 4078 
Q 1313 4078 1091 3986 
Q 869 3894 738 3706 
Q 750 3709 759 3711 
Q 769 3713 781 3713 
Q 925 3713 1022 3613 
Q 1119 3513 1119 3372 
Q 1119 3234 1022 3134 
Q 925 3034 781 3034 
Q 641 3034 541 3134 
Q 441 3234 441 3372 
Q 441 3647 606 3850 
Q 772 4053 1033 4158 
Q 1294 4263 1556 4263 
Q 1750 4263 1965 4205 
Q 2181 4147 2356 4039 
Q 2531 3931 2642 3762 
Q 2753 3594 2753 3378 
Q 2753 3109 2633 2881 
Q 2513 2653 2303 2487 
Q 2094 2322 1844 2241 
Q 2122 2188 2372 2031 
Q 2622 1875 2773 1631 
Q 2925 1388 2925 1106 
Q 2925 753 2731 467 
Q 2538 181 2222 20 
Q 1906 -141 1556 -141 
Q 1256 -141 954 -26 
Q 653 88 461 316 
Q 269 544 269 863 
Q 269 1022 375 1128 
Q 481 1234 641 1234 
Q 744 1234 830 1186 
Q 916 1138 964 1050 
Q 1013 963 1013 863 
Q 1013 706 903 600 
Q 794 494 641 494 
L 609 494 
z
" transform="scale(0.015625)"/>
      </defs>
      <use xlink:href="#Cmmi10-43" transform="translate(0 0.484375)"/>
      <use xlink:href="#Cmr10-33" transform="translate(71.386719 -16.521875) scale(0.7)"/>
     </g>
    </g>
   </g>
  </g>
 </g>
 <defs>
  <clipPath id="p52580bd714">
   <rect x="7.2" y="7.2" width="439.2" height="252.979869"/>
  </clipPath>
 </defs>
</svg>
