<?xml version="1.0" encoding="utf-8" standalone="no"?>
<!DOCTYPE svg PUBLIC "-//W3C//DTD SVG 1.1//EN"
  "http://www.w3.org/Graphics/SVG/1.1/DTD/svg11.dtd">
<!-- Created with matplotlib (http://matplotlib.org/) -->
<svg height="280.705pt" version="1.1" viewBox="0 0 284.756571 280.705" width="284.756571pt" xmlns="http://www.w3.org/2000/svg" xmlns:xlink="http://www.w3.org/1999/xlink">
 <defs>
  <style type="text/css">
*{stroke-linecap:butt;stroke-linejoin:round;}
  </style>
 </defs>
 <g id="figure_1">
  <g id="patch_1">
   <path d="M 0 280.705 
L 284.756571 280.705 
L 284.756571 0 
L 0 0 
z
" style="fill:#ffffff;"/>
  </g>
  <g id="axes_1">
   <g id="patch_2">
    <path d="M 10.7 270.005 
L 260.276571 270.005 
L 260.276571 30.685 
L 10.7 30.685 
z
" style="fill:#ffffff;"/>
   </g>
   <g id="Quiver_1">
    <path clip-path="url(#p0729d4f8f3)" d="M 33.580044 252.752395 
L 20.740716 252.752395 
L 21.239869 254.749007 
L 16.248338 252.253242 
L 21.239869 249.757476 
L 20.740716 251.754089 
L 33.580044 251.754089 
L 33.580044 252.752395 
" style="fill:#0000ff;"/>
    <path clip-path="url(#p0729d4f8f3)" d="M 33.580044 238.194075 
L 23.216674 238.194075 
L 23.715827 240.190687 
L 18.724296 237.694922 
L 23.715827 235.199156 
L 23.216674 237.195768 
L 33.580044 237.195768 
L 33.580044 238.194075 
" style="fill:#0000ff;"/>
    <path clip-path="url(#p0729d4f8f3)" d="M 33.580044 223.635754 
L 25.692632 223.635754 
L 26.191785 225.632367 
L 21.200254 223.136601 
L 26.191785 220.640836 
L 25.692632 222.637448 
L 33.580044 222.637448 
L 33.580044 223.635754 
" style="fill:#0000ff;"/>
    <path clip-path="url(#p0729d4f8f3)" d="M 33.580044 209.077434 
L 28.16859 209.077434 
L 28.667743 211.074047 
L 23.676212 208.578281 
L 28.667743 206.082515 
L 28.16859 208.079128 
L 33.580044 208.079128 
L 33.580044 209.077434 
" style="fill:#0000ff;"/>
    <path clip-path="url(#p0729d4f8f3)" d="M 33.580044 194.519114 
L 30.644548 194.519114 
L 31.143701 196.515726 
L 26.15217 194.019961 
L 31.143701 191.524195 
L 30.644548 193.520808 
L 33.580044 193.520808 
L 33.580044 194.519114 
" style="fill:#0000ff;"/>
    <path clip-path="url(#p0729d4f8f3)" d="M 33.580044 179.956832 
L 33.084852 179.956832 
L 33.580044 181.937599 
L 28.628128 179.461641 
L 33.580044 176.985682 
L 33.084852 178.966449 
L 33.580044 178.966449 
L 33.580044 179.956832 
" style="fill:#0000ff;"/>
    <path clip-path="url(#p0729d4f8f3)" d="M 33.580044 165.150916 
L 33.332448 165.150916 
L 33.580044 166.141299 
L 31.104086 164.90332 
L 33.580044 163.665341 
L 33.332448 164.655724 
L 33.580044 164.655724 
L 33.580044 165.150916 
" style="fill:#0000ff;"/>
    <path clip-path="url(#p0729d4f8f3)" d="M 34.079197 150.345 
L 33.829621 149.912721 
L 33.330467 149.912721 
L 33.080891 150.345 
L 33.330467 150.777279 
L 33.829621 150.777279 
L 34.079197 150.345 
L 33.829621 149.912721 
" style="fill:#0000ff;"/>
    <path clip-path="url(#p0729d4f8f3)" d="M 33.580044 135.539084 
L 33.82764 135.539084 
L 33.580044 134.548701 
L 36.056002 135.78668 
L 33.580044 137.024659 
L 33.82764 136.034276 
L 33.580044 136.034276 
L 33.580044 135.539084 
" style="fill:#0000ff;"/>
    <path clip-path="url(#p0729d4f8f3)" d="M 33.580044 120.733168 
L 34.075236 120.733168 
L 33.580044 118.752401 
L 38.53196 121.228359 
L 33.580044 123.704318 
L 34.075236 121.723551 
L 33.580044 121.723551 
L 33.580044 120.733168 
" style="fill:#0000ff;"/>
    <path clip-path="url(#p0729d4f8f3)" d="M 33.580044 106.170886 
L 36.51554 106.170886 
L 36.016387 104.174274 
L 41.007918 106.670039 
L 36.016387 109.165805 
L 36.51554 107.169192 
L 33.580044 107.169192 
L 33.580044 106.170886 
" style="fill:#0000ff;"/>
    <path clip-path="url(#p0729d4f8f3)" d="M 33.580044 91.612566 
L 38.991498 91.612566 
L 38.492345 89.615953 
L 43.483876 92.111719 
L 38.492345 94.607485 
L 38.991498 92.610872 
L 33.580044 92.610872 
L 33.580044 91.612566 
" style="fill:#0000ff;"/>
    <path clip-path="url(#p0729d4f8f3)" d="M 33.580044 77.054246 
L 41.467456 77.054246 
L 40.968303 75.057633 
L 45.959834 77.553399 
L 40.968303 80.049164 
L 41.467456 78.052552 
L 33.580044 78.052552 
L 33.580044 77.054246 
" style="fill:#0000ff;"/>
    <path clip-path="url(#p0729d4f8f3)" d="M 33.580044 62.495925 
L 43.943414 62.495925 
L 43.444261 60.499313 
L 48.435792 62.995078 
L 43.444261 65.490844 
L 43.943414 63.494232 
L 33.580044 63.494232 
L 33.580044 62.495925 
" style="fill:#0000ff;"/>
    <path clip-path="url(#p0729d4f8f3)" d="M 33.580044 47.937605 
L 46.419372 47.937605 
L 45.920219 45.940993 
L 50.91175 48.436758 
L 45.920219 50.932524 
L 46.419372 48.935911 
L 33.580044 48.935911 
L 33.580044 47.937605 
" style="fill:#0000ff;"/>
    <path clip-path="url(#p0729d4f8f3)" d="M 48.138364 252.752395 
L 35.299036 252.752395 
L 35.798189 254.749007 
L 30.806658 252.253242 
L 35.798189 249.757476 
L 35.299036 251.754089 
L 48.138364 251.754089 
L 48.138364 252.752395 
" style="fill:#0000ff;"/>
    <path clip-path="url(#p0729d4f8f3)" d="M 48.138364 238.194075 
L 37.774994 238.194075 
L 38.274147 240.190687 
L 33.282616 237.694922 
L 38.274147 235.199156 
L 37.774994 237.195768 
L 48.138364 237.195768 
L 48.138364 238.194075 
" style="fill:#0000ff;"/>
    <path clip-path="url(#p0729d4f8f3)" d="M 48.138364 223.635754 
L 40.250952 223.635754 
L 40.750105 225.632367 
L 35.758574 223.136601 
L 40.750105 220.640836 
L 40.250952 222.637448 
L 48.138364 222.637448 
L 48.138364 223.635754 
" style="fill:#0000ff;"/>
    <path clip-path="url(#p0729d4f8f3)" d="M 48.138364 209.077434 
L 42.72691 209.077434 
L 43.226063 211.074047 
L 38.234532 208.578281 
L 43.226063 206.082515 
L 42.72691 208.079128 
L 48.138364 208.079128 
L 48.138364 209.077434 
" style="fill:#0000ff;"/>
    <path clip-path="url(#p0729d4f8f3)" d="M 48.138364 194.519114 
L 45.202868 194.519114 
L 45.702021 196.515726 
L 40.71049 194.019961 
L 45.702021 191.524195 
L 45.202868 193.520808 
L 48.138364 193.520808 
L 48.138364 194.519114 
" style="fill:#0000ff;"/>
    <path clip-path="url(#p0729d4f8f3)" d="M 48.138364 179.956832 
L 47.643173 179.956832 
L 48.138364 181.937599 
L 43.186448 179.461641 
L 48.138364 176.985682 
L 47.643173 178.966449 
L 48.138364 178.966449 
L 48.138364 179.956832 
" style="fill:#0000ff;"/>
    <path clip-path="url(#p0729d4f8f3)" d="M 48.138364 165.150916 
L 47.890768 165.150916 
L 48.138364 166.141299 
L 45.662406 164.90332 
L 48.138364 163.665341 
L 47.890768 164.655724 
L 48.138364 164.655724 
L 48.138364 165.150916 
" style="fill:#0000ff;"/>
    <path clip-path="url(#p0729d4f8f3)" d="M 48.637517 150.345 
L 48.387941 149.912721 
L 47.888788 149.912721 
L 47.639211 150.345 
L 47.888788 150.777279 
L 48.387941 150.777279 
L 48.637517 150.345 
L 48.387941 149.912721 
" style="fill:#0000ff;"/>
    <path clip-path="url(#p0729d4f8f3)" d="M 48.138364 135.539084 
L 48.38596 135.539084 
L 48.138364 134.548701 
L 50.614322 135.78668 
L 48.138364 137.024659 
L 48.38596 136.034276 
L 48.138364 136.034276 
L 48.138364 135.539084 
" style="fill:#0000ff;"/>
    <path clip-path="url(#p0729d4f8f3)" d="M 48.138364 120.733168 
L 48.633556 120.733168 
L 48.138364 118.752401 
L 53.09028 121.228359 
L 48.138364 123.704318 
L 48.633556 121.723551 
L 48.138364 121.723551 
L 48.138364 120.733168 
" style="fill:#0000ff;"/>
    <path clip-path="url(#p0729d4f8f3)" d="M 48.138364 106.170886 
L 51.07386 106.170886 
L 50.574707 104.174274 
L 55.566238 106.670039 
L 50.574707 109.165805 
L 51.07386 107.169192 
L 48.138364 107.169192 
L 48.138364 106.170886 
" style="fill:#0000ff;"/>
    <path clip-path="url(#p0729d4f8f3)" d="M 48.138364 91.612566 
L 53.549818 91.612566 
L 53.050665 89.615953 
L 58.042196 92.111719 
L 53.050665 94.607485 
L 53.549818 92.610872 
L 48.138364 92.610872 
L 48.138364 91.612566 
" style="fill:#0000ff;"/>
    <path clip-path="url(#p0729d4f8f3)" d="M 48.138364 77.054246 
L 56.025776 77.054246 
L 55.526623 75.057633 
L 60.518154 77.553399 
L 55.526623 80.049164 
L 56.025776 78.052552 
L 48.138364 78.052552 
L 48.138364 77.054246 
" style="fill:#0000ff;"/>
    <path clip-path="url(#p0729d4f8f3)" d="M 48.138364 62.495925 
L 58.501734 62.495925 
L 58.002581 60.499313 
L 62.994113 62.995078 
L 58.002581 65.490844 
L 58.501734 63.494232 
L 48.138364 63.494232 
L 48.138364 62.495925 
" style="fill:#0000ff;"/>
    <path clip-path="url(#p0729d4f8f3)" d="M 48.138364 47.937605 
L 60.977692 47.937605 
L 60.478539 45.940993 
L 65.470071 48.436758 
L 60.478539 50.932524 
L 60.977692 48.935911 
L 48.138364 48.935911 
L 48.138364 47.937605 
" style="fill:#0000ff;"/>
    <path clip-path="url(#p0729d4f8f3)" d="M 62.696684 252.752395 
L 49.857356 252.752395 
L 50.35651 254.749007 
L 45.364978 252.253242 
L 50.35651 249.757476 
L 49.857356 251.754089 
L 62.696684 251.754089 
L 62.696684 252.752395 
" style="fill:#0000ff;"/>
    <path clip-path="url(#p0729d4f8f3)" d="M 62.696684 238.194075 
L 52.333314 238.194075 
L 52.832468 240.190687 
L 47.840936 237.694922 
L 52.832468 235.199156 
L 52.333314 237.195768 
L 62.696684 237.195768 
L 62.696684 238.194075 
" style="fill:#0000ff;"/>
    <path clip-path="url(#p0729d4f8f3)" d="M 62.696684 223.635754 
L 54.809272 223.635754 
L 55.308426 225.632367 
L 50.316894 223.136601 
L 55.308426 220.640836 
L 54.809272 222.637448 
L 62.696684 222.637448 
L 62.696684 223.635754 
" style="fill:#0000ff;"/>
    <path clip-path="url(#p0729d4f8f3)" d="M 62.696684 209.077434 
L 57.285231 209.077434 
L 57.784384 211.074047 
L 52.792852 208.578281 
L 57.784384 206.082515 
L 57.285231 208.079128 
L 62.696684 208.079128 
L 62.696684 209.077434 
" style="fill:#0000ff;"/>
    <path clip-path="url(#p0729d4f8f3)" d="M 62.696684 194.519114 
L 59.761189 194.519114 
L 60.260342 196.515726 
L 55.26881 194.019961 
L 60.260342 191.524195 
L 59.761189 193.520808 
L 62.696684 193.520808 
L 62.696684 194.519114 
" style="fill:#0000ff;"/>
    <path clip-path="url(#p0729d4f8f3)" d="M 62.696684 179.956832 
L 62.201493 179.956832 
L 62.696684 181.937599 
L 57.744768 179.461641 
L 62.696684 176.985682 
L 62.201493 178.966449 
L 62.696684 178.966449 
L 62.696684 179.956832 
" style="fill:#0000ff;"/>
    <path clip-path="url(#p0729d4f8f3)" d="M 62.696684 165.150916 
L 62.449089 165.150916 
L 62.696684 166.141299 
L 60.220726 164.90332 
L 62.696684 163.665341 
L 62.449089 164.655724 
L 62.696684 164.655724 
L 62.696684 165.150916 
" style="fill:#0000ff;"/>
    <path clip-path="url(#p0729d4f8f3)" d="M 63.195838 150.345 
L 62.946261 149.912721 
L 62.447108 149.912721 
L 62.197531 150.345 
L 62.447108 150.777279 
L 62.946261 150.777279 
L 63.195838 150.345 
L 62.946261 149.912721 
" style="fill:#0000ff;"/>
    <path clip-path="url(#p0729d4f8f3)" d="M 62.696684 135.539084 
L 62.94428 135.539084 
L 62.696684 134.548701 
L 65.172643 135.78668 
L 62.696684 137.024659 
L 62.94428 136.034276 
L 62.696684 136.034276 
L 62.696684 135.539084 
" style="fill:#0000ff;"/>
    <path clip-path="url(#p0729d4f8f3)" d="M 62.696684 120.733168 
L 63.191876 120.733168 
L 62.696684 118.752401 
L 67.648601 121.228359 
L 62.696684 123.704318 
L 63.191876 121.723551 
L 62.696684 121.723551 
L 62.696684 120.733168 
" style="fill:#0000ff;"/>
    <path clip-path="url(#p0729d4f8f3)" d="M 62.696684 106.170886 
L 65.63218 106.170886 
L 65.133027 104.174274 
L 70.124559 106.670039 
L 65.133027 109.165805 
L 65.63218 107.169192 
L 62.696684 107.169192 
L 62.696684 106.170886 
" style="fill:#0000ff;"/>
    <path clip-path="url(#p0729d4f8f3)" d="M 62.696684 91.612566 
L 68.108138 91.612566 
L 67.608985 89.615953 
L 72.600517 92.111719 
L 67.608985 94.607485 
L 68.108138 92.610872 
L 62.696684 92.610872 
L 62.696684 91.612566 
" style="fill:#0000ff;"/>
    <path clip-path="url(#p0729d4f8f3)" d="M 62.696684 77.054246 
L 70.584096 77.054246 
L 70.084943 75.057633 
L 75.076475 77.553399 
L 70.084943 80.049164 
L 70.584096 78.052552 
L 62.696684 78.052552 
L 62.696684 77.054246 
" style="fill:#0000ff;"/>
    <path clip-path="url(#p0729d4f8f3)" d="M 62.696684 62.495925 
L 73.060054 62.495925 
L 72.560901 60.499313 
L 77.552433 62.995078 
L 72.560901 65.490844 
L 73.060054 63.494232 
L 62.696684 63.494232 
L 62.696684 62.495925 
" style="fill:#0000ff;"/>
    <path clip-path="url(#p0729d4f8f3)" d="M 62.696684 47.937605 
L 75.536013 47.937605 
L 75.036859 45.940993 
L 80.028391 48.436758 
L 75.036859 50.932524 
L 75.536013 48.935911 
L 62.696684 48.935911 
L 62.696684 47.937605 
" style="fill:#0000ff;"/>
    <path clip-path="url(#p0729d4f8f3)" d="M 77.255005 252.752395 
L 64.415677 252.752395 
L 64.91483 254.749007 
L 59.923298 252.253242 
L 64.91483 249.757476 
L 64.415677 251.754089 
L 77.255005 251.754089 
L 77.255005 252.752395 
" style="fill:#0000ff;"/>
    <path clip-path="url(#p0729d4f8f3)" d="M 77.255005 238.194075 
L 66.891635 238.194075 
L 67.390788 240.190687 
L 62.399256 237.694922 
L 67.390788 235.199156 
L 66.891635 237.195768 
L 77.255005 237.195768 
L 77.255005 238.194075 
" style="fill:#0000ff;"/>
    <path clip-path="url(#p0729d4f8f3)" d="M 77.255005 223.635754 
L 69.367593 223.635754 
L 69.866746 225.632367 
L 64.875214 223.136601 
L 69.866746 220.640836 
L 69.367593 222.637448 
L 77.255005 222.637448 
L 77.255005 223.635754 
" style="fill:#0000ff;"/>
    <path clip-path="url(#p0729d4f8f3)" d="M 77.255005 209.077434 
L 71.843551 209.077434 
L 72.342704 211.074047 
L 67.351173 208.578281 
L 72.342704 206.082515 
L 71.843551 208.079128 
L 77.255005 208.079128 
L 77.255005 209.077434 
" style="fill:#0000ff;"/>
    <path clip-path="url(#p0729d4f8f3)" d="M 77.255005 194.519114 
L 74.319509 194.519114 
L 74.818662 196.515726 
L 69.827131 194.019961 
L 74.818662 191.524195 
L 74.319509 193.520808 
L 77.255005 193.520808 
L 77.255005 194.519114 
" style="fill:#0000ff;"/>
    <path clip-path="url(#p0729d4f8f3)" d="M 77.255005 179.956832 
L 76.759813 179.956832 
L 77.255005 181.937599 
L 72.303089 179.461641 
L 77.255005 176.985682 
L 76.759813 178.966449 
L 77.255005 178.966449 
L 77.255005 179.956832 
" style="fill:#0000ff;"/>
    <path clip-path="url(#p0729d4f8f3)" d="M 77.255005 165.150916 
L 77.007409 165.150916 
L 77.255005 166.141299 
L 74.779047 164.90332 
L 77.255005 163.665341 
L 77.007409 164.655724 
L 77.255005 164.655724 
L 77.255005 165.150916 
" style="fill:#0000ff;"/>
    <path clip-path="url(#p0729d4f8f3)" d="M 77.754158 150.345 
L 77.504581 149.912721 
L 77.005428 149.912721 
L 76.755852 150.345 
L 77.005428 150.777279 
L 77.504581 150.777279 
L 77.754158 150.345 
L 77.504581 149.912721 
" style="fill:#0000ff;"/>
    <path clip-path="url(#p0729d4f8f3)" d="M 77.255005 135.539084 
L 77.502601 135.539084 
L 77.255005 134.548701 
L 79.730963 135.78668 
L 77.255005 137.024659 
L 77.502601 136.034276 
L 77.255005 136.034276 
L 77.255005 135.539084 
" style="fill:#0000ff;"/>
    <path clip-path="url(#p0729d4f8f3)" d="M 77.255005 120.733168 
L 77.750196 120.733168 
L 77.255005 118.752401 
L 82.206921 121.228359 
L 77.255005 123.704318 
L 77.750196 121.723551 
L 77.255005 121.723551 
L 77.255005 120.733168 
" style="fill:#0000ff;"/>
    <path clip-path="url(#p0729d4f8f3)" d="M 77.255005 106.170886 
L 80.190501 106.170886 
L 79.691347 104.174274 
L 84.682879 106.670039 
L 79.691347 109.165805 
L 80.190501 107.169192 
L 77.255005 107.169192 
L 77.255005 106.170886 
" style="fill:#0000ff;"/>
    <path clip-path="url(#p0729d4f8f3)" d="M 77.255005 91.612566 
L 82.666459 91.612566 
L 82.167305 89.615953 
L 87.158837 92.111719 
L 82.167305 94.607485 
L 82.666459 92.610872 
L 77.255005 92.610872 
L 77.255005 91.612566 
" style="fill:#0000ff;"/>
    <path clip-path="url(#p0729d4f8f3)" d="M 77.255005 77.054246 
L 85.142417 77.054246 
L 84.643264 75.057633 
L 89.634795 77.553399 
L 84.643264 80.049164 
L 85.142417 78.052552 
L 77.255005 78.052552 
L 77.255005 77.054246 
" style="fill:#0000ff;"/>
    <path clip-path="url(#p0729d4f8f3)" d="M 77.255005 62.495925 
L 87.618375 62.495925 
L 87.119222 60.499313 
L 92.110753 62.995078 
L 87.119222 65.490844 
L 87.618375 63.494232 
L 77.255005 63.494232 
L 77.255005 62.495925 
" style="fill:#0000ff;"/>
    <path clip-path="url(#p0729d4f8f3)" d="M 77.255005 47.937605 
L 90.094333 47.937605 
L 89.59518 45.940993 
L 94.586711 48.436758 
L 89.59518 50.932524 
L 90.094333 48.935911 
L 77.255005 48.935911 
L 77.255005 47.937605 
" style="fill:#0000ff;"/>
    <path clip-path="url(#p0729d4f8f3)" d="M 91.813325 252.752395 
L 78.973997 252.752395 
L 79.47315 254.749007 
L 74.481619 252.253242 
L 79.47315 249.757476 
L 78.973997 251.754089 
L 91.813325 251.754089 
L 91.813325 252.752395 
" style="fill:#0000ff;"/>
    <path clip-path="url(#p0729d4f8f3)" d="M 91.813325 238.194075 
L 81.449955 238.194075 
L 81.949108 240.190687 
L 76.957577 237.694922 
L 81.949108 235.199156 
L 81.449955 237.195768 
L 91.813325 237.195768 
L 91.813325 238.194075 
" style="fill:#0000ff;"/>
    <path clip-path="url(#p0729d4f8f3)" d="M 91.813325 223.635754 
L 83.925913 223.635754 
L 84.425066 225.632367 
L 79.433535 223.136601 
L 84.425066 220.640836 
L 83.925913 222.637448 
L 91.813325 222.637448 
L 91.813325 223.635754 
" style="fill:#0000ff;"/>
    <path clip-path="url(#p0729d4f8f3)" d="M 91.813325 209.077434 
L 86.401871 209.077434 
L 86.901024 211.074047 
L 81.909493 208.578281 
L 86.901024 206.082515 
L 86.401871 208.079128 
L 91.813325 208.079128 
L 91.813325 209.077434 
" style="fill:#0000ff;"/>
    <path clip-path="url(#p0729d4f8f3)" d="M 91.813325 194.519114 
L 88.877829 194.519114 
L 89.376982 196.515726 
L 84.385451 194.019961 
L 89.376982 191.524195 
L 88.877829 193.520808 
L 91.813325 193.520808 
L 91.813325 194.519114 
" style="fill:#0000ff;"/>
    <path clip-path="url(#p0729d4f8f3)" d="M 91.813325 179.956832 
L 91.318133 179.956832 
L 91.813325 181.937599 
L 86.861409 179.461641 
L 91.813325 176.985682 
L 91.318133 178.966449 
L 91.813325 178.966449 
L 91.813325 179.956832 
" style="fill:#0000ff;"/>
    <path clip-path="url(#p0729d4f8f3)" d="M 91.813325 165.150916 
L 91.565729 165.150916 
L 91.813325 166.141299 
L 89.337367 164.90332 
L 91.813325 163.665341 
L 91.565729 164.655724 
L 91.813325 164.655724 
L 91.813325 165.150916 
" style="fill:#0000ff;"/>
    <path clip-path="url(#p0729d4f8f3)" d="M 92.312478 150.345 
L 92.062902 149.912721 
L 91.563748 149.912721 
L 91.314172 150.345 
L 91.563748 150.777279 
L 92.062902 150.777279 
L 92.312478 150.345 
L 92.062902 149.912721 
" style="fill:#0000ff;"/>
    <path clip-path="url(#p0729d4f8f3)" d="M 91.813325 135.539084 
L 92.060921 135.539084 
L 91.813325 134.548701 
L 94.289283 135.78668 
L 91.813325 137.024659 
L 92.060921 136.034276 
L 91.813325 136.034276 
L 91.813325 135.539084 
" style="fill:#0000ff;"/>
    <path clip-path="url(#p0729d4f8f3)" d="M 91.813325 120.733168 
L 92.308517 120.733168 
L 91.813325 118.752401 
L 96.765241 121.228359 
L 91.813325 123.704318 
L 92.308517 121.723551 
L 91.813325 121.723551 
L 91.813325 120.733168 
" style="fill:#0000ff;"/>
    <path clip-path="url(#p0729d4f8f3)" d="M 91.813325 106.170886 
L 94.748821 106.170886 
L 94.249668 104.174274 
L 99.241199 106.670039 
L 94.249668 109.165805 
L 94.748821 107.169192 
L 91.813325 107.169192 
L 91.813325 106.170886 
" style="fill:#0000ff;"/>
    <path clip-path="url(#p0729d4f8f3)" d="M 91.813325 91.612566 
L 97.224779 91.612566 
L 96.725626 89.615953 
L 101.717157 92.111719 
L 96.725626 94.607485 
L 97.224779 92.610872 
L 91.813325 92.610872 
L 91.813325 91.612566 
" style="fill:#0000ff;"/>
    <path clip-path="url(#p0729d4f8f3)" d="M 91.813325 77.054246 
L 99.700737 77.054246 
L 99.201584 75.057633 
L 104.193115 77.553399 
L 99.201584 80.049164 
L 99.700737 78.052552 
L 91.813325 78.052552 
L 91.813325 77.054246 
" style="fill:#0000ff;"/>
    <path clip-path="url(#p0729d4f8f3)" d="M 91.813325 62.495925 
L 102.176695 62.495925 
L 101.677542 60.499313 
L 106.669073 62.995078 
L 101.677542 65.490844 
L 102.176695 63.494232 
L 91.813325 63.494232 
L 91.813325 62.495925 
" style="fill:#0000ff;"/>
    <path clip-path="url(#p0729d4f8f3)" d="M 91.813325 47.937605 
L 104.652653 47.937605 
L 104.1535 45.940993 
L 109.145031 48.436758 
L 104.1535 50.932524 
L 104.652653 48.935911 
L 91.813325 48.935911 
L 91.813325 47.937605 
" style="fill:#0000ff;"/>
    <path clip-path="url(#p0729d4f8f3)" d="M 106.371645 252.752395 
L 93.532317 252.752395 
L 94.03147 254.749007 
L 89.039939 252.253242 
L 94.03147 249.757476 
L 93.532317 251.754089 
L 106.371645 251.754089 
L 106.371645 252.752395 
" style="fill:#0000ff;"/>
    <path clip-path="url(#p0729d4f8f3)" d="M 106.371645 238.194075 
L 96.008275 238.194075 
L 96.507428 240.190687 
L 91.515897 237.694922 
L 96.507428 235.199156 
L 96.008275 237.195768 
L 106.371645 237.195768 
L 106.371645 238.194075 
" style="fill:#0000ff;"/>
    <path clip-path="url(#p0729d4f8f3)" d="M 106.371645 223.635754 
L 98.484233 223.635754 
L 98.983386 225.632367 
L 93.991855 223.136601 
L 98.983386 220.640836 
L 98.484233 222.637448 
L 106.371645 222.637448 
L 106.371645 223.635754 
" style="fill:#0000ff;"/>
    <path clip-path="url(#p0729d4f8f3)" d="M 106.371645 209.077434 
L 100.960191 209.077434 
L 101.459344 211.074047 
L 96.467813 208.578281 
L 101.459344 206.082515 
L 100.960191 208.079128 
L 106.371645 208.079128 
L 106.371645 209.077434 
" style="fill:#0000ff;"/>
    <path clip-path="url(#p0729d4f8f3)" d="M 106.371645 194.519114 
L 103.436149 194.519114 
L 103.935302 196.515726 
L 98.943771 194.019961 
L 103.935302 191.524195 
L 103.436149 193.520808 
L 106.371645 193.520808 
L 106.371645 194.519114 
" style="fill:#0000ff;"/>
    <path clip-path="url(#p0729d4f8f3)" d="M 106.371645 179.956832 
L 105.876454 179.956832 
L 106.371645 181.937599 
L 101.419729 179.461641 
L 106.371645 176.985682 
L 105.876454 178.966449 
L 106.371645 178.966449 
L 106.371645 179.956832 
" style="fill:#0000ff;"/>
    <path clip-path="url(#p0729d4f8f3)" d="M 106.371645 165.150916 
L 106.124049 165.150916 
L 106.371645 166.141299 
L 103.895687 164.90332 
L 106.371645 163.665341 
L 106.124049 164.655724 
L 106.371645 164.655724 
L 106.371645 165.150916 
" style="fill:#0000ff;"/>
    <path clip-path="url(#p0729d4f8f3)" d="M 106.870798 150.345 
L 106.621222 149.912721 
L 106.122069 149.912721 
L 105.872492 150.345 
L 106.122069 150.777279 
L 106.621222 150.777279 
L 106.870798 150.345 
L 106.621222 149.912721 
" style="fill:#0000ff;"/>
    <path clip-path="url(#p0729d4f8f3)" d="M 106.371645 135.539084 
L 106.619241 135.539084 
L 106.371645 134.548701 
L 108.847603 135.78668 
L 106.371645 137.024659 
L 106.619241 136.034276 
L 106.371645 136.034276 
L 106.371645 135.539084 
" style="fill:#0000ff;"/>
    <path clip-path="url(#p0729d4f8f3)" d="M 106.371645 120.733168 
L 106.866837 120.733168 
L 106.371645 118.752401 
L 111.323561 121.228359 
L 106.371645 123.704318 
L 106.866837 121.723551 
L 106.371645 121.723551 
L 106.371645 120.733168 
" style="fill:#0000ff;"/>
    <path clip-path="url(#p0729d4f8f3)" d="M 106.371645 106.170886 
L 109.307141 106.170886 
L 108.807988 104.174274 
L 113.799519 106.670039 
L 108.807988 109.165805 
L 109.307141 107.169192 
L 106.371645 107.169192 
L 106.371645 106.170886 
" style="fill:#0000ff;"/>
    <path clip-path="url(#p0729d4f8f3)" d="M 106.371645 91.612566 
L 111.783099 91.612566 
L 111.283946 89.615953 
L 116.275477 92.111719 
L 111.283946 94.607485 
L 111.783099 92.610872 
L 106.371645 92.610872 
L 106.371645 91.612566 
" style="fill:#0000ff;"/>
    <path clip-path="url(#p0729d4f8f3)" d="M 106.371645 77.054246 
L 114.259057 77.054246 
L 113.759904 75.057633 
L 118.751435 77.553399 
L 113.759904 80.049164 
L 114.259057 78.052552 
L 106.371645 78.052552 
L 106.371645 77.054246 
" style="fill:#0000ff;"/>
    <path clip-path="url(#p0729d4f8f3)" d="M 106.371645 62.495925 
L 116.735015 62.495925 
L 116.235862 60.499313 
L 121.227394 62.995078 
L 116.235862 65.490844 
L 116.735015 63.494232 
L 106.371645 63.494232 
L 106.371645 62.495925 
" style="fill:#0000ff;"/>
    <path clip-path="url(#p0729d4f8f3)" d="M 106.371645 47.937605 
L 119.210973 47.937605 
L 118.71182 45.940993 
L 123.703352 48.436758 
L 118.71182 50.932524 
L 119.210973 48.935911 
L 106.371645 48.935911 
L 106.371645 47.937605 
" style="fill:#0000ff;"/>
    <path clip-path="url(#p0729d4f8f3)" d="M 120.929965 252.752395 
L 108.090637 252.752395 
L 108.589791 254.749007 
L 103.598259 252.253242 
L 108.589791 249.757476 
L 108.090637 251.754089 
L 120.929965 251.754089 
L 120.929965 252.752395 
" style="fill:#0000ff;"/>
    <path clip-path="url(#p0729d4f8f3)" d="M 120.929965 238.194075 
L 110.566595 238.194075 
L 111.065749 240.190687 
L 106.074217 237.694922 
L 111.065749 235.199156 
L 110.566595 237.195768 
L 120.929965 237.195768 
L 120.929965 238.194075 
" style="fill:#0000ff;"/>
    <path clip-path="url(#p0729d4f8f3)" d="M 120.929965 223.635754 
L 113.042553 223.635754 
L 113.541707 225.632367 
L 108.550175 223.136601 
L 113.541707 220.640836 
L 113.042553 222.637448 
L 120.929965 222.637448 
L 120.929965 223.635754 
" style="fill:#0000ff;"/>
    <path clip-path="url(#p0729d4f8f3)" d="M 120.929965 209.077434 
L 115.518512 209.077434 
L 116.017665 211.074047 
L 111.026133 208.578281 
L 116.017665 206.082515 
L 115.518512 208.079128 
L 120.929965 208.079128 
L 120.929965 209.077434 
" style="fill:#0000ff;"/>
    <path clip-path="url(#p0729d4f8f3)" d="M 120.929965 194.519114 
L 117.99447 194.519114 
L 118.493623 196.515726 
L 113.502091 194.019961 
L 118.493623 191.524195 
L 117.99447 193.520808 
L 120.929965 193.520808 
L 120.929965 194.519114 
" style="fill:#0000ff;"/>
    <path clip-path="url(#p0729d4f8f3)" d="M 120.929965 179.956832 
L 120.434774 179.956832 
L 120.929965 181.937599 
L 115.978049 179.461641 
L 120.929965 176.985682 
L 120.434774 178.966449 
L 120.929965 178.966449 
L 120.929965 179.956832 
" style="fill:#0000ff;"/>
    <path clip-path="url(#p0729d4f8f3)" d="M 120.929965 165.150916 
L 120.68237 165.150916 
L 120.929965 166.141299 
L 118.454007 164.90332 
L 120.929965 163.665341 
L 120.68237 164.655724 
L 120.929965 164.655724 
L 120.929965 165.150916 
" style="fill:#0000ff;"/>
    <path clip-path="url(#p0729d4f8f3)" d="M 121.429119 150.345 
L 121.179542 149.912721 
L 120.680389 149.912721 
L 120.430812 150.345 
L 120.680389 150.777279 
L 121.179542 150.777279 
L 121.429119 150.345 
L 121.179542 149.912721 
" style="fill:#0000ff;"/>
    <path clip-path="url(#p0729d4f8f3)" d="M 120.929965 135.539084 
L 121.177561 135.539084 
L 120.929965 134.548701 
L 123.405924 135.78668 
L 120.929965 137.024659 
L 121.177561 136.034276 
L 120.929965 136.034276 
L 120.929965 135.539084 
" style="fill:#0000ff;"/>
    <path clip-path="url(#p0729d4f8f3)" d="M 120.929965 120.733168 
L 121.425157 120.733168 
L 120.929965 118.752401 
L 125.881882 121.228359 
L 120.929965 123.704318 
L 121.425157 121.723551 
L 120.929965 121.723551 
L 120.929965 120.733168 
" style="fill:#0000ff;"/>
    <path clip-path="url(#p0729d4f8f3)" d="M 120.929965 106.170886 
L 123.865461 106.170886 
L 123.366308 104.174274 
L 128.35784 106.670039 
L 123.366308 109.165805 
L 123.865461 107.169192 
L 120.929965 107.169192 
L 120.929965 106.170886 
" style="fill:#0000ff;"/>
    <path clip-path="url(#p0729d4f8f3)" d="M 120.929965 91.612566 
L 126.341419 91.612566 
L 125.842266 89.615953 
L 130.833798 92.111719 
L 125.842266 94.607485 
L 126.341419 92.610872 
L 120.929965 92.610872 
L 120.929965 91.612566 
" style="fill:#0000ff;"/>
    <path clip-path="url(#p0729d4f8f3)" d="M 120.929965 77.054246 
L 128.817377 77.054246 
L 128.318224 75.057633 
L 133.309756 77.553399 
L 128.318224 80.049164 
L 128.817377 78.052552 
L 120.929965 78.052552 
L 120.929965 77.054246 
" style="fill:#0000ff;"/>
    <path clip-path="url(#p0729d4f8f3)" d="M 120.929965 62.495925 
L 131.293335 62.495925 
L 130.794182 60.499313 
L 135.785714 62.995078 
L 130.794182 65.490844 
L 131.293335 63.494232 
L 120.929965 63.494232 
L 120.929965 62.495925 
" style="fill:#0000ff;"/>
    <path clip-path="url(#p0729d4f8f3)" d="M 120.929965 47.937605 
L 133.769294 47.937605 
L 133.27014 45.940993 
L 138.261672 48.436758 
L 133.27014 50.932524 
L 133.769294 48.935911 
L 120.929965 48.935911 
L 120.929965 47.937605 
" style="fill:#0000ff;"/>
    <path clip-path="url(#p0729d4f8f3)" d="M 135.488286 252.752395 
L 122.648958 252.752395 
L 123.148111 254.749007 
L 118.156579 252.253242 
L 123.148111 249.757476 
L 122.648958 251.754089 
L 135.488286 251.754089 
L 135.488286 252.752395 
" style="fill:#0000ff;"/>
    <path clip-path="url(#p0729d4f8f3)" d="M 135.488286 238.194075 
L 125.124916 238.194075 
L 125.624069 240.190687 
L 120.632537 237.694922 
L 125.624069 235.199156 
L 125.124916 237.195768 
L 135.488286 237.195768 
L 135.488286 238.194075 
" style="fill:#0000ff;"/>
    <path clip-path="url(#p0729d4f8f3)" d="M 135.488286 223.635754 
L 127.600874 223.635754 
L 128.100027 225.632367 
L 123.108495 223.136601 
L 128.100027 220.640836 
L 127.600874 222.637448 
L 135.488286 222.637448 
L 135.488286 223.635754 
" style="fill:#0000ff;"/>
    <path clip-path="url(#p0729d4f8f3)" d="M 135.488286 209.077434 
L 130.076832 209.077434 
L 130.575985 211.074047 
L 125.584454 208.578281 
L 130.575985 206.082515 
L 130.076832 208.079128 
L 135.488286 208.079128 
L 135.488286 209.077434 
" style="fill:#0000ff;"/>
    <path clip-path="url(#p0729d4f8f3)" d="M 135.488286 194.519114 
L 132.55279 194.519114 
L 133.051943 196.515726 
L 128.060412 194.019961 
L 133.051943 191.524195 
L 132.55279 193.520808 
L 135.488286 193.520808 
L 135.488286 194.519114 
" style="fill:#0000ff;"/>
    <path clip-path="url(#p0729d4f8f3)" d="M 135.488286 179.956832 
L 134.993094 179.956832 
L 135.488286 181.937599 
L 130.53637 179.461641 
L 135.488286 176.985682 
L 134.993094 178.966449 
L 135.488286 178.966449 
L 135.488286 179.956832 
" style="fill:#0000ff;"/>
    <path clip-path="url(#p0729d4f8f3)" d="M 135.488286 165.150916 
L 135.24069 165.150916 
L 135.488286 166.141299 
L 133.012328 164.90332 
L 135.488286 163.665341 
L 135.24069 164.655724 
L 135.488286 164.655724 
L 135.488286 165.150916 
" style="fill:#0000ff;"/>
    <path clip-path="url(#p0729d4f8f3)" d="M 135.987439 150.345 
L 135.737862 149.912721 
L 135.238709 149.912721 
L 134.989133 150.345 
L 135.238709 150.777279 
L 135.737862 150.777279 
L 135.987439 150.345 
L 135.737862 149.912721 
" style="fill:#0000ff;"/>
    <path clip-path="url(#p0729d4f8f3)" d="M 135.488286 135.539084 
L 135.735882 135.539084 
L 135.488286 134.548701 
L 137.964244 135.78668 
L 135.488286 137.024659 
L 135.735882 136.034276 
L 135.488286 136.034276 
L 135.488286 135.539084 
" style="fill:#0000ff;"/>
    <path clip-path="url(#p0729d4f8f3)" d="M 135.488286 120.733168 
L 135.983477 120.733168 
L 135.488286 118.752401 
L 140.440202 121.228359 
L 135.488286 123.704318 
L 135.983477 121.723551 
L 135.488286 121.723551 
L 135.488286 120.733168 
" style="fill:#0000ff;"/>
    <path clip-path="url(#p0729d4f8f3)" d="M 135.488286 106.170886 
L 138.423782 106.170886 
L 137.924628 104.174274 
L 142.91616 106.670039 
L 137.924628 109.165805 
L 138.423782 107.169192 
L 135.488286 107.169192 
L 135.488286 106.170886 
" style="fill:#0000ff;"/>
    <path clip-path="url(#p0729d4f8f3)" d="M 135.488286 91.612566 
L 140.89974 91.612566 
L 140.400586 89.615953 
L 145.392118 92.111719 
L 140.400586 94.607485 
L 140.89974 92.610872 
L 135.488286 92.610872 
L 135.488286 91.612566 
" style="fill:#0000ff;"/>
    <path clip-path="url(#p0729d4f8f3)" d="M 135.488286 77.054246 
L 143.375698 77.054246 
L 142.876545 75.057633 
L 147.868076 77.553399 
L 142.876545 80.049164 
L 143.375698 78.052552 
L 135.488286 78.052552 
L 135.488286 77.054246 
" style="fill:#0000ff;"/>
    <path clip-path="url(#p0729d4f8f3)" d="M 135.488286 62.495925 
L 145.851656 62.495925 
L 145.352503 60.499313 
L 150.344034 62.995078 
L 145.352503 65.490844 
L 145.851656 63.494232 
L 135.488286 63.494232 
L 135.488286 62.495925 
" style="fill:#0000ff;"/>
    <path clip-path="url(#p0729d4f8f3)" d="M 135.488286 47.937605 
L 148.327614 47.937605 
L 147.828461 45.940993 
L 152.819992 48.436758 
L 147.828461 50.932524 
L 148.327614 48.935911 
L 135.488286 48.935911 
L 135.488286 47.937605 
" style="fill:#0000ff;"/>
    <path clip-path="url(#p0729d4f8f3)" d="M 150.046606 252.752395 
L 137.207278 252.752395 
L 137.706431 254.749007 
L 132.7149 252.253242 
L 137.706431 249.757476 
L 137.207278 251.754089 
L 150.046606 251.754089 
L 150.046606 252.752395 
" style="fill:#0000ff;"/>
    <path clip-path="url(#p0729d4f8f3)" d="M 150.046606 238.194075 
L 139.683236 238.194075 
L 140.182389 240.190687 
L 135.190858 237.694922 
L 140.182389 235.199156 
L 139.683236 237.195768 
L 150.046606 237.195768 
L 150.046606 238.194075 
" style="fill:#0000ff;"/>
    <path clip-path="url(#p0729d4f8f3)" d="M 150.046606 223.635754 
L 142.159194 223.635754 
L 142.658347 225.632367 
L 137.666816 223.136601 
L 142.658347 220.640836 
L 142.159194 222.637448 
L 150.046606 222.637448 
L 150.046606 223.635754 
" style="fill:#0000ff;"/>
    <path clip-path="url(#p0729d4f8f3)" d="M 150.046606 209.077434 
L 144.635152 209.077434 
L 145.134305 211.074047 
L 140.142774 208.578281 
L 145.134305 206.082515 
L 144.635152 208.079128 
L 150.046606 208.079128 
L 150.046606 209.077434 
" style="fill:#0000ff;"/>
    <path clip-path="url(#p0729d4f8f3)" d="M 150.046606 194.519114 
L 147.11111 194.519114 
L 147.610263 196.515726 
L 142.618732 194.019961 
L 147.610263 191.524195 
L 147.11111 193.520808 
L 150.046606 193.520808 
L 150.046606 194.519114 
" style="fill:#0000ff;"/>
    <path clip-path="url(#p0729d4f8f3)" d="M 150.046606 179.956832 
L 149.551414 179.956832 
L 150.046606 181.937599 
L 145.09469 179.461641 
L 150.046606 176.985682 
L 149.551414 178.966449 
L 150.046606 178.966449 
L 150.046606 179.956832 
" style="fill:#0000ff;"/>
    <path clip-path="url(#p0729d4f8f3)" d="M 150.046606 165.150916 
L 149.79901 165.150916 
L 150.046606 166.141299 
L 147.570648 164.90332 
L 150.046606 163.665341 
L 149.79901 164.655724 
L 150.046606 164.655724 
L 150.046606 165.150916 
" style="fill:#0000ff;"/>
    <path clip-path="url(#p0729d4f8f3)" d="M 150.545759 150.345 
L 150.296183 149.912721 
L 149.797029 149.912721 
L 149.547453 150.345 
L 149.797029 150.777279 
L 150.296183 150.777279 
L 150.545759 150.345 
L 150.296183 149.912721 
" style="fill:#0000ff;"/>
    <path clip-path="url(#p0729d4f8f3)" d="M 150.046606 135.539084 
L 150.294202 135.539084 
L 150.046606 134.548701 
L 152.522564 135.78668 
L 150.046606 137.024659 
L 150.294202 136.034276 
L 150.046606 136.034276 
L 150.046606 135.539084 
" style="fill:#0000ff;"/>
    <path clip-path="url(#p0729d4f8f3)" d="M 150.046606 120.733168 
L 150.541798 120.733168 
L 150.046606 118.752401 
L 154.998522 121.228359 
L 150.046606 123.704318 
L 150.541798 121.723551 
L 150.046606 121.723551 
L 150.046606 120.733168 
" style="fill:#0000ff;"/>
    <path clip-path="url(#p0729d4f8f3)" d="M 150.046606 106.170886 
L 152.982102 106.170886 
L 152.482949 104.174274 
L 157.47448 106.670039 
L 152.482949 109.165805 
L 152.982102 107.169192 
L 150.046606 107.169192 
L 150.046606 106.170886 
" style="fill:#0000ff;"/>
    <path clip-path="url(#p0729d4f8f3)" d="M 150.046606 91.612566 
L 155.45806 91.612566 
L 154.958907 89.615953 
L 159.950438 92.111719 
L 154.958907 94.607485 
L 155.45806 92.610872 
L 150.046606 92.610872 
L 150.046606 91.612566 
" style="fill:#0000ff;"/>
    <path clip-path="url(#p0729d4f8f3)" d="M 150.046606 77.054246 
L 157.934018 77.054246 
L 157.434865 75.057633 
L 162.426396 77.553399 
L 157.434865 80.049164 
L 157.934018 78.052552 
L 150.046606 78.052552 
L 150.046606 77.054246 
" style="fill:#0000ff;"/>
    <path clip-path="url(#p0729d4f8f3)" d="M 150.046606 62.495925 
L 160.409976 62.495925 
L 159.910823 60.499313 
L 164.902354 62.995078 
L 159.910823 65.490844 
L 160.409976 63.494232 
L 150.046606 63.494232 
L 150.046606 62.495925 
" style="fill:#0000ff;"/>
    <path clip-path="url(#p0729d4f8f3)" d="M 150.046606 47.937605 
L 162.885934 47.937605 
L 162.386781 45.940993 
L 167.378312 48.436758 
L 162.386781 50.932524 
L 162.885934 48.935911 
L 150.046606 48.935911 
L 150.046606 47.937605 
" style="fill:#0000ff;"/>
    <path clip-path="url(#p0729d4f8f3)" d="M 164.604926 252.752395 
L 151.765598 252.752395 
L 152.264751 254.749007 
L 147.27322 252.253242 
L 152.264751 249.757476 
L 151.765598 251.754089 
L 164.604926 251.754089 
L 164.604926 252.752395 
" style="fill:#0000ff;"/>
    <path clip-path="url(#p0729d4f8f3)" d="M 164.604926 238.194075 
L 154.241556 238.194075 
L 154.740709 240.190687 
L 149.749178 237.694922 
L 154.740709 235.199156 
L 154.241556 237.195768 
L 164.604926 237.195768 
L 164.604926 238.194075 
" style="fill:#0000ff;"/>
    <path clip-path="url(#p0729d4f8f3)" d="M 164.604926 223.635754 
L 156.717514 223.635754 
L 157.216667 225.632367 
L 152.225136 223.136601 
L 157.216667 220.640836 
L 156.717514 222.637448 
L 164.604926 222.637448 
L 164.604926 223.635754 
" style="fill:#0000ff;"/>
    <path clip-path="url(#p0729d4f8f3)" d="M 164.604926 209.077434 
L 159.193472 209.077434 
L 159.692625 211.074047 
L 154.701094 208.578281 
L 159.692625 206.082515 
L 159.193472 208.079128 
L 164.604926 208.079128 
L 164.604926 209.077434 
" style="fill:#0000ff;"/>
    <path clip-path="url(#p0729d4f8f3)" d="M 164.604926 194.519114 
L 161.66943 194.519114 
L 162.168583 196.515726 
L 157.177052 194.019961 
L 162.168583 191.524195 
L 161.66943 193.520808 
L 164.604926 193.520808 
L 164.604926 194.519114 
" style="fill:#0000ff;"/>
    <path clip-path="url(#p0729d4f8f3)" d="M 164.604926 179.956832 
L 164.109735 179.956832 
L 164.604926 181.937599 
L 159.65301 179.461641 
L 164.604926 176.985682 
L 164.109735 178.966449 
L 164.604926 178.966449 
L 164.604926 179.956832 
" style="fill:#0000ff;"/>
    <path clip-path="url(#p0729d4f8f3)" d="M 164.604926 165.150916 
L 164.35733 165.150916 
L 164.604926 166.141299 
L 162.128968 164.90332 
L 164.604926 163.665341 
L 164.35733 164.655724 
L 164.604926 164.655724 
L 164.604926 165.150916 
" style="fill:#0000ff;"/>
    <path clip-path="url(#p0729d4f8f3)" d="M 165.104079 150.345 
L 164.854503 149.912721 
L 164.35535 149.912721 
L 164.105773 150.345 
L 164.35535 150.777279 
L 164.854503 150.777279 
L 165.104079 150.345 
L 164.854503 149.912721 
" style="fill:#0000ff;"/>
    <path clip-path="url(#p0729d4f8f3)" d="M 164.604926 135.539084 
L 164.852522 135.539084 
L 164.604926 134.548701 
L 167.080884 135.78668 
L 164.604926 137.024659 
L 164.852522 136.034276 
L 164.604926 136.034276 
L 164.604926 135.539084 
" style="fill:#0000ff;"/>
    <path clip-path="url(#p0729d4f8f3)" d="M 164.604926 120.733168 
L 165.100118 120.733168 
L 164.604926 118.752401 
L 169.556842 121.228359 
L 164.604926 123.704318 
L 165.100118 121.723551 
L 164.604926 121.723551 
L 164.604926 120.733168 
" style="fill:#0000ff;"/>
    <path clip-path="url(#p0729d4f8f3)" d="M 164.604926 106.170886 
L 167.540422 106.170886 
L 167.041269 104.174274 
L 172.0328 106.670039 
L 167.041269 109.165805 
L 167.540422 107.169192 
L 164.604926 107.169192 
L 164.604926 106.170886 
" style="fill:#0000ff;"/>
    <path clip-path="url(#p0729d4f8f3)" d="M 164.604926 91.612566 
L 170.01638 91.612566 
L 169.517227 89.615953 
L 174.508758 92.111719 
L 169.517227 94.607485 
L 170.01638 92.610872 
L 164.604926 92.610872 
L 164.604926 91.612566 
" style="fill:#0000ff;"/>
    <path clip-path="url(#p0729d4f8f3)" d="M 164.604926 77.054246 
L 172.492338 77.054246 
L 171.993185 75.057633 
L 176.984716 77.553399 
L 171.993185 80.049164 
L 172.492338 78.052552 
L 164.604926 78.052552 
L 164.604926 77.054246 
" style="fill:#0000ff;"/>
    <path clip-path="url(#p0729d4f8f3)" d="M 164.604926 62.495925 
L 174.968296 62.495925 
L 174.469143 60.499313 
L 179.460675 62.995078 
L 174.469143 65.490844 
L 174.968296 63.494232 
L 164.604926 63.494232 
L 164.604926 62.495925 
" style="fill:#0000ff;"/>
    <path clip-path="url(#p0729d4f8f3)" d="M 164.604926 47.937605 
L 177.444254 47.937605 
L 176.945101 45.940993 
L 181.936633 48.436758 
L 176.945101 50.932524 
L 177.444254 48.935911 
L 164.604926 48.935911 
L 164.604926 47.937605 
" style="fill:#0000ff;"/>
    <path clip-path="url(#p0729d4f8f3)" d="M 179.163246 252.752395 
L 166.323918 252.752395 
L 166.823072 254.749007 
L 161.83154 252.253242 
L 166.823072 249.757476 
L 166.323918 251.754089 
L 179.163246 251.754089 
L 179.163246 252.752395 
" style="fill:#0000ff;"/>
    <path clip-path="url(#p0729d4f8f3)" d="M 179.163246 238.194075 
L 168.799876 238.194075 
L 169.29903 240.190687 
L 164.307498 237.694922 
L 169.29903 235.199156 
L 168.799876 237.195768 
L 179.163246 237.195768 
L 179.163246 238.194075 
" style="fill:#0000ff;"/>
    <path clip-path="url(#p0729d4f8f3)" d="M 179.163246 223.635754 
L 171.275835 223.635754 
L 171.774988 225.632367 
L 166.783456 223.136601 
L 171.774988 220.640836 
L 171.275835 222.637448 
L 179.163246 222.637448 
L 179.163246 223.635754 
" style="fill:#0000ff;"/>
    <path clip-path="url(#p0729d4f8f3)" d="M 179.163246 209.077434 
L 173.751793 209.077434 
L 174.250946 211.074047 
L 169.259414 208.578281 
L 174.250946 206.082515 
L 173.751793 208.079128 
L 179.163246 208.079128 
L 179.163246 209.077434 
" style="fill:#0000ff;"/>
    <path clip-path="url(#p0729d4f8f3)" d="M 179.163246 194.519114 
L 176.227751 194.519114 
L 176.726904 196.515726 
L 171.735372 194.019961 
L 176.726904 191.524195 
L 176.227751 193.520808 
L 179.163246 193.520808 
L 179.163246 194.519114 
" style="fill:#0000ff;"/>
    <path clip-path="url(#p0729d4f8f3)" d="M 179.163246 179.956832 
L 178.668055 179.956832 
L 179.163246 181.937599 
L 174.21133 179.461641 
L 179.163246 176.985682 
L 178.668055 178.966449 
L 179.163246 178.966449 
L 179.163246 179.956832 
" style="fill:#0000ff;"/>
    <path clip-path="url(#p0729d4f8f3)" d="M 179.163246 165.150916 
L 178.915651 165.150916 
L 179.163246 166.141299 
L 176.687288 164.90332 
L 179.163246 163.665341 
L 178.915651 164.655724 
L 179.163246 164.655724 
L 179.163246 165.150916 
" style="fill:#0000ff;"/>
    <path clip-path="url(#p0729d4f8f3)" d="M 179.6624 150.345 
L 179.412823 149.912721 
L 178.91367 149.912721 
L 178.664093 150.345 
L 178.91367 150.777279 
L 179.412823 150.777279 
L 179.6624 150.345 
L 179.412823 149.912721 
" style="fill:#0000ff;"/>
    <path clip-path="url(#p0729d4f8f3)" d="M 179.163246 135.539084 
L 179.410842 135.539084 
L 179.163246 134.548701 
L 181.639205 135.78668 
L 179.163246 137.024659 
L 179.410842 136.034276 
L 179.163246 136.034276 
L 179.163246 135.539084 
" style="fill:#0000ff;"/>
    <path clip-path="url(#p0729d4f8f3)" d="M 179.163246 120.733168 
L 179.658438 120.733168 
L 179.163246 118.752401 
L 184.115163 121.228359 
L 179.163246 123.704318 
L 179.658438 121.723551 
L 179.163246 121.723551 
L 179.163246 120.733168 
" style="fill:#0000ff;"/>
    <path clip-path="url(#p0729d4f8f3)" d="M 179.163246 106.170886 
L 182.098742 106.170886 
L 181.599589 104.174274 
L 186.591121 106.670039 
L 181.599589 109.165805 
L 182.098742 107.169192 
L 179.163246 107.169192 
L 179.163246 106.170886 
" style="fill:#0000ff;"/>
    <path clip-path="url(#p0729d4f8f3)" d="M 179.163246 91.612566 
L 184.5747 91.612566 
L 184.075547 89.615953 
L 189.067079 92.111719 
L 184.075547 94.607485 
L 184.5747 92.610872 
L 179.163246 92.610872 
L 179.163246 91.612566 
" style="fill:#0000ff;"/>
    <path clip-path="url(#p0729d4f8f3)" d="M 179.163246 77.054246 
L 187.050658 77.054246 
L 186.551505 75.057633 
L 191.543037 77.553399 
L 186.551505 80.049164 
L 187.050658 78.052552 
L 179.163246 78.052552 
L 179.163246 77.054246 
" style="fill:#0000ff;"/>
    <path clip-path="url(#p0729d4f8f3)" d="M 179.163246 62.495925 
L 189.526616 62.495925 
L 189.027463 60.499313 
L 194.018995 62.995078 
L 189.027463 65.490844 
L 189.526616 63.494232 
L 179.163246 63.494232 
L 179.163246 62.495925 
" style="fill:#0000ff;"/>
    <path clip-path="url(#p0729d4f8f3)" d="M 179.163246 47.937605 
L 192.002575 47.937605 
L 191.503421 45.940993 
L 196.494953 48.436758 
L 191.503421 50.932524 
L 192.002575 48.935911 
L 179.163246 48.935911 
L 179.163246 47.937605 
" style="fill:#0000ff;"/>
    <path clip-path="url(#p0729d4f8f3)" d="M 193.721567 252.752395 
L 180.882239 252.752395 
L 181.381392 254.749007 
L 176.38986 252.253242 
L 181.381392 249.757476 
L 180.882239 251.754089 
L 193.721567 251.754089 
L 193.721567 252.752395 
" style="fill:#0000ff;"/>
    <path clip-path="url(#p0729d4f8f3)" d="M 193.721567 238.194075 
L 183.358197 238.194075 
L 183.85735 240.190687 
L 178.865818 237.694922 
L 183.85735 235.199156 
L 183.358197 237.195768 
L 193.721567 237.195768 
L 193.721567 238.194075 
" style="fill:#0000ff;"/>
    <path clip-path="url(#p0729d4f8f3)" d="M 193.721567 223.635754 
L 185.834155 223.635754 
L 186.333308 225.632367 
L 181.341776 223.136601 
L 186.333308 220.640836 
L 185.834155 222.637448 
L 193.721567 222.637448 
L 193.721567 223.635754 
" style="fill:#0000ff;"/>
    <path clip-path="url(#p0729d4f8f3)" d="M 193.721567 209.077434 
L 188.310113 209.077434 
L 188.809266 211.074047 
L 183.817735 208.578281 
L 188.809266 206.082515 
L 188.310113 208.079128 
L 193.721567 208.079128 
L 193.721567 209.077434 
" style="fill:#0000ff;"/>
    <path clip-path="url(#p0729d4f8f3)" d="M 193.721567 194.519114 
L 190.786071 194.519114 
L 191.285224 196.515726 
L 186.293693 194.019961 
L 191.285224 191.524195 
L 190.786071 193.520808 
L 193.721567 193.520808 
L 193.721567 194.519114 
" style="fill:#0000ff;"/>
    <path clip-path="url(#p0729d4f8f3)" d="M 193.721567 179.956832 
L 193.226375 179.956832 
L 193.721567 181.937599 
L 188.769651 179.461641 
L 193.721567 176.985682 
L 193.226375 178.966449 
L 193.721567 178.966449 
L 193.721567 179.956832 
" style="fill:#0000ff;"/>
    <path clip-path="url(#p0729d4f8f3)" d="M 193.721567 165.150916 
L 193.473971 165.150916 
L 193.721567 166.141299 
L 191.245609 164.90332 
L 193.721567 163.665341 
L 193.473971 164.655724 
L 193.721567 164.655724 
L 193.721567 165.150916 
" style="fill:#0000ff;"/>
    <path clip-path="url(#p0729d4f8f3)" d="M 194.22072 150.345 
L 193.971143 149.912721 
L 193.47199 149.912721 
L 193.222414 150.345 
L 193.47199 150.777279 
L 193.971143 150.777279 
L 194.22072 150.345 
L 193.971143 149.912721 
" style="fill:#0000ff;"/>
    <path clip-path="url(#p0729d4f8f3)" d="M 193.721567 135.539084 
L 193.969163 135.539084 
L 193.721567 134.548701 
L 196.197525 135.78668 
L 193.721567 137.024659 
L 193.969163 136.034276 
L 193.721567 136.034276 
L 193.721567 135.539084 
" style="fill:#0000ff;"/>
    <path clip-path="url(#p0729d4f8f3)" d="M 193.721567 120.733168 
L 194.216758 120.733168 
L 193.721567 118.752401 
L 198.673483 121.228359 
L 193.721567 123.704318 
L 194.216758 121.723551 
L 193.721567 121.723551 
L 193.721567 120.733168 
" style="fill:#0000ff;"/>
    <path clip-path="url(#p0729d4f8f3)" d="M 193.721567 106.170886 
L 196.657063 106.170886 
L 196.157909 104.174274 
L 201.149441 106.670039 
L 196.157909 109.165805 
L 196.657063 107.169192 
L 193.721567 107.169192 
L 193.721567 106.170886 
" style="fill:#0000ff;"/>
    <path clip-path="url(#p0729d4f8f3)" d="M 193.721567 91.612566 
L 199.133021 91.612566 
L 198.633867 89.615953 
L 203.625399 92.111719 
L 198.633867 94.607485 
L 199.133021 92.610872 
L 193.721567 92.610872 
L 193.721567 91.612566 
" style="fill:#0000ff;"/>
    <path clip-path="url(#p0729d4f8f3)" d="M 193.721567 77.054246 
L 201.608979 77.054246 
L 201.109826 75.057633 
L 206.101357 77.553399 
L 201.109826 80.049164 
L 201.608979 78.052552 
L 193.721567 78.052552 
L 193.721567 77.054246 
" style="fill:#0000ff;"/>
    <path clip-path="url(#p0729d4f8f3)" d="M 193.721567 62.495925 
L 204.084937 62.495925 
L 203.585784 60.499313 
L 208.577315 62.995078 
L 203.585784 65.490844 
L 204.084937 63.494232 
L 193.721567 63.494232 
L 193.721567 62.495925 
" style="fill:#0000ff;"/>
    <path clip-path="url(#p0729d4f8f3)" d="M 193.721567 47.937605 
L 206.560895 47.937605 
L 206.061742 45.940993 
L 211.053273 48.436758 
L 206.061742 50.932524 
L 206.560895 48.935911 
L 193.721567 48.935911 
L 193.721567 47.937605 
" style="fill:#0000ff;"/>
    <path clip-path="url(#p0729d4f8f3)" d="M 208.279887 252.752395 
L 195.440559 252.752395 
L 195.939712 254.749007 
L 190.948181 252.253242 
L 195.939712 249.757476 
L 195.440559 251.754089 
L 208.279887 251.754089 
L 208.279887 252.752395 
" style="fill:#0000ff;"/>
    <path clip-path="url(#p0729d4f8f3)" d="M 208.279887 238.194075 
L 197.916517 238.194075 
L 198.41567 240.190687 
L 193.424139 237.694922 
L 198.41567 235.199156 
L 197.916517 237.195768 
L 208.279887 237.195768 
L 208.279887 238.194075 
" style="fill:#0000ff;"/>
    <path clip-path="url(#p0729d4f8f3)" d="M 208.279887 223.635754 
L 200.392475 223.635754 
L 200.891628 225.632367 
L 195.900097 223.136601 
L 200.891628 220.640836 
L 200.392475 222.637448 
L 208.279887 222.637448 
L 208.279887 223.635754 
" style="fill:#0000ff;"/>
    <path clip-path="url(#p0729d4f8f3)" d="M 208.279887 209.077434 
L 202.868433 209.077434 
L 203.367586 211.074047 
L 198.376055 208.578281 
L 203.367586 206.082515 
L 202.868433 208.079128 
L 208.279887 208.079128 
L 208.279887 209.077434 
" style="fill:#0000ff;"/>
    <path clip-path="url(#p0729d4f8f3)" d="M 208.279887 194.519114 
L 205.344391 194.519114 
L 205.843544 196.515726 
L 200.852013 194.019961 
L 205.843544 191.524195 
L 205.344391 193.520808 
L 208.279887 193.520808 
L 208.279887 194.519114 
" style="fill:#0000ff;"/>
    <path clip-path="url(#p0729d4f8f3)" d="M 208.279887 179.956832 
L 207.784695 179.956832 
L 208.279887 181.937599 
L 203.327971 179.461641 
L 208.279887 176.985682 
L 207.784695 178.966449 
L 208.279887 178.966449 
L 208.279887 179.956832 
" style="fill:#0000ff;"/>
    <path clip-path="url(#p0729d4f8f3)" d="M 208.279887 165.150916 
L 208.032291 165.150916 
L 208.279887 166.141299 
L 205.803929 164.90332 
L 208.279887 163.665341 
L 208.032291 164.655724 
L 208.279887 164.655724 
L 208.279887 165.150916 
" style="fill:#0000ff;"/>
    <path clip-path="url(#p0729d4f8f3)" d="M 208.77904 150.345 
L 208.529464 149.912721 
L 208.03031 149.912721 
L 207.780734 150.345 
L 208.03031 150.777279 
L 208.529464 150.777279 
L 208.77904 150.345 
L 208.529464 149.912721 
" style="fill:#0000ff;"/>
    <path clip-path="url(#p0729d4f8f3)" d="M 208.279887 135.539084 
L 208.527483 135.539084 
L 208.279887 134.548701 
L 210.755845 135.78668 
L 208.279887 137.024659 
L 208.527483 136.034276 
L 208.279887 136.034276 
L 208.279887 135.539084 
" style="fill:#0000ff;"/>
    <path clip-path="url(#p0729d4f8f3)" d="M 208.279887 120.733168 
L 208.775079 120.733168 
L 208.279887 118.752401 
L 213.231803 121.228359 
L 208.279887 123.704318 
L 208.775079 121.723551 
L 208.279887 121.723551 
L 208.279887 120.733168 
" style="fill:#0000ff;"/>
    <path clip-path="url(#p0729d4f8f3)" d="M 208.279887 106.170886 
L 211.215383 106.170886 
L 210.71623 104.174274 
L 215.707761 106.670039 
L 210.71623 109.165805 
L 211.215383 107.169192 
L 208.279887 107.169192 
L 208.279887 106.170886 
" style="fill:#0000ff;"/>
    <path clip-path="url(#p0729d4f8f3)" d="M 208.279887 91.612566 
L 213.691341 91.612566 
L 213.192188 89.615953 
L 218.183719 92.111719 
L 213.192188 94.607485 
L 213.691341 92.610872 
L 208.279887 92.610872 
L 208.279887 91.612566 
" style="fill:#0000ff;"/>
    <path clip-path="url(#p0729d4f8f3)" d="M 208.279887 77.054246 
L 216.167299 77.054246 
L 215.668146 75.057633 
L 220.659677 77.553399 
L 215.668146 80.049164 
L 216.167299 78.052552 
L 208.279887 78.052552 
L 208.279887 77.054246 
" style="fill:#0000ff;"/>
    <path clip-path="url(#p0729d4f8f3)" d="M 208.279887 62.495925 
L 218.643257 62.495925 
L 218.144104 60.499313 
L 223.135635 62.995078 
L 218.144104 65.490844 
L 218.643257 63.494232 
L 208.279887 63.494232 
L 208.279887 62.495925 
" style="fill:#0000ff;"/>
    <path clip-path="url(#p0729d4f8f3)" d="M 208.279887 47.937605 
L 221.119215 47.937605 
L 220.620062 45.940993 
L 225.611593 48.436758 
L 220.620062 50.932524 
L 221.119215 48.935911 
L 208.279887 48.935911 
L 208.279887 47.937605 
" style="fill:#0000ff;"/>
    <path clip-path="url(#p0729d4f8f3)" d="M 222.838207 252.752395 
L 209.998879 252.752395 
L 210.498032 254.749007 
L 205.506501 252.253242 
L 210.498032 249.757476 
L 209.998879 251.754089 
L 222.838207 251.754089 
L 222.838207 252.752395 
" style="fill:#0000ff;"/>
    <path clip-path="url(#p0729d4f8f3)" d="M 222.838207 238.194075 
L 212.474837 238.194075 
L 212.97399 240.190687 
L 207.982459 237.694922 
L 212.97399 235.199156 
L 212.474837 237.195768 
L 222.838207 237.195768 
L 222.838207 238.194075 
" style="fill:#0000ff;"/>
    <path clip-path="url(#p0729d4f8f3)" d="M 222.838207 223.635754 
L 214.950795 223.635754 
L 215.449948 225.632367 
L 210.458417 223.136601 
L 215.449948 220.640836 
L 214.950795 222.637448 
L 222.838207 222.637448 
L 222.838207 223.635754 
" style="fill:#0000ff;"/>
    <path clip-path="url(#p0729d4f8f3)" d="M 222.838207 209.077434 
L 217.426753 209.077434 
L 217.925906 211.074047 
L 212.934375 208.578281 
L 217.925906 206.082515 
L 217.426753 208.079128 
L 222.838207 208.079128 
L 222.838207 209.077434 
" style="fill:#0000ff;"/>
    <path clip-path="url(#p0729d4f8f3)" d="M 222.838207 194.519114 
L 219.902711 194.519114 
L 220.401865 196.515726 
L 215.410333 194.019961 
L 220.401865 191.524195 
L 219.902711 193.520808 
L 222.838207 193.520808 
L 222.838207 194.519114 
" style="fill:#0000ff;"/>
    <path clip-path="url(#p0729d4f8f3)" d="M 222.838207 179.956832 
L 222.343016 179.956832 
L 222.838207 181.937599 
L 217.886291 179.461641 
L 222.838207 176.985682 
L 222.343016 178.966449 
L 222.838207 178.966449 
L 222.838207 179.956832 
" style="fill:#0000ff;"/>
    <path clip-path="url(#p0729d4f8f3)" d="M 222.838207 165.150916 
L 222.590611 165.150916 
L 222.838207 166.141299 
L 220.362249 164.90332 
L 222.838207 163.665341 
L 222.590611 164.655724 
L 222.838207 164.655724 
L 222.838207 165.150916 
" style="fill:#0000ff;"/>
    <path clip-path="url(#p0729d4f8f3)" d="M 223.33736 150.345 
L 223.087784 149.912721 
L 222.588631 149.912721 
L 222.339054 150.345 
L 222.588631 150.777279 
L 223.087784 150.777279 
L 223.33736 150.345 
L 223.087784 149.912721 
" style="fill:#0000ff;"/>
    <path clip-path="url(#p0729d4f8f3)" d="M 222.838207 135.539084 
L 223.085803 135.539084 
L 222.838207 134.548701 
L 225.314165 135.78668 
L 222.838207 137.024659 
L 223.085803 136.034276 
L 222.838207 136.034276 
L 222.838207 135.539084 
" style="fill:#0000ff;"/>
    <path clip-path="url(#p0729d4f8f3)" d="M 222.838207 120.733168 
L 223.333399 120.733168 
L 222.838207 118.752401 
L 227.790123 121.228359 
L 222.838207 123.704318 
L 223.333399 121.723551 
L 222.838207 121.723551 
L 222.838207 120.733168 
" style="fill:#0000ff;"/>
    <path clip-path="url(#p0729d4f8f3)" d="M 222.838207 106.170886 
L 225.773703 106.170886 
L 225.27455 104.174274 
L 230.266081 106.670039 
L 225.27455 109.165805 
L 225.773703 107.169192 
L 222.838207 107.169192 
L 222.838207 106.170886 
" style="fill:#0000ff;"/>
    <path clip-path="url(#p0729d4f8f3)" d="M 222.838207 91.612566 
L 228.249661 91.612566 
L 227.750508 89.615953 
L 232.742039 92.111719 
L 227.750508 94.607485 
L 228.249661 92.610872 
L 222.838207 92.610872 
L 222.838207 91.612566 
" style="fill:#0000ff;"/>
    <path clip-path="url(#p0729d4f8f3)" d="M 222.838207 77.054246 
L 230.725619 77.054246 
L 230.226466 75.057633 
L 235.217997 77.553399 
L 230.226466 80.049164 
L 230.725619 78.052552 
L 222.838207 78.052552 
L 222.838207 77.054246 
" style="fill:#0000ff;"/>
    <path clip-path="url(#p0729d4f8f3)" d="M 222.838207 62.495925 
L 233.201577 62.495925 
L 232.702424 60.499313 
L 237.693956 62.995078 
L 232.702424 65.490844 
L 233.201577 63.494232 
L 222.838207 63.494232 
L 222.838207 62.495925 
" style="fill:#0000ff;"/>
    <path clip-path="url(#p0729d4f8f3)" d="M 222.838207 47.937605 
L 235.677535 47.937605 
L 235.178382 45.940993 
L 240.169914 48.436758 
L 235.178382 50.932524 
L 235.677535 48.935911 
L 222.838207 48.935911 
L 222.838207 47.937605 
" style="fill:#0000ff;"/>
    <path clip-path="url(#p0729d4f8f3)" d="M 237.396527 252.752395 
L 224.557199 252.752395 
L 225.056353 254.749007 
L 220.064821 252.253242 
L 225.056353 249.757476 
L 224.557199 251.754089 
L 237.396527 251.754089 
L 237.396527 252.752395 
" style="fill:#0000ff;"/>
    <path clip-path="url(#p0729d4f8f3)" d="M 237.396527 238.194075 
L 227.033157 238.194075 
L 227.532311 240.190687 
L 222.540779 237.694922 
L 227.532311 235.199156 
L 227.033157 237.195768 
L 237.396527 237.195768 
L 237.396527 238.194075 
" style="fill:#0000ff;"/>
    <path clip-path="url(#p0729d4f8f3)" d="M 237.396527 223.635754 
L 229.509116 223.635754 
L 230.008269 225.632367 
L 225.016737 223.136601 
L 230.008269 220.640836 
L 229.509116 222.637448 
L 237.396527 222.637448 
L 237.396527 223.635754 
" style="fill:#0000ff;"/>
    <path clip-path="url(#p0729d4f8f3)" d="M 237.396527 209.077434 
L 231.985074 209.077434 
L 232.484227 211.074047 
L 227.492695 208.578281 
L 232.484227 206.082515 
L 231.985074 208.079128 
L 237.396527 208.079128 
L 237.396527 209.077434 
" style="fill:#0000ff;"/>
    <path clip-path="url(#p0729d4f8f3)" d="M 237.396527 194.519114 
L 234.461032 194.519114 
L 234.960185 196.515726 
L 229.968653 194.019961 
L 234.960185 191.524195 
L 234.461032 193.520808 
L 237.396527 193.520808 
L 237.396527 194.519114 
" style="fill:#0000ff;"/>
    <path clip-path="url(#p0729d4f8f3)" d="M 237.396527 179.956832 
L 236.901336 179.956832 
L 237.396527 181.937599 
L 232.444611 179.461641 
L 237.396527 176.985682 
L 236.901336 178.966449 
L 237.396527 178.966449 
L 237.396527 179.956832 
" style="fill:#0000ff;"/>
    <path clip-path="url(#p0729d4f8f3)" d="M 237.396527 165.150916 
L 237.148932 165.150916 
L 237.396527 166.141299 
L 234.920569 164.90332 
L 237.396527 163.665341 
L 237.148932 164.655724 
L 237.396527 164.655724 
L 237.396527 165.150916 
" style="fill:#0000ff;"/>
    <path clip-path="url(#p0729d4f8f3)" d="M 237.895681 150.345 
L 237.646104 149.912721 
L 237.146951 149.912721 
L 236.897374 150.345 
L 237.146951 150.777279 
L 237.646104 150.777279 
L 237.895681 150.345 
L 237.646104 149.912721 
" style="fill:#0000ff;"/>
    <path clip-path="url(#p0729d4f8f3)" d="M 237.396527 135.539084 
L 237.644123 135.539084 
L 237.396527 134.548701 
L 239.872486 135.78668 
L 237.396527 137.024659 
L 237.644123 136.034276 
L 237.396527 136.034276 
L 237.396527 135.539084 
" style="fill:#0000ff;"/>
    <path clip-path="url(#p0729d4f8f3)" d="M 237.396527 120.733168 
L 237.891719 120.733168 
L 237.396527 118.752401 
L 242.348444 121.228359 
L 237.396527 123.704318 
L 237.891719 121.723551 
L 237.396527 121.723551 
L 237.396527 120.733168 
" style="fill:#0000ff;"/>
    <path clip-path="url(#p0729d4f8f3)" d="M 237.396527 106.170886 
L 240.332023 106.170886 
L 239.83287 104.174274 
L 244.824402 106.670039 
L 239.83287 109.165805 
L 240.332023 107.169192 
L 237.396527 107.169192 
L 237.396527 106.170886 
" style="fill:#0000ff;"/>
    <path clip-path="url(#p0729d4f8f3)" d="M 237.396527 91.612566 
L 242.807981 91.612566 
L 242.308828 89.615953 
L 247.30036 92.111719 
L 242.308828 94.607485 
L 242.807981 92.610872 
L 237.396527 92.610872 
L 237.396527 91.612566 
" style="fill:#0000ff;"/>
    <path clip-path="url(#p0729d4f8f3)" d="M 237.396527 77.054246 
L 245.283939 77.054246 
L 244.784786 75.057633 
L 249.776318 77.553399 
L 244.784786 80.049164 
L 245.283939 78.052552 
L 237.396527 78.052552 
L 237.396527 77.054246 
" style="fill:#0000ff;"/>
    <path clip-path="url(#p0729d4f8f3)" d="M 237.396527 62.495925 
L 247.759897 62.495925 
L 247.260744 60.499313 
L 252.252276 62.995078 
L 247.260744 65.490844 
L 247.759897 63.494232 
L 237.396527 63.494232 
L 237.396527 62.495925 
" style="fill:#0000ff;"/>
    <path clip-path="url(#p0729d4f8f3)" d="M 237.396527 47.937605 
L 250.235856 47.937605 
L 249.736702 45.940993 
L 254.728234 48.436758 
L 249.736702 50.932524 
L 250.235856 48.935911 
L 237.396527 48.935911 
L 237.396527 47.937605 
" style="fill:#0000ff;"/>
   </g>
   <g id="matplotlib.axis_1">
    <g id="xtick_1">
     <g id="line2d_1">
      <defs>
       <path d="M 0 0 
L 0 3.5 
" id="m446f522cb8" style="stroke:#000000;stroke-width:0.8;"/>
      </defs>
      <g>
       <use style="stroke:#000000;stroke-width:0.8;" x="36.867407" xlink:href="#m446f522cb8" y="150.345"/>
      </g>
     </g>
     <g id="text_1">
      <!-- -3 -->
      <defs>
       <path d="M 4.890625 31.390625 
L 31.203125 31.390625 
L 31.203125 23.390625 
L 4.890625 23.390625 
z
" id="DejaVuSans-2d"/>
       <path d="M 40.578125 39.3125 
Q 47.65625 37.796875 51.625 33 
Q 55.609375 28.21875 55.609375 21.1875 
Q 55.609375 10.40625 48.1875 4.484375 
Q 40.765625 -1.421875 27.09375 -1.421875 
Q 22.515625 -1.421875 17.65625 -0.515625 
Q 12.796875 0.390625 7.625 2.203125 
L 7.625 11.71875 
Q 11.71875 9.328125 16.59375 8.109375 
Q 21.484375 6.890625 26.8125 6.890625 
Q 36.078125 6.890625 40.9375 10.546875 
Q 45.796875 14.203125 45.796875 21.1875 
Q 45.796875 27.640625 41.28125 31.265625 
Q 36.765625 34.90625 28.71875 34.90625 
L 20.21875 34.90625 
L 20.21875 43.015625 
L 29.109375 43.015625 
Q 36.375 43.015625 40.234375 45.921875 
Q 44.09375 48.828125 44.09375 54.296875 
Q 44.09375 59.90625 40.109375 62.90625 
Q 36.140625 65.921875 28.71875 65.921875 
Q 24.65625 65.921875 20.015625 65.03125 
Q 15.375 64.15625 9.8125 62.3125 
L 9.8125 71.09375 
Q 15.4375 72.65625 20.34375 73.4375 
Q 25.25 74.21875 29.59375 74.21875 
Q 40.828125 74.21875 47.359375 69.109375 
Q 53.90625 64.015625 53.90625 55.328125 
Q 53.90625 49.265625 50.4375 45.09375 
Q 46.96875 40.921875 40.578125 39.3125 
z
" id="DejaVuSans-33"/>
      </defs>
      <g transform="translate(31.88225 164.943438)scale(0.1 -0.1)">
       <use xlink:href="#DejaVuSans-2d"/>
       <use x="36.083984" xlink:href="#DejaVuSans-33"/>
      </g>
     </g>
    </g>
    <g id="xtick_2">
     <g id="line2d_2">
      <g>
       <use style="stroke:#000000;stroke-width:0.8;" x="69.741033" xlink:href="#m446f522cb8" y="150.345"/>
      </g>
     </g>
     <g id="text_2">
      <!-- -2 -->
      <defs>
       <path d="M 19.1875 8.296875 
L 53.609375 8.296875 
L 53.609375 0 
L 7.328125 0 
L 7.328125 8.296875 
Q 12.9375 14.109375 22.625 23.890625 
Q 32.328125 33.6875 34.8125 36.53125 
Q 39.546875 41.84375 41.421875 45.53125 
Q 43.3125 49.21875 43.3125 52.78125 
Q 43.3125 58.59375 39.234375 62.25 
Q 35.15625 65.921875 28.609375 65.921875 
Q 23.96875 65.921875 18.8125 64.3125 
Q 13.671875 62.703125 7.8125 59.421875 
L 7.8125 69.390625 
Q 13.765625 71.78125 18.9375 73 
Q 24.125 74.21875 28.421875 74.21875 
Q 39.75 74.21875 46.484375 68.546875 
Q 53.21875 62.890625 53.21875 53.421875 
Q 53.21875 48.921875 51.53125 44.890625 
Q 49.859375 40.875 45.40625 35.40625 
Q 44.1875 33.984375 37.640625 27.21875 
Q 31.109375 20.453125 19.1875 8.296875 
z
" id="DejaVuSans-32"/>
      </defs>
      <g transform="translate(64.755877 164.943438)scale(0.1 -0.1)">
       <use xlink:href="#DejaVuSans-2d"/>
       <use x="36.083984" xlink:href="#DejaVuSans-32"/>
      </g>
     </g>
    </g>
    <g id="xtick_3">
     <g id="line2d_3">
      <g>
       <use style="stroke:#000000;stroke-width:0.8;" x="102.614659" xlink:href="#m446f522cb8" y="150.345"/>
      </g>
     </g>
     <g id="text_3">
      <!-- -1 -->
      <defs>
       <path d="M 12.40625 8.296875 
L 28.515625 8.296875 
L 28.515625 63.921875 
L 10.984375 60.40625 
L 10.984375 69.390625 
L 28.421875 72.90625 
L 38.28125 72.90625 
L 38.28125 8.296875 
L 54.390625 8.296875 
L 54.390625 0 
L 12.40625 0 
z
" id="DejaVuSans-31"/>
      </defs>
      <g transform="translate(97.629503 164.943438)scale(0.1 -0.1)">
       <use xlink:href="#DejaVuSans-2d"/>
       <use x="36.083984" xlink:href="#DejaVuSans-31"/>
      </g>
     </g>
    </g>
    <g id="xtick_4">
     <g id="line2d_4">
      <g>
       <use style="stroke:#000000;stroke-width:0.8;" x="135.488286" xlink:href="#m446f522cb8" y="150.345"/>
      </g>
     </g>
    </g>
    <g id="xtick_5">
     <g id="line2d_5">
      <g>
       <use style="stroke:#000000;stroke-width:0.8;" x="168.361912" xlink:href="#m446f522cb8" y="150.345"/>
      </g>
     </g>
     <g id="text_4">
      <!-- 1 -->
      <g transform="translate(165.180662 164.943438)scale(0.1 -0.1)">
       <use xlink:href="#DejaVuSans-31"/>
      </g>
     </g>
    </g>
    <g id="xtick_6">
     <g id="line2d_6">
      <g>
       <use style="stroke:#000000;stroke-width:0.8;" x="201.235538" xlink:href="#m446f522cb8" y="150.345"/>
      </g>
     </g>
     <g id="text_5">
      <!-- 2 -->
      <g transform="translate(198.054288 164.943438)scale(0.1 -0.1)">
       <use xlink:href="#DejaVuSans-32"/>
      </g>
     </g>
    </g>
    <g id="xtick_7">
     <g id="line2d_7">
      <g>
       <use style="stroke:#000000;stroke-width:0.8;" x="234.109165" xlink:href="#m446f522cb8" y="150.345"/>
      </g>
     </g>
     <g id="text_6">
      <!-- 3 -->
      <g transform="translate(230.927915 164.943438)scale(0.1 -0.1)">
       <use xlink:href="#DejaVuSans-33"/>
      </g>
     </g>
    </g>
    <g id="xtick_8">
     <g id="line2d_8">
      <defs>
       <path d="M 0 0 
L 0 2 
" id="m86d3d7dc4b" style="stroke:#000000;stroke-width:0.6;"/>
      </defs>
      <g>
       <use style="stroke:#000000;stroke-width:0.6;" x="17.143231" xlink:href="#m86d3d7dc4b" y="150.345"/>
      </g>
     </g>
    </g>
    <g id="xtick_9">
     <g id="line2d_9">
      <g>
       <use style="stroke:#000000;stroke-width:0.6;" x="23.717956" xlink:href="#m86d3d7dc4b" y="150.345"/>
      </g>
     </g>
    </g>
    <g id="xtick_10">
     <g id="line2d_10">
      <g>
       <use style="stroke:#000000;stroke-width:0.6;" x="30.292681" xlink:href="#m86d3d7dc4b" y="150.345"/>
      </g>
     </g>
    </g>
    <g id="xtick_11">
     <g id="line2d_11">
      <g>
       <use style="stroke:#000000;stroke-width:0.6;" x="43.442132" xlink:href="#m86d3d7dc4b" y="150.345"/>
      </g>
     </g>
    </g>
    <g id="xtick_12">
     <g id="line2d_12">
      <g>
       <use style="stroke:#000000;stroke-width:0.6;" x="50.016857" xlink:href="#m86d3d7dc4b" y="150.345"/>
      </g>
     </g>
    </g>
    <g id="xtick_13">
     <g id="line2d_13">
      <g>
       <use style="stroke:#000000;stroke-width:0.6;" x="56.591582" xlink:href="#m86d3d7dc4b" y="150.345"/>
      </g>
     </g>
    </g>
    <g id="xtick_14">
     <g id="line2d_14">
      <g>
       <use style="stroke:#000000;stroke-width:0.6;" x="63.166308" xlink:href="#m86d3d7dc4b" y="150.345"/>
      </g>
     </g>
    </g>
    <g id="xtick_15">
     <g id="line2d_15">
      <g>
       <use style="stroke:#000000;stroke-width:0.6;" x="76.315758" xlink:href="#m86d3d7dc4b" y="150.345"/>
      </g>
     </g>
    </g>
    <g id="xtick_16">
     <g id="line2d_16">
      <g>
       <use style="stroke:#000000;stroke-width:0.6;" x="82.890484" xlink:href="#m86d3d7dc4b" y="150.345"/>
      </g>
     </g>
    </g>
    <g id="xtick_17">
     <g id="line2d_17">
      <g>
       <use style="stroke:#000000;stroke-width:0.6;" x="89.465209" xlink:href="#m86d3d7dc4b" y="150.345"/>
      </g>
     </g>
    </g>
    <g id="xtick_18">
     <g id="line2d_18">
      <g>
       <use style="stroke:#000000;stroke-width:0.6;" x="96.039934" xlink:href="#m86d3d7dc4b" y="150.345"/>
      </g>
     </g>
    </g>
    <g id="xtick_19">
     <g id="line2d_19">
      <g>
       <use style="stroke:#000000;stroke-width:0.6;" x="109.189385" xlink:href="#m86d3d7dc4b" y="150.345"/>
      </g>
     </g>
    </g>
    <g id="xtick_20">
     <g id="line2d_20">
      <g>
       <use style="stroke:#000000;stroke-width:0.6;" x="115.76411" xlink:href="#m86d3d7dc4b" y="150.345"/>
      </g>
     </g>
    </g>
    <g id="xtick_21">
     <g id="line2d_21">
      <g>
       <use style="stroke:#000000;stroke-width:0.6;" x="122.338835" xlink:href="#m86d3d7dc4b" y="150.345"/>
      </g>
     </g>
    </g>
    <g id="xtick_22">
     <g id="line2d_22">
      <g>
       <use style="stroke:#000000;stroke-width:0.6;" x="128.91356" xlink:href="#m86d3d7dc4b" y="150.345"/>
      </g>
     </g>
    </g>
    <g id="xtick_23">
     <g id="line2d_23">
      <g>
       <use style="stroke:#000000;stroke-width:0.6;" x="142.063011" xlink:href="#m86d3d7dc4b" y="150.345"/>
      </g>
     </g>
    </g>
    <g id="xtick_24">
     <g id="line2d_24">
      <g>
       <use style="stroke:#000000;stroke-width:0.6;" x="148.637736" xlink:href="#m86d3d7dc4b" y="150.345"/>
      </g>
     </g>
    </g>
    <g id="xtick_25">
     <g id="line2d_25">
      <g>
       <use style="stroke:#000000;stroke-width:0.6;" x="155.212462" xlink:href="#m86d3d7dc4b" y="150.345"/>
      </g>
     </g>
    </g>
    <g id="xtick_26">
     <g id="line2d_26">
      <g>
       <use style="stroke:#000000;stroke-width:0.6;" x="161.787187" xlink:href="#m86d3d7dc4b" y="150.345"/>
      </g>
     </g>
    </g>
    <g id="xtick_27">
     <g id="line2d_27">
      <g>
       <use style="stroke:#000000;stroke-width:0.6;" x="174.936637" xlink:href="#m86d3d7dc4b" y="150.345"/>
      </g>
     </g>
    </g>
    <g id="xtick_28">
     <g id="line2d_28">
      <g>
       <use style="stroke:#000000;stroke-width:0.6;" x="181.511363" xlink:href="#m86d3d7dc4b" y="150.345"/>
      </g>
     </g>
    </g>
    <g id="xtick_29">
     <g id="line2d_29">
      <g>
       <use style="stroke:#000000;stroke-width:0.6;" x="188.086088" xlink:href="#m86d3d7dc4b" y="150.345"/>
      </g>
     </g>
    </g>
    <g id="xtick_30">
     <g id="line2d_30">
      <g>
       <use style="stroke:#000000;stroke-width:0.6;" x="194.660813" xlink:href="#m86d3d7dc4b" y="150.345"/>
      </g>
     </g>
    </g>
    <g id="xtick_31">
     <g id="line2d_31">
      <g>
       <use style="stroke:#000000;stroke-width:0.6;" x="207.810264" xlink:href="#m86d3d7dc4b" y="150.345"/>
      </g>
     </g>
    </g>
    <g id="xtick_32">
     <g id="line2d_32">
      <g>
       <use style="stroke:#000000;stroke-width:0.6;" x="214.384989" xlink:href="#m86d3d7dc4b" y="150.345"/>
      </g>
     </g>
    </g>
    <g id="xtick_33">
     <g id="line2d_33">
      <g>
       <use style="stroke:#000000;stroke-width:0.6;" x="220.959714" xlink:href="#m86d3d7dc4b" y="150.345"/>
      </g>
     </g>
    </g>
    <g id="xtick_34">
     <g id="line2d_34">
      <g>
       <use style="stroke:#000000;stroke-width:0.6;" x="227.53444" xlink:href="#m86d3d7dc4b" y="150.345"/>
      </g>
     </g>
    </g>
    <g id="xtick_35">
     <g id="line2d_35">
      <g>
       <use style="stroke:#000000;stroke-width:0.6;" x="240.68389" xlink:href="#m86d3d7dc4b" y="150.345"/>
      </g>
     </g>
    </g>
    <g id="xtick_36">
     <g id="line2d_36">
      <g>
       <use style="stroke:#000000;stroke-width:0.6;" x="247.258615" xlink:href="#m86d3d7dc4b" y="150.345"/>
      </g>
     </g>
    </g>
    <g id="xtick_37">
     <g id="line2d_37">
      <g>
       <use style="stroke:#000000;stroke-width:0.6;" x="253.833341" xlink:href="#m86d3d7dc4b" y="150.345"/>
      </g>
     </g>
    </g>
    <g id="text_7">
     <!-- $x$ -->
     <defs>
      <path d="M 7.8125 2.875 
Q 9.578125 1.515625 12.796875 1.515625 
Q 15.921875 1.515625 18.3125 4.515625 
Q 20.703125 7.515625 21.578125 11.078125 
L 26.125 28.8125 
Q 27.203125 33.640625 27.203125 35.40625 
Q 27.203125 37.890625 25.8125 39.75 
Q 24.421875 41.609375 21.921875 41.609375 
Q 18.75 41.609375 15.96875 39.625 
Q 13.1875 37.640625 11.28125 34.59375 
Q 9.375 31.546875 8.59375 28.421875 
Q 8.40625 27.78125 7.8125 27.78125 
L 6.59375 27.78125 
Q 5.8125 27.78125 5.8125 28.71875 
L 5.8125 29 
Q 6.78125 32.71875 9.125 36.25 
Q 11.46875 39.796875 14.859375 41.984375 
Q 18.265625 44.1875 22.125 44.1875 
Q 25.78125 44.1875 28.734375 42.234375 
Q 31.6875 40.28125 32.90625 36.921875 
Q 34.625 39.984375 37.28125 42.078125 
Q 39.9375 44.1875 43.109375 44.1875 
Q 45.265625 44.1875 47.5 43.421875 
Q 49.75 42.671875 51.171875 41.109375 
Q 52.59375 39.546875 52.59375 37.203125 
Q 52.59375 34.671875 50.953125 32.828125 
Q 49.3125 31 46.78125 31 
Q 45.171875 31 44.09375 32.03125 
Q 43.015625 33.0625 43.015625 34.625 
Q 43.015625 36.71875 44.453125 38.296875 
Q 45.90625 39.890625 47.90625 40.1875 
Q 46.09375 41.609375 42.921875 41.609375 
Q 39.703125 41.609375 37.328125 38.625 
Q 34.96875 35.640625 33.984375 31.984375 
L 29.59375 14.3125 
Q 28.515625 10.296875 28.515625 7.71875 
Q 28.515625 5.171875 29.953125 3.34375 
Q 31.390625 1.515625 33.796875 1.515625 
Q 38.484375 1.515625 42.15625 5.640625 
Q 45.84375 9.765625 47.015625 14.703125 
Q 47.21875 15.28125 47.796875 15.28125 
L 49.03125 15.28125 
Q 49.421875 15.28125 49.65625 15.015625 
Q 49.90625 14.75 49.90625 14.40625 
Q 49.90625 14.3125 49.8125 14.109375 
Q 48.390625 8.15625 43.84375 3.515625 
Q 39.3125 -1.125 33.59375 -1.125 
Q 29.9375 -1.125 26.984375 0.84375 
Q 24.03125 2.828125 22.796875 6.203125 
Q 21.234375 3.265625 18.46875 1.0625 
Q 15.71875 -1.125 12.59375 -1.125 
Q 10.453125 -1.125 8.171875 -0.359375 
Q 5.90625 0.390625 4.484375 1.953125 
Q 3.078125 3.515625 3.078125 5.90625 
Q 3.078125 8.25 4.703125 10.171875 
Q 6.34375 12.109375 8.796875 12.109375 
Q 10.453125 12.109375 11.578125 11.109375 
Q 12.703125 10.109375 12.703125 8.5 
Q 12.703125 6.390625 11.296875 4.828125 
Q 9.90625 3.265625 7.8125 2.875 
z
" id="Cmmi10-78"/>
     </defs>
     <g transform="translate(268.276571 150.345)scale(0.16 -0.16)">
      <use transform="translate(0 0.8125)" xlink:href="#Cmmi10-78"/>
     </g>
    </g>
   </g>
   <g id="matplotlib.axis_2">
    <g id="ytick_1">
     <g id="line2d_38">
      <defs>
       <path d="M 0 0 
L -3.5 0 
" id="mf705628d4c" style="stroke:#000000;stroke-width:0.8;"/>
      </defs>
      <g>
       <use style="stroke:#000000;stroke-width:0.8;" x="135.488286" xlink:href="#mf705628d4c" y="248.965879"/>
      </g>
     </g>
     <g id="text_8">
      <!-- -3 -->
      <g transform="translate(118.517973 252.765098)scale(0.1 -0.1)">
       <use xlink:href="#DejaVuSans-2d"/>
       <use x="36.083984" xlink:href="#DejaVuSans-33"/>
      </g>
     </g>
    </g>
    <g id="ytick_2">
     <g id="line2d_39">
      <g>
       <use style="stroke:#000000;stroke-width:0.8;" x="135.488286" xlink:href="#mf705628d4c" y="216.092253"/>
      </g>
     </g>
     <g id="text_9">
      <!-- -2 -->
      <g transform="translate(118.517973 219.891471)scale(0.1 -0.1)">
       <use xlink:href="#DejaVuSans-2d"/>
       <use x="36.083984" xlink:href="#DejaVuSans-32"/>
      </g>
     </g>
    </g>
    <g id="ytick_3">
     <g id="line2d_40">
      <g>
       <use style="stroke:#000000;stroke-width:0.8;" x="135.488286" xlink:href="#mf705628d4c" y="183.218626"/>
      </g>
     </g>
     <g id="text_10">
      <!-- -1 -->
      <g transform="translate(118.517973 187.017845)scale(0.1 -0.1)">
       <use xlink:href="#DejaVuSans-2d"/>
       <use x="36.083984" xlink:href="#DejaVuSans-31"/>
      </g>
     </g>
    </g>
    <g id="ytick_4">
     <g id="line2d_41">
      <g>
       <use style="stroke:#000000;stroke-width:0.8;" x="135.488286" xlink:href="#mf705628d4c" y="150.345"/>
      </g>
     </g>
    </g>
    <g id="ytick_5">
     <g id="line2d_42">
      <g>
       <use style="stroke:#000000;stroke-width:0.8;" x="135.488286" xlink:href="#mf705628d4c" y="117.471374"/>
      </g>
     </g>
     <g id="text_11">
      <!-- 1 -->
      <g transform="translate(122.125786 121.270592)scale(0.1 -0.1)">
       <use xlink:href="#DejaVuSans-31"/>
      </g>
     </g>
    </g>
    <g id="ytick_6">
     <g id="line2d_43">
      <g>
       <use style="stroke:#000000;stroke-width:0.8;" x="135.488286" xlink:href="#mf705628d4c" y="84.597747"/>
      </g>
     </g>
     <g id="text_12">
      <!-- 2 -->
      <g transform="translate(122.125786 88.396966)scale(0.1 -0.1)">
       <use xlink:href="#DejaVuSans-32"/>
      </g>
     </g>
    </g>
    <g id="ytick_7">
     <g id="line2d_44">
      <g>
       <use style="stroke:#000000;stroke-width:0.8;" x="135.488286" xlink:href="#mf705628d4c" y="51.724121"/>
      </g>
     </g>
     <g id="text_13">
      <!-- 3 -->
      <g transform="translate(122.125786 55.52334)scale(0.1 -0.1)">
       <use xlink:href="#DejaVuSans-33"/>
      </g>
     </g>
    </g>
    <g id="ytick_8">
     <g id="line2d_45">
      <defs>
       <path d="M 0 0 
L -2 0 
" id="md587b25378" style="stroke:#000000;stroke-width:0.6;"/>
      </defs>
      <g>
       <use style="stroke:#000000;stroke-width:0.6;" x="135.488286" xlink:href="#md587b25378" y="268.690055"/>
      </g>
     </g>
    </g>
    <g id="ytick_9">
     <g id="line2d_46">
      <g>
       <use style="stroke:#000000;stroke-width:0.6;" x="135.488286" xlink:href="#md587b25378" y="262.11533"/>
      </g>
     </g>
    </g>
    <g id="ytick_10">
     <g id="line2d_47">
      <g>
       <use style="stroke:#000000;stroke-width:0.6;" x="135.488286" xlink:href="#md587b25378" y="255.540604"/>
      </g>
     </g>
    </g>
    <g id="ytick_11">
     <g id="line2d_48">
      <g>
       <use style="stroke:#000000;stroke-width:0.6;" x="135.488286" xlink:href="#md587b25378" y="242.391154"/>
      </g>
     </g>
    </g>
    <g id="ytick_12">
     <g id="line2d_49">
      <g>
       <use style="stroke:#000000;stroke-width:0.6;" x="135.488286" xlink:href="#md587b25378" y="235.816429"/>
      </g>
     </g>
    </g>
    <g id="ytick_13">
     <g id="line2d_50">
      <g>
       <use style="stroke:#000000;stroke-width:0.6;" x="135.488286" xlink:href="#md587b25378" y="229.241703"/>
      </g>
     </g>
    </g>
    <g id="ytick_14">
     <g id="line2d_51">
      <g>
       <use style="stroke:#000000;stroke-width:0.6;" x="135.488286" xlink:href="#md587b25378" y="222.666978"/>
      </g>
     </g>
    </g>
    <g id="ytick_15">
     <g id="line2d_52">
      <g>
       <use style="stroke:#000000;stroke-width:0.6;" x="135.488286" xlink:href="#md587b25378" y="209.517527"/>
      </g>
     </g>
    </g>
    <g id="ytick_16">
     <g id="line2d_53">
      <g>
       <use style="stroke:#000000;stroke-width:0.6;" x="135.488286" xlink:href="#md587b25378" y="202.942802"/>
      </g>
     </g>
    </g>
    <g id="ytick_17">
     <g id="line2d_54">
      <g>
       <use style="stroke:#000000;stroke-width:0.6;" x="135.488286" xlink:href="#md587b25378" y="196.368077"/>
      </g>
     </g>
    </g>
    <g id="ytick_18">
     <g id="line2d_55">
      <g>
       <use style="stroke:#000000;stroke-width:0.6;" x="135.488286" xlink:href="#md587b25378" y="189.793352"/>
      </g>
     </g>
    </g>
    <g id="ytick_19">
     <g id="line2d_56">
      <g>
       <use style="stroke:#000000;stroke-width:0.6;" x="135.488286" xlink:href="#md587b25378" y="176.643901"/>
      </g>
     </g>
    </g>
    <g id="ytick_20">
     <g id="line2d_57">
      <g>
       <use style="stroke:#000000;stroke-width:0.6;" x="135.488286" xlink:href="#md587b25378" y="170.069176"/>
      </g>
     </g>
    </g>
    <g id="ytick_21">
     <g id="line2d_58">
      <g>
       <use style="stroke:#000000;stroke-width:0.6;" x="135.488286" xlink:href="#md587b25378" y="163.494451"/>
      </g>
     </g>
    </g>
    <g id="ytick_22">
     <g id="line2d_59">
      <g>
       <use style="stroke:#000000;stroke-width:0.6;" x="135.488286" xlink:href="#md587b25378" y="156.919725"/>
      </g>
     </g>
    </g>
    <g id="ytick_23">
     <g id="line2d_60">
      <g>
       <use style="stroke:#000000;stroke-width:0.6;" x="135.488286" xlink:href="#md587b25378" y="143.770275"/>
      </g>
     </g>
    </g>
    <g id="ytick_24">
     <g id="line2d_61">
      <g>
       <use style="stroke:#000000;stroke-width:0.6;" x="135.488286" xlink:href="#md587b25378" y="137.195549"/>
      </g>
     </g>
    </g>
    <g id="ytick_25">
     <g id="line2d_62">
      <g>
       <use style="stroke:#000000;stroke-width:0.6;" x="135.488286" xlink:href="#md587b25378" y="130.620824"/>
      </g>
     </g>
    </g>
    <g id="ytick_26">
     <g id="line2d_63">
      <g>
       <use style="stroke:#000000;stroke-width:0.6;" x="135.488286" xlink:href="#md587b25378" y="124.046099"/>
      </g>
     </g>
    </g>
    <g id="ytick_27">
     <g id="line2d_64">
      <g>
       <use style="stroke:#000000;stroke-width:0.6;" x="135.488286" xlink:href="#md587b25378" y="110.896648"/>
      </g>
     </g>
    </g>
    <g id="ytick_28">
     <g id="line2d_65">
      <g>
       <use style="stroke:#000000;stroke-width:0.6;" x="135.488286" xlink:href="#md587b25378" y="104.321923"/>
      </g>
     </g>
    </g>
    <g id="ytick_29">
     <g id="line2d_66">
      <g>
       <use style="stroke:#000000;stroke-width:0.6;" x="135.488286" xlink:href="#md587b25378" y="97.747198"/>
      </g>
     </g>
    </g>
    <g id="ytick_30">
     <g id="line2d_67">
      <g>
       <use style="stroke:#000000;stroke-width:0.6;" x="135.488286" xlink:href="#md587b25378" y="91.172473"/>
      </g>
     </g>
    </g>
    <g id="ytick_31">
     <g id="line2d_68">
      <g>
       <use style="stroke:#000000;stroke-width:0.6;" x="135.488286" xlink:href="#md587b25378" y="78.023022"/>
      </g>
     </g>
    </g>
    <g id="ytick_32">
     <g id="line2d_69">
      <g>
       <use style="stroke:#000000;stroke-width:0.6;" x="135.488286" xlink:href="#md587b25378" y="71.448297"/>
      </g>
     </g>
    </g>
    <g id="ytick_33">
     <g id="line2d_70">
      <g>
       <use style="stroke:#000000;stroke-width:0.6;" x="135.488286" xlink:href="#md587b25378" y="64.873571"/>
      </g>
     </g>
    </g>
    <g id="ytick_34">
     <g id="line2d_71">
      <g>
       <use style="stroke:#000000;stroke-width:0.6;" x="135.488286" xlink:href="#md587b25378" y="58.298846"/>
      </g>
     </g>
    </g>
    <g id="ytick_35">
     <g id="line2d_72">
      <g>
       <use style="stroke:#000000;stroke-width:0.6;" x="135.488286" xlink:href="#md587b25378" y="45.149396"/>
      </g>
     </g>
    </g>
    <g id="ytick_36">
     <g id="line2d_73">
      <g>
       <use style="stroke:#000000;stroke-width:0.6;" x="135.488286" xlink:href="#md587b25378" y="38.57467"/>
      </g>
     </g>
    </g>
    <g id="ytick_37">
     <g id="line2d_74">
      <g>
       <use style="stroke:#000000;stroke-width:0.6;" x="135.488286" xlink:href="#md587b25378" y="31.999945"/>
      </g>
     </g>
    </g>
    <g id="text_14">
     <!-- $y$ -->
     <defs>
      <path d="M 8.40625 -14.3125 
Q 10.5 -17.921875 15.71875 -17.921875 
Q 20.453125 -17.921875 23.921875 -14.59375 
Q 27.390625 -11.28125 29.515625 -6.5625 
Q 31.640625 -1.859375 32.8125 3.078125 
Q 28.375 -1.125 23.1875 -1.125 
Q 19.234375 -1.125 16.453125 0.234375 
Q 13.671875 1.609375 12.125 4.3125 
Q 10.59375 7.03125 10.59375 10.890625 
Q 10.59375 14.15625 11.46875 17.59375 
Q 12.359375 21.046875 13.9375 25.265625 
Q 15.53125 29.5 16.703125 32.625 
Q 18.015625 36.28125 18.015625 38.625 
Q 18.015625 41.609375 15.828125 41.609375 
Q 11.859375 41.609375 9.296875 37.53125 
Q 6.734375 33.453125 5.515625 28.421875 
Q 5.328125 27.78125 4.6875 27.78125 
L 3.515625 27.78125 
Q 2.6875 27.78125 2.6875 28.71875 
L 2.6875 29 
Q 4.296875 34.96875 7.609375 39.578125 
Q 10.9375 44.1875 16.015625 44.1875 
Q 19.578125 44.1875 22.046875 41.84375 
Q 24.515625 39.5 24.515625 35.890625 
Q 24.515625 34.03125 23.6875 31.984375 
Q 23.25 30.765625 21.6875 26.65625 
Q 20.125 22.5625 19.28125 19.875 
Q 18.453125 17.1875 17.921875 14.59375 
Q 17.390625 12.015625 17.390625 9.421875 
Q 17.390625 6.109375 18.796875 3.8125 
Q 20.21875 1.515625 23.296875 1.515625 
Q 29.5 1.515625 34.421875 9.078125 
L 42 39.890625 
Q 42.328125 41.21875 43.546875 42.15625 
Q 44.78125 43.109375 46.1875 43.109375 
Q 47.40625 43.109375 48.3125 42.328125 
Q 49.21875 41.546875 49.21875 40.28125 
Q 49.21875 39.703125 49.125 39.5 
L 39.203125 -0.296875 
Q 37.890625 -5.421875 34.375 -10.109375 
Q 30.859375 -14.796875 25.90625 -17.65625 
Q 20.953125 -20.515625 15.578125 -20.515625 
Q 12.984375 -20.515625 10.4375 -19.5 
Q 7.90625 -18.5 6.34375 -16.5 
Q 4.78125 -14.5 4.78125 -11.8125 
Q 4.78125 -9.078125 6.390625 -7.078125 
Q 8.015625 -5.078125 10.6875 -5.078125 
Q 12.3125 -5.078125 13.40625 -6.078125 
Q 14.5 -7.078125 14.5 -8.6875 
Q 14.5 -10.984375 12.78125 -12.6875 
Q 11.078125 -14.40625 8.796875 -14.40625 
Q 8.6875 -14.359375 8.59375 -14.328125 
Q 8.5 -14.3125 8.40625 -14.3125 
z
" id="Cmmi10-79"/>
     </defs>
     <g transform="translate(131.488286 19.325)scale(0.16 -0.16)">
      <use transform="translate(0 0.8125)" xlink:href="#Cmmi10-79"/>
     </g>
    </g>
   </g>
   <g id="patch_3">
    <path d="M 135.488286 270.005 
L 135.488286 30.685 
" style="fill:none;stroke:#000000;stroke-linecap:square;stroke-linejoin:miter;stroke-width:0.8;"/>
   </g>
   <g id="patch_4">
    <path d="M 10.7 150.345 
L 260.276571 150.345 
" style="fill:none;stroke:#000000;stroke-linecap:square;stroke-linejoin:miter;stroke-width:0.8;"/>
   </g>
  </g>
 </g>
 <defs>
  <clipPath id="p0729d4f8f3">
   <rect height="239.32" width="249.576571" x="10.7" y="30.685"/>
  </clipPath>
 </defs>
</svg>
