<?xml version="1.0" encoding="utf-8" standalone="no"?>
<!DOCTYPE svg PUBLIC "-//W3C//DTD SVG 1.1//EN"
  "http://www.w3.org/Graphics/SVG/1.1/DTD/svg11.dtd">
<!-- Created with matplotlib (http://matplotlib.org/) -->
<svg height="280.705pt" version="1.1" viewBox="0 0 274.5 280.705" width="274.5pt" xmlns="http://www.w3.org/2000/svg" xmlns:xlink="http://www.w3.org/1999/xlink">
 <defs>
  <style type="text/css">
*{stroke-linecap:butt;stroke-linejoin:round;}
  </style>
 </defs>
 <g id="figure_1">
  <g id="patch_1">
   <path d="M 0 280.705 
L 274.5 280.705 
L 274.5 0 
L 0 0 
z
" style="fill:#ffffff;"/>
  </g>
  <g id="axes_1">
   <g id="patch_2">
    <path d="M 10.7 270.005 
L 250.02 270.005 
L 250.02 30.685 
L 10.7 30.685 
z
" style="fill:#ffffff;"/>
   </g>
   <g id="Quiver_1">
    <path clip-path="url(#p73561c606f)" d="M 24.631539 256.552101 
L 24.631539 268.863785 
L 25.588819 268.385145 
L 24.152899 273.171545 
L 22.716979 268.385145 
L 23.674259 268.863785 
L 23.674259 256.552101 
L 24.631539 256.552101 
" style="fill:#0000ff;"/>
    <path clip-path="url(#p73561c606f)" d="M 24.631539 241.379658 
L 24.631539 253.691342 
L 25.588819 253.212702 
L 24.152899 257.999102 
L 22.716979 253.212702 
L 23.674259 253.691342 
L 23.674259 241.379658 
L 24.631539 241.379658 
" style="fill:#0000ff;"/>
    <path clip-path="url(#p73561c606f)" d="M 24.631539 226.207215 
L 24.631539 238.518899 
L 25.588819 238.040259 
L 24.152899 242.826659 
L 22.716979 238.040259 
L 23.674259 238.518899 
L 23.674259 226.207215 
L 24.631539 226.207215 
" style="fill:#0000ff;"/>
    <path clip-path="url(#p73561c606f)" d="M 24.631539 211.034772 
L 24.631539 223.346456 
L 25.588819 222.867816 
L 24.152899 227.654216 
L 22.716979 222.867816 
L 23.674259 223.346456 
L 23.674259 211.034772 
L 24.631539 211.034772 
" style="fill:#0000ff;"/>
    <path clip-path="url(#p73561c606f)" d="M 24.631539 195.862329 
L 24.631539 208.174013 
L 25.588819 207.695373 
L 24.152899 212.481773 
L 22.716979 207.695373 
L 23.674259 208.174013 
L 23.674259 195.862329 
L 24.631539 195.862329 
" style="fill:#0000ff;"/>
    <path clip-path="url(#p73561c606f)" d="M 24.631539 180.689886 
L 24.631539 193.00157 
L 25.588819 192.52293 
L 24.152899 197.30933 
L 22.716979 192.52293 
L 23.674259 193.00157 
L 23.674259 180.689886 
L 24.631539 180.689886 
" style="fill:#0000ff;"/>
    <path clip-path="url(#p73561c606f)" d="M 24.631539 165.517443 
L 24.631539 177.829127 
L 25.588819 177.350487 
L 24.152899 182.136887 
L 22.716979 177.350487 
L 23.674259 177.829127 
L 23.674259 165.517443 
L 24.631539 165.517443 
" style="fill:#0000ff;"/>
    <path clip-path="url(#p73561c606f)" d="M 24.631539 150.345 
L 24.631539 162.656684 
L 25.588819 162.178044 
L 24.152899 166.964444 
L 22.716979 162.178044 
L 23.674259 162.656684 
L 23.674259 150.345 
L 24.631539 150.345 
" style="fill:#0000ff;"/>
    <path clip-path="url(#p73561c606f)" d="M 24.631539 135.172557 
L 24.631539 147.484242 
L 25.588819 147.005602 
L 24.152899 151.792002 
L 22.716979 147.005602 
L 23.674259 147.484242 
L 23.674259 135.172557 
L 24.631539 135.172557 
" style="fill:#0000ff;"/>
    <path clip-path="url(#p73561c606f)" d="M 24.631539 120.000114 
L 24.631539 132.311799 
L 25.588819 131.833159 
L 24.152899 136.619559 
L 22.716979 131.833159 
L 23.674259 132.311799 
L 23.674259 120.000114 
L 24.631539 120.000114 
" style="fill:#0000ff;"/>
    <path clip-path="url(#p73561c606f)" d="M 24.631539 104.827671 
L 24.631539 117.139356 
L 25.588819 116.660716 
L 24.152899 121.447116 
L 22.716979 116.660716 
L 23.674259 117.139356 
L 23.674259 104.827671 
L 24.631539 104.827671 
" style="fill:#0000ff;"/>
    <path clip-path="url(#p73561c606f)" d="M 24.631539 89.655228 
L 24.631539 101.966913 
L 25.588819 101.488273 
L 24.152899 106.274673 
L 22.716979 101.488273 
L 23.674259 101.966913 
L 23.674259 89.655228 
L 24.631539 89.655228 
" style="fill:#0000ff;"/>
    <path clip-path="url(#p73561c606f)" d="M 24.631539 74.482785 
L 24.631539 86.79447 
L 25.588819 86.31583 
L 24.152899 91.10223 
L 22.716979 86.31583 
L 23.674259 86.79447 
L 23.674259 74.482785 
L 24.631539 74.482785 
" style="fill:#0000ff;"/>
    <path clip-path="url(#p73561c606f)" d="M 24.631539 59.310342 
L 24.631539 71.622027 
L 25.588819 71.143387 
L 24.152899 75.929787 
L 22.716979 71.143387 
L 23.674259 71.622027 
L 23.674259 59.310342 
L 24.631539 59.310342 
" style="fill:#0000ff;"/>
    <path clip-path="url(#p73561c606f)" d="M 24.631539 44.137899 
L 24.631539 56.449584 
L 25.588819 55.970944 
L 24.152899 60.757344 
L 22.716979 55.970944 
L 23.674259 56.449584 
L 23.674259 44.137899 
L 24.631539 44.137899 
" style="fill:#0000ff;"/>
    <path clip-path="url(#p73561c606f)" d="M 39.803982 256.552101 
L 39.803982 266.489579 
L 40.761262 266.010939 
L 39.325342 270.797339 
L 37.889422 266.010939 
L 38.846702 266.489579 
L 38.846702 256.552101 
L 39.803982 256.552101 
" style="fill:#0000ff;"/>
    <path clip-path="url(#p73561c606f)" d="M 39.803982 241.379658 
L 39.803982 251.317136 
L 40.761262 250.838496 
L 39.325342 255.624896 
L 37.889422 250.838496 
L 38.846702 251.317136 
L 38.846702 241.379658 
L 39.803982 241.379658 
" style="fill:#0000ff;"/>
    <path clip-path="url(#p73561c606f)" d="M 39.803982 226.207215 
L 39.803982 236.144693 
L 40.761262 235.666053 
L 39.325342 240.452453 
L 37.889422 235.666053 
L 38.846702 236.144693 
L 38.846702 226.207215 
L 39.803982 226.207215 
" style="fill:#0000ff;"/>
    <path clip-path="url(#p73561c606f)" d="M 39.803982 211.034772 
L 39.803982 220.97225 
L 40.761262 220.49361 
L 39.325342 225.28001 
L 37.889422 220.49361 
L 38.846702 220.97225 
L 38.846702 211.034772 
L 39.803982 211.034772 
" style="fill:#0000ff;"/>
    <path clip-path="url(#p73561c606f)" d="M 39.803982 195.862329 
L 39.803982 205.799807 
L 40.761262 205.321167 
L 39.325342 210.107567 
L 37.889422 205.321167 
L 38.846702 205.799807 
L 38.846702 195.862329 
L 39.803982 195.862329 
" style="fill:#0000ff;"/>
    <path clip-path="url(#p73561c606f)" d="M 39.803982 180.689886 
L 39.803982 190.627364 
L 40.761262 190.148724 
L 39.325342 194.935124 
L 37.889422 190.148724 
L 38.846702 190.627364 
L 38.846702 180.689886 
L 39.803982 180.689886 
" style="fill:#0000ff;"/>
    <path clip-path="url(#p73561c606f)" d="M 39.803982 165.517443 
L 39.803982 175.454921 
L 40.761262 174.976281 
L 39.325342 179.762681 
L 37.889422 174.976281 
L 38.846702 175.454921 
L 38.846702 165.517443 
L 39.803982 165.517443 
" style="fill:#0000ff;"/>
    <path clip-path="url(#p73561c606f)" d="M 39.803982 150.345 
L 39.803982 160.282478 
L 40.761262 159.803838 
L 39.325342 164.590238 
L 37.889422 159.803838 
L 38.846702 160.282478 
L 38.846702 150.345 
L 39.803982 150.345 
" style="fill:#0000ff;"/>
    <path clip-path="url(#p73561c606f)" d="M 39.803982 135.172557 
L 39.803982 145.110035 
L 40.761262 144.631395 
L 39.325342 149.417795 
L 37.889422 144.631395 
L 38.846702 145.110035 
L 38.846702 135.172557 
L 39.803982 135.172557 
" style="fill:#0000ff;"/>
    <path clip-path="url(#p73561c606f)" d="M 39.803982 120.000114 
L 39.803982 129.937592 
L 40.761262 129.458952 
L 39.325342 134.245352 
L 37.889422 129.458952 
L 38.846702 129.937592 
L 38.846702 120.000114 
L 39.803982 120.000114 
" style="fill:#0000ff;"/>
    <path clip-path="url(#p73561c606f)" d="M 39.803982 104.827671 
L 39.803982 114.765149 
L 40.761262 114.286509 
L 39.325342 119.072909 
L 37.889422 114.286509 
L 38.846702 114.765149 
L 38.846702 104.827671 
L 39.803982 104.827671 
" style="fill:#0000ff;"/>
    <path clip-path="url(#p73561c606f)" d="M 39.803982 89.655228 
L 39.803982 99.592706 
L 40.761262 99.114066 
L 39.325342 103.900466 
L 37.889422 99.114066 
L 38.846702 99.592706 
L 38.846702 89.655228 
L 39.803982 89.655228 
" style="fill:#0000ff;"/>
    <path clip-path="url(#p73561c606f)" d="M 39.803982 74.482785 
L 39.803982 84.420263 
L 40.761262 83.941623 
L 39.325342 88.728023 
L 37.889422 83.941623 
L 38.846702 84.420263 
L 38.846702 74.482785 
L 39.803982 74.482785 
" style="fill:#0000ff;"/>
    <path clip-path="url(#p73561c606f)" d="M 39.803982 59.310342 
L 39.803982 69.24782 
L 40.761262 68.76918 
L 39.325342 73.55558 
L 37.889422 68.76918 
L 38.846702 69.24782 
L 38.846702 59.310342 
L 39.803982 59.310342 
" style="fill:#0000ff;"/>
    <path clip-path="url(#p73561c606f)" d="M 39.803982 44.137899 
L 39.803982 54.075378 
L 40.761262 53.596738 
L 39.325342 58.383138 
L 37.889422 53.596738 
L 38.846702 54.075378 
L 38.846702 44.137899 
L 39.803982 44.137899 
" style="fill:#0000ff;"/>
    <path clip-path="url(#p73561c606f)" d="M 54.976425 256.552101 
L 54.976425 264.115372 
L 55.933705 263.636732 
L 54.497785 268.423132 
L 53.061865 263.636732 
L 54.019145 264.115372 
L 54.019145 256.552101 
L 54.976425 256.552101 
" style="fill:#0000ff;"/>
    <path clip-path="url(#p73561c606f)" d="M 54.976425 241.379658 
L 54.976425 248.942929 
L 55.933705 248.464289 
L 54.497785 253.250689 
L 53.061865 248.464289 
L 54.019145 248.942929 
L 54.019145 241.379658 
L 54.976425 241.379658 
" style="fill:#0000ff;"/>
    <path clip-path="url(#p73561c606f)" d="M 54.976425 226.207215 
L 54.976425 233.770486 
L 55.933705 233.291846 
L 54.497785 238.078246 
L 53.061865 233.291846 
L 54.019145 233.770486 
L 54.019145 226.207215 
L 54.976425 226.207215 
" style="fill:#0000ff;"/>
    <path clip-path="url(#p73561c606f)" d="M 54.976425 211.034772 
L 54.976425 218.598044 
L 55.933705 218.119404 
L 54.497785 222.905804 
L 53.061865 218.119404 
L 54.019145 218.598044 
L 54.019145 211.034772 
L 54.976425 211.034772 
" style="fill:#0000ff;"/>
    <path clip-path="url(#p73561c606f)" d="M 54.976425 195.862329 
L 54.976425 203.425601 
L 55.933705 202.946961 
L 54.497785 207.733361 
L 53.061865 202.946961 
L 54.019145 203.425601 
L 54.019145 195.862329 
L 54.976425 195.862329 
" style="fill:#0000ff;"/>
    <path clip-path="url(#p73561c606f)" d="M 54.976425 180.689886 
L 54.976425 188.253158 
L 55.933705 187.774518 
L 54.497785 192.560918 
L 53.061865 187.774518 
L 54.019145 188.253158 
L 54.019145 180.689886 
L 54.976425 180.689886 
" style="fill:#0000ff;"/>
    <path clip-path="url(#p73561c606f)" d="M 54.976425 165.517443 
L 54.976425 173.080715 
L 55.933705 172.602075 
L 54.497785 177.388475 
L 53.061865 172.602075 
L 54.019145 173.080715 
L 54.019145 165.517443 
L 54.976425 165.517443 
" style="fill:#0000ff;"/>
    <path clip-path="url(#p73561c606f)" d="M 54.976425 150.345 
L 54.976425 157.908272 
L 55.933705 157.429632 
L 54.497785 162.216032 
L 53.061865 157.429632 
L 54.019145 157.908272 
L 54.019145 150.345 
L 54.976425 150.345 
" style="fill:#0000ff;"/>
    <path clip-path="url(#p73561c606f)" d="M 54.976425 135.172557 
L 54.976425 142.735829 
L 55.933705 142.257189 
L 54.497785 147.043589 
L 53.061865 142.257189 
L 54.019145 142.735829 
L 54.019145 135.172557 
L 54.976425 135.172557 
" style="fill:#0000ff;"/>
    <path clip-path="url(#p73561c606f)" d="M 54.976425 120.000114 
L 54.976425 127.563386 
L 55.933705 127.084746 
L 54.497785 131.871146 
L 53.061865 127.084746 
L 54.019145 127.563386 
L 54.019145 120.000114 
L 54.976425 120.000114 
" style="fill:#0000ff;"/>
    <path clip-path="url(#p73561c606f)" d="M 54.976425 104.827671 
L 54.976425 112.390943 
L 55.933705 111.912303 
L 54.497785 116.698703 
L 53.061865 111.912303 
L 54.019145 112.390943 
L 54.019145 104.827671 
L 54.976425 104.827671 
" style="fill:#0000ff;"/>
    <path clip-path="url(#p73561c606f)" d="M 54.976425 89.655228 
L 54.976425 97.2185 
L 55.933705 96.73986 
L 54.497785 101.52626 
L 53.061865 96.73986 
L 54.019145 97.2185 
L 54.019145 89.655228 
L 54.976425 89.655228 
" style="fill:#0000ff;"/>
    <path clip-path="url(#p73561c606f)" d="M 54.976425 74.482785 
L 54.976425 82.046057 
L 55.933705 81.567417 
L 54.497785 86.353817 
L 53.061865 81.567417 
L 54.019145 82.046057 
L 54.019145 74.482785 
L 54.976425 74.482785 
" style="fill:#0000ff;"/>
    <path clip-path="url(#p73561c606f)" d="M 54.976425 59.310342 
L 54.976425 66.873614 
L 55.933705 66.394974 
L 54.497785 71.181374 
L 53.061865 66.394974 
L 54.019145 66.873614 
L 54.019145 59.310342 
L 54.976425 59.310342 
" style="fill:#0000ff;"/>
    <path clip-path="url(#p73561c606f)" d="M 54.976425 44.137899 
L 54.976425 51.701171 
L 55.933705 51.222531 
L 54.497785 56.008931 
L 53.061865 51.222531 
L 54.019145 51.701171 
L 54.019145 44.137899 
L 54.976425 44.137899 
" style="fill:#0000ff;"/>
    <path clip-path="url(#p73561c606f)" d="M 70.148868 256.552101 
L 70.148868 261.741166 
L 71.106148 261.262526 
L 69.670228 266.048926 
L 68.234308 261.262526 
L 69.191588 261.741166 
L 69.191588 256.552101 
L 70.148868 256.552101 
" style="fill:#0000ff;"/>
    <path clip-path="url(#p73561c606f)" d="M 70.148868 241.379658 
L 70.148868 246.568723 
L 71.106148 246.090083 
L 69.670228 250.876483 
L 68.234308 246.090083 
L 69.191588 246.568723 
L 69.191588 241.379658 
L 70.148868 241.379658 
" style="fill:#0000ff;"/>
    <path clip-path="url(#p73561c606f)" d="M 70.148868 226.207215 
L 70.148868 231.39628 
L 71.106148 230.91764 
L 69.670228 235.70404 
L 68.234308 230.91764 
L 69.191588 231.39628 
L 69.191588 226.207215 
L 70.148868 226.207215 
" style="fill:#0000ff;"/>
    <path clip-path="url(#p73561c606f)" d="M 70.148868 211.034772 
L 70.148868 216.223837 
L 71.106148 215.745197 
L 69.670228 220.531597 
L 68.234308 215.745197 
L 69.191588 216.223837 
L 69.191588 211.034772 
L 70.148868 211.034772 
" style="fill:#0000ff;"/>
    <path clip-path="url(#p73561c606f)" d="M 70.148868 195.862329 
L 70.148868 201.051394 
L 71.106148 200.572754 
L 69.670228 205.359154 
L 68.234308 200.572754 
L 69.191588 201.051394 
L 69.191588 195.862329 
L 70.148868 195.862329 
" style="fill:#0000ff;"/>
    <path clip-path="url(#p73561c606f)" d="M 70.148868 180.689886 
L 70.148868 185.878951 
L 71.106148 185.400311 
L 69.670228 190.186711 
L 68.234308 185.400311 
L 69.191588 185.878951 
L 69.191588 180.689886 
L 70.148868 180.689886 
" style="fill:#0000ff;"/>
    <path clip-path="url(#p73561c606f)" d="M 70.148868 165.517443 
L 70.148868 170.706508 
L 71.106148 170.227868 
L 69.670228 175.014268 
L 68.234308 170.227868 
L 69.191588 170.706508 
L 69.191588 165.517443 
L 70.148868 165.517443 
" style="fill:#0000ff;"/>
    <path clip-path="url(#p73561c606f)" d="M 70.148868 150.345 
L 70.148868 155.534065 
L 71.106148 155.055425 
L 69.670228 159.841825 
L 68.234308 155.055425 
L 69.191588 155.534065 
L 69.191588 150.345 
L 70.148868 150.345 
" style="fill:#0000ff;"/>
    <path clip-path="url(#p73561c606f)" d="M 70.148868 135.172557 
L 70.148868 140.361622 
L 71.106148 139.882982 
L 69.670228 144.669382 
L 68.234308 139.882982 
L 69.191588 140.361622 
L 69.191588 135.172557 
L 70.148868 135.172557 
" style="fill:#0000ff;"/>
    <path clip-path="url(#p73561c606f)" d="M 70.148868 120.000114 
L 70.148868 125.18918 
L 71.106148 124.71054 
L 69.670228 129.49694 
L 68.234308 124.71054 
L 69.191588 125.18918 
L 69.191588 120.000114 
L 70.148868 120.000114 
" style="fill:#0000ff;"/>
    <path clip-path="url(#p73561c606f)" d="M 70.148868 104.827671 
L 70.148868 110.016737 
L 71.106148 109.538097 
L 69.670228 114.324497 
L 68.234308 109.538097 
L 69.191588 110.016737 
L 69.191588 104.827671 
L 70.148868 104.827671 
" style="fill:#0000ff;"/>
    <path clip-path="url(#p73561c606f)" d="M 70.148868 89.655228 
L 70.148868 94.844294 
L 71.106148 94.365654 
L 69.670228 99.152054 
L 68.234308 94.365654 
L 69.191588 94.844294 
L 69.191588 89.655228 
L 70.148868 89.655228 
" style="fill:#0000ff;"/>
    <path clip-path="url(#p73561c606f)" d="M 70.148868 74.482785 
L 70.148868 79.671851 
L 71.106148 79.193211 
L 69.670228 83.979611 
L 68.234308 79.193211 
L 69.191588 79.671851 
L 69.191588 74.482785 
L 70.148868 74.482785 
" style="fill:#0000ff;"/>
    <path clip-path="url(#p73561c606f)" d="M 70.148868 59.310342 
L 70.148868 64.499408 
L 71.106148 64.020768 
L 69.670228 68.807168 
L 68.234308 64.020768 
L 69.191588 64.499408 
L 69.191588 59.310342 
L 70.148868 59.310342 
" style="fill:#0000ff;"/>
    <path clip-path="url(#p73561c606f)" d="M 70.148868 44.137899 
L 70.148868 49.326965 
L 71.106148 48.848325 
L 69.670228 53.634725 
L 68.234308 48.848325 
L 69.191588 49.326965 
L 69.191588 44.137899 
L 70.148868 44.137899 
" style="fill:#0000ff;"/>
    <path clip-path="url(#p73561c606f)" d="M 85.321311 256.552101 
L 85.321311 259.36696 
L 86.278591 258.88832 
L 84.842671 263.67472 
L 83.406751 258.88832 
L 84.364031 259.36696 
L 84.364031 256.552101 
L 85.321311 256.552101 
" style="fill:#0000ff;"/>
    <path clip-path="url(#p73561c606f)" d="M 85.321311 241.379658 
L 85.321311 244.194517 
L 86.278591 243.715877 
L 84.842671 248.502277 
L 83.406751 243.715877 
L 84.364031 244.194517 
L 84.364031 241.379658 
L 85.321311 241.379658 
" style="fill:#0000ff;"/>
    <path clip-path="url(#p73561c606f)" d="M 85.321311 226.207215 
L 85.321311 229.022074 
L 86.278591 228.543434 
L 84.842671 233.329834 
L 83.406751 228.543434 
L 84.364031 229.022074 
L 84.364031 226.207215 
L 85.321311 226.207215 
" style="fill:#0000ff;"/>
    <path clip-path="url(#p73561c606f)" d="M 85.321311 211.034772 
L 85.321311 213.849631 
L 86.278591 213.370991 
L 84.842671 218.157391 
L 83.406751 213.370991 
L 84.364031 213.849631 
L 84.364031 211.034772 
L 85.321311 211.034772 
" style="fill:#0000ff;"/>
    <path clip-path="url(#p73561c606f)" d="M 85.321311 195.862329 
L 85.321311 198.677188 
L 86.278591 198.198548 
L 84.842671 202.984948 
L 83.406751 198.198548 
L 84.364031 198.677188 
L 84.364031 195.862329 
L 85.321311 195.862329 
" style="fill:#0000ff;"/>
    <path clip-path="url(#p73561c606f)" d="M 85.321311 180.689886 
L 85.321311 183.504745 
L 86.278591 183.026105 
L 84.842671 187.812505 
L 83.406751 183.026105 
L 84.364031 183.504745 
L 84.364031 180.689886 
L 85.321311 180.689886 
" style="fill:#0000ff;"/>
    <path clip-path="url(#p73561c606f)" d="M 85.321311 165.517443 
L 85.321311 168.332302 
L 86.278591 167.853662 
L 84.842671 172.640062 
L 83.406751 167.853662 
L 84.364031 168.332302 
L 84.364031 165.517443 
L 85.321311 165.517443 
" style="fill:#0000ff;"/>
    <path clip-path="url(#p73561c606f)" d="M 85.321311 150.345 
L 85.321311 153.159859 
L 86.278591 152.681219 
L 84.842671 157.467619 
L 83.406751 152.681219 
L 84.364031 153.159859 
L 84.364031 150.345 
L 85.321311 150.345 
" style="fill:#0000ff;"/>
    <path clip-path="url(#p73561c606f)" d="M 85.321311 135.172557 
L 85.321311 137.987416 
L 86.278591 137.508776 
L 84.842671 142.295176 
L 83.406751 137.508776 
L 84.364031 137.987416 
L 84.364031 135.172557 
L 85.321311 135.172557 
" style="fill:#0000ff;"/>
    <path clip-path="url(#p73561c606f)" d="M 85.321311 120.000114 
L 85.321311 122.814973 
L 86.278591 122.336333 
L 84.842671 127.122733 
L 83.406751 122.336333 
L 84.364031 122.814973 
L 84.364031 120.000114 
L 85.321311 120.000114 
" style="fill:#0000ff;"/>
    <path clip-path="url(#p73561c606f)" d="M 85.321311 104.827671 
L 85.321311 107.64253 
L 86.278591 107.16389 
L 84.842671 111.95029 
L 83.406751 107.16389 
L 84.364031 107.64253 
L 84.364031 104.827671 
L 85.321311 104.827671 
" style="fill:#0000ff;"/>
    <path clip-path="url(#p73561c606f)" d="M 85.321311 89.655228 
L 85.321311 92.470087 
L 86.278591 91.991447 
L 84.842671 96.777847 
L 83.406751 91.991447 
L 84.364031 92.470087 
L 84.364031 89.655228 
L 85.321311 89.655228 
" style="fill:#0000ff;"/>
    <path clip-path="url(#p73561c606f)" d="M 85.321311 74.482785 
L 85.321311 77.297644 
L 86.278591 76.819004 
L 84.842671 81.605404 
L 83.406751 76.819004 
L 84.364031 77.297644 
L 84.364031 74.482785 
L 85.321311 74.482785 
" style="fill:#0000ff;"/>
    <path clip-path="url(#p73561c606f)" d="M 85.321311 59.310342 
L 85.321311 62.125201 
L 86.278591 61.646561 
L 84.842671 66.432961 
L 83.406751 61.646561 
L 84.364031 62.125201 
L 84.364031 59.310342 
L 85.321311 59.310342 
" style="fill:#0000ff;"/>
    <path clip-path="url(#p73561c606f)" d="M 85.321311 44.137899 
L 85.321311 46.952758 
L 86.278591 46.474118 
L 84.842671 51.260518 
L 83.406751 46.474118 
L 84.364031 46.952758 
L 84.364031 44.137899 
L 85.321311 44.137899 
" style="fill:#0000ff;"/>
    <path clip-path="url(#p73561c606f)" d="M 100.489955 256.552101 
L 100.489955 257.026942 
L 101.439638 256.552101 
L 100.015114 261.300513 
L 98.59059 256.552101 
L 99.540273 257.026942 
L 99.540273 256.552101 
L 100.489955 256.552101 
" style="fill:#0000ff;"/>
    <path clip-path="url(#p73561c606f)" d="M 100.489955 241.379658 
L 100.489955 241.854499 
L 101.439638 241.379658 
L 100.015114 246.12807 
L 98.59059 241.379658 
L 99.540273 241.854499 
L 99.540273 241.379658 
L 100.489955 241.379658 
" style="fill:#0000ff;"/>
    <path clip-path="url(#p73561c606f)" d="M 100.489955 226.207215 
L 100.489955 226.682056 
L 101.439638 226.207215 
L 100.015114 230.955627 
L 98.59059 226.207215 
L 99.540273 226.682056 
L 99.540273 226.207215 
L 100.489955 226.207215 
" style="fill:#0000ff;"/>
    <path clip-path="url(#p73561c606f)" d="M 100.489955 211.034772 
L 100.489955 211.509613 
L 101.439638 211.034772 
L 100.015114 215.783184 
L 98.59059 211.034772 
L 99.540273 211.509613 
L 99.540273 211.034772 
L 100.489955 211.034772 
" style="fill:#0000ff;"/>
    <path clip-path="url(#p73561c606f)" d="M 100.489955 195.862329 
L 100.489955 196.33717 
L 101.439638 195.862329 
L 100.015114 200.610742 
L 98.59059 195.862329 
L 99.540273 196.33717 
L 99.540273 195.862329 
L 100.489955 195.862329 
" style="fill:#0000ff;"/>
    <path clip-path="url(#p73561c606f)" d="M 100.489955 180.689886 
L 100.489955 181.164727 
L 101.439638 180.689886 
L 100.015114 185.438299 
L 98.59059 180.689886 
L 99.540273 181.164727 
L 99.540273 180.689886 
L 100.489955 180.689886 
" style="fill:#0000ff;"/>
    <path clip-path="url(#p73561c606f)" d="M 100.489955 165.517443 
L 100.489955 165.992284 
L 101.439638 165.517443 
L 100.015114 170.265856 
L 98.59059 165.517443 
L 99.540273 165.992284 
L 99.540273 165.517443 
L 100.489955 165.517443 
" style="fill:#0000ff;"/>
    <path clip-path="url(#p73561c606f)" d="M 100.489955 150.345 
L 100.489955 150.819841 
L 101.439638 150.345 
L 100.015114 155.093413 
L 98.59059 150.345 
L 99.540273 150.819841 
L 99.540273 150.345 
L 100.489955 150.345 
" style="fill:#0000ff;"/>
    <path clip-path="url(#p73561c606f)" d="M 100.489955 135.172557 
L 100.489955 135.647398 
L 101.439638 135.172557 
L 100.015114 139.92097 
L 98.59059 135.172557 
L 99.540273 135.647398 
L 99.540273 135.172557 
L 100.489955 135.172557 
" style="fill:#0000ff;"/>
    <path clip-path="url(#p73561c606f)" d="M 100.489955 120.000114 
L 100.489955 120.474955 
L 101.439638 120.000114 
L 100.015114 124.748527 
L 98.59059 120.000114 
L 99.540273 120.474955 
L 99.540273 120.000114 
L 100.489955 120.000114 
" style="fill:#0000ff;"/>
    <path clip-path="url(#p73561c606f)" d="M 100.489955 104.827671 
L 100.489955 105.302512 
L 101.439638 104.827671 
L 100.015114 109.576084 
L 98.59059 104.827671 
L 99.540273 105.302512 
L 99.540273 104.827671 
L 100.489955 104.827671 
" style="fill:#0000ff;"/>
    <path clip-path="url(#p73561c606f)" d="M 100.489955 89.655228 
L 100.489955 90.13007 
L 101.439638 89.655228 
L 100.015114 94.403641 
L 98.59059 89.655228 
L 99.540273 90.13007 
L 99.540273 89.655228 
L 100.489955 89.655228 
" style="fill:#0000ff;"/>
    <path clip-path="url(#p73561c606f)" d="M 100.489955 74.482785 
L 100.489955 74.957627 
L 101.439638 74.482785 
L 100.015114 79.231198 
L 98.59059 74.482785 
L 99.540273 74.957627 
L 99.540273 74.482785 
L 100.489955 74.482785 
" style="fill:#0000ff;"/>
    <path clip-path="url(#p73561c606f)" d="M 100.489955 59.310342 
L 100.489955 59.785184 
L 101.439638 59.310342 
L 100.015114 64.058755 
L 98.59059 59.310342 
L 99.540273 59.785184 
L 99.540273 59.310342 
L 100.489955 59.310342 
" style="fill:#0000ff;"/>
    <path clip-path="url(#p73561c606f)" d="M 100.489955 44.137899 
L 100.489955 44.612741 
L 101.439638 44.137899 
L 100.015114 48.886312 
L 98.59059 44.137899 
L 99.540273 44.612741 
L 99.540273 44.137899 
L 100.489955 44.137899 
" style="fill:#0000ff;"/>
    <path clip-path="url(#p73561c606f)" d="M 115.424978 256.552101 
L 115.424978 256.789521 
L 115.899819 256.552101 
L 115.187557 258.926307 
L 114.475295 256.552101 
L 114.950136 256.789521 
L 114.950136 256.552101 
L 115.424978 256.552101 
" style="fill:#0000ff;"/>
    <path clip-path="url(#p73561c606f)" d="M 115.424978 241.379658 
L 115.424978 241.617078 
L 115.899819 241.379658 
L 115.187557 243.753864 
L 114.475295 241.379658 
L 114.950136 241.617078 
L 114.950136 241.379658 
L 115.424978 241.379658 
" style="fill:#0000ff;"/>
    <path clip-path="url(#p73561c606f)" d="M 115.424978 226.207215 
L 115.424978 226.444635 
L 115.899819 226.207215 
L 115.187557 228.581421 
L 114.475295 226.207215 
L 114.950136 226.444635 
L 114.950136 226.207215 
L 115.424978 226.207215 
" style="fill:#0000ff;"/>
    <path clip-path="url(#p73561c606f)" d="M 115.424978 211.034772 
L 115.424978 211.272192 
L 115.899819 211.034772 
L 115.187557 213.408978 
L 114.475295 211.034772 
L 114.950136 211.272192 
L 114.950136 211.034772 
L 115.424978 211.034772 
" style="fill:#0000ff;"/>
    <path clip-path="url(#p73561c606f)" d="M 115.424978 195.862329 
L 115.424978 196.099749 
L 115.899819 195.862329 
L 115.187557 198.236535 
L 114.475295 195.862329 
L 114.950136 196.099749 
L 114.950136 195.862329 
L 115.424978 195.862329 
" style="fill:#0000ff;"/>
    <path clip-path="url(#p73561c606f)" d="M 115.424978 180.689886 
L 115.424978 180.927307 
L 115.899819 180.689886 
L 115.187557 183.064092 
L 114.475295 180.689886 
L 114.950136 180.927307 
L 114.950136 180.689886 
L 115.424978 180.689886 
" style="fill:#0000ff;"/>
    <path clip-path="url(#p73561c606f)" d="M 115.424978 165.517443 
L 115.424978 165.754864 
L 115.899819 165.517443 
L 115.187557 167.891649 
L 114.475295 165.517443 
L 114.950136 165.754864 
L 114.950136 165.517443 
L 115.424978 165.517443 
" style="fill:#0000ff;"/>
    <path clip-path="url(#p73561c606f)" d="M 115.424978 150.345 
L 115.424978 150.582421 
L 115.899819 150.345 
L 115.187557 152.719206 
L 114.475295 150.345 
L 114.950136 150.582421 
L 114.950136 150.345 
L 115.424978 150.345 
" style="fill:#0000ff;"/>
    <path clip-path="url(#p73561c606f)" d="M 115.424978 135.172557 
L 115.424978 135.409978 
L 115.899819 135.172557 
L 115.187557 137.546763 
L 114.475295 135.172557 
L 114.950136 135.409978 
L 114.950136 135.172557 
L 115.424978 135.172557 
" style="fill:#0000ff;"/>
    <path clip-path="url(#p73561c606f)" d="M 115.424978 120.000114 
L 115.424978 120.237535 
L 115.899819 120.000114 
L 115.187557 122.37432 
L 114.475295 120.000114 
L 114.950136 120.237535 
L 114.950136 120.000114 
L 115.424978 120.000114 
" style="fill:#0000ff;"/>
    <path clip-path="url(#p73561c606f)" d="M 115.424978 104.827671 
L 115.424978 105.065092 
L 115.899819 104.827671 
L 115.187557 107.201878 
L 114.475295 104.827671 
L 114.950136 105.065092 
L 114.950136 104.827671 
L 115.424978 104.827671 
" style="fill:#0000ff;"/>
    <path clip-path="url(#p73561c606f)" d="M 115.424978 89.655228 
L 115.424978 89.892649 
L 115.899819 89.655228 
L 115.187557 92.029435 
L 114.475295 89.655228 
L 114.950136 89.892649 
L 114.950136 89.655228 
L 115.424978 89.655228 
" style="fill:#0000ff;"/>
    <path clip-path="url(#p73561c606f)" d="M 115.424978 74.482785 
L 115.424978 74.720206 
L 115.899819 74.482785 
L 115.187557 76.856992 
L 114.475295 74.482785 
L 114.950136 74.720206 
L 114.950136 74.482785 
L 115.424978 74.482785 
" style="fill:#0000ff;"/>
    <path clip-path="url(#p73561c606f)" d="M 115.424978 59.310342 
L 115.424978 59.547763 
L 115.899819 59.310342 
L 115.187557 61.684549 
L 114.475295 59.310342 
L 114.950136 59.547763 
L 114.950136 59.310342 
L 115.424978 59.310342 
" style="fill:#0000ff;"/>
    <path clip-path="url(#p73561c606f)" d="M 115.424978 44.137899 
L 115.424978 44.37532 
L 115.899819 44.137899 
L 115.187557 46.512106 
L 114.475295 44.137899 
L 114.950136 44.37532 
L 114.950136 44.137899 
L 115.424978 44.137899 
" style="fill:#0000ff;"/>
    <path clip-path="url(#p73561c606f)" d="M 130.83864 256.552101 
L 130.59932 256.137586 
L 130.12068 256.137586 
L 129.88136 256.552101 
L 130.12068 256.966615 
L 130.59932 256.966615 
L 130.83864 256.552101 
L 130.59932 256.137586 
" style="fill:#0000ff;"/>
    <path clip-path="url(#p73561c606f)" d="M 130.83864 241.379658 
L 130.59932 240.965143 
L 130.12068 240.965143 
L 129.88136 241.379658 
L 130.12068 241.794172 
L 130.59932 241.794172 
L 130.83864 241.379658 
L 130.59932 240.965143 
" style="fill:#0000ff;"/>
    <path clip-path="url(#p73561c606f)" d="M 130.83864 226.207215 
L 130.59932 225.7927 
L 130.12068 225.7927 
L 129.88136 226.207215 
L 130.12068 226.621729 
L 130.59932 226.621729 
L 130.83864 226.207215 
L 130.59932 225.7927 
" style="fill:#0000ff;"/>
    <path clip-path="url(#p73561c606f)" d="M 130.83864 211.034772 
L 130.59932 210.620257 
L 130.12068 210.620257 
L 129.88136 211.034772 
L 130.12068 211.449286 
L 130.59932 211.449286 
L 130.83864 211.034772 
L 130.59932 210.620257 
" style="fill:#0000ff;"/>
    <path clip-path="url(#p73561c606f)" d="M 130.83864 195.862329 
L 130.59932 195.447814 
L 130.12068 195.447814 
L 129.88136 195.862329 
L 130.12068 196.276843 
L 130.59932 196.276843 
L 130.83864 195.862329 
L 130.59932 195.447814 
" style="fill:#0000ff;"/>
    <path clip-path="url(#p73561c606f)" d="M 130.83864 180.689886 
L 130.59932 180.275371 
L 130.12068 180.275371 
L 129.88136 180.689886 
L 130.12068 181.1044 
L 130.59932 181.1044 
L 130.83864 180.689886 
L 130.59932 180.275371 
" style="fill:#0000ff;"/>
    <path clip-path="url(#p73561c606f)" d="M 130.83864 165.517443 
L 130.59932 165.102929 
L 130.12068 165.102929 
L 129.88136 165.517443 
L 130.12068 165.931957 
L 130.59932 165.931957 
L 130.83864 165.517443 
L 130.59932 165.102929 
" style="fill:#0000ff;"/>
    <path clip-path="url(#p73561c606f)" d="M 130.83864 150.345 
L 130.59932 149.930486 
L 130.12068 149.930486 
L 129.88136 150.345 
L 130.12068 150.759514 
L 130.59932 150.759514 
L 130.83864 150.345 
L 130.59932 149.930486 
" style="fill:#0000ff;"/>
    <path clip-path="url(#p73561c606f)" d="M 130.83864 135.172557 
L 130.59932 134.758043 
L 130.12068 134.758043 
L 129.88136 135.172557 
L 130.12068 135.587071 
L 130.59932 135.587071 
L 130.83864 135.172557 
L 130.59932 134.758043 
" style="fill:#0000ff;"/>
    <path clip-path="url(#p73561c606f)" d="M 130.83864 120.000114 
L 130.59932 119.5856 
L 130.12068 119.5856 
L 129.88136 120.000114 
L 130.12068 120.414629 
L 130.59932 120.414629 
L 130.83864 120.000114 
L 130.59932 119.5856 
" style="fill:#0000ff;"/>
    <path clip-path="url(#p73561c606f)" d="M 130.83864 104.827671 
L 130.59932 104.413157 
L 130.12068 104.413157 
L 129.88136 104.827671 
L 130.12068 105.242186 
L 130.59932 105.242186 
L 130.83864 104.827671 
L 130.59932 104.413157 
" style="fill:#0000ff;"/>
    <path clip-path="url(#p73561c606f)" d="M 130.83864 89.655228 
L 130.59932 89.240714 
L 130.12068 89.240714 
L 129.88136 89.655228 
L 130.12068 90.069743 
L 130.59932 90.069743 
L 130.83864 89.655228 
L 130.59932 89.240714 
" style="fill:#0000ff;"/>
    <path clip-path="url(#p73561c606f)" d="M 130.83864 74.482785 
L 130.59932 74.068271 
L 130.12068 74.068271 
L 129.88136 74.482785 
L 130.12068 74.8973 
L 130.59932 74.8973 
L 130.83864 74.482785 
L 130.59932 74.068271 
" style="fill:#0000ff;"/>
    <path clip-path="url(#p73561c606f)" d="M 130.83864 59.310342 
L 130.59932 58.895828 
L 130.12068 58.895828 
L 129.88136 59.310342 
L 130.12068 59.724857 
L 130.59932 59.724857 
L 130.83864 59.310342 
L 130.59932 58.895828 
" style="fill:#0000ff;"/>
    <path clip-path="url(#p73561c606f)" d="M 130.83864 44.137899 
L 130.59932 43.723385 
L 130.12068 43.723385 
L 129.88136 44.137899 
L 130.12068 44.552414 
L 130.59932 44.552414 
L 130.83864 44.137899 
L 130.59932 43.723385 
" style="fill:#0000ff;"/>
    <path clip-path="url(#p73561c606f)" d="M 145.295022 256.552101 
L 145.295022 256.31468 
L 144.820181 256.552101 
L 145.532443 254.177894 
L 146.244705 256.552101 
L 145.769864 256.31468 
L 145.769864 256.552101 
L 145.295022 256.552101 
" style="fill:#0000ff;"/>
    <path clip-path="url(#p73561c606f)" d="M 145.295022 241.379658 
L 145.295022 241.142237 
L 144.820181 241.379658 
L 145.532443 239.005451 
L 146.244705 241.379658 
L 145.769864 241.142237 
L 145.769864 241.379658 
L 145.295022 241.379658 
" style="fill:#0000ff;"/>
    <path clip-path="url(#p73561c606f)" d="M 145.295022 226.207215 
L 145.295022 225.969794 
L 144.820181 226.207215 
L 145.532443 223.833008 
L 146.244705 226.207215 
L 145.769864 225.969794 
L 145.769864 226.207215 
L 145.295022 226.207215 
" style="fill:#0000ff;"/>
    <path clip-path="url(#p73561c606f)" d="M 145.295022 211.034772 
L 145.295022 210.797351 
L 144.820181 211.034772 
L 145.532443 208.660565 
L 146.244705 211.034772 
L 145.769864 210.797351 
L 145.769864 211.034772 
L 145.295022 211.034772 
" style="fill:#0000ff;"/>
    <path clip-path="url(#p73561c606f)" d="M 145.295022 195.862329 
L 145.295022 195.624908 
L 144.820181 195.862329 
L 145.532443 193.488122 
L 146.244705 195.862329 
L 145.769864 195.624908 
L 145.769864 195.862329 
L 145.295022 195.862329 
" style="fill:#0000ff;"/>
    <path clip-path="url(#p73561c606f)" d="M 145.295022 180.689886 
L 145.295022 180.452465 
L 144.820181 180.689886 
L 145.532443 178.31568 
L 146.244705 180.689886 
L 145.769864 180.452465 
L 145.769864 180.689886 
L 145.295022 180.689886 
" style="fill:#0000ff;"/>
    <path clip-path="url(#p73561c606f)" d="M 145.295022 165.517443 
L 145.295022 165.280022 
L 144.820181 165.517443 
L 145.532443 163.143237 
L 146.244705 165.517443 
L 145.769864 165.280022 
L 145.769864 165.517443 
L 145.295022 165.517443 
" style="fill:#0000ff;"/>
    <path clip-path="url(#p73561c606f)" d="M 145.295022 150.345 
L 145.295022 150.107579 
L 144.820181 150.345 
L 145.532443 147.970794 
L 146.244705 150.345 
L 145.769864 150.107579 
L 145.769864 150.345 
L 145.295022 150.345 
" style="fill:#0000ff;"/>
    <path clip-path="url(#p73561c606f)" d="M 145.295022 135.172557 
L 145.295022 134.935136 
L 144.820181 135.172557 
L 145.532443 132.798351 
L 146.244705 135.172557 
L 145.769864 134.935136 
L 145.769864 135.172557 
L 145.295022 135.172557 
" style="fill:#0000ff;"/>
    <path clip-path="url(#p73561c606f)" d="M 145.295022 120.000114 
L 145.295022 119.762693 
L 144.820181 120.000114 
L 145.532443 117.625908 
L 146.244705 120.000114 
L 145.769864 119.762693 
L 145.769864 120.000114 
L 145.295022 120.000114 
" style="fill:#0000ff;"/>
    <path clip-path="url(#p73561c606f)" d="M 145.295022 104.827671 
L 145.295022 104.590251 
L 144.820181 104.827671 
L 145.532443 102.453465 
L 146.244705 104.827671 
L 145.769864 104.590251 
L 145.769864 104.827671 
L 145.295022 104.827671 
" style="fill:#0000ff;"/>
    <path clip-path="url(#p73561c606f)" d="M 145.295022 89.655228 
L 145.295022 89.417808 
L 144.820181 89.655228 
L 145.532443 87.281022 
L 146.244705 89.655228 
L 145.769864 89.417808 
L 145.769864 89.655228 
L 145.295022 89.655228 
" style="fill:#0000ff;"/>
    <path clip-path="url(#p73561c606f)" d="M 145.295022 74.482785 
L 145.295022 74.245365 
L 144.820181 74.482785 
L 145.532443 72.108579 
L 146.244705 74.482785 
L 145.769864 74.245365 
L 145.769864 74.482785 
L 145.295022 74.482785 
" style="fill:#0000ff;"/>
    <path clip-path="url(#p73561c606f)" d="M 145.295022 59.310342 
L 145.295022 59.072922 
L 144.820181 59.310342 
L 145.532443 56.936136 
L 146.244705 59.310342 
L 145.769864 59.072922 
L 145.769864 59.310342 
L 145.295022 59.310342 
" style="fill:#0000ff;"/>
    <path clip-path="url(#p73561c606f)" d="M 145.295022 44.137899 
L 145.295022 43.900479 
L 144.820181 44.137899 
L 145.532443 41.763693 
L 146.244705 44.137899 
L 145.769864 43.900479 
L 145.769864 44.137899 
L 145.295022 44.137899 
" style="fill:#0000ff;"/>
    <path clip-path="url(#p73561c606f)" d="M 160.230045 256.552101 
L 160.230045 256.077259 
L 159.280362 256.552101 
L 160.704886 251.803688 
L 162.12941 256.552101 
L 161.179727 256.077259 
L 161.179727 256.552101 
L 160.230045 256.552101 
" style="fill:#0000ff;"/>
    <path clip-path="url(#p73561c606f)" d="M 160.230045 241.379658 
L 160.230045 240.904816 
L 159.280362 241.379658 
L 160.704886 236.631245 
L 162.12941 241.379658 
L 161.179727 240.904816 
L 161.179727 241.379658 
L 160.230045 241.379658 
" style="fill:#0000ff;"/>
    <path clip-path="url(#p73561c606f)" d="M 160.230045 226.207215 
L 160.230045 225.732373 
L 159.280362 226.207215 
L 160.704886 221.458802 
L 162.12941 226.207215 
L 161.179727 225.732373 
L 161.179727 226.207215 
L 160.230045 226.207215 
" style="fill:#0000ff;"/>
    <path clip-path="url(#p73561c606f)" d="M 160.230045 211.034772 
L 160.230045 210.55993 
L 159.280362 211.034772 
L 160.704886 206.286359 
L 162.12941 211.034772 
L 161.179727 210.55993 
L 161.179727 211.034772 
L 160.230045 211.034772 
" style="fill:#0000ff;"/>
    <path clip-path="url(#p73561c606f)" d="M 160.230045 195.862329 
L 160.230045 195.387488 
L 159.280362 195.862329 
L 160.704886 191.113916 
L 162.12941 195.862329 
L 161.179727 195.387488 
L 161.179727 195.862329 
L 160.230045 195.862329 
" style="fill:#0000ff;"/>
    <path clip-path="url(#p73561c606f)" d="M 160.230045 180.689886 
L 160.230045 180.215045 
L 159.280362 180.689886 
L 160.704886 175.941473 
L 162.12941 180.689886 
L 161.179727 180.215045 
L 161.179727 180.689886 
L 160.230045 180.689886 
" style="fill:#0000ff;"/>
    <path clip-path="url(#p73561c606f)" d="M 160.230045 165.517443 
L 160.230045 165.042602 
L 159.280362 165.517443 
L 160.704886 160.76903 
L 162.12941 165.517443 
L 161.179727 165.042602 
L 161.179727 165.517443 
L 160.230045 165.517443 
" style="fill:#0000ff;"/>
    <path clip-path="url(#p73561c606f)" d="M 160.230045 150.345 
L 160.230045 149.870159 
L 159.280362 150.345 
L 160.704886 145.596587 
L 162.12941 150.345 
L 161.179727 149.870159 
L 161.179727 150.345 
L 160.230045 150.345 
" style="fill:#0000ff;"/>
    <path clip-path="url(#p73561c606f)" d="M 160.230045 135.172557 
L 160.230045 134.697716 
L 159.280362 135.172557 
L 160.704886 130.424144 
L 162.12941 135.172557 
L 161.179727 134.697716 
L 161.179727 135.172557 
L 160.230045 135.172557 
" style="fill:#0000ff;"/>
    <path clip-path="url(#p73561c606f)" d="M 160.230045 120.000114 
L 160.230045 119.525273 
L 159.280362 120.000114 
L 160.704886 115.251701 
L 162.12941 120.000114 
L 161.179727 119.525273 
L 161.179727 120.000114 
L 160.230045 120.000114 
" style="fill:#0000ff;"/>
    <path clip-path="url(#p73561c606f)" d="M 160.230045 104.827671 
L 160.230045 104.35283 
L 159.280362 104.827671 
L 160.704886 100.079258 
L 162.12941 104.827671 
L 161.179727 104.35283 
L 161.179727 104.827671 
L 160.230045 104.827671 
" style="fill:#0000ff;"/>
    <path clip-path="url(#p73561c606f)" d="M 160.230045 89.655228 
L 160.230045 89.180387 
L 159.280362 89.655228 
L 160.704886 84.906816 
L 162.12941 89.655228 
L 161.179727 89.180387 
L 161.179727 89.655228 
L 160.230045 89.655228 
" style="fill:#0000ff;"/>
    <path clip-path="url(#p73561c606f)" d="M 160.230045 74.482785 
L 160.230045 74.007944 
L 159.280362 74.482785 
L 160.704886 69.734373 
L 162.12941 74.482785 
L 161.179727 74.007944 
L 161.179727 74.482785 
L 160.230045 74.482785 
" style="fill:#0000ff;"/>
    <path clip-path="url(#p73561c606f)" d="M 160.230045 59.310342 
L 160.230045 58.835501 
L 159.280362 59.310342 
L 160.704886 54.56193 
L 162.12941 59.310342 
L 161.179727 58.835501 
L 161.179727 59.310342 
L 160.230045 59.310342 
" style="fill:#0000ff;"/>
    <path clip-path="url(#p73561c606f)" d="M 160.230045 44.137899 
L 160.230045 43.663058 
L 159.280362 44.137899 
L 160.704886 39.389487 
L 162.12941 44.137899 
L 161.179727 43.663058 
L 161.179727 44.137899 
L 160.230045 44.137899 
" style="fill:#0000ff;"/>
    <path clip-path="url(#p73561c606f)" d="M 175.398689 256.552101 
L 175.398689 253.737242 
L 174.441409 254.215882 
L 175.877329 249.429482 
L 177.313249 254.215882 
L 176.355969 253.737242 
L 176.355969 256.552101 
L 175.398689 256.552101 
" style="fill:#0000ff;"/>
    <path clip-path="url(#p73561c606f)" d="M 175.398689 241.379658 
L 175.398689 238.564799 
L 174.441409 239.043439 
L 175.877329 234.257039 
L 177.313249 239.043439 
L 176.355969 238.564799 
L 176.355969 241.379658 
L 175.398689 241.379658 
" style="fill:#0000ff;"/>
    <path clip-path="url(#p73561c606f)" d="M 175.398689 226.207215 
L 175.398689 223.392356 
L 174.441409 223.870996 
L 175.877329 219.084596 
L 177.313249 223.870996 
L 176.355969 223.392356 
L 176.355969 226.207215 
L 175.398689 226.207215 
" style="fill:#0000ff;"/>
    <path clip-path="url(#p73561c606f)" d="M 175.398689 211.034772 
L 175.398689 208.219913 
L 174.441409 208.698553 
L 175.877329 203.912153 
L 177.313249 208.698553 
L 176.355969 208.219913 
L 176.355969 211.034772 
L 175.398689 211.034772 
" style="fill:#0000ff;"/>
    <path clip-path="url(#p73561c606f)" d="M 175.398689 195.862329 
L 175.398689 193.04747 
L 174.441409 193.52611 
L 175.877329 188.73971 
L 177.313249 193.52611 
L 176.355969 193.04747 
L 176.355969 195.862329 
L 175.398689 195.862329 
" style="fill:#0000ff;"/>
    <path clip-path="url(#p73561c606f)" d="M 175.398689 180.689886 
L 175.398689 177.875027 
L 174.441409 178.353667 
L 175.877329 173.567267 
L 177.313249 178.353667 
L 176.355969 177.875027 
L 176.355969 180.689886 
L 175.398689 180.689886 
" style="fill:#0000ff;"/>
    <path clip-path="url(#p73561c606f)" d="M 175.398689 165.517443 
L 175.398689 162.702584 
L 174.441409 163.181224 
L 175.877329 158.394824 
L 177.313249 163.181224 
L 176.355969 162.702584 
L 176.355969 165.517443 
L 175.398689 165.517443 
" style="fill:#0000ff;"/>
    <path clip-path="url(#p73561c606f)" d="M 175.398689 150.345 
L 175.398689 147.530141 
L 174.441409 148.008781 
L 175.877329 143.222381 
L 177.313249 148.008781 
L 176.355969 147.530141 
L 176.355969 150.345 
L 175.398689 150.345 
" style="fill:#0000ff;"/>
    <path clip-path="url(#p73561c606f)" d="M 175.398689 135.172557 
L 175.398689 132.357698 
L 174.441409 132.836338 
L 175.877329 128.049938 
L 177.313249 132.836338 
L 176.355969 132.357698 
L 176.355969 135.172557 
L 175.398689 135.172557 
" style="fill:#0000ff;"/>
    <path clip-path="url(#p73561c606f)" d="M 175.398689 120.000114 
L 175.398689 117.185255 
L 174.441409 117.663895 
L 175.877329 112.877495 
L 177.313249 117.663895 
L 176.355969 117.185255 
L 176.355969 120.000114 
L 175.398689 120.000114 
" style="fill:#0000ff;"/>
    <path clip-path="url(#p73561c606f)" d="M 175.398689 104.827671 
L 175.398689 102.012812 
L 174.441409 102.491452 
L 175.877329 97.705052 
L 177.313249 102.491452 
L 176.355969 102.012812 
L 176.355969 104.827671 
L 175.398689 104.827671 
" style="fill:#0000ff;"/>
    <path clip-path="url(#p73561c606f)" d="M 175.398689 89.655228 
L 175.398689 86.840369 
L 174.441409 87.319009 
L 175.877329 82.532609 
L 177.313249 87.319009 
L 176.355969 86.840369 
L 176.355969 89.655228 
L 175.398689 89.655228 
" style="fill:#0000ff;"/>
    <path clip-path="url(#p73561c606f)" d="M 175.398689 74.482785 
L 175.398689 71.667926 
L 174.441409 72.146566 
L 175.877329 67.360166 
L 177.313249 72.146566 
L 176.355969 71.667926 
L 176.355969 74.482785 
L 175.398689 74.482785 
" style="fill:#0000ff;"/>
    <path clip-path="url(#p73561c606f)" d="M 175.398689 59.310342 
L 175.398689 56.495483 
L 174.441409 56.974123 
L 175.877329 52.187723 
L 177.313249 56.974123 
L 176.355969 56.495483 
L 176.355969 59.310342 
L 175.398689 59.310342 
" style="fill:#0000ff;"/>
    <path clip-path="url(#p73561c606f)" d="M 175.398689 44.137899 
L 175.398689 41.32304 
L 174.441409 41.80168 
L 175.877329 37.01528 
L 177.313249 41.80168 
L 176.355969 41.32304 
L 176.355969 44.137899 
L 175.398689 44.137899 
" style="fill:#0000ff;"/>
    <path clip-path="url(#p73561c606f)" d="M 190.571132 256.552101 
L 190.571132 251.363035 
L 189.613852 251.841675 
L 191.049772 247.055275 
L 192.485692 251.841675 
L 191.528412 251.363035 
L 191.528412 256.552101 
L 190.571132 256.552101 
" style="fill:#0000ff;"/>
    <path clip-path="url(#p73561c606f)" d="M 190.571132 241.379658 
L 190.571132 236.190592 
L 189.613852 236.669232 
L 191.049772 231.882832 
L 192.485692 236.669232 
L 191.528412 236.190592 
L 191.528412 241.379658 
L 190.571132 241.379658 
" style="fill:#0000ff;"/>
    <path clip-path="url(#p73561c606f)" d="M 190.571132 226.207215 
L 190.571132 221.018149 
L 189.613852 221.496789 
L 191.049772 216.710389 
L 192.485692 221.496789 
L 191.528412 221.018149 
L 191.528412 226.207215 
L 190.571132 226.207215 
" style="fill:#0000ff;"/>
    <path clip-path="url(#p73561c606f)" d="M 190.571132 211.034772 
L 190.571132 205.845706 
L 189.613852 206.324346 
L 191.049772 201.537946 
L 192.485692 206.324346 
L 191.528412 205.845706 
L 191.528412 211.034772 
L 190.571132 211.034772 
" style="fill:#0000ff;"/>
    <path clip-path="url(#p73561c606f)" d="M 190.571132 195.862329 
L 190.571132 190.673263 
L 189.613852 191.151903 
L 191.049772 186.365503 
L 192.485692 191.151903 
L 191.528412 190.673263 
L 191.528412 195.862329 
L 190.571132 195.862329 
" style="fill:#0000ff;"/>
    <path clip-path="url(#p73561c606f)" d="M 190.571132 180.689886 
L 190.571132 175.50082 
L 189.613852 175.97946 
L 191.049772 171.19306 
L 192.485692 175.97946 
L 191.528412 175.50082 
L 191.528412 180.689886 
L 190.571132 180.689886 
" style="fill:#0000ff;"/>
    <path clip-path="url(#p73561c606f)" d="M 190.571132 165.517443 
L 190.571132 160.328378 
L 189.613852 160.807018 
L 191.049772 156.020618 
L 192.485692 160.807018 
L 191.528412 160.328378 
L 191.528412 165.517443 
L 190.571132 165.517443 
" style="fill:#0000ff;"/>
    <path clip-path="url(#p73561c606f)" d="M 190.571132 150.345 
L 190.571132 145.155935 
L 189.613852 145.634575 
L 191.049772 140.848175 
L 192.485692 145.634575 
L 191.528412 145.155935 
L 191.528412 150.345 
L 190.571132 150.345 
" style="fill:#0000ff;"/>
    <path clip-path="url(#p73561c606f)" d="M 190.571132 135.172557 
L 190.571132 129.983492 
L 189.613852 130.462132 
L 191.049772 125.675732 
L 192.485692 130.462132 
L 191.528412 129.983492 
L 191.528412 135.172557 
L 190.571132 135.172557 
" style="fill:#0000ff;"/>
    <path clip-path="url(#p73561c606f)" d="M 190.571132 120.000114 
L 190.571132 114.811049 
L 189.613852 115.289689 
L 191.049772 110.503289 
L 192.485692 115.289689 
L 191.528412 114.811049 
L 191.528412 120.000114 
L 190.571132 120.000114 
" style="fill:#0000ff;"/>
    <path clip-path="url(#p73561c606f)" d="M 190.571132 104.827671 
L 190.571132 99.638606 
L 189.613852 100.117246 
L 191.049772 95.330846 
L 192.485692 100.117246 
L 191.528412 99.638606 
L 191.528412 104.827671 
L 190.571132 104.827671 
" style="fill:#0000ff;"/>
    <path clip-path="url(#p73561c606f)" d="M 190.571132 89.655228 
L 190.571132 84.466163 
L 189.613852 84.944803 
L 191.049772 80.158403 
L 192.485692 84.944803 
L 191.528412 84.466163 
L 191.528412 89.655228 
L 190.571132 89.655228 
" style="fill:#0000ff;"/>
    <path clip-path="url(#p73561c606f)" d="M 190.571132 74.482785 
L 190.571132 69.29372 
L 189.613852 69.77236 
L 191.049772 64.98596 
L 192.485692 69.77236 
L 191.528412 69.29372 
L 191.528412 74.482785 
L 190.571132 74.482785 
" style="fill:#0000ff;"/>
    <path clip-path="url(#p73561c606f)" d="M 190.571132 59.310342 
L 190.571132 54.121277 
L 189.613852 54.599917 
L 191.049772 49.813517 
L 192.485692 54.599917 
L 191.528412 54.121277 
L 191.528412 59.310342 
L 190.571132 59.310342 
" style="fill:#0000ff;"/>
    <path clip-path="url(#p73561c606f)" d="M 190.571132 44.137899 
L 190.571132 38.948834 
L 189.613852 39.427474 
L 191.049772 34.641074 
L 192.485692 39.427474 
L 191.528412 38.948834 
L 191.528412 44.137899 
L 190.571132 44.137899 
" style="fill:#0000ff;"/>
    <path clip-path="url(#p73561c606f)" d="M 205.743575 256.552101 
L 205.743575 248.988829 
L 204.786295 249.467469 
L 206.222215 244.681069 
L 207.658135 249.467469 
L 206.700855 248.988829 
L 206.700855 256.552101 
L 205.743575 256.552101 
" style="fill:#0000ff;"/>
    <path clip-path="url(#p73561c606f)" d="M 205.743575 241.379658 
L 205.743575 233.816386 
L 204.786295 234.295026 
L 206.222215 229.508626 
L 207.658135 234.295026 
L 206.700855 233.816386 
L 206.700855 241.379658 
L 205.743575 241.379658 
" style="fill:#0000ff;"/>
    <path clip-path="url(#p73561c606f)" d="M 205.743575 226.207215 
L 205.743575 218.643943 
L 204.786295 219.122583 
L 206.222215 214.336183 
L 207.658135 219.122583 
L 206.700855 218.643943 
L 206.700855 226.207215 
L 205.743575 226.207215 
" style="fill:#0000ff;"/>
    <path clip-path="url(#p73561c606f)" d="M 205.743575 211.034772 
L 205.743575 203.4715 
L 204.786295 203.95014 
L 206.222215 199.16374 
L 207.658135 203.95014 
L 206.700855 203.4715 
L 206.700855 211.034772 
L 205.743575 211.034772 
" style="fill:#0000ff;"/>
    <path clip-path="url(#p73561c606f)" d="M 205.743575 195.862329 
L 205.743575 188.299057 
L 204.786295 188.777697 
L 206.222215 183.991297 
L 207.658135 188.777697 
L 206.700855 188.299057 
L 206.700855 195.862329 
L 205.743575 195.862329 
" style="fill:#0000ff;"/>
    <path clip-path="url(#p73561c606f)" d="M 205.743575 180.689886 
L 205.743575 173.126614 
L 204.786295 173.605254 
L 206.222215 168.818854 
L 207.658135 173.605254 
L 206.700855 173.126614 
L 206.700855 180.689886 
L 205.743575 180.689886 
" style="fill:#0000ff;"/>
    <path clip-path="url(#p73561c606f)" d="M 205.743575 165.517443 
L 205.743575 157.954171 
L 204.786295 158.432811 
L 206.222215 153.646411 
L 207.658135 158.432811 
L 206.700855 157.954171 
L 206.700855 165.517443 
L 205.743575 165.517443 
" style="fill:#0000ff;"/>
    <path clip-path="url(#p73561c606f)" d="M 205.743575 150.345 
L 205.743575 142.781728 
L 204.786295 143.260368 
L 206.222215 138.473968 
L 207.658135 143.260368 
L 206.700855 142.781728 
L 206.700855 150.345 
L 205.743575 150.345 
" style="fill:#0000ff;"/>
    <path clip-path="url(#p73561c606f)" d="M 205.743575 135.172557 
L 205.743575 127.609285 
L 204.786295 128.087925 
L 206.222215 123.301525 
L 207.658135 128.087925 
L 206.700855 127.609285 
L 206.700855 135.172557 
L 205.743575 135.172557 
" style="fill:#0000ff;"/>
    <path clip-path="url(#p73561c606f)" d="M 205.743575 120.000114 
L 205.743575 112.436842 
L 204.786295 112.915482 
L 206.222215 108.129082 
L 207.658135 112.915482 
L 206.700855 112.436842 
L 206.700855 120.000114 
L 205.743575 120.000114 
" style="fill:#0000ff;"/>
    <path clip-path="url(#p73561c606f)" d="M 205.743575 104.827671 
L 205.743575 97.264399 
L 204.786295 97.743039 
L 206.222215 92.956639 
L 207.658135 97.743039 
L 206.700855 97.264399 
L 206.700855 104.827671 
L 205.743575 104.827671 
" style="fill:#0000ff;"/>
    <path clip-path="url(#p73561c606f)" d="M 205.743575 89.655228 
L 205.743575 82.091956 
L 204.786295 82.570596 
L 206.222215 77.784196 
L 207.658135 82.570596 
L 206.700855 82.091956 
L 206.700855 89.655228 
L 205.743575 89.655228 
" style="fill:#0000ff;"/>
    <path clip-path="url(#p73561c606f)" d="M 205.743575 74.482785 
L 205.743575 66.919514 
L 204.786295 67.398154 
L 206.222215 62.611754 
L 207.658135 67.398154 
L 206.700855 66.919514 
L 206.700855 74.482785 
L 205.743575 74.482785 
" style="fill:#0000ff;"/>
    <path clip-path="url(#p73561c606f)" d="M 205.743575 59.310342 
L 205.743575 51.747071 
L 204.786295 52.225711 
L 206.222215 47.439311 
L 207.658135 52.225711 
L 206.700855 51.747071 
L 206.700855 59.310342 
L 205.743575 59.310342 
" style="fill:#0000ff;"/>
    <path clip-path="url(#p73561c606f)" d="M 205.743575 44.137899 
L 205.743575 36.574628 
L 204.786295 37.053268 
L 206.222215 32.266868 
L 207.658135 37.053268 
L 206.700855 36.574628 
L 206.700855 44.137899 
L 205.743575 44.137899 
" style="fill:#0000ff;"/>
    <path clip-path="url(#p73561c606f)" d="M 220.916018 256.552101 
L 220.916018 246.614622 
L 219.958738 247.093262 
L 221.394658 242.306862 
L 222.830578 247.093262 
L 221.873298 246.614622 
L 221.873298 256.552101 
L 220.916018 256.552101 
" style="fill:#0000ff;"/>
    <path clip-path="url(#p73561c606f)" d="M 220.916018 241.379658 
L 220.916018 231.44218 
L 219.958738 231.92082 
L 221.394658 227.13442 
L 222.830578 231.92082 
L 221.873298 231.44218 
L 221.873298 241.379658 
L 220.916018 241.379658 
" style="fill:#0000ff;"/>
    <path clip-path="url(#p73561c606f)" d="M 220.916018 226.207215 
L 220.916018 216.269737 
L 219.958738 216.748377 
L 221.394658 211.961977 
L 222.830578 216.748377 
L 221.873298 216.269737 
L 221.873298 226.207215 
L 220.916018 226.207215 
" style="fill:#0000ff;"/>
    <path clip-path="url(#p73561c606f)" d="M 220.916018 211.034772 
L 220.916018 201.097294 
L 219.958738 201.575934 
L 221.394658 196.789534 
L 222.830578 201.575934 
L 221.873298 201.097294 
L 221.873298 211.034772 
L 220.916018 211.034772 
" style="fill:#0000ff;"/>
    <path clip-path="url(#p73561c606f)" d="M 220.916018 195.862329 
L 220.916018 185.924851 
L 219.958738 186.403491 
L 221.394658 181.617091 
L 222.830578 186.403491 
L 221.873298 185.924851 
L 221.873298 195.862329 
L 220.916018 195.862329 
" style="fill:#0000ff;"/>
    <path clip-path="url(#p73561c606f)" d="M 220.916018 180.689886 
L 220.916018 170.752408 
L 219.958738 171.231048 
L 221.394658 166.444648 
L 222.830578 171.231048 
L 221.873298 170.752408 
L 221.873298 180.689886 
L 220.916018 180.689886 
" style="fill:#0000ff;"/>
    <path clip-path="url(#p73561c606f)" d="M 220.916018 165.517443 
L 220.916018 155.579965 
L 219.958738 156.058605 
L 221.394658 151.272205 
L 222.830578 156.058605 
L 221.873298 155.579965 
L 221.873298 165.517443 
L 220.916018 165.517443 
" style="fill:#0000ff;"/>
    <path clip-path="url(#p73561c606f)" d="M 220.916018 150.345 
L 220.916018 140.407522 
L 219.958738 140.886162 
L 221.394658 136.099762 
L 222.830578 140.886162 
L 221.873298 140.407522 
L 221.873298 150.345 
L 220.916018 150.345 
" style="fill:#0000ff;"/>
    <path clip-path="url(#p73561c606f)" d="M 220.916018 135.172557 
L 220.916018 125.235079 
L 219.958738 125.713719 
L 221.394658 120.927319 
L 222.830578 125.713719 
L 221.873298 125.235079 
L 221.873298 135.172557 
L 220.916018 135.172557 
" style="fill:#0000ff;"/>
    <path clip-path="url(#p73561c606f)" d="M 220.916018 120.000114 
L 220.916018 110.062636 
L 219.958738 110.541276 
L 221.394658 105.754876 
L 222.830578 110.541276 
L 221.873298 110.062636 
L 221.873298 120.000114 
L 220.916018 120.000114 
" style="fill:#0000ff;"/>
    <path clip-path="url(#p73561c606f)" d="M 220.916018 104.827671 
L 220.916018 94.890193 
L 219.958738 95.368833 
L 221.394658 90.582433 
L 222.830578 95.368833 
L 221.873298 94.890193 
L 221.873298 104.827671 
L 220.916018 104.827671 
" style="fill:#0000ff;"/>
    <path clip-path="url(#p73561c606f)" d="M 220.916018 89.655228 
L 220.916018 79.71775 
L 219.958738 80.19639 
L 221.394658 75.40999 
L 222.830578 80.19639 
L 221.873298 79.71775 
L 221.873298 89.655228 
L 220.916018 89.655228 
" style="fill:#0000ff;"/>
    <path clip-path="url(#p73561c606f)" d="M 220.916018 74.482785 
L 220.916018 64.545307 
L 219.958738 65.023947 
L 221.394658 60.237547 
L 222.830578 65.023947 
L 221.873298 64.545307 
L 221.873298 74.482785 
L 220.916018 74.482785 
" style="fill:#0000ff;"/>
    <path clip-path="url(#p73561c606f)" d="M 220.916018 59.310342 
L 220.916018 49.372864 
L 219.958738 49.851504 
L 221.394658 45.065104 
L 222.830578 49.851504 
L 221.873298 49.372864 
L 221.873298 59.310342 
L 220.916018 59.310342 
" style="fill:#0000ff;"/>
    <path clip-path="url(#p73561c606f)" d="M 220.916018 44.137899 
L 220.916018 34.200421 
L 219.958738 34.679061 
L 221.394658 29.892661 
L 222.830578 34.679061 
L 221.873298 34.200421 
L 221.873298 44.137899 
L 220.916018 44.137899 
" style="fill:#0000ff;"/>
    <path clip-path="url(#p73561c606f)" d="M 236.088461 256.552101 
L 236.088461 244.240416 
L 235.131181 244.719056 
L 236.567101 239.932656 
L 238.003021 244.719056 
L 237.045741 244.240416 
L 237.045741 256.552101 
L 236.088461 256.552101 
" style="fill:#0000ff;"/>
    <path clip-path="url(#p73561c606f)" d="M 236.088461 241.379658 
L 236.088461 229.067973 
L 235.131181 229.546613 
L 236.567101 224.760213 
L 238.003021 229.546613 
L 237.045741 229.067973 
L 237.045741 241.379658 
L 236.088461 241.379658 
" style="fill:#0000ff;"/>
    <path clip-path="url(#p73561c606f)" d="M 236.088461 226.207215 
L 236.088461 213.89553 
L 235.131181 214.37417 
L 236.567101 209.58777 
L 238.003021 214.37417 
L 237.045741 213.89553 
L 237.045741 226.207215 
L 236.088461 226.207215 
" style="fill:#0000ff;"/>
    <path clip-path="url(#p73561c606f)" d="M 236.088461 211.034772 
L 236.088461 198.723087 
L 235.131181 199.201727 
L 236.567101 194.415327 
L 238.003021 199.201727 
L 237.045741 198.723087 
L 237.045741 211.034772 
L 236.088461 211.034772 
" style="fill:#0000ff;"/>
    <path clip-path="url(#p73561c606f)" d="M 236.088461 195.862329 
L 236.088461 183.550644 
L 235.131181 184.029284 
L 236.567101 179.242884 
L 238.003021 184.029284 
L 237.045741 183.550644 
L 237.045741 195.862329 
L 236.088461 195.862329 
" style="fill:#0000ff;"/>
    <path clip-path="url(#p73561c606f)" d="M 236.088461 180.689886 
L 236.088461 168.378201 
L 235.131181 168.856841 
L 236.567101 164.070441 
L 238.003021 168.856841 
L 237.045741 168.378201 
L 237.045741 180.689886 
L 236.088461 180.689886 
" style="fill:#0000ff;"/>
    <path clip-path="url(#p73561c606f)" d="M 236.088461 165.517443 
L 236.088461 153.205758 
L 235.131181 153.684398 
L 236.567101 148.897998 
L 238.003021 153.684398 
L 237.045741 153.205758 
L 237.045741 165.517443 
L 236.088461 165.517443 
" style="fill:#0000ff;"/>
    <path clip-path="url(#p73561c606f)" d="M 236.088461 150.345 
L 236.088461 138.033316 
L 235.131181 138.511956 
L 236.567101 133.725556 
L 238.003021 138.511956 
L 237.045741 138.033316 
L 237.045741 150.345 
L 236.088461 150.345 
" style="fill:#0000ff;"/>
    <path clip-path="url(#p73561c606f)" d="M 236.088461 135.172557 
L 236.088461 122.860873 
L 235.131181 123.339513 
L 236.567101 118.553113 
L 238.003021 123.339513 
L 237.045741 122.860873 
L 237.045741 135.172557 
L 236.088461 135.172557 
" style="fill:#0000ff;"/>
    <path clip-path="url(#p73561c606f)" d="M 236.088461 120.000114 
L 236.088461 107.68843 
L 235.131181 108.16707 
L 236.567101 103.38067 
L 238.003021 108.16707 
L 237.045741 107.68843 
L 237.045741 120.000114 
L 236.088461 120.000114 
" style="fill:#0000ff;"/>
    <path clip-path="url(#p73561c606f)" d="M 236.088461 104.827671 
L 236.088461 92.515987 
L 235.131181 92.994627 
L 236.567101 88.208227 
L 238.003021 92.994627 
L 237.045741 92.515987 
L 237.045741 104.827671 
L 236.088461 104.827671 
" style="fill:#0000ff;"/>
    <path clip-path="url(#p73561c606f)" d="M 236.088461 89.655228 
L 236.088461 77.343544 
L 235.131181 77.822184 
L 236.567101 73.035784 
L 238.003021 77.822184 
L 237.045741 77.343544 
L 237.045741 89.655228 
L 236.088461 89.655228 
" style="fill:#0000ff;"/>
    <path clip-path="url(#p73561c606f)" d="M 236.088461 74.482785 
L 236.088461 62.171101 
L 235.131181 62.649741 
L 236.567101 57.863341 
L 238.003021 62.649741 
L 237.045741 62.171101 
L 237.045741 74.482785 
L 236.088461 74.482785 
" style="fill:#0000ff;"/>
    <path clip-path="url(#p73561c606f)" d="M 236.088461 59.310342 
L 236.088461 46.998658 
L 235.131181 47.477298 
L 236.567101 42.690898 
L 238.003021 47.477298 
L 237.045741 46.998658 
L 237.045741 59.310342 
L 236.088461 59.310342 
" style="fill:#0000ff;"/>
    <path clip-path="url(#p73561c606f)" d="M 236.088461 44.137899 
L 236.088461 31.826215 
L 235.131181 32.304855 
L 236.567101 27.518455 
L 238.003021 32.304855 
L 237.045741 31.826215 
L 237.045741 44.137899 
L 236.088461 44.137899 
" style="fill:#0000ff;"/>
   </g>
   <g id="matplotlib.axis_1">
    <g id="xtick_1">
     <g id="line2d_1">
      <defs>
       <path d="M 0 0 
L 0 3.5 
" id="me3a5335d51" style="stroke:#000000;stroke-width:0.8;"/>
      </defs>
      <g>
       <use style="stroke:#000000;stroke-width:0.8;" x="24.152899" xlink:href="#me3a5335d51" y="150.345"/>
      </g>
     </g>
     <g id="text_1">
      <!-- -3 -->
      <defs>
       <path d="M 4.890625 31.390625 
L 31.203125 31.390625 
L 31.203125 23.390625 
L 4.890625 23.390625 
z
" id="DejaVuSans-2d"/>
       <path d="M 40.578125 39.3125 
Q 47.65625 37.796875 51.625 33 
Q 55.609375 28.21875 55.609375 21.1875 
Q 55.609375 10.40625 48.1875 4.484375 
Q 40.765625 -1.421875 27.09375 -1.421875 
Q 22.515625 -1.421875 17.65625 -0.515625 
Q 12.796875 0.390625 7.625 2.203125 
L 7.625 11.71875 
Q 11.71875 9.328125 16.59375 8.109375 
Q 21.484375 6.890625 26.8125 6.890625 
Q 36.078125 6.890625 40.9375 10.546875 
Q 45.796875 14.203125 45.796875 21.1875 
Q 45.796875 27.640625 41.28125 31.265625 
Q 36.765625 34.90625 28.71875 34.90625 
L 20.21875 34.90625 
L 20.21875 43.015625 
L 29.109375 43.015625 
Q 36.375 43.015625 40.234375 45.921875 
Q 44.09375 48.828125 44.09375 54.296875 
Q 44.09375 59.90625 40.109375 62.90625 
Q 36.140625 65.921875 28.71875 65.921875 
Q 24.65625 65.921875 20.015625 65.03125 
Q 15.375 64.15625 9.8125 62.3125 
L 9.8125 71.09375 
Q 15.4375 72.65625 20.34375 73.4375 
Q 25.25 74.21875 29.59375 74.21875 
Q 40.828125 74.21875 47.359375 69.109375 
Q 53.90625 64.015625 53.90625 55.328125 
Q 53.90625 49.265625 50.4375 45.09375 
Q 46.96875 40.921875 40.578125 39.3125 
z
" id="DejaVuSans-33"/>
      </defs>
      <g transform="translate(19.167743 164.943438)scale(0.1 -0.1)">
       <use xlink:href="#DejaVuSans-2d"/>
       <use x="36.083984" xlink:href="#DejaVuSans-33"/>
      </g>
     </g>
    </g>
    <g id="xtick_2">
     <g id="line2d_2">
      <g>
       <use style="stroke:#000000;stroke-width:0.8;" x="59.555266" xlink:href="#me3a5335d51" y="150.345"/>
      </g>
     </g>
     <g id="text_2">
      <!-- -2 -->
      <defs>
       <path d="M 19.1875 8.296875 
L 53.609375 8.296875 
L 53.609375 0 
L 7.328125 0 
L 7.328125 8.296875 
Q 12.9375 14.109375 22.625 23.890625 
Q 32.328125 33.6875 34.8125 36.53125 
Q 39.546875 41.84375 41.421875 45.53125 
Q 43.3125 49.21875 43.3125 52.78125 
Q 43.3125 58.59375 39.234375 62.25 
Q 35.15625 65.921875 28.609375 65.921875 
Q 23.96875 65.921875 18.8125 64.3125 
Q 13.671875 62.703125 7.8125 59.421875 
L 7.8125 69.390625 
Q 13.765625 71.78125 18.9375 73 
Q 24.125 74.21875 28.421875 74.21875 
Q 39.75 74.21875 46.484375 68.546875 
Q 53.21875 62.890625 53.21875 53.421875 
Q 53.21875 48.921875 51.53125 44.890625 
Q 49.859375 40.875 45.40625 35.40625 
Q 44.1875 33.984375 37.640625 27.21875 
Q 31.109375 20.453125 19.1875 8.296875 
z
" id="DejaVuSans-32"/>
      </defs>
      <g transform="translate(54.57011 164.943438)scale(0.1 -0.1)">
       <use xlink:href="#DejaVuSans-2d"/>
       <use x="36.083984" xlink:href="#DejaVuSans-32"/>
      </g>
     </g>
    </g>
    <g id="xtick_3">
     <g id="line2d_3">
      <g>
       <use style="stroke:#000000;stroke-width:0.8;" x="94.957633" xlink:href="#me3a5335d51" y="150.345"/>
      </g>
     </g>
     <g id="text_3">
      <!-- -1 -->
      <defs>
       <path d="M 12.40625 8.296875 
L 28.515625 8.296875 
L 28.515625 63.921875 
L 10.984375 60.40625 
L 10.984375 69.390625 
L 28.421875 72.90625 
L 38.28125 72.90625 
L 38.28125 8.296875 
L 54.390625 8.296875 
L 54.390625 0 
L 12.40625 0 
z
" id="DejaVuSans-31"/>
      </defs>
      <g transform="translate(89.972477 164.943438)scale(0.1 -0.1)">
       <use xlink:href="#DejaVuSans-2d"/>
       <use x="36.083984" xlink:href="#DejaVuSans-31"/>
      </g>
     </g>
    </g>
    <g id="xtick_4">
     <g id="line2d_4">
      <g>
       <use style="stroke:#000000;stroke-width:0.8;" x="130.36" xlink:href="#me3a5335d51" y="150.345"/>
      </g>
     </g>
    </g>
    <g id="xtick_5">
     <g id="line2d_5">
      <g>
       <use style="stroke:#000000;stroke-width:0.8;" x="165.762367" xlink:href="#me3a5335d51" y="150.345"/>
      </g>
     </g>
     <g id="text_4">
      <!-- 1 -->
      <g transform="translate(162.581117 164.943438)scale(0.1 -0.1)">
       <use xlink:href="#DejaVuSans-31"/>
      </g>
     </g>
    </g>
    <g id="xtick_6">
     <g id="line2d_6">
      <g>
       <use style="stroke:#000000;stroke-width:0.8;" x="201.164734" xlink:href="#me3a5335d51" y="150.345"/>
      </g>
     </g>
     <g id="text_5">
      <!-- 2 -->
      <g transform="translate(197.983484 164.943438)scale(0.1 -0.1)">
       <use xlink:href="#DejaVuSans-32"/>
      </g>
     </g>
    </g>
    <g id="xtick_7">
     <g id="line2d_7">
      <g>
       <use style="stroke:#000000;stroke-width:0.8;" x="236.567101" xlink:href="#me3a5335d51" y="150.345"/>
      </g>
     </g>
     <g id="text_6">
      <!-- 3 -->
      <g transform="translate(233.385851 164.943438)scale(0.1 -0.1)">
       <use xlink:href="#DejaVuSans-33"/>
      </g>
     </g>
    </g>
    <g id="xtick_8">
     <g id="line2d_8">
      <defs>
       <path d="M 0 0 
L 0 2 
" id="mb58b74dcec" style="stroke:#000000;stroke-width:0.6;"/>
      </defs>
      <g>
       <use style="stroke:#000000;stroke-width:0.6;" x="17.072426" xlink:href="#mb58b74dcec" y="150.345"/>
      </g>
     </g>
    </g>
    <g id="xtick_9">
     <g id="line2d_9">
      <g>
       <use style="stroke:#000000;stroke-width:0.6;" x="31.233373" xlink:href="#mb58b74dcec" y="150.345"/>
      </g>
     </g>
    </g>
    <g id="xtick_10">
     <g id="line2d_10">
      <g>
       <use style="stroke:#000000;stroke-width:0.6;" x="38.313846" xlink:href="#mb58b74dcec" y="150.345"/>
      </g>
     </g>
    </g>
    <g id="xtick_11">
     <g id="line2d_11">
      <g>
       <use style="stroke:#000000;stroke-width:0.6;" x="45.39432" xlink:href="#mb58b74dcec" y="150.345"/>
      </g>
     </g>
    </g>
    <g id="xtick_12">
     <g id="line2d_12">
      <g>
       <use style="stroke:#000000;stroke-width:0.6;" x="52.474793" xlink:href="#mb58b74dcec" y="150.345"/>
      </g>
     </g>
    </g>
    <g id="xtick_13">
     <g id="line2d_13">
      <g>
       <use style="stroke:#000000;stroke-width:0.6;" x="66.63574" xlink:href="#mb58b74dcec" y="150.345"/>
      </g>
     </g>
    </g>
    <g id="xtick_14">
     <g id="line2d_14">
      <g>
       <use style="stroke:#000000;stroke-width:0.6;" x="73.716213" xlink:href="#mb58b74dcec" y="150.345"/>
      </g>
     </g>
    </g>
    <g id="xtick_15">
     <g id="line2d_15">
      <g>
       <use style="stroke:#000000;stroke-width:0.6;" x="80.796686" xlink:href="#mb58b74dcec" y="150.345"/>
      </g>
     </g>
    </g>
    <g id="xtick_16">
     <g id="line2d_16">
      <g>
       <use style="stroke:#000000;stroke-width:0.6;" x="87.87716" xlink:href="#mb58b74dcec" y="150.345"/>
      </g>
     </g>
    </g>
    <g id="xtick_17">
     <g id="line2d_17">
      <g>
       <use style="stroke:#000000;stroke-width:0.6;" x="94.957633" xlink:href="#mb58b74dcec" y="150.345"/>
      </g>
     </g>
    </g>
    <g id="xtick_18">
     <g id="line2d_18">
      <g>
       <use style="stroke:#000000;stroke-width:0.6;" x="102.038107" xlink:href="#mb58b74dcec" y="150.345"/>
      </g>
     </g>
    </g>
    <g id="xtick_19">
     <g id="line2d_19">
      <g>
       <use style="stroke:#000000;stroke-width:0.6;" x="109.11858" xlink:href="#mb58b74dcec" y="150.345"/>
      </g>
     </g>
    </g>
    <g id="xtick_20">
     <g id="line2d_20">
      <g>
       <use style="stroke:#000000;stroke-width:0.6;" x="116.199053" xlink:href="#mb58b74dcec" y="150.345"/>
      </g>
     </g>
    </g>
    <g id="xtick_21">
     <g id="line2d_21">
      <g>
       <use style="stroke:#000000;stroke-width:0.6;" x="123.279527" xlink:href="#mb58b74dcec" y="150.345"/>
      </g>
     </g>
    </g>
    <g id="xtick_22">
     <g id="line2d_22">
      <g>
       <use style="stroke:#000000;stroke-width:0.6;" x="130.36" xlink:href="#mb58b74dcec" y="150.345"/>
      </g>
     </g>
    </g>
    <g id="xtick_23">
     <g id="line2d_23">
      <g>
       <use style="stroke:#000000;stroke-width:0.6;" x="137.440473" xlink:href="#mb58b74dcec" y="150.345"/>
      </g>
     </g>
    </g>
    <g id="xtick_24">
     <g id="line2d_24">
      <g>
       <use style="stroke:#000000;stroke-width:0.6;" x="144.520947" xlink:href="#mb58b74dcec" y="150.345"/>
      </g>
     </g>
    </g>
    <g id="xtick_25">
     <g id="line2d_25">
      <g>
       <use style="stroke:#000000;stroke-width:0.6;" x="151.60142" xlink:href="#mb58b74dcec" y="150.345"/>
      </g>
     </g>
    </g>
    <g id="xtick_26">
     <g id="line2d_26">
      <g>
       <use style="stroke:#000000;stroke-width:0.6;" x="158.681893" xlink:href="#mb58b74dcec" y="150.345"/>
      </g>
     </g>
    </g>
    <g id="xtick_27">
     <g id="line2d_27">
      <g>
       <use style="stroke:#000000;stroke-width:0.6;" x="165.762367" xlink:href="#mb58b74dcec" y="150.345"/>
      </g>
     </g>
    </g>
    <g id="xtick_28">
     <g id="line2d_28">
      <g>
       <use style="stroke:#000000;stroke-width:0.6;" x="172.84284" xlink:href="#mb58b74dcec" y="150.345"/>
      </g>
     </g>
    </g>
    <g id="xtick_29">
     <g id="line2d_29">
      <g>
       <use style="stroke:#000000;stroke-width:0.6;" x="179.923314" xlink:href="#mb58b74dcec" y="150.345"/>
      </g>
     </g>
    </g>
    <g id="xtick_30">
     <g id="line2d_30">
      <g>
       <use style="stroke:#000000;stroke-width:0.6;" x="187.003787" xlink:href="#mb58b74dcec" y="150.345"/>
      </g>
     </g>
    </g>
    <g id="xtick_31">
     <g id="line2d_31">
      <g>
       <use style="stroke:#000000;stroke-width:0.6;" x="194.08426" xlink:href="#mb58b74dcec" y="150.345"/>
      </g>
     </g>
    </g>
    <g id="xtick_32">
     <g id="line2d_32">
      <g>
       <use style="stroke:#000000;stroke-width:0.6;" x="201.164734" xlink:href="#mb58b74dcec" y="150.345"/>
      </g>
     </g>
    </g>
    <g id="xtick_33">
     <g id="line2d_33">
      <g>
       <use style="stroke:#000000;stroke-width:0.6;" x="208.245207" xlink:href="#mb58b74dcec" y="150.345"/>
      </g>
     </g>
    </g>
    <g id="xtick_34">
     <g id="line2d_34">
      <g>
       <use style="stroke:#000000;stroke-width:0.6;" x="215.32568" xlink:href="#mb58b74dcec" y="150.345"/>
      </g>
     </g>
    </g>
    <g id="xtick_35">
     <g id="line2d_35">
      <g>
       <use style="stroke:#000000;stroke-width:0.6;" x="222.406154" xlink:href="#mb58b74dcec" y="150.345"/>
      </g>
     </g>
    </g>
    <g id="xtick_36">
     <g id="line2d_36">
      <g>
       <use style="stroke:#000000;stroke-width:0.6;" x="229.486627" xlink:href="#mb58b74dcec" y="150.345"/>
      </g>
     </g>
    </g>
    <g id="xtick_37">
     <g id="line2d_37">
      <g>
       <use style="stroke:#000000;stroke-width:0.6;" x="236.567101" xlink:href="#mb58b74dcec" y="150.345"/>
      </g>
     </g>
    </g>
    <g id="xtick_38">
     <g id="line2d_38">
      <g>
       <use style="stroke:#000000;stroke-width:0.6;" x="243.647574" xlink:href="#mb58b74dcec" y="150.345"/>
      </g>
     </g>
    </g>
    <g id="text_7">
     <!-- $x$ -->
     <defs>
      <path d="M 7.8125 2.875 
Q 9.578125 1.515625 12.796875 1.515625 
Q 15.921875 1.515625 18.3125 4.515625 
Q 20.703125 7.515625 21.578125 11.078125 
L 26.125 28.8125 
Q 27.203125 33.640625 27.203125 35.40625 
Q 27.203125 37.890625 25.8125 39.75 
Q 24.421875 41.609375 21.921875 41.609375 
Q 18.75 41.609375 15.96875 39.625 
Q 13.1875 37.640625 11.28125 34.59375 
Q 9.375 31.546875 8.59375 28.421875 
Q 8.40625 27.78125 7.8125 27.78125 
L 6.59375 27.78125 
Q 5.8125 27.78125 5.8125 28.71875 
L 5.8125 29 
Q 6.78125 32.71875 9.125 36.25 
Q 11.46875 39.796875 14.859375 41.984375 
Q 18.265625 44.1875 22.125 44.1875 
Q 25.78125 44.1875 28.734375 42.234375 
Q 31.6875 40.28125 32.90625 36.921875 
Q 34.625 39.984375 37.28125 42.078125 
Q 39.9375 44.1875 43.109375 44.1875 
Q 45.265625 44.1875 47.5 43.421875 
Q 49.75 42.671875 51.171875 41.109375 
Q 52.59375 39.546875 52.59375 37.203125 
Q 52.59375 34.671875 50.953125 32.828125 
Q 49.3125 31 46.78125 31 
Q 45.171875 31 44.09375 32.03125 
Q 43.015625 33.0625 43.015625 34.625 
Q 43.015625 36.71875 44.453125 38.296875 
Q 45.90625 39.890625 47.90625 40.1875 
Q 46.09375 41.609375 42.921875 41.609375 
Q 39.703125 41.609375 37.328125 38.625 
Q 34.96875 35.640625 33.984375 31.984375 
L 29.59375 14.3125 
Q 28.515625 10.296875 28.515625 7.71875 
Q 28.515625 5.171875 29.953125 3.34375 
Q 31.390625 1.515625 33.796875 1.515625 
Q 38.484375 1.515625 42.15625 5.640625 
Q 45.84375 9.765625 47.015625 14.703125 
Q 47.21875 15.28125 47.796875 15.28125 
L 49.03125 15.28125 
Q 49.421875 15.28125 49.65625 15.015625 
Q 49.90625 14.75 49.90625 14.40625 
Q 49.90625 14.3125 49.8125 14.109375 
Q 48.390625 8.15625 43.84375 3.515625 
Q 39.3125 -1.125 33.59375 -1.125 
Q 29.9375 -1.125 26.984375 0.84375 
Q 24.03125 2.828125 22.796875 6.203125 
Q 21.234375 3.265625 18.46875 1.0625 
Q 15.71875 -1.125 12.59375 -1.125 
Q 10.453125 -1.125 8.171875 -0.359375 
Q 5.90625 0.390625 4.484375 1.953125 
Q 3.078125 3.515625 3.078125 5.90625 
Q 3.078125 8.25 4.703125 10.171875 
Q 6.34375 12.109375 8.796875 12.109375 
Q 10.453125 12.109375 11.578125 11.109375 
Q 12.703125 10.109375 12.703125 8.5 
Q 12.703125 6.390625 11.296875 4.828125 
Q 9.90625 3.265625 7.8125 2.875 
z
" id="Cmmi10-78"/>
     </defs>
     <g transform="translate(258.02 150.345)scale(0.16 -0.16)">
      <use transform="translate(0 0.8125)" xlink:href="#Cmmi10-78"/>
     </g>
    </g>
   </g>
   <g id="matplotlib.axis_2">
    <g id="ytick_1">
     <g id="line2d_39">
      <defs>
       <path d="M 0 0 
L -3.5 0 
" id="mad8d58f736" style="stroke:#000000;stroke-width:0.8;"/>
      </defs>
      <g>
       <use style="stroke:#000000;stroke-width:0.8;" x="130.36" xlink:href="#mad8d58f736" y="256.552101"/>
      </g>
     </g>
     <g id="text_8">
      <!-- -3 -->
      <g transform="translate(113.389688 260.351319)scale(0.1 -0.1)">
       <use xlink:href="#DejaVuSans-2d"/>
       <use x="36.083984" xlink:href="#DejaVuSans-33"/>
      </g>
     </g>
    </g>
    <g id="ytick_2">
     <g id="line2d_40">
      <g>
       <use style="stroke:#000000;stroke-width:0.8;" x="130.36" xlink:href="#mad8d58f736" y="221.149734"/>
      </g>
     </g>
     <g id="text_9">
      <!-- -2 -->
      <g transform="translate(113.389688 224.948952)scale(0.1 -0.1)">
       <use xlink:href="#DejaVuSans-2d"/>
       <use x="36.083984" xlink:href="#DejaVuSans-32"/>
      </g>
     </g>
    </g>
    <g id="ytick_3">
     <g id="line2d_41">
      <g>
       <use style="stroke:#000000;stroke-width:0.8;" x="130.36" xlink:href="#mad8d58f736" y="185.747367"/>
      </g>
     </g>
     <g id="text_10">
      <!-- -1 -->
      <g transform="translate(113.389688 189.546586)scale(0.1 -0.1)">
       <use xlink:href="#DejaVuSans-2d"/>
       <use x="36.083984" xlink:href="#DejaVuSans-31"/>
      </g>
     </g>
    </g>
    <g id="ytick_4">
     <g id="line2d_42">
      <g>
       <use style="stroke:#000000;stroke-width:0.8;" x="130.36" xlink:href="#mad8d58f736" y="150.345"/>
      </g>
     </g>
    </g>
    <g id="ytick_5">
     <g id="line2d_43">
      <g>
       <use style="stroke:#000000;stroke-width:0.8;" x="130.36" xlink:href="#mad8d58f736" y="114.942633"/>
      </g>
     </g>
     <g id="text_11">
      <!-- 1 -->
      <g transform="translate(116.9975 118.741852)scale(0.1 -0.1)">
       <use xlink:href="#DejaVuSans-31"/>
      </g>
     </g>
    </g>
    <g id="ytick_6">
     <g id="line2d_44">
      <g>
       <use style="stroke:#000000;stroke-width:0.8;" x="130.36" xlink:href="#mad8d58f736" y="79.540266"/>
      </g>
     </g>
     <g id="text_12">
      <!-- 2 -->
      <g transform="translate(116.9975 83.339485)scale(0.1 -0.1)">
       <use xlink:href="#DejaVuSans-32"/>
      </g>
     </g>
    </g>
    <g id="ytick_7">
     <g id="line2d_45">
      <g>
       <use style="stroke:#000000;stroke-width:0.8;" x="130.36" xlink:href="#mad8d58f736" y="44.137899"/>
      </g>
     </g>
     <g id="text_13">
      <!-- 3 -->
      <g transform="translate(116.9975 47.937118)scale(0.1 -0.1)">
       <use xlink:href="#DejaVuSans-33"/>
      </g>
     </g>
    </g>
    <g id="ytick_8">
     <g id="line2d_46">
      <defs>
       <path d="M 0 0 
L -2 0 
" id="m3e85f19932" style="stroke:#000000;stroke-width:0.6;"/>
      </defs>
      <g>
       <use style="stroke:#000000;stroke-width:0.6;" x="130.36" xlink:href="#m3e85f19932" y="263.632574"/>
      </g>
     </g>
    </g>
    <g id="ytick_9">
     <g id="line2d_47">
      <g>
       <use style="stroke:#000000;stroke-width:0.6;" x="130.36" xlink:href="#m3e85f19932" y="249.471627"/>
      </g>
     </g>
    </g>
    <g id="ytick_10">
     <g id="line2d_48">
      <g>
       <use style="stroke:#000000;stroke-width:0.6;" x="130.36" xlink:href="#m3e85f19932" y="242.391154"/>
      </g>
     </g>
    </g>
    <g id="ytick_11">
     <g id="line2d_49">
      <g>
       <use style="stroke:#000000;stroke-width:0.6;" x="130.36" xlink:href="#m3e85f19932" y="235.31068"/>
      </g>
     </g>
    </g>
    <g id="ytick_12">
     <g id="line2d_50">
      <g>
       <use style="stroke:#000000;stroke-width:0.6;" x="130.36" xlink:href="#m3e85f19932" y="228.230207"/>
      </g>
     </g>
    </g>
    <g id="ytick_13">
     <g id="line2d_51">
      <g>
       <use style="stroke:#000000;stroke-width:0.6;" x="130.36" xlink:href="#m3e85f19932" y="214.06926"/>
      </g>
     </g>
    </g>
    <g id="ytick_14">
     <g id="line2d_52">
      <g>
       <use style="stroke:#000000;stroke-width:0.6;" x="130.36" xlink:href="#m3e85f19932" y="206.988787"/>
      </g>
     </g>
    </g>
    <g id="ytick_15">
     <g id="line2d_53">
      <g>
       <use style="stroke:#000000;stroke-width:0.6;" x="130.36" xlink:href="#m3e85f19932" y="199.908314"/>
      </g>
     </g>
    </g>
    <g id="ytick_16">
     <g id="line2d_54">
      <g>
       <use style="stroke:#000000;stroke-width:0.6;" x="130.36" xlink:href="#m3e85f19932" y="192.82784"/>
      </g>
     </g>
    </g>
    <g id="ytick_17">
     <g id="line2d_55">
      <g>
       <use style="stroke:#000000;stroke-width:0.6;" x="130.36" xlink:href="#m3e85f19932" y="185.747367"/>
      </g>
     </g>
    </g>
    <g id="ytick_18">
     <g id="line2d_56">
      <g>
       <use style="stroke:#000000;stroke-width:0.6;" x="130.36" xlink:href="#m3e85f19932" y="178.666893"/>
      </g>
     </g>
    </g>
    <g id="ytick_19">
     <g id="line2d_57">
      <g>
       <use style="stroke:#000000;stroke-width:0.6;" x="130.36" xlink:href="#m3e85f19932" y="171.58642"/>
      </g>
     </g>
    </g>
    <g id="ytick_20">
     <g id="line2d_58">
      <g>
       <use style="stroke:#000000;stroke-width:0.6;" x="130.36" xlink:href="#m3e85f19932" y="164.505947"/>
      </g>
     </g>
    </g>
    <g id="ytick_21">
     <g id="line2d_59">
      <g>
       <use style="stroke:#000000;stroke-width:0.6;" x="130.36" xlink:href="#m3e85f19932" y="157.425473"/>
      </g>
     </g>
    </g>
    <g id="ytick_22">
     <g id="line2d_60">
      <g>
       <use style="stroke:#000000;stroke-width:0.6;" x="130.36" xlink:href="#m3e85f19932" y="150.345"/>
      </g>
     </g>
    </g>
    <g id="ytick_23">
     <g id="line2d_61">
      <g>
       <use style="stroke:#000000;stroke-width:0.6;" x="130.36" xlink:href="#m3e85f19932" y="143.264527"/>
      </g>
     </g>
    </g>
    <g id="ytick_24">
     <g id="line2d_62">
      <g>
       <use style="stroke:#000000;stroke-width:0.6;" x="130.36" xlink:href="#m3e85f19932" y="136.184053"/>
      </g>
     </g>
    </g>
    <g id="ytick_25">
     <g id="line2d_63">
      <g>
       <use style="stroke:#000000;stroke-width:0.6;" x="130.36" xlink:href="#m3e85f19932" y="129.10358"/>
      </g>
     </g>
    </g>
    <g id="ytick_26">
     <g id="line2d_64">
      <g>
       <use style="stroke:#000000;stroke-width:0.6;" x="130.36" xlink:href="#m3e85f19932" y="122.023107"/>
      </g>
     </g>
    </g>
    <g id="ytick_27">
     <g id="line2d_65">
      <g>
       <use style="stroke:#000000;stroke-width:0.6;" x="130.36" xlink:href="#m3e85f19932" y="114.942633"/>
      </g>
     </g>
    </g>
    <g id="ytick_28">
     <g id="line2d_66">
      <g>
       <use style="stroke:#000000;stroke-width:0.6;" x="130.36" xlink:href="#m3e85f19932" y="107.86216"/>
      </g>
     </g>
    </g>
    <g id="ytick_29">
     <g id="line2d_67">
      <g>
       <use style="stroke:#000000;stroke-width:0.6;" x="130.36" xlink:href="#m3e85f19932" y="100.781686"/>
      </g>
     </g>
    </g>
    <g id="ytick_30">
     <g id="line2d_68">
      <g>
       <use style="stroke:#000000;stroke-width:0.6;" x="130.36" xlink:href="#m3e85f19932" y="93.701213"/>
      </g>
     </g>
    </g>
    <g id="ytick_31">
     <g id="line2d_69">
      <g>
       <use style="stroke:#000000;stroke-width:0.6;" x="130.36" xlink:href="#m3e85f19932" y="86.62074"/>
      </g>
     </g>
    </g>
    <g id="ytick_32">
     <g id="line2d_70">
      <g>
       <use style="stroke:#000000;stroke-width:0.6;" x="130.36" xlink:href="#m3e85f19932" y="79.540266"/>
      </g>
     </g>
    </g>
    <g id="ytick_33">
     <g id="line2d_71">
      <g>
       <use style="stroke:#000000;stroke-width:0.6;" x="130.36" xlink:href="#m3e85f19932" y="72.459793"/>
      </g>
     </g>
    </g>
    <g id="ytick_34">
     <g id="line2d_72">
      <g>
       <use style="stroke:#000000;stroke-width:0.6;" x="130.36" xlink:href="#m3e85f19932" y="65.37932"/>
      </g>
     </g>
    </g>
    <g id="ytick_35">
     <g id="line2d_73">
      <g>
       <use style="stroke:#000000;stroke-width:0.6;" x="130.36" xlink:href="#m3e85f19932" y="58.298846"/>
      </g>
     </g>
    </g>
    <g id="ytick_36">
     <g id="line2d_74">
      <g>
       <use style="stroke:#000000;stroke-width:0.6;" x="130.36" xlink:href="#m3e85f19932" y="51.218373"/>
      </g>
     </g>
    </g>
    <g id="ytick_37">
     <g id="line2d_75">
      <g>
       <use style="stroke:#000000;stroke-width:0.6;" x="130.36" xlink:href="#m3e85f19932" y="44.137899"/>
      </g>
     </g>
    </g>
    <g id="ytick_38">
     <g id="line2d_76">
      <g>
       <use style="stroke:#000000;stroke-width:0.6;" x="130.36" xlink:href="#m3e85f19932" y="37.057426"/>
      </g>
     </g>
    </g>
    <g id="text_14">
     <!-- $y$ -->
     <defs>
      <path d="M 8.40625 -14.3125 
Q 10.5 -17.921875 15.71875 -17.921875 
Q 20.453125 -17.921875 23.921875 -14.59375 
Q 27.390625 -11.28125 29.515625 -6.5625 
Q 31.640625 -1.859375 32.8125 3.078125 
Q 28.375 -1.125 23.1875 -1.125 
Q 19.234375 -1.125 16.453125 0.234375 
Q 13.671875 1.609375 12.125 4.3125 
Q 10.59375 7.03125 10.59375 10.890625 
Q 10.59375 14.15625 11.46875 17.59375 
Q 12.359375 21.046875 13.9375 25.265625 
Q 15.53125 29.5 16.703125 32.625 
Q 18.015625 36.28125 18.015625 38.625 
Q 18.015625 41.609375 15.828125 41.609375 
Q 11.859375 41.609375 9.296875 37.53125 
Q 6.734375 33.453125 5.515625 28.421875 
Q 5.328125 27.78125 4.6875 27.78125 
L 3.515625 27.78125 
Q 2.6875 27.78125 2.6875 28.71875 
L 2.6875 29 
Q 4.296875 34.96875 7.609375 39.578125 
Q 10.9375 44.1875 16.015625 44.1875 
Q 19.578125 44.1875 22.046875 41.84375 
Q 24.515625 39.5 24.515625 35.890625 
Q 24.515625 34.03125 23.6875 31.984375 
Q 23.25 30.765625 21.6875 26.65625 
Q 20.125 22.5625 19.28125 19.875 
Q 18.453125 17.1875 17.921875 14.59375 
Q 17.390625 12.015625 17.390625 9.421875 
Q 17.390625 6.109375 18.796875 3.8125 
Q 20.21875 1.515625 23.296875 1.515625 
Q 29.5 1.515625 34.421875 9.078125 
L 42 39.890625 
Q 42.328125 41.21875 43.546875 42.15625 
Q 44.78125 43.109375 46.1875 43.109375 
Q 47.40625 43.109375 48.3125 42.328125 
Q 49.21875 41.546875 49.21875 40.28125 
Q 49.21875 39.703125 49.125 39.5 
L 39.203125 -0.296875 
Q 37.890625 -5.421875 34.375 -10.109375 
Q 30.859375 -14.796875 25.90625 -17.65625 
Q 20.953125 -20.515625 15.578125 -20.515625 
Q 12.984375 -20.515625 10.4375 -19.5 
Q 7.90625 -18.5 6.34375 -16.5 
Q 4.78125 -14.5 4.78125 -11.8125 
Q 4.78125 -9.078125 6.390625 -7.078125 
Q 8.015625 -5.078125 10.6875 -5.078125 
Q 12.3125 -5.078125 13.40625 -6.078125 
Q 14.5 -7.078125 14.5 -8.6875 
Q 14.5 -10.984375 12.78125 -12.6875 
Q 11.078125 -14.40625 8.796875 -14.40625 
Q 8.6875 -14.359375 8.59375 -14.328125 
Q 8.5 -14.3125 8.40625 -14.3125 
z
" id="Cmmi10-79"/>
     </defs>
     <g transform="translate(126.36 19.325)scale(0.16 -0.16)">
      <use transform="translate(0 0.8125)" xlink:href="#Cmmi10-79"/>
     </g>
    </g>
   </g>
   <g id="patch_3">
    <path clip-path="url(#p73561c606f)" d="M 110.888698 203.44855 
Q 113.543876 203.44855 113.962985 203.44855 
" style="fill:none;stroke:#ff0000;stroke-linecap:round;stroke-width:2;"/>
    <path clip-path="url(#p73561c606f)" d="M 103.962985 198.44855 
L 113.962985 203.44855 
L 103.962985 208.44855 
L 103.962985 198.44855 
z
" style="fill:#ff0000;stroke:#ff0000;stroke-linecap:round;stroke-width:2;"/>
   </g>
   <g id="patch_4">
    <path clip-path="url(#p73561c606f)" d="M 140.98071 263.632574 
Q 138.325533 263.632574 137.906423 263.632574 
" style="fill:none;stroke:#ff0000;stroke-linecap:round;stroke-width:2;"/>
    <path clip-path="url(#p73561c606f)" d="M 147.906423 268.632574 
L 137.906423 263.632574 
L 147.906423 258.632574 
L 147.906423 268.632574 
z
" style="fill:#ff0000;stroke:#ff0000;stroke-linecap:round;stroke-width:2;"/>
   </g>
   <g id="line2d_77">
    <path clip-path="url(#p73561c606f)" d="M 165.762367 203.44855 
L 165.762367 61.839083 
L 165.762367 61.839083 
" style="fill:none;stroke:#ff0000;stroke-linecap:square;stroke-width:2;"/>
   </g>
   <g id="line2d_78">
    <path clip-path="url(#p73561c606f)" d="M 50.704675 61.839083 
L 165.762367 61.839083 
L 165.762367 61.839083 
" style="fill:none;stroke:#ff0000;stroke-linecap:square;stroke-width:2;"/>
   </g>
   <g id="line2d_79">
    <path clip-path="url(#p73561c606f)" d="M 50.704675 203.44855 
L 165.762367 203.44855 
L 165.762367 203.44855 
" style="fill:none;stroke:#ff0000;stroke-linecap:square;stroke-width:2;"/>
   </g>
   <g id="line2d_80">
    <path clip-path="url(#p73561c606f)" d="M 50.704675 203.44855 
L 50.704675 61.839083 
L 50.704675 61.839083 
" style="fill:none;stroke:#ff0000;stroke-linecap:square;stroke-width:2;"/>
   </g>
   <g id="line2d_81">
    <path clip-path="url(#p73561c606f)" d="M 183.46355 263.632574 
L 183.46355 224.68997 
L 183.46355 224.68997 
" style="fill:none;stroke:#ff0000;stroke-linecap:square;stroke-width:2;"/>
   </g>
   <g id="line2d_82">
    <path clip-path="url(#p73561c606f)" d="M 68.405858 263.632574 
L 183.46355 263.632574 
L 183.46355 263.632574 
" style="fill:none;stroke:#ff0000;stroke-linecap:square;stroke-width:2;"/>
   </g>
   <g id="line2d_83">
    <path clip-path="url(#p73561c606f)" d="M 68.405858 224.68997 
L 183.46355 224.68997 
L 183.46355 224.68997 
" style="fill:none;stroke:#ff0000;stroke-linecap:square;stroke-width:2;"/>
   </g>
   <g id="line2d_84">
    <path clip-path="url(#p73561c606f)" d="M 68.405858 263.632574 
L 68.405858 224.68997 
L 68.405858 224.68997 
" style="fill:none;stroke:#ff0000;stroke-linecap:square;stroke-width:2;"/>
   </g>
   <g id="patch_5">
    <path d="M 130.36 270.005 
L 130.36 30.685 
" style="fill:none;stroke:#000000;stroke-linecap:square;stroke-linejoin:miter;stroke-width:0.8;"/>
   </g>
   <g id="patch_6">
    <path d="M 10.7 150.345 
L 250.02 150.345 
" style="fill:none;stroke:#000000;stroke-linecap:square;stroke-linejoin:miter;stroke-width:0.8;"/>
   </g>
  </g>
 </g>
 <defs>
  <clipPath id="p73561c606f">
   <rect height="239.32" width="239.32" x="10.7" y="30.685"/>
  </clipPath>
 </defs>
</svg>
