<?xml version="1.0" encoding="utf-8" standalone="no"?>
<!DOCTYPE svg PUBLIC "-//W3C//DTD SVG 1.1//EN"
  "http://www.w3.org/Graphics/SVG/1.1/DTD/svg11.dtd">
<!-- Created with matplotlib (http://matplotlib.org/) -->
<svg height="280.705pt" version="1.1" viewBox="0 0 284.756571 280.705" width="284.756571pt" xmlns="http://www.w3.org/2000/svg" xmlns:xlink="http://www.w3.org/1999/xlink">
 <defs>
  <style type="text/css">
*{stroke-linecap:butt;stroke-linejoin:round;}
  </style>
 </defs>
 <g id="figure_1">
  <g id="patch_1">
   <path d="M 0 280.705 
L 284.756571 280.705 
L 284.756571 0 
L 0 0 
z
" style="fill:#ffffff;"/>
  </g>
  <g id="axes_1">
   <g id="patch_2">
    <path d="M 10.7 270.005 
L 260.276571 270.005 
L 260.276571 30.685 
L 10.7 30.685 
z
" style="fill:#ffffff;"/>
   </g>
   <g id="Quiver_1">
    <path clip-path="url(#p0412c49b8a)" d="M 31.936363 252.752395 
L 20.850829 252.752395 
L 21.349982 254.249854 
L 16.358451 252.253242 
L 21.349982 250.256629 
L 20.850829 251.754089 
L 31.936363 251.754089 
L 31.936363 252.752395 
" style="fill:#0000ff;"/>
    <path clip-path="url(#p0412c49b8a)" d="M 31.936363 238.194075 
L 23.076245 238.194075 
L 23.575398 239.691534 
L 18.583867 237.694922 
L 23.575398 235.698309 
L 23.076245 237.195768 
L 31.936363 237.195768 
L 31.936363 238.194075 
" style="fill:#0000ff;"/>
    <path clip-path="url(#p0412c49b8a)" d="M 31.936363 223.635754 
L 25.301661 223.635754 
L 25.800814 225.133214 
L 20.809283 223.136601 
L 25.800814 221.139989 
L 25.301661 222.637448 
L 31.936363 222.637448 
L 31.936363 223.635754 
" style="fill:#0000ff;"/>
    <path clip-path="url(#p0412c49b8a)" d="M 31.936363 209.077434 
L 27.527077 209.077434 
L 28.02623 210.574894 
L 23.034699 208.578281 
L 28.02623 206.581668 
L 27.527077 208.079128 
L 31.936363 208.079128 
L 31.936363 209.077434 
" style="fill:#0000ff;"/>
    <path clip-path="url(#p0412c49b8a)" d="M 31.936363 194.519114 
L 29.752493 194.519114 
L 30.251646 196.016573 
L 25.260115 194.019961 
L 30.251646 192.023348 
L 29.752493 193.520808 
L 31.936363 193.520808 
L 31.936363 194.519114 
" style="fill:#0000ff;"/>
    <path clip-path="url(#p0412c49b8a)" d="M 31.936363 179.906724 
L 31.491279 179.906724 
L 31.936363 181.241973 
L 27.485531 179.461641 
L 31.936363 177.681308 
L 31.491279 179.016557 
L 31.936363 179.016557 
L 31.936363 179.906724 
" style="fill:#0000ff;"/>
    <path clip-path="url(#p0412c49b8a)" d="M 31.936363 165.125862 
L 31.713821 165.125862 
L 31.936363 165.793487 
L 29.710947 164.90332 
L 31.936363 164.013154 
L 31.713821 164.680779 
L 31.936363 164.680779 
L 31.936363 165.125862 
" style="fill:#0000ff;"/>
    <path clip-path="url(#p0412c49b8a)" d="M 32.435516 150.345 
L 32.185939 149.912721 
L 31.686786 149.912721 
L 31.437209 150.345 
L 31.686786 150.777279 
L 32.185939 150.777279 
L 32.435516 150.345 
L 32.185939 149.912721 
" style="fill:#0000ff;"/>
    <path clip-path="url(#p0412c49b8a)" d="M 31.936363 135.564138 
L 32.158904 135.564138 
L 31.936363 134.896513 
L 34.161779 135.78668 
L 31.936363 136.676846 
L 32.158904 136.009221 
L 31.936363 136.009221 
L 31.936363 135.564138 
" style="fill:#0000ff;"/>
    <path clip-path="url(#p0412c49b8a)" d="M 31.936363 120.783276 
L 32.381446 120.783276 
L 31.936363 119.448027 
L 36.387195 121.228359 
L 31.936363 123.008692 
L 32.381446 121.673443 
L 31.936363 121.673443 
L 31.936363 120.783276 
" style="fill:#0000ff;"/>
    <path clip-path="url(#p0412c49b8a)" d="M 31.936363 106.170886 
L 34.120232 106.170886 
L 33.621079 104.673427 
L 38.612611 106.670039 
L 33.621079 108.666652 
L 34.120232 107.169192 
L 31.936363 107.169192 
L 31.936363 106.170886 
" style="fill:#0000ff;"/>
    <path clip-path="url(#p0412c49b8a)" d="M 31.936363 91.612566 
L 36.345648 91.612566 
L 35.846495 90.115106 
L 40.838027 92.111719 
L 35.846495 94.108332 
L 36.345648 92.610872 
L 31.936363 92.610872 
L 31.936363 91.612566 
" style="fill:#0000ff;"/>
    <path clip-path="url(#p0412c49b8a)" d="M 31.936363 77.054246 
L 38.571064 77.054246 
L 38.071911 75.556786 
L 43.063443 77.553399 
L 38.071911 79.550011 
L 38.571064 78.052552 
L 31.936363 78.052552 
L 31.936363 77.054246 
" style="fill:#0000ff;"/>
    <path clip-path="url(#p0412c49b8a)" d="M 31.936363 62.495925 
L 40.79648 62.495925 
L 40.297327 60.998466 
L 45.288859 62.995078 
L 40.297327 64.991691 
L 40.79648 63.494232 
L 31.936363 63.494232 
L 31.936363 62.495925 
" style="fill:#0000ff;"/>
    <path clip-path="url(#p0412c49b8a)" d="M 31.936363 47.937605 
L 43.021896 47.937605 
L 42.522743 46.440146 
L 47.514274 48.436758 
L 42.522743 50.433371 
L 43.021896 48.935911 
L 31.936363 48.935911 
L 31.936363 47.937605 
" style="fill:#0000ff;"/>
    <path clip-path="url(#p0412c49b8a)" d="M 46.613376 252.747581 
L 35.484517 251.190694 
L 35.771388 252.742868 
L 31.10462 250.073948 
L 36.324638 248.788154 
L 35.62283 250.202016 
L 46.751688 251.758903 
L 46.613376 252.747581 
" style="fill:#0000ff;"/>
    <path clip-path="url(#p0412c49b8a)" d="M 46.602128 238.187556 
L 37.683345 236.7319 
L 37.934768 238.290209 
L 33.330036 235.515628 
L 38.578001 234.34913 
L 37.844154 235.746631 
L 46.762936 237.202287 
L 46.602128 238.187556 
" style="fill:#0000ff;"/>
    <path clip-path="url(#p0412c49b8a)" d="M 46.586593 223.626448 
L 39.868132 222.310604 
L 40.070162 223.876082 
L 35.555452 220.957308 
L 40.837673 219.95731 
L 40.06001 221.330911 
L 46.778471 222.646755 
L 46.586593 223.626448 
" style="fill:#0000ff;"/>
    <path clip-path="url(#p0412c49b8a)" d="M 46.563836 209.063116 
L 42.025687 207.952093 
L 42.154432 209.525294 
L 37.780868 206.398988 
L 43.104005 205.646614 
L 42.26308 206.982423 
L 46.801229 208.093446 
L 46.563836 209.063116 
" style="fill:#0000ff;"/>
    <path clip-path="url(#p0412c49b8a)" d="M 46.52764 194.494473 
L 44.122004 193.709214 
L 44.131839 195.287644 
L 40.006284 191.840667 
L 45.37098 191.491544 
L 44.431789 192.760189 
L 46.837425 193.545448 
L 46.52764 194.494473 
" style="fill:#0000ff;"/>
    <path clip-path="url(#p0412c49b8a)" d="M 46.464603 179.906724 
L 46.01952 179.688794 
L 45.810815 181.241973 
L 42.2317 177.282347 
L 47.554249 177.681308 
L 46.455378 178.798628 
L 46.900462 179.016557 
L 46.464603 179.906724 
" style="fill:#0000ff;"/>
    <path clip-path="url(#p0412c49b8a)" d="M 46.464603 165.125862 
L 46.242061 164.907933 
L 45.810815 165.793487 
L 44.457116 162.724027 
L 47.554249 164.013154 
L 46.67792 164.462849 
L 46.900462 164.680779 
L 46.464603 165.125862 
" style="fill:#0000ff;"/>
    <path clip-path="url(#p0412c49b8a)" d="M 46.464603 150.345 
L 46.464603 150.127071 
L 45.810815 150.345 
L 46.682532 148.165707 
L 47.554249 150.345 
L 46.900462 150.127071 
L 46.900462 150.345 
L 46.464603 150.345 
" style="fill:#0000ff;"/>
    <path clip-path="url(#p0412c49b8a)" d="M 46.464603 135.564138 
L 46.687144 135.346209 
L 45.810815 134.896513 
L 48.907948 133.607386 
L 47.554249 136.676846 
L 47.123003 135.791292 
L 46.900462 136.009221 
L 46.464603 135.564138 
" style="fill:#0000ff;"/>
    <path clip-path="url(#p0412c49b8a)" d="M 46.464603 120.783276 
L 46.909686 120.565347 
L 45.810815 119.448027 
L 51.133364 119.049066 
L 47.554249 123.008692 
L 47.345545 121.455513 
L 46.900462 121.673443 
L 46.464603 120.783276 
" style="fill:#0000ff;"/>
    <path clip-path="url(#p0412c49b8a)" d="M 46.52764 106.195527 
L 48.933275 105.410268 
L 47.994084 104.141623 
L 53.35878 104.490746 
L 49.233226 107.937723 
L 49.24306 106.359293 
L 46.837425 107.144552 
L 46.52764 106.195527 
" style="fill:#0000ff;"/>
    <path clip-path="url(#p0412c49b8a)" d="M 46.563836 91.626884 
L 51.101985 90.515861 
L 50.26106 89.180052 
L 55.584196 89.932426 
L 51.210633 93.058732 
L 51.339378 91.485531 
L 46.801229 92.596554 
L 46.563836 91.626884 
" style="fill:#0000ff;"/>
    <path clip-path="url(#p0412c49b8a)" d="M 46.586593 77.063552 
L 53.305055 75.747709 
L 52.527392 74.374108 
L 57.809612 75.374105 
L 53.294902 78.29288 
L 53.496932 76.727402 
L 46.778471 78.043245 
L 46.586593 77.063552 
" style="fill:#0000ff;"/>
    <path clip-path="url(#p0412c49b8a)" d="M 46.602128 62.502444 
L 55.520911 61.046788 
L 54.787064 59.649287 
L 60.035028 60.815785 
L 55.430297 63.590366 
L 55.681719 62.032057 
L 46.762936 63.487713 
L 46.602128 62.502444 
" style="fill:#0000ff;"/>
    <path clip-path="url(#p0412c49b8a)" d="M 46.613376 47.942419 
L 57.742235 46.385532 
L 57.040427 44.971671 
L 62.260444 46.257465 
L 57.593677 48.926384 
L 57.880547 47.374211 
L 46.751688 48.931097 
L 46.613376 47.942419 
" style="fill:#0000ff;"/>
    <path clip-path="url(#p0412c49b8a)" d="M 61.306677 252.73725 
L 50.084839 249.908088 
L 50.202774 251.482137 
L 45.85079 248.325861 
L 51.178969 247.610072 
L 50.328888 248.940072 
L 61.550726 251.769234 
L 61.306677 252.73725 
" style="fill:#0000ff;"/>
    <path clip-path="url(#p0412c49b8a)" d="M 61.287852 238.17379 
L 52.245173 235.514059 
L 52.301492 237.091515 
L 48.076206 233.767541 
L 53.428292 233.260566 
L 52.526873 234.556322 
L 61.569552 237.216053 
L 61.287852 238.17379 
" style="fill:#0000ff;"/>
    <path clip-path="url(#p0412c49b8a)" d="M 61.262567 223.607296 
L 54.371735 221.175128 
L 54.344025 222.753346 
L 50.301622 219.20922 
L 55.673104 218.987792 
L 54.704005 220.23374 
L 61.594837 222.665907 
L 61.262567 223.607296 
" style="fill:#0000ff;"/>
    <path clip-path="url(#p0412c49b8a)" d="M 61.227216 209.034962 
L 56.435679 206.920953 
L 56.287902 208.492482 
L 52.527038 204.6509 
L 57.899789 204.839036 
L 56.83865 206.007592 
L 61.630188 208.1216 
L 61.227216 209.034962 
" style="fill:#0000ff;"/>
    <path clip-path="url(#p0412c49b8a)" d="M 61.175613 194.450193 
L 58.371455 192.800614 
L 58.042419 194.3444 
L 54.752454 190.09258 
L 60.067132 190.902542 
L 58.877633 191.94015 
L 61.681791 193.589729 
L 61.175613 194.450193 
" style="fill:#0000ff;"/>
    <path clip-path="url(#p0412c49b8a)" d="M 61.098443 179.835917 
L 60.0161 178.880866 
L 59.3996 180.333954 
L 56.97787 175.53426 
L 62.041671 177.339742 
L 60.676618 178.132313 
L 61.758961 179.087364 
L 61.098443 179.835917 
" style="fill:#0000ff;"/>
    <path clip-path="url(#p0412c49b8a)" d="M 61.035964 165.125862 
L 60.813422 164.733124 
L 59.857749 165.793487 
L 59.203286 160.975939 
L 62.999654 164.013154 
L 61.598898 164.288041 
L 61.82144 164.680779 
L 61.035964 165.125862 
" style="fill:#0000ff;"/>
    <path clip-path="url(#p0412c49b8a)" d="M 61.035964 150.345 
L 61.035964 149.952262 
L 59.857749 150.345 
L 61.428702 146.417619 
L 62.999654 150.345 
L 61.82144 149.952262 
L 61.82144 150.345 
L 61.035964 150.345 
" style="fill:#0000ff;"/>
    <path clip-path="url(#p0412c49b8a)" d="M 61.035964 135.564138 
L 61.258505 135.1714 
L 59.857749 134.896513 
L 63.654118 131.859299 
L 62.999654 136.676846 
L 62.043981 135.616483 
L 61.82144 136.009221 
L 61.035964 135.564138 
" style="fill:#0000ff;"/>
    <path clip-path="url(#p0412c49b8a)" d="M 61.098443 120.854083 
L 62.180786 119.899032 
L 60.815733 119.106461 
L 65.879534 117.300979 
L 63.457803 122.100673 
L 62.841303 120.647585 
L 61.758961 121.602636 
L 61.098443 120.854083 
" style="fill:#0000ff;"/>
    <path clip-path="url(#p0412c49b8a)" d="M 61.175613 106.239807 
L 63.979771 104.590228 
L 62.790271 103.552621 
L 68.10495 102.742658 
L 64.814984 106.994478 
L 64.485949 105.450693 
L 61.681791 107.100271 
L 61.175613 106.239807 
" style="fill:#0000ff;"/>
    <path clip-path="url(#p0412c49b8a)" d="M 61.227216 91.655038 
L 66.018753 89.54103 
L 64.957615 88.372473 
L 70.330366 88.184338 
L 66.569501 92.02592 
L 66.421725 90.454391 
L 61.630188 92.5684 
L 61.227216 91.655038 
" style="fill:#0000ff;"/>
    <path clip-path="url(#p0412c49b8a)" d="M 61.262567 77.082704 
L 68.153399 74.650537 
L 67.1843 73.404589 
L 72.555782 73.626018 
L 68.513378 77.170143 
L 68.485668 75.591926 
L 61.594837 78.024093 
L 61.262567 77.082704 
" style="fill:#0000ff;"/>
    <path clip-path="url(#p0412c49b8a)" d="M 61.287852 62.51621 
L 70.33053 59.856479 
L 69.429112 58.560723 
L 74.781198 59.067698 
L 70.555912 62.391672 
L 70.61223 60.814216 
L 61.569552 63.473947 
L 61.287852 62.51621 
" style="fill:#0000ff;"/>
    <path clip-path="url(#p0412c49b8a)" d="M 61.306677 47.95275 
L 72.528516 45.123588 
L 71.678434 43.793588 
L 77.006614 44.509377 
L 72.654629 47.665653 
L 72.772564 46.091605 
L 61.550726 48.920766 
L 61.306677 47.95275 
" style="fill:#0000ff;"/>
    <path clip-path="url(#p0412c49b8a)" d="M 76.025143 252.729409 
L 64.732738 249.178582 
L 64.759722 250.756813 
L 60.596959 247.354864 
L 65.957545 246.947473 
L 65.032194 248.226248 
L 76.324599 251.777074 
L 76.025143 252.729409 
" style="fill:#0000ff;"/>
    <path clip-path="url(#p0412c49b8a)" d="M 76.002959 238.163537 
L 66.868 234.812367 
L 66.820879 236.390124 
L 62.822375 232.796544 
L 68.196175 232.641203 
L 67.211823 233.875136 
L 76.346783 237.226306 
L 76.002959 238.163537 
" style="fill:#0000ff;"/>
    <path clip-path="url(#p0412c49b8a)" d="M 75.973758 223.593446 
L 68.958284 220.505085 
L 68.811791 222.076733 
L 65.047791 218.238223 
L 70.420694 218.421973 
L 69.36051 219.591395 
L 76.375984 222.679756 
L 75.973758 223.593446 
" style="fill:#0000ff;"/>
    <path clip-path="url(#p0412c49b8a)" d="M 75.934227 209.015596 
L 70.968397 206.283015 
L 70.683779 207.835604 
L 67.273207 203.679903 
L 72.608932 204.337085 
L 71.449685 205.408386 
L 76.415515 208.140966 
L 75.934227 209.015596 
" style="fill:#0000ff;"/>
    <path clip-path="url(#p0412c49b8a)" d="M 75.879594 194.42241 
L 72.825385 192.18153 
L 72.342001 193.684154 
L 69.498623 189.121583 
L 74.704221 190.464563 
L 73.41594 191.376632 
L 76.470149 193.617512 
L 75.879594 194.42241 
" style="fill:#0000ff;"/>
    <path clip-path="url(#p0412c49b8a)" d="M 75.805444 179.797315 
L 74.37568 178.223784 
L 73.603072 179.600234 
L 71.724039 174.563263 
L 76.558492 176.91484 
L 75.114535 177.552435 
L 76.544299 179.125966 
L 75.805444 179.797315 
" style="fill:#0000ff;"/>
    <path clip-path="url(#p0412c49b8a)" d="M 75.72042 165.109785 
L 75.353189 164.30147 
L 74.196299 165.375316 
L 73.949455 160.004942 
L 77.831911 163.723597 
L 76.262091 163.88854 
L 76.629323 164.696855 
L 75.72042 165.109785 
" style="fill:#0000ff;"/>
    <path clip-path="url(#p0412c49b8a)" d="M 75.685033 150.345 
L 75.685033 149.855162 
L 74.21552 150.345 
L 76.174871 145.446622 
L 78.134222 150.345 
L 76.664709 149.855162 
L 76.664709 150.345 
L 75.685033 150.345 
" style="fill:#0000ff;"/>
    <path clip-path="url(#p0412c49b8a)" d="M 75.72042 135.580215 
L 76.087651 134.7719 
L 74.517832 134.606956 
L 78.400287 130.888302 
L 78.153443 136.258676 
L 76.996554 135.184829 
L 76.629323 135.993145 
L 75.72042 135.580215 
" style="fill:#0000ff;"/>
    <path clip-path="url(#p0412c49b8a)" d="M 75.805444 120.892685 
L 77.235207 119.319154 
L 75.791251 118.681559 
L 80.625703 116.329982 
L 78.74667 121.366953 
L 77.974062 119.990503 
L 76.544299 121.564034 
L 75.805444 120.892685 
" style="fill:#0000ff;"/>
    <path clip-path="url(#p0412c49b8a)" d="M 75.879594 106.26759 
L 78.933803 104.026711 
L 77.645521 103.114642 
L 82.851119 101.771661 
L 80.007742 106.334232 
L 79.524358 104.831608 
L 76.470149 107.072488 
L 75.879594 106.26759 
" style="fill:#0000ff;"/>
    <path clip-path="url(#p0412c49b8a)" d="M 75.934227 91.674404 
L 80.900058 88.941824 
L 79.74081 87.870523 
L 85.076535 87.213341 
L 81.665963 91.369042 
L 81.381346 89.816453 
L 76.415515 92.549034 
L 75.934227 91.674404 
" style="fill:#0000ff;"/>
    <path clip-path="url(#p0412c49b8a)" d="M 75.973758 77.096554 
L 82.989232 74.008192 
L 81.929048 72.83877 
L 87.301951 72.655021 
L 83.537952 76.493531 
L 83.391458 74.921883 
L 76.375984 78.010244 
L 75.973758 77.096554 
" style="fill:#0000ff;"/>
    <path clip-path="url(#p0412c49b8a)" d="M 76.002959 62.526463 
L 85.137919 59.175293 
L 84.153568 57.94136 
L 89.527367 58.096701 
L 85.528864 61.690281 
L 85.481743 60.112524 
L 76.346783 63.463694 
L 76.002959 62.526463 
" style="fill:#0000ff;"/>
    <path clip-path="url(#p0412c49b8a)" d="M 76.025143 47.960591 
L 87.317548 44.409764 
L 86.392197 43.13099 
L 91.752783 43.53838 
L 87.59002 46.940329 
L 87.617004 45.362099 
L 76.324599 48.912926 
L 76.025143 47.960591 
" style="fill:#0000ff;"/>
    <path clip-path="url(#p0412c49b8a)" d="M 90.771263 252.729394 
L 79.478718 249.177232 
L 79.505538 250.755465 
L 75.343129 247.353084 
L 80.703757 246.946251 
L 79.778273 248.224929 
L 91.070818 251.77709 
L 90.771263 252.729394 
" style="fill:#0000ff;"/>
    <path clip-path="url(#p0412c49b8a)" d="M 90.749074 238.163516 
L 81.613932 234.811062 
L 81.566626 236.388814 
L 77.568545 232.794764 
L 82.942362 232.640054 
L 81.957866 233.873872 
L 91.093008 237.226327 
L 90.749074 238.163516 
" style="fill:#0000ff;"/>
    <path clip-path="url(#p0412c49b8a)" d="M 90.719867 223.593419 
L 83.70415 220.503829 
L 83.557446 222.075458 
L 79.793961 218.236443 
L 85.166839 218.420912 
L 84.106498 219.590193 
L 91.122215 222.679783 
L 90.719867 223.593419 
" style="fill:#0000ff;"/>
    <path clip-path="url(#p0412c49b8a)" d="M 90.68033 209.015559 
L 85.714167 206.281802 
L 85.429311 207.834347 
L 82.019377 203.678123 
L 87.355001 204.336124 
L 86.195589 205.407247 
L 91.161752 208.141003 
L 90.68033 209.015559 
" style="fill:#0000ff;"/>
    <path clip-path="url(#p0412c49b8a)" d="M 90.625694 194.422358 
L 87.571024 192.180326 
L 87.08738 193.682866 
L 84.244793 189.119803 
L 89.450158 190.463685 
L 88.161719 191.375531 
L 91.216388 193.617563 
L 90.625694 194.422358 
" style="fill:#0000ff;"/>
    <path clip-path="url(#p0412c49b8a)" d="M 90.551553 179.797248 
L 89.121188 178.222483 
L 88.348331 179.598794 
L 86.470209 174.561483 
L 91.304236 176.913934 
L 89.860164 177.551268 
L 91.290529 179.126033 
L 90.551553 179.797248 
" style="fill:#0000ff;"/>
    <path clip-path="url(#p0412c49b8a)" d="M 90.466561 165.109723 
L 90.09877 164.299882 
L 88.941734 165.37357 
L 88.695625 160.003162 
L 92.577571 163.722348 
L 91.00773 163.887076 
L 91.37552 164.696917 
L 90.466561 165.109723 
" style="fill:#0000ff;"/>
    <path clip-path="url(#p0412c49b8a)" d="M 90.431025 150.345 
L 90.431025 149.854984 
L 88.960978 150.345 
L 90.921041 145.444842 
L 92.881104 150.345 
L 91.411057 149.854984 
L 91.411057 150.345 
L 90.431025 150.345 
" style="fill:#0000ff;"/>
    <path clip-path="url(#p0412c49b8a)" d="M 90.466561 135.580277 
L 90.834352 134.770436 
L 89.26451 134.605707 
L 93.146457 130.886522 
L 92.900347 136.256929 
L 91.743311 135.183241 
L 91.37552 135.993083 
L 90.466561 135.580277 
" style="fill:#0000ff;"/>
    <path clip-path="url(#p0412c49b8a)" d="M 90.551553 120.892752 
L 91.981917 119.317987 
L 90.537845 118.680653 
L 95.371873 116.328202 
L 93.493751 121.365513 
L 92.720894 119.989202 
L 91.290529 121.563967 
L 90.551553 120.892752 
" style="fill:#0000ff;"/>
    <path clip-path="url(#p0412c49b8a)" d="M 90.625694 106.267642 
L 93.680363 104.025609 
L 92.391924 103.113764 
L 97.597289 101.769881 
L 94.754702 106.332945 
L 94.271058 104.830405 
L 91.216388 107.072437 
L 90.625694 106.267642 
" style="fill:#0000ff;"/>
    <path clip-path="url(#p0412c49b8a)" d="M 90.68033 91.674441 
L 95.646492 88.940685 
L 94.487081 87.869562 
L 99.822705 87.211561 
L 96.412771 91.367785 
L 96.127915 89.81524 
L 91.161752 92.548997 
L 90.68033 91.674441 
" style="fill:#0000ff;"/>
    <path clip-path="url(#p0412c49b8a)" d="M 90.719867 77.096581 
L 97.735583 74.00699 
L 96.675243 72.83771 
L 102.048121 72.653241 
L 98.284636 76.492255 
L 98.137932 74.920626 
L 91.122215 78.010217 
L 90.719867 77.096581 
" style="fill:#0000ff;"/>
    <path clip-path="url(#p0412c49b8a)" d="M 90.749074 62.526484 
L 99.884215 59.174029 
L 98.899719 57.940211 
L 104.273537 58.094921 
L 100.275456 61.688971 
L 100.228149 60.111219 
L 91.093008 63.463673 
L 90.749074 62.526484 
" style="fill:#0000ff;"/>
    <path clip-path="url(#p0412c49b8a)" d="M 90.771263 47.960606 
L 102.063809 44.408445 
L 101.138324 43.129767 
L 106.498953 43.5366 
L 102.336544 46.938982 
L 102.363363 45.360749 
L 91.070818 48.91291 
L 90.771263 47.960606 
" style="fill:#0000ff;"/>
    <path clip-path="url(#p0412c49b8a)" d="M 105.54504 252.737213 
L 94.322871 249.904375 
L 94.440333 251.478459 
L 90.089299 248.320873 
L 95.417693 247.606688 
L 94.567211 248.936432 
L 105.78938 251.76927 
L 105.54504 252.737213 
" style="fill:#0000ff;"/>
    <path clip-path="url(#p0412c49b8a)" d="M 105.526196 238.173742 
L 96.483081 235.510505 
L 96.538857 237.08798 
L 92.314714 233.762553 
L 97.666975 233.257419 
L 96.76511 234.552864 
L 105.808225 237.216101 
L 105.526196 238.173742 
" style="fill:#0000ff;"/>
    <path clip-path="url(#p0412c49b8a)" d="M 105.500888 223.607229 
L 98.60946 221.171762 
L 98.581121 222.749969 
L 94.54013 219.204232 
L 99.9117 218.984945 
L 98.942105 220.230506 
L 105.833533 222.665973 
L 105.500888 223.607229 
" style="fill:#0000ff;"/>
    <path clip-path="url(#p0412c49b8a)" d="M 105.46551 209.034867 
L 100.673122 206.917798 
L 100.524609 208.489257 
L 96.765546 204.645912 
L 102.138209 204.836567 
L 101.076522 206.004626 
L 105.86891 208.121695 
L 105.46551 209.034867 
" style="fill:#0000ff;"/>
    <path clip-path="url(#p0412c49b8a)" d="M 105.413883 194.450052 
L 102.60846 192.797634 
L 102.278568 194.341237 
L 98.990962 190.087592 
L 104.305191 190.900503 
L 103.115116 191.93745 
L 105.920538 193.589869 
L 105.413883 194.450052 
" style="fill:#0000ff;"/>
    <path clip-path="url(#p0412c49b8a)" d="M 105.336716 179.835709 
L 104.252501 178.877791 
L 103.635086 180.330491 
L 101.216378 175.529272 
L 106.279042 177.337942 
L 104.91349 178.129653 
L 105.997705 179.087572 
L 105.336716 179.835709 
" style="fill:#0000ff;"/>
    <path clip-path="url(#p0412c49b8a)" d="M 105.273973 165.125862 
L 105.051432 164.732625 
L 104.094263 165.793487 
L 103.441794 160.970951 
L 107.240158 164.013154 
L 105.837906 164.287542 
L 106.060447 164.680779 
L 105.273973 165.125862 
" style="fill:#0000ff;"/>
    <path clip-path="url(#p0412c49b8a)" d="M 105.273973 150.345 
L 105.273973 149.951763 
L 104.094263 150.345 
L 105.66721 146.412631 
L 107.240158 150.345 
L 106.060447 149.951763 
L 106.060447 150.345 
L 105.273973 150.345 
" style="fill:#0000ff;"/>
    <path clip-path="url(#p0412c49b8a)" d="M 105.273973 135.564138 
L 105.496515 135.170901 
L 104.094263 134.896513 
L 107.892626 131.854311 
L 107.240158 136.676846 
L 106.282989 135.615984 
L 106.060447 136.009221 
L 105.273973 135.564138 
" style="fill:#0000ff;"/>
    <path clip-path="url(#p0412c49b8a)" d="M 105.336716 120.854291 
L 106.420931 119.896372 
L 105.055379 119.104661 
L 110.118042 117.295991 
L 107.699335 122.09721 
L 107.08192 120.64451 
L 105.997705 121.602428 
L 105.336716 120.854291 
" style="fill:#0000ff;"/>
    <path clip-path="url(#p0412c49b8a)" d="M 105.413883 106.239948 
L 108.219305 104.587529 
L 107.02923 103.550582 
L 112.343458 102.73767 
L 109.055852 106.991315 
L 108.725961 105.447712 
L 105.920538 107.100131 
L 105.413883 106.239948 
" style="fill:#0000ff;"/>
    <path clip-path="url(#p0412c49b8a)" d="M 105.46551 91.655133 
L 110.257898 89.538064 
L 109.196212 88.370005 
L 114.568874 88.17935 
L 110.809812 92.022695 
L 110.661298 90.451236 
L 105.86891 92.568305 
L 105.46551 91.655133 
" style="fill:#0000ff;"/>
    <path clip-path="url(#p0412c49b8a)" d="M 105.500888 77.082771 
L 112.392316 74.647304 
L 111.422721 73.401742 
L 116.79429 73.62103 
L 112.7533 77.166766 
L 112.724961 75.58856 
L 105.833533 78.024027 
L 105.500888 77.082771 
" style="fill:#0000ff;"/>
    <path clip-path="url(#p0412c49b8a)" d="M 105.526196 62.516258 
L 114.56931 59.853021 
L 113.667446 58.557576 
L 119.019706 59.06271 
L 114.795563 62.388137 
L 114.85134 60.810662 
L 105.808225 63.473899 
L 105.526196 62.516258 
" style="fill:#0000ff;"/>
    <path clip-path="url(#p0412c49b8a)" d="M 105.54504 47.952787 
L 116.767209 45.119948 
L 115.916728 43.790204 
L 121.245122 44.504389 
L 116.894088 47.661976 
L 117.011549 46.087891 
L 105.78938 48.92073 
L 105.54504 47.952787 
" style="fill:#0000ff;"/>
    <path clip-path="url(#p0412c49b8a)" d="M 120.343999 252.74755 
L 109.214858 251.185473 
L 109.501024 252.737777 
L 104.835468 250.06674 
L 110.056068 248.783315 
L 109.353619 250.196857 
L 120.482761 251.758934 
L 120.343999 252.74755 
" style="fill:#0000ff;"/>
    <path clip-path="url(#p0412c49b8a)" d="M 120.332717 238.187514 
L 111.413553 236.72698 
L 111.664156 238.285421 
L 107.060884 235.508419 
L 112.309461 234.344681 
L 111.574879 235.741795 
L 120.494043 237.202329 
L 120.332717 238.187514 
" style="fill:#0000ff;"/>
    <path clip-path="url(#p0412c49b8a)" d="M 120.317135 223.626388 
L 113.598135 222.306086 
L 113.799188 223.87169 
L 109.2863 220.950099 
L 114.569143 219.953397 
L 113.790623 221.326512 
L 120.509624 222.646815 
L 120.317135 223.626388 
" style="fill:#0000ff;"/>
    <path clip-path="url(#p0412c49b8a)" d="M 120.294313 209.063025 
L 115.755347 207.948126 
L 115.88289 209.521425 
L 111.511716 206.391779 
L 116.835426 205.643472 
L 115.993481 206.978638 
L 120.532447 208.093537 
L 120.294313 209.063025 
" style="fill:#0000ff;"/>
    <path clip-path="url(#p0412c49b8a)" d="M 120.258024 194.494322 
L 117.851027 193.706019 
L 117.859322 195.284458 
L 113.737132 191.833459 
L 119.102166 191.489569 
L 118.161738 192.757297 
L 120.568735 193.5456 
L 120.258024 194.494322 
" style="fill:#0000ff;"/>
    <path clip-path="url(#p0412c49b8a)" d="M 120.19473 179.906724 
L 119.749647 179.688073 
L 119.538779 181.241973 
L 115.962548 177.275138 
L 121.287981 177.681308 
L 120.186947 178.797907 
L 120.63203 179.016557 
L 120.19473 179.906724 
" style="fill:#0000ff;"/>
    <path clip-path="url(#p0412c49b8a)" d="M 120.19473 165.125862 
L 119.972188 164.907212 
L 119.538779 165.793487 
L 118.187964 162.716818 
L 121.287981 164.013154 
L 120.409489 164.462128 
L 120.63203 164.680779 
L 120.19473 165.125862 
" style="fill:#0000ff;"/>
    <path clip-path="url(#p0412c49b8a)" d="M 120.19473 150.345 
L 120.19473 150.12635 
L 119.538779 150.345 
L 120.41338 148.158498 
L 121.287981 150.345 
L 120.63203 150.12635 
L 120.63203 150.345 
L 120.19473 150.345 
" style="fill:#0000ff;"/>
    <path clip-path="url(#p0412c49b8a)" d="M 120.19473 135.564138 
L 120.417271 135.345488 
L 119.538779 134.896513 
L 122.638796 133.600178 
L 121.287981 136.676846 
L 120.854572 135.790571 
L 120.63203 136.009221 
L 120.19473 135.564138 
" style="fill:#0000ff;"/>
    <path clip-path="url(#p0412c49b8a)" d="M 120.19473 120.783276 
L 120.639813 120.564626 
L 119.538779 119.448027 
L 124.864212 119.041857 
L 121.287981 123.008692 
L 121.077113 121.454792 
L 120.63203 121.673443 
L 120.19473 120.783276 
" style="fill:#0000ff;"/>
    <path clip-path="url(#p0412c49b8a)" d="M 120.258024 106.195678 
L 122.665022 105.407375 
L 121.724594 104.139647 
L 127.089628 104.483537 
L 122.967438 107.934537 
L 122.975733 106.356098 
L 120.568735 107.1444 
L 120.258024 106.195678 
" style="fill:#0000ff;"/>
    <path clip-path="url(#p0412c49b8a)" d="M 120.294313 91.626975 
L 124.833279 90.512076 
L 123.991334 89.17691 
L 129.315044 89.925217 
L 124.94387 93.054863 
L 125.071413 91.481564 
L 120.532447 92.596463 
L 120.294313 91.626975 
" style="fill:#0000ff;"/>
    <path clip-path="url(#p0412c49b8a)" d="M 120.317135 77.063612 
L 127.036136 75.74331 
L 126.257617 74.370195 
L 131.54046 75.366897 
L 127.027572 78.288487 
L 127.228625 76.722883 
L 120.509624 78.043185 
L 120.317135 77.063612 
" style="fill:#0000ff;"/>
    <path clip-path="url(#p0412c49b8a)" d="M 120.332717 62.502486 
L 129.251881 61.041952 
L 128.517299 59.644838 
L 133.765876 60.808576 
L 129.162604 63.585578 
L 129.413207 62.027137 
L 120.494043 63.487671 
L 120.332717 62.502486 
" style="fill:#0000ff;"/>
    <path clip-path="url(#p0412c49b8a)" d="M 120.343999 47.94245 
L 131.473141 46.380374 
L 130.770691 44.966831 
L 135.991292 46.250256 
L 131.325736 48.921293 
L 131.611902 47.368989 
L 120.482761 48.931066 
L 120.343999 47.94245 
" style="fill:#0000ff;"/>
    <path clip-path="url(#p0412c49b8a)" d="M 135.159293 252.752395 
L 124.073759 252.7467 
L 124.572143 254.244415 
L 119.581638 252.245238 
L 124.574194 250.251191 
L 124.074272 251.748393 
L 135.159806 251.754089 
L 135.159293 252.752395 
" style="fill:#0000ff;"/>
    <path clip-path="url(#p0412c49b8a)" d="M 135.15925 238.194075 
L 126.299132 238.188764 
L 126.797387 239.686522 
L 121.807054 237.686918 
L 126.799781 235.693298 
L 126.29973 237.190458 
L 135.159849 237.195768 
L 135.15925 238.194075 
" style="fill:#0000ff;"/>
    <path clip-path="url(#p0412c49b8a)" d="M 135.15919 223.635754 
L 128.524488 223.630982 
L 129.022564 225.1288 
L 124.03247 223.128598 
L 129.025436 221.135576 
L 128.525206 222.632676 
L 135.159908 222.637448 
L 135.15919 223.635754 
" style="fill:#0000ff;"/>
    <path clip-path="url(#p0412c49b8a)" d="M 135.159101 209.077434 
L 130.749813 209.07347 
L 131.24762 210.571377 
L 126.257886 208.570278 
L 131.25121 206.578154 
L 130.750711 208.075164 
L 135.159998 208.079128 
L 135.159101 209.077434 
" style="fill:#0000ff;"/>
    <path clip-path="url(#p0412c49b8a)" d="M 135.158951 194.519114 
L 132.975078 194.516496 
L 133.472436 196.014552 
L 128.483302 194.011957 
L 133.477223 192.02133 
L 132.976275 193.51819 
L 135.160148 193.520808 
L 135.158951 194.519114 
" style="fill:#0000ff;"/>
    <path clip-path="url(#p0412c49b8a)" d="M 135.158749 179.906724 
L 134.713666 179.905923 
L 135.156348 181.241973 
L 130.708717 179.453637 
L 135.162751 177.681308 
L 134.715267 179.015757 
L 135.16035 179.016557 
L 135.158749 179.906724 
" style="fill:#0000ff;"/>
    <path clip-path="url(#p0412c49b8a)" d="M 135.158749 165.125862 
L 134.936208 165.125062 
L 135.156348 165.793487 
L 132.934133 164.895317 
L 135.162751 164.013154 
L 134.937808 164.679978 
L 135.16035 164.680779 
L 135.158749 165.125862 
" style="fill:#0000ff;"/>
    <path clip-path="url(#p0412c49b8a)" d="M 135.159549 149.845847 
L 134.72727 150.095423 
L 134.72727 150.594577 
L 135.159549 150.844153 
L 135.591829 150.594577 
L 135.591829 150.095423 
L 135.159549 149.845847 
L 134.72727 150.095423 
" style="fill:#0000ff;"/>
    <path clip-path="url(#p0412c49b8a)" d="M 135.158749 135.564138 
L 135.381291 135.563338 
L 135.156348 134.896513 
L 137.384965 135.778676 
L 135.162751 136.676846 
L 135.382891 136.008421 
L 135.16035 136.009221 
L 135.158749 135.564138 
" style="fill:#0000ff;"/>
    <path clip-path="url(#p0412c49b8a)" d="M 135.158749 120.783276 
L 135.603832 120.782476 
L 135.156348 119.448027 
L 139.610381 121.220356 
L 135.162751 123.008692 
L 135.605433 121.672642 
L 135.16035 121.673443 
L 135.158749 120.783276 
" style="fill:#0000ff;"/>
    <path clip-path="url(#p0412c49b8a)" d="M 135.158951 106.170886 
L 137.342824 106.168268 
L 136.841876 104.671409 
L 141.835797 106.662036 
L 136.846663 108.664631 
L 137.344021 107.166574 
L 135.160148 107.169192 
L 135.158951 106.170886 
" style="fill:#0000ff;"/>
    <path clip-path="url(#p0412c49b8a)" d="M 135.159101 91.612566 
L 139.568388 91.608602 
L 139.067889 90.111592 
L 144.061213 92.103716 
L 139.071479 94.104815 
L 139.569286 92.606908 
L 135.159998 92.610872 
L 135.159101 91.612566 
" style="fill:#0000ff;"/>
    <path clip-path="url(#p0412c49b8a)" d="M 135.15919 77.054246 
L 141.793893 77.049474 
L 141.293663 75.552374 
L 146.286629 77.545395 
L 141.296535 79.545598 
L 141.794611 78.04778 
L 135.159908 78.052552 
L 135.15919 77.054246 
" style="fill:#0000ff;"/>
    <path clip-path="url(#p0412c49b8a)" d="M 135.15925 62.495925 
L 144.019369 62.490615 
L 143.519318 60.993455 
L 148.512045 62.987075 
L 143.521712 64.986679 
L 144.019967 63.488921 
L 135.159849 63.494232 
L 135.15925 62.495925 
" style="fill:#0000ff;"/>
    <path clip-path="url(#p0412c49b8a)" d="M 135.159293 47.937605 
L 146.244827 47.93191 
L 145.744905 46.434707 
L 150.737461 48.428755 
L 145.746956 50.427932 
L 146.24534 48.930216 
L 135.159806 48.935911 
L 135.159293 47.937605 
" style="fill:#0000ff;"/>
    <path clip-path="url(#p0412c49b8a)" d="M 149.974651 252.747612 
L 138.846074 254.299306 
L 139.54724 255.713486 
L 134.327807 254.425321 
L 138.995786 251.758521 
L 138.708211 253.310565 
L 149.836787 251.758871 
L 149.974651 252.747612 
" style="fill:#0000ff;"/>
    <path clip-path="url(#p0412c49b8a)" d="M 149.985864 238.187599 
L 141.067461 239.638374 
L 141.800573 241.03626 
L 136.553223 239.867001 
L 141.159414 237.094844 
L 140.907172 238.65302 
L 149.825574 237.202244 
L 149.985864 238.187599 
" style="fill:#0000ff;"/>
    <path clip-path="url(#p0412c49b8a)" d="M 150.001352 223.626508 
L 143.283429 224.93789 
L 144.060234 226.311976 
L 138.778639 225.30868 
L 143.295171 222.392726 
L 143.092163 223.958078 
L 149.810086 222.646695 
L 150.001352 223.626508 
" style="fill:#0000ff;"/>
    <path clip-path="url(#p0412c49b8a)" d="M 150.024045 209.063207 
L 145.486712 210.170353 
L 146.326615 211.506804 
L 141.004055 210.75036 
L 145.380008 207.627399 
L 145.25006 209.200502 
L 149.787393 208.093355 
L 150.024045 209.063207 
" style="fill:#0000ff;"/>
    <path clip-path="url(#p0412c49b8a)" d="M 150.060148 194.494624 
L 147.655872 195.276842 
L 148.593823 196.546403 
L 143.229471 196.19204 
L 147.358391 192.749095 
L 147.347014 194.327514 
L 149.75129 193.545297 
L 150.060148 194.494624 
" style="fill:#0000ff;"/>
    <path clip-path="url(#p0412c49b8a)" d="M 150.122927 179.906724 
L 149.677844 180.123932 
L 150.774551 181.241973 
L 145.454887 181.63372 
L 149.036887 177.681308 
L 149.243428 179.233765 
L 149.688511 179.016557 
L 150.122927 179.906724 
" style="fill:#0000ff;"/>
    <path clip-path="url(#p0412c49b8a)" d="M 150.122927 165.125862 
L 149.900385 165.34307 
L 150.774551 165.793487 
L 147.680303 167.075399 
L 149.036887 164.013154 
L 149.465969 164.897987 
L 149.688511 164.680779 
L 150.122927 165.125862 
" style="fill:#0000ff;"/>
    <path clip-path="url(#p0412c49b8a)" d="M 150.122927 150.345 
L 150.122927 150.562208 
L 150.774551 150.345 
L 149.905719 152.517079 
L 149.036887 150.345 
L 149.688511 150.562208 
L 149.688511 150.345 
L 150.122927 150.345 
" style="fill:#0000ff;"/>
    <path clip-path="url(#p0412c49b8a)" d="M 150.122927 135.564138 
L 150.345468 135.781346 
L 150.774551 134.896513 
L 152.131135 137.958759 
L 149.036887 136.676846 
L 149.911053 136.226429 
L 149.688511 136.009221 
L 150.122927 135.564138 
" style="fill:#0000ff;"/>
    <path clip-path="url(#p0412c49b8a)" d="M 150.122927 120.783276 
L 150.56801 121.000484 
L 150.774551 119.448027 
L 154.356551 123.400438 
L 149.036887 123.008692 
L 150.133594 121.890651 
L 149.688511 121.673443 
L 150.122927 120.783276 
" style="fill:#0000ff;"/>
    <path clip-path="url(#p0412c49b8a)" d="M 150.060148 106.195376 
L 152.464424 106.977593 
L 152.453047 105.399173 
L 156.581967 108.842118 
L 151.217615 109.196482 
L 152.155566 107.92692 
L 149.75129 107.144703 
L 150.060148 106.195376 
" style="fill:#0000ff;"/>
    <path clip-path="url(#p0412c49b8a)" d="M 150.024045 91.626793 
L 154.561378 92.73394 
L 154.43143 91.160837 
L 158.807383 94.283798 
L 153.484823 95.040242 
L 154.324726 93.703791 
L 149.787393 92.596645 
L 150.024045 91.626793 
" style="fill:#0000ff;"/>
    <path clip-path="url(#p0412c49b8a)" d="M 150.001352 77.063492 
L 156.719275 78.374875 
L 156.516267 76.809523 
L 161.032799 79.725478 
L 155.751204 80.728774 
L 156.528009 79.354688 
L 149.810086 78.043305 
L 150.001352 77.063492 
" style="fill:#0000ff;"/>
    <path clip-path="url(#p0412c49b8a)" d="M 149.985864 62.502401 
L 158.904266 63.953177 
L 158.652024 62.395001 
L 163.258215 65.167157 
L 158.010865 66.336417 
L 158.743977 64.938531 
L 149.825574 63.487756 
L 149.985864 62.502401 
" style="fill:#0000ff;"/>
    <path clip-path="url(#p0412c49b8a)" d="M 149.974651 47.942388 
L 161.103227 49.494081 
L 160.815652 47.942038 
L 165.483631 50.608837 
L 160.264198 51.897003 
L 160.965364 50.482823 
L 149.836787 48.931129 
L 149.974651 47.942388 
" style="fill:#0000ff;"/>
    <path clip-path="url(#p0412c49b8a)" d="M 164.773767 252.737287 
L 153.55226 255.562765 
L 154.40194 256.893022 
L 149.073977 256.175625 
L 153.426913 253.020662 
L 153.308503 254.594675 
L 164.53001 251.769197 
L 164.773767 252.737287 
" style="fill:#0000ff;"/>
    <path clip-path="url(#p0412c49b8a)" d="M 164.792574 238.173839 
L 155.750332 240.830056 
L 156.651304 242.126123 
L 151.299393 241.617305 
L 155.525823 238.294786 
L 155.468961 239.872222 
L 164.511204 237.216004 
L 164.792574 238.173839 
" style="fill:#0000ff;"/>
    <path clip-path="url(#p0412c49b8a)" d="M 164.817835 223.607362 
L 157.927601 226.036224 
L 158.896202 227.282559 
L 153.524809 227.058984 
L 157.568627 223.516474 
L 157.595707 225.094703 
L 164.485942 222.665841 
L 164.817835 223.607362 
" style="fill:#0000ff;"/>
    <path clip-path="url(#p0412c49b8a)" d="M 164.85316 209.035056 
L 160.062475 211.145999 
L 161.123063 212.315054 
L 155.750225 212.500664 
L 159.512894 208.660851 
L 159.659932 210.232448 
L 164.450617 208.121506 
L 164.85316 209.035056 
" style="fill:#0000ff;"/>
    <path clip-path="url(#p0412c49b8a)" d="M 164.904738 194.450334 
L 162.101847 196.097069 
L 163.290769 197.135338 
L 157.975641 197.942344 
L 161.267971 193.692355 
L 161.596147 195.236323 
L 164.399039 193.589588 
L 164.904738 194.450334 
" style="fill:#0000ff;"/>
    <path clip-path="url(#p0412c49b8a)" d="M 164.981911 179.836126 
L 163.901445 180.788307 
L 165.265997 181.58174 
L 160.201057 183.384024 
L 162.625818 178.58586 
L 163.2414 180.039337 
L 164.321866 179.087155 
L 164.981911 179.836126 
" style="fill:#0000ff;"/>
    <path clip-path="url(#p0412c49b8a)" d="M 165.044127 165.125862 
L 164.821585 165.5181 
L 166.220842 165.793487 
L 162.426473 168.825703 
L 163.082935 164.013154 
L 164.037109 165.073017 
L 164.25965 164.680779 
L 165.044127 165.125862 
" style="fill:#0000ff;"/>
    <path clip-path="url(#p0412c49b8a)" d="M 165.044127 150.345 
L 165.044127 150.737238 
L 166.220842 150.345 
L 164.651889 154.267383 
L 163.082935 150.345 
L 164.25965 150.737238 
L 164.25965 150.345 
L 165.044127 150.345 
" style="fill:#0000ff;"/>
    <path clip-path="url(#p0412c49b8a)" d="M 165.044127 135.564138 
L 165.266668 135.956376 
L 166.220842 134.896513 
L 166.877305 139.709063 
L 163.082935 136.676846 
L 164.482192 136.40146 
L 164.25965 136.009221 
L 165.044127 135.564138 
" style="fill:#0000ff;"/>
    <path clip-path="url(#p0412c49b8a)" d="M 164.981911 120.853874 
L 166.062377 121.806056 
L 166.677959 120.352579 
L 169.10272 125.150743 
L 164.03778 123.348459 
L 165.402332 122.555026 
L 164.321866 121.602845 
L 164.981911 120.853874 
" style="fill:#0000ff;"/>
    <path clip-path="url(#p0412c49b8a)" d="M 164.904738 106.239666 
L 167.70763 107.886402 
L 168.035806 106.342433 
L 171.328136 110.592422 
L 166.013008 109.785417 
L 167.20193 108.747148 
L 164.399039 107.100412 
L 164.904738 106.239666 
" style="fill:#0000ff;"/>
    <path clip-path="url(#p0412c49b8a)" d="M 164.85316 91.654944 
L 169.643845 93.765886 
L 169.790883 92.194289 
L 173.553552 96.034102 
L 168.180714 95.848492 
L 169.241303 94.679437 
L 164.450617 92.568494 
L 164.85316 91.654944 
" style="fill:#0000ff;"/>
    <path clip-path="url(#p0412c49b8a)" d="M 164.817835 77.082638 
L 171.70807 79.5115 
L 171.73515 77.933272 
L 175.778968 81.475782 
L 170.407575 81.699356 
L 171.376176 80.453021 
L 164.485942 78.024159 
L 164.817835 77.082638 
" style="fill:#0000ff;"/>
    <path clip-path="url(#p0412c49b8a)" d="M 164.792574 62.516161 
L 173.834816 65.172379 
L 173.777954 63.594943 
L 178.004384 66.917462 
L 172.652473 67.42628 
L 173.553446 66.130213 
L 164.511204 63.473996 
L 164.792574 62.516161 
" style="fill:#0000ff;"/>
    <path clip-path="url(#p0412c49b8a)" d="M 164.773767 47.952713 
L 175.995274 50.778191 
L 175.876864 49.204178 
L 180.2298 52.359141 
L 174.901837 53.076538 
L 175.751517 51.746281 
L 164.53001 48.920803 
L 164.773767 47.952713 
" style="fill:#0000ff;"/>
    <path clip-path="url(#p0412c49b8a)" d="M 179.547736 252.729425 
L 168.255472 256.278908 
L 169.180689 257.557779 
L 163.820146 257.149827 
L 167.983265 253.748314 
L 167.956116 255.326542 
L 179.24838 251.777059 
L 179.547736 252.729425 
" style="fill:#0000ff;"/>
    <path clip-path="url(#p0412c49b8a)" d="M 179.569915 238.163557 
L 170.435138 241.513434 
L 171.419343 242.747484 
L 166.045562 242.591507 
L 170.044491 238.9984 
L 170.091425 240.576163 
L 179.226202 237.226286 
L 179.569915 238.163557 
" style="fill:#0000ff;"/>
    <path clip-path="url(#p0412c49b8a)" d="M 179.599109 223.593473 
L 172.58388 226.680597 
L 173.643906 227.850163 
L 168.270978 228.033187 
L 172.035495 224.195185 
L 172.181777 225.766853 
L 179.197007 222.679729 
L 179.599109 223.593473 
" style="fill:#0000ff;"/>
    <path clip-path="url(#p0412c49b8a)" d="M 179.638635 209.015633 
L 174.673139 211.74703 
L 175.832221 212.818509 
L 170.496394 213.474866 
L 173.907608 209.319693 
L 174.191986 210.872326 
L 179.157482 208.140929 
L 179.638635 209.015633 
" style="fill:#0000ff;"/>
    <path clip-path="url(#p0412c49b8a)" d="M 179.693265 194.422461 
L 176.63952 196.662181 
L 177.927643 197.574474 
L 172.72181 198.916546 
L 175.565984 194.354472 
L 176.049106 195.85718 
L 179.102851 193.61746 
L 179.693265 194.422461 
" style="fill:#0000ff;"/>
    <path clip-path="url(#p0412c49b8a)" d="M 179.767424 179.797382 
L 178.338267 181.369671 
L 179.782107 182.007529 
L 174.947226 184.358226 
L 176.827177 179.321597 
L 177.599534 180.698188 
L 179.028692 179.125899 
L 179.767424 179.797382 
" style="fill:#0000ff;"/>
    <path clip-path="url(#p0412c49b8a)" d="M 179.852481 165.109848 
L 179.485813 165.916627 
L 181.05561 166.081787 
L 177.172642 169.799906 
L 177.420226 164.429566 
L 178.576968 165.503572 
L 178.943635 164.696793 
L 179.852481 165.109848 
" style="fill:#0000ff;"/>
    <path clip-path="url(#p0412c49b8a)" d="M 179.887717 150.345 
L 179.887717 150.834659 
L 181.356692 150.345 
L 179.398058 155.241585 
L 177.439424 150.345 
L 178.9084 150.834659 
L 178.9084 150.345 
L 179.887717 150.345 
" style="fill:#0000ff;"/>
    <path clip-path="url(#p0412c49b8a)" d="M 179.852481 135.580152 
L 180.219149 136.386931 
L 181.37589 135.312925 
L 181.623474 140.683265 
L 177.740506 136.965146 
L 179.310303 136.799986 
L 178.943635 135.993207 
L 179.852481 135.580152 
" style="fill:#0000ff;"/>
    <path clip-path="url(#p0412c49b8a)" d="M 179.767424 120.892618 
L 181.196582 122.464907 
L 181.968939 121.088316 
L 183.84889 126.124945 
L 179.014009 123.774248 
L 180.45785 123.13639 
L 179.028692 121.564101 
L 179.767424 120.892618 
" style="fill:#0000ff;"/>
    <path clip-path="url(#p0412c49b8a)" d="M 179.693265 106.267539 
L 182.74701 108.507259 
L 183.230132 107.00455 
L 186.074306 111.566625 
L 180.868474 110.224553 
L 182.156596 109.312259 
L 179.102851 107.07254 
L 179.693265 106.267539 
" style="fill:#0000ff;"/>
    <path clip-path="url(#p0412c49b8a)" d="M 179.638635 91.674367 
L 184.60413 94.405764 
L 184.888508 92.853131 
L 188.299722 97.008304 
L 182.963896 96.351947 
L 184.122977 95.280468 
L 179.157482 92.549071 
L 179.638635 91.674367 
" style="fill:#0000ff;"/>
    <path clip-path="url(#p0412c49b8a)" d="M 179.599109 77.096527 
L 186.614339 80.18365 
L 186.760621 78.611982 
L 190.525138 82.449984 
L 185.15221 82.26696 
L 186.212237 81.097395 
L 179.197007 78.010271 
L 179.599109 77.096527 
" style="fill:#0000ff;"/>
    <path clip-path="url(#p0412c49b8a)" d="M 179.569915 62.526443 
L 188.704691 65.87632 
L 188.751625 64.298557 
L 192.750554 67.891664 
L 187.376773 68.047641 
L 188.360978 66.813591 
L 179.226202 63.463714 
L 179.569915 62.526443 
" style="fill:#0000ff;"/>
    <path clip-path="url(#p0412c49b8a)" d="M 179.547736 47.960575 
L 190.84 51.510058 
L 190.812851 49.931831 
L 194.97597 53.333344 
L 189.615427 53.741296 
L 190.540644 52.462424 
L 179.24838 48.912941 
L 179.547736 47.960575 
" style="fill:#0000ff;"/>
    <path clip-path="url(#p0412c49b8a)" d="M 194.294054 252.729378 
L 183.00137 256.282865 
L 183.926986 257.561447 
L 178.566316 257.155167 
L 182.728373 253.752356 
L 182.701717 255.330592 
L 193.994401 251.777105 
L 194.294054 252.729378 
" style="fill:#0000ff;"/>
    <path clip-path="url(#p0412c49b8a)" d="M 194.316249 238.163496 
L 185.180927 241.517227 
L 186.165567 242.750929 
L 180.791732 242.596847 
L 184.789394 239.002331 
L 184.836884 240.580077 
L 193.972206 237.226347 
L 194.316249 238.163496 
" style="fill:#0000ff;"/>
    <path clip-path="url(#p0412c49b8a)" d="M 194.345463 223.593393 
L 187.329505 226.684204 
L 188.390001 227.853343 
L 183.017148 228.038527 
L 186.780122 224.199012 
L 186.927035 225.770621 
L 193.942993 222.67981 
L 194.345463 223.593393 
" style="fill:#0000ff;"/>
    <path clip-path="url(#p0412c49b8a)" d="M 194.385006 209.015522 
L 189.418512 211.750447 
L 190.578087 212.821392 
L 185.242564 213.480206 
L 188.651864 209.323463 
L 188.936957 210.875964 
L 193.90345 208.14104 
L 194.385006 209.015522 
" style="fill:#0000ff;"/>
    <path clip-path="url(#p0412c49b8a)" d="M 194.439644 194.422308 
L 191.384517 196.665484 
L 192.673114 197.577108 
L 187.46798 198.921886 
L 190.309781 194.358334 
L 190.793684 195.860791 
L 193.848811 193.617614 
L 194.439644 194.422308 
" style="fill:#0000ff;"/>
    <path clip-path="url(#p0412c49b8a)" d="M 194.513776 179.797182 
L 193.082814 181.373172 
L 194.527001 182.010247 
L 189.693396 184.363566 
L 191.570614 179.325918 
L 192.343718 180.70209 
L 193.774679 179.126099 
L 194.513776 179.797182 
" style="fill:#0000ff;"/>
    <path clip-path="url(#p0412c49b8a)" d="M 194.598735 165.109661 
L 194.230389 165.921018 
L 195.800253 166.085533 
L 191.918812 169.805246 
L 192.164192 164.434805 
L 193.321374 165.508336 
L 193.68972 164.696979 
L 194.598735 165.109661 
" style="fill:#0000ff;"/>
    <path clip-path="url(#p0412c49b8a)" d="M 194.63442 150.345 
L 194.63442 150.835193 
L 196.104998 150.345 
L 194.144228 155.246925 
L 192.183457 150.345 
L 193.654035 150.835193 
L 193.654035 150.345 
L 194.63442 150.345 
" style="fill:#0000ff;"/>
    <path clip-path="url(#p0412c49b8a)" d="M 194.598735 135.580339 
L 194.967082 136.391695 
L 196.124263 135.318164 
L 196.369644 140.688605 
L 192.488202 136.968893 
L 194.058066 136.804377 
L 193.68972 135.993021 
L 194.598735 135.580339 
" style="fill:#0000ff;"/>
    <path clip-path="url(#p0412c49b8a)" d="M 194.513776 120.892818 
L 195.944738 122.468809 
L 196.717842 121.092637 
L 198.59506 126.130285 
L 193.761455 123.776966 
L 195.205641 123.139891 
L 193.774679 121.563901 
L 194.513776 120.892818 
" style="fill:#0000ff;"/>
    <path clip-path="url(#p0412c49b8a)" d="M 194.439644 106.267692 
L 197.494771 108.510869 
L 197.978674 107.008412 
L 200.820476 111.571965 
L 195.615342 110.227187 
L 196.903938 109.315563 
L 193.848811 107.072386 
L 194.439644 106.267692 
" style="fill:#0000ff;"/>
    <path clip-path="url(#p0412c49b8a)" d="M 194.385006 91.674478 
L 199.351499 94.409402 
L 199.636591 92.856901 
L 203.045892 97.013644 
L 197.710368 96.35483 
L 198.869943 95.283885 
L 193.90345 92.54896 
L 194.385006 91.674478 
" style="fill:#0000ff;"/>
    <path clip-path="url(#p0412c49b8a)" d="M 194.345463 77.096607 
L 201.36142 80.187418 
L 201.508334 78.615809 
L 205.271308 82.455324 
L 199.898454 82.27014 
L 200.95895 81.101001 
L 193.942993 78.01019 
L 194.345463 77.096607 
" style="fill:#0000ff;"/>
    <path clip-path="url(#p0412c49b8a)" d="M 194.316249 62.526504 
L 203.451572 65.880234 
L 203.499062 64.302488 
L 207.496723 67.897004 
L 202.122888 68.051086 
L 203.107528 66.817384 
L 193.972206 63.463653 
L 194.316249 62.526504 
" style="fill:#0000ff;"/>
    <path clip-path="url(#p0412c49b8a)" d="M 194.294054 47.960622 
L 205.586739 51.514108 
L 205.560082 49.935872 
L 209.722139 53.338684 
L 204.361469 53.744964 
L 205.287085 52.466381 
L 193.994401 48.912895 
L 194.294054 47.960622 
" style="fill:#0000ff;"/>
    <path clip-path="url(#p0412c49b8a)" d="M 209.012713 252.737176 
L 197.790213 255.573684 
L 198.641094 256.903173 
L 193.312485 256.190588 
L 197.662571 253.031695 
L 197.545582 254.605815 
L 208.768082 251.769307 
L 209.012713 252.737176 
" style="fill:#0000ff;"/>
    <path clip-path="url(#p0412c49b8a)" d="M 209.031576 238.173693 
L 199.988026 240.84043 
L 200.890334 242.135566 
L 195.537901 241.632268 
L 199.760903 238.305392 
L 199.705668 239.882887 
L 208.749218 237.21615 
L 209.031576 238.173693 
" style="fill:#0000ff;"/>
    <path clip-path="url(#p0412c49b8a)" d="M 209.056907 223.607163 
L 202.164883 226.045924 
L 203.134974 227.2911 
L 197.763317 227.073948 
L 201.802897 223.526605 
L 201.831864 225.1048 
L 208.723888 222.666039 
L 209.056907 223.607163 
" style="fill:#0000ff;"/>
    <path clip-path="url(#p0412c49b8a)" d="M 209.092311 209.034773 
L 204.299073 211.154898 
L 205.361306 212.322459 
L 199.988733 212.515628 
L 203.745997 208.670525 
L 203.895246 210.241914 
L 208.688484 208.121789 
L 209.092311 209.034773 
" style="fill:#0000ff;"/>
    <path clip-path="url(#p0412c49b8a)" d="M 209.143963 194.449912 
L 206.337278 196.105167 
L 207.527927 197.141456 
L 202.214149 197.957307 
L 205.499401 193.701844 
L 205.830147 195.245264 
L 208.636831 193.590009 
L 209.143963 194.449912 
" style="fill:#0000ff;"/>
    <path clip-path="url(#p0412c49b8a)" d="M 209.221126 179.835501 
L 208.135043 180.796285 
L 209.501092 181.587139 
L 204.439565 183.398987 
L 206.855258 178.596251 
L 207.473585 180.048563 
L 208.559668 179.08778 
L 209.221126 179.835501 
" style="fill:#0000ff;"/>
    <path clip-path="url(#p0412c49b8a)" d="M 209.284132 165.125862 
L 209.06159 165.519597 
L 210.465336 165.793487 
L 206.664981 168.840667 
L 207.315459 164.013154 
L 208.274121 165.074513 
L 208.496663 164.680779 
L 209.284132 165.125862 
" style="fill:#0000ff;"/>
    <path clip-path="url(#p0412c49b8a)" d="M 209.284132 150.345 
L 209.284132 150.738735 
L 210.465336 150.345 
L 208.890397 154.282347 
L 207.315459 150.345 
L 208.496663 150.738735 
L 208.496663 150.345 
L 209.284132 150.345 
" style="fill:#0000ff;"/>
    <path clip-path="url(#p0412c49b8a)" d="M 209.284132 135.564138 
L 209.506673 135.957873 
L 210.465336 134.896513 
L 211.115813 139.724026 
L 207.315459 136.676846 
L 208.719204 136.402956 
L 208.496663 136.009221 
L 209.284132 135.564138 
" style="fill:#0000ff;"/>
    <path clip-path="url(#p0412c49b8a)" d="M 209.221126 120.854499 
L 210.30721 121.815282 
L 210.925536 120.36297 
L 213.341229 125.165706 
L 208.279702 123.353858 
L 209.645751 122.563004 
L 208.559668 121.60222 
L 209.221126 120.854499 
" style="fill:#0000ff;"/>
    <path clip-path="url(#p0412c49b8a)" d="M 209.143963 106.240088 
L 211.950648 107.895343 
L 212.281394 106.351922 
L 215.566645 110.607386 
L 210.252867 109.791534 
L 211.443516 108.755245 
L 208.636831 107.099991 
L 209.143963 106.240088 
" style="fill:#0000ff;"/>
    <path clip-path="url(#p0412c49b8a)" d="M 209.092311 91.655227 
L 213.885548 93.775352 
L 214.034797 92.203963 
L 217.792061 96.049066 
L 212.419489 95.855897 
L 213.481721 94.688336 
L 208.688484 92.568211 
L 209.092311 91.655227 
" style="fill:#0000ff;"/>
    <path clip-path="url(#p0412c49b8a)" d="M 209.056907 77.082837 
L 215.94893 79.521598 
L 215.977897 77.943403 
L 220.017477 81.490745 
L 214.645821 81.707897 
L 215.615911 80.462721 
L 208.723888 78.023961 
L 209.056907 77.082837 
" style="fill:#0000ff;"/>
    <path clip-path="url(#p0412c49b8a)" d="M 209.031576 62.516307 
L 218.075126 65.183044 
L 218.019891 63.605549 
L 222.242893 66.932425 
L 216.89046 67.435723 
L 217.792768 66.140587 
L 208.749218 63.47385 
L 209.031576 62.516307 
" style="fill:#0000ff;"/>
    <path clip-path="url(#p0412c49b8a)" d="M 209.012713 47.952824 
L 220.235212 50.789331 
L 220.118224 49.215212 
L 224.468309 52.374105 
L 219.1397 53.08669 
L 219.990581 51.757201 
L 208.768082 48.920693 
L 209.012713 47.952824 
" style="fill:#0000ff;"/>
    <path clip-path="url(#p0412c49b8a)" d="M 223.706171 252.747518 
L 212.576746 254.314781 
L 213.279837 255.728005 
L 208.058655 254.446947 
L 212.722999 251.773794 
L 212.437537 253.326228 
L 223.566962 251.758965 
L 223.706171 252.747518 
" style="fill:#0000ff;"/>
    <path clip-path="url(#p0412c49b8a)" d="M 223.717489 238.187472 
L 214.797943 239.65288 
L 215.533259 241.049608 
L 210.284071 239.888627 
L 214.885883 237.109208 
L 214.636099 238.66778 
L 223.555645 237.202372 
L 223.717489 238.187472 
" style="fill:#0000ff;"/>
    <path clip-path="url(#p0412c49b8a)" d="M 223.733116 223.626328 
L 217.013575 224.951086 
L 217.79295 226.323716 
L 212.509487 225.330306 
L 217.020553 222.405904 
L 216.820476 223.971633 
L 223.540017 222.646875 
L 223.733116 223.626328 
" style="fill:#0000ff;"/>
    <path clip-path="url(#p0412c49b8a)" d="M 223.756004 209.062934 
L 219.216218 210.181708 
L 220.059182 211.516231 
L 214.734903 210.771986 
L 219.103687 207.639006 
L 218.977345 209.212402 
L 223.51713 208.093628 
L 223.756004 209.062934 
" style="fill:#0000ff;"/>
    <path clip-path="url(#p0412c49b8a)" d="M 223.792384 194.49417 
L 221.384023 195.285518 
L 222.325685 196.55233 
L 216.960319 196.213666 
L 221.079145 192.758653 
L 221.072388 194.337099 
L 223.480749 193.545751 
L 223.792384 194.49417 
" style="fill:#0000ff;"/>
    <path clip-path="url(#p0412c49b8a)" d="M 223.855937 179.906724 
L 223.410854 180.126094 
L 224.514049 181.241973 
L 219.185735 181.655346 
L 222.759085 177.681308 
L 222.972113 179.235928 
L 223.417196 179.016557 
L 223.855937 179.906724 
" style="fill:#0000ff;"/>
    <path clip-path="url(#p0412c49b8a)" d="M 223.855937 165.125862 
L 223.633396 165.345232 
L 224.514049 165.793487 
L 221.411151 167.097025 
L 222.759085 164.013154 
L 223.194655 164.900149 
L 223.417196 164.680779 
L 223.855937 165.125862 
" style="fill:#0000ff;"/>
    <path clip-path="url(#p0412c49b8a)" d="M 223.855937 150.345 
L 223.855937 150.564371 
L 224.514049 150.345 
L 223.636567 152.538705 
L 222.759085 150.345 
L 223.417196 150.564371 
L 223.417196 150.345 
L 223.855937 150.345 
" style="fill:#0000ff;"/>
    <path clip-path="url(#p0412c49b8a)" d="M 223.855937 135.564138 
L 224.078479 135.783509 
L 224.514049 134.896513 
L 225.861983 137.980385 
L 222.759085 136.676846 
L 223.639738 136.228592 
L 223.417196 136.009221 
L 223.855937 135.564138 
" style="fill:#0000ff;"/>
    <path clip-path="url(#p0412c49b8a)" d="M 223.855937 120.783276 
L 224.30102 121.002647 
L 224.514049 119.448027 
L 228.087399 123.422065 
L 222.759085 123.008692 
L 223.862279 121.892813 
L 223.417196 121.673443 
L 223.855937 120.783276 
" style="fill:#0000ff;"/>
    <path clip-path="url(#p0412c49b8a)" d="M 223.792384 106.19583 
L 226.200745 106.987178 
L 226.193988 105.408731 
L 230.312815 108.863744 
L 224.947448 109.202408 
L 225.889111 107.935597 
L 223.480749 107.144249 
L 223.792384 106.19583 
" style="fill:#0000ff;"/>
    <path clip-path="url(#p0412c49b8a)" d="M 223.756004 91.627066 
L 228.295789 92.74584 
L 228.169446 91.172443 
L 232.538231 94.305424 
L 227.213952 95.049669 
L 228.056915 93.715146 
L 223.51713 92.596372 
L 223.756004 91.627066 
" style="fill:#0000ff;"/>
    <path clip-path="url(#p0412c49b8a)" d="M 223.733116 77.063672 
L 230.452658 78.388431 
L 230.25258 76.822702 
L 234.763647 79.747104 
L 229.480183 80.740514 
L 230.259559 79.367884 
L 223.540017 78.043125 
L 223.733116 77.063672 
" style="fill:#0000ff;"/>
    <path clip-path="url(#p0412c49b8a)" d="M 223.717489 62.502528 
L 232.637034 63.967936 
L 232.38725 62.409365 
L 236.989063 65.188784 
L 231.739875 66.349765 
L 232.475191 64.953036 
L 223.555645 63.487628 
L 223.717489 62.502528 
" style="fill:#0000ff;"/>
    <path clip-path="url(#p0412c49b8a)" d="M 223.706171 47.942482 
L 234.835597 49.509745 
L 234.550135 47.957311 
L 239.214479 50.630463 
L 233.993297 51.911521 
L 234.696387 50.498297 
L 223.566962 48.931035 
L 223.706171 47.942482 
" style="fill:#0000ff;"/>
    <path clip-path="url(#p0412c49b8a)" d="M 238.383249 252.752395 
L 227.297713 252.763785 
L 227.798405 254.260731 
L 222.804824 252.269248 
L 227.794302 250.267508 
L 227.296687 251.765479 
L 238.382223 251.754089 
L 238.383249 252.752395 
" style="fill:#0000ff;"/>
    <path clip-path="url(#p0412c49b8a)" d="M 238.383335 238.194074 
L 229.523214 238.204696 
L 230.024162 239.701556 
L 225.03024 237.710928 
L 230.019375 235.708333 
L 229.522017 237.20639 
L 238.382138 237.195769 
L 238.383335 238.194074 
" style="fill:#0000ff;"/>
    <path clip-path="url(#p0412c49b8a)" d="M 238.383454 223.635754 
L 231.748748 223.645298 
L 232.250055 225.142038 
L 227.255656 223.152608 
L 232.24431 221.148817 
L 231.747312 222.646993 
L 238.382018 222.637449 
L 238.383454 223.635754 
" style="fill:#0000ff;"/>
    <path clip-path="url(#p0412c49b8a)" d="M 238.383634 209.077433 
L 233.974341 209.085362 
L 234.476186 210.581921 
L 229.481072 208.594288 
L 234.469005 206.588703 
L 233.972546 208.087057 
L 238.381839 208.079129 
L 238.383634 209.077433 
" style="fill:#0000ff;"/>
    <path clip-path="url(#p0412c49b8a)" d="M 238.383933 194.519112 
L 236.20005 194.524348 
L 236.702792 196.020607 
L 231.706488 194.035967 
L 236.693218 192.027393 
L 236.197657 193.526045 
L 238.38154 193.520809 
L 238.383933 194.519112 
" style="fill:#0000ff;"/>
    <path clip-path="url(#p0412c49b8a)" d="M 238.384337 179.906724 
L 237.939254 179.908324 
L 238.389139 181.241973 
L 233.931904 179.477647 
L 238.376334 177.681308 
L 237.936052 179.018158 
L 238.381136 179.016557 
L 238.384337 179.906724 
" style="fill:#0000ff;"/>
    <path clip-path="url(#p0412c49b8a)" d="M 238.384337 165.125862 
L 238.161795 165.127463 
L 238.389139 165.793487 
L 236.15732 164.919327 
L 238.376334 164.013154 
L 238.158594 164.682379 
L 238.381136 164.680779 
L 238.384337 165.125862 
" style="fill:#0000ff;"/>
    <path clip-path="url(#p0412c49b8a)" d="M 238.382736 150.844153 
L 238.815016 150.594577 
L 238.815016 150.095423 
L 238.382736 149.845847 
L 237.950457 150.095423 
L 237.950457 150.594577 
L 238.382736 150.844153 
L 238.815016 150.594577 
" style="fill:#0000ff;"/>
    <path clip-path="url(#p0412c49b8a)" d="M 238.384337 135.564138 
L 238.606879 135.565739 
L 238.389139 134.896513 
L 240.608152 135.802686 
L 238.376334 136.676846 
L 238.603677 136.010822 
L 238.381136 136.009221 
L 238.384337 135.564138 
" style="fill:#0000ff;"/>
    <path clip-path="url(#p0412c49b8a)" d="M 238.384337 120.783276 
L 238.82942 120.784877 
L 238.389139 119.448027 
L 242.833568 121.244366 
L 238.376334 123.008692 
L 238.826219 121.675043 
L 238.381136 121.673443 
L 238.384337 120.783276 
" style="fill:#0000ff;"/>
    <path clip-path="url(#p0412c49b8a)" d="M 238.383933 106.170888 
L 240.567816 106.176123 
L 240.072254 104.677472 
L 245.058984 106.686046 
L 240.06268 108.670685 
L 240.565422 107.174427 
L 238.38154 107.169191 
L 238.383933 106.170888 
" style="fill:#0000ff;"/>
    <path clip-path="url(#p0412c49b8a)" d="M 238.383634 91.612567 
L 242.792927 91.620495 
L 242.296467 90.122141 
L 247.2844 92.127726 
L 242.289287 94.115359 
L 242.791132 92.6188 
L 238.381839 92.610871 
L 238.383634 91.612567 
" style="fill:#0000ff;"/>
    <path clip-path="url(#p0412c49b8a)" d="M 238.383454 77.054246 
L 245.018161 77.06379 
L 244.521162 75.565614 
L 249.509816 77.569405 
L 244.515418 79.558835 
L 245.016724 78.062096 
L 238.382018 78.052551 
L 238.383454 77.054246 
" style="fill:#0000ff;"/>
    <path clip-path="url(#p0412c49b8a)" d="M 238.383335 62.495926 
L 247.243455 62.506547 
L 246.746098 61.00849 
L 251.735232 63.011085 
L 246.741311 65.001713 
L 247.242259 63.504853 
L 238.382138 63.494231 
L 238.383335 62.495926 
" style="fill:#0000ff;"/>
    <path clip-path="url(#p0412c49b8a)" d="M 238.383249 47.937605 
L 249.468785 47.948996 
L 248.971171 46.451024 
L 253.960648 48.452765 
L 248.967068 50.444247 
L 249.467759 48.947302 
L 238.382223 48.935911 
L 238.383249 47.937605 
" style="fill:#0000ff;"/>
   </g>
   <g id="matplotlib.axis_1">
    <g id="xtick_1">
     <g id="line2d_1">
      <defs>
       <path d="M 0 0 
L 0 3.5 
" id="m6d297c778c" style="stroke:#000000;stroke-width:0.8;"/>
      </defs>
      <g>
       <use style="stroke:#000000;stroke-width:0.8;" x="31.936363" xlink:href="#m6d297c778c" y="150.345"/>
      </g>
     </g>
    </g>
    <g id="xtick_2">
     <g id="line2d_2">
      <g>
       <use style="stroke:#000000;stroke-width:0.8;" x="64.809989" xlink:href="#m6d297c778c" y="150.345"/>
      </g>
     </g>
     <g id="text_1">
      <!-- 1 -->
      <defs>
       <path d="M 12.40625 8.296875 
L 28.515625 8.296875 
L 28.515625 63.921875 
L 10.984375 60.40625 
L 10.984375 69.390625 
L 28.421875 72.90625 
L 38.28125 72.90625 
L 38.28125 8.296875 
L 54.390625 8.296875 
L 54.390625 0 
L 12.40625 0 
z
" id="DejaVuSans-31"/>
      </defs>
      <g transform="translate(61.628739 164.943438)scale(0.1 -0.1)">
       <use xlink:href="#DejaVuSans-31"/>
      </g>
     </g>
    </g>
    <g id="xtick_3">
     <g id="line2d_3">
      <g>
       <use style="stroke:#000000;stroke-width:0.8;" x="97.683615" xlink:href="#m6d297c778c" y="150.345"/>
      </g>
     </g>
     <g id="text_2">
      <!-- 2 -->
      <defs>
       <path d="M 19.1875 8.296875 
L 53.609375 8.296875 
L 53.609375 0 
L 7.328125 0 
L 7.328125 8.296875 
Q 12.9375 14.109375 22.625 23.890625 
Q 32.328125 33.6875 34.8125 36.53125 
Q 39.546875 41.84375 41.421875 45.53125 
Q 43.3125 49.21875 43.3125 52.78125 
Q 43.3125 58.59375 39.234375 62.25 
Q 35.15625 65.921875 28.609375 65.921875 
Q 23.96875 65.921875 18.8125 64.3125 
Q 13.671875 62.703125 7.8125 59.421875 
L 7.8125 69.390625 
Q 13.765625 71.78125 18.9375 73 
Q 24.125 74.21875 28.421875 74.21875 
Q 39.75 74.21875 46.484375 68.546875 
Q 53.21875 62.890625 53.21875 53.421875 
Q 53.21875 48.921875 51.53125 44.890625 
Q 49.859375 40.875 45.40625 35.40625 
Q 44.1875 33.984375 37.640625 27.21875 
Q 31.109375 20.453125 19.1875 8.296875 
z
" id="DejaVuSans-32"/>
      </defs>
      <g transform="translate(94.502365 164.943438)scale(0.1 -0.1)">
       <use xlink:href="#DejaVuSans-32"/>
      </g>
     </g>
    </g>
    <g id="xtick_4">
     <g id="line2d_4">
      <g>
       <use style="stroke:#000000;stroke-width:0.8;" x="130.557242" xlink:href="#m6d297c778c" y="150.345"/>
      </g>
     </g>
     <g id="text_3">
      <!-- 3 -->
      <defs>
       <path d="M 40.578125 39.3125 
Q 47.65625 37.796875 51.625 33 
Q 55.609375 28.21875 55.609375 21.1875 
Q 55.609375 10.40625 48.1875 4.484375 
Q 40.765625 -1.421875 27.09375 -1.421875 
Q 22.515625 -1.421875 17.65625 -0.515625 
Q 12.796875 0.390625 7.625 2.203125 
L 7.625 11.71875 
Q 11.71875 9.328125 16.59375 8.109375 
Q 21.484375 6.890625 26.8125 6.890625 
Q 36.078125 6.890625 40.9375 10.546875 
Q 45.796875 14.203125 45.796875 21.1875 
Q 45.796875 27.640625 41.28125 31.265625 
Q 36.765625 34.90625 28.71875 34.90625 
L 20.21875 34.90625 
L 20.21875 43.015625 
L 29.109375 43.015625 
Q 36.375 43.015625 40.234375 45.921875 
Q 44.09375 48.828125 44.09375 54.296875 
Q 44.09375 59.90625 40.109375 62.90625 
Q 36.140625 65.921875 28.71875 65.921875 
Q 24.65625 65.921875 20.015625 65.03125 
Q 15.375 64.15625 9.8125 62.3125 
L 9.8125 71.09375 
Q 15.4375 72.65625 20.34375 73.4375 
Q 25.25 74.21875 29.59375 74.21875 
Q 40.828125 74.21875 47.359375 69.109375 
Q 53.90625 64.015625 53.90625 55.328125 
Q 53.90625 49.265625 50.4375 45.09375 
Q 46.96875 40.921875 40.578125 39.3125 
z
" id="DejaVuSans-33"/>
      </defs>
      <g transform="translate(127.375992 164.943438)scale(0.1 -0.1)">
       <use xlink:href="#DejaVuSans-33"/>
      </g>
     </g>
    </g>
    <g id="xtick_5">
     <g id="line2d_5">
      <g>
       <use style="stroke:#000000;stroke-width:0.8;" x="163.430868" xlink:href="#m6d297c778c" y="150.345"/>
      </g>
     </g>
     <g id="text_4">
      <!-- 4 -->
      <defs>
       <path d="M 37.796875 64.3125 
L 12.890625 25.390625 
L 37.796875 25.390625 
z
M 35.203125 72.90625 
L 47.609375 72.90625 
L 47.609375 25.390625 
L 58.015625 25.390625 
L 58.015625 17.1875 
L 47.609375 17.1875 
L 47.609375 0 
L 37.796875 0 
L 37.796875 17.1875 
L 4.890625 17.1875 
L 4.890625 26.703125 
z
" id="DejaVuSans-34"/>
      </defs>
      <g transform="translate(160.249618 164.943438)scale(0.1 -0.1)">
       <use xlink:href="#DejaVuSans-34"/>
      </g>
     </g>
    </g>
    <g id="xtick_6">
     <g id="line2d_6">
      <g>
       <use style="stroke:#000000;stroke-width:0.8;" x="196.304495" xlink:href="#m6d297c778c" y="150.345"/>
      </g>
     </g>
     <g id="text_5">
      <!-- 5 -->
      <defs>
       <path d="M 10.796875 72.90625 
L 49.515625 72.90625 
L 49.515625 64.59375 
L 19.828125 64.59375 
L 19.828125 46.734375 
Q 21.96875 47.46875 24.109375 47.828125 
Q 26.265625 48.1875 28.421875 48.1875 
Q 40.625 48.1875 47.75 41.5 
Q 54.890625 34.8125 54.890625 23.390625 
Q 54.890625 11.625 47.5625 5.09375 
Q 40.234375 -1.421875 26.90625 -1.421875 
Q 22.3125 -1.421875 17.546875 -0.640625 
Q 12.796875 0.140625 7.71875 1.703125 
L 7.71875 11.625 
Q 12.109375 9.234375 16.796875 8.0625 
Q 21.484375 6.890625 26.703125 6.890625 
Q 35.15625 6.890625 40.078125 11.328125 
Q 45.015625 15.765625 45.015625 23.390625 
Q 45.015625 31 40.078125 35.4375 
Q 35.15625 39.890625 26.703125 39.890625 
Q 22.75 39.890625 18.8125 39.015625 
Q 14.890625 38.140625 10.796875 36.28125 
z
" id="DejaVuSans-35"/>
      </defs>
      <g transform="translate(193.123245 164.943438)scale(0.1 -0.1)">
       <use xlink:href="#DejaVuSans-35"/>
      </g>
     </g>
    </g>
    <g id="xtick_7">
     <g id="line2d_7">
      <g>
       <use style="stroke:#000000;stroke-width:0.8;" x="229.178121" xlink:href="#m6d297c778c" y="150.345"/>
      </g>
     </g>
     <g id="text_6">
      <!-- 6 -->
      <defs>
       <path d="M 33.015625 40.375 
Q 26.375 40.375 22.484375 35.828125 
Q 18.609375 31.296875 18.609375 23.390625 
Q 18.609375 15.53125 22.484375 10.953125 
Q 26.375 6.390625 33.015625 6.390625 
Q 39.65625 6.390625 43.53125 10.953125 
Q 47.40625 15.53125 47.40625 23.390625 
Q 47.40625 31.296875 43.53125 35.828125 
Q 39.65625 40.375 33.015625 40.375 
z
M 52.59375 71.296875 
L 52.59375 62.3125 
Q 48.875 64.0625 45.09375 64.984375 
Q 41.3125 65.921875 37.59375 65.921875 
Q 27.828125 65.921875 22.671875 59.328125 
Q 17.53125 52.734375 16.796875 39.40625 
Q 19.671875 43.65625 24.015625 45.921875 
Q 28.375 48.1875 33.59375 48.1875 
Q 44.578125 48.1875 50.953125 41.515625 
Q 57.328125 34.859375 57.328125 23.390625 
Q 57.328125 12.15625 50.6875 5.359375 
Q 44.046875 -1.421875 33.015625 -1.421875 
Q 20.359375 -1.421875 13.671875 8.265625 
Q 6.984375 17.96875 6.984375 36.375 
Q 6.984375 53.65625 15.1875 63.9375 
Q 23.390625 74.21875 37.203125 74.21875 
Q 40.921875 74.21875 44.703125 73.484375 
Q 48.484375 72.75 52.59375 71.296875 
z
" id="DejaVuSans-36"/>
      </defs>
      <g transform="translate(225.996871 164.943438)scale(0.1 -0.1)">
       <use xlink:href="#DejaVuSans-36"/>
      </g>
     </g>
    </g>
    <g id="xtick_8">
     <g id="line2d_8">
      <defs>
       <path d="M 0 0 
L 0 2 
" id="mdeeaa44e90" style="stroke:#000000;stroke-width:0.6;"/>
      </defs>
      <g>
       <use style="stroke:#000000;stroke-width:0.6;" x="12.212187" xlink:href="#mdeeaa44e90" y="150.345"/>
      </g>
     </g>
    </g>
    <g id="xtick_9">
     <g id="line2d_9">
      <g>
       <use style="stroke:#000000;stroke-width:0.6;" x="18.786912" xlink:href="#mdeeaa44e90" y="150.345"/>
      </g>
     </g>
    </g>
    <g id="xtick_10">
     <g id="line2d_10">
      <g>
       <use style="stroke:#000000;stroke-width:0.6;" x="25.361637" xlink:href="#mdeeaa44e90" y="150.345"/>
      </g>
     </g>
    </g>
    <g id="xtick_11">
     <g id="line2d_11">
      <g>
       <use style="stroke:#000000;stroke-width:0.6;" x="38.511088" xlink:href="#mdeeaa44e90" y="150.345"/>
      </g>
     </g>
    </g>
    <g id="xtick_12">
     <g id="line2d_12">
      <g>
       <use style="stroke:#000000;stroke-width:0.6;" x="45.085813" xlink:href="#mdeeaa44e90" y="150.345"/>
      </g>
     </g>
    </g>
    <g id="xtick_13">
     <g id="line2d_13">
      <g>
       <use style="stroke:#000000;stroke-width:0.6;" x="51.660538" xlink:href="#mdeeaa44e90" y="150.345"/>
      </g>
     </g>
    </g>
    <g id="xtick_14">
     <g id="line2d_14">
      <g>
       <use style="stroke:#000000;stroke-width:0.6;" x="58.235264" xlink:href="#mdeeaa44e90" y="150.345"/>
      </g>
     </g>
    </g>
    <g id="xtick_15">
     <g id="line2d_15">
      <g>
       <use style="stroke:#000000;stroke-width:0.6;" x="71.384714" xlink:href="#mdeeaa44e90" y="150.345"/>
      </g>
     </g>
    </g>
    <g id="xtick_16">
     <g id="line2d_16">
      <g>
       <use style="stroke:#000000;stroke-width:0.6;" x="77.95944" xlink:href="#mdeeaa44e90" y="150.345"/>
      </g>
     </g>
    </g>
    <g id="xtick_17">
     <g id="line2d_17">
      <g>
       <use style="stroke:#000000;stroke-width:0.6;" x="84.534165" xlink:href="#mdeeaa44e90" y="150.345"/>
      </g>
     </g>
    </g>
    <g id="xtick_18">
     <g id="line2d_18">
      <g>
       <use style="stroke:#000000;stroke-width:0.6;" x="91.10889" xlink:href="#mdeeaa44e90" y="150.345"/>
      </g>
     </g>
    </g>
    <g id="xtick_19">
     <g id="line2d_19">
      <g>
       <use style="stroke:#000000;stroke-width:0.6;" x="104.258341" xlink:href="#mdeeaa44e90" y="150.345"/>
      </g>
     </g>
    </g>
    <g id="xtick_20">
     <g id="line2d_20">
      <g>
       <use style="stroke:#000000;stroke-width:0.6;" x="110.833066" xlink:href="#mdeeaa44e90" y="150.345"/>
      </g>
     </g>
    </g>
    <g id="xtick_21">
     <g id="line2d_21">
      <g>
       <use style="stroke:#000000;stroke-width:0.6;" x="117.407791" xlink:href="#mdeeaa44e90" y="150.345"/>
      </g>
     </g>
    </g>
    <g id="xtick_22">
     <g id="line2d_22">
      <g>
       <use style="stroke:#000000;stroke-width:0.6;" x="123.982516" xlink:href="#mdeeaa44e90" y="150.345"/>
      </g>
     </g>
    </g>
    <g id="xtick_23">
     <g id="line2d_23">
      <g>
       <use style="stroke:#000000;stroke-width:0.6;" x="137.131967" xlink:href="#mdeeaa44e90" y="150.345"/>
      </g>
     </g>
    </g>
    <g id="xtick_24">
     <g id="line2d_24">
      <g>
       <use style="stroke:#000000;stroke-width:0.6;" x="143.706692" xlink:href="#mdeeaa44e90" y="150.345"/>
      </g>
     </g>
    </g>
    <g id="xtick_25">
     <g id="line2d_25">
      <g>
       <use style="stroke:#000000;stroke-width:0.6;" x="150.281418" xlink:href="#mdeeaa44e90" y="150.345"/>
      </g>
     </g>
    </g>
    <g id="xtick_26">
     <g id="line2d_26">
      <g>
       <use style="stroke:#000000;stroke-width:0.6;" x="156.856143" xlink:href="#mdeeaa44e90" y="150.345"/>
      </g>
     </g>
    </g>
    <g id="xtick_27">
     <g id="line2d_27">
      <g>
       <use style="stroke:#000000;stroke-width:0.6;" x="170.005593" xlink:href="#mdeeaa44e90" y="150.345"/>
      </g>
     </g>
    </g>
    <g id="xtick_28">
     <g id="line2d_28">
      <g>
       <use style="stroke:#000000;stroke-width:0.6;" x="176.580319" xlink:href="#mdeeaa44e90" y="150.345"/>
      </g>
     </g>
    </g>
    <g id="xtick_29">
     <g id="line2d_29">
      <g>
       <use style="stroke:#000000;stroke-width:0.6;" x="183.155044" xlink:href="#mdeeaa44e90" y="150.345"/>
      </g>
     </g>
    </g>
    <g id="xtick_30">
     <g id="line2d_30">
      <g>
       <use style="stroke:#000000;stroke-width:0.6;" x="189.729769" xlink:href="#mdeeaa44e90" y="150.345"/>
      </g>
     </g>
    </g>
    <g id="xtick_31">
     <g id="line2d_31">
      <g>
       <use style="stroke:#000000;stroke-width:0.6;" x="202.87922" xlink:href="#mdeeaa44e90" y="150.345"/>
      </g>
     </g>
    </g>
    <g id="xtick_32">
     <g id="line2d_32">
      <g>
       <use style="stroke:#000000;stroke-width:0.6;" x="209.453945" xlink:href="#mdeeaa44e90" y="150.345"/>
      </g>
     </g>
    </g>
    <g id="xtick_33">
     <g id="line2d_33">
      <g>
       <use style="stroke:#000000;stroke-width:0.6;" x="216.02867" xlink:href="#mdeeaa44e90" y="150.345"/>
      </g>
     </g>
    </g>
    <g id="xtick_34">
     <g id="line2d_34">
      <g>
       <use style="stroke:#000000;stroke-width:0.6;" x="222.603396" xlink:href="#mdeeaa44e90" y="150.345"/>
      </g>
     </g>
    </g>
    <g id="xtick_35">
     <g id="line2d_35">
      <g>
       <use style="stroke:#000000;stroke-width:0.6;" x="235.752846" xlink:href="#mdeeaa44e90" y="150.345"/>
      </g>
     </g>
    </g>
    <g id="xtick_36">
     <g id="line2d_36">
      <g>
       <use style="stroke:#000000;stroke-width:0.6;" x="242.327571" xlink:href="#mdeeaa44e90" y="150.345"/>
      </g>
     </g>
    </g>
    <g id="xtick_37">
     <g id="line2d_37">
      <g>
       <use style="stroke:#000000;stroke-width:0.6;" x="248.902297" xlink:href="#mdeeaa44e90" y="150.345"/>
      </g>
     </g>
    </g>
    <g id="xtick_38">
     <g id="line2d_38">
      <g>
       <use style="stroke:#000000;stroke-width:0.6;" x="255.477022" xlink:href="#mdeeaa44e90" y="150.345"/>
      </g>
     </g>
    </g>
    <g id="text_7">
     <!-- $x$ -->
     <defs>
      <path d="M 7.8125 2.875 
Q 9.578125 1.515625 12.796875 1.515625 
Q 15.921875 1.515625 18.3125 4.515625 
Q 20.703125 7.515625 21.578125 11.078125 
L 26.125 28.8125 
Q 27.203125 33.640625 27.203125 35.40625 
Q 27.203125 37.890625 25.8125 39.75 
Q 24.421875 41.609375 21.921875 41.609375 
Q 18.75 41.609375 15.96875 39.625 
Q 13.1875 37.640625 11.28125 34.59375 
Q 9.375 31.546875 8.59375 28.421875 
Q 8.40625 27.78125 7.8125 27.78125 
L 6.59375 27.78125 
Q 5.8125 27.78125 5.8125 28.71875 
L 5.8125 29 
Q 6.78125 32.71875 9.125 36.25 
Q 11.46875 39.796875 14.859375 41.984375 
Q 18.265625 44.1875 22.125 44.1875 
Q 25.78125 44.1875 28.734375 42.234375 
Q 31.6875 40.28125 32.90625 36.921875 
Q 34.625 39.984375 37.28125 42.078125 
Q 39.9375 44.1875 43.109375 44.1875 
Q 45.265625 44.1875 47.5 43.421875 
Q 49.75 42.671875 51.171875 41.109375 
Q 52.59375 39.546875 52.59375 37.203125 
Q 52.59375 34.671875 50.953125 32.828125 
Q 49.3125 31 46.78125 31 
Q 45.171875 31 44.09375 32.03125 
Q 43.015625 33.0625 43.015625 34.625 
Q 43.015625 36.71875 44.453125 38.296875 
Q 45.90625 39.890625 47.90625 40.1875 
Q 46.09375 41.609375 42.921875 41.609375 
Q 39.703125 41.609375 37.328125 38.625 
Q 34.96875 35.640625 33.984375 31.984375 
L 29.59375 14.3125 
Q 28.515625 10.296875 28.515625 7.71875 
Q 28.515625 5.171875 29.953125 3.34375 
Q 31.390625 1.515625 33.796875 1.515625 
Q 38.484375 1.515625 42.15625 5.640625 
Q 45.84375 9.765625 47.015625 14.703125 
Q 47.21875 15.28125 47.796875 15.28125 
L 49.03125 15.28125 
Q 49.421875 15.28125 49.65625 15.015625 
Q 49.90625 14.75 49.90625 14.40625 
Q 49.90625 14.3125 49.8125 14.109375 
Q 48.390625 8.15625 43.84375 3.515625 
Q 39.3125 -1.125 33.59375 -1.125 
Q 29.9375 -1.125 26.984375 0.84375 
Q 24.03125 2.828125 22.796875 6.203125 
Q 21.234375 3.265625 18.46875 1.0625 
Q 15.71875 -1.125 12.59375 -1.125 
Q 10.453125 -1.125 8.171875 -0.359375 
Q 5.90625 0.390625 4.484375 1.953125 
Q 3.078125 3.515625 3.078125 5.90625 
Q 3.078125 8.25 4.703125 10.171875 
Q 6.34375 12.109375 8.796875 12.109375 
Q 10.453125 12.109375 11.578125 11.109375 
Q 12.703125 10.109375 12.703125 8.5 
Q 12.703125 6.390625 11.296875 4.828125 
Q 9.90625 3.265625 7.8125 2.875 
z
" id="Cmmi10-78"/>
     </defs>
     <g transform="translate(268.276571 150.345)scale(0.16 -0.16)">
      <use transform="translate(0 0.8125)" xlink:href="#Cmmi10-78"/>
     </g>
    </g>
   </g>
   <g id="matplotlib.axis_2">
    <g id="ytick_1">
     <g id="line2d_39">
      <defs>
       <path d="M 0 0 
L -3.5 0 
" id="mbd694c0c1e" style="stroke:#000000;stroke-width:0.8;"/>
      </defs>
      <g>
       <use style="stroke:#000000;stroke-width:0.8;" x="31.936363" xlink:href="#mbd694c0c1e" y="248.965879"/>
      </g>
     </g>
     <g id="text_8">
      <!-- -3 -->
      <defs>
       <path d="M 4.890625 31.390625 
L 31.203125 31.390625 
L 31.203125 23.390625 
L 4.890625 23.390625 
z
" id="DejaVuSans-2d"/>
      </defs>
      <g transform="translate(14.96605 252.765098)scale(0.1 -0.1)">
       <use xlink:href="#DejaVuSans-2d"/>
       <use x="36.083984" xlink:href="#DejaVuSans-33"/>
      </g>
     </g>
    </g>
    <g id="ytick_2">
     <g id="line2d_40">
      <g>
       <use style="stroke:#000000;stroke-width:0.8;" x="31.936363" xlink:href="#mbd694c0c1e" y="216.092253"/>
      </g>
     </g>
     <g id="text_9">
      <!-- -2 -->
      <g transform="translate(14.96605 219.891471)scale(0.1 -0.1)">
       <use xlink:href="#DejaVuSans-2d"/>
       <use x="36.083984" xlink:href="#DejaVuSans-32"/>
      </g>
     </g>
    </g>
    <g id="ytick_3">
     <g id="line2d_41">
      <g>
       <use style="stroke:#000000;stroke-width:0.8;" x="31.936363" xlink:href="#mbd694c0c1e" y="183.218626"/>
      </g>
     </g>
     <g id="text_10">
      <!-- -1 -->
      <g transform="translate(14.96605 187.017845)scale(0.1 -0.1)">
       <use xlink:href="#DejaVuSans-2d"/>
       <use x="36.083984" xlink:href="#DejaVuSans-31"/>
      </g>
     </g>
    </g>
    <g id="ytick_4">
     <g id="line2d_42">
      <g>
       <use style="stroke:#000000;stroke-width:0.8;" x="31.936363" xlink:href="#mbd694c0c1e" y="150.345"/>
      </g>
     </g>
    </g>
    <g id="ytick_5">
     <g id="line2d_43">
      <g>
       <use style="stroke:#000000;stroke-width:0.8;" x="31.936363" xlink:href="#mbd694c0c1e" y="117.471374"/>
      </g>
     </g>
     <g id="text_11">
      <!-- 1 -->
      <g transform="translate(18.573863 121.270592)scale(0.1 -0.1)">
       <use xlink:href="#DejaVuSans-31"/>
      </g>
     </g>
    </g>
    <g id="ytick_6">
     <g id="line2d_44">
      <g>
       <use style="stroke:#000000;stroke-width:0.8;" x="31.936363" xlink:href="#mbd694c0c1e" y="84.597747"/>
      </g>
     </g>
     <g id="text_12">
      <!-- 2 -->
      <g transform="translate(18.573863 88.396966)scale(0.1 -0.1)">
       <use xlink:href="#DejaVuSans-32"/>
      </g>
     </g>
    </g>
    <g id="ytick_7">
     <g id="line2d_45">
      <g>
       <use style="stroke:#000000;stroke-width:0.8;" x="31.936363" xlink:href="#mbd694c0c1e" y="51.724121"/>
      </g>
     </g>
     <g id="text_13">
      <!-- 3 -->
      <g transform="translate(18.573863 55.52334)scale(0.1 -0.1)">
       <use xlink:href="#DejaVuSans-33"/>
      </g>
     </g>
    </g>
    <g id="ytick_8">
     <g id="line2d_46">
      <defs>
       <path d="M 0 0 
L -2 0 
" id="m3e00785cc1" style="stroke:#000000;stroke-width:0.6;"/>
      </defs>
      <g>
       <use style="stroke:#000000;stroke-width:0.6;" x="31.936363" xlink:href="#m3e00785cc1" y="268.690055"/>
      </g>
     </g>
    </g>
    <g id="ytick_9">
     <g id="line2d_47">
      <g>
       <use style="stroke:#000000;stroke-width:0.6;" x="31.936363" xlink:href="#m3e00785cc1" y="262.11533"/>
      </g>
     </g>
    </g>
    <g id="ytick_10">
     <g id="line2d_48">
      <g>
       <use style="stroke:#000000;stroke-width:0.6;" x="31.936363" xlink:href="#m3e00785cc1" y="255.540604"/>
      </g>
     </g>
    </g>
    <g id="ytick_11">
     <g id="line2d_49">
      <g>
       <use style="stroke:#000000;stroke-width:0.6;" x="31.936363" xlink:href="#m3e00785cc1" y="242.391154"/>
      </g>
     </g>
    </g>
    <g id="ytick_12">
     <g id="line2d_50">
      <g>
       <use style="stroke:#000000;stroke-width:0.6;" x="31.936363" xlink:href="#m3e00785cc1" y="235.816429"/>
      </g>
     </g>
    </g>
    <g id="ytick_13">
     <g id="line2d_51">
      <g>
       <use style="stroke:#000000;stroke-width:0.6;" x="31.936363" xlink:href="#m3e00785cc1" y="229.241703"/>
      </g>
     </g>
    </g>
    <g id="ytick_14">
     <g id="line2d_52">
      <g>
       <use style="stroke:#000000;stroke-width:0.6;" x="31.936363" xlink:href="#m3e00785cc1" y="222.666978"/>
      </g>
     </g>
    </g>
    <g id="ytick_15">
     <g id="line2d_53">
      <g>
       <use style="stroke:#000000;stroke-width:0.6;" x="31.936363" xlink:href="#m3e00785cc1" y="209.517527"/>
      </g>
     </g>
    </g>
    <g id="ytick_16">
     <g id="line2d_54">
      <g>
       <use style="stroke:#000000;stroke-width:0.6;" x="31.936363" xlink:href="#m3e00785cc1" y="202.942802"/>
      </g>
     </g>
    </g>
    <g id="ytick_17">
     <g id="line2d_55">
      <g>
       <use style="stroke:#000000;stroke-width:0.6;" x="31.936363" xlink:href="#m3e00785cc1" y="196.368077"/>
      </g>
     </g>
    </g>
    <g id="ytick_18">
     <g id="line2d_56">
      <g>
       <use style="stroke:#000000;stroke-width:0.6;" x="31.936363" xlink:href="#m3e00785cc1" y="189.793352"/>
      </g>
     </g>
    </g>
    <g id="ytick_19">
     <g id="line2d_57">
      <g>
       <use style="stroke:#000000;stroke-width:0.6;" x="31.936363" xlink:href="#m3e00785cc1" y="176.643901"/>
      </g>
     </g>
    </g>
    <g id="ytick_20">
     <g id="line2d_58">
      <g>
       <use style="stroke:#000000;stroke-width:0.6;" x="31.936363" xlink:href="#m3e00785cc1" y="170.069176"/>
      </g>
     </g>
    </g>
    <g id="ytick_21">
     <g id="line2d_59">
      <g>
       <use style="stroke:#000000;stroke-width:0.6;" x="31.936363" xlink:href="#m3e00785cc1" y="163.494451"/>
      </g>
     </g>
    </g>
    <g id="ytick_22">
     <g id="line2d_60">
      <g>
       <use style="stroke:#000000;stroke-width:0.6;" x="31.936363" xlink:href="#m3e00785cc1" y="156.919725"/>
      </g>
     </g>
    </g>
    <g id="ytick_23">
     <g id="line2d_61">
      <g>
       <use style="stroke:#000000;stroke-width:0.6;" x="31.936363" xlink:href="#m3e00785cc1" y="143.770275"/>
      </g>
     </g>
    </g>
    <g id="ytick_24">
     <g id="line2d_62">
      <g>
       <use style="stroke:#000000;stroke-width:0.6;" x="31.936363" xlink:href="#m3e00785cc1" y="137.195549"/>
      </g>
     </g>
    </g>
    <g id="ytick_25">
     <g id="line2d_63">
      <g>
       <use style="stroke:#000000;stroke-width:0.6;" x="31.936363" xlink:href="#m3e00785cc1" y="130.620824"/>
      </g>
     </g>
    </g>
    <g id="ytick_26">
     <g id="line2d_64">
      <g>
       <use style="stroke:#000000;stroke-width:0.6;" x="31.936363" xlink:href="#m3e00785cc1" y="124.046099"/>
      </g>
     </g>
    </g>
    <g id="ytick_27">
     <g id="line2d_65">
      <g>
       <use style="stroke:#000000;stroke-width:0.6;" x="31.936363" xlink:href="#m3e00785cc1" y="110.896648"/>
      </g>
     </g>
    </g>
    <g id="ytick_28">
     <g id="line2d_66">
      <g>
       <use style="stroke:#000000;stroke-width:0.6;" x="31.936363" xlink:href="#m3e00785cc1" y="104.321923"/>
      </g>
     </g>
    </g>
    <g id="ytick_29">
     <g id="line2d_67">
      <g>
       <use style="stroke:#000000;stroke-width:0.6;" x="31.936363" xlink:href="#m3e00785cc1" y="97.747198"/>
      </g>
     </g>
    </g>
    <g id="ytick_30">
     <g id="line2d_68">
      <g>
       <use style="stroke:#000000;stroke-width:0.6;" x="31.936363" xlink:href="#m3e00785cc1" y="91.172473"/>
      </g>
     </g>
    </g>
    <g id="ytick_31">
     <g id="line2d_69">
      <g>
       <use style="stroke:#000000;stroke-width:0.6;" x="31.936363" xlink:href="#m3e00785cc1" y="78.023022"/>
      </g>
     </g>
    </g>
    <g id="ytick_32">
     <g id="line2d_70">
      <g>
       <use style="stroke:#000000;stroke-width:0.6;" x="31.936363" xlink:href="#m3e00785cc1" y="71.448297"/>
      </g>
     </g>
    </g>
    <g id="ytick_33">
     <g id="line2d_71">
      <g>
       <use style="stroke:#000000;stroke-width:0.6;" x="31.936363" xlink:href="#m3e00785cc1" y="64.873571"/>
      </g>
     </g>
    </g>
    <g id="ytick_34">
     <g id="line2d_72">
      <g>
       <use style="stroke:#000000;stroke-width:0.6;" x="31.936363" xlink:href="#m3e00785cc1" y="58.298846"/>
      </g>
     </g>
    </g>
    <g id="ytick_35">
     <g id="line2d_73">
      <g>
       <use style="stroke:#000000;stroke-width:0.6;" x="31.936363" xlink:href="#m3e00785cc1" y="45.149396"/>
      </g>
     </g>
    </g>
    <g id="ytick_36">
     <g id="line2d_74">
      <g>
       <use style="stroke:#000000;stroke-width:0.6;" x="31.936363" xlink:href="#m3e00785cc1" y="38.57467"/>
      </g>
     </g>
    </g>
    <g id="ytick_37">
     <g id="line2d_75">
      <g>
       <use style="stroke:#000000;stroke-width:0.6;" x="31.936363" xlink:href="#m3e00785cc1" y="31.999945"/>
      </g>
     </g>
    </g>
    <g id="text_14">
     <!-- $y$ -->
     <defs>
      <path d="M 8.40625 -14.3125 
Q 10.5 -17.921875 15.71875 -17.921875 
Q 20.453125 -17.921875 23.921875 -14.59375 
Q 27.390625 -11.28125 29.515625 -6.5625 
Q 31.640625 -1.859375 32.8125 3.078125 
Q 28.375 -1.125 23.1875 -1.125 
Q 19.234375 -1.125 16.453125 0.234375 
Q 13.671875 1.609375 12.125 4.3125 
Q 10.59375 7.03125 10.59375 10.890625 
Q 10.59375 14.15625 11.46875 17.59375 
Q 12.359375 21.046875 13.9375 25.265625 
Q 15.53125 29.5 16.703125 32.625 
Q 18.015625 36.28125 18.015625 38.625 
Q 18.015625 41.609375 15.828125 41.609375 
Q 11.859375 41.609375 9.296875 37.53125 
Q 6.734375 33.453125 5.515625 28.421875 
Q 5.328125 27.78125 4.6875 27.78125 
L 3.515625 27.78125 
Q 2.6875 27.78125 2.6875 28.71875 
L 2.6875 29 
Q 4.296875 34.96875 7.609375 39.578125 
Q 10.9375 44.1875 16.015625 44.1875 
Q 19.578125 44.1875 22.046875 41.84375 
Q 24.515625 39.5 24.515625 35.890625 
Q 24.515625 34.03125 23.6875 31.984375 
Q 23.25 30.765625 21.6875 26.65625 
Q 20.125 22.5625 19.28125 19.875 
Q 18.453125 17.1875 17.921875 14.59375 
Q 17.390625 12.015625 17.390625 9.421875 
Q 17.390625 6.109375 18.796875 3.8125 
Q 20.21875 1.515625 23.296875 1.515625 
Q 29.5 1.515625 34.421875 9.078125 
L 42 39.890625 
Q 42.328125 41.21875 43.546875 42.15625 
Q 44.78125 43.109375 46.1875 43.109375 
Q 47.40625 43.109375 48.3125 42.328125 
Q 49.21875 41.546875 49.21875 40.28125 
Q 49.21875 39.703125 49.125 39.5 
L 39.203125 -0.296875 
Q 37.890625 -5.421875 34.375 -10.109375 
Q 30.859375 -14.796875 25.90625 -17.65625 
Q 20.953125 -20.515625 15.578125 -20.515625 
Q 12.984375 -20.515625 10.4375 -19.5 
Q 7.90625 -18.5 6.34375 -16.5 
Q 4.78125 -14.5 4.78125 -11.8125 
Q 4.78125 -9.078125 6.390625 -7.078125 
Q 8.015625 -5.078125 10.6875 -5.078125 
Q 12.3125 -5.078125 13.40625 -6.078125 
Q 14.5 -7.078125 14.5 -8.6875 
Q 14.5 -10.984375 12.78125 -12.6875 
Q 11.078125 -14.40625 8.796875 -14.40625 
Q 8.6875 -14.359375 8.59375 -14.328125 
Q 8.5 -14.3125 8.40625 -14.3125 
z
" id="Cmmi10-79"/>
     </defs>
     <g transform="translate(27.936363 19.325)scale(0.16 -0.16)">
      <use transform="translate(0 0.8125)" xlink:href="#Cmmi10-79"/>
     </g>
    </g>
   </g>
   <g id="patch_3">
    <path d="M 31.936363 270.005 
L 31.936363 30.685 
" style="fill:none;stroke:#000000;stroke-linecap:square;stroke-linejoin:miter;stroke-width:0.8;"/>
   </g>
   <g id="patch_4">
    <path d="M 10.7 150.345 
L 260.276571 150.345 
" style="fill:none;stroke:#000000;stroke-linecap:square;stroke-linejoin:miter;stroke-width:0.8;"/>
   </g>
  </g>
 </g>
 <defs>
  <clipPath id="p0412c49b8a">
   <rect height="239.32" width="249.576571" x="10.7" y="30.685"/>
  </clipPath>
 </defs>
</svg>
