<?xml version="1.0" encoding="utf-8" standalone="no"?>
<!DOCTYPE svg PUBLIC "-//W3C//DTD SVG 1.1//EN"
  "http://www.w3.org/Graphics/SVG/1.1/DTD/svg11.dtd">
<!-- Created with matplotlib (http://matplotlib.org/) -->
<svg height="280.705pt" version="1.1" viewBox="0 0 275.764618 280.705" width="275.764618pt" xmlns="http://www.w3.org/2000/svg" xmlns:xlink="http://www.w3.org/1999/xlink">
 <defs>
  <style type="text/css">
*{stroke-linecap:butt;stroke-linejoin:round;}
  </style>
 </defs>
 <g id="figure_1">
  <g id="patch_1">
   <path d="M 0 280.705 
L 275.764618 280.705 
L 275.764618 0 
L 0 0 
z
" style="fill:#ffffff;"/>
  </g>
  <g id="axes_1">
   <g id="patch_2">
    <path d="M 11.964618 270.005 
L 251.284618 270.005 
L 251.284618 30.685 
L 11.964618 30.685 
z
" style="fill:#ffffff;"/>
   </g>
   <g id="Quiver_1">
    <path clip-path="url(#p49bf2b0256)" d="M 30.581765 251.866493 
L 30.342445 251.451979 
L 29.863805 251.451979 
L 29.624485 251.866493 
L 29.863805 252.281008 
L 30.342445 252.281008 
L 30.581765 251.866493 
L 30.342445 251.451979 
" style="fill:#0000ff;"/>
    <path clip-path="url(#p49bf2b0256)" d="M 30.103125 237.851654 
L 29.688611 238.090974 
L 29.688611 238.569614 
L 30.103125 238.808934 
L 30.517639 238.569614 
L 30.517639 238.090974 
L 30.103125 237.851654 
L 29.688611 238.090974 
" style="fill:#0000ff;"/>
    <path clip-path="url(#p49bf2b0256)" d="M 30.103125 224.315455 
L 29.688611 224.554775 
L 29.688611 225.033415 
L 30.103125 225.272735 
L 30.517639 225.033415 
L 30.517639 224.554775 
L 30.103125 224.315455 
L 29.688611 224.554775 
" style="fill:#0000ff;"/>
    <path clip-path="url(#p49bf2b0256)" d="M 30.003633 211.257896 
L 30.003633 211.158403 
L 29.804648 211.257896 
L 30.103125 210.262971 
L 30.401602 211.257896 
L 30.202617 211.158403 
L 30.202617 211.257896 
L 30.003633 211.257896 
" style="fill:#0000ff;"/>
    <path clip-path="url(#p49bf2b0256)" d="M 29.926249 197.721697 
L 29.926249 197.544821 
L 29.572498 197.721697 
L 30.103125 195.952942 
L 30.633752 197.721697 
L 30.280001 197.544821 
L 30.280001 197.721697 
L 29.926249 197.721697 
" style="fill:#0000ff;"/>
    <path clip-path="url(#p49bf2b0256)" d="M 29.826757 184.185498 
L 29.826757 183.90913 
L 29.274021 184.185498 
L 30.103125 181.421818 
L 30.932229 184.185498 
L 30.379493 183.90913 
L 30.379493 184.185498 
L 29.826757 184.185498 
" style="fill:#0000ff;"/>
    <path clip-path="url(#p49bf2b0256)" d="M 29.705155 170.649299 
L 29.705155 170.251329 
L 28.909215 170.649299 
L 30.103125 166.669599 
L 31.297035 170.649299 
L 30.501095 170.251329 
L 30.501095 170.649299 
L 29.705155 170.649299 
" style="fill:#0000ff;"/>
    <path clip-path="url(#p49bf2b0256)" d="M 29.624485 157.1131 
L 29.624485 156.004046 
L 28.667205 156.482686 
L 30.103125 151.696286 
L 31.539045 156.482686 
L 30.581765 156.004046 
L 30.581765 157.1131 
L 29.624485 157.1131 
" style="fill:#0000ff;"/>
    <path clip-path="url(#p49bf2b0256)" d="M 29.624485 143.5769 
L 29.624485 140.809639 
L 28.667205 141.288279 
L 30.103125 136.501879 
L 31.539045 141.288279 
L 30.581765 140.809639 
L 30.581765 143.5769 
L 29.624485 143.5769 
" style="fill:#0000ff;"/>
    <path clip-path="url(#p49bf2b0256)" d="M 29.624485 130.040701 
L 29.624485 125.394138 
L 28.667205 125.872778 
L 30.103125 121.086378 
L 31.539045 125.872778 
L 30.581765 125.394138 
L 30.581765 130.040701 
L 29.624485 130.040701 
" style="fill:#0000ff;"/>
    <path clip-path="url(#p49bf2b0256)" d="M 29.624485 116.504502 
L 29.624485 109.757542 
L 28.667205 110.236182 
L 30.103125 105.449782 
L 31.539045 110.236182 
L 30.581765 109.757542 
L 30.581765 116.504502 
L 29.624485 116.504502 
" style="fill:#0000ff;"/>
    <path clip-path="url(#p49bf2b0256)" d="M 29.624485 102.968303 
L 29.624485 93.899851 
L 28.667205 94.378491 
L 30.103125 89.592091 
L 31.539045 94.378491 
L 30.581765 93.899851 
L 30.581765 102.968303 
L 29.624485 102.968303 
" style="fill:#0000ff;"/>
    <path clip-path="url(#p49bf2b0256)" d="M 29.624485 89.432104 
L 29.624485 77.821066 
L 28.667205 78.299706 
L 30.103125 73.513306 
L 31.539045 78.299706 
L 30.581765 77.821066 
L 30.581765 89.432104 
L 29.624485 89.432104 
" style="fill:#0000ff;"/>
    <path clip-path="url(#p49bf2b0256)" d="M 29.624485 75.895905 
L 29.624485 61.521187 
L 28.667205 61.999827 
L 30.103125 57.213427 
L 31.539045 61.999827 
L 30.581765 61.521187 
L 30.581765 75.895905 
L 29.624485 75.895905 
" style="fill:#0000ff;"/>
    <path clip-path="url(#p49bf2b0256)" d="M 29.624485 62.359706 
L 29.624485 45.000213 
L 28.667205 45.478853 
L 30.103125 40.692453 
L 31.539045 45.478853 
L 30.581765 45.000213 
L 30.581765 62.359706 
L 29.624485 62.359706 
" style="fill:#0000ff;"/>
    <path clip-path="url(#p49bf2b0256)" d="M 44.117964 251.866493 
L 43.878644 251.451979 
L 43.400004 251.451979 
L 43.160684 251.866493 
L 43.400004 252.281008 
L 43.878644 252.281008 
L 44.117964 251.866493 
L 43.878644 251.451979 
" style="fill:#0000ff;"/>
    <path clip-path="url(#p49bf2b0256)" d="M 44.103673 238.214207 
L 43.770964 237.870112 
L 43.306615 237.9862 
L 43.174975 238.446381 
L 43.507684 238.790476 
L 43.972033 238.674389 
L 44.103673 238.214207 
L 43.770964 237.870112 
" style="fill:#0000ff;"/>
    <path clip-path="url(#p49bf2b0256)" d="M 43.977774 224.455645 
L 43.515443 224.331764 
L 43.176993 224.670214 
L 43.300875 225.132545 
L 43.763205 225.256426 
L 44.101655 224.917976 
L 43.977774 224.455645 
L 43.515443 224.331764 
" style="fill:#0000ff;"/>
    <path clip-path="url(#p49bf2b0256)" d="M 43.539832 211.213677 
L 43.58405 211.114185 
L 43.340847 211.125239 
L 44.081513 210.262971 
L 43.937802 211.390553 
L 43.783035 211.202622 
L 43.738817 211.302115 
L 43.539832 211.213677 
" style="fill:#0000ff;"/>
    <path clip-path="url(#p49bf2b0256)" d="M 43.462449 197.677478 
L 43.506667 197.500602 
L 43.108697 197.58904 
L 44.081513 195.952942 
L 44.169951 197.854353 
L 43.860419 197.58904 
L 43.8162 197.765916 
L 43.462449 197.677478 
" style="fill:#0000ff;"/>
    <path clip-path="url(#p49bf2b0256)" d="M 43.362956 184.141279 
L 43.407175 183.864911 
L 42.81022 184.052841 
L 44.081513 181.421818 
L 44.468428 184.318154 
L 43.959911 183.953349 
L 43.915692 184.229717 
L 43.362956 184.141279 
" style="fill:#0000ff;"/>
    <path clip-path="url(#p49bf2b0256)" d="M 43.241354 170.60508 
L 43.285573 170.20711 
L 42.445414 170.516642 
L 44.081513 166.669599 
L 44.833234 170.781955 
L 44.081513 170.295548 
L 44.037294 170.693518 
L 43.241354 170.60508 
" style="fill:#0000ff;"/>
    <path clip-path="url(#p49bf2b0256)" d="M 43.162271 157.074156 
L 43.253972 155.950821 
L 42.260922 156.349988 
L 44.081513 151.696286 
L 45.123241 156.583647 
L 44.208078 156.028708 
L 44.116377 157.152043 
L 43.162271 157.074156 
" style="fill:#0000ff;"/>
    <path clip-path="url(#p49bf2b0256)" d="M 43.161616 143.547044 
L 43.335094 140.771393 
L 42.349822 141.189388 
L 44.081513 136.501879 
L 45.216069 141.368528 
L 44.29051 140.831107 
L 44.117032 143.606757 
L 43.161616 143.547044 
" style="fill:#0000ff;"/>
    <path clip-path="url(#p49bf2b0256)" d="M 43.161267 130.017094 
L 43.390986 125.365287 
L 42.411263 125.796129 
L 44.081513 121.086378 
L 45.279608 125.937775 
L 44.3471 125.412502 
L 44.117382 130.064309 
L 43.161267 130.017094 
" style="fill:#0000ff;"/>
    <path clip-path="url(#p49bf2b0256)" d="M 43.161067 116.485372 
L 43.431083 109.734969 
L 42.455437 110.174966 
L 44.081513 105.449782 
L 45.324983 110.289748 
L 44.387598 109.77323 
L 44.117582 116.523633 
L 43.161067 116.485372 
" style="fill:#0000ff;"/>
    <path clip-path="url(#p49bf2b0256)" d="M 43.160945 102.952489 
L 43.460807 93.881685 
L 42.488235 94.328435 
L 44.081513 89.592091 
L 45.358507 94.42332 
L 44.417564 93.913313 
L 44.117703 102.984117 
L 43.160945 102.952489 
" style="fill:#0000ff;"/>
    <path clip-path="url(#p49bf2b0256)" d="M 43.160869 89.418814 
L 43.483444 77.806115 
L 42.513242 78.257989 
L 44.081513 73.513306 
L 45.383975 78.337732 
L 44.440355 77.832696 
L 44.11778 89.445395 
L 43.160869 89.418814 
" style="fill:#0000ff;"/>
    <path clip-path="url(#p49bf2b0256)" d="M 43.160818 75.884579 
L 43.501077 61.508655 
L 42.532739 61.96451 
L 44.081513 57.213427 
L 45.403775 62.032464 
L 44.458089 61.531306 
L 44.11783 75.907231 
L 43.160818 75.884579 
" style="fill:#0000ff;"/>
    <path clip-path="url(#p49bf2b0256)" d="M 43.160784 62.34994 
L 43.515077 44.98955 
L 42.548231 45.448558 
L 44.081513 40.692453 
L 45.419473 45.507155 
L 44.472158 45.009083 
L 44.117864 62.369472 
L 43.160784 62.34994 
" style="fill:#0000ff;"/>
    <path clip-path="url(#p49bf2b0256)" d="M 57.654163 251.866493 
L 57.414843 251.451979 
L 56.936203 251.451979 
L 56.696883 251.866493 
L 56.936203 252.281008 
L 57.414843 252.281008 
L 57.654163 251.866493 
L 57.414843 251.451979 
" style="fill:#0000ff;"/>
    <path clip-path="url(#p49bf2b0256)" d="M 57.650467 238.270926 
L 57.361581 237.889297 
L 56.886637 237.948665 
L 56.700579 238.389662 
L 56.989465 238.771292 
L 57.464409 238.711924 
L 57.650467 238.270926 
L 57.361581 237.889297 
" style="fill:#0000ff;"/>
    <path clip-path="url(#p49bf2b0256)" d="M 57.131304 224.705657 
L 57.219742 224.661438 
L 57.042867 224.528782 
L 58.059901 224.351906 
L 57.30818 225.059408 
L 57.30818 224.838314 
L 57.219742 224.882533 
L 57.131304 224.705657 
" style="fill:#0000ff;"/>
    <path clip-path="url(#p49bf2b0256)" d="M 57.076031 211.169458 
L 57.164468 211.069966 
L 56.877046 210.992583 
L 58.059901 210.262971 
L 57.474001 211.523209 
L 57.363453 211.246841 
L 57.275016 211.346334 
L 57.076031 211.169458 
" style="fill:#0000ff;"/>
    <path clip-path="url(#p49bf2b0256)" d="M 56.998648 197.633259 
L 57.087085 197.456384 
L 56.644897 197.456384 
L 58.059901 195.952942 
L 57.70615 197.98701 
L 57.440836 197.633259 
L 57.352399 197.810135 
L 56.998648 197.633259 
" style="fill:#0000ff;"/>
    <path clip-path="url(#p49bf2b0256)" d="M 56.899155 184.09706 
L 56.987593 183.820692 
L 56.346419 183.920184 
L 58.059901 181.421818 
L 58.004627 184.450811 
L 57.540329 183.997567 
L 57.451891 184.273936 
L 56.899155 184.09706 
" style="fill:#0000ff;"/>
    <path clip-path="url(#p49bf2b0256)" d="M 56.777553 170.560861 
L 56.865991 170.162891 
L 55.981613 170.383985 
L 58.059901 166.669599 
L 58.369433 170.914612 
L 57.661931 170.339766 
L 57.573493 170.737736 
L 56.777553 170.560861 
" style="fill:#0000ff;"/>
    <path clip-path="url(#p49bf2b0256)" d="M 56.703138 157.035975 
L 56.893398 155.870632 
L 55.871502 156.188769 
L 58.059901 151.696286 
L 58.705816 156.651514 
L 57.838169 156.024881 
L 57.647909 157.190224 
L 56.703138 157.035975 
" style="fill:#0000ff;"/>
    <path clip-path="url(#p49bf2b0256)" d="M 56.700579 143.517532 
L 57.050645 140.717006 
L 56.041389 141.073214 
L 58.059901 136.501879 
L 58.891053 141.429422 
L 58.000533 140.835742 
L 57.650467 143.636268 
L 56.700579 143.517532 
" style="fill:#0000ff;"/>
    <path clip-path="url(#p49bf2b0256)" d="M 56.699201 129.993657 
L 57.160181 125.326236 
L 56.160492 125.70847 
L 58.059901 121.086378 
L 59.018426 125.990735 
L 58.112826 125.420324 
L 57.651846 130.087746 
L 56.699201 129.993657 
" style="fill:#0000ff;"/>
    <path clip-path="url(#p49bf2b0256)" d="M 56.698408 116.466333 
L 57.239262 109.705653 
L 56.246861 110.10643 
L 58.059901 105.449782 
L 59.109555 110.335446 
L 58.193493 109.781992 
L 57.652639 116.542672 
L 56.698408 116.466333 
" style="fill:#0000ff;"/>
    <path clip-path="url(#p49bf2b0256)" d="M 56.697926 102.936726 
L 57.298113 93.85889 
L 56.311342 94.273334 
L 58.059901 89.592091 
L 59.176926 94.462794 
L 58.253308 93.922043 
L 57.65312 102.99988 
L 56.697926 102.936726 
" style="fill:#0000ff;"/>
    <path clip-path="url(#p49bf2b0256)" d="M 56.69762 89.405554 
L 57.343046 77.787884 
L 56.36069 78.212686 
L 58.059901 73.513306 
L 59.228108 78.371987 
L 58.298852 77.840984 
L 57.653426 89.458654 
L 56.69762 89.405554 
" style="fill:#0000ff;"/>
    <path clip-path="url(#p49bf2b0256)" d="M 56.697419 75.873273 
L 57.378107 61.493736 
L 56.399265 61.926577 
L 58.059901 57.213427 
L 59.267893 62.06237 
L 58.334316 61.539001 
L 57.653628 75.918537 
L 56.697419 75.873273 
" style="fill:#0000ff;"/>
    <path clip-path="url(#p49bf2b0256)" d="M 56.697281 62.340186 
L 57.405978 44.977109 
L 56.429975 45.416311 
L 58.059901 40.692453 
L 59.299426 45.533431 
L 58.362462 45.016149 
L 57.653765 62.379226 
L 56.697281 62.340186 
" style="fill:#0000ff;"/>
    <path clip-path="url(#p49bf2b0256)" d="M 70.711722 251.733837 
L 70.844379 251.733837 
L 70.711722 251.468523 
L 72.038289 251.866493 
L 70.711722 252.264463 
L 70.844379 251.99915 
L 70.711722 251.99915 
L 70.711722 251.733837 
" style="fill:#0000ff;"/>
    <path clip-path="url(#p49bf2b0256)" d="M 70.700668 238.197637 
L 70.833324 238.186583 
L 70.678558 237.932324 
L 72.038289 238.219747 
L 70.744886 238.728264 
L 70.855434 238.451896 
L 70.722777 238.462951 
L 70.700668 238.197637 
" style="fill:#0000ff;"/>
    <path clip-path="url(#p49bf2b0256)" d="M 70.667503 224.661438 
L 70.80016 224.617219 
L 70.579066 224.396125 
L 72.038289 224.351906 
L 70.844379 225.192065 
L 70.888598 224.882533 
L 70.755941 224.926752 
L 70.667503 224.661438 
" style="fill:#0000ff;"/>
    <path clip-path="url(#p49bf2b0256)" d="M 70.61223 211.125239 
L 70.744886 211.025747 
L 70.413245 210.859926 
L 72.038289 210.262971 
L 71.0102 211.655866 
L 70.943871 211.29106 
L 70.811215 211.390553 
L 70.61223 211.125239 
" style="fill:#0000ff;"/>
    <path clip-path="url(#p49bf2b0256)" d="M 70.534847 197.58904 
L 70.667503 197.412165 
L 70.181096 197.323727 
L 72.038289 195.952942 
L 71.242349 198.119667 
L 71.021254 197.677478 
L 70.888598 197.854353 
L 70.534847 197.58904 
" style="fill:#0000ff;"/>
    <path clip-path="url(#p49bf2b0256)" d="M 70.435354 184.052841 
L 70.568011 183.776473 
L 69.882618 183.787528 
L 72.038289 181.421818 
L 71.540826 184.583468 
L 71.120747 184.041786 
L 70.98809 184.318154 
L 70.435354 184.052841 
" style="fill:#0000ff;"/>
    <path clip-path="url(#p49bf2b0256)" d="M 70.313752 170.516642 
L 70.446409 170.118672 
L 69.517812 170.251329 
L 72.038289 166.669599 
L 71.905632 171.047269 
L 71.242349 170.383985 
L 71.109692 170.781955 
L 70.313752 170.516642 
" style="fill:#0000ff;"/>
    <path clip-path="url(#p49bf2b0256)" d="M 70.246821 156.999246 
L 70.548706 155.766549 
L 69.505049 156.003743 
L 72.038289 151.696286 
L 72.294459 156.686864 
L 71.478509 155.994256 
L 71.176624 157.226953 
L 70.246821 156.999246 
" style="fill:#0000ff;"/>
    <path clip-path="url(#p49bf2b0256)" d="M 70.24128 143.488693 
L 70.773976 140.647649 
L 69.744884 140.941675 
L 72.038289 136.501879 
L 72.567536 141.470922 
L 71.71486 140.824065 
L 71.182164 143.665108 
L 70.24128 143.488693 
" style="fill:#0000ff;"/>
    <path clip-path="url(#p49bf2b0256)" d="M 70.23825 129.970557 
L 70.93352 125.277485 
L 69.916431 125.610669 
L 72.038289 121.086378 
L 72.757265 126.031533 
L 71.880465 125.417773 
L 71.185195 130.110845 
L 70.23825 129.970557 
" style="fill:#0000ff;"/>
    <path clip-path="url(#p49bf2b0256)" d="M 70.236492 116.447475 
L 71.049809 109.669829 
L 70.04232 110.031004 
L 72.038289 105.449782 
L 72.893704 110.37317 
L 72.00027 109.783884 
L 71.186953 116.56153 
L 70.236492 116.447475 
" style="fill:#0000ff;"/>
    <path clip-path="url(#p49bf2b0256)" d="M 70.235419 102.921066 
L 71.136855 93.831585 
L 70.137012 94.213415 
L 72.038289 89.592091 
L 72.994832 94.496835 
L 72.089462 93.926059 
L 71.188026 103.01554 
L 70.235419 102.921066 
" style="fill:#0000ff;"/>
    <path clip-path="url(#p49bf2b0256)" d="M 70.234736 89.392355 
L 71.203562 77.766437 
L 70.20984 78.163926 
L 72.038289 73.513306 
L 73.07176 78.402419 
L 72.157535 77.845935 
L 71.188709 89.471853 
L 70.234736 89.392355 
" style="fill:#0000ff;"/>
    <path clip-path="url(#p49bf2b0256)" d="M 70.234284 75.862004 
L 71.255743 61.476467 
L 70.266966 61.886103 
L 72.038289 57.213427 
L 73.131593 62.089509 
L 72.210618 61.544269 
L 71.18916 75.929806 
L 70.234284 75.862004 
" style="fill:#0000ff;"/>
    <path clip-path="url(#p49bf2b0256)" d="M 70.233977 62.330456 
L 71.297296 44.962912 
L 70.312555 45.382158 
L 72.038289 40.692453 
L 73.179028 45.557657 
L 72.252787 45.021412 
L 71.189468 62.388956 
L 70.233977 62.330456 
" style="fill:#0000ff;"/>
    <path clip-path="url(#p49bf2b0256)" d="M 84.247921 251.689618 
L 84.424797 251.689618 
L 84.247921 251.335867 
L 86.016677 251.866493 
L 84.247921 252.39712 
L 84.424797 252.043369 
L 84.247921 252.043369 
L 84.247921 251.689618 
" style="fill:#0000ff;"/>
    <path clip-path="url(#p49bf2b0256)" d="M 84.236867 238.153419 
L 84.413742 238.142364 
L 84.214757 237.799668 
L 86.016677 238.219747 
L 84.281086 238.860921 
L 84.435852 238.496115 
L 84.258976 238.50717 
L 84.236867 238.153419 
" style="fill:#0000ff;"/>
    <path clip-path="url(#p49bf2b0256)" d="M 84.203702 224.617219 
L 84.380578 224.573001 
L 84.115265 224.263468 
L 86.016677 224.351906 
L 84.380578 225.324722 
L 84.469016 224.926752 
L 84.29214 224.970971 
L 84.203702 224.617219 
" style="fill:#0000ff;"/>
    <path clip-path="url(#p49bf2b0256)" d="M 84.148429 211.08102 
L 84.325304 210.981528 
L 83.949444 210.727269 
L 86.016677 210.262971 
L 84.546399 211.788523 
L 84.524289 211.335279 
L 84.347414 211.434771 
L 84.148429 211.08102 
" style="fill:#0000ff;"/>
    <path clip-path="url(#p49bf2b0256)" d="M 84.071046 197.544821 
L 84.247921 197.367946 
L 83.717295 197.19107 
L 86.016677 195.952942 
L 84.778548 198.252323 
L 84.601672 197.721697 
L 84.424797 197.898572 
L 84.071046 197.544821 
" style="fill:#0000ff;"/>
    <path clip-path="url(#p49bf2b0256)" d="M 83.971553 184.008622 
L 84.148429 183.732254 
L 83.418817 183.654871 
L 86.016677 181.421818 
L 85.077025 184.716124 
L 84.701165 184.086005 
L 84.524289 184.362373 
L 83.971553 184.008622 
" style="fill:#0000ff;"/>
    <path clip-path="url(#p49bf2b0256)" d="M 83.849951 170.472423 
L 84.026827 170.074453 
L 83.054012 170.118672 
L 86.016677 166.669599 
L 85.441831 171.179925 
L 84.822767 170.428204 
L 84.645891 170.826174 
L 83.849951 170.472423 
" style="fill:#0000ff;"/>
    <path clip-path="url(#p49bf2b0256)" d="M 83.792924 156.964529 
L 84.224543 155.642696 
L 83.165976 155.800552 
L 86.016677 151.696286 
L 85.895963 156.691976 
L 85.134538 155.939837 
L 84.702919 157.26167 
L 83.792924 156.964529 
" style="fill:#0000ff;"/>
    <path clip-path="url(#p49bf2b0256)" d="M 83.783572 143.460813 
L 84.507542 140.564933 
L 83.462757 140.797107 
L 86.016677 136.501879 
L 86.248851 141.493631 
L 85.43624 140.797107 
L 84.71227 143.692988 
L 83.783572 143.460813 
" style="fill:#0000ff;"/>
    <path clip-path="url(#p49bf2b0256)" d="M 83.778355 129.947947 
L 84.712325 125.219725 
L 83.680437 125.503784 
L 86.016677 121.086378 
L 86.497838 126.060307 
L 85.651458 125.405232 
L 84.717488 130.133455 
L 83.778355 129.947947 
" style="fill:#0000ff;"/>
    <path clip-path="url(#p49bf2b0256)" d="M 83.775293 116.428882 
L 84.863463 109.627818 
L 83.842585 109.949206 
L 86.016677 105.449782 
L 86.678357 110.402929 
L 85.80872 109.779059 
L 84.72055 116.580123 
L 83.775293 116.428882 
" style="fill:#0000ff;"/>
    <path clip-path="url(#p49bf2b0256)" d="M 83.773412 102.905558 
L 84.977462 93.799932 
L 83.965697 94.148951 
L 86.016677 89.592091 
L 86.812755 94.525422 
L 85.926481 93.925422 
L 84.722431 103.031048 
L 83.773412 102.905558 
" style="fill:#0000ff;"/>
    <path clip-path="url(#p49bf2b0256)" d="M 83.772209 89.379247 
L 85.065252 77.741862 
L 84.06097 78.11186 
L 86.016677 73.513306 
L 86.915245 78.429002 
L 86.016677 77.847576 
L 84.723634 89.484961 
L 83.772209 89.379247 
" style="fill:#0000ff;"/>
    <path clip-path="url(#p49bf2b0256)" d="M 83.771412 75.850792 
L 85.134148 61.456897 
L 84.136016 61.843179 
L 86.016677 57.213427 
L 86.995071 62.113859 
L 86.087166 61.547123 
L 84.724431 75.941018 
L 83.771412 75.850792 
" style="fill:#0000ff;"/>
    <path clip-path="url(#p49bf2b0256)" d="M 83.770868 62.320763 
L 85.189136 44.946988 
L 84.196086 45.346155 
L 86.016677 40.692453 
L 87.058405 45.579814 
L 86.143242 45.024874 
L 84.724975 62.398649 
L 83.770868 62.320763 
" style="fill:#0000ff;"/>
    <path clip-path="url(#p49bf2b0256)" d="M 97.78412 251.645399 
L 98.005215 251.645399 
L 97.78412 251.20321 
L 99.995065 251.866493 
L 97.78412 252.529776 
L 98.005215 252.087588 
L 97.78412 252.087588 
L 97.78412 251.645399 
" style="fill:#0000ff;"/>
    <path clip-path="url(#p49bf2b0256)" d="M 97.773066 238.1092 
L 97.99416 238.098145 
L 97.750956 237.667011 
L 99.995065 238.219747 
L 97.817285 238.993577 
L 98.01627 238.540334 
L 97.795175 238.551389 
L 97.773066 238.1092 
" style="fill:#0000ff;"/>
    <path clip-path="url(#p49bf2b0256)" d="M 97.739902 224.573001 
L 97.960996 224.528782 
L 97.651464 224.130812 
L 99.995065 224.351906 
L 97.916777 225.457378 
L 98.049434 224.970971 
L 97.828339 225.015189 
L 97.739902 224.573001 
" style="fill:#0000ff;"/>
    <path clip-path="url(#p49bf2b0256)" d="M 97.684628 211.036802 
L 97.905722 210.937309 
L 97.485643 210.594613 
L 99.995065 210.262971 
L 98.082598 211.921179 
L 98.104707 211.379498 
L 97.883613 211.47899 
L 97.684628 211.036802 
" style="fill:#0000ff;"/>
    <path clip-path="url(#p49bf2b0256)" d="M 97.607245 197.500602 
L 97.828339 197.323727 
L 97.253494 197.058414 
L 99.995065 195.952942 
L 98.314747 198.38498 
L 98.18209 197.765916 
L 97.960996 197.942791 
L 97.607245 197.500602 
" style="fill:#0000ff;"/>
    <path clip-path="url(#p49bf2b0256)" d="M 97.507752 183.964403 
L 97.728847 183.688035 
L 96.955016 183.522214 
L 99.995065 181.421818 
L 98.613225 184.848781 
L 98.281583 184.130224 
L 98.060488 184.406592 
L 97.507752 183.964403 
" style="fill:#0000ff;"/>
    <path clip-path="url(#p49bf2b0256)" d="M 97.386151 170.428204 
L 97.607245 170.030234 
L 96.590211 169.986015 
L 99.995065 166.669599 
L 98.97803 171.312582 
L 98.403185 170.472423 
L 98.18209 170.870393 
L 97.386151 170.428204 
" style="fill:#0000ff;"/>
    <path clip-path="url(#p49bf2b0256)" d="M 97.340973 156.932223 
L 97.924027 155.503739 
L 96.856855 155.585134 
L 99.995065 151.696286 
L 99.515742 156.670393 
L 98.810323 155.865492 
L 98.227268 157.293976 
L 97.340973 156.932223 
" style="fill:#0000ff;"/>
    <path clip-path="url(#p49bf2b0256)" d="M 97.327268 143.434134 
L 98.253315 140.470784 
L 97.196844 140.642103 
L 99.995065 136.501879 
L 99.937958 141.498701 
L 99.16702 140.756316 
L 98.240973 143.719667 
L 97.327268 143.434134 
" style="fill:#0000ff;"/>
    <path clip-path="url(#p49bf2b0256)" d="M 97.319436 129.925964 
L 98.497748 125.153801 
L 97.453642 125.389012 
L 99.995065 121.086378 
L 100.241749 126.077433 
L 99.427117 125.383275 
L 98.248805 130.155438 
L 97.319436 129.925964 
" style="fill:#0000ff;"/>
    <path clip-path="url(#p49bf2b0256)" d="M 97.314775 116.410633 
L 98.680898 109.580019 
L 97.648339 109.861626 
L 99.995065 105.449782 
L 100.46441 110.42484 
L 99.619589 109.767757 
L 98.253466 116.598371 
L 97.314775 116.410633 
" style="fill:#0000ff;"/>
    <path clip-path="url(#p49bf2b0256)" d="M 97.311888 102.890248 
L 98.820337 93.76413 
L 97.797817 94.080253 
L 99.995065 89.592091 
L 100.631213 94.548582 
L 99.764802 93.92024 
L 98.256353 103.046358 
L 97.311888 102.890248 
" style="fill:#0000ff;"/>
    <path clip-path="url(#p49bf2b0256)" d="M 97.310031 89.366258 
L 98.928364 77.714263 
L 97.91434 78.056661 
L 99.995065 73.513306 
L 100.758875 78.451736 
L 99.876542 77.845955 
L 98.25821 89.49795 
L 97.310031 89.366258 
" style="fill:#0000ff;"/>
    <path clip-path="url(#p49bf2b0256)" d="M 97.308797 75.839654 
L 99.01348 61.435084 
L 98.006583 61.797904 
L 99.995065 57.213427 
L 100.858521 62.135412 
L 99.964126 61.547586 
L 98.259444 75.952156 
L 97.308797 75.839654 
" style="fill:#0000ff;"/>
    <path clip-path="url(#p49bf2b0256)" d="M 97.307953 62.311117 
L 99.081601 44.929371 
L 98.080677 45.308362 
L 99.995065 40.692453 
L 100.937682 45.599893 
L 100.033935 45.026548 
L 98.260288 62.408294 
L 97.307953 62.311117 
" style="fill:#0000ff;"/>
    <path clip-path="url(#p49bf2b0256)" d="M 111.32032 251.60118 
L 111.585633 251.60118 
L 111.32032 251.070553 
L 113.973453 251.866493 
L 111.32032 252.662433 
L 111.585633 252.131807 
L 111.32032 252.131807 
L 111.32032 251.60118 
" style="fill:#0000ff;"/>
    <path clip-path="url(#p49bf2b0256)" d="M 111.309265 238.064981 
L 111.574578 238.053926 
L 111.287155 237.534354 
L 113.973453 238.219747 
L 111.353484 239.126234 
L 111.596688 238.584553 
L 111.331374 238.595607 
L 111.309265 238.064981 
" style="fill:#0000ff;"/>
    <path clip-path="url(#p49bf2b0256)" d="M 111.276101 224.528782 
L 111.541414 224.484563 
L 111.187663 223.998155 
L 113.973453 224.351906 
L 111.452976 225.590035 
L 111.629852 225.015189 
L 111.364538 225.059408 
L 111.276101 224.528782 
" style="fill:#0000ff;"/>
    <path clip-path="url(#p49bf2b0256)" d="M 111.220827 210.992583 
L 111.48614 210.89309 
L 111.021842 210.461956 
L 113.973453 210.262971 
L 111.618797 212.053836 
L 111.685125 211.423717 
L 111.419812 211.523209 
L 111.220827 210.992583 
" style="fill:#0000ff;"/>
    <path clip-path="url(#p49bf2b0256)" d="M 111.143444 197.456384 
L 111.408757 197.279508 
L 110.789693 196.925757 
L 113.973453 195.952942 
L 111.850946 198.517637 
L 111.762508 197.810135 
L 111.497195 197.98701 
L 111.143444 197.456384 
" style="fill:#0000ff;"/>
    <path clip-path="url(#p49bf2b0256)" d="M 111.043952 183.920184 
L 111.309265 183.643816 
L 110.491216 183.389558 
L 113.973453 181.421818 
L 112.149424 184.981438 
L 111.862001 184.174443 
L 111.596688 184.450811 
L 111.043952 183.920184 
" style="fill:#0000ff;"/>
    <path clip-path="url(#p49bf2b0256)" d="M 110.92235 170.383985 
L 111.187663 169.986015 
L 110.12641 169.853359 
L 113.973453 166.669599 
L 112.514229 171.445239 
L 111.983603 170.516642 
L 111.71829 170.914612 
L 110.92235 170.383985 
" style="fill:#0000ff;"/>
    <path clip-path="url(#p49bf2b0256)" d="M 110.890471 156.902561 
L 111.64876 155.354387 
L 110.578525 155.363159 
L 113.973453 151.696286 
L 113.157617 156.626388 
L 112.508458 155.775463 
L 111.750168 157.323638 
L 110.890471 156.902561 
" style="fill:#0000ff;"/>
    <path clip-path="url(#p49bf2b0256)" d="M 110.872155 143.408839 
L 112.012732 140.367299 
L 110.948342 140.47934 
L 113.973453 136.501879 
L 113.637329 141.48771 
L 112.909062 140.703422 
L 111.768484 143.744962 
L 110.872155 143.408839 
" style="fill:#0000ff;"/>
    <path clip-path="url(#p49bf2b0256)" d="M 110.8614 129.904725 
L 112.290749 125.080674 
L 111.236935 125.267641 
L 113.973453 121.086378 
L 113.99045 126.083497 
L 113.208587 125.352626 
L 111.779239 130.176677 
L 110.8614 129.904725 
" style="fill:#0000ff;"/>
    <path clip-path="url(#p49bf2b0256)" d="M 110.854896 116.392801 
L 112.502714 109.526891 
L 111.460166 109.768911 
L 113.973453 105.449782 
L 114.252707 110.439121 
L 113.433561 109.750294 
L 111.785743 116.616204 
L 110.854896 116.392801 
" style="fill:#0000ff;"/>
    <path clip-path="url(#p49bf2b0256)" d="M 110.850826 102.87518 
L 112.665854 93.724412 
L 111.633744 94.007661 
L 113.973453 89.592091 
L 114.450707 94.566397 
L 113.604842 93.910658 
L 111.789813 103.061426 
L 110.850826 102.87518 
" style="fill:#0000ff;"/>
    <path clip-path="url(#p49bf2b0256)" d="M 110.848192 89.353416 
L 112.793134 77.683767 
L 111.77019 77.998518 
L 113.973453 73.513306 
L 114.602956 78.470646 
L 113.737389 77.841142 
L 111.792447 89.510792 
L 110.848192 89.353416 
" style="fill:#0000ff;"/>
    <path clip-path="url(#p49bf2b0256)" d="M 110.846434 75.828608 
L 112.893891 61.411098 
L 111.878823 61.750388 
L 113.973453 57.213427 
L 114.722135 62.154172 
L 113.841662 61.545692 
L 111.794205 75.963202 
L 110.846434 75.828608 
" style="fill:#0000ff;"/>
    <path clip-path="url(#p49bf2b0256)" d="M 110.845228 62.301531 
L 112.974791 44.910103 
L 111.966433 45.268845 
L 113.973453 40.692453 
L 114.816982 45.617892 
L 113.924974 45.026452 
L 111.795411 62.41788 
L 110.845228 62.301531 
" style="fill:#0000ff;"/>
    <path clip-path="url(#p49bf2b0256)" d="M 124.856519 251.556961 
L 125.166051 251.556961 
L 124.856519 250.937897 
L 127.95184 251.866493 
L 124.856519 252.79509 
L 125.166051 252.176025 
L 124.856519 252.176025 
L 124.856519 251.556961 
" style="fill:#0000ff;"/>
    <path clip-path="url(#p49bf2b0256)" d="M 124.845464 238.020762 
L 125.154996 238.009707 
L 124.823355 237.401698 
L 127.95184 238.219747 
L 124.889683 239.258891 
L 125.177106 238.628772 
L 124.867573 238.639826 
L 124.845464 238.020762 
" style="fill:#0000ff;"/>
    <path clip-path="url(#p49bf2b0256)" d="M 124.8123 224.484563 
L 125.121832 224.440344 
L 124.723862 223.865498 
L 127.95184 224.351906 
L 124.989175 225.722692 
L 125.21027 225.059408 
L 124.900738 225.103627 
L 124.8123 224.484563 
" style="fill:#0000ff;"/>
    <path clip-path="url(#p49bf2b0256)" d="M 124.757026 210.948364 
L 125.066558 210.848871 
L 124.558041 210.329299 
L 127.95184 210.262971 
L 125.154996 212.186492 
L 125.265543 211.467936 
L 124.956011 211.567428 
L 124.757026 210.948364 
" style="fill:#0000ff;"/>
    <path clip-path="url(#p49bf2b0256)" d="M 124.679643 197.412165 
L 124.989175 197.235289 
L 124.325892 196.7931 
L 127.95184 195.952942 
L 125.387145 198.650293 
L 125.342926 197.854353 
L 125.033394 198.031229 
L 124.679643 197.412165 
" style="fill:#0000ff;"/>
    <path clip-path="url(#p49bf2b0256)" d="M 124.580151 183.875966 
L 124.889683 183.599598 
L 124.027415 183.256901 
L 127.95184 181.421818 
L 125.685623 185.114094 
L 125.442419 184.218662 
L 125.132887 184.49503 
L 124.580151 183.875966 
" style="fill:#0000ff;"/>
    <path clip-path="url(#p49bf2b0256)" d="M 124.478703 170.355442 
L 124.929316 169.776083 
L 123.879828 169.566185 
L 127.95184 166.669599 
L 126.146722 171.329324 
L 125.684947 170.363796 
L 125.234334 170.943155 
L 124.478703 170.355442 
" style="fill:#0000ff;"/>
    <path clip-path="url(#p49bf2b0256)" d="M 124.440943 156.875628 
L 125.399017 155.198998 
L 124.330393 155.13963 
L 127.95184 151.696286 
L 126.823849 156.564461 
L 126.230169 155.673941 
L 125.272095 157.350571 
L 124.440943 156.875628 
" style="fill:#0000ff;"/>
    <path clip-path="url(#p49bf2b0256)" d="M 124.418009 143.385053 
L 125.7867 140.256617 
L 124.717833 140.311431 
L 127.95184 136.501879 
L 127.34889 141.462518 
L 126.663719 140.640313 
L 125.295028 143.768748 
L 124.418009 143.385053 
" style="fill:#0000ff;"/>
    <path clip-path="url(#p49bf2b0256)" d="M 124.404144 129.884325 
L 126.092079 125.001372 
L 125.030953 125.140993 
L 127.95184 121.086378 
L 127.7452 126.079252 
L 126.996828 125.314124 
L 125.308893 130.197078 
L 124.404144 129.884325 
" style="fill:#0000ff;"/>
    <path clip-path="url(#p49bf2b0256)" d="M 124.395606 116.375447 
L 126.329426 109.468944 
L 125.278545 109.671746 
L 127.95184 105.449782 
L 128.044023 110.44608 
L 127.251253 109.727055 
L 125.317432 116.633558 
L 124.395606 116.375447 
" style="fill:#0000ff;"/>
    <path clip-path="url(#p49bf2b0256)" d="M 124.390201 102.860395 
L 126.514349 93.681041 
L 125.473806 93.931542 
L 127.95184 89.592091 
L 128.271711 94.578991 
L 127.446984 93.896857 
L 125.322836 103.076211 
L 124.390201 102.860395 
" style="fill:#0000ff;"/>
    <path clip-path="url(#p49bf2b0256)" d="M 124.386678 89.340746 
L 126.659779 77.650512 
L 125.628741 77.937637 
L 127.95184 73.513306 
L 128.447783 78.485784 
L 127.59946 77.833228 
L 125.326359 89.523462 
L 124.386678 89.340746 
" style="fill:#0000ff;"/>
    <path clip-path="url(#p49bf2b0256)" d="M 124.384316 75.81767 
L 126.775524 61.385018 
L 125.752884 61.700751 
L 127.95184 57.213427 
L 128.586101 62.17016 
L 127.71993 61.541488 
L 125.328722 75.97414 
L 124.384316 75.81767 
" style="fill:#0000ff;"/>
    <path clip-path="url(#p49bf2b0256)" d="M 124.382689 62.292016 
L 126.868802 44.889228 
L 125.853453 45.227678 
L 127.95184 40.692453 
L 128.69643 45.633817 
L 127.816461 45.024608 
L 125.330348 62.427396 
L 124.382689 62.292016 
" style="fill:#0000ff;"/>
    <path clip-path="url(#p49bf2b0256)" d="M 138.392718 251.512742 
L 138.746469 251.512742 
L 138.392718 250.80524 
L 141.930228 251.866493 
L 138.392718 252.927746 
L 138.746469 252.220244 
L 138.392718 252.220244 
L 138.392718 251.512742 
" style="fill:#0000ff;"/>
    <path clip-path="url(#p49bf2b0256)" d="M 138.381663 237.976543 
L 138.735414 237.965488 
L 138.359554 237.269041 
L 141.930228 238.219747 
L 138.425882 239.391547 
L 138.757524 238.67299 
L 138.403772 238.684045 
L 138.381663 237.976543 
" style="fill:#0000ff;"/>
    <path clip-path="url(#p49bf2b0256)" d="M 138.348499 224.440344 
L 138.70225 224.396125 
L 138.260061 223.732842 
L 141.930228 224.351906 
L 138.525374 225.855348 
L 138.790688 225.103627 
L 138.436937 225.147846 
L 138.348499 224.440344 
" style="fill:#0000ff;"/>
    <path clip-path="url(#p49bf2b0256)" d="M 138.293225 210.904145 
L 138.646976 210.804652 
L 138.09424 210.196643 
L 141.930228 210.262971 
L 138.691195 212.319149 
L 138.845961 211.512155 
L 138.49221 211.611647 
L 138.293225 210.904145 
" style="fill:#0000ff;"/>
    <path clip-path="url(#p49bf2b0256)" d="M 138.215842 197.367946 
L 138.569593 197.19107 
L 137.862091 196.660444 
L 141.930228 195.952942 
L 138.923344 198.78295 
L 138.923344 197.898572 
L 138.569593 198.075448 
L 138.215842 197.367946 
" style="fill:#0000ff;"/>
    <path clip-path="url(#p49bf2b0256)" d="M 138.11635 183.831747 
L 138.470101 183.555379 
L 137.563614 183.124245 
L 141.930228 181.421818 
L 139.221822 185.246751 
L 139.022837 184.262881 
L 138.669086 184.539249 
L 138.11635 183.831747 
" style="fill:#0000ff;"/>
    <path clip-path="url(#p49bf2b0256)" d="M 138.034978 170.331308 
L 138.710568 169.571268 
L 137.677097 169.293026 
L 141.930228 166.669599 
L 139.823537 171.200972 
L 139.426048 170.20725 
L 138.750458 170.96729 
L 138.034978 170.331308 
" style="fill:#0000ff;"/>
    <path clip-path="url(#p49bf2b0256)" d="M 137.991967 156.851385 
L 139.174042 155.041332 
L 138.110825 154.918653 
L 141.930228 151.696286 
L 140.515331 156.488943 
L 139.975544 155.564762 
L 138.793469 157.374815 
L 137.991967 156.851385 
" style="fill:#0000ff;"/>
    <path clip-path="url(#p49bf2b0256)" d="M 137.964609 143.362846 
L 139.575631 140.140803 
L 138.505359 140.140803 
L 141.930228 136.501879 
L 141.074011 141.425128 
L 140.431848 140.568911 
L 138.820826 143.790955 
L 137.964609 143.362846 
" style="fill:#0000ff;"/>
    <path clip-path="url(#p49bf2b0256)" d="M 137.947558 129.864836 
L 139.902277 124.916953 
L 138.836091 125.010381 
L 141.930228 121.086378 
L 141.507052 126.065576 
L 140.792597 125.268684 
L 138.837878 130.216567 
L 137.947558 129.864836 
" style="fill:#0000ff;"/>
    <path clip-path="url(#p49bf2b0256)" d="M 137.936849 116.358624 
L 140.161459 109.406718 
L 139.103845 109.570831 
L 141.930228 105.449782 
L 141.839055 110.446098 
L 141.073196 109.698474 
L 138.848586 116.65038 
L 137.936849 116.358624 
" style="fill:#0000ff;"/>
    <path clip-path="url(#p49bf2b0256)" d="M 137.929986 102.845928 
L 140.366119 93.6343 
L 139.318281 93.852281 
L 141.930228 89.592091 
L 142.09467 94.586533 
L 141.291582 93.879051 
L 138.855449 103.090678 
L 137.929986 102.845928 
" style="fill:#0000ff;"/>
    <path clip-path="url(#p49bf2b0256)" d="M 137.925476 89.328272 
L 140.528502 77.614654 
L 139.490186 77.874233 
L 141.930228 73.513306 
L 142.293639 78.497223 
L 141.462986 77.822317 
L 138.85996 89.535936 
L 137.925476 89.328272 
" style="fill:#0000ff;"/>
    <path clip-path="url(#p49bf2b0256)" d="M 137.922434 75.806857 
L 140.658515 61.356932 
L 139.628899 61.64912 
L 141.930228 57.213427 
L 142.450601 62.183407 
L 141.599082 61.535028 
L 138.863001 75.984953 
L 137.922434 75.806857 
" style="fill:#0000ff;"/>
    <path clip-path="url(#p49bf2b0256)" d="M 137.920332 62.282582 
L 140.763725 44.866799 
L 139.74183 45.184936 
L 141.930228 40.692453 
L 142.576143 45.647681 
L 141.708496 45.021047 
L 138.865103 62.43683 
L 137.920332 62.282582 
" style="fill:#0000ff;"/>
    <path clip-path="url(#p49bf2b0256)" d="M 151.928917 251.468523 
L 152.326887 251.468523 
L 151.928917 250.672583 
L 155.908616 251.866493 
L 151.928917 253.060403 
L 152.326887 252.264463 
L 151.928917 252.264463 
L 151.928917 251.468523 
" style="fill:#0000ff;"/>
    <path clip-path="url(#p49bf2b0256)" d="M 151.917862 237.932324 
L 152.315832 237.921269 
L 151.895753 237.136384 
L 155.908616 238.219747 
L 151.962081 239.524204 
L 152.337942 238.717209 
L 151.939972 238.728264 
L 151.917862 237.932324 
" style="fill:#0000ff;"/>
    <path clip-path="url(#p49bf2b0256)" d="M 151.884698 224.396125 
L 152.282668 224.351906 
L 151.79626 223.600185 
L 155.908616 224.351906 
L 152.061574 225.988005 
L 152.371106 225.147846 
L 151.973136 225.192065 
L 151.884698 224.396125 
" style="fill:#0000ff;"/>
    <path clip-path="url(#p49bf2b0256)" d="M 151.829424 210.859926 
L 152.227394 210.760433 
L 151.630439 210.063986 
L 155.908616 210.262971 
L 152.227394 212.451806 
L 152.426379 211.556373 
L 152.028409 211.655866 
L 151.829424 210.859926 
" style="fill:#0000ff;"/>
    <path clip-path="url(#p49bf2b0256)" d="M 151.752041 197.323727 
L 152.150011 197.146851 
L 151.39829 196.527787 
L 155.908616 195.952942 
L 152.459543 198.915607 
L 152.503762 197.942791 
L 152.105792 198.119667 
L 151.752041 197.323727 
" style="fill:#0000ff;"/>
    <path clip-path="url(#p49bf2b0256)" d="M 151.655903 183.792357 
L 152.097337 183.485805 
L 151.158168 182.972538 
L 155.908616 181.421818 
L 152.796254 185.331382 
L 152.643366 184.272086 
L 152.201931 184.578638 
L 151.655903 183.792357 
" style="fill:#0000ff;"/>
    <path clip-path="url(#p49bf2b0256)" d="M 151.590467 170.310849 
L 152.52412 169.377196 
L 151.508772 169.038746 
L 155.908616 166.669599 
L 153.539469 171.069444 
L 153.20102 170.054095 
L 152.267366 170.987748 
L 151.590467 170.310849 
" style="fill:#0000ff;"/>
    <path clip-path="url(#p49bf2b0256)" d="M 151.54319 156.829708 
L 152.972366 154.88444 
L 151.91752 154.703385 
L 155.908616 151.696286 
L 154.231883 156.403733 
L 153.74382 155.451223 
L 152.314644 157.396491 
L 151.54319 156.829708 
" style="fill:#0000ff;"/>
    <path clip-path="url(#p49bf2b0256)" d="M 151.511746 143.342242 
L 153.379518 140.021759 
L 152.310517 139.969612 
L 155.908616 136.501879 
L 154.813543 141.377564 
L 154.213859 140.491076 
L 152.346088 143.811559 
L 151.511746 143.342242 
" style="fill:#0000ff;"/>
    <path clip-path="url(#p49bf2b0256)" d="M 151.49153 129.846307 
L 153.721683 124.828464 
L 152.652515 124.877063 
L 155.908616 121.086378 
L 155.276835 126.043428 
L 154.596456 125.217253 
L 152.366304 130.235095 
L 151.49153 129.846307 
" style="fill:#0000ff;"/>
    <path clip-path="url(#p49bf2b0256)" d="M 151.478571 116.342378 
L 153.999148 109.340774 
L 152.93633 109.466871 
L 155.908616 105.449782 
L 155.638409 110.439619 
L 154.89984 109.665023 
L 152.379263 116.666627 
L 151.478571 116.342378 
" style="fill:#0000ff;"/>
    <path clip-path="url(#p49bf2b0256)" d="M 151.470151 102.831811 
L 154.22142 93.584491 
L 153.167396 93.770273 
L 155.908616 89.592091 
L 155.919991 94.589226 
L 155.138951 93.857476 
L 152.387683 103.104795 
L 151.470151 102.831811 
" style="fill:#0000ff;"/>
    <path clip-path="url(#p49bf2b0256)" d="M 151.464568 89.316017 
L 154.399482 77.57636 
L 153.354697 77.808535 
L 155.908616 73.513306 
L 156.140791 78.505058 
L 155.32818 77.808535 
L 152.393266 89.548191 
L 151.464568 89.316017 
" style="fill:#0000ff;"/>
    <path clip-path="url(#p49bf2b0256)" d="M 151.46078 75.796184 
L 154.542987 61.326935 
L 153.506992 61.595629 
L 155.908616 57.213427 
L 156.315812 62.193957 
L 155.47926 61.526378 
L 152.397053 75.995626 
L 151.46078 75.796184 
" style="fill:#0000ff;"/>
    <path clip-path="url(#p49bf2b0256)" d="M 151.458152 62.273239 
L 154.659648 44.842871 
L 153.631651 45.140702 
L 155.908616 40.692453 
L 156.456241 45.659505 
L 155.601178 45.015805 
L 152.399682 62.446173 
L 151.458152 62.273239 
" style="fill:#0000ff;"/>
    <path clip-path="url(#p49bf2b0256)" d="M 165.465116 251.424304 
L 165.907305 251.424304 
L 165.465116 250.539927 
L 169.887004 251.866493 
L 165.465116 253.19306 
L 165.907305 252.308682 
L 165.465116 252.308682 
L 165.465116 251.424304 
" style="fill:#0000ff;"/>
    <path clip-path="url(#p49bf2b0256)" d="M 165.454061 237.888105 
L 165.89625 237.877051 
L 165.431952 237.003728 
L 169.887004 238.219747 
L 165.49828 239.656861 
L 165.91836 238.761428 
L 165.476171 238.772483 
L 165.454061 237.888105 
" style="fill:#0000ff;"/>
    <path clip-path="url(#p49bf2b0256)" d="M 165.420897 224.351906 
L 165.863086 224.307687 
L 165.332459 223.467529 
L 169.887004 224.351906 
L 165.597773 226.120662 
L 165.951524 225.192065 
L 165.509335 225.236284 
L 165.420897 224.351906 
" style="fill:#0000ff;"/>
    <path clip-path="url(#p49bf2b0256)" d="M 165.365623 210.815707 
L 165.807812 210.716215 
L 165.166638 209.931329 
L 169.887004 210.262971 
L 165.763593 212.584462 
L 166.006797 211.600592 
L 165.564608 211.700085 
L 165.365623 210.815707 
" style="fill:#0000ff;"/>
    <path clip-path="url(#p49bf2b0256)" d="M 165.28824 197.279508 
L 165.730429 197.102632 
L 164.934489 196.39513 
L 169.887004 195.952942 
L 165.995743 199.048263 
L 166.08418 197.98701 
L 165.641991 198.163886 
L 165.28824 197.279508 
" style="fill:#0000ff;"/>
    <path clip-path="url(#p49bf2b0256)" d="M 165.211437 183.779612 
L 165.980352 183.29904 
L 165.067109 182.740947 
L 169.887004 181.421818 
L 166.589181 185.176262 
L 166.48771 184.110812 
L 165.718795 184.591384 
L 165.211437 183.779612 
" style="fill:#0000ff;"/>
    <path clip-path="url(#p49bf2b0256)" d="M 165.144923 170.293528 
L 166.364878 169.195568 
L 165.368721 168.804221 
L 169.887004 166.669599 
L 167.289881 170.938843 
L 167.005265 169.907109 
L 165.785309 171.005069 
L 165.144923 170.293528 
" style="fill:#0000ff;"/>
    <path clip-path="url(#p49bf2b0256)" d="M 165.094332 156.810419 
L 166.792094 154.73066 
L 165.747846 154.496083 
L 169.887004 151.696286 
L 167.972549 156.312167 
L 167.533662 155.336022 
L 165.8359 157.41578 
L 165.094332 156.810419 
" style="fill:#0000ff;"/>
    <path clip-path="url(#p49bf2b0256)" d="M 165.05923 143.323222 
L 167.19801 139.901174 
L 166.13256 139.799702 
L 169.887004 136.501879 
L 168.567875 141.321774 
L 168.009782 140.408531 
L 165.871002 143.830579 
L 165.05923 143.323222 
" style="fill:#0000ff;"/>
    <path clip-path="url(#p49bf2b0256)" d="M 165.035953 129.828769 
L 167.55045 124.736913 
L 166.480191 124.742211 
L 169.887004 121.086378 
L 169.05517 126.013805 
L 168.408776 125.160777 
L 165.894279 130.252634 
L 165.035953 129.828769 
" style="fill:#0000ff;"/>
    <path clip-path="url(#p49bf2b0256)" d="M 165.02071 116.32674 
L 167.842736 109.271674 
L 166.776162 109.360555 
L 169.887004 105.449782 
L 169.442598 110.42713 
L 168.731548 109.627199 
L 165.909522 116.682265 
L 165.02071 116.32674 
" style="fill:#0000ff;"/>
    <path clip-path="url(#p49bf2b0256)" d="M 165.010664 102.818071 
L 168.080464 93.531927 
L 167.021328 93.685914 
L 169.887004 89.592091 
L 169.74804 94.587307 
L 168.989368 93.832391 
L 165.919568 103.118535 
L 165.010664 102.818071 
" style="fill:#0000ff;"/>
    <path clip-path="url(#p49bf2b0256)" d="M 165.003938 89.303999 
L 168.272881 77.535805 
L 167.222419 77.740773 
L 169.887004 73.513306 
L 169.989488 78.509404 
L 169.195237 77.792015 
L 165.926294 89.560209 
L 165.003938 89.303999 
" style="fill:#0000ff;"/>
    <path clip-path="url(#p49bf2b0256)" d="M 164.999345 75.785663 
L 168.429057 61.295128 
L 167.387272 61.540416 
L 169.887004 57.213427 
L 170.181901 62.201866 
L 169.3606 61.515611 
L 165.930887 76.006147 
L 164.999345 75.785663 
" style="fill:#0000ff;"/>
    <path clip-path="url(#p49bf2b0256)" d="M 164.996143 62.263997 
L 168.556651 44.817505 
L 167.522995 45.095061 
L 169.887004 40.692453 
L 170.336836 45.669314 
L 169.494598 45.008923 
L 165.934089 62.455415 
L 164.996143 62.263997 
" style="fill:#0000ff;"/>
    <path clip-path="url(#p49bf2b0256)" d="M 179.001315 251.387853 
L 179.557632 251.387853 
L 179.078992 250.430573 
L 183.865392 251.866493 
L 179.078992 253.302413 
L 179.557632 252.345133 
L 179.001315 252.345133 
L 179.001315 251.387853 
" style="fill:#0000ff;"/>
    <path clip-path="url(#p49bf2b0256)" d="M 178.99044 237.851778 
L 179.547869 237.839109 
L 179.047602 236.892951 
L 183.865392 238.219747 
L 179.112854 239.76405 
L 179.56962 238.796142 
L 179.01219 238.808811 
L 178.99044 237.851778 
" style="fill:#0000ff;"/>
    <path clip-path="url(#p49bf2b0256)" d="M 178.957981 224.317421 
L 179.531989 224.265238 
L 178.968647 223.355224 
L 183.865392 224.351906 
L 179.228651 226.215269 
L 179.618657 225.218587 
L 179.044649 225.270769 
L 178.957981 224.317421 
" style="fill:#0000ff;"/>
    <path clip-path="url(#p49bf2b0256)" d="M 178.905397 210.788965 
L 179.549098 210.657299 
L 178.888332 209.815355 
L 183.865392 210.262971 
L 179.463838 212.62894 
L 179.740933 211.595161 
L 179.097233 211.726827 
L 178.905397 210.788965 
" style="fill:#0000ff;"/>
    <path clip-path="url(#p49bf2b0256)" d="M 178.837743 197.271874 
L 179.653416 196.975266 
L 178.876449 196.239192 
L 183.865392 195.952942 
L 179.857881 198.938129 
L 179.98056 197.874911 
L 179.164887 198.17152 
L 178.837743 197.271874 
" style="fill:#0000ff;"/>
    <path clip-path="url(#p49bf2b0256)" d="M 178.764862 183.769341 
L 179.883529 183.133735 
L 178.994467 182.537874 
L 183.865392 181.421818 
L 180.413183 185.034814 
L 180.356435 183.966048 
L 179.237768 184.601654 
L 178.764862 183.769341 
" style="fill:#0000ff;"/>
    <path clip-path="url(#p49bf2b0256)" d="M 178.698222 170.278852 
L 180.228277 169.026989 
L 179.251644 168.589188 
L 183.865392 166.669599 
L 181.070202 170.811869 
L 180.834463 169.767883 
L 179.304408 171.019746 
L 178.698222 170.278852 
" style="fill:#0000ff;"/>
    <path clip-path="url(#p49bf2b0256)" d="M 178.645184 156.793308 
L 180.631137 154.581678 
L 179.599082 154.298227 
L 183.865392 151.696286 
L 181.735871 156.216976 
L 181.3434 155.221261 
L 179.357447 157.432891 
L 178.645184 156.793308 
" style="fill:#0000ff;"/>
    <path clip-path="url(#p49bf2b0256)" d="M 178.606896 143.305737 
L 181.030503 139.780491 
L 179.9705 139.632583 
L 183.865392 136.501879 
L 182.337017 141.259564 
L 181.819341 140.322817 
L 179.395734 143.848064 
L 178.606896 143.305737 
" style="fill:#0000ff;"/>
    <path clip-path="url(#p49bf2b0256)" d="M 178.580723 129.812232 
L 181.388572 124.643237 
L 180.318917 124.60689 
L 183.865392 121.086378 
L 182.84247 125.977709 
L 182.229756 125.100177 
L 179.421907 130.269171 
L 178.580723 129.812232 
" style="fill:#0000ff;"/>
    <path clip-path="url(#p49bf2b0256)" d="M 178.563209 116.311735 
L 181.692384 109.199972 
L 180.623405 109.252545 
L 183.865392 105.449782 
L 183.252043 110.409146 
L 182.568597 109.585506 
L 179.439421 116.697269 
L 178.563209 116.311735 
" style="fill:#0000ff;"/>
    <path clip-path="url(#p49bf2b0256)" d="M 178.551492 102.804731 
L 181.943422 93.476924 
L 180.880205 93.599603 
L 183.865392 89.592091 
L 183.579141 94.581034 
L 182.843068 93.804067 
L 179.451138 103.131875 
L 178.551492 102.804731 
" style="fill:#0000ff;"/>
    <path clip-path="url(#p49bf2b0256)" d="M 178.543567 89.292237 
L 182.148837 77.493172 
L 181.093473 77.671185 
L 183.865392 73.513306 
L 183.839962 78.51039 
L 183.064333 77.772907 
L 179.459063 89.571972 
L 178.543567 89.292237 
" style="fill:#0000ff;"/>
    <path clip-path="url(#p49bf2b0256)" d="M 178.538117 75.775309 
L 182.316829 61.261617 
L 181.269836 61.483624 
L 183.865392 57.213427 
L 184.049027 62.2072 
L 183.243226 61.502809 
L 179.464514 76.016501 
L 178.538117 75.775309 
" style="fill:#0000ff;"/>
    <path clip-path="url(#p49bf2b0256)" d="M 178.534298 62.254865 
L 182.454811 44.790764 
L 181.415937 45.0481 
L 183.865392 40.692453 
L 184.218038 45.677143 
L 183.388844 45.000445 
L 179.468332 62.464546 
L 178.534298 62.254865 
" style="fill:#0000ff;"/>
    <path clip-path="url(#p49bf2b0256)" d="M 192.537514 251.387853 
L 193.53602 251.387853 
L 193.05738 250.430573 
L 197.84378 251.866493 
L 193.05738 253.302413 
L 193.53602 252.345133 
L 192.537514 252.345133 
L 192.537514 251.387853 
" style="fill:#0000ff;"/>
    <path clip-path="url(#p49bf2b0256)" d="M 192.527545 237.851758 
L 193.526985 237.830936 
L 193.02851 236.883833 
L 197.84378 238.219747 
L 193.088327 239.75505 
L 193.546924 238.788009 
L 192.547484 238.80883 
L 192.527545 237.851758 
" style="fill:#0000ff;"/>
    <path clip-path="url(#p49bf2b0256)" d="M 192.497765 224.317108 
L 193.511151 224.23266 
L 192.954667 223.318435 
L 197.84378 224.351906 
L 193.19316 226.180355 
L 193.590649 225.186633 
L 192.577263 225.271082 
L 192.497765 224.317108 
" style="fill:#0000ff;"/>
    <path clip-path="url(#p49bf2b0256)" d="M 192.449306 210.787454 
L 193.521595 210.5864 
L 192.874737 209.733724 
L 197.84378 210.262971 
L 193.403984 212.556376 
L 193.69801 211.527284 
L 192.625722 211.728338 
L 192.449306 210.787454 
" style="fill:#0000ff;"/>
    <path clip-path="url(#p49bf2b0256)" d="M 192.386155 197.267619 
L 193.605721 196.861097 
L 192.848925 196.104301 
L 197.84378 195.952942 
L 193.75708 198.828767 
L 193.908439 197.769253 
L 192.688873 198.175775 
L 192.386155 197.267619 
" style="fill:#0000ff;"/>
    <path clip-path="url(#p49bf2b0256)" d="M 192.316414 183.760985 
L 193.802067 182.987208 
L 192.935354 182.359283 
L 197.84378 181.421818 
L 194.261955 184.906358 
L 194.244267 183.836233 
L 192.758614 184.61001 
L 192.316414 183.760985 
" style="fill:#0000ff;"/>
    <path clip-path="url(#p49bf2b0256)" d="M 192.25033 170.266387 
L 194.110388 168.871343 
L 193.153108 168.392703 
L 197.84378 166.669599 
L 194.876212 170.690175 
L 194.684756 169.637167 
L 192.824698 171.032211 
L 192.25033 170.266387 
" style="fill:#0000ff;"/>
    <path clip-path="url(#p49bf2b0256)" d="M 192.195594 156.778157 
L 194.487376 154.438629 
L 193.468592 154.110664 
L 197.84378 151.696286 
L 195.520116 156.12032 
L 195.171217 155.108514 
L 192.879435 157.448042 
L 192.195594 156.778157 
" style="fill:#0000ff;"/>
    <path clip-path="url(#p49bf2b0256)" d="M 192.154602 143.289716 
L 194.876212 139.660903 
L 193.823204 139.469447 
L 197.84378 136.501879 
L 196.120676 141.192551 
L 195.642036 140.235271 
L 192.920426 143.864084 
L 192.154602 143.289716 
" style="fill:#0000ff;"/>
    <path clip-path="url(#p49bf2b0256)" d="M 192.125744 129.79669 
L 195.235904 124.548295 
L 194.168352 124.472042 
L 197.84378 121.086378 
L 196.638972 125.936112 
L 196.059444 125.036319 
L 192.949284 130.284713 
L 192.125744 129.79669 
" style="fill:#0000ff;"/>
    <path clip-path="url(#p49bf2b0256)" d="M 192.106009 116.29738 
L 195.548174 109.126204 
L 194.478041 109.143464 
L 197.84378 105.449782 
L 197.067071 110.386199 
L 196.411184 109.540449 
L 192.969019 116.711625 
L 192.106009 116.29738 
" style="fill:#0000ff;"/>
    <path clip-path="url(#p49bf2b0256)" d="M 192.092603 102.791809 
L 195.810425 93.4198 
L 194.744108 93.511724 
L 197.84378 89.592091 
L 197.413576 94.570687 
L 196.700247 93.772788 
L 192.982426 103.144797 
L 192.092603 102.791809 
" style="fill:#0000ff;"/>
    <path clip-path="url(#p49bf2b0256)" d="M 192.083436 89.280745 
L 196.027469 77.448647 
L 194.967954 77.600006 
L 197.84378 73.513306 
L 197.692421 78.508162 
L 196.935625 77.751365 
L 192.991592 89.583463 
L 192.083436 89.280745 
" style="fill:#0000ff;"/>
    <path clip-path="url(#p49bf2b0256)" d="M 192.077085 75.765132 
L 196.206397 61.226514 
L 195.154766 61.425398 
L 197.84378 57.213427 
L 197.91734 62.210034 
L 197.127255 61.48806 
L 192.997943 76.026678 
L 192.077085 75.765132 
" style="fill:#0000ff;"/>
    <path clip-path="url(#p49bf2b0256)" d="M 192.072612 62.245852 
L 196.354197 44.762715 
L 195.31054 44.99991 
L 197.84378 40.692453 
L 198.09995 45.683031 
L 197.284 44.990422 
L 193.002416 62.473559 
L 192.072612 62.245852 
" style="fill:#0000ff;"/>
    <path clip-path="url(#p49bf2b0256)" d="M 206.073713 251.387853 
L 207.514408 251.387853 
L 207.035768 250.430573 
L 211.822168 251.866493 
L 207.035768 253.302413 
L 207.514408 252.345133 
L 206.073713 252.345133 
L 206.073713 251.387853 
" style="fill:#0000ff;"/>
    <path clip-path="url(#p49bf2b0256)" d="M 206.06451 237.851743 
L 207.506001 237.824022 
L 207.009044 236.876121 
L 211.822168 238.219747 
L 207.064262 239.747431 
L 207.524407 238.781125 
L 206.082916 238.808846 
L 206.06451 237.851743 
" style="fill:#0000ff;"/>
    <path clip-path="url(#p49bf2b0256)" d="M 206.037003 224.316865 
L 207.490387 224.205066 
L 206.939736 223.287316 
L 211.822168 224.351906 
L 207.159996 226.150697 
L 207.563807 225.159526 
L 206.110423 225.271325 
L 206.037003 224.316865 
" style="fill:#0000ff;"/>
    <path clip-path="url(#p49bf2b0256)" d="M 205.992085 210.786268 
L 207.495887 210.525994 
L 206.861003 209.664366 
L 211.822168 210.262971 
L 207.35077 212.494135 
L 207.659142 211.469251 
L 206.155341 211.729524 
L 205.992085 210.786268 
" style="fill:#0000ff;"/>
    <path clip-path="url(#p49bf2b0256)" d="M 205.932952 197.264223 
L 207.56414 196.762319 
L 206.825144 195.988132 
L 211.822168 195.952942 
L 207.669711 198.732976 
L 207.845663 197.677267 
L 206.214474 198.179171 
L 205.932952 197.264223 
" style="fill:#0000ff;"/>
    <path clip-path="url(#p49bf2b0256)" d="M 205.866321 183.754122 
L 207.732397 182.856971 
L 206.886237 182.201612 
L 211.822168 181.421818 
L 208.13059 184.789864 
L 208.147181 183.719721 
L 206.281105 184.616873 
L 205.866321 183.754122 
" style="fill:#0000ff;"/>
    <path clip-path="url(#p49bf2b0256)" d="M 205.801267 170.255765 
L 208.007915 168.728085 
L 207.069487 168.213464 
L 211.822168 166.669599 
L 208.704167 170.574668 
L 208.552808 169.515153 
L 206.34616 171.042833 
L 205.801267 170.255765 
" style="fill:#0000ff;"/>
    <path clip-path="url(#p49bf2b0256)" d="M 205.745461 156.764751 
L 208.358776 154.302204 
L 207.353923 153.933758 
L 211.822168 151.696286 
L 209.323434 156.023852 
L 209.01528 154.998902 
L 206.401965 157.461448 
L 205.745461 156.764751 
" style="fill:#0000ff;"/>
    <path clip-path="url(#p49bf2b0256)" d="M 205.702234 143.275074 
L 208.734247 139.543365 
L 207.689462 139.311191 
L 211.822168 136.501879 
L 209.918337 141.122152 
L 209.477206 140.147019 
L 206.445192 143.878727 
L 205.702234 143.275074 
" style="fill:#0000ff;"/>
    <path clip-path="url(#p49bf2b0256)" d="M 205.67093 129.782125 
L 209.092193 124.452849 
L 208.02805 124.338479 
L 211.822168 121.086378 
L 210.444749 125.88994 
L 209.89776 124.970003 
L 206.476496 130.299278 
L 205.67093 129.782125 
" style="fill:#0000ff;"/>
    <path clip-path="url(#p49bf2b0256)" d="M 205.649056 116.28368 
L 209.410114 109.050877 
L 208.339977 109.03389 
L 211.822168 105.449782 
L 210.887922 110.358822 
L 210.259429 109.49252 
L 206.498371 116.725324 
L 205.649056 116.28368 
" style="fill:#0000ff;"/>
    <path clip-path="url(#p49bf2b0256)" d="M 205.633962 102.779319 
L 209.68156 93.360869 
L 208.613073 93.422653 
L 211.822168 89.592091 
L 211.251582 94.556557 
L 210.561063 93.738838 
L 206.513465 103.157287 
L 205.633962 102.779319 
" style="fill:#0000ff;"/>
    <path clip-path="url(#p49bf2b0256)" d="M 205.623527 89.269537 
L 209.908874 77.402419 
L 208.845934 77.527471 
L 211.822168 73.513306 
L 211.547054 78.502876 
L 210.809248 77.727554 
L 206.5239 89.594671 
L 205.623527 89.269537 
" style="fill:#0000ff;"/>
    <path clip-path="url(#p49bf2b0256)" d="M 205.616239 75.755144 
L 210.097843 61.189932 
L 209.042133 61.365884 
L 211.822168 57.213427 
L 211.786978 62.210451 
L 211.012791 61.471455 
L 206.531187 76.036666 
L 205.616239 75.755144 
" style="fill:#0000ff;"/>
    <path clip-path="url(#p49bf2b0256)" d="M 205.611078 62.236966 
L 210.254874 44.733429 
L 209.206864 44.950584 
L 211.822168 40.692453 
L 211.982674 45.687023 
L 211.180144 44.978908 
L 206.536348 62.482446 
L 205.611078 62.236966 
" style="fill:#0000ff;"/>
    <path clip-path="url(#p49bf2b0256)" d="M 219.609912 251.387853 
L 221.492796 251.387853 
L 221.014156 250.430573 
L 225.800556 251.866493 
L 221.014156 253.302413 
L 221.492796 252.345133 
L 219.609912 252.345133 
L 219.609912 251.387853 
" style="fill:#0000ff;"/>
    <path clip-path="url(#p49bf2b0256)" d="M 219.601367 237.85173 
L 221.484937 237.818095 
L 220.989282 236.869514 
L 225.800556 238.219747 
L 221.040556 239.740896 
L 221.502028 238.775223 
L 219.618458 238.808858 
L 219.601367 237.85173 
" style="fill:#0000ff;"/>
    <path clip-path="url(#p49bf2b0256)" d="M 219.575811 224.316671 
L 221.469642 224.181398 
L 220.924015 223.260652 
L 225.800556 224.351906 
L 221.128625 226.125194 
L 221.537845 225.136245 
L 219.644014 225.271519 
L 219.575811 224.316671 
" style="fill:#0000ff;"/>
    <path clip-path="url(#p49bf2b0256)" d="M 219.533963 210.78532 
L 221.471424 210.473942 
L 220.846949 209.60474 
L 225.800556 210.262971 
L 221.302647 212.440195 
L 221.623323 211.419094 
L 219.685862 211.730472 
L 219.533963 210.78532 
" style="fill:#0000ff;"/>
    <path clip-path="url(#p49bf2b0256)" d="M 219.47842 197.261473 
L 221.527049 196.67615 
L 220.80384 195.887195 
L 225.800556 195.952942 
L 221.592795 198.648538 
L 221.790034 197.596598 
L 219.741405 198.181921 
L 219.47842 197.261473 
" style="fill:#0000ff;"/>
    <path clip-path="url(#p49bf2b0256)" d="M 219.414794 183.748433 
L 221.671859 182.740815 
L 220.844559 182.061805 
L 225.800556 181.421818 
L 222.015267 184.68419 
L 222.062095 183.614944 
L 219.80503 184.622562 
L 219.414794 183.748433 
" style="fill:#0000ff;"/>
    <path clip-path="url(#p49bf2b0256)" d="M 219.351084 170.246677 
L 221.918133 168.596431 
L 220.997855 168.050016 
L 225.800556 166.669599 
L 222.550824 170.465746 
L 222.435789 169.401675 
L 219.868741 171.05192 
L 219.351084 170.246677 
" style="fill:#0000ff;"/>
    <path clip-path="url(#p49bf2b0256)" d="M 219.294726 156.752886 
L 222.24345 154.172753 
L 221.252863 153.767513 
L 225.800556 151.696286 
L 223.143983 155.928793 
L 222.873823 154.89318 
L 219.925099 157.473313 
L 219.294726 156.752886 
" style="fill:#0000ff;"/>
    <path clip-path="url(#p49bf2b0256)" d="M 219.249699 143.261714 
L 222.603663 139.428612 
L 221.56805 139.158452 
L 225.800556 136.501879 
L 223.729329 141.049572 
L 223.324089 140.058986 
L 219.970126 143.892087 
L 219.249699 143.261714 
" style="fill:#0000ff;"/>
    <path clip-path="url(#p49bf2b0256)" d="M 219.216203 129.768508 
L 222.957102 124.357564 
L 221.89749 124.206886 
L 225.800556 121.086378 
L 224.259744 125.840049 
L 223.74452 124.901952 
L 220.003621 130.312895 
L 219.216203 129.768508 
" style="fill:#0000ff;"/>
    <path clip-path="url(#p49bf2b0256)" d="M 219.192296 116.270637 
L 223.278154 108.974463 
L 222.209056 108.924349 
L 225.800556 105.449782 
L 224.714754 110.32754 
L 224.113386 109.442193 
L 220.027529 116.738367 
L 219.192296 116.270637 
" style="fill:#0000ff;"/>
    <path clip-path="url(#p49bf2b0256)" d="M 219.175537 102.76727 
L 223.556882 93.300436 
L 222.487098 93.332744 
L 225.800556 89.592091 
L 225.09335 94.538944 
L 224.425632 93.702502 
L 220.044288 103.169336 
L 219.175537 102.76727 
" style="fill:#0000ff;"/>
    <path clip-path="url(#p49bf2b0256)" d="M 219.163818 89.258623 
L 223.79313 77.354677 
L 222.727459 77.45381 
L 225.800556 73.513306 
L 225.404027 78.494697 
L 224.685319 77.70164 
L 220.056007 89.605585 
L 219.163818 89.258623 
" style="fill:#0000ff;"/>
    <path clip-path="url(#p49bf2b0256)" d="M 219.155566 75.745352 
L 223.991238 61.151988 
L 222.931993 61.305228 
L 225.800556 57.213427 
L 225.658069 62.208543 
L 224.899929 61.453093 
L 220.064258 76.046457 
L 219.155566 75.745352 
" style="fill:#0000ff;"/>
    <path clip-path="url(#p49bf2b0256)" d="M 219.149689 62.228213 
L 224.156899 44.702975 
L 223.104959 44.900214 
L 225.800556 40.692453 
L 225.866302 45.689169 
L 225.077347 44.96596 
L 220.070136 62.491198 
L 219.149689 62.228213 
" style="fill:#0000ff;"/>
   </g>
   <g id="matplotlib.axis_1">
    <g id="xtick_1">
     <g id="line2d_1">
      <defs>
       <path d="M 0 0 
L 0 3.5 
" id="m78e8c33d83" style="stroke:#000000;stroke-width:0.8;"/>
      </defs>
      <g>
       <use style="stroke:#000000;stroke-width:0.8;" x="30.103125" xlink:href="#m78e8c33d83" y="251.866493"/>
      </g>
     </g>
    </g>
    <g id="xtick_2">
     <g id="line2d_2">
      <g>
       <use style="stroke:#000000;stroke-width:0.8;" x="57.175523" xlink:href="#m78e8c33d83" y="251.866493"/>
      </g>
     </g>
     <g id="text_1">
      <!-- 0.5 -->
      <defs>
       <path d="M 31.78125 66.40625 
Q 24.171875 66.40625 20.328125 58.90625 
Q 16.5 51.421875 16.5 36.375 
Q 16.5 21.390625 20.328125 13.890625 
Q 24.171875 6.390625 31.78125 6.390625 
Q 39.453125 6.390625 43.28125 13.890625 
Q 47.125 21.390625 47.125 36.375 
Q 47.125 51.421875 43.28125 58.90625 
Q 39.453125 66.40625 31.78125 66.40625 
z
M 31.78125 74.21875 
Q 44.046875 74.21875 50.515625 64.515625 
Q 56.984375 54.828125 56.984375 36.375 
Q 56.984375 17.96875 50.515625 8.265625 
Q 44.046875 -1.421875 31.78125 -1.421875 
Q 19.53125 -1.421875 13.0625 8.265625 
Q 6.59375 17.96875 6.59375 36.375 
Q 6.59375 54.828125 13.0625 64.515625 
Q 19.53125 74.21875 31.78125 74.21875 
z
" id="DejaVuSans-30"/>
       <path d="M 10.6875 12.40625 
L 21 12.40625 
L 21 0 
L 10.6875 0 
z
" id="DejaVuSans-2e"/>
       <path d="M 10.796875 72.90625 
L 49.515625 72.90625 
L 49.515625 64.59375 
L 19.828125 64.59375 
L 19.828125 46.734375 
Q 21.96875 47.46875 24.109375 47.828125 
Q 26.265625 48.1875 28.421875 48.1875 
Q 40.625 48.1875 47.75 41.5 
Q 54.890625 34.8125 54.890625 23.390625 
Q 54.890625 11.625 47.5625 5.09375 
Q 40.234375 -1.421875 26.90625 -1.421875 
Q 22.3125 -1.421875 17.546875 -0.640625 
Q 12.796875 0.140625 7.71875 1.703125 
L 7.71875 11.625 
Q 12.109375 9.234375 16.796875 8.0625 
Q 21.484375 6.890625 26.703125 6.890625 
Q 35.15625 6.890625 40.078125 11.328125 
Q 45.015625 15.765625 45.015625 23.390625 
Q 45.015625 31 40.078125 35.4375 
Q 35.15625 39.890625 26.703125 39.890625 
Q 22.75 39.890625 18.8125 39.015625 
Q 14.890625 38.140625 10.796875 36.28125 
z
" id="DejaVuSans-35"/>
      </defs>
      <g transform="translate(49.223961 266.464931)scale(0.1 -0.1)">
       <use xlink:href="#DejaVuSans-30"/>
       <use x="63.623047" xlink:href="#DejaVuSans-2e"/>
       <use x="95.410156" xlink:href="#DejaVuSans-35"/>
      </g>
     </g>
    </g>
    <g id="xtick_3">
     <g id="line2d_3">
      <g>
       <use style="stroke:#000000;stroke-width:0.8;" x="84.247921" xlink:href="#m78e8c33d83" y="251.866493"/>
      </g>
     </g>
     <g id="text_2">
      <!-- 1 -->
      <defs>
       <path d="M 12.40625 8.296875 
L 28.515625 8.296875 
L 28.515625 63.921875 
L 10.984375 60.40625 
L 10.984375 69.390625 
L 28.421875 72.90625 
L 38.28125 72.90625 
L 38.28125 8.296875 
L 54.390625 8.296875 
L 54.390625 0 
L 12.40625 0 
z
" id="DejaVuSans-31"/>
      </defs>
      <g transform="translate(81.066671 266.464931)scale(0.1 -0.1)">
       <use xlink:href="#DejaVuSans-31"/>
      </g>
     </g>
    </g>
    <g id="xtick_4">
     <g id="line2d_4">
      <g>
       <use style="stroke:#000000;stroke-width:0.8;" x="111.32032" xlink:href="#m78e8c33d83" y="251.866493"/>
      </g>
     </g>
     <g id="text_3">
      <!-- 1.5 -->
      <g transform="translate(103.368757 266.464931)scale(0.1 -0.1)">
       <use xlink:href="#DejaVuSans-31"/>
       <use x="63.623047" xlink:href="#DejaVuSans-2e"/>
       <use x="95.410156" xlink:href="#DejaVuSans-35"/>
      </g>
     </g>
    </g>
    <g id="xtick_5">
     <g id="line2d_5">
      <g>
       <use style="stroke:#000000;stroke-width:0.8;" x="138.392718" xlink:href="#m78e8c33d83" y="251.866493"/>
      </g>
     </g>
     <g id="text_4">
      <!-- 2 -->
      <defs>
       <path d="M 19.1875 8.296875 
L 53.609375 8.296875 
L 53.609375 0 
L 7.328125 0 
L 7.328125 8.296875 
Q 12.9375 14.109375 22.625 23.890625 
Q 32.328125 33.6875 34.8125 36.53125 
Q 39.546875 41.84375 41.421875 45.53125 
Q 43.3125 49.21875 43.3125 52.78125 
Q 43.3125 58.59375 39.234375 62.25 
Q 35.15625 65.921875 28.609375 65.921875 
Q 23.96875 65.921875 18.8125 64.3125 
Q 13.671875 62.703125 7.8125 59.421875 
L 7.8125 69.390625 
Q 13.765625 71.78125 18.9375 73 
Q 24.125 74.21875 28.421875 74.21875 
Q 39.75 74.21875 46.484375 68.546875 
Q 53.21875 62.890625 53.21875 53.421875 
Q 53.21875 48.921875 51.53125 44.890625 
Q 49.859375 40.875 45.40625 35.40625 
Q 44.1875 33.984375 37.640625 27.21875 
Q 31.109375 20.453125 19.1875 8.296875 
z
" id="DejaVuSans-32"/>
      </defs>
      <g transform="translate(135.211468 266.464931)scale(0.1 -0.1)">
       <use xlink:href="#DejaVuSans-32"/>
      </g>
     </g>
    </g>
    <g id="xtick_6">
     <g id="line2d_6">
      <g>
       <use style="stroke:#000000;stroke-width:0.8;" x="165.465116" xlink:href="#m78e8c33d83" y="251.866493"/>
      </g>
     </g>
     <g id="text_5">
      <!-- 2.5 -->
      <g transform="translate(157.513553 266.464931)scale(0.1 -0.1)">
       <use xlink:href="#DejaVuSans-32"/>
       <use x="63.623047" xlink:href="#DejaVuSans-2e"/>
       <use x="95.410156" xlink:href="#DejaVuSans-35"/>
      </g>
     </g>
    </g>
    <g id="xtick_7">
     <g id="line2d_7">
      <g>
       <use style="stroke:#000000;stroke-width:0.8;" x="192.537514" xlink:href="#m78e8c33d83" y="251.866493"/>
      </g>
     </g>
     <g id="text_6">
      <!-- 3 -->
      <defs>
       <path d="M 40.578125 39.3125 
Q 47.65625 37.796875 51.625 33 
Q 55.609375 28.21875 55.609375 21.1875 
Q 55.609375 10.40625 48.1875 4.484375 
Q 40.765625 -1.421875 27.09375 -1.421875 
Q 22.515625 -1.421875 17.65625 -0.515625 
Q 12.796875 0.390625 7.625 2.203125 
L 7.625 11.71875 
Q 11.71875 9.328125 16.59375 8.109375 
Q 21.484375 6.890625 26.8125 6.890625 
Q 36.078125 6.890625 40.9375 10.546875 
Q 45.796875 14.203125 45.796875 21.1875 
Q 45.796875 27.640625 41.28125 31.265625 
Q 36.765625 34.90625 28.71875 34.90625 
L 20.21875 34.90625 
L 20.21875 43.015625 
L 29.109375 43.015625 
Q 36.375 43.015625 40.234375 45.921875 
Q 44.09375 48.828125 44.09375 54.296875 
Q 44.09375 59.90625 40.109375 62.90625 
Q 36.140625 65.921875 28.71875 65.921875 
Q 24.65625 65.921875 20.015625 65.03125 
Q 15.375 64.15625 9.8125 62.3125 
L 9.8125 71.09375 
Q 15.4375 72.65625 20.34375 73.4375 
Q 25.25 74.21875 29.59375 74.21875 
Q 40.828125 74.21875 47.359375 69.109375 
Q 53.90625 64.015625 53.90625 55.328125 
Q 53.90625 49.265625 50.4375 45.09375 
Q 46.96875 40.921875 40.578125 39.3125 
z
" id="DejaVuSans-33"/>
      </defs>
      <g transform="translate(189.356264 266.464931)scale(0.1 -0.1)">
       <use xlink:href="#DejaVuSans-33"/>
      </g>
     </g>
    </g>
    <g id="xtick_8">
     <g id="line2d_8">
      <g>
       <use style="stroke:#000000;stroke-width:0.8;" x="219.609912" xlink:href="#m78e8c33d83" y="251.866493"/>
      </g>
     </g>
     <g id="text_7">
      <!-- 3.5 -->
      <g transform="translate(211.65835 266.464931)scale(0.1 -0.1)">
       <use xlink:href="#DejaVuSans-33"/>
       <use x="63.623047" xlink:href="#DejaVuSans-2e"/>
       <use x="95.410156" xlink:href="#DejaVuSans-35"/>
      </g>
     </g>
    </g>
    <g id="xtick_9">
     <g id="line2d_9">
      <g>
       <use style="stroke:#000000;stroke-width:0.8;" x="246.682311" xlink:href="#m78e8c33d83" y="251.866493"/>
      </g>
     </g>
     <g id="text_8">
      <!-- 4 -->
      <defs>
       <path d="M 37.796875 64.3125 
L 12.890625 25.390625 
L 37.796875 25.390625 
z
M 35.203125 72.90625 
L 47.609375 72.90625 
L 47.609375 25.390625 
L 58.015625 25.390625 
L 58.015625 17.1875 
L 47.609375 17.1875 
L 47.609375 0 
L 37.796875 0 
L 37.796875 17.1875 
L 4.890625 17.1875 
L 4.890625 26.703125 
z
" id="DejaVuSans-34"/>
      </defs>
      <g transform="translate(243.501061 266.464931)scale(0.1 -0.1)">
       <use xlink:href="#DejaVuSans-34"/>
      </g>
     </g>
    </g>
    <g id="xtick_10">
     <g id="line2d_10">
      <defs>
       <path d="M 0 0 
L 0 2 
" id="m6ff0fecb8b" style="stroke:#000000;stroke-width:0.6;"/>
      </defs>
      <g>
       <use style="stroke:#000000;stroke-width:0.6;" x="13.859686" xlink:href="#m6ff0fecb8b" y="251.866493"/>
      </g>
     </g>
    </g>
    <g id="xtick_11">
     <g id="line2d_11">
      <g>
       <use style="stroke:#000000;stroke-width:0.6;" x="19.274166" xlink:href="#m6ff0fecb8b" y="251.866493"/>
      </g>
     </g>
    </g>
    <g id="xtick_12">
     <g id="line2d_12">
      <g>
       <use style="stroke:#000000;stroke-width:0.6;" x="24.688645" xlink:href="#m6ff0fecb8b" y="251.866493"/>
      </g>
     </g>
    </g>
    <g id="xtick_13">
     <g id="line2d_13">
      <g>
       <use style="stroke:#000000;stroke-width:0.6;" x="35.517605" xlink:href="#m6ff0fecb8b" y="251.866493"/>
      </g>
     </g>
    </g>
    <g id="xtick_14">
     <g id="line2d_14">
      <g>
       <use style="stroke:#000000;stroke-width:0.6;" x="40.932084" xlink:href="#m6ff0fecb8b" y="251.866493"/>
      </g>
     </g>
    </g>
    <g id="xtick_15">
     <g id="line2d_15">
      <g>
       <use style="stroke:#000000;stroke-width:0.6;" x="46.346564" xlink:href="#m6ff0fecb8b" y="251.866493"/>
      </g>
     </g>
    </g>
    <g id="xtick_16">
     <g id="line2d_16">
      <g>
       <use style="stroke:#000000;stroke-width:0.6;" x="51.761044" xlink:href="#m6ff0fecb8b" y="251.866493"/>
      </g>
     </g>
    </g>
    <g id="xtick_17">
     <g id="line2d_17">
      <g>
       <use style="stroke:#000000;stroke-width:0.6;" x="62.590003" xlink:href="#m6ff0fecb8b" y="251.866493"/>
      </g>
     </g>
    </g>
    <g id="xtick_18">
     <g id="line2d_18">
      <g>
       <use style="stroke:#000000;stroke-width:0.6;" x="68.004482" xlink:href="#m6ff0fecb8b" y="251.866493"/>
      </g>
     </g>
    </g>
    <g id="xtick_19">
     <g id="line2d_19">
      <g>
       <use style="stroke:#000000;stroke-width:0.6;" x="73.418962" xlink:href="#m6ff0fecb8b" y="251.866493"/>
      </g>
     </g>
    </g>
    <g id="xtick_20">
     <g id="line2d_20">
      <g>
       <use style="stroke:#000000;stroke-width:0.6;" x="78.833442" xlink:href="#m6ff0fecb8b" y="251.866493"/>
      </g>
     </g>
    </g>
    <g id="xtick_21">
     <g id="line2d_21">
      <g>
       <use style="stroke:#000000;stroke-width:0.6;" x="89.662401" xlink:href="#m6ff0fecb8b" y="251.866493"/>
      </g>
     </g>
    </g>
    <g id="xtick_22">
     <g id="line2d_22">
      <g>
       <use style="stroke:#000000;stroke-width:0.6;" x="95.076881" xlink:href="#m6ff0fecb8b" y="251.866493"/>
      </g>
     </g>
    </g>
    <g id="xtick_23">
     <g id="line2d_23">
      <g>
       <use style="stroke:#000000;stroke-width:0.6;" x="100.49136" xlink:href="#m6ff0fecb8b" y="251.866493"/>
      </g>
     </g>
    </g>
    <g id="xtick_24">
     <g id="line2d_24">
      <g>
       <use style="stroke:#000000;stroke-width:0.6;" x="105.90584" xlink:href="#m6ff0fecb8b" y="251.866493"/>
      </g>
     </g>
    </g>
    <g id="xtick_25">
     <g id="line2d_25">
      <g>
       <use style="stroke:#000000;stroke-width:0.6;" x="116.734799" xlink:href="#m6ff0fecb8b" y="251.866493"/>
      </g>
     </g>
    </g>
    <g id="xtick_26">
     <g id="line2d_26">
      <g>
       <use style="stroke:#000000;stroke-width:0.6;" x="122.149279" xlink:href="#m6ff0fecb8b" y="251.866493"/>
      </g>
     </g>
    </g>
    <g id="xtick_27">
     <g id="line2d_27">
      <g>
       <use style="stroke:#000000;stroke-width:0.6;" x="127.563758" xlink:href="#m6ff0fecb8b" y="251.866493"/>
      </g>
     </g>
    </g>
    <g id="xtick_28">
     <g id="line2d_28">
      <g>
       <use style="stroke:#000000;stroke-width:0.6;" x="132.978238" xlink:href="#m6ff0fecb8b" y="251.866493"/>
      </g>
     </g>
    </g>
    <g id="xtick_29">
     <g id="line2d_29">
      <g>
       <use style="stroke:#000000;stroke-width:0.6;" x="143.807197" xlink:href="#m6ff0fecb8b" y="251.866493"/>
      </g>
     </g>
    </g>
    <g id="xtick_30">
     <g id="line2d_30">
      <g>
       <use style="stroke:#000000;stroke-width:0.6;" x="149.221677" xlink:href="#m6ff0fecb8b" y="251.866493"/>
      </g>
     </g>
    </g>
    <g id="xtick_31">
     <g id="line2d_31">
      <g>
       <use style="stroke:#000000;stroke-width:0.6;" x="154.636157" xlink:href="#m6ff0fecb8b" y="251.866493"/>
      </g>
     </g>
    </g>
    <g id="xtick_32">
     <g id="line2d_32">
      <g>
       <use style="stroke:#000000;stroke-width:0.6;" x="160.050636" xlink:href="#m6ff0fecb8b" y="251.866493"/>
      </g>
     </g>
    </g>
    <g id="xtick_33">
     <g id="line2d_33">
      <g>
       <use style="stroke:#000000;stroke-width:0.6;" x="170.879596" xlink:href="#m6ff0fecb8b" y="251.866493"/>
      </g>
     </g>
    </g>
    <g id="xtick_34">
     <g id="line2d_34">
      <g>
       <use style="stroke:#000000;stroke-width:0.6;" x="176.294075" xlink:href="#m6ff0fecb8b" y="251.866493"/>
      </g>
     </g>
    </g>
    <g id="xtick_35">
     <g id="line2d_35">
      <g>
       <use style="stroke:#000000;stroke-width:0.6;" x="181.708555" xlink:href="#m6ff0fecb8b" y="251.866493"/>
      </g>
     </g>
    </g>
    <g id="xtick_36">
     <g id="line2d_36">
      <g>
       <use style="stroke:#000000;stroke-width:0.6;" x="187.123035" xlink:href="#m6ff0fecb8b" y="251.866493"/>
      </g>
     </g>
    </g>
    <g id="xtick_37">
     <g id="line2d_37">
      <g>
       <use style="stroke:#000000;stroke-width:0.6;" x="197.951994" xlink:href="#m6ff0fecb8b" y="251.866493"/>
      </g>
     </g>
    </g>
    <g id="xtick_38">
     <g id="line2d_38">
      <g>
       <use style="stroke:#000000;stroke-width:0.6;" x="203.366473" xlink:href="#m6ff0fecb8b" y="251.866493"/>
      </g>
     </g>
    </g>
    <g id="xtick_39">
     <g id="line2d_39">
      <g>
       <use style="stroke:#000000;stroke-width:0.6;" x="208.780953" xlink:href="#m6ff0fecb8b" y="251.866493"/>
      </g>
     </g>
    </g>
    <g id="xtick_40">
     <g id="line2d_40">
      <g>
       <use style="stroke:#000000;stroke-width:0.6;" x="214.195433" xlink:href="#m6ff0fecb8b" y="251.866493"/>
      </g>
     </g>
    </g>
    <g id="xtick_41">
     <g id="line2d_41">
      <g>
       <use style="stroke:#000000;stroke-width:0.6;" x="225.024392" xlink:href="#m6ff0fecb8b" y="251.866493"/>
      </g>
     </g>
    </g>
    <g id="xtick_42">
     <g id="line2d_42">
      <g>
       <use style="stroke:#000000;stroke-width:0.6;" x="230.438872" xlink:href="#m6ff0fecb8b" y="251.866493"/>
      </g>
     </g>
    </g>
    <g id="xtick_43">
     <g id="line2d_43">
      <g>
       <use style="stroke:#000000;stroke-width:0.6;" x="235.853351" xlink:href="#m6ff0fecb8b" y="251.866493"/>
      </g>
     </g>
    </g>
    <g id="xtick_44">
     <g id="line2d_44">
      <g>
       <use style="stroke:#000000;stroke-width:0.6;" x="241.267831" xlink:href="#m6ff0fecb8b" y="251.866493"/>
      </g>
     </g>
    </g>
    <g id="text_9">
     <!-- $x$ -->
     <defs>
      <path d="M 7.8125 2.875 
Q 9.578125 1.515625 12.796875 1.515625 
Q 15.921875 1.515625 18.3125 4.515625 
Q 20.703125 7.515625 21.578125 11.078125 
L 26.125 28.8125 
Q 27.203125 33.640625 27.203125 35.40625 
Q 27.203125 37.890625 25.8125 39.75 
Q 24.421875 41.609375 21.921875 41.609375 
Q 18.75 41.609375 15.96875 39.625 
Q 13.1875 37.640625 11.28125 34.59375 
Q 9.375 31.546875 8.59375 28.421875 
Q 8.40625 27.78125 7.8125 27.78125 
L 6.59375 27.78125 
Q 5.8125 27.78125 5.8125 28.71875 
L 5.8125 29 
Q 6.78125 32.71875 9.125 36.25 
Q 11.46875 39.796875 14.859375 41.984375 
Q 18.265625 44.1875 22.125 44.1875 
Q 25.78125 44.1875 28.734375 42.234375 
Q 31.6875 40.28125 32.90625 36.921875 
Q 34.625 39.984375 37.28125 42.078125 
Q 39.9375 44.1875 43.109375 44.1875 
Q 45.265625 44.1875 47.5 43.421875 
Q 49.75 42.671875 51.171875 41.109375 
Q 52.59375 39.546875 52.59375 37.203125 
Q 52.59375 34.671875 50.953125 32.828125 
Q 49.3125 31 46.78125 31 
Q 45.171875 31 44.09375 32.03125 
Q 43.015625 33.0625 43.015625 34.625 
Q 43.015625 36.71875 44.453125 38.296875 
Q 45.90625 39.890625 47.90625 40.1875 
Q 46.09375 41.609375 42.921875 41.609375 
Q 39.703125 41.609375 37.328125 38.625 
Q 34.96875 35.640625 33.984375 31.984375 
L 29.59375 14.3125 
Q 28.515625 10.296875 28.515625 7.71875 
Q 28.515625 5.171875 29.953125 3.34375 
Q 31.390625 1.515625 33.796875 1.515625 
Q 38.484375 1.515625 42.15625 5.640625 
Q 45.84375 9.765625 47.015625 14.703125 
Q 47.21875 15.28125 47.796875 15.28125 
L 49.03125 15.28125 
Q 49.421875 15.28125 49.65625 15.015625 
Q 49.90625 14.75 49.90625 14.40625 
Q 49.90625 14.3125 49.8125 14.109375 
Q 48.390625 8.15625 43.84375 3.515625 
Q 39.3125 -1.125 33.59375 -1.125 
Q 29.9375 -1.125 26.984375 0.84375 
Q 24.03125 2.828125 22.796875 6.203125 
Q 21.234375 3.265625 18.46875 1.0625 
Q 15.71875 -1.125 12.59375 -1.125 
Q 10.453125 -1.125 8.171875 -0.359375 
Q 5.90625 0.390625 4.484375 1.953125 
Q 3.078125 3.515625 3.078125 5.90625 
Q 3.078125 8.25 4.703125 10.171875 
Q 6.34375 12.109375 8.796875 12.109375 
Q 10.453125 12.109375 11.578125 11.109375 
Q 12.703125 10.109375 12.703125 8.5 
Q 12.703125 6.390625 11.296875 4.828125 
Q 9.90625 3.265625 7.8125 2.875 
z
" id="Cmmi10-78"/>
     </defs>
     <g transform="translate(259.284618 251.866493)scale(0.16 -0.16)">
      <use transform="translate(0 0.8125)" xlink:href="#Cmmi10-78"/>
     </g>
    </g>
   </g>
   <g id="matplotlib.axis_2">
    <g id="ytick_1">
     <g id="line2d_45">
      <defs>
       <path d="M 0 0 
L -3.5 0 
" id="mcb39f62ff3" style="stroke:#000000;stroke-width:0.8;"/>
      </defs>
      <g>
       <use style="stroke:#000000;stroke-width:0.8;" x="30.103125" xlink:href="#mcb39f62ff3" y="251.866493"/>
      </g>
     </g>
    </g>
    <g id="ytick_2">
     <g id="line2d_46">
      <g>
       <use style="stroke:#000000;stroke-width:0.8;" x="30.103125" xlink:href="#mcb39f62ff3" y="224.794095"/>
      </g>
     </g>
     <g id="text_10">
      <!-- 0.5 -->
      <g transform="translate(7.2 228.593314)scale(0.1 -0.1)">
       <use xlink:href="#DejaVuSans-30"/>
       <use x="63.623047" xlink:href="#DejaVuSans-2e"/>
       <use x="95.410156" xlink:href="#DejaVuSans-35"/>
      </g>
     </g>
    </g>
    <g id="ytick_3">
     <g id="line2d_47">
      <g>
       <use style="stroke:#000000;stroke-width:0.8;" x="30.103125" xlink:href="#mcb39f62ff3" y="197.721697"/>
      </g>
     </g>
     <g id="text_11">
      <!-- 1 -->
      <g transform="translate(16.740625 201.520916)scale(0.1 -0.1)">
       <use xlink:href="#DejaVuSans-31"/>
      </g>
     </g>
    </g>
    <g id="ytick_4">
     <g id="line2d_48">
      <g>
       <use style="stroke:#000000;stroke-width:0.8;" x="30.103125" xlink:href="#mcb39f62ff3" y="170.649299"/>
      </g>
     </g>
     <g id="text_12">
      <!-- 1.5 -->
      <g transform="translate(7.2 174.448517)scale(0.1 -0.1)">
       <use xlink:href="#DejaVuSans-31"/>
       <use x="63.623047" xlink:href="#DejaVuSans-2e"/>
       <use x="95.410156" xlink:href="#DejaVuSans-35"/>
      </g>
     </g>
    </g>
    <g id="ytick_5">
     <g id="line2d_49">
      <g>
       <use style="stroke:#000000;stroke-width:0.8;" x="30.103125" xlink:href="#mcb39f62ff3" y="143.5769"/>
      </g>
     </g>
     <g id="text_13">
      <!-- 2 -->
      <g transform="translate(16.740625 147.376119)scale(0.1 -0.1)">
       <use xlink:href="#DejaVuSans-32"/>
      </g>
     </g>
    </g>
    <g id="ytick_6">
     <g id="line2d_50">
      <g>
       <use style="stroke:#000000;stroke-width:0.8;" x="30.103125" xlink:href="#mcb39f62ff3" y="116.504502"/>
      </g>
     </g>
     <g id="text_14">
      <!-- 2.5 -->
      <g transform="translate(7.2 120.303721)scale(0.1 -0.1)">
       <use xlink:href="#DejaVuSans-32"/>
       <use x="63.623047" xlink:href="#DejaVuSans-2e"/>
       <use x="95.410156" xlink:href="#DejaVuSans-35"/>
      </g>
     </g>
    </g>
    <g id="ytick_7">
     <g id="line2d_51">
      <g>
       <use style="stroke:#000000;stroke-width:0.8;" x="30.103125" xlink:href="#mcb39f62ff3" y="89.432104"/>
      </g>
     </g>
     <g id="text_15">
      <!-- 3 -->
      <g transform="translate(16.740625 93.231323)scale(0.1 -0.1)">
       <use xlink:href="#DejaVuSans-33"/>
      </g>
     </g>
    </g>
    <g id="ytick_8">
     <g id="line2d_52">
      <g>
       <use style="stroke:#000000;stroke-width:0.8;" x="30.103125" xlink:href="#mcb39f62ff3" y="62.359706"/>
      </g>
     </g>
     <g id="text_16">
      <!-- 3.5 -->
      <g transform="translate(7.2 66.158925)scale(0.1 -0.1)">
       <use xlink:href="#DejaVuSans-33"/>
       <use x="63.623047" xlink:href="#DejaVuSans-2e"/>
       <use x="95.410156" xlink:href="#DejaVuSans-35"/>
      </g>
     </g>
    </g>
    <g id="ytick_9">
     <g id="line2d_53">
      <g>
       <use style="stroke:#000000;stroke-width:0.8;" x="30.103125" xlink:href="#mcb39f62ff3" y="35.287308"/>
      </g>
     </g>
     <g id="text_17">
      <!-- 4 -->
      <g transform="translate(16.740625 39.086526)scale(0.1 -0.1)">
       <use xlink:href="#DejaVuSans-34"/>
      </g>
     </g>
    </g>
    <g id="ytick_10">
     <g id="line2d_54">
      <defs>
       <path d="M 0 0 
L -2 0 
" id="m422543721a" style="stroke:#000000;stroke-width:0.6;"/>
      </defs>
      <g>
       <use style="stroke:#000000;stroke-width:0.6;" x="30.103125" xlink:href="#m422543721a" y="268.109932"/>
      </g>
     </g>
    </g>
    <g id="ytick_11">
     <g id="line2d_55">
      <g>
       <use style="stroke:#000000;stroke-width:0.6;" x="30.103125" xlink:href="#m422543721a" y="262.695452"/>
      </g>
     </g>
    </g>
    <g id="ytick_12">
     <g id="line2d_56">
      <g>
       <use style="stroke:#000000;stroke-width:0.6;" x="30.103125" xlink:href="#m422543721a" y="257.280973"/>
      </g>
     </g>
    </g>
    <g id="ytick_13">
     <g id="line2d_57">
      <g>
       <use style="stroke:#000000;stroke-width:0.6;" x="30.103125" xlink:href="#m422543721a" y="246.452014"/>
      </g>
     </g>
    </g>
    <g id="ytick_14">
     <g id="line2d_58">
      <g>
       <use style="stroke:#000000;stroke-width:0.6;" x="30.103125" xlink:href="#m422543721a" y="241.037534"/>
      </g>
     </g>
    </g>
    <g id="ytick_15">
     <g id="line2d_59">
      <g>
       <use style="stroke:#000000;stroke-width:0.6;" x="30.103125" xlink:href="#m422543721a" y="235.623054"/>
      </g>
     </g>
    </g>
    <g id="ytick_16">
     <g id="line2d_60">
      <g>
       <use style="stroke:#000000;stroke-width:0.6;" x="30.103125" xlink:href="#m422543721a" y="230.208575"/>
      </g>
     </g>
    </g>
    <g id="ytick_17">
     <g id="line2d_61">
      <g>
       <use style="stroke:#000000;stroke-width:0.6;" x="30.103125" xlink:href="#m422543721a" y="219.379615"/>
      </g>
     </g>
    </g>
    <g id="ytick_18">
     <g id="line2d_62">
      <g>
       <use style="stroke:#000000;stroke-width:0.6;" x="30.103125" xlink:href="#m422543721a" y="213.965136"/>
      </g>
     </g>
    </g>
    <g id="ytick_19">
     <g id="line2d_63">
      <g>
       <use style="stroke:#000000;stroke-width:0.6;" x="30.103125" xlink:href="#m422543721a" y="208.550656"/>
      </g>
     </g>
    </g>
    <g id="ytick_20">
     <g id="line2d_64">
      <g>
       <use style="stroke:#000000;stroke-width:0.6;" x="30.103125" xlink:href="#m422543721a" y="203.136176"/>
      </g>
     </g>
    </g>
    <g id="ytick_21">
     <g id="line2d_65">
      <g>
       <use style="stroke:#000000;stroke-width:0.6;" x="30.103125" xlink:href="#m422543721a" y="192.307217"/>
      </g>
     </g>
    </g>
    <g id="ytick_22">
     <g id="line2d_66">
      <g>
       <use style="stroke:#000000;stroke-width:0.6;" x="30.103125" xlink:href="#m422543721a" y="186.892738"/>
      </g>
     </g>
    </g>
    <g id="ytick_23">
     <g id="line2d_67">
      <g>
       <use style="stroke:#000000;stroke-width:0.6;" x="30.103125" xlink:href="#m422543721a" y="181.478258"/>
      </g>
     </g>
    </g>
    <g id="ytick_24">
     <g id="line2d_68">
      <g>
       <use style="stroke:#000000;stroke-width:0.6;" x="30.103125" xlink:href="#m422543721a" y="176.063778"/>
      </g>
     </g>
    </g>
    <g id="ytick_25">
     <g id="line2d_69">
      <g>
       <use style="stroke:#000000;stroke-width:0.6;" x="30.103125" xlink:href="#m422543721a" y="165.234819"/>
      </g>
     </g>
    </g>
    <g id="ytick_26">
     <g id="line2d_70">
      <g>
       <use style="stroke:#000000;stroke-width:0.6;" x="30.103125" xlink:href="#m422543721a" y="159.820339"/>
      </g>
     </g>
    </g>
    <g id="ytick_27">
     <g id="line2d_71">
      <g>
       <use style="stroke:#000000;stroke-width:0.6;" x="30.103125" xlink:href="#m422543721a" y="154.40586"/>
      </g>
     </g>
    </g>
    <g id="ytick_28">
     <g id="line2d_72">
      <g>
       <use style="stroke:#000000;stroke-width:0.6;" x="30.103125" xlink:href="#m422543721a" y="148.99138"/>
      </g>
     </g>
    </g>
    <g id="ytick_29">
     <g id="line2d_73">
      <g>
       <use style="stroke:#000000;stroke-width:0.6;" x="30.103125" xlink:href="#m422543721a" y="138.162421"/>
      </g>
     </g>
    </g>
    <g id="ytick_30">
     <g id="line2d_74">
      <g>
       <use style="stroke:#000000;stroke-width:0.6;" x="30.103125" xlink:href="#m422543721a" y="132.747941"/>
      </g>
     </g>
    </g>
    <g id="ytick_31">
     <g id="line2d_75">
      <g>
       <use style="stroke:#000000;stroke-width:0.6;" x="30.103125" xlink:href="#m422543721a" y="127.333462"/>
      </g>
     </g>
    </g>
    <g id="ytick_32">
     <g id="line2d_76">
      <g>
       <use style="stroke:#000000;stroke-width:0.6;" x="30.103125" xlink:href="#m422543721a" y="121.918982"/>
      </g>
     </g>
    </g>
    <g id="ytick_33">
     <g id="line2d_77">
      <g>
       <use style="stroke:#000000;stroke-width:0.6;" x="30.103125" xlink:href="#m422543721a" y="111.090023"/>
      </g>
     </g>
    </g>
    <g id="ytick_34">
     <g id="line2d_78">
      <g>
       <use style="stroke:#000000;stroke-width:0.6;" x="30.103125" xlink:href="#m422543721a" y="105.675543"/>
      </g>
     </g>
    </g>
    <g id="ytick_35">
     <g id="line2d_79">
      <g>
       <use style="stroke:#000000;stroke-width:0.6;" x="30.103125" xlink:href="#m422543721a" y="100.261063"/>
      </g>
     </g>
    </g>
    <g id="ytick_36">
     <g id="line2d_80">
      <g>
       <use style="stroke:#000000;stroke-width:0.6;" x="30.103125" xlink:href="#m422543721a" y="94.846584"/>
      </g>
     </g>
    </g>
    <g id="ytick_37">
     <g id="line2d_81">
      <g>
       <use style="stroke:#000000;stroke-width:0.6;" x="30.103125" xlink:href="#m422543721a" y="84.017624"/>
      </g>
     </g>
    </g>
    <g id="ytick_38">
     <g id="line2d_82">
      <g>
       <use style="stroke:#000000;stroke-width:0.6;" x="30.103125" xlink:href="#m422543721a" y="78.603145"/>
      </g>
     </g>
    </g>
    <g id="ytick_39">
     <g id="line2d_83">
      <g>
       <use style="stroke:#000000;stroke-width:0.6;" x="30.103125" xlink:href="#m422543721a" y="73.188665"/>
      </g>
     </g>
    </g>
    <g id="ytick_40">
     <g id="line2d_84">
      <g>
       <use style="stroke:#000000;stroke-width:0.6;" x="30.103125" xlink:href="#m422543721a" y="67.774186"/>
      </g>
     </g>
    </g>
    <g id="ytick_41">
     <g id="line2d_85">
      <g>
       <use style="stroke:#000000;stroke-width:0.6;" x="30.103125" xlink:href="#m422543721a" y="56.945226"/>
      </g>
     </g>
    </g>
    <g id="ytick_42">
     <g id="line2d_86">
      <g>
       <use style="stroke:#000000;stroke-width:0.6;" x="30.103125" xlink:href="#m422543721a" y="51.530747"/>
      </g>
     </g>
    </g>
    <g id="ytick_43">
     <g id="line2d_87">
      <g>
       <use style="stroke:#000000;stroke-width:0.6;" x="30.103125" xlink:href="#m422543721a" y="46.116267"/>
      </g>
     </g>
    </g>
    <g id="ytick_44">
     <g id="line2d_88">
      <g>
       <use style="stroke:#000000;stroke-width:0.6;" x="30.103125" xlink:href="#m422543721a" y="40.701787"/>
      </g>
     </g>
    </g>
    <g id="text_18">
     <!-- $y$ -->
     <defs>
      <path d="M 8.40625 -14.3125 
Q 10.5 -17.921875 15.71875 -17.921875 
Q 20.453125 -17.921875 23.921875 -14.59375 
Q 27.390625 -11.28125 29.515625 -6.5625 
Q 31.640625 -1.859375 32.8125 3.078125 
Q 28.375 -1.125 23.1875 -1.125 
Q 19.234375 -1.125 16.453125 0.234375 
Q 13.671875 1.609375 12.125 4.3125 
Q 10.59375 7.03125 10.59375 10.890625 
Q 10.59375 14.15625 11.46875 17.59375 
Q 12.359375 21.046875 13.9375 25.265625 
Q 15.53125 29.5 16.703125 32.625 
Q 18.015625 36.28125 18.015625 38.625 
Q 18.015625 41.609375 15.828125 41.609375 
Q 11.859375 41.609375 9.296875 37.53125 
Q 6.734375 33.453125 5.515625 28.421875 
Q 5.328125 27.78125 4.6875 27.78125 
L 3.515625 27.78125 
Q 2.6875 27.78125 2.6875 28.71875 
L 2.6875 29 
Q 4.296875 34.96875 7.609375 39.578125 
Q 10.9375 44.1875 16.015625 44.1875 
Q 19.578125 44.1875 22.046875 41.84375 
Q 24.515625 39.5 24.515625 35.890625 
Q 24.515625 34.03125 23.6875 31.984375 
Q 23.25 30.765625 21.6875 26.65625 
Q 20.125 22.5625 19.28125 19.875 
Q 18.453125 17.1875 17.921875 14.59375 
Q 17.390625 12.015625 17.390625 9.421875 
Q 17.390625 6.109375 18.796875 3.8125 
Q 20.21875 1.515625 23.296875 1.515625 
Q 29.5 1.515625 34.421875 9.078125 
L 42 39.890625 
Q 42.328125 41.21875 43.546875 42.15625 
Q 44.78125 43.109375 46.1875 43.109375 
Q 47.40625 43.109375 48.3125 42.328125 
Q 49.21875 41.546875 49.21875 40.28125 
Q 49.21875 39.703125 49.125 39.5 
L 39.203125 -0.296875 
Q 37.890625 -5.421875 34.375 -10.109375 
Q 30.859375 -14.796875 25.90625 -17.65625 
Q 20.953125 -20.515625 15.578125 -20.515625 
Q 12.984375 -20.515625 10.4375 -19.5 
Q 7.90625 -18.5 6.34375 -16.5 
Q 4.78125 -14.5 4.78125 -11.8125 
Q 4.78125 -9.078125 6.390625 -7.078125 
Q 8.015625 -5.078125 10.6875 -5.078125 
Q 12.3125 -5.078125 13.40625 -6.078125 
Q 14.5 -7.078125 14.5 -8.6875 
Q 14.5 -10.984375 12.78125 -12.6875 
Q 11.078125 -14.40625 8.796875 -14.40625 
Q 8.6875 -14.359375 8.59375 -14.328125 
Q 8.5 -14.3125 8.40625 -14.3125 
z
" id="Cmmi10-79"/>
     </defs>
     <g transform="translate(26.103125 19.325)scale(0.16 -0.16)">
      <use transform="translate(0 0.8125)" xlink:href="#Cmmi10-79"/>
     </g>
    </g>
   </g>
   <g id="patch_3">
    <path clip-path="url(#p49bf2b0256)" d="M 192.537514 243.744774 
Q 192.537514 247.805633 192.537514 249.630425 
" style="fill:none;stroke:#ff0000;stroke-linecap:round;stroke-width:2;"/>
    <path clip-path="url(#p49bf2b0256)" d="M 197.537514 239.630425 
L 192.537514 249.630425 
L 187.537514 239.630425 
L 197.537514 239.630425 
z
" style="fill:#ff0000;stroke:#ff0000;stroke-linecap:round;stroke-width:2;"/>
   </g>
   <g id="line2d_89">
    <path clip-path="url(#p49bf2b0256)" d="M 30.103125 89.432104 
L 36.510613 89.55853 
L 41.182725 89.810413 
L 47.483853 90.364663 
L 54.042333 91.205841 
L 60.32127 92.267638 
L 65.260719 93.282527 
L 71.689222 94.845707 
L 77.859899 96.611151 
L 83.25903 98.37584 
L 88.714819 100.375239 
L 94.375482 102.688764 
L 100.114565 105.294569 
L 104.874847 107.664828 
L 110.718256 110.848298 
L 116.018217 114.01321 
L 120.270462 116.756234 
L 126.163 120.880115 
L 130.906897 124.49487 
L 135.872309 128.587093 
L 140.393569 132.614874 
L 144.114218 136.166876 
L 148.702856 140.875347 
L 152.783358 145.402926 
L 156.705858 150.098724 
L 160.306156 154.747487 
L 163.195964 158.74707 
L 166.328031 163.39217 
L 169.860683 169.08512 
L 172.827541 174.312179 
L 175.674829 179.798402 
L 177.893612 184.465435 
L 180.555305 190.636824 
L 182.753825 196.344474 
L 184.838108 202.449738 
L 186.610568 208.388327 
L 188.17682 214.4815 
L 189.60912 221.161961 
L 190.647131 227.157125 
L 191.548765 233.971354 
L 192.052073 239.317831 
L 192.423501 245.781556 
L 192.537514 251.866493 
L 192.537514 251.866493 
" style="fill:none;stroke:#ff0000;stroke-linecap:square;stroke-width:2;"/>
   </g>
   <g id="patch_4">
    <path d="M 30.103125 270.005 
L 30.103125 30.685 
" style="fill:none;stroke:#000000;stroke-linecap:square;stroke-linejoin:miter;stroke-width:0.8;"/>
   </g>
   <g id="patch_5">
    <path d="M 11.964618 251.866493 
L 251.284618 251.866493 
" style="fill:none;stroke:#000000;stroke-linecap:square;stroke-linejoin:miter;stroke-width:0.8;"/>
   </g>
  </g>
 </g>
 <defs>
  <clipPath id="p49bf2b0256">
   <rect height="239.32" width="239.32" x="11.964618" y="30.685"/>
  </clipPath>
 </defs>
</svg>
