<?xml version="1.0" encoding="utf-8" standalone="no"?>
<!DOCTYPE svg PUBLIC "-//W3C//DTD SVG 1.1//EN"
  "http://www.w3.org/Graphics/SVG/1.1/DTD/svg11.dtd">
<!-- Created with matplotlib (http://matplotlib.org/) -->
<svg height="280.705pt" version="1.1" viewBox="0 0 274.518805 280.705" width="274.518805pt" xmlns="http://www.w3.org/2000/svg" xmlns:xlink="http://www.w3.org/1999/xlink">
 <defs>
  <style type="text/css">
*{stroke-linecap:butt;stroke-linejoin:round;}
  </style>
 </defs>
 <g id="figure_1">
  <g id="patch_1">
   <path d="M 0 280.705 
L 274.518805 280.705 
L 274.518805 0 
L 0 0 
z
" style="fill:#ffffff;"/>
  </g>
  <g id="axes_1">
   <g id="patch_2">
    <path d="M 10.7 270.005 
L 250.038805 270.005 
L 250.038805 30.685 
L 10.7 30.685 
z
" style="fill:#ffffff;"/>
   </g>
   <g id="matplotlib.axis_1">
    <g id="xtick_1">
     <g id="line2d_1">
      <defs>
       <path d="M 0 0 
L 0 3.5 
" id="mf154ca56b8" style="stroke:#000000;stroke-width:0.8;"/>
      </defs>
      <g>
       <use style="stroke:#000000;stroke-width:0.8;" x="15.29938" xlink:href="#mf154ca56b8" y="150.355686"/>
      </g>
     </g>
     <g id="text_1">
      <!-- -1 -->
      <defs>
       <path d="M 4.890625 31.390625 
L 31.203125 31.390625 
L 31.203125 23.390625 
L 4.890625 23.390625 
z
" id="DejaVuSans-2d"/>
       <path d="M 12.40625 8.296875 
L 28.515625 8.296875 
L 28.515625 63.921875 
L 10.984375 60.40625 
L 10.984375 69.390625 
L 28.421875 72.90625 
L 38.28125 72.90625 
L 38.28125 8.296875 
L 54.390625 8.296875 
L 54.390625 0 
L 12.40625 0 
z
" id="DejaVuSans-31"/>
      </defs>
      <g transform="translate(10.314224 164.954123)scale(0.1 -0.1)">
       <use xlink:href="#DejaVuSans-2d"/>
       <use x="36.083984" xlink:href="#DejaVuSans-31"/>
      </g>
     </g>
    </g>
    <g id="xtick_2">
     <g id="line2d_2">
      <g>
       <use style="stroke:#000000;stroke-width:0.8;" x="72.833569" xlink:href="#mf154ca56b8" y="150.355686"/>
      </g>
     </g>
     <g id="text_2">
      <!-- -0.5 -->
      <defs>
       <path d="M 31.78125 66.40625 
Q 24.171875 66.40625 20.328125 58.90625 
Q 16.5 51.421875 16.5 36.375 
Q 16.5 21.390625 20.328125 13.890625 
Q 24.171875 6.390625 31.78125 6.390625 
Q 39.453125 6.390625 43.28125 13.890625 
Q 47.125 21.390625 47.125 36.375 
Q 47.125 51.421875 43.28125 58.90625 
Q 39.453125 66.40625 31.78125 66.40625 
z
M 31.78125 74.21875 
Q 44.046875 74.21875 50.515625 64.515625 
Q 56.984375 54.828125 56.984375 36.375 
Q 56.984375 17.96875 50.515625 8.265625 
Q 44.046875 -1.421875 31.78125 -1.421875 
Q 19.53125 -1.421875 13.0625 8.265625 
Q 6.59375 17.96875 6.59375 36.375 
Q 6.59375 54.828125 13.0625 64.515625 
Q 19.53125 74.21875 31.78125 74.21875 
z
" id="DejaVuSans-30"/>
       <path d="M 10.6875 12.40625 
L 21 12.40625 
L 21 0 
L 10.6875 0 
z
" id="DejaVuSans-2e"/>
       <path d="M 10.796875 72.90625 
L 49.515625 72.90625 
L 49.515625 64.59375 
L 19.828125 64.59375 
L 19.828125 46.734375 
Q 21.96875 47.46875 24.109375 47.828125 
Q 26.265625 48.1875 28.421875 48.1875 
Q 40.625 48.1875 47.75 41.5 
Q 54.890625 34.8125 54.890625 23.390625 
Q 54.890625 11.625 47.5625 5.09375 
Q 40.234375 -1.421875 26.90625 -1.421875 
Q 22.3125 -1.421875 17.546875 -0.640625 
Q 12.796875 0.140625 7.71875 1.703125 
L 7.71875 11.625 
Q 12.109375 9.234375 16.796875 8.0625 
Q 21.484375 6.890625 26.703125 6.890625 
Q 35.15625 6.890625 40.078125 11.328125 
Q 45.015625 15.765625 45.015625 23.390625 
Q 45.015625 31 40.078125 35.4375 
Q 35.15625 39.890625 26.703125 39.890625 
Q 22.75 39.890625 18.8125 39.015625 
Q 14.890625 38.140625 10.796875 36.28125 
z
" id="DejaVuSans-35"/>
      </defs>
      <g transform="translate(63.0781 164.954123)scale(0.1 -0.1)">
       <use xlink:href="#DejaVuSans-2d"/>
       <use x="36.083984" xlink:href="#DejaVuSans-30"/>
       <use x="99.707031" xlink:href="#DejaVuSans-2e"/>
       <use x="131.494141" xlink:href="#DejaVuSans-35"/>
      </g>
     </g>
    </g>
    <g id="xtick_3">
     <g id="line2d_3">
      <g>
       <use style="stroke:#000000;stroke-width:0.8;" x="130.367758" xlink:href="#mf154ca56b8" y="150.355686"/>
      </g>
     </g>
    </g>
    <g id="xtick_4">
     <g id="line2d_4">
      <g>
       <use style="stroke:#000000;stroke-width:0.8;" x="187.901947" xlink:href="#mf154ca56b8" y="150.355686"/>
      </g>
     </g>
     <g id="text_3">
      <!-- 0.5 -->
      <g transform="translate(179.950384 164.954123)scale(0.1 -0.1)">
       <use xlink:href="#DejaVuSans-30"/>
       <use x="63.623047" xlink:href="#DejaVuSans-2e"/>
       <use x="95.410156" xlink:href="#DejaVuSans-35"/>
      </g>
     </g>
    </g>
    <g id="xtick_5">
     <g id="line2d_5">
      <g>
       <use style="stroke:#000000;stroke-width:0.8;" x="245.436136" xlink:href="#mf154ca56b8" y="150.355686"/>
      </g>
     </g>
     <g id="text_4">
      <!-- 1 -->
      <g transform="translate(242.254886 164.954123)scale(0.1 -0.1)">
       <use xlink:href="#DejaVuSans-31"/>
      </g>
     </g>
    </g>
    <g id="xtick_6">
     <g id="line2d_6">
      <defs>
       <path d="M 0 0 
L 0 2 
" id="ma9b1f49cb3" style="stroke:#000000;stroke-width:0.6;"/>
      </defs>
      <g>
       <use style="stroke:#000000;stroke-width:0.6;" x="26.806218" xlink:href="#ma9b1f49cb3" y="150.355686"/>
      </g>
     </g>
    </g>
    <g id="xtick_7">
     <g id="line2d_7">
      <g>
       <use style="stroke:#000000;stroke-width:0.6;" x="38.313055" xlink:href="#ma9b1f49cb3" y="150.355686"/>
      </g>
     </g>
    </g>
    <g id="xtick_8">
     <g id="line2d_8">
      <g>
       <use style="stroke:#000000;stroke-width:0.6;" x="49.819893" xlink:href="#ma9b1f49cb3" y="150.355686"/>
      </g>
     </g>
    </g>
    <g id="xtick_9">
     <g id="line2d_9">
      <g>
       <use style="stroke:#000000;stroke-width:0.6;" x="61.326731" xlink:href="#ma9b1f49cb3" y="150.355686"/>
      </g>
     </g>
    </g>
    <g id="xtick_10">
     <g id="line2d_10">
      <g>
       <use style="stroke:#000000;stroke-width:0.6;" x="84.340407" xlink:href="#ma9b1f49cb3" y="150.355686"/>
      </g>
     </g>
    </g>
    <g id="xtick_11">
     <g id="line2d_11">
      <g>
       <use style="stroke:#000000;stroke-width:0.6;" x="95.847244" xlink:href="#ma9b1f49cb3" y="150.355686"/>
      </g>
     </g>
    </g>
    <g id="xtick_12">
     <g id="line2d_12">
      <g>
       <use style="stroke:#000000;stroke-width:0.6;" x="107.354082" xlink:href="#ma9b1f49cb3" y="150.355686"/>
      </g>
     </g>
    </g>
    <g id="xtick_13">
     <g id="line2d_13">
      <g>
       <use style="stroke:#000000;stroke-width:0.6;" x="118.86092" xlink:href="#ma9b1f49cb3" y="150.355686"/>
      </g>
     </g>
    </g>
    <g id="xtick_14">
     <g id="line2d_14">
      <g>
       <use style="stroke:#000000;stroke-width:0.6;" x="141.874595" xlink:href="#ma9b1f49cb3" y="150.355686"/>
      </g>
     </g>
    </g>
    <g id="xtick_15">
     <g id="line2d_15">
      <g>
       <use style="stroke:#000000;stroke-width:0.6;" x="153.381433" xlink:href="#ma9b1f49cb3" y="150.355686"/>
      </g>
     </g>
    </g>
    <g id="xtick_16">
     <g id="line2d_16">
      <g>
       <use style="stroke:#000000;stroke-width:0.6;" x="164.888271" xlink:href="#ma9b1f49cb3" y="150.355686"/>
      </g>
     </g>
    </g>
    <g id="xtick_17">
     <g id="line2d_17">
      <g>
       <use style="stroke:#000000;stroke-width:0.6;" x="176.395109" xlink:href="#ma9b1f49cb3" y="150.355686"/>
      </g>
     </g>
    </g>
    <g id="xtick_18">
     <g id="line2d_18">
      <g>
       <use style="stroke:#000000;stroke-width:0.6;" x="199.408784" xlink:href="#ma9b1f49cb3" y="150.355686"/>
      </g>
     </g>
    </g>
    <g id="xtick_19">
     <g id="line2d_19">
      <g>
       <use style="stroke:#000000;stroke-width:0.6;" x="210.915622" xlink:href="#ma9b1f49cb3" y="150.355686"/>
      </g>
     </g>
    </g>
    <g id="xtick_20">
     <g id="line2d_20">
      <g>
       <use style="stroke:#000000;stroke-width:0.6;" x="222.42246" xlink:href="#ma9b1f49cb3" y="150.355686"/>
      </g>
     </g>
    </g>
    <g id="xtick_21">
     <g id="line2d_21">
      <g>
       <use style="stroke:#000000;stroke-width:0.6;" x="233.929298" xlink:href="#ma9b1f49cb3" y="150.355686"/>
      </g>
     </g>
    </g>
    <g id="text_5">
     <!-- $x$ -->
     <defs>
      <path d="M 7.8125 2.875 
Q 9.578125 1.515625 12.796875 1.515625 
Q 15.921875 1.515625 18.3125 4.515625 
Q 20.703125 7.515625 21.578125 11.078125 
L 26.125 28.8125 
Q 27.203125 33.640625 27.203125 35.40625 
Q 27.203125 37.890625 25.8125 39.75 
Q 24.421875 41.609375 21.921875 41.609375 
Q 18.75 41.609375 15.96875 39.625 
Q 13.1875 37.640625 11.28125 34.59375 
Q 9.375 31.546875 8.59375 28.421875 
Q 8.40625 27.78125 7.8125 27.78125 
L 6.59375 27.78125 
Q 5.8125 27.78125 5.8125 28.71875 
L 5.8125 29 
Q 6.78125 32.71875 9.125 36.25 
Q 11.46875 39.796875 14.859375 41.984375 
Q 18.265625 44.1875 22.125 44.1875 
Q 25.78125 44.1875 28.734375 42.234375 
Q 31.6875 40.28125 32.90625 36.921875 
Q 34.625 39.984375 37.28125 42.078125 
Q 39.9375 44.1875 43.109375 44.1875 
Q 45.265625 44.1875 47.5 43.421875 
Q 49.75 42.671875 51.171875 41.109375 
Q 52.59375 39.546875 52.59375 37.203125 
Q 52.59375 34.671875 50.953125 32.828125 
Q 49.3125 31 46.78125 31 
Q 45.171875 31 44.09375 32.03125 
Q 43.015625 33.0625 43.015625 34.625 
Q 43.015625 36.71875 44.453125 38.296875 
Q 45.90625 39.890625 47.90625 40.1875 
Q 46.09375 41.609375 42.921875 41.609375 
Q 39.703125 41.609375 37.328125 38.625 
Q 34.96875 35.640625 33.984375 31.984375 
L 29.59375 14.3125 
Q 28.515625 10.296875 28.515625 7.71875 
Q 28.515625 5.171875 29.953125 3.34375 
Q 31.390625 1.515625 33.796875 1.515625 
Q 38.484375 1.515625 42.15625 5.640625 
Q 45.84375 9.765625 47.015625 14.703125 
Q 47.21875 15.28125 47.796875 15.28125 
L 49.03125 15.28125 
Q 49.421875 15.28125 49.65625 15.015625 
Q 49.90625 14.75 49.90625 14.40625 
Q 49.90625 14.3125 49.8125 14.109375 
Q 48.390625 8.15625 43.84375 3.515625 
Q 39.3125 -1.125 33.59375 -1.125 
Q 29.9375 -1.125 26.984375 0.84375 
Q 24.03125 2.828125 22.796875 6.203125 
Q 21.234375 3.265625 18.46875 1.0625 
Q 15.71875 -1.125 12.59375 -1.125 
Q 10.453125 -1.125 8.171875 -0.359375 
Q 5.90625 0.390625 4.484375 1.953125 
Q 3.078125 3.515625 3.078125 5.90625 
Q 3.078125 8.25 4.703125 10.171875 
Q 6.34375 12.109375 8.796875 12.109375 
Q 10.453125 12.109375 11.578125 11.109375 
Q 12.703125 10.109375 12.703125 8.5 
Q 12.703125 6.390625 11.296875 4.828125 
Q 9.90625 3.265625 7.8125 2.875 
z
" id="Cmmi10-78"/>
     </defs>
     <g transform="translate(258.038805 150.355686)scale(0.16 -0.16)">
      <use transform="translate(0 0.8125)" xlink:href="#Cmmi10-78"/>
     </g>
    </g>
   </g>
   <g id="matplotlib.axis_2">
    <g id="ytick_1">
     <g id="line2d_22">
      <defs>
       <path d="M 0 0 
L -3.5 0 
" id="mafc7c43e9a" style="stroke:#000000;stroke-width:0.8;"/>
      </defs>
      <g>
       <use style="stroke:#000000;stroke-width:0.8;" x="130.367758" xlink:href="#mafc7c43e9a" y="265.424063"/>
      </g>
     </g>
     <g id="text_6">
      <!-- -1 -->
      <g transform="translate(113.397445 269.223282)scale(0.1 -0.1)">
       <use xlink:href="#DejaVuSans-2d"/>
       <use x="36.083984" xlink:href="#DejaVuSans-31"/>
      </g>
     </g>
    </g>
    <g id="ytick_2">
     <g id="line2d_23">
      <g>
       <use style="stroke:#000000;stroke-width:0.8;" x="130.367758" xlink:href="#mafc7c43e9a" y="207.889875"/>
      </g>
     </g>
     <g id="text_7">
      <!-- -0.5 -->
      <g transform="translate(103.85682 211.689093)scale(0.1 -0.1)">
       <use xlink:href="#DejaVuSans-2d"/>
       <use x="36.083984" xlink:href="#DejaVuSans-30"/>
       <use x="99.707031" xlink:href="#DejaVuSans-2e"/>
       <use x="131.494141" xlink:href="#DejaVuSans-35"/>
      </g>
     </g>
    </g>
    <g id="ytick_3">
     <g id="line2d_24">
      <g>
       <use style="stroke:#000000;stroke-width:0.8;" x="130.367758" xlink:href="#mafc7c43e9a" y="150.355686"/>
      </g>
     </g>
    </g>
    <g id="ytick_4">
     <g id="line2d_25">
      <g>
       <use style="stroke:#000000;stroke-width:0.8;" x="130.367758" xlink:href="#mafc7c43e9a" y="92.821497"/>
      </g>
     </g>
     <g id="text_8">
      <!-- 0.5 -->
      <g transform="translate(107.464633 96.620715)scale(0.1 -0.1)">
       <use xlink:href="#DejaVuSans-30"/>
       <use x="63.623047" xlink:href="#DejaVuSans-2e"/>
       <use x="95.410156" xlink:href="#DejaVuSans-35"/>
      </g>
     </g>
    </g>
    <g id="ytick_5">
     <g id="line2d_26">
      <g>
       <use style="stroke:#000000;stroke-width:0.8;" x="130.367758" xlink:href="#mafc7c43e9a" y="35.287308"/>
      </g>
     </g>
     <g id="text_9">
      <!-- 1 -->
      <g transform="translate(117.005258 39.086526)scale(0.1 -0.1)">
       <use xlink:href="#DejaVuSans-31"/>
      </g>
     </g>
    </g>
    <g id="ytick_6">
     <g id="line2d_27">
      <defs>
       <path d="M 0 0 
L -2 0 
" id="m0fc26dbdfd" style="stroke:#000000;stroke-width:0.6;"/>
      </defs>
      <g>
       <use style="stroke:#000000;stroke-width:0.6;" x="130.367758" xlink:href="#m0fc26dbdfd" y="253.917226"/>
      </g>
     </g>
    </g>
    <g id="ytick_7">
     <g id="line2d_28">
      <g>
       <use style="stroke:#000000;stroke-width:0.6;" x="130.367758" xlink:href="#m0fc26dbdfd" y="242.410388"/>
      </g>
     </g>
    </g>
    <g id="ytick_8">
     <g id="line2d_29">
      <g>
       <use style="stroke:#000000;stroke-width:0.6;" x="130.367758" xlink:href="#m0fc26dbdfd" y="230.90355"/>
      </g>
     </g>
    </g>
    <g id="ytick_9">
     <g id="line2d_30">
      <g>
       <use style="stroke:#000000;stroke-width:0.6;" x="130.367758" xlink:href="#m0fc26dbdfd" y="219.396712"/>
      </g>
     </g>
    </g>
    <g id="ytick_10">
     <g id="line2d_31">
      <g>
       <use style="stroke:#000000;stroke-width:0.6;" x="130.367758" xlink:href="#m0fc26dbdfd" y="196.383037"/>
      </g>
     </g>
    </g>
    <g id="ytick_11">
     <g id="line2d_32">
      <g>
       <use style="stroke:#000000;stroke-width:0.6;" x="130.367758" xlink:href="#m0fc26dbdfd" y="184.876199"/>
      </g>
     </g>
    </g>
    <g id="ytick_12">
     <g id="line2d_33">
      <g>
       <use style="stroke:#000000;stroke-width:0.6;" x="130.367758" xlink:href="#m0fc26dbdfd" y="173.369361"/>
      </g>
     </g>
    </g>
    <g id="ytick_13">
     <g id="line2d_34">
      <g>
       <use style="stroke:#000000;stroke-width:0.6;" x="130.367758" xlink:href="#m0fc26dbdfd" y="161.862523"/>
      </g>
     </g>
    </g>
    <g id="ytick_14">
     <g id="line2d_35">
      <g>
       <use style="stroke:#000000;stroke-width:0.6;" x="130.367758" xlink:href="#m0fc26dbdfd" y="138.848848"/>
      </g>
     </g>
    </g>
    <g id="ytick_15">
     <g id="line2d_36">
      <g>
       <use style="stroke:#000000;stroke-width:0.6;" x="130.367758" xlink:href="#m0fc26dbdfd" y="127.34201"/>
      </g>
     </g>
    </g>
    <g id="ytick_16">
     <g id="line2d_37">
      <g>
       <use style="stroke:#000000;stroke-width:0.6;" x="130.367758" xlink:href="#m0fc26dbdfd" y="115.835172"/>
      </g>
     </g>
    </g>
    <g id="ytick_17">
     <g id="line2d_38">
      <g>
       <use style="stroke:#000000;stroke-width:0.6;" x="130.367758" xlink:href="#m0fc26dbdfd" y="104.328334"/>
      </g>
     </g>
    </g>
    <g id="ytick_18">
     <g id="line2d_39">
      <g>
       <use style="stroke:#000000;stroke-width:0.6;" x="130.367758" xlink:href="#m0fc26dbdfd" y="81.314659"/>
      </g>
     </g>
    </g>
    <g id="ytick_19">
     <g id="line2d_40">
      <g>
       <use style="stroke:#000000;stroke-width:0.6;" x="130.367758" xlink:href="#m0fc26dbdfd" y="69.807821"/>
      </g>
     </g>
    </g>
    <g id="ytick_20">
     <g id="line2d_41">
      <g>
       <use style="stroke:#000000;stroke-width:0.6;" x="130.367758" xlink:href="#m0fc26dbdfd" y="58.300983"/>
      </g>
     </g>
    </g>
    <g id="ytick_21">
     <g id="line2d_42">
      <g>
       <use style="stroke:#000000;stroke-width:0.6;" x="130.367758" xlink:href="#m0fc26dbdfd" y="46.794145"/>
      </g>
     </g>
    </g>
    <g id="text_10">
     <!-- $y$ -->
     <defs>
      <path d="M 8.40625 -14.3125 
Q 10.5 -17.921875 15.71875 -17.921875 
Q 20.453125 -17.921875 23.921875 -14.59375 
Q 27.390625 -11.28125 29.515625 -6.5625 
Q 31.640625 -1.859375 32.8125 3.078125 
Q 28.375 -1.125 23.1875 -1.125 
Q 19.234375 -1.125 16.453125 0.234375 
Q 13.671875 1.609375 12.125 4.3125 
Q 10.59375 7.03125 10.59375 10.890625 
Q 10.59375 14.15625 11.46875 17.59375 
Q 12.359375 21.046875 13.9375 25.265625 
Q 15.53125 29.5 16.703125 32.625 
Q 18.015625 36.28125 18.015625 38.625 
Q 18.015625 41.609375 15.828125 41.609375 
Q 11.859375 41.609375 9.296875 37.53125 
Q 6.734375 33.453125 5.515625 28.421875 
Q 5.328125 27.78125 4.6875 27.78125 
L 3.515625 27.78125 
Q 2.6875 27.78125 2.6875 28.71875 
L 2.6875 29 
Q 4.296875 34.96875 7.609375 39.578125 
Q 10.9375 44.1875 16.015625 44.1875 
Q 19.578125 44.1875 22.046875 41.84375 
Q 24.515625 39.5 24.515625 35.890625 
Q 24.515625 34.03125 23.6875 31.984375 
Q 23.25 30.765625 21.6875 26.65625 
Q 20.125 22.5625 19.28125 19.875 
Q 18.453125 17.1875 17.921875 14.59375 
Q 17.390625 12.015625 17.390625 9.421875 
Q 17.390625 6.109375 18.796875 3.8125 
Q 20.21875 1.515625 23.296875 1.515625 
Q 29.5 1.515625 34.421875 9.078125 
L 42 39.890625 
Q 42.328125 41.21875 43.546875 42.15625 
Q 44.78125 43.109375 46.1875 43.109375 
Q 47.40625 43.109375 48.3125 42.328125 
Q 49.21875 41.546875 49.21875 40.28125 
Q 49.21875 39.703125 49.125 39.5 
L 39.203125 -0.296875 
Q 37.890625 -5.421875 34.375 -10.109375 
Q 30.859375 -14.796875 25.90625 -17.65625 
Q 20.953125 -20.515625 15.578125 -20.515625 
Q 12.984375 -20.515625 10.4375 -19.5 
Q 7.90625 -18.5 6.34375 -16.5 
Q 4.78125 -14.5 4.78125 -11.8125 
Q 4.78125 -9.078125 6.390625 -7.078125 
Q 8.015625 -5.078125 10.6875 -5.078125 
Q 12.3125 -5.078125 13.40625 -6.078125 
Q 14.5 -7.078125 14.5 -8.6875 
Q 14.5 -10.984375 12.78125 -12.6875 
Q 11.078125 -14.40625 8.796875 -14.40625 
Q 8.6875 -14.359375 8.59375 -14.328125 
Q 8.5 -14.3125 8.40625 -14.3125 
z
" id="Cmmi10-79"/>
     </defs>
     <g transform="translate(126.367758 19.325)scale(0.16 -0.16)">
      <use transform="translate(0 0.8125)" xlink:href="#Cmmi10-79"/>
     </g>
    </g>
   </g>
   <g id="patch_3">
    <path clip-path="url(#p5d05a145e0)" d="M 230.019896 50.703547 
Q 226.899056 49.328061 225.824362 48.854398 
" style="fill:none;stroke:#0000ff;stroke-linecap:round;stroke-width:2;"/>
    <path clip-path="url(#p5d05a145e0)" d="M 232.95847 57.462796 
L 225.824362 48.854398 
L 236.991545 48.312151 
L 232.95847 57.462796 
z
" style="fill:#0000ff;stroke:#0000ff;stroke-linecap:round;stroke-width:2;"/>
   </g>
   <g id="line2d_43">
    <path clip-path="url(#p5d05a145e0)" d="M 130.367758 35.287308 
L 139.844616 35.385078 
L 148.550216 35.649283 
L 163.493988 36.511659 
L 176.32348 37.706548 
L 183.973823 38.648734 
L 194.031578 40.196047 
L 202.481183 41.822959 
L 209.464033 43.450621 
L 214.49827 44.823714 
L 220.71709 46.817538 
L 224.774162 48.348483 
L 227.386688 49.459296 
L 230.170748 50.779231 
L 232.736946 52.153516 
L 235.135937 53.618169 
L 237.034518 54.942688 
L 238.746421 56.308956 
L 240.309159 57.757017 
L 241.353454 58.877716 
L 242.585658 60.440141 
L 243.599339 62.046345 
L 244.333492 63.553173 
L 244.881968 65.095361 
L 245.23157 66.600374 
L 245.414238 68.200248 
L 245.411677 69.833193 
L 245.025804 72.498326 
L 244.335895 74.810684 
L 243.866546 75.987559 
L 242.909382 77.963647 
L 241.046567 81.006985 
L 239.852895 82.656445 
L 238.092685 84.833163 
L 234.554601 88.629607 
L 231.330315 91.667131 
L 228.633138 94.002482 
L 223.667347 97.958332 
L 219.41338 101.08877 
L 211.409984 106.531866 
L 205.976116 109.985432 
L 195.620402 116.188389 
L 183.048658 123.252696 
L 174.790862 127.700708 
L 165.060584 132.803886 
L 152.281179 139.348499 
L 94.683332 168.421959 
L 85.084352 173.468432 
L 72.308722 180.430612 
L 61.585505 186.590193 
L 53.206143 191.696745 
L 47.535149 195.355814 
L 41.558352 199.454349 
L 35.789879 203.736008 
L 30.634517 207.960182 
L 28.001992 210.328028 
L 24.162233 214.171767 
L 22.814509 215.678443 
L 19.978788 219.287575 
L 18.995407 220.753949 
L 17.842577 222.717103 
L 16.902696 224.646018 
L 16.144876 226.639933 
L 15.626922 228.593793 
L 15.319562 230.95579 
L 15.365307 233.086806 
L 15.800224 235.428494 
L 16.285984 236.87417 
L 17.234223 238.83911 
L 18.338402 240.532374 
L 19.686819 242.176481 
L 21.266965 243.76175 
L 23.082308 245.296671 
L 24.958345 246.664678 
L 28.618161 248.905808 
L 31.714205 250.496203 
L 36.644467 252.635952 
L 40.583893 254.091238 
L 43.353797 255.009349 
L 47.299483 256.193377 
L 55.446433 258.268406 
L 63.27206 259.894635 
L 70.385494 261.126222 
L 81.251568 262.638059 
L 85.971492 263.174698 
L 98.355425 264.282747 
L 106.644303 264.804378 
L 119.26211 265.289691 
L 123.13113 265.367104 
L 137.768576 265.364487 
L 146.288188 265.147063 
L 157.552573 264.606837 
L 169.121799 263.731014 
L 180.841634 262.47096 
L 188.468425 261.417965 
L 197.190739 259.945869 
L 205.060395 258.320552 
L 212.809154 256.369593 
L 218.582236 254.621009 
L 223.53429 252.853646 
L 227.861695 251.037659 
L 232.411013 248.742281 
L 235.229016 247.032083 
L 237.582748 245.351576 
L 239.637821 243.604903 
L 240.709781 242.54181 
L 242.051375 240.988363 
L 243.172264 239.390134 
L 244.060444 237.7686 
L 244.603195 236.468964 
L 245.010845 235.143865 
L 245.329859 233.451031 
L 245.436135 231.71975 
L 245.360697 230.234835 
L 245.10415 228.572259 
L 244.666174 226.878759 
L 244.110448 225.311178 
L 242.778128 222.505757 
L 241.262723 220.023128 
L 239.009762 216.980618 
L 235.922124 213.478116 
L 232.506941 210.117074 
L 229.858696 207.750552 
L 226.983263 205.35126 
L 221.31574 200.997917 
L 216.370809 197.494056 
L 209.342611 192.846117 
L 201.319726 187.883583 
L 192.147624 182.528791 
L 181.627422 176.683949 
L 168.934631 169.924161 
L 154.392426 162.434755 
L 126.56716 148.455127 
L 99.810951 134.938269 
L 84.941199 127.166651 
L 75.265784 121.92305 
L 65.809846 116.590321 
L 57.330841 111.566982 
L 49.286639 106.506533 
L 41.867899 101.476704 
L 36.361334 97.4175 
L 30.468009 92.606388 
L 27.862915 90.253118 
L 25.331064 87.770895 
L 23.072324 85.329361 
L 20.244995 81.796813 
L 18.576762 79.281326 
L 17.386495 77.108414 
L 16.708288 75.605832 
L 16.162268 74.124985 
L 15.701402 72.461893 
L 15.319153 69.747746 
L 15.373778 67.540263 
L 15.537257 66.416199 
L 15.95198 64.772673 
L 16.684213 62.923524 
L 17.538806 61.360583 
L 18.595359 59.837471 
L 19.806424 58.404139 
L 21.202286 57.009234 
L 22.758525 55.671041 
L 26.323117 53.154819 
L 29.233217 51.470801 
L 31.64515 50.248258 
L 34.360607 49.015878 
L 40.232997 46.74221 
L 47.007284 44.601186 
L 53.12957 42.988733 
L 60.544203 41.348388 
L 68.461865 39.89754 
L 78.010093 38.4821 
L 85.159189 37.624262 
L 92.99683 36.857412 
L 99.066403 36.377263 
L 114.566152 35.560164 
L 120.538366 35.392504 
L 130.367758 35.287308 
L 130.367758 35.287308 
" style="fill:none;stroke:#0000ff;stroke-linecap:square;stroke-width:1.5;"/>
   </g>
   <g id="patch_4">
    <path d="M 130.367758 270.005 
L 130.367758 30.685 
" style="fill:none;stroke:#000000;stroke-linecap:square;stroke-linejoin:miter;stroke-width:0.8;"/>
   </g>
   <g id="patch_5">
    <path d="M 10.7 150.355686 
L 250.038805 150.355686 
" style="fill:none;stroke:#000000;stroke-linecap:square;stroke-linejoin:miter;stroke-width:0.8;"/>
   </g>
  </g>
 </g>
 <defs>
  <clipPath id="p5d05a145e0">
   <rect height="239.32" width="239.338805" x="10.7" y="30.685"/>
  </clipPath>
 </defs>
</svg>
